G04 #@! TF.GenerationSoftware,KiCad,Pcbnew,(5.1.5)-3*
G04 #@! TF.CreationDate,2021-03-11T16:40:43+00:00*
G04 #@! TF.ProjectId,ProgrammingAdapter,50726f67-7261-46d6-9d69-6e6741646170,rev?*
G04 #@! TF.SameCoordinates,Original*
G04 #@! TF.FileFunction,Legend,Bot*
G04 #@! TF.FilePolarity,Positive*
%FSLAX46Y46*%
G04 Gerber Fmt 4.6, Leading zero omitted, Abs format (unit mm)*
G04 Created by KiCad (PCBNEW (5.1.5)-3) date 2021-03-11 16:40:43*
%MOMM*%
%LPD*%
G04 APERTURE LIST*
%ADD10C,0.150000*%
%ADD11C,0.120000*%
G04 APERTURE END LIST*
D10*
X56304761Y-61657142D02*
X56352380Y-61800000D01*
X56352380Y-62038095D01*
X56304761Y-62133333D01*
X56257142Y-62180952D01*
X56161904Y-62228571D01*
X56066666Y-62228571D01*
X55971428Y-62180952D01*
X55923809Y-62133333D01*
X55876190Y-62038095D01*
X55828571Y-61847619D01*
X55780952Y-61752380D01*
X55733333Y-61704761D01*
X55638095Y-61657142D01*
X55542857Y-61657142D01*
X55447619Y-61704761D01*
X55400000Y-61752380D01*
X55352380Y-61847619D01*
X55352380Y-62085714D01*
X55400000Y-62228571D01*
X56352380Y-62800000D02*
X56304761Y-62704761D01*
X56257142Y-62657142D01*
X56161904Y-62609523D01*
X55876190Y-62609523D01*
X55780952Y-62657142D01*
X55733333Y-62704761D01*
X55685714Y-62800000D01*
X55685714Y-62942857D01*
X55733333Y-63038095D01*
X55780952Y-63085714D01*
X55876190Y-63133333D01*
X56161904Y-63133333D01*
X56257142Y-63085714D01*
X56304761Y-63038095D01*
X56352380Y-62942857D01*
X56352380Y-62800000D01*
X56304761Y-63990476D02*
X56352380Y-63895238D01*
X56352380Y-63704761D01*
X56304761Y-63609523D01*
X56257142Y-63561904D01*
X56161904Y-63514285D01*
X55876190Y-63514285D01*
X55780952Y-63561904D01*
X55733333Y-63609523D01*
X55685714Y-63704761D01*
X55685714Y-63895238D01*
X55733333Y-63990476D01*
X56352380Y-64419047D02*
X55352380Y-64419047D01*
X55971428Y-64514285D02*
X56352380Y-64800000D01*
X55685714Y-64800000D02*
X56066666Y-64419047D01*
X56304761Y-65609523D02*
X56352380Y-65514285D01*
X56352380Y-65323809D01*
X56304761Y-65228571D01*
X56209523Y-65180952D01*
X55828571Y-65180952D01*
X55733333Y-65228571D01*
X55685714Y-65323809D01*
X55685714Y-65514285D01*
X55733333Y-65609523D01*
X55828571Y-65657142D01*
X55923809Y-65657142D01*
X56019047Y-65180952D01*
X55685714Y-65942857D02*
X55685714Y-66323809D01*
X55352380Y-66085714D02*
X56209523Y-66085714D01*
X56304761Y-66133333D01*
X56352380Y-66228571D01*
X56352380Y-66323809D01*
X56304761Y-66609523D02*
X56352380Y-66704761D01*
X56352380Y-66895238D01*
X56304761Y-66990476D01*
X56209523Y-67038095D01*
X56161904Y-67038095D01*
X56066666Y-66990476D01*
X56019047Y-66895238D01*
X56019047Y-66752380D01*
X55971428Y-66657142D01*
X55876190Y-66609523D01*
X55828571Y-66609523D01*
X55733333Y-66657142D01*
X55685714Y-66752380D01*
X55685714Y-66895238D01*
X55733333Y-66990476D01*
X55685714Y-68085714D02*
X55685714Y-68466666D01*
X56352380Y-68228571D02*
X55495238Y-68228571D01*
X55400000Y-68276190D01*
X55352380Y-68371428D01*
X55352380Y-68466666D01*
X56352380Y-69228571D02*
X55828571Y-69228571D01*
X55733333Y-69180952D01*
X55685714Y-69085714D01*
X55685714Y-68895238D01*
X55733333Y-68800000D01*
X56304761Y-69228571D02*
X56352380Y-69133333D01*
X56352380Y-68895238D01*
X56304761Y-68800000D01*
X56209523Y-68752380D01*
X56114285Y-68752380D01*
X56019047Y-68800000D01*
X55971428Y-68895238D01*
X55971428Y-69133333D01*
X55923809Y-69228571D01*
X56304761Y-70133333D02*
X56352380Y-70038095D01*
X56352380Y-69847619D01*
X56304761Y-69752380D01*
X56257142Y-69704761D01*
X56161904Y-69657142D01*
X55876190Y-69657142D01*
X55780952Y-69704761D01*
X55733333Y-69752380D01*
X55685714Y-69847619D01*
X55685714Y-70038095D01*
X55733333Y-70133333D01*
X56304761Y-70942857D02*
X56352380Y-70847619D01*
X56352380Y-70657142D01*
X56304761Y-70561904D01*
X56209523Y-70514285D01*
X55828571Y-70514285D01*
X55733333Y-70561904D01*
X55685714Y-70657142D01*
X55685714Y-70847619D01*
X55733333Y-70942857D01*
X55828571Y-70990476D01*
X55923809Y-70990476D01*
X56019047Y-70514285D01*
X56352380Y-72323809D02*
X56304761Y-72228571D01*
X56257142Y-72180952D01*
X56161904Y-72133333D01*
X55876190Y-72133333D01*
X55780952Y-72180952D01*
X55733333Y-72228571D01*
X55685714Y-72323809D01*
X55685714Y-72466666D01*
X55733333Y-72561904D01*
X55780952Y-72609523D01*
X55876190Y-72657142D01*
X56161904Y-72657142D01*
X56257142Y-72609523D01*
X56304761Y-72561904D01*
X56352380Y-72466666D01*
X56352380Y-72323809D01*
X55685714Y-73514285D02*
X56352380Y-73514285D01*
X55685714Y-73085714D02*
X56209523Y-73085714D01*
X56304761Y-73133333D01*
X56352380Y-73228571D01*
X56352380Y-73371428D01*
X56304761Y-73466666D01*
X56257142Y-73514285D01*
X55685714Y-73847619D02*
X55685714Y-74228571D01*
X55352380Y-73990476D02*
X56209523Y-73990476D01*
X56304761Y-74038095D01*
X56352380Y-74133333D01*
X56352380Y-74228571D01*
X55685714Y-74466666D02*
X56352380Y-74657142D01*
X55876190Y-74847619D01*
X56352380Y-75038095D01*
X55685714Y-75228571D01*
X56352380Y-76038095D02*
X55828571Y-76038095D01*
X55733333Y-75990476D01*
X55685714Y-75895238D01*
X55685714Y-75704761D01*
X55733333Y-75609523D01*
X56304761Y-76038095D02*
X56352380Y-75942857D01*
X56352380Y-75704761D01*
X56304761Y-75609523D01*
X56209523Y-75561904D01*
X56114285Y-75561904D01*
X56019047Y-75609523D01*
X55971428Y-75704761D01*
X55971428Y-75942857D01*
X55923809Y-76038095D01*
X56352380Y-76514285D02*
X55685714Y-76514285D01*
X55876190Y-76514285D02*
X55780952Y-76561904D01*
X55733333Y-76609523D01*
X55685714Y-76704761D01*
X55685714Y-76800000D01*
X56352380Y-77561904D02*
X55352380Y-77561904D01*
X56304761Y-77561904D02*
X56352380Y-77466666D01*
X56352380Y-77276190D01*
X56304761Y-77180952D01*
X56257142Y-77133333D01*
X56161904Y-77085714D01*
X55876190Y-77085714D01*
X55780952Y-77133333D01*
X55733333Y-77180952D01*
X55685714Y-77276190D01*
X55685714Y-77466666D01*
X55733333Y-77561904D01*
X56304761Y-77990476D02*
X56352380Y-78085714D01*
X56352380Y-78276190D01*
X56304761Y-78371428D01*
X56209523Y-78419047D01*
X56161904Y-78419047D01*
X56066666Y-78371428D01*
X56019047Y-78276190D01*
X56019047Y-78133333D01*
X55971428Y-78038095D01*
X55876190Y-77990476D01*
X55828571Y-77990476D01*
X55733333Y-78038095D01*
X55685714Y-78133333D01*
X55685714Y-78276190D01*
X55733333Y-78371428D01*
X55685714Y-79466666D02*
X55685714Y-79847619D01*
X56352380Y-79609523D02*
X55495238Y-79609523D01*
X55400000Y-79657142D01*
X55352380Y-79752380D01*
X55352380Y-79847619D01*
X56352380Y-80180952D02*
X55685714Y-80180952D01*
X55876190Y-80180952D02*
X55780952Y-80228571D01*
X55733333Y-80276190D01*
X55685714Y-80371428D01*
X55685714Y-80466666D01*
X56352380Y-80942857D02*
X56304761Y-80847619D01*
X56257142Y-80800000D01*
X56161904Y-80752380D01*
X55876190Y-80752380D01*
X55780952Y-80800000D01*
X55733333Y-80847619D01*
X55685714Y-80942857D01*
X55685714Y-81085714D01*
X55733333Y-81180952D01*
X55780952Y-81228571D01*
X55876190Y-81276190D01*
X56161904Y-81276190D01*
X56257142Y-81228571D01*
X56304761Y-81180952D01*
X56352380Y-81085714D01*
X56352380Y-80942857D01*
X56352380Y-81704761D02*
X55685714Y-81704761D01*
X55780952Y-81704761D02*
X55733333Y-81752380D01*
X55685714Y-81847619D01*
X55685714Y-81990476D01*
X55733333Y-82085714D01*
X55828571Y-82133333D01*
X56352380Y-82133333D01*
X55828571Y-82133333D02*
X55733333Y-82180952D01*
X55685714Y-82276190D01*
X55685714Y-82419047D01*
X55733333Y-82514285D01*
X55828571Y-82561904D01*
X56352380Y-82561904D01*
X55685714Y-83657142D02*
X55685714Y-84038095D01*
X55352380Y-83800000D02*
X56209523Y-83800000D01*
X56304761Y-83847619D01*
X56352380Y-83942857D01*
X56352380Y-84038095D01*
X56352380Y-84371428D02*
X55352380Y-84371428D01*
X56352380Y-84800000D02*
X55828571Y-84800000D01*
X55733333Y-84752380D01*
X55685714Y-84657142D01*
X55685714Y-84514285D01*
X55733333Y-84419047D01*
X55780952Y-84371428D01*
X56352380Y-85276190D02*
X55685714Y-85276190D01*
X55352380Y-85276190D02*
X55400000Y-85228571D01*
X55447619Y-85276190D01*
X55400000Y-85323809D01*
X55352380Y-85276190D01*
X55447619Y-85276190D01*
X56304761Y-85704761D02*
X56352380Y-85800000D01*
X56352380Y-85990476D01*
X56304761Y-86085714D01*
X56209523Y-86133333D01*
X56161904Y-86133333D01*
X56066666Y-86085714D01*
X56019047Y-85990476D01*
X56019047Y-85847619D01*
X55971428Y-85752380D01*
X55876190Y-85704761D01*
X55828571Y-85704761D01*
X55733333Y-85752380D01*
X55685714Y-85847619D01*
X55685714Y-85990476D01*
X55733333Y-86085714D01*
X56304761Y-87276190D02*
X56352380Y-87371428D01*
X56352380Y-87561904D01*
X56304761Y-87657142D01*
X56209523Y-87704761D01*
X56161904Y-87704761D01*
X56066666Y-87657142D01*
X56019047Y-87561904D01*
X56019047Y-87419047D01*
X55971428Y-87323809D01*
X55876190Y-87276190D01*
X55828571Y-87276190D01*
X55733333Y-87323809D01*
X55685714Y-87419047D01*
X55685714Y-87561904D01*
X55733333Y-87657142D01*
X56352380Y-88133333D02*
X55685714Y-88133333D01*
X55352380Y-88133333D02*
X55400000Y-88085714D01*
X55447619Y-88133333D01*
X55400000Y-88180952D01*
X55352380Y-88133333D01*
X55447619Y-88133333D01*
X56352380Y-89038095D02*
X55352380Y-89038095D01*
X56304761Y-89038095D02*
X56352380Y-88942857D01*
X56352380Y-88752380D01*
X56304761Y-88657142D01*
X56257142Y-88609523D01*
X56161904Y-88561904D01*
X55876190Y-88561904D01*
X55780952Y-88609523D01*
X55733333Y-88657142D01*
X55685714Y-88752380D01*
X55685714Y-88942857D01*
X55733333Y-89038095D01*
X56304761Y-89895238D02*
X56352380Y-89800000D01*
X56352380Y-89609523D01*
X56304761Y-89514285D01*
X56209523Y-89466666D01*
X55828571Y-89466666D01*
X55733333Y-89514285D01*
X55685714Y-89609523D01*
X55685714Y-89800000D01*
X55733333Y-89895238D01*
X55828571Y-89942857D01*
X55923809Y-89942857D01*
X56019047Y-89466666D01*
D11*
X59480000Y-120100000D02*
X59480000Y-118770000D01*
X59480000Y-118770000D02*
X58150000Y-118770000D01*
X56880000Y-118770000D02*
X51740000Y-118770000D01*
X51740000Y-121430000D02*
X51740000Y-118770000D01*
X56880000Y-121430000D02*
X51740000Y-121430000D01*
X56880000Y-121430000D02*
X56880000Y-118770000D01*
X51820000Y-110100000D02*
X51820000Y-111430000D01*
X51820000Y-111430000D02*
X53150000Y-111430000D01*
X51820000Y-108830000D02*
X54420000Y-108830000D01*
X54420000Y-108830000D02*
X54420000Y-111430000D01*
X54420000Y-111430000D02*
X59560000Y-111430000D01*
X59560000Y-106230000D02*
X59560000Y-111430000D01*
X51820000Y-106230000D02*
X59560000Y-106230000D01*
X51820000Y-106230000D02*
X51820000Y-108830000D01*
X59580000Y-42200000D02*
X59580000Y-40870000D01*
X59580000Y-40870000D02*
X58250000Y-40870000D01*
X59580000Y-43470000D02*
X56980000Y-43470000D01*
X56980000Y-43470000D02*
X56980000Y-40870000D01*
X56980000Y-40870000D02*
X51840000Y-40870000D01*
X51840000Y-46070000D02*
X51840000Y-40870000D01*
X59580000Y-46070000D02*
X51840000Y-46070000D01*
X59580000Y-46070000D02*
X59580000Y-43470000D01*
M02*
