G04 #@! TF.GenerationSoftware,KiCad,Pcbnew,(5.1.5)-3*
G04 #@! TF.CreationDate,2021-03-11T16:40:43+00:00*
G04 #@! TF.ProjectId,ProgrammingAdapter,50726f67-7261-46d6-9d69-6e6741646170,rev?*
G04 #@! TF.SameCoordinates,Original*
G04 #@! TF.FileFunction,Copper,L2,Bot*
G04 #@! TF.FilePolarity,Positive*
%FSLAX46Y46*%
G04 Gerber Fmt 4.6, Leading zero omitted, Abs format (unit mm)*
G04 Created by KiCad (PCBNEW (5.1.5)-3) date 2021-03-11 16:40:43*
%MOMM*%
%LPD*%
G04 APERTURE LIST*
%ADD10O,1.700000X1.700000*%
%ADD11R,1.700000X1.700000*%
%ADD12C,0.800000*%
%ADD13C,0.450000*%
%ADD14C,0.250000*%
%ADD15C,0.254000*%
G04 APERTURE END LIST*
D10*
X53070000Y-120100000D03*
X55610000Y-120100000D03*
D11*
X58150000Y-120100000D03*
D10*
X58230000Y-107560000D03*
X58230000Y-110100000D03*
X55690000Y-107560000D03*
X55690000Y-110100000D03*
X53150000Y-107560000D03*
D11*
X53150000Y-110100000D03*
D10*
X53170000Y-44740000D03*
X53170000Y-42200000D03*
X55710000Y-44740000D03*
X55710000Y-42200000D03*
X58250000Y-44740000D03*
D11*
X58250000Y-42200000D03*
D12*
X56000000Y-53800000D03*
X53250000Y-49050000D03*
X54300000Y-49050000D03*
X52900000Y-52900000D03*
X52900000Y-62450000D03*
X54800000Y-62450000D03*
D13*
X59522178Y-107200011D02*
X59449989Y-107127822D01*
X59522178Y-108807822D02*
X59522178Y-107200011D01*
X58230000Y-110100000D02*
X59522178Y-108807822D01*
X59449989Y-57249989D02*
X56399999Y-54199999D01*
X56399999Y-54199999D02*
X56000000Y-53800000D01*
X59449989Y-107127822D02*
X59449989Y-57249989D01*
D14*
X55710000Y-42200000D02*
X55710000Y-40910000D01*
X55710000Y-40910000D02*
X55820000Y-40800000D01*
X55820000Y-40800000D02*
X60150000Y-40800000D01*
X60150000Y-40800000D02*
X60000000Y-40950000D01*
X60000000Y-40950000D02*
X60000000Y-106900002D01*
X60072188Y-106972190D02*
X60072188Y-112327812D01*
X60000000Y-106900002D02*
X60072188Y-106972190D01*
X60072188Y-112327812D02*
X59700000Y-112700000D01*
X59700000Y-112700000D02*
X56700000Y-112700000D01*
X55690000Y-111690000D02*
X55690000Y-110100000D01*
X56700000Y-112700000D02*
X55690000Y-111690000D01*
D13*
X58150000Y-118800000D02*
X53450000Y-114100000D01*
X58150000Y-120100000D02*
X58150000Y-118800000D01*
X53450000Y-114100000D02*
X53050000Y-114100000D01*
X53050000Y-114100000D02*
X51300000Y-112350000D01*
X51300000Y-112350000D02*
X51300000Y-108000000D01*
X51740000Y-107560000D02*
X53150000Y-107560000D01*
X51300000Y-108000000D02*
X51740000Y-107560000D01*
X55150000Y-47840000D02*
X58250000Y-44740000D01*
X52260000Y-47840000D02*
X55150000Y-47840000D01*
X51600000Y-48500000D02*
X52260000Y-47840000D01*
X53150000Y-107560000D02*
X51600000Y-106010000D01*
X51600000Y-106010000D02*
X51600000Y-48500000D01*
D15*
G36*
X52412015Y-114678239D02*
G01*
X52438946Y-114711054D01*
X52569898Y-114818524D01*
X52667259Y-114870564D01*
X52719299Y-114898381D01*
X52881410Y-114947556D01*
X53050000Y-114964161D01*
X53092246Y-114960000D01*
X53093777Y-114960000D01*
X56894829Y-118761053D01*
X56848815Y-118798815D01*
X56769463Y-118895506D01*
X56710498Y-119005820D01*
X56688487Y-119078380D01*
X56556632Y-118946525D01*
X56313411Y-118784010D01*
X56043158Y-118672068D01*
X55756260Y-118615000D01*
X55463740Y-118615000D01*
X55176842Y-118672068D01*
X54906589Y-118784010D01*
X54663368Y-118946525D01*
X54456525Y-119153368D01*
X54334805Y-119335534D01*
X54265178Y-119218645D01*
X54070269Y-119002412D01*
X53836920Y-118828359D01*
X53574099Y-118703175D01*
X53426890Y-118658524D01*
X53197000Y-118779845D01*
X53197000Y-119973000D01*
X53217000Y-119973000D01*
X53217000Y-120227000D01*
X53197000Y-120227000D01*
X53197000Y-121420155D01*
X53426890Y-121541476D01*
X53574099Y-121496825D01*
X53836920Y-121371641D01*
X54070269Y-121197588D01*
X54265178Y-120981355D01*
X54334805Y-120864466D01*
X54456525Y-121046632D01*
X54663368Y-121253475D01*
X54906589Y-121415990D01*
X55176842Y-121527932D01*
X55463740Y-121585000D01*
X55756260Y-121585000D01*
X56043158Y-121527932D01*
X56313411Y-121415990D01*
X56556632Y-121253475D01*
X56688487Y-121121620D01*
X56710498Y-121194180D01*
X56769463Y-121304494D01*
X56848815Y-121401185D01*
X56945506Y-121480537D01*
X57055820Y-121539502D01*
X57175518Y-121575812D01*
X57300000Y-121588072D01*
X58706805Y-121588072D01*
X57605208Y-122690000D01*
X53994418Y-122690000D01*
X52799791Y-121495732D01*
X52943000Y-121420155D01*
X52943000Y-120227000D01*
X51749186Y-120227000D01*
X51673987Y-120370267D01*
X51210000Y-119906420D01*
X51210000Y-119743109D01*
X51628519Y-119743109D01*
X51749186Y-119973000D01*
X52943000Y-119973000D01*
X52943000Y-118779845D01*
X52713110Y-118658524D01*
X52565901Y-118703175D01*
X52303080Y-118828359D01*
X52069731Y-119002412D01*
X51874822Y-119218645D01*
X51725843Y-119468748D01*
X51628519Y-119743109D01*
X51210000Y-119743109D01*
X51210000Y-113476223D01*
X52412015Y-114678239D01*
G37*
X52412015Y-114678239D02*
X52438946Y-114711054D01*
X52569898Y-114818524D01*
X52667259Y-114870564D01*
X52719299Y-114898381D01*
X52881410Y-114947556D01*
X53050000Y-114964161D01*
X53092246Y-114960000D01*
X53093777Y-114960000D01*
X56894829Y-118761053D01*
X56848815Y-118798815D01*
X56769463Y-118895506D01*
X56710498Y-119005820D01*
X56688487Y-119078380D01*
X56556632Y-118946525D01*
X56313411Y-118784010D01*
X56043158Y-118672068D01*
X55756260Y-118615000D01*
X55463740Y-118615000D01*
X55176842Y-118672068D01*
X54906589Y-118784010D01*
X54663368Y-118946525D01*
X54456525Y-119153368D01*
X54334805Y-119335534D01*
X54265178Y-119218645D01*
X54070269Y-119002412D01*
X53836920Y-118828359D01*
X53574099Y-118703175D01*
X53426890Y-118658524D01*
X53197000Y-118779845D01*
X53197000Y-119973000D01*
X53217000Y-119973000D01*
X53217000Y-120227000D01*
X53197000Y-120227000D01*
X53197000Y-121420155D01*
X53426890Y-121541476D01*
X53574099Y-121496825D01*
X53836920Y-121371641D01*
X54070269Y-121197588D01*
X54265178Y-120981355D01*
X54334805Y-120864466D01*
X54456525Y-121046632D01*
X54663368Y-121253475D01*
X54906589Y-121415990D01*
X55176842Y-121527932D01*
X55463740Y-121585000D01*
X55756260Y-121585000D01*
X56043158Y-121527932D01*
X56313411Y-121415990D01*
X56556632Y-121253475D01*
X56688487Y-121121620D01*
X56710498Y-121194180D01*
X56769463Y-121304494D01*
X56848815Y-121401185D01*
X56945506Y-121480537D01*
X57055820Y-121539502D01*
X57175518Y-121575812D01*
X57300000Y-121588072D01*
X58706805Y-121588072D01*
X57605208Y-122690000D01*
X53994418Y-122690000D01*
X52799791Y-121495732D01*
X52943000Y-121420155D01*
X52943000Y-120227000D01*
X51749186Y-120227000D01*
X51673987Y-120370267D01*
X51210000Y-119906420D01*
X51210000Y-119743109D01*
X51628519Y-119743109D01*
X51749186Y-119973000D01*
X52943000Y-119973000D01*
X52943000Y-118779845D01*
X52713110Y-118658524D01*
X52565901Y-118703175D01*
X52303080Y-118828359D01*
X52069731Y-119002412D01*
X51874822Y-119218645D01*
X51725843Y-119468748D01*
X51628519Y-119743109D01*
X51210000Y-119743109D01*
X51210000Y-113476223D01*
X52412015Y-114678239D01*
G36*
X59240000Y-55823776D02*
G01*
X57015314Y-53599091D01*
X56995226Y-53498102D01*
X56917205Y-53309744D01*
X56803937Y-53140226D01*
X56659774Y-52996063D01*
X56490256Y-52882795D01*
X56301898Y-52804774D01*
X56101939Y-52765000D01*
X55898061Y-52765000D01*
X55698102Y-52804774D01*
X55509744Y-52882795D01*
X55340226Y-52996063D01*
X55196063Y-53140226D01*
X55082795Y-53309744D01*
X55004774Y-53498102D01*
X54965000Y-53698061D01*
X54965000Y-53901939D01*
X55004774Y-54101898D01*
X55082795Y-54290256D01*
X55196063Y-54459774D01*
X55340226Y-54603937D01*
X55509744Y-54717205D01*
X55698102Y-54795226D01*
X55799091Y-54815314D01*
X58589990Y-57606214D01*
X58589989Y-106119464D01*
X58586890Y-106118524D01*
X58357000Y-106239845D01*
X58357000Y-107433000D01*
X58377000Y-107433000D01*
X58377000Y-107687000D01*
X58357000Y-107687000D01*
X58357000Y-107707000D01*
X58103000Y-107707000D01*
X58103000Y-107687000D01*
X58083000Y-107687000D01*
X58083000Y-107433000D01*
X58103000Y-107433000D01*
X58103000Y-106239845D01*
X57873110Y-106118524D01*
X57725901Y-106163175D01*
X57463080Y-106288359D01*
X57229731Y-106462412D01*
X57034822Y-106678645D01*
X56965195Y-106795534D01*
X56843475Y-106613368D01*
X56636632Y-106406525D01*
X56393411Y-106244010D01*
X56123158Y-106132068D01*
X55836260Y-106075000D01*
X55543740Y-106075000D01*
X55256842Y-106132068D01*
X54986589Y-106244010D01*
X54743368Y-106406525D01*
X54536525Y-106613368D01*
X54420000Y-106787760D01*
X54303475Y-106613368D01*
X54096632Y-106406525D01*
X53853411Y-106244010D01*
X53583158Y-106132068D01*
X53296260Y-106075000D01*
X53003740Y-106075000D01*
X52901550Y-106095327D01*
X52460000Y-105653777D01*
X52460000Y-48856223D01*
X52616224Y-48700000D01*
X55107761Y-48700000D01*
X55150000Y-48704160D01*
X55192239Y-48700000D01*
X55192246Y-48700000D01*
X55318589Y-48687556D01*
X55480700Y-48638381D01*
X55630102Y-48558524D01*
X55761054Y-48451054D01*
X55787988Y-48418235D01*
X58001551Y-46204673D01*
X58103740Y-46225000D01*
X58396260Y-46225000D01*
X58683158Y-46167932D01*
X58953411Y-46055990D01*
X59196632Y-45893475D01*
X59240000Y-45850107D01*
X59240000Y-55823776D01*
G37*
X59240000Y-55823776D02*
X57015314Y-53599091D01*
X56995226Y-53498102D01*
X56917205Y-53309744D01*
X56803937Y-53140226D01*
X56659774Y-52996063D01*
X56490256Y-52882795D01*
X56301898Y-52804774D01*
X56101939Y-52765000D01*
X55898061Y-52765000D01*
X55698102Y-52804774D01*
X55509744Y-52882795D01*
X55340226Y-52996063D01*
X55196063Y-53140226D01*
X55082795Y-53309744D01*
X55004774Y-53498102D01*
X54965000Y-53698061D01*
X54965000Y-53901939D01*
X55004774Y-54101898D01*
X55082795Y-54290256D01*
X55196063Y-54459774D01*
X55340226Y-54603937D01*
X55509744Y-54717205D01*
X55698102Y-54795226D01*
X55799091Y-54815314D01*
X58589990Y-57606214D01*
X58589989Y-106119464D01*
X58586890Y-106118524D01*
X58357000Y-106239845D01*
X58357000Y-107433000D01*
X58377000Y-107433000D01*
X58377000Y-107687000D01*
X58357000Y-107687000D01*
X58357000Y-107707000D01*
X58103000Y-107707000D01*
X58103000Y-107687000D01*
X58083000Y-107687000D01*
X58083000Y-107433000D01*
X58103000Y-107433000D01*
X58103000Y-106239845D01*
X57873110Y-106118524D01*
X57725901Y-106163175D01*
X57463080Y-106288359D01*
X57229731Y-106462412D01*
X57034822Y-106678645D01*
X56965195Y-106795534D01*
X56843475Y-106613368D01*
X56636632Y-106406525D01*
X56393411Y-106244010D01*
X56123158Y-106132068D01*
X55836260Y-106075000D01*
X55543740Y-106075000D01*
X55256842Y-106132068D01*
X54986589Y-106244010D01*
X54743368Y-106406525D01*
X54536525Y-106613368D01*
X54420000Y-106787760D01*
X54303475Y-106613368D01*
X54096632Y-106406525D01*
X53853411Y-106244010D01*
X53583158Y-106132068D01*
X53296260Y-106075000D01*
X53003740Y-106075000D01*
X52901550Y-106095327D01*
X52460000Y-105653777D01*
X52460000Y-48856223D01*
X52616224Y-48700000D01*
X55107761Y-48700000D01*
X55150000Y-48704160D01*
X55192239Y-48700000D01*
X55192246Y-48700000D01*
X55318589Y-48687556D01*
X55480700Y-48638381D01*
X55630102Y-48558524D01*
X55761054Y-48451054D01*
X55787988Y-48418235D01*
X58001551Y-46204673D01*
X58103740Y-46225000D01*
X58396260Y-46225000D01*
X58683158Y-46167932D01*
X58953411Y-46055990D01*
X59196632Y-45893475D01*
X59240000Y-45850107D01*
X59240000Y-55823776D01*
G36*
X52016525Y-43146632D02*
G01*
X52223368Y-43353475D01*
X52399406Y-43471100D01*
X52169731Y-43642412D01*
X51974822Y-43858645D01*
X51825843Y-44108748D01*
X51728519Y-44383109D01*
X51849186Y-44613000D01*
X53043000Y-44613000D01*
X53043000Y-44593000D01*
X53297000Y-44593000D01*
X53297000Y-44613000D01*
X53317000Y-44613000D01*
X53317000Y-44867000D01*
X53297000Y-44867000D01*
X53297000Y-46060155D01*
X53526890Y-46181476D01*
X53674099Y-46136825D01*
X53936920Y-46011641D01*
X54170269Y-45837588D01*
X54365178Y-45621355D01*
X54434805Y-45504466D01*
X54556525Y-45686632D01*
X54763368Y-45893475D01*
X55006589Y-46055990D01*
X55276842Y-46167932D01*
X55551259Y-46222517D01*
X54793777Y-46980000D01*
X52302239Y-46980000D01*
X52260000Y-46975840D01*
X52217761Y-46980000D01*
X52217754Y-46980000D01*
X52106975Y-46990911D01*
X52091410Y-46992444D01*
X52042235Y-47007361D01*
X51929300Y-47041619D01*
X51779898Y-47121476D01*
X51648946Y-47228946D01*
X51622016Y-47261760D01*
X51210000Y-47673777D01*
X51210000Y-45096891D01*
X51728519Y-45096891D01*
X51825843Y-45371252D01*
X51974822Y-45621355D01*
X52169731Y-45837588D01*
X52403080Y-46011641D01*
X52665901Y-46136825D01*
X52813110Y-46181476D01*
X53043000Y-46060155D01*
X53043000Y-44867000D01*
X51849186Y-44867000D01*
X51728519Y-45096891D01*
X51210000Y-45096891D01*
X51210000Y-43820623D01*
X51963348Y-43067048D01*
X52016525Y-43146632D01*
G37*
X52016525Y-43146632D02*
X52223368Y-43353475D01*
X52399406Y-43471100D01*
X52169731Y-43642412D01*
X51974822Y-43858645D01*
X51825843Y-44108748D01*
X51728519Y-44383109D01*
X51849186Y-44613000D01*
X53043000Y-44613000D01*
X53043000Y-44593000D01*
X53297000Y-44593000D01*
X53297000Y-44613000D01*
X53317000Y-44613000D01*
X53317000Y-44867000D01*
X53297000Y-44867000D01*
X53297000Y-46060155D01*
X53526890Y-46181476D01*
X53674099Y-46136825D01*
X53936920Y-46011641D01*
X54170269Y-45837588D01*
X54365178Y-45621355D01*
X54434805Y-45504466D01*
X54556525Y-45686632D01*
X54763368Y-45893475D01*
X55006589Y-46055990D01*
X55276842Y-46167932D01*
X55551259Y-46222517D01*
X54793777Y-46980000D01*
X52302239Y-46980000D01*
X52260000Y-46975840D01*
X52217761Y-46980000D01*
X52217754Y-46980000D01*
X52106975Y-46990911D01*
X52091410Y-46992444D01*
X52042235Y-47007361D01*
X51929300Y-47041619D01*
X51779898Y-47121476D01*
X51648946Y-47228946D01*
X51622016Y-47261760D01*
X51210000Y-47673777D01*
X51210000Y-45096891D01*
X51728519Y-45096891D01*
X51825843Y-45371252D01*
X51974822Y-45621355D01*
X52169731Y-45837588D01*
X52403080Y-46011641D01*
X52665901Y-46136825D01*
X52813110Y-46181476D01*
X53043000Y-46060155D01*
X53043000Y-44867000D01*
X51849186Y-44867000D01*
X51728519Y-45096891D01*
X51210000Y-45096891D01*
X51210000Y-43820623D01*
X51963348Y-43067048D01*
X52016525Y-43146632D01*
M02*
