M48
; DRILL file {KiCad (5.1.5)-3} date 11/03/2021 16:40:45
; FORMAT={3:3/ absolute / metric / suppress leading zeros}
; #@! TF.CreationDate,2021-03-11T16:40:45+00:00
; #@! TF.GenerationSoftware,Kicad,Pcbnew,(5.1.5)-3
; #@! TF.FileFunction,Plated,1,2,PTH
FMAT,2
METRIC,TZ
T1C0.400
T2C1.000
%
G90
G05
T1
X52900Y-52900
X52900Y-62450
X53250Y-49050
X54300Y-49050
X54800Y-62450
X56000Y-53800
T2
X53170Y-42200
X53170Y-44740
X55710Y-42200
X55710Y-44740
X58250Y-42200
X58250Y-44740
X53150Y-107560
X53150Y-110100
X55690Y-107560
X55690Y-110100
X58230Y-107560
X58230Y-110100
X53070Y-120100
X55610Y-120100
X58150Y-120100
T0
M30
