G04 #@! TF.GenerationSoftware,KiCad,Pcbnew,5.1.9+dfsg1-1+deb11u1*
G04 #@! TF.CreationDate,2022-12-13T08:07:40+00:00*
G04 #@! TF.ProjectId,ModuleV450,4d6f6475-6c65-4563-9435-302e6b696361,rev?*
G04 #@! TF.SameCoordinates,Original*
G04 #@! TF.FileFunction,Profile,NP*
%FSLAX46Y46*%
G04 Gerber Fmt 4.6, Leading zero omitted, Abs format (unit mm)*
G04 Created by KiCad (PCBNEW 5.1.9+dfsg1-1+deb11u1) date 2022-12-13 08:07:40*
%MOMM*%
%LPD*%
G01*
G04 APERTURE LIST*
G04 #@! TA.AperFunction,Profile*
%ADD10C,0.150000*%
G04 #@! TD*
G04 #@! TA.AperFunction,Profile*
%ADD11C,0.100000*%
G04 #@! TD*
G04 APERTURE END LIST*
D10*
X101917600Y-107837600D02*
X101917600Y-101827600D01*
X104167600Y-100327600D02*
X104157600Y-99737600D01*
X103417600Y-99737600D02*
X104157600Y-99737600D01*
X103417600Y-99737600D02*
G75*
G02*
X101917600Y-98237600I0J1500000D01*
G01*
X104167600Y-100327600D02*
X103417600Y-100327600D01*
X101917600Y-101827600D02*
G75*
G02*
X103417600Y-100327600I1500000J0D01*
G01*
X110787600Y-109337600D02*
X103417600Y-109337600D01*
X112892600Y-99737600D02*
X112877600Y-107837600D01*
X112292600Y-99737600D02*
X112892600Y-99737600D01*
X112287600Y-107837600D02*
X112292600Y-99737600D01*
X112287600Y-107837600D02*
G75*
G02*
X110787600Y-109337600I-1500000J0D01*
G01*
X114377600Y-109337600D02*
G75*
G02*
X112877600Y-107837600I0J1500000D01*
G01*
X101917600Y-98237600D02*
X101917600Y-49487600D01*
D11*
X122597600Y-73487600D02*
X122617600Y-74087600D01*
X122617600Y-74087600D02*
X116817600Y-74087600D01*
X103717600Y-73487600D02*
X122597600Y-73487600D01*
X103717600Y-74087600D02*
X103717600Y-73487600D01*
X116817600Y-74087600D02*
X103717600Y-74087600D01*
D10*
X131917600Y-107837600D02*
G75*
G02*
X130417600Y-109337600I-1500000J0D01*
G01*
X103417600Y-109337600D02*
G75*
G02*
X101917600Y-107837600I0J1500000D01*
G01*
X101917600Y-49487600D02*
G75*
G02*
X103417600Y-47987600I1500000J0D01*
G01*
X130442600Y-47987600D02*
G75*
G02*
X131942600Y-49487600I0J-1500000D01*
G01*
X130417600Y-109337600D02*
X114377600Y-109337600D01*
X131942600Y-49487600D02*
X131917600Y-107837600D01*
X103417600Y-47987600D02*
X130442600Y-47987600D01*
M02*
