G04 #@! TF.GenerationSoftware,KiCad,Pcbnew,5.1.9+dfsg1-1+deb11u1*
G04 #@! TF.CreationDate,2023-06-27T12:46:43+00:00*
G04 #@! TF.ProjectId,ModuleV450,4d6f6475-6c65-4563-9435-302e6b696361,rev?*
G04 #@! TF.SameCoordinates,Original*
G04 #@! TF.FileFunction,Copper,L2,Bot*
G04 #@! TF.FilePolarity,Positive*
%FSLAX46Y46*%
G04 Gerber Fmt 4.6, Leading zero omitted, Abs format (unit mm)*
G04 Created by KiCad (PCBNEW 5.1.9+dfsg1-1+deb11u1) date 2023-06-27 12:46:43*
%MOMM*%
%LPD*%
G01*
G04 APERTURE LIST*
G04 #@! TA.AperFunction,ComponentPad*
%ADD10O,1.700000X1.700000*%
G04 #@! TD*
G04 #@! TA.AperFunction,ComponentPad*
%ADD11R,1.700000X1.700000*%
G04 #@! TD*
G04 #@! TA.AperFunction,ComponentPad*
%ADD12O,1.800000X3.600000*%
G04 #@! TD*
G04 #@! TA.AperFunction,ComponentPad*
%ADD13O,1.200000X1.750000*%
G04 #@! TD*
G04 #@! TA.AperFunction,ViaPad*
%ADD14C,0.800000*%
G04 #@! TD*
G04 #@! TA.AperFunction,Conductor*
%ADD15C,0.500000*%
G04 #@! TD*
G04 #@! TA.AperFunction,Conductor*
%ADD16C,0.250000*%
G04 #@! TD*
G04 #@! TA.AperFunction,Conductor*
%ADD17C,0.300000*%
G04 #@! TD*
G04 #@! TA.AperFunction,Conductor*
%ADD18C,0.254000*%
G04 #@! TD*
G04 #@! TA.AperFunction,Conductor*
%ADD19C,0.100000*%
G04 #@! TD*
G04 APERTURE END LIST*
D10*
X105017600Y-69767600D03*
X105017600Y-67227600D03*
D11*
X105017600Y-64687600D03*
D12*
X111287600Y-54287600D03*
X115097600Y-54287600D03*
X118907600Y-54287600D03*
G04 #@! TA.AperFunction,ComponentPad*
G36*
G01*
X123617600Y-52737600D02*
X123617600Y-55837600D01*
G75*
G02*
X123367600Y-56087600I-250000J0D01*
G01*
X122067600Y-56087600D01*
G75*
G02*
X121817600Y-55837600I0J250000D01*
G01*
X121817600Y-52737600D01*
G75*
G02*
X122067600Y-52487600I250000J0D01*
G01*
X123367600Y-52487600D01*
G75*
G02*
X123617600Y-52737600I0J-250000D01*
G01*
G37*
G04 #@! TD.AperFunction*
X127327600Y-101487600D03*
G04 #@! TA.AperFunction,ComponentPad*
G36*
G01*
X122617600Y-103037600D02*
X122617600Y-99937600D01*
G75*
G02*
X122867600Y-99687600I250000J0D01*
G01*
X124167600Y-99687600D01*
G75*
G02*
X124417600Y-99937600I0J-250000D01*
G01*
X124417600Y-103037600D01*
G75*
G02*
X124167600Y-103287600I-250000J0D01*
G01*
X122867600Y-103287600D01*
G75*
G02*
X122617600Y-103037600I0J250000D01*
G01*
G37*
G04 #@! TD.AperFunction*
D10*
X109117600Y-105627600D03*
D11*
X109117600Y-103087600D03*
D13*
X121217600Y-50887600D03*
G04 #@! TA.AperFunction,ComponentPad*
G36*
G01*
X123817600Y-50262599D02*
X123817600Y-51512601D01*
G75*
G02*
X123567601Y-51762600I-249999J0D01*
G01*
X122867599Y-51762600D01*
G75*
G02*
X122617600Y-51512601I0J249999D01*
G01*
X122617600Y-50262599D01*
G75*
G02*
X122867599Y-50012600I249999J0D01*
G01*
X123567601Y-50012600D01*
G75*
G02*
X123817600Y-50262599I0J-249999D01*
G01*
G37*
G04 #@! TD.AperFunction*
X110617600Y-50887600D03*
G04 #@! TA.AperFunction,ComponentPad*
G36*
G01*
X113217600Y-50262599D02*
X113217600Y-51512601D01*
G75*
G02*
X112967601Y-51762600I-249999J0D01*
G01*
X112267599Y-51762600D01*
G75*
G02*
X112017600Y-51512601I0J249999D01*
G01*
X112017600Y-50262599D01*
G75*
G02*
X112267599Y-50012600I249999J0D01*
G01*
X112967601Y-50012600D01*
G75*
G02*
X113217600Y-50262599I0J-249999D01*
G01*
G37*
G04 #@! TD.AperFunction*
X127117600Y-105187600D03*
G04 #@! TA.AperFunction,ComponentPad*
G36*
G01*
X124517600Y-105812601D02*
X124517600Y-104562599D01*
G75*
G02*
X124767599Y-104312600I249999J0D01*
G01*
X125467601Y-104312600D01*
G75*
G02*
X125717600Y-104562599I0J-249999D01*
G01*
X125717600Y-105812601D01*
G75*
G02*
X125467601Y-106062600I-249999J0D01*
G01*
X124767599Y-106062600D01*
G75*
G02*
X124517600Y-105812601I0J249999D01*
G01*
G37*
G04 #@! TD.AperFunction*
X129367600Y-76387600D03*
G04 #@! TA.AperFunction,ComponentPad*
G36*
G01*
X126767600Y-77012601D02*
X126767600Y-75762599D01*
G75*
G02*
X127017599Y-75512600I249999J0D01*
G01*
X127717601Y-75512600D01*
G75*
G02*
X127967600Y-75762599I0J-249999D01*
G01*
X127967600Y-77012601D01*
G75*
G02*
X127717601Y-77262600I-249999J0D01*
G01*
X127017599Y-77262600D01*
G75*
G02*
X126767600Y-77012601I0J249999D01*
G01*
G37*
G04 #@! TD.AperFunction*
D14*
X107492600Y-56712600D03*
X116742600Y-101487600D03*
X115762600Y-101487600D03*
X123817600Y-73887600D03*
X129357600Y-72627600D03*
X126892600Y-87987600D03*
X125867600Y-87987600D03*
X127917600Y-87987600D03*
X108817600Y-92712600D03*
X109917600Y-92712600D03*
X111017600Y-92712600D03*
X114367600Y-92712600D03*
X112167600Y-92712600D03*
X113267600Y-92712600D03*
X114782600Y-101487600D03*
X115762600Y-100212600D03*
X116742600Y-100212600D03*
X114782600Y-100212600D03*
X107487600Y-57627600D03*
X105162600Y-62022600D03*
X129387600Y-73817600D03*
X112857600Y-70387600D03*
X124317600Y-72887600D03*
X125917600Y-67987600D03*
X121417600Y-72387600D03*
X103417600Y-72387600D03*
X104517600Y-72387600D03*
X110257600Y-58677600D03*
X109307600Y-58677600D03*
X106337600Y-62022600D03*
X115637600Y-56747600D03*
X117637600Y-56747600D03*
X127567600Y-61737600D03*
X129337600Y-64347600D03*
X108307600Y-98242600D03*
X109407600Y-98242600D03*
X110557600Y-98242600D03*
X106217600Y-76087600D03*
X106217600Y-77237600D03*
X106217600Y-78387600D03*
X106217600Y-79537600D03*
X106217600Y-80687600D03*
X106217600Y-81837600D03*
X106217600Y-82987600D03*
X106217600Y-84137600D03*
X106217600Y-85287600D03*
X106217600Y-86437600D03*
X106217600Y-87587600D03*
X119917600Y-78487600D03*
X119917600Y-76187600D03*
X119917600Y-77337600D03*
X119917600Y-84237600D03*
X119917600Y-83087600D03*
X119917600Y-87687600D03*
X112717600Y-86437600D03*
X112717600Y-85287600D03*
X112717600Y-87587600D03*
X112717600Y-75987600D03*
X112717600Y-78287600D03*
X112717600Y-77137600D03*
X124217600Y-79287600D03*
X124217600Y-80437600D03*
X124217600Y-83687600D03*
X114367600Y-90312600D03*
X113267600Y-90312600D03*
X108817600Y-90312600D03*
X111017600Y-90312600D03*
X112167600Y-90312600D03*
X109917600Y-90312600D03*
X129387600Y-70817600D03*
X129357600Y-69627600D03*
X107817600Y-65087600D03*
X121617600Y-62087600D03*
X126892600Y-86887600D03*
X125867600Y-86887600D03*
X127917600Y-86887600D03*
X121417600Y-59087600D03*
X121917600Y-65687600D03*
X116417600Y-63087600D03*
X112717600Y-82287600D03*
X109361801Y-99982689D03*
X113717592Y-58287600D03*
X117617600Y-63887600D03*
X103017600Y-97597600D03*
X126242599Y-71287600D03*
X114822600Y-66227600D03*
X110717598Y-66387600D03*
X114822600Y-67497600D03*
X111717600Y-67087600D03*
X108417600Y-100087600D03*
X118017600Y-68287600D03*
X113130114Y-79887600D03*
X116417598Y-69087600D03*
X112342590Y-68887600D03*
X109105100Y-64797600D03*
X117917600Y-67087600D03*
D15*
X110617600Y-51487600D02*
X110617600Y-50887600D01*
X111287600Y-54287600D02*
X111287600Y-52157600D01*
X111287600Y-52157600D02*
X110617600Y-51487600D01*
D16*
X117851917Y-65687600D02*
X121917600Y-65687600D01*
X116417602Y-64253285D02*
X117851917Y-65687600D01*
X116417602Y-63687600D02*
X116417602Y-64253285D01*
X116417602Y-63087602D02*
X116417602Y-63687600D01*
X115907600Y-63087600D02*
X116417600Y-63087600D01*
X111317600Y-58497600D02*
X115907600Y-63087600D01*
X111317600Y-54317600D02*
X111317600Y-58497600D01*
X116417600Y-63087600D02*
X116417602Y-63087602D01*
X111287600Y-54287600D02*
X111317600Y-54317600D01*
X116417602Y-63107589D02*
X116417602Y-63687600D01*
X105207611Y-63107589D02*
X116417602Y-63107589D01*
X105017600Y-63297600D02*
X105207611Y-63107589D01*
X105017600Y-64687600D02*
X105017600Y-63297600D01*
D15*
X113717600Y-52907600D02*
X115097600Y-54287600D01*
X112617600Y-50887600D02*
X113717600Y-51987600D01*
X113717600Y-51987600D02*
X113717600Y-52907600D01*
D17*
X119517600Y-82287600D02*
X112717600Y-82287600D01*
X125017600Y-76787600D02*
X119517600Y-82287600D01*
D16*
X127867600Y-74887600D02*
X129367600Y-76387600D01*
X126917600Y-74887600D02*
X127867600Y-74887600D01*
X125017600Y-76787600D02*
X126917600Y-74887600D01*
X111751773Y-99387600D02*
X109956890Y-99387600D01*
X129367600Y-81771773D02*
X111751773Y-99387600D01*
X129367600Y-76387600D02*
X129367600Y-81771773D01*
X109956890Y-99387600D02*
X109361801Y-99982689D01*
X111117600Y-101738488D02*
X109361801Y-99982689D01*
X111117600Y-103627600D02*
X111117600Y-101738488D01*
X109117600Y-105627600D02*
X111117600Y-103627600D01*
X117617600Y-62187608D02*
X117617600Y-63887600D01*
X113717592Y-58287600D02*
X117617600Y-62187608D01*
D17*
X126242599Y-73878266D02*
X126242599Y-71287600D01*
X103017600Y-92351596D02*
X111017600Y-84351596D01*
X118833267Y-81287598D02*
X126242599Y-73878266D01*
X112481598Y-81287598D02*
X118833267Y-81287598D01*
X111017600Y-84351596D02*
X111017600Y-82751596D01*
X111017600Y-82751596D02*
X112481598Y-81287598D01*
X103017600Y-97597600D02*
X103017600Y-92351596D01*
D16*
X114822600Y-66227600D02*
X110877598Y-66227600D01*
X110877598Y-66227600D02*
X110717598Y-66387600D01*
D17*
X112127600Y-67497600D02*
X111717600Y-67087600D01*
X114822600Y-67497600D02*
X112127600Y-67497600D01*
D16*
X108417600Y-99521915D02*
X108417600Y-100087600D01*
X127367600Y-82971900D02*
X111351911Y-98987589D01*
X111351911Y-98987589D02*
X108951926Y-98987589D01*
X127367600Y-76787600D02*
X127367600Y-82971900D01*
X108951926Y-98987589D02*
X108417600Y-99521915D01*
X109117600Y-100787600D02*
X108417600Y-100087600D01*
X109117600Y-103087600D02*
X109117600Y-100787600D01*
X117917600Y-68187600D02*
X118017600Y-68287600D01*
X105977600Y-68187600D02*
X117917600Y-68187600D01*
X105017600Y-67227600D02*
X105977600Y-68187600D01*
X116417598Y-69087600D02*
X112542590Y-69087600D01*
X112542590Y-69087600D02*
X112342590Y-68887600D01*
D17*
X125542589Y-73923601D02*
X125542589Y-69612589D01*
X125542589Y-69612589D02*
X125017600Y-69087600D01*
X113530113Y-79487601D02*
X119978589Y-79487601D01*
X113130114Y-79887600D02*
X113530113Y-79487601D01*
X119978589Y-79487601D02*
X125542589Y-73923601D01*
D16*
X125017600Y-69087600D02*
X116417598Y-69087600D01*
X109105100Y-64797600D02*
X115627600Y-64797600D01*
X115627600Y-64797600D02*
X117917600Y-67087600D01*
D15*
X118907600Y-51697600D02*
X118907600Y-54287600D01*
X119717600Y-50887600D02*
X118907600Y-51697600D01*
X121217600Y-50887600D02*
X119717600Y-50887600D01*
X122717600Y-51387600D02*
X123217600Y-50887600D01*
X122717600Y-54287600D02*
X122717600Y-51387600D01*
D18*
X126307870Y-49209042D02*
X126064612Y-49796319D01*
X125940600Y-50419768D01*
X125940600Y-51055432D01*
X126064612Y-51678881D01*
X126307870Y-52266158D01*
X126661025Y-52794693D01*
X127110507Y-53244175D01*
X127639042Y-53597330D01*
X128226319Y-53840588D01*
X128849768Y-53964600D01*
X129485432Y-53964600D01*
X130108881Y-53840588D01*
X130696158Y-53597330D01*
X131224693Y-53244175D01*
X131230994Y-53237874D01*
X131207616Y-107802710D01*
X131189214Y-107990384D01*
X131182317Y-108013228D01*
X130592568Y-108602928D01*
X130575767Y-108608129D01*
X130390508Y-108627600D01*
X117241744Y-108627600D01*
X117640543Y-108548274D01*
X118191422Y-108320092D01*
X118687200Y-107988824D01*
X119108824Y-107567200D01*
X119440092Y-107071422D01*
X119668274Y-106520543D01*
X119759364Y-106062600D01*
X123879528Y-106062600D01*
X123891788Y-106187082D01*
X123928098Y-106306780D01*
X123987063Y-106417094D01*
X124066415Y-106513785D01*
X124163106Y-106593137D01*
X124273420Y-106652102D01*
X124393118Y-106688412D01*
X124517600Y-106700672D01*
X124735850Y-106697600D01*
X124894600Y-106538850D01*
X124894600Y-105410600D01*
X124041350Y-105410600D01*
X123882600Y-105569350D01*
X123879528Y-106062600D01*
X119759364Y-106062600D01*
X119784600Y-105935733D01*
X119784600Y-105339467D01*
X119668274Y-104754657D01*
X119440092Y-104203778D01*
X119108824Y-103708000D01*
X118688424Y-103287600D01*
X121979528Y-103287600D01*
X121991788Y-103412082D01*
X122028098Y-103531780D01*
X122087063Y-103642094D01*
X122166415Y-103738785D01*
X122263106Y-103818137D01*
X122373420Y-103877102D01*
X122493118Y-103913412D01*
X122617600Y-103925672D01*
X123135850Y-103922600D01*
X123294600Y-103763850D01*
X123294600Y-101710600D01*
X123740600Y-101710600D01*
X123740600Y-103763850D01*
X123899350Y-103922600D01*
X124015636Y-103923289D01*
X123987063Y-103958106D01*
X123928098Y-104068420D01*
X123891788Y-104188118D01*
X123879528Y-104312600D01*
X123882600Y-104805850D01*
X124041350Y-104964600D01*
X124894600Y-104964600D01*
X124894600Y-103836350D01*
X125340600Y-103836350D01*
X125340600Y-104964600D01*
X125360600Y-104964600D01*
X125360600Y-105410600D01*
X125340600Y-105410600D01*
X125340600Y-106538850D01*
X125402271Y-106600521D01*
X125403989Y-107132241D01*
X125406742Y-107158135D01*
X125414261Y-107181869D01*
X125426266Y-107203680D01*
X125442295Y-107222729D01*
X125461732Y-107238286D01*
X125483831Y-107249752D01*
X125507743Y-107256686D01*
X125532547Y-107258821D01*
X129134913Y-107214590D01*
X129158563Y-107212073D01*
X129182362Y-107204763D01*
X129204278Y-107192951D01*
X129223468Y-107177090D01*
X129239195Y-107157790D01*
X129250855Y-107135793D01*
X129257999Y-107111943D01*
X129260353Y-107087158D01*
X129231628Y-98825040D01*
X129229064Y-98800087D01*
X129221719Y-98776299D01*
X129209874Y-98754401D01*
X129193984Y-98735234D01*
X129174661Y-98719536D01*
X129152646Y-98707909D01*
X129128786Y-98700801D01*
X129103998Y-98698484D01*
X125503581Y-98716371D01*
X125479033Y-98718890D01*
X125455232Y-98726194D01*
X125433314Y-98738001D01*
X125414120Y-98753857D01*
X125398388Y-98773153D01*
X125386723Y-98795148D01*
X125379573Y-98818995D01*
X125377213Y-98843779D01*
X125393172Y-103783778D01*
X125340600Y-103836350D01*
X124894600Y-103836350D01*
X124829377Y-103771127D01*
X124868785Y-103738785D01*
X124948137Y-103642094D01*
X125007102Y-103531780D01*
X125043412Y-103412082D01*
X125055672Y-103287600D01*
X125052600Y-101869350D01*
X124893850Y-101710600D01*
X123740600Y-101710600D01*
X123294600Y-101710600D01*
X122141350Y-101710600D01*
X121982600Y-101869350D01*
X121979528Y-103287600D01*
X118688424Y-103287600D01*
X118687200Y-103286376D01*
X118191422Y-102955108D01*
X117640543Y-102726926D01*
X117055733Y-102610600D01*
X116459467Y-102610600D01*
X115874657Y-102726926D01*
X115323778Y-102955108D01*
X114828000Y-103286376D01*
X114406376Y-103708000D01*
X114075108Y-104203778D01*
X113918631Y-104581547D01*
X113927540Y-99770487D01*
X113931015Y-99732298D01*
X113926277Y-99687600D01*
X121979528Y-99687600D01*
X121982600Y-101105850D01*
X122141350Y-101264600D01*
X123294600Y-101264600D01*
X123294600Y-99211350D01*
X123740600Y-99211350D01*
X123740600Y-101264600D01*
X124893850Y-101264600D01*
X125052600Y-101105850D01*
X125055672Y-99687600D01*
X125043412Y-99563118D01*
X125007102Y-99443420D01*
X124948137Y-99333106D01*
X124868785Y-99236415D01*
X124772094Y-99157063D01*
X124661780Y-99098098D01*
X124542082Y-99061788D01*
X124417600Y-99049528D01*
X123899350Y-99052600D01*
X123740600Y-99211350D01*
X123294600Y-99211350D01*
X123135850Y-99052600D01*
X122617600Y-99049528D01*
X122493118Y-99061788D01*
X122373420Y-99098098D01*
X122263106Y-99157063D01*
X122166415Y-99236415D01*
X122087063Y-99333106D01*
X122028098Y-99443420D01*
X121991788Y-99563118D01*
X121979528Y-99687600D01*
X113926277Y-99687600D01*
X113923995Y-99666074D01*
X113917583Y-99599712D01*
X113916622Y-99596523D01*
X113916272Y-99593220D01*
X113896474Y-99529660D01*
X113877232Y-99465801D01*
X113875669Y-99462863D01*
X113874680Y-99459689D01*
X113842836Y-99401164D01*
X113811532Y-99342337D01*
X113809427Y-99339762D01*
X113807837Y-99336840D01*
X113765202Y-99285669D01*
X113723008Y-99234060D01*
X113720438Y-99231943D01*
X113718311Y-99229390D01*
X113666516Y-99187523D01*
X113615060Y-99145135D01*
X113612129Y-99143561D01*
X113609543Y-99141471D01*
X113550592Y-99110523D01*
X113491840Y-99078979D01*
X113488654Y-99078006D01*
X113485713Y-99076462D01*
X113421856Y-99057608D01*
X113358079Y-99038132D01*
X113354769Y-99037800D01*
X113351579Y-99036858D01*
X113285226Y-99030821D01*
X113218921Y-99024167D01*
X113186915Y-99027259D01*
X129878608Y-82335568D01*
X129907601Y-82311774D01*
X129931395Y-82282781D01*
X129931399Y-82282777D01*
X130002573Y-82196050D01*
X130003759Y-82193832D01*
X130073146Y-82064020D01*
X130116603Y-81920759D01*
X130127600Y-81809106D01*
X130127600Y-81809097D01*
X130131276Y-81771774D01*
X130127600Y-81734451D01*
X130127600Y-77636533D01*
X130245102Y-77540102D01*
X130399433Y-77352049D01*
X130514111Y-77137500D01*
X130584730Y-76904701D01*
X130602600Y-76723264D01*
X130602600Y-76051935D01*
X130584730Y-75870498D01*
X130514111Y-75637699D01*
X130399433Y-75423151D01*
X130245102Y-75235098D01*
X130057048Y-75080767D01*
X129842500Y-74966089D01*
X129609701Y-74895470D01*
X129367600Y-74871625D01*
X129125498Y-74895470D01*
X128991054Y-74936253D01*
X128431404Y-74376603D01*
X128407601Y-74347599D01*
X128291876Y-74252626D01*
X128159847Y-74182054D01*
X128016586Y-74138597D01*
X127904933Y-74127600D01*
X127904922Y-74127600D01*
X127867600Y-74123924D01*
X127830278Y-74127600D01*
X126987287Y-74127600D01*
X127016241Y-74032153D01*
X127024005Y-73953317D01*
X127027599Y-73916827D01*
X127027599Y-73916822D01*
X127031396Y-73878266D01*
X127027599Y-73839710D01*
X127027599Y-71966311D01*
X127046536Y-71947374D01*
X127159804Y-71777856D01*
X127237825Y-71589498D01*
X127277599Y-71389539D01*
X127277599Y-71185661D01*
X127237825Y-70985702D01*
X127159804Y-70797344D01*
X127046536Y-70627826D01*
X126902373Y-70483663D01*
X126732855Y-70370395D01*
X126544497Y-70292374D01*
X126344538Y-70252600D01*
X126327589Y-70252600D01*
X126327589Y-69651145D01*
X126331386Y-69612589D01*
X126327589Y-69574033D01*
X126327589Y-69574028D01*
X126322842Y-69525832D01*
X126316231Y-69458702D01*
X126271343Y-69310729D01*
X126198451Y-69174356D01*
X126100353Y-69054825D01*
X126070394Y-69030238D01*
X125545412Y-68505255D01*
X125455832Y-68431739D01*
X125319459Y-68358846D01*
X125171486Y-68313959D01*
X125017600Y-68298803D01*
X124863714Y-68313959D01*
X124818746Y-68327600D01*
X119052600Y-68327600D01*
X119052600Y-68185661D01*
X119012826Y-67985702D01*
X118934805Y-67797344D01*
X118821537Y-67627826D01*
X118809475Y-67615764D01*
X118834805Y-67577856D01*
X118912826Y-67389498D01*
X118952600Y-67189539D01*
X118952600Y-66985661D01*
X118912826Y-66785702D01*
X118834805Y-66597344D01*
X118734750Y-66447600D01*
X121213889Y-66447600D01*
X121257826Y-66491537D01*
X121427344Y-66604805D01*
X121615702Y-66682826D01*
X121815661Y-66722600D01*
X122019539Y-66722600D01*
X122219498Y-66682826D01*
X122407856Y-66604805D01*
X122577374Y-66491537D01*
X122721537Y-66347374D01*
X122834805Y-66177856D01*
X122912826Y-65989498D01*
X122952600Y-65789539D01*
X122952600Y-65585661D01*
X122912826Y-65385702D01*
X122834805Y-65197344D01*
X122721537Y-65027826D01*
X122577374Y-64883663D01*
X122407856Y-64770395D01*
X122219498Y-64692374D01*
X122019539Y-64652600D01*
X121815661Y-64652600D01*
X121615702Y-64692374D01*
X121427344Y-64770395D01*
X121257826Y-64883663D01*
X121213889Y-64927600D01*
X118166719Y-64927600D01*
X118062649Y-64823530D01*
X118107856Y-64804805D01*
X118277374Y-64691537D01*
X118421537Y-64547374D01*
X118534805Y-64377856D01*
X118612826Y-64189498D01*
X118652600Y-63989539D01*
X118652600Y-63785661D01*
X118612826Y-63585702D01*
X118534805Y-63397344D01*
X118421537Y-63227826D01*
X118377600Y-63183889D01*
X118377600Y-62224930D01*
X118381276Y-62187607D01*
X118377600Y-62150284D01*
X118377600Y-62150275D01*
X118366603Y-62038622D01*
X118323146Y-61895361D01*
X118252574Y-61763332D01*
X118157601Y-61647607D01*
X118128604Y-61623810D01*
X114752592Y-58247799D01*
X114752592Y-58185661D01*
X114712818Y-57985702D01*
X114634797Y-57797344D01*
X114521529Y-57627826D01*
X114377366Y-57483663D01*
X114207848Y-57370395D01*
X114019490Y-57292374D01*
X113819531Y-57252600D01*
X113615653Y-57252600D01*
X113415694Y-57292374D01*
X113227336Y-57370395D01*
X113057818Y-57483663D01*
X112913655Y-57627826D01*
X112800387Y-57797344D01*
X112722366Y-57985702D01*
X112682592Y-58185661D01*
X112682592Y-58389539D01*
X112722366Y-58589498D01*
X112800387Y-58777856D01*
X112913655Y-58947374D01*
X113057818Y-59091537D01*
X113227336Y-59204805D01*
X113415694Y-59282826D01*
X113615653Y-59322600D01*
X113677791Y-59322600D01*
X116407790Y-62052600D01*
X116315661Y-62052600D01*
X116115702Y-62092374D01*
X116024821Y-62130019D01*
X112077600Y-58182799D01*
X112077600Y-56505854D01*
X112144526Y-56470081D01*
X112206080Y-56419565D01*
X114176589Y-56417489D01*
X114240673Y-56470081D01*
X114507339Y-56612617D01*
X114796687Y-56700390D01*
X115097600Y-56730027D01*
X115398512Y-56700390D01*
X115687860Y-56612617D01*
X115954526Y-56470081D01*
X116020979Y-56415545D01*
X117981703Y-56413479D01*
X118050673Y-56470081D01*
X118317339Y-56612617D01*
X118606687Y-56700390D01*
X118907600Y-56730027D01*
X119208512Y-56700390D01*
X119497860Y-56612617D01*
X119764526Y-56470081D01*
X119835878Y-56411525D01*
X121393943Y-56409883D01*
X121439638Y-56465562D01*
X121574214Y-56576005D01*
X121727750Y-56658072D01*
X121894346Y-56708608D01*
X122067600Y-56725672D01*
X123367600Y-56725672D01*
X123540854Y-56708608D01*
X123707450Y-56658072D01*
X123860986Y-56576005D01*
X123995562Y-56465562D01*
X124043548Y-56407090D01*
X124382733Y-56406733D01*
X124406068Y-56404546D01*
X124429966Y-56397569D01*
X124452045Y-56386064D01*
X124471455Y-56370473D01*
X124487450Y-56351394D01*
X124499415Y-56329562D01*
X124506892Y-56305815D01*
X124509592Y-56281065D01*
X124580863Y-49486799D01*
X124578423Y-49460655D01*
X124571189Y-49436833D01*
X124559446Y-49414879D01*
X124543647Y-49395639D01*
X124524397Y-49379850D01*
X124502437Y-49368120D01*
X124478611Y-49360900D01*
X124453834Y-49358467D01*
X109523857Y-49362734D01*
X109500423Y-49364922D01*
X109476524Y-49371899D01*
X109454446Y-49383404D01*
X109435036Y-49398996D01*
X109419041Y-49418074D01*
X109407076Y-49439907D01*
X109399600Y-49463654D01*
X109396900Y-49488404D01*
X109386135Y-50516042D01*
X109382600Y-50551935D01*
X109382600Y-50853522D01*
X109325608Y-56294137D01*
X109328067Y-56320375D01*
X109335320Y-56344191D01*
X109347079Y-56366136D01*
X109362893Y-56385364D01*
X109382155Y-56401138D01*
X109404124Y-56412851D01*
X109427956Y-56420053D01*
X109452735Y-56422467D01*
X110371475Y-56421499D01*
X110430673Y-56470081D01*
X110557601Y-56537925D01*
X110557601Y-58460268D01*
X110553924Y-58497600D01*
X110568598Y-58646585D01*
X110612054Y-58789846D01*
X110682626Y-58921876D01*
X110753801Y-59008602D01*
X110777600Y-59037601D01*
X110806598Y-59061399D01*
X114092787Y-62347589D01*
X105244933Y-62347589D01*
X105207610Y-62343913D01*
X105170287Y-62347589D01*
X105170278Y-62347589D01*
X105058625Y-62358586D01*
X104915364Y-62402043D01*
X104783335Y-62472615D01*
X104667610Y-62567588D01*
X104643807Y-62596592D01*
X104506598Y-62733801D01*
X104477600Y-62757599D01*
X104453802Y-62786597D01*
X104453801Y-62786598D01*
X104382626Y-62873324D01*
X104312054Y-63005354D01*
X104268598Y-63148615D01*
X104263583Y-63199528D01*
X104167600Y-63199528D01*
X104043118Y-63211788D01*
X103923420Y-63248098D01*
X103813106Y-63307063D01*
X103716415Y-63386415D01*
X103637063Y-63483106D01*
X103578098Y-63593420D01*
X103541788Y-63713118D01*
X103529528Y-63837600D01*
X103529528Y-65537600D01*
X103541788Y-65662082D01*
X103578098Y-65781780D01*
X103637063Y-65892094D01*
X103716415Y-65988785D01*
X103813106Y-66068137D01*
X103923420Y-66127102D01*
X103995980Y-66149113D01*
X103864125Y-66280968D01*
X103701610Y-66524189D01*
X103589668Y-66794442D01*
X103532600Y-67081340D01*
X103532600Y-67373860D01*
X103589668Y-67660758D01*
X103701610Y-67931011D01*
X103864125Y-68174232D01*
X104070968Y-68381075D01*
X104250880Y-68501288D01*
X104060345Y-68632297D01*
X103857252Y-68840863D01*
X103698750Y-69085043D01*
X103602399Y-69317675D01*
X103710232Y-69544600D01*
X104794600Y-69544600D01*
X104794600Y-69524600D01*
X105240600Y-69524600D01*
X105240600Y-69544600D01*
X106324968Y-69544600D01*
X106432801Y-69317675D01*
X106336450Y-69085043D01*
X106247233Y-68947600D01*
X111307590Y-68947600D01*
X111307590Y-68989539D01*
X111347364Y-69189498D01*
X111425385Y-69377856D01*
X111538653Y-69547374D01*
X111682816Y-69691537D01*
X111852334Y-69804805D01*
X112040692Y-69882826D01*
X112240651Y-69922600D01*
X112444529Y-69922600D01*
X112644488Y-69882826D01*
X112729530Y-69847600D01*
X115713887Y-69847600D01*
X115757824Y-69891537D01*
X115927342Y-70004805D01*
X116115700Y-70082826D01*
X116315659Y-70122600D01*
X116519537Y-70122600D01*
X116719496Y-70082826D01*
X116907854Y-70004805D01*
X117077372Y-69891537D01*
X117121309Y-69847600D01*
X124667443Y-69847600D01*
X124757590Y-69937746D01*
X124757589Y-73598443D01*
X119653432Y-78702601D01*
X113568665Y-78702601D01*
X113530112Y-78698804D01*
X113491559Y-78702601D01*
X113491552Y-78702601D01*
X113376226Y-78713960D01*
X113228253Y-78758847D01*
X113091880Y-78831739D01*
X113066461Y-78852600D01*
X113028175Y-78852600D01*
X112828216Y-78892374D01*
X112639858Y-78970395D01*
X112470340Y-79083663D01*
X112326177Y-79227826D01*
X112212909Y-79397344D01*
X112134888Y-79585702D01*
X112095114Y-79785661D01*
X112095114Y-79989539D01*
X112134888Y-80189498D01*
X112212909Y-80377856D01*
X112307870Y-80519975D01*
X112179738Y-80558844D01*
X112043365Y-80631736D01*
X111923834Y-80729834D01*
X111899253Y-80759786D01*
X110489785Y-82169254D01*
X110459837Y-82193832D01*
X110435259Y-82223780D01*
X110435255Y-82223784D01*
X110402290Y-82263952D01*
X110361739Y-82313363D01*
X110322777Y-82386256D01*
X110288846Y-82449737D01*
X110243959Y-82597710D01*
X110228803Y-82751596D01*
X110232601Y-82790158D01*
X110232600Y-84026438D01*
X102627600Y-91631439D01*
X102627600Y-73487600D01*
X103029286Y-73487600D01*
X103032600Y-73521247D01*
X103032600Y-74053953D01*
X103029286Y-74087600D01*
X103042512Y-74221883D01*
X103081681Y-74351006D01*
X103145288Y-74470007D01*
X103230889Y-74574311D01*
X103270745Y-74607020D01*
X103335193Y-74659912D01*
X103454194Y-74723519D01*
X103583317Y-74762688D01*
X103717600Y-74775914D01*
X103751247Y-74772600D01*
X122595402Y-74772600D01*
X122640531Y-74775531D01*
X122696076Y-74768185D01*
X122751883Y-74762688D01*
X122762897Y-74759347D01*
X122774298Y-74757839D01*
X122827343Y-74739798D01*
X122881006Y-74723519D01*
X122891157Y-74718093D01*
X122902045Y-74714390D01*
X122950553Y-74686345D01*
X123000007Y-74659912D01*
X123008903Y-74652611D01*
X123018861Y-74646854D01*
X123060966Y-74609884D01*
X123104311Y-74574311D01*
X123111614Y-74565412D01*
X123120255Y-74557825D01*
X123154336Y-74513357D01*
X123189912Y-74470007D01*
X123195337Y-74459858D01*
X123202334Y-74450728D01*
X123227092Y-74400447D01*
X123253519Y-74351006D01*
X123256859Y-74339994D01*
X123261941Y-74329674D01*
X123276411Y-74275542D01*
X123292688Y-74221883D01*
X123293816Y-74210426D01*
X123296786Y-74199317D01*
X123300417Y-74143409D01*
X123305914Y-74087600D01*
X123301479Y-74042569D01*
X123283722Y-73509859D01*
X123285914Y-73487600D01*
X123281478Y-73442566D01*
X123281098Y-73431152D01*
X123278185Y-73409125D01*
X123272688Y-73353317D01*
X123269347Y-73342303D01*
X123267839Y-73330902D01*
X123249798Y-73277857D01*
X123233519Y-73224194D01*
X123228093Y-73214043D01*
X123224390Y-73203155D01*
X123196345Y-73154647D01*
X123169912Y-73105193D01*
X123162611Y-73096297D01*
X123156854Y-73086339D01*
X123119878Y-73044227D01*
X123084311Y-73000889D01*
X123075415Y-72993588D01*
X123067826Y-72984945D01*
X123023348Y-72950858D01*
X122980007Y-72915288D01*
X122969859Y-72909864D01*
X122960728Y-72902866D01*
X122910447Y-72878108D01*
X122861006Y-72851681D01*
X122849994Y-72848341D01*
X122839674Y-72843259D01*
X122785539Y-72828788D01*
X122731883Y-72812512D01*
X122720428Y-72811384D01*
X122709318Y-72808414D01*
X122653411Y-72804783D01*
X122631247Y-72802600D01*
X122619798Y-72802600D01*
X122574669Y-72799669D01*
X122552508Y-72802600D01*
X103751247Y-72802600D01*
X103717600Y-72799286D01*
X103683953Y-72802600D01*
X103583317Y-72812512D01*
X103454194Y-72851681D01*
X103335193Y-72915288D01*
X103230889Y-73000889D01*
X103145288Y-73105193D01*
X103081681Y-73224194D01*
X103042512Y-73353317D01*
X103029286Y-73487600D01*
X102627600Y-73487600D01*
X102627600Y-70217525D01*
X103602399Y-70217525D01*
X103698750Y-70450157D01*
X103857252Y-70694337D01*
X104060345Y-70902903D01*
X104300225Y-71067840D01*
X104567673Y-71182809D01*
X104794600Y-71077019D01*
X104794600Y-69990600D01*
X105240600Y-69990600D01*
X105240600Y-71077019D01*
X105467527Y-71182809D01*
X105734975Y-71067840D01*
X105974855Y-70902903D01*
X106177948Y-70694337D01*
X106336450Y-70450157D01*
X106432801Y-70217525D01*
X106324968Y-69990600D01*
X105240600Y-69990600D01*
X104794600Y-69990600D01*
X103710232Y-69990600D01*
X103602399Y-70217525D01*
X102627600Y-70217525D01*
X102627600Y-53255596D01*
X103139042Y-53597330D01*
X103726319Y-53840588D01*
X104349768Y-53964600D01*
X104985432Y-53964600D01*
X105608881Y-53840588D01*
X106196158Y-53597330D01*
X106724693Y-53244175D01*
X107174175Y-52794693D01*
X107527330Y-52266158D01*
X107770588Y-51678881D01*
X107894600Y-51055432D01*
X107894600Y-50419768D01*
X107770588Y-49796319D01*
X107527330Y-49209042D01*
X107185596Y-48697600D01*
X126649604Y-48697600D01*
X126307870Y-49209042D01*
G04 #@! TA.AperFunction,Conductor*
D19*
G36*
X126307870Y-49209042D02*
G01*
X126064612Y-49796319D01*
X125940600Y-50419768D01*
X125940600Y-51055432D01*
X126064612Y-51678881D01*
X126307870Y-52266158D01*
X126661025Y-52794693D01*
X127110507Y-53244175D01*
X127639042Y-53597330D01*
X128226319Y-53840588D01*
X128849768Y-53964600D01*
X129485432Y-53964600D01*
X130108881Y-53840588D01*
X130696158Y-53597330D01*
X131224693Y-53244175D01*
X131230994Y-53237874D01*
X131207616Y-107802710D01*
X131189214Y-107990384D01*
X131182317Y-108013228D01*
X130592568Y-108602928D01*
X130575767Y-108608129D01*
X130390508Y-108627600D01*
X117241744Y-108627600D01*
X117640543Y-108548274D01*
X118191422Y-108320092D01*
X118687200Y-107988824D01*
X119108824Y-107567200D01*
X119440092Y-107071422D01*
X119668274Y-106520543D01*
X119759364Y-106062600D01*
X123879528Y-106062600D01*
X123891788Y-106187082D01*
X123928098Y-106306780D01*
X123987063Y-106417094D01*
X124066415Y-106513785D01*
X124163106Y-106593137D01*
X124273420Y-106652102D01*
X124393118Y-106688412D01*
X124517600Y-106700672D01*
X124735850Y-106697600D01*
X124894600Y-106538850D01*
X124894600Y-105410600D01*
X124041350Y-105410600D01*
X123882600Y-105569350D01*
X123879528Y-106062600D01*
X119759364Y-106062600D01*
X119784600Y-105935733D01*
X119784600Y-105339467D01*
X119668274Y-104754657D01*
X119440092Y-104203778D01*
X119108824Y-103708000D01*
X118688424Y-103287600D01*
X121979528Y-103287600D01*
X121991788Y-103412082D01*
X122028098Y-103531780D01*
X122087063Y-103642094D01*
X122166415Y-103738785D01*
X122263106Y-103818137D01*
X122373420Y-103877102D01*
X122493118Y-103913412D01*
X122617600Y-103925672D01*
X123135850Y-103922600D01*
X123294600Y-103763850D01*
X123294600Y-101710600D01*
X123740600Y-101710600D01*
X123740600Y-103763850D01*
X123899350Y-103922600D01*
X124015636Y-103923289D01*
X123987063Y-103958106D01*
X123928098Y-104068420D01*
X123891788Y-104188118D01*
X123879528Y-104312600D01*
X123882600Y-104805850D01*
X124041350Y-104964600D01*
X124894600Y-104964600D01*
X124894600Y-103836350D01*
X125340600Y-103836350D01*
X125340600Y-104964600D01*
X125360600Y-104964600D01*
X125360600Y-105410600D01*
X125340600Y-105410600D01*
X125340600Y-106538850D01*
X125402271Y-106600521D01*
X125403989Y-107132241D01*
X125406742Y-107158135D01*
X125414261Y-107181869D01*
X125426266Y-107203680D01*
X125442295Y-107222729D01*
X125461732Y-107238286D01*
X125483831Y-107249752D01*
X125507743Y-107256686D01*
X125532547Y-107258821D01*
X129134913Y-107214590D01*
X129158563Y-107212073D01*
X129182362Y-107204763D01*
X129204278Y-107192951D01*
X129223468Y-107177090D01*
X129239195Y-107157790D01*
X129250855Y-107135793D01*
X129257999Y-107111943D01*
X129260353Y-107087158D01*
X129231628Y-98825040D01*
X129229064Y-98800087D01*
X129221719Y-98776299D01*
X129209874Y-98754401D01*
X129193984Y-98735234D01*
X129174661Y-98719536D01*
X129152646Y-98707909D01*
X129128786Y-98700801D01*
X129103998Y-98698484D01*
X125503581Y-98716371D01*
X125479033Y-98718890D01*
X125455232Y-98726194D01*
X125433314Y-98738001D01*
X125414120Y-98753857D01*
X125398388Y-98773153D01*
X125386723Y-98795148D01*
X125379573Y-98818995D01*
X125377213Y-98843779D01*
X125393172Y-103783778D01*
X125340600Y-103836350D01*
X124894600Y-103836350D01*
X124829377Y-103771127D01*
X124868785Y-103738785D01*
X124948137Y-103642094D01*
X125007102Y-103531780D01*
X125043412Y-103412082D01*
X125055672Y-103287600D01*
X125052600Y-101869350D01*
X124893850Y-101710600D01*
X123740600Y-101710600D01*
X123294600Y-101710600D01*
X122141350Y-101710600D01*
X121982600Y-101869350D01*
X121979528Y-103287600D01*
X118688424Y-103287600D01*
X118687200Y-103286376D01*
X118191422Y-102955108D01*
X117640543Y-102726926D01*
X117055733Y-102610600D01*
X116459467Y-102610600D01*
X115874657Y-102726926D01*
X115323778Y-102955108D01*
X114828000Y-103286376D01*
X114406376Y-103708000D01*
X114075108Y-104203778D01*
X113918631Y-104581547D01*
X113927540Y-99770487D01*
X113931015Y-99732298D01*
X113926277Y-99687600D01*
X121979528Y-99687600D01*
X121982600Y-101105850D01*
X122141350Y-101264600D01*
X123294600Y-101264600D01*
X123294600Y-99211350D01*
X123740600Y-99211350D01*
X123740600Y-101264600D01*
X124893850Y-101264600D01*
X125052600Y-101105850D01*
X125055672Y-99687600D01*
X125043412Y-99563118D01*
X125007102Y-99443420D01*
X124948137Y-99333106D01*
X124868785Y-99236415D01*
X124772094Y-99157063D01*
X124661780Y-99098098D01*
X124542082Y-99061788D01*
X124417600Y-99049528D01*
X123899350Y-99052600D01*
X123740600Y-99211350D01*
X123294600Y-99211350D01*
X123135850Y-99052600D01*
X122617600Y-99049528D01*
X122493118Y-99061788D01*
X122373420Y-99098098D01*
X122263106Y-99157063D01*
X122166415Y-99236415D01*
X122087063Y-99333106D01*
X122028098Y-99443420D01*
X121991788Y-99563118D01*
X121979528Y-99687600D01*
X113926277Y-99687600D01*
X113923995Y-99666074D01*
X113917583Y-99599712D01*
X113916622Y-99596523D01*
X113916272Y-99593220D01*
X113896474Y-99529660D01*
X113877232Y-99465801D01*
X113875669Y-99462863D01*
X113874680Y-99459689D01*
X113842836Y-99401164D01*
X113811532Y-99342337D01*
X113809427Y-99339762D01*
X113807837Y-99336840D01*
X113765202Y-99285669D01*
X113723008Y-99234060D01*
X113720438Y-99231943D01*
X113718311Y-99229390D01*
X113666516Y-99187523D01*
X113615060Y-99145135D01*
X113612129Y-99143561D01*
X113609543Y-99141471D01*
X113550592Y-99110523D01*
X113491840Y-99078979D01*
X113488654Y-99078006D01*
X113485713Y-99076462D01*
X113421856Y-99057608D01*
X113358079Y-99038132D01*
X113354769Y-99037800D01*
X113351579Y-99036858D01*
X113285226Y-99030821D01*
X113218921Y-99024167D01*
X113186915Y-99027259D01*
X129878608Y-82335568D01*
X129907601Y-82311774D01*
X129931395Y-82282781D01*
X129931399Y-82282777D01*
X130002573Y-82196050D01*
X130003759Y-82193832D01*
X130073146Y-82064020D01*
X130116603Y-81920759D01*
X130127600Y-81809106D01*
X130127600Y-81809097D01*
X130131276Y-81771774D01*
X130127600Y-81734451D01*
X130127600Y-77636533D01*
X130245102Y-77540102D01*
X130399433Y-77352049D01*
X130514111Y-77137500D01*
X130584730Y-76904701D01*
X130602600Y-76723264D01*
X130602600Y-76051935D01*
X130584730Y-75870498D01*
X130514111Y-75637699D01*
X130399433Y-75423151D01*
X130245102Y-75235098D01*
X130057048Y-75080767D01*
X129842500Y-74966089D01*
X129609701Y-74895470D01*
X129367600Y-74871625D01*
X129125498Y-74895470D01*
X128991054Y-74936253D01*
X128431404Y-74376603D01*
X128407601Y-74347599D01*
X128291876Y-74252626D01*
X128159847Y-74182054D01*
X128016586Y-74138597D01*
X127904933Y-74127600D01*
X127904922Y-74127600D01*
X127867600Y-74123924D01*
X127830278Y-74127600D01*
X126987287Y-74127600D01*
X127016241Y-74032153D01*
X127024005Y-73953317D01*
X127027599Y-73916827D01*
X127027599Y-73916822D01*
X127031396Y-73878266D01*
X127027599Y-73839710D01*
X127027599Y-71966311D01*
X127046536Y-71947374D01*
X127159804Y-71777856D01*
X127237825Y-71589498D01*
X127277599Y-71389539D01*
X127277599Y-71185661D01*
X127237825Y-70985702D01*
X127159804Y-70797344D01*
X127046536Y-70627826D01*
X126902373Y-70483663D01*
X126732855Y-70370395D01*
X126544497Y-70292374D01*
X126344538Y-70252600D01*
X126327589Y-70252600D01*
X126327589Y-69651145D01*
X126331386Y-69612589D01*
X126327589Y-69574033D01*
X126327589Y-69574028D01*
X126322842Y-69525832D01*
X126316231Y-69458702D01*
X126271343Y-69310729D01*
X126198451Y-69174356D01*
X126100353Y-69054825D01*
X126070394Y-69030238D01*
X125545412Y-68505255D01*
X125455832Y-68431739D01*
X125319459Y-68358846D01*
X125171486Y-68313959D01*
X125017600Y-68298803D01*
X124863714Y-68313959D01*
X124818746Y-68327600D01*
X119052600Y-68327600D01*
X119052600Y-68185661D01*
X119012826Y-67985702D01*
X118934805Y-67797344D01*
X118821537Y-67627826D01*
X118809475Y-67615764D01*
X118834805Y-67577856D01*
X118912826Y-67389498D01*
X118952600Y-67189539D01*
X118952600Y-66985661D01*
X118912826Y-66785702D01*
X118834805Y-66597344D01*
X118734750Y-66447600D01*
X121213889Y-66447600D01*
X121257826Y-66491537D01*
X121427344Y-66604805D01*
X121615702Y-66682826D01*
X121815661Y-66722600D01*
X122019539Y-66722600D01*
X122219498Y-66682826D01*
X122407856Y-66604805D01*
X122577374Y-66491537D01*
X122721537Y-66347374D01*
X122834805Y-66177856D01*
X122912826Y-65989498D01*
X122952600Y-65789539D01*
X122952600Y-65585661D01*
X122912826Y-65385702D01*
X122834805Y-65197344D01*
X122721537Y-65027826D01*
X122577374Y-64883663D01*
X122407856Y-64770395D01*
X122219498Y-64692374D01*
X122019539Y-64652600D01*
X121815661Y-64652600D01*
X121615702Y-64692374D01*
X121427344Y-64770395D01*
X121257826Y-64883663D01*
X121213889Y-64927600D01*
X118166719Y-64927600D01*
X118062649Y-64823530D01*
X118107856Y-64804805D01*
X118277374Y-64691537D01*
X118421537Y-64547374D01*
X118534805Y-64377856D01*
X118612826Y-64189498D01*
X118652600Y-63989539D01*
X118652600Y-63785661D01*
X118612826Y-63585702D01*
X118534805Y-63397344D01*
X118421537Y-63227826D01*
X118377600Y-63183889D01*
X118377600Y-62224930D01*
X118381276Y-62187607D01*
X118377600Y-62150284D01*
X118377600Y-62150275D01*
X118366603Y-62038622D01*
X118323146Y-61895361D01*
X118252574Y-61763332D01*
X118157601Y-61647607D01*
X118128604Y-61623810D01*
X114752592Y-58247799D01*
X114752592Y-58185661D01*
X114712818Y-57985702D01*
X114634797Y-57797344D01*
X114521529Y-57627826D01*
X114377366Y-57483663D01*
X114207848Y-57370395D01*
X114019490Y-57292374D01*
X113819531Y-57252600D01*
X113615653Y-57252600D01*
X113415694Y-57292374D01*
X113227336Y-57370395D01*
X113057818Y-57483663D01*
X112913655Y-57627826D01*
X112800387Y-57797344D01*
X112722366Y-57985702D01*
X112682592Y-58185661D01*
X112682592Y-58389539D01*
X112722366Y-58589498D01*
X112800387Y-58777856D01*
X112913655Y-58947374D01*
X113057818Y-59091537D01*
X113227336Y-59204805D01*
X113415694Y-59282826D01*
X113615653Y-59322600D01*
X113677791Y-59322600D01*
X116407790Y-62052600D01*
X116315661Y-62052600D01*
X116115702Y-62092374D01*
X116024821Y-62130019D01*
X112077600Y-58182799D01*
X112077600Y-56505854D01*
X112144526Y-56470081D01*
X112206080Y-56419565D01*
X114176589Y-56417489D01*
X114240673Y-56470081D01*
X114507339Y-56612617D01*
X114796687Y-56700390D01*
X115097600Y-56730027D01*
X115398512Y-56700390D01*
X115687860Y-56612617D01*
X115954526Y-56470081D01*
X116020979Y-56415545D01*
X117981703Y-56413479D01*
X118050673Y-56470081D01*
X118317339Y-56612617D01*
X118606687Y-56700390D01*
X118907600Y-56730027D01*
X119208512Y-56700390D01*
X119497860Y-56612617D01*
X119764526Y-56470081D01*
X119835878Y-56411525D01*
X121393943Y-56409883D01*
X121439638Y-56465562D01*
X121574214Y-56576005D01*
X121727750Y-56658072D01*
X121894346Y-56708608D01*
X122067600Y-56725672D01*
X123367600Y-56725672D01*
X123540854Y-56708608D01*
X123707450Y-56658072D01*
X123860986Y-56576005D01*
X123995562Y-56465562D01*
X124043548Y-56407090D01*
X124382733Y-56406733D01*
X124406068Y-56404546D01*
X124429966Y-56397569D01*
X124452045Y-56386064D01*
X124471455Y-56370473D01*
X124487450Y-56351394D01*
X124499415Y-56329562D01*
X124506892Y-56305815D01*
X124509592Y-56281065D01*
X124580863Y-49486799D01*
X124578423Y-49460655D01*
X124571189Y-49436833D01*
X124559446Y-49414879D01*
X124543647Y-49395639D01*
X124524397Y-49379850D01*
X124502437Y-49368120D01*
X124478611Y-49360900D01*
X124453834Y-49358467D01*
X109523857Y-49362734D01*
X109500423Y-49364922D01*
X109476524Y-49371899D01*
X109454446Y-49383404D01*
X109435036Y-49398996D01*
X109419041Y-49418074D01*
X109407076Y-49439907D01*
X109399600Y-49463654D01*
X109396900Y-49488404D01*
X109386135Y-50516042D01*
X109382600Y-50551935D01*
X109382600Y-50853522D01*
X109325608Y-56294137D01*
X109328067Y-56320375D01*
X109335320Y-56344191D01*
X109347079Y-56366136D01*
X109362893Y-56385364D01*
X109382155Y-56401138D01*
X109404124Y-56412851D01*
X109427956Y-56420053D01*
X109452735Y-56422467D01*
X110371475Y-56421499D01*
X110430673Y-56470081D01*
X110557601Y-56537925D01*
X110557601Y-58460268D01*
X110553924Y-58497600D01*
X110568598Y-58646585D01*
X110612054Y-58789846D01*
X110682626Y-58921876D01*
X110753801Y-59008602D01*
X110777600Y-59037601D01*
X110806598Y-59061399D01*
X114092787Y-62347589D01*
X105244933Y-62347589D01*
X105207610Y-62343913D01*
X105170287Y-62347589D01*
X105170278Y-62347589D01*
X105058625Y-62358586D01*
X104915364Y-62402043D01*
X104783335Y-62472615D01*
X104667610Y-62567588D01*
X104643807Y-62596592D01*
X104506598Y-62733801D01*
X104477600Y-62757599D01*
X104453802Y-62786597D01*
X104453801Y-62786598D01*
X104382626Y-62873324D01*
X104312054Y-63005354D01*
X104268598Y-63148615D01*
X104263583Y-63199528D01*
X104167600Y-63199528D01*
X104043118Y-63211788D01*
X103923420Y-63248098D01*
X103813106Y-63307063D01*
X103716415Y-63386415D01*
X103637063Y-63483106D01*
X103578098Y-63593420D01*
X103541788Y-63713118D01*
X103529528Y-63837600D01*
X103529528Y-65537600D01*
X103541788Y-65662082D01*
X103578098Y-65781780D01*
X103637063Y-65892094D01*
X103716415Y-65988785D01*
X103813106Y-66068137D01*
X103923420Y-66127102D01*
X103995980Y-66149113D01*
X103864125Y-66280968D01*
X103701610Y-66524189D01*
X103589668Y-66794442D01*
X103532600Y-67081340D01*
X103532600Y-67373860D01*
X103589668Y-67660758D01*
X103701610Y-67931011D01*
X103864125Y-68174232D01*
X104070968Y-68381075D01*
X104250880Y-68501288D01*
X104060345Y-68632297D01*
X103857252Y-68840863D01*
X103698750Y-69085043D01*
X103602399Y-69317675D01*
X103710232Y-69544600D01*
X104794600Y-69544600D01*
X104794600Y-69524600D01*
X105240600Y-69524600D01*
X105240600Y-69544600D01*
X106324968Y-69544600D01*
X106432801Y-69317675D01*
X106336450Y-69085043D01*
X106247233Y-68947600D01*
X111307590Y-68947600D01*
X111307590Y-68989539D01*
X111347364Y-69189498D01*
X111425385Y-69377856D01*
X111538653Y-69547374D01*
X111682816Y-69691537D01*
X111852334Y-69804805D01*
X112040692Y-69882826D01*
X112240651Y-69922600D01*
X112444529Y-69922600D01*
X112644488Y-69882826D01*
X112729530Y-69847600D01*
X115713887Y-69847600D01*
X115757824Y-69891537D01*
X115927342Y-70004805D01*
X116115700Y-70082826D01*
X116315659Y-70122600D01*
X116519537Y-70122600D01*
X116719496Y-70082826D01*
X116907854Y-70004805D01*
X117077372Y-69891537D01*
X117121309Y-69847600D01*
X124667443Y-69847600D01*
X124757590Y-69937746D01*
X124757589Y-73598443D01*
X119653432Y-78702601D01*
X113568665Y-78702601D01*
X113530112Y-78698804D01*
X113491559Y-78702601D01*
X113491552Y-78702601D01*
X113376226Y-78713960D01*
X113228253Y-78758847D01*
X113091880Y-78831739D01*
X113066461Y-78852600D01*
X113028175Y-78852600D01*
X112828216Y-78892374D01*
X112639858Y-78970395D01*
X112470340Y-79083663D01*
X112326177Y-79227826D01*
X112212909Y-79397344D01*
X112134888Y-79585702D01*
X112095114Y-79785661D01*
X112095114Y-79989539D01*
X112134888Y-80189498D01*
X112212909Y-80377856D01*
X112307870Y-80519975D01*
X112179738Y-80558844D01*
X112043365Y-80631736D01*
X111923834Y-80729834D01*
X111899253Y-80759786D01*
X110489785Y-82169254D01*
X110459837Y-82193832D01*
X110435259Y-82223780D01*
X110435255Y-82223784D01*
X110402290Y-82263952D01*
X110361739Y-82313363D01*
X110322777Y-82386256D01*
X110288846Y-82449737D01*
X110243959Y-82597710D01*
X110228803Y-82751596D01*
X110232601Y-82790158D01*
X110232600Y-84026438D01*
X102627600Y-91631439D01*
X102627600Y-73487600D01*
X103029286Y-73487600D01*
X103032600Y-73521247D01*
X103032600Y-74053953D01*
X103029286Y-74087600D01*
X103042512Y-74221883D01*
X103081681Y-74351006D01*
X103145288Y-74470007D01*
X103230889Y-74574311D01*
X103270745Y-74607020D01*
X103335193Y-74659912D01*
X103454194Y-74723519D01*
X103583317Y-74762688D01*
X103717600Y-74775914D01*
X103751247Y-74772600D01*
X122595402Y-74772600D01*
X122640531Y-74775531D01*
X122696076Y-74768185D01*
X122751883Y-74762688D01*
X122762897Y-74759347D01*
X122774298Y-74757839D01*
X122827343Y-74739798D01*
X122881006Y-74723519D01*
X122891157Y-74718093D01*
X122902045Y-74714390D01*
X122950553Y-74686345D01*
X123000007Y-74659912D01*
X123008903Y-74652611D01*
X123018861Y-74646854D01*
X123060966Y-74609884D01*
X123104311Y-74574311D01*
X123111614Y-74565412D01*
X123120255Y-74557825D01*
X123154336Y-74513357D01*
X123189912Y-74470007D01*
X123195337Y-74459858D01*
X123202334Y-74450728D01*
X123227092Y-74400447D01*
X123253519Y-74351006D01*
X123256859Y-74339994D01*
X123261941Y-74329674D01*
X123276411Y-74275542D01*
X123292688Y-74221883D01*
X123293816Y-74210426D01*
X123296786Y-74199317D01*
X123300417Y-74143409D01*
X123305914Y-74087600D01*
X123301479Y-74042569D01*
X123283722Y-73509859D01*
X123285914Y-73487600D01*
X123281478Y-73442566D01*
X123281098Y-73431152D01*
X123278185Y-73409125D01*
X123272688Y-73353317D01*
X123269347Y-73342303D01*
X123267839Y-73330902D01*
X123249798Y-73277857D01*
X123233519Y-73224194D01*
X123228093Y-73214043D01*
X123224390Y-73203155D01*
X123196345Y-73154647D01*
X123169912Y-73105193D01*
X123162611Y-73096297D01*
X123156854Y-73086339D01*
X123119878Y-73044227D01*
X123084311Y-73000889D01*
X123075415Y-72993588D01*
X123067826Y-72984945D01*
X123023348Y-72950858D01*
X122980007Y-72915288D01*
X122969859Y-72909864D01*
X122960728Y-72902866D01*
X122910447Y-72878108D01*
X122861006Y-72851681D01*
X122849994Y-72848341D01*
X122839674Y-72843259D01*
X122785539Y-72828788D01*
X122731883Y-72812512D01*
X122720428Y-72811384D01*
X122709318Y-72808414D01*
X122653411Y-72804783D01*
X122631247Y-72802600D01*
X122619798Y-72802600D01*
X122574669Y-72799669D01*
X122552508Y-72802600D01*
X103751247Y-72802600D01*
X103717600Y-72799286D01*
X103683953Y-72802600D01*
X103583317Y-72812512D01*
X103454194Y-72851681D01*
X103335193Y-72915288D01*
X103230889Y-73000889D01*
X103145288Y-73105193D01*
X103081681Y-73224194D01*
X103042512Y-73353317D01*
X103029286Y-73487600D01*
X102627600Y-73487600D01*
X102627600Y-70217525D01*
X103602399Y-70217525D01*
X103698750Y-70450157D01*
X103857252Y-70694337D01*
X104060345Y-70902903D01*
X104300225Y-71067840D01*
X104567673Y-71182809D01*
X104794600Y-71077019D01*
X104794600Y-69990600D01*
X105240600Y-69990600D01*
X105240600Y-71077019D01*
X105467527Y-71182809D01*
X105734975Y-71067840D01*
X105974855Y-70902903D01*
X106177948Y-70694337D01*
X106336450Y-70450157D01*
X106432801Y-70217525D01*
X106324968Y-69990600D01*
X105240600Y-69990600D01*
X104794600Y-69990600D01*
X103710232Y-69990600D01*
X103602399Y-70217525D01*
X102627600Y-70217525D01*
X102627600Y-53255596D01*
X103139042Y-53597330D01*
X103726319Y-53840588D01*
X104349768Y-53964600D01*
X104985432Y-53964600D01*
X105608881Y-53840588D01*
X106196158Y-53597330D01*
X106724693Y-53244175D01*
X107174175Y-52794693D01*
X107527330Y-52266158D01*
X107770588Y-51678881D01*
X107894600Y-51055432D01*
X107894600Y-50419768D01*
X107770588Y-49796319D01*
X107527330Y-49209042D01*
X107185596Y-48697600D01*
X126649604Y-48697600D01*
X126307870Y-49209042D01*
G37*
G04 #@! TD.AperFunction*
D18*
X126129528Y-77012601D02*
X126146592Y-77185855D01*
X126197128Y-77352451D01*
X126279195Y-77505987D01*
X126389638Y-77640562D01*
X126524213Y-77751005D01*
X126607600Y-77795577D01*
X126607601Y-82657097D01*
X111037110Y-98227589D01*
X108989248Y-98227589D01*
X108951925Y-98223913D01*
X108914602Y-98227589D01*
X108914593Y-98227589D01*
X108802940Y-98238586D01*
X108659679Y-98282043D01*
X108527649Y-98352615D01*
X108473942Y-98396692D01*
X108411925Y-98447588D01*
X108388126Y-98476587D01*
X107906602Y-98958112D01*
X107877599Y-98981914D01*
X107836475Y-99032024D01*
X107782626Y-99097639D01*
X107720773Y-99213357D01*
X107712054Y-99229669D01*
X107680795Y-99332717D01*
X107636805Y-99303323D01*
X107475745Y-99236610D01*
X107304765Y-99202600D01*
X107130435Y-99202600D01*
X106959455Y-99236610D01*
X106817600Y-99295368D01*
X106675745Y-99236610D01*
X106504765Y-99202600D01*
X106330435Y-99202600D01*
X106159455Y-99236610D01*
X106017600Y-99295368D01*
X105875745Y-99236610D01*
X105704765Y-99202600D01*
X105530435Y-99202600D01*
X105359455Y-99236610D01*
X105217600Y-99295368D01*
X105075745Y-99236610D01*
X104904765Y-99202600D01*
X104884880Y-99202600D01*
X104813963Y-99144400D01*
X104690620Y-99078472D01*
X104556784Y-99037873D01*
X104452477Y-99027600D01*
X103452329Y-99027600D01*
X103264816Y-99009214D01*
X103117852Y-98964843D01*
X102982303Y-98892771D01*
X102863342Y-98795748D01*
X102765482Y-98677456D01*
X102720207Y-98593722D01*
X102915661Y-98632600D01*
X103119539Y-98632600D01*
X103319498Y-98592826D01*
X103507856Y-98514805D01*
X103677374Y-98401537D01*
X103821537Y-98257374D01*
X103934805Y-98087856D01*
X104012826Y-97899498D01*
X104052600Y-97699539D01*
X104052600Y-97495661D01*
X104012826Y-97295702D01*
X103934805Y-97107344D01*
X103821537Y-96937826D01*
X103802600Y-96918889D01*
X103802600Y-92676753D01*
X111545417Y-84933937D01*
X111575364Y-84909360D01*
X111673462Y-84789829D01*
X111746354Y-84653456D01*
X111791241Y-84505483D01*
X111802600Y-84390157D01*
X111802600Y-84390150D01*
X111806397Y-84351597D01*
X111802600Y-84313044D01*
X111802600Y-83076753D01*
X111922821Y-82956532D01*
X112057826Y-83091537D01*
X112227344Y-83204805D01*
X112415702Y-83282826D01*
X112615661Y-83322600D01*
X112819539Y-83322600D01*
X113019498Y-83282826D01*
X113207856Y-83204805D01*
X113377374Y-83091537D01*
X113396311Y-83072600D01*
X119479047Y-83072600D01*
X119517600Y-83076397D01*
X119556153Y-83072600D01*
X119556161Y-83072600D01*
X119671487Y-83061241D01*
X119819460Y-83016354D01*
X119955833Y-82943462D01*
X120075364Y-82845364D01*
X120099947Y-82815410D01*
X125599945Y-77315412D01*
X125673461Y-77225832D01*
X125695614Y-77184387D01*
X126129528Y-76750473D01*
X126129528Y-77012601D01*
G04 #@! TA.AperFunction,Conductor*
D19*
G36*
X126129528Y-77012601D02*
G01*
X126146592Y-77185855D01*
X126197128Y-77352451D01*
X126279195Y-77505987D01*
X126389638Y-77640562D01*
X126524213Y-77751005D01*
X126607600Y-77795577D01*
X126607601Y-82657097D01*
X111037110Y-98227589D01*
X108989248Y-98227589D01*
X108951925Y-98223913D01*
X108914602Y-98227589D01*
X108914593Y-98227589D01*
X108802940Y-98238586D01*
X108659679Y-98282043D01*
X108527649Y-98352615D01*
X108473942Y-98396692D01*
X108411925Y-98447588D01*
X108388126Y-98476587D01*
X107906602Y-98958112D01*
X107877599Y-98981914D01*
X107836475Y-99032024D01*
X107782626Y-99097639D01*
X107720773Y-99213357D01*
X107712054Y-99229669D01*
X107680795Y-99332717D01*
X107636805Y-99303323D01*
X107475745Y-99236610D01*
X107304765Y-99202600D01*
X107130435Y-99202600D01*
X106959455Y-99236610D01*
X106817600Y-99295368D01*
X106675745Y-99236610D01*
X106504765Y-99202600D01*
X106330435Y-99202600D01*
X106159455Y-99236610D01*
X106017600Y-99295368D01*
X105875745Y-99236610D01*
X105704765Y-99202600D01*
X105530435Y-99202600D01*
X105359455Y-99236610D01*
X105217600Y-99295368D01*
X105075745Y-99236610D01*
X104904765Y-99202600D01*
X104884880Y-99202600D01*
X104813963Y-99144400D01*
X104690620Y-99078472D01*
X104556784Y-99037873D01*
X104452477Y-99027600D01*
X103452329Y-99027600D01*
X103264816Y-99009214D01*
X103117852Y-98964843D01*
X102982303Y-98892771D01*
X102863342Y-98795748D01*
X102765482Y-98677456D01*
X102720207Y-98593722D01*
X102915661Y-98632600D01*
X103119539Y-98632600D01*
X103319498Y-98592826D01*
X103507856Y-98514805D01*
X103677374Y-98401537D01*
X103821537Y-98257374D01*
X103934805Y-98087856D01*
X104012826Y-97899498D01*
X104052600Y-97699539D01*
X104052600Y-97495661D01*
X104012826Y-97295702D01*
X103934805Y-97107344D01*
X103821537Y-96937826D01*
X103802600Y-96918889D01*
X103802600Y-92676753D01*
X111545417Y-84933937D01*
X111575364Y-84909360D01*
X111673462Y-84789829D01*
X111746354Y-84653456D01*
X111791241Y-84505483D01*
X111802600Y-84390157D01*
X111802600Y-84390150D01*
X111806397Y-84351597D01*
X111802600Y-84313044D01*
X111802600Y-83076753D01*
X111922821Y-82956532D01*
X112057826Y-83091537D01*
X112227344Y-83204805D01*
X112415702Y-83282826D01*
X112615661Y-83322600D01*
X112819539Y-83322600D01*
X113019498Y-83282826D01*
X113207856Y-83204805D01*
X113377374Y-83091537D01*
X113396311Y-83072600D01*
X119479047Y-83072600D01*
X119517600Y-83076397D01*
X119556153Y-83072600D01*
X119556161Y-83072600D01*
X119671487Y-83061241D01*
X119819460Y-83016354D01*
X119955833Y-82943462D01*
X120075364Y-82845364D01*
X120099947Y-82815410D01*
X125599945Y-77315412D01*
X125673461Y-77225832D01*
X125695614Y-77184387D01*
X126129528Y-76750473D01*
X126129528Y-77012601D01*
G37*
G04 #@! TD.AperFunction*
D18*
X108614844Y-63880395D02*
X108445326Y-63993663D01*
X108301163Y-64137826D01*
X108187895Y-64307344D01*
X108109874Y-64495702D01*
X108070100Y-64695661D01*
X108070100Y-64899539D01*
X108109874Y-65099498D01*
X108187895Y-65287856D01*
X108301163Y-65457374D01*
X108445326Y-65601537D01*
X108614844Y-65714805D01*
X108803202Y-65792826D01*
X109003161Y-65832600D01*
X109207039Y-65832600D01*
X109406998Y-65792826D01*
X109595356Y-65714805D01*
X109764874Y-65601537D01*
X109808811Y-65557600D01*
X110096830Y-65557600D01*
X110057824Y-65583663D01*
X109913661Y-65727826D01*
X109800393Y-65897344D01*
X109722372Y-66085702D01*
X109682598Y-66285661D01*
X109682598Y-66489539D01*
X109722372Y-66689498D01*
X109800393Y-66877856D01*
X109913661Y-67047374D01*
X110057824Y-67191537D01*
X110227342Y-67304805D01*
X110415700Y-67382826D01*
X110615659Y-67422600D01*
X110736085Y-67422600D01*
X110738156Y-67427600D01*
X106491910Y-67427600D01*
X106502600Y-67373860D01*
X106502600Y-67081340D01*
X106445532Y-66794442D01*
X106333590Y-66524189D01*
X106171075Y-66280968D01*
X106039220Y-66149113D01*
X106111780Y-66127102D01*
X106222094Y-66068137D01*
X106318785Y-65988785D01*
X106398137Y-65892094D01*
X106457102Y-65781780D01*
X106493412Y-65662082D01*
X106505672Y-65537600D01*
X106505672Y-63867589D01*
X108645760Y-63867589D01*
X108614844Y-63880395D01*
G04 #@! TA.AperFunction,Conductor*
D19*
G36*
X108614844Y-63880395D02*
G01*
X108445326Y-63993663D01*
X108301163Y-64137826D01*
X108187895Y-64307344D01*
X108109874Y-64495702D01*
X108070100Y-64695661D01*
X108070100Y-64899539D01*
X108109874Y-65099498D01*
X108187895Y-65287856D01*
X108301163Y-65457374D01*
X108445326Y-65601537D01*
X108614844Y-65714805D01*
X108803202Y-65792826D01*
X109003161Y-65832600D01*
X109207039Y-65832600D01*
X109406998Y-65792826D01*
X109595356Y-65714805D01*
X109764874Y-65601537D01*
X109808811Y-65557600D01*
X110096830Y-65557600D01*
X110057824Y-65583663D01*
X109913661Y-65727826D01*
X109800393Y-65897344D01*
X109722372Y-66085702D01*
X109682598Y-66285661D01*
X109682598Y-66489539D01*
X109722372Y-66689498D01*
X109800393Y-66877856D01*
X109913661Y-67047374D01*
X110057824Y-67191537D01*
X110227342Y-67304805D01*
X110415700Y-67382826D01*
X110615659Y-67422600D01*
X110736085Y-67422600D01*
X110738156Y-67427600D01*
X106491910Y-67427600D01*
X106502600Y-67373860D01*
X106502600Y-67081340D01*
X106445532Y-66794442D01*
X106333590Y-66524189D01*
X106171075Y-66280968D01*
X106039220Y-66149113D01*
X106111780Y-66127102D01*
X106222094Y-66068137D01*
X106318785Y-65988785D01*
X106398137Y-65892094D01*
X106457102Y-65781780D01*
X106493412Y-65662082D01*
X106505672Y-65537600D01*
X106505672Y-63867589D01*
X108645760Y-63867589D01*
X108614844Y-63880395D01*
G37*
G04 #@! TD.AperFunction*
M02*
