G04 #@! TF.GenerationSoftware,KiCad,Pcbnew,5.1.9+dfsg1-1+deb11u1*
G04 #@! TF.CreationDate,2023-06-27T12:46:43+00:00*
G04 #@! TF.ProjectId,ModuleV450,4d6f6475-6c65-4563-9435-302e6b696361,rev?*
G04 #@! TF.SameCoordinates,Original*
G04 #@! TF.FileFunction,Soldermask,Bot*
G04 #@! TF.FilePolarity,Negative*
%FSLAX46Y46*%
G04 Gerber Fmt 4.6, Leading zero omitted, Abs format (unit mm)*
G04 Created by KiCad (PCBNEW 5.1.9+dfsg1-1+deb11u1) date 2023-06-27 12:46:43*
%MOMM*%
%LPD*%
G01*
G04 APERTURE LIST*
%ADD10C,0.900000*%
%ADD11O,2.100000X2.100000*%
%ADD12O,2.200000X4.000000*%
%ADD13O,1.600000X2.150000*%
%ADD14C,3.600000*%
G04 APERTURE END LIST*
D10*
X107217600Y-100087600D03*
X106417600Y-100087600D03*
X105617600Y-100087600D03*
X104817600Y-100087600D03*
D11*
X105017600Y-69767600D03*
X105017600Y-67227600D03*
G36*
G01*
X103967600Y-65537600D02*
X103967600Y-63837600D01*
G75*
G02*
X104167600Y-63637600I200000J0D01*
G01*
X105867600Y-63637600D01*
G75*
G02*
X106067600Y-63837600I0J-200000D01*
G01*
X106067600Y-65537600D01*
G75*
G02*
X105867600Y-65737600I-200000J0D01*
G01*
X104167600Y-65737600D01*
G75*
G02*
X103967600Y-65537600I0J200000D01*
G01*
G37*
D12*
X111287600Y-54287600D03*
X115097600Y-54287600D03*
X118907600Y-54287600D03*
G36*
G01*
X123817600Y-52593155D02*
X123817600Y-55982045D01*
G75*
G02*
X123512045Y-56287600I-305555J0D01*
G01*
X121923155Y-56287600D01*
G75*
G02*
X121617600Y-55982045I0J305555D01*
G01*
X121617600Y-52593155D01*
G75*
G02*
X121923155Y-52287600I305555J0D01*
G01*
X123512045Y-52287600D01*
G75*
G02*
X123817600Y-52593155I0J-305555D01*
G01*
G37*
X127327600Y-101487600D03*
G36*
G01*
X122417600Y-103182045D02*
X122417600Y-99793155D01*
G75*
G02*
X122723155Y-99487600I305555J0D01*
G01*
X124312045Y-99487600D01*
G75*
G02*
X124617600Y-99793155I0J-305555D01*
G01*
X124617600Y-103182045D01*
G75*
G02*
X124312045Y-103487600I-305555J0D01*
G01*
X122723155Y-103487600D01*
G75*
G02*
X122417600Y-103182045I0J305555D01*
G01*
G37*
D11*
X109117600Y-105627600D03*
G36*
G01*
X108067600Y-103937600D02*
X108067600Y-102237600D01*
G75*
G02*
X108267600Y-102037600I200000J0D01*
G01*
X109967600Y-102037600D01*
G75*
G02*
X110167600Y-102237600I0J-200000D01*
G01*
X110167600Y-103937600D01*
G75*
G02*
X109967600Y-104137600I-200000J0D01*
G01*
X108267600Y-104137600D01*
G75*
G02*
X108067600Y-103937600I0J200000D01*
G01*
G37*
D13*
X121217600Y-50887600D03*
G36*
G01*
X124017600Y-50145932D02*
X124017600Y-51629268D01*
G75*
G02*
X123684268Y-51962600I-333332J0D01*
G01*
X122750932Y-51962600D01*
G75*
G02*
X122417600Y-51629268I0J333332D01*
G01*
X122417600Y-50145932D01*
G75*
G02*
X122750932Y-49812600I333332J0D01*
G01*
X123684268Y-49812600D01*
G75*
G02*
X124017600Y-50145932I0J-333332D01*
G01*
G37*
X110617600Y-50887600D03*
G36*
G01*
X113417600Y-50145932D02*
X113417600Y-51629268D01*
G75*
G02*
X113084268Y-51962600I-333332J0D01*
G01*
X112150932Y-51962600D01*
G75*
G02*
X111817600Y-51629268I0J333332D01*
G01*
X111817600Y-50145932D01*
G75*
G02*
X112150932Y-49812600I333332J0D01*
G01*
X113084268Y-49812600D01*
G75*
G02*
X113417600Y-50145932I0J-333332D01*
G01*
G37*
X127117600Y-105187600D03*
G36*
G01*
X124317600Y-105929268D02*
X124317600Y-104445932D01*
G75*
G02*
X124650932Y-104112600I333332J0D01*
G01*
X125584268Y-104112600D01*
G75*
G02*
X125917600Y-104445932I0J-333332D01*
G01*
X125917600Y-105929268D01*
G75*
G02*
X125584268Y-106262600I-333332J0D01*
G01*
X124650932Y-106262600D01*
G75*
G02*
X124317600Y-105929268I0J333332D01*
G01*
G37*
X129367600Y-76387600D03*
G36*
G01*
X126567600Y-77129268D02*
X126567600Y-75645932D01*
G75*
G02*
X126900932Y-75312600I333332J0D01*
G01*
X127834268Y-75312600D01*
G75*
G02*
X128167600Y-75645932I0J-333332D01*
G01*
X128167600Y-77129268D01*
G75*
G02*
X127834268Y-77462600I-333332J0D01*
G01*
X126900932Y-77462600D01*
G75*
G02*
X126567600Y-77129268I0J333332D01*
G01*
G37*
D14*
X116757600Y-105637600D03*
X129167600Y-50737600D03*
X104667600Y-50737600D03*
M02*
