G04 #@! TF.GenerationSoftware,KiCad,Pcbnew,5.1.9+dfsg1-1+deb11u1*
G04 #@! TF.CreationDate,2022-12-09T15:22:24+00:00*
G04 #@! TF.ProjectId,ModuleV450,4d6f6475-6c65-4563-9435-302e6b696361,rev?*
G04 #@! TF.SameCoordinates,Original*
G04 #@! TF.FileFunction,Legend,Top*
G04 #@! TF.FilePolarity,Positive*
%FSLAX46Y46*%
G04 Gerber Fmt 4.6, Leading zero omitted, Abs format (unit mm)*
G04 Created by KiCad (PCBNEW 5.1.9+dfsg1-1+deb11u1) date 2022-12-09 15:22:24*
%MOMM*%
%LPD*%
G01*
G04 APERTURE LIST*
%ADD10C,0.150000*%
%ADD11C,0.200000*%
%ADD12C,0.175000*%
%ADD13C,0.300000*%
%ADD14C,0.250000*%
%ADD15C,0.120000*%
%ADD16C,0.100000*%
G04 APERTURE END LIST*
D10*
X123041409Y-93037719D02*
X123079504Y-92923433D01*
X123079504Y-92732957D01*
X123041409Y-92656766D01*
X123003314Y-92618671D01*
X122927123Y-92580576D01*
X122850933Y-92580576D01*
X122774742Y-92618671D01*
X122736647Y-92656766D01*
X122698552Y-92732957D01*
X122660457Y-92885338D01*
X122622361Y-92961528D01*
X122584266Y-92999623D01*
X122508076Y-93037719D01*
X122431885Y-93037719D01*
X122355695Y-92999623D01*
X122317600Y-92961528D01*
X122279504Y-92885338D01*
X122279504Y-92694861D01*
X122317600Y-92580576D01*
X122546171Y-92352004D02*
X122546171Y-92047242D01*
X122279504Y-92237719D02*
X122965219Y-92237719D01*
X123041409Y-92199623D01*
X123079504Y-92123433D01*
X123079504Y-92047242D01*
X123079504Y-91780576D02*
X122546171Y-91780576D01*
X122698552Y-91780576D02*
X122622361Y-91742480D01*
X122584266Y-91704385D01*
X122546171Y-91628195D01*
X122546171Y-91552004D01*
X123079504Y-91285338D02*
X122546171Y-91285338D01*
X122279504Y-91285338D02*
X122317600Y-91323433D01*
X122355695Y-91285338D01*
X122317600Y-91247242D01*
X122279504Y-91285338D01*
X122355695Y-91285338D01*
X122546171Y-90904385D02*
X123346171Y-90904385D01*
X122584266Y-90904385D02*
X122546171Y-90828195D01*
X122546171Y-90675814D01*
X122584266Y-90599623D01*
X122622361Y-90561528D01*
X122698552Y-90523433D01*
X122927123Y-90523433D01*
X123003314Y-90561528D01*
X123041409Y-90599623D01*
X123079504Y-90675814D01*
X123079504Y-90828195D01*
X123041409Y-90904385D01*
X123041409Y-89875814D02*
X123079504Y-89952004D01*
X123079504Y-90104385D01*
X123041409Y-90180576D01*
X122965219Y-90218671D01*
X122660457Y-90218671D01*
X122584266Y-90180576D01*
X122546171Y-90104385D01*
X122546171Y-89952004D01*
X122584266Y-89875814D01*
X122660457Y-89837719D01*
X122736647Y-89837719D01*
X122812838Y-90218671D01*
X130746171Y-73392361D02*
X130793790Y-73249504D01*
X130841409Y-73201885D01*
X130936647Y-73154266D01*
X131079504Y-73154266D01*
X131174742Y-73201885D01*
X131222361Y-73249504D01*
X131269980Y-73344742D01*
X131269980Y-73725695D01*
X130269980Y-73725695D01*
X130269980Y-73392361D01*
X130317600Y-73297123D01*
X130365219Y-73249504D01*
X130460457Y-73201885D01*
X130555695Y-73201885D01*
X130650933Y-73249504D01*
X130698552Y-73297123D01*
X130746171Y-73392361D01*
X130746171Y-73725695D01*
X130746171Y-72725695D02*
X130746171Y-72392361D01*
X131269980Y-72249504D02*
X131269980Y-72725695D01*
X130269980Y-72725695D01*
X130269980Y-72249504D01*
X130269980Y-71963790D02*
X130269980Y-71392361D01*
X131269980Y-71678076D02*
X130269980Y-71678076D01*
X130984266Y-71106647D02*
X130984266Y-70630457D01*
X131269980Y-71201885D02*
X130269980Y-70868552D01*
X131269980Y-70535219D01*
X130889028Y-70201885D02*
X130889028Y-69439980D01*
X131269980Y-68916171D02*
X131269980Y-68725695D01*
X131222361Y-68630457D01*
X131174742Y-68582838D01*
X131031885Y-68487600D01*
X130841409Y-68439980D01*
X130460457Y-68439980D01*
X130365219Y-68487600D01*
X130317600Y-68535219D01*
X130269980Y-68630457D01*
X130269980Y-68820933D01*
X130317600Y-68916171D01*
X130365219Y-68963790D01*
X130460457Y-69011409D01*
X130698552Y-69011409D01*
X130793790Y-68963790D01*
X130841409Y-68916171D01*
X130889028Y-68820933D01*
X130889028Y-68630457D01*
X130841409Y-68535219D01*
X130793790Y-68487600D01*
X130698552Y-68439980D01*
X130365219Y-68059028D02*
X130317600Y-68011409D01*
X130269980Y-67916171D01*
X130269980Y-67678076D01*
X130317600Y-67582838D01*
X130365219Y-67535219D01*
X130460457Y-67487600D01*
X130555695Y-67487600D01*
X130698552Y-67535219D01*
X131269980Y-68106647D01*
X131269980Y-67487600D01*
X130603314Y-67201885D02*
X130603314Y-66820933D01*
X131269980Y-67059028D02*
X130412838Y-67059028D01*
X130317600Y-67011409D01*
X130269980Y-66916171D01*
X130269980Y-66820933D01*
X131269980Y-66487600D02*
X130269980Y-66487600D01*
X130650933Y-66487600D02*
X130603314Y-66392361D01*
X130603314Y-66201885D01*
X130650933Y-66106647D01*
X130698552Y-66059028D01*
X130793790Y-66011409D01*
X131079504Y-66011409D01*
X131174742Y-66059028D01*
X131222361Y-66106647D01*
X131269980Y-66201885D01*
X131269980Y-66392361D01*
X131222361Y-66487600D01*
X131269980Y-65154266D02*
X130746171Y-65154266D01*
X130650933Y-65201885D01*
X130603314Y-65297123D01*
X130603314Y-65487600D01*
X130650933Y-65582838D01*
X131222361Y-65154266D02*
X131269980Y-65249504D01*
X131269980Y-65487600D01*
X131222361Y-65582838D01*
X131127123Y-65630457D01*
X131031885Y-65630457D01*
X130936647Y-65582838D01*
X130889028Y-65487600D01*
X130889028Y-65249504D01*
X130841409Y-65154266D01*
X130269980Y-64249504D02*
X130269980Y-64439980D01*
X130317600Y-64535219D01*
X130365219Y-64582838D01*
X130508076Y-64678076D01*
X130698552Y-64725695D01*
X131079504Y-64725695D01*
X131174742Y-64678076D01*
X131222361Y-64630457D01*
X131269980Y-64535219D01*
X131269980Y-64344742D01*
X131222361Y-64249504D01*
X131174742Y-64201885D01*
X131079504Y-64154266D01*
X130841409Y-64154266D01*
X130746171Y-64201885D01*
X130698552Y-64249504D01*
X130650933Y-64344742D01*
X130650933Y-64535219D01*
X130698552Y-64630457D01*
X130746171Y-64678076D01*
X130841409Y-64725695D01*
X131269980Y-63678076D02*
X131269980Y-63487600D01*
X131222361Y-63392361D01*
X131174742Y-63344742D01*
X131031885Y-63249504D01*
X130841409Y-63201885D01*
X130460457Y-63201885D01*
X130365219Y-63249504D01*
X130317600Y-63297123D01*
X130269980Y-63392361D01*
X130269980Y-63582838D01*
X130317600Y-63678076D01*
X130365219Y-63725695D01*
X130460457Y-63773314D01*
X130698552Y-63773314D01*
X130793790Y-63725695D01*
X130841409Y-63678076D01*
X130889028Y-63582838D01*
X130889028Y-63392361D01*
X130841409Y-63297123D01*
X130793790Y-63249504D01*
X130698552Y-63201885D01*
D11*
X123351647Y-93139980D02*
X123476647Y-92139980D01*
X123923076Y-93139980D02*
X123565933Y-92568552D01*
X124048076Y-92139980D02*
X123405219Y-92711409D01*
X116911171Y-92854266D02*
X117387361Y-92854266D01*
X116780219Y-93139980D02*
X117238552Y-92139980D01*
X117446885Y-93139980D01*
D12*
X117484266Y-71582838D02*
X117484266Y-71106647D01*
X117769980Y-71678076D02*
X116769980Y-71344742D01*
X117769980Y-71011409D01*
X116769980Y-70820933D02*
X116769980Y-70249504D01*
X117769980Y-70535219D02*
X116769980Y-70535219D01*
X116769980Y-70059028D02*
X116769980Y-69487600D01*
X117769980Y-69773314D02*
X116769980Y-69773314D01*
X117769980Y-69154266D02*
X116769980Y-69154266D01*
X117769980Y-68678076D02*
X116769980Y-68678076D01*
X117769980Y-68106647D01*
X116769980Y-68106647D01*
X117293790Y-67439980D02*
X117769980Y-67439980D01*
X116769980Y-67773314D02*
X117293790Y-67439980D01*
X116769980Y-67106647D01*
X117769980Y-66249504D02*
X117769980Y-66820933D01*
X117769980Y-66535219D02*
X116769980Y-66535219D01*
X116912838Y-66630457D01*
X117008076Y-66725695D01*
X117055695Y-66820933D01*
X116769980Y-65392361D02*
X116769980Y-65582838D01*
X116817600Y-65678076D01*
X116865219Y-65725695D01*
X117008076Y-65820933D01*
X117198552Y-65868552D01*
X117579504Y-65868552D01*
X117674742Y-65820933D01*
X117722361Y-65773314D01*
X117769980Y-65678076D01*
X117769980Y-65487600D01*
X117722361Y-65392361D01*
X117674742Y-65344742D01*
X117579504Y-65297123D01*
X117341409Y-65297123D01*
X117246171Y-65344742D01*
X117198552Y-65392361D01*
X117150933Y-65487600D01*
X117150933Y-65678076D01*
X117198552Y-65773314D01*
X117246171Y-65820933D01*
X117341409Y-65868552D01*
X116865219Y-64916171D02*
X116817600Y-64868552D01*
X116769980Y-64773314D01*
X116769980Y-64535219D01*
X116817600Y-64439980D01*
X116865219Y-64392361D01*
X116960457Y-64344742D01*
X117055695Y-64344742D01*
X117198552Y-64392361D01*
X117769980Y-64963790D01*
X117769980Y-64344742D01*
X117103314Y-63487600D02*
X117769980Y-63487600D01*
X116722361Y-63725695D02*
X117436647Y-63963790D01*
X117436647Y-63344742D01*
D10*
X106610576Y-74349504D02*
X106610576Y-74920933D01*
X106572480Y-75035219D01*
X106496290Y-75111409D01*
X106382004Y-75149504D01*
X106305814Y-75149504D01*
X107372480Y-75149504D02*
X106991528Y-75149504D01*
X106991528Y-74349504D01*
X108096290Y-75073314D02*
X108058195Y-75111409D01*
X107943909Y-75149504D01*
X107867719Y-75149504D01*
X107753433Y-75111409D01*
X107677242Y-75035219D01*
X107639147Y-74959028D01*
X107601052Y-74806647D01*
X107601052Y-74692361D01*
X107639147Y-74539980D01*
X107677242Y-74463790D01*
X107753433Y-74387600D01*
X107867719Y-74349504D01*
X107943909Y-74349504D01*
X108058195Y-74387600D01*
X108096290Y-74425695D01*
X108667719Y-74349504D02*
X108667719Y-74920933D01*
X108629623Y-75035219D01*
X108553433Y-75111409D01*
X108439147Y-75149504D01*
X108362957Y-75149504D01*
X109429623Y-75149504D02*
X109048671Y-75149504D01*
X109048671Y-74349504D01*
X110153433Y-75073314D02*
X110115338Y-75111409D01*
X110001052Y-75149504D01*
X109924861Y-75149504D01*
X109810576Y-75111409D01*
X109734385Y-75035219D01*
X109696290Y-74959028D01*
X109658195Y-74806647D01*
X109658195Y-74692361D01*
X109696290Y-74539980D01*
X109734385Y-74463790D01*
X109810576Y-74387600D01*
X109924861Y-74349504D01*
X110001052Y-74349504D01*
X110115338Y-74387600D01*
X110153433Y-74425695D01*
X110724861Y-74349504D02*
X110724861Y-74920933D01*
X110686766Y-75035219D01*
X110610576Y-75111409D01*
X110496290Y-75149504D01*
X110420100Y-75149504D01*
X111486766Y-75149504D02*
X111105814Y-75149504D01*
X111105814Y-74349504D01*
X112210576Y-75073314D02*
X112172480Y-75111409D01*
X112058195Y-75149504D01*
X111982004Y-75149504D01*
X111867719Y-75111409D01*
X111791528Y-75035219D01*
X111753433Y-74959028D01*
X111715338Y-74806647D01*
X111715338Y-74692361D01*
X111753433Y-74539980D01*
X111791528Y-74463790D01*
X111867719Y-74387600D01*
X111982004Y-74349504D01*
X112058195Y-74349504D01*
X112172480Y-74387600D01*
X112210576Y-74425695D01*
X112782004Y-74349504D02*
X112782004Y-74920933D01*
X112743909Y-75035219D01*
X112667719Y-75111409D01*
X112553433Y-75149504D01*
X112477242Y-75149504D01*
X113543909Y-75149504D02*
X113162957Y-75149504D01*
X113162957Y-74349504D01*
X114267719Y-75073314D02*
X114229623Y-75111409D01*
X114115338Y-75149504D01*
X114039147Y-75149504D01*
X113924861Y-75111409D01*
X113848671Y-75035219D01*
X113810576Y-74959028D01*
X113772480Y-74806647D01*
X113772480Y-74692361D01*
X113810576Y-74539980D01*
X113848671Y-74463790D01*
X113924861Y-74387600D01*
X114039147Y-74349504D01*
X114115338Y-74349504D01*
X114229623Y-74387600D01*
X114267719Y-74425695D01*
D11*
X114586171Y-94426647D02*
X114586171Y-95188552D01*
X114205219Y-94807600D02*
X114967123Y-94807600D01*
X106946171Y-59126647D02*
X106946171Y-59888552D01*
X106565219Y-59507600D02*
X107327123Y-59507600D01*
D10*
X102800814Y-100674742D02*
X103315100Y-100674742D01*
X103057957Y-101574742D02*
X103057957Y-100674742D01*
X103957957Y-101531885D02*
X103872242Y-101574742D01*
X103700814Y-101574742D01*
X103615100Y-101531885D01*
X103572242Y-101446171D01*
X103572242Y-101103314D01*
X103615100Y-101017600D01*
X103700814Y-100974742D01*
X103872242Y-100974742D01*
X103957957Y-101017600D01*
X104000814Y-101103314D01*
X104000814Y-101189028D01*
X103572242Y-101274742D01*
X104386528Y-101574742D02*
X104386528Y-100974742D01*
X104386528Y-101060457D02*
X104429385Y-101017600D01*
X104515100Y-100974742D01*
X104643671Y-100974742D01*
X104729385Y-101017600D01*
X104772242Y-101103314D01*
X104772242Y-101574742D01*
X104772242Y-101103314D02*
X104815100Y-101017600D01*
X104900814Y-100974742D01*
X105029385Y-100974742D01*
X105115100Y-101017600D01*
X105157957Y-101103314D01*
X105157957Y-101574742D01*
X105586528Y-100974742D02*
X105586528Y-101874742D01*
X105586528Y-101017600D02*
X105672242Y-100974742D01*
X105843671Y-100974742D01*
X105929385Y-101017600D01*
X105972242Y-101060457D01*
X106015100Y-101146171D01*
X106015100Y-101403314D01*
X105972242Y-101489028D01*
X105929385Y-101531885D01*
X105843671Y-101574742D01*
X105672242Y-101574742D01*
X105586528Y-101531885D01*
X102886528Y-103031885D02*
X103015100Y-103074742D01*
X103229385Y-103074742D01*
X103315100Y-103031885D01*
X103357957Y-102989028D01*
X103400814Y-102903314D01*
X103400814Y-102817600D01*
X103357957Y-102731885D01*
X103315100Y-102689028D01*
X103229385Y-102646171D01*
X103057957Y-102603314D01*
X102972242Y-102560457D01*
X102929385Y-102517600D01*
X102886528Y-102431885D01*
X102886528Y-102346171D01*
X102929385Y-102260457D01*
X102972242Y-102217600D01*
X103057957Y-102174742D01*
X103272242Y-102174742D01*
X103400814Y-102217600D01*
X104129385Y-103031885D02*
X104043671Y-103074742D01*
X103872242Y-103074742D01*
X103786528Y-103031885D01*
X103743671Y-102946171D01*
X103743671Y-102603314D01*
X103786528Y-102517600D01*
X103872242Y-102474742D01*
X104043671Y-102474742D01*
X104129385Y-102517600D01*
X104172242Y-102603314D01*
X104172242Y-102689028D01*
X103743671Y-102774742D01*
X104557957Y-102474742D02*
X104557957Y-103074742D01*
X104557957Y-102560457D02*
X104600814Y-102517600D01*
X104686528Y-102474742D01*
X104815100Y-102474742D01*
X104900814Y-102517600D01*
X104943671Y-102603314D01*
X104943671Y-103074742D01*
X105329385Y-103031885D02*
X105415100Y-103074742D01*
X105586528Y-103074742D01*
X105672242Y-103031885D01*
X105715100Y-102946171D01*
X105715100Y-102903314D01*
X105672242Y-102817600D01*
X105586528Y-102774742D01*
X105457957Y-102774742D01*
X105372242Y-102731885D01*
X105329385Y-102646171D01*
X105329385Y-102603314D01*
X105372242Y-102517600D01*
X105457957Y-102474742D01*
X105586528Y-102474742D01*
X105672242Y-102517600D01*
X106229385Y-103074742D02*
X106143671Y-103031885D01*
X106100814Y-102989028D01*
X106057957Y-102903314D01*
X106057957Y-102646171D01*
X106100814Y-102560457D01*
X106143671Y-102517600D01*
X106229385Y-102474742D01*
X106357957Y-102474742D01*
X106443671Y-102517600D01*
X106486528Y-102560457D01*
X106529385Y-102646171D01*
X106529385Y-102903314D01*
X106486528Y-102989028D01*
X106443671Y-103031885D01*
X106357957Y-103074742D01*
X106229385Y-103074742D01*
X106915100Y-103074742D02*
X106915100Y-102474742D01*
X106915100Y-102646171D02*
X106957957Y-102560457D01*
X107000814Y-102517600D01*
X107086528Y-102474742D01*
X107172242Y-102474742D01*
D12*
X113327600Y-63824266D02*
X112927600Y-63824266D01*
X113127600Y-63824266D02*
X113127600Y-63124266D01*
X113060933Y-63224266D01*
X112994266Y-63290933D01*
X112927600Y-63324266D01*
X121117600Y-58104266D02*
X120717600Y-58104266D01*
X120917600Y-58104266D02*
X120917600Y-57404266D01*
X120850933Y-57504266D01*
X120784266Y-57570933D01*
X120717600Y-57604266D01*
D13*
X109167034Y-92311409D02*
X109367034Y-90711409D01*
X109271796Y-91473314D02*
X110186082Y-91473314D01*
X110081320Y-92311409D02*
X110281320Y-90711409D01*
X111347986Y-90711409D02*
X111652748Y-90711409D01*
X111795605Y-90787600D01*
X111928939Y-90939980D01*
X111967034Y-91244742D01*
X111900367Y-91778076D01*
X111786082Y-92082838D01*
X111614653Y-92235219D01*
X111452748Y-92311409D01*
X111147986Y-92311409D01*
X111005129Y-92235219D01*
X110871796Y-92082838D01*
X110833701Y-91778076D01*
X110900367Y-91244742D01*
X111014653Y-90939980D01*
X111186082Y-90787600D01*
X111347986Y-90711409D01*
X112490844Y-90711409D02*
X113405129Y-90711409D01*
X112747986Y-92311409D02*
X112947986Y-90711409D01*
X113757510Y-92159028D02*
X113824177Y-92235219D01*
X113738463Y-92311409D01*
X113671796Y-92235219D01*
X113757510Y-92159028D01*
X113738463Y-92311409D01*
X113814653Y-91701885D02*
X113852748Y-90787600D01*
X113938463Y-90711409D01*
X114005129Y-90787600D01*
X113814653Y-91701885D01*
X113938463Y-90711409D01*
D11*
X103395219Y-62533314D02*
X103395219Y-61961885D01*
X103395219Y-62247600D02*
X104395219Y-62247600D01*
X104252361Y-62152361D01*
X104157123Y-62057123D01*
X104109504Y-61961885D01*
D14*
X127535457Y-70778671D02*
X126335457Y-70778671D01*
X126335457Y-70492957D01*
X126392600Y-70321528D01*
X126506885Y-70207242D01*
X126621171Y-70150100D01*
X126849742Y-70092957D01*
X127021171Y-70092957D01*
X127249742Y-70150100D01*
X127364028Y-70207242D01*
X127478314Y-70321528D01*
X127535457Y-70492957D01*
X127535457Y-70778671D01*
X127535457Y-69578671D02*
X126335457Y-69578671D01*
X126964028Y-68778671D02*
X127535457Y-68778671D01*
X126335457Y-69178671D02*
X126964028Y-68778671D01*
X126335457Y-68378671D01*
X126906885Y-67578671D02*
X126964028Y-67407242D01*
X127021171Y-67350100D01*
X127135457Y-67292957D01*
X127306885Y-67292957D01*
X127421171Y-67350100D01*
X127478314Y-67407242D01*
X127535457Y-67521528D01*
X127535457Y-67978671D01*
X126335457Y-67978671D01*
X126335457Y-67578671D01*
X126392600Y-67464385D01*
X126449742Y-67407242D01*
X126564028Y-67350100D01*
X126678314Y-67350100D01*
X126792600Y-67407242D01*
X126849742Y-67464385D01*
X126906885Y-67578671D01*
X126906885Y-67978671D01*
X127535457Y-66778671D02*
X126335457Y-66778671D01*
X127192600Y-66378671D01*
X126335457Y-65978671D01*
X127535457Y-65978671D01*
X127478314Y-65464385D02*
X127535457Y-65292957D01*
X127535457Y-65007242D01*
X127478314Y-64892957D01*
X127421171Y-64835814D01*
X127306885Y-64778671D01*
X127192600Y-64778671D01*
X127078314Y-64835814D01*
X127021171Y-64892957D01*
X126964028Y-65007242D01*
X126906885Y-65235814D01*
X126849742Y-65350100D01*
X126792600Y-65407242D01*
X126678314Y-65464385D01*
X126564028Y-65464385D01*
X126449742Y-65407242D01*
X126392600Y-65350100D01*
X126335457Y-65235814D01*
X126335457Y-64950100D01*
X126392600Y-64778671D01*
X128785457Y-68150100D02*
X129585457Y-67864385D01*
X128785457Y-67578671D01*
X128785457Y-66607242D02*
X129585457Y-66607242D01*
X128328314Y-66892957D02*
X129185457Y-67178671D01*
X129185457Y-66435814D01*
X129471171Y-65978671D02*
X129528314Y-65921528D01*
X129585457Y-65978671D01*
X129528314Y-66035814D01*
X129471171Y-65978671D01*
X129585457Y-65978671D01*
X128385457Y-64835814D02*
X128385457Y-65407242D01*
X128956885Y-65464385D01*
X128899742Y-65407242D01*
X128842600Y-65292957D01*
X128842600Y-65007242D01*
X128899742Y-64892957D01*
X128956885Y-64835814D01*
X129071171Y-64778671D01*
X129356885Y-64778671D01*
X129471171Y-64835814D01*
X129528314Y-64892957D01*
X129585457Y-65007242D01*
X129585457Y-65292957D01*
X129528314Y-65407242D01*
X129471171Y-65464385D01*
D15*
X104727600Y-63357600D02*
X106057600Y-63357600D01*
X106057600Y-63357600D02*
X106057600Y-64687600D01*
X106057600Y-65957600D02*
X106057600Y-71097600D01*
X103397600Y-71097600D02*
X106057600Y-71097600D01*
X103397600Y-65957600D02*
X103397600Y-71097600D01*
X103397600Y-65957600D02*
X106057600Y-65957600D01*
X123017600Y-56887600D02*
X122417600Y-56887600D01*
X122717600Y-56287600D02*
X123017600Y-56887600D01*
X122417600Y-56887600D02*
X122717600Y-56287600D01*
X125427600Y-49487600D02*
X108577600Y-49487600D01*
X114047600Y-55597600D02*
X112337600Y-55597600D01*
X117857600Y-55597600D02*
X116147600Y-55597600D01*
X121667600Y-55597600D02*
X119957600Y-55597600D01*
X108577600Y-55597600D02*
X110237600Y-55597600D01*
X125427600Y-55597600D02*
X123767600Y-55597600D01*
X108577600Y-46177600D02*
X108577600Y-55597600D01*
X125427600Y-46177600D02*
X108577600Y-46177600D01*
X125427600Y-55597600D02*
X125427600Y-46177600D01*
X123217600Y-98887600D02*
X123817600Y-98887600D01*
X123517600Y-99487600D02*
X123217600Y-98887600D01*
X123817600Y-98887600D02*
X123517600Y-99487600D01*
X120807600Y-106287600D02*
X130037600Y-106287600D01*
X124567600Y-100177600D02*
X126277600Y-100177600D01*
X130037600Y-100177600D02*
X128377600Y-100177600D01*
X120807600Y-100177600D02*
X122467600Y-100177600D01*
X130037600Y-109597600D02*
X130037600Y-100177600D01*
X120807600Y-109597600D02*
X130037600Y-109597600D01*
X120807600Y-100177600D02*
X120807600Y-109597600D01*
X103207600Y-61122600D02*
X105492600Y-61122600D01*
X103207600Y-59652600D02*
X103207600Y-61122600D01*
X105492600Y-59652600D02*
X103207600Y-59652600D01*
X108087600Y-105257600D02*
X110747600Y-105257600D01*
X108087600Y-105257600D02*
X108087600Y-107857600D01*
X108087600Y-107857600D02*
X110747600Y-107857600D01*
X110747600Y-105257600D02*
X110747600Y-107857600D01*
X110747600Y-102657600D02*
X110747600Y-103987600D01*
X109417600Y-102657600D02*
X110747600Y-102657600D01*
X107619664Y-83847600D02*
X104565536Y-83847600D01*
X107619664Y-81127600D02*
X104565536Y-81127600D01*
X107644664Y-87947600D02*
X104590536Y-87947600D01*
X107644664Y-85227600D02*
X104590536Y-85227600D01*
X114261330Y-83847600D02*
X111207202Y-83847600D01*
X114261330Y-81127600D02*
X111207202Y-81127600D01*
X114286330Y-87947600D02*
X111232202Y-87947600D01*
X114286330Y-85227600D02*
X111232202Y-85227600D01*
X121369664Y-83847600D02*
X118315536Y-83847600D01*
X121369664Y-81127600D02*
X118315536Y-81127600D01*
X121394664Y-87947600D02*
X118340536Y-87947600D01*
X121394664Y-85227600D02*
X118340536Y-85227600D01*
X107594664Y-78397600D02*
X104540536Y-78397600D01*
X107594664Y-75677600D02*
X104540536Y-75677600D01*
X114236330Y-78397600D02*
X111182202Y-78397600D01*
X114236330Y-75677600D02*
X111182202Y-75677600D01*
X121344664Y-78397600D02*
X118290536Y-78397600D01*
X121344664Y-75677600D02*
X118290536Y-75677600D01*
X117297600Y-63062600D02*
X113847600Y-63062600D01*
X117297600Y-63062600D02*
X119247600Y-63062600D01*
X117297600Y-71932600D02*
X115347600Y-71932600D01*
X117297600Y-71932600D02*
X119247600Y-71932600D01*
X124107600Y-57292600D02*
X122417600Y-57292600D01*
X124107600Y-57077600D02*
X124107600Y-57292600D01*
X126417600Y-57077600D02*
X124107600Y-57077600D01*
X128727600Y-57077600D02*
X128727600Y-57292600D01*
X126417600Y-57077600D02*
X128727600Y-57077600D01*
X124107600Y-59897600D02*
X124107600Y-59682600D01*
X126417600Y-59897600D02*
X124107600Y-59897600D01*
X128727600Y-59897600D02*
X128727600Y-59682600D01*
X126417600Y-59897600D02*
X128727600Y-59897600D01*
X124077600Y-50747600D02*
X124077600Y-51962600D01*
X124017600Y-46787600D02*
X124017600Y-44527600D01*
X123517600Y-46787600D02*
X123517600Y-44527600D01*
X120917600Y-48387600D02*
X119917600Y-48387600D01*
X120917600Y-46787600D02*
X120917600Y-48387600D01*
X119917600Y-46787600D02*
X120917600Y-46787600D01*
X119917600Y-48387600D02*
X119917600Y-46787600D01*
X123517600Y-48387600D02*
X124517600Y-48387600D01*
X123517600Y-46787600D02*
X123517600Y-48387600D01*
X124517600Y-46787600D02*
X123517600Y-46787600D01*
X124517600Y-48387600D02*
X124517600Y-46787600D01*
X119157600Y-50747600D02*
X120077600Y-50747600D01*
X125277600Y-50747600D02*
X124357600Y-50747600D01*
X121717600Y-48887600D02*
X121717600Y-44527600D01*
X122717600Y-48887600D02*
X121717600Y-48887600D01*
X122717600Y-44527600D02*
X122717600Y-48887600D01*
X120077600Y-50747600D02*
X120357600Y-50747600D01*
X120077600Y-52347600D02*
X120077600Y-50747600D01*
X119157600Y-52347600D02*
X120077600Y-52347600D01*
X119157600Y-44527600D02*
X119157600Y-52347600D01*
X125277600Y-44527600D02*
X119157600Y-44527600D01*
X125277600Y-52347600D02*
X125277600Y-44527600D01*
X124357600Y-52347600D02*
X125277600Y-52347600D01*
X124357600Y-50747600D02*
X124357600Y-52347600D01*
X124077600Y-50747600D02*
X124357600Y-50747600D01*
X113477600Y-50747600D02*
X113477600Y-51962600D01*
X113417600Y-46787600D02*
X113417600Y-44527600D01*
X112917600Y-46787600D02*
X112917600Y-44527600D01*
X110317600Y-48387600D02*
X109317600Y-48387600D01*
X110317600Y-46787600D02*
X110317600Y-48387600D01*
X109317600Y-46787600D02*
X110317600Y-46787600D01*
X109317600Y-48387600D02*
X109317600Y-46787600D01*
X112917600Y-48387600D02*
X113917600Y-48387600D01*
X112917600Y-46787600D02*
X112917600Y-48387600D01*
X113917600Y-46787600D02*
X112917600Y-46787600D01*
X113917600Y-48387600D02*
X113917600Y-46787600D01*
X108557600Y-50747600D02*
X109477600Y-50747600D01*
X114677600Y-50747600D02*
X113757600Y-50747600D01*
X111117600Y-48887600D02*
X111117600Y-44527600D01*
X112117600Y-48887600D02*
X111117600Y-48887600D01*
X112117600Y-44527600D02*
X112117600Y-48887600D01*
X109477600Y-50747600D02*
X109757600Y-50747600D01*
X109477600Y-52347600D02*
X109477600Y-50747600D01*
X108557600Y-52347600D02*
X109477600Y-52347600D01*
X108557600Y-44527600D02*
X108557600Y-52347600D01*
X114677600Y-44527600D02*
X108557600Y-44527600D01*
X114677600Y-52347600D02*
X114677600Y-44527600D01*
X113757600Y-52347600D02*
X114677600Y-52347600D01*
X113757600Y-50747600D02*
X113757600Y-52347600D01*
X113477600Y-50747600D02*
X113757600Y-50747600D01*
X123210536Y-67662600D02*
X123664664Y-67662600D01*
X123210536Y-66192600D02*
X123664664Y-66192600D01*
X123867600Y-97737600D02*
X118167600Y-97737600D01*
X123867600Y-93437600D02*
X118167600Y-93437600D01*
X123867600Y-97737600D02*
X123867600Y-93437600D01*
X106522600Y-105284664D02*
X106522600Y-104830536D01*
X105052600Y-105284664D02*
X105052600Y-104830536D01*
X123290536Y-64322600D02*
X123744664Y-64322600D01*
X123290536Y-62852600D02*
X123744664Y-62852600D01*
X110244664Y-68052600D02*
X109790536Y-68052600D01*
X110244664Y-69522600D02*
X109790536Y-69522600D01*
X111990536Y-80622600D02*
X112444664Y-80622600D01*
X111990536Y-79152600D02*
X112444664Y-79152600D01*
X104740536Y-58447600D02*
X105194664Y-58447600D01*
X104740536Y-56977600D02*
X105194664Y-56977600D01*
X109790536Y-96992600D02*
X110244664Y-96992600D01*
X109790536Y-95522600D02*
X110244664Y-95522600D01*
X104740536Y-56422600D02*
X105194664Y-56422600D01*
X104740536Y-54952600D02*
X105194664Y-54952600D01*
X104890536Y-98622600D02*
X105344664Y-98622600D01*
X104890536Y-97152600D02*
X105344664Y-97152600D01*
X123544664Y-70052600D02*
X123090536Y-70052600D01*
X123544664Y-71522600D02*
X123090536Y-71522600D01*
X116144664Y-57552600D02*
X115690536Y-57552600D01*
X116144664Y-59022600D02*
X115690536Y-59022600D01*
X109790536Y-65532600D02*
X110244664Y-65532600D01*
X109790536Y-64062600D02*
X110244664Y-64062600D01*
X124257600Y-105327600D02*
X124257600Y-104112600D01*
X124317600Y-109287600D02*
X124317600Y-111547600D01*
X124817600Y-109287600D02*
X124817600Y-111547600D01*
X127417600Y-107687600D02*
X128417600Y-107687600D01*
X127417600Y-109287600D02*
X127417600Y-107687600D01*
X128417600Y-109287600D02*
X127417600Y-109287600D01*
X128417600Y-107687600D02*
X128417600Y-109287600D01*
X124817600Y-107687600D02*
X123817600Y-107687600D01*
X124817600Y-109287600D02*
X124817600Y-107687600D01*
X123817600Y-109287600D02*
X124817600Y-109287600D01*
X123817600Y-107687600D02*
X123817600Y-109287600D01*
X129177600Y-105327600D02*
X128257600Y-105327600D01*
X123057600Y-105327600D02*
X123977600Y-105327600D01*
X126617600Y-107187600D02*
X126617600Y-111547600D01*
X125617600Y-107187600D02*
X126617600Y-107187600D01*
X125617600Y-111547600D02*
X125617600Y-107187600D01*
X128257600Y-105327600D02*
X127977600Y-105327600D01*
X128257600Y-103727600D02*
X128257600Y-105327600D01*
X129177600Y-103727600D02*
X128257600Y-103727600D01*
X129177600Y-111547600D02*
X129177600Y-103727600D01*
X123057600Y-111547600D02*
X129177600Y-111547600D01*
X123057600Y-103727600D02*
X123057600Y-111547600D01*
X123977600Y-103727600D02*
X123057600Y-103727600D01*
X123977600Y-105327600D02*
X123977600Y-103727600D01*
X124257600Y-105327600D02*
X123977600Y-105327600D01*
X126931348Y-97397600D02*
X129703852Y-97397600D01*
X126931348Y-93977600D02*
X129703852Y-93977600D01*
X126507600Y-76527600D02*
X126507600Y-75312600D01*
X126567600Y-80487600D02*
X126567600Y-82747600D01*
X127067600Y-80487600D02*
X127067600Y-82747600D01*
X129667600Y-78887600D02*
X130667600Y-78887600D01*
X129667600Y-80487600D02*
X129667600Y-78887600D01*
X130667600Y-80487600D02*
X129667600Y-80487600D01*
X130667600Y-78887600D02*
X130667600Y-80487600D01*
X127067600Y-78887600D02*
X126067600Y-78887600D01*
X127067600Y-80487600D02*
X127067600Y-78887600D01*
X126067600Y-80487600D02*
X127067600Y-80487600D01*
X126067600Y-78887600D02*
X126067600Y-80487600D01*
X131427600Y-76527600D02*
X130507600Y-76527600D01*
X125307600Y-76527600D02*
X126227600Y-76527600D01*
X128867600Y-78387600D02*
X128867600Y-82747600D01*
X127867600Y-78387600D02*
X128867600Y-78387600D01*
X127867600Y-82747600D02*
X127867600Y-78387600D01*
X130507600Y-76527600D02*
X130227600Y-76527600D01*
X130507600Y-74927600D02*
X130507600Y-76527600D01*
X131427600Y-74927600D02*
X130507600Y-74927600D01*
X131427600Y-82747600D02*
X131427600Y-74927600D01*
X125307600Y-82747600D02*
X131427600Y-82747600D01*
X125307600Y-74927600D02*
X125307600Y-82747600D01*
X126227600Y-74927600D02*
X125307600Y-74927600D01*
X126227600Y-76527600D02*
X126227600Y-74927600D01*
X126507600Y-76527600D02*
X126227600Y-76527600D01*
X111832600Y-97262600D02*
X114517600Y-97262600D01*
X111832600Y-95342600D02*
X111832600Y-97262600D01*
X114517600Y-95342600D02*
X111832600Y-95342600D01*
X111637600Y-61087600D02*
X111637600Y-62547600D01*
X108477600Y-61087600D02*
X108477600Y-63247600D01*
X108477600Y-61087600D02*
X109407600Y-61087600D01*
X111637600Y-61087600D02*
X110707600Y-61087600D01*
X115076348Y-62202600D02*
X115598852Y-62202600D01*
X115076348Y-60732600D02*
X115598852Y-60732600D01*
X118996348Y-62212600D02*
X119518852Y-62212600D01*
X118996348Y-60742600D02*
X119518852Y-60742600D01*
X106672600Y-94027600D02*
X105742600Y-94027600D01*
X103512600Y-94027600D02*
X104442600Y-94027600D01*
X103512600Y-94027600D02*
X103512600Y-96187600D01*
X106672600Y-94027600D02*
X106672600Y-95487600D01*
D10*
X102727600Y-72039980D02*
X102727600Y-72849504D01*
X102775219Y-72944742D01*
X102822838Y-72992361D01*
X102918076Y-73039980D01*
X103108552Y-73039980D01*
X103203790Y-72992361D01*
X103251409Y-72944742D01*
X103299028Y-72849504D01*
X103299028Y-72039980D01*
X103775219Y-73039980D02*
X103775219Y-72039980D01*
X104156171Y-72039980D01*
X104251409Y-72087600D01*
X104299028Y-72135219D01*
X104346647Y-72230457D01*
X104346647Y-72373314D01*
X104299028Y-72468552D01*
X104251409Y-72516171D01*
X104156171Y-72563790D01*
X103775219Y-72563790D01*
X104775219Y-73039980D02*
X104775219Y-72039980D01*
X105013314Y-72039980D01*
X105156171Y-72087600D01*
X105251409Y-72182838D01*
X105299028Y-72278076D01*
X105346647Y-72468552D01*
X105346647Y-72611409D01*
X105299028Y-72801885D01*
X105251409Y-72897123D01*
X105156171Y-72992361D01*
X105013314Y-73039980D01*
X104775219Y-73039980D01*
X105775219Y-73039980D02*
X105775219Y-72039980D01*
X106775219Y-73039980D02*
X106203790Y-73039980D01*
X106489504Y-73039980D02*
X106489504Y-72039980D01*
X106394266Y-72182838D01*
X106299028Y-72278076D01*
X106203790Y-72325695D01*
X116664266Y-56739980D02*
X116664266Y-57454266D01*
X116616647Y-57597123D01*
X116521409Y-57692361D01*
X116378552Y-57739980D01*
X116283314Y-57739980D01*
X117092838Y-56835219D02*
X117140457Y-56787600D01*
X117235695Y-56739980D01*
X117473790Y-56739980D01*
X117569028Y-56787600D01*
X117616647Y-56835219D01*
X117664266Y-56930457D01*
X117664266Y-57025695D01*
X117616647Y-57168552D01*
X117045219Y-57739980D01*
X117664266Y-57739980D01*
X122631885Y-98939980D02*
X122631885Y-97939980D01*
X123012838Y-97939980D01*
X123108076Y-97987600D01*
X123155695Y-98035219D01*
X123203314Y-98130457D01*
X123203314Y-98273314D01*
X123155695Y-98368552D01*
X123108076Y-98416171D01*
X123012838Y-98463790D01*
X122631885Y-98463790D01*
X123822361Y-97939980D02*
X124012838Y-97939980D01*
X124108076Y-97987600D01*
X124203314Y-98082838D01*
X124250933Y-98273314D01*
X124250933Y-98606647D01*
X124203314Y-98797123D01*
X124108076Y-98892361D01*
X124012838Y-98939980D01*
X123822361Y-98939980D01*
X123727123Y-98892361D01*
X123631885Y-98797123D01*
X123584266Y-98606647D01*
X123584266Y-98273314D01*
X123631885Y-98082838D01*
X123727123Y-97987600D01*
X123822361Y-97939980D01*
X124584266Y-97939980D02*
X124822361Y-98939980D01*
X125012838Y-98225695D01*
X125203314Y-98939980D01*
X125441409Y-97939980D01*
X125822361Y-98416171D02*
X126155695Y-98416171D01*
X126298552Y-98939980D02*
X125822361Y-98939980D01*
X125822361Y-97939980D01*
X126298552Y-97939980D01*
X127298552Y-98939980D02*
X126965219Y-98463790D01*
X126727123Y-98939980D02*
X126727123Y-97939980D01*
X127108076Y-97939980D01*
X127203314Y-97987600D01*
X127250933Y-98035219D01*
X127298552Y-98130457D01*
X127298552Y-98273314D01*
X127250933Y-98368552D01*
X127203314Y-98416171D01*
X127108076Y-98463790D01*
X126727123Y-98463790D01*
X127679504Y-98035219D02*
X127727123Y-97987600D01*
X127822361Y-97939980D01*
X128060457Y-97939980D01*
X128155695Y-97987600D01*
X128203314Y-98035219D01*
X128250933Y-98130457D01*
X128250933Y-98225695D01*
X128203314Y-98368552D01*
X127631885Y-98939980D01*
X128250933Y-98939980D01*
X103069980Y-61125695D02*
X102069980Y-61125695D01*
X102069980Y-60887600D01*
X102117600Y-60744742D01*
X102212838Y-60649504D01*
X102308076Y-60601885D01*
X102498552Y-60554266D01*
X102641409Y-60554266D01*
X102831885Y-60601885D01*
X102927123Y-60649504D01*
X103022361Y-60744742D01*
X103069980Y-60887600D01*
X103069980Y-61125695D01*
X102403314Y-59697123D02*
X103069980Y-59697123D01*
X102022361Y-59935219D02*
X102736647Y-60173314D01*
X102736647Y-59554266D01*
X109084266Y-100669980D02*
X109084266Y-101384266D01*
X109036647Y-101527123D01*
X108941409Y-101622361D01*
X108798552Y-101669980D01*
X108703314Y-101669980D01*
X110084266Y-101669980D02*
X109512838Y-101669980D01*
X109798552Y-101669980D02*
X109798552Y-100669980D01*
X109703314Y-100812838D01*
X109608076Y-100908076D01*
X109512838Y-100955695D01*
X105449742Y-85219980D02*
X105116409Y-84743790D01*
X104878314Y-85219980D02*
X104878314Y-84219980D01*
X105259266Y-84219980D01*
X105354504Y-84267600D01*
X105402123Y-84315219D01*
X105449742Y-84410457D01*
X105449742Y-84553314D01*
X105402123Y-84648552D01*
X105354504Y-84696171D01*
X105259266Y-84743790D01*
X104878314Y-84743790D01*
X105830695Y-84315219D02*
X105878314Y-84267600D01*
X105973552Y-84219980D01*
X106211647Y-84219980D01*
X106306885Y-84267600D01*
X106354504Y-84315219D01*
X106402123Y-84410457D01*
X106402123Y-84505695D01*
X106354504Y-84648552D01*
X105783076Y-85219980D01*
X106402123Y-85219980D01*
X106973552Y-84648552D02*
X106878314Y-84600933D01*
X106830695Y-84553314D01*
X106783076Y-84458076D01*
X106783076Y-84410457D01*
X106830695Y-84315219D01*
X106878314Y-84267600D01*
X106973552Y-84219980D01*
X107164028Y-84219980D01*
X107259266Y-84267600D01*
X107306885Y-84315219D01*
X107354504Y-84410457D01*
X107354504Y-84458076D01*
X107306885Y-84553314D01*
X107259266Y-84600933D01*
X107164028Y-84648552D01*
X106973552Y-84648552D01*
X106878314Y-84696171D01*
X106830695Y-84743790D01*
X106783076Y-84839028D01*
X106783076Y-85029504D01*
X106830695Y-85124742D01*
X106878314Y-85172361D01*
X106973552Y-85219980D01*
X107164028Y-85219980D01*
X107259266Y-85172361D01*
X107306885Y-85124742D01*
X107354504Y-85029504D01*
X107354504Y-84839028D01*
X107306885Y-84743790D01*
X107259266Y-84696171D01*
X107164028Y-84648552D01*
X105474742Y-89319980D02*
X105141409Y-88843790D01*
X104903314Y-89319980D02*
X104903314Y-88319980D01*
X105284266Y-88319980D01*
X105379504Y-88367600D01*
X105427123Y-88415219D01*
X105474742Y-88510457D01*
X105474742Y-88653314D01*
X105427123Y-88748552D01*
X105379504Y-88796171D01*
X105284266Y-88843790D01*
X104903314Y-88843790D01*
X105855695Y-88415219D02*
X105903314Y-88367600D01*
X105998552Y-88319980D01*
X106236647Y-88319980D01*
X106331885Y-88367600D01*
X106379504Y-88415219D01*
X106427123Y-88510457D01*
X106427123Y-88605695D01*
X106379504Y-88748552D01*
X105808076Y-89319980D01*
X106427123Y-89319980D01*
X106760457Y-88319980D02*
X107427123Y-88319980D01*
X106998552Y-89319980D01*
X112091408Y-85219980D02*
X111758075Y-84743790D01*
X111519980Y-85219980D02*
X111519980Y-84219980D01*
X111900932Y-84219980D01*
X111996170Y-84267600D01*
X112043789Y-84315219D01*
X112091408Y-84410457D01*
X112091408Y-84553314D01*
X112043789Y-84648552D01*
X111996170Y-84696171D01*
X111900932Y-84743790D01*
X111519980Y-84743790D01*
X112472361Y-84315219D02*
X112519980Y-84267600D01*
X112615218Y-84219980D01*
X112853313Y-84219980D01*
X112948551Y-84267600D01*
X112996170Y-84315219D01*
X113043789Y-84410457D01*
X113043789Y-84505695D01*
X112996170Y-84648552D01*
X112424742Y-85219980D01*
X113043789Y-85219980D01*
X113900932Y-84219980D02*
X113710456Y-84219980D01*
X113615218Y-84267600D01*
X113567599Y-84315219D01*
X113472361Y-84458076D01*
X113424742Y-84648552D01*
X113424742Y-85029504D01*
X113472361Y-85124742D01*
X113519980Y-85172361D01*
X113615218Y-85219980D01*
X113805694Y-85219980D01*
X113900932Y-85172361D01*
X113948551Y-85124742D01*
X113996170Y-85029504D01*
X113996170Y-84791409D01*
X113948551Y-84696171D01*
X113900932Y-84648552D01*
X113805694Y-84600933D01*
X113615218Y-84600933D01*
X113519980Y-84648552D01*
X113472361Y-84696171D01*
X113424742Y-84791409D01*
X112116408Y-89319980D02*
X111783075Y-88843790D01*
X111544980Y-89319980D02*
X111544980Y-88319980D01*
X111925932Y-88319980D01*
X112021170Y-88367600D01*
X112068789Y-88415219D01*
X112116408Y-88510457D01*
X112116408Y-88653314D01*
X112068789Y-88748552D01*
X112021170Y-88796171D01*
X111925932Y-88843790D01*
X111544980Y-88843790D01*
X112497361Y-88415219D02*
X112544980Y-88367600D01*
X112640218Y-88319980D01*
X112878313Y-88319980D01*
X112973551Y-88367600D01*
X113021170Y-88415219D01*
X113068789Y-88510457D01*
X113068789Y-88605695D01*
X113021170Y-88748552D01*
X112449742Y-89319980D01*
X113068789Y-89319980D01*
X113973551Y-88319980D02*
X113497361Y-88319980D01*
X113449742Y-88796171D01*
X113497361Y-88748552D01*
X113592599Y-88700933D01*
X113830694Y-88700933D01*
X113925932Y-88748552D01*
X113973551Y-88796171D01*
X114021170Y-88891409D01*
X114021170Y-89129504D01*
X113973551Y-89224742D01*
X113925932Y-89272361D01*
X113830694Y-89319980D01*
X113592599Y-89319980D01*
X113497361Y-89272361D01*
X113449742Y-89224742D01*
X119199742Y-85219980D02*
X118866409Y-84743790D01*
X118628314Y-85219980D02*
X118628314Y-84219980D01*
X119009266Y-84219980D01*
X119104504Y-84267600D01*
X119152123Y-84315219D01*
X119199742Y-84410457D01*
X119199742Y-84553314D01*
X119152123Y-84648552D01*
X119104504Y-84696171D01*
X119009266Y-84743790D01*
X118628314Y-84743790D01*
X119580695Y-84315219D02*
X119628314Y-84267600D01*
X119723552Y-84219980D01*
X119961647Y-84219980D01*
X120056885Y-84267600D01*
X120104504Y-84315219D01*
X120152123Y-84410457D01*
X120152123Y-84505695D01*
X120104504Y-84648552D01*
X119533076Y-85219980D01*
X120152123Y-85219980D01*
X121009266Y-84553314D02*
X121009266Y-85219980D01*
X120771171Y-84172361D02*
X120533076Y-84886647D01*
X121152123Y-84886647D01*
X119224742Y-89319980D02*
X118891409Y-88843790D01*
X118653314Y-89319980D02*
X118653314Y-88319980D01*
X119034266Y-88319980D01*
X119129504Y-88367600D01*
X119177123Y-88415219D01*
X119224742Y-88510457D01*
X119224742Y-88653314D01*
X119177123Y-88748552D01*
X119129504Y-88796171D01*
X119034266Y-88843790D01*
X118653314Y-88843790D01*
X119605695Y-88415219D02*
X119653314Y-88367600D01*
X119748552Y-88319980D01*
X119986647Y-88319980D01*
X120081885Y-88367600D01*
X120129504Y-88415219D01*
X120177123Y-88510457D01*
X120177123Y-88605695D01*
X120129504Y-88748552D01*
X119558076Y-89319980D01*
X120177123Y-89319980D01*
X120558076Y-88415219D02*
X120605695Y-88367600D01*
X120700933Y-88319980D01*
X120939028Y-88319980D01*
X121034266Y-88367600D01*
X121081885Y-88415219D01*
X121129504Y-88510457D01*
X121129504Y-88605695D01*
X121081885Y-88748552D01*
X120510457Y-89319980D01*
X121129504Y-89319980D01*
X105424742Y-79769980D02*
X105091409Y-79293790D01*
X104853314Y-79769980D02*
X104853314Y-78769980D01*
X105234266Y-78769980D01*
X105329504Y-78817600D01*
X105377123Y-78865219D01*
X105424742Y-78960457D01*
X105424742Y-79103314D01*
X105377123Y-79198552D01*
X105329504Y-79246171D01*
X105234266Y-79293790D01*
X104853314Y-79293790D01*
X106377123Y-79769980D02*
X105805695Y-79769980D01*
X106091409Y-79769980D02*
X106091409Y-78769980D01*
X105996171Y-78912838D01*
X105900933Y-79008076D01*
X105805695Y-79055695D01*
X106996171Y-78769980D02*
X107091409Y-78769980D01*
X107186647Y-78817600D01*
X107234266Y-78865219D01*
X107281885Y-78960457D01*
X107329504Y-79150933D01*
X107329504Y-79389028D01*
X107281885Y-79579504D01*
X107234266Y-79674742D01*
X107186647Y-79722361D01*
X107091409Y-79769980D01*
X106996171Y-79769980D01*
X106900933Y-79722361D01*
X106853314Y-79674742D01*
X106805695Y-79579504D01*
X106758076Y-79389028D01*
X106758076Y-79150933D01*
X106805695Y-78960457D01*
X106853314Y-78865219D01*
X106900933Y-78817600D01*
X106996171Y-78769980D01*
X112542599Y-79769980D02*
X112209266Y-79293790D01*
X111971170Y-79769980D02*
X111971170Y-78769980D01*
X112352123Y-78769980D01*
X112447361Y-78817600D01*
X112494980Y-78865219D01*
X112542599Y-78960457D01*
X112542599Y-79103314D01*
X112494980Y-79198552D01*
X112447361Y-79246171D01*
X112352123Y-79293790D01*
X111971170Y-79293790D01*
X113114027Y-79198552D02*
X113018789Y-79150933D01*
X112971170Y-79103314D01*
X112923551Y-79008076D01*
X112923551Y-78960457D01*
X112971170Y-78865219D01*
X113018789Y-78817600D01*
X113114027Y-78769980D01*
X113304504Y-78769980D01*
X113399742Y-78817600D01*
X113447361Y-78865219D01*
X113494980Y-78960457D01*
X113494980Y-79008076D01*
X113447361Y-79103314D01*
X113399742Y-79150933D01*
X113304504Y-79198552D01*
X113114027Y-79198552D01*
X113018789Y-79246171D01*
X112971170Y-79293790D01*
X112923551Y-79389028D01*
X112923551Y-79579504D01*
X112971170Y-79674742D01*
X113018789Y-79722361D01*
X113114027Y-79769980D01*
X113304504Y-79769980D01*
X113399742Y-79722361D01*
X113447361Y-79674742D01*
X113494980Y-79579504D01*
X113494980Y-79389028D01*
X113447361Y-79293790D01*
X113399742Y-79246171D01*
X113304504Y-79198552D01*
X119650933Y-79769980D02*
X119317600Y-79293790D01*
X119079504Y-79769980D02*
X119079504Y-78769980D01*
X119460457Y-78769980D01*
X119555695Y-78817600D01*
X119603314Y-78865219D01*
X119650933Y-78960457D01*
X119650933Y-79103314D01*
X119603314Y-79198552D01*
X119555695Y-79246171D01*
X119460457Y-79293790D01*
X119079504Y-79293790D01*
X120508076Y-78769980D02*
X120317600Y-78769980D01*
X120222361Y-78817600D01*
X120174742Y-78865219D01*
X120079504Y-79008076D01*
X120031885Y-79198552D01*
X120031885Y-79579504D01*
X120079504Y-79674742D01*
X120127123Y-79722361D01*
X120222361Y-79769980D01*
X120412838Y-79769980D01*
X120508076Y-79722361D01*
X120555695Y-79674742D01*
X120603314Y-79579504D01*
X120603314Y-79341409D01*
X120555695Y-79246171D01*
X120508076Y-79198552D01*
X120412838Y-79150933D01*
X120222361Y-79150933D01*
X120127123Y-79198552D01*
X120079504Y-79246171D01*
X120031885Y-79341409D01*
X113808076Y-72349504D02*
X113808076Y-72997123D01*
X113846171Y-73073314D01*
X113884266Y-73111409D01*
X113960457Y-73149504D01*
X114112838Y-73149504D01*
X114189028Y-73111409D01*
X114227123Y-73073314D01*
X114265219Y-72997123D01*
X114265219Y-72349504D01*
X114608076Y-72425695D02*
X114646171Y-72387600D01*
X114722361Y-72349504D01*
X114912838Y-72349504D01*
X114989028Y-72387600D01*
X115027123Y-72425695D01*
X115065219Y-72501885D01*
X115065219Y-72578076D01*
X115027123Y-72692361D01*
X114569980Y-73149504D01*
X115065219Y-73149504D01*
X128855695Y-60239980D02*
X128855695Y-61049504D01*
X128903314Y-61144742D01*
X128950933Y-61192361D01*
X129046171Y-61239980D01*
X129236647Y-61239980D01*
X129331885Y-61192361D01*
X129379504Y-61144742D01*
X129427123Y-61049504D01*
X129427123Y-60239980D01*
X130427123Y-61239980D02*
X129855695Y-61239980D01*
X130141409Y-61239980D02*
X130141409Y-60239980D01*
X130046171Y-60382838D01*
X129950933Y-60478076D01*
X129855695Y-60525695D01*
X119179504Y-48339980D02*
X119750933Y-48339980D01*
X119465219Y-49339980D02*
X119465219Y-48339980D01*
X119989028Y-48339980D02*
X120655695Y-49339980D01*
X120655695Y-48339980D02*
X119989028Y-49339980D01*
X121560457Y-49339980D02*
X120989028Y-49339980D01*
X121274742Y-49339980D02*
X121274742Y-48339980D01*
X121179504Y-48482838D01*
X121084266Y-48578076D01*
X120989028Y-48625695D01*
X112974742Y-49339980D02*
X112641409Y-48863790D01*
X112403314Y-49339980D02*
X112403314Y-48339980D01*
X112784266Y-48339980D01*
X112879504Y-48387600D01*
X112927123Y-48435219D01*
X112974742Y-48530457D01*
X112974742Y-48673314D01*
X112927123Y-48768552D01*
X112879504Y-48816171D01*
X112784266Y-48863790D01*
X112403314Y-48863790D01*
X113308076Y-48339980D02*
X113974742Y-49339980D01*
X113974742Y-48339980D02*
X113308076Y-49339980D01*
X114879504Y-49339980D02*
X114308076Y-49339980D01*
X114593790Y-49339980D02*
X114593790Y-48339980D01*
X114498552Y-48482838D01*
X114403314Y-48578076D01*
X114308076Y-48625695D01*
X124050933Y-65839980D02*
X123717600Y-65363790D01*
X123479504Y-65839980D02*
X123479504Y-64839980D01*
X123860457Y-64839980D01*
X123955695Y-64887600D01*
X124003314Y-64935219D01*
X124050933Y-65030457D01*
X124050933Y-65173314D01*
X124003314Y-65268552D01*
X123955695Y-65316171D01*
X123860457Y-65363790D01*
X123479504Y-65363790D01*
X125003314Y-65839980D02*
X124431885Y-65839980D01*
X124717600Y-65839980D02*
X124717600Y-64839980D01*
X124622361Y-64982838D01*
X124527123Y-65078076D01*
X124431885Y-65125695D01*
X119429504Y-92939980D02*
X119429504Y-91939980D01*
X119667600Y-91939980D01*
X119810457Y-91987600D01*
X119905695Y-92082838D01*
X119953314Y-92178076D01*
X120000933Y-92368552D01*
X120000933Y-92511409D01*
X119953314Y-92701885D01*
X119905695Y-92797123D01*
X119810457Y-92892361D01*
X119667600Y-92939980D01*
X119429504Y-92939980D01*
X120381885Y-92035219D02*
X120429504Y-91987600D01*
X120524742Y-91939980D01*
X120762838Y-91939980D01*
X120858076Y-91987600D01*
X120905695Y-92035219D01*
X120953314Y-92130457D01*
X120953314Y-92225695D01*
X120905695Y-92368552D01*
X120334266Y-92939980D01*
X120953314Y-92939980D01*
X104539504Y-106561885D02*
X104158552Y-106828552D01*
X104539504Y-107019028D02*
X103739504Y-107019028D01*
X103739504Y-106714266D01*
X103777600Y-106638076D01*
X103815695Y-106599980D01*
X103891885Y-106561885D01*
X104006171Y-106561885D01*
X104082361Y-106599980D01*
X104120457Y-106638076D01*
X104158552Y-106714266D01*
X104158552Y-107019028D01*
X103815695Y-106257123D02*
X103777600Y-106219028D01*
X103739504Y-106142838D01*
X103739504Y-105952361D01*
X103777600Y-105876171D01*
X103815695Y-105838076D01*
X103891885Y-105799980D01*
X103968076Y-105799980D01*
X104082361Y-105838076D01*
X104539504Y-106295219D01*
X104539504Y-105799980D01*
X103739504Y-105533314D02*
X103739504Y-105038076D01*
X104044266Y-105304742D01*
X104044266Y-105190457D01*
X104082361Y-105114266D01*
X104120457Y-105076171D01*
X104196647Y-105038076D01*
X104387123Y-105038076D01*
X104463314Y-105076171D01*
X104501409Y-105114266D01*
X104539504Y-105190457D01*
X104539504Y-105419028D01*
X104501409Y-105495219D01*
X104463314Y-105533314D01*
X123274742Y-62439980D02*
X122941409Y-61963790D01*
X122703314Y-62439980D02*
X122703314Y-61439980D01*
X123084266Y-61439980D01*
X123179504Y-61487600D01*
X123227123Y-61535219D01*
X123274742Y-61630457D01*
X123274742Y-61773314D01*
X123227123Y-61868552D01*
X123179504Y-61916171D01*
X123084266Y-61963790D01*
X122703314Y-61963790D01*
X123655695Y-61535219D02*
X123703314Y-61487600D01*
X123798552Y-61439980D01*
X124036647Y-61439980D01*
X124131885Y-61487600D01*
X124179504Y-61535219D01*
X124227123Y-61630457D01*
X124227123Y-61725695D01*
X124179504Y-61868552D01*
X123608076Y-62439980D01*
X124227123Y-62439980D01*
X125179504Y-62439980D02*
X124608076Y-62439980D01*
X124893790Y-62439980D02*
X124893790Y-61439980D01*
X124798552Y-61582838D01*
X124703314Y-61678076D01*
X124608076Y-61725695D01*
X109374742Y-71039980D02*
X109041409Y-70563790D01*
X108803314Y-71039980D02*
X108803314Y-70039980D01*
X109184266Y-70039980D01*
X109279504Y-70087600D01*
X109327123Y-70135219D01*
X109374742Y-70230457D01*
X109374742Y-70373314D01*
X109327123Y-70468552D01*
X109279504Y-70516171D01*
X109184266Y-70563790D01*
X108803314Y-70563790D01*
X109755695Y-70135219D02*
X109803314Y-70087600D01*
X109898552Y-70039980D01*
X110136647Y-70039980D01*
X110231885Y-70087600D01*
X110279504Y-70135219D01*
X110327123Y-70230457D01*
X110327123Y-70325695D01*
X110279504Y-70468552D01*
X109708076Y-71039980D01*
X110327123Y-71039980D01*
X110946171Y-70039980D02*
X111041409Y-70039980D01*
X111136647Y-70087600D01*
X111184266Y-70135219D01*
X111231885Y-70230457D01*
X111279504Y-70420933D01*
X111279504Y-70659028D01*
X111231885Y-70849504D01*
X111184266Y-70944742D01*
X111136647Y-70992361D01*
X111041409Y-71039980D01*
X110946171Y-71039980D01*
X110850933Y-70992361D01*
X110803314Y-70944742D01*
X110755695Y-70849504D01*
X110708076Y-70659028D01*
X110708076Y-70420933D01*
X110755695Y-70230457D01*
X110803314Y-70135219D01*
X110850933Y-70087600D01*
X110946171Y-70039980D01*
X114724742Y-80414980D02*
X114391409Y-79938790D01*
X114153314Y-80414980D02*
X114153314Y-79414980D01*
X114534266Y-79414980D01*
X114629504Y-79462600D01*
X114677123Y-79510219D01*
X114724742Y-79605457D01*
X114724742Y-79748314D01*
X114677123Y-79843552D01*
X114629504Y-79891171D01*
X114534266Y-79938790D01*
X114153314Y-79938790D01*
X115677123Y-80414980D02*
X115105695Y-80414980D01*
X115391409Y-80414980D02*
X115391409Y-79414980D01*
X115296171Y-79557838D01*
X115200933Y-79653076D01*
X115105695Y-79700695D01*
X116153314Y-80414980D02*
X116343790Y-80414980D01*
X116439028Y-80367361D01*
X116486647Y-80319742D01*
X116581885Y-80176885D01*
X116629504Y-79986409D01*
X116629504Y-79605457D01*
X116581885Y-79510219D01*
X116534266Y-79462600D01*
X116439028Y-79414980D01*
X116248552Y-79414980D01*
X116153314Y-79462600D01*
X116105695Y-79510219D01*
X116058076Y-79605457D01*
X116058076Y-79843552D01*
X116105695Y-79938790D01*
X116153314Y-79986409D01*
X116248552Y-80034028D01*
X116439028Y-80034028D01*
X116534266Y-79986409D01*
X116581885Y-79938790D01*
X116629504Y-79843552D01*
X103124742Y-58166171D02*
X102696171Y-58466171D01*
X103124742Y-58680457D02*
X102224742Y-58680457D01*
X102224742Y-58337600D01*
X102267600Y-58251885D01*
X102310457Y-58209028D01*
X102396171Y-58166171D01*
X102524742Y-58166171D01*
X102610457Y-58209028D01*
X102653314Y-58251885D01*
X102696171Y-58337600D01*
X102696171Y-58680457D01*
X103124742Y-57309028D02*
X103124742Y-57823314D01*
X103124742Y-57566171D02*
X102224742Y-57566171D01*
X102353314Y-57651885D01*
X102439028Y-57737600D01*
X102481885Y-57823314D01*
X102610457Y-56794742D02*
X102567600Y-56880457D01*
X102524742Y-56923314D01*
X102439028Y-56966171D01*
X102396171Y-56966171D01*
X102310457Y-56923314D01*
X102267600Y-56880457D01*
X102224742Y-56794742D01*
X102224742Y-56623314D01*
X102267600Y-56537600D01*
X102310457Y-56494742D01*
X102396171Y-56451885D01*
X102439028Y-56451885D01*
X102524742Y-56494742D01*
X102567600Y-56537600D01*
X102610457Y-56623314D01*
X102610457Y-56794742D01*
X102653314Y-56880457D01*
X102696171Y-56923314D01*
X102781885Y-56966171D01*
X102953314Y-56966171D01*
X103039028Y-56923314D01*
X103081885Y-56880457D01*
X103124742Y-56794742D01*
X103124742Y-56623314D01*
X103081885Y-56537600D01*
X103039028Y-56494742D01*
X102953314Y-56451885D01*
X102781885Y-56451885D01*
X102696171Y-56494742D01*
X102653314Y-56537600D01*
X102610457Y-56623314D01*
X109374742Y-95059980D02*
X109041409Y-94583790D01*
X108803314Y-95059980D02*
X108803314Y-94059980D01*
X109184266Y-94059980D01*
X109279504Y-94107600D01*
X109327123Y-94155219D01*
X109374742Y-94250457D01*
X109374742Y-94393314D01*
X109327123Y-94488552D01*
X109279504Y-94536171D01*
X109184266Y-94583790D01*
X108803314Y-94583790D01*
X110327123Y-95059980D02*
X109755695Y-95059980D01*
X110041409Y-95059980D02*
X110041409Y-94059980D01*
X109946171Y-94202838D01*
X109850933Y-94298076D01*
X109755695Y-94345695D01*
X110660457Y-94059980D02*
X111327123Y-94059980D01*
X110898552Y-95059980D01*
X104274742Y-54639980D02*
X103941409Y-54163790D01*
X103703314Y-54639980D02*
X103703314Y-53639980D01*
X104084266Y-53639980D01*
X104179504Y-53687600D01*
X104227123Y-53735219D01*
X104274742Y-53830457D01*
X104274742Y-53973314D01*
X104227123Y-54068552D01*
X104179504Y-54116171D01*
X104084266Y-54163790D01*
X103703314Y-54163790D01*
X105227123Y-54639980D02*
X104655695Y-54639980D01*
X104941409Y-54639980D02*
X104941409Y-53639980D01*
X104846171Y-53782838D01*
X104750933Y-53878076D01*
X104655695Y-53925695D01*
X106084266Y-53639980D02*
X105893790Y-53639980D01*
X105798552Y-53687600D01*
X105750933Y-53735219D01*
X105655695Y-53878076D01*
X105608076Y-54068552D01*
X105608076Y-54449504D01*
X105655695Y-54544742D01*
X105703314Y-54592361D01*
X105798552Y-54639980D01*
X105989028Y-54639980D01*
X106084266Y-54592361D01*
X106131885Y-54544742D01*
X106179504Y-54449504D01*
X106179504Y-54211409D01*
X106131885Y-54116171D01*
X106084266Y-54068552D01*
X105989028Y-54020933D01*
X105798552Y-54020933D01*
X105703314Y-54068552D01*
X105655695Y-54116171D01*
X105608076Y-54211409D01*
X107604742Y-99099980D02*
X107271409Y-98623790D01*
X107033314Y-99099980D02*
X107033314Y-98099980D01*
X107414266Y-98099980D01*
X107509504Y-98147600D01*
X107557123Y-98195219D01*
X107604742Y-98290457D01*
X107604742Y-98433314D01*
X107557123Y-98528552D01*
X107509504Y-98576171D01*
X107414266Y-98623790D01*
X107033314Y-98623790D01*
X108557123Y-99099980D02*
X107985695Y-99099980D01*
X108271409Y-99099980D02*
X108271409Y-98099980D01*
X108176171Y-98242838D01*
X108080933Y-98338076D01*
X107985695Y-98385695D01*
X109461885Y-98099980D02*
X108985695Y-98099980D01*
X108938076Y-98576171D01*
X108985695Y-98528552D01*
X109080933Y-98480933D01*
X109319028Y-98480933D01*
X109414266Y-98528552D01*
X109461885Y-98576171D01*
X109509504Y-98671409D01*
X109509504Y-98909504D01*
X109461885Y-99004742D01*
X109414266Y-99052361D01*
X109319028Y-99099980D01*
X109080933Y-99099980D01*
X108985695Y-99052361D01*
X108938076Y-99004742D01*
X123074742Y-69639980D02*
X122741409Y-69163790D01*
X122503314Y-69639980D02*
X122503314Y-68639980D01*
X122884266Y-68639980D01*
X122979504Y-68687600D01*
X123027123Y-68735219D01*
X123074742Y-68830457D01*
X123074742Y-68973314D01*
X123027123Y-69068552D01*
X122979504Y-69116171D01*
X122884266Y-69163790D01*
X122503314Y-69163790D01*
X124027123Y-69639980D02*
X123455695Y-69639980D01*
X123741409Y-69639980D02*
X123741409Y-68639980D01*
X123646171Y-68782838D01*
X123550933Y-68878076D01*
X123455695Y-68925695D01*
X124884266Y-68973314D02*
X124884266Y-69639980D01*
X124646171Y-68592361D02*
X124408076Y-69306647D01*
X125027123Y-69306647D01*
X118350933Y-58739980D02*
X118017600Y-58263790D01*
X117779504Y-58739980D02*
X117779504Y-57739980D01*
X118160457Y-57739980D01*
X118255695Y-57787600D01*
X118303314Y-57835219D01*
X118350933Y-57930457D01*
X118350933Y-58073314D01*
X118303314Y-58168552D01*
X118255695Y-58216171D01*
X118160457Y-58263790D01*
X117779504Y-58263790D01*
X119255695Y-57739980D02*
X118779504Y-57739980D01*
X118731885Y-58216171D01*
X118779504Y-58168552D01*
X118874742Y-58120933D01*
X119112838Y-58120933D01*
X119208076Y-58168552D01*
X119255695Y-58216171D01*
X119303314Y-58311409D01*
X119303314Y-58549504D01*
X119255695Y-58644742D01*
X119208076Y-58692361D01*
X119112838Y-58739980D01*
X118874742Y-58739980D01*
X118779504Y-58692361D01*
X118731885Y-58644742D01*
X109084266Y-66849504D02*
X108817600Y-66468552D01*
X108627123Y-66849504D02*
X108627123Y-66049504D01*
X108931885Y-66049504D01*
X109008076Y-66087600D01*
X109046171Y-66125695D01*
X109084266Y-66201885D01*
X109084266Y-66316171D01*
X109046171Y-66392361D01*
X109008076Y-66430457D01*
X108931885Y-66468552D01*
X108627123Y-66468552D01*
X109389028Y-66125695D02*
X109427123Y-66087600D01*
X109503314Y-66049504D01*
X109693790Y-66049504D01*
X109769980Y-66087600D01*
X109808076Y-66125695D01*
X109846171Y-66201885D01*
X109846171Y-66278076D01*
X109808076Y-66392361D01*
X109350933Y-66849504D01*
X109846171Y-66849504D01*
X127784266Y-93016171D02*
X127450933Y-93016171D01*
X127450933Y-93539980D02*
X127450933Y-92539980D01*
X127927123Y-92539980D01*
X128831885Y-93539980D02*
X128260457Y-93539980D01*
X128546171Y-93539980D02*
X128546171Y-92539980D01*
X128450933Y-92682838D01*
X128355695Y-92778076D01*
X128260457Y-92825695D01*
X124815219Y-83966171D02*
X125148552Y-83966171D01*
X125291409Y-84489980D02*
X124815219Y-84489980D01*
X124815219Y-83489980D01*
X125291409Y-83489980D01*
X125624742Y-83489980D02*
X126291409Y-84489980D01*
X126291409Y-83489980D02*
X125624742Y-84489980D01*
X126529504Y-83489980D02*
X127100933Y-83489980D01*
X126815219Y-84489980D02*
X126815219Y-83489980D01*
X127291409Y-83489980D02*
X127862838Y-83489980D01*
X127577123Y-84489980D02*
X127577123Y-83489980D01*
X128196171Y-83966171D02*
X128529504Y-83966171D01*
X128672361Y-84489980D02*
X128196171Y-84489980D01*
X128196171Y-83489980D01*
X128672361Y-83489980D01*
X129100933Y-84489980D02*
X129100933Y-83489980D01*
X129434266Y-84204266D01*
X129767600Y-83489980D01*
X129767600Y-84489980D01*
X130243790Y-84489980D02*
X130243790Y-83489980D01*
X130624742Y-83489980D01*
X130719980Y-83537600D01*
X130767600Y-83585219D01*
X130815219Y-83680457D01*
X130815219Y-83823314D01*
X130767600Y-83918552D01*
X130719980Y-83966171D01*
X130624742Y-84013790D01*
X130243790Y-84013790D01*
X131767600Y-84489980D02*
X131196171Y-84489980D01*
X131481885Y-84489980D02*
X131481885Y-83489980D01*
X131386647Y-83632838D01*
X131291409Y-83728076D01*
X131196171Y-83775695D01*
X112779504Y-95104980D02*
X112779504Y-94104980D01*
X113017600Y-94104980D01*
X113160457Y-94152600D01*
X113255695Y-94247838D01*
X113303314Y-94343076D01*
X113350933Y-94533552D01*
X113350933Y-94676409D01*
X113303314Y-94866885D01*
X113255695Y-94962123D01*
X113160457Y-95057361D01*
X113017600Y-95104980D01*
X112779504Y-95104980D01*
X113684266Y-94104980D02*
X114303314Y-94104980D01*
X113969980Y-94485933D01*
X114112838Y-94485933D01*
X114208076Y-94533552D01*
X114255695Y-94581171D01*
X114303314Y-94676409D01*
X114303314Y-94914504D01*
X114255695Y-95009742D01*
X114208076Y-95057361D01*
X114112838Y-95104980D01*
X113827123Y-95104980D01*
X113731885Y-95057361D01*
X113684266Y-95009742D01*
X111253314Y-60494742D02*
X111253314Y-59594742D01*
X111467600Y-59594742D01*
X111596171Y-59637600D01*
X111681885Y-59723314D01*
X111724742Y-59809028D01*
X111767600Y-59980457D01*
X111767600Y-60109028D01*
X111724742Y-60280457D01*
X111681885Y-60366171D01*
X111596171Y-60451885D01*
X111467600Y-60494742D01*
X111253314Y-60494742D01*
X112624742Y-60494742D02*
X112110457Y-60494742D01*
X112367600Y-60494742D02*
X112367600Y-59594742D01*
X112281885Y-59723314D01*
X112196171Y-59809028D01*
X112110457Y-59851885D01*
X114185933Y-60254742D02*
X114138314Y-60302361D01*
X113995457Y-60349980D01*
X113900219Y-60349980D01*
X113757361Y-60302361D01*
X113662123Y-60207123D01*
X113614504Y-60111885D01*
X113566885Y-59921409D01*
X113566885Y-59778552D01*
X113614504Y-59588076D01*
X113662123Y-59492838D01*
X113757361Y-59397600D01*
X113900219Y-59349980D01*
X113995457Y-59349980D01*
X114138314Y-59397600D01*
X114185933Y-59445219D01*
X114566885Y-59445219D02*
X114614504Y-59397600D01*
X114709742Y-59349980D01*
X114947838Y-59349980D01*
X115043076Y-59397600D01*
X115090695Y-59445219D01*
X115138314Y-59540457D01*
X115138314Y-59635695D01*
X115090695Y-59778552D01*
X114519266Y-60349980D01*
X115138314Y-60349980D01*
X119050933Y-60244742D02*
X119003314Y-60292361D01*
X118860457Y-60339980D01*
X118765219Y-60339980D01*
X118622361Y-60292361D01*
X118527123Y-60197123D01*
X118479504Y-60101885D01*
X118431885Y-59911409D01*
X118431885Y-59768552D01*
X118479504Y-59578076D01*
X118527123Y-59482838D01*
X118622361Y-59387600D01*
X118765219Y-59339980D01*
X118860457Y-59339980D01*
X119003314Y-59387600D01*
X119050933Y-59435219D01*
X120003314Y-60339980D02*
X119431885Y-60339980D01*
X119717600Y-60339980D02*
X119717600Y-59339980D01*
X119622361Y-59482838D01*
X119527123Y-59578076D01*
X119431885Y-59625695D01*
D16*
X103100933Y-95254266D02*
X103067600Y-95320933D01*
X103000933Y-95387600D01*
X102900933Y-95487600D01*
X102867600Y-95554266D01*
X102867600Y-95620933D01*
X103034266Y-95587600D02*
X103000933Y-95654266D01*
X102934266Y-95720933D01*
X102800933Y-95754266D01*
X102567600Y-95754266D01*
X102434266Y-95720933D01*
X102367600Y-95654266D01*
X102334266Y-95587600D01*
X102334266Y-95454266D01*
X102367600Y-95387600D01*
X102434266Y-95320933D01*
X102567600Y-95287600D01*
X102800933Y-95287600D01*
X102934266Y-95320933D01*
X103000933Y-95387600D01*
X103034266Y-95454266D01*
X103034266Y-95587600D01*
X103034266Y-94620933D02*
X103034266Y-95020933D01*
X103034266Y-94820933D02*
X102334266Y-94820933D01*
X102434266Y-94887600D01*
X102500933Y-94954266D01*
X102534266Y-95020933D01*
M02*
