M48
; DRILL file {KiCad 5.1.9+dfsg1-1+deb11u1} date Fri Dec  9 15:22:24 2022
; FORMAT={-:-/ absolute / inch / decimal}
; #@! TF.CreationDate,2022-12-09T15:22:24+00:00
; #@! TF.GenerationSoftware,Kicad,Pcbnew,5.1.9+dfsg1-1+deb11u1
FMAT,2
INCH
T1C0.0157
T2C0.0295
T3C0.0394
T4C0.0472
T5C0.1260
%
G90
G05
T1
X4.0558Y-3.8424
X4.0716Y-2.8499
X4.1149Y-2.8499
X4.1403Y-2.4418
X4.1818Y-2.9956
X4.1818Y-3.0409
X4.1818Y-3.0861
X4.1818Y-3.1314
X4.1818Y-3.1767
X4.1818Y-3.222
X4.1818Y-3.2672
X4.1818Y-3.3125
X4.1818Y-3.3578
X4.1818Y-3.4031
X4.1818Y-3.4483
X4.1865Y-2.4418
X4.2172Y-2.5625
X4.2318Y-2.2688
X4.232Y-2.2328
X4.2641Y-3.8678
X4.2842Y-3.5556
X4.2842Y-3.6501
X4.2955Y-2.5511
X4.3034Y-2.3101
X4.3074Y-3.8678
X4.3275Y-3.5556
X4.3275Y-3.6501
X4.3409Y-2.3101
X4.3524Y-3.9379
X4.3527Y-3.8678
X4.359Y-2.6137
X4.3708Y-3.5556
X4.3708Y-3.6501
X4.3964Y-3.9385
X4.3983Y-2.6412
X4.416Y-3.5556
X4.416Y-3.6501
X4.4229Y-2.7121
X4.4377Y-2.9916
X4.4377Y-3.0369
X4.4377Y-3.0822
X4.4377Y-3.2397
X4.4377Y-3.3578
X4.4377Y-3.4031
X4.4377Y-3.4483
X4.4432Y-2.7712
X4.4539Y-3.1452
X4.4594Y-3.5556
X4.4594Y-3.6501
X4.4771Y-2.2948
X4.5027Y-3.5556
X4.5027Y-3.6501
X4.519Y-3.9454
X4.519Y-3.9956
X4.5206Y-2.6074
X4.5206Y-2.6574
X4.5527Y-2.2342
X4.5576Y-3.9454
X4.5576Y-3.9956
X4.5834Y-2.72
X4.5834Y-2.4838
X4.5962Y-3.9454
X4.5962Y-3.9956
X4.6306Y-2.5153
X4.6314Y-2.2342
X4.6424Y-2.6412
X4.6464Y-2.6885
X4.7212Y-2.9995
X4.7212Y-3.0448
X4.7212Y-3.0901
X4.7212Y-3.2712
X4.7212Y-3.3164
X4.7212Y-3.4523
X4.7802Y-2.3263
X4.7802Y-2.8499
X4.7881Y-2.4444
X4.7999Y-2.5861
X4.8747Y-2.909
X4.8905Y-3.1216
X4.8905Y-3.1668
X4.8905Y-3.2948
X4.8944Y-2.8696
X4.9554Y-3.4208
X4.9554Y-3.4641
X4.9574Y-2.6767
X4.9702Y-2.8066
X4.9958Y-3.4208
X4.9958Y-3.4641
X5.0133Y-2.5334
X5.0361Y-3.4208
X5.0361Y-3.4641
X5.092Y-2.5334
X5.0928Y-2.7412
X5.0928Y-2.8594
X5.094Y-2.7881
X5.094Y-2.9062
T2
X4.355Y-2.0034
X4.4338Y-2.0034
X4.7723Y-2.0034
X4.8511Y-2.0034
X4.9259Y-4.1412
X5.0046Y-4.1412
X5.0145Y-3.0074
X5.0932Y-3.0074
T3
X4.1231Y-2.5468
X4.1231Y-2.6468
X4.1231Y-2.7468
X4.3078Y-4.094
X4.3078Y-4.194
T4
X4.3814Y-2.1373
X4.5314Y-2.1373
X4.6814Y-2.1373
X4.8314Y-2.1373
X4.8629Y-3.9956
X5.0129Y-3.9956
T5
X4.1208Y-1.9975
X4.5968Y-4.159
X5.0853Y-1.9975
T0
M30
