G04 #@! TF.GenerationSoftware,KiCad,Pcbnew,5.1.9+dfsg1-1+deb11u1*
G04 #@! TF.CreationDate,2025-04-18T12:12:43+00:00*
G04 #@! TF.ProjectId,ModuleV450,4d6f6475-6c65-4563-9435-302e6b696361,rev?*
G04 #@! TF.SameCoordinates,Original*
G04 #@! TF.FileFunction,Soldermask,Top*
G04 #@! TF.FilePolarity,Negative*
%FSLAX46Y46*%
G04 Gerber Fmt 4.6, Leading zero omitted, Abs format (unit mm)*
G04 Created by KiCad (PCBNEW 5.1.9+dfsg1-1+deb11u1) date 2025-04-18 12:12:43*
%MOMM*%
%LPD*%
G01*
G04 APERTURE LIST*
%ADD10C,0.900000*%
%ADD11O,2.100000X2.100000*%
%ADD12O,2.200000X4.000000*%
%ADD13O,1.600000X2.150000*%
%ADD14C,3.600000*%
G04 APERTURE END LIST*
D10*
X107217600Y-100087600D03*
X106417600Y-100087600D03*
X105617600Y-100087600D03*
X104817600Y-100087600D03*
D11*
X105017600Y-69767600D03*
X105017600Y-67227600D03*
G36*
G01*
X103967600Y-65537600D02*
X103967600Y-63837600D01*
G75*
G02*
X104167600Y-63637600I200000J0D01*
G01*
X105867600Y-63637600D01*
G75*
G02*
X106067600Y-63837600I0J-200000D01*
G01*
X106067600Y-65537600D01*
G75*
G02*
X105867600Y-65737600I-200000J0D01*
G01*
X104167600Y-65737600D01*
G75*
G02*
X103967600Y-65537600I0J200000D01*
G01*
G37*
D12*
X111287600Y-54287600D03*
X115097600Y-54287600D03*
X118907600Y-54287600D03*
G36*
G01*
X123817600Y-52593155D02*
X123817600Y-55982045D01*
G75*
G02*
X123512045Y-56287600I-305555J0D01*
G01*
X121923155Y-56287600D01*
G75*
G02*
X121617600Y-55982045I0J305555D01*
G01*
X121617600Y-52593155D01*
G75*
G02*
X121923155Y-52287600I305555J0D01*
G01*
X123512045Y-52287600D01*
G75*
G02*
X123817600Y-52593155I0J-305555D01*
G01*
G37*
X127327600Y-101487600D03*
G36*
G01*
X122417600Y-103182045D02*
X122417600Y-99793155D01*
G75*
G02*
X122723155Y-99487600I305555J0D01*
G01*
X124312045Y-99487600D01*
G75*
G02*
X124617600Y-99793155I0J-305555D01*
G01*
X124617600Y-103182045D01*
G75*
G02*
X124312045Y-103487600I-305555J0D01*
G01*
X122723155Y-103487600D01*
G75*
G02*
X122417600Y-103182045I0J305555D01*
G01*
G37*
G36*
G01*
X104842600Y-60743850D02*
X104842600Y-60031350D01*
G75*
G02*
X105161350Y-59712600I318750J0D01*
G01*
X105798850Y-59712600D01*
G75*
G02*
X106117600Y-60031350I0J-318750D01*
G01*
X106117600Y-60743850D01*
G75*
G02*
X105798850Y-61062600I-318750J0D01*
G01*
X105161350Y-61062600D01*
G75*
G02*
X104842600Y-60743850I0J318750D01*
G01*
G37*
G36*
G01*
X103267600Y-60743850D02*
X103267600Y-60031350D01*
G75*
G02*
X103586350Y-59712600I318750J0D01*
G01*
X104223850Y-59712600D01*
G75*
G02*
X104542600Y-60031350I0J-318750D01*
G01*
X104542600Y-60743850D01*
G75*
G02*
X104223850Y-61062600I-318750J0D01*
G01*
X103586350Y-61062600D01*
G75*
G02*
X103267600Y-60743850I0J318750D01*
G01*
G37*
D11*
X109117600Y-105627600D03*
G36*
G01*
X108067600Y-103937600D02*
X108067600Y-102237600D01*
G75*
G02*
X108267600Y-102037600I200000J0D01*
G01*
X109967600Y-102037600D01*
G75*
G02*
X110167600Y-102237600I0J-200000D01*
G01*
X110167600Y-103937600D01*
G75*
G02*
X109967600Y-104137600I-200000J0D01*
G01*
X108267600Y-104137600D01*
G75*
G02*
X108067600Y-103937600I0J200000D01*
G01*
G37*
G36*
G01*
X104592600Y-81294232D02*
X104592600Y-83680968D01*
G75*
G02*
X104260968Y-84012600I-331632J0D01*
G01*
X103299232Y-84012600D01*
G75*
G02*
X102967600Y-83680968I0J331632D01*
G01*
X102967600Y-81294232D01*
G75*
G02*
X103299232Y-80962600I331632J0D01*
G01*
X104260968Y-80962600D01*
G75*
G02*
X104592600Y-81294232I0J-331632D01*
G01*
G37*
G36*
G01*
X109217600Y-81294232D02*
X109217600Y-83680968D01*
G75*
G02*
X108885968Y-84012600I-331632J0D01*
G01*
X107924232Y-84012600D01*
G75*
G02*
X107592600Y-83680968I0J331632D01*
G01*
X107592600Y-81294232D01*
G75*
G02*
X107924232Y-80962600I331632J0D01*
G01*
X108885968Y-80962600D01*
G75*
G02*
X109217600Y-81294232I0J-331632D01*
G01*
G37*
G36*
G01*
X104617600Y-85394232D02*
X104617600Y-87780968D01*
G75*
G02*
X104285968Y-88112600I-331632J0D01*
G01*
X103324232Y-88112600D01*
G75*
G02*
X102992600Y-87780968I0J331632D01*
G01*
X102992600Y-85394232D01*
G75*
G02*
X103324232Y-85062600I331632J0D01*
G01*
X104285968Y-85062600D01*
G75*
G02*
X104617600Y-85394232I0J-331632D01*
G01*
G37*
G36*
G01*
X109242600Y-85394232D02*
X109242600Y-87780968D01*
G75*
G02*
X108910968Y-88112600I-331632J0D01*
G01*
X107949232Y-88112600D01*
G75*
G02*
X107617600Y-87780968I0J331632D01*
G01*
X107617600Y-85394232D01*
G75*
G02*
X107949232Y-85062600I331632J0D01*
G01*
X108910968Y-85062600D01*
G75*
G02*
X109242600Y-85394232I0J-331632D01*
G01*
G37*
G36*
G01*
X111234266Y-81294232D02*
X111234266Y-83680968D01*
G75*
G02*
X110902634Y-84012600I-331632J0D01*
G01*
X109940898Y-84012600D01*
G75*
G02*
X109609266Y-83680968I0J331632D01*
G01*
X109609266Y-81294232D01*
G75*
G02*
X109940898Y-80962600I331632J0D01*
G01*
X110902634Y-80962600D01*
G75*
G02*
X111234266Y-81294232I0J-331632D01*
G01*
G37*
G36*
G01*
X115859266Y-81294232D02*
X115859266Y-83680968D01*
G75*
G02*
X115527634Y-84012600I-331632J0D01*
G01*
X114565898Y-84012600D01*
G75*
G02*
X114234266Y-83680968I0J331632D01*
G01*
X114234266Y-81294232D01*
G75*
G02*
X114565898Y-80962600I331632J0D01*
G01*
X115527634Y-80962600D01*
G75*
G02*
X115859266Y-81294232I0J-331632D01*
G01*
G37*
G36*
G01*
X111259266Y-85394232D02*
X111259266Y-87780968D01*
G75*
G02*
X110927634Y-88112600I-331632J0D01*
G01*
X109965898Y-88112600D01*
G75*
G02*
X109634266Y-87780968I0J331632D01*
G01*
X109634266Y-85394232D01*
G75*
G02*
X109965898Y-85062600I331632J0D01*
G01*
X110927634Y-85062600D01*
G75*
G02*
X111259266Y-85394232I0J-331632D01*
G01*
G37*
G36*
G01*
X115884266Y-85394232D02*
X115884266Y-87780968D01*
G75*
G02*
X115552634Y-88112600I-331632J0D01*
G01*
X114590898Y-88112600D01*
G75*
G02*
X114259266Y-87780968I0J331632D01*
G01*
X114259266Y-85394232D01*
G75*
G02*
X114590898Y-85062600I331632J0D01*
G01*
X115552634Y-85062600D01*
G75*
G02*
X115884266Y-85394232I0J-331632D01*
G01*
G37*
G36*
G01*
X118342600Y-81294232D02*
X118342600Y-83680968D01*
G75*
G02*
X118010968Y-84012600I-331632J0D01*
G01*
X117049232Y-84012600D01*
G75*
G02*
X116717600Y-83680968I0J331632D01*
G01*
X116717600Y-81294232D01*
G75*
G02*
X117049232Y-80962600I331632J0D01*
G01*
X118010968Y-80962600D01*
G75*
G02*
X118342600Y-81294232I0J-331632D01*
G01*
G37*
G36*
G01*
X122967600Y-81294232D02*
X122967600Y-83680968D01*
G75*
G02*
X122635968Y-84012600I-331632J0D01*
G01*
X121674232Y-84012600D01*
G75*
G02*
X121342600Y-83680968I0J331632D01*
G01*
X121342600Y-81294232D01*
G75*
G02*
X121674232Y-80962600I331632J0D01*
G01*
X122635968Y-80962600D01*
G75*
G02*
X122967600Y-81294232I0J-331632D01*
G01*
G37*
G36*
G01*
X118367600Y-85394232D02*
X118367600Y-87780968D01*
G75*
G02*
X118035968Y-88112600I-331632J0D01*
G01*
X117074232Y-88112600D01*
G75*
G02*
X116742600Y-87780968I0J331632D01*
G01*
X116742600Y-85394232D01*
G75*
G02*
X117074232Y-85062600I331632J0D01*
G01*
X118035968Y-85062600D01*
G75*
G02*
X118367600Y-85394232I0J-331632D01*
G01*
G37*
G36*
G01*
X122992600Y-85394232D02*
X122992600Y-87780968D01*
G75*
G02*
X122660968Y-88112600I-331632J0D01*
G01*
X121699232Y-88112600D01*
G75*
G02*
X121367600Y-87780968I0J331632D01*
G01*
X121367600Y-85394232D01*
G75*
G02*
X121699232Y-85062600I331632J0D01*
G01*
X122660968Y-85062600D01*
G75*
G02*
X122992600Y-85394232I0J-331632D01*
G01*
G37*
G36*
G01*
X104567600Y-75844232D02*
X104567600Y-78230968D01*
G75*
G02*
X104235968Y-78562600I-331632J0D01*
G01*
X103274232Y-78562600D01*
G75*
G02*
X102942600Y-78230968I0J331632D01*
G01*
X102942600Y-75844232D01*
G75*
G02*
X103274232Y-75512600I331632J0D01*
G01*
X104235968Y-75512600D01*
G75*
G02*
X104567600Y-75844232I0J-331632D01*
G01*
G37*
G36*
G01*
X109192600Y-75844232D02*
X109192600Y-78230968D01*
G75*
G02*
X108860968Y-78562600I-331632J0D01*
G01*
X107899232Y-78562600D01*
G75*
G02*
X107567600Y-78230968I0J331632D01*
G01*
X107567600Y-75844232D01*
G75*
G02*
X107899232Y-75512600I331632J0D01*
G01*
X108860968Y-75512600D01*
G75*
G02*
X109192600Y-75844232I0J-331632D01*
G01*
G37*
G36*
G01*
X111209266Y-75844232D02*
X111209266Y-78230968D01*
G75*
G02*
X110877634Y-78562600I-331632J0D01*
G01*
X109915898Y-78562600D01*
G75*
G02*
X109584266Y-78230968I0J331632D01*
G01*
X109584266Y-75844232D01*
G75*
G02*
X109915898Y-75512600I331632J0D01*
G01*
X110877634Y-75512600D01*
G75*
G02*
X111209266Y-75844232I0J-331632D01*
G01*
G37*
G36*
G01*
X115834266Y-75844232D02*
X115834266Y-78230968D01*
G75*
G02*
X115502634Y-78562600I-331632J0D01*
G01*
X114540898Y-78562600D01*
G75*
G02*
X114209266Y-78230968I0J331632D01*
G01*
X114209266Y-75844232D01*
G75*
G02*
X114540898Y-75512600I331632J0D01*
G01*
X115502634Y-75512600D01*
G75*
G02*
X115834266Y-75844232I0J-331632D01*
G01*
G37*
G36*
G01*
X118317600Y-75844232D02*
X118317600Y-78230968D01*
G75*
G02*
X117985968Y-78562600I-331632J0D01*
G01*
X117024232Y-78562600D01*
G75*
G02*
X116692600Y-78230968I0J331632D01*
G01*
X116692600Y-75844232D01*
G75*
G02*
X117024232Y-75512600I331632J0D01*
G01*
X117985968Y-75512600D01*
G75*
G02*
X118317600Y-75844232I0J-331632D01*
G01*
G37*
G36*
G01*
X122942600Y-75844232D02*
X122942600Y-78230968D01*
G75*
G02*
X122610968Y-78562600I-331632J0D01*
G01*
X121649232Y-78562600D01*
G75*
G02*
X121317600Y-78230968I0J331632D01*
G01*
X121317600Y-75844232D01*
G75*
G02*
X121649232Y-75512600I331632J0D01*
G01*
X122610968Y-75512600D01*
G75*
G02*
X122942600Y-75844232I0J-331632D01*
G01*
G37*
G36*
G01*
X118597600Y-63937600D02*
X118597600Y-63437600D01*
G75*
G02*
X118847600Y-63187600I250000J0D01*
G01*
X120697600Y-63187600D01*
G75*
G02*
X120947600Y-63437600I0J-250000D01*
G01*
X120947600Y-63937600D01*
G75*
G02*
X120697600Y-64187600I-250000J0D01*
G01*
X118847600Y-64187600D01*
G75*
G02*
X118597600Y-63937600I0J250000D01*
G01*
G37*
G36*
G01*
X118597600Y-65207600D02*
X118597600Y-64707600D01*
G75*
G02*
X118847600Y-64457600I250000J0D01*
G01*
X120697600Y-64457600D01*
G75*
G02*
X120947600Y-64707600I0J-250000D01*
G01*
X120947600Y-65207600D01*
G75*
G02*
X120697600Y-65457600I-250000J0D01*
G01*
X118847600Y-65457600D01*
G75*
G02*
X118597600Y-65207600I0J250000D01*
G01*
G37*
G36*
G01*
X118597600Y-66477600D02*
X118597600Y-65977600D01*
G75*
G02*
X118847600Y-65727600I250000J0D01*
G01*
X120697600Y-65727600D01*
G75*
G02*
X120947600Y-65977600I0J-250000D01*
G01*
X120947600Y-66477600D01*
G75*
G02*
X120697600Y-66727600I-250000J0D01*
G01*
X118847600Y-66727600D01*
G75*
G02*
X118597600Y-66477600I0J250000D01*
G01*
G37*
G36*
G01*
X118597600Y-67747600D02*
X118597600Y-67247600D01*
G75*
G02*
X118847600Y-66997600I250000J0D01*
G01*
X120697600Y-66997600D01*
G75*
G02*
X120947600Y-67247600I0J-250000D01*
G01*
X120947600Y-67747600D01*
G75*
G02*
X120697600Y-67997600I-250000J0D01*
G01*
X118847600Y-67997600D01*
G75*
G02*
X118597600Y-67747600I0J250000D01*
G01*
G37*
G36*
G01*
X118597600Y-69017600D02*
X118597600Y-68517600D01*
G75*
G02*
X118847600Y-68267600I250000J0D01*
G01*
X120697600Y-68267600D01*
G75*
G02*
X120947600Y-68517600I0J-250000D01*
G01*
X120947600Y-69017600D01*
G75*
G02*
X120697600Y-69267600I-250000J0D01*
G01*
X118847600Y-69267600D01*
G75*
G02*
X118597600Y-69017600I0J250000D01*
G01*
G37*
G36*
G01*
X118597600Y-70287600D02*
X118597600Y-69787600D01*
G75*
G02*
X118847600Y-69537600I250000J0D01*
G01*
X120697600Y-69537600D01*
G75*
G02*
X120947600Y-69787600I0J-250000D01*
G01*
X120947600Y-70287600D01*
G75*
G02*
X120697600Y-70537600I-250000J0D01*
G01*
X118847600Y-70537600D01*
G75*
G02*
X118597600Y-70287600I0J250000D01*
G01*
G37*
G36*
G01*
X118597600Y-71557600D02*
X118597600Y-71057600D01*
G75*
G02*
X118847600Y-70807600I250000J0D01*
G01*
X120697600Y-70807600D01*
G75*
G02*
X120947600Y-71057600I0J-250000D01*
G01*
X120947600Y-71557600D01*
G75*
G02*
X120697600Y-71807600I-250000J0D01*
G01*
X118847600Y-71807600D01*
G75*
G02*
X118597600Y-71557600I0J250000D01*
G01*
G37*
G36*
G01*
X113647600Y-71557600D02*
X113647600Y-71057600D01*
G75*
G02*
X113897600Y-70807600I250000J0D01*
G01*
X115747600Y-70807600D01*
G75*
G02*
X115997600Y-71057600I0J-250000D01*
G01*
X115997600Y-71557600D01*
G75*
G02*
X115747600Y-71807600I-250000J0D01*
G01*
X113897600Y-71807600D01*
G75*
G02*
X113647600Y-71557600I0J250000D01*
G01*
G37*
G36*
G01*
X113647600Y-70287600D02*
X113647600Y-69787600D01*
G75*
G02*
X113897600Y-69537600I250000J0D01*
G01*
X115747600Y-69537600D01*
G75*
G02*
X115997600Y-69787600I0J-250000D01*
G01*
X115997600Y-70287600D01*
G75*
G02*
X115747600Y-70537600I-250000J0D01*
G01*
X113897600Y-70537600D01*
G75*
G02*
X113647600Y-70287600I0J250000D01*
G01*
G37*
G36*
G01*
X113647600Y-69017600D02*
X113647600Y-68517600D01*
G75*
G02*
X113897600Y-68267600I250000J0D01*
G01*
X115747600Y-68267600D01*
G75*
G02*
X115997600Y-68517600I0J-250000D01*
G01*
X115997600Y-69017600D01*
G75*
G02*
X115747600Y-69267600I-250000J0D01*
G01*
X113897600Y-69267600D01*
G75*
G02*
X113647600Y-69017600I0J250000D01*
G01*
G37*
G36*
G01*
X113647600Y-67747600D02*
X113647600Y-67247600D01*
G75*
G02*
X113897600Y-66997600I250000J0D01*
G01*
X115747600Y-66997600D01*
G75*
G02*
X115997600Y-67247600I0J-250000D01*
G01*
X115997600Y-67747600D01*
G75*
G02*
X115747600Y-67997600I-250000J0D01*
G01*
X113897600Y-67997600D01*
G75*
G02*
X113647600Y-67747600I0J250000D01*
G01*
G37*
G36*
G01*
X113647600Y-66477600D02*
X113647600Y-65977600D01*
G75*
G02*
X113897600Y-65727600I250000J0D01*
G01*
X115747600Y-65727600D01*
G75*
G02*
X115997600Y-65977600I0J-250000D01*
G01*
X115997600Y-66477600D01*
G75*
G02*
X115747600Y-66727600I-250000J0D01*
G01*
X113897600Y-66727600D01*
G75*
G02*
X113647600Y-66477600I0J250000D01*
G01*
G37*
G36*
G01*
X113647600Y-65207600D02*
X113647600Y-64707600D01*
G75*
G02*
X113897600Y-64457600I250000J0D01*
G01*
X115747600Y-64457600D01*
G75*
G02*
X115997600Y-64707600I0J-250000D01*
G01*
X115997600Y-65207600D01*
G75*
G02*
X115747600Y-65457600I-250000J0D01*
G01*
X113897600Y-65457600D01*
G75*
G02*
X113647600Y-65207600I0J250000D01*
G01*
G37*
G36*
G01*
X113647600Y-63937600D02*
X113647600Y-63437600D01*
G75*
G02*
X113897600Y-63187600I250000J0D01*
G01*
X115747600Y-63187600D01*
G75*
G02*
X115997600Y-63437600I0J-250000D01*
G01*
X115997600Y-63937600D01*
G75*
G02*
X115747600Y-64187600I-250000J0D01*
G01*
X113897600Y-64187600D01*
G75*
G02*
X113647600Y-63937600I0J250000D01*
G01*
G37*
G36*
G01*
X128592600Y-58102600D02*
X128592600Y-57602600D01*
G75*
G02*
X128842600Y-57352600I250000J0D01*
G01*
X130367600Y-57352600D01*
G75*
G02*
X130617600Y-57602600I0J-250000D01*
G01*
X130617600Y-58102600D01*
G75*
G02*
X130367600Y-58352600I-250000J0D01*
G01*
X128842600Y-58352600D01*
G75*
G02*
X128592600Y-58102600I0J250000D01*
G01*
G37*
G36*
G01*
X128592600Y-59372600D02*
X128592600Y-58872600D01*
G75*
G02*
X128842600Y-58622600I250000J0D01*
G01*
X130367600Y-58622600D01*
G75*
G02*
X130617600Y-58872600I0J-250000D01*
G01*
X130617600Y-59372600D01*
G75*
G02*
X130367600Y-59622600I-250000J0D01*
G01*
X128842600Y-59622600D01*
G75*
G02*
X128592600Y-59372600I0J250000D01*
G01*
G37*
G36*
G01*
X122217600Y-59372600D02*
X122217600Y-58872600D01*
G75*
G02*
X122467600Y-58622600I250000J0D01*
G01*
X123992600Y-58622600D01*
G75*
G02*
X124242600Y-58872600I0J-250000D01*
G01*
X124242600Y-59372600D01*
G75*
G02*
X123992600Y-59622600I-250000J0D01*
G01*
X122467600Y-59622600D01*
G75*
G02*
X122217600Y-59372600I0J250000D01*
G01*
G37*
G36*
G01*
X122217600Y-58102600D02*
X122217600Y-57602600D01*
G75*
G02*
X122467600Y-57352600I250000J0D01*
G01*
X123992600Y-57352600D01*
G75*
G02*
X124242600Y-57602600I0J-250000D01*
G01*
X124242600Y-58102600D01*
G75*
G02*
X123992600Y-58352600I-250000J0D01*
G01*
X122467600Y-58352600D01*
G75*
G02*
X122217600Y-58102600I0J250000D01*
G01*
G37*
D13*
X121217600Y-50887600D03*
G36*
G01*
X124017600Y-50145932D02*
X124017600Y-51629268D01*
G75*
G02*
X123684268Y-51962600I-333332J0D01*
G01*
X122750932Y-51962600D01*
G75*
G02*
X122417600Y-51629268I0J333332D01*
G01*
X122417600Y-50145932D01*
G75*
G02*
X122750932Y-49812600I333332J0D01*
G01*
X123684268Y-49812600D01*
G75*
G02*
X124017600Y-50145932I0J-333332D01*
G01*
G37*
X110617600Y-50887600D03*
G36*
G01*
X113417600Y-50145932D02*
X113417600Y-51629268D01*
G75*
G02*
X113084268Y-51962600I-333332J0D01*
G01*
X112150932Y-51962600D01*
G75*
G02*
X111817600Y-51629268I0J333332D01*
G01*
X111817600Y-50145932D01*
G75*
G02*
X112150932Y-49812600I333332J0D01*
G01*
X113084268Y-49812600D01*
G75*
G02*
X113417600Y-50145932I0J-333332D01*
G01*
G37*
G36*
G01*
X123637600Y-67480041D02*
X123637600Y-66375159D01*
G75*
G02*
X123985159Y-66027600I347559J0D01*
G01*
X124715041Y-66027600D01*
G75*
G02*
X125062600Y-66375159I0J-347559D01*
G01*
X125062600Y-67480041D01*
G75*
G02*
X124715041Y-67827600I-347559J0D01*
G01*
X123985159Y-67827600D01*
G75*
G02*
X123637600Y-67480041I0J347559D01*
G01*
G37*
G36*
G01*
X121812600Y-67480041D02*
X121812600Y-66375159D01*
G75*
G02*
X122160159Y-66027600I347559J0D01*
G01*
X122890041Y-66027600D01*
G75*
G02*
X123237600Y-66375159I0J-347559D01*
G01*
X123237600Y-67480041D01*
G75*
G02*
X122890041Y-67827600I-347559J0D01*
G01*
X122160159Y-67827600D01*
G75*
G02*
X121812600Y-67480041I0J347559D01*
G01*
G37*
G36*
G01*
X119617600Y-94437600D02*
X119617600Y-96737600D01*
G75*
G02*
X119417600Y-96937600I-200000J0D01*
G01*
X116917600Y-96937600D01*
G75*
G02*
X116717600Y-96737600I0J200000D01*
G01*
X116717600Y-94437600D01*
G75*
G02*
X116917600Y-94237600I200000J0D01*
G01*
X119417600Y-94237600D01*
G75*
G02*
X119617600Y-94437600I0J-200000D01*
G01*
G37*
G36*
G01*
X123917600Y-94437600D02*
X123917600Y-96737600D01*
G75*
G02*
X123717600Y-96937600I-200000J0D01*
G01*
X121217600Y-96937600D01*
G75*
G02*
X121017600Y-96737600I0J200000D01*
G01*
X121017600Y-94437600D01*
G75*
G02*
X121217600Y-94237600I200000J0D01*
G01*
X123717600Y-94237600D01*
G75*
G02*
X123917600Y-94437600I0J-200000D01*
G01*
G37*
G36*
G01*
X106340041Y-104857600D02*
X105235159Y-104857600D01*
G75*
G02*
X104887600Y-104510041I0J347559D01*
G01*
X104887600Y-103780159D01*
G75*
G02*
X105235159Y-103432600I347559J0D01*
G01*
X106340041Y-103432600D01*
G75*
G02*
X106687600Y-103780159I0J-347559D01*
G01*
X106687600Y-104510041D01*
G75*
G02*
X106340041Y-104857600I-347559J0D01*
G01*
G37*
G36*
G01*
X106340041Y-106682600D02*
X105235159Y-106682600D01*
G75*
G02*
X104887600Y-106335041I0J347559D01*
G01*
X104887600Y-105605159D01*
G75*
G02*
X105235159Y-105257600I347559J0D01*
G01*
X106340041Y-105257600D01*
G75*
G02*
X106687600Y-105605159I0J-347559D01*
G01*
X106687600Y-106335041D01*
G75*
G02*
X106340041Y-106682600I-347559J0D01*
G01*
G37*
G36*
G01*
X123717600Y-64140041D02*
X123717600Y-63035159D01*
G75*
G02*
X124065159Y-62687600I347559J0D01*
G01*
X124795041Y-62687600D01*
G75*
G02*
X125142600Y-63035159I0J-347559D01*
G01*
X125142600Y-64140041D01*
G75*
G02*
X124795041Y-64487600I-347559J0D01*
G01*
X124065159Y-64487600D01*
G75*
G02*
X123717600Y-64140041I0J347559D01*
G01*
G37*
G36*
G01*
X121892600Y-64140041D02*
X121892600Y-63035159D01*
G75*
G02*
X122240159Y-62687600I347559J0D01*
G01*
X122970041Y-62687600D01*
G75*
G02*
X123317600Y-63035159I0J-347559D01*
G01*
X123317600Y-64140041D01*
G75*
G02*
X122970041Y-64487600I-347559J0D01*
G01*
X122240159Y-64487600D01*
G75*
G02*
X121892600Y-64140041I0J347559D01*
G01*
G37*
G36*
G01*
X109817600Y-68235159D02*
X109817600Y-69340041D01*
G75*
G02*
X109470041Y-69687600I-347559J0D01*
G01*
X108740159Y-69687600D01*
G75*
G02*
X108392600Y-69340041I0J347559D01*
G01*
X108392600Y-68235159D01*
G75*
G02*
X108740159Y-67887600I347559J0D01*
G01*
X109470041Y-67887600D01*
G75*
G02*
X109817600Y-68235159I0J-347559D01*
G01*
G37*
G36*
G01*
X111642600Y-68235159D02*
X111642600Y-69340041D01*
G75*
G02*
X111295041Y-69687600I-347559J0D01*
G01*
X110565159Y-69687600D01*
G75*
G02*
X110217600Y-69340041I0J347559D01*
G01*
X110217600Y-68235159D01*
G75*
G02*
X110565159Y-67887600I347559J0D01*
G01*
X111295041Y-67887600D01*
G75*
G02*
X111642600Y-68235159I0J-347559D01*
G01*
G37*
G36*
G01*
X112417600Y-80440041D02*
X112417600Y-79335159D01*
G75*
G02*
X112765159Y-78987600I347559J0D01*
G01*
X113495041Y-78987600D01*
G75*
G02*
X113842600Y-79335159I0J-347559D01*
G01*
X113842600Y-80440041D01*
G75*
G02*
X113495041Y-80787600I-347559J0D01*
G01*
X112765159Y-80787600D01*
G75*
G02*
X112417600Y-80440041I0J347559D01*
G01*
G37*
G36*
G01*
X110592600Y-80440041D02*
X110592600Y-79335159D01*
G75*
G02*
X110940159Y-78987600I347559J0D01*
G01*
X111670041Y-78987600D01*
G75*
G02*
X112017600Y-79335159I0J-347559D01*
G01*
X112017600Y-80440041D01*
G75*
G02*
X111670041Y-80787600I-347559J0D01*
G01*
X110940159Y-80787600D01*
G75*
G02*
X110592600Y-80440041I0J347559D01*
G01*
G37*
G36*
G01*
X105167600Y-58265041D02*
X105167600Y-57160159D01*
G75*
G02*
X105515159Y-56812600I347559J0D01*
G01*
X106245041Y-56812600D01*
G75*
G02*
X106592600Y-57160159I0J-347559D01*
G01*
X106592600Y-58265041D01*
G75*
G02*
X106245041Y-58612600I-347559J0D01*
G01*
X105515159Y-58612600D01*
G75*
G02*
X105167600Y-58265041I0J347559D01*
G01*
G37*
G36*
G01*
X103342600Y-58265041D02*
X103342600Y-57160159D01*
G75*
G02*
X103690159Y-56812600I347559J0D01*
G01*
X104420041Y-56812600D01*
G75*
G02*
X104767600Y-57160159I0J-347559D01*
G01*
X104767600Y-58265041D01*
G75*
G02*
X104420041Y-58612600I-347559J0D01*
G01*
X103690159Y-58612600D01*
G75*
G02*
X103342600Y-58265041I0J347559D01*
G01*
G37*
G36*
G01*
X110217600Y-96810041D02*
X110217600Y-95705159D01*
G75*
G02*
X110565159Y-95357600I347559J0D01*
G01*
X111295041Y-95357600D01*
G75*
G02*
X111642600Y-95705159I0J-347559D01*
G01*
X111642600Y-96810041D01*
G75*
G02*
X111295041Y-97157600I-347559J0D01*
G01*
X110565159Y-97157600D01*
G75*
G02*
X110217600Y-96810041I0J347559D01*
G01*
G37*
G36*
G01*
X108392600Y-96810041D02*
X108392600Y-95705159D01*
G75*
G02*
X108740159Y-95357600I347559J0D01*
G01*
X109470041Y-95357600D01*
G75*
G02*
X109817600Y-95705159I0J-347559D01*
G01*
X109817600Y-96810041D01*
G75*
G02*
X109470041Y-97157600I-347559J0D01*
G01*
X108740159Y-97157600D01*
G75*
G02*
X108392600Y-96810041I0J347559D01*
G01*
G37*
G36*
G01*
X105167600Y-56240041D02*
X105167600Y-55135159D01*
G75*
G02*
X105515159Y-54787600I347559J0D01*
G01*
X106245041Y-54787600D01*
G75*
G02*
X106592600Y-55135159I0J-347559D01*
G01*
X106592600Y-56240041D01*
G75*
G02*
X106245041Y-56587600I-347559J0D01*
G01*
X105515159Y-56587600D01*
G75*
G02*
X105167600Y-56240041I0J347559D01*
G01*
G37*
G36*
G01*
X103342600Y-56240041D02*
X103342600Y-55135159D01*
G75*
G02*
X103690159Y-54787600I347559J0D01*
G01*
X104420041Y-54787600D01*
G75*
G02*
X104767600Y-55135159I0J-347559D01*
G01*
X104767600Y-56240041D01*
G75*
G02*
X104420041Y-56587600I-347559J0D01*
G01*
X103690159Y-56587600D01*
G75*
G02*
X103342600Y-56240041I0J347559D01*
G01*
G37*
G36*
G01*
X105317600Y-98440041D02*
X105317600Y-97335159D01*
G75*
G02*
X105665159Y-96987600I347559J0D01*
G01*
X106395041Y-96987600D01*
G75*
G02*
X106742600Y-97335159I0J-347559D01*
G01*
X106742600Y-98440041D01*
G75*
G02*
X106395041Y-98787600I-347559J0D01*
G01*
X105665159Y-98787600D01*
G75*
G02*
X105317600Y-98440041I0J347559D01*
G01*
G37*
G36*
G01*
X103492600Y-98440041D02*
X103492600Y-97335159D01*
G75*
G02*
X103840159Y-96987600I347559J0D01*
G01*
X104570041Y-96987600D01*
G75*
G02*
X104917600Y-97335159I0J-347559D01*
G01*
X104917600Y-98440041D01*
G75*
G02*
X104570041Y-98787600I-347559J0D01*
G01*
X103840159Y-98787600D01*
G75*
G02*
X103492600Y-98440041I0J347559D01*
G01*
G37*
G36*
G01*
X123117600Y-70235159D02*
X123117600Y-71340041D01*
G75*
G02*
X122770041Y-71687600I-347559J0D01*
G01*
X122040159Y-71687600D01*
G75*
G02*
X121692600Y-71340041I0J347559D01*
G01*
X121692600Y-70235159D01*
G75*
G02*
X122040159Y-69887600I347559J0D01*
G01*
X122770041Y-69887600D01*
G75*
G02*
X123117600Y-70235159I0J-347559D01*
G01*
G37*
G36*
G01*
X124942600Y-70235159D02*
X124942600Y-71340041D01*
G75*
G02*
X124595041Y-71687600I-347559J0D01*
G01*
X123865159Y-71687600D01*
G75*
G02*
X123517600Y-71340041I0J347559D01*
G01*
X123517600Y-70235159D01*
G75*
G02*
X123865159Y-69887600I347559J0D01*
G01*
X124595041Y-69887600D01*
G75*
G02*
X124942600Y-70235159I0J-347559D01*
G01*
G37*
G36*
G01*
X115717600Y-57735159D02*
X115717600Y-58840041D01*
G75*
G02*
X115370041Y-59187600I-347559J0D01*
G01*
X114640159Y-59187600D01*
G75*
G02*
X114292600Y-58840041I0J347559D01*
G01*
X114292600Y-57735159D01*
G75*
G02*
X114640159Y-57387600I347559J0D01*
G01*
X115370041Y-57387600D01*
G75*
G02*
X115717600Y-57735159I0J-347559D01*
G01*
G37*
G36*
G01*
X117542600Y-57735159D02*
X117542600Y-58840041D01*
G75*
G02*
X117195041Y-59187600I-347559J0D01*
G01*
X116465159Y-59187600D01*
G75*
G02*
X116117600Y-58840041I0J347559D01*
G01*
X116117600Y-57735159D01*
G75*
G02*
X116465159Y-57387600I347559J0D01*
G01*
X117195041Y-57387600D01*
G75*
G02*
X117542600Y-57735159I0J-347559D01*
G01*
G37*
G36*
G01*
X110217600Y-65350041D02*
X110217600Y-64245159D01*
G75*
G02*
X110565159Y-63897600I347559J0D01*
G01*
X111295041Y-63897600D01*
G75*
G02*
X111642600Y-64245159I0J-347559D01*
G01*
X111642600Y-65350041D01*
G75*
G02*
X111295041Y-65697600I-347559J0D01*
G01*
X110565159Y-65697600D01*
G75*
G02*
X110217600Y-65350041I0J347559D01*
G01*
G37*
G36*
G01*
X108392600Y-65350041D02*
X108392600Y-64245159D01*
G75*
G02*
X108740159Y-63897600I347559J0D01*
G01*
X109470041Y-63897600D01*
G75*
G02*
X109817600Y-64245159I0J-347559D01*
G01*
X109817600Y-65350041D01*
G75*
G02*
X109470041Y-65697600I-347559J0D01*
G01*
X108740159Y-65697600D01*
G75*
G02*
X108392600Y-65350041I0J347559D01*
G01*
G37*
X127117600Y-105187600D03*
G36*
G01*
X124317600Y-105929268D02*
X124317600Y-104445932D01*
G75*
G02*
X124650932Y-104112600I333332J0D01*
G01*
X125584268Y-104112600D01*
G75*
G02*
X125917600Y-104445932I0J-333332D01*
G01*
X125917600Y-105929268D01*
G75*
G02*
X125584268Y-106262600I-333332J0D01*
G01*
X124650932Y-106262600D01*
G75*
G02*
X124317600Y-105929268I0J333332D01*
G01*
G37*
G36*
G01*
X129692600Y-97248713D02*
X129692600Y-94126487D01*
G75*
G02*
X130031487Y-93787600I338887J0D01*
G01*
X130878713Y-93787600D01*
G75*
G02*
X131217600Y-94126487I0J-338887D01*
G01*
X131217600Y-97248713D01*
G75*
G02*
X130878713Y-97587600I-338887J0D01*
G01*
X130031487Y-97587600D01*
G75*
G02*
X129692600Y-97248713I0J338887D01*
G01*
G37*
G36*
G01*
X125417600Y-97248713D02*
X125417600Y-94126487D01*
G75*
G02*
X125756487Y-93787600I338887J0D01*
G01*
X126603713Y-93787600D01*
G75*
G02*
X126942600Y-94126487I0J-338887D01*
G01*
X126942600Y-97248713D01*
G75*
G02*
X126603713Y-97587600I-338887J0D01*
G01*
X125756487Y-97587600D01*
G75*
G02*
X125417600Y-97248713I0J338887D01*
G01*
G37*
X129367600Y-76387600D03*
G36*
G01*
X126567600Y-77129268D02*
X126567600Y-75645932D01*
G75*
G02*
X126900932Y-75312600I333332J0D01*
G01*
X127834268Y-75312600D01*
G75*
G02*
X128167600Y-75645932I0J-333332D01*
G01*
X128167600Y-77129268D01*
G75*
G02*
X127834268Y-77462600I-333332J0D01*
G01*
X126900932Y-77462600D01*
G75*
G02*
X126567600Y-77129268I0J333332D01*
G01*
G37*
G36*
G01*
X113767600Y-96858850D02*
X113767600Y-95746350D01*
G75*
G02*
X114111350Y-95402600I343750J0D01*
G01*
X114798850Y-95402600D01*
G75*
G02*
X115142600Y-95746350I0J-343750D01*
G01*
X115142600Y-96858850D01*
G75*
G02*
X114798850Y-97202600I-343750J0D01*
G01*
X114111350Y-97202600D01*
G75*
G02*
X113767600Y-96858850I0J343750D01*
G01*
G37*
G36*
G01*
X111892600Y-96858850D02*
X111892600Y-95746350D01*
G75*
G02*
X112236350Y-95402600I343750J0D01*
G01*
X112923850Y-95402600D01*
G75*
G02*
X113267600Y-95746350I0J-343750D01*
G01*
X113267600Y-96858850D01*
G75*
G02*
X112923850Y-97202600I-343750J0D01*
G01*
X112236350Y-97202600D01*
G75*
G02*
X111892600Y-96858850I0J343750D01*
G01*
G37*
G36*
G01*
X110457600Y-61497600D02*
X109657600Y-61497600D01*
G75*
G02*
X109457600Y-61297600I0J200000D01*
G01*
X109457600Y-60397600D01*
G75*
G02*
X109657600Y-60197600I200000J0D01*
G01*
X110457600Y-60197600D01*
G75*
G02*
X110657600Y-60397600I0J-200000D01*
G01*
X110657600Y-61297600D01*
G75*
G02*
X110457600Y-61497600I-200000J0D01*
G01*
G37*
G36*
G01*
X111407600Y-63497600D02*
X110607600Y-63497600D01*
G75*
G02*
X110407600Y-63297600I0J200000D01*
G01*
X110407600Y-62397600D01*
G75*
G02*
X110607600Y-62197600I200000J0D01*
G01*
X111407600Y-62197600D01*
G75*
G02*
X111607600Y-62397600I0J-200000D01*
G01*
X111607600Y-63297600D01*
G75*
G02*
X111407600Y-63497600I-200000J0D01*
G01*
G37*
G36*
G01*
X109507600Y-63497600D02*
X108707600Y-63497600D01*
G75*
G02*
X108507600Y-63297600I0J200000D01*
G01*
X108507600Y-62397600D01*
G75*
G02*
X108707600Y-62197600I200000J0D01*
G01*
X109507600Y-62197600D01*
G75*
G02*
X109707600Y-62397600I0J-200000D01*
G01*
X109707600Y-63297600D01*
G75*
G02*
X109507600Y-63497600I-200000J0D01*
G01*
G37*
G36*
G01*
X115587600Y-62042600D02*
X115587600Y-60892600D01*
G75*
G02*
X115937600Y-60542600I350000J0D01*
G01*
X116637600Y-60542600D01*
G75*
G02*
X116987600Y-60892600I0J-350000D01*
G01*
X116987600Y-62042600D01*
G75*
G02*
X116637600Y-62392600I-350000J0D01*
G01*
X115937600Y-62392600D01*
G75*
G02*
X115587600Y-62042600I0J350000D01*
G01*
G37*
G36*
G01*
X113687600Y-62042600D02*
X113687600Y-60892600D01*
G75*
G02*
X114037600Y-60542600I350000J0D01*
G01*
X114737600Y-60542600D01*
G75*
G02*
X115087600Y-60892600I0J-350000D01*
G01*
X115087600Y-62042600D01*
G75*
G02*
X114737600Y-62392600I-350000J0D01*
G01*
X114037600Y-62392600D01*
G75*
G02*
X113687600Y-62042600I0J350000D01*
G01*
G37*
G36*
G01*
X119507600Y-62052600D02*
X119507600Y-60902600D01*
G75*
G02*
X119857600Y-60552600I350000J0D01*
G01*
X120557600Y-60552600D01*
G75*
G02*
X120907600Y-60902600I0J-350000D01*
G01*
X120907600Y-62052600D01*
G75*
G02*
X120557600Y-62402600I-350000J0D01*
G01*
X119857600Y-62402600D01*
G75*
G02*
X119507600Y-62052600I0J350000D01*
G01*
G37*
G36*
G01*
X117607600Y-62052600D02*
X117607600Y-60902600D01*
G75*
G02*
X117957600Y-60552600I350000J0D01*
G01*
X118657600Y-60552600D01*
G75*
G02*
X119007600Y-60902600I0J-350000D01*
G01*
X119007600Y-62052600D01*
G75*
G02*
X118657600Y-62402600I-350000J0D01*
G01*
X117957600Y-62402600D01*
G75*
G02*
X117607600Y-62052600I0J350000D01*
G01*
G37*
D14*
X116757600Y-105637600D03*
X129167600Y-50737600D03*
X104667600Y-50737600D03*
G36*
G01*
X104542600Y-96437600D02*
X103742600Y-96437600D01*
G75*
G02*
X103542600Y-96237600I0J200000D01*
G01*
X103542600Y-95337600D01*
G75*
G02*
X103742600Y-95137600I200000J0D01*
G01*
X104542600Y-95137600D01*
G75*
G02*
X104742600Y-95337600I0J-200000D01*
G01*
X104742600Y-96237600D01*
G75*
G02*
X104542600Y-96437600I-200000J0D01*
G01*
G37*
G36*
G01*
X106442600Y-96437600D02*
X105642600Y-96437600D01*
G75*
G02*
X105442600Y-96237600I0J200000D01*
G01*
X105442600Y-95337600D01*
G75*
G02*
X105642600Y-95137600I200000J0D01*
G01*
X106442600Y-95137600D01*
G75*
G02*
X106642600Y-95337600I0J-200000D01*
G01*
X106642600Y-96237600D01*
G75*
G02*
X106442600Y-96437600I-200000J0D01*
G01*
G37*
G36*
G01*
X105492600Y-94437600D02*
X104692600Y-94437600D01*
G75*
G02*
X104492600Y-94237600I0J200000D01*
G01*
X104492600Y-93337600D01*
G75*
G02*
X104692600Y-93137600I200000J0D01*
G01*
X105492600Y-93137600D01*
G75*
G02*
X105692600Y-93337600I0J-200000D01*
G01*
X105692600Y-94237600D01*
G75*
G02*
X105492600Y-94437600I-200000J0D01*
G01*
G37*
M02*
