G04 #@! TF.GenerationSoftware,KiCad,Pcbnew,5.1.9+dfsg1-1+deb11u1*
G04 #@! TF.CreationDate,2025-04-18T12:12:43+00:00*
G04 #@! TF.ProjectId,ModuleV450,4d6f6475-6c65-4563-9435-302e6b696361,rev?*
G04 #@! TF.SameCoordinates,Original*
G04 #@! TF.FileFunction,Legend,Top*
G04 #@! TF.FilePolarity,Positive*
%FSLAX46Y46*%
G04 Gerber Fmt 4.6, Leading zero omitted, Abs format (unit mm)*
G04 Created by KiCad (PCBNEW 5.1.9+dfsg1-1+deb11u1) date 2025-04-18 12:12:43*
%MOMM*%
%LPD*%
G01*
G04 APERTURE LIST*
%ADD10C,0.200000*%
%ADD11C,0.150000*%
%ADD12C,0.175000*%
%ADD13C,0.300000*%
%ADD14C,0.250000*%
%ADD15C,0.120000*%
%ADD16C,0.100000*%
G04 APERTURE END LIST*
D10*
X130159088Y-101430457D02*
X131682897Y-101430457D01*
X130825754Y-102192361D02*
X131016230Y-100668552D01*
X102425695Y-67539980D02*
X102425695Y-66539980D01*
X102663790Y-66539980D01*
X102806647Y-66587600D01*
X102901885Y-66682838D01*
X102949504Y-66778076D01*
X102997123Y-66968552D01*
X102997123Y-67111409D01*
X102949504Y-67301885D01*
X102901885Y-67397123D01*
X102806647Y-67492361D01*
X102663790Y-67539980D01*
X102425695Y-67539980D01*
X102425694Y-70059028D02*
X103187599Y-70059028D01*
X102846171Y-64306647D02*
X102846171Y-65068552D01*
X102465219Y-64687600D02*
X103227123Y-64687600D01*
X123280219Y-92659028D02*
X124042123Y-92659028D01*
X123613552Y-93039980D02*
X123708790Y-92278076D01*
D11*
X123341409Y-91737719D02*
X123379504Y-91623433D01*
X123379504Y-91432957D01*
X123341409Y-91356766D01*
X123303314Y-91318671D01*
X123227123Y-91280576D01*
X123150933Y-91280576D01*
X123074742Y-91318671D01*
X123036647Y-91356766D01*
X122998552Y-91432957D01*
X122960457Y-91585338D01*
X122922361Y-91661528D01*
X122884266Y-91699623D01*
X122808076Y-91737719D01*
X122731885Y-91737719D01*
X122655695Y-91699623D01*
X122617600Y-91661528D01*
X122579504Y-91585338D01*
X122579504Y-91394861D01*
X122617600Y-91280576D01*
X122846171Y-91052004D02*
X122846171Y-90747242D01*
X122579504Y-90937719D02*
X123265219Y-90937719D01*
X123341409Y-90899623D01*
X123379504Y-90823433D01*
X123379504Y-90747242D01*
X123379504Y-90480576D02*
X122846171Y-90480576D01*
X122998552Y-90480576D02*
X122922361Y-90442480D01*
X122884266Y-90404385D01*
X122846171Y-90328195D01*
X122846171Y-90252004D01*
X123379504Y-89985338D02*
X122846171Y-89985338D01*
X122579504Y-89985338D02*
X122617600Y-90023433D01*
X122655695Y-89985338D01*
X122617600Y-89947242D01*
X122579504Y-89985338D01*
X122655695Y-89985338D01*
X122846171Y-89604385D02*
X123646171Y-89604385D01*
X122884266Y-89604385D02*
X122846171Y-89528195D01*
X122846171Y-89375814D01*
X122884266Y-89299623D01*
X122922361Y-89261528D01*
X122998552Y-89223433D01*
X123227123Y-89223433D01*
X123303314Y-89261528D01*
X123341409Y-89299623D01*
X123379504Y-89375814D01*
X123379504Y-89528195D01*
X123341409Y-89604385D01*
X123341409Y-88575814D02*
X123379504Y-88652004D01*
X123379504Y-88804385D01*
X123341409Y-88880576D01*
X123265219Y-88918671D01*
X122960457Y-88918671D01*
X122884266Y-88880576D01*
X122846171Y-88804385D01*
X122846171Y-88652004D01*
X122884266Y-88575814D01*
X122960457Y-88537719D01*
X123036647Y-88537719D01*
X123112838Y-88918671D01*
X130869980Y-70023314D02*
X130346171Y-70023314D01*
X130250933Y-70070933D01*
X130203314Y-70166171D01*
X130203314Y-70356647D01*
X130250933Y-70451885D01*
X130822361Y-70023314D02*
X130869980Y-70118552D01*
X130869980Y-70356647D01*
X130822361Y-70451885D01*
X130727123Y-70499504D01*
X130631885Y-70499504D01*
X130536647Y-70451885D01*
X130489028Y-70356647D01*
X130489028Y-70118552D01*
X130441409Y-70023314D01*
X130822361Y-69118552D02*
X130869980Y-69213790D01*
X130869980Y-69404266D01*
X130822361Y-69499504D01*
X130774742Y-69547123D01*
X130679504Y-69594742D01*
X130393790Y-69594742D01*
X130298552Y-69547123D01*
X130250933Y-69499504D01*
X130203314Y-69404266D01*
X130203314Y-69213790D01*
X130250933Y-69118552D01*
X130869980Y-68689980D02*
X129869980Y-68689980D01*
X130250933Y-68689980D02*
X130203314Y-68594742D01*
X130203314Y-68404266D01*
X130250933Y-68309028D01*
X130298552Y-68261409D01*
X130393790Y-68213790D01*
X130679504Y-68213790D01*
X130774742Y-68261409D01*
X130822361Y-68309028D01*
X130869980Y-68404266D01*
X130869980Y-68594742D01*
X130822361Y-68689980D01*
X130203314Y-67928076D02*
X130203314Y-67547123D01*
X130869980Y-67785219D02*
X130012838Y-67785219D01*
X129917600Y-67737600D01*
X129869980Y-67642361D01*
X129869980Y-67547123D01*
X130869980Y-66785219D02*
X130346171Y-66785219D01*
X130250933Y-66832838D01*
X130203314Y-66928076D01*
X130203314Y-67118552D01*
X130250933Y-67213790D01*
X130822361Y-66785219D02*
X130869980Y-66880457D01*
X130869980Y-67118552D01*
X130822361Y-67213790D01*
X130727123Y-67261409D01*
X130631885Y-67261409D01*
X130536647Y-67213790D01*
X130489028Y-67118552D01*
X130489028Y-66880457D01*
X130441409Y-66785219D01*
X130822361Y-65880457D02*
X130869980Y-65975695D01*
X130869980Y-66166171D01*
X130822361Y-66261409D01*
X130774742Y-66309028D01*
X130679504Y-66356647D01*
X130393790Y-66356647D01*
X130298552Y-66309028D01*
X130250933Y-66261409D01*
X130203314Y-66166171D01*
X130203314Y-65975695D01*
X130250933Y-65880457D01*
X130869980Y-65023314D02*
X129869980Y-65023314D01*
X130822361Y-65023314D02*
X130869980Y-65118552D01*
X130869980Y-65309028D01*
X130822361Y-65404266D01*
X130774742Y-65451885D01*
X130679504Y-65499504D01*
X130393790Y-65499504D01*
X130298552Y-65451885D01*
X130250933Y-65404266D01*
X130203314Y-65309028D01*
X130203314Y-65118552D01*
X130250933Y-65023314D01*
D10*
X121951647Y-93139980D02*
X122076647Y-92139980D01*
X122523076Y-93139980D02*
X122165933Y-92568552D01*
X122648076Y-92139980D02*
X122005219Y-92711409D01*
D12*
X117484266Y-71582838D02*
X117484266Y-71106647D01*
X117769980Y-71678076D02*
X116769980Y-71344742D01*
X117769980Y-71011409D01*
X116769980Y-70820933D02*
X116769980Y-70249504D01*
X117769980Y-70535219D02*
X116769980Y-70535219D01*
X116769980Y-70059028D02*
X116769980Y-69487600D01*
X117769980Y-69773314D02*
X116769980Y-69773314D01*
X117769980Y-69154266D02*
X116769980Y-69154266D01*
X117769980Y-68678076D02*
X116769980Y-68678076D01*
X117769980Y-68106647D01*
X116769980Y-68106647D01*
X117293790Y-67439980D02*
X117769980Y-67439980D01*
X116769980Y-67773314D02*
X117293790Y-67439980D01*
X116769980Y-67106647D01*
X117769980Y-66249504D02*
X117769980Y-66820933D01*
X117769980Y-66535219D02*
X116769980Y-66535219D01*
X116912838Y-66630457D01*
X117008076Y-66725695D01*
X117055695Y-66820933D01*
X116769980Y-65392361D02*
X116769980Y-65582838D01*
X116817600Y-65678076D01*
X116865219Y-65725695D01*
X117008076Y-65820933D01*
X117198552Y-65868552D01*
X117579504Y-65868552D01*
X117674742Y-65820933D01*
X117722361Y-65773314D01*
X117769980Y-65678076D01*
X117769980Y-65487600D01*
X117722361Y-65392361D01*
X117674742Y-65344742D01*
X117579504Y-65297123D01*
X117341409Y-65297123D01*
X117246171Y-65344742D01*
X117198552Y-65392361D01*
X117150933Y-65487600D01*
X117150933Y-65678076D01*
X117198552Y-65773314D01*
X117246171Y-65820933D01*
X117341409Y-65868552D01*
X116865219Y-64916171D02*
X116817600Y-64868552D01*
X116769980Y-64773314D01*
X116769980Y-64535219D01*
X116817600Y-64439980D01*
X116865219Y-64392361D01*
X116960457Y-64344742D01*
X117055695Y-64344742D01*
X117198552Y-64392361D01*
X117769980Y-64963790D01*
X117769980Y-64344742D01*
X117103314Y-63487600D02*
X117769980Y-63487600D01*
X116722361Y-63725695D02*
X117436647Y-63963790D01*
X117436647Y-63344742D01*
D11*
X106610576Y-74349504D02*
X106610576Y-74920933D01*
X106572480Y-75035219D01*
X106496290Y-75111409D01*
X106382004Y-75149504D01*
X106305814Y-75149504D01*
X107372480Y-75149504D02*
X106991528Y-75149504D01*
X106991528Y-74349504D01*
X108096290Y-75073314D02*
X108058195Y-75111409D01*
X107943909Y-75149504D01*
X107867719Y-75149504D01*
X107753433Y-75111409D01*
X107677242Y-75035219D01*
X107639147Y-74959028D01*
X107601052Y-74806647D01*
X107601052Y-74692361D01*
X107639147Y-74539980D01*
X107677242Y-74463790D01*
X107753433Y-74387600D01*
X107867719Y-74349504D01*
X107943909Y-74349504D01*
X108058195Y-74387600D01*
X108096290Y-74425695D01*
X108667719Y-74349504D02*
X108667719Y-74920933D01*
X108629623Y-75035219D01*
X108553433Y-75111409D01*
X108439147Y-75149504D01*
X108362957Y-75149504D01*
X109429623Y-75149504D02*
X109048671Y-75149504D01*
X109048671Y-74349504D01*
X110153433Y-75073314D02*
X110115338Y-75111409D01*
X110001052Y-75149504D01*
X109924861Y-75149504D01*
X109810576Y-75111409D01*
X109734385Y-75035219D01*
X109696290Y-74959028D01*
X109658195Y-74806647D01*
X109658195Y-74692361D01*
X109696290Y-74539980D01*
X109734385Y-74463790D01*
X109810576Y-74387600D01*
X109924861Y-74349504D01*
X110001052Y-74349504D01*
X110115338Y-74387600D01*
X110153433Y-74425695D01*
X110724861Y-74349504D02*
X110724861Y-74920933D01*
X110686766Y-75035219D01*
X110610576Y-75111409D01*
X110496290Y-75149504D01*
X110420100Y-75149504D01*
X111486766Y-75149504D02*
X111105814Y-75149504D01*
X111105814Y-74349504D01*
X112210576Y-75073314D02*
X112172480Y-75111409D01*
X112058195Y-75149504D01*
X111982004Y-75149504D01*
X111867719Y-75111409D01*
X111791528Y-75035219D01*
X111753433Y-74959028D01*
X111715338Y-74806647D01*
X111715338Y-74692361D01*
X111753433Y-74539980D01*
X111791528Y-74463790D01*
X111867719Y-74387600D01*
X111982004Y-74349504D01*
X112058195Y-74349504D01*
X112172480Y-74387600D01*
X112210576Y-74425695D01*
X112782004Y-74349504D02*
X112782004Y-74920933D01*
X112743909Y-75035219D01*
X112667719Y-75111409D01*
X112553433Y-75149504D01*
X112477242Y-75149504D01*
X113543909Y-75149504D02*
X113162957Y-75149504D01*
X113162957Y-74349504D01*
X114267719Y-75073314D02*
X114229623Y-75111409D01*
X114115338Y-75149504D01*
X114039147Y-75149504D01*
X113924861Y-75111409D01*
X113848671Y-75035219D01*
X113810576Y-74959028D01*
X113772480Y-74806647D01*
X113772480Y-74692361D01*
X113810576Y-74539980D01*
X113848671Y-74463790D01*
X113924861Y-74387600D01*
X114039147Y-74349504D01*
X114115338Y-74349504D01*
X114229623Y-74387600D01*
X114267719Y-74425695D01*
D10*
X115146171Y-94306647D02*
X115146171Y-95068552D01*
X114765219Y-94687600D02*
X115527123Y-94687600D01*
X105760457Y-58882838D02*
X105760457Y-59492361D01*
X105455695Y-59187600D02*
X106065219Y-59187600D01*
D11*
X102504504Y-104913909D02*
X102504504Y-104456766D01*
X103304504Y-104685338D02*
X102504504Y-104685338D01*
X103266409Y-103885338D02*
X103304504Y-103961528D01*
X103304504Y-104113909D01*
X103266409Y-104190100D01*
X103190219Y-104228195D01*
X102885457Y-104228195D01*
X102809266Y-104190100D01*
X102771171Y-104113909D01*
X102771171Y-103961528D01*
X102809266Y-103885338D01*
X102885457Y-103847242D01*
X102961647Y-103847242D01*
X103037838Y-104228195D01*
X103304504Y-103504385D02*
X102771171Y-103504385D01*
X102847361Y-103504385D02*
X102809266Y-103466290D01*
X102771171Y-103390100D01*
X102771171Y-103275814D01*
X102809266Y-103199623D01*
X102885457Y-103161528D01*
X103304504Y-103161528D01*
X102885457Y-103161528D02*
X102809266Y-103123433D01*
X102771171Y-103047242D01*
X102771171Y-102932957D01*
X102809266Y-102856766D01*
X102885457Y-102818671D01*
X103304504Y-102818671D01*
X102771171Y-102437719D02*
X103571171Y-102437719D01*
X102809266Y-102437719D02*
X102771171Y-102361528D01*
X102771171Y-102209147D01*
X102809266Y-102132957D01*
X102847361Y-102094861D01*
X102923552Y-102056766D01*
X103152123Y-102056766D01*
X103228314Y-102094861D01*
X103266409Y-102132957D01*
X103304504Y-102209147D01*
X103304504Y-102361528D01*
X103266409Y-102437719D01*
X104616409Y-104837719D02*
X104654504Y-104723433D01*
X104654504Y-104532957D01*
X104616409Y-104456766D01*
X104578314Y-104418671D01*
X104502123Y-104380576D01*
X104425933Y-104380576D01*
X104349742Y-104418671D01*
X104311647Y-104456766D01*
X104273552Y-104532957D01*
X104235457Y-104685338D01*
X104197361Y-104761528D01*
X104159266Y-104799623D01*
X104083076Y-104837719D01*
X104006885Y-104837719D01*
X103930695Y-104799623D01*
X103892600Y-104761528D01*
X103854504Y-104685338D01*
X103854504Y-104494861D01*
X103892600Y-104380576D01*
X104616409Y-103732957D02*
X104654504Y-103809147D01*
X104654504Y-103961528D01*
X104616409Y-104037719D01*
X104540219Y-104075814D01*
X104235457Y-104075814D01*
X104159266Y-104037719D01*
X104121171Y-103961528D01*
X104121171Y-103809147D01*
X104159266Y-103732957D01*
X104235457Y-103694861D01*
X104311647Y-103694861D01*
X104387838Y-104075814D01*
X104121171Y-103352004D02*
X104654504Y-103352004D01*
X104197361Y-103352004D02*
X104159266Y-103313909D01*
X104121171Y-103237719D01*
X104121171Y-103123433D01*
X104159266Y-103047242D01*
X104235457Y-103009147D01*
X104654504Y-103009147D01*
X104616409Y-102666290D02*
X104654504Y-102590100D01*
X104654504Y-102437719D01*
X104616409Y-102361528D01*
X104540219Y-102323433D01*
X104502123Y-102323433D01*
X104425933Y-102361528D01*
X104387838Y-102437719D01*
X104387838Y-102552004D01*
X104349742Y-102628195D01*
X104273552Y-102666290D01*
X104235457Y-102666290D01*
X104159266Y-102628195D01*
X104121171Y-102552004D01*
X104121171Y-102437719D01*
X104159266Y-102361528D01*
X104654504Y-101866290D02*
X104616409Y-101942480D01*
X104578314Y-101980576D01*
X104502123Y-102018671D01*
X104273552Y-102018671D01*
X104197361Y-101980576D01*
X104159266Y-101942480D01*
X104121171Y-101866290D01*
X104121171Y-101752004D01*
X104159266Y-101675814D01*
X104197361Y-101637719D01*
X104273552Y-101599623D01*
X104502123Y-101599623D01*
X104578314Y-101637719D01*
X104616409Y-101675814D01*
X104654504Y-101752004D01*
X104654504Y-101866290D01*
X104654504Y-101256766D02*
X104121171Y-101256766D01*
X104273552Y-101256766D02*
X104197361Y-101218671D01*
X104159266Y-101180576D01*
X104121171Y-101104385D01*
X104121171Y-101028195D01*
D12*
X113327600Y-63824266D02*
X112927600Y-63824266D01*
X113127600Y-63824266D02*
X113127600Y-63124266D01*
X113060933Y-63224266D01*
X112994266Y-63290933D01*
X112927600Y-63324266D01*
X121817600Y-58204266D02*
X121417600Y-58204266D01*
X121617600Y-58204266D02*
X121617600Y-57504266D01*
X121550933Y-57604266D01*
X121484266Y-57670933D01*
X121417600Y-57704266D01*
D13*
X109167034Y-92311409D02*
X109367034Y-90711409D01*
X109271796Y-91473314D02*
X110186082Y-91473314D01*
X110081320Y-92311409D02*
X110281320Y-90711409D01*
X111347986Y-90711409D02*
X111652748Y-90711409D01*
X111795605Y-90787600D01*
X111928939Y-90939980D01*
X111967034Y-91244742D01*
X111900367Y-91778076D01*
X111786082Y-92082838D01*
X111614653Y-92235219D01*
X111452748Y-92311409D01*
X111147986Y-92311409D01*
X111005129Y-92235219D01*
X110871796Y-92082838D01*
X110833701Y-91778076D01*
X110900367Y-91244742D01*
X111014653Y-90939980D01*
X111186082Y-90787600D01*
X111347986Y-90711409D01*
X112490844Y-90711409D02*
X113405129Y-90711409D01*
X112747986Y-92311409D02*
X112947986Y-90711409D01*
X113757510Y-92159028D02*
X113824177Y-92235219D01*
X113738463Y-92311409D01*
X113671796Y-92235219D01*
X113757510Y-92159028D01*
X113738463Y-92311409D01*
X113814653Y-91701885D02*
X113852748Y-90787600D01*
X113938463Y-90711409D01*
X114005129Y-90787600D01*
X113814653Y-91701885D01*
X113938463Y-90711409D01*
D10*
X103395219Y-62533314D02*
X103395219Y-61961885D01*
X103395219Y-62247600D02*
X104395219Y-62247600D01*
X104252361Y-62152361D01*
X104157123Y-62057123D01*
X104109504Y-61961885D01*
D14*
X128310457Y-73164385D02*
X127110457Y-73164385D01*
X127110457Y-72878671D01*
X127167600Y-72707242D01*
X127281885Y-72592957D01*
X127396171Y-72535814D01*
X127624742Y-72478671D01*
X127796171Y-72478671D01*
X128024742Y-72535814D01*
X128139028Y-72592957D01*
X128253314Y-72707242D01*
X128310457Y-72878671D01*
X128310457Y-73164385D01*
X128310457Y-71964385D02*
X127110457Y-71964385D01*
X127739028Y-71164385D02*
X128310457Y-71164385D01*
X127110457Y-71564385D02*
X127739028Y-71164385D01*
X127110457Y-70764385D01*
X127681885Y-69964385D02*
X127739028Y-69792957D01*
X127796171Y-69735814D01*
X127910457Y-69678671D01*
X128081885Y-69678671D01*
X128196171Y-69735814D01*
X128253314Y-69792957D01*
X128310457Y-69907242D01*
X128310457Y-70364385D01*
X127110457Y-70364385D01*
X127110457Y-69964385D01*
X127167600Y-69850100D01*
X127224742Y-69792957D01*
X127339028Y-69735814D01*
X127453314Y-69735814D01*
X127567600Y-69792957D01*
X127624742Y-69850100D01*
X127681885Y-69964385D01*
X127681885Y-70364385D01*
X128310457Y-69164385D02*
X127110457Y-69164385D01*
X127967600Y-68764385D01*
X127110457Y-68364385D01*
X128310457Y-68364385D01*
X128253314Y-67850100D02*
X128310457Y-67678671D01*
X128310457Y-67392957D01*
X128253314Y-67278671D01*
X128196171Y-67221528D01*
X128081885Y-67164385D01*
X127967600Y-67164385D01*
X127853314Y-67221528D01*
X127796171Y-67278671D01*
X127739028Y-67392957D01*
X127681885Y-67621528D01*
X127624742Y-67735814D01*
X127567600Y-67792957D01*
X127453314Y-67850100D01*
X127339028Y-67850100D01*
X127224742Y-67792957D01*
X127167600Y-67735814D01*
X127110457Y-67621528D01*
X127110457Y-67335814D01*
X127167600Y-67164385D01*
X127510457Y-65850100D02*
X128310457Y-65564385D01*
X127510457Y-65278671D01*
X127510457Y-64307242D02*
X128310457Y-64307242D01*
X127053314Y-64592957D02*
X127910457Y-64878671D01*
X127910457Y-64135814D01*
X128196171Y-63678671D02*
X128253314Y-63621528D01*
X128310457Y-63678671D01*
X128253314Y-63735814D01*
X128196171Y-63678671D01*
X128310457Y-63678671D01*
X127110457Y-62535814D02*
X127110457Y-63107242D01*
X127681885Y-63164385D01*
X127624742Y-63107242D01*
X127567600Y-62992957D01*
X127567600Y-62707242D01*
X127624742Y-62592957D01*
X127681885Y-62535814D01*
X127796171Y-62478671D01*
X128081885Y-62478671D01*
X128196171Y-62535814D01*
X128253314Y-62592957D01*
X128310457Y-62707242D01*
X128310457Y-62992957D01*
X128253314Y-63107242D01*
X128196171Y-63164385D01*
D15*
X103687600Y-65957600D02*
X106347600Y-65957600D01*
X103687600Y-65957600D02*
X103687600Y-71097600D01*
X103687600Y-71097600D02*
X106347600Y-71097600D01*
X106347600Y-65957600D02*
X106347600Y-71097600D01*
X106347600Y-63357600D02*
X106347600Y-64687600D01*
X105017600Y-63357600D02*
X106347600Y-63357600D01*
X125427600Y-55597600D02*
X125427600Y-46177600D01*
X125427600Y-46177600D02*
X108577600Y-46177600D01*
X108577600Y-46177600D02*
X108577600Y-55597600D01*
X125427600Y-55597600D02*
X123767600Y-55597600D01*
X108577600Y-55597600D02*
X110237600Y-55597600D01*
X121667600Y-55597600D02*
X119957600Y-55597600D01*
X117857600Y-55597600D02*
X116147600Y-55597600D01*
X114047600Y-55597600D02*
X112337600Y-55597600D01*
X125427600Y-49487600D02*
X108577600Y-49487600D01*
X122417600Y-56887600D02*
X122717600Y-56287600D01*
X122717600Y-56287600D02*
X123017600Y-56887600D01*
X123017600Y-56887600D02*
X122417600Y-56887600D01*
X120807600Y-100177600D02*
X120807600Y-109597600D01*
X120807600Y-109597600D02*
X130037600Y-109597600D01*
X130037600Y-109597600D02*
X130037600Y-100177600D01*
X120807600Y-100177600D02*
X122467600Y-100177600D01*
X130037600Y-100177600D02*
X128377600Y-100177600D01*
X124567600Y-100177600D02*
X126277600Y-100177600D01*
X120807600Y-106287600D02*
X130037600Y-106287600D01*
X123817600Y-98887600D02*
X123517600Y-99487600D01*
X123517600Y-99487600D02*
X123217600Y-98887600D01*
X123217600Y-98887600D02*
X123817600Y-98887600D01*
X105492600Y-59652600D02*
X103207600Y-59652600D01*
X103207600Y-59652600D02*
X103207600Y-61122600D01*
X103207600Y-61122600D02*
X105492600Y-61122600D01*
X109117600Y-101757600D02*
X110447600Y-101757600D01*
X110447600Y-101757600D02*
X110447600Y-103087600D01*
X110447600Y-104357600D02*
X110447600Y-106957600D01*
X107787600Y-106957600D02*
X110447600Y-106957600D01*
X107787600Y-104357600D02*
X107787600Y-106957600D01*
X107787600Y-104357600D02*
X110447600Y-104357600D01*
X107619664Y-81127600D02*
X104565536Y-81127600D01*
X107619664Y-83847600D02*
X104565536Y-83847600D01*
X107644664Y-85227600D02*
X104590536Y-85227600D01*
X107644664Y-87947600D02*
X104590536Y-87947600D01*
X114261330Y-81127600D02*
X111207202Y-81127600D01*
X114261330Y-83847600D02*
X111207202Y-83847600D01*
X114286330Y-85227600D02*
X111232202Y-85227600D01*
X114286330Y-87947600D02*
X111232202Y-87947600D01*
X121369664Y-81127600D02*
X118315536Y-81127600D01*
X121369664Y-83847600D02*
X118315536Y-83847600D01*
X121394664Y-85227600D02*
X118340536Y-85227600D01*
X121394664Y-87947600D02*
X118340536Y-87947600D01*
X107594664Y-75677600D02*
X104540536Y-75677600D01*
X107594664Y-78397600D02*
X104540536Y-78397600D01*
X114236330Y-75677600D02*
X111182202Y-75677600D01*
X114236330Y-78397600D02*
X111182202Y-78397600D01*
X121344664Y-75677600D02*
X118290536Y-75677600D01*
X121344664Y-78397600D02*
X118290536Y-78397600D01*
X117297600Y-71932600D02*
X119247600Y-71932600D01*
X117297600Y-71932600D02*
X115347600Y-71932600D01*
X117297600Y-63062600D02*
X119247600Y-63062600D01*
X117297600Y-63062600D02*
X113847600Y-63062600D01*
X126417600Y-59897600D02*
X128727600Y-59897600D01*
X128727600Y-59897600D02*
X128727600Y-59682600D01*
X126417600Y-59897600D02*
X124107600Y-59897600D01*
X124107600Y-59897600D02*
X124107600Y-59682600D01*
X126417600Y-57077600D02*
X128727600Y-57077600D01*
X128727600Y-57077600D02*
X128727600Y-57292600D01*
X126417600Y-57077600D02*
X124107600Y-57077600D01*
X124107600Y-57077600D02*
X124107600Y-57292600D01*
X124107600Y-57292600D02*
X122417600Y-57292600D01*
X124077600Y-50747600D02*
X124357600Y-50747600D01*
X124357600Y-50747600D02*
X124357600Y-52347600D01*
X124357600Y-52347600D02*
X125277600Y-52347600D01*
X125277600Y-52347600D02*
X125277600Y-44527600D01*
X125277600Y-44527600D02*
X119157600Y-44527600D01*
X119157600Y-44527600D02*
X119157600Y-52347600D01*
X119157600Y-52347600D02*
X120077600Y-52347600D01*
X120077600Y-52347600D02*
X120077600Y-50747600D01*
X120077600Y-50747600D02*
X120357600Y-50747600D01*
X122717600Y-44527600D02*
X122717600Y-48887600D01*
X122717600Y-48887600D02*
X121717600Y-48887600D01*
X121717600Y-48887600D02*
X121717600Y-44527600D01*
X125277600Y-50747600D02*
X124357600Y-50747600D01*
X119157600Y-50747600D02*
X120077600Y-50747600D01*
X124517600Y-48387600D02*
X124517600Y-46787600D01*
X124517600Y-46787600D02*
X123517600Y-46787600D01*
X123517600Y-46787600D02*
X123517600Y-48387600D01*
X123517600Y-48387600D02*
X124517600Y-48387600D01*
X119917600Y-48387600D02*
X119917600Y-46787600D01*
X119917600Y-46787600D02*
X120917600Y-46787600D01*
X120917600Y-46787600D02*
X120917600Y-48387600D01*
X120917600Y-48387600D02*
X119917600Y-48387600D01*
X123517600Y-46787600D02*
X123517600Y-44527600D01*
X124017600Y-46787600D02*
X124017600Y-44527600D01*
X124077600Y-50747600D02*
X124077600Y-51962600D01*
X113477600Y-50747600D02*
X113757600Y-50747600D01*
X113757600Y-50747600D02*
X113757600Y-52347600D01*
X113757600Y-52347600D02*
X114677600Y-52347600D01*
X114677600Y-52347600D02*
X114677600Y-44527600D01*
X114677600Y-44527600D02*
X108557600Y-44527600D01*
X108557600Y-44527600D02*
X108557600Y-52347600D01*
X108557600Y-52347600D02*
X109477600Y-52347600D01*
X109477600Y-52347600D02*
X109477600Y-50747600D01*
X109477600Y-50747600D02*
X109757600Y-50747600D01*
X112117600Y-44527600D02*
X112117600Y-48887600D01*
X112117600Y-48887600D02*
X111117600Y-48887600D01*
X111117600Y-48887600D02*
X111117600Y-44527600D01*
X114677600Y-50747600D02*
X113757600Y-50747600D01*
X108557600Y-50747600D02*
X109477600Y-50747600D01*
X113917600Y-48387600D02*
X113917600Y-46787600D01*
X113917600Y-46787600D02*
X112917600Y-46787600D01*
X112917600Y-46787600D02*
X112917600Y-48387600D01*
X112917600Y-48387600D02*
X113917600Y-48387600D01*
X109317600Y-48387600D02*
X109317600Y-46787600D01*
X109317600Y-46787600D02*
X110317600Y-46787600D01*
X110317600Y-46787600D02*
X110317600Y-48387600D01*
X110317600Y-48387600D02*
X109317600Y-48387600D01*
X112917600Y-46787600D02*
X112917600Y-44527600D01*
X113417600Y-46787600D02*
X113417600Y-44527600D01*
X113477600Y-50747600D02*
X113477600Y-51962600D01*
X123210536Y-66192600D02*
X123664664Y-66192600D01*
X123210536Y-67662600D02*
X123664664Y-67662600D01*
X123867600Y-97737600D02*
X123867600Y-93437600D01*
X123867600Y-93437600D02*
X118167600Y-93437600D01*
X123867600Y-97737600D02*
X118167600Y-97737600D01*
X105052600Y-105284664D02*
X105052600Y-104830536D01*
X106522600Y-105284664D02*
X106522600Y-104830536D01*
X123290536Y-62852600D02*
X123744664Y-62852600D01*
X123290536Y-64322600D02*
X123744664Y-64322600D01*
X110244664Y-69522600D02*
X109790536Y-69522600D01*
X110244664Y-68052600D02*
X109790536Y-68052600D01*
X111990536Y-79152600D02*
X112444664Y-79152600D01*
X111990536Y-80622600D02*
X112444664Y-80622600D01*
X104740536Y-56977600D02*
X105194664Y-56977600D01*
X104740536Y-58447600D02*
X105194664Y-58447600D01*
X109790536Y-95522600D02*
X110244664Y-95522600D01*
X109790536Y-96992600D02*
X110244664Y-96992600D01*
X104740536Y-54952600D02*
X105194664Y-54952600D01*
X104740536Y-56422600D02*
X105194664Y-56422600D01*
X104890536Y-97152600D02*
X105344664Y-97152600D01*
X104890536Y-98622600D02*
X105344664Y-98622600D01*
X123544664Y-71522600D02*
X123090536Y-71522600D01*
X123544664Y-70052600D02*
X123090536Y-70052600D01*
X116144664Y-59022600D02*
X115690536Y-59022600D01*
X116144664Y-57552600D02*
X115690536Y-57552600D01*
X109790536Y-64062600D02*
X110244664Y-64062600D01*
X109790536Y-65532600D02*
X110244664Y-65532600D01*
X124257600Y-105327600D02*
X123977600Y-105327600D01*
X123977600Y-105327600D02*
X123977600Y-103727600D01*
X123977600Y-103727600D02*
X123057600Y-103727600D01*
X123057600Y-103727600D02*
X123057600Y-111547600D01*
X123057600Y-111547600D02*
X129177600Y-111547600D01*
X129177600Y-111547600D02*
X129177600Y-103727600D01*
X129177600Y-103727600D02*
X128257600Y-103727600D01*
X128257600Y-103727600D02*
X128257600Y-105327600D01*
X128257600Y-105327600D02*
X127977600Y-105327600D01*
X125617600Y-111547600D02*
X125617600Y-107187600D01*
X125617600Y-107187600D02*
X126617600Y-107187600D01*
X126617600Y-107187600D02*
X126617600Y-111547600D01*
X123057600Y-105327600D02*
X123977600Y-105327600D01*
X129177600Y-105327600D02*
X128257600Y-105327600D01*
X123817600Y-107687600D02*
X123817600Y-109287600D01*
X123817600Y-109287600D02*
X124817600Y-109287600D01*
X124817600Y-109287600D02*
X124817600Y-107687600D01*
X124817600Y-107687600D02*
X123817600Y-107687600D01*
X128417600Y-107687600D02*
X128417600Y-109287600D01*
X128417600Y-109287600D02*
X127417600Y-109287600D01*
X127417600Y-109287600D02*
X127417600Y-107687600D01*
X127417600Y-107687600D02*
X128417600Y-107687600D01*
X124817600Y-109287600D02*
X124817600Y-111547600D01*
X124317600Y-109287600D02*
X124317600Y-111547600D01*
X124257600Y-105327600D02*
X124257600Y-104112600D01*
X126931348Y-93977600D02*
X129703852Y-93977600D01*
X126931348Y-97397600D02*
X129703852Y-97397600D01*
X126507600Y-76527600D02*
X126227600Y-76527600D01*
X126227600Y-76527600D02*
X126227600Y-74927600D01*
X126227600Y-74927600D02*
X125307600Y-74927600D01*
X125307600Y-74927600D02*
X125307600Y-82747600D01*
X125307600Y-82747600D02*
X131427600Y-82747600D01*
X131427600Y-82747600D02*
X131427600Y-74927600D01*
X131427600Y-74927600D02*
X130507600Y-74927600D01*
X130507600Y-74927600D02*
X130507600Y-76527600D01*
X130507600Y-76527600D02*
X130227600Y-76527600D01*
X127867600Y-82747600D02*
X127867600Y-78387600D01*
X127867600Y-78387600D02*
X128867600Y-78387600D01*
X128867600Y-78387600D02*
X128867600Y-82747600D01*
X125307600Y-76527600D02*
X126227600Y-76527600D01*
X131427600Y-76527600D02*
X130507600Y-76527600D01*
X126067600Y-78887600D02*
X126067600Y-80487600D01*
X126067600Y-80487600D02*
X127067600Y-80487600D01*
X127067600Y-80487600D02*
X127067600Y-78887600D01*
X127067600Y-78887600D02*
X126067600Y-78887600D01*
X130667600Y-78887600D02*
X130667600Y-80487600D01*
X130667600Y-80487600D02*
X129667600Y-80487600D01*
X129667600Y-80487600D02*
X129667600Y-78887600D01*
X129667600Y-78887600D02*
X130667600Y-78887600D01*
X127067600Y-80487600D02*
X127067600Y-82747600D01*
X126567600Y-80487600D02*
X126567600Y-82747600D01*
X126507600Y-76527600D02*
X126507600Y-75312600D01*
X114517600Y-95342600D02*
X111832600Y-95342600D01*
X111832600Y-95342600D02*
X111832600Y-97262600D01*
X111832600Y-97262600D02*
X114517600Y-97262600D01*
X111637600Y-61087600D02*
X110707600Y-61087600D01*
X108477600Y-61087600D02*
X109407600Y-61087600D01*
X108477600Y-61087600D02*
X108477600Y-63247600D01*
X111637600Y-61087600D02*
X111637600Y-62547600D01*
X115076348Y-60732600D02*
X115598852Y-60732600D01*
X115076348Y-62202600D02*
X115598852Y-62202600D01*
X118996348Y-60742600D02*
X119518852Y-60742600D01*
X118996348Y-62212600D02*
X119518852Y-62212600D01*
X106672600Y-94027600D02*
X106672600Y-95487600D01*
X103512600Y-94027600D02*
X103512600Y-96187600D01*
X103512600Y-94027600D02*
X104442600Y-94027600D01*
X106672600Y-94027600D02*
X105742600Y-94027600D01*
D11*
X103017600Y-72039980D02*
X103017600Y-72849504D01*
X103065219Y-72944742D01*
X103112838Y-72992361D01*
X103208076Y-73039980D01*
X103398552Y-73039980D01*
X103493790Y-72992361D01*
X103541409Y-72944742D01*
X103589028Y-72849504D01*
X103589028Y-72039980D01*
X104065219Y-73039980D02*
X104065219Y-72039980D01*
X104446171Y-72039980D01*
X104541409Y-72087600D01*
X104589028Y-72135219D01*
X104636647Y-72230457D01*
X104636647Y-72373314D01*
X104589028Y-72468552D01*
X104541409Y-72516171D01*
X104446171Y-72563790D01*
X104065219Y-72563790D01*
X105065219Y-73039980D02*
X105065219Y-72039980D01*
X105303314Y-72039980D01*
X105446171Y-72087600D01*
X105541409Y-72182838D01*
X105589028Y-72278076D01*
X105636647Y-72468552D01*
X105636647Y-72611409D01*
X105589028Y-72801885D01*
X105541409Y-72897123D01*
X105446171Y-72992361D01*
X105303314Y-73039980D01*
X105065219Y-73039980D01*
X106065219Y-73039980D02*
X106065219Y-72039980D01*
X107065219Y-73039980D02*
X106493790Y-73039980D01*
X106779504Y-73039980D02*
X106779504Y-72039980D01*
X106684266Y-72182838D01*
X106589028Y-72278076D01*
X106493790Y-72325695D01*
X107619980Y-61125695D02*
X106619980Y-61125695D01*
X106619980Y-60887600D01*
X106667600Y-60744742D01*
X106762838Y-60649504D01*
X106858076Y-60601885D01*
X107048552Y-60554266D01*
X107191409Y-60554266D01*
X107381885Y-60601885D01*
X107477123Y-60649504D01*
X107572361Y-60744742D01*
X107619980Y-60887600D01*
X107619980Y-61125695D01*
X106953314Y-59697123D02*
X107619980Y-59697123D01*
X106572361Y-59935219D02*
X107286647Y-60173314D01*
X107286647Y-59554266D01*
X110969980Y-104420933D02*
X111684266Y-104420933D01*
X111827123Y-104468552D01*
X111922361Y-104563790D01*
X111969980Y-104706647D01*
X111969980Y-104801885D01*
X111969980Y-103420933D02*
X111969980Y-103992361D01*
X111969980Y-103706647D02*
X110969980Y-103706647D01*
X111112838Y-103801885D01*
X111208076Y-103897123D01*
X111255695Y-103992361D01*
X105449742Y-85069980D02*
X105116409Y-84593790D01*
X104878314Y-85069980D02*
X104878314Y-84069980D01*
X105259266Y-84069980D01*
X105354504Y-84117600D01*
X105402123Y-84165219D01*
X105449742Y-84260457D01*
X105449742Y-84403314D01*
X105402123Y-84498552D01*
X105354504Y-84546171D01*
X105259266Y-84593790D01*
X104878314Y-84593790D01*
X105830695Y-84165219D02*
X105878314Y-84117600D01*
X105973552Y-84069980D01*
X106211647Y-84069980D01*
X106306885Y-84117600D01*
X106354504Y-84165219D01*
X106402123Y-84260457D01*
X106402123Y-84355695D01*
X106354504Y-84498552D01*
X105783076Y-85069980D01*
X106402123Y-85069980D01*
X106973552Y-84498552D02*
X106878314Y-84450933D01*
X106830695Y-84403314D01*
X106783076Y-84308076D01*
X106783076Y-84260457D01*
X106830695Y-84165219D01*
X106878314Y-84117600D01*
X106973552Y-84069980D01*
X107164028Y-84069980D01*
X107259266Y-84117600D01*
X107306885Y-84165219D01*
X107354504Y-84260457D01*
X107354504Y-84308076D01*
X107306885Y-84403314D01*
X107259266Y-84450933D01*
X107164028Y-84498552D01*
X106973552Y-84498552D01*
X106878314Y-84546171D01*
X106830695Y-84593790D01*
X106783076Y-84689028D01*
X106783076Y-84879504D01*
X106830695Y-84974742D01*
X106878314Y-85022361D01*
X106973552Y-85069980D01*
X107164028Y-85069980D01*
X107259266Y-85022361D01*
X107306885Y-84974742D01*
X107354504Y-84879504D01*
X107354504Y-84689028D01*
X107306885Y-84593790D01*
X107259266Y-84546171D01*
X107164028Y-84498552D01*
X105474742Y-89319980D02*
X105141409Y-88843790D01*
X104903314Y-89319980D02*
X104903314Y-88319980D01*
X105284266Y-88319980D01*
X105379504Y-88367600D01*
X105427123Y-88415219D01*
X105474742Y-88510457D01*
X105474742Y-88653314D01*
X105427123Y-88748552D01*
X105379504Y-88796171D01*
X105284266Y-88843790D01*
X104903314Y-88843790D01*
X105855695Y-88415219D02*
X105903314Y-88367600D01*
X105998552Y-88319980D01*
X106236647Y-88319980D01*
X106331885Y-88367600D01*
X106379504Y-88415219D01*
X106427123Y-88510457D01*
X106427123Y-88605695D01*
X106379504Y-88748552D01*
X105808076Y-89319980D01*
X106427123Y-89319980D01*
X106760457Y-88319980D02*
X107427123Y-88319980D01*
X106998552Y-89319980D01*
X112091408Y-85069980D02*
X111758075Y-84593790D01*
X111519980Y-85069980D02*
X111519980Y-84069980D01*
X111900932Y-84069980D01*
X111996170Y-84117600D01*
X112043789Y-84165219D01*
X112091408Y-84260457D01*
X112091408Y-84403314D01*
X112043789Y-84498552D01*
X111996170Y-84546171D01*
X111900932Y-84593790D01*
X111519980Y-84593790D01*
X112472361Y-84165219D02*
X112519980Y-84117600D01*
X112615218Y-84069980D01*
X112853313Y-84069980D01*
X112948551Y-84117600D01*
X112996170Y-84165219D01*
X113043789Y-84260457D01*
X113043789Y-84355695D01*
X112996170Y-84498552D01*
X112424742Y-85069980D01*
X113043789Y-85069980D01*
X113900932Y-84069980D02*
X113710456Y-84069980D01*
X113615218Y-84117600D01*
X113567599Y-84165219D01*
X113472361Y-84308076D01*
X113424742Y-84498552D01*
X113424742Y-84879504D01*
X113472361Y-84974742D01*
X113519980Y-85022361D01*
X113615218Y-85069980D01*
X113805694Y-85069980D01*
X113900932Y-85022361D01*
X113948551Y-84974742D01*
X113996170Y-84879504D01*
X113996170Y-84641409D01*
X113948551Y-84546171D01*
X113900932Y-84498552D01*
X113805694Y-84450933D01*
X113615218Y-84450933D01*
X113519980Y-84498552D01*
X113472361Y-84546171D01*
X113424742Y-84641409D01*
X112116408Y-89319980D02*
X111783075Y-88843790D01*
X111544980Y-89319980D02*
X111544980Y-88319980D01*
X111925932Y-88319980D01*
X112021170Y-88367600D01*
X112068789Y-88415219D01*
X112116408Y-88510457D01*
X112116408Y-88653314D01*
X112068789Y-88748552D01*
X112021170Y-88796171D01*
X111925932Y-88843790D01*
X111544980Y-88843790D01*
X112497361Y-88415219D02*
X112544980Y-88367600D01*
X112640218Y-88319980D01*
X112878313Y-88319980D01*
X112973551Y-88367600D01*
X113021170Y-88415219D01*
X113068789Y-88510457D01*
X113068789Y-88605695D01*
X113021170Y-88748552D01*
X112449742Y-89319980D01*
X113068789Y-89319980D01*
X113973551Y-88319980D02*
X113497361Y-88319980D01*
X113449742Y-88796171D01*
X113497361Y-88748552D01*
X113592599Y-88700933D01*
X113830694Y-88700933D01*
X113925932Y-88748552D01*
X113973551Y-88796171D01*
X114021170Y-88891409D01*
X114021170Y-89129504D01*
X113973551Y-89224742D01*
X113925932Y-89272361D01*
X113830694Y-89319980D01*
X113592599Y-89319980D01*
X113497361Y-89272361D01*
X113449742Y-89224742D01*
X119199742Y-85069980D02*
X118866409Y-84593790D01*
X118628314Y-85069980D02*
X118628314Y-84069980D01*
X119009266Y-84069980D01*
X119104504Y-84117600D01*
X119152123Y-84165219D01*
X119199742Y-84260457D01*
X119199742Y-84403314D01*
X119152123Y-84498552D01*
X119104504Y-84546171D01*
X119009266Y-84593790D01*
X118628314Y-84593790D01*
X119580695Y-84165219D02*
X119628314Y-84117600D01*
X119723552Y-84069980D01*
X119961647Y-84069980D01*
X120056885Y-84117600D01*
X120104504Y-84165219D01*
X120152123Y-84260457D01*
X120152123Y-84355695D01*
X120104504Y-84498552D01*
X119533076Y-85069980D01*
X120152123Y-85069980D01*
X121009266Y-84403314D02*
X121009266Y-85069980D01*
X120771171Y-84022361D02*
X120533076Y-84736647D01*
X121152123Y-84736647D01*
X119224742Y-89319980D02*
X118891409Y-88843790D01*
X118653314Y-89319980D02*
X118653314Y-88319980D01*
X119034266Y-88319980D01*
X119129504Y-88367600D01*
X119177123Y-88415219D01*
X119224742Y-88510457D01*
X119224742Y-88653314D01*
X119177123Y-88748552D01*
X119129504Y-88796171D01*
X119034266Y-88843790D01*
X118653314Y-88843790D01*
X119605695Y-88415219D02*
X119653314Y-88367600D01*
X119748552Y-88319980D01*
X119986647Y-88319980D01*
X120081885Y-88367600D01*
X120129504Y-88415219D01*
X120177123Y-88510457D01*
X120177123Y-88605695D01*
X120129504Y-88748552D01*
X119558076Y-89319980D01*
X120177123Y-89319980D01*
X120558076Y-88415219D02*
X120605695Y-88367600D01*
X120700933Y-88319980D01*
X120939028Y-88319980D01*
X121034266Y-88367600D01*
X121081885Y-88415219D01*
X121129504Y-88510457D01*
X121129504Y-88605695D01*
X121081885Y-88748552D01*
X120510457Y-89319980D01*
X121129504Y-89319980D01*
X105424742Y-79769980D02*
X105091409Y-79293790D01*
X104853314Y-79769980D02*
X104853314Y-78769980D01*
X105234266Y-78769980D01*
X105329504Y-78817600D01*
X105377123Y-78865219D01*
X105424742Y-78960457D01*
X105424742Y-79103314D01*
X105377123Y-79198552D01*
X105329504Y-79246171D01*
X105234266Y-79293790D01*
X104853314Y-79293790D01*
X106377123Y-79769980D02*
X105805695Y-79769980D01*
X106091409Y-79769980D02*
X106091409Y-78769980D01*
X105996171Y-78912838D01*
X105900933Y-79008076D01*
X105805695Y-79055695D01*
X106996171Y-78769980D02*
X107091409Y-78769980D01*
X107186647Y-78817600D01*
X107234266Y-78865219D01*
X107281885Y-78960457D01*
X107329504Y-79150933D01*
X107329504Y-79389028D01*
X107281885Y-79579504D01*
X107234266Y-79674742D01*
X107186647Y-79722361D01*
X107091409Y-79769980D01*
X106996171Y-79769980D01*
X106900933Y-79722361D01*
X106853314Y-79674742D01*
X106805695Y-79579504D01*
X106758076Y-79389028D01*
X106758076Y-79150933D01*
X106805695Y-78960457D01*
X106853314Y-78865219D01*
X106900933Y-78817600D01*
X106996171Y-78769980D01*
X119650933Y-79769980D02*
X119317600Y-79293790D01*
X119079504Y-79769980D02*
X119079504Y-78769980D01*
X119460457Y-78769980D01*
X119555695Y-78817600D01*
X119603314Y-78865219D01*
X119650933Y-78960457D01*
X119650933Y-79103314D01*
X119603314Y-79198552D01*
X119555695Y-79246171D01*
X119460457Y-79293790D01*
X119079504Y-79293790D01*
X120508076Y-78769980D02*
X120317600Y-78769980D01*
X120222361Y-78817600D01*
X120174742Y-78865219D01*
X120079504Y-79008076D01*
X120031885Y-79198552D01*
X120031885Y-79579504D01*
X120079504Y-79674742D01*
X120127123Y-79722361D01*
X120222361Y-79769980D01*
X120412838Y-79769980D01*
X120508076Y-79722361D01*
X120555695Y-79674742D01*
X120603314Y-79579504D01*
X120603314Y-79341409D01*
X120555695Y-79246171D01*
X120508076Y-79198552D01*
X120412838Y-79150933D01*
X120222361Y-79150933D01*
X120127123Y-79198552D01*
X120079504Y-79246171D01*
X120031885Y-79341409D01*
X113808076Y-72349504D02*
X113808076Y-72997123D01*
X113846171Y-73073314D01*
X113884266Y-73111409D01*
X113960457Y-73149504D01*
X114112838Y-73149504D01*
X114189028Y-73111409D01*
X114227123Y-73073314D01*
X114265219Y-72997123D01*
X114265219Y-72349504D01*
X114608076Y-72425695D02*
X114646171Y-72387600D01*
X114722361Y-72349504D01*
X114912838Y-72349504D01*
X114989028Y-72387600D01*
X115027123Y-72425695D01*
X115065219Y-72501885D01*
X115065219Y-72578076D01*
X115027123Y-72692361D01*
X114569980Y-73149504D01*
X115065219Y-73149504D01*
X128855695Y-60239980D02*
X128855695Y-61049504D01*
X128903314Y-61144742D01*
X128950933Y-61192361D01*
X129046171Y-61239980D01*
X129236647Y-61239980D01*
X129331885Y-61192361D01*
X129379504Y-61144742D01*
X129427123Y-61049504D01*
X129427123Y-60239980D01*
X130427123Y-61239980D02*
X129855695Y-61239980D01*
X130141409Y-61239980D02*
X130141409Y-60239980D01*
X130046171Y-60382838D01*
X129950933Y-60478076D01*
X129855695Y-60525695D01*
X126069980Y-50606648D02*
X126069980Y-50035219D01*
X127069980Y-50320933D02*
X126069980Y-50320933D01*
X126069980Y-49797124D02*
X127069980Y-49130457D01*
X126069980Y-49130457D02*
X127069980Y-49797124D01*
X127069980Y-48225695D02*
X127069980Y-48797124D01*
X127069980Y-48511410D02*
X126069980Y-48511410D01*
X126212838Y-48606648D01*
X126308076Y-48701886D01*
X126355695Y-48797124D01*
X108019980Y-50130457D02*
X107543790Y-50463790D01*
X108019980Y-50701885D02*
X107019980Y-50701885D01*
X107019980Y-50320933D01*
X107067600Y-50225695D01*
X107115219Y-50178076D01*
X107210457Y-50130457D01*
X107353314Y-50130457D01*
X107448552Y-50178076D01*
X107496171Y-50225695D01*
X107543790Y-50320933D01*
X107543790Y-50701885D01*
X107019980Y-49797123D02*
X108019980Y-49130457D01*
X107019980Y-49130457D02*
X108019980Y-49797123D01*
X108019980Y-48225695D02*
X108019980Y-48797123D01*
X108019980Y-48511409D02*
X107019980Y-48511409D01*
X107162838Y-48606647D01*
X107258076Y-48701885D01*
X107305695Y-48797123D01*
X124050933Y-65839980D02*
X123717600Y-65363790D01*
X123479504Y-65839980D02*
X123479504Y-64839980D01*
X123860457Y-64839980D01*
X123955695Y-64887600D01*
X124003314Y-64935219D01*
X124050933Y-65030457D01*
X124050933Y-65173314D01*
X124003314Y-65268552D01*
X123955695Y-65316171D01*
X123860457Y-65363790D01*
X123479504Y-65363790D01*
X125003314Y-65839980D02*
X124431885Y-65839980D01*
X124717600Y-65839980D02*
X124717600Y-64839980D01*
X124622361Y-64982838D01*
X124527123Y-65078076D01*
X124431885Y-65125695D01*
X116979504Y-92939980D02*
X116979504Y-91939980D01*
X117217600Y-91939980D01*
X117360457Y-91987600D01*
X117455695Y-92082838D01*
X117503314Y-92178076D01*
X117550933Y-92368552D01*
X117550933Y-92511409D01*
X117503314Y-92701885D01*
X117455695Y-92797123D01*
X117360457Y-92892361D01*
X117217600Y-92939980D01*
X116979504Y-92939980D01*
X117931885Y-92035219D02*
X117979504Y-91987600D01*
X118074742Y-91939980D01*
X118312838Y-91939980D01*
X118408076Y-91987600D01*
X118455695Y-92035219D01*
X118503314Y-92130457D01*
X118503314Y-92225695D01*
X118455695Y-92368552D01*
X117884266Y-92939980D01*
X118503314Y-92939980D01*
X106279504Y-102701885D02*
X105898552Y-102968552D01*
X106279504Y-103159028D02*
X105479504Y-103159028D01*
X105479504Y-102854266D01*
X105517600Y-102778076D01*
X105555695Y-102739980D01*
X105631885Y-102701885D01*
X105746171Y-102701885D01*
X105822361Y-102739980D01*
X105860457Y-102778076D01*
X105898552Y-102854266D01*
X105898552Y-103159028D01*
X105555695Y-102397123D02*
X105517600Y-102359028D01*
X105479504Y-102282838D01*
X105479504Y-102092361D01*
X105517600Y-102016171D01*
X105555695Y-101978076D01*
X105631885Y-101939980D01*
X105708076Y-101939980D01*
X105822361Y-101978076D01*
X106279504Y-102435219D01*
X106279504Y-101939980D01*
X105479504Y-101673314D02*
X105479504Y-101178076D01*
X105784266Y-101444742D01*
X105784266Y-101330457D01*
X105822361Y-101254266D01*
X105860457Y-101216171D01*
X105936647Y-101178076D01*
X106127123Y-101178076D01*
X106203314Y-101216171D01*
X106241409Y-101254266D01*
X106279504Y-101330457D01*
X106279504Y-101559028D01*
X106241409Y-101635219D01*
X106203314Y-101673314D01*
X123274742Y-62439980D02*
X122941409Y-61963790D01*
X122703314Y-62439980D02*
X122703314Y-61439980D01*
X123084266Y-61439980D01*
X123179504Y-61487600D01*
X123227123Y-61535219D01*
X123274742Y-61630457D01*
X123274742Y-61773314D01*
X123227123Y-61868552D01*
X123179504Y-61916171D01*
X123084266Y-61963790D01*
X122703314Y-61963790D01*
X123655695Y-61535219D02*
X123703314Y-61487600D01*
X123798552Y-61439980D01*
X124036647Y-61439980D01*
X124131885Y-61487600D01*
X124179504Y-61535219D01*
X124227123Y-61630457D01*
X124227123Y-61725695D01*
X124179504Y-61868552D01*
X123608076Y-62439980D01*
X124227123Y-62439980D01*
X125179504Y-62439980D02*
X124608076Y-62439980D01*
X124893790Y-62439980D02*
X124893790Y-61439980D01*
X124798552Y-61582838D01*
X124703314Y-61678076D01*
X124608076Y-61725695D01*
X109374742Y-71039980D02*
X109041409Y-70563790D01*
X108803314Y-71039980D02*
X108803314Y-70039980D01*
X109184266Y-70039980D01*
X109279504Y-70087600D01*
X109327123Y-70135219D01*
X109374742Y-70230457D01*
X109374742Y-70373314D01*
X109327123Y-70468552D01*
X109279504Y-70516171D01*
X109184266Y-70563790D01*
X108803314Y-70563790D01*
X109755695Y-70135219D02*
X109803314Y-70087600D01*
X109898552Y-70039980D01*
X110136647Y-70039980D01*
X110231885Y-70087600D01*
X110279504Y-70135219D01*
X110327123Y-70230457D01*
X110327123Y-70325695D01*
X110279504Y-70468552D01*
X109708076Y-71039980D01*
X110327123Y-71039980D01*
X110946171Y-70039980D02*
X111041409Y-70039980D01*
X111136647Y-70087600D01*
X111184266Y-70135219D01*
X111231885Y-70230457D01*
X111279504Y-70420933D01*
X111279504Y-70659028D01*
X111231885Y-70849504D01*
X111184266Y-70944742D01*
X111136647Y-70992361D01*
X111041409Y-71039980D01*
X110946171Y-71039980D01*
X110850933Y-70992361D01*
X110803314Y-70944742D01*
X110755695Y-70849504D01*
X110708076Y-70659028D01*
X110708076Y-70420933D01*
X110755695Y-70230457D01*
X110803314Y-70135219D01*
X110850933Y-70087600D01*
X110946171Y-70039980D01*
X114724742Y-80414980D02*
X114391409Y-79938790D01*
X114153314Y-80414980D02*
X114153314Y-79414980D01*
X114534266Y-79414980D01*
X114629504Y-79462600D01*
X114677123Y-79510219D01*
X114724742Y-79605457D01*
X114724742Y-79748314D01*
X114677123Y-79843552D01*
X114629504Y-79891171D01*
X114534266Y-79938790D01*
X114153314Y-79938790D01*
X115677123Y-80414980D02*
X115105695Y-80414980D01*
X115391409Y-80414980D02*
X115391409Y-79414980D01*
X115296171Y-79557838D01*
X115200933Y-79653076D01*
X115105695Y-79700695D01*
X116153314Y-80414980D02*
X116343790Y-80414980D01*
X116439028Y-80367361D01*
X116486647Y-80319742D01*
X116581885Y-80176885D01*
X116629504Y-79986409D01*
X116629504Y-79605457D01*
X116581885Y-79510219D01*
X116534266Y-79462600D01*
X116439028Y-79414980D01*
X116248552Y-79414980D01*
X116153314Y-79462600D01*
X116105695Y-79510219D01*
X116058076Y-79605457D01*
X116058076Y-79843552D01*
X116105695Y-79938790D01*
X116153314Y-79986409D01*
X116248552Y-80034028D01*
X116439028Y-80034028D01*
X116534266Y-79986409D01*
X116581885Y-79938790D01*
X116629504Y-79843552D01*
X107674742Y-58166171D02*
X107246171Y-58466171D01*
X107674742Y-58680457D02*
X106774742Y-58680457D01*
X106774742Y-58337600D01*
X106817600Y-58251885D01*
X106860457Y-58209028D01*
X106946171Y-58166171D01*
X107074742Y-58166171D01*
X107160457Y-58209028D01*
X107203314Y-58251885D01*
X107246171Y-58337600D01*
X107246171Y-58680457D01*
X107674742Y-57309028D02*
X107674742Y-57823314D01*
X107674742Y-57566171D02*
X106774742Y-57566171D01*
X106903314Y-57651885D01*
X106989028Y-57737600D01*
X107031885Y-57823314D01*
X107160457Y-56794742D02*
X107117600Y-56880457D01*
X107074742Y-56923314D01*
X106989028Y-56966171D01*
X106946171Y-56966171D01*
X106860457Y-56923314D01*
X106817600Y-56880457D01*
X106774742Y-56794742D01*
X106774742Y-56623314D01*
X106817600Y-56537600D01*
X106860457Y-56494742D01*
X106946171Y-56451885D01*
X106989028Y-56451885D01*
X107074742Y-56494742D01*
X107117600Y-56537600D01*
X107160457Y-56623314D01*
X107160457Y-56794742D01*
X107203314Y-56880457D01*
X107246171Y-56923314D01*
X107331885Y-56966171D01*
X107503314Y-56966171D01*
X107589028Y-56923314D01*
X107631885Y-56880457D01*
X107674742Y-56794742D01*
X107674742Y-56623314D01*
X107631885Y-56537600D01*
X107589028Y-56494742D01*
X107503314Y-56451885D01*
X107331885Y-56451885D01*
X107246171Y-56494742D01*
X107203314Y-56537600D01*
X107160457Y-56623314D01*
X109374742Y-95059980D02*
X109041409Y-94583790D01*
X108803314Y-95059980D02*
X108803314Y-94059980D01*
X109184266Y-94059980D01*
X109279504Y-94107600D01*
X109327123Y-94155219D01*
X109374742Y-94250457D01*
X109374742Y-94393314D01*
X109327123Y-94488552D01*
X109279504Y-94536171D01*
X109184266Y-94583790D01*
X108803314Y-94583790D01*
X110327123Y-95059980D02*
X109755695Y-95059980D01*
X110041409Y-95059980D02*
X110041409Y-94059980D01*
X109946171Y-94202838D01*
X109850933Y-94298076D01*
X109755695Y-94345695D01*
X110660457Y-94059980D02*
X111327123Y-94059980D01*
X110898552Y-95059980D01*
X104274742Y-54639980D02*
X103941409Y-54163790D01*
X103703314Y-54639980D02*
X103703314Y-53639980D01*
X104084266Y-53639980D01*
X104179504Y-53687600D01*
X104227123Y-53735219D01*
X104274742Y-53830457D01*
X104274742Y-53973314D01*
X104227123Y-54068552D01*
X104179504Y-54116171D01*
X104084266Y-54163790D01*
X103703314Y-54163790D01*
X105227123Y-54639980D02*
X104655695Y-54639980D01*
X104941409Y-54639980D02*
X104941409Y-53639980D01*
X104846171Y-53782838D01*
X104750933Y-53878076D01*
X104655695Y-53925695D01*
X106084266Y-53639980D02*
X105893790Y-53639980D01*
X105798552Y-53687600D01*
X105750933Y-53735219D01*
X105655695Y-53878076D01*
X105608076Y-54068552D01*
X105608076Y-54449504D01*
X105655695Y-54544742D01*
X105703314Y-54592361D01*
X105798552Y-54639980D01*
X105989028Y-54639980D01*
X106084266Y-54592361D01*
X106131885Y-54544742D01*
X106179504Y-54449504D01*
X106179504Y-54211409D01*
X106131885Y-54116171D01*
X106084266Y-54068552D01*
X105989028Y-54020933D01*
X105798552Y-54020933D01*
X105703314Y-54068552D01*
X105655695Y-54116171D01*
X105608076Y-54211409D01*
X107604742Y-99099980D02*
X107271409Y-98623790D01*
X107033314Y-99099980D02*
X107033314Y-98099980D01*
X107414266Y-98099980D01*
X107509504Y-98147600D01*
X107557123Y-98195219D01*
X107604742Y-98290457D01*
X107604742Y-98433314D01*
X107557123Y-98528552D01*
X107509504Y-98576171D01*
X107414266Y-98623790D01*
X107033314Y-98623790D01*
X108557123Y-99099980D02*
X107985695Y-99099980D01*
X108271409Y-99099980D02*
X108271409Y-98099980D01*
X108176171Y-98242838D01*
X108080933Y-98338076D01*
X107985695Y-98385695D01*
X109461885Y-98099980D02*
X108985695Y-98099980D01*
X108938076Y-98576171D01*
X108985695Y-98528552D01*
X109080933Y-98480933D01*
X109319028Y-98480933D01*
X109414266Y-98528552D01*
X109461885Y-98576171D01*
X109509504Y-98671409D01*
X109509504Y-98909504D01*
X109461885Y-99004742D01*
X109414266Y-99052361D01*
X109319028Y-99099980D01*
X109080933Y-99099980D01*
X108985695Y-99052361D01*
X108938076Y-99004742D01*
X123074742Y-69639980D02*
X122741409Y-69163790D01*
X122503314Y-69639980D02*
X122503314Y-68639980D01*
X122884266Y-68639980D01*
X122979504Y-68687600D01*
X123027123Y-68735219D01*
X123074742Y-68830457D01*
X123074742Y-68973314D01*
X123027123Y-69068552D01*
X122979504Y-69116171D01*
X122884266Y-69163790D01*
X122503314Y-69163790D01*
X124027123Y-69639980D02*
X123455695Y-69639980D01*
X123741409Y-69639980D02*
X123741409Y-68639980D01*
X123646171Y-68782838D01*
X123550933Y-68878076D01*
X123455695Y-68925695D01*
X124884266Y-68973314D02*
X124884266Y-69639980D01*
X124646171Y-68592361D02*
X124408076Y-69306647D01*
X125027123Y-69306647D01*
X118350933Y-58739980D02*
X118017600Y-58263790D01*
X117779504Y-58739980D02*
X117779504Y-57739980D01*
X118160457Y-57739980D01*
X118255695Y-57787600D01*
X118303314Y-57835219D01*
X118350933Y-57930457D01*
X118350933Y-58073314D01*
X118303314Y-58168552D01*
X118255695Y-58216171D01*
X118160457Y-58263790D01*
X117779504Y-58263790D01*
X119255695Y-57739980D02*
X118779504Y-57739980D01*
X118731885Y-58216171D01*
X118779504Y-58168552D01*
X118874742Y-58120933D01*
X119112838Y-58120933D01*
X119208076Y-58168552D01*
X119255695Y-58216171D01*
X119303314Y-58311409D01*
X119303314Y-58549504D01*
X119255695Y-58644742D01*
X119208076Y-58692361D01*
X119112838Y-58739980D01*
X118874742Y-58739980D01*
X118779504Y-58692361D01*
X118731885Y-58644742D01*
X109050933Y-66939980D02*
X108717600Y-66463790D01*
X108479504Y-66939980D02*
X108479504Y-65939980D01*
X108860457Y-65939980D01*
X108955695Y-65987600D01*
X109003314Y-66035219D01*
X109050933Y-66130457D01*
X109050933Y-66273314D01*
X109003314Y-66368552D01*
X108955695Y-66416171D01*
X108860457Y-66463790D01*
X108479504Y-66463790D01*
X109431885Y-66035219D02*
X109479504Y-65987600D01*
X109574742Y-65939980D01*
X109812838Y-65939980D01*
X109908076Y-65987600D01*
X109955695Y-66035219D01*
X110003314Y-66130457D01*
X110003314Y-66225695D01*
X109955695Y-66368552D01*
X109384266Y-66939980D01*
X110003314Y-66939980D01*
X127784266Y-93016171D02*
X127450933Y-93016171D01*
X127450933Y-93539980D02*
X127450933Y-92539980D01*
X127927123Y-92539980D01*
X128831885Y-93539980D02*
X128260457Y-93539980D01*
X128546171Y-93539980D02*
X128546171Y-92539980D01*
X128450933Y-92682838D01*
X128355695Y-92778076D01*
X128260457Y-92825695D01*
X124815219Y-83966171D02*
X125148552Y-83966171D01*
X125291409Y-84489980D02*
X124815219Y-84489980D01*
X124815219Y-83489980D01*
X125291409Y-83489980D01*
X125624742Y-83489980D02*
X126291409Y-84489980D01*
X126291409Y-83489980D02*
X125624742Y-84489980D01*
X126529504Y-83489980D02*
X127100933Y-83489980D01*
X126815219Y-84489980D02*
X126815219Y-83489980D01*
X127291409Y-83489980D02*
X127862838Y-83489980D01*
X127577123Y-84489980D02*
X127577123Y-83489980D01*
X128196171Y-83966171D02*
X128529504Y-83966171D01*
X128672361Y-84489980D02*
X128196171Y-84489980D01*
X128196171Y-83489980D01*
X128672361Y-83489980D01*
X129100933Y-84489980D02*
X129100933Y-83489980D01*
X129434266Y-84204266D01*
X129767600Y-83489980D01*
X129767600Y-84489980D01*
X130243790Y-84489980D02*
X130243790Y-83489980D01*
X130624742Y-83489980D01*
X130719980Y-83537600D01*
X130767600Y-83585219D01*
X130815219Y-83680457D01*
X130815219Y-83823314D01*
X130767600Y-83918552D01*
X130719980Y-83966171D01*
X130624742Y-84013790D01*
X130243790Y-84013790D01*
X131767600Y-84489980D02*
X131196171Y-84489980D01*
X131481885Y-84489980D02*
X131481885Y-83489980D01*
X131386647Y-83632838D01*
X131291409Y-83728076D01*
X131196171Y-83775695D01*
X112779504Y-95104980D02*
X112779504Y-94104980D01*
X113017600Y-94104980D01*
X113160457Y-94152600D01*
X113255695Y-94247838D01*
X113303314Y-94343076D01*
X113350933Y-94533552D01*
X113350933Y-94676409D01*
X113303314Y-94866885D01*
X113255695Y-94962123D01*
X113160457Y-95057361D01*
X113017600Y-95104980D01*
X112779504Y-95104980D01*
X113684266Y-94104980D02*
X114303314Y-94104980D01*
X113969980Y-94485933D01*
X114112838Y-94485933D01*
X114208076Y-94533552D01*
X114255695Y-94581171D01*
X114303314Y-94676409D01*
X114303314Y-94914504D01*
X114255695Y-95009742D01*
X114208076Y-95057361D01*
X114112838Y-95104980D01*
X113827123Y-95104980D01*
X113731885Y-95057361D01*
X113684266Y-95009742D01*
X109403314Y-59994742D02*
X109403314Y-59094742D01*
X109617600Y-59094742D01*
X109746171Y-59137600D01*
X109831885Y-59223314D01*
X109874742Y-59309028D01*
X109917600Y-59480457D01*
X109917600Y-59609028D01*
X109874742Y-59780457D01*
X109831885Y-59866171D01*
X109746171Y-59951885D01*
X109617600Y-59994742D01*
X109403314Y-59994742D01*
X110774742Y-59994742D02*
X110260457Y-59994742D01*
X110517600Y-59994742D02*
X110517600Y-59094742D01*
X110431885Y-59223314D01*
X110346171Y-59309028D01*
X110260457Y-59351885D01*
X115150933Y-60244742D02*
X115103314Y-60292361D01*
X114960457Y-60339980D01*
X114865219Y-60339980D01*
X114722361Y-60292361D01*
X114627123Y-60197123D01*
X114579504Y-60101885D01*
X114531885Y-59911409D01*
X114531885Y-59768552D01*
X114579504Y-59578076D01*
X114627123Y-59482838D01*
X114722361Y-59387600D01*
X114865219Y-59339980D01*
X114960457Y-59339980D01*
X115103314Y-59387600D01*
X115150933Y-59435219D01*
X115531885Y-59435219D02*
X115579504Y-59387600D01*
X115674742Y-59339980D01*
X115912838Y-59339980D01*
X116008076Y-59387600D01*
X116055695Y-59435219D01*
X116103314Y-59530457D01*
X116103314Y-59625695D01*
X116055695Y-59768552D01*
X115484266Y-60339980D01*
X116103314Y-60339980D01*
X119100933Y-60244742D02*
X119053314Y-60292361D01*
X118910457Y-60339980D01*
X118815219Y-60339980D01*
X118672361Y-60292361D01*
X118577123Y-60197123D01*
X118529504Y-60101885D01*
X118481885Y-59911409D01*
X118481885Y-59768552D01*
X118529504Y-59578076D01*
X118577123Y-59482838D01*
X118672361Y-59387600D01*
X118815219Y-59339980D01*
X118910457Y-59339980D01*
X119053314Y-59387600D01*
X119100933Y-59435219D01*
X120053314Y-60339980D02*
X119481885Y-60339980D01*
X119767600Y-60339980D02*
X119767600Y-59339980D01*
X119672361Y-59482838D01*
X119577123Y-59578076D01*
X119481885Y-59625695D01*
D16*
X103100933Y-95254266D02*
X103067600Y-95320933D01*
X103000933Y-95387600D01*
X102900933Y-95487600D01*
X102867600Y-95554266D01*
X102867600Y-95620933D01*
X103034266Y-95587600D02*
X103000933Y-95654266D01*
X102934266Y-95720933D01*
X102800933Y-95754266D01*
X102567600Y-95754266D01*
X102434266Y-95720933D01*
X102367600Y-95654266D01*
X102334266Y-95587600D01*
X102334266Y-95454266D01*
X102367600Y-95387600D01*
X102434266Y-95320933D01*
X102567600Y-95287600D01*
X102800933Y-95287600D01*
X102934266Y-95320933D01*
X103000933Y-95387600D01*
X103034266Y-95454266D01*
X103034266Y-95587600D01*
X103034266Y-94620933D02*
X103034266Y-95020933D01*
X103034266Y-94820933D02*
X102334266Y-94820933D01*
X102434266Y-94887600D01*
X102500933Y-94954266D01*
X102534266Y-95020933D01*
M02*
