M48
; DRILL file {KiCad 5.1.5-52549c5~84~ubuntu18.04.1} date Sat 11 Jan 2020 10:10:04 CET
; FORMAT={-:-/ absolute / inch / decimal}
; #@! TF.CreationDate,2020-01-11T10:10:04+01:00
; #@! TF.GenerationSoftware,Kicad,Pcbnew,5.1.5-52549c5~84~ubuntu18.04.1
; #@! TF.FileFunction,Plated,1,2,PTH
FMAT,2
INCH
T1C0.0157
T2C0.0295
T3C0.0354
T4C0.0394
T5C0.0400
%
G90
G05
T1
X3.0906Y-4.4685
X3.376Y-4.4193
X3.3957Y-4.5866
X3.4646Y-4.7638
X3.5728Y-4.7933
X3.5925Y-4.6457
X3.9665Y-4.7539
X3.9862Y-4.4685
X4.3307Y-4.4291
X4.7736Y-4.8648
X4.8819Y-4.2717
X5.1919Y-4.4537
X5.2264Y-4.3799
X5.2854Y-4.5866
X5.3232Y-4.2033
X5.3246Y-4.3282
T2
X4.5571Y-4.9311
X4.6358Y-4.9311
X5.2854Y-4.9311
X5.3642Y-4.9311
X4.2717Y-4.9311
X4.3504Y-4.9311
X5.5413Y-4.3957
X5.5413Y-4.4744
X5.5413Y-4.7087
X5.5413Y-4.7874
X4.8406Y-4.9311
X4.9193Y-4.9311
T3
X2.9413Y-4.6161
X3.0413Y-4.6161
T4
X4.9606Y-4.1043
X5.0606Y-4.1043
X5.1606Y-4.1043
X5.2606Y-4.1043
X5.3606Y-4.1043
X5.4606Y-4.1043
X3.8976Y-5.0492
X3.9976Y-5.0492
X4.0976Y-5.0492
X4.4783Y-4.6457
X4.5783Y-4.6457
X4.7819Y-4.6457
X4.8819Y-4.6457
X3.248Y-5.0492
X3.348Y-5.0492
X3.448Y-5.0492
T5
X3.1917Y-4.1185
X3.1917Y-4.2185
X3.1917Y-4.3185
X3.1917Y-4.4185
X3.1917Y-4.5185
X3.1917Y-4.6185
X3.1917Y-4.7185
X3.1917Y-4.8185
X4.0917Y-4.1185
X4.0917Y-4.2185
X4.0917Y-4.3185
X4.0917Y-4.4185
X4.0917Y-4.5185
X4.0917Y-4.6185
X4.0917Y-4.7185
X4.0917Y-4.8185
T0
M30
