G04 #@! TF.GenerationSoftware,KiCad,Pcbnew,(5.1.0)-1*
G04 #@! TF.CreationDate,2019-05-23T19:45:29+01:00*
G04 #@! TF.ProjectId,ESPControllerCircuit,45535043-6f6e-4747-926f-6c6c65724369,rev?*
G04 #@! TF.SameCoordinates,Original*
G04 #@! TF.FileFunction,Copper,L1,Top*
G04 #@! TF.FilePolarity,Positive*
%FSLAX46Y46*%
G04 Gerber Fmt 4.6, Leading zero omitted, Abs format (unit mm)*
G04 Created by KiCad (PCBNEW (5.1.0)-1) date 2019-05-23 19:45:29*
%MOMM*%
%LPD*%
G04 APERTURE LIST*
%ADD10R,1.700000X1.700000*%
%ADD11O,1.700000X1.700000*%
%ADD12R,1.700000X1.200000*%
%ADD13O,1.700000X1.200000*%
%ADD14R,1.200000X1.700000*%
%ADD15O,1.200000X1.700000*%
%ADD16R,1.800000X1.800000*%
%ADD17C,1.800000*%
%ADD18R,1.143000X0.508000*%
%ADD19R,1.500000X1.300000*%
%ADD20R,0.800000X1.300000*%
%ADD21C,0.800000*%
%ADD22C,0.250000*%
%ADD23C,0.500000*%
%ADD24C,0.254000*%
G04 APERTURE END LIST*
D10*
X82500000Y-130000000D03*
D11*
X85040000Y-130000000D03*
X87580000Y-130000000D03*
D12*
X150750000Y-113900000D03*
D13*
X150750000Y-111900000D03*
D12*
X150750000Y-121850000D03*
D13*
X150750000Y-119850000D03*
D14*
X132950000Y-125250000D03*
D15*
X134950000Y-125250000D03*
D14*
X125750000Y-125250000D03*
D15*
X127750000Y-125250000D03*
D10*
X108500000Y-128250000D03*
D11*
X111040000Y-128250000D03*
X113580000Y-128250000D03*
D16*
X77250000Y-117250000D03*
D17*
X74710000Y-117250000D03*
D10*
X124000000Y-118000000D03*
D11*
X121460000Y-118000000D03*
D10*
X125500000Y-104250000D03*
D11*
X128040000Y-104250000D03*
X130580000Y-104250000D03*
X133120000Y-104250000D03*
X135660000Y-104250000D03*
X138200000Y-104250000D03*
D18*
X129420000Y-109055000D03*
X129420000Y-110325000D03*
X129420000Y-111595000D03*
X129420000Y-112865000D03*
X129420000Y-114135000D03*
X129420000Y-115405000D03*
X129420000Y-116675000D03*
X129420000Y-117945000D03*
X139580000Y-117945000D03*
X139580000Y-116675000D03*
X139580000Y-115405000D03*
X139580000Y-114135000D03*
X139580000Y-112865000D03*
X139580000Y-111595000D03*
X139580000Y-110325000D03*
X139580000Y-109055000D03*
D19*
X93350000Y-123250000D03*
X90650000Y-123250000D03*
X93350000Y-119812500D03*
X90650000Y-119812500D03*
D20*
X140390000Y-124350000D03*
X139110000Y-124350000D03*
X139110000Y-130650000D03*
X140390000Y-130650000D03*
D14*
X144250000Y-125250000D03*
D15*
X146250000Y-125250000D03*
D14*
X118500000Y-125250000D03*
D15*
X120500000Y-125250000D03*
D19*
X93350000Y-116375000D03*
X90650000Y-116375000D03*
X93350000Y-112937500D03*
X90650000Y-112937500D03*
D10*
X113750000Y-118000000D03*
D11*
X116290000Y-118000000D03*
D19*
X77350000Y-111250000D03*
X74650000Y-111250000D03*
D17*
X103930000Y-104610000D03*
X81070000Y-104610000D03*
X103930000Y-107150000D03*
X81070000Y-107150000D03*
X103930000Y-109690000D03*
X81070000Y-109690000D03*
X103930000Y-112230000D03*
X81070000Y-112230000D03*
X103930000Y-114770000D03*
X81070000Y-114770000D03*
X103930000Y-117310000D03*
X81070000Y-117310000D03*
X103930000Y-119850000D03*
X81070000Y-119850000D03*
X103930000Y-122390000D03*
X81070000Y-122390000D03*
D21*
X121500000Y-108500000D03*
X135250000Y-110000000D03*
X136000000Y-117000000D03*
X84500000Y-124500000D03*
X121750000Y-122000000D03*
X120000000Y-112000000D03*
X88000000Y-121000000D03*
X136249990Y-111750000D03*
X136000000Y-121000000D03*
X96250000Y-117250000D03*
X135500000Y-107250000D03*
X89250002Y-118500000D03*
X90749984Y-121750000D03*
X135500000Y-113000000D03*
X109500000Y-112250000D03*
X137250000Y-114000000D03*
X111500000Y-109750004D03*
D22*
X129420000Y-111595000D02*
X129420000Y-110325000D01*
X129420000Y-109055000D02*
X129420000Y-110325000D01*
X139110000Y-125640000D02*
X139110000Y-124350000D01*
X138000000Y-126750000D02*
X139110000Y-125640000D01*
X133350000Y-126750000D02*
X138000000Y-126750000D01*
X132950000Y-125250000D02*
X132950000Y-126350000D01*
X132950000Y-126350000D02*
X133350000Y-126750000D01*
D23*
X93350000Y-122350000D02*
X93350000Y-119812500D01*
X93350000Y-123250000D02*
X93350000Y-122350000D01*
X93350000Y-123900000D02*
X93350000Y-123250000D01*
X92250000Y-125000000D02*
X93350000Y-123900000D01*
X89000000Y-125000000D02*
X92250000Y-125000000D01*
X81070000Y-122390000D02*
X86390000Y-122390000D01*
X86390000Y-122390000D02*
X89000000Y-125000000D01*
X93450000Y-123250000D02*
X94700000Y-124500000D01*
X93350000Y-123250000D02*
X93450000Y-123250000D01*
X94700000Y-124500000D02*
X115000000Y-124500000D01*
X115000000Y-124500000D02*
X116500000Y-123000000D01*
D22*
X113580000Y-125920000D02*
X116500000Y-123000000D01*
X113580000Y-128250000D02*
X113580000Y-125920000D01*
D23*
X120500000Y-124000000D02*
X120500000Y-125250000D01*
X116500000Y-123000000D02*
X119500000Y-123000000D01*
X119500000Y-123000000D02*
X120500000Y-124000000D01*
D22*
X136567500Y-111750000D02*
X136249990Y-111750000D01*
X139262500Y-109055000D02*
X136567500Y-111750000D01*
X139580000Y-109055000D02*
X139262500Y-109055000D01*
X81969999Y-123289999D02*
X85289999Y-123289999D01*
X81070000Y-122390000D02*
X81969999Y-123289999D01*
X87580000Y-125580000D02*
X87580000Y-130000000D01*
X85289999Y-123289999D02*
X87580000Y-125580000D01*
X79797208Y-109690000D02*
X81070000Y-109690000D01*
X76310000Y-109690000D02*
X79797208Y-109690000D01*
X74750000Y-111250000D02*
X76310000Y-109690000D01*
X74650000Y-111250000D02*
X74750000Y-111250000D01*
X77350000Y-114610000D02*
X77350000Y-111250000D01*
X74710000Y-117250000D02*
X77350000Y-114610000D01*
X113060000Y-117310000D02*
X113750000Y-118000000D01*
X103930000Y-117310000D02*
X113060000Y-117310000D01*
X137290000Y-121000000D02*
X136000000Y-121000000D01*
X140390000Y-124350000D02*
X140390000Y-124100000D01*
X140390000Y-124100000D02*
X137290000Y-121000000D01*
X95375000Y-116375000D02*
X95850001Y-116850001D01*
X95850001Y-116850001D02*
X96250000Y-117250000D01*
X93350000Y-116375000D02*
X95375000Y-116375000D01*
X88875000Y-116375000D02*
X90650000Y-116375000D01*
X81070000Y-119850000D02*
X85400000Y-119850000D01*
X85400000Y-119850000D02*
X88875000Y-116375000D01*
D23*
X139110000Y-128640000D02*
X139110000Y-130650000D01*
X140250000Y-127500000D02*
X139110000Y-128640000D01*
X143000000Y-127500000D02*
X140250000Y-127500000D01*
X144250000Y-125250000D02*
X144250000Y-126250000D01*
X144250000Y-126250000D02*
X143000000Y-127500000D01*
X146250000Y-127750000D02*
X146250000Y-125250000D01*
X140390000Y-130650000D02*
X143350000Y-130650000D01*
X143350000Y-130650000D02*
X146250000Y-127750000D01*
D22*
X82440000Y-117310000D02*
X81070000Y-117310000D01*
X86812500Y-112937500D02*
X82440000Y-117310000D01*
X90650000Y-112937500D02*
X86812500Y-112937500D01*
X139897500Y-110325000D02*
X140750000Y-109472500D01*
X140750000Y-109472500D02*
X140750000Y-108250000D01*
X139580000Y-110325000D02*
X139897500Y-110325000D01*
X139750000Y-107250000D02*
X136065685Y-107250000D01*
X136065685Y-107250000D02*
X135500000Y-107250000D01*
X140750000Y-108250000D02*
X139750000Y-107250000D01*
X90550000Y-119812500D02*
X89250002Y-118512502D01*
X89250002Y-118512502D02*
X89250002Y-118500000D01*
X90650000Y-119812500D02*
X90550000Y-119812500D01*
X90650000Y-123250000D02*
X90650000Y-121849984D01*
X90650000Y-121849984D02*
X90749984Y-121750000D01*
X139580000Y-111595000D02*
X137655000Y-111595000D01*
X136250000Y-113000000D02*
X136065685Y-113000000D01*
X137655000Y-111595000D02*
X136250000Y-113000000D01*
X136065685Y-113000000D02*
X135500000Y-113000000D01*
X103930000Y-112230000D02*
X109480000Y-112230000D01*
X109480000Y-112230000D02*
X109500000Y-112250000D01*
X139580000Y-112865000D02*
X138385000Y-112865000D01*
X137649999Y-113600001D02*
X137250000Y-114000000D01*
X138385000Y-112865000D02*
X137649999Y-113600001D01*
X81070000Y-112230000D02*
X90300000Y-103000000D01*
X90300000Y-103000000D02*
X104749996Y-103000000D01*
X104749996Y-103000000D02*
X111100001Y-109350005D01*
X111100001Y-109350005D02*
X111500000Y-109750004D01*
X128889999Y-105099999D02*
X128040000Y-104250000D01*
X131000000Y-107210000D02*
X128889999Y-105099999D01*
X131000000Y-112106500D02*
X131000000Y-107210000D01*
X129420000Y-112865000D02*
X130241500Y-112865000D01*
X130241500Y-112865000D02*
X131000000Y-112106500D01*
X130580000Y-105452081D02*
X130580000Y-104250000D01*
X132000000Y-106872081D02*
X130580000Y-105452081D01*
X132000000Y-112376500D02*
X132000000Y-106872081D01*
X129420000Y-114135000D02*
X130241500Y-114135000D01*
X130241500Y-114135000D02*
X132000000Y-112376500D01*
X132824988Y-112317512D02*
X132824988Y-105747093D01*
X129737500Y-115405000D02*
X132824988Y-112317512D01*
X133120000Y-105452081D02*
X133120000Y-104250000D01*
X129420000Y-115405000D02*
X129737500Y-115405000D01*
X132824988Y-105747093D02*
X133120000Y-105452081D01*
X129420000Y-116675000D02*
X129737500Y-116675000D01*
X134810001Y-105099999D02*
X135660000Y-104250000D01*
X133274999Y-113137501D02*
X133274999Y-106635001D01*
X133274999Y-106635001D02*
X134810001Y-105099999D01*
X129737500Y-116675000D02*
X133274999Y-113137501D01*
X104160000Y-115000000D02*
X103930000Y-114770000D01*
X121460000Y-118000000D02*
X118460000Y-115000000D01*
X118460000Y-115000000D02*
X104160000Y-115000000D01*
X130750000Y-122250000D02*
X127750000Y-125250000D01*
X139580000Y-117945000D02*
X135055000Y-117945000D01*
X135055000Y-117945000D02*
X130750000Y-122250000D01*
X139897500Y-116675000D02*
X139580000Y-116675000D01*
X134950000Y-120550000D02*
X136500000Y-119000000D01*
X134950000Y-125250000D02*
X134950000Y-120550000D01*
X136500000Y-119000000D02*
X141250000Y-119000000D01*
X141250000Y-119000000D02*
X141500000Y-118750000D01*
X141500000Y-118750000D02*
X141500000Y-118277500D01*
X141500000Y-118277500D02*
X139897500Y-116675000D01*
X150750000Y-119000000D02*
X150750000Y-119850000D01*
X147155000Y-115405000D02*
X150750000Y-119000000D01*
X139580000Y-115405000D02*
X147155000Y-115405000D01*
X140401500Y-114135000D02*
X139580000Y-114135000D01*
X147415000Y-114135000D02*
X140401500Y-114135000D01*
X149650000Y-111900000D02*
X147415000Y-114135000D01*
X150750000Y-111900000D02*
X149650000Y-111900000D01*
X82500000Y-128900000D02*
X82500000Y-130000000D01*
X79500000Y-125900000D02*
X82500000Y-128900000D01*
X81070000Y-114770000D02*
X79500000Y-116340000D01*
X79500000Y-116340000D02*
X79500000Y-125900000D01*
D24*
G36*
X155759659Y-102688625D02*
G01*
X156009429Y-102764035D01*
X156239792Y-102886522D01*
X156441980Y-103051422D01*
X156608286Y-103252450D01*
X156732378Y-103481954D01*
X156809531Y-103731195D01*
X156840000Y-104021089D01*
X156840001Y-129967711D01*
X156811375Y-130259660D01*
X156735965Y-130509429D01*
X156613477Y-130739794D01*
X156448579Y-130941979D01*
X156247546Y-131108288D01*
X156018046Y-131232378D01*
X155768805Y-131309531D01*
X155478911Y-131340000D01*
X148877000Y-131340000D01*
X148877000Y-128279872D01*
X151765000Y-128279872D01*
X151765000Y-128720128D01*
X151850890Y-129151925D01*
X152019369Y-129558669D01*
X152263962Y-129924729D01*
X152575271Y-130236038D01*
X152941331Y-130480631D01*
X153348075Y-130649110D01*
X153779872Y-130735000D01*
X154220128Y-130735000D01*
X154651925Y-130649110D01*
X155058669Y-130480631D01*
X155424729Y-130236038D01*
X155736038Y-129924729D01*
X155980631Y-129558669D01*
X156149110Y-129151925D01*
X156235000Y-128720128D01*
X156235000Y-128279872D01*
X156149110Y-127848075D01*
X155980631Y-127441331D01*
X155736038Y-127075271D01*
X155424729Y-126763962D01*
X155058669Y-126519369D01*
X154651925Y-126350890D01*
X154220128Y-126265000D01*
X153779872Y-126265000D01*
X153348075Y-126350890D01*
X152941331Y-126519369D01*
X152575271Y-126763962D01*
X152263962Y-127075271D01*
X152019369Y-127441331D01*
X151850890Y-127848075D01*
X151765000Y-128279872D01*
X148877000Y-128279872D01*
X148877000Y-123000000D01*
X148874560Y-122975224D01*
X148867333Y-122951399D01*
X148855597Y-122929443D01*
X148839803Y-122910197D01*
X148820557Y-122894403D01*
X148798601Y-122882667D01*
X148774776Y-122875440D01*
X148750000Y-122873000D01*
X140237802Y-122873000D01*
X139814802Y-122450000D01*
X149261928Y-122450000D01*
X149274188Y-122574482D01*
X149310498Y-122694180D01*
X149369463Y-122804494D01*
X149448815Y-122901185D01*
X149545506Y-122980537D01*
X149655820Y-123039502D01*
X149775518Y-123075812D01*
X149900000Y-123088072D01*
X150464250Y-123085000D01*
X150623000Y-122926250D01*
X150623000Y-121977000D01*
X150877000Y-121977000D01*
X150877000Y-122926250D01*
X151035750Y-123085000D01*
X151600000Y-123088072D01*
X151724482Y-123075812D01*
X151844180Y-123039502D01*
X151954494Y-122980537D01*
X152051185Y-122901185D01*
X152130537Y-122804494D01*
X152189502Y-122694180D01*
X152225812Y-122574482D01*
X152238072Y-122450000D01*
X152235000Y-122135750D01*
X152076250Y-121977000D01*
X150877000Y-121977000D01*
X150623000Y-121977000D01*
X149423750Y-121977000D01*
X149265000Y-122135750D01*
X149261928Y-122450000D01*
X139814802Y-122450000D01*
X137853804Y-120489003D01*
X137830001Y-120459999D01*
X137714276Y-120365026D01*
X137582247Y-120294454D01*
X137438986Y-120250997D01*
X137327333Y-120240000D01*
X137327322Y-120240000D01*
X137290000Y-120236324D01*
X137252678Y-120240000D01*
X136703711Y-120240000D01*
X136659774Y-120196063D01*
X136491305Y-120083496D01*
X136814802Y-119760000D01*
X141212678Y-119760000D01*
X141250000Y-119763676D01*
X141287322Y-119760000D01*
X141287333Y-119760000D01*
X141398986Y-119749003D01*
X141542247Y-119705546D01*
X141674276Y-119634974D01*
X141790001Y-119540001D01*
X141813803Y-119510998D01*
X142011003Y-119313799D01*
X142040001Y-119290001D01*
X142134974Y-119174276D01*
X142205546Y-119042247D01*
X142249003Y-118898986D01*
X142260000Y-118787333D01*
X142260000Y-118787324D01*
X142263676Y-118750001D01*
X142260000Y-118712678D01*
X142260000Y-118314822D01*
X142263676Y-118277499D01*
X142260000Y-118240176D01*
X142260000Y-118240168D01*
X142249003Y-118128514D01*
X142205546Y-117985253D01*
X142134974Y-117853224D01*
X142040001Y-117737499D01*
X142011003Y-117713701D01*
X140789572Y-116492271D01*
X140789572Y-116421000D01*
X140777312Y-116296518D01*
X140741002Y-116176820D01*
X140734684Y-116165000D01*
X146840199Y-116165000D01*
X149636338Y-118961140D01*
X149622498Y-118972498D01*
X149468167Y-119160551D01*
X149353489Y-119375099D01*
X149282870Y-119607898D01*
X149259025Y-119850000D01*
X149282870Y-120092102D01*
X149353489Y-120324901D01*
X149468167Y-120539449D01*
X149594436Y-120693309D01*
X149545506Y-120719463D01*
X149448815Y-120798815D01*
X149369463Y-120895506D01*
X149310498Y-121005820D01*
X149274188Y-121125518D01*
X149261928Y-121250000D01*
X149265000Y-121564250D01*
X149423750Y-121723000D01*
X150623000Y-121723000D01*
X150623000Y-121703000D01*
X150877000Y-121703000D01*
X150877000Y-121723000D01*
X152076250Y-121723000D01*
X152235000Y-121564250D01*
X152238072Y-121250000D01*
X152225812Y-121125518D01*
X152189502Y-121005820D01*
X152130537Y-120895506D01*
X152051185Y-120798815D01*
X151954494Y-120719463D01*
X151905564Y-120693309D01*
X152031833Y-120539449D01*
X152146511Y-120324901D01*
X152217130Y-120092102D01*
X152240975Y-119850000D01*
X152217130Y-119607898D01*
X152146511Y-119375099D01*
X152031833Y-119160551D01*
X151877502Y-118972498D01*
X151689449Y-118818167D01*
X151474901Y-118703489D01*
X151449080Y-118695656D01*
X151384974Y-118575724D01*
X151290001Y-118459999D01*
X151261003Y-118436201D01*
X147718804Y-114894003D01*
X147695001Y-114864999D01*
X147676551Y-114849857D01*
X147707247Y-114840546D01*
X147839276Y-114769974D01*
X147955001Y-114675001D01*
X147978804Y-114645997D01*
X148124801Y-114500000D01*
X149261928Y-114500000D01*
X149274188Y-114624482D01*
X149310498Y-114744180D01*
X149369463Y-114854494D01*
X149448815Y-114951185D01*
X149545506Y-115030537D01*
X149655820Y-115089502D01*
X149775518Y-115125812D01*
X149900000Y-115138072D01*
X150464250Y-115135000D01*
X150623000Y-114976250D01*
X150623000Y-114027000D01*
X150877000Y-114027000D01*
X150877000Y-114976250D01*
X151035750Y-115135000D01*
X151600000Y-115138072D01*
X151724482Y-115125812D01*
X151844180Y-115089502D01*
X151954494Y-115030537D01*
X152051185Y-114951185D01*
X152130537Y-114854494D01*
X152189502Y-114744180D01*
X152225812Y-114624482D01*
X152238072Y-114500000D01*
X152235000Y-114185750D01*
X152076250Y-114027000D01*
X150877000Y-114027000D01*
X150623000Y-114027000D01*
X149423750Y-114027000D01*
X149265000Y-114185750D01*
X149261928Y-114500000D01*
X148124801Y-114500000D01*
X149262537Y-113362265D01*
X149265000Y-113614250D01*
X149423750Y-113773000D01*
X150623000Y-113773000D01*
X150623000Y-113753000D01*
X150877000Y-113753000D01*
X150877000Y-113773000D01*
X152076250Y-113773000D01*
X152235000Y-113614250D01*
X152238072Y-113300000D01*
X152225812Y-113175518D01*
X152189502Y-113055820D01*
X152130537Y-112945506D01*
X152051185Y-112848815D01*
X151954494Y-112769463D01*
X151905564Y-112743309D01*
X152031833Y-112589449D01*
X152146511Y-112374901D01*
X152217130Y-112142102D01*
X152240975Y-111900000D01*
X152217130Y-111657898D01*
X152146511Y-111425099D01*
X152031833Y-111210551D01*
X151877502Y-111022498D01*
X151689449Y-110868167D01*
X151474901Y-110753489D01*
X151242102Y-110682870D01*
X151060665Y-110665000D01*
X150439335Y-110665000D01*
X150257898Y-110682870D01*
X150025099Y-110753489D01*
X149810551Y-110868167D01*
X149622498Y-111022498D01*
X149518451Y-111149280D01*
X149501014Y-111150997D01*
X149357753Y-111194454D01*
X149225724Y-111265026D01*
X149109999Y-111359999D01*
X149086201Y-111388997D01*
X147100199Y-113375000D01*
X140734684Y-113375000D01*
X140741002Y-113363180D01*
X140777312Y-113243482D01*
X140789572Y-113119000D01*
X140789572Y-112611000D01*
X140777312Y-112486518D01*
X140741002Y-112366820D01*
X140682037Y-112256506D01*
X140660284Y-112230000D01*
X140682037Y-112203494D01*
X140741002Y-112093180D01*
X140777312Y-111973482D01*
X140789572Y-111849000D01*
X140789572Y-111341000D01*
X140777312Y-111216518D01*
X140741002Y-111096820D01*
X140682037Y-110986506D01*
X140660284Y-110960000D01*
X140682037Y-110933494D01*
X140741002Y-110823180D01*
X140777312Y-110703482D01*
X140789572Y-110579000D01*
X140789572Y-110507729D01*
X141261004Y-110036298D01*
X141290001Y-110012501D01*
X141344152Y-109946518D01*
X141384974Y-109896777D01*
X141455546Y-109764747D01*
X141470179Y-109716506D01*
X141499003Y-109621486D01*
X141510000Y-109509833D01*
X141510000Y-109509824D01*
X141513676Y-109472501D01*
X141510000Y-109435178D01*
X141510000Y-108287333D01*
X141513677Y-108250000D01*
X141499003Y-108101014D01*
X141455546Y-107957753D01*
X141384974Y-107825724D01*
X141313799Y-107738997D01*
X141290001Y-107709999D01*
X141261003Y-107686201D01*
X140313804Y-106739002D01*
X140290001Y-106709999D01*
X140174276Y-106615026D01*
X140042247Y-106544454D01*
X139898986Y-106500997D01*
X139787333Y-106490000D01*
X139787322Y-106490000D01*
X139750000Y-106486324D01*
X139712678Y-106490000D01*
X136203711Y-106490000D01*
X136159774Y-106446063D01*
X135990256Y-106332795D01*
X135801898Y-106254774D01*
X135601939Y-106215000D01*
X135398061Y-106215000D01*
X135198102Y-106254774D01*
X135009744Y-106332795D01*
X134840226Y-106446063D01*
X134696063Y-106590226D01*
X134582795Y-106759744D01*
X134504774Y-106948102D01*
X134465000Y-107148061D01*
X134465000Y-107351939D01*
X134504774Y-107551898D01*
X134582795Y-107740256D01*
X134696063Y-107909774D01*
X134840226Y-108053937D01*
X135009744Y-108167205D01*
X135198102Y-108245226D01*
X135398061Y-108285000D01*
X135601939Y-108285000D01*
X135801898Y-108245226D01*
X135990256Y-108167205D01*
X136159774Y-108053937D01*
X136203711Y-108010000D01*
X139435199Y-108010000D01*
X139588127Y-108162928D01*
X139008500Y-108162928D01*
X138884018Y-108175188D01*
X138764320Y-108211498D01*
X138654006Y-108270463D01*
X138557315Y-108349815D01*
X138477963Y-108446506D01*
X138418998Y-108556820D01*
X138382688Y-108676518D01*
X138370428Y-108801000D01*
X138370428Y-108872270D01*
X136498537Y-110744162D01*
X136351929Y-110715000D01*
X136148051Y-110715000D01*
X135948092Y-110754774D01*
X135759734Y-110832795D01*
X135590216Y-110946063D01*
X135446053Y-111090226D01*
X135332785Y-111259744D01*
X135254764Y-111448102D01*
X135214990Y-111648061D01*
X135214990Y-111851939D01*
X135243591Y-111995726D01*
X135198102Y-112004774D01*
X135009744Y-112082795D01*
X134840226Y-112196063D01*
X134696063Y-112340226D01*
X134582795Y-112509744D01*
X134504774Y-112698102D01*
X134465000Y-112898061D01*
X134465000Y-113101939D01*
X134504774Y-113301898D01*
X134582795Y-113490256D01*
X134696063Y-113659774D01*
X134840226Y-113803937D01*
X135009744Y-113917205D01*
X135198102Y-113995226D01*
X135398061Y-114035000D01*
X135601939Y-114035000D01*
X135801898Y-113995226D01*
X135990256Y-113917205D01*
X136159774Y-113803937D01*
X136203711Y-113760000D01*
X136212678Y-113760000D01*
X136241890Y-113762877D01*
X136215000Y-113898061D01*
X136215000Y-114101939D01*
X136254774Y-114301898D01*
X136332795Y-114490256D01*
X136446063Y-114659774D01*
X136590226Y-114803937D01*
X136759744Y-114917205D01*
X136948102Y-114995226D01*
X137148061Y-115035000D01*
X137351939Y-115035000D01*
X137551898Y-114995226D01*
X137740256Y-114917205D01*
X137909774Y-114803937D01*
X138053937Y-114659774D01*
X138167205Y-114490256D01*
X138245226Y-114301898D01*
X138285000Y-114101939D01*
X138285000Y-114039801D01*
X138370428Y-113954374D01*
X138370428Y-114389000D01*
X138382688Y-114513482D01*
X138418998Y-114633180D01*
X138477963Y-114743494D01*
X138499716Y-114770000D01*
X138477963Y-114796506D01*
X138418998Y-114906820D01*
X138382688Y-115026518D01*
X138370428Y-115151000D01*
X138370428Y-115659000D01*
X138382688Y-115783482D01*
X138418998Y-115903180D01*
X138477963Y-116013494D01*
X138499716Y-116040000D01*
X138477963Y-116066506D01*
X138418998Y-116176820D01*
X138382688Y-116296518D01*
X138370428Y-116421000D01*
X138370428Y-116929000D01*
X138382688Y-117053482D01*
X138418998Y-117173180D01*
X138425316Y-117185000D01*
X135092322Y-117185000D01*
X135054999Y-117181324D01*
X135017676Y-117185000D01*
X135017667Y-117185000D01*
X134906014Y-117195997D01*
X134762753Y-117239454D01*
X134630724Y-117310026D01*
X134630722Y-117310027D01*
X134630723Y-117310027D01*
X134543996Y-117381201D01*
X134543992Y-117381205D01*
X134514999Y-117404999D01*
X134491205Y-117433992D01*
X130239002Y-121686197D01*
X130238997Y-121686201D01*
X128107364Y-123817835D01*
X127992101Y-123782870D01*
X127750000Y-123759025D01*
X127507898Y-123782870D01*
X127275099Y-123853489D01*
X127060551Y-123968167D01*
X126906691Y-124094436D01*
X126880537Y-124045506D01*
X126801185Y-123948815D01*
X126704494Y-123869463D01*
X126594180Y-123810498D01*
X126474482Y-123774188D01*
X126350000Y-123761928D01*
X126035750Y-123765000D01*
X125877000Y-123923750D01*
X125877000Y-125123000D01*
X125897000Y-125123000D01*
X125897000Y-125377000D01*
X125877000Y-125377000D01*
X125877000Y-126576250D01*
X126035750Y-126735000D01*
X126350000Y-126738072D01*
X126474482Y-126725812D01*
X126594180Y-126689502D01*
X126704494Y-126630537D01*
X126801185Y-126551185D01*
X126880537Y-126454494D01*
X126906692Y-126405563D01*
X127060552Y-126531833D01*
X127275100Y-126646511D01*
X127507899Y-126717130D01*
X127750000Y-126740975D01*
X127992102Y-126717130D01*
X128224901Y-126646511D01*
X128439449Y-126531833D01*
X128627502Y-126377502D01*
X128781833Y-126189449D01*
X128829644Y-126100000D01*
X131711928Y-126100000D01*
X131724188Y-126224482D01*
X131760498Y-126344180D01*
X131819463Y-126454494D01*
X131898815Y-126551185D01*
X131995506Y-126630537D01*
X132105820Y-126689502D01*
X132225518Y-126725812D01*
X132350000Y-126738072D01*
X132664250Y-126735000D01*
X132823000Y-126576250D01*
X132823000Y-125377000D01*
X131873750Y-125377000D01*
X131715000Y-125535750D01*
X131711928Y-126100000D01*
X128829644Y-126100000D01*
X128896511Y-125974900D01*
X128967130Y-125742101D01*
X128985000Y-125560664D01*
X128985000Y-125089801D01*
X129674801Y-124400000D01*
X131711928Y-124400000D01*
X131715000Y-124964250D01*
X131873750Y-125123000D01*
X132823000Y-125123000D01*
X132823000Y-123923750D01*
X132664250Y-123765000D01*
X132350000Y-123761928D01*
X132225518Y-123774188D01*
X132105820Y-123810498D01*
X131995506Y-123869463D01*
X131898815Y-123948815D01*
X131819463Y-124045506D01*
X131760498Y-124155820D01*
X131724188Y-124275518D01*
X131711928Y-124400000D01*
X129674801Y-124400000D01*
X131313799Y-122761003D01*
X131313803Y-122760998D01*
X135369803Y-118705000D01*
X135720198Y-118705000D01*
X134438998Y-119986201D01*
X134410000Y-120009999D01*
X134386202Y-120038997D01*
X134386201Y-120038998D01*
X134315026Y-120125724D01*
X134244454Y-120257754D01*
X134200998Y-120401015D01*
X134186324Y-120550000D01*
X134190001Y-120587332D01*
X134190000Y-124026066D01*
X134106691Y-124094436D01*
X134080537Y-124045506D01*
X134001185Y-123948815D01*
X133904494Y-123869463D01*
X133794180Y-123810498D01*
X133674482Y-123774188D01*
X133550000Y-123761928D01*
X133235750Y-123765000D01*
X133077000Y-123923750D01*
X133077000Y-125123000D01*
X133097000Y-125123000D01*
X133097000Y-125377000D01*
X133077000Y-125377000D01*
X133077000Y-126576250D01*
X133235750Y-126735000D01*
X133550000Y-126738072D01*
X133674482Y-126725812D01*
X133794180Y-126689502D01*
X133904494Y-126630537D01*
X134001185Y-126551185D01*
X134080537Y-126454494D01*
X134106692Y-126405563D01*
X134260552Y-126531833D01*
X134475100Y-126646511D01*
X134707899Y-126717130D01*
X134950000Y-126740975D01*
X135192102Y-126717130D01*
X135424901Y-126646511D01*
X135639449Y-126531833D01*
X135827502Y-126377502D01*
X135981833Y-126189449D01*
X136096511Y-125974900D01*
X136167130Y-125742101D01*
X136185000Y-125560664D01*
X136185000Y-124939335D01*
X136167130Y-124757898D01*
X136096511Y-124525099D01*
X135981833Y-124310551D01*
X135827502Y-124122498D01*
X135710000Y-124026067D01*
X135710000Y-121997593D01*
X135898061Y-122035000D01*
X136101939Y-122035000D01*
X136301898Y-121995226D01*
X136490256Y-121917205D01*
X136659774Y-121803937D01*
X136703711Y-121760000D01*
X136975199Y-121760000D01*
X138088199Y-122873000D01*
X137750000Y-122873000D01*
X137725224Y-122875440D01*
X137701399Y-122882667D01*
X137679443Y-122894403D01*
X137660197Y-122910197D01*
X137644403Y-122929443D01*
X137632667Y-122951399D01*
X137625440Y-122975224D01*
X137623000Y-123000000D01*
X137623000Y-131340000D01*
X88223248Y-131340000D01*
X88409014Y-131240706D01*
X88635134Y-131055134D01*
X88820706Y-130829014D01*
X88958599Y-130571034D01*
X89043513Y-130291111D01*
X89072185Y-130000000D01*
X89043513Y-129708889D01*
X88958599Y-129428966D01*
X88820706Y-129170986D01*
X88635134Y-128944866D01*
X88409014Y-128759294D01*
X88340000Y-128722405D01*
X88340000Y-127400000D01*
X107011928Y-127400000D01*
X107011928Y-129100000D01*
X107024188Y-129224482D01*
X107060498Y-129344180D01*
X107119463Y-129454494D01*
X107198815Y-129551185D01*
X107295506Y-129630537D01*
X107405820Y-129689502D01*
X107525518Y-129725812D01*
X107650000Y-129738072D01*
X109350000Y-129738072D01*
X109474482Y-129725812D01*
X109594180Y-129689502D01*
X109704494Y-129630537D01*
X109801185Y-129551185D01*
X109880537Y-129454494D01*
X109939502Y-129344180D01*
X109963966Y-129263534D01*
X110039731Y-129347588D01*
X110273080Y-129521641D01*
X110535901Y-129646825D01*
X110683110Y-129691476D01*
X110913000Y-129570155D01*
X110913000Y-128377000D01*
X110893000Y-128377000D01*
X110893000Y-128123000D01*
X110913000Y-128123000D01*
X110913000Y-126929845D01*
X110683110Y-126808524D01*
X110535901Y-126853175D01*
X110273080Y-126978359D01*
X110039731Y-127152412D01*
X109963966Y-127236466D01*
X109939502Y-127155820D01*
X109880537Y-127045506D01*
X109801185Y-126948815D01*
X109704494Y-126869463D01*
X109594180Y-126810498D01*
X109474482Y-126774188D01*
X109350000Y-126761928D01*
X107650000Y-126761928D01*
X107525518Y-126774188D01*
X107405820Y-126810498D01*
X107295506Y-126869463D01*
X107198815Y-126948815D01*
X107119463Y-127045506D01*
X107060498Y-127155820D01*
X107024188Y-127275518D01*
X107011928Y-127400000D01*
X88340000Y-127400000D01*
X88340000Y-125617322D01*
X88342308Y-125593887D01*
X88343470Y-125595049D01*
X88371183Y-125628817D01*
X88404951Y-125656530D01*
X88404953Y-125656532D01*
X88426573Y-125674275D01*
X88505941Y-125739411D01*
X88659687Y-125821589D01*
X88826510Y-125872195D01*
X88956523Y-125885000D01*
X88956533Y-125885000D01*
X88999999Y-125889281D01*
X89043465Y-125885000D01*
X92206531Y-125885000D01*
X92250000Y-125889281D01*
X92293469Y-125885000D01*
X92293477Y-125885000D01*
X92423490Y-125872195D01*
X92590313Y-125821589D01*
X92744059Y-125739411D01*
X92878817Y-125628817D01*
X92906534Y-125595044D01*
X93725000Y-124776579D01*
X94043470Y-125095049D01*
X94071183Y-125128817D01*
X94104951Y-125156530D01*
X94104953Y-125156532D01*
X94151161Y-125194454D01*
X94205941Y-125239411D01*
X94359687Y-125321589D01*
X94468159Y-125354494D01*
X94526509Y-125372195D01*
X94541306Y-125373652D01*
X94656523Y-125385000D01*
X94656531Y-125385000D01*
X94700000Y-125389281D01*
X94743469Y-125385000D01*
X113035896Y-125385000D01*
X113016202Y-125408997D01*
X113016201Y-125408998D01*
X112945026Y-125495724D01*
X112874454Y-125627754D01*
X112844180Y-125727558D01*
X112840585Y-125739411D01*
X112830998Y-125771015D01*
X112816324Y-125920000D01*
X112820001Y-125957332D01*
X112820001Y-126972405D01*
X112750986Y-127009294D01*
X112524866Y-127194866D01*
X112339294Y-127420986D01*
X112304799Y-127485523D01*
X112235178Y-127368645D01*
X112040269Y-127152412D01*
X111806920Y-126978359D01*
X111544099Y-126853175D01*
X111396890Y-126808524D01*
X111167000Y-126929845D01*
X111167000Y-128123000D01*
X111187000Y-128123000D01*
X111187000Y-128377000D01*
X111167000Y-128377000D01*
X111167000Y-129570155D01*
X111396890Y-129691476D01*
X111544099Y-129646825D01*
X111806920Y-129521641D01*
X112040269Y-129347588D01*
X112235178Y-129131355D01*
X112304799Y-129014477D01*
X112339294Y-129079014D01*
X112524866Y-129305134D01*
X112750986Y-129490706D01*
X113008966Y-129628599D01*
X113288889Y-129713513D01*
X113507050Y-129735000D01*
X113652950Y-129735000D01*
X113871111Y-129713513D01*
X114151034Y-129628599D01*
X114409014Y-129490706D01*
X114635134Y-129305134D01*
X114820706Y-129079014D01*
X114958599Y-128821034D01*
X115043513Y-128541111D01*
X115072185Y-128250000D01*
X115043513Y-127958889D01*
X114958599Y-127678966D01*
X114820706Y-127420986D01*
X114635134Y-127194866D01*
X114409014Y-127009294D01*
X114340000Y-126972405D01*
X114340000Y-126234801D01*
X115215285Y-125359516D01*
X115340313Y-125321589D01*
X115494059Y-125239411D01*
X115628817Y-125128817D01*
X115656534Y-125095044D01*
X116866579Y-123885000D01*
X117526574Y-123885000D01*
X117448815Y-123948815D01*
X117369463Y-124045506D01*
X117310498Y-124155820D01*
X117274188Y-124275518D01*
X117261928Y-124400000D01*
X117261928Y-126100000D01*
X117274188Y-126224482D01*
X117310498Y-126344180D01*
X117369463Y-126454494D01*
X117448815Y-126551185D01*
X117545506Y-126630537D01*
X117655820Y-126689502D01*
X117775518Y-126725812D01*
X117900000Y-126738072D01*
X119100000Y-126738072D01*
X119224482Y-126725812D01*
X119344180Y-126689502D01*
X119454494Y-126630537D01*
X119551185Y-126551185D01*
X119630537Y-126454494D01*
X119656692Y-126405563D01*
X119810552Y-126531833D01*
X120025100Y-126646511D01*
X120257899Y-126717130D01*
X120500000Y-126740975D01*
X120742102Y-126717130D01*
X120974901Y-126646511D01*
X121189449Y-126531833D01*
X121377502Y-126377502D01*
X121531833Y-126189449D01*
X121579644Y-126100000D01*
X124511928Y-126100000D01*
X124524188Y-126224482D01*
X124560498Y-126344180D01*
X124619463Y-126454494D01*
X124698815Y-126551185D01*
X124795506Y-126630537D01*
X124905820Y-126689502D01*
X125025518Y-126725812D01*
X125150000Y-126738072D01*
X125464250Y-126735000D01*
X125623000Y-126576250D01*
X125623000Y-125377000D01*
X124673750Y-125377000D01*
X124515000Y-125535750D01*
X124511928Y-126100000D01*
X121579644Y-126100000D01*
X121646511Y-125974900D01*
X121717130Y-125742101D01*
X121735000Y-125560664D01*
X121735000Y-124939335D01*
X121717130Y-124757898D01*
X121646511Y-124525099D01*
X121579645Y-124400000D01*
X124511928Y-124400000D01*
X124515000Y-124964250D01*
X124673750Y-125123000D01*
X125623000Y-125123000D01*
X125623000Y-123923750D01*
X125464250Y-123765000D01*
X125150000Y-123761928D01*
X125025518Y-123774188D01*
X124905820Y-123810498D01*
X124795506Y-123869463D01*
X124698815Y-123948815D01*
X124619463Y-124045506D01*
X124560498Y-124155820D01*
X124524188Y-124275518D01*
X124511928Y-124400000D01*
X121579645Y-124400000D01*
X121531833Y-124310551D01*
X121385000Y-124131634D01*
X121385000Y-124043469D01*
X121389281Y-124000000D01*
X121385000Y-123956531D01*
X121385000Y-123956523D01*
X121372195Y-123826510D01*
X121349076Y-123750299D01*
X121321589Y-123659686D01*
X121239411Y-123505941D01*
X121156532Y-123404953D01*
X121156530Y-123404951D01*
X121128817Y-123371183D01*
X121095050Y-123343471D01*
X120156534Y-122404956D01*
X120128817Y-122371183D01*
X119994059Y-122260589D01*
X119840313Y-122178411D01*
X119673490Y-122127805D01*
X119543477Y-122115000D01*
X119543469Y-122115000D01*
X119500000Y-122110719D01*
X119456531Y-122115000D01*
X116543465Y-122115000D01*
X116499999Y-122110719D01*
X116456533Y-122115000D01*
X116456523Y-122115000D01*
X116326510Y-122127805D01*
X116159687Y-122178411D01*
X116005941Y-122260589D01*
X116005939Y-122260590D01*
X116005940Y-122260590D01*
X115904953Y-122343468D01*
X115904951Y-122343470D01*
X115871183Y-122371183D01*
X115843470Y-122404951D01*
X114633422Y-123615000D01*
X104859584Y-123615000D01*
X104908505Y-123582312D01*
X105122312Y-123368505D01*
X105290299Y-123117095D01*
X105406011Y-122837743D01*
X105465000Y-122541184D01*
X105465000Y-122238816D01*
X105406011Y-121942257D01*
X105290299Y-121662905D01*
X105122312Y-121411495D01*
X104908505Y-121197688D01*
X104754895Y-121095049D01*
X104814475Y-120914080D01*
X103930000Y-120029605D01*
X103045525Y-120914080D01*
X103105105Y-121095049D01*
X102951495Y-121197688D01*
X102737688Y-121411495D01*
X102569701Y-121662905D01*
X102453989Y-121942257D01*
X102395000Y-122238816D01*
X102395000Y-122541184D01*
X102453989Y-122837743D01*
X102569701Y-123117095D01*
X102737688Y-123368505D01*
X102951495Y-123582312D01*
X103000416Y-123615000D01*
X95066579Y-123615000D01*
X94738072Y-123286493D01*
X94738072Y-122600000D01*
X94725812Y-122475518D01*
X94689502Y-122355820D01*
X94630537Y-122245506D01*
X94551185Y-122148815D01*
X94454494Y-122069463D01*
X94344180Y-122010498D01*
X94235000Y-121977379D01*
X94235000Y-121085121D01*
X94344180Y-121052002D01*
X94454494Y-120993037D01*
X94551185Y-120913685D01*
X94630537Y-120816994D01*
X94689502Y-120706680D01*
X94725812Y-120586982D01*
X94738072Y-120462500D01*
X94738072Y-119916553D01*
X102389009Y-119916553D01*
X102431603Y-120215907D01*
X102531778Y-120501199D01*
X102611739Y-120650792D01*
X102865920Y-120734475D01*
X103750395Y-119850000D01*
X104109605Y-119850000D01*
X104994080Y-120734475D01*
X105248261Y-120650792D01*
X105379158Y-120378225D01*
X105454365Y-120085358D01*
X105470991Y-119783447D01*
X105428397Y-119484093D01*
X105328222Y-119198801D01*
X105248261Y-119049208D01*
X104994080Y-118965525D01*
X104109605Y-119850000D01*
X103750395Y-119850000D01*
X102865920Y-118965525D01*
X102611739Y-119049208D01*
X102480842Y-119321775D01*
X102405635Y-119614642D01*
X102389009Y-119916553D01*
X94738072Y-119916553D01*
X94738072Y-119162500D01*
X94725812Y-119038018D01*
X94689502Y-118918320D01*
X94630537Y-118808006D01*
X94551185Y-118711315D01*
X94454494Y-118631963D01*
X94344180Y-118572998D01*
X94224482Y-118536688D01*
X94100000Y-118524428D01*
X92600000Y-118524428D01*
X92475518Y-118536688D01*
X92355820Y-118572998D01*
X92245506Y-118631963D01*
X92148815Y-118711315D01*
X92069463Y-118808006D01*
X92010498Y-118918320D01*
X92000000Y-118952927D01*
X91989502Y-118918320D01*
X91930537Y-118808006D01*
X91851185Y-118711315D01*
X91754494Y-118631963D01*
X91644180Y-118572998D01*
X91524482Y-118536688D01*
X91400000Y-118524428D01*
X90336729Y-118524428D01*
X90285002Y-118472701D01*
X90285002Y-118398061D01*
X90245228Y-118198102D01*
X90167207Y-118009744D01*
X90053939Y-117840226D01*
X89909776Y-117696063D01*
X89853556Y-117658498D01*
X89900000Y-117663072D01*
X91400000Y-117663072D01*
X91524482Y-117650812D01*
X91644180Y-117614502D01*
X91754494Y-117555537D01*
X91851185Y-117476185D01*
X91930537Y-117379494D01*
X91989502Y-117269180D01*
X92000000Y-117234573D01*
X92010498Y-117269180D01*
X92069463Y-117379494D01*
X92148815Y-117476185D01*
X92245506Y-117555537D01*
X92355820Y-117614502D01*
X92475518Y-117650812D01*
X92600000Y-117663072D01*
X94100000Y-117663072D01*
X94224482Y-117650812D01*
X94344180Y-117614502D01*
X94454494Y-117555537D01*
X94551185Y-117476185D01*
X94630537Y-117379494D01*
X94689502Y-117269180D01*
X94725812Y-117149482D01*
X94727238Y-117135000D01*
X95060199Y-117135000D01*
X95215000Y-117289801D01*
X95215000Y-117351939D01*
X95254774Y-117551898D01*
X95332795Y-117740256D01*
X95446063Y-117909774D01*
X95590226Y-118053937D01*
X95759744Y-118167205D01*
X95948102Y-118245226D01*
X96148061Y-118285000D01*
X96351939Y-118285000D01*
X96551898Y-118245226D01*
X96740256Y-118167205D01*
X96909774Y-118053937D01*
X97053937Y-117909774D01*
X97167205Y-117740256D01*
X97245226Y-117551898D01*
X97285000Y-117351939D01*
X97285000Y-117148061D01*
X97245226Y-116948102D01*
X97167205Y-116759744D01*
X97053937Y-116590226D01*
X96909774Y-116446063D01*
X96740256Y-116332795D01*
X96551898Y-116254774D01*
X96351939Y-116215000D01*
X96289801Y-116215000D01*
X95938804Y-115864003D01*
X95915001Y-115834999D01*
X95799276Y-115740026D01*
X95667247Y-115669454D01*
X95523986Y-115625997D01*
X95412333Y-115615000D01*
X95412322Y-115615000D01*
X95375000Y-115611324D01*
X95337678Y-115615000D01*
X94727238Y-115615000D01*
X94725812Y-115600518D01*
X94689502Y-115480820D01*
X94630537Y-115370506D01*
X94551185Y-115273815D01*
X94454494Y-115194463D01*
X94344180Y-115135498D01*
X94224482Y-115099188D01*
X94100000Y-115086928D01*
X92600000Y-115086928D01*
X92475518Y-115099188D01*
X92355820Y-115135498D01*
X92245506Y-115194463D01*
X92148815Y-115273815D01*
X92069463Y-115370506D01*
X92010498Y-115480820D01*
X92000000Y-115515427D01*
X91989502Y-115480820D01*
X91930537Y-115370506D01*
X91851185Y-115273815D01*
X91754494Y-115194463D01*
X91644180Y-115135498D01*
X91524482Y-115099188D01*
X91400000Y-115086928D01*
X89900000Y-115086928D01*
X89775518Y-115099188D01*
X89655820Y-115135498D01*
X89545506Y-115194463D01*
X89448815Y-115273815D01*
X89369463Y-115370506D01*
X89310498Y-115480820D01*
X89274188Y-115600518D01*
X89272762Y-115615000D01*
X88912322Y-115615000D01*
X88874999Y-115611324D01*
X88837676Y-115615000D01*
X88837667Y-115615000D01*
X88726014Y-115625997D01*
X88617216Y-115659000D01*
X88582753Y-115669454D01*
X88450723Y-115740026D01*
X88383509Y-115795188D01*
X88334999Y-115834999D01*
X88311201Y-115863997D01*
X85085199Y-119090000D01*
X82408313Y-119090000D01*
X82262312Y-118871495D01*
X82048505Y-118657688D01*
X81932237Y-118580000D01*
X82048505Y-118502312D01*
X82262312Y-118288505D01*
X82407965Y-118070521D01*
X82440000Y-118073676D01*
X82477322Y-118070000D01*
X82477333Y-118070000D01*
X82588986Y-118059003D01*
X82732247Y-118015546D01*
X82864276Y-117944974D01*
X82980001Y-117850001D01*
X83003804Y-117820997D01*
X87127302Y-113697500D01*
X89272762Y-113697500D01*
X89274188Y-113711982D01*
X89310498Y-113831680D01*
X89369463Y-113941994D01*
X89448815Y-114038685D01*
X89545506Y-114118037D01*
X89655820Y-114177002D01*
X89775518Y-114213312D01*
X89900000Y-114225572D01*
X91400000Y-114225572D01*
X91524482Y-114213312D01*
X91644180Y-114177002D01*
X91754494Y-114118037D01*
X91851185Y-114038685D01*
X91930537Y-113941994D01*
X91989502Y-113831680D01*
X92000000Y-113797073D01*
X92010498Y-113831680D01*
X92069463Y-113941994D01*
X92148815Y-114038685D01*
X92245506Y-114118037D01*
X92355820Y-114177002D01*
X92475518Y-114213312D01*
X92600000Y-114225572D01*
X93064250Y-114222500D01*
X93223000Y-114063750D01*
X93223000Y-113064500D01*
X93477000Y-113064500D01*
X93477000Y-114063750D01*
X93635750Y-114222500D01*
X94100000Y-114225572D01*
X94224482Y-114213312D01*
X94344180Y-114177002D01*
X94454494Y-114118037D01*
X94551185Y-114038685D01*
X94630537Y-113941994D01*
X94689502Y-113831680D01*
X94725812Y-113711982D01*
X94738072Y-113587500D01*
X94735000Y-113223250D01*
X94576250Y-113064500D01*
X93477000Y-113064500D01*
X93223000Y-113064500D01*
X93203000Y-113064500D01*
X93203000Y-112810500D01*
X93223000Y-112810500D01*
X93223000Y-111811250D01*
X93477000Y-111811250D01*
X93477000Y-112810500D01*
X94576250Y-112810500D01*
X94735000Y-112651750D01*
X94738072Y-112287500D01*
X94725812Y-112163018D01*
X94689502Y-112043320D01*
X94630537Y-111933006D01*
X94551185Y-111836315D01*
X94454494Y-111756963D01*
X94344180Y-111697998D01*
X94224482Y-111661688D01*
X94100000Y-111649428D01*
X93635750Y-111652500D01*
X93477000Y-111811250D01*
X93223000Y-111811250D01*
X93064250Y-111652500D01*
X92600000Y-111649428D01*
X92475518Y-111661688D01*
X92355820Y-111697998D01*
X92245506Y-111756963D01*
X92148815Y-111836315D01*
X92069463Y-111933006D01*
X92010498Y-112043320D01*
X92000000Y-112077927D01*
X91989502Y-112043320D01*
X91930537Y-111933006D01*
X91851185Y-111836315D01*
X91754494Y-111756963D01*
X91644180Y-111697998D01*
X91524482Y-111661688D01*
X91400000Y-111649428D01*
X89900000Y-111649428D01*
X89775518Y-111661688D01*
X89655820Y-111697998D01*
X89545506Y-111756963D01*
X89448815Y-111836315D01*
X89369463Y-111933006D01*
X89310498Y-112043320D01*
X89274188Y-112163018D01*
X89272762Y-112177500D01*
X86849823Y-112177500D01*
X86812500Y-112173824D01*
X86775177Y-112177500D01*
X86775167Y-112177500D01*
X86663514Y-112188497D01*
X86520253Y-112231954D01*
X86388224Y-112302526D01*
X86272499Y-112397499D01*
X86248701Y-112426497D01*
X82294913Y-116380286D01*
X82262312Y-116331495D01*
X82048505Y-116117688D01*
X81932237Y-116040000D01*
X82048505Y-115962312D01*
X82262312Y-115748505D01*
X82430299Y-115497095D01*
X82546011Y-115217743D01*
X82605000Y-114921184D01*
X82605000Y-114618816D01*
X82546011Y-114322257D01*
X82430299Y-114042905D01*
X82262312Y-113791495D01*
X82048505Y-113577688D01*
X81932237Y-113500000D01*
X82048505Y-113422312D01*
X82262312Y-113208505D01*
X82430299Y-112957095D01*
X82546011Y-112677743D01*
X82605000Y-112381184D01*
X82605000Y-112078816D01*
X82553731Y-111821070D01*
X90614802Y-103760000D01*
X102651824Y-103760000D01*
X102569701Y-103882905D01*
X102453989Y-104162257D01*
X102395000Y-104458816D01*
X102395000Y-104761184D01*
X102453989Y-105057743D01*
X102569701Y-105337095D01*
X102737688Y-105588505D01*
X102951495Y-105802312D01*
X103067763Y-105880000D01*
X102951495Y-105957688D01*
X102737688Y-106171495D01*
X102569701Y-106422905D01*
X102453989Y-106702257D01*
X102395000Y-106998816D01*
X102395000Y-107301184D01*
X102453989Y-107597743D01*
X102569701Y-107877095D01*
X102737688Y-108128505D01*
X102951495Y-108342312D01*
X103067763Y-108420000D01*
X102951495Y-108497688D01*
X102737688Y-108711495D01*
X102569701Y-108962905D01*
X102453989Y-109242257D01*
X102395000Y-109538816D01*
X102395000Y-109841184D01*
X102453989Y-110137743D01*
X102569701Y-110417095D01*
X102737688Y-110668505D01*
X102951495Y-110882312D01*
X103067763Y-110960000D01*
X102951495Y-111037688D01*
X102737688Y-111251495D01*
X102569701Y-111502905D01*
X102453989Y-111782257D01*
X102395000Y-112078816D01*
X102395000Y-112381184D01*
X102453989Y-112677743D01*
X102569701Y-112957095D01*
X102737688Y-113208505D01*
X102951495Y-113422312D01*
X103067763Y-113500000D01*
X102951495Y-113577688D01*
X102737688Y-113791495D01*
X102569701Y-114042905D01*
X102453989Y-114322257D01*
X102395000Y-114618816D01*
X102395000Y-114921184D01*
X102453989Y-115217743D01*
X102569701Y-115497095D01*
X102737688Y-115748505D01*
X102951495Y-115962312D01*
X103067763Y-116040000D01*
X102951495Y-116117688D01*
X102737688Y-116331495D01*
X102569701Y-116582905D01*
X102453989Y-116862257D01*
X102395000Y-117158816D01*
X102395000Y-117461184D01*
X102453989Y-117757743D01*
X102569701Y-118037095D01*
X102737688Y-118288505D01*
X102951495Y-118502312D01*
X103105105Y-118604951D01*
X103045525Y-118785920D01*
X103930000Y-119670395D01*
X104814475Y-118785920D01*
X104754895Y-118604951D01*
X104908505Y-118502312D01*
X105122312Y-118288505D01*
X105268313Y-118070000D01*
X112261928Y-118070000D01*
X112261928Y-118850000D01*
X112274188Y-118974482D01*
X112310498Y-119094180D01*
X112369463Y-119204494D01*
X112448815Y-119301185D01*
X112545506Y-119380537D01*
X112655820Y-119439502D01*
X112775518Y-119475812D01*
X112900000Y-119488072D01*
X114600000Y-119488072D01*
X114724482Y-119475812D01*
X114844180Y-119439502D01*
X114954494Y-119380537D01*
X115051185Y-119301185D01*
X115130537Y-119204494D01*
X115189502Y-119094180D01*
X115213966Y-119013534D01*
X115289731Y-119097588D01*
X115523080Y-119271641D01*
X115785901Y-119396825D01*
X115933110Y-119441476D01*
X116163000Y-119320155D01*
X116163000Y-118127000D01*
X116417000Y-118127000D01*
X116417000Y-119320155D01*
X116646890Y-119441476D01*
X116794099Y-119396825D01*
X117056920Y-119271641D01*
X117290269Y-119097588D01*
X117485178Y-118881355D01*
X117634157Y-118631252D01*
X117731481Y-118356891D01*
X117610814Y-118127000D01*
X116417000Y-118127000D01*
X116163000Y-118127000D01*
X116143000Y-118127000D01*
X116143000Y-117873000D01*
X116163000Y-117873000D01*
X116163000Y-116679845D01*
X116417000Y-116679845D01*
X116417000Y-117873000D01*
X117610814Y-117873000D01*
X117731481Y-117643109D01*
X117634157Y-117368748D01*
X117485178Y-117118645D01*
X117290269Y-116902412D01*
X117056920Y-116728359D01*
X116794099Y-116603175D01*
X116646890Y-116558524D01*
X116417000Y-116679845D01*
X116163000Y-116679845D01*
X115933110Y-116558524D01*
X115785901Y-116603175D01*
X115523080Y-116728359D01*
X115289731Y-116902412D01*
X115213966Y-116986466D01*
X115189502Y-116905820D01*
X115130537Y-116795506D01*
X115051185Y-116698815D01*
X114954494Y-116619463D01*
X114844180Y-116560498D01*
X114724482Y-116524188D01*
X114600000Y-116511928D01*
X112900000Y-116511928D01*
X112775518Y-116524188D01*
X112690427Y-116550000D01*
X105268313Y-116550000D01*
X105122312Y-116331495D01*
X104908505Y-116117688D01*
X104792237Y-116040000D01*
X104908505Y-115962312D01*
X105110817Y-115760000D01*
X118145199Y-115760000D01*
X120019203Y-117634005D01*
X119996487Y-117708889D01*
X119967815Y-118000000D01*
X119996487Y-118291111D01*
X120081401Y-118571034D01*
X120219294Y-118829014D01*
X120404866Y-119055134D01*
X120630986Y-119240706D01*
X120888966Y-119378599D01*
X121168889Y-119463513D01*
X121387050Y-119485000D01*
X121532950Y-119485000D01*
X121751111Y-119463513D01*
X122031034Y-119378599D01*
X122289014Y-119240706D01*
X122515134Y-119055134D01*
X122539607Y-119025313D01*
X122560498Y-119094180D01*
X122619463Y-119204494D01*
X122698815Y-119301185D01*
X122795506Y-119380537D01*
X122905820Y-119439502D01*
X123025518Y-119475812D01*
X123150000Y-119488072D01*
X123714250Y-119485000D01*
X123873000Y-119326250D01*
X123873000Y-118127000D01*
X124127000Y-118127000D01*
X124127000Y-119326250D01*
X124285750Y-119485000D01*
X124850000Y-119488072D01*
X124974482Y-119475812D01*
X125094180Y-119439502D01*
X125204494Y-119380537D01*
X125301185Y-119301185D01*
X125380537Y-119204494D01*
X125439502Y-119094180D01*
X125475812Y-118974482D01*
X125488072Y-118850000D01*
X125485000Y-118285750D01*
X125430000Y-118230750D01*
X128213500Y-118230750D01*
X128225011Y-118334635D01*
X128263452Y-118453666D01*
X128324376Y-118562910D01*
X128405442Y-118658169D01*
X128503535Y-118735782D01*
X128614884Y-118792767D01*
X128735212Y-118826934D01*
X128859892Y-118836970D01*
X129134250Y-118834000D01*
X129293000Y-118675250D01*
X129293000Y-118072000D01*
X129547000Y-118072000D01*
X129547000Y-118675250D01*
X129705750Y-118834000D01*
X129980108Y-118836970D01*
X130104788Y-118826934D01*
X130225116Y-118792767D01*
X130336465Y-118735782D01*
X130434558Y-118658169D01*
X130515624Y-118562910D01*
X130576548Y-118453666D01*
X130614989Y-118334635D01*
X130626500Y-118230750D01*
X130467750Y-118072000D01*
X129547000Y-118072000D01*
X129293000Y-118072000D01*
X128372250Y-118072000D01*
X128213500Y-118230750D01*
X125430000Y-118230750D01*
X125326250Y-118127000D01*
X124127000Y-118127000D01*
X123873000Y-118127000D01*
X123853000Y-118127000D01*
X123853000Y-117873000D01*
X123873000Y-117873000D01*
X123873000Y-116673750D01*
X124127000Y-116673750D01*
X124127000Y-117873000D01*
X125326250Y-117873000D01*
X125485000Y-117714250D01*
X125488072Y-117150000D01*
X125475812Y-117025518D01*
X125439502Y-116905820D01*
X125380537Y-116795506D01*
X125301185Y-116698815D01*
X125204494Y-116619463D01*
X125094180Y-116560498D01*
X124974482Y-116524188D01*
X124850000Y-116511928D01*
X124285750Y-116515000D01*
X124127000Y-116673750D01*
X123873000Y-116673750D01*
X123714250Y-116515000D01*
X123150000Y-116511928D01*
X123025518Y-116524188D01*
X122905820Y-116560498D01*
X122795506Y-116619463D01*
X122698815Y-116698815D01*
X122619463Y-116795506D01*
X122560498Y-116905820D01*
X122539607Y-116974687D01*
X122515134Y-116944866D01*
X122289014Y-116759294D01*
X122031034Y-116621401D01*
X121751111Y-116536487D01*
X121532950Y-116515000D01*
X121387050Y-116515000D01*
X121168889Y-116536487D01*
X121094005Y-116559203D01*
X119023804Y-114489003D01*
X119000001Y-114459999D01*
X118884276Y-114365026D01*
X118752247Y-114294454D01*
X118608986Y-114250997D01*
X118497333Y-114240000D01*
X118497322Y-114240000D01*
X118460000Y-114236324D01*
X118422678Y-114240000D01*
X105371939Y-114240000D01*
X105290299Y-114042905D01*
X105122312Y-113791495D01*
X104908505Y-113577688D01*
X104792237Y-113500000D01*
X104908505Y-113422312D01*
X105122312Y-113208505D01*
X105268313Y-112990000D01*
X108776289Y-112990000D01*
X108840226Y-113053937D01*
X109009744Y-113167205D01*
X109198102Y-113245226D01*
X109398061Y-113285000D01*
X109601939Y-113285000D01*
X109801898Y-113245226D01*
X109990256Y-113167205D01*
X110159774Y-113053937D01*
X110303937Y-112909774D01*
X110417205Y-112740256D01*
X110495226Y-112551898D01*
X110535000Y-112351939D01*
X110535000Y-112148061D01*
X110495226Y-111948102D01*
X110417205Y-111759744D01*
X110303937Y-111590226D01*
X110159774Y-111446063D01*
X109990256Y-111332795D01*
X109801898Y-111254774D01*
X109601939Y-111215000D01*
X109398061Y-111215000D01*
X109198102Y-111254774D01*
X109009744Y-111332795D01*
X108840226Y-111446063D01*
X108816289Y-111470000D01*
X105268313Y-111470000D01*
X105122312Y-111251495D01*
X104908505Y-111037688D01*
X104792237Y-110960000D01*
X104908505Y-110882312D01*
X105122312Y-110668505D01*
X105290299Y-110417095D01*
X105406011Y-110137743D01*
X105465000Y-109841184D01*
X105465000Y-109538816D01*
X105406011Y-109242257D01*
X105290299Y-108962905D01*
X105122312Y-108711495D01*
X104908505Y-108497688D01*
X104792237Y-108420000D01*
X104908505Y-108342312D01*
X105122312Y-108128505D01*
X105290299Y-107877095D01*
X105406011Y-107597743D01*
X105465000Y-107301184D01*
X105465000Y-106998816D01*
X105406011Y-106702257D01*
X105290299Y-106422905D01*
X105122312Y-106171495D01*
X104908505Y-105957688D01*
X104792237Y-105880000D01*
X104908505Y-105802312D01*
X105122312Y-105588505D01*
X105290299Y-105337095D01*
X105406011Y-105057743D01*
X105460251Y-104785057D01*
X110465000Y-109789806D01*
X110465000Y-109851943D01*
X110504774Y-110051902D01*
X110582795Y-110240260D01*
X110696063Y-110409778D01*
X110840226Y-110553941D01*
X111009744Y-110667209D01*
X111198102Y-110745230D01*
X111398061Y-110785004D01*
X111601939Y-110785004D01*
X111801898Y-110745230D01*
X111990256Y-110667209D01*
X112074753Y-110610750D01*
X128213500Y-110610750D01*
X128225011Y-110714635D01*
X128263452Y-110833666D01*
X128324376Y-110942910D01*
X128338920Y-110960000D01*
X128324376Y-110977090D01*
X128263452Y-111086334D01*
X128225011Y-111205365D01*
X128213500Y-111309250D01*
X128372250Y-111468000D01*
X129293000Y-111468000D01*
X129293000Y-110452000D01*
X128372250Y-110452000D01*
X128213500Y-110610750D01*
X112074753Y-110610750D01*
X112159774Y-110553941D01*
X112303937Y-110409778D01*
X112417205Y-110240260D01*
X112495226Y-110051902D01*
X112535000Y-109851943D01*
X112535000Y-109648065D01*
X112495226Y-109448106D01*
X112450758Y-109340750D01*
X128213500Y-109340750D01*
X128225011Y-109444635D01*
X128263452Y-109563666D01*
X128324376Y-109672910D01*
X128338920Y-109690000D01*
X128324376Y-109707090D01*
X128263452Y-109816334D01*
X128225011Y-109935365D01*
X128213500Y-110039250D01*
X128372250Y-110198000D01*
X129293000Y-110198000D01*
X129293000Y-109182000D01*
X128372250Y-109182000D01*
X128213500Y-109340750D01*
X112450758Y-109340750D01*
X112417205Y-109259748D01*
X112303937Y-109090230D01*
X112159774Y-108946067D01*
X111990256Y-108832799D01*
X111836837Y-108769250D01*
X128213500Y-108769250D01*
X128372250Y-108928000D01*
X129293000Y-108928000D01*
X129293000Y-108324750D01*
X129134250Y-108166000D01*
X128859892Y-108163030D01*
X128735212Y-108173066D01*
X128614884Y-108207233D01*
X128503535Y-108264218D01*
X128405442Y-108341831D01*
X128324376Y-108437090D01*
X128263452Y-108546334D01*
X128225011Y-108665365D01*
X128213500Y-108769250D01*
X111836837Y-108769250D01*
X111801898Y-108754778D01*
X111601939Y-108715004D01*
X111539802Y-108715004D01*
X108104670Y-105279872D01*
X113015000Y-105279872D01*
X113015000Y-105720128D01*
X113100890Y-106151925D01*
X113269369Y-106558669D01*
X113513962Y-106924729D01*
X113825271Y-107236038D01*
X114191331Y-107480631D01*
X114598075Y-107649110D01*
X115029872Y-107735000D01*
X115470128Y-107735000D01*
X115901925Y-107649110D01*
X116308669Y-107480631D01*
X116674729Y-107236038D01*
X116986038Y-106924729D01*
X117230631Y-106558669D01*
X117399110Y-106151925D01*
X117485000Y-105720128D01*
X117485000Y-105279872D01*
X117449222Y-105100000D01*
X124011928Y-105100000D01*
X124024188Y-105224482D01*
X124060498Y-105344180D01*
X124119463Y-105454494D01*
X124198815Y-105551185D01*
X124295506Y-105630537D01*
X124405820Y-105689502D01*
X124525518Y-105725812D01*
X124650000Y-105738072D01*
X125214250Y-105735000D01*
X125373000Y-105576250D01*
X125373000Y-104377000D01*
X124173750Y-104377000D01*
X124015000Y-104535750D01*
X124011928Y-105100000D01*
X117449222Y-105100000D01*
X117399110Y-104848075D01*
X117230631Y-104441331D01*
X116986038Y-104075271D01*
X116674729Y-103763962D01*
X116308669Y-103519369D01*
X116020487Y-103400000D01*
X124011928Y-103400000D01*
X124015000Y-103964250D01*
X124173750Y-104123000D01*
X125373000Y-104123000D01*
X125373000Y-102923750D01*
X125627000Y-102923750D01*
X125627000Y-104123000D01*
X125647000Y-104123000D01*
X125647000Y-104377000D01*
X125627000Y-104377000D01*
X125627000Y-105576250D01*
X125785750Y-105735000D01*
X126350000Y-105738072D01*
X126474482Y-105725812D01*
X126594180Y-105689502D01*
X126704494Y-105630537D01*
X126801185Y-105551185D01*
X126880537Y-105454494D01*
X126939502Y-105344180D01*
X126960393Y-105275313D01*
X126984866Y-105305134D01*
X127210986Y-105490706D01*
X127468966Y-105628599D01*
X127748889Y-105713513D01*
X127967050Y-105735000D01*
X128112950Y-105735000D01*
X128331111Y-105713513D01*
X128405996Y-105690797D01*
X130240001Y-107524803D01*
X130240001Y-108214851D01*
X130225116Y-108207233D01*
X130104788Y-108173066D01*
X129980108Y-108163030D01*
X129705750Y-108166000D01*
X129547000Y-108324750D01*
X129547000Y-108928000D01*
X129567000Y-108928000D01*
X129567000Y-109182000D01*
X129547000Y-109182000D01*
X129547000Y-110198000D01*
X129567000Y-110198000D01*
X129567000Y-110452000D01*
X129547000Y-110452000D01*
X129547000Y-111468000D01*
X129567000Y-111468000D01*
X129567000Y-111722000D01*
X129547000Y-111722000D01*
X129547000Y-111742000D01*
X129293000Y-111742000D01*
X129293000Y-111722000D01*
X128372250Y-111722000D01*
X128213500Y-111880750D01*
X128225011Y-111984635D01*
X128263452Y-112103666D01*
X128324376Y-112212910D01*
X128339325Y-112230476D01*
X128317963Y-112256506D01*
X128258998Y-112366820D01*
X128222688Y-112486518D01*
X128210428Y-112611000D01*
X128210428Y-113119000D01*
X128222688Y-113243482D01*
X128258998Y-113363180D01*
X128317963Y-113473494D01*
X128339716Y-113500000D01*
X128317963Y-113526506D01*
X128258998Y-113636820D01*
X128222688Y-113756518D01*
X128210428Y-113881000D01*
X128210428Y-114389000D01*
X128222688Y-114513482D01*
X128258998Y-114633180D01*
X128317963Y-114743494D01*
X128339716Y-114770000D01*
X128317963Y-114796506D01*
X128258998Y-114906820D01*
X128222688Y-115026518D01*
X128210428Y-115151000D01*
X128210428Y-115659000D01*
X128222688Y-115783482D01*
X128258998Y-115903180D01*
X128317963Y-116013494D01*
X128339716Y-116040000D01*
X128317963Y-116066506D01*
X128258998Y-116176820D01*
X128222688Y-116296518D01*
X128210428Y-116421000D01*
X128210428Y-116929000D01*
X128222688Y-117053482D01*
X128258998Y-117173180D01*
X128317963Y-117283494D01*
X128339325Y-117309524D01*
X128324376Y-117327090D01*
X128263452Y-117436334D01*
X128225011Y-117555365D01*
X128213500Y-117659250D01*
X128372250Y-117818000D01*
X129293000Y-117818000D01*
X129293000Y-117798000D01*
X129547000Y-117798000D01*
X129547000Y-117818000D01*
X130467750Y-117818000D01*
X130626500Y-117659250D01*
X130614989Y-117555365D01*
X130576548Y-117436334D01*
X130515624Y-117327090D01*
X130500675Y-117309524D01*
X130522037Y-117283494D01*
X130581002Y-117173180D01*
X130617312Y-117053482D01*
X130629572Y-116929000D01*
X130629572Y-116857729D01*
X133786003Y-113701299D01*
X133815000Y-113677502D01*
X133849902Y-113634974D01*
X133909973Y-113561778D01*
X133980545Y-113429748D01*
X134000738Y-113363180D01*
X134024002Y-113286487D01*
X134034999Y-113174834D01*
X134034999Y-113174825D01*
X134038675Y-113137502D01*
X134034999Y-113100179D01*
X134034999Y-106949802D01*
X135294005Y-105690797D01*
X135368889Y-105713513D01*
X135587050Y-105735000D01*
X135732950Y-105735000D01*
X135951111Y-105713513D01*
X136231034Y-105628599D01*
X136489014Y-105490706D01*
X136715134Y-105305134D01*
X136900706Y-105079014D01*
X136930000Y-105024209D01*
X136959294Y-105079014D01*
X137144866Y-105305134D01*
X137370986Y-105490706D01*
X137628966Y-105628599D01*
X137908889Y-105713513D01*
X138127050Y-105735000D01*
X138272950Y-105735000D01*
X138491111Y-105713513D01*
X138771034Y-105628599D01*
X139029014Y-105490706D01*
X139255134Y-105305134D01*
X139275866Y-105279872D01*
X151765000Y-105279872D01*
X151765000Y-105720128D01*
X151850890Y-106151925D01*
X152019369Y-106558669D01*
X152263962Y-106924729D01*
X152575271Y-107236038D01*
X152941331Y-107480631D01*
X153348075Y-107649110D01*
X153779872Y-107735000D01*
X154220128Y-107735000D01*
X154651925Y-107649110D01*
X155058669Y-107480631D01*
X155424729Y-107236038D01*
X155736038Y-106924729D01*
X155980631Y-106558669D01*
X156149110Y-106151925D01*
X156235000Y-105720128D01*
X156235000Y-105279872D01*
X156149110Y-104848075D01*
X155980631Y-104441331D01*
X155736038Y-104075271D01*
X155424729Y-103763962D01*
X155058669Y-103519369D01*
X154651925Y-103350890D01*
X154220128Y-103265000D01*
X153779872Y-103265000D01*
X153348075Y-103350890D01*
X152941331Y-103519369D01*
X152575271Y-103763962D01*
X152263962Y-104075271D01*
X152019369Y-104441331D01*
X151850890Y-104848075D01*
X151765000Y-105279872D01*
X139275866Y-105279872D01*
X139440706Y-105079014D01*
X139578599Y-104821034D01*
X139663513Y-104541111D01*
X139692185Y-104250000D01*
X139663513Y-103958889D01*
X139578599Y-103678966D01*
X139440706Y-103420986D01*
X139255134Y-103194866D01*
X139029014Y-103009294D01*
X138771034Y-102871401D01*
X138491111Y-102786487D01*
X138272950Y-102765000D01*
X138127050Y-102765000D01*
X137908889Y-102786487D01*
X137628966Y-102871401D01*
X137370986Y-103009294D01*
X137144866Y-103194866D01*
X136959294Y-103420986D01*
X136930000Y-103475791D01*
X136900706Y-103420986D01*
X136715134Y-103194866D01*
X136489014Y-103009294D01*
X136231034Y-102871401D01*
X135951111Y-102786487D01*
X135732950Y-102765000D01*
X135587050Y-102765000D01*
X135368889Y-102786487D01*
X135088966Y-102871401D01*
X134830986Y-103009294D01*
X134604866Y-103194866D01*
X134419294Y-103420986D01*
X134390000Y-103475791D01*
X134360706Y-103420986D01*
X134175134Y-103194866D01*
X133949014Y-103009294D01*
X133691034Y-102871401D01*
X133411111Y-102786487D01*
X133192950Y-102765000D01*
X133047050Y-102765000D01*
X132828889Y-102786487D01*
X132548966Y-102871401D01*
X132290986Y-103009294D01*
X132064866Y-103194866D01*
X131879294Y-103420986D01*
X131850000Y-103475791D01*
X131820706Y-103420986D01*
X131635134Y-103194866D01*
X131409014Y-103009294D01*
X131151034Y-102871401D01*
X130871111Y-102786487D01*
X130652950Y-102765000D01*
X130507050Y-102765000D01*
X130288889Y-102786487D01*
X130008966Y-102871401D01*
X129750986Y-103009294D01*
X129524866Y-103194866D01*
X129339294Y-103420986D01*
X129310000Y-103475791D01*
X129280706Y-103420986D01*
X129095134Y-103194866D01*
X128869014Y-103009294D01*
X128611034Y-102871401D01*
X128331111Y-102786487D01*
X128112950Y-102765000D01*
X127967050Y-102765000D01*
X127748889Y-102786487D01*
X127468966Y-102871401D01*
X127210986Y-103009294D01*
X126984866Y-103194866D01*
X126960393Y-103224687D01*
X126939502Y-103155820D01*
X126880537Y-103045506D01*
X126801185Y-102948815D01*
X126704494Y-102869463D01*
X126594180Y-102810498D01*
X126474482Y-102774188D01*
X126350000Y-102761928D01*
X125785750Y-102765000D01*
X125627000Y-102923750D01*
X125373000Y-102923750D01*
X125214250Y-102765000D01*
X124650000Y-102761928D01*
X124525518Y-102774188D01*
X124405820Y-102810498D01*
X124295506Y-102869463D01*
X124198815Y-102948815D01*
X124119463Y-103045506D01*
X124060498Y-103155820D01*
X124024188Y-103275518D01*
X124011928Y-103400000D01*
X116020487Y-103400000D01*
X115901925Y-103350890D01*
X115470128Y-103265000D01*
X115029872Y-103265000D01*
X114598075Y-103350890D01*
X114191331Y-103519369D01*
X113825271Y-103763962D01*
X113513962Y-104075271D01*
X113269369Y-104441331D01*
X113100890Y-104848075D01*
X113015000Y-105279872D01*
X108104670Y-105279872D01*
X105484797Y-102660000D01*
X155467721Y-102660000D01*
X155759659Y-102688625D01*
X155759659Y-102688625D01*
G37*
X155759659Y-102688625D02*
X156009429Y-102764035D01*
X156239792Y-102886522D01*
X156441980Y-103051422D01*
X156608286Y-103252450D01*
X156732378Y-103481954D01*
X156809531Y-103731195D01*
X156840000Y-104021089D01*
X156840001Y-129967711D01*
X156811375Y-130259660D01*
X156735965Y-130509429D01*
X156613477Y-130739794D01*
X156448579Y-130941979D01*
X156247546Y-131108288D01*
X156018046Y-131232378D01*
X155768805Y-131309531D01*
X155478911Y-131340000D01*
X148877000Y-131340000D01*
X148877000Y-128279872D01*
X151765000Y-128279872D01*
X151765000Y-128720128D01*
X151850890Y-129151925D01*
X152019369Y-129558669D01*
X152263962Y-129924729D01*
X152575271Y-130236038D01*
X152941331Y-130480631D01*
X153348075Y-130649110D01*
X153779872Y-130735000D01*
X154220128Y-130735000D01*
X154651925Y-130649110D01*
X155058669Y-130480631D01*
X155424729Y-130236038D01*
X155736038Y-129924729D01*
X155980631Y-129558669D01*
X156149110Y-129151925D01*
X156235000Y-128720128D01*
X156235000Y-128279872D01*
X156149110Y-127848075D01*
X155980631Y-127441331D01*
X155736038Y-127075271D01*
X155424729Y-126763962D01*
X155058669Y-126519369D01*
X154651925Y-126350890D01*
X154220128Y-126265000D01*
X153779872Y-126265000D01*
X153348075Y-126350890D01*
X152941331Y-126519369D01*
X152575271Y-126763962D01*
X152263962Y-127075271D01*
X152019369Y-127441331D01*
X151850890Y-127848075D01*
X151765000Y-128279872D01*
X148877000Y-128279872D01*
X148877000Y-123000000D01*
X148874560Y-122975224D01*
X148867333Y-122951399D01*
X148855597Y-122929443D01*
X148839803Y-122910197D01*
X148820557Y-122894403D01*
X148798601Y-122882667D01*
X148774776Y-122875440D01*
X148750000Y-122873000D01*
X140237802Y-122873000D01*
X139814802Y-122450000D01*
X149261928Y-122450000D01*
X149274188Y-122574482D01*
X149310498Y-122694180D01*
X149369463Y-122804494D01*
X149448815Y-122901185D01*
X149545506Y-122980537D01*
X149655820Y-123039502D01*
X149775518Y-123075812D01*
X149900000Y-123088072D01*
X150464250Y-123085000D01*
X150623000Y-122926250D01*
X150623000Y-121977000D01*
X150877000Y-121977000D01*
X150877000Y-122926250D01*
X151035750Y-123085000D01*
X151600000Y-123088072D01*
X151724482Y-123075812D01*
X151844180Y-123039502D01*
X151954494Y-122980537D01*
X152051185Y-122901185D01*
X152130537Y-122804494D01*
X152189502Y-122694180D01*
X152225812Y-122574482D01*
X152238072Y-122450000D01*
X152235000Y-122135750D01*
X152076250Y-121977000D01*
X150877000Y-121977000D01*
X150623000Y-121977000D01*
X149423750Y-121977000D01*
X149265000Y-122135750D01*
X149261928Y-122450000D01*
X139814802Y-122450000D01*
X137853804Y-120489003D01*
X137830001Y-120459999D01*
X137714276Y-120365026D01*
X137582247Y-120294454D01*
X137438986Y-120250997D01*
X137327333Y-120240000D01*
X137327322Y-120240000D01*
X137290000Y-120236324D01*
X137252678Y-120240000D01*
X136703711Y-120240000D01*
X136659774Y-120196063D01*
X136491305Y-120083496D01*
X136814802Y-119760000D01*
X141212678Y-119760000D01*
X141250000Y-119763676D01*
X141287322Y-119760000D01*
X141287333Y-119760000D01*
X141398986Y-119749003D01*
X141542247Y-119705546D01*
X141674276Y-119634974D01*
X141790001Y-119540001D01*
X141813803Y-119510998D01*
X142011003Y-119313799D01*
X142040001Y-119290001D01*
X142134974Y-119174276D01*
X142205546Y-119042247D01*
X142249003Y-118898986D01*
X142260000Y-118787333D01*
X142260000Y-118787324D01*
X142263676Y-118750001D01*
X142260000Y-118712678D01*
X142260000Y-118314822D01*
X142263676Y-118277499D01*
X142260000Y-118240176D01*
X142260000Y-118240168D01*
X142249003Y-118128514D01*
X142205546Y-117985253D01*
X142134974Y-117853224D01*
X142040001Y-117737499D01*
X142011003Y-117713701D01*
X140789572Y-116492271D01*
X140789572Y-116421000D01*
X140777312Y-116296518D01*
X140741002Y-116176820D01*
X140734684Y-116165000D01*
X146840199Y-116165000D01*
X149636338Y-118961140D01*
X149622498Y-118972498D01*
X149468167Y-119160551D01*
X149353489Y-119375099D01*
X149282870Y-119607898D01*
X149259025Y-119850000D01*
X149282870Y-120092102D01*
X149353489Y-120324901D01*
X149468167Y-120539449D01*
X149594436Y-120693309D01*
X149545506Y-120719463D01*
X149448815Y-120798815D01*
X149369463Y-120895506D01*
X149310498Y-121005820D01*
X149274188Y-121125518D01*
X149261928Y-121250000D01*
X149265000Y-121564250D01*
X149423750Y-121723000D01*
X150623000Y-121723000D01*
X150623000Y-121703000D01*
X150877000Y-121703000D01*
X150877000Y-121723000D01*
X152076250Y-121723000D01*
X152235000Y-121564250D01*
X152238072Y-121250000D01*
X152225812Y-121125518D01*
X152189502Y-121005820D01*
X152130537Y-120895506D01*
X152051185Y-120798815D01*
X151954494Y-120719463D01*
X151905564Y-120693309D01*
X152031833Y-120539449D01*
X152146511Y-120324901D01*
X152217130Y-120092102D01*
X152240975Y-119850000D01*
X152217130Y-119607898D01*
X152146511Y-119375099D01*
X152031833Y-119160551D01*
X151877502Y-118972498D01*
X151689449Y-118818167D01*
X151474901Y-118703489D01*
X151449080Y-118695656D01*
X151384974Y-118575724D01*
X151290001Y-118459999D01*
X151261003Y-118436201D01*
X147718804Y-114894003D01*
X147695001Y-114864999D01*
X147676551Y-114849857D01*
X147707247Y-114840546D01*
X147839276Y-114769974D01*
X147955001Y-114675001D01*
X147978804Y-114645997D01*
X148124801Y-114500000D01*
X149261928Y-114500000D01*
X149274188Y-114624482D01*
X149310498Y-114744180D01*
X149369463Y-114854494D01*
X149448815Y-114951185D01*
X149545506Y-115030537D01*
X149655820Y-115089502D01*
X149775518Y-115125812D01*
X149900000Y-115138072D01*
X150464250Y-115135000D01*
X150623000Y-114976250D01*
X150623000Y-114027000D01*
X150877000Y-114027000D01*
X150877000Y-114976250D01*
X151035750Y-115135000D01*
X151600000Y-115138072D01*
X151724482Y-115125812D01*
X151844180Y-115089502D01*
X151954494Y-115030537D01*
X152051185Y-114951185D01*
X152130537Y-114854494D01*
X152189502Y-114744180D01*
X152225812Y-114624482D01*
X152238072Y-114500000D01*
X152235000Y-114185750D01*
X152076250Y-114027000D01*
X150877000Y-114027000D01*
X150623000Y-114027000D01*
X149423750Y-114027000D01*
X149265000Y-114185750D01*
X149261928Y-114500000D01*
X148124801Y-114500000D01*
X149262537Y-113362265D01*
X149265000Y-113614250D01*
X149423750Y-113773000D01*
X150623000Y-113773000D01*
X150623000Y-113753000D01*
X150877000Y-113753000D01*
X150877000Y-113773000D01*
X152076250Y-113773000D01*
X152235000Y-113614250D01*
X152238072Y-113300000D01*
X152225812Y-113175518D01*
X152189502Y-113055820D01*
X152130537Y-112945506D01*
X152051185Y-112848815D01*
X151954494Y-112769463D01*
X151905564Y-112743309D01*
X152031833Y-112589449D01*
X152146511Y-112374901D01*
X152217130Y-112142102D01*
X152240975Y-111900000D01*
X152217130Y-111657898D01*
X152146511Y-111425099D01*
X152031833Y-111210551D01*
X151877502Y-111022498D01*
X151689449Y-110868167D01*
X151474901Y-110753489D01*
X151242102Y-110682870D01*
X151060665Y-110665000D01*
X150439335Y-110665000D01*
X150257898Y-110682870D01*
X150025099Y-110753489D01*
X149810551Y-110868167D01*
X149622498Y-111022498D01*
X149518451Y-111149280D01*
X149501014Y-111150997D01*
X149357753Y-111194454D01*
X149225724Y-111265026D01*
X149109999Y-111359999D01*
X149086201Y-111388997D01*
X147100199Y-113375000D01*
X140734684Y-113375000D01*
X140741002Y-113363180D01*
X140777312Y-113243482D01*
X140789572Y-113119000D01*
X140789572Y-112611000D01*
X140777312Y-112486518D01*
X140741002Y-112366820D01*
X140682037Y-112256506D01*
X140660284Y-112230000D01*
X140682037Y-112203494D01*
X140741002Y-112093180D01*
X140777312Y-111973482D01*
X140789572Y-111849000D01*
X140789572Y-111341000D01*
X140777312Y-111216518D01*
X140741002Y-111096820D01*
X140682037Y-110986506D01*
X140660284Y-110960000D01*
X140682037Y-110933494D01*
X140741002Y-110823180D01*
X140777312Y-110703482D01*
X140789572Y-110579000D01*
X140789572Y-110507729D01*
X141261004Y-110036298D01*
X141290001Y-110012501D01*
X141344152Y-109946518D01*
X141384974Y-109896777D01*
X141455546Y-109764747D01*
X141470179Y-109716506D01*
X141499003Y-109621486D01*
X141510000Y-109509833D01*
X141510000Y-109509824D01*
X141513676Y-109472501D01*
X141510000Y-109435178D01*
X141510000Y-108287333D01*
X141513677Y-108250000D01*
X141499003Y-108101014D01*
X141455546Y-107957753D01*
X141384974Y-107825724D01*
X141313799Y-107738997D01*
X141290001Y-107709999D01*
X141261003Y-107686201D01*
X140313804Y-106739002D01*
X140290001Y-106709999D01*
X140174276Y-106615026D01*
X140042247Y-106544454D01*
X139898986Y-106500997D01*
X139787333Y-106490000D01*
X139787322Y-106490000D01*
X139750000Y-106486324D01*
X139712678Y-106490000D01*
X136203711Y-106490000D01*
X136159774Y-106446063D01*
X135990256Y-106332795D01*
X135801898Y-106254774D01*
X135601939Y-106215000D01*
X135398061Y-106215000D01*
X135198102Y-106254774D01*
X135009744Y-106332795D01*
X134840226Y-106446063D01*
X134696063Y-106590226D01*
X134582795Y-106759744D01*
X134504774Y-106948102D01*
X134465000Y-107148061D01*
X134465000Y-107351939D01*
X134504774Y-107551898D01*
X134582795Y-107740256D01*
X134696063Y-107909774D01*
X134840226Y-108053937D01*
X135009744Y-108167205D01*
X135198102Y-108245226D01*
X135398061Y-108285000D01*
X135601939Y-108285000D01*
X135801898Y-108245226D01*
X135990256Y-108167205D01*
X136159774Y-108053937D01*
X136203711Y-108010000D01*
X139435199Y-108010000D01*
X139588127Y-108162928D01*
X139008500Y-108162928D01*
X138884018Y-108175188D01*
X138764320Y-108211498D01*
X138654006Y-108270463D01*
X138557315Y-108349815D01*
X138477963Y-108446506D01*
X138418998Y-108556820D01*
X138382688Y-108676518D01*
X138370428Y-108801000D01*
X138370428Y-108872270D01*
X136498537Y-110744162D01*
X136351929Y-110715000D01*
X136148051Y-110715000D01*
X135948092Y-110754774D01*
X135759734Y-110832795D01*
X135590216Y-110946063D01*
X135446053Y-111090226D01*
X135332785Y-111259744D01*
X135254764Y-111448102D01*
X135214990Y-111648061D01*
X135214990Y-111851939D01*
X135243591Y-111995726D01*
X135198102Y-112004774D01*
X135009744Y-112082795D01*
X134840226Y-112196063D01*
X134696063Y-112340226D01*
X134582795Y-112509744D01*
X134504774Y-112698102D01*
X134465000Y-112898061D01*
X134465000Y-113101939D01*
X134504774Y-113301898D01*
X134582795Y-113490256D01*
X134696063Y-113659774D01*
X134840226Y-113803937D01*
X135009744Y-113917205D01*
X135198102Y-113995226D01*
X135398061Y-114035000D01*
X135601939Y-114035000D01*
X135801898Y-113995226D01*
X135990256Y-113917205D01*
X136159774Y-113803937D01*
X136203711Y-113760000D01*
X136212678Y-113760000D01*
X136241890Y-113762877D01*
X136215000Y-113898061D01*
X136215000Y-114101939D01*
X136254774Y-114301898D01*
X136332795Y-114490256D01*
X136446063Y-114659774D01*
X136590226Y-114803937D01*
X136759744Y-114917205D01*
X136948102Y-114995226D01*
X137148061Y-115035000D01*
X137351939Y-115035000D01*
X137551898Y-114995226D01*
X137740256Y-114917205D01*
X137909774Y-114803937D01*
X138053937Y-114659774D01*
X138167205Y-114490256D01*
X138245226Y-114301898D01*
X138285000Y-114101939D01*
X138285000Y-114039801D01*
X138370428Y-113954374D01*
X138370428Y-114389000D01*
X138382688Y-114513482D01*
X138418998Y-114633180D01*
X138477963Y-114743494D01*
X138499716Y-114770000D01*
X138477963Y-114796506D01*
X138418998Y-114906820D01*
X138382688Y-115026518D01*
X138370428Y-115151000D01*
X138370428Y-115659000D01*
X138382688Y-115783482D01*
X138418998Y-115903180D01*
X138477963Y-116013494D01*
X138499716Y-116040000D01*
X138477963Y-116066506D01*
X138418998Y-116176820D01*
X138382688Y-116296518D01*
X138370428Y-116421000D01*
X138370428Y-116929000D01*
X138382688Y-117053482D01*
X138418998Y-117173180D01*
X138425316Y-117185000D01*
X135092322Y-117185000D01*
X135054999Y-117181324D01*
X135017676Y-117185000D01*
X135017667Y-117185000D01*
X134906014Y-117195997D01*
X134762753Y-117239454D01*
X134630724Y-117310026D01*
X134630722Y-117310027D01*
X134630723Y-117310027D01*
X134543996Y-117381201D01*
X134543992Y-117381205D01*
X134514999Y-117404999D01*
X134491205Y-117433992D01*
X130239002Y-121686197D01*
X130238997Y-121686201D01*
X128107364Y-123817835D01*
X127992101Y-123782870D01*
X127750000Y-123759025D01*
X127507898Y-123782870D01*
X127275099Y-123853489D01*
X127060551Y-123968167D01*
X126906691Y-124094436D01*
X126880537Y-124045506D01*
X126801185Y-123948815D01*
X126704494Y-123869463D01*
X126594180Y-123810498D01*
X126474482Y-123774188D01*
X126350000Y-123761928D01*
X126035750Y-123765000D01*
X125877000Y-123923750D01*
X125877000Y-125123000D01*
X125897000Y-125123000D01*
X125897000Y-125377000D01*
X125877000Y-125377000D01*
X125877000Y-126576250D01*
X126035750Y-126735000D01*
X126350000Y-126738072D01*
X126474482Y-126725812D01*
X126594180Y-126689502D01*
X126704494Y-126630537D01*
X126801185Y-126551185D01*
X126880537Y-126454494D01*
X126906692Y-126405563D01*
X127060552Y-126531833D01*
X127275100Y-126646511D01*
X127507899Y-126717130D01*
X127750000Y-126740975D01*
X127992102Y-126717130D01*
X128224901Y-126646511D01*
X128439449Y-126531833D01*
X128627502Y-126377502D01*
X128781833Y-126189449D01*
X128829644Y-126100000D01*
X131711928Y-126100000D01*
X131724188Y-126224482D01*
X131760498Y-126344180D01*
X131819463Y-126454494D01*
X131898815Y-126551185D01*
X131995506Y-126630537D01*
X132105820Y-126689502D01*
X132225518Y-126725812D01*
X132350000Y-126738072D01*
X132664250Y-126735000D01*
X132823000Y-126576250D01*
X132823000Y-125377000D01*
X131873750Y-125377000D01*
X131715000Y-125535750D01*
X131711928Y-126100000D01*
X128829644Y-126100000D01*
X128896511Y-125974900D01*
X128967130Y-125742101D01*
X128985000Y-125560664D01*
X128985000Y-125089801D01*
X129674801Y-124400000D01*
X131711928Y-124400000D01*
X131715000Y-124964250D01*
X131873750Y-125123000D01*
X132823000Y-125123000D01*
X132823000Y-123923750D01*
X132664250Y-123765000D01*
X132350000Y-123761928D01*
X132225518Y-123774188D01*
X132105820Y-123810498D01*
X131995506Y-123869463D01*
X131898815Y-123948815D01*
X131819463Y-124045506D01*
X131760498Y-124155820D01*
X131724188Y-124275518D01*
X131711928Y-124400000D01*
X129674801Y-124400000D01*
X131313799Y-122761003D01*
X131313803Y-122760998D01*
X135369803Y-118705000D01*
X135720198Y-118705000D01*
X134438998Y-119986201D01*
X134410000Y-120009999D01*
X134386202Y-120038997D01*
X134386201Y-120038998D01*
X134315026Y-120125724D01*
X134244454Y-120257754D01*
X134200998Y-120401015D01*
X134186324Y-120550000D01*
X134190001Y-120587332D01*
X134190000Y-124026066D01*
X134106691Y-124094436D01*
X134080537Y-124045506D01*
X134001185Y-123948815D01*
X133904494Y-123869463D01*
X133794180Y-123810498D01*
X133674482Y-123774188D01*
X133550000Y-123761928D01*
X133235750Y-123765000D01*
X133077000Y-123923750D01*
X133077000Y-125123000D01*
X133097000Y-125123000D01*
X133097000Y-125377000D01*
X133077000Y-125377000D01*
X133077000Y-126576250D01*
X133235750Y-126735000D01*
X133550000Y-126738072D01*
X133674482Y-126725812D01*
X133794180Y-126689502D01*
X133904494Y-126630537D01*
X134001185Y-126551185D01*
X134080537Y-126454494D01*
X134106692Y-126405563D01*
X134260552Y-126531833D01*
X134475100Y-126646511D01*
X134707899Y-126717130D01*
X134950000Y-126740975D01*
X135192102Y-126717130D01*
X135424901Y-126646511D01*
X135639449Y-126531833D01*
X135827502Y-126377502D01*
X135981833Y-126189449D01*
X136096511Y-125974900D01*
X136167130Y-125742101D01*
X136185000Y-125560664D01*
X136185000Y-124939335D01*
X136167130Y-124757898D01*
X136096511Y-124525099D01*
X135981833Y-124310551D01*
X135827502Y-124122498D01*
X135710000Y-124026067D01*
X135710000Y-121997593D01*
X135898061Y-122035000D01*
X136101939Y-122035000D01*
X136301898Y-121995226D01*
X136490256Y-121917205D01*
X136659774Y-121803937D01*
X136703711Y-121760000D01*
X136975199Y-121760000D01*
X138088199Y-122873000D01*
X137750000Y-122873000D01*
X137725224Y-122875440D01*
X137701399Y-122882667D01*
X137679443Y-122894403D01*
X137660197Y-122910197D01*
X137644403Y-122929443D01*
X137632667Y-122951399D01*
X137625440Y-122975224D01*
X137623000Y-123000000D01*
X137623000Y-131340000D01*
X88223248Y-131340000D01*
X88409014Y-131240706D01*
X88635134Y-131055134D01*
X88820706Y-130829014D01*
X88958599Y-130571034D01*
X89043513Y-130291111D01*
X89072185Y-130000000D01*
X89043513Y-129708889D01*
X88958599Y-129428966D01*
X88820706Y-129170986D01*
X88635134Y-128944866D01*
X88409014Y-128759294D01*
X88340000Y-128722405D01*
X88340000Y-127400000D01*
X107011928Y-127400000D01*
X107011928Y-129100000D01*
X107024188Y-129224482D01*
X107060498Y-129344180D01*
X107119463Y-129454494D01*
X107198815Y-129551185D01*
X107295506Y-129630537D01*
X107405820Y-129689502D01*
X107525518Y-129725812D01*
X107650000Y-129738072D01*
X109350000Y-129738072D01*
X109474482Y-129725812D01*
X109594180Y-129689502D01*
X109704494Y-129630537D01*
X109801185Y-129551185D01*
X109880537Y-129454494D01*
X109939502Y-129344180D01*
X109963966Y-129263534D01*
X110039731Y-129347588D01*
X110273080Y-129521641D01*
X110535901Y-129646825D01*
X110683110Y-129691476D01*
X110913000Y-129570155D01*
X110913000Y-128377000D01*
X110893000Y-128377000D01*
X110893000Y-128123000D01*
X110913000Y-128123000D01*
X110913000Y-126929845D01*
X110683110Y-126808524D01*
X110535901Y-126853175D01*
X110273080Y-126978359D01*
X110039731Y-127152412D01*
X109963966Y-127236466D01*
X109939502Y-127155820D01*
X109880537Y-127045506D01*
X109801185Y-126948815D01*
X109704494Y-126869463D01*
X109594180Y-126810498D01*
X109474482Y-126774188D01*
X109350000Y-126761928D01*
X107650000Y-126761928D01*
X107525518Y-126774188D01*
X107405820Y-126810498D01*
X107295506Y-126869463D01*
X107198815Y-126948815D01*
X107119463Y-127045506D01*
X107060498Y-127155820D01*
X107024188Y-127275518D01*
X107011928Y-127400000D01*
X88340000Y-127400000D01*
X88340000Y-125617322D01*
X88342308Y-125593887D01*
X88343470Y-125595049D01*
X88371183Y-125628817D01*
X88404951Y-125656530D01*
X88404953Y-125656532D01*
X88426573Y-125674275D01*
X88505941Y-125739411D01*
X88659687Y-125821589D01*
X88826510Y-125872195D01*
X88956523Y-125885000D01*
X88956533Y-125885000D01*
X88999999Y-125889281D01*
X89043465Y-125885000D01*
X92206531Y-125885000D01*
X92250000Y-125889281D01*
X92293469Y-125885000D01*
X92293477Y-125885000D01*
X92423490Y-125872195D01*
X92590313Y-125821589D01*
X92744059Y-125739411D01*
X92878817Y-125628817D01*
X92906534Y-125595044D01*
X93725000Y-124776579D01*
X94043470Y-125095049D01*
X94071183Y-125128817D01*
X94104951Y-125156530D01*
X94104953Y-125156532D01*
X94151161Y-125194454D01*
X94205941Y-125239411D01*
X94359687Y-125321589D01*
X94468159Y-125354494D01*
X94526509Y-125372195D01*
X94541306Y-125373652D01*
X94656523Y-125385000D01*
X94656531Y-125385000D01*
X94700000Y-125389281D01*
X94743469Y-125385000D01*
X113035896Y-125385000D01*
X113016202Y-125408997D01*
X113016201Y-125408998D01*
X112945026Y-125495724D01*
X112874454Y-125627754D01*
X112844180Y-125727558D01*
X112840585Y-125739411D01*
X112830998Y-125771015D01*
X112816324Y-125920000D01*
X112820001Y-125957332D01*
X112820001Y-126972405D01*
X112750986Y-127009294D01*
X112524866Y-127194866D01*
X112339294Y-127420986D01*
X112304799Y-127485523D01*
X112235178Y-127368645D01*
X112040269Y-127152412D01*
X111806920Y-126978359D01*
X111544099Y-126853175D01*
X111396890Y-126808524D01*
X111167000Y-126929845D01*
X111167000Y-128123000D01*
X111187000Y-128123000D01*
X111187000Y-128377000D01*
X111167000Y-128377000D01*
X111167000Y-129570155D01*
X111396890Y-129691476D01*
X111544099Y-129646825D01*
X111806920Y-129521641D01*
X112040269Y-129347588D01*
X112235178Y-129131355D01*
X112304799Y-129014477D01*
X112339294Y-129079014D01*
X112524866Y-129305134D01*
X112750986Y-129490706D01*
X113008966Y-129628599D01*
X113288889Y-129713513D01*
X113507050Y-129735000D01*
X113652950Y-129735000D01*
X113871111Y-129713513D01*
X114151034Y-129628599D01*
X114409014Y-129490706D01*
X114635134Y-129305134D01*
X114820706Y-129079014D01*
X114958599Y-128821034D01*
X115043513Y-128541111D01*
X115072185Y-128250000D01*
X115043513Y-127958889D01*
X114958599Y-127678966D01*
X114820706Y-127420986D01*
X114635134Y-127194866D01*
X114409014Y-127009294D01*
X114340000Y-126972405D01*
X114340000Y-126234801D01*
X115215285Y-125359516D01*
X115340313Y-125321589D01*
X115494059Y-125239411D01*
X115628817Y-125128817D01*
X115656534Y-125095044D01*
X116866579Y-123885000D01*
X117526574Y-123885000D01*
X117448815Y-123948815D01*
X117369463Y-124045506D01*
X117310498Y-124155820D01*
X117274188Y-124275518D01*
X117261928Y-124400000D01*
X117261928Y-126100000D01*
X117274188Y-126224482D01*
X117310498Y-126344180D01*
X117369463Y-126454494D01*
X117448815Y-126551185D01*
X117545506Y-126630537D01*
X117655820Y-126689502D01*
X117775518Y-126725812D01*
X117900000Y-126738072D01*
X119100000Y-126738072D01*
X119224482Y-126725812D01*
X119344180Y-126689502D01*
X119454494Y-126630537D01*
X119551185Y-126551185D01*
X119630537Y-126454494D01*
X119656692Y-126405563D01*
X119810552Y-126531833D01*
X120025100Y-126646511D01*
X120257899Y-126717130D01*
X120500000Y-126740975D01*
X120742102Y-126717130D01*
X120974901Y-126646511D01*
X121189449Y-126531833D01*
X121377502Y-126377502D01*
X121531833Y-126189449D01*
X121579644Y-126100000D01*
X124511928Y-126100000D01*
X124524188Y-126224482D01*
X124560498Y-126344180D01*
X124619463Y-126454494D01*
X124698815Y-126551185D01*
X124795506Y-126630537D01*
X124905820Y-126689502D01*
X125025518Y-126725812D01*
X125150000Y-126738072D01*
X125464250Y-126735000D01*
X125623000Y-126576250D01*
X125623000Y-125377000D01*
X124673750Y-125377000D01*
X124515000Y-125535750D01*
X124511928Y-126100000D01*
X121579644Y-126100000D01*
X121646511Y-125974900D01*
X121717130Y-125742101D01*
X121735000Y-125560664D01*
X121735000Y-124939335D01*
X121717130Y-124757898D01*
X121646511Y-124525099D01*
X121579645Y-124400000D01*
X124511928Y-124400000D01*
X124515000Y-124964250D01*
X124673750Y-125123000D01*
X125623000Y-125123000D01*
X125623000Y-123923750D01*
X125464250Y-123765000D01*
X125150000Y-123761928D01*
X125025518Y-123774188D01*
X124905820Y-123810498D01*
X124795506Y-123869463D01*
X124698815Y-123948815D01*
X124619463Y-124045506D01*
X124560498Y-124155820D01*
X124524188Y-124275518D01*
X124511928Y-124400000D01*
X121579645Y-124400000D01*
X121531833Y-124310551D01*
X121385000Y-124131634D01*
X121385000Y-124043469D01*
X121389281Y-124000000D01*
X121385000Y-123956531D01*
X121385000Y-123956523D01*
X121372195Y-123826510D01*
X121349076Y-123750299D01*
X121321589Y-123659686D01*
X121239411Y-123505941D01*
X121156532Y-123404953D01*
X121156530Y-123404951D01*
X121128817Y-123371183D01*
X121095050Y-123343471D01*
X120156534Y-122404956D01*
X120128817Y-122371183D01*
X119994059Y-122260589D01*
X119840313Y-122178411D01*
X119673490Y-122127805D01*
X119543477Y-122115000D01*
X119543469Y-122115000D01*
X119500000Y-122110719D01*
X119456531Y-122115000D01*
X116543465Y-122115000D01*
X116499999Y-122110719D01*
X116456533Y-122115000D01*
X116456523Y-122115000D01*
X116326510Y-122127805D01*
X116159687Y-122178411D01*
X116005941Y-122260589D01*
X116005939Y-122260590D01*
X116005940Y-122260590D01*
X115904953Y-122343468D01*
X115904951Y-122343470D01*
X115871183Y-122371183D01*
X115843470Y-122404951D01*
X114633422Y-123615000D01*
X104859584Y-123615000D01*
X104908505Y-123582312D01*
X105122312Y-123368505D01*
X105290299Y-123117095D01*
X105406011Y-122837743D01*
X105465000Y-122541184D01*
X105465000Y-122238816D01*
X105406011Y-121942257D01*
X105290299Y-121662905D01*
X105122312Y-121411495D01*
X104908505Y-121197688D01*
X104754895Y-121095049D01*
X104814475Y-120914080D01*
X103930000Y-120029605D01*
X103045525Y-120914080D01*
X103105105Y-121095049D01*
X102951495Y-121197688D01*
X102737688Y-121411495D01*
X102569701Y-121662905D01*
X102453989Y-121942257D01*
X102395000Y-122238816D01*
X102395000Y-122541184D01*
X102453989Y-122837743D01*
X102569701Y-123117095D01*
X102737688Y-123368505D01*
X102951495Y-123582312D01*
X103000416Y-123615000D01*
X95066579Y-123615000D01*
X94738072Y-123286493D01*
X94738072Y-122600000D01*
X94725812Y-122475518D01*
X94689502Y-122355820D01*
X94630537Y-122245506D01*
X94551185Y-122148815D01*
X94454494Y-122069463D01*
X94344180Y-122010498D01*
X94235000Y-121977379D01*
X94235000Y-121085121D01*
X94344180Y-121052002D01*
X94454494Y-120993037D01*
X94551185Y-120913685D01*
X94630537Y-120816994D01*
X94689502Y-120706680D01*
X94725812Y-120586982D01*
X94738072Y-120462500D01*
X94738072Y-119916553D01*
X102389009Y-119916553D01*
X102431603Y-120215907D01*
X102531778Y-120501199D01*
X102611739Y-120650792D01*
X102865920Y-120734475D01*
X103750395Y-119850000D01*
X104109605Y-119850000D01*
X104994080Y-120734475D01*
X105248261Y-120650792D01*
X105379158Y-120378225D01*
X105454365Y-120085358D01*
X105470991Y-119783447D01*
X105428397Y-119484093D01*
X105328222Y-119198801D01*
X105248261Y-119049208D01*
X104994080Y-118965525D01*
X104109605Y-119850000D01*
X103750395Y-119850000D01*
X102865920Y-118965525D01*
X102611739Y-119049208D01*
X102480842Y-119321775D01*
X102405635Y-119614642D01*
X102389009Y-119916553D01*
X94738072Y-119916553D01*
X94738072Y-119162500D01*
X94725812Y-119038018D01*
X94689502Y-118918320D01*
X94630537Y-118808006D01*
X94551185Y-118711315D01*
X94454494Y-118631963D01*
X94344180Y-118572998D01*
X94224482Y-118536688D01*
X94100000Y-118524428D01*
X92600000Y-118524428D01*
X92475518Y-118536688D01*
X92355820Y-118572998D01*
X92245506Y-118631963D01*
X92148815Y-118711315D01*
X92069463Y-118808006D01*
X92010498Y-118918320D01*
X92000000Y-118952927D01*
X91989502Y-118918320D01*
X91930537Y-118808006D01*
X91851185Y-118711315D01*
X91754494Y-118631963D01*
X91644180Y-118572998D01*
X91524482Y-118536688D01*
X91400000Y-118524428D01*
X90336729Y-118524428D01*
X90285002Y-118472701D01*
X90285002Y-118398061D01*
X90245228Y-118198102D01*
X90167207Y-118009744D01*
X90053939Y-117840226D01*
X89909776Y-117696063D01*
X89853556Y-117658498D01*
X89900000Y-117663072D01*
X91400000Y-117663072D01*
X91524482Y-117650812D01*
X91644180Y-117614502D01*
X91754494Y-117555537D01*
X91851185Y-117476185D01*
X91930537Y-117379494D01*
X91989502Y-117269180D01*
X92000000Y-117234573D01*
X92010498Y-117269180D01*
X92069463Y-117379494D01*
X92148815Y-117476185D01*
X92245506Y-117555537D01*
X92355820Y-117614502D01*
X92475518Y-117650812D01*
X92600000Y-117663072D01*
X94100000Y-117663072D01*
X94224482Y-117650812D01*
X94344180Y-117614502D01*
X94454494Y-117555537D01*
X94551185Y-117476185D01*
X94630537Y-117379494D01*
X94689502Y-117269180D01*
X94725812Y-117149482D01*
X94727238Y-117135000D01*
X95060199Y-117135000D01*
X95215000Y-117289801D01*
X95215000Y-117351939D01*
X95254774Y-117551898D01*
X95332795Y-117740256D01*
X95446063Y-117909774D01*
X95590226Y-118053937D01*
X95759744Y-118167205D01*
X95948102Y-118245226D01*
X96148061Y-118285000D01*
X96351939Y-118285000D01*
X96551898Y-118245226D01*
X96740256Y-118167205D01*
X96909774Y-118053937D01*
X97053937Y-117909774D01*
X97167205Y-117740256D01*
X97245226Y-117551898D01*
X97285000Y-117351939D01*
X97285000Y-117148061D01*
X97245226Y-116948102D01*
X97167205Y-116759744D01*
X97053937Y-116590226D01*
X96909774Y-116446063D01*
X96740256Y-116332795D01*
X96551898Y-116254774D01*
X96351939Y-116215000D01*
X96289801Y-116215000D01*
X95938804Y-115864003D01*
X95915001Y-115834999D01*
X95799276Y-115740026D01*
X95667247Y-115669454D01*
X95523986Y-115625997D01*
X95412333Y-115615000D01*
X95412322Y-115615000D01*
X95375000Y-115611324D01*
X95337678Y-115615000D01*
X94727238Y-115615000D01*
X94725812Y-115600518D01*
X94689502Y-115480820D01*
X94630537Y-115370506D01*
X94551185Y-115273815D01*
X94454494Y-115194463D01*
X94344180Y-115135498D01*
X94224482Y-115099188D01*
X94100000Y-115086928D01*
X92600000Y-115086928D01*
X92475518Y-115099188D01*
X92355820Y-115135498D01*
X92245506Y-115194463D01*
X92148815Y-115273815D01*
X92069463Y-115370506D01*
X92010498Y-115480820D01*
X92000000Y-115515427D01*
X91989502Y-115480820D01*
X91930537Y-115370506D01*
X91851185Y-115273815D01*
X91754494Y-115194463D01*
X91644180Y-115135498D01*
X91524482Y-115099188D01*
X91400000Y-115086928D01*
X89900000Y-115086928D01*
X89775518Y-115099188D01*
X89655820Y-115135498D01*
X89545506Y-115194463D01*
X89448815Y-115273815D01*
X89369463Y-115370506D01*
X89310498Y-115480820D01*
X89274188Y-115600518D01*
X89272762Y-115615000D01*
X88912322Y-115615000D01*
X88874999Y-115611324D01*
X88837676Y-115615000D01*
X88837667Y-115615000D01*
X88726014Y-115625997D01*
X88617216Y-115659000D01*
X88582753Y-115669454D01*
X88450723Y-115740026D01*
X88383509Y-115795188D01*
X88334999Y-115834999D01*
X88311201Y-115863997D01*
X85085199Y-119090000D01*
X82408313Y-119090000D01*
X82262312Y-118871495D01*
X82048505Y-118657688D01*
X81932237Y-118580000D01*
X82048505Y-118502312D01*
X82262312Y-118288505D01*
X82407965Y-118070521D01*
X82440000Y-118073676D01*
X82477322Y-118070000D01*
X82477333Y-118070000D01*
X82588986Y-118059003D01*
X82732247Y-118015546D01*
X82864276Y-117944974D01*
X82980001Y-117850001D01*
X83003804Y-117820997D01*
X87127302Y-113697500D01*
X89272762Y-113697500D01*
X89274188Y-113711982D01*
X89310498Y-113831680D01*
X89369463Y-113941994D01*
X89448815Y-114038685D01*
X89545506Y-114118037D01*
X89655820Y-114177002D01*
X89775518Y-114213312D01*
X89900000Y-114225572D01*
X91400000Y-114225572D01*
X91524482Y-114213312D01*
X91644180Y-114177002D01*
X91754494Y-114118037D01*
X91851185Y-114038685D01*
X91930537Y-113941994D01*
X91989502Y-113831680D01*
X92000000Y-113797073D01*
X92010498Y-113831680D01*
X92069463Y-113941994D01*
X92148815Y-114038685D01*
X92245506Y-114118037D01*
X92355820Y-114177002D01*
X92475518Y-114213312D01*
X92600000Y-114225572D01*
X93064250Y-114222500D01*
X93223000Y-114063750D01*
X93223000Y-113064500D01*
X93477000Y-113064500D01*
X93477000Y-114063750D01*
X93635750Y-114222500D01*
X94100000Y-114225572D01*
X94224482Y-114213312D01*
X94344180Y-114177002D01*
X94454494Y-114118037D01*
X94551185Y-114038685D01*
X94630537Y-113941994D01*
X94689502Y-113831680D01*
X94725812Y-113711982D01*
X94738072Y-113587500D01*
X94735000Y-113223250D01*
X94576250Y-113064500D01*
X93477000Y-113064500D01*
X93223000Y-113064500D01*
X93203000Y-113064500D01*
X93203000Y-112810500D01*
X93223000Y-112810500D01*
X93223000Y-111811250D01*
X93477000Y-111811250D01*
X93477000Y-112810500D01*
X94576250Y-112810500D01*
X94735000Y-112651750D01*
X94738072Y-112287500D01*
X94725812Y-112163018D01*
X94689502Y-112043320D01*
X94630537Y-111933006D01*
X94551185Y-111836315D01*
X94454494Y-111756963D01*
X94344180Y-111697998D01*
X94224482Y-111661688D01*
X94100000Y-111649428D01*
X93635750Y-111652500D01*
X93477000Y-111811250D01*
X93223000Y-111811250D01*
X93064250Y-111652500D01*
X92600000Y-111649428D01*
X92475518Y-111661688D01*
X92355820Y-111697998D01*
X92245506Y-111756963D01*
X92148815Y-111836315D01*
X92069463Y-111933006D01*
X92010498Y-112043320D01*
X92000000Y-112077927D01*
X91989502Y-112043320D01*
X91930537Y-111933006D01*
X91851185Y-111836315D01*
X91754494Y-111756963D01*
X91644180Y-111697998D01*
X91524482Y-111661688D01*
X91400000Y-111649428D01*
X89900000Y-111649428D01*
X89775518Y-111661688D01*
X89655820Y-111697998D01*
X89545506Y-111756963D01*
X89448815Y-111836315D01*
X89369463Y-111933006D01*
X89310498Y-112043320D01*
X89274188Y-112163018D01*
X89272762Y-112177500D01*
X86849823Y-112177500D01*
X86812500Y-112173824D01*
X86775177Y-112177500D01*
X86775167Y-112177500D01*
X86663514Y-112188497D01*
X86520253Y-112231954D01*
X86388224Y-112302526D01*
X86272499Y-112397499D01*
X86248701Y-112426497D01*
X82294913Y-116380286D01*
X82262312Y-116331495D01*
X82048505Y-116117688D01*
X81932237Y-116040000D01*
X82048505Y-115962312D01*
X82262312Y-115748505D01*
X82430299Y-115497095D01*
X82546011Y-115217743D01*
X82605000Y-114921184D01*
X82605000Y-114618816D01*
X82546011Y-114322257D01*
X82430299Y-114042905D01*
X82262312Y-113791495D01*
X82048505Y-113577688D01*
X81932237Y-113500000D01*
X82048505Y-113422312D01*
X82262312Y-113208505D01*
X82430299Y-112957095D01*
X82546011Y-112677743D01*
X82605000Y-112381184D01*
X82605000Y-112078816D01*
X82553731Y-111821070D01*
X90614802Y-103760000D01*
X102651824Y-103760000D01*
X102569701Y-103882905D01*
X102453989Y-104162257D01*
X102395000Y-104458816D01*
X102395000Y-104761184D01*
X102453989Y-105057743D01*
X102569701Y-105337095D01*
X102737688Y-105588505D01*
X102951495Y-105802312D01*
X103067763Y-105880000D01*
X102951495Y-105957688D01*
X102737688Y-106171495D01*
X102569701Y-106422905D01*
X102453989Y-106702257D01*
X102395000Y-106998816D01*
X102395000Y-107301184D01*
X102453989Y-107597743D01*
X102569701Y-107877095D01*
X102737688Y-108128505D01*
X102951495Y-108342312D01*
X103067763Y-108420000D01*
X102951495Y-108497688D01*
X102737688Y-108711495D01*
X102569701Y-108962905D01*
X102453989Y-109242257D01*
X102395000Y-109538816D01*
X102395000Y-109841184D01*
X102453989Y-110137743D01*
X102569701Y-110417095D01*
X102737688Y-110668505D01*
X102951495Y-110882312D01*
X103067763Y-110960000D01*
X102951495Y-111037688D01*
X102737688Y-111251495D01*
X102569701Y-111502905D01*
X102453989Y-111782257D01*
X102395000Y-112078816D01*
X102395000Y-112381184D01*
X102453989Y-112677743D01*
X102569701Y-112957095D01*
X102737688Y-113208505D01*
X102951495Y-113422312D01*
X103067763Y-113500000D01*
X102951495Y-113577688D01*
X102737688Y-113791495D01*
X102569701Y-114042905D01*
X102453989Y-114322257D01*
X102395000Y-114618816D01*
X102395000Y-114921184D01*
X102453989Y-115217743D01*
X102569701Y-115497095D01*
X102737688Y-115748505D01*
X102951495Y-115962312D01*
X103067763Y-116040000D01*
X102951495Y-116117688D01*
X102737688Y-116331495D01*
X102569701Y-116582905D01*
X102453989Y-116862257D01*
X102395000Y-117158816D01*
X102395000Y-117461184D01*
X102453989Y-117757743D01*
X102569701Y-118037095D01*
X102737688Y-118288505D01*
X102951495Y-118502312D01*
X103105105Y-118604951D01*
X103045525Y-118785920D01*
X103930000Y-119670395D01*
X104814475Y-118785920D01*
X104754895Y-118604951D01*
X104908505Y-118502312D01*
X105122312Y-118288505D01*
X105268313Y-118070000D01*
X112261928Y-118070000D01*
X112261928Y-118850000D01*
X112274188Y-118974482D01*
X112310498Y-119094180D01*
X112369463Y-119204494D01*
X112448815Y-119301185D01*
X112545506Y-119380537D01*
X112655820Y-119439502D01*
X112775518Y-119475812D01*
X112900000Y-119488072D01*
X114600000Y-119488072D01*
X114724482Y-119475812D01*
X114844180Y-119439502D01*
X114954494Y-119380537D01*
X115051185Y-119301185D01*
X115130537Y-119204494D01*
X115189502Y-119094180D01*
X115213966Y-119013534D01*
X115289731Y-119097588D01*
X115523080Y-119271641D01*
X115785901Y-119396825D01*
X115933110Y-119441476D01*
X116163000Y-119320155D01*
X116163000Y-118127000D01*
X116417000Y-118127000D01*
X116417000Y-119320155D01*
X116646890Y-119441476D01*
X116794099Y-119396825D01*
X117056920Y-119271641D01*
X117290269Y-119097588D01*
X117485178Y-118881355D01*
X117634157Y-118631252D01*
X117731481Y-118356891D01*
X117610814Y-118127000D01*
X116417000Y-118127000D01*
X116163000Y-118127000D01*
X116143000Y-118127000D01*
X116143000Y-117873000D01*
X116163000Y-117873000D01*
X116163000Y-116679845D01*
X116417000Y-116679845D01*
X116417000Y-117873000D01*
X117610814Y-117873000D01*
X117731481Y-117643109D01*
X117634157Y-117368748D01*
X117485178Y-117118645D01*
X117290269Y-116902412D01*
X117056920Y-116728359D01*
X116794099Y-116603175D01*
X116646890Y-116558524D01*
X116417000Y-116679845D01*
X116163000Y-116679845D01*
X115933110Y-116558524D01*
X115785901Y-116603175D01*
X115523080Y-116728359D01*
X115289731Y-116902412D01*
X115213966Y-116986466D01*
X115189502Y-116905820D01*
X115130537Y-116795506D01*
X115051185Y-116698815D01*
X114954494Y-116619463D01*
X114844180Y-116560498D01*
X114724482Y-116524188D01*
X114600000Y-116511928D01*
X112900000Y-116511928D01*
X112775518Y-116524188D01*
X112690427Y-116550000D01*
X105268313Y-116550000D01*
X105122312Y-116331495D01*
X104908505Y-116117688D01*
X104792237Y-116040000D01*
X104908505Y-115962312D01*
X105110817Y-115760000D01*
X118145199Y-115760000D01*
X120019203Y-117634005D01*
X119996487Y-117708889D01*
X119967815Y-118000000D01*
X119996487Y-118291111D01*
X120081401Y-118571034D01*
X120219294Y-118829014D01*
X120404866Y-119055134D01*
X120630986Y-119240706D01*
X120888966Y-119378599D01*
X121168889Y-119463513D01*
X121387050Y-119485000D01*
X121532950Y-119485000D01*
X121751111Y-119463513D01*
X122031034Y-119378599D01*
X122289014Y-119240706D01*
X122515134Y-119055134D01*
X122539607Y-119025313D01*
X122560498Y-119094180D01*
X122619463Y-119204494D01*
X122698815Y-119301185D01*
X122795506Y-119380537D01*
X122905820Y-119439502D01*
X123025518Y-119475812D01*
X123150000Y-119488072D01*
X123714250Y-119485000D01*
X123873000Y-119326250D01*
X123873000Y-118127000D01*
X124127000Y-118127000D01*
X124127000Y-119326250D01*
X124285750Y-119485000D01*
X124850000Y-119488072D01*
X124974482Y-119475812D01*
X125094180Y-119439502D01*
X125204494Y-119380537D01*
X125301185Y-119301185D01*
X125380537Y-119204494D01*
X125439502Y-119094180D01*
X125475812Y-118974482D01*
X125488072Y-118850000D01*
X125485000Y-118285750D01*
X125430000Y-118230750D01*
X128213500Y-118230750D01*
X128225011Y-118334635D01*
X128263452Y-118453666D01*
X128324376Y-118562910D01*
X128405442Y-118658169D01*
X128503535Y-118735782D01*
X128614884Y-118792767D01*
X128735212Y-118826934D01*
X128859892Y-118836970D01*
X129134250Y-118834000D01*
X129293000Y-118675250D01*
X129293000Y-118072000D01*
X129547000Y-118072000D01*
X129547000Y-118675250D01*
X129705750Y-118834000D01*
X129980108Y-118836970D01*
X130104788Y-118826934D01*
X130225116Y-118792767D01*
X130336465Y-118735782D01*
X130434558Y-118658169D01*
X130515624Y-118562910D01*
X130576548Y-118453666D01*
X130614989Y-118334635D01*
X130626500Y-118230750D01*
X130467750Y-118072000D01*
X129547000Y-118072000D01*
X129293000Y-118072000D01*
X128372250Y-118072000D01*
X128213500Y-118230750D01*
X125430000Y-118230750D01*
X125326250Y-118127000D01*
X124127000Y-118127000D01*
X123873000Y-118127000D01*
X123853000Y-118127000D01*
X123853000Y-117873000D01*
X123873000Y-117873000D01*
X123873000Y-116673750D01*
X124127000Y-116673750D01*
X124127000Y-117873000D01*
X125326250Y-117873000D01*
X125485000Y-117714250D01*
X125488072Y-117150000D01*
X125475812Y-117025518D01*
X125439502Y-116905820D01*
X125380537Y-116795506D01*
X125301185Y-116698815D01*
X125204494Y-116619463D01*
X125094180Y-116560498D01*
X124974482Y-116524188D01*
X124850000Y-116511928D01*
X124285750Y-116515000D01*
X124127000Y-116673750D01*
X123873000Y-116673750D01*
X123714250Y-116515000D01*
X123150000Y-116511928D01*
X123025518Y-116524188D01*
X122905820Y-116560498D01*
X122795506Y-116619463D01*
X122698815Y-116698815D01*
X122619463Y-116795506D01*
X122560498Y-116905820D01*
X122539607Y-116974687D01*
X122515134Y-116944866D01*
X122289014Y-116759294D01*
X122031034Y-116621401D01*
X121751111Y-116536487D01*
X121532950Y-116515000D01*
X121387050Y-116515000D01*
X121168889Y-116536487D01*
X121094005Y-116559203D01*
X119023804Y-114489003D01*
X119000001Y-114459999D01*
X118884276Y-114365026D01*
X118752247Y-114294454D01*
X118608986Y-114250997D01*
X118497333Y-114240000D01*
X118497322Y-114240000D01*
X118460000Y-114236324D01*
X118422678Y-114240000D01*
X105371939Y-114240000D01*
X105290299Y-114042905D01*
X105122312Y-113791495D01*
X104908505Y-113577688D01*
X104792237Y-113500000D01*
X104908505Y-113422312D01*
X105122312Y-113208505D01*
X105268313Y-112990000D01*
X108776289Y-112990000D01*
X108840226Y-113053937D01*
X109009744Y-113167205D01*
X109198102Y-113245226D01*
X109398061Y-113285000D01*
X109601939Y-113285000D01*
X109801898Y-113245226D01*
X109990256Y-113167205D01*
X110159774Y-113053937D01*
X110303937Y-112909774D01*
X110417205Y-112740256D01*
X110495226Y-112551898D01*
X110535000Y-112351939D01*
X110535000Y-112148061D01*
X110495226Y-111948102D01*
X110417205Y-111759744D01*
X110303937Y-111590226D01*
X110159774Y-111446063D01*
X109990256Y-111332795D01*
X109801898Y-111254774D01*
X109601939Y-111215000D01*
X109398061Y-111215000D01*
X109198102Y-111254774D01*
X109009744Y-111332795D01*
X108840226Y-111446063D01*
X108816289Y-111470000D01*
X105268313Y-111470000D01*
X105122312Y-111251495D01*
X104908505Y-111037688D01*
X104792237Y-110960000D01*
X104908505Y-110882312D01*
X105122312Y-110668505D01*
X105290299Y-110417095D01*
X105406011Y-110137743D01*
X105465000Y-109841184D01*
X105465000Y-109538816D01*
X105406011Y-109242257D01*
X105290299Y-108962905D01*
X105122312Y-108711495D01*
X104908505Y-108497688D01*
X104792237Y-108420000D01*
X104908505Y-108342312D01*
X105122312Y-108128505D01*
X105290299Y-107877095D01*
X105406011Y-107597743D01*
X105465000Y-107301184D01*
X105465000Y-106998816D01*
X105406011Y-106702257D01*
X105290299Y-106422905D01*
X105122312Y-106171495D01*
X104908505Y-105957688D01*
X104792237Y-105880000D01*
X104908505Y-105802312D01*
X105122312Y-105588505D01*
X105290299Y-105337095D01*
X105406011Y-105057743D01*
X105460251Y-104785057D01*
X110465000Y-109789806D01*
X110465000Y-109851943D01*
X110504774Y-110051902D01*
X110582795Y-110240260D01*
X110696063Y-110409778D01*
X110840226Y-110553941D01*
X111009744Y-110667209D01*
X111198102Y-110745230D01*
X111398061Y-110785004D01*
X111601939Y-110785004D01*
X111801898Y-110745230D01*
X111990256Y-110667209D01*
X112074753Y-110610750D01*
X128213500Y-110610750D01*
X128225011Y-110714635D01*
X128263452Y-110833666D01*
X128324376Y-110942910D01*
X128338920Y-110960000D01*
X128324376Y-110977090D01*
X128263452Y-111086334D01*
X128225011Y-111205365D01*
X128213500Y-111309250D01*
X128372250Y-111468000D01*
X129293000Y-111468000D01*
X129293000Y-110452000D01*
X128372250Y-110452000D01*
X128213500Y-110610750D01*
X112074753Y-110610750D01*
X112159774Y-110553941D01*
X112303937Y-110409778D01*
X112417205Y-110240260D01*
X112495226Y-110051902D01*
X112535000Y-109851943D01*
X112535000Y-109648065D01*
X112495226Y-109448106D01*
X112450758Y-109340750D01*
X128213500Y-109340750D01*
X128225011Y-109444635D01*
X128263452Y-109563666D01*
X128324376Y-109672910D01*
X128338920Y-109690000D01*
X128324376Y-109707090D01*
X128263452Y-109816334D01*
X128225011Y-109935365D01*
X128213500Y-110039250D01*
X128372250Y-110198000D01*
X129293000Y-110198000D01*
X129293000Y-109182000D01*
X128372250Y-109182000D01*
X128213500Y-109340750D01*
X112450758Y-109340750D01*
X112417205Y-109259748D01*
X112303937Y-109090230D01*
X112159774Y-108946067D01*
X111990256Y-108832799D01*
X111836837Y-108769250D01*
X128213500Y-108769250D01*
X128372250Y-108928000D01*
X129293000Y-108928000D01*
X129293000Y-108324750D01*
X129134250Y-108166000D01*
X128859892Y-108163030D01*
X128735212Y-108173066D01*
X128614884Y-108207233D01*
X128503535Y-108264218D01*
X128405442Y-108341831D01*
X128324376Y-108437090D01*
X128263452Y-108546334D01*
X128225011Y-108665365D01*
X128213500Y-108769250D01*
X111836837Y-108769250D01*
X111801898Y-108754778D01*
X111601939Y-108715004D01*
X111539802Y-108715004D01*
X108104670Y-105279872D01*
X113015000Y-105279872D01*
X113015000Y-105720128D01*
X113100890Y-106151925D01*
X113269369Y-106558669D01*
X113513962Y-106924729D01*
X113825271Y-107236038D01*
X114191331Y-107480631D01*
X114598075Y-107649110D01*
X115029872Y-107735000D01*
X115470128Y-107735000D01*
X115901925Y-107649110D01*
X116308669Y-107480631D01*
X116674729Y-107236038D01*
X116986038Y-106924729D01*
X117230631Y-106558669D01*
X117399110Y-106151925D01*
X117485000Y-105720128D01*
X117485000Y-105279872D01*
X117449222Y-105100000D01*
X124011928Y-105100000D01*
X124024188Y-105224482D01*
X124060498Y-105344180D01*
X124119463Y-105454494D01*
X124198815Y-105551185D01*
X124295506Y-105630537D01*
X124405820Y-105689502D01*
X124525518Y-105725812D01*
X124650000Y-105738072D01*
X125214250Y-105735000D01*
X125373000Y-105576250D01*
X125373000Y-104377000D01*
X124173750Y-104377000D01*
X124015000Y-104535750D01*
X124011928Y-105100000D01*
X117449222Y-105100000D01*
X117399110Y-104848075D01*
X117230631Y-104441331D01*
X116986038Y-104075271D01*
X116674729Y-103763962D01*
X116308669Y-103519369D01*
X116020487Y-103400000D01*
X124011928Y-103400000D01*
X124015000Y-103964250D01*
X124173750Y-104123000D01*
X125373000Y-104123000D01*
X125373000Y-102923750D01*
X125627000Y-102923750D01*
X125627000Y-104123000D01*
X125647000Y-104123000D01*
X125647000Y-104377000D01*
X125627000Y-104377000D01*
X125627000Y-105576250D01*
X125785750Y-105735000D01*
X126350000Y-105738072D01*
X126474482Y-105725812D01*
X126594180Y-105689502D01*
X126704494Y-105630537D01*
X126801185Y-105551185D01*
X126880537Y-105454494D01*
X126939502Y-105344180D01*
X126960393Y-105275313D01*
X126984866Y-105305134D01*
X127210986Y-105490706D01*
X127468966Y-105628599D01*
X127748889Y-105713513D01*
X127967050Y-105735000D01*
X128112950Y-105735000D01*
X128331111Y-105713513D01*
X128405996Y-105690797D01*
X130240001Y-107524803D01*
X130240001Y-108214851D01*
X130225116Y-108207233D01*
X130104788Y-108173066D01*
X129980108Y-108163030D01*
X129705750Y-108166000D01*
X129547000Y-108324750D01*
X129547000Y-108928000D01*
X129567000Y-108928000D01*
X129567000Y-109182000D01*
X129547000Y-109182000D01*
X129547000Y-110198000D01*
X129567000Y-110198000D01*
X129567000Y-110452000D01*
X129547000Y-110452000D01*
X129547000Y-111468000D01*
X129567000Y-111468000D01*
X129567000Y-111722000D01*
X129547000Y-111722000D01*
X129547000Y-111742000D01*
X129293000Y-111742000D01*
X129293000Y-111722000D01*
X128372250Y-111722000D01*
X128213500Y-111880750D01*
X128225011Y-111984635D01*
X128263452Y-112103666D01*
X128324376Y-112212910D01*
X128339325Y-112230476D01*
X128317963Y-112256506D01*
X128258998Y-112366820D01*
X128222688Y-112486518D01*
X128210428Y-112611000D01*
X128210428Y-113119000D01*
X128222688Y-113243482D01*
X128258998Y-113363180D01*
X128317963Y-113473494D01*
X128339716Y-113500000D01*
X128317963Y-113526506D01*
X128258998Y-113636820D01*
X128222688Y-113756518D01*
X128210428Y-113881000D01*
X128210428Y-114389000D01*
X128222688Y-114513482D01*
X128258998Y-114633180D01*
X128317963Y-114743494D01*
X128339716Y-114770000D01*
X128317963Y-114796506D01*
X128258998Y-114906820D01*
X128222688Y-115026518D01*
X128210428Y-115151000D01*
X128210428Y-115659000D01*
X128222688Y-115783482D01*
X128258998Y-115903180D01*
X128317963Y-116013494D01*
X128339716Y-116040000D01*
X128317963Y-116066506D01*
X128258998Y-116176820D01*
X128222688Y-116296518D01*
X128210428Y-116421000D01*
X128210428Y-116929000D01*
X128222688Y-117053482D01*
X128258998Y-117173180D01*
X128317963Y-117283494D01*
X128339325Y-117309524D01*
X128324376Y-117327090D01*
X128263452Y-117436334D01*
X128225011Y-117555365D01*
X128213500Y-117659250D01*
X128372250Y-117818000D01*
X129293000Y-117818000D01*
X129293000Y-117798000D01*
X129547000Y-117798000D01*
X129547000Y-117818000D01*
X130467750Y-117818000D01*
X130626500Y-117659250D01*
X130614989Y-117555365D01*
X130576548Y-117436334D01*
X130515624Y-117327090D01*
X130500675Y-117309524D01*
X130522037Y-117283494D01*
X130581002Y-117173180D01*
X130617312Y-117053482D01*
X130629572Y-116929000D01*
X130629572Y-116857729D01*
X133786003Y-113701299D01*
X133815000Y-113677502D01*
X133849902Y-113634974D01*
X133909973Y-113561778D01*
X133980545Y-113429748D01*
X134000738Y-113363180D01*
X134024002Y-113286487D01*
X134034999Y-113174834D01*
X134034999Y-113174825D01*
X134038675Y-113137502D01*
X134034999Y-113100179D01*
X134034999Y-106949802D01*
X135294005Y-105690797D01*
X135368889Y-105713513D01*
X135587050Y-105735000D01*
X135732950Y-105735000D01*
X135951111Y-105713513D01*
X136231034Y-105628599D01*
X136489014Y-105490706D01*
X136715134Y-105305134D01*
X136900706Y-105079014D01*
X136930000Y-105024209D01*
X136959294Y-105079014D01*
X137144866Y-105305134D01*
X137370986Y-105490706D01*
X137628966Y-105628599D01*
X137908889Y-105713513D01*
X138127050Y-105735000D01*
X138272950Y-105735000D01*
X138491111Y-105713513D01*
X138771034Y-105628599D01*
X139029014Y-105490706D01*
X139255134Y-105305134D01*
X139275866Y-105279872D01*
X151765000Y-105279872D01*
X151765000Y-105720128D01*
X151850890Y-106151925D01*
X152019369Y-106558669D01*
X152263962Y-106924729D01*
X152575271Y-107236038D01*
X152941331Y-107480631D01*
X153348075Y-107649110D01*
X153779872Y-107735000D01*
X154220128Y-107735000D01*
X154651925Y-107649110D01*
X155058669Y-107480631D01*
X155424729Y-107236038D01*
X155736038Y-106924729D01*
X155980631Y-106558669D01*
X156149110Y-106151925D01*
X156235000Y-105720128D01*
X156235000Y-105279872D01*
X156149110Y-104848075D01*
X155980631Y-104441331D01*
X155736038Y-104075271D01*
X155424729Y-103763962D01*
X155058669Y-103519369D01*
X154651925Y-103350890D01*
X154220128Y-103265000D01*
X153779872Y-103265000D01*
X153348075Y-103350890D01*
X152941331Y-103519369D01*
X152575271Y-103763962D01*
X152263962Y-104075271D01*
X152019369Y-104441331D01*
X151850890Y-104848075D01*
X151765000Y-105279872D01*
X139275866Y-105279872D01*
X139440706Y-105079014D01*
X139578599Y-104821034D01*
X139663513Y-104541111D01*
X139692185Y-104250000D01*
X139663513Y-103958889D01*
X139578599Y-103678966D01*
X139440706Y-103420986D01*
X139255134Y-103194866D01*
X139029014Y-103009294D01*
X138771034Y-102871401D01*
X138491111Y-102786487D01*
X138272950Y-102765000D01*
X138127050Y-102765000D01*
X137908889Y-102786487D01*
X137628966Y-102871401D01*
X137370986Y-103009294D01*
X137144866Y-103194866D01*
X136959294Y-103420986D01*
X136930000Y-103475791D01*
X136900706Y-103420986D01*
X136715134Y-103194866D01*
X136489014Y-103009294D01*
X136231034Y-102871401D01*
X135951111Y-102786487D01*
X135732950Y-102765000D01*
X135587050Y-102765000D01*
X135368889Y-102786487D01*
X135088966Y-102871401D01*
X134830986Y-103009294D01*
X134604866Y-103194866D01*
X134419294Y-103420986D01*
X134390000Y-103475791D01*
X134360706Y-103420986D01*
X134175134Y-103194866D01*
X133949014Y-103009294D01*
X133691034Y-102871401D01*
X133411111Y-102786487D01*
X133192950Y-102765000D01*
X133047050Y-102765000D01*
X132828889Y-102786487D01*
X132548966Y-102871401D01*
X132290986Y-103009294D01*
X132064866Y-103194866D01*
X131879294Y-103420986D01*
X131850000Y-103475791D01*
X131820706Y-103420986D01*
X131635134Y-103194866D01*
X131409014Y-103009294D01*
X131151034Y-102871401D01*
X130871111Y-102786487D01*
X130652950Y-102765000D01*
X130507050Y-102765000D01*
X130288889Y-102786487D01*
X130008966Y-102871401D01*
X129750986Y-103009294D01*
X129524866Y-103194866D01*
X129339294Y-103420986D01*
X129310000Y-103475791D01*
X129280706Y-103420986D01*
X129095134Y-103194866D01*
X128869014Y-103009294D01*
X128611034Y-102871401D01*
X128331111Y-102786487D01*
X128112950Y-102765000D01*
X127967050Y-102765000D01*
X127748889Y-102786487D01*
X127468966Y-102871401D01*
X127210986Y-103009294D01*
X126984866Y-103194866D01*
X126960393Y-103224687D01*
X126939502Y-103155820D01*
X126880537Y-103045506D01*
X126801185Y-102948815D01*
X126704494Y-102869463D01*
X126594180Y-102810498D01*
X126474482Y-102774188D01*
X126350000Y-102761928D01*
X125785750Y-102765000D01*
X125627000Y-102923750D01*
X125373000Y-102923750D01*
X125214250Y-102765000D01*
X124650000Y-102761928D01*
X124525518Y-102774188D01*
X124405820Y-102810498D01*
X124295506Y-102869463D01*
X124198815Y-102948815D01*
X124119463Y-103045506D01*
X124060498Y-103155820D01*
X124024188Y-103275518D01*
X124011928Y-103400000D01*
X116020487Y-103400000D01*
X115901925Y-103350890D01*
X115470128Y-103265000D01*
X115029872Y-103265000D01*
X114598075Y-103350890D01*
X114191331Y-103519369D01*
X113825271Y-103763962D01*
X113513962Y-104075271D01*
X113269369Y-104441331D01*
X113100890Y-104848075D01*
X113015000Y-105279872D01*
X108104670Y-105279872D01*
X105484797Y-102660000D01*
X155467721Y-102660000D01*
X155759659Y-102688625D01*
G36*
X82605000Y-109620199D02*
G01*
X82605000Y-109538816D01*
X82546011Y-109242257D01*
X82430299Y-108962905D01*
X82262312Y-108711495D01*
X82048505Y-108497688D01*
X81932237Y-108420000D01*
X82048505Y-108342312D01*
X82262312Y-108128505D01*
X82430299Y-107877095D01*
X82546011Y-107597743D01*
X82605000Y-107301184D01*
X82605000Y-106998816D01*
X82546011Y-106702257D01*
X82430299Y-106422905D01*
X82262312Y-106171495D01*
X82048505Y-105957688D01*
X81932237Y-105880000D01*
X82048505Y-105802312D01*
X82262312Y-105588505D01*
X82430299Y-105337095D01*
X82546011Y-105057743D01*
X82605000Y-104761184D01*
X82605000Y-104458816D01*
X82546011Y-104162257D01*
X82430299Y-103882905D01*
X82262312Y-103631495D01*
X82048505Y-103417688D01*
X81797095Y-103249701D01*
X81517743Y-103133989D01*
X81221184Y-103075000D01*
X80918816Y-103075000D01*
X80622257Y-103133989D01*
X80342905Y-103249701D01*
X80091495Y-103417688D01*
X79877688Y-103631495D01*
X79709701Y-103882905D01*
X79593989Y-104162257D01*
X79535000Y-104458816D01*
X79535000Y-104761184D01*
X79593989Y-105057743D01*
X79709701Y-105337095D01*
X79877688Y-105588505D01*
X80091495Y-105802312D01*
X80207763Y-105880000D01*
X80091495Y-105957688D01*
X79877688Y-106171495D01*
X79709701Y-106422905D01*
X79593989Y-106702257D01*
X79535000Y-106998816D01*
X79535000Y-107301184D01*
X79593989Y-107597743D01*
X79709701Y-107877095D01*
X79877688Y-108128505D01*
X80091495Y-108342312D01*
X80207763Y-108420000D01*
X80091495Y-108497688D01*
X79877688Y-108711495D01*
X79731687Y-108930000D01*
X76347322Y-108930000D01*
X76309999Y-108926324D01*
X76272676Y-108930000D01*
X76272667Y-108930000D01*
X76161014Y-108940997D01*
X76017753Y-108984454D01*
X75885723Y-109055026D01*
X75802083Y-109123668D01*
X75769999Y-109149999D01*
X75746201Y-109178997D01*
X74963271Y-109961928D01*
X73900000Y-109961928D01*
X73775518Y-109974188D01*
X73655820Y-110010498D01*
X73545506Y-110069463D01*
X73448815Y-110148815D01*
X73369463Y-110245506D01*
X73310498Y-110355820D01*
X73274188Y-110475518D01*
X73261928Y-110600000D01*
X73261928Y-111900000D01*
X73274188Y-112024482D01*
X73310498Y-112144180D01*
X73369463Y-112254494D01*
X73448815Y-112351185D01*
X73545506Y-112430537D01*
X73655820Y-112489502D01*
X73775518Y-112525812D01*
X73900000Y-112538072D01*
X75400000Y-112538072D01*
X75524482Y-112525812D01*
X75644180Y-112489502D01*
X75754494Y-112430537D01*
X75851185Y-112351185D01*
X75930537Y-112254494D01*
X75989502Y-112144180D01*
X76000000Y-112109573D01*
X76010498Y-112144180D01*
X76069463Y-112254494D01*
X76148815Y-112351185D01*
X76245506Y-112430537D01*
X76355820Y-112489502D01*
X76475518Y-112525812D01*
X76590001Y-112537087D01*
X76590000Y-114295198D01*
X75118930Y-115766269D01*
X74861184Y-115715000D01*
X74558816Y-115715000D01*
X74262257Y-115773989D01*
X73982905Y-115889701D01*
X73731495Y-116057688D01*
X73517688Y-116271495D01*
X73349701Y-116522905D01*
X73233989Y-116802257D01*
X73175000Y-117098816D01*
X73175000Y-117401184D01*
X73233989Y-117697743D01*
X73349701Y-117977095D01*
X73517688Y-118228505D01*
X73731495Y-118442312D01*
X73982905Y-118610299D01*
X74262257Y-118726011D01*
X74558816Y-118785000D01*
X74861184Y-118785000D01*
X75157743Y-118726011D01*
X75437095Y-118610299D01*
X75688505Y-118442312D01*
X75754944Y-118375873D01*
X75760498Y-118394180D01*
X75819463Y-118504494D01*
X75898815Y-118601185D01*
X75995506Y-118680537D01*
X76105820Y-118739502D01*
X76225518Y-118775812D01*
X76350000Y-118788072D01*
X76964250Y-118785000D01*
X77123000Y-118626250D01*
X77123000Y-117377000D01*
X77103000Y-117377000D01*
X77103000Y-117123000D01*
X77123000Y-117123000D01*
X77123000Y-117103000D01*
X77377000Y-117103000D01*
X77377000Y-117123000D01*
X77397000Y-117123000D01*
X77397000Y-117377000D01*
X77377000Y-117377000D01*
X77377000Y-118626250D01*
X77535750Y-118785000D01*
X78150000Y-118788072D01*
X78274482Y-118775812D01*
X78394180Y-118739502D01*
X78504494Y-118680537D01*
X78601185Y-118601185D01*
X78680537Y-118504494D01*
X78739502Y-118394180D01*
X78740000Y-118392538D01*
X78740001Y-125862668D01*
X78736324Y-125900000D01*
X78740001Y-125937333D01*
X78750998Y-126048986D01*
X78759347Y-126076510D01*
X78794454Y-126192246D01*
X78865026Y-126324276D01*
X78908708Y-126377502D01*
X78960000Y-126440001D01*
X78988998Y-126463799D01*
X81212655Y-128687457D01*
X81198815Y-128698815D01*
X81119463Y-128795506D01*
X81060498Y-128905820D01*
X81024188Y-129025518D01*
X81011928Y-129150000D01*
X81011928Y-130850000D01*
X81024188Y-130974482D01*
X81060498Y-131094180D01*
X81119463Y-131204494D01*
X81198815Y-131301185D01*
X81246111Y-131340000D01*
X74532279Y-131340000D01*
X74240340Y-131311375D01*
X73990571Y-131235965D01*
X73760206Y-131113477D01*
X73558021Y-130948579D01*
X73391712Y-130747546D01*
X73267622Y-130518046D01*
X73190469Y-130268805D01*
X73160000Y-129978911D01*
X73160000Y-128279872D01*
X73765000Y-128279872D01*
X73765000Y-128720128D01*
X73850890Y-129151925D01*
X74019369Y-129558669D01*
X74263962Y-129924729D01*
X74575271Y-130236038D01*
X74941331Y-130480631D01*
X75348075Y-130649110D01*
X75779872Y-130735000D01*
X76220128Y-130735000D01*
X76651925Y-130649110D01*
X77058669Y-130480631D01*
X77424729Y-130236038D01*
X77736038Y-129924729D01*
X77980631Y-129558669D01*
X78149110Y-129151925D01*
X78235000Y-128720128D01*
X78235000Y-128279872D01*
X78149110Y-127848075D01*
X77980631Y-127441331D01*
X77736038Y-127075271D01*
X77424729Y-126763962D01*
X77058669Y-126519369D01*
X76651925Y-126350890D01*
X76220128Y-126265000D01*
X75779872Y-126265000D01*
X75348075Y-126350890D01*
X74941331Y-126519369D01*
X74575271Y-126763962D01*
X74263962Y-127075271D01*
X74019369Y-127441331D01*
X73850890Y-127848075D01*
X73765000Y-128279872D01*
X73160000Y-128279872D01*
X73160000Y-105279872D01*
X73765000Y-105279872D01*
X73765000Y-105720128D01*
X73850890Y-106151925D01*
X74019369Y-106558669D01*
X74263962Y-106924729D01*
X74575271Y-107236038D01*
X74941331Y-107480631D01*
X75348075Y-107649110D01*
X75779872Y-107735000D01*
X76220128Y-107735000D01*
X76651925Y-107649110D01*
X77058669Y-107480631D01*
X77424729Y-107236038D01*
X77736038Y-106924729D01*
X77980631Y-106558669D01*
X78149110Y-106151925D01*
X78235000Y-105720128D01*
X78235000Y-105279872D01*
X78149110Y-104848075D01*
X77980631Y-104441331D01*
X77736038Y-104075271D01*
X77424729Y-103763962D01*
X77058669Y-103519369D01*
X76651925Y-103350890D01*
X76220128Y-103265000D01*
X75779872Y-103265000D01*
X75348075Y-103350890D01*
X74941331Y-103519369D01*
X74575271Y-103763962D01*
X74263962Y-104075271D01*
X74019369Y-104441331D01*
X73850890Y-104848075D01*
X73765000Y-105279872D01*
X73160000Y-105279872D01*
X73160000Y-104032279D01*
X73188625Y-103740341D01*
X73264035Y-103490571D01*
X73386522Y-103260208D01*
X73551422Y-103058020D01*
X73752450Y-102891714D01*
X73981954Y-102767622D01*
X74231195Y-102690469D01*
X74521088Y-102660000D01*
X89565198Y-102660000D01*
X82605000Y-109620199D01*
X82605000Y-109620199D01*
G37*
X82605000Y-109620199D02*
X82605000Y-109538816D01*
X82546011Y-109242257D01*
X82430299Y-108962905D01*
X82262312Y-108711495D01*
X82048505Y-108497688D01*
X81932237Y-108420000D01*
X82048505Y-108342312D01*
X82262312Y-108128505D01*
X82430299Y-107877095D01*
X82546011Y-107597743D01*
X82605000Y-107301184D01*
X82605000Y-106998816D01*
X82546011Y-106702257D01*
X82430299Y-106422905D01*
X82262312Y-106171495D01*
X82048505Y-105957688D01*
X81932237Y-105880000D01*
X82048505Y-105802312D01*
X82262312Y-105588505D01*
X82430299Y-105337095D01*
X82546011Y-105057743D01*
X82605000Y-104761184D01*
X82605000Y-104458816D01*
X82546011Y-104162257D01*
X82430299Y-103882905D01*
X82262312Y-103631495D01*
X82048505Y-103417688D01*
X81797095Y-103249701D01*
X81517743Y-103133989D01*
X81221184Y-103075000D01*
X80918816Y-103075000D01*
X80622257Y-103133989D01*
X80342905Y-103249701D01*
X80091495Y-103417688D01*
X79877688Y-103631495D01*
X79709701Y-103882905D01*
X79593989Y-104162257D01*
X79535000Y-104458816D01*
X79535000Y-104761184D01*
X79593989Y-105057743D01*
X79709701Y-105337095D01*
X79877688Y-105588505D01*
X80091495Y-105802312D01*
X80207763Y-105880000D01*
X80091495Y-105957688D01*
X79877688Y-106171495D01*
X79709701Y-106422905D01*
X79593989Y-106702257D01*
X79535000Y-106998816D01*
X79535000Y-107301184D01*
X79593989Y-107597743D01*
X79709701Y-107877095D01*
X79877688Y-108128505D01*
X80091495Y-108342312D01*
X80207763Y-108420000D01*
X80091495Y-108497688D01*
X79877688Y-108711495D01*
X79731687Y-108930000D01*
X76347322Y-108930000D01*
X76309999Y-108926324D01*
X76272676Y-108930000D01*
X76272667Y-108930000D01*
X76161014Y-108940997D01*
X76017753Y-108984454D01*
X75885723Y-109055026D01*
X75802083Y-109123668D01*
X75769999Y-109149999D01*
X75746201Y-109178997D01*
X74963271Y-109961928D01*
X73900000Y-109961928D01*
X73775518Y-109974188D01*
X73655820Y-110010498D01*
X73545506Y-110069463D01*
X73448815Y-110148815D01*
X73369463Y-110245506D01*
X73310498Y-110355820D01*
X73274188Y-110475518D01*
X73261928Y-110600000D01*
X73261928Y-111900000D01*
X73274188Y-112024482D01*
X73310498Y-112144180D01*
X73369463Y-112254494D01*
X73448815Y-112351185D01*
X73545506Y-112430537D01*
X73655820Y-112489502D01*
X73775518Y-112525812D01*
X73900000Y-112538072D01*
X75400000Y-112538072D01*
X75524482Y-112525812D01*
X75644180Y-112489502D01*
X75754494Y-112430537D01*
X75851185Y-112351185D01*
X75930537Y-112254494D01*
X75989502Y-112144180D01*
X76000000Y-112109573D01*
X76010498Y-112144180D01*
X76069463Y-112254494D01*
X76148815Y-112351185D01*
X76245506Y-112430537D01*
X76355820Y-112489502D01*
X76475518Y-112525812D01*
X76590001Y-112537087D01*
X76590000Y-114295198D01*
X75118930Y-115766269D01*
X74861184Y-115715000D01*
X74558816Y-115715000D01*
X74262257Y-115773989D01*
X73982905Y-115889701D01*
X73731495Y-116057688D01*
X73517688Y-116271495D01*
X73349701Y-116522905D01*
X73233989Y-116802257D01*
X73175000Y-117098816D01*
X73175000Y-117401184D01*
X73233989Y-117697743D01*
X73349701Y-117977095D01*
X73517688Y-118228505D01*
X73731495Y-118442312D01*
X73982905Y-118610299D01*
X74262257Y-118726011D01*
X74558816Y-118785000D01*
X74861184Y-118785000D01*
X75157743Y-118726011D01*
X75437095Y-118610299D01*
X75688505Y-118442312D01*
X75754944Y-118375873D01*
X75760498Y-118394180D01*
X75819463Y-118504494D01*
X75898815Y-118601185D01*
X75995506Y-118680537D01*
X76105820Y-118739502D01*
X76225518Y-118775812D01*
X76350000Y-118788072D01*
X76964250Y-118785000D01*
X77123000Y-118626250D01*
X77123000Y-117377000D01*
X77103000Y-117377000D01*
X77103000Y-117123000D01*
X77123000Y-117123000D01*
X77123000Y-117103000D01*
X77377000Y-117103000D01*
X77377000Y-117123000D01*
X77397000Y-117123000D01*
X77397000Y-117377000D01*
X77377000Y-117377000D01*
X77377000Y-118626250D01*
X77535750Y-118785000D01*
X78150000Y-118788072D01*
X78274482Y-118775812D01*
X78394180Y-118739502D01*
X78504494Y-118680537D01*
X78601185Y-118601185D01*
X78680537Y-118504494D01*
X78739502Y-118394180D01*
X78740000Y-118392538D01*
X78740001Y-125862668D01*
X78736324Y-125900000D01*
X78740001Y-125937333D01*
X78750998Y-126048986D01*
X78759347Y-126076510D01*
X78794454Y-126192246D01*
X78865026Y-126324276D01*
X78908708Y-126377502D01*
X78960000Y-126440001D01*
X78988998Y-126463799D01*
X81212655Y-128687457D01*
X81198815Y-128698815D01*
X81119463Y-128795506D01*
X81060498Y-128905820D01*
X81024188Y-129025518D01*
X81011928Y-129150000D01*
X81011928Y-130850000D01*
X81024188Y-130974482D01*
X81060498Y-131094180D01*
X81119463Y-131204494D01*
X81198815Y-131301185D01*
X81246111Y-131340000D01*
X74532279Y-131340000D01*
X74240340Y-131311375D01*
X73990571Y-131235965D01*
X73760206Y-131113477D01*
X73558021Y-130948579D01*
X73391712Y-130747546D01*
X73267622Y-130518046D01*
X73190469Y-130268805D01*
X73160000Y-129978911D01*
X73160000Y-128279872D01*
X73765000Y-128279872D01*
X73765000Y-128720128D01*
X73850890Y-129151925D01*
X74019369Y-129558669D01*
X74263962Y-129924729D01*
X74575271Y-130236038D01*
X74941331Y-130480631D01*
X75348075Y-130649110D01*
X75779872Y-130735000D01*
X76220128Y-130735000D01*
X76651925Y-130649110D01*
X77058669Y-130480631D01*
X77424729Y-130236038D01*
X77736038Y-129924729D01*
X77980631Y-129558669D01*
X78149110Y-129151925D01*
X78235000Y-128720128D01*
X78235000Y-128279872D01*
X78149110Y-127848075D01*
X77980631Y-127441331D01*
X77736038Y-127075271D01*
X77424729Y-126763962D01*
X77058669Y-126519369D01*
X76651925Y-126350890D01*
X76220128Y-126265000D01*
X75779872Y-126265000D01*
X75348075Y-126350890D01*
X74941331Y-126519369D01*
X74575271Y-126763962D01*
X74263962Y-127075271D01*
X74019369Y-127441331D01*
X73850890Y-127848075D01*
X73765000Y-128279872D01*
X73160000Y-128279872D01*
X73160000Y-105279872D01*
X73765000Y-105279872D01*
X73765000Y-105720128D01*
X73850890Y-106151925D01*
X74019369Y-106558669D01*
X74263962Y-106924729D01*
X74575271Y-107236038D01*
X74941331Y-107480631D01*
X75348075Y-107649110D01*
X75779872Y-107735000D01*
X76220128Y-107735000D01*
X76651925Y-107649110D01*
X77058669Y-107480631D01*
X77424729Y-107236038D01*
X77736038Y-106924729D01*
X77980631Y-106558669D01*
X78149110Y-106151925D01*
X78235000Y-105720128D01*
X78235000Y-105279872D01*
X78149110Y-104848075D01*
X77980631Y-104441331D01*
X77736038Y-104075271D01*
X77424729Y-103763962D01*
X77058669Y-103519369D01*
X76651925Y-103350890D01*
X76220128Y-103265000D01*
X75779872Y-103265000D01*
X75348075Y-103350890D01*
X74941331Y-103519369D01*
X74575271Y-103763962D01*
X74263962Y-104075271D01*
X74019369Y-104441331D01*
X73850890Y-104848075D01*
X73765000Y-105279872D01*
X73160000Y-105279872D01*
X73160000Y-104032279D01*
X73188625Y-103740341D01*
X73264035Y-103490571D01*
X73386522Y-103260208D01*
X73551422Y-103058020D01*
X73752450Y-102891714D01*
X73981954Y-102767622D01*
X74231195Y-102690469D01*
X74521088Y-102660000D01*
X89565198Y-102660000D01*
X82605000Y-109620199D01*
G36*
X80342905Y-123750299D02*
G01*
X80622257Y-123866011D01*
X80918816Y-123925000D01*
X81221184Y-123925000D01*
X81482435Y-123873034D01*
X81545723Y-123924973D01*
X81677752Y-123995545D01*
X81821013Y-124039002D01*
X81932666Y-124049999D01*
X81932674Y-124049999D01*
X81969999Y-124053675D01*
X82007324Y-124049999D01*
X84975198Y-124049999D01*
X86820000Y-125894803D01*
X86820001Y-128722405D01*
X86750986Y-128759294D01*
X86524866Y-128944866D01*
X86339294Y-129170986D01*
X86304799Y-129235523D01*
X86235178Y-129118645D01*
X86040269Y-128902412D01*
X85806920Y-128728359D01*
X85544099Y-128603175D01*
X85396890Y-128558524D01*
X85167000Y-128679845D01*
X85167000Y-129873000D01*
X85187000Y-129873000D01*
X85187000Y-130127000D01*
X85167000Y-130127000D01*
X85167000Y-130147000D01*
X84913000Y-130147000D01*
X84913000Y-130127000D01*
X84893000Y-130127000D01*
X84893000Y-129873000D01*
X84913000Y-129873000D01*
X84913000Y-128679845D01*
X84683110Y-128558524D01*
X84535901Y-128603175D01*
X84273080Y-128728359D01*
X84039731Y-128902412D01*
X83963966Y-128986466D01*
X83939502Y-128905820D01*
X83880537Y-128795506D01*
X83801185Y-128698815D01*
X83704494Y-128619463D01*
X83594180Y-128560498D01*
X83474482Y-128524188D01*
X83350000Y-128511928D01*
X83154326Y-128511928D01*
X83134974Y-128475724D01*
X83040001Y-128359999D01*
X83011004Y-128336202D01*
X80260000Y-125585199D01*
X80260000Y-123694904D01*
X80342905Y-123750299D01*
X80342905Y-123750299D01*
G37*
X80342905Y-123750299D02*
X80622257Y-123866011D01*
X80918816Y-123925000D01*
X81221184Y-123925000D01*
X81482435Y-123873034D01*
X81545723Y-123924973D01*
X81677752Y-123995545D01*
X81821013Y-124039002D01*
X81932666Y-124049999D01*
X81932674Y-124049999D01*
X81969999Y-124053675D01*
X82007324Y-124049999D01*
X84975198Y-124049999D01*
X86820000Y-125894803D01*
X86820001Y-128722405D01*
X86750986Y-128759294D01*
X86524866Y-128944866D01*
X86339294Y-129170986D01*
X86304799Y-129235523D01*
X86235178Y-129118645D01*
X86040269Y-128902412D01*
X85806920Y-128728359D01*
X85544099Y-128603175D01*
X85396890Y-128558524D01*
X85167000Y-128679845D01*
X85167000Y-129873000D01*
X85187000Y-129873000D01*
X85187000Y-130127000D01*
X85167000Y-130127000D01*
X85167000Y-130147000D01*
X84913000Y-130147000D01*
X84913000Y-130127000D01*
X84893000Y-130127000D01*
X84893000Y-129873000D01*
X84913000Y-129873000D01*
X84913000Y-128679845D01*
X84683110Y-128558524D01*
X84535901Y-128603175D01*
X84273080Y-128728359D01*
X84039731Y-128902412D01*
X83963966Y-128986466D01*
X83939502Y-128905820D01*
X83880537Y-128795506D01*
X83801185Y-128698815D01*
X83704494Y-128619463D01*
X83594180Y-128560498D01*
X83474482Y-128524188D01*
X83350000Y-128511928D01*
X83154326Y-128511928D01*
X83134974Y-128475724D01*
X83040001Y-128359999D01*
X83011004Y-128336202D01*
X80260000Y-125585199D01*
X80260000Y-123694904D01*
X80342905Y-123750299D01*
G36*
X88332797Y-118009744D02*
G01*
X88254776Y-118198102D01*
X88215002Y-118398061D01*
X88215002Y-118601939D01*
X88254776Y-118801898D01*
X88332797Y-118990256D01*
X88446065Y-119159774D01*
X88590228Y-119303937D01*
X88759746Y-119417205D01*
X88948104Y-119495226D01*
X89148063Y-119535000D01*
X89197699Y-119535000D01*
X89261928Y-119599229D01*
X89261928Y-120462500D01*
X89274188Y-120586982D01*
X89310498Y-120706680D01*
X89369463Y-120816994D01*
X89448815Y-120913685D01*
X89545506Y-120993037D01*
X89655820Y-121052002D01*
X89775518Y-121088312D01*
X89900000Y-121100572D01*
X89939134Y-121100572D01*
X89832779Y-121259744D01*
X89754758Y-121448102D01*
X89714984Y-121648061D01*
X89714984Y-121851939D01*
X89741362Y-121984549D01*
X89655820Y-122010498D01*
X89545506Y-122069463D01*
X89448815Y-122148815D01*
X89369463Y-122245506D01*
X89310498Y-122355820D01*
X89274188Y-122475518D01*
X89261928Y-122600000D01*
X89261928Y-123900000D01*
X89273983Y-124022405D01*
X87046534Y-121794956D01*
X87018817Y-121761183D01*
X86884059Y-121650589D01*
X86730313Y-121568411D01*
X86563490Y-121517805D01*
X86433477Y-121505000D01*
X86433469Y-121505000D01*
X86390000Y-121500719D01*
X86346531Y-121505000D01*
X82324790Y-121505000D01*
X82262312Y-121411495D01*
X82048505Y-121197688D01*
X81932237Y-121120000D01*
X82048505Y-121042312D01*
X82262312Y-120828505D01*
X82408313Y-120610000D01*
X85362678Y-120610000D01*
X85400000Y-120613676D01*
X85437322Y-120610000D01*
X85437333Y-120610000D01*
X85548986Y-120599003D01*
X85692247Y-120555546D01*
X85824276Y-120484974D01*
X85940001Y-120390001D01*
X85963804Y-120360997D01*
X88368518Y-117956284D01*
X88332797Y-118009744D01*
X88332797Y-118009744D01*
G37*
X88332797Y-118009744D02*
X88254776Y-118198102D01*
X88215002Y-118398061D01*
X88215002Y-118601939D01*
X88254776Y-118801898D01*
X88332797Y-118990256D01*
X88446065Y-119159774D01*
X88590228Y-119303937D01*
X88759746Y-119417205D01*
X88948104Y-119495226D01*
X89148063Y-119535000D01*
X89197699Y-119535000D01*
X89261928Y-119599229D01*
X89261928Y-120462500D01*
X89274188Y-120586982D01*
X89310498Y-120706680D01*
X89369463Y-120816994D01*
X89448815Y-120913685D01*
X89545506Y-120993037D01*
X89655820Y-121052002D01*
X89775518Y-121088312D01*
X89900000Y-121100572D01*
X89939134Y-121100572D01*
X89832779Y-121259744D01*
X89754758Y-121448102D01*
X89714984Y-121648061D01*
X89714984Y-121851939D01*
X89741362Y-121984549D01*
X89655820Y-122010498D01*
X89545506Y-122069463D01*
X89448815Y-122148815D01*
X89369463Y-122245506D01*
X89310498Y-122355820D01*
X89274188Y-122475518D01*
X89261928Y-122600000D01*
X89261928Y-123900000D01*
X89273983Y-124022405D01*
X87046534Y-121794956D01*
X87018817Y-121761183D01*
X86884059Y-121650589D01*
X86730313Y-121568411D01*
X86563490Y-121517805D01*
X86433477Y-121505000D01*
X86433469Y-121505000D01*
X86390000Y-121500719D01*
X86346531Y-121505000D01*
X82324790Y-121505000D01*
X82262312Y-121411495D01*
X82048505Y-121197688D01*
X81932237Y-121120000D01*
X82048505Y-121042312D01*
X82262312Y-120828505D01*
X82408313Y-120610000D01*
X85362678Y-120610000D01*
X85400000Y-120613676D01*
X85437322Y-120610000D01*
X85437333Y-120610000D01*
X85548986Y-120599003D01*
X85692247Y-120555546D01*
X85824276Y-120484974D01*
X85940001Y-120390001D01*
X85963804Y-120360997D01*
X88368518Y-117956284D01*
X88332797Y-118009744D01*
M02*
