G04 #@! TF.GenerationSoftware,KiCad,Pcbnew,5.1.5-52549c5~84~ubuntu18.04.1*
G04 #@! TF.CreationDate,2020-01-17T22:56:57+01:00*
G04 #@! TF.ProjectId,ESPControllerCircuit,45535043-6f6e-4747-926f-6c6c65724369,rev?*
G04 #@! TF.SameCoordinates,Original*
G04 #@! TF.FileFunction,Paste,Top*
G04 #@! TF.FilePolarity,Positive*
%FSLAX46Y46*%
G04 Gerber Fmt 4.6, Leading zero omitted, Abs format (unit mm)*
G04 Created by KiCad (PCBNEW 5.1.5-52549c5~84~ubuntu18.04.1) date 2020-01-17 22:56:57*
%MOMM*%
%LPD*%
G04 APERTURE LIST*
%ADD10C,0.100000*%
G04 APERTURE END LIST*
D10*
G36*
X137789703Y-108215712D02*
G01*
X137804264Y-108217872D01*
X137818543Y-108221449D01*
X137832403Y-108226408D01*
X137845710Y-108232702D01*
X137858336Y-108240270D01*
X137870159Y-108249038D01*
X137881066Y-108258924D01*
X137890952Y-108269831D01*
X137899720Y-108281654D01*
X137907288Y-108294280D01*
X137913582Y-108307587D01*
X137918541Y-108321447D01*
X137922118Y-108335726D01*
X137924278Y-108350287D01*
X137925000Y-108364990D01*
X137925000Y-108664990D01*
X137924278Y-108679693D01*
X137922118Y-108694254D01*
X137918541Y-108708533D01*
X137913582Y-108722393D01*
X137907288Y-108735700D01*
X137899720Y-108748326D01*
X137890952Y-108760149D01*
X137881066Y-108771056D01*
X137870159Y-108780942D01*
X137858336Y-108789710D01*
X137845710Y-108797278D01*
X137832403Y-108803572D01*
X137818543Y-108808531D01*
X137804264Y-108812108D01*
X137789703Y-108814268D01*
X137775000Y-108814990D01*
X136025000Y-108814990D01*
X136010297Y-108814268D01*
X135995736Y-108812108D01*
X135981457Y-108808531D01*
X135967597Y-108803572D01*
X135954290Y-108797278D01*
X135941664Y-108789710D01*
X135929841Y-108780942D01*
X135918934Y-108771056D01*
X135909048Y-108760149D01*
X135900280Y-108748326D01*
X135892712Y-108735700D01*
X135886418Y-108722393D01*
X135881459Y-108708533D01*
X135877882Y-108694254D01*
X135875722Y-108679693D01*
X135875000Y-108664990D01*
X135875000Y-108364990D01*
X135875722Y-108350287D01*
X135877882Y-108335726D01*
X135881459Y-108321447D01*
X135886418Y-108307587D01*
X135892712Y-108294280D01*
X135900280Y-108281654D01*
X135909048Y-108269831D01*
X135918934Y-108258924D01*
X135929841Y-108249038D01*
X135941664Y-108240270D01*
X135954290Y-108232702D01*
X135967597Y-108226408D01*
X135981457Y-108221449D01*
X135995736Y-108217872D01*
X136010297Y-108215712D01*
X136025000Y-108214990D01*
X137775000Y-108214990D01*
X137789703Y-108215712D01*
G37*
G36*
X137789703Y-109485712D02*
G01*
X137804264Y-109487872D01*
X137818543Y-109491449D01*
X137832403Y-109496408D01*
X137845710Y-109502702D01*
X137858336Y-109510270D01*
X137870159Y-109519038D01*
X137881066Y-109528924D01*
X137890952Y-109539831D01*
X137899720Y-109551654D01*
X137907288Y-109564280D01*
X137913582Y-109577587D01*
X137918541Y-109591447D01*
X137922118Y-109605726D01*
X137924278Y-109620287D01*
X137925000Y-109634990D01*
X137925000Y-109934990D01*
X137924278Y-109949693D01*
X137922118Y-109964254D01*
X137918541Y-109978533D01*
X137913582Y-109992393D01*
X137907288Y-110005700D01*
X137899720Y-110018326D01*
X137890952Y-110030149D01*
X137881066Y-110041056D01*
X137870159Y-110050942D01*
X137858336Y-110059710D01*
X137845710Y-110067278D01*
X137832403Y-110073572D01*
X137818543Y-110078531D01*
X137804264Y-110082108D01*
X137789703Y-110084268D01*
X137775000Y-110084990D01*
X136025000Y-110084990D01*
X136010297Y-110084268D01*
X135995736Y-110082108D01*
X135981457Y-110078531D01*
X135967597Y-110073572D01*
X135954290Y-110067278D01*
X135941664Y-110059710D01*
X135929841Y-110050942D01*
X135918934Y-110041056D01*
X135909048Y-110030149D01*
X135900280Y-110018326D01*
X135892712Y-110005700D01*
X135886418Y-109992393D01*
X135881459Y-109978533D01*
X135877882Y-109964254D01*
X135875722Y-109949693D01*
X135875000Y-109934990D01*
X135875000Y-109634990D01*
X135875722Y-109620287D01*
X135877882Y-109605726D01*
X135881459Y-109591447D01*
X135886418Y-109577587D01*
X135892712Y-109564280D01*
X135900280Y-109551654D01*
X135909048Y-109539831D01*
X135918934Y-109528924D01*
X135929841Y-109519038D01*
X135941664Y-109510270D01*
X135954290Y-109502702D01*
X135967597Y-109496408D01*
X135981457Y-109491449D01*
X135995736Y-109487872D01*
X136010297Y-109485712D01*
X136025000Y-109484990D01*
X137775000Y-109484990D01*
X137789703Y-109485712D01*
G37*
G36*
X137789703Y-110755712D02*
G01*
X137804264Y-110757872D01*
X137818543Y-110761449D01*
X137832403Y-110766408D01*
X137845710Y-110772702D01*
X137858336Y-110780270D01*
X137870159Y-110789038D01*
X137881066Y-110798924D01*
X137890952Y-110809831D01*
X137899720Y-110821654D01*
X137907288Y-110834280D01*
X137913582Y-110847587D01*
X137918541Y-110861447D01*
X137922118Y-110875726D01*
X137924278Y-110890287D01*
X137925000Y-110904990D01*
X137925000Y-111204990D01*
X137924278Y-111219693D01*
X137922118Y-111234254D01*
X137918541Y-111248533D01*
X137913582Y-111262393D01*
X137907288Y-111275700D01*
X137899720Y-111288326D01*
X137890952Y-111300149D01*
X137881066Y-111311056D01*
X137870159Y-111320942D01*
X137858336Y-111329710D01*
X137845710Y-111337278D01*
X137832403Y-111343572D01*
X137818543Y-111348531D01*
X137804264Y-111352108D01*
X137789703Y-111354268D01*
X137775000Y-111354990D01*
X136025000Y-111354990D01*
X136010297Y-111354268D01*
X135995736Y-111352108D01*
X135981457Y-111348531D01*
X135967597Y-111343572D01*
X135954290Y-111337278D01*
X135941664Y-111329710D01*
X135929841Y-111320942D01*
X135918934Y-111311056D01*
X135909048Y-111300149D01*
X135900280Y-111288326D01*
X135892712Y-111275700D01*
X135886418Y-111262393D01*
X135881459Y-111248533D01*
X135877882Y-111234254D01*
X135875722Y-111219693D01*
X135875000Y-111204990D01*
X135875000Y-110904990D01*
X135875722Y-110890287D01*
X135877882Y-110875726D01*
X135881459Y-110861447D01*
X135886418Y-110847587D01*
X135892712Y-110834280D01*
X135900280Y-110821654D01*
X135909048Y-110809831D01*
X135918934Y-110798924D01*
X135929841Y-110789038D01*
X135941664Y-110780270D01*
X135954290Y-110772702D01*
X135967597Y-110766408D01*
X135981457Y-110761449D01*
X135995736Y-110757872D01*
X136010297Y-110755712D01*
X136025000Y-110754990D01*
X137775000Y-110754990D01*
X137789703Y-110755712D01*
G37*
G36*
X137789703Y-112025712D02*
G01*
X137804264Y-112027872D01*
X137818543Y-112031449D01*
X137832403Y-112036408D01*
X137845710Y-112042702D01*
X137858336Y-112050270D01*
X137870159Y-112059038D01*
X137881066Y-112068924D01*
X137890952Y-112079831D01*
X137899720Y-112091654D01*
X137907288Y-112104280D01*
X137913582Y-112117587D01*
X137918541Y-112131447D01*
X137922118Y-112145726D01*
X137924278Y-112160287D01*
X137925000Y-112174990D01*
X137925000Y-112474990D01*
X137924278Y-112489693D01*
X137922118Y-112504254D01*
X137918541Y-112518533D01*
X137913582Y-112532393D01*
X137907288Y-112545700D01*
X137899720Y-112558326D01*
X137890952Y-112570149D01*
X137881066Y-112581056D01*
X137870159Y-112590942D01*
X137858336Y-112599710D01*
X137845710Y-112607278D01*
X137832403Y-112613572D01*
X137818543Y-112618531D01*
X137804264Y-112622108D01*
X137789703Y-112624268D01*
X137775000Y-112624990D01*
X136025000Y-112624990D01*
X136010297Y-112624268D01*
X135995736Y-112622108D01*
X135981457Y-112618531D01*
X135967597Y-112613572D01*
X135954290Y-112607278D01*
X135941664Y-112599710D01*
X135929841Y-112590942D01*
X135918934Y-112581056D01*
X135909048Y-112570149D01*
X135900280Y-112558326D01*
X135892712Y-112545700D01*
X135886418Y-112532393D01*
X135881459Y-112518533D01*
X135877882Y-112504254D01*
X135875722Y-112489693D01*
X135875000Y-112474990D01*
X135875000Y-112174990D01*
X135875722Y-112160287D01*
X135877882Y-112145726D01*
X135881459Y-112131447D01*
X135886418Y-112117587D01*
X135892712Y-112104280D01*
X135900280Y-112091654D01*
X135909048Y-112079831D01*
X135918934Y-112068924D01*
X135929841Y-112059038D01*
X135941664Y-112050270D01*
X135954290Y-112042702D01*
X135967597Y-112036408D01*
X135981457Y-112031449D01*
X135995736Y-112027872D01*
X136010297Y-112025712D01*
X136025000Y-112024990D01*
X137775000Y-112024990D01*
X137789703Y-112025712D01*
G37*
G36*
X137789703Y-113295712D02*
G01*
X137804264Y-113297872D01*
X137818543Y-113301449D01*
X137832403Y-113306408D01*
X137845710Y-113312702D01*
X137858336Y-113320270D01*
X137870159Y-113329038D01*
X137881066Y-113338924D01*
X137890952Y-113349831D01*
X137899720Y-113361654D01*
X137907288Y-113374280D01*
X137913582Y-113387587D01*
X137918541Y-113401447D01*
X137922118Y-113415726D01*
X137924278Y-113430287D01*
X137925000Y-113444990D01*
X137925000Y-113744990D01*
X137924278Y-113759693D01*
X137922118Y-113774254D01*
X137918541Y-113788533D01*
X137913582Y-113802393D01*
X137907288Y-113815700D01*
X137899720Y-113828326D01*
X137890952Y-113840149D01*
X137881066Y-113851056D01*
X137870159Y-113860942D01*
X137858336Y-113869710D01*
X137845710Y-113877278D01*
X137832403Y-113883572D01*
X137818543Y-113888531D01*
X137804264Y-113892108D01*
X137789703Y-113894268D01*
X137775000Y-113894990D01*
X136025000Y-113894990D01*
X136010297Y-113894268D01*
X135995736Y-113892108D01*
X135981457Y-113888531D01*
X135967597Y-113883572D01*
X135954290Y-113877278D01*
X135941664Y-113869710D01*
X135929841Y-113860942D01*
X135918934Y-113851056D01*
X135909048Y-113840149D01*
X135900280Y-113828326D01*
X135892712Y-113815700D01*
X135886418Y-113802393D01*
X135881459Y-113788533D01*
X135877882Y-113774254D01*
X135875722Y-113759693D01*
X135875000Y-113744990D01*
X135875000Y-113444990D01*
X135875722Y-113430287D01*
X135877882Y-113415726D01*
X135881459Y-113401447D01*
X135886418Y-113387587D01*
X135892712Y-113374280D01*
X135900280Y-113361654D01*
X135909048Y-113349831D01*
X135918934Y-113338924D01*
X135929841Y-113329038D01*
X135941664Y-113320270D01*
X135954290Y-113312702D01*
X135967597Y-113306408D01*
X135981457Y-113301449D01*
X135995736Y-113297872D01*
X136010297Y-113295712D01*
X136025000Y-113294990D01*
X137775000Y-113294990D01*
X137789703Y-113295712D01*
G37*
G36*
X137789703Y-114565712D02*
G01*
X137804264Y-114567872D01*
X137818543Y-114571449D01*
X137832403Y-114576408D01*
X137845710Y-114582702D01*
X137858336Y-114590270D01*
X137870159Y-114599038D01*
X137881066Y-114608924D01*
X137890952Y-114619831D01*
X137899720Y-114631654D01*
X137907288Y-114644280D01*
X137913582Y-114657587D01*
X137918541Y-114671447D01*
X137922118Y-114685726D01*
X137924278Y-114700287D01*
X137925000Y-114714990D01*
X137925000Y-115014990D01*
X137924278Y-115029693D01*
X137922118Y-115044254D01*
X137918541Y-115058533D01*
X137913582Y-115072393D01*
X137907288Y-115085700D01*
X137899720Y-115098326D01*
X137890952Y-115110149D01*
X137881066Y-115121056D01*
X137870159Y-115130942D01*
X137858336Y-115139710D01*
X137845710Y-115147278D01*
X137832403Y-115153572D01*
X137818543Y-115158531D01*
X137804264Y-115162108D01*
X137789703Y-115164268D01*
X137775000Y-115164990D01*
X136025000Y-115164990D01*
X136010297Y-115164268D01*
X135995736Y-115162108D01*
X135981457Y-115158531D01*
X135967597Y-115153572D01*
X135954290Y-115147278D01*
X135941664Y-115139710D01*
X135929841Y-115130942D01*
X135918934Y-115121056D01*
X135909048Y-115110149D01*
X135900280Y-115098326D01*
X135892712Y-115085700D01*
X135886418Y-115072393D01*
X135881459Y-115058533D01*
X135877882Y-115044254D01*
X135875722Y-115029693D01*
X135875000Y-115014990D01*
X135875000Y-114714990D01*
X135875722Y-114700287D01*
X135877882Y-114685726D01*
X135881459Y-114671447D01*
X135886418Y-114657587D01*
X135892712Y-114644280D01*
X135900280Y-114631654D01*
X135909048Y-114619831D01*
X135918934Y-114608924D01*
X135929841Y-114599038D01*
X135941664Y-114590270D01*
X135954290Y-114582702D01*
X135967597Y-114576408D01*
X135981457Y-114571449D01*
X135995736Y-114567872D01*
X136010297Y-114565712D01*
X136025000Y-114564990D01*
X137775000Y-114564990D01*
X137789703Y-114565712D01*
G37*
G36*
X137789703Y-115835712D02*
G01*
X137804264Y-115837872D01*
X137818543Y-115841449D01*
X137832403Y-115846408D01*
X137845710Y-115852702D01*
X137858336Y-115860270D01*
X137870159Y-115869038D01*
X137881066Y-115878924D01*
X137890952Y-115889831D01*
X137899720Y-115901654D01*
X137907288Y-115914280D01*
X137913582Y-115927587D01*
X137918541Y-115941447D01*
X137922118Y-115955726D01*
X137924278Y-115970287D01*
X137925000Y-115984990D01*
X137925000Y-116284990D01*
X137924278Y-116299693D01*
X137922118Y-116314254D01*
X137918541Y-116328533D01*
X137913582Y-116342393D01*
X137907288Y-116355700D01*
X137899720Y-116368326D01*
X137890952Y-116380149D01*
X137881066Y-116391056D01*
X137870159Y-116400942D01*
X137858336Y-116409710D01*
X137845710Y-116417278D01*
X137832403Y-116423572D01*
X137818543Y-116428531D01*
X137804264Y-116432108D01*
X137789703Y-116434268D01*
X137775000Y-116434990D01*
X136025000Y-116434990D01*
X136010297Y-116434268D01*
X135995736Y-116432108D01*
X135981457Y-116428531D01*
X135967597Y-116423572D01*
X135954290Y-116417278D01*
X135941664Y-116409710D01*
X135929841Y-116400942D01*
X135918934Y-116391056D01*
X135909048Y-116380149D01*
X135900280Y-116368326D01*
X135892712Y-116355700D01*
X135886418Y-116342393D01*
X135881459Y-116328533D01*
X135877882Y-116314254D01*
X135875722Y-116299693D01*
X135875000Y-116284990D01*
X135875000Y-115984990D01*
X135875722Y-115970287D01*
X135877882Y-115955726D01*
X135881459Y-115941447D01*
X135886418Y-115927587D01*
X135892712Y-115914280D01*
X135900280Y-115901654D01*
X135909048Y-115889831D01*
X135918934Y-115878924D01*
X135929841Y-115869038D01*
X135941664Y-115860270D01*
X135954290Y-115852702D01*
X135967597Y-115846408D01*
X135981457Y-115841449D01*
X135995736Y-115837872D01*
X136010297Y-115835712D01*
X136025000Y-115834990D01*
X137775000Y-115834990D01*
X137789703Y-115835712D01*
G37*
G36*
X137789703Y-117105712D02*
G01*
X137804264Y-117107872D01*
X137818543Y-117111449D01*
X137832403Y-117116408D01*
X137845710Y-117122702D01*
X137858336Y-117130270D01*
X137870159Y-117139038D01*
X137881066Y-117148924D01*
X137890952Y-117159831D01*
X137899720Y-117171654D01*
X137907288Y-117184280D01*
X137913582Y-117197587D01*
X137918541Y-117211447D01*
X137922118Y-117225726D01*
X137924278Y-117240287D01*
X137925000Y-117254990D01*
X137925000Y-117554990D01*
X137924278Y-117569693D01*
X137922118Y-117584254D01*
X137918541Y-117598533D01*
X137913582Y-117612393D01*
X137907288Y-117625700D01*
X137899720Y-117638326D01*
X137890952Y-117650149D01*
X137881066Y-117661056D01*
X137870159Y-117670942D01*
X137858336Y-117679710D01*
X137845710Y-117687278D01*
X137832403Y-117693572D01*
X137818543Y-117698531D01*
X137804264Y-117702108D01*
X137789703Y-117704268D01*
X137775000Y-117704990D01*
X136025000Y-117704990D01*
X136010297Y-117704268D01*
X135995736Y-117702108D01*
X135981457Y-117698531D01*
X135967597Y-117693572D01*
X135954290Y-117687278D01*
X135941664Y-117679710D01*
X135929841Y-117670942D01*
X135918934Y-117661056D01*
X135909048Y-117650149D01*
X135900280Y-117638326D01*
X135892712Y-117625700D01*
X135886418Y-117612393D01*
X135881459Y-117598533D01*
X135877882Y-117584254D01*
X135875722Y-117569693D01*
X135875000Y-117554990D01*
X135875000Y-117254990D01*
X135875722Y-117240287D01*
X135877882Y-117225726D01*
X135881459Y-117211447D01*
X135886418Y-117197587D01*
X135892712Y-117184280D01*
X135900280Y-117171654D01*
X135909048Y-117159831D01*
X135918934Y-117148924D01*
X135929841Y-117139038D01*
X135941664Y-117130270D01*
X135954290Y-117122702D01*
X135967597Y-117116408D01*
X135981457Y-117111449D01*
X135995736Y-117107872D01*
X136010297Y-117105712D01*
X136025000Y-117104990D01*
X137775000Y-117104990D01*
X137789703Y-117105712D01*
G37*
G36*
X128489703Y-117105712D02*
G01*
X128504264Y-117107872D01*
X128518543Y-117111449D01*
X128532403Y-117116408D01*
X128545710Y-117122702D01*
X128558336Y-117130270D01*
X128570159Y-117139038D01*
X128581066Y-117148924D01*
X128590952Y-117159831D01*
X128599720Y-117171654D01*
X128607288Y-117184280D01*
X128613582Y-117197587D01*
X128618541Y-117211447D01*
X128622118Y-117225726D01*
X128624278Y-117240287D01*
X128625000Y-117254990D01*
X128625000Y-117554990D01*
X128624278Y-117569693D01*
X128622118Y-117584254D01*
X128618541Y-117598533D01*
X128613582Y-117612393D01*
X128607288Y-117625700D01*
X128599720Y-117638326D01*
X128590952Y-117650149D01*
X128581066Y-117661056D01*
X128570159Y-117670942D01*
X128558336Y-117679710D01*
X128545710Y-117687278D01*
X128532403Y-117693572D01*
X128518543Y-117698531D01*
X128504264Y-117702108D01*
X128489703Y-117704268D01*
X128475000Y-117704990D01*
X126725000Y-117704990D01*
X126710297Y-117704268D01*
X126695736Y-117702108D01*
X126681457Y-117698531D01*
X126667597Y-117693572D01*
X126654290Y-117687278D01*
X126641664Y-117679710D01*
X126629841Y-117670942D01*
X126618934Y-117661056D01*
X126609048Y-117650149D01*
X126600280Y-117638326D01*
X126592712Y-117625700D01*
X126586418Y-117612393D01*
X126581459Y-117598533D01*
X126577882Y-117584254D01*
X126575722Y-117569693D01*
X126575000Y-117554990D01*
X126575000Y-117254990D01*
X126575722Y-117240287D01*
X126577882Y-117225726D01*
X126581459Y-117211447D01*
X126586418Y-117197587D01*
X126592712Y-117184280D01*
X126600280Y-117171654D01*
X126609048Y-117159831D01*
X126618934Y-117148924D01*
X126629841Y-117139038D01*
X126641664Y-117130270D01*
X126654290Y-117122702D01*
X126667597Y-117116408D01*
X126681457Y-117111449D01*
X126695736Y-117107872D01*
X126710297Y-117105712D01*
X126725000Y-117104990D01*
X128475000Y-117104990D01*
X128489703Y-117105712D01*
G37*
G36*
X128489703Y-115835712D02*
G01*
X128504264Y-115837872D01*
X128518543Y-115841449D01*
X128532403Y-115846408D01*
X128545710Y-115852702D01*
X128558336Y-115860270D01*
X128570159Y-115869038D01*
X128581066Y-115878924D01*
X128590952Y-115889831D01*
X128599720Y-115901654D01*
X128607288Y-115914280D01*
X128613582Y-115927587D01*
X128618541Y-115941447D01*
X128622118Y-115955726D01*
X128624278Y-115970287D01*
X128625000Y-115984990D01*
X128625000Y-116284990D01*
X128624278Y-116299693D01*
X128622118Y-116314254D01*
X128618541Y-116328533D01*
X128613582Y-116342393D01*
X128607288Y-116355700D01*
X128599720Y-116368326D01*
X128590952Y-116380149D01*
X128581066Y-116391056D01*
X128570159Y-116400942D01*
X128558336Y-116409710D01*
X128545710Y-116417278D01*
X128532403Y-116423572D01*
X128518543Y-116428531D01*
X128504264Y-116432108D01*
X128489703Y-116434268D01*
X128475000Y-116434990D01*
X126725000Y-116434990D01*
X126710297Y-116434268D01*
X126695736Y-116432108D01*
X126681457Y-116428531D01*
X126667597Y-116423572D01*
X126654290Y-116417278D01*
X126641664Y-116409710D01*
X126629841Y-116400942D01*
X126618934Y-116391056D01*
X126609048Y-116380149D01*
X126600280Y-116368326D01*
X126592712Y-116355700D01*
X126586418Y-116342393D01*
X126581459Y-116328533D01*
X126577882Y-116314254D01*
X126575722Y-116299693D01*
X126575000Y-116284990D01*
X126575000Y-115984990D01*
X126575722Y-115970287D01*
X126577882Y-115955726D01*
X126581459Y-115941447D01*
X126586418Y-115927587D01*
X126592712Y-115914280D01*
X126600280Y-115901654D01*
X126609048Y-115889831D01*
X126618934Y-115878924D01*
X126629841Y-115869038D01*
X126641664Y-115860270D01*
X126654290Y-115852702D01*
X126667597Y-115846408D01*
X126681457Y-115841449D01*
X126695736Y-115837872D01*
X126710297Y-115835712D01*
X126725000Y-115834990D01*
X128475000Y-115834990D01*
X128489703Y-115835712D01*
G37*
G36*
X128489703Y-114565712D02*
G01*
X128504264Y-114567872D01*
X128518543Y-114571449D01*
X128532403Y-114576408D01*
X128545710Y-114582702D01*
X128558336Y-114590270D01*
X128570159Y-114599038D01*
X128581066Y-114608924D01*
X128590952Y-114619831D01*
X128599720Y-114631654D01*
X128607288Y-114644280D01*
X128613582Y-114657587D01*
X128618541Y-114671447D01*
X128622118Y-114685726D01*
X128624278Y-114700287D01*
X128625000Y-114714990D01*
X128625000Y-115014990D01*
X128624278Y-115029693D01*
X128622118Y-115044254D01*
X128618541Y-115058533D01*
X128613582Y-115072393D01*
X128607288Y-115085700D01*
X128599720Y-115098326D01*
X128590952Y-115110149D01*
X128581066Y-115121056D01*
X128570159Y-115130942D01*
X128558336Y-115139710D01*
X128545710Y-115147278D01*
X128532403Y-115153572D01*
X128518543Y-115158531D01*
X128504264Y-115162108D01*
X128489703Y-115164268D01*
X128475000Y-115164990D01*
X126725000Y-115164990D01*
X126710297Y-115164268D01*
X126695736Y-115162108D01*
X126681457Y-115158531D01*
X126667597Y-115153572D01*
X126654290Y-115147278D01*
X126641664Y-115139710D01*
X126629841Y-115130942D01*
X126618934Y-115121056D01*
X126609048Y-115110149D01*
X126600280Y-115098326D01*
X126592712Y-115085700D01*
X126586418Y-115072393D01*
X126581459Y-115058533D01*
X126577882Y-115044254D01*
X126575722Y-115029693D01*
X126575000Y-115014990D01*
X126575000Y-114714990D01*
X126575722Y-114700287D01*
X126577882Y-114685726D01*
X126581459Y-114671447D01*
X126586418Y-114657587D01*
X126592712Y-114644280D01*
X126600280Y-114631654D01*
X126609048Y-114619831D01*
X126618934Y-114608924D01*
X126629841Y-114599038D01*
X126641664Y-114590270D01*
X126654290Y-114582702D01*
X126667597Y-114576408D01*
X126681457Y-114571449D01*
X126695736Y-114567872D01*
X126710297Y-114565712D01*
X126725000Y-114564990D01*
X128475000Y-114564990D01*
X128489703Y-114565712D01*
G37*
G36*
X128489703Y-113295712D02*
G01*
X128504264Y-113297872D01*
X128518543Y-113301449D01*
X128532403Y-113306408D01*
X128545710Y-113312702D01*
X128558336Y-113320270D01*
X128570159Y-113329038D01*
X128581066Y-113338924D01*
X128590952Y-113349831D01*
X128599720Y-113361654D01*
X128607288Y-113374280D01*
X128613582Y-113387587D01*
X128618541Y-113401447D01*
X128622118Y-113415726D01*
X128624278Y-113430287D01*
X128625000Y-113444990D01*
X128625000Y-113744990D01*
X128624278Y-113759693D01*
X128622118Y-113774254D01*
X128618541Y-113788533D01*
X128613582Y-113802393D01*
X128607288Y-113815700D01*
X128599720Y-113828326D01*
X128590952Y-113840149D01*
X128581066Y-113851056D01*
X128570159Y-113860942D01*
X128558336Y-113869710D01*
X128545710Y-113877278D01*
X128532403Y-113883572D01*
X128518543Y-113888531D01*
X128504264Y-113892108D01*
X128489703Y-113894268D01*
X128475000Y-113894990D01*
X126725000Y-113894990D01*
X126710297Y-113894268D01*
X126695736Y-113892108D01*
X126681457Y-113888531D01*
X126667597Y-113883572D01*
X126654290Y-113877278D01*
X126641664Y-113869710D01*
X126629841Y-113860942D01*
X126618934Y-113851056D01*
X126609048Y-113840149D01*
X126600280Y-113828326D01*
X126592712Y-113815700D01*
X126586418Y-113802393D01*
X126581459Y-113788533D01*
X126577882Y-113774254D01*
X126575722Y-113759693D01*
X126575000Y-113744990D01*
X126575000Y-113444990D01*
X126575722Y-113430287D01*
X126577882Y-113415726D01*
X126581459Y-113401447D01*
X126586418Y-113387587D01*
X126592712Y-113374280D01*
X126600280Y-113361654D01*
X126609048Y-113349831D01*
X126618934Y-113338924D01*
X126629841Y-113329038D01*
X126641664Y-113320270D01*
X126654290Y-113312702D01*
X126667597Y-113306408D01*
X126681457Y-113301449D01*
X126695736Y-113297872D01*
X126710297Y-113295712D01*
X126725000Y-113294990D01*
X128475000Y-113294990D01*
X128489703Y-113295712D01*
G37*
G36*
X128489703Y-112025712D02*
G01*
X128504264Y-112027872D01*
X128518543Y-112031449D01*
X128532403Y-112036408D01*
X128545710Y-112042702D01*
X128558336Y-112050270D01*
X128570159Y-112059038D01*
X128581066Y-112068924D01*
X128590952Y-112079831D01*
X128599720Y-112091654D01*
X128607288Y-112104280D01*
X128613582Y-112117587D01*
X128618541Y-112131447D01*
X128622118Y-112145726D01*
X128624278Y-112160287D01*
X128625000Y-112174990D01*
X128625000Y-112474990D01*
X128624278Y-112489693D01*
X128622118Y-112504254D01*
X128618541Y-112518533D01*
X128613582Y-112532393D01*
X128607288Y-112545700D01*
X128599720Y-112558326D01*
X128590952Y-112570149D01*
X128581066Y-112581056D01*
X128570159Y-112590942D01*
X128558336Y-112599710D01*
X128545710Y-112607278D01*
X128532403Y-112613572D01*
X128518543Y-112618531D01*
X128504264Y-112622108D01*
X128489703Y-112624268D01*
X128475000Y-112624990D01*
X126725000Y-112624990D01*
X126710297Y-112624268D01*
X126695736Y-112622108D01*
X126681457Y-112618531D01*
X126667597Y-112613572D01*
X126654290Y-112607278D01*
X126641664Y-112599710D01*
X126629841Y-112590942D01*
X126618934Y-112581056D01*
X126609048Y-112570149D01*
X126600280Y-112558326D01*
X126592712Y-112545700D01*
X126586418Y-112532393D01*
X126581459Y-112518533D01*
X126577882Y-112504254D01*
X126575722Y-112489693D01*
X126575000Y-112474990D01*
X126575000Y-112174990D01*
X126575722Y-112160287D01*
X126577882Y-112145726D01*
X126581459Y-112131447D01*
X126586418Y-112117587D01*
X126592712Y-112104280D01*
X126600280Y-112091654D01*
X126609048Y-112079831D01*
X126618934Y-112068924D01*
X126629841Y-112059038D01*
X126641664Y-112050270D01*
X126654290Y-112042702D01*
X126667597Y-112036408D01*
X126681457Y-112031449D01*
X126695736Y-112027872D01*
X126710297Y-112025712D01*
X126725000Y-112024990D01*
X128475000Y-112024990D01*
X128489703Y-112025712D01*
G37*
G36*
X128489703Y-110755712D02*
G01*
X128504264Y-110757872D01*
X128518543Y-110761449D01*
X128532403Y-110766408D01*
X128545710Y-110772702D01*
X128558336Y-110780270D01*
X128570159Y-110789038D01*
X128581066Y-110798924D01*
X128590952Y-110809831D01*
X128599720Y-110821654D01*
X128607288Y-110834280D01*
X128613582Y-110847587D01*
X128618541Y-110861447D01*
X128622118Y-110875726D01*
X128624278Y-110890287D01*
X128625000Y-110904990D01*
X128625000Y-111204990D01*
X128624278Y-111219693D01*
X128622118Y-111234254D01*
X128618541Y-111248533D01*
X128613582Y-111262393D01*
X128607288Y-111275700D01*
X128599720Y-111288326D01*
X128590952Y-111300149D01*
X128581066Y-111311056D01*
X128570159Y-111320942D01*
X128558336Y-111329710D01*
X128545710Y-111337278D01*
X128532403Y-111343572D01*
X128518543Y-111348531D01*
X128504264Y-111352108D01*
X128489703Y-111354268D01*
X128475000Y-111354990D01*
X126725000Y-111354990D01*
X126710297Y-111354268D01*
X126695736Y-111352108D01*
X126681457Y-111348531D01*
X126667597Y-111343572D01*
X126654290Y-111337278D01*
X126641664Y-111329710D01*
X126629841Y-111320942D01*
X126618934Y-111311056D01*
X126609048Y-111300149D01*
X126600280Y-111288326D01*
X126592712Y-111275700D01*
X126586418Y-111262393D01*
X126581459Y-111248533D01*
X126577882Y-111234254D01*
X126575722Y-111219693D01*
X126575000Y-111204990D01*
X126575000Y-110904990D01*
X126575722Y-110890287D01*
X126577882Y-110875726D01*
X126581459Y-110861447D01*
X126586418Y-110847587D01*
X126592712Y-110834280D01*
X126600280Y-110821654D01*
X126609048Y-110809831D01*
X126618934Y-110798924D01*
X126629841Y-110789038D01*
X126641664Y-110780270D01*
X126654290Y-110772702D01*
X126667597Y-110766408D01*
X126681457Y-110761449D01*
X126695736Y-110757872D01*
X126710297Y-110755712D01*
X126725000Y-110754990D01*
X128475000Y-110754990D01*
X128489703Y-110755712D01*
G37*
G36*
X128489703Y-109485712D02*
G01*
X128504264Y-109487872D01*
X128518543Y-109491449D01*
X128532403Y-109496408D01*
X128545710Y-109502702D01*
X128558336Y-109510270D01*
X128570159Y-109519038D01*
X128581066Y-109528924D01*
X128590952Y-109539831D01*
X128599720Y-109551654D01*
X128607288Y-109564280D01*
X128613582Y-109577587D01*
X128618541Y-109591447D01*
X128622118Y-109605726D01*
X128624278Y-109620287D01*
X128625000Y-109634990D01*
X128625000Y-109934990D01*
X128624278Y-109949693D01*
X128622118Y-109964254D01*
X128618541Y-109978533D01*
X128613582Y-109992393D01*
X128607288Y-110005700D01*
X128599720Y-110018326D01*
X128590952Y-110030149D01*
X128581066Y-110041056D01*
X128570159Y-110050942D01*
X128558336Y-110059710D01*
X128545710Y-110067278D01*
X128532403Y-110073572D01*
X128518543Y-110078531D01*
X128504264Y-110082108D01*
X128489703Y-110084268D01*
X128475000Y-110084990D01*
X126725000Y-110084990D01*
X126710297Y-110084268D01*
X126695736Y-110082108D01*
X126681457Y-110078531D01*
X126667597Y-110073572D01*
X126654290Y-110067278D01*
X126641664Y-110059710D01*
X126629841Y-110050942D01*
X126618934Y-110041056D01*
X126609048Y-110030149D01*
X126600280Y-110018326D01*
X126592712Y-110005700D01*
X126586418Y-109992393D01*
X126581459Y-109978533D01*
X126577882Y-109964254D01*
X126575722Y-109949693D01*
X126575000Y-109934990D01*
X126575000Y-109634990D01*
X126575722Y-109620287D01*
X126577882Y-109605726D01*
X126581459Y-109591447D01*
X126586418Y-109577587D01*
X126592712Y-109564280D01*
X126600280Y-109551654D01*
X126609048Y-109539831D01*
X126618934Y-109528924D01*
X126629841Y-109519038D01*
X126641664Y-109510270D01*
X126654290Y-109502702D01*
X126667597Y-109496408D01*
X126681457Y-109491449D01*
X126695736Y-109487872D01*
X126710297Y-109485712D01*
X126725000Y-109484990D01*
X128475000Y-109484990D01*
X128489703Y-109485712D01*
G37*
G36*
X128489703Y-108215712D02*
G01*
X128504264Y-108217872D01*
X128518543Y-108221449D01*
X128532403Y-108226408D01*
X128545710Y-108232702D01*
X128558336Y-108240270D01*
X128570159Y-108249038D01*
X128581066Y-108258924D01*
X128590952Y-108269831D01*
X128599720Y-108281654D01*
X128607288Y-108294280D01*
X128613582Y-108307587D01*
X128618541Y-108321447D01*
X128622118Y-108335726D01*
X128624278Y-108350287D01*
X128625000Y-108364990D01*
X128625000Y-108664990D01*
X128624278Y-108679693D01*
X128622118Y-108694254D01*
X128618541Y-108708533D01*
X128613582Y-108722393D01*
X128607288Y-108735700D01*
X128599720Y-108748326D01*
X128590952Y-108760149D01*
X128581066Y-108771056D01*
X128570159Y-108780942D01*
X128558336Y-108789710D01*
X128545710Y-108797278D01*
X128532403Y-108803572D01*
X128518543Y-108808531D01*
X128504264Y-108812108D01*
X128489703Y-108814268D01*
X128475000Y-108814990D01*
X126725000Y-108814990D01*
X126710297Y-108814268D01*
X126695736Y-108812108D01*
X126681457Y-108808531D01*
X126667597Y-108803572D01*
X126654290Y-108797278D01*
X126641664Y-108789710D01*
X126629841Y-108780942D01*
X126618934Y-108771056D01*
X126609048Y-108760149D01*
X126600280Y-108748326D01*
X126592712Y-108735700D01*
X126586418Y-108722393D01*
X126581459Y-108708533D01*
X126577882Y-108694254D01*
X126575722Y-108679693D01*
X126575000Y-108664990D01*
X126575000Y-108364990D01*
X126575722Y-108350287D01*
X126577882Y-108335726D01*
X126581459Y-108321447D01*
X126586418Y-108307587D01*
X126592712Y-108294280D01*
X126600280Y-108281654D01*
X126609048Y-108269831D01*
X126618934Y-108258924D01*
X126629841Y-108249038D01*
X126641664Y-108240270D01*
X126654290Y-108232702D01*
X126667597Y-108226408D01*
X126681457Y-108221449D01*
X126695736Y-108217872D01*
X126710297Y-108215712D01*
X126725000Y-108214990D01*
X128475000Y-108214990D01*
X128489703Y-108215712D01*
G37*
G36*
X91324505Y-122551204D02*
G01*
X91348773Y-122554804D01*
X91372572Y-122560765D01*
X91395671Y-122569030D01*
X91417850Y-122579520D01*
X91438893Y-122592132D01*
X91458599Y-122606747D01*
X91476777Y-122623223D01*
X91493253Y-122641401D01*
X91507868Y-122661107D01*
X91520480Y-122682150D01*
X91530970Y-122704329D01*
X91539235Y-122727428D01*
X91545196Y-122751227D01*
X91548796Y-122775495D01*
X91550000Y-122799999D01*
X91550000Y-123700001D01*
X91548796Y-123724505D01*
X91545196Y-123748773D01*
X91539235Y-123772572D01*
X91530970Y-123795671D01*
X91520480Y-123817850D01*
X91507868Y-123838893D01*
X91493253Y-123858599D01*
X91476777Y-123876777D01*
X91458599Y-123893253D01*
X91438893Y-123907868D01*
X91417850Y-123920480D01*
X91395671Y-123930970D01*
X91372572Y-123939235D01*
X91348773Y-123945196D01*
X91324505Y-123948796D01*
X91300001Y-123950000D01*
X90649999Y-123950000D01*
X90625495Y-123948796D01*
X90601227Y-123945196D01*
X90577428Y-123939235D01*
X90554329Y-123930970D01*
X90532150Y-123920480D01*
X90511107Y-123907868D01*
X90491401Y-123893253D01*
X90473223Y-123876777D01*
X90456747Y-123858599D01*
X90442132Y-123838893D01*
X90429520Y-123817850D01*
X90419030Y-123795671D01*
X90410765Y-123772572D01*
X90404804Y-123748773D01*
X90401204Y-123724505D01*
X90400000Y-123700001D01*
X90400000Y-122799999D01*
X90401204Y-122775495D01*
X90404804Y-122751227D01*
X90410765Y-122727428D01*
X90419030Y-122704329D01*
X90429520Y-122682150D01*
X90442132Y-122661107D01*
X90456747Y-122641401D01*
X90473223Y-122623223D01*
X90491401Y-122606747D01*
X90511107Y-122592132D01*
X90532150Y-122579520D01*
X90554329Y-122569030D01*
X90577428Y-122560765D01*
X90601227Y-122554804D01*
X90625495Y-122551204D01*
X90649999Y-122550000D01*
X91300001Y-122550000D01*
X91324505Y-122551204D01*
G37*
G36*
X93374505Y-122551204D02*
G01*
X93398773Y-122554804D01*
X93422572Y-122560765D01*
X93445671Y-122569030D01*
X93467850Y-122579520D01*
X93488893Y-122592132D01*
X93508599Y-122606747D01*
X93526777Y-122623223D01*
X93543253Y-122641401D01*
X93557868Y-122661107D01*
X93570480Y-122682150D01*
X93580970Y-122704329D01*
X93589235Y-122727428D01*
X93595196Y-122751227D01*
X93598796Y-122775495D01*
X93600000Y-122799999D01*
X93600000Y-123700001D01*
X93598796Y-123724505D01*
X93595196Y-123748773D01*
X93589235Y-123772572D01*
X93580970Y-123795671D01*
X93570480Y-123817850D01*
X93557868Y-123838893D01*
X93543253Y-123858599D01*
X93526777Y-123876777D01*
X93508599Y-123893253D01*
X93488893Y-123907868D01*
X93467850Y-123920480D01*
X93445671Y-123930970D01*
X93422572Y-123939235D01*
X93398773Y-123945196D01*
X93374505Y-123948796D01*
X93350001Y-123950000D01*
X92699999Y-123950000D01*
X92675495Y-123948796D01*
X92651227Y-123945196D01*
X92627428Y-123939235D01*
X92604329Y-123930970D01*
X92582150Y-123920480D01*
X92561107Y-123907868D01*
X92541401Y-123893253D01*
X92523223Y-123876777D01*
X92506747Y-123858599D01*
X92492132Y-123838893D01*
X92479520Y-123817850D01*
X92469030Y-123795671D01*
X92460765Y-123772572D01*
X92454804Y-123748773D01*
X92451204Y-123724505D01*
X92450000Y-123700001D01*
X92450000Y-122799999D01*
X92451204Y-122775495D01*
X92454804Y-122751227D01*
X92460765Y-122727428D01*
X92469030Y-122704329D01*
X92479520Y-122682150D01*
X92492132Y-122661107D01*
X92506747Y-122641401D01*
X92523223Y-122623223D01*
X92541401Y-122606747D01*
X92561107Y-122592132D01*
X92582150Y-122579520D01*
X92604329Y-122569030D01*
X92627428Y-122560765D01*
X92651227Y-122554804D01*
X92675495Y-122551204D01*
X92699999Y-122550000D01*
X93350001Y-122550000D01*
X93374505Y-122551204D01*
G37*
G36*
X91324505Y-119113704D02*
G01*
X91348773Y-119117304D01*
X91372572Y-119123265D01*
X91395671Y-119131530D01*
X91417850Y-119142020D01*
X91438893Y-119154632D01*
X91458599Y-119169247D01*
X91476777Y-119185723D01*
X91493253Y-119203901D01*
X91507868Y-119223607D01*
X91520480Y-119244650D01*
X91530970Y-119266829D01*
X91539235Y-119289928D01*
X91545196Y-119313727D01*
X91548796Y-119337995D01*
X91550000Y-119362499D01*
X91550000Y-120262501D01*
X91548796Y-120287005D01*
X91545196Y-120311273D01*
X91539235Y-120335072D01*
X91530970Y-120358171D01*
X91520480Y-120380350D01*
X91507868Y-120401393D01*
X91493253Y-120421099D01*
X91476777Y-120439277D01*
X91458599Y-120455753D01*
X91438893Y-120470368D01*
X91417850Y-120482980D01*
X91395671Y-120493470D01*
X91372572Y-120501735D01*
X91348773Y-120507696D01*
X91324505Y-120511296D01*
X91300001Y-120512500D01*
X90649999Y-120512500D01*
X90625495Y-120511296D01*
X90601227Y-120507696D01*
X90577428Y-120501735D01*
X90554329Y-120493470D01*
X90532150Y-120482980D01*
X90511107Y-120470368D01*
X90491401Y-120455753D01*
X90473223Y-120439277D01*
X90456747Y-120421099D01*
X90442132Y-120401393D01*
X90429520Y-120380350D01*
X90419030Y-120358171D01*
X90410765Y-120335072D01*
X90404804Y-120311273D01*
X90401204Y-120287005D01*
X90400000Y-120262501D01*
X90400000Y-119362499D01*
X90401204Y-119337995D01*
X90404804Y-119313727D01*
X90410765Y-119289928D01*
X90419030Y-119266829D01*
X90429520Y-119244650D01*
X90442132Y-119223607D01*
X90456747Y-119203901D01*
X90473223Y-119185723D01*
X90491401Y-119169247D01*
X90511107Y-119154632D01*
X90532150Y-119142020D01*
X90554329Y-119131530D01*
X90577428Y-119123265D01*
X90601227Y-119117304D01*
X90625495Y-119113704D01*
X90649999Y-119112500D01*
X91300001Y-119112500D01*
X91324505Y-119113704D01*
G37*
G36*
X93374505Y-119113704D02*
G01*
X93398773Y-119117304D01*
X93422572Y-119123265D01*
X93445671Y-119131530D01*
X93467850Y-119142020D01*
X93488893Y-119154632D01*
X93508599Y-119169247D01*
X93526777Y-119185723D01*
X93543253Y-119203901D01*
X93557868Y-119223607D01*
X93570480Y-119244650D01*
X93580970Y-119266829D01*
X93589235Y-119289928D01*
X93595196Y-119313727D01*
X93598796Y-119337995D01*
X93600000Y-119362499D01*
X93600000Y-120262501D01*
X93598796Y-120287005D01*
X93595196Y-120311273D01*
X93589235Y-120335072D01*
X93580970Y-120358171D01*
X93570480Y-120380350D01*
X93557868Y-120401393D01*
X93543253Y-120421099D01*
X93526777Y-120439277D01*
X93508599Y-120455753D01*
X93488893Y-120470368D01*
X93467850Y-120482980D01*
X93445671Y-120493470D01*
X93422572Y-120501735D01*
X93398773Y-120507696D01*
X93374505Y-120511296D01*
X93350001Y-120512500D01*
X92699999Y-120512500D01*
X92675495Y-120511296D01*
X92651227Y-120507696D01*
X92627428Y-120501735D01*
X92604329Y-120493470D01*
X92582150Y-120482980D01*
X92561107Y-120470368D01*
X92541401Y-120455753D01*
X92523223Y-120439277D01*
X92506747Y-120421099D01*
X92492132Y-120401393D01*
X92479520Y-120380350D01*
X92469030Y-120358171D01*
X92460765Y-120335072D01*
X92454804Y-120311273D01*
X92451204Y-120287005D01*
X92450000Y-120262501D01*
X92450000Y-119362499D01*
X92451204Y-119337995D01*
X92454804Y-119313727D01*
X92460765Y-119289928D01*
X92469030Y-119266829D01*
X92479520Y-119244650D01*
X92492132Y-119223607D01*
X92506747Y-119203901D01*
X92523223Y-119185723D01*
X92541401Y-119169247D01*
X92561107Y-119154632D01*
X92582150Y-119142020D01*
X92604329Y-119131530D01*
X92627428Y-119123265D01*
X92651227Y-119117304D01*
X92675495Y-119113704D01*
X92699999Y-119112500D01*
X93350001Y-119112500D01*
X93374505Y-119113704D01*
G37*
G36*
X91324505Y-115676204D02*
G01*
X91348773Y-115679804D01*
X91372572Y-115685765D01*
X91395671Y-115694030D01*
X91417850Y-115704520D01*
X91438893Y-115717132D01*
X91458599Y-115731747D01*
X91476777Y-115748223D01*
X91493253Y-115766401D01*
X91507868Y-115786107D01*
X91520480Y-115807150D01*
X91530970Y-115829329D01*
X91539235Y-115852428D01*
X91545196Y-115876227D01*
X91548796Y-115900495D01*
X91550000Y-115924999D01*
X91550000Y-116825001D01*
X91548796Y-116849505D01*
X91545196Y-116873773D01*
X91539235Y-116897572D01*
X91530970Y-116920671D01*
X91520480Y-116942850D01*
X91507868Y-116963893D01*
X91493253Y-116983599D01*
X91476777Y-117001777D01*
X91458599Y-117018253D01*
X91438893Y-117032868D01*
X91417850Y-117045480D01*
X91395671Y-117055970D01*
X91372572Y-117064235D01*
X91348773Y-117070196D01*
X91324505Y-117073796D01*
X91300001Y-117075000D01*
X90649999Y-117075000D01*
X90625495Y-117073796D01*
X90601227Y-117070196D01*
X90577428Y-117064235D01*
X90554329Y-117055970D01*
X90532150Y-117045480D01*
X90511107Y-117032868D01*
X90491401Y-117018253D01*
X90473223Y-117001777D01*
X90456747Y-116983599D01*
X90442132Y-116963893D01*
X90429520Y-116942850D01*
X90419030Y-116920671D01*
X90410765Y-116897572D01*
X90404804Y-116873773D01*
X90401204Y-116849505D01*
X90400000Y-116825001D01*
X90400000Y-115924999D01*
X90401204Y-115900495D01*
X90404804Y-115876227D01*
X90410765Y-115852428D01*
X90419030Y-115829329D01*
X90429520Y-115807150D01*
X90442132Y-115786107D01*
X90456747Y-115766401D01*
X90473223Y-115748223D01*
X90491401Y-115731747D01*
X90511107Y-115717132D01*
X90532150Y-115704520D01*
X90554329Y-115694030D01*
X90577428Y-115685765D01*
X90601227Y-115679804D01*
X90625495Y-115676204D01*
X90649999Y-115675000D01*
X91300001Y-115675000D01*
X91324505Y-115676204D01*
G37*
G36*
X93374505Y-115676204D02*
G01*
X93398773Y-115679804D01*
X93422572Y-115685765D01*
X93445671Y-115694030D01*
X93467850Y-115704520D01*
X93488893Y-115717132D01*
X93508599Y-115731747D01*
X93526777Y-115748223D01*
X93543253Y-115766401D01*
X93557868Y-115786107D01*
X93570480Y-115807150D01*
X93580970Y-115829329D01*
X93589235Y-115852428D01*
X93595196Y-115876227D01*
X93598796Y-115900495D01*
X93600000Y-115924999D01*
X93600000Y-116825001D01*
X93598796Y-116849505D01*
X93595196Y-116873773D01*
X93589235Y-116897572D01*
X93580970Y-116920671D01*
X93570480Y-116942850D01*
X93557868Y-116963893D01*
X93543253Y-116983599D01*
X93526777Y-117001777D01*
X93508599Y-117018253D01*
X93488893Y-117032868D01*
X93467850Y-117045480D01*
X93445671Y-117055970D01*
X93422572Y-117064235D01*
X93398773Y-117070196D01*
X93374505Y-117073796D01*
X93350001Y-117075000D01*
X92699999Y-117075000D01*
X92675495Y-117073796D01*
X92651227Y-117070196D01*
X92627428Y-117064235D01*
X92604329Y-117055970D01*
X92582150Y-117045480D01*
X92561107Y-117032868D01*
X92541401Y-117018253D01*
X92523223Y-117001777D01*
X92506747Y-116983599D01*
X92492132Y-116963893D01*
X92479520Y-116942850D01*
X92469030Y-116920671D01*
X92460765Y-116897572D01*
X92454804Y-116873773D01*
X92451204Y-116849505D01*
X92450000Y-116825001D01*
X92450000Y-115924999D01*
X92451204Y-115900495D01*
X92454804Y-115876227D01*
X92460765Y-115852428D01*
X92469030Y-115829329D01*
X92479520Y-115807150D01*
X92492132Y-115786107D01*
X92506747Y-115766401D01*
X92523223Y-115748223D01*
X92541401Y-115731747D01*
X92561107Y-115717132D01*
X92582150Y-115704520D01*
X92604329Y-115694030D01*
X92627428Y-115685765D01*
X92651227Y-115679804D01*
X92675495Y-115676204D01*
X92699999Y-115675000D01*
X93350001Y-115675000D01*
X93374505Y-115676204D01*
G37*
G36*
X75324505Y-110551204D02*
G01*
X75348773Y-110554804D01*
X75372572Y-110560765D01*
X75395671Y-110569030D01*
X75417850Y-110579520D01*
X75438893Y-110592132D01*
X75458599Y-110606747D01*
X75476777Y-110623223D01*
X75493253Y-110641401D01*
X75507868Y-110661107D01*
X75520480Y-110682150D01*
X75530970Y-110704329D01*
X75539235Y-110727428D01*
X75545196Y-110751227D01*
X75548796Y-110775495D01*
X75550000Y-110799999D01*
X75550000Y-111700001D01*
X75548796Y-111724505D01*
X75545196Y-111748773D01*
X75539235Y-111772572D01*
X75530970Y-111795671D01*
X75520480Y-111817850D01*
X75507868Y-111838893D01*
X75493253Y-111858599D01*
X75476777Y-111876777D01*
X75458599Y-111893253D01*
X75438893Y-111907868D01*
X75417850Y-111920480D01*
X75395671Y-111930970D01*
X75372572Y-111939235D01*
X75348773Y-111945196D01*
X75324505Y-111948796D01*
X75300001Y-111950000D01*
X74649999Y-111950000D01*
X74625495Y-111948796D01*
X74601227Y-111945196D01*
X74577428Y-111939235D01*
X74554329Y-111930970D01*
X74532150Y-111920480D01*
X74511107Y-111907868D01*
X74491401Y-111893253D01*
X74473223Y-111876777D01*
X74456747Y-111858599D01*
X74442132Y-111838893D01*
X74429520Y-111817850D01*
X74419030Y-111795671D01*
X74410765Y-111772572D01*
X74404804Y-111748773D01*
X74401204Y-111724505D01*
X74400000Y-111700001D01*
X74400000Y-110799999D01*
X74401204Y-110775495D01*
X74404804Y-110751227D01*
X74410765Y-110727428D01*
X74419030Y-110704329D01*
X74429520Y-110682150D01*
X74442132Y-110661107D01*
X74456747Y-110641401D01*
X74473223Y-110623223D01*
X74491401Y-110606747D01*
X74511107Y-110592132D01*
X74532150Y-110579520D01*
X74554329Y-110569030D01*
X74577428Y-110560765D01*
X74601227Y-110554804D01*
X74625495Y-110551204D01*
X74649999Y-110550000D01*
X75300001Y-110550000D01*
X75324505Y-110551204D01*
G37*
G36*
X77374505Y-110551204D02*
G01*
X77398773Y-110554804D01*
X77422572Y-110560765D01*
X77445671Y-110569030D01*
X77467850Y-110579520D01*
X77488893Y-110592132D01*
X77508599Y-110606747D01*
X77526777Y-110623223D01*
X77543253Y-110641401D01*
X77557868Y-110661107D01*
X77570480Y-110682150D01*
X77580970Y-110704329D01*
X77589235Y-110727428D01*
X77595196Y-110751227D01*
X77598796Y-110775495D01*
X77600000Y-110799999D01*
X77600000Y-111700001D01*
X77598796Y-111724505D01*
X77595196Y-111748773D01*
X77589235Y-111772572D01*
X77580970Y-111795671D01*
X77570480Y-111817850D01*
X77557868Y-111838893D01*
X77543253Y-111858599D01*
X77526777Y-111876777D01*
X77508599Y-111893253D01*
X77488893Y-111907868D01*
X77467850Y-111920480D01*
X77445671Y-111930970D01*
X77422572Y-111939235D01*
X77398773Y-111945196D01*
X77374505Y-111948796D01*
X77350001Y-111950000D01*
X76699999Y-111950000D01*
X76675495Y-111948796D01*
X76651227Y-111945196D01*
X76627428Y-111939235D01*
X76604329Y-111930970D01*
X76582150Y-111920480D01*
X76561107Y-111907868D01*
X76541401Y-111893253D01*
X76523223Y-111876777D01*
X76506747Y-111858599D01*
X76492132Y-111838893D01*
X76479520Y-111817850D01*
X76469030Y-111795671D01*
X76460765Y-111772572D01*
X76454804Y-111748773D01*
X76451204Y-111724505D01*
X76450000Y-111700001D01*
X76450000Y-110799999D01*
X76451204Y-110775495D01*
X76454804Y-110751227D01*
X76460765Y-110727428D01*
X76469030Y-110704329D01*
X76479520Y-110682150D01*
X76492132Y-110661107D01*
X76506747Y-110641401D01*
X76523223Y-110623223D01*
X76541401Y-110606747D01*
X76561107Y-110592132D01*
X76582150Y-110579520D01*
X76604329Y-110569030D01*
X76627428Y-110560765D01*
X76651227Y-110554804D01*
X76675495Y-110551204D01*
X76699999Y-110550000D01*
X77350001Y-110550000D01*
X77374505Y-110551204D01*
G37*
G36*
X130549703Y-129875722D02*
G01*
X130564264Y-129877882D01*
X130578543Y-129881459D01*
X130592403Y-129886418D01*
X130605710Y-129892712D01*
X130618336Y-129900280D01*
X130630159Y-129909048D01*
X130641066Y-129918934D01*
X130650952Y-129929841D01*
X130659720Y-129941664D01*
X130667288Y-129954290D01*
X130673582Y-129967597D01*
X130678541Y-129981457D01*
X130682118Y-129995736D01*
X130684278Y-130010297D01*
X130685000Y-130025000D01*
X130685000Y-131350000D01*
X130684278Y-131364703D01*
X130682118Y-131379264D01*
X130678541Y-131393543D01*
X130673582Y-131407403D01*
X130667288Y-131420710D01*
X130659720Y-131433336D01*
X130650952Y-131445159D01*
X130641066Y-131456066D01*
X130630159Y-131465952D01*
X130618336Y-131474720D01*
X130605710Y-131482288D01*
X130592403Y-131488582D01*
X130578543Y-131493541D01*
X130564264Y-131497118D01*
X130549703Y-131499278D01*
X130535000Y-131500000D01*
X130235000Y-131500000D01*
X130220297Y-131499278D01*
X130205736Y-131497118D01*
X130191457Y-131493541D01*
X130177597Y-131488582D01*
X130164290Y-131482288D01*
X130151664Y-131474720D01*
X130139841Y-131465952D01*
X130128934Y-131456066D01*
X130119048Y-131445159D01*
X130110280Y-131433336D01*
X130102712Y-131420710D01*
X130096418Y-131407403D01*
X130091459Y-131393543D01*
X130087882Y-131379264D01*
X130085722Y-131364703D01*
X130085000Y-131350000D01*
X130085000Y-130025000D01*
X130085722Y-130010297D01*
X130087882Y-129995736D01*
X130091459Y-129981457D01*
X130096418Y-129967597D01*
X130102712Y-129954290D01*
X130110280Y-129941664D01*
X130119048Y-129929841D01*
X130128934Y-129918934D01*
X130139841Y-129909048D01*
X130151664Y-129900280D01*
X130164290Y-129892712D01*
X130177597Y-129886418D01*
X130191457Y-129881459D01*
X130205736Y-129877882D01*
X130220297Y-129875722D01*
X130235000Y-129875000D01*
X130535000Y-129875000D01*
X130549703Y-129875722D01*
G37*
G36*
X129279703Y-129875722D02*
G01*
X129294264Y-129877882D01*
X129308543Y-129881459D01*
X129322403Y-129886418D01*
X129335710Y-129892712D01*
X129348336Y-129900280D01*
X129360159Y-129909048D01*
X129371066Y-129918934D01*
X129380952Y-129929841D01*
X129389720Y-129941664D01*
X129397288Y-129954290D01*
X129403582Y-129967597D01*
X129408541Y-129981457D01*
X129412118Y-129995736D01*
X129414278Y-130010297D01*
X129415000Y-130025000D01*
X129415000Y-131350000D01*
X129414278Y-131364703D01*
X129412118Y-131379264D01*
X129408541Y-131393543D01*
X129403582Y-131407403D01*
X129397288Y-131420710D01*
X129389720Y-131433336D01*
X129380952Y-131445159D01*
X129371066Y-131456066D01*
X129360159Y-131465952D01*
X129348336Y-131474720D01*
X129335710Y-131482288D01*
X129322403Y-131488582D01*
X129308543Y-131493541D01*
X129294264Y-131497118D01*
X129279703Y-131499278D01*
X129265000Y-131500000D01*
X128965000Y-131500000D01*
X128950297Y-131499278D01*
X128935736Y-131497118D01*
X128921457Y-131493541D01*
X128907597Y-131488582D01*
X128894290Y-131482288D01*
X128881664Y-131474720D01*
X128869841Y-131465952D01*
X128858934Y-131456066D01*
X128849048Y-131445159D01*
X128840280Y-131433336D01*
X128832712Y-131420710D01*
X128826418Y-131407403D01*
X128821459Y-131393543D01*
X128817882Y-131379264D01*
X128815722Y-131364703D01*
X128815000Y-131350000D01*
X128815000Y-130025000D01*
X128815722Y-130010297D01*
X128817882Y-129995736D01*
X128821459Y-129981457D01*
X128826418Y-129967597D01*
X128832712Y-129954290D01*
X128840280Y-129941664D01*
X128849048Y-129929841D01*
X128858934Y-129918934D01*
X128869841Y-129909048D01*
X128881664Y-129900280D01*
X128894290Y-129892712D01*
X128907597Y-129886418D01*
X128921457Y-129881459D01*
X128935736Y-129877882D01*
X128950297Y-129875722D01*
X128965000Y-129875000D01*
X129265000Y-129875000D01*
X129279703Y-129875722D01*
G37*
G36*
X129279703Y-123500722D02*
G01*
X129294264Y-123502882D01*
X129308543Y-123506459D01*
X129322403Y-123511418D01*
X129335710Y-123517712D01*
X129348336Y-123525280D01*
X129360159Y-123534048D01*
X129371066Y-123543934D01*
X129380952Y-123554841D01*
X129389720Y-123566664D01*
X129397288Y-123579290D01*
X129403582Y-123592597D01*
X129408541Y-123606457D01*
X129412118Y-123620736D01*
X129414278Y-123635297D01*
X129415000Y-123650000D01*
X129415000Y-124975000D01*
X129414278Y-124989703D01*
X129412118Y-125004264D01*
X129408541Y-125018543D01*
X129403582Y-125032403D01*
X129397288Y-125045710D01*
X129389720Y-125058336D01*
X129380952Y-125070159D01*
X129371066Y-125081066D01*
X129360159Y-125090952D01*
X129348336Y-125099720D01*
X129335710Y-125107288D01*
X129322403Y-125113582D01*
X129308543Y-125118541D01*
X129294264Y-125122118D01*
X129279703Y-125124278D01*
X129265000Y-125125000D01*
X128965000Y-125125000D01*
X128950297Y-125124278D01*
X128935736Y-125122118D01*
X128921457Y-125118541D01*
X128907597Y-125113582D01*
X128894290Y-125107288D01*
X128881664Y-125099720D01*
X128869841Y-125090952D01*
X128858934Y-125081066D01*
X128849048Y-125070159D01*
X128840280Y-125058336D01*
X128832712Y-125045710D01*
X128826418Y-125032403D01*
X128821459Y-125018543D01*
X128817882Y-125004264D01*
X128815722Y-124989703D01*
X128815000Y-124975000D01*
X128815000Y-123650000D01*
X128815722Y-123635297D01*
X128817882Y-123620736D01*
X128821459Y-123606457D01*
X128826418Y-123592597D01*
X128832712Y-123579290D01*
X128840280Y-123566664D01*
X128849048Y-123554841D01*
X128858934Y-123543934D01*
X128869841Y-123534048D01*
X128881664Y-123525280D01*
X128894290Y-123517712D01*
X128907597Y-123511418D01*
X128921457Y-123506459D01*
X128935736Y-123502882D01*
X128950297Y-123500722D01*
X128965000Y-123500000D01*
X129265000Y-123500000D01*
X129279703Y-123500722D01*
G37*
G36*
X130549703Y-123500722D02*
G01*
X130564264Y-123502882D01*
X130578543Y-123506459D01*
X130592403Y-123511418D01*
X130605710Y-123517712D01*
X130618336Y-123525280D01*
X130630159Y-123534048D01*
X130641066Y-123543934D01*
X130650952Y-123554841D01*
X130659720Y-123566664D01*
X130667288Y-123579290D01*
X130673582Y-123592597D01*
X130678541Y-123606457D01*
X130682118Y-123620736D01*
X130684278Y-123635297D01*
X130685000Y-123650000D01*
X130685000Y-124975000D01*
X130684278Y-124989703D01*
X130682118Y-125004264D01*
X130678541Y-125018543D01*
X130673582Y-125032403D01*
X130667288Y-125045710D01*
X130659720Y-125058336D01*
X130650952Y-125070159D01*
X130641066Y-125081066D01*
X130630159Y-125090952D01*
X130618336Y-125099720D01*
X130605710Y-125107288D01*
X130592403Y-125113582D01*
X130578543Y-125118541D01*
X130564264Y-125122118D01*
X130549703Y-125124278D01*
X130535000Y-125125000D01*
X130235000Y-125125000D01*
X130220297Y-125124278D01*
X130205736Y-125122118D01*
X130191457Y-125118541D01*
X130177597Y-125113582D01*
X130164290Y-125107288D01*
X130151664Y-125099720D01*
X130139841Y-125090952D01*
X130128934Y-125081066D01*
X130119048Y-125070159D01*
X130110280Y-125058336D01*
X130102712Y-125045710D01*
X130096418Y-125032403D01*
X130091459Y-125018543D01*
X130087882Y-125004264D01*
X130085722Y-124989703D01*
X130085000Y-124975000D01*
X130085000Y-123650000D01*
X130085722Y-123635297D01*
X130087882Y-123620736D01*
X130091459Y-123606457D01*
X130096418Y-123592597D01*
X130102712Y-123579290D01*
X130110280Y-123566664D01*
X130119048Y-123554841D01*
X130128934Y-123543934D01*
X130139841Y-123534048D01*
X130151664Y-123525280D01*
X130164290Y-123517712D01*
X130177597Y-123511418D01*
X130191457Y-123506459D01*
X130205736Y-123502882D01*
X130220297Y-123500722D01*
X130235000Y-123500000D01*
X130535000Y-123500000D01*
X130549703Y-123500722D01*
G37*
G36*
X93374505Y-112238704D02*
G01*
X93398773Y-112242304D01*
X93422572Y-112248265D01*
X93445671Y-112256530D01*
X93467850Y-112267020D01*
X93488893Y-112279632D01*
X93508599Y-112294247D01*
X93526777Y-112310723D01*
X93543253Y-112328901D01*
X93557868Y-112348607D01*
X93570480Y-112369650D01*
X93580970Y-112391829D01*
X93589235Y-112414928D01*
X93595196Y-112438727D01*
X93598796Y-112462995D01*
X93600000Y-112487499D01*
X93600000Y-113387501D01*
X93598796Y-113412005D01*
X93595196Y-113436273D01*
X93589235Y-113460072D01*
X93580970Y-113483171D01*
X93570480Y-113505350D01*
X93557868Y-113526393D01*
X93543253Y-113546099D01*
X93526777Y-113564277D01*
X93508599Y-113580753D01*
X93488893Y-113595368D01*
X93467850Y-113607980D01*
X93445671Y-113618470D01*
X93422572Y-113626735D01*
X93398773Y-113632696D01*
X93374505Y-113636296D01*
X93350001Y-113637500D01*
X92699999Y-113637500D01*
X92675495Y-113636296D01*
X92651227Y-113632696D01*
X92627428Y-113626735D01*
X92604329Y-113618470D01*
X92582150Y-113607980D01*
X92561107Y-113595368D01*
X92541401Y-113580753D01*
X92523223Y-113564277D01*
X92506747Y-113546099D01*
X92492132Y-113526393D01*
X92479520Y-113505350D01*
X92469030Y-113483171D01*
X92460765Y-113460072D01*
X92454804Y-113436273D01*
X92451204Y-113412005D01*
X92450000Y-113387501D01*
X92450000Y-112487499D01*
X92451204Y-112462995D01*
X92454804Y-112438727D01*
X92460765Y-112414928D01*
X92469030Y-112391829D01*
X92479520Y-112369650D01*
X92492132Y-112348607D01*
X92506747Y-112328901D01*
X92523223Y-112310723D01*
X92541401Y-112294247D01*
X92561107Y-112279632D01*
X92582150Y-112267020D01*
X92604329Y-112256530D01*
X92627428Y-112248265D01*
X92651227Y-112242304D01*
X92675495Y-112238704D01*
X92699999Y-112237500D01*
X93350001Y-112237500D01*
X93374505Y-112238704D01*
G37*
G36*
X91324505Y-112238704D02*
G01*
X91348773Y-112242304D01*
X91372572Y-112248265D01*
X91395671Y-112256530D01*
X91417850Y-112267020D01*
X91438893Y-112279632D01*
X91458599Y-112294247D01*
X91476777Y-112310723D01*
X91493253Y-112328901D01*
X91507868Y-112348607D01*
X91520480Y-112369650D01*
X91530970Y-112391829D01*
X91539235Y-112414928D01*
X91545196Y-112438727D01*
X91548796Y-112462995D01*
X91550000Y-112487499D01*
X91550000Y-113387501D01*
X91548796Y-113412005D01*
X91545196Y-113436273D01*
X91539235Y-113460072D01*
X91530970Y-113483171D01*
X91520480Y-113505350D01*
X91507868Y-113526393D01*
X91493253Y-113546099D01*
X91476777Y-113564277D01*
X91458599Y-113580753D01*
X91438893Y-113595368D01*
X91417850Y-113607980D01*
X91395671Y-113618470D01*
X91372572Y-113626735D01*
X91348773Y-113632696D01*
X91324505Y-113636296D01*
X91300001Y-113637500D01*
X90649999Y-113637500D01*
X90625495Y-113636296D01*
X90601227Y-113632696D01*
X90577428Y-113626735D01*
X90554329Y-113618470D01*
X90532150Y-113607980D01*
X90511107Y-113595368D01*
X90491401Y-113580753D01*
X90473223Y-113564277D01*
X90456747Y-113546099D01*
X90442132Y-113526393D01*
X90429520Y-113505350D01*
X90419030Y-113483171D01*
X90410765Y-113460072D01*
X90404804Y-113436273D01*
X90401204Y-113412005D01*
X90400000Y-113387501D01*
X90400000Y-112487499D01*
X90401204Y-112462995D01*
X90404804Y-112438727D01*
X90410765Y-112414928D01*
X90419030Y-112391829D01*
X90429520Y-112369650D01*
X90442132Y-112348607D01*
X90456747Y-112328901D01*
X90473223Y-112310723D01*
X90491401Y-112294247D01*
X90511107Y-112279632D01*
X90532150Y-112267020D01*
X90554329Y-112256530D01*
X90577428Y-112248265D01*
X90601227Y-112242304D01*
X90625495Y-112238704D01*
X90649999Y-112237500D01*
X91300001Y-112237500D01*
X91324505Y-112238704D01*
G37*
M02*
