G04 #@! TF.GenerationSoftware,KiCad,Pcbnew,(5.1.0)-1*
G04 #@! TF.CreationDate,2019-05-23T19:45:29+01:00*
G04 #@! TF.ProjectId,ESPControllerCircuit,45535043-6f6e-4747-926f-6c6c65724369,rev?*
G04 #@! TF.SameCoordinates,Original*
G04 #@! TF.FileFunction,Copper,L2,Bot*
G04 #@! TF.FilePolarity,Positive*
%FSLAX46Y46*%
G04 Gerber Fmt 4.6, Leading zero omitted, Abs format (unit mm)*
G04 Created by KiCad (PCBNEW (5.1.0)-1) date 2019-05-23 19:45:29*
%MOMM*%
%LPD*%
G04 APERTURE LIST*
%ADD10R,1.700000X1.700000*%
%ADD11O,1.700000X1.700000*%
%ADD12R,1.700000X1.200000*%
%ADD13O,1.700000X1.200000*%
%ADD14R,1.200000X1.700000*%
%ADD15O,1.200000X1.700000*%
%ADD16R,1.800000X1.800000*%
%ADD17C,1.800000*%
%ADD18C,0.800000*%
%ADD19C,0.500000*%
%ADD20C,0.250000*%
%ADD21C,0.254000*%
G04 APERTURE END LIST*
D10*
X82500000Y-130000000D03*
D11*
X85040000Y-130000000D03*
X87580000Y-130000000D03*
D12*
X150750000Y-113900000D03*
D13*
X150750000Y-111900000D03*
D12*
X150750000Y-121850000D03*
D13*
X150750000Y-119850000D03*
D14*
X132950000Y-125250000D03*
D15*
X134950000Y-125250000D03*
D14*
X125750000Y-125250000D03*
D15*
X127750000Y-125250000D03*
D10*
X108500000Y-128250000D03*
D11*
X111040000Y-128250000D03*
X113580000Y-128250000D03*
D16*
X77250000Y-117250000D03*
D17*
X74710000Y-117250000D03*
D10*
X124000000Y-118000000D03*
D11*
X121460000Y-118000000D03*
D10*
X125500000Y-104250000D03*
D11*
X128040000Y-104250000D03*
X130580000Y-104250000D03*
X133120000Y-104250000D03*
X135660000Y-104250000D03*
X138200000Y-104250000D03*
D14*
X144250000Y-125250000D03*
D15*
X146250000Y-125250000D03*
D14*
X118500000Y-125250000D03*
D15*
X120500000Y-125250000D03*
D10*
X113750000Y-118000000D03*
D11*
X116290000Y-118000000D03*
D17*
X103930000Y-104610000D03*
X81070000Y-104610000D03*
X103930000Y-107150000D03*
X81070000Y-107150000D03*
X103930000Y-109690000D03*
X81070000Y-109690000D03*
X103930000Y-112230000D03*
X81070000Y-112230000D03*
X103930000Y-114770000D03*
X81070000Y-114770000D03*
X103930000Y-117310000D03*
X81070000Y-117310000D03*
X103930000Y-119850000D03*
X81070000Y-119850000D03*
X103930000Y-122390000D03*
X81070000Y-122390000D03*
D18*
X121500000Y-108500000D03*
X135250000Y-110000000D03*
X136000000Y-117000000D03*
X84500000Y-124500000D03*
X121750000Y-122000000D03*
X120000000Y-112000000D03*
X88000000Y-121000000D03*
X136249990Y-111750000D03*
X136000000Y-121000000D03*
X96250000Y-117250000D03*
X135500000Y-107250000D03*
X89250002Y-118500000D03*
X90749984Y-121750000D03*
X135500000Y-113000000D03*
X109500000Y-112250000D03*
X137250000Y-114000000D03*
X111500000Y-109750004D03*
D19*
X138200000Y-105808004D02*
X138200000Y-105452081D01*
X106649999Y-119670001D02*
X106649999Y-113341997D01*
X134608005Y-109399999D02*
X138200000Y-105808004D01*
X138200000Y-105452081D02*
X138200000Y-104250000D01*
X113658001Y-109399999D02*
X134608005Y-109399999D01*
X106649999Y-113341997D02*
X111091999Y-108899995D01*
X103930000Y-122390000D02*
X106649999Y-119670001D01*
X111091999Y-108899995D02*
X113157997Y-108899995D01*
X113157997Y-108899995D02*
X113658001Y-109399999D01*
D20*
X121350000Y-125250000D02*
X124374999Y-122225001D01*
X135848001Y-122225001D02*
X136725001Y-121348001D01*
X124374999Y-122225001D02*
X135848001Y-122225001D01*
X136725001Y-121348001D02*
X136725001Y-115040686D01*
X136249990Y-112315685D02*
X136249990Y-111750000D01*
X136725001Y-115040686D02*
X136249990Y-114565675D01*
X136249990Y-114565675D02*
X136249990Y-112315685D01*
X120500000Y-125250000D02*
X121350000Y-125250000D01*
X96649999Y-117649999D02*
X96250000Y-117250000D01*
X136000000Y-121000000D02*
X109250000Y-121000000D01*
X103000000Y-124000000D02*
X96649999Y-117649999D01*
X106250000Y-124000000D02*
X103000000Y-124000000D01*
X109250000Y-121000000D02*
X106250000Y-124000000D01*
X89010000Y-125250000D02*
X81070000Y-117310000D01*
X118500000Y-125250000D02*
X89010000Y-125250000D01*
X89650001Y-118100001D02*
X89250002Y-118500000D01*
X98060002Y-109690000D02*
X89650001Y-118100001D01*
X103930000Y-109690000D02*
X98060002Y-109690000D01*
X135100001Y-107649999D02*
X135500000Y-107250000D01*
X105970001Y-107649999D02*
X135100001Y-107649999D01*
X103930000Y-109690000D02*
X105970001Y-107649999D01*
X90749984Y-121000016D02*
X90749984Y-121750000D01*
X103930000Y-112230000D02*
X99520000Y-112230000D01*
X99520000Y-112230000D02*
X90749984Y-121000016D01*
X135500000Y-113000000D02*
X110250000Y-113000000D01*
X110250000Y-113000000D02*
X109899999Y-112649999D01*
X109899999Y-112649999D02*
X109500000Y-112250000D01*
X137250000Y-114000000D02*
X137250000Y-111426998D01*
X137250000Y-111426998D02*
X136723005Y-110900003D01*
X111899999Y-110150003D02*
X111500000Y-109750004D01*
X136723005Y-110900003D02*
X112649999Y-110900003D01*
X112649999Y-110900003D02*
X111899999Y-110150003D01*
X80170001Y-108049999D02*
X81070000Y-107150000D01*
X79250000Y-124500000D02*
X79250000Y-108970000D01*
X108500000Y-129350000D02*
X108100000Y-129750000D01*
X108500000Y-128250000D02*
X108500000Y-129350000D01*
X79250000Y-108970000D02*
X80170001Y-108049999D01*
X101500000Y-129750000D02*
X97750000Y-126000000D01*
X97750000Y-126000000D02*
X80750000Y-126000000D01*
X108100000Y-129750000D02*
X101500000Y-129750000D01*
X80750000Y-126000000D02*
X79250000Y-124500000D01*
D21*
G36*
X155759659Y-102688625D02*
G01*
X156009429Y-102764035D01*
X156239792Y-102886522D01*
X156441980Y-103051422D01*
X156608286Y-103252450D01*
X156732378Y-103481954D01*
X156809531Y-103731195D01*
X156840000Y-104021089D01*
X156840001Y-129967711D01*
X156811375Y-130259660D01*
X156735965Y-130509429D01*
X156613477Y-130739794D01*
X156448579Y-130941979D01*
X156247546Y-131108288D01*
X156018046Y-131232378D01*
X155768805Y-131309531D01*
X155478911Y-131340000D01*
X88223248Y-131340000D01*
X88409014Y-131240706D01*
X88635134Y-131055134D01*
X88820706Y-130829014D01*
X88958599Y-130571034D01*
X89043513Y-130291111D01*
X89072185Y-130000000D01*
X89043513Y-129708889D01*
X88958599Y-129428966D01*
X88820706Y-129170986D01*
X88635134Y-128944866D01*
X88409014Y-128759294D01*
X88151034Y-128621401D01*
X87871111Y-128536487D01*
X87652950Y-128515000D01*
X87507050Y-128515000D01*
X87288889Y-128536487D01*
X87008966Y-128621401D01*
X86750986Y-128759294D01*
X86524866Y-128944866D01*
X86339294Y-129170986D01*
X86304799Y-129235523D01*
X86235178Y-129118645D01*
X86040269Y-128902412D01*
X85806920Y-128728359D01*
X85544099Y-128603175D01*
X85396890Y-128558524D01*
X85167000Y-128679845D01*
X85167000Y-129873000D01*
X85187000Y-129873000D01*
X85187000Y-130127000D01*
X85167000Y-130127000D01*
X85167000Y-130147000D01*
X84913000Y-130147000D01*
X84913000Y-130127000D01*
X84893000Y-130127000D01*
X84893000Y-129873000D01*
X84913000Y-129873000D01*
X84913000Y-128679845D01*
X84683110Y-128558524D01*
X84535901Y-128603175D01*
X84273080Y-128728359D01*
X84039731Y-128902412D01*
X83963966Y-128986466D01*
X83939502Y-128905820D01*
X83880537Y-128795506D01*
X83801185Y-128698815D01*
X83704494Y-128619463D01*
X83594180Y-128560498D01*
X83474482Y-128524188D01*
X83350000Y-128511928D01*
X81650000Y-128511928D01*
X81525518Y-128524188D01*
X81405820Y-128560498D01*
X81295506Y-128619463D01*
X81198815Y-128698815D01*
X81119463Y-128795506D01*
X81060498Y-128905820D01*
X81024188Y-129025518D01*
X81011928Y-129150000D01*
X81011928Y-130850000D01*
X81024188Y-130974482D01*
X81060498Y-131094180D01*
X81119463Y-131204494D01*
X81198815Y-131301185D01*
X81246111Y-131340000D01*
X74532279Y-131340000D01*
X74240340Y-131311375D01*
X73990571Y-131235965D01*
X73760206Y-131113477D01*
X73558021Y-130948579D01*
X73391712Y-130747546D01*
X73267622Y-130518046D01*
X73190469Y-130268805D01*
X73160000Y-129978911D01*
X73160000Y-128279872D01*
X73765000Y-128279872D01*
X73765000Y-128720128D01*
X73850890Y-129151925D01*
X74019369Y-129558669D01*
X74263962Y-129924729D01*
X74575271Y-130236038D01*
X74941331Y-130480631D01*
X75348075Y-130649110D01*
X75779872Y-130735000D01*
X76220128Y-130735000D01*
X76651925Y-130649110D01*
X77058669Y-130480631D01*
X77424729Y-130236038D01*
X77736038Y-129924729D01*
X77980631Y-129558669D01*
X78149110Y-129151925D01*
X78235000Y-128720128D01*
X78235000Y-128279872D01*
X78149110Y-127848075D01*
X77980631Y-127441331D01*
X77736038Y-127075271D01*
X77424729Y-126763962D01*
X77058669Y-126519369D01*
X76651925Y-126350890D01*
X76220128Y-126265000D01*
X75779872Y-126265000D01*
X75348075Y-126350890D01*
X74941331Y-126519369D01*
X74575271Y-126763962D01*
X74263962Y-127075271D01*
X74019369Y-127441331D01*
X73850890Y-127848075D01*
X73765000Y-128279872D01*
X73160000Y-128279872D01*
X73160000Y-117098816D01*
X73175000Y-117098816D01*
X73175000Y-117401184D01*
X73233989Y-117697743D01*
X73349701Y-117977095D01*
X73517688Y-118228505D01*
X73731495Y-118442312D01*
X73982905Y-118610299D01*
X74262257Y-118726011D01*
X74558816Y-118785000D01*
X74861184Y-118785000D01*
X75157743Y-118726011D01*
X75437095Y-118610299D01*
X75688505Y-118442312D01*
X75754944Y-118375873D01*
X75760498Y-118394180D01*
X75819463Y-118504494D01*
X75898815Y-118601185D01*
X75995506Y-118680537D01*
X76105820Y-118739502D01*
X76225518Y-118775812D01*
X76350000Y-118788072D01*
X76964250Y-118785000D01*
X77123000Y-118626250D01*
X77123000Y-117377000D01*
X77103000Y-117377000D01*
X77103000Y-117123000D01*
X77123000Y-117123000D01*
X77123000Y-115873750D01*
X77377000Y-115873750D01*
X77377000Y-117123000D01*
X77397000Y-117123000D01*
X77397000Y-117377000D01*
X77377000Y-117377000D01*
X77377000Y-118626250D01*
X77535750Y-118785000D01*
X78150000Y-118788072D01*
X78274482Y-118775812D01*
X78394180Y-118739502D01*
X78490000Y-118688284D01*
X78490000Y-124462678D01*
X78486324Y-124500000D01*
X78490000Y-124537322D01*
X78490000Y-124537332D01*
X78500997Y-124648985D01*
X78535788Y-124763676D01*
X78544454Y-124792246D01*
X78615026Y-124924276D01*
X78627385Y-124939335D01*
X78709999Y-125040001D01*
X78739003Y-125063804D01*
X80186200Y-126511002D01*
X80209999Y-126540001D01*
X80325724Y-126634974D01*
X80457753Y-126705546D01*
X80601014Y-126749003D01*
X80712667Y-126760000D01*
X80712676Y-126760000D01*
X80749999Y-126763676D01*
X80787322Y-126760000D01*
X97435199Y-126760000D01*
X100936201Y-130261003D01*
X100959999Y-130290001D01*
X101075724Y-130384974D01*
X101207753Y-130455546D01*
X101351014Y-130499003D01*
X101462667Y-130510000D01*
X101462677Y-130510000D01*
X101500000Y-130513676D01*
X101537323Y-130510000D01*
X108062678Y-130510000D01*
X108100000Y-130513676D01*
X108137322Y-130510000D01*
X108137333Y-130510000D01*
X108248986Y-130499003D01*
X108392247Y-130455546D01*
X108524276Y-130384974D01*
X108640001Y-130290001D01*
X108663803Y-130260998D01*
X109011002Y-129913800D01*
X109040001Y-129890001D01*
X109134974Y-129774276D01*
X109154326Y-129738072D01*
X109350000Y-129738072D01*
X109474482Y-129725812D01*
X109594180Y-129689502D01*
X109704494Y-129630537D01*
X109801185Y-129551185D01*
X109880537Y-129454494D01*
X109939502Y-129344180D01*
X109963966Y-129263534D01*
X110039731Y-129347588D01*
X110273080Y-129521641D01*
X110535901Y-129646825D01*
X110683110Y-129691476D01*
X110913000Y-129570155D01*
X110913000Y-128377000D01*
X110893000Y-128377000D01*
X110893000Y-128123000D01*
X110913000Y-128123000D01*
X110913000Y-126929845D01*
X111167000Y-126929845D01*
X111167000Y-128123000D01*
X111187000Y-128123000D01*
X111187000Y-128377000D01*
X111167000Y-128377000D01*
X111167000Y-129570155D01*
X111396890Y-129691476D01*
X111544099Y-129646825D01*
X111806920Y-129521641D01*
X112040269Y-129347588D01*
X112235178Y-129131355D01*
X112304799Y-129014477D01*
X112339294Y-129079014D01*
X112524866Y-129305134D01*
X112750986Y-129490706D01*
X113008966Y-129628599D01*
X113288889Y-129713513D01*
X113507050Y-129735000D01*
X113652950Y-129735000D01*
X113871111Y-129713513D01*
X114151034Y-129628599D01*
X114409014Y-129490706D01*
X114635134Y-129305134D01*
X114820706Y-129079014D01*
X114958599Y-128821034D01*
X115043513Y-128541111D01*
X115069242Y-128279872D01*
X151765000Y-128279872D01*
X151765000Y-128720128D01*
X151850890Y-129151925D01*
X152019369Y-129558669D01*
X152263962Y-129924729D01*
X152575271Y-130236038D01*
X152941331Y-130480631D01*
X153348075Y-130649110D01*
X153779872Y-130735000D01*
X154220128Y-130735000D01*
X154651925Y-130649110D01*
X155058669Y-130480631D01*
X155424729Y-130236038D01*
X155736038Y-129924729D01*
X155980631Y-129558669D01*
X156149110Y-129151925D01*
X156235000Y-128720128D01*
X156235000Y-128279872D01*
X156149110Y-127848075D01*
X155980631Y-127441331D01*
X155736038Y-127075271D01*
X155424729Y-126763962D01*
X155058669Y-126519369D01*
X154651925Y-126350890D01*
X154220128Y-126265000D01*
X153779872Y-126265000D01*
X153348075Y-126350890D01*
X152941331Y-126519369D01*
X152575271Y-126763962D01*
X152263962Y-127075271D01*
X152019369Y-127441331D01*
X151850890Y-127848075D01*
X151765000Y-128279872D01*
X115069242Y-128279872D01*
X115072185Y-128250000D01*
X115043513Y-127958889D01*
X114958599Y-127678966D01*
X114820706Y-127420986D01*
X114635134Y-127194866D01*
X114409014Y-127009294D01*
X114151034Y-126871401D01*
X113871111Y-126786487D01*
X113652950Y-126765000D01*
X113507050Y-126765000D01*
X113288889Y-126786487D01*
X113008966Y-126871401D01*
X112750986Y-127009294D01*
X112524866Y-127194866D01*
X112339294Y-127420986D01*
X112304799Y-127485523D01*
X112235178Y-127368645D01*
X112040269Y-127152412D01*
X111806920Y-126978359D01*
X111544099Y-126853175D01*
X111396890Y-126808524D01*
X111167000Y-126929845D01*
X110913000Y-126929845D01*
X110683110Y-126808524D01*
X110535901Y-126853175D01*
X110273080Y-126978359D01*
X110039731Y-127152412D01*
X109963966Y-127236466D01*
X109939502Y-127155820D01*
X109880537Y-127045506D01*
X109801185Y-126948815D01*
X109704494Y-126869463D01*
X109594180Y-126810498D01*
X109474482Y-126774188D01*
X109350000Y-126761928D01*
X107650000Y-126761928D01*
X107525518Y-126774188D01*
X107405820Y-126810498D01*
X107295506Y-126869463D01*
X107198815Y-126948815D01*
X107119463Y-127045506D01*
X107060498Y-127155820D01*
X107024188Y-127275518D01*
X107011928Y-127400000D01*
X107011928Y-128990000D01*
X101814802Y-128990000D01*
X98834801Y-126010000D01*
X117261928Y-126010000D01*
X117261928Y-126100000D01*
X117274188Y-126224482D01*
X117310498Y-126344180D01*
X117369463Y-126454494D01*
X117448815Y-126551185D01*
X117545506Y-126630537D01*
X117655820Y-126689502D01*
X117775518Y-126725812D01*
X117900000Y-126738072D01*
X119100000Y-126738072D01*
X119224482Y-126725812D01*
X119344180Y-126689502D01*
X119454494Y-126630537D01*
X119551185Y-126551185D01*
X119630537Y-126454494D01*
X119656692Y-126405563D01*
X119810552Y-126531833D01*
X120025100Y-126646511D01*
X120257899Y-126717130D01*
X120500000Y-126740975D01*
X120742102Y-126717130D01*
X120974901Y-126646511D01*
X121189449Y-126531833D01*
X121377502Y-126377502D01*
X121531833Y-126189449D01*
X121579644Y-126100000D01*
X124511928Y-126100000D01*
X124524188Y-126224482D01*
X124560498Y-126344180D01*
X124619463Y-126454494D01*
X124698815Y-126551185D01*
X124795506Y-126630537D01*
X124905820Y-126689502D01*
X125025518Y-126725812D01*
X125150000Y-126738072D01*
X125464250Y-126735000D01*
X125623000Y-126576250D01*
X125623000Y-125377000D01*
X124673750Y-125377000D01*
X124515000Y-125535750D01*
X124511928Y-126100000D01*
X121579644Y-126100000D01*
X121646511Y-125974900D01*
X121654343Y-125949080D01*
X121774276Y-125884974D01*
X121890001Y-125790001D01*
X121913804Y-125760997D01*
X123274801Y-124400000D01*
X124511928Y-124400000D01*
X124515000Y-124964250D01*
X124673750Y-125123000D01*
X125623000Y-125123000D01*
X125623000Y-123923750D01*
X125877000Y-123923750D01*
X125877000Y-125123000D01*
X125897000Y-125123000D01*
X125897000Y-125377000D01*
X125877000Y-125377000D01*
X125877000Y-126576250D01*
X126035750Y-126735000D01*
X126350000Y-126738072D01*
X126474482Y-126725812D01*
X126594180Y-126689502D01*
X126704494Y-126630537D01*
X126801185Y-126551185D01*
X126880537Y-126454494D01*
X126906692Y-126405563D01*
X127060552Y-126531833D01*
X127275100Y-126646511D01*
X127507899Y-126717130D01*
X127750000Y-126740975D01*
X127992102Y-126717130D01*
X128224901Y-126646511D01*
X128439449Y-126531833D01*
X128627502Y-126377502D01*
X128781833Y-126189449D01*
X128829644Y-126100000D01*
X131711928Y-126100000D01*
X131724188Y-126224482D01*
X131760498Y-126344180D01*
X131819463Y-126454494D01*
X131898815Y-126551185D01*
X131995506Y-126630537D01*
X132105820Y-126689502D01*
X132225518Y-126725812D01*
X132350000Y-126738072D01*
X132664250Y-126735000D01*
X132823000Y-126576250D01*
X132823000Y-125377000D01*
X131873750Y-125377000D01*
X131715000Y-125535750D01*
X131711928Y-126100000D01*
X128829644Y-126100000D01*
X128896511Y-125974900D01*
X128967130Y-125742101D01*
X128985000Y-125560664D01*
X128985000Y-124939335D01*
X128967130Y-124757898D01*
X128896511Y-124525099D01*
X128829645Y-124400000D01*
X131711928Y-124400000D01*
X131715000Y-124964250D01*
X131873750Y-125123000D01*
X132823000Y-125123000D01*
X132823000Y-123923750D01*
X133077000Y-123923750D01*
X133077000Y-125123000D01*
X133097000Y-125123000D01*
X133097000Y-125377000D01*
X133077000Y-125377000D01*
X133077000Y-126576250D01*
X133235750Y-126735000D01*
X133550000Y-126738072D01*
X133674482Y-126725812D01*
X133794180Y-126689502D01*
X133904494Y-126630537D01*
X134001185Y-126551185D01*
X134080537Y-126454494D01*
X134106692Y-126405563D01*
X134260552Y-126531833D01*
X134475100Y-126646511D01*
X134707899Y-126717130D01*
X134950000Y-126740975D01*
X135192102Y-126717130D01*
X135424901Y-126646511D01*
X135639449Y-126531833D01*
X135827502Y-126377502D01*
X135981833Y-126189449D01*
X136096511Y-125974900D01*
X136167130Y-125742101D01*
X136185000Y-125560664D01*
X136185000Y-124939335D01*
X136167130Y-124757898D01*
X136096511Y-124525099D01*
X135981833Y-124310551D01*
X135827502Y-124122498D01*
X135639448Y-123968167D01*
X135424900Y-123853489D01*
X135192101Y-123782870D01*
X134950000Y-123759025D01*
X134707898Y-123782870D01*
X134475099Y-123853489D01*
X134260551Y-123968167D01*
X134106691Y-124094436D01*
X134080537Y-124045506D01*
X134001185Y-123948815D01*
X133904494Y-123869463D01*
X133794180Y-123810498D01*
X133674482Y-123774188D01*
X133550000Y-123761928D01*
X133235750Y-123765000D01*
X133077000Y-123923750D01*
X132823000Y-123923750D01*
X132664250Y-123765000D01*
X132350000Y-123761928D01*
X132225518Y-123774188D01*
X132105820Y-123810498D01*
X131995506Y-123869463D01*
X131898815Y-123948815D01*
X131819463Y-124045506D01*
X131760498Y-124155820D01*
X131724188Y-124275518D01*
X131711928Y-124400000D01*
X128829645Y-124400000D01*
X128781833Y-124310551D01*
X128627502Y-124122498D01*
X128439448Y-123968167D01*
X128224900Y-123853489D01*
X127992101Y-123782870D01*
X127750000Y-123759025D01*
X127507898Y-123782870D01*
X127275099Y-123853489D01*
X127060551Y-123968167D01*
X126906691Y-124094436D01*
X126880537Y-124045506D01*
X126801185Y-123948815D01*
X126704494Y-123869463D01*
X126594180Y-123810498D01*
X126474482Y-123774188D01*
X126350000Y-123761928D01*
X126035750Y-123765000D01*
X125877000Y-123923750D01*
X125623000Y-123923750D01*
X125464250Y-123765000D01*
X125150000Y-123761928D01*
X125025518Y-123774188D01*
X124905820Y-123810498D01*
X124795506Y-123869463D01*
X124698815Y-123948815D01*
X124619463Y-124045506D01*
X124560498Y-124155820D01*
X124524188Y-124275518D01*
X124511928Y-124400000D01*
X123274801Y-124400000D01*
X124174801Y-123500000D01*
X142123000Y-123500000D01*
X142123000Y-127000000D01*
X142125440Y-127024776D01*
X142132667Y-127048601D01*
X142144403Y-127070557D01*
X142160197Y-127089803D01*
X142179443Y-127105597D01*
X142201399Y-127117333D01*
X142225224Y-127124560D01*
X142250000Y-127127000D01*
X148000000Y-127127000D01*
X148024776Y-127124560D01*
X148048601Y-127117333D01*
X148070557Y-127105597D01*
X148089803Y-127089803D01*
X148105597Y-127070557D01*
X148117333Y-127048601D01*
X148124560Y-127024776D01*
X148127000Y-127000000D01*
X148127000Y-123500000D01*
X148124560Y-123475224D01*
X148117333Y-123451399D01*
X148105597Y-123429443D01*
X148089803Y-123410197D01*
X148070557Y-123394403D01*
X148048601Y-123382667D01*
X148024776Y-123375440D01*
X148000000Y-123373000D01*
X142250000Y-123373000D01*
X142225224Y-123375440D01*
X142201399Y-123382667D01*
X142179443Y-123394403D01*
X142160197Y-123410197D01*
X142144403Y-123429443D01*
X142132667Y-123451399D01*
X142125440Y-123475224D01*
X142123000Y-123500000D01*
X124174801Y-123500000D01*
X124689801Y-122985001D01*
X135810679Y-122985001D01*
X135848001Y-122988677D01*
X135885323Y-122985001D01*
X135885334Y-122985001D01*
X135996987Y-122974004D01*
X136140248Y-122930547D01*
X136272277Y-122859975D01*
X136388002Y-122765002D01*
X136411804Y-122735999D01*
X136697803Y-122450000D01*
X149261928Y-122450000D01*
X149274188Y-122574482D01*
X149310498Y-122694180D01*
X149369463Y-122804494D01*
X149448815Y-122901185D01*
X149545506Y-122980537D01*
X149655820Y-123039502D01*
X149775518Y-123075812D01*
X149900000Y-123088072D01*
X150464250Y-123085000D01*
X150623000Y-122926250D01*
X150623000Y-121977000D01*
X150877000Y-121977000D01*
X150877000Y-122926250D01*
X151035750Y-123085000D01*
X151600000Y-123088072D01*
X151724482Y-123075812D01*
X151844180Y-123039502D01*
X151954494Y-122980537D01*
X152051185Y-122901185D01*
X152130537Y-122804494D01*
X152189502Y-122694180D01*
X152225812Y-122574482D01*
X152238072Y-122450000D01*
X152235000Y-122135750D01*
X152076250Y-121977000D01*
X150877000Y-121977000D01*
X150623000Y-121977000D01*
X149423750Y-121977000D01*
X149265000Y-122135750D01*
X149261928Y-122450000D01*
X136697803Y-122450000D01*
X137236005Y-121911799D01*
X137265002Y-121888002D01*
X137359975Y-121772277D01*
X137430547Y-121640248D01*
X137474004Y-121496987D01*
X137485001Y-121385334D01*
X137485001Y-121385325D01*
X137488677Y-121348002D01*
X137485001Y-121310679D01*
X137485001Y-119850000D01*
X149259025Y-119850000D01*
X149282870Y-120092102D01*
X149353489Y-120324901D01*
X149468167Y-120539449D01*
X149594436Y-120693309D01*
X149545506Y-120719463D01*
X149448815Y-120798815D01*
X149369463Y-120895506D01*
X149310498Y-121005820D01*
X149274188Y-121125518D01*
X149261928Y-121250000D01*
X149265000Y-121564250D01*
X149423750Y-121723000D01*
X150623000Y-121723000D01*
X150623000Y-121703000D01*
X150877000Y-121703000D01*
X150877000Y-121723000D01*
X152076250Y-121723000D01*
X152235000Y-121564250D01*
X152238072Y-121250000D01*
X152225812Y-121125518D01*
X152189502Y-121005820D01*
X152130537Y-120895506D01*
X152051185Y-120798815D01*
X151954494Y-120719463D01*
X151905564Y-120693309D01*
X152031833Y-120539449D01*
X152146511Y-120324901D01*
X152217130Y-120092102D01*
X152240975Y-119850000D01*
X152217130Y-119607898D01*
X152146511Y-119375099D01*
X152031833Y-119160551D01*
X151877502Y-118972498D01*
X151689449Y-118818167D01*
X151474901Y-118703489D01*
X151242102Y-118632870D01*
X151060665Y-118615000D01*
X150439335Y-118615000D01*
X150257898Y-118632870D01*
X150025099Y-118703489D01*
X149810551Y-118818167D01*
X149622498Y-118972498D01*
X149468167Y-119160551D01*
X149353489Y-119375099D01*
X149282870Y-119607898D01*
X149259025Y-119850000D01*
X137485001Y-119850000D01*
X137485001Y-115078008D01*
X137488677Y-115040686D01*
X137485500Y-115008433D01*
X137551898Y-114995226D01*
X137740256Y-114917205D01*
X137909774Y-114803937D01*
X138053937Y-114659774D01*
X138160694Y-114500000D01*
X149261928Y-114500000D01*
X149274188Y-114624482D01*
X149310498Y-114744180D01*
X149369463Y-114854494D01*
X149448815Y-114951185D01*
X149545506Y-115030537D01*
X149655820Y-115089502D01*
X149775518Y-115125812D01*
X149900000Y-115138072D01*
X150464250Y-115135000D01*
X150623000Y-114976250D01*
X150623000Y-114027000D01*
X150877000Y-114027000D01*
X150877000Y-114976250D01*
X151035750Y-115135000D01*
X151600000Y-115138072D01*
X151724482Y-115125812D01*
X151844180Y-115089502D01*
X151954494Y-115030537D01*
X152051185Y-114951185D01*
X152130537Y-114854494D01*
X152189502Y-114744180D01*
X152225812Y-114624482D01*
X152238072Y-114500000D01*
X152235000Y-114185750D01*
X152076250Y-114027000D01*
X150877000Y-114027000D01*
X150623000Y-114027000D01*
X149423750Y-114027000D01*
X149265000Y-114185750D01*
X149261928Y-114500000D01*
X138160694Y-114500000D01*
X138167205Y-114490256D01*
X138245226Y-114301898D01*
X138285000Y-114101939D01*
X138285000Y-113898061D01*
X138245226Y-113698102D01*
X138167205Y-113509744D01*
X138053937Y-113340226D01*
X138010000Y-113296289D01*
X138010000Y-111900000D01*
X149259025Y-111900000D01*
X149282870Y-112142102D01*
X149353489Y-112374901D01*
X149468167Y-112589449D01*
X149594436Y-112743309D01*
X149545506Y-112769463D01*
X149448815Y-112848815D01*
X149369463Y-112945506D01*
X149310498Y-113055820D01*
X149274188Y-113175518D01*
X149261928Y-113300000D01*
X149265000Y-113614250D01*
X149423750Y-113773000D01*
X150623000Y-113773000D01*
X150623000Y-113753000D01*
X150877000Y-113753000D01*
X150877000Y-113773000D01*
X152076250Y-113773000D01*
X152235000Y-113614250D01*
X152238072Y-113300000D01*
X152225812Y-113175518D01*
X152189502Y-113055820D01*
X152130537Y-112945506D01*
X152051185Y-112848815D01*
X151954494Y-112769463D01*
X151905564Y-112743309D01*
X152031833Y-112589449D01*
X152146511Y-112374901D01*
X152217130Y-112142102D01*
X152240975Y-111900000D01*
X152217130Y-111657898D01*
X152146511Y-111425099D01*
X152031833Y-111210551D01*
X151877502Y-111022498D01*
X151689449Y-110868167D01*
X151474901Y-110753489D01*
X151242102Y-110682870D01*
X151060665Y-110665000D01*
X150439335Y-110665000D01*
X150257898Y-110682870D01*
X150025099Y-110753489D01*
X149810551Y-110868167D01*
X149622498Y-111022498D01*
X149468167Y-111210551D01*
X149353489Y-111425099D01*
X149282870Y-111657898D01*
X149259025Y-111900000D01*
X138010000Y-111900000D01*
X138010000Y-111464320D01*
X138013676Y-111426997D01*
X138010000Y-111389674D01*
X138010000Y-111389665D01*
X137999003Y-111278012D01*
X137955546Y-111134751D01*
X137884974Y-111002722D01*
X137871516Y-110986323D01*
X137813799Y-110915994D01*
X137813795Y-110915990D01*
X137790001Y-110886997D01*
X137761007Y-110863203D01*
X137286808Y-110389005D01*
X137263006Y-110360002D01*
X137147281Y-110265029D01*
X137015252Y-110194457D01*
X136871991Y-110151000D01*
X136760338Y-110140003D01*
X136760327Y-110140003D01*
X136723005Y-110136327D01*
X136685683Y-110140003D01*
X135100955Y-110140003D01*
X135102064Y-110139410D01*
X135236822Y-110028816D01*
X135264539Y-109995043D01*
X138795050Y-106464533D01*
X138828817Y-106436821D01*
X138858218Y-106400997D01*
X138939410Y-106302064D01*
X138939411Y-106302063D01*
X139021589Y-106148317D01*
X139072195Y-105981494D01*
X139085000Y-105851481D01*
X139085000Y-105851471D01*
X139089281Y-105808005D01*
X139085000Y-105764538D01*
X139085000Y-105444759D01*
X139255134Y-105305134D01*
X139275866Y-105279872D01*
X151765000Y-105279872D01*
X151765000Y-105720128D01*
X151850890Y-106151925D01*
X152019369Y-106558669D01*
X152263962Y-106924729D01*
X152575271Y-107236038D01*
X152941331Y-107480631D01*
X153348075Y-107649110D01*
X153779872Y-107735000D01*
X154220128Y-107735000D01*
X154651925Y-107649110D01*
X155058669Y-107480631D01*
X155424729Y-107236038D01*
X155736038Y-106924729D01*
X155980631Y-106558669D01*
X156149110Y-106151925D01*
X156235000Y-105720128D01*
X156235000Y-105279872D01*
X156149110Y-104848075D01*
X155980631Y-104441331D01*
X155736038Y-104075271D01*
X155424729Y-103763962D01*
X155058669Y-103519369D01*
X154651925Y-103350890D01*
X154220128Y-103265000D01*
X153779872Y-103265000D01*
X153348075Y-103350890D01*
X152941331Y-103519369D01*
X152575271Y-103763962D01*
X152263962Y-104075271D01*
X152019369Y-104441331D01*
X151850890Y-104848075D01*
X151765000Y-105279872D01*
X139275866Y-105279872D01*
X139440706Y-105079014D01*
X139578599Y-104821034D01*
X139663513Y-104541111D01*
X139692185Y-104250000D01*
X139663513Y-103958889D01*
X139578599Y-103678966D01*
X139440706Y-103420986D01*
X139255134Y-103194866D01*
X139029014Y-103009294D01*
X138771034Y-102871401D01*
X138491111Y-102786487D01*
X138272950Y-102765000D01*
X138127050Y-102765000D01*
X137908889Y-102786487D01*
X137628966Y-102871401D01*
X137370986Y-103009294D01*
X137144866Y-103194866D01*
X136959294Y-103420986D01*
X136930000Y-103475791D01*
X136900706Y-103420986D01*
X136715134Y-103194866D01*
X136489014Y-103009294D01*
X136231034Y-102871401D01*
X135951111Y-102786487D01*
X135732950Y-102765000D01*
X135587050Y-102765000D01*
X135368889Y-102786487D01*
X135088966Y-102871401D01*
X134830986Y-103009294D01*
X134604866Y-103194866D01*
X134419294Y-103420986D01*
X134390000Y-103475791D01*
X134360706Y-103420986D01*
X134175134Y-103194866D01*
X133949014Y-103009294D01*
X133691034Y-102871401D01*
X133411111Y-102786487D01*
X133192950Y-102765000D01*
X133047050Y-102765000D01*
X132828889Y-102786487D01*
X132548966Y-102871401D01*
X132290986Y-103009294D01*
X132064866Y-103194866D01*
X131879294Y-103420986D01*
X131850000Y-103475791D01*
X131820706Y-103420986D01*
X131635134Y-103194866D01*
X131409014Y-103009294D01*
X131151034Y-102871401D01*
X130871111Y-102786487D01*
X130652950Y-102765000D01*
X130507050Y-102765000D01*
X130288889Y-102786487D01*
X130008966Y-102871401D01*
X129750986Y-103009294D01*
X129524866Y-103194866D01*
X129339294Y-103420986D01*
X129310000Y-103475791D01*
X129280706Y-103420986D01*
X129095134Y-103194866D01*
X128869014Y-103009294D01*
X128611034Y-102871401D01*
X128331111Y-102786487D01*
X128112950Y-102765000D01*
X127967050Y-102765000D01*
X127748889Y-102786487D01*
X127468966Y-102871401D01*
X127210986Y-103009294D01*
X126984866Y-103194866D01*
X126960393Y-103224687D01*
X126939502Y-103155820D01*
X126880537Y-103045506D01*
X126801185Y-102948815D01*
X126704494Y-102869463D01*
X126594180Y-102810498D01*
X126474482Y-102774188D01*
X126350000Y-102761928D01*
X125785750Y-102765000D01*
X125627000Y-102923750D01*
X125627000Y-104123000D01*
X125647000Y-104123000D01*
X125647000Y-104377000D01*
X125627000Y-104377000D01*
X125627000Y-105576250D01*
X125785750Y-105735000D01*
X126350000Y-105738072D01*
X126474482Y-105725812D01*
X126594180Y-105689502D01*
X126704494Y-105630537D01*
X126801185Y-105551185D01*
X126880537Y-105454494D01*
X126939502Y-105344180D01*
X126960393Y-105275313D01*
X126984866Y-105305134D01*
X127210986Y-105490706D01*
X127468966Y-105628599D01*
X127748889Y-105713513D01*
X127967050Y-105735000D01*
X128112950Y-105735000D01*
X128331111Y-105713513D01*
X128611034Y-105628599D01*
X128869014Y-105490706D01*
X129095134Y-105305134D01*
X129280706Y-105079014D01*
X129310000Y-105024209D01*
X129339294Y-105079014D01*
X129524866Y-105305134D01*
X129750986Y-105490706D01*
X130008966Y-105628599D01*
X130288889Y-105713513D01*
X130507050Y-105735000D01*
X130652950Y-105735000D01*
X130871111Y-105713513D01*
X131151034Y-105628599D01*
X131409014Y-105490706D01*
X131635134Y-105305134D01*
X131820706Y-105079014D01*
X131850000Y-105024209D01*
X131879294Y-105079014D01*
X132064866Y-105305134D01*
X132290986Y-105490706D01*
X132548966Y-105628599D01*
X132828889Y-105713513D01*
X133047050Y-105735000D01*
X133192950Y-105735000D01*
X133411111Y-105713513D01*
X133691034Y-105628599D01*
X133949014Y-105490706D01*
X134175134Y-105305134D01*
X134360706Y-105079014D01*
X134390000Y-105024209D01*
X134419294Y-105079014D01*
X134604866Y-105305134D01*
X134830986Y-105490706D01*
X135088966Y-105628599D01*
X135368889Y-105713513D01*
X135587050Y-105735000D01*
X135732950Y-105735000D01*
X135951111Y-105713513D01*
X136231034Y-105628599D01*
X136489014Y-105490706D01*
X136715134Y-105305134D01*
X136900706Y-105079014D01*
X136930000Y-105024209D01*
X136959294Y-105079014D01*
X137144866Y-105305134D01*
X137313169Y-105443256D01*
X136235068Y-106521357D01*
X136159774Y-106446063D01*
X135990256Y-106332795D01*
X135801898Y-106254774D01*
X135601939Y-106215000D01*
X135398061Y-106215000D01*
X135198102Y-106254774D01*
X135009744Y-106332795D01*
X134840226Y-106446063D01*
X134696063Y-106590226D01*
X134582795Y-106759744D01*
X134528841Y-106889999D01*
X117009244Y-106889999D01*
X117230631Y-106558669D01*
X117399110Y-106151925D01*
X117485000Y-105720128D01*
X117485000Y-105279872D01*
X117449222Y-105100000D01*
X124011928Y-105100000D01*
X124024188Y-105224482D01*
X124060498Y-105344180D01*
X124119463Y-105454494D01*
X124198815Y-105551185D01*
X124295506Y-105630537D01*
X124405820Y-105689502D01*
X124525518Y-105725812D01*
X124650000Y-105738072D01*
X125214250Y-105735000D01*
X125373000Y-105576250D01*
X125373000Y-104377000D01*
X124173750Y-104377000D01*
X124015000Y-104535750D01*
X124011928Y-105100000D01*
X117449222Y-105100000D01*
X117399110Y-104848075D01*
X117230631Y-104441331D01*
X116986038Y-104075271D01*
X116674729Y-103763962D01*
X116308669Y-103519369D01*
X116020487Y-103400000D01*
X124011928Y-103400000D01*
X124015000Y-103964250D01*
X124173750Y-104123000D01*
X125373000Y-104123000D01*
X125373000Y-102923750D01*
X125214250Y-102765000D01*
X124650000Y-102761928D01*
X124525518Y-102774188D01*
X124405820Y-102810498D01*
X124295506Y-102869463D01*
X124198815Y-102948815D01*
X124119463Y-103045506D01*
X124060498Y-103155820D01*
X124024188Y-103275518D01*
X124011928Y-103400000D01*
X116020487Y-103400000D01*
X115901925Y-103350890D01*
X115470128Y-103265000D01*
X115029872Y-103265000D01*
X114598075Y-103350890D01*
X114191331Y-103519369D01*
X113825271Y-103763962D01*
X113513962Y-104075271D01*
X113269369Y-104441331D01*
X113100890Y-104848075D01*
X113015000Y-105279872D01*
X113015000Y-105720128D01*
X113100890Y-106151925D01*
X113269369Y-106558669D01*
X113490756Y-106889999D01*
X106007323Y-106889999D01*
X105970000Y-106886323D01*
X105932677Y-106889999D01*
X105932668Y-106889999D01*
X105821015Y-106900996D01*
X105677754Y-106944453D01*
X105545724Y-107015025D01*
X105465000Y-107081274D01*
X105465000Y-106998816D01*
X105406011Y-106702257D01*
X105290299Y-106422905D01*
X105122312Y-106171495D01*
X104908505Y-105957688D01*
X104792237Y-105880000D01*
X104908505Y-105802312D01*
X105122312Y-105588505D01*
X105290299Y-105337095D01*
X105406011Y-105057743D01*
X105465000Y-104761184D01*
X105465000Y-104458816D01*
X105406011Y-104162257D01*
X105290299Y-103882905D01*
X105122312Y-103631495D01*
X104908505Y-103417688D01*
X104657095Y-103249701D01*
X104377743Y-103133989D01*
X104081184Y-103075000D01*
X103778816Y-103075000D01*
X103482257Y-103133989D01*
X103202905Y-103249701D01*
X102951495Y-103417688D01*
X102737688Y-103631495D01*
X102569701Y-103882905D01*
X102453989Y-104162257D01*
X102395000Y-104458816D01*
X102395000Y-104761184D01*
X102453989Y-105057743D01*
X102569701Y-105337095D01*
X102737688Y-105588505D01*
X102951495Y-105802312D01*
X103067763Y-105880000D01*
X102951495Y-105957688D01*
X102737688Y-106171495D01*
X102569701Y-106422905D01*
X102453989Y-106702257D01*
X102395000Y-106998816D01*
X102395000Y-107301184D01*
X102453989Y-107597743D01*
X102569701Y-107877095D01*
X102737688Y-108128505D01*
X102951495Y-108342312D01*
X103067763Y-108420000D01*
X102951495Y-108497688D01*
X102737688Y-108711495D01*
X102591687Y-108930000D01*
X98097324Y-108930000D01*
X98060001Y-108926324D01*
X98022678Y-108930000D01*
X98022669Y-108930000D01*
X97911016Y-108940997D01*
X97767755Y-108984454D01*
X97635726Y-109055026D01*
X97635724Y-109055027D01*
X97635725Y-109055027D01*
X97548998Y-109126201D01*
X97548994Y-109126205D01*
X97520001Y-109149999D01*
X97496207Y-109178992D01*
X89210201Y-117465000D01*
X89148063Y-117465000D01*
X88948104Y-117504774D01*
X88759746Y-117582795D01*
X88590228Y-117696063D01*
X88446065Y-117840226D01*
X88332797Y-118009744D01*
X88254776Y-118198102D01*
X88215002Y-118398061D01*
X88215002Y-118601939D01*
X88254776Y-118801898D01*
X88332797Y-118990256D01*
X88446065Y-119159774D01*
X88590228Y-119303937D01*
X88759746Y-119417205D01*
X88948104Y-119495226D01*
X89148063Y-119535000D01*
X89351941Y-119535000D01*
X89551900Y-119495226D01*
X89740258Y-119417205D01*
X89909776Y-119303937D01*
X90053939Y-119159774D01*
X90167207Y-118990256D01*
X90245228Y-118801898D01*
X90285002Y-118601939D01*
X90285002Y-118539801D01*
X98374805Y-110450000D01*
X102591687Y-110450000D01*
X102737688Y-110668505D01*
X102951495Y-110882312D01*
X103067763Y-110960000D01*
X102951495Y-111037688D01*
X102737688Y-111251495D01*
X102591687Y-111470000D01*
X99557333Y-111470000D01*
X99520000Y-111466323D01*
X99482667Y-111470000D01*
X99371014Y-111480997D01*
X99227753Y-111524454D01*
X99095724Y-111595026D01*
X98979999Y-111689999D01*
X98956201Y-111718997D01*
X90238987Y-120436212D01*
X90209983Y-120460015D01*
X90169172Y-120509744D01*
X90115010Y-120575740D01*
X90074894Y-120650792D01*
X90044438Y-120707770D01*
X90000981Y-120851031D01*
X89989984Y-120962684D01*
X89989984Y-120962694D01*
X89986308Y-121000016D01*
X89989984Y-121037338D01*
X89989984Y-121046289D01*
X89946047Y-121090226D01*
X89832779Y-121259744D01*
X89754758Y-121448102D01*
X89714984Y-121648061D01*
X89714984Y-121851939D01*
X89754758Y-122051898D01*
X89832779Y-122240256D01*
X89946047Y-122409774D01*
X90090210Y-122553937D01*
X90259728Y-122667205D01*
X90448086Y-122745226D01*
X90648045Y-122785000D01*
X90851923Y-122785000D01*
X91051882Y-122745226D01*
X91240240Y-122667205D01*
X91409758Y-122553937D01*
X91553921Y-122409774D01*
X91667189Y-122240256D01*
X91745210Y-122051898D01*
X91784984Y-121851939D01*
X91784984Y-121648061D01*
X91745210Y-121448102D01*
X91667189Y-121259744D01*
X91626281Y-121198520D01*
X95260084Y-117564717D01*
X95332795Y-117740256D01*
X95446063Y-117909774D01*
X95590226Y-118053937D01*
X95759744Y-118167205D01*
X95948102Y-118245226D01*
X96148061Y-118285000D01*
X96210199Y-118285000D01*
X102415198Y-124490000D01*
X89324802Y-124490000D01*
X82553731Y-117718930D01*
X82605000Y-117461184D01*
X82605000Y-117158816D01*
X82546011Y-116862257D01*
X82430299Y-116582905D01*
X82262312Y-116331495D01*
X82048505Y-116117688D01*
X81932237Y-116040000D01*
X82048505Y-115962312D01*
X82262312Y-115748505D01*
X82430299Y-115497095D01*
X82546011Y-115217743D01*
X82605000Y-114921184D01*
X82605000Y-114618816D01*
X82546011Y-114322257D01*
X82430299Y-114042905D01*
X82262312Y-113791495D01*
X82048505Y-113577688D01*
X81932237Y-113500000D01*
X82048505Y-113422312D01*
X82262312Y-113208505D01*
X82430299Y-112957095D01*
X82546011Y-112677743D01*
X82605000Y-112381184D01*
X82605000Y-112078816D01*
X82546011Y-111782257D01*
X82430299Y-111502905D01*
X82262312Y-111251495D01*
X82048505Y-111037688D01*
X81932237Y-110960000D01*
X82048505Y-110882312D01*
X82262312Y-110668505D01*
X82430299Y-110417095D01*
X82546011Y-110137743D01*
X82605000Y-109841184D01*
X82605000Y-109538816D01*
X82546011Y-109242257D01*
X82430299Y-108962905D01*
X82262312Y-108711495D01*
X82048505Y-108497688D01*
X81932237Y-108420000D01*
X82048505Y-108342312D01*
X82262312Y-108128505D01*
X82430299Y-107877095D01*
X82546011Y-107597743D01*
X82605000Y-107301184D01*
X82605000Y-106998816D01*
X82546011Y-106702257D01*
X82430299Y-106422905D01*
X82262312Y-106171495D01*
X82048505Y-105957688D01*
X81932237Y-105880000D01*
X82048505Y-105802312D01*
X82262312Y-105588505D01*
X82430299Y-105337095D01*
X82546011Y-105057743D01*
X82605000Y-104761184D01*
X82605000Y-104458816D01*
X82546011Y-104162257D01*
X82430299Y-103882905D01*
X82262312Y-103631495D01*
X82048505Y-103417688D01*
X81797095Y-103249701D01*
X81517743Y-103133989D01*
X81221184Y-103075000D01*
X80918816Y-103075000D01*
X80622257Y-103133989D01*
X80342905Y-103249701D01*
X80091495Y-103417688D01*
X79877688Y-103631495D01*
X79709701Y-103882905D01*
X79593989Y-104162257D01*
X79535000Y-104458816D01*
X79535000Y-104761184D01*
X79593989Y-105057743D01*
X79709701Y-105337095D01*
X79877688Y-105588505D01*
X80091495Y-105802312D01*
X80207763Y-105880000D01*
X80091495Y-105957688D01*
X79877688Y-106171495D01*
X79709701Y-106422905D01*
X79593989Y-106702257D01*
X79535000Y-106998816D01*
X79535000Y-107301184D01*
X79586269Y-107558930D01*
X78738998Y-108406201D01*
X78710000Y-108429999D01*
X78686202Y-108458997D01*
X78686201Y-108458998D01*
X78615026Y-108545724D01*
X78544454Y-108677754D01*
X78533155Y-108715004D01*
X78507676Y-108799001D01*
X78500998Y-108821015D01*
X78486324Y-108970000D01*
X78490001Y-109007333D01*
X78490001Y-115811716D01*
X78394180Y-115760498D01*
X78274482Y-115724188D01*
X78150000Y-115711928D01*
X77535750Y-115715000D01*
X77377000Y-115873750D01*
X77123000Y-115873750D01*
X76964250Y-115715000D01*
X76350000Y-115711928D01*
X76225518Y-115724188D01*
X76105820Y-115760498D01*
X75995506Y-115819463D01*
X75898815Y-115898815D01*
X75819463Y-115995506D01*
X75760498Y-116105820D01*
X75754944Y-116124127D01*
X75688505Y-116057688D01*
X75437095Y-115889701D01*
X75157743Y-115773989D01*
X74861184Y-115715000D01*
X74558816Y-115715000D01*
X74262257Y-115773989D01*
X73982905Y-115889701D01*
X73731495Y-116057688D01*
X73517688Y-116271495D01*
X73349701Y-116522905D01*
X73233989Y-116802257D01*
X73175000Y-117098816D01*
X73160000Y-117098816D01*
X73160000Y-105279872D01*
X73765000Y-105279872D01*
X73765000Y-105720128D01*
X73850890Y-106151925D01*
X74019369Y-106558669D01*
X74263962Y-106924729D01*
X74575271Y-107236038D01*
X74941331Y-107480631D01*
X75348075Y-107649110D01*
X75779872Y-107735000D01*
X76220128Y-107735000D01*
X76651925Y-107649110D01*
X77058669Y-107480631D01*
X77424729Y-107236038D01*
X77736038Y-106924729D01*
X77980631Y-106558669D01*
X78149110Y-106151925D01*
X78235000Y-105720128D01*
X78235000Y-105279872D01*
X78149110Y-104848075D01*
X77980631Y-104441331D01*
X77736038Y-104075271D01*
X77424729Y-103763962D01*
X77058669Y-103519369D01*
X76651925Y-103350890D01*
X76220128Y-103265000D01*
X75779872Y-103265000D01*
X75348075Y-103350890D01*
X74941331Y-103519369D01*
X74575271Y-103763962D01*
X74263962Y-104075271D01*
X74019369Y-104441331D01*
X73850890Y-104848075D01*
X73765000Y-105279872D01*
X73160000Y-105279872D01*
X73160000Y-104032279D01*
X73188625Y-103740341D01*
X73264035Y-103490571D01*
X73386522Y-103260208D01*
X73551422Y-103058020D01*
X73752450Y-102891714D01*
X73981954Y-102767622D01*
X74231195Y-102690469D01*
X74521088Y-102660000D01*
X155467721Y-102660000D01*
X155759659Y-102688625D01*
X155759659Y-102688625D01*
G37*
X155759659Y-102688625D02*
X156009429Y-102764035D01*
X156239792Y-102886522D01*
X156441980Y-103051422D01*
X156608286Y-103252450D01*
X156732378Y-103481954D01*
X156809531Y-103731195D01*
X156840000Y-104021089D01*
X156840001Y-129967711D01*
X156811375Y-130259660D01*
X156735965Y-130509429D01*
X156613477Y-130739794D01*
X156448579Y-130941979D01*
X156247546Y-131108288D01*
X156018046Y-131232378D01*
X155768805Y-131309531D01*
X155478911Y-131340000D01*
X88223248Y-131340000D01*
X88409014Y-131240706D01*
X88635134Y-131055134D01*
X88820706Y-130829014D01*
X88958599Y-130571034D01*
X89043513Y-130291111D01*
X89072185Y-130000000D01*
X89043513Y-129708889D01*
X88958599Y-129428966D01*
X88820706Y-129170986D01*
X88635134Y-128944866D01*
X88409014Y-128759294D01*
X88151034Y-128621401D01*
X87871111Y-128536487D01*
X87652950Y-128515000D01*
X87507050Y-128515000D01*
X87288889Y-128536487D01*
X87008966Y-128621401D01*
X86750986Y-128759294D01*
X86524866Y-128944866D01*
X86339294Y-129170986D01*
X86304799Y-129235523D01*
X86235178Y-129118645D01*
X86040269Y-128902412D01*
X85806920Y-128728359D01*
X85544099Y-128603175D01*
X85396890Y-128558524D01*
X85167000Y-128679845D01*
X85167000Y-129873000D01*
X85187000Y-129873000D01*
X85187000Y-130127000D01*
X85167000Y-130127000D01*
X85167000Y-130147000D01*
X84913000Y-130147000D01*
X84913000Y-130127000D01*
X84893000Y-130127000D01*
X84893000Y-129873000D01*
X84913000Y-129873000D01*
X84913000Y-128679845D01*
X84683110Y-128558524D01*
X84535901Y-128603175D01*
X84273080Y-128728359D01*
X84039731Y-128902412D01*
X83963966Y-128986466D01*
X83939502Y-128905820D01*
X83880537Y-128795506D01*
X83801185Y-128698815D01*
X83704494Y-128619463D01*
X83594180Y-128560498D01*
X83474482Y-128524188D01*
X83350000Y-128511928D01*
X81650000Y-128511928D01*
X81525518Y-128524188D01*
X81405820Y-128560498D01*
X81295506Y-128619463D01*
X81198815Y-128698815D01*
X81119463Y-128795506D01*
X81060498Y-128905820D01*
X81024188Y-129025518D01*
X81011928Y-129150000D01*
X81011928Y-130850000D01*
X81024188Y-130974482D01*
X81060498Y-131094180D01*
X81119463Y-131204494D01*
X81198815Y-131301185D01*
X81246111Y-131340000D01*
X74532279Y-131340000D01*
X74240340Y-131311375D01*
X73990571Y-131235965D01*
X73760206Y-131113477D01*
X73558021Y-130948579D01*
X73391712Y-130747546D01*
X73267622Y-130518046D01*
X73190469Y-130268805D01*
X73160000Y-129978911D01*
X73160000Y-128279872D01*
X73765000Y-128279872D01*
X73765000Y-128720128D01*
X73850890Y-129151925D01*
X74019369Y-129558669D01*
X74263962Y-129924729D01*
X74575271Y-130236038D01*
X74941331Y-130480631D01*
X75348075Y-130649110D01*
X75779872Y-130735000D01*
X76220128Y-130735000D01*
X76651925Y-130649110D01*
X77058669Y-130480631D01*
X77424729Y-130236038D01*
X77736038Y-129924729D01*
X77980631Y-129558669D01*
X78149110Y-129151925D01*
X78235000Y-128720128D01*
X78235000Y-128279872D01*
X78149110Y-127848075D01*
X77980631Y-127441331D01*
X77736038Y-127075271D01*
X77424729Y-126763962D01*
X77058669Y-126519369D01*
X76651925Y-126350890D01*
X76220128Y-126265000D01*
X75779872Y-126265000D01*
X75348075Y-126350890D01*
X74941331Y-126519369D01*
X74575271Y-126763962D01*
X74263962Y-127075271D01*
X74019369Y-127441331D01*
X73850890Y-127848075D01*
X73765000Y-128279872D01*
X73160000Y-128279872D01*
X73160000Y-117098816D01*
X73175000Y-117098816D01*
X73175000Y-117401184D01*
X73233989Y-117697743D01*
X73349701Y-117977095D01*
X73517688Y-118228505D01*
X73731495Y-118442312D01*
X73982905Y-118610299D01*
X74262257Y-118726011D01*
X74558816Y-118785000D01*
X74861184Y-118785000D01*
X75157743Y-118726011D01*
X75437095Y-118610299D01*
X75688505Y-118442312D01*
X75754944Y-118375873D01*
X75760498Y-118394180D01*
X75819463Y-118504494D01*
X75898815Y-118601185D01*
X75995506Y-118680537D01*
X76105820Y-118739502D01*
X76225518Y-118775812D01*
X76350000Y-118788072D01*
X76964250Y-118785000D01*
X77123000Y-118626250D01*
X77123000Y-117377000D01*
X77103000Y-117377000D01*
X77103000Y-117123000D01*
X77123000Y-117123000D01*
X77123000Y-115873750D01*
X77377000Y-115873750D01*
X77377000Y-117123000D01*
X77397000Y-117123000D01*
X77397000Y-117377000D01*
X77377000Y-117377000D01*
X77377000Y-118626250D01*
X77535750Y-118785000D01*
X78150000Y-118788072D01*
X78274482Y-118775812D01*
X78394180Y-118739502D01*
X78490000Y-118688284D01*
X78490000Y-124462678D01*
X78486324Y-124500000D01*
X78490000Y-124537322D01*
X78490000Y-124537332D01*
X78500997Y-124648985D01*
X78535788Y-124763676D01*
X78544454Y-124792246D01*
X78615026Y-124924276D01*
X78627385Y-124939335D01*
X78709999Y-125040001D01*
X78739003Y-125063804D01*
X80186200Y-126511002D01*
X80209999Y-126540001D01*
X80325724Y-126634974D01*
X80457753Y-126705546D01*
X80601014Y-126749003D01*
X80712667Y-126760000D01*
X80712676Y-126760000D01*
X80749999Y-126763676D01*
X80787322Y-126760000D01*
X97435199Y-126760000D01*
X100936201Y-130261003D01*
X100959999Y-130290001D01*
X101075724Y-130384974D01*
X101207753Y-130455546D01*
X101351014Y-130499003D01*
X101462667Y-130510000D01*
X101462677Y-130510000D01*
X101500000Y-130513676D01*
X101537323Y-130510000D01*
X108062678Y-130510000D01*
X108100000Y-130513676D01*
X108137322Y-130510000D01*
X108137333Y-130510000D01*
X108248986Y-130499003D01*
X108392247Y-130455546D01*
X108524276Y-130384974D01*
X108640001Y-130290001D01*
X108663803Y-130260998D01*
X109011002Y-129913800D01*
X109040001Y-129890001D01*
X109134974Y-129774276D01*
X109154326Y-129738072D01*
X109350000Y-129738072D01*
X109474482Y-129725812D01*
X109594180Y-129689502D01*
X109704494Y-129630537D01*
X109801185Y-129551185D01*
X109880537Y-129454494D01*
X109939502Y-129344180D01*
X109963966Y-129263534D01*
X110039731Y-129347588D01*
X110273080Y-129521641D01*
X110535901Y-129646825D01*
X110683110Y-129691476D01*
X110913000Y-129570155D01*
X110913000Y-128377000D01*
X110893000Y-128377000D01*
X110893000Y-128123000D01*
X110913000Y-128123000D01*
X110913000Y-126929845D01*
X111167000Y-126929845D01*
X111167000Y-128123000D01*
X111187000Y-128123000D01*
X111187000Y-128377000D01*
X111167000Y-128377000D01*
X111167000Y-129570155D01*
X111396890Y-129691476D01*
X111544099Y-129646825D01*
X111806920Y-129521641D01*
X112040269Y-129347588D01*
X112235178Y-129131355D01*
X112304799Y-129014477D01*
X112339294Y-129079014D01*
X112524866Y-129305134D01*
X112750986Y-129490706D01*
X113008966Y-129628599D01*
X113288889Y-129713513D01*
X113507050Y-129735000D01*
X113652950Y-129735000D01*
X113871111Y-129713513D01*
X114151034Y-129628599D01*
X114409014Y-129490706D01*
X114635134Y-129305134D01*
X114820706Y-129079014D01*
X114958599Y-128821034D01*
X115043513Y-128541111D01*
X115069242Y-128279872D01*
X151765000Y-128279872D01*
X151765000Y-128720128D01*
X151850890Y-129151925D01*
X152019369Y-129558669D01*
X152263962Y-129924729D01*
X152575271Y-130236038D01*
X152941331Y-130480631D01*
X153348075Y-130649110D01*
X153779872Y-130735000D01*
X154220128Y-130735000D01*
X154651925Y-130649110D01*
X155058669Y-130480631D01*
X155424729Y-130236038D01*
X155736038Y-129924729D01*
X155980631Y-129558669D01*
X156149110Y-129151925D01*
X156235000Y-128720128D01*
X156235000Y-128279872D01*
X156149110Y-127848075D01*
X155980631Y-127441331D01*
X155736038Y-127075271D01*
X155424729Y-126763962D01*
X155058669Y-126519369D01*
X154651925Y-126350890D01*
X154220128Y-126265000D01*
X153779872Y-126265000D01*
X153348075Y-126350890D01*
X152941331Y-126519369D01*
X152575271Y-126763962D01*
X152263962Y-127075271D01*
X152019369Y-127441331D01*
X151850890Y-127848075D01*
X151765000Y-128279872D01*
X115069242Y-128279872D01*
X115072185Y-128250000D01*
X115043513Y-127958889D01*
X114958599Y-127678966D01*
X114820706Y-127420986D01*
X114635134Y-127194866D01*
X114409014Y-127009294D01*
X114151034Y-126871401D01*
X113871111Y-126786487D01*
X113652950Y-126765000D01*
X113507050Y-126765000D01*
X113288889Y-126786487D01*
X113008966Y-126871401D01*
X112750986Y-127009294D01*
X112524866Y-127194866D01*
X112339294Y-127420986D01*
X112304799Y-127485523D01*
X112235178Y-127368645D01*
X112040269Y-127152412D01*
X111806920Y-126978359D01*
X111544099Y-126853175D01*
X111396890Y-126808524D01*
X111167000Y-126929845D01*
X110913000Y-126929845D01*
X110683110Y-126808524D01*
X110535901Y-126853175D01*
X110273080Y-126978359D01*
X110039731Y-127152412D01*
X109963966Y-127236466D01*
X109939502Y-127155820D01*
X109880537Y-127045506D01*
X109801185Y-126948815D01*
X109704494Y-126869463D01*
X109594180Y-126810498D01*
X109474482Y-126774188D01*
X109350000Y-126761928D01*
X107650000Y-126761928D01*
X107525518Y-126774188D01*
X107405820Y-126810498D01*
X107295506Y-126869463D01*
X107198815Y-126948815D01*
X107119463Y-127045506D01*
X107060498Y-127155820D01*
X107024188Y-127275518D01*
X107011928Y-127400000D01*
X107011928Y-128990000D01*
X101814802Y-128990000D01*
X98834801Y-126010000D01*
X117261928Y-126010000D01*
X117261928Y-126100000D01*
X117274188Y-126224482D01*
X117310498Y-126344180D01*
X117369463Y-126454494D01*
X117448815Y-126551185D01*
X117545506Y-126630537D01*
X117655820Y-126689502D01*
X117775518Y-126725812D01*
X117900000Y-126738072D01*
X119100000Y-126738072D01*
X119224482Y-126725812D01*
X119344180Y-126689502D01*
X119454494Y-126630537D01*
X119551185Y-126551185D01*
X119630537Y-126454494D01*
X119656692Y-126405563D01*
X119810552Y-126531833D01*
X120025100Y-126646511D01*
X120257899Y-126717130D01*
X120500000Y-126740975D01*
X120742102Y-126717130D01*
X120974901Y-126646511D01*
X121189449Y-126531833D01*
X121377502Y-126377502D01*
X121531833Y-126189449D01*
X121579644Y-126100000D01*
X124511928Y-126100000D01*
X124524188Y-126224482D01*
X124560498Y-126344180D01*
X124619463Y-126454494D01*
X124698815Y-126551185D01*
X124795506Y-126630537D01*
X124905820Y-126689502D01*
X125025518Y-126725812D01*
X125150000Y-126738072D01*
X125464250Y-126735000D01*
X125623000Y-126576250D01*
X125623000Y-125377000D01*
X124673750Y-125377000D01*
X124515000Y-125535750D01*
X124511928Y-126100000D01*
X121579644Y-126100000D01*
X121646511Y-125974900D01*
X121654343Y-125949080D01*
X121774276Y-125884974D01*
X121890001Y-125790001D01*
X121913804Y-125760997D01*
X123274801Y-124400000D01*
X124511928Y-124400000D01*
X124515000Y-124964250D01*
X124673750Y-125123000D01*
X125623000Y-125123000D01*
X125623000Y-123923750D01*
X125877000Y-123923750D01*
X125877000Y-125123000D01*
X125897000Y-125123000D01*
X125897000Y-125377000D01*
X125877000Y-125377000D01*
X125877000Y-126576250D01*
X126035750Y-126735000D01*
X126350000Y-126738072D01*
X126474482Y-126725812D01*
X126594180Y-126689502D01*
X126704494Y-126630537D01*
X126801185Y-126551185D01*
X126880537Y-126454494D01*
X126906692Y-126405563D01*
X127060552Y-126531833D01*
X127275100Y-126646511D01*
X127507899Y-126717130D01*
X127750000Y-126740975D01*
X127992102Y-126717130D01*
X128224901Y-126646511D01*
X128439449Y-126531833D01*
X128627502Y-126377502D01*
X128781833Y-126189449D01*
X128829644Y-126100000D01*
X131711928Y-126100000D01*
X131724188Y-126224482D01*
X131760498Y-126344180D01*
X131819463Y-126454494D01*
X131898815Y-126551185D01*
X131995506Y-126630537D01*
X132105820Y-126689502D01*
X132225518Y-126725812D01*
X132350000Y-126738072D01*
X132664250Y-126735000D01*
X132823000Y-126576250D01*
X132823000Y-125377000D01*
X131873750Y-125377000D01*
X131715000Y-125535750D01*
X131711928Y-126100000D01*
X128829644Y-126100000D01*
X128896511Y-125974900D01*
X128967130Y-125742101D01*
X128985000Y-125560664D01*
X128985000Y-124939335D01*
X128967130Y-124757898D01*
X128896511Y-124525099D01*
X128829645Y-124400000D01*
X131711928Y-124400000D01*
X131715000Y-124964250D01*
X131873750Y-125123000D01*
X132823000Y-125123000D01*
X132823000Y-123923750D01*
X133077000Y-123923750D01*
X133077000Y-125123000D01*
X133097000Y-125123000D01*
X133097000Y-125377000D01*
X133077000Y-125377000D01*
X133077000Y-126576250D01*
X133235750Y-126735000D01*
X133550000Y-126738072D01*
X133674482Y-126725812D01*
X133794180Y-126689502D01*
X133904494Y-126630537D01*
X134001185Y-126551185D01*
X134080537Y-126454494D01*
X134106692Y-126405563D01*
X134260552Y-126531833D01*
X134475100Y-126646511D01*
X134707899Y-126717130D01*
X134950000Y-126740975D01*
X135192102Y-126717130D01*
X135424901Y-126646511D01*
X135639449Y-126531833D01*
X135827502Y-126377502D01*
X135981833Y-126189449D01*
X136096511Y-125974900D01*
X136167130Y-125742101D01*
X136185000Y-125560664D01*
X136185000Y-124939335D01*
X136167130Y-124757898D01*
X136096511Y-124525099D01*
X135981833Y-124310551D01*
X135827502Y-124122498D01*
X135639448Y-123968167D01*
X135424900Y-123853489D01*
X135192101Y-123782870D01*
X134950000Y-123759025D01*
X134707898Y-123782870D01*
X134475099Y-123853489D01*
X134260551Y-123968167D01*
X134106691Y-124094436D01*
X134080537Y-124045506D01*
X134001185Y-123948815D01*
X133904494Y-123869463D01*
X133794180Y-123810498D01*
X133674482Y-123774188D01*
X133550000Y-123761928D01*
X133235750Y-123765000D01*
X133077000Y-123923750D01*
X132823000Y-123923750D01*
X132664250Y-123765000D01*
X132350000Y-123761928D01*
X132225518Y-123774188D01*
X132105820Y-123810498D01*
X131995506Y-123869463D01*
X131898815Y-123948815D01*
X131819463Y-124045506D01*
X131760498Y-124155820D01*
X131724188Y-124275518D01*
X131711928Y-124400000D01*
X128829645Y-124400000D01*
X128781833Y-124310551D01*
X128627502Y-124122498D01*
X128439448Y-123968167D01*
X128224900Y-123853489D01*
X127992101Y-123782870D01*
X127750000Y-123759025D01*
X127507898Y-123782870D01*
X127275099Y-123853489D01*
X127060551Y-123968167D01*
X126906691Y-124094436D01*
X126880537Y-124045506D01*
X126801185Y-123948815D01*
X126704494Y-123869463D01*
X126594180Y-123810498D01*
X126474482Y-123774188D01*
X126350000Y-123761928D01*
X126035750Y-123765000D01*
X125877000Y-123923750D01*
X125623000Y-123923750D01*
X125464250Y-123765000D01*
X125150000Y-123761928D01*
X125025518Y-123774188D01*
X124905820Y-123810498D01*
X124795506Y-123869463D01*
X124698815Y-123948815D01*
X124619463Y-124045506D01*
X124560498Y-124155820D01*
X124524188Y-124275518D01*
X124511928Y-124400000D01*
X123274801Y-124400000D01*
X124174801Y-123500000D01*
X142123000Y-123500000D01*
X142123000Y-127000000D01*
X142125440Y-127024776D01*
X142132667Y-127048601D01*
X142144403Y-127070557D01*
X142160197Y-127089803D01*
X142179443Y-127105597D01*
X142201399Y-127117333D01*
X142225224Y-127124560D01*
X142250000Y-127127000D01*
X148000000Y-127127000D01*
X148024776Y-127124560D01*
X148048601Y-127117333D01*
X148070557Y-127105597D01*
X148089803Y-127089803D01*
X148105597Y-127070557D01*
X148117333Y-127048601D01*
X148124560Y-127024776D01*
X148127000Y-127000000D01*
X148127000Y-123500000D01*
X148124560Y-123475224D01*
X148117333Y-123451399D01*
X148105597Y-123429443D01*
X148089803Y-123410197D01*
X148070557Y-123394403D01*
X148048601Y-123382667D01*
X148024776Y-123375440D01*
X148000000Y-123373000D01*
X142250000Y-123373000D01*
X142225224Y-123375440D01*
X142201399Y-123382667D01*
X142179443Y-123394403D01*
X142160197Y-123410197D01*
X142144403Y-123429443D01*
X142132667Y-123451399D01*
X142125440Y-123475224D01*
X142123000Y-123500000D01*
X124174801Y-123500000D01*
X124689801Y-122985001D01*
X135810679Y-122985001D01*
X135848001Y-122988677D01*
X135885323Y-122985001D01*
X135885334Y-122985001D01*
X135996987Y-122974004D01*
X136140248Y-122930547D01*
X136272277Y-122859975D01*
X136388002Y-122765002D01*
X136411804Y-122735999D01*
X136697803Y-122450000D01*
X149261928Y-122450000D01*
X149274188Y-122574482D01*
X149310498Y-122694180D01*
X149369463Y-122804494D01*
X149448815Y-122901185D01*
X149545506Y-122980537D01*
X149655820Y-123039502D01*
X149775518Y-123075812D01*
X149900000Y-123088072D01*
X150464250Y-123085000D01*
X150623000Y-122926250D01*
X150623000Y-121977000D01*
X150877000Y-121977000D01*
X150877000Y-122926250D01*
X151035750Y-123085000D01*
X151600000Y-123088072D01*
X151724482Y-123075812D01*
X151844180Y-123039502D01*
X151954494Y-122980537D01*
X152051185Y-122901185D01*
X152130537Y-122804494D01*
X152189502Y-122694180D01*
X152225812Y-122574482D01*
X152238072Y-122450000D01*
X152235000Y-122135750D01*
X152076250Y-121977000D01*
X150877000Y-121977000D01*
X150623000Y-121977000D01*
X149423750Y-121977000D01*
X149265000Y-122135750D01*
X149261928Y-122450000D01*
X136697803Y-122450000D01*
X137236005Y-121911799D01*
X137265002Y-121888002D01*
X137359975Y-121772277D01*
X137430547Y-121640248D01*
X137474004Y-121496987D01*
X137485001Y-121385334D01*
X137485001Y-121385325D01*
X137488677Y-121348002D01*
X137485001Y-121310679D01*
X137485001Y-119850000D01*
X149259025Y-119850000D01*
X149282870Y-120092102D01*
X149353489Y-120324901D01*
X149468167Y-120539449D01*
X149594436Y-120693309D01*
X149545506Y-120719463D01*
X149448815Y-120798815D01*
X149369463Y-120895506D01*
X149310498Y-121005820D01*
X149274188Y-121125518D01*
X149261928Y-121250000D01*
X149265000Y-121564250D01*
X149423750Y-121723000D01*
X150623000Y-121723000D01*
X150623000Y-121703000D01*
X150877000Y-121703000D01*
X150877000Y-121723000D01*
X152076250Y-121723000D01*
X152235000Y-121564250D01*
X152238072Y-121250000D01*
X152225812Y-121125518D01*
X152189502Y-121005820D01*
X152130537Y-120895506D01*
X152051185Y-120798815D01*
X151954494Y-120719463D01*
X151905564Y-120693309D01*
X152031833Y-120539449D01*
X152146511Y-120324901D01*
X152217130Y-120092102D01*
X152240975Y-119850000D01*
X152217130Y-119607898D01*
X152146511Y-119375099D01*
X152031833Y-119160551D01*
X151877502Y-118972498D01*
X151689449Y-118818167D01*
X151474901Y-118703489D01*
X151242102Y-118632870D01*
X151060665Y-118615000D01*
X150439335Y-118615000D01*
X150257898Y-118632870D01*
X150025099Y-118703489D01*
X149810551Y-118818167D01*
X149622498Y-118972498D01*
X149468167Y-119160551D01*
X149353489Y-119375099D01*
X149282870Y-119607898D01*
X149259025Y-119850000D01*
X137485001Y-119850000D01*
X137485001Y-115078008D01*
X137488677Y-115040686D01*
X137485500Y-115008433D01*
X137551898Y-114995226D01*
X137740256Y-114917205D01*
X137909774Y-114803937D01*
X138053937Y-114659774D01*
X138160694Y-114500000D01*
X149261928Y-114500000D01*
X149274188Y-114624482D01*
X149310498Y-114744180D01*
X149369463Y-114854494D01*
X149448815Y-114951185D01*
X149545506Y-115030537D01*
X149655820Y-115089502D01*
X149775518Y-115125812D01*
X149900000Y-115138072D01*
X150464250Y-115135000D01*
X150623000Y-114976250D01*
X150623000Y-114027000D01*
X150877000Y-114027000D01*
X150877000Y-114976250D01*
X151035750Y-115135000D01*
X151600000Y-115138072D01*
X151724482Y-115125812D01*
X151844180Y-115089502D01*
X151954494Y-115030537D01*
X152051185Y-114951185D01*
X152130537Y-114854494D01*
X152189502Y-114744180D01*
X152225812Y-114624482D01*
X152238072Y-114500000D01*
X152235000Y-114185750D01*
X152076250Y-114027000D01*
X150877000Y-114027000D01*
X150623000Y-114027000D01*
X149423750Y-114027000D01*
X149265000Y-114185750D01*
X149261928Y-114500000D01*
X138160694Y-114500000D01*
X138167205Y-114490256D01*
X138245226Y-114301898D01*
X138285000Y-114101939D01*
X138285000Y-113898061D01*
X138245226Y-113698102D01*
X138167205Y-113509744D01*
X138053937Y-113340226D01*
X138010000Y-113296289D01*
X138010000Y-111900000D01*
X149259025Y-111900000D01*
X149282870Y-112142102D01*
X149353489Y-112374901D01*
X149468167Y-112589449D01*
X149594436Y-112743309D01*
X149545506Y-112769463D01*
X149448815Y-112848815D01*
X149369463Y-112945506D01*
X149310498Y-113055820D01*
X149274188Y-113175518D01*
X149261928Y-113300000D01*
X149265000Y-113614250D01*
X149423750Y-113773000D01*
X150623000Y-113773000D01*
X150623000Y-113753000D01*
X150877000Y-113753000D01*
X150877000Y-113773000D01*
X152076250Y-113773000D01*
X152235000Y-113614250D01*
X152238072Y-113300000D01*
X152225812Y-113175518D01*
X152189502Y-113055820D01*
X152130537Y-112945506D01*
X152051185Y-112848815D01*
X151954494Y-112769463D01*
X151905564Y-112743309D01*
X152031833Y-112589449D01*
X152146511Y-112374901D01*
X152217130Y-112142102D01*
X152240975Y-111900000D01*
X152217130Y-111657898D01*
X152146511Y-111425099D01*
X152031833Y-111210551D01*
X151877502Y-111022498D01*
X151689449Y-110868167D01*
X151474901Y-110753489D01*
X151242102Y-110682870D01*
X151060665Y-110665000D01*
X150439335Y-110665000D01*
X150257898Y-110682870D01*
X150025099Y-110753489D01*
X149810551Y-110868167D01*
X149622498Y-111022498D01*
X149468167Y-111210551D01*
X149353489Y-111425099D01*
X149282870Y-111657898D01*
X149259025Y-111900000D01*
X138010000Y-111900000D01*
X138010000Y-111464320D01*
X138013676Y-111426997D01*
X138010000Y-111389674D01*
X138010000Y-111389665D01*
X137999003Y-111278012D01*
X137955546Y-111134751D01*
X137884974Y-111002722D01*
X137871516Y-110986323D01*
X137813799Y-110915994D01*
X137813795Y-110915990D01*
X137790001Y-110886997D01*
X137761007Y-110863203D01*
X137286808Y-110389005D01*
X137263006Y-110360002D01*
X137147281Y-110265029D01*
X137015252Y-110194457D01*
X136871991Y-110151000D01*
X136760338Y-110140003D01*
X136760327Y-110140003D01*
X136723005Y-110136327D01*
X136685683Y-110140003D01*
X135100955Y-110140003D01*
X135102064Y-110139410D01*
X135236822Y-110028816D01*
X135264539Y-109995043D01*
X138795050Y-106464533D01*
X138828817Y-106436821D01*
X138858218Y-106400997D01*
X138939410Y-106302064D01*
X138939411Y-106302063D01*
X139021589Y-106148317D01*
X139072195Y-105981494D01*
X139085000Y-105851481D01*
X139085000Y-105851471D01*
X139089281Y-105808005D01*
X139085000Y-105764538D01*
X139085000Y-105444759D01*
X139255134Y-105305134D01*
X139275866Y-105279872D01*
X151765000Y-105279872D01*
X151765000Y-105720128D01*
X151850890Y-106151925D01*
X152019369Y-106558669D01*
X152263962Y-106924729D01*
X152575271Y-107236038D01*
X152941331Y-107480631D01*
X153348075Y-107649110D01*
X153779872Y-107735000D01*
X154220128Y-107735000D01*
X154651925Y-107649110D01*
X155058669Y-107480631D01*
X155424729Y-107236038D01*
X155736038Y-106924729D01*
X155980631Y-106558669D01*
X156149110Y-106151925D01*
X156235000Y-105720128D01*
X156235000Y-105279872D01*
X156149110Y-104848075D01*
X155980631Y-104441331D01*
X155736038Y-104075271D01*
X155424729Y-103763962D01*
X155058669Y-103519369D01*
X154651925Y-103350890D01*
X154220128Y-103265000D01*
X153779872Y-103265000D01*
X153348075Y-103350890D01*
X152941331Y-103519369D01*
X152575271Y-103763962D01*
X152263962Y-104075271D01*
X152019369Y-104441331D01*
X151850890Y-104848075D01*
X151765000Y-105279872D01*
X139275866Y-105279872D01*
X139440706Y-105079014D01*
X139578599Y-104821034D01*
X139663513Y-104541111D01*
X139692185Y-104250000D01*
X139663513Y-103958889D01*
X139578599Y-103678966D01*
X139440706Y-103420986D01*
X139255134Y-103194866D01*
X139029014Y-103009294D01*
X138771034Y-102871401D01*
X138491111Y-102786487D01*
X138272950Y-102765000D01*
X138127050Y-102765000D01*
X137908889Y-102786487D01*
X137628966Y-102871401D01*
X137370986Y-103009294D01*
X137144866Y-103194866D01*
X136959294Y-103420986D01*
X136930000Y-103475791D01*
X136900706Y-103420986D01*
X136715134Y-103194866D01*
X136489014Y-103009294D01*
X136231034Y-102871401D01*
X135951111Y-102786487D01*
X135732950Y-102765000D01*
X135587050Y-102765000D01*
X135368889Y-102786487D01*
X135088966Y-102871401D01*
X134830986Y-103009294D01*
X134604866Y-103194866D01*
X134419294Y-103420986D01*
X134390000Y-103475791D01*
X134360706Y-103420986D01*
X134175134Y-103194866D01*
X133949014Y-103009294D01*
X133691034Y-102871401D01*
X133411111Y-102786487D01*
X133192950Y-102765000D01*
X133047050Y-102765000D01*
X132828889Y-102786487D01*
X132548966Y-102871401D01*
X132290986Y-103009294D01*
X132064866Y-103194866D01*
X131879294Y-103420986D01*
X131850000Y-103475791D01*
X131820706Y-103420986D01*
X131635134Y-103194866D01*
X131409014Y-103009294D01*
X131151034Y-102871401D01*
X130871111Y-102786487D01*
X130652950Y-102765000D01*
X130507050Y-102765000D01*
X130288889Y-102786487D01*
X130008966Y-102871401D01*
X129750986Y-103009294D01*
X129524866Y-103194866D01*
X129339294Y-103420986D01*
X129310000Y-103475791D01*
X129280706Y-103420986D01*
X129095134Y-103194866D01*
X128869014Y-103009294D01*
X128611034Y-102871401D01*
X128331111Y-102786487D01*
X128112950Y-102765000D01*
X127967050Y-102765000D01*
X127748889Y-102786487D01*
X127468966Y-102871401D01*
X127210986Y-103009294D01*
X126984866Y-103194866D01*
X126960393Y-103224687D01*
X126939502Y-103155820D01*
X126880537Y-103045506D01*
X126801185Y-102948815D01*
X126704494Y-102869463D01*
X126594180Y-102810498D01*
X126474482Y-102774188D01*
X126350000Y-102761928D01*
X125785750Y-102765000D01*
X125627000Y-102923750D01*
X125627000Y-104123000D01*
X125647000Y-104123000D01*
X125647000Y-104377000D01*
X125627000Y-104377000D01*
X125627000Y-105576250D01*
X125785750Y-105735000D01*
X126350000Y-105738072D01*
X126474482Y-105725812D01*
X126594180Y-105689502D01*
X126704494Y-105630537D01*
X126801185Y-105551185D01*
X126880537Y-105454494D01*
X126939502Y-105344180D01*
X126960393Y-105275313D01*
X126984866Y-105305134D01*
X127210986Y-105490706D01*
X127468966Y-105628599D01*
X127748889Y-105713513D01*
X127967050Y-105735000D01*
X128112950Y-105735000D01*
X128331111Y-105713513D01*
X128611034Y-105628599D01*
X128869014Y-105490706D01*
X129095134Y-105305134D01*
X129280706Y-105079014D01*
X129310000Y-105024209D01*
X129339294Y-105079014D01*
X129524866Y-105305134D01*
X129750986Y-105490706D01*
X130008966Y-105628599D01*
X130288889Y-105713513D01*
X130507050Y-105735000D01*
X130652950Y-105735000D01*
X130871111Y-105713513D01*
X131151034Y-105628599D01*
X131409014Y-105490706D01*
X131635134Y-105305134D01*
X131820706Y-105079014D01*
X131850000Y-105024209D01*
X131879294Y-105079014D01*
X132064866Y-105305134D01*
X132290986Y-105490706D01*
X132548966Y-105628599D01*
X132828889Y-105713513D01*
X133047050Y-105735000D01*
X133192950Y-105735000D01*
X133411111Y-105713513D01*
X133691034Y-105628599D01*
X133949014Y-105490706D01*
X134175134Y-105305134D01*
X134360706Y-105079014D01*
X134390000Y-105024209D01*
X134419294Y-105079014D01*
X134604866Y-105305134D01*
X134830986Y-105490706D01*
X135088966Y-105628599D01*
X135368889Y-105713513D01*
X135587050Y-105735000D01*
X135732950Y-105735000D01*
X135951111Y-105713513D01*
X136231034Y-105628599D01*
X136489014Y-105490706D01*
X136715134Y-105305134D01*
X136900706Y-105079014D01*
X136930000Y-105024209D01*
X136959294Y-105079014D01*
X137144866Y-105305134D01*
X137313169Y-105443256D01*
X136235068Y-106521357D01*
X136159774Y-106446063D01*
X135990256Y-106332795D01*
X135801898Y-106254774D01*
X135601939Y-106215000D01*
X135398061Y-106215000D01*
X135198102Y-106254774D01*
X135009744Y-106332795D01*
X134840226Y-106446063D01*
X134696063Y-106590226D01*
X134582795Y-106759744D01*
X134528841Y-106889999D01*
X117009244Y-106889999D01*
X117230631Y-106558669D01*
X117399110Y-106151925D01*
X117485000Y-105720128D01*
X117485000Y-105279872D01*
X117449222Y-105100000D01*
X124011928Y-105100000D01*
X124024188Y-105224482D01*
X124060498Y-105344180D01*
X124119463Y-105454494D01*
X124198815Y-105551185D01*
X124295506Y-105630537D01*
X124405820Y-105689502D01*
X124525518Y-105725812D01*
X124650000Y-105738072D01*
X125214250Y-105735000D01*
X125373000Y-105576250D01*
X125373000Y-104377000D01*
X124173750Y-104377000D01*
X124015000Y-104535750D01*
X124011928Y-105100000D01*
X117449222Y-105100000D01*
X117399110Y-104848075D01*
X117230631Y-104441331D01*
X116986038Y-104075271D01*
X116674729Y-103763962D01*
X116308669Y-103519369D01*
X116020487Y-103400000D01*
X124011928Y-103400000D01*
X124015000Y-103964250D01*
X124173750Y-104123000D01*
X125373000Y-104123000D01*
X125373000Y-102923750D01*
X125214250Y-102765000D01*
X124650000Y-102761928D01*
X124525518Y-102774188D01*
X124405820Y-102810498D01*
X124295506Y-102869463D01*
X124198815Y-102948815D01*
X124119463Y-103045506D01*
X124060498Y-103155820D01*
X124024188Y-103275518D01*
X124011928Y-103400000D01*
X116020487Y-103400000D01*
X115901925Y-103350890D01*
X115470128Y-103265000D01*
X115029872Y-103265000D01*
X114598075Y-103350890D01*
X114191331Y-103519369D01*
X113825271Y-103763962D01*
X113513962Y-104075271D01*
X113269369Y-104441331D01*
X113100890Y-104848075D01*
X113015000Y-105279872D01*
X113015000Y-105720128D01*
X113100890Y-106151925D01*
X113269369Y-106558669D01*
X113490756Y-106889999D01*
X106007323Y-106889999D01*
X105970000Y-106886323D01*
X105932677Y-106889999D01*
X105932668Y-106889999D01*
X105821015Y-106900996D01*
X105677754Y-106944453D01*
X105545724Y-107015025D01*
X105465000Y-107081274D01*
X105465000Y-106998816D01*
X105406011Y-106702257D01*
X105290299Y-106422905D01*
X105122312Y-106171495D01*
X104908505Y-105957688D01*
X104792237Y-105880000D01*
X104908505Y-105802312D01*
X105122312Y-105588505D01*
X105290299Y-105337095D01*
X105406011Y-105057743D01*
X105465000Y-104761184D01*
X105465000Y-104458816D01*
X105406011Y-104162257D01*
X105290299Y-103882905D01*
X105122312Y-103631495D01*
X104908505Y-103417688D01*
X104657095Y-103249701D01*
X104377743Y-103133989D01*
X104081184Y-103075000D01*
X103778816Y-103075000D01*
X103482257Y-103133989D01*
X103202905Y-103249701D01*
X102951495Y-103417688D01*
X102737688Y-103631495D01*
X102569701Y-103882905D01*
X102453989Y-104162257D01*
X102395000Y-104458816D01*
X102395000Y-104761184D01*
X102453989Y-105057743D01*
X102569701Y-105337095D01*
X102737688Y-105588505D01*
X102951495Y-105802312D01*
X103067763Y-105880000D01*
X102951495Y-105957688D01*
X102737688Y-106171495D01*
X102569701Y-106422905D01*
X102453989Y-106702257D01*
X102395000Y-106998816D01*
X102395000Y-107301184D01*
X102453989Y-107597743D01*
X102569701Y-107877095D01*
X102737688Y-108128505D01*
X102951495Y-108342312D01*
X103067763Y-108420000D01*
X102951495Y-108497688D01*
X102737688Y-108711495D01*
X102591687Y-108930000D01*
X98097324Y-108930000D01*
X98060001Y-108926324D01*
X98022678Y-108930000D01*
X98022669Y-108930000D01*
X97911016Y-108940997D01*
X97767755Y-108984454D01*
X97635726Y-109055026D01*
X97635724Y-109055027D01*
X97635725Y-109055027D01*
X97548998Y-109126201D01*
X97548994Y-109126205D01*
X97520001Y-109149999D01*
X97496207Y-109178992D01*
X89210201Y-117465000D01*
X89148063Y-117465000D01*
X88948104Y-117504774D01*
X88759746Y-117582795D01*
X88590228Y-117696063D01*
X88446065Y-117840226D01*
X88332797Y-118009744D01*
X88254776Y-118198102D01*
X88215002Y-118398061D01*
X88215002Y-118601939D01*
X88254776Y-118801898D01*
X88332797Y-118990256D01*
X88446065Y-119159774D01*
X88590228Y-119303937D01*
X88759746Y-119417205D01*
X88948104Y-119495226D01*
X89148063Y-119535000D01*
X89351941Y-119535000D01*
X89551900Y-119495226D01*
X89740258Y-119417205D01*
X89909776Y-119303937D01*
X90053939Y-119159774D01*
X90167207Y-118990256D01*
X90245228Y-118801898D01*
X90285002Y-118601939D01*
X90285002Y-118539801D01*
X98374805Y-110450000D01*
X102591687Y-110450000D01*
X102737688Y-110668505D01*
X102951495Y-110882312D01*
X103067763Y-110960000D01*
X102951495Y-111037688D01*
X102737688Y-111251495D01*
X102591687Y-111470000D01*
X99557333Y-111470000D01*
X99520000Y-111466323D01*
X99482667Y-111470000D01*
X99371014Y-111480997D01*
X99227753Y-111524454D01*
X99095724Y-111595026D01*
X98979999Y-111689999D01*
X98956201Y-111718997D01*
X90238987Y-120436212D01*
X90209983Y-120460015D01*
X90169172Y-120509744D01*
X90115010Y-120575740D01*
X90074894Y-120650792D01*
X90044438Y-120707770D01*
X90000981Y-120851031D01*
X89989984Y-120962684D01*
X89989984Y-120962694D01*
X89986308Y-121000016D01*
X89989984Y-121037338D01*
X89989984Y-121046289D01*
X89946047Y-121090226D01*
X89832779Y-121259744D01*
X89754758Y-121448102D01*
X89714984Y-121648061D01*
X89714984Y-121851939D01*
X89754758Y-122051898D01*
X89832779Y-122240256D01*
X89946047Y-122409774D01*
X90090210Y-122553937D01*
X90259728Y-122667205D01*
X90448086Y-122745226D01*
X90648045Y-122785000D01*
X90851923Y-122785000D01*
X91051882Y-122745226D01*
X91240240Y-122667205D01*
X91409758Y-122553937D01*
X91553921Y-122409774D01*
X91667189Y-122240256D01*
X91745210Y-122051898D01*
X91784984Y-121851939D01*
X91784984Y-121648061D01*
X91745210Y-121448102D01*
X91667189Y-121259744D01*
X91626281Y-121198520D01*
X95260084Y-117564717D01*
X95332795Y-117740256D01*
X95446063Y-117909774D01*
X95590226Y-118053937D01*
X95759744Y-118167205D01*
X95948102Y-118245226D01*
X96148061Y-118285000D01*
X96210199Y-118285000D01*
X102415198Y-124490000D01*
X89324802Y-124490000D01*
X82553731Y-117718930D01*
X82605000Y-117461184D01*
X82605000Y-117158816D01*
X82546011Y-116862257D01*
X82430299Y-116582905D01*
X82262312Y-116331495D01*
X82048505Y-116117688D01*
X81932237Y-116040000D01*
X82048505Y-115962312D01*
X82262312Y-115748505D01*
X82430299Y-115497095D01*
X82546011Y-115217743D01*
X82605000Y-114921184D01*
X82605000Y-114618816D01*
X82546011Y-114322257D01*
X82430299Y-114042905D01*
X82262312Y-113791495D01*
X82048505Y-113577688D01*
X81932237Y-113500000D01*
X82048505Y-113422312D01*
X82262312Y-113208505D01*
X82430299Y-112957095D01*
X82546011Y-112677743D01*
X82605000Y-112381184D01*
X82605000Y-112078816D01*
X82546011Y-111782257D01*
X82430299Y-111502905D01*
X82262312Y-111251495D01*
X82048505Y-111037688D01*
X81932237Y-110960000D01*
X82048505Y-110882312D01*
X82262312Y-110668505D01*
X82430299Y-110417095D01*
X82546011Y-110137743D01*
X82605000Y-109841184D01*
X82605000Y-109538816D01*
X82546011Y-109242257D01*
X82430299Y-108962905D01*
X82262312Y-108711495D01*
X82048505Y-108497688D01*
X81932237Y-108420000D01*
X82048505Y-108342312D01*
X82262312Y-108128505D01*
X82430299Y-107877095D01*
X82546011Y-107597743D01*
X82605000Y-107301184D01*
X82605000Y-106998816D01*
X82546011Y-106702257D01*
X82430299Y-106422905D01*
X82262312Y-106171495D01*
X82048505Y-105957688D01*
X81932237Y-105880000D01*
X82048505Y-105802312D01*
X82262312Y-105588505D01*
X82430299Y-105337095D01*
X82546011Y-105057743D01*
X82605000Y-104761184D01*
X82605000Y-104458816D01*
X82546011Y-104162257D01*
X82430299Y-103882905D01*
X82262312Y-103631495D01*
X82048505Y-103417688D01*
X81797095Y-103249701D01*
X81517743Y-103133989D01*
X81221184Y-103075000D01*
X80918816Y-103075000D01*
X80622257Y-103133989D01*
X80342905Y-103249701D01*
X80091495Y-103417688D01*
X79877688Y-103631495D01*
X79709701Y-103882905D01*
X79593989Y-104162257D01*
X79535000Y-104458816D01*
X79535000Y-104761184D01*
X79593989Y-105057743D01*
X79709701Y-105337095D01*
X79877688Y-105588505D01*
X80091495Y-105802312D01*
X80207763Y-105880000D01*
X80091495Y-105957688D01*
X79877688Y-106171495D01*
X79709701Y-106422905D01*
X79593989Y-106702257D01*
X79535000Y-106998816D01*
X79535000Y-107301184D01*
X79586269Y-107558930D01*
X78738998Y-108406201D01*
X78710000Y-108429999D01*
X78686202Y-108458997D01*
X78686201Y-108458998D01*
X78615026Y-108545724D01*
X78544454Y-108677754D01*
X78533155Y-108715004D01*
X78507676Y-108799001D01*
X78500998Y-108821015D01*
X78486324Y-108970000D01*
X78490001Y-109007333D01*
X78490001Y-115811716D01*
X78394180Y-115760498D01*
X78274482Y-115724188D01*
X78150000Y-115711928D01*
X77535750Y-115715000D01*
X77377000Y-115873750D01*
X77123000Y-115873750D01*
X76964250Y-115715000D01*
X76350000Y-115711928D01*
X76225518Y-115724188D01*
X76105820Y-115760498D01*
X75995506Y-115819463D01*
X75898815Y-115898815D01*
X75819463Y-115995506D01*
X75760498Y-116105820D01*
X75754944Y-116124127D01*
X75688505Y-116057688D01*
X75437095Y-115889701D01*
X75157743Y-115773989D01*
X74861184Y-115715000D01*
X74558816Y-115715000D01*
X74262257Y-115773989D01*
X73982905Y-115889701D01*
X73731495Y-116057688D01*
X73517688Y-116271495D01*
X73349701Y-116522905D01*
X73233989Y-116802257D01*
X73175000Y-117098816D01*
X73160000Y-117098816D01*
X73160000Y-105279872D01*
X73765000Y-105279872D01*
X73765000Y-105720128D01*
X73850890Y-106151925D01*
X74019369Y-106558669D01*
X74263962Y-106924729D01*
X74575271Y-107236038D01*
X74941331Y-107480631D01*
X75348075Y-107649110D01*
X75779872Y-107735000D01*
X76220128Y-107735000D01*
X76651925Y-107649110D01*
X77058669Y-107480631D01*
X77424729Y-107236038D01*
X77736038Y-106924729D01*
X77980631Y-106558669D01*
X78149110Y-106151925D01*
X78235000Y-105720128D01*
X78235000Y-105279872D01*
X78149110Y-104848075D01*
X77980631Y-104441331D01*
X77736038Y-104075271D01*
X77424729Y-103763962D01*
X77058669Y-103519369D01*
X76651925Y-103350890D01*
X76220128Y-103265000D01*
X75779872Y-103265000D01*
X75348075Y-103350890D01*
X74941331Y-103519369D01*
X74575271Y-103763962D01*
X74263962Y-104075271D01*
X74019369Y-104441331D01*
X73850890Y-104848075D01*
X73765000Y-105279872D01*
X73160000Y-105279872D01*
X73160000Y-104032279D01*
X73188625Y-103740341D01*
X73264035Y-103490571D01*
X73386522Y-103260208D01*
X73551422Y-103058020D01*
X73752450Y-102891714D01*
X73981954Y-102767622D01*
X74231195Y-102690469D01*
X74521088Y-102660000D01*
X155467721Y-102660000D01*
X155759659Y-102688625D01*
G36*
X87925198Y-125240000D02*
G01*
X81064802Y-125240000D01*
X80010000Y-124185199D01*
X80010000Y-123500817D01*
X80091495Y-123582312D01*
X80342905Y-123750299D01*
X80622257Y-123866011D01*
X80918816Y-123925000D01*
X81221184Y-123925000D01*
X81517743Y-123866011D01*
X81797095Y-123750299D01*
X82048505Y-123582312D01*
X82262312Y-123368505D01*
X82430299Y-123117095D01*
X82546011Y-122837743D01*
X82605000Y-122541184D01*
X82605000Y-122238816D01*
X82546011Y-121942257D01*
X82430299Y-121662905D01*
X82262312Y-121411495D01*
X82048505Y-121197688D01*
X81932237Y-121120000D01*
X82048505Y-121042312D01*
X82262312Y-120828505D01*
X82430299Y-120577095D01*
X82546011Y-120297743D01*
X82605000Y-120001184D01*
X82605000Y-119919801D01*
X87925198Y-125240000D01*
X87925198Y-125240000D01*
G37*
X87925198Y-125240000D02*
X81064802Y-125240000D01*
X80010000Y-124185199D01*
X80010000Y-123500817D01*
X80091495Y-123582312D01*
X80342905Y-123750299D01*
X80622257Y-123866011D01*
X80918816Y-123925000D01*
X81221184Y-123925000D01*
X81517743Y-123866011D01*
X81797095Y-123750299D01*
X82048505Y-123582312D01*
X82262312Y-123368505D01*
X82430299Y-123117095D01*
X82546011Y-122837743D01*
X82605000Y-122541184D01*
X82605000Y-122238816D01*
X82546011Y-121942257D01*
X82430299Y-121662905D01*
X82262312Y-121411495D01*
X82048505Y-121197688D01*
X81932237Y-121120000D01*
X82048505Y-121042312D01*
X82262312Y-120828505D01*
X82430299Y-120577095D01*
X82546011Y-120297743D01*
X82605000Y-120001184D01*
X82605000Y-119919801D01*
X87925198Y-125240000D01*
G36*
X121388860Y-124136338D02*
G01*
X121377502Y-124122498D01*
X121189448Y-123968167D01*
X120974900Y-123853489D01*
X120742101Y-123782870D01*
X120500000Y-123759025D01*
X120257898Y-123782870D01*
X120025099Y-123853489D01*
X119810551Y-123968167D01*
X119656691Y-124094436D01*
X119630537Y-124045506D01*
X119551185Y-123948815D01*
X119454494Y-123869463D01*
X119344180Y-123810498D01*
X119224482Y-123774188D01*
X119100000Y-123761928D01*
X117900000Y-123761928D01*
X117775518Y-123774188D01*
X117655820Y-123810498D01*
X117545506Y-123869463D01*
X117448815Y-123948815D01*
X117369463Y-124045506D01*
X117310498Y-124155820D01*
X117274188Y-124275518D01*
X117261928Y-124400000D01*
X117261928Y-124490000D01*
X106834801Y-124490000D01*
X109564802Y-121760000D01*
X123765198Y-121760000D01*
X121388860Y-124136338D01*
X121388860Y-124136338D01*
G37*
X121388860Y-124136338D02*
X121377502Y-124122498D01*
X121189448Y-123968167D01*
X120974900Y-123853489D01*
X120742101Y-123782870D01*
X120500000Y-123759025D01*
X120257898Y-123782870D01*
X120025099Y-123853489D01*
X119810551Y-123968167D01*
X119656691Y-124094436D01*
X119630537Y-124045506D01*
X119551185Y-123948815D01*
X119454494Y-123869463D01*
X119344180Y-123810498D01*
X119224482Y-123774188D01*
X119100000Y-123761928D01*
X117900000Y-123761928D01*
X117775518Y-123774188D01*
X117655820Y-123810498D01*
X117545506Y-123869463D01*
X117448815Y-123948815D01*
X117369463Y-124045506D01*
X117310498Y-124155820D01*
X117274188Y-124275518D01*
X117261928Y-124400000D01*
X117261928Y-124490000D01*
X106834801Y-124490000D01*
X109564802Y-121760000D01*
X123765198Y-121760000D01*
X121388860Y-124136338D01*
G36*
X108582795Y-112740256D02*
G01*
X108696063Y-112909774D01*
X108840226Y-113053937D01*
X109009744Y-113167205D01*
X109198102Y-113245226D01*
X109398061Y-113285000D01*
X109460199Y-113285000D01*
X109686196Y-113510997D01*
X109709999Y-113540001D01*
X109825724Y-113634974D01*
X109957753Y-113705546D01*
X110101014Y-113749003D01*
X110212667Y-113760000D01*
X110212676Y-113760000D01*
X110249999Y-113763676D01*
X110287322Y-113760000D01*
X134796289Y-113760000D01*
X134840226Y-113803937D01*
X135009744Y-113917205D01*
X135198102Y-113995226D01*
X135398061Y-114035000D01*
X135489990Y-114035000D01*
X135489990Y-114528352D01*
X135486314Y-114565675D01*
X135489990Y-114602997D01*
X135489990Y-114603007D01*
X135500987Y-114714660D01*
X135543404Y-114854494D01*
X135544444Y-114857921D01*
X135615016Y-114989951D01*
X135651987Y-115035000D01*
X135709989Y-115105676D01*
X135738993Y-115129479D01*
X135965002Y-115355488D01*
X135965001Y-119965000D01*
X135898061Y-119965000D01*
X135698102Y-120004774D01*
X135509744Y-120082795D01*
X135340226Y-120196063D01*
X135296289Y-120240000D01*
X109287325Y-120240000D01*
X109250000Y-120236324D01*
X109212675Y-120240000D01*
X109212667Y-120240000D01*
X109101014Y-120250997D01*
X108957753Y-120294454D01*
X108825724Y-120365026D01*
X108709999Y-120459999D01*
X108686201Y-120488997D01*
X105935199Y-123240000D01*
X105208176Y-123240000D01*
X105290299Y-123117095D01*
X105406011Y-122837743D01*
X105465000Y-122541184D01*
X105465000Y-122238816D01*
X105443060Y-122128518D01*
X107245049Y-120326530D01*
X107278816Y-120298818D01*
X107389410Y-120164060D01*
X107471588Y-120010314D01*
X107522194Y-119843491D01*
X107534999Y-119713478D01*
X107534999Y-119713468D01*
X107539280Y-119670002D01*
X107534999Y-119626536D01*
X107534999Y-117150000D01*
X112261928Y-117150000D01*
X112261928Y-118850000D01*
X112274188Y-118974482D01*
X112310498Y-119094180D01*
X112369463Y-119204494D01*
X112448815Y-119301185D01*
X112545506Y-119380537D01*
X112655820Y-119439502D01*
X112775518Y-119475812D01*
X112900000Y-119488072D01*
X114600000Y-119488072D01*
X114724482Y-119475812D01*
X114844180Y-119439502D01*
X114954494Y-119380537D01*
X115051185Y-119301185D01*
X115130537Y-119204494D01*
X115189502Y-119094180D01*
X115213966Y-119013534D01*
X115289731Y-119097588D01*
X115523080Y-119271641D01*
X115785901Y-119396825D01*
X115933110Y-119441476D01*
X116163000Y-119320155D01*
X116163000Y-118127000D01*
X116143000Y-118127000D01*
X116143000Y-117873000D01*
X116163000Y-117873000D01*
X116163000Y-116679845D01*
X116417000Y-116679845D01*
X116417000Y-117873000D01*
X116437000Y-117873000D01*
X116437000Y-118127000D01*
X116417000Y-118127000D01*
X116417000Y-119320155D01*
X116646890Y-119441476D01*
X116794099Y-119396825D01*
X117056920Y-119271641D01*
X117290269Y-119097588D01*
X117485178Y-118881355D01*
X117634157Y-118631252D01*
X117731481Y-118356891D01*
X117610815Y-118127002D01*
X117775000Y-118127002D01*
X117775000Y-118000000D01*
X119967815Y-118000000D01*
X119996487Y-118291111D01*
X120081401Y-118571034D01*
X120219294Y-118829014D01*
X120404866Y-119055134D01*
X120630986Y-119240706D01*
X120888966Y-119378599D01*
X121168889Y-119463513D01*
X121387050Y-119485000D01*
X121532950Y-119485000D01*
X121751111Y-119463513D01*
X122031034Y-119378599D01*
X122289014Y-119240706D01*
X122515134Y-119055134D01*
X122539607Y-119025313D01*
X122560498Y-119094180D01*
X122619463Y-119204494D01*
X122698815Y-119301185D01*
X122795506Y-119380537D01*
X122905820Y-119439502D01*
X123025518Y-119475812D01*
X123150000Y-119488072D01*
X123714250Y-119485000D01*
X123873000Y-119326250D01*
X123873000Y-118127000D01*
X124127000Y-118127000D01*
X124127000Y-119326250D01*
X124285750Y-119485000D01*
X124850000Y-119488072D01*
X124974482Y-119475812D01*
X125094180Y-119439502D01*
X125204494Y-119380537D01*
X125301185Y-119301185D01*
X125380537Y-119204494D01*
X125439502Y-119094180D01*
X125475812Y-118974482D01*
X125488072Y-118850000D01*
X125485000Y-118285750D01*
X125326250Y-118127000D01*
X124127000Y-118127000D01*
X123873000Y-118127000D01*
X123853000Y-118127000D01*
X123853000Y-117873000D01*
X123873000Y-117873000D01*
X123873000Y-116673750D01*
X124127000Y-116673750D01*
X124127000Y-117873000D01*
X125326250Y-117873000D01*
X125485000Y-117714250D01*
X125488072Y-117150000D01*
X125475812Y-117025518D01*
X125439502Y-116905820D01*
X125380537Y-116795506D01*
X125301185Y-116698815D01*
X125204494Y-116619463D01*
X125094180Y-116560498D01*
X124974482Y-116524188D01*
X124850000Y-116511928D01*
X124285750Y-116515000D01*
X124127000Y-116673750D01*
X123873000Y-116673750D01*
X123714250Y-116515000D01*
X123150000Y-116511928D01*
X123025518Y-116524188D01*
X122905820Y-116560498D01*
X122795506Y-116619463D01*
X122698815Y-116698815D01*
X122619463Y-116795506D01*
X122560498Y-116905820D01*
X122539607Y-116974687D01*
X122515134Y-116944866D01*
X122289014Y-116759294D01*
X122031034Y-116621401D01*
X121751111Y-116536487D01*
X121532950Y-116515000D01*
X121387050Y-116515000D01*
X121168889Y-116536487D01*
X120888966Y-116621401D01*
X120630986Y-116759294D01*
X120404866Y-116944866D01*
X120219294Y-117170986D01*
X120081401Y-117428966D01*
X119996487Y-117708889D01*
X119967815Y-118000000D01*
X117775000Y-118000000D01*
X117775000Y-117872998D01*
X117610815Y-117872998D01*
X117731481Y-117643109D01*
X117634157Y-117368748D01*
X117485178Y-117118645D01*
X117290269Y-116902412D01*
X117056920Y-116728359D01*
X116794099Y-116603175D01*
X116646890Y-116558524D01*
X116417000Y-116679845D01*
X116163000Y-116679845D01*
X115933110Y-116558524D01*
X115785901Y-116603175D01*
X115523080Y-116728359D01*
X115289731Y-116902412D01*
X115213966Y-116986466D01*
X115189502Y-116905820D01*
X115130537Y-116795506D01*
X115051185Y-116698815D01*
X114954494Y-116619463D01*
X114844180Y-116560498D01*
X114724482Y-116524188D01*
X114600000Y-116511928D01*
X112900000Y-116511928D01*
X112775518Y-116524188D01*
X112655820Y-116560498D01*
X112545506Y-116619463D01*
X112448815Y-116698815D01*
X112369463Y-116795506D01*
X112310498Y-116905820D01*
X112274188Y-117025518D01*
X112261928Y-117150000D01*
X107534999Y-117150000D01*
X107534999Y-113708575D01*
X108559517Y-112684057D01*
X108582795Y-112740256D01*
X108582795Y-112740256D01*
G37*
X108582795Y-112740256D02*
X108696063Y-112909774D01*
X108840226Y-113053937D01*
X109009744Y-113167205D01*
X109198102Y-113245226D01*
X109398061Y-113285000D01*
X109460199Y-113285000D01*
X109686196Y-113510997D01*
X109709999Y-113540001D01*
X109825724Y-113634974D01*
X109957753Y-113705546D01*
X110101014Y-113749003D01*
X110212667Y-113760000D01*
X110212676Y-113760000D01*
X110249999Y-113763676D01*
X110287322Y-113760000D01*
X134796289Y-113760000D01*
X134840226Y-113803937D01*
X135009744Y-113917205D01*
X135198102Y-113995226D01*
X135398061Y-114035000D01*
X135489990Y-114035000D01*
X135489990Y-114528352D01*
X135486314Y-114565675D01*
X135489990Y-114602997D01*
X135489990Y-114603007D01*
X135500987Y-114714660D01*
X135543404Y-114854494D01*
X135544444Y-114857921D01*
X135615016Y-114989951D01*
X135651987Y-115035000D01*
X135709989Y-115105676D01*
X135738993Y-115129479D01*
X135965002Y-115355488D01*
X135965001Y-119965000D01*
X135898061Y-119965000D01*
X135698102Y-120004774D01*
X135509744Y-120082795D01*
X135340226Y-120196063D01*
X135296289Y-120240000D01*
X109287325Y-120240000D01*
X109250000Y-120236324D01*
X109212675Y-120240000D01*
X109212667Y-120240000D01*
X109101014Y-120250997D01*
X108957753Y-120294454D01*
X108825724Y-120365026D01*
X108709999Y-120459999D01*
X108686201Y-120488997D01*
X105935199Y-123240000D01*
X105208176Y-123240000D01*
X105290299Y-123117095D01*
X105406011Y-122837743D01*
X105465000Y-122541184D01*
X105465000Y-122238816D01*
X105443060Y-122128518D01*
X107245049Y-120326530D01*
X107278816Y-120298818D01*
X107389410Y-120164060D01*
X107471588Y-120010314D01*
X107522194Y-119843491D01*
X107534999Y-119713478D01*
X107534999Y-119713468D01*
X107539280Y-119670002D01*
X107534999Y-119626536D01*
X107534999Y-117150000D01*
X112261928Y-117150000D01*
X112261928Y-118850000D01*
X112274188Y-118974482D01*
X112310498Y-119094180D01*
X112369463Y-119204494D01*
X112448815Y-119301185D01*
X112545506Y-119380537D01*
X112655820Y-119439502D01*
X112775518Y-119475812D01*
X112900000Y-119488072D01*
X114600000Y-119488072D01*
X114724482Y-119475812D01*
X114844180Y-119439502D01*
X114954494Y-119380537D01*
X115051185Y-119301185D01*
X115130537Y-119204494D01*
X115189502Y-119094180D01*
X115213966Y-119013534D01*
X115289731Y-119097588D01*
X115523080Y-119271641D01*
X115785901Y-119396825D01*
X115933110Y-119441476D01*
X116163000Y-119320155D01*
X116163000Y-118127000D01*
X116143000Y-118127000D01*
X116143000Y-117873000D01*
X116163000Y-117873000D01*
X116163000Y-116679845D01*
X116417000Y-116679845D01*
X116417000Y-117873000D01*
X116437000Y-117873000D01*
X116437000Y-118127000D01*
X116417000Y-118127000D01*
X116417000Y-119320155D01*
X116646890Y-119441476D01*
X116794099Y-119396825D01*
X117056920Y-119271641D01*
X117290269Y-119097588D01*
X117485178Y-118881355D01*
X117634157Y-118631252D01*
X117731481Y-118356891D01*
X117610815Y-118127002D01*
X117775000Y-118127002D01*
X117775000Y-118000000D01*
X119967815Y-118000000D01*
X119996487Y-118291111D01*
X120081401Y-118571034D01*
X120219294Y-118829014D01*
X120404866Y-119055134D01*
X120630986Y-119240706D01*
X120888966Y-119378599D01*
X121168889Y-119463513D01*
X121387050Y-119485000D01*
X121532950Y-119485000D01*
X121751111Y-119463513D01*
X122031034Y-119378599D01*
X122289014Y-119240706D01*
X122515134Y-119055134D01*
X122539607Y-119025313D01*
X122560498Y-119094180D01*
X122619463Y-119204494D01*
X122698815Y-119301185D01*
X122795506Y-119380537D01*
X122905820Y-119439502D01*
X123025518Y-119475812D01*
X123150000Y-119488072D01*
X123714250Y-119485000D01*
X123873000Y-119326250D01*
X123873000Y-118127000D01*
X124127000Y-118127000D01*
X124127000Y-119326250D01*
X124285750Y-119485000D01*
X124850000Y-119488072D01*
X124974482Y-119475812D01*
X125094180Y-119439502D01*
X125204494Y-119380537D01*
X125301185Y-119301185D01*
X125380537Y-119204494D01*
X125439502Y-119094180D01*
X125475812Y-118974482D01*
X125488072Y-118850000D01*
X125485000Y-118285750D01*
X125326250Y-118127000D01*
X124127000Y-118127000D01*
X123873000Y-118127000D01*
X123853000Y-118127000D01*
X123853000Y-117873000D01*
X123873000Y-117873000D01*
X123873000Y-116673750D01*
X124127000Y-116673750D01*
X124127000Y-117873000D01*
X125326250Y-117873000D01*
X125485000Y-117714250D01*
X125488072Y-117150000D01*
X125475812Y-117025518D01*
X125439502Y-116905820D01*
X125380537Y-116795506D01*
X125301185Y-116698815D01*
X125204494Y-116619463D01*
X125094180Y-116560498D01*
X124974482Y-116524188D01*
X124850000Y-116511928D01*
X124285750Y-116515000D01*
X124127000Y-116673750D01*
X123873000Y-116673750D01*
X123714250Y-116515000D01*
X123150000Y-116511928D01*
X123025518Y-116524188D01*
X122905820Y-116560498D01*
X122795506Y-116619463D01*
X122698815Y-116698815D01*
X122619463Y-116795506D01*
X122560498Y-116905820D01*
X122539607Y-116974687D01*
X122515134Y-116944866D01*
X122289014Y-116759294D01*
X122031034Y-116621401D01*
X121751111Y-116536487D01*
X121532950Y-116515000D01*
X121387050Y-116515000D01*
X121168889Y-116536487D01*
X120888966Y-116621401D01*
X120630986Y-116759294D01*
X120404866Y-116944866D01*
X120219294Y-117170986D01*
X120081401Y-117428966D01*
X119996487Y-117708889D01*
X119967815Y-118000000D01*
X117775000Y-118000000D01*
X117775000Y-117872998D01*
X117610815Y-117872998D01*
X117731481Y-117643109D01*
X117634157Y-117368748D01*
X117485178Y-117118645D01*
X117290269Y-116902412D01*
X117056920Y-116728359D01*
X116794099Y-116603175D01*
X116646890Y-116558524D01*
X116417000Y-116679845D01*
X116163000Y-116679845D01*
X115933110Y-116558524D01*
X115785901Y-116603175D01*
X115523080Y-116728359D01*
X115289731Y-116902412D01*
X115213966Y-116986466D01*
X115189502Y-116905820D01*
X115130537Y-116795506D01*
X115051185Y-116698815D01*
X114954494Y-116619463D01*
X114844180Y-116560498D01*
X114724482Y-116524188D01*
X114600000Y-116511928D01*
X112900000Y-116511928D01*
X112775518Y-116524188D01*
X112655820Y-116560498D01*
X112545506Y-116619463D01*
X112448815Y-116698815D01*
X112369463Y-116795506D01*
X112310498Y-116905820D01*
X112274188Y-117025518D01*
X112261928Y-117150000D01*
X107534999Y-117150000D01*
X107534999Y-113708575D01*
X108559517Y-112684057D01*
X108582795Y-112740256D01*
G36*
X106054950Y-112685468D02*
G01*
X106021183Y-112713180D01*
X105993470Y-112746948D01*
X105993467Y-112746951D01*
X105910588Y-112847939D01*
X105828411Y-113001684D01*
X105777804Y-113168508D01*
X105760718Y-113341997D01*
X105765000Y-113385473D01*
X105764999Y-119303422D01*
X105447820Y-119620601D01*
X105428397Y-119484093D01*
X105328222Y-119198801D01*
X105248261Y-119049208D01*
X104994080Y-118965525D01*
X104109605Y-119850000D01*
X104123748Y-119864143D01*
X103944143Y-120043748D01*
X103930000Y-120029605D01*
X103045525Y-120914080D01*
X103105105Y-121095049D01*
X102951495Y-121197688D01*
X102737688Y-121411495D01*
X102569701Y-121662905D01*
X102453989Y-121942257D01*
X102395000Y-122238816D01*
X102395000Y-122320198D01*
X99991355Y-119916553D01*
X102389009Y-119916553D01*
X102431603Y-120215907D01*
X102531778Y-120501199D01*
X102611739Y-120650792D01*
X102865920Y-120734475D01*
X103750395Y-119850000D01*
X102865920Y-118965525D01*
X102611739Y-119049208D01*
X102480842Y-119321775D01*
X102405635Y-119614642D01*
X102389009Y-119916553D01*
X99991355Y-119916553D01*
X97285000Y-117210199D01*
X97285000Y-117148061D01*
X97245226Y-116948102D01*
X97167205Y-116759744D01*
X97053937Y-116590226D01*
X96909774Y-116446063D01*
X96740256Y-116332795D01*
X96564718Y-116260084D01*
X99834802Y-112990000D01*
X102591687Y-112990000D01*
X102737688Y-113208505D01*
X102951495Y-113422312D01*
X103067763Y-113500000D01*
X102951495Y-113577688D01*
X102737688Y-113791495D01*
X102569701Y-114042905D01*
X102453989Y-114322257D01*
X102395000Y-114618816D01*
X102395000Y-114921184D01*
X102453989Y-115217743D01*
X102569701Y-115497095D01*
X102737688Y-115748505D01*
X102951495Y-115962312D01*
X103067763Y-116040000D01*
X102951495Y-116117688D01*
X102737688Y-116331495D01*
X102569701Y-116582905D01*
X102453989Y-116862257D01*
X102395000Y-117158816D01*
X102395000Y-117461184D01*
X102453989Y-117757743D01*
X102569701Y-118037095D01*
X102737688Y-118288505D01*
X102951495Y-118502312D01*
X103105105Y-118604951D01*
X103045525Y-118785920D01*
X103930000Y-119670395D01*
X104814475Y-118785920D01*
X104754895Y-118604951D01*
X104908505Y-118502312D01*
X105122312Y-118288505D01*
X105290299Y-118037095D01*
X105406011Y-117757743D01*
X105465000Y-117461184D01*
X105465000Y-117158816D01*
X105406011Y-116862257D01*
X105290299Y-116582905D01*
X105122312Y-116331495D01*
X104908505Y-116117688D01*
X104792237Y-116040000D01*
X104908505Y-115962312D01*
X105122312Y-115748505D01*
X105290299Y-115497095D01*
X105406011Y-115217743D01*
X105465000Y-114921184D01*
X105465000Y-114618816D01*
X105406011Y-114322257D01*
X105290299Y-114042905D01*
X105122312Y-113791495D01*
X104908505Y-113577688D01*
X104792237Y-113500000D01*
X104908505Y-113422312D01*
X105122312Y-113208505D01*
X105290299Y-112957095D01*
X105406011Y-112677743D01*
X105465000Y-112381184D01*
X105465000Y-112078816D01*
X105406011Y-111782257D01*
X105290299Y-111502905D01*
X105122312Y-111251495D01*
X104908505Y-111037688D01*
X104792237Y-110960000D01*
X104908505Y-110882312D01*
X105122312Y-110668505D01*
X105290299Y-110417095D01*
X105406011Y-110137743D01*
X105465000Y-109841184D01*
X105465000Y-109538816D01*
X105413731Y-109281070D01*
X106284803Y-108409999D01*
X110330416Y-108409999D01*
X106054950Y-112685468D01*
X106054950Y-112685468D01*
G37*
X106054950Y-112685468D02*
X106021183Y-112713180D01*
X105993470Y-112746948D01*
X105993467Y-112746951D01*
X105910588Y-112847939D01*
X105828411Y-113001684D01*
X105777804Y-113168508D01*
X105760718Y-113341997D01*
X105765000Y-113385473D01*
X105764999Y-119303422D01*
X105447820Y-119620601D01*
X105428397Y-119484093D01*
X105328222Y-119198801D01*
X105248261Y-119049208D01*
X104994080Y-118965525D01*
X104109605Y-119850000D01*
X104123748Y-119864143D01*
X103944143Y-120043748D01*
X103930000Y-120029605D01*
X103045525Y-120914080D01*
X103105105Y-121095049D01*
X102951495Y-121197688D01*
X102737688Y-121411495D01*
X102569701Y-121662905D01*
X102453989Y-121942257D01*
X102395000Y-122238816D01*
X102395000Y-122320198D01*
X99991355Y-119916553D01*
X102389009Y-119916553D01*
X102431603Y-120215907D01*
X102531778Y-120501199D01*
X102611739Y-120650792D01*
X102865920Y-120734475D01*
X103750395Y-119850000D01*
X102865920Y-118965525D01*
X102611739Y-119049208D01*
X102480842Y-119321775D01*
X102405635Y-119614642D01*
X102389009Y-119916553D01*
X99991355Y-119916553D01*
X97285000Y-117210199D01*
X97285000Y-117148061D01*
X97245226Y-116948102D01*
X97167205Y-116759744D01*
X97053937Y-116590226D01*
X96909774Y-116446063D01*
X96740256Y-116332795D01*
X96564718Y-116260084D01*
X99834802Y-112990000D01*
X102591687Y-112990000D01*
X102737688Y-113208505D01*
X102951495Y-113422312D01*
X103067763Y-113500000D01*
X102951495Y-113577688D01*
X102737688Y-113791495D01*
X102569701Y-114042905D01*
X102453989Y-114322257D01*
X102395000Y-114618816D01*
X102395000Y-114921184D01*
X102453989Y-115217743D01*
X102569701Y-115497095D01*
X102737688Y-115748505D01*
X102951495Y-115962312D01*
X103067763Y-116040000D01*
X102951495Y-116117688D01*
X102737688Y-116331495D01*
X102569701Y-116582905D01*
X102453989Y-116862257D01*
X102395000Y-117158816D01*
X102395000Y-117461184D01*
X102453989Y-117757743D01*
X102569701Y-118037095D01*
X102737688Y-118288505D01*
X102951495Y-118502312D01*
X103105105Y-118604951D01*
X103045525Y-118785920D01*
X103930000Y-119670395D01*
X104814475Y-118785920D01*
X104754895Y-118604951D01*
X104908505Y-118502312D01*
X105122312Y-118288505D01*
X105290299Y-118037095D01*
X105406011Y-117757743D01*
X105465000Y-117461184D01*
X105465000Y-117158816D01*
X105406011Y-116862257D01*
X105290299Y-116582905D01*
X105122312Y-116331495D01*
X104908505Y-116117688D01*
X104792237Y-116040000D01*
X104908505Y-115962312D01*
X105122312Y-115748505D01*
X105290299Y-115497095D01*
X105406011Y-115217743D01*
X105465000Y-114921184D01*
X105465000Y-114618816D01*
X105406011Y-114322257D01*
X105290299Y-114042905D01*
X105122312Y-113791495D01*
X104908505Y-113577688D01*
X104792237Y-113500000D01*
X104908505Y-113422312D01*
X105122312Y-113208505D01*
X105290299Y-112957095D01*
X105406011Y-112677743D01*
X105465000Y-112381184D01*
X105465000Y-112078816D01*
X105406011Y-111782257D01*
X105290299Y-111502905D01*
X105122312Y-111251495D01*
X104908505Y-111037688D01*
X104792237Y-110960000D01*
X104908505Y-110882312D01*
X105122312Y-110668505D01*
X105290299Y-110417095D01*
X105406011Y-110137743D01*
X105465000Y-109841184D01*
X105465000Y-109538816D01*
X105413731Y-109281070D01*
X106284803Y-108409999D01*
X110330416Y-108409999D01*
X106054950Y-112685468D01*
G36*
X110840226Y-110553941D02*
G01*
X111009744Y-110667209D01*
X111198102Y-110745230D01*
X111398061Y-110785004D01*
X111460199Y-110785004D01*
X112086200Y-111411005D01*
X112109998Y-111440004D01*
X112225723Y-111534977D01*
X112357752Y-111605549D01*
X112501013Y-111649006D01*
X112612666Y-111660003D01*
X112612675Y-111660003D01*
X112649998Y-111663679D01*
X112687321Y-111660003D01*
X135214990Y-111660003D01*
X135214990Y-111851939D01*
X135243591Y-111995726D01*
X135198102Y-112004774D01*
X135009744Y-112082795D01*
X134840226Y-112196063D01*
X134796289Y-112240000D01*
X110564801Y-112240000D01*
X110535000Y-112210199D01*
X110535000Y-112148061D01*
X110495226Y-111948102D01*
X110417205Y-111759744D01*
X110303937Y-111590226D01*
X110159774Y-111446063D01*
X109990256Y-111332795D01*
X109934057Y-111309516D01*
X110764929Y-110478644D01*
X110840226Y-110553941D01*
X110840226Y-110553941D01*
G37*
X110840226Y-110553941D02*
X111009744Y-110667209D01*
X111198102Y-110745230D01*
X111398061Y-110785004D01*
X111460199Y-110785004D01*
X112086200Y-111411005D01*
X112109998Y-111440004D01*
X112225723Y-111534977D01*
X112357752Y-111605549D01*
X112501013Y-111649006D01*
X112612666Y-111660003D01*
X112612675Y-111660003D01*
X112649998Y-111663679D01*
X112687321Y-111660003D01*
X135214990Y-111660003D01*
X135214990Y-111851939D01*
X135243591Y-111995726D01*
X135198102Y-112004774D01*
X135009744Y-112082795D01*
X134840226Y-112196063D01*
X134796289Y-112240000D01*
X110564801Y-112240000D01*
X110535000Y-112210199D01*
X110535000Y-112148061D01*
X110495226Y-111948102D01*
X110417205Y-111759744D01*
X110303937Y-111590226D01*
X110159774Y-111446063D01*
X109990256Y-111332795D01*
X109934057Y-111309516D01*
X110764929Y-110478644D01*
X110840226Y-110553941D01*
G36*
X134241427Y-108514999D02*
G01*
X114024579Y-108514999D01*
X113919579Y-108409999D01*
X134346427Y-108409999D01*
X134241427Y-108514999D01*
X134241427Y-108514999D01*
G37*
X134241427Y-108514999D02*
X114024579Y-108514999D01*
X113919579Y-108409999D01*
X134346427Y-108409999D01*
X134241427Y-108514999D01*
M02*
