M48
; DRILL file {KiCad (5.1.0)-1} date 23/05/2019 19:45:31
; FORMAT={3:3/ absolute / metric / suppress leading zeros}
; #@! TF.CreationDate,2019-05-23T19:45:31+01:00
; #@! TF.GenerationSoftware,Kicad,Pcbnew,(5.1.0)-1
; #@! TF.FileFunction,Plated,1,2,PTH
FMAT,2
METRIC,TZ
T1C0.400
T2C0.750
T3C0.900
T4C1.000
T5C1.016
%
G90
G05
T1
X84500Y-124500
X88000Y-121000
X89250Y-118500
X90750Y-121750
X96250Y-117250
X109500Y-112250
X111500Y-109750
X120000Y-112000
X121500Y-108500
X121750Y-122000
X135250Y-110000
X135500Y-107250
X135500Y-113000
X136000Y-117000
X136000Y-121000
X136250Y-111750
X137250Y-114000
T2
X118500Y-125250
X120500Y-125250
X150750Y-111900
X150750Y-113900
X125750Y-125250
X127750Y-125250
X144250Y-125250
X146250Y-125250
X150750Y-119850
X150750Y-121850
X132950Y-125250
X134950Y-125250
T3
X74710Y-117250
X77250Y-117250
T4
X108500Y-128250
X111040Y-128250
X113580Y-128250
X125500Y-104250
X128040Y-104250
X130580Y-104250
X133120Y-104250
X135660Y-104250
X138200Y-104250
X82500Y-130000
X85040Y-130000
X87580Y-130000
X113750Y-118000
X116290Y-118000
X121460Y-118000
X124000Y-118000
T5
X81070Y-104610
X81070Y-107150
X81070Y-109690
X81070Y-112230
X81070Y-114770
X81070Y-117310
X81070Y-119850
X81070Y-122390
X103930Y-104610
X103930Y-107150
X103930Y-109690
X103930Y-112230
X103930Y-114770
X103930Y-117310
X103930Y-119850
X103930Y-122390
T0
M30
