G04 #@! TF.GenerationSoftware,KiCad,Pcbnew,(5.1.0)-1*
G04 #@! TF.CreationDate,2019-05-23T19:45:29+01:00*
G04 #@! TF.ProjectId,ESPControllerCircuit,45535043-6f6e-4747-926f-6c6c65724369,rev?*
G04 #@! TF.SameCoordinates,Original*
G04 #@! TF.FileFunction,Legend,Top*
G04 #@! TF.FilePolarity,Positive*
%FSLAX46Y46*%
G04 Gerber Fmt 4.6, Leading zero omitted, Abs format (unit mm)*
G04 Created by KiCad (PCBNEW (5.1.0)-1) date 2019-05-23 19:45:29*
%MOMM*%
%LPD*%
G04 APERTURE LIST*
%ADD10C,0.150000*%
%ADD11C,0.250000*%
%ADD12C,0.120000*%
G04 APERTURE END LIST*
D10*
X82559523Y-126952380D02*
X82750000Y-126952380D01*
X82845238Y-127000000D01*
X82940476Y-127095238D01*
X82988095Y-127285714D01*
X82988095Y-127619047D01*
X82940476Y-127809523D01*
X82845238Y-127904761D01*
X82750000Y-127952380D01*
X82559523Y-127952380D01*
X82464285Y-127904761D01*
X82369047Y-127809523D01*
X82321428Y-127619047D01*
X82321428Y-127285714D01*
X82369047Y-127095238D01*
X82464285Y-127000000D01*
X82559523Y-126952380D01*
X83416666Y-127285714D02*
X83416666Y-128285714D01*
X83416666Y-127333333D02*
X83511904Y-127285714D01*
X83702380Y-127285714D01*
X83797619Y-127333333D01*
X83845238Y-127380952D01*
X83892857Y-127476190D01*
X83892857Y-127761904D01*
X83845238Y-127857142D01*
X83797619Y-127904761D01*
X83702380Y-127952380D01*
X83511904Y-127952380D01*
X83416666Y-127904761D01*
X84178571Y-127285714D02*
X84559523Y-127285714D01*
X84321428Y-126952380D02*
X84321428Y-127809523D01*
X84369047Y-127904761D01*
X84464285Y-127952380D01*
X84559523Y-127952380D01*
X84892857Y-127952380D02*
X84892857Y-127285714D01*
X84892857Y-126952380D02*
X84845238Y-127000000D01*
X84892857Y-127047619D01*
X84940476Y-127000000D01*
X84892857Y-126952380D01*
X84892857Y-127047619D01*
X85511904Y-127952380D02*
X85416666Y-127904761D01*
X85369047Y-127857142D01*
X85321428Y-127761904D01*
X85321428Y-127476190D01*
X85369047Y-127380952D01*
X85416666Y-127333333D01*
X85511904Y-127285714D01*
X85654761Y-127285714D01*
X85750000Y-127333333D01*
X85797619Y-127380952D01*
X85845238Y-127476190D01*
X85845238Y-127761904D01*
X85797619Y-127857142D01*
X85750000Y-127904761D01*
X85654761Y-127952380D01*
X85511904Y-127952380D01*
X86273809Y-127285714D02*
X86273809Y-127952380D01*
X86273809Y-127380952D02*
X86321428Y-127333333D01*
X86416666Y-127285714D01*
X86559523Y-127285714D01*
X86654761Y-127333333D01*
X86702380Y-127428571D01*
X86702380Y-127952380D01*
X87607142Y-127952380D02*
X87607142Y-127428571D01*
X87559523Y-127333333D01*
X87464285Y-127285714D01*
X87273809Y-127285714D01*
X87178571Y-127333333D01*
X87607142Y-127904761D02*
X87511904Y-127952380D01*
X87273809Y-127952380D01*
X87178571Y-127904761D01*
X87130952Y-127809523D01*
X87130952Y-127714285D01*
X87178571Y-127619047D01*
X87273809Y-127571428D01*
X87511904Y-127571428D01*
X87607142Y-127523809D01*
X88226190Y-127952380D02*
X88130952Y-127904761D01*
X88083333Y-127809523D01*
X88083333Y-126952380D01*
X155202380Y-115690476D02*
X155202380Y-115500000D01*
X155250000Y-115404761D01*
X155345238Y-115309523D01*
X155535714Y-115261904D01*
X155869047Y-115261904D01*
X156059523Y-115309523D01*
X156154761Y-115404761D01*
X156202380Y-115500000D01*
X156202380Y-115690476D01*
X156154761Y-115785714D01*
X156059523Y-115880952D01*
X155869047Y-115928571D01*
X155535714Y-115928571D01*
X155345238Y-115880952D01*
X155250000Y-115785714D01*
X155202380Y-115690476D01*
X155535714Y-114833333D02*
X156535714Y-114833333D01*
X155583333Y-114833333D02*
X155535714Y-114738095D01*
X155535714Y-114547619D01*
X155583333Y-114452380D01*
X155630952Y-114404761D01*
X155726190Y-114357142D01*
X156011904Y-114357142D01*
X156107142Y-114404761D01*
X156154761Y-114452380D01*
X156202380Y-114547619D01*
X156202380Y-114738095D01*
X156154761Y-114833333D01*
X155535714Y-114071428D02*
X155535714Y-113690476D01*
X155202380Y-113928571D02*
X156059523Y-113928571D01*
X156154761Y-113880952D01*
X156202380Y-113785714D01*
X156202380Y-113690476D01*
X156202380Y-113357142D02*
X155535714Y-113357142D01*
X155202380Y-113357142D02*
X155250000Y-113404761D01*
X155297619Y-113357142D01*
X155250000Y-113309523D01*
X155202380Y-113357142D01*
X155297619Y-113357142D01*
X156202380Y-112738095D02*
X156154761Y-112833333D01*
X156107142Y-112880952D01*
X156011904Y-112928571D01*
X155726190Y-112928571D01*
X155630952Y-112880952D01*
X155583333Y-112833333D01*
X155535714Y-112738095D01*
X155535714Y-112595238D01*
X155583333Y-112500000D01*
X155630952Y-112452380D01*
X155726190Y-112404761D01*
X156011904Y-112404761D01*
X156107142Y-112452380D01*
X156154761Y-112500000D01*
X156202380Y-112595238D01*
X156202380Y-112738095D01*
X155535714Y-111976190D02*
X156202380Y-111976190D01*
X155630952Y-111976190D02*
X155583333Y-111928571D01*
X155535714Y-111833333D01*
X155535714Y-111690476D01*
X155583333Y-111595238D01*
X155678571Y-111547619D01*
X156202380Y-111547619D01*
X156202380Y-110642857D02*
X155678571Y-110642857D01*
X155583333Y-110690476D01*
X155535714Y-110785714D01*
X155535714Y-110976190D01*
X155583333Y-111071428D01*
X156154761Y-110642857D02*
X156202380Y-110738095D01*
X156202380Y-110976190D01*
X156154761Y-111071428D01*
X156059523Y-111119047D01*
X155964285Y-111119047D01*
X155869047Y-111071428D01*
X155821428Y-110976190D01*
X155821428Y-110738095D01*
X155773809Y-110642857D01*
X156202380Y-110023809D02*
X156154761Y-110119047D01*
X156059523Y-110166666D01*
X155202380Y-110166666D01*
X155202380Y-123690476D02*
X155202380Y-123500000D01*
X155250000Y-123404761D01*
X155345238Y-123309523D01*
X155535714Y-123261904D01*
X155869047Y-123261904D01*
X156059523Y-123309523D01*
X156154761Y-123404761D01*
X156202380Y-123500000D01*
X156202380Y-123690476D01*
X156154761Y-123785714D01*
X156059523Y-123880952D01*
X155869047Y-123928571D01*
X155535714Y-123928571D01*
X155345238Y-123880952D01*
X155250000Y-123785714D01*
X155202380Y-123690476D01*
X155535714Y-122833333D02*
X156535714Y-122833333D01*
X155583333Y-122833333D02*
X155535714Y-122738095D01*
X155535714Y-122547619D01*
X155583333Y-122452380D01*
X155630952Y-122404761D01*
X155726190Y-122357142D01*
X156011904Y-122357142D01*
X156107142Y-122404761D01*
X156154761Y-122452380D01*
X156202380Y-122547619D01*
X156202380Y-122738095D01*
X156154761Y-122833333D01*
X155535714Y-122071428D02*
X155535714Y-121690476D01*
X155202380Y-121928571D02*
X156059523Y-121928571D01*
X156154761Y-121880952D01*
X156202380Y-121785714D01*
X156202380Y-121690476D01*
X156202380Y-121357142D02*
X155535714Y-121357142D01*
X155202380Y-121357142D02*
X155250000Y-121404761D01*
X155297619Y-121357142D01*
X155250000Y-121309523D01*
X155202380Y-121357142D01*
X155297619Y-121357142D01*
X156202380Y-120738095D02*
X156154761Y-120833333D01*
X156107142Y-120880952D01*
X156011904Y-120928571D01*
X155726190Y-120928571D01*
X155630952Y-120880952D01*
X155583333Y-120833333D01*
X155535714Y-120738095D01*
X155535714Y-120595238D01*
X155583333Y-120500000D01*
X155630952Y-120452380D01*
X155726190Y-120404761D01*
X156011904Y-120404761D01*
X156107142Y-120452380D01*
X156154761Y-120500000D01*
X156202380Y-120595238D01*
X156202380Y-120738095D01*
X155535714Y-119976190D02*
X156202380Y-119976190D01*
X155630952Y-119976190D02*
X155583333Y-119928571D01*
X155535714Y-119833333D01*
X155535714Y-119690476D01*
X155583333Y-119595238D01*
X155678571Y-119547619D01*
X156202380Y-119547619D01*
X156202380Y-118642857D02*
X155678571Y-118642857D01*
X155583333Y-118690476D01*
X155535714Y-118785714D01*
X155535714Y-118976190D01*
X155583333Y-119071428D01*
X156154761Y-118642857D02*
X156202380Y-118738095D01*
X156202380Y-118976190D01*
X156154761Y-119071428D01*
X156059523Y-119119047D01*
X155964285Y-119119047D01*
X155869047Y-119071428D01*
X155821428Y-118976190D01*
X155821428Y-118738095D01*
X155773809Y-118642857D01*
X156202380Y-118023809D02*
X156154761Y-118119047D01*
X156059523Y-118166666D01*
X155202380Y-118166666D01*
X106785714Y-131166666D02*
X107261904Y-131166666D01*
X106690476Y-131452380D02*
X107023809Y-130452380D01*
X107357142Y-131452380D01*
X107880952Y-130452380D02*
X107976190Y-130452380D01*
X108071428Y-130500000D01*
X108119047Y-130547619D01*
X108166666Y-130642857D01*
X108214285Y-130833333D01*
X108214285Y-131071428D01*
X108166666Y-131261904D01*
X108119047Y-131357142D01*
X108071428Y-131404761D01*
X107976190Y-131452380D01*
X107880952Y-131452380D01*
X107785714Y-131404761D01*
X107738095Y-131357142D01*
X107690476Y-131261904D01*
X107642857Y-131071428D01*
X107642857Y-130833333D01*
X107690476Y-130642857D01*
X107738095Y-130547619D01*
X107785714Y-130500000D01*
X107880952Y-130452380D01*
X109738095Y-130500000D02*
X109642857Y-130452380D01*
X109500000Y-130452380D01*
X109357142Y-130500000D01*
X109261904Y-130595238D01*
X109214285Y-130690476D01*
X109166666Y-130880952D01*
X109166666Y-131023809D01*
X109214285Y-131214285D01*
X109261904Y-131309523D01*
X109357142Y-131404761D01*
X109500000Y-131452380D01*
X109595238Y-131452380D01*
X109738095Y-131404761D01*
X109785714Y-131357142D01*
X109785714Y-131023809D01*
X109595238Y-131023809D01*
X110214285Y-131452380D02*
X110214285Y-130452380D01*
X110785714Y-131452380D01*
X110785714Y-130452380D01*
X111261904Y-131452380D02*
X111261904Y-130452380D01*
X111500000Y-130452380D01*
X111642857Y-130500000D01*
X111738095Y-130595238D01*
X111785714Y-130690476D01*
X111833333Y-130880952D01*
X111833333Y-131023809D01*
X111785714Y-131214285D01*
X111738095Y-131309523D01*
X111642857Y-131404761D01*
X111500000Y-131452380D01*
X111261904Y-131452380D01*
X113011904Y-130452380D02*
X113630952Y-130452380D01*
X113297619Y-130833333D01*
X113440476Y-130833333D01*
X113535714Y-130880952D01*
X113583333Y-130928571D01*
X113630952Y-131023809D01*
X113630952Y-131261904D01*
X113583333Y-131357142D01*
X113535714Y-131404761D01*
X113440476Y-131452380D01*
X113154761Y-131452380D01*
X113059523Y-131404761D01*
X113011904Y-131357142D01*
X113916666Y-130452380D02*
X114250000Y-131452380D01*
X114583333Y-130452380D01*
X114821428Y-130452380D02*
X115440476Y-130452380D01*
X115107142Y-130833333D01*
X115250000Y-130833333D01*
X115345238Y-130880952D01*
X115392857Y-130928571D01*
X115440476Y-131023809D01*
X115440476Y-131261904D01*
X115392857Y-131357142D01*
X115345238Y-131404761D01*
X115250000Y-131452380D01*
X114964285Y-131452380D01*
X114869047Y-131404761D01*
X114821428Y-131357142D01*
X106583332Y-115202380D02*
X106583332Y-114202380D01*
X106821428Y-114202380D01*
X106964285Y-114250000D01*
X107059523Y-114345238D01*
X107107142Y-114440476D01*
X107154761Y-114630952D01*
X107154761Y-114773809D01*
X107107142Y-114964285D01*
X107059523Y-115059523D01*
X106964285Y-115154761D01*
X106821428Y-115202380D01*
X106583332Y-115202380D01*
X107488094Y-114202380D02*
X108107142Y-114202380D01*
X107773808Y-114583333D01*
X107916666Y-114583333D01*
X108011904Y-114630952D01*
X108059523Y-114678571D01*
X108107142Y-114773809D01*
X108107142Y-115011904D01*
X108059523Y-115107142D01*
X108011904Y-115154761D01*
X107916666Y-115202380D01*
X107630951Y-115202380D01*
X107535713Y-115154761D01*
X107488094Y-115107142D01*
X106583332Y-117952380D02*
X106583332Y-116952380D01*
X106821428Y-116952380D01*
X106964285Y-117000000D01*
X107059523Y-117095238D01*
X107107142Y-117190476D01*
X107154761Y-117380952D01*
X107154761Y-117523809D01*
X107107142Y-117714285D01*
X107059523Y-117809523D01*
X106964285Y-117904761D01*
X106821428Y-117952380D01*
X106583332Y-117952380D01*
X107583332Y-117428571D02*
X107916666Y-117428571D01*
X108059523Y-117952380D02*
X107583332Y-117952380D01*
X107583332Y-116952380D01*
X108059523Y-116952380D01*
X108821428Y-117428571D02*
X108964285Y-117476190D01*
X109011904Y-117523809D01*
X109059523Y-117619047D01*
X109059523Y-117761904D01*
X109011904Y-117857142D01*
X108964285Y-117904761D01*
X108869047Y-117952380D01*
X108488094Y-117952380D01*
X108488094Y-116952380D01*
X108821428Y-116952380D01*
X108916666Y-117000000D01*
X108964285Y-117047619D01*
X109011904Y-117142857D01*
X109011904Y-117238095D01*
X108964285Y-117333333D01*
X108916666Y-117380952D01*
X108821428Y-117428571D01*
X108488094Y-117428571D01*
X109488094Y-116952380D02*
X109488094Y-117761904D01*
X109535713Y-117857142D01*
X109583332Y-117904761D01*
X109678570Y-117952380D01*
X109869047Y-117952380D01*
X109964285Y-117904761D01*
X110011904Y-117857142D01*
X110059523Y-117761904D01*
X110059523Y-116952380D01*
X111059523Y-117000000D02*
X110964285Y-116952380D01*
X110821428Y-116952380D01*
X110678570Y-117000000D01*
X110583332Y-117095238D01*
X110535713Y-117190476D01*
X110488094Y-117380952D01*
X110488094Y-117523809D01*
X110535713Y-117714285D01*
X110583332Y-117809523D01*
X110678570Y-117904761D01*
X110821428Y-117952380D01*
X110916666Y-117952380D01*
X111059523Y-117904761D01*
X111107142Y-117857142D01*
X111107142Y-117523809D01*
X110916666Y-117523809D01*
X106535713Y-112654761D02*
X106678570Y-112702380D01*
X106916666Y-112702380D01*
X107011904Y-112654761D01*
X107059523Y-112607142D01*
X107107142Y-112511904D01*
X107107142Y-112416666D01*
X107059523Y-112321428D01*
X107011904Y-112273809D01*
X106916666Y-112226190D01*
X106726190Y-112178571D01*
X106630951Y-112130952D01*
X106583332Y-112083333D01*
X106535713Y-111988095D01*
X106535713Y-111892857D01*
X106583332Y-111797619D01*
X106630951Y-111750000D01*
X106726190Y-111702380D01*
X106964285Y-111702380D01*
X107107142Y-111750000D01*
X108107142Y-112607142D02*
X108059523Y-112654761D01*
X107916666Y-112702380D01*
X107821428Y-112702380D01*
X107678570Y-112654761D01*
X107583332Y-112559523D01*
X107535713Y-112464285D01*
X107488094Y-112273809D01*
X107488094Y-112130952D01*
X107535713Y-111940476D01*
X107583332Y-111845238D01*
X107678570Y-111750000D01*
X107821428Y-111702380D01*
X107916666Y-111702380D01*
X108059523Y-111750000D01*
X108107142Y-111797619D01*
X109011904Y-112702380D02*
X108535713Y-112702380D01*
X108535713Y-111702380D01*
X106535714Y-110154761D02*
X106678571Y-110202380D01*
X106916666Y-110202380D01*
X107011904Y-110154761D01*
X107059523Y-110107142D01*
X107107142Y-110011904D01*
X107107142Y-109916666D01*
X107059523Y-109821428D01*
X107011904Y-109773809D01*
X106916666Y-109726190D01*
X106726190Y-109678571D01*
X106630952Y-109630952D01*
X106583333Y-109583333D01*
X106535714Y-109488095D01*
X106535714Y-109392857D01*
X106583333Y-109297619D01*
X106630952Y-109250000D01*
X106726190Y-109202380D01*
X106964285Y-109202380D01*
X107107142Y-109250000D01*
X107535714Y-110202380D02*
X107535714Y-109202380D01*
X107773809Y-109202380D01*
X107916666Y-109250000D01*
X108011904Y-109345238D01*
X108059523Y-109440476D01*
X108107142Y-109630952D01*
X108107142Y-109773809D01*
X108059523Y-109964285D01*
X108011904Y-110059523D01*
X107916666Y-110154761D01*
X107773809Y-110202380D01*
X107535714Y-110202380D01*
X108488095Y-109916666D02*
X108964285Y-109916666D01*
X108392857Y-110202380D02*
X108726190Y-109202380D01*
X109059523Y-110202380D01*
X107107142Y-119250000D02*
X107011904Y-119202380D01*
X106869047Y-119202380D01*
X106726189Y-119250000D01*
X106630951Y-119345238D01*
X106583332Y-119440476D01*
X106535713Y-119630952D01*
X106535713Y-119773809D01*
X106583332Y-119964285D01*
X106630951Y-120059523D01*
X106726189Y-120154761D01*
X106869047Y-120202380D01*
X106964285Y-120202380D01*
X107107142Y-120154761D01*
X107154761Y-120107142D01*
X107154761Y-119773809D01*
X106964285Y-119773809D01*
X107583332Y-120202380D02*
X107583332Y-119202380D01*
X108154761Y-120202380D01*
X108154761Y-119202380D01*
X108630951Y-120202380D02*
X108630951Y-119202380D01*
X108869047Y-119202380D01*
X109011904Y-119250000D01*
X109107142Y-119345238D01*
X109154761Y-119440476D01*
X109202380Y-119630952D01*
X109202380Y-119773809D01*
X109154761Y-119964285D01*
X109107142Y-120059523D01*
X109011904Y-120154761D01*
X108869047Y-120202380D01*
X108630951Y-120202380D01*
X107059523Y-121952380D02*
X106583333Y-121952380D01*
X106535714Y-122428571D01*
X106583333Y-122380952D01*
X106678571Y-122333333D01*
X106916666Y-122333333D01*
X107011904Y-122380952D01*
X107059523Y-122428571D01*
X107107142Y-122523809D01*
X107107142Y-122761904D01*
X107059523Y-122857142D01*
X107011904Y-122904761D01*
X106916666Y-122952380D01*
X106678571Y-122952380D01*
X106583333Y-122904761D01*
X106535714Y-122857142D01*
X107392857Y-121952380D02*
X107726190Y-122952380D01*
X108059523Y-121952380D01*
X76261904Y-121952380D02*
X76880952Y-121952380D01*
X76547619Y-122333333D01*
X76690476Y-122333333D01*
X76785714Y-122380952D01*
X76833333Y-122428571D01*
X76880952Y-122523809D01*
X76880952Y-122761904D01*
X76833333Y-122857142D01*
X76785714Y-122904761D01*
X76690476Y-122952380D01*
X76404761Y-122952380D01*
X76309523Y-122904761D01*
X76261904Y-122857142D01*
X77166666Y-121952380D02*
X77500000Y-122952380D01*
X77833333Y-121952380D01*
X78071428Y-121952380D02*
X78690476Y-121952380D01*
X78357142Y-122333333D01*
X78500000Y-122333333D01*
X78595238Y-122380952D01*
X78642857Y-122428571D01*
X78690476Y-122523809D01*
X78690476Y-122761904D01*
X78642857Y-122857142D01*
X78595238Y-122904761D01*
X78500000Y-122952380D01*
X78214285Y-122952380D01*
X78119047Y-122904761D01*
X78071428Y-122857142D01*
X74119047Y-119071428D02*
X74880952Y-119071428D01*
X74500000Y-119452380D02*
X74500000Y-118690476D01*
X128285714Y-109452380D02*
X127714285Y-109452380D01*
X128000000Y-109452380D02*
X128000000Y-108452380D01*
X127904761Y-108595238D01*
X127809523Y-108690476D01*
X127714285Y-108738095D01*
X150035714Y-122452380D02*
X149464285Y-122452380D01*
X149750000Y-122452380D02*
X149750000Y-121452380D01*
X149654761Y-121595238D01*
X149559523Y-121690476D01*
X149464285Y-121738095D01*
D11*
X111071428Y-111779761D02*
X111071428Y-109779761D01*
X111547619Y-109779761D01*
X111833333Y-109875000D01*
X112023809Y-110065476D01*
X112119047Y-110255952D01*
X112214285Y-110636904D01*
X112214285Y-110922619D01*
X112119047Y-111303571D01*
X112023809Y-111494047D01*
X111833333Y-111684523D01*
X111547619Y-111779761D01*
X111071428Y-111779761D01*
X113071428Y-111779761D02*
X113071428Y-109779761D01*
X114404761Y-110827380D02*
X114404761Y-111779761D01*
X113738095Y-109779761D02*
X114404761Y-110827380D01*
X115071428Y-109779761D01*
X116404761Y-110732142D02*
X116690476Y-110827380D01*
X116785714Y-110922619D01*
X116880952Y-111113095D01*
X116880952Y-111398809D01*
X116785714Y-111589285D01*
X116690476Y-111684523D01*
X116500000Y-111779761D01*
X115738095Y-111779761D01*
X115738095Y-109779761D01*
X116404761Y-109779761D01*
X116595238Y-109875000D01*
X116690476Y-109970238D01*
X116785714Y-110160714D01*
X116785714Y-110351190D01*
X116690476Y-110541666D01*
X116595238Y-110636904D01*
X116404761Y-110732142D01*
X115738095Y-110732142D01*
X117738095Y-111779761D02*
X117738095Y-109779761D01*
X118404761Y-111208333D01*
X119071428Y-109779761D01*
X119071428Y-111779761D01*
X119928571Y-111684523D02*
X120214285Y-111779761D01*
X120690476Y-111779761D01*
X120880952Y-111684523D01*
X120976190Y-111589285D01*
X121071428Y-111398809D01*
X121071428Y-111208333D01*
X120976190Y-111017857D01*
X120880952Y-110922619D01*
X120690476Y-110827380D01*
X120309523Y-110732142D01*
X120119047Y-110636904D01*
X120023809Y-110541666D01*
X119928571Y-110351190D01*
X119928571Y-110160714D01*
X120023809Y-109970238D01*
X120119047Y-109875000D01*
X120309523Y-109779761D01*
X120785714Y-109779761D01*
X121071428Y-109875000D01*
X123261904Y-110446428D02*
X123738095Y-111779761D01*
X124214285Y-110446428D01*
X125833333Y-110446428D02*
X125833333Y-111779761D01*
X125357142Y-109684523D02*
X124880952Y-111113095D01*
X126119047Y-111113095D01*
X112690476Y-114839285D02*
X112595238Y-114934523D01*
X112309523Y-115029761D01*
X112119047Y-115029761D01*
X111833333Y-114934523D01*
X111642857Y-114744047D01*
X111547619Y-114553571D01*
X111452380Y-114172619D01*
X111452380Y-113886904D01*
X111547619Y-113505952D01*
X111642857Y-113315476D01*
X111833333Y-113125000D01*
X112119047Y-113029761D01*
X112309523Y-113029761D01*
X112595238Y-113125000D01*
X112690476Y-113220238D01*
X113833333Y-115029761D02*
X113642857Y-114934523D01*
X113547619Y-114839285D01*
X113452380Y-114648809D01*
X113452380Y-114077380D01*
X113547619Y-113886904D01*
X113642857Y-113791666D01*
X113833333Y-113696428D01*
X114119047Y-113696428D01*
X114309523Y-113791666D01*
X114404761Y-113886904D01*
X114500000Y-114077380D01*
X114500000Y-114648809D01*
X114404761Y-114839285D01*
X114309523Y-114934523D01*
X114119047Y-115029761D01*
X113833333Y-115029761D01*
X115357142Y-113696428D02*
X115357142Y-115029761D01*
X115357142Y-113886904D02*
X115452380Y-113791666D01*
X115642857Y-113696428D01*
X115928571Y-113696428D01*
X116119047Y-113791666D01*
X116214285Y-113982142D01*
X116214285Y-115029761D01*
X116880952Y-113696428D02*
X117642857Y-113696428D01*
X117166666Y-113029761D02*
X117166666Y-114744047D01*
X117261904Y-114934523D01*
X117452380Y-115029761D01*
X117642857Y-115029761D01*
X118309523Y-115029761D02*
X118309523Y-113696428D01*
X118309523Y-114077380D02*
X118404761Y-113886904D01*
X118500000Y-113791666D01*
X118690476Y-113696428D01*
X118880952Y-113696428D01*
X119833333Y-115029761D02*
X119642857Y-114934523D01*
X119547619Y-114839285D01*
X119452380Y-114648809D01*
X119452380Y-114077380D01*
X119547619Y-113886904D01*
X119642857Y-113791666D01*
X119833333Y-113696428D01*
X120119047Y-113696428D01*
X120309523Y-113791666D01*
X120404761Y-113886904D01*
X120500000Y-114077380D01*
X120500000Y-114648809D01*
X120404761Y-114839285D01*
X120309523Y-114934523D01*
X120119047Y-115029761D01*
X119833333Y-115029761D01*
X121642857Y-115029761D02*
X121452380Y-114934523D01*
X121357142Y-114744047D01*
X121357142Y-113029761D01*
X122690476Y-115029761D02*
X122500000Y-114934523D01*
X122404761Y-114744047D01*
X122404761Y-113029761D01*
X124214285Y-114934523D02*
X124023809Y-115029761D01*
X123642857Y-115029761D01*
X123452380Y-114934523D01*
X123357142Y-114744047D01*
X123357142Y-113982142D01*
X123452380Y-113791666D01*
X123642857Y-113696428D01*
X124023809Y-113696428D01*
X124214285Y-113791666D01*
X124309523Y-113982142D01*
X124309523Y-114172619D01*
X123357142Y-114363095D01*
X125166666Y-115029761D02*
X125166666Y-113696428D01*
X125166666Y-114077380D02*
X125261904Y-113886904D01*
X125357142Y-113791666D01*
X125547619Y-113696428D01*
X125738095Y-113696428D01*
D12*
X88910000Y-131330000D02*
X88910000Y-128670000D01*
X83770000Y-131330000D02*
X88910000Y-131330000D01*
X83770000Y-128670000D02*
X88910000Y-128670000D01*
X83770000Y-131330000D02*
X83770000Y-128670000D01*
X82500000Y-131330000D02*
X81170000Y-131330000D01*
X81170000Y-131330000D02*
X81170000Y-130000000D01*
X157100000Y-113400000D02*
X152750000Y-113400000D01*
X152750000Y-113400000D02*
X152750000Y-112400000D01*
X152750000Y-112400000D02*
X157100000Y-112400000D01*
X150900000Y-114700000D02*
X150900000Y-115050000D01*
X150900000Y-115050000D02*
X149300000Y-115050000D01*
X149300000Y-115050000D02*
X149300000Y-115950000D01*
X149300000Y-115950000D02*
X157100000Y-115950000D01*
X157100000Y-115950000D02*
X157100000Y-109850000D01*
X157100000Y-109850000D02*
X149300000Y-109850000D01*
X149300000Y-109850000D02*
X149300000Y-110750000D01*
X149300000Y-110750000D02*
X150900000Y-110750000D01*
X150900000Y-110750000D02*
X150900000Y-111100000D01*
X150900000Y-115950000D02*
X150900000Y-115050000D01*
X150900000Y-109850000D02*
X150900000Y-110750000D01*
X153250000Y-115200000D02*
X154850000Y-115200000D01*
X154850000Y-115200000D02*
X154850000Y-114200000D01*
X154850000Y-114200000D02*
X153250000Y-114200000D01*
X153250000Y-114200000D02*
X153250000Y-115200000D01*
X153250000Y-110600000D02*
X154850000Y-110600000D01*
X154850000Y-110600000D02*
X154850000Y-111600000D01*
X154850000Y-111600000D02*
X153250000Y-111600000D01*
X153250000Y-111600000D02*
X153250000Y-110600000D01*
X154850000Y-114200000D02*
X157100000Y-114200000D01*
X154850000Y-114700000D02*
X157100000Y-114700000D01*
X150900000Y-114700000D02*
X149700000Y-114700000D01*
X157100000Y-121350000D02*
X152750000Y-121350000D01*
X152750000Y-121350000D02*
X152750000Y-120350000D01*
X152750000Y-120350000D02*
X157100000Y-120350000D01*
X150900000Y-122650000D02*
X150900000Y-123000000D01*
X150900000Y-123000000D02*
X149300000Y-123000000D01*
X149300000Y-123000000D02*
X149300000Y-123900000D01*
X149300000Y-123900000D02*
X157100000Y-123900000D01*
X157100000Y-123900000D02*
X157100000Y-117800000D01*
X157100000Y-117800000D02*
X149300000Y-117800000D01*
X149300000Y-117800000D02*
X149300000Y-118700000D01*
X149300000Y-118700000D02*
X150900000Y-118700000D01*
X150900000Y-118700000D02*
X150900000Y-119050000D01*
X150900000Y-123900000D02*
X150900000Y-123000000D01*
X150900000Y-117800000D02*
X150900000Y-118700000D01*
X153250000Y-123150000D02*
X154850000Y-123150000D01*
X154850000Y-123150000D02*
X154850000Y-122150000D01*
X154850000Y-122150000D02*
X153250000Y-122150000D01*
X153250000Y-122150000D02*
X153250000Y-123150000D01*
X153250000Y-118550000D02*
X154850000Y-118550000D01*
X154850000Y-118550000D02*
X154850000Y-119550000D01*
X154850000Y-119550000D02*
X153250000Y-119550000D01*
X153250000Y-119550000D02*
X153250000Y-118550000D01*
X154850000Y-122150000D02*
X157100000Y-122150000D01*
X154850000Y-122650000D02*
X157100000Y-122650000D01*
X150900000Y-122650000D02*
X149700000Y-122650000D01*
X133450000Y-131600000D02*
X133450000Y-127250000D01*
X133450000Y-127250000D02*
X134450000Y-127250000D01*
X134450000Y-127250000D02*
X134450000Y-131600000D01*
X132150000Y-125400000D02*
X131800000Y-125400000D01*
X131800000Y-125400000D02*
X131800000Y-123800000D01*
X131800000Y-123800000D02*
X130900000Y-123800000D01*
X130900000Y-123800000D02*
X130900000Y-131600000D01*
X130900000Y-131600000D02*
X137000000Y-131600000D01*
X137000000Y-131600000D02*
X137000000Y-123800000D01*
X137000000Y-123800000D02*
X136100000Y-123800000D01*
X136100000Y-123800000D02*
X136100000Y-125400000D01*
X136100000Y-125400000D02*
X135750000Y-125400000D01*
X130900000Y-125400000D02*
X131800000Y-125400000D01*
X137000000Y-125400000D02*
X136100000Y-125400000D01*
X131650000Y-127750000D02*
X131650000Y-129350000D01*
X131650000Y-129350000D02*
X132650000Y-129350000D01*
X132650000Y-129350000D02*
X132650000Y-127750000D01*
X132650000Y-127750000D02*
X131650000Y-127750000D01*
X136250000Y-127750000D02*
X136250000Y-129350000D01*
X136250000Y-129350000D02*
X135250000Y-129350000D01*
X135250000Y-129350000D02*
X135250000Y-127750000D01*
X135250000Y-127750000D02*
X136250000Y-127750000D01*
X132650000Y-129350000D02*
X132650000Y-131600000D01*
X132150000Y-129350000D02*
X132150000Y-131600000D01*
X132150000Y-125400000D02*
X132150000Y-124200000D01*
X126250000Y-131600000D02*
X126250000Y-127250000D01*
X126250000Y-127250000D02*
X127250000Y-127250000D01*
X127250000Y-127250000D02*
X127250000Y-131600000D01*
X124950000Y-125400000D02*
X124600000Y-125400000D01*
X124600000Y-125400000D02*
X124600000Y-123800000D01*
X124600000Y-123800000D02*
X123700000Y-123800000D01*
X123700000Y-123800000D02*
X123700000Y-131600000D01*
X123700000Y-131600000D02*
X129800000Y-131600000D01*
X129800000Y-131600000D02*
X129800000Y-123800000D01*
X129800000Y-123800000D02*
X128900000Y-123800000D01*
X128900000Y-123800000D02*
X128900000Y-125400000D01*
X128900000Y-125400000D02*
X128550000Y-125400000D01*
X123700000Y-125400000D02*
X124600000Y-125400000D01*
X129800000Y-125400000D02*
X128900000Y-125400000D01*
X124450000Y-127750000D02*
X124450000Y-129350000D01*
X124450000Y-129350000D02*
X125450000Y-129350000D01*
X125450000Y-129350000D02*
X125450000Y-127750000D01*
X125450000Y-127750000D02*
X124450000Y-127750000D01*
X129050000Y-127750000D02*
X129050000Y-129350000D01*
X129050000Y-129350000D02*
X128050000Y-129350000D01*
X128050000Y-129350000D02*
X128050000Y-127750000D01*
X128050000Y-127750000D02*
X129050000Y-127750000D01*
X125450000Y-129350000D02*
X125450000Y-131600000D01*
X124950000Y-129350000D02*
X124950000Y-131600000D01*
X124950000Y-125400000D02*
X124950000Y-124200000D01*
X114910000Y-129580000D02*
X114910000Y-126920000D01*
X109770000Y-129580000D02*
X114910000Y-129580000D01*
X109770000Y-126920000D02*
X114910000Y-126920000D01*
X109770000Y-129580000D02*
X109770000Y-126920000D01*
X108500000Y-129580000D02*
X107170000Y-129580000D01*
X107170000Y-129580000D02*
X107170000Y-128250000D01*
X72990000Y-117249538D02*
G75*
G03X78540000Y-118794830I2990000J-462D01*
G01*
X72990000Y-117250462D02*
G75*
G02X78540000Y-115705170I2990000J462D01*
G01*
X78480000Y-117250000D02*
G75*
G03X78480000Y-117250000I-2500000J0D01*
G01*
X78540000Y-118795000D02*
X78540000Y-115705000D01*
X120130000Y-116670000D02*
X120130000Y-119330000D01*
X122730000Y-116670000D02*
X120130000Y-116670000D01*
X122730000Y-119330000D02*
X120130000Y-119330000D01*
X122730000Y-116670000D02*
X122730000Y-119330000D01*
X124000000Y-116670000D02*
X125330000Y-116670000D01*
X125330000Y-116670000D02*
X125330000Y-118000000D01*
X139530000Y-105580000D02*
X139530000Y-102920000D01*
X126770000Y-105580000D02*
X139530000Y-105580000D01*
X126770000Y-102920000D02*
X139530000Y-102920000D01*
X126770000Y-105580000D02*
X126770000Y-102920000D01*
X125500000Y-105580000D02*
X124170000Y-105580000D01*
X124170000Y-105580000D02*
X124170000Y-104250000D01*
D10*
X130563000Y-108039000D02*
X138564000Y-108039000D01*
X138564000Y-118961000D02*
X130563000Y-118961000D01*
X138564000Y-108039000D02*
X138564000Y-118961000D01*
X130563000Y-118961000D02*
X130563000Y-108039000D01*
X135008000Y-108039000D02*
X135008000Y-108801000D01*
X135008000Y-108801000D02*
X133992000Y-108801000D01*
X133992000Y-108801000D02*
X133992000Y-108039000D01*
D12*
X91400000Y-122370000D02*
X92600000Y-122370000D01*
X92600000Y-124130000D02*
X91400000Y-124130000D01*
X91400000Y-118932500D02*
X92600000Y-118932500D01*
X92600000Y-120692500D02*
X91400000Y-120692500D01*
X141340000Y-125100000D02*
X140940000Y-125100000D01*
X140940000Y-125100000D02*
X140940000Y-123700000D01*
X141340000Y-125100000D02*
X141340000Y-129900000D01*
X138140000Y-125100000D02*
X138140000Y-129900000D01*
X144750000Y-131600000D02*
X144750000Y-127250000D01*
X144750000Y-127250000D02*
X145750000Y-127250000D01*
X145750000Y-127250000D02*
X145750000Y-131600000D01*
X143450000Y-125400000D02*
X143100000Y-125400000D01*
X143100000Y-125400000D02*
X143100000Y-123800000D01*
X143100000Y-123800000D02*
X142200000Y-123800000D01*
X142200000Y-123800000D02*
X142200000Y-131600000D01*
X142200000Y-131600000D02*
X148300000Y-131600000D01*
X148300000Y-131600000D02*
X148300000Y-123800000D01*
X148300000Y-123800000D02*
X147400000Y-123800000D01*
X147400000Y-123800000D02*
X147400000Y-125400000D01*
X147400000Y-125400000D02*
X147050000Y-125400000D01*
X142200000Y-125400000D02*
X143100000Y-125400000D01*
X148300000Y-125400000D02*
X147400000Y-125400000D01*
X142950000Y-127750000D02*
X142950000Y-129350000D01*
X142950000Y-129350000D02*
X143950000Y-129350000D01*
X143950000Y-129350000D02*
X143950000Y-127750000D01*
X143950000Y-127750000D02*
X142950000Y-127750000D01*
X147550000Y-127750000D02*
X147550000Y-129350000D01*
X147550000Y-129350000D02*
X146550000Y-129350000D01*
X146550000Y-129350000D02*
X146550000Y-127750000D01*
X146550000Y-127750000D02*
X147550000Y-127750000D01*
X143950000Y-129350000D02*
X143950000Y-131600000D01*
X143450000Y-129350000D02*
X143450000Y-131600000D01*
X143450000Y-125400000D02*
X143450000Y-124200000D01*
X119000000Y-131600000D02*
X119000000Y-127250000D01*
X119000000Y-127250000D02*
X120000000Y-127250000D01*
X120000000Y-127250000D02*
X120000000Y-131600000D01*
X117700000Y-125400000D02*
X117350000Y-125400000D01*
X117350000Y-125400000D02*
X117350000Y-123800000D01*
X117350000Y-123800000D02*
X116450000Y-123800000D01*
X116450000Y-123800000D02*
X116450000Y-131600000D01*
X116450000Y-131600000D02*
X122550000Y-131600000D01*
X122550000Y-131600000D02*
X122550000Y-123800000D01*
X122550000Y-123800000D02*
X121650000Y-123800000D01*
X121650000Y-123800000D02*
X121650000Y-125400000D01*
X121650000Y-125400000D02*
X121300000Y-125400000D01*
X116450000Y-125400000D02*
X117350000Y-125400000D01*
X122550000Y-125400000D02*
X121650000Y-125400000D01*
X117200000Y-127750000D02*
X117200000Y-129350000D01*
X117200000Y-129350000D02*
X118200000Y-129350000D01*
X118200000Y-129350000D02*
X118200000Y-127750000D01*
X118200000Y-127750000D02*
X117200000Y-127750000D01*
X121800000Y-127750000D02*
X121800000Y-129350000D01*
X121800000Y-129350000D02*
X120800000Y-129350000D01*
X120800000Y-129350000D02*
X120800000Y-127750000D01*
X120800000Y-127750000D02*
X121800000Y-127750000D01*
X118200000Y-129350000D02*
X118200000Y-131600000D01*
X117700000Y-129350000D02*
X117700000Y-131600000D01*
X117700000Y-125400000D02*
X117700000Y-124200000D01*
X91400000Y-115495000D02*
X92600000Y-115495000D01*
X92600000Y-117255000D02*
X91400000Y-117255000D01*
X91400000Y-112057500D02*
X92600000Y-112057500D01*
X92600000Y-113817500D02*
X91400000Y-113817500D01*
X117620000Y-119330000D02*
X117620000Y-116670000D01*
X115020000Y-119330000D02*
X117620000Y-119330000D01*
X115020000Y-116670000D02*
X117620000Y-116670000D01*
X115020000Y-119330000D02*
X115020000Y-116670000D01*
X113750000Y-119330000D02*
X112420000Y-119330000D01*
X112420000Y-119330000D02*
X112420000Y-118000000D01*
X75400000Y-110370000D02*
X76600000Y-110370000D01*
X76600000Y-112130000D02*
X75400000Y-112130000D01*
D10*
X79170000Y-124800000D02*
X79170000Y-124800000D01*
X80330000Y-124800000D02*
X79170000Y-124800000D01*
X81320000Y-125800000D02*
G75*
G03X80320000Y-124800000I-1000000J0D01*
G01*
X81320000Y-131800000D02*
X81320000Y-125800000D01*
X105830000Y-98720000D02*
G75*
G03X103830000Y-96720000I-2000000J0D01*
G01*
X81170000Y-96720000D02*
G75*
G03X79170000Y-98720000I0J-2000000D01*
G01*
X97400000Y-131800000D02*
X105829999Y-131800000D01*
X97400000Y-130800000D02*
X97400000Y-131800000D01*
X89180000Y-130800000D02*
X97400000Y-130800000D01*
X89180000Y-131800000D02*
X89180000Y-130800000D01*
X81320000Y-131800000D02*
X89180000Y-131800000D01*
X79170000Y-98720000D02*
X79170000Y-124800000D01*
X103830000Y-96720000D02*
X81170000Y-96720000D01*
X105830000Y-131800000D02*
X105830000Y-98720000D01*
X79416666Y-130452380D02*
X79416666Y-131166666D01*
X79369047Y-131309523D01*
X79273809Y-131404761D01*
X79130952Y-131452380D01*
X79035714Y-131452380D01*
X80369047Y-130452380D02*
X79892857Y-130452380D01*
X79845238Y-130928571D01*
X79892857Y-130880952D01*
X79988095Y-130833333D01*
X80226190Y-130833333D01*
X80321428Y-130880952D01*
X80369047Y-130928571D01*
X80416666Y-131023809D01*
X80416666Y-131261904D01*
X80369047Y-131357142D01*
X80321428Y-131404761D01*
X80226190Y-131452380D01*
X79988095Y-131452380D01*
X79892857Y-131404761D01*
X79845238Y-131357142D01*
X147702380Y-110833333D02*
X148416666Y-110833333D01*
X148559523Y-110880952D01*
X148654761Y-110976190D01*
X148702380Y-111119047D01*
X148702380Y-111214285D01*
X148035714Y-109928571D02*
X148702380Y-109928571D01*
X147654761Y-110166666D02*
X148369047Y-110404761D01*
X148369047Y-109785714D01*
X147702380Y-118583333D02*
X148416666Y-118583333D01*
X148559523Y-118630952D01*
X148654761Y-118726190D01*
X148702380Y-118869047D01*
X148702380Y-118964285D01*
X147702380Y-118202380D02*
X147702380Y-117583333D01*
X148083333Y-117916666D01*
X148083333Y-117773809D01*
X148130952Y-117678571D01*
X148178571Y-117630952D01*
X148273809Y-117583333D01*
X148511904Y-117583333D01*
X148607142Y-117630952D01*
X148654761Y-117678571D01*
X148702380Y-117773809D01*
X148702380Y-118059523D01*
X148654761Y-118154761D01*
X148607142Y-118202380D01*
X134116666Y-122252380D02*
X134116666Y-122966666D01*
X134069047Y-123109523D01*
X133973809Y-123204761D01*
X133830952Y-123252380D01*
X133735714Y-123252380D01*
X134545238Y-122347619D02*
X134592857Y-122300000D01*
X134688095Y-122252380D01*
X134926190Y-122252380D01*
X135021428Y-122300000D01*
X135069047Y-122347619D01*
X135116666Y-122442857D01*
X135116666Y-122538095D01*
X135069047Y-122680952D01*
X134497619Y-123252380D01*
X135116666Y-123252380D01*
X126916666Y-122252380D02*
X126916666Y-122966666D01*
X126869047Y-123109523D01*
X126773809Y-123204761D01*
X126630952Y-123252380D01*
X126535714Y-123252380D01*
X127916666Y-123252380D02*
X127345238Y-123252380D01*
X127630952Y-123252380D02*
X127630952Y-122252380D01*
X127535714Y-122395238D01*
X127440476Y-122490476D01*
X127345238Y-122538095D01*
X109250000Y-126107142D02*
X109202380Y-126154761D01*
X109059523Y-126202380D01*
X108964285Y-126202380D01*
X108821428Y-126154761D01*
X108726190Y-126059523D01*
X108678571Y-125964285D01*
X108630952Y-125773809D01*
X108630952Y-125630952D01*
X108678571Y-125440476D01*
X108726190Y-125345238D01*
X108821428Y-125250000D01*
X108964285Y-125202380D01*
X109059523Y-125202380D01*
X109202380Y-125250000D01*
X109250000Y-125297619D01*
X109440476Y-126297619D02*
X110202380Y-126297619D01*
X110392857Y-126154761D02*
X110535714Y-126202380D01*
X110773809Y-126202380D01*
X110869047Y-126154761D01*
X110916666Y-126107142D01*
X110964285Y-126011904D01*
X110964285Y-125916666D01*
X110916666Y-125821428D01*
X110869047Y-125773809D01*
X110773809Y-125726190D01*
X110583333Y-125678571D01*
X110488095Y-125630952D01*
X110440476Y-125583333D01*
X110392857Y-125488095D01*
X110392857Y-125392857D01*
X110440476Y-125297619D01*
X110488095Y-125250000D01*
X110583333Y-125202380D01*
X110821428Y-125202380D01*
X110964285Y-125250000D01*
X111392857Y-125678571D02*
X111726190Y-125678571D01*
X111869047Y-126202380D02*
X111392857Y-126202380D01*
X111392857Y-125202380D01*
X111869047Y-125202380D01*
X112297619Y-126202380D02*
X112297619Y-125202380D01*
X112869047Y-126202380D01*
X112869047Y-125202380D01*
X113869047Y-126202380D02*
X113297619Y-126202380D01*
X113583333Y-126202380D02*
X113583333Y-125202380D01*
X113488095Y-125345238D01*
X113392857Y-125440476D01*
X113297619Y-125488095D01*
X73261904Y-121452380D02*
X73261904Y-120452380D01*
X73500000Y-120452380D01*
X73642857Y-120500000D01*
X73738095Y-120595238D01*
X73785714Y-120690476D01*
X73833333Y-120880952D01*
X73833333Y-121023809D01*
X73785714Y-121214285D01*
X73738095Y-121309523D01*
X73642857Y-121404761D01*
X73500000Y-121452380D01*
X73261904Y-121452380D01*
X74785714Y-121452380D02*
X74214285Y-121452380D01*
X74500000Y-121452380D02*
X74500000Y-120452380D01*
X74404761Y-120595238D01*
X74309523Y-120690476D01*
X74214285Y-120738095D01*
X119702380Y-119952380D02*
X119940476Y-120952380D01*
X120130952Y-120238095D01*
X120321428Y-120952380D01*
X120559523Y-119952380D01*
X120940476Y-120952380D02*
X120940476Y-119952380D01*
X121750000Y-120428571D02*
X121416666Y-120428571D01*
X121416666Y-120952380D02*
X121416666Y-119952380D01*
X121892857Y-119952380D01*
X122273809Y-120952380D02*
X122273809Y-119952380D01*
X122511904Y-121047619D02*
X123273809Y-121047619D01*
X124083333Y-120952380D02*
X123750000Y-120476190D01*
X123511904Y-120952380D02*
X123511904Y-119952380D01*
X123892857Y-119952380D01*
X123988095Y-120000000D01*
X124035714Y-120047619D01*
X124083333Y-120142857D01*
X124083333Y-120285714D01*
X124035714Y-120380952D01*
X123988095Y-120428571D01*
X123892857Y-120476190D01*
X123511904Y-120476190D01*
X124464285Y-120904761D02*
X124607142Y-120952380D01*
X124845238Y-120952380D01*
X124940476Y-120904761D01*
X124988095Y-120857142D01*
X125035714Y-120761904D01*
X125035714Y-120666666D01*
X124988095Y-120571428D01*
X124940476Y-120523809D01*
X124845238Y-120476190D01*
X124654761Y-120428571D01*
X124559523Y-120380952D01*
X124511904Y-120333333D01*
X124464285Y-120238095D01*
X124464285Y-120142857D01*
X124511904Y-120047619D01*
X124559523Y-120000000D01*
X124654761Y-119952380D01*
X124892857Y-119952380D01*
X125035714Y-120000000D01*
X125321428Y-119952380D02*
X125892857Y-119952380D01*
X125607142Y-120952380D02*
X125607142Y-119952380D01*
X126750000Y-120952380D02*
X126178571Y-120952380D01*
X126464285Y-120952380D02*
X126464285Y-119952380D01*
X126369047Y-120095238D01*
X126273809Y-120190476D01*
X126178571Y-120238095D01*
X129452380Y-106202380D02*
X129452380Y-106916666D01*
X129404761Y-107059523D01*
X129309523Y-107154761D01*
X129166666Y-107202380D01*
X129071428Y-107202380D01*
X130500000Y-107202380D02*
X130166666Y-106726190D01*
X129928571Y-107202380D02*
X129928571Y-106202380D01*
X130309523Y-106202380D01*
X130404761Y-106250000D01*
X130452380Y-106297619D01*
X130500000Y-106392857D01*
X130500000Y-106535714D01*
X130452380Y-106630952D01*
X130404761Y-106678571D01*
X130309523Y-106726190D01*
X129928571Y-106726190D01*
X130928571Y-106678571D02*
X131261904Y-106678571D01*
X131404761Y-107202380D02*
X130928571Y-107202380D01*
X130928571Y-106202380D01*
X131404761Y-106202380D01*
X132309523Y-107202380D02*
X131833333Y-107202380D01*
X131833333Y-106202380D01*
X132595238Y-106916666D02*
X133071428Y-106916666D01*
X132500000Y-107202380D02*
X132833333Y-106202380D01*
X133166666Y-107202380D01*
X133690476Y-106726190D02*
X133690476Y-107202380D01*
X133357142Y-106202380D02*
X133690476Y-106726190D01*
X134023809Y-106202380D01*
X134880952Y-107202380D02*
X134309523Y-107202380D01*
X134595238Y-107202380D02*
X134595238Y-106202380D01*
X134500000Y-106345238D01*
X134404761Y-106440476D01*
X134309523Y-106488095D01*
X133738095Y-117452380D02*
X133738095Y-118261904D01*
X133785714Y-118357142D01*
X133833333Y-118404761D01*
X133928571Y-118452380D01*
X134119047Y-118452380D01*
X134214285Y-118404761D01*
X134261904Y-118357142D01*
X134309523Y-118261904D01*
X134309523Y-117452380D01*
X134690476Y-117452380D02*
X135309523Y-117452380D01*
X134976190Y-117833333D01*
X135119047Y-117833333D01*
X135214285Y-117880952D01*
X135261904Y-117928571D01*
X135309523Y-118023809D01*
X135309523Y-118261904D01*
X135261904Y-118357142D01*
X135214285Y-118404761D01*
X135119047Y-118452380D01*
X134833333Y-118452380D01*
X134738095Y-118404761D01*
X134690476Y-118357142D01*
X129845238Y-120452380D02*
X129845238Y-119452380D01*
X130226190Y-119452380D01*
X130321428Y-119500000D01*
X130369047Y-119547619D01*
X130416666Y-119642857D01*
X130416666Y-119785714D01*
X130369047Y-119880952D01*
X130321428Y-119928571D01*
X130226190Y-119976190D01*
X129845238Y-119976190D01*
X131416666Y-120357142D02*
X131369047Y-120404761D01*
X131226190Y-120452380D01*
X131130952Y-120452380D01*
X130988095Y-120404761D01*
X130892857Y-120309523D01*
X130845238Y-120214285D01*
X130797619Y-120023809D01*
X130797619Y-119880952D01*
X130845238Y-119690476D01*
X130892857Y-119595238D01*
X130988095Y-119500000D01*
X131130952Y-119452380D01*
X131226190Y-119452380D01*
X131369047Y-119500000D01*
X131416666Y-119547619D01*
X132178571Y-119928571D02*
X131845238Y-119928571D01*
X131845238Y-120452380D02*
X131845238Y-119452380D01*
X132321428Y-119452380D01*
X132845238Y-119880952D02*
X132750000Y-119833333D01*
X132702380Y-119785714D01*
X132654761Y-119690476D01*
X132654761Y-119642857D01*
X132702380Y-119547619D01*
X132750000Y-119500000D01*
X132845238Y-119452380D01*
X133035714Y-119452380D01*
X133130952Y-119500000D01*
X133178571Y-119547619D01*
X133226190Y-119642857D01*
X133226190Y-119690476D01*
X133178571Y-119785714D01*
X133130952Y-119833333D01*
X133035714Y-119880952D01*
X132845238Y-119880952D01*
X132750000Y-119928571D01*
X132702380Y-119976190D01*
X132654761Y-120071428D01*
X132654761Y-120261904D01*
X132702380Y-120357142D01*
X132750000Y-120404761D01*
X132845238Y-120452380D01*
X133035714Y-120452380D01*
X133130952Y-120404761D01*
X133178571Y-120357142D01*
X133226190Y-120261904D01*
X133226190Y-120071428D01*
X133178571Y-119976190D01*
X133130952Y-119928571D01*
X133035714Y-119880952D01*
X134130952Y-119452380D02*
X133654761Y-119452380D01*
X133607142Y-119928571D01*
X133654761Y-119880952D01*
X133750000Y-119833333D01*
X133988095Y-119833333D01*
X134083333Y-119880952D01*
X134130952Y-119928571D01*
X134178571Y-120023809D01*
X134178571Y-120261904D01*
X134130952Y-120357142D01*
X134083333Y-120404761D01*
X133988095Y-120452380D01*
X133750000Y-120452380D01*
X133654761Y-120404761D01*
X133607142Y-120357142D01*
X134511904Y-119452380D02*
X135178571Y-119452380D01*
X134750000Y-120452380D01*
X135988095Y-119785714D02*
X135988095Y-120452380D01*
X135750000Y-119404761D02*
X135511904Y-120119047D01*
X136130952Y-120119047D01*
X136464285Y-120166666D02*
X136940476Y-120166666D01*
X136369047Y-120452380D02*
X136702380Y-119452380D01*
X137035714Y-120452380D01*
X137226190Y-119452380D02*
X137797619Y-119452380D01*
X137511904Y-120452380D02*
X137511904Y-119452380D01*
X138845238Y-119404761D02*
X137988095Y-120690476D01*
X139083333Y-119452380D02*
X139702380Y-119452380D01*
X139369047Y-119833333D01*
X139511904Y-119833333D01*
X139607142Y-119880952D01*
X139654761Y-119928571D01*
X139702380Y-120023809D01*
X139702380Y-120261904D01*
X139654761Y-120357142D01*
X139607142Y-120404761D01*
X139511904Y-120452380D01*
X139226190Y-120452380D01*
X139130952Y-120404761D01*
X139083333Y-120357142D01*
X91833333Y-122202380D02*
X91500000Y-121726190D01*
X91261904Y-122202380D02*
X91261904Y-121202380D01*
X91642857Y-121202380D01*
X91738095Y-121250000D01*
X91785714Y-121297619D01*
X91833333Y-121392857D01*
X91833333Y-121535714D01*
X91785714Y-121630952D01*
X91738095Y-121678571D01*
X91642857Y-121726190D01*
X91261904Y-121726190D01*
X92738095Y-121202380D02*
X92261904Y-121202380D01*
X92214285Y-121678571D01*
X92261904Y-121630952D01*
X92357142Y-121583333D01*
X92595238Y-121583333D01*
X92690476Y-121630952D01*
X92738095Y-121678571D01*
X92785714Y-121773809D01*
X92785714Y-122011904D01*
X92738095Y-122107142D01*
X92690476Y-122154761D01*
X92595238Y-122202380D01*
X92357142Y-122202380D01*
X92261904Y-122154761D01*
X92214285Y-122107142D01*
X91833333Y-118764880D02*
X91500000Y-118288690D01*
X91261904Y-118764880D02*
X91261904Y-117764880D01*
X91642857Y-117764880D01*
X91738095Y-117812500D01*
X91785714Y-117860119D01*
X91833333Y-117955357D01*
X91833333Y-118098214D01*
X91785714Y-118193452D01*
X91738095Y-118241071D01*
X91642857Y-118288690D01*
X91261904Y-118288690D01*
X92690476Y-118098214D02*
X92690476Y-118764880D01*
X92452380Y-117717261D02*
X92214285Y-118431547D01*
X92833333Y-118431547D01*
X138702380Y-128261904D02*
X139511904Y-128261904D01*
X139607142Y-128214285D01*
X139654761Y-128166666D01*
X139702380Y-128071428D01*
X139702380Y-127880952D01*
X139654761Y-127785714D01*
X139607142Y-127738095D01*
X139511904Y-127690476D01*
X138702380Y-127690476D01*
X138797619Y-127261904D02*
X138750000Y-127214285D01*
X138702380Y-127119047D01*
X138702380Y-126880952D01*
X138750000Y-126785714D01*
X138797619Y-126738095D01*
X138892857Y-126690476D01*
X138988095Y-126690476D01*
X139130952Y-126738095D01*
X139702380Y-127309523D01*
X139702380Y-126690476D01*
X144011904Y-121952380D02*
X144583333Y-121952380D01*
X144297619Y-122952380D02*
X144297619Y-121952380D01*
X144821428Y-121952380D02*
X145488095Y-122952380D01*
X145488095Y-121952380D02*
X144821428Y-122952380D01*
X146392857Y-122952380D02*
X145821428Y-122952380D01*
X146107142Y-122952380D02*
X146107142Y-121952380D01*
X146011904Y-122095238D01*
X145916666Y-122190476D01*
X145821428Y-122238095D01*
X116857142Y-123202380D02*
X116523809Y-122726190D01*
X116285714Y-123202380D02*
X116285714Y-122202380D01*
X116666666Y-122202380D01*
X116761904Y-122250000D01*
X116809523Y-122297619D01*
X116857142Y-122392857D01*
X116857142Y-122535714D01*
X116809523Y-122630952D01*
X116761904Y-122678571D01*
X116666666Y-122726190D01*
X116285714Y-122726190D01*
X117190476Y-122202380D02*
X117857142Y-123202380D01*
X117857142Y-122202380D02*
X117190476Y-123202380D01*
X118761904Y-123202380D02*
X118190476Y-123202380D01*
X118476190Y-123202380D02*
X118476190Y-122202380D01*
X118380952Y-122345238D01*
X118285714Y-122440476D01*
X118190476Y-122488095D01*
X91833333Y-115077380D02*
X91500000Y-114601190D01*
X91261904Y-115077380D02*
X91261904Y-114077380D01*
X91642857Y-114077380D01*
X91738095Y-114125000D01*
X91785714Y-114172619D01*
X91833333Y-114267857D01*
X91833333Y-114410714D01*
X91785714Y-114505952D01*
X91738095Y-114553571D01*
X91642857Y-114601190D01*
X91261904Y-114601190D01*
X92166666Y-114077380D02*
X92785714Y-114077380D01*
X92452380Y-114458333D01*
X92595238Y-114458333D01*
X92690476Y-114505952D01*
X92738095Y-114553571D01*
X92785714Y-114648809D01*
X92785714Y-114886904D01*
X92738095Y-114982142D01*
X92690476Y-115029761D01*
X92595238Y-115077380D01*
X92309523Y-115077380D01*
X92214285Y-115029761D01*
X92166666Y-114982142D01*
X91833333Y-111639880D02*
X91500000Y-111163690D01*
X91261904Y-111639880D02*
X91261904Y-110639880D01*
X91642857Y-110639880D01*
X91738095Y-110687500D01*
X91785714Y-110735119D01*
X91833333Y-110830357D01*
X91833333Y-110973214D01*
X91785714Y-111068452D01*
X91738095Y-111116071D01*
X91642857Y-111163690D01*
X91261904Y-111163690D01*
X92214285Y-110735119D02*
X92261904Y-110687500D01*
X92357142Y-110639880D01*
X92595238Y-110639880D01*
X92690476Y-110687500D01*
X92738095Y-110735119D01*
X92785714Y-110830357D01*
X92785714Y-110925595D01*
X92738095Y-111068452D01*
X92166666Y-111639880D01*
X92785714Y-111639880D01*
X112285714Y-120952380D02*
X112285714Y-119952380D01*
X112523809Y-119952380D01*
X112666666Y-120000000D01*
X112761904Y-120095238D01*
X112809523Y-120190476D01*
X112857142Y-120380952D01*
X112857142Y-120523809D01*
X112809523Y-120714285D01*
X112761904Y-120809523D01*
X112666666Y-120904761D01*
X112523809Y-120952380D01*
X112285714Y-120952380D01*
X113285714Y-120428571D02*
X113619047Y-120428571D01*
X113761904Y-120952380D02*
X113285714Y-120952380D01*
X113285714Y-119952380D01*
X113761904Y-119952380D01*
X114523809Y-120428571D02*
X114666666Y-120476190D01*
X114714285Y-120523809D01*
X114761904Y-120619047D01*
X114761904Y-120761904D01*
X114714285Y-120857142D01*
X114666666Y-120904761D01*
X114571428Y-120952380D01*
X114190476Y-120952380D01*
X114190476Y-119952380D01*
X114523809Y-119952380D01*
X114619047Y-120000000D01*
X114666666Y-120047619D01*
X114714285Y-120142857D01*
X114714285Y-120238095D01*
X114666666Y-120333333D01*
X114619047Y-120380952D01*
X114523809Y-120428571D01*
X114190476Y-120428571D01*
X115190476Y-119952380D02*
X115190476Y-120761904D01*
X115238095Y-120857142D01*
X115285714Y-120904761D01*
X115380952Y-120952380D01*
X115571428Y-120952380D01*
X115666666Y-120904761D01*
X115714285Y-120857142D01*
X115761904Y-120761904D01*
X115761904Y-119952380D01*
X116761904Y-120000000D02*
X116666666Y-119952380D01*
X116523809Y-119952380D01*
X116380952Y-120000000D01*
X116285714Y-120095238D01*
X116238095Y-120190476D01*
X116190476Y-120380952D01*
X116190476Y-120523809D01*
X116238095Y-120714285D01*
X116285714Y-120809523D01*
X116380952Y-120904761D01*
X116523809Y-120952380D01*
X116619047Y-120952380D01*
X116761904Y-120904761D01*
X116809523Y-120857142D01*
X116809523Y-120523809D01*
X116619047Y-120523809D01*
X117761904Y-120952380D02*
X117190476Y-120952380D01*
X117476190Y-120952380D02*
X117476190Y-119952380D01*
X117380952Y-120095238D01*
X117285714Y-120190476D01*
X117190476Y-120238095D01*
X75833333Y-109952380D02*
X75500000Y-109476190D01*
X75261904Y-109952380D02*
X75261904Y-108952380D01*
X75642857Y-108952380D01*
X75738095Y-109000000D01*
X75785714Y-109047619D01*
X75833333Y-109142857D01*
X75833333Y-109285714D01*
X75785714Y-109380952D01*
X75738095Y-109428571D01*
X75642857Y-109476190D01*
X75261904Y-109476190D01*
X76785714Y-109952380D02*
X76214285Y-109952380D01*
X76500000Y-109952380D02*
X76500000Y-108952380D01*
X76404761Y-109095238D01*
X76309523Y-109190476D01*
X76214285Y-109238095D01*
X94988095Y-126702380D02*
X94988095Y-127511904D01*
X95035714Y-127607142D01*
X95083333Y-127654761D01*
X95178571Y-127702380D01*
X95369047Y-127702380D01*
X95464285Y-127654761D01*
X95511904Y-127607142D01*
X95559523Y-127511904D01*
X95559523Y-126702380D01*
X96559523Y-127702380D02*
X95988095Y-127702380D01*
X96273809Y-127702380D02*
X96273809Y-126702380D01*
X96178571Y-126845238D01*
X96083333Y-126940476D01*
X95988095Y-126988095D01*
X94488095Y-128952380D02*
X94726190Y-129952380D01*
X94916666Y-129238095D01*
X95107142Y-129952380D01*
X95345238Y-128952380D01*
X96107142Y-129904761D02*
X96011904Y-129952380D01*
X95821428Y-129952380D01*
X95726190Y-129904761D01*
X95678571Y-129809523D01*
X95678571Y-129428571D01*
X95726190Y-129333333D01*
X95821428Y-129285714D01*
X96011904Y-129285714D01*
X96107142Y-129333333D01*
X96154761Y-129428571D01*
X96154761Y-129523809D01*
X95678571Y-129619047D01*
X96583333Y-129952380D02*
X96583333Y-128952380D01*
X96916666Y-129666666D01*
X97250000Y-128952380D01*
X97250000Y-129952380D01*
X97869047Y-129952380D02*
X97773809Y-129904761D01*
X97726190Y-129857142D01*
X97678571Y-129761904D01*
X97678571Y-129476190D01*
X97726190Y-129380952D01*
X97773809Y-129333333D01*
X97869047Y-129285714D01*
X98011904Y-129285714D01*
X98107142Y-129333333D01*
X98154761Y-129380952D01*
X98202380Y-129476190D01*
X98202380Y-129761904D01*
X98154761Y-129857142D01*
X98107142Y-129904761D01*
X98011904Y-129952380D01*
X97869047Y-129952380D01*
X98583333Y-129904761D02*
X98678571Y-129952380D01*
X98869047Y-129952380D01*
X98964285Y-129904761D01*
X99011904Y-129809523D01*
X99011904Y-129761904D01*
X98964285Y-129666666D01*
X98869047Y-129619047D01*
X98726190Y-129619047D01*
X98630952Y-129571428D01*
X98583333Y-129476190D01*
X98583333Y-129428571D01*
X98630952Y-129333333D01*
X98726190Y-129285714D01*
X98869047Y-129285714D01*
X98964285Y-129333333D01*
X99202380Y-130047619D02*
X99964285Y-130047619D01*
X100202380Y-129952380D02*
X100202380Y-129285714D01*
X100202380Y-129380952D02*
X100250000Y-129333333D01*
X100345238Y-129285714D01*
X100488095Y-129285714D01*
X100583333Y-129333333D01*
X100630952Y-129428571D01*
X100630952Y-129952380D01*
X100630952Y-129428571D02*
X100678571Y-129333333D01*
X100773809Y-129285714D01*
X100916666Y-129285714D01*
X101011904Y-129333333D01*
X101059523Y-129428571D01*
X101059523Y-129952380D01*
X101535714Y-129952380D02*
X101535714Y-129285714D01*
X101535714Y-128952380D02*
X101488095Y-129000000D01*
X101535714Y-129047619D01*
X101583333Y-129000000D01*
X101535714Y-128952380D01*
X101535714Y-129047619D01*
X102011904Y-129285714D02*
X102011904Y-129952380D01*
X102011904Y-129380952D02*
X102059523Y-129333333D01*
X102154761Y-129285714D01*
X102297619Y-129285714D01*
X102392857Y-129333333D01*
X102440476Y-129428571D01*
X102440476Y-129952380D01*
X102916666Y-129952380D02*
X102916666Y-129285714D01*
X102916666Y-128952380D02*
X102869047Y-129000000D01*
X102916666Y-129047619D01*
X102964285Y-129000000D01*
X102916666Y-128952380D01*
X102916666Y-129047619D01*
M02*
