G04 #@! TF.GenerationSoftware,KiCad,Pcbnew,5.1.5-52549c5~84~ubuntu18.04.1*
G04 #@! TF.CreationDate,2020-01-17T22:56:57+01:00*
G04 #@! TF.ProjectId,ESPControllerCircuit,45535043-6f6e-4747-926f-6c6c65724369,rev?*
G04 #@! TF.SameCoordinates,Original*
G04 #@! TF.FileFunction,Soldermask,Bot*
G04 #@! TF.FilePolarity,Negative*
%FSLAX46Y46*%
G04 Gerber Fmt 4.6, Leading zero omitted, Abs format (unit mm)*
G04 Created by KiCad (PCBNEW 5.1.5-52549c5~84~ubuntu18.04.1) date 2020-01-17 22:56:57*
%MOMM*%
%LPD*%
G04 APERTURE LIST*
%ADD10C,0.100000*%
G04 APERTURE END LIST*
D10*
G36*
X144375256Y-126891298D02*
G01*
X144481579Y-126912447D01*
X144782042Y-127036903D01*
X145052451Y-127217585D01*
X145282415Y-127447549D01*
X145463097Y-127717958D01*
X145574616Y-127987188D01*
X145587553Y-128018422D01*
X145651000Y-128337389D01*
X145651000Y-128662611D01*
X145618827Y-128824353D01*
X145587553Y-128981579D01*
X145463097Y-129282042D01*
X145282415Y-129552451D01*
X145052451Y-129782415D01*
X144782042Y-129963097D01*
X144481579Y-130087553D01*
X144375256Y-130108702D01*
X144162611Y-130151000D01*
X143837389Y-130151000D01*
X143624744Y-130108702D01*
X143518421Y-130087553D01*
X143217958Y-129963097D01*
X142947549Y-129782415D01*
X142717585Y-129552451D01*
X142536903Y-129282042D01*
X142412447Y-128981579D01*
X142381173Y-128824353D01*
X142349000Y-128662611D01*
X142349000Y-128337389D01*
X142412447Y-128018422D01*
X142425385Y-127987188D01*
X142536903Y-127717958D01*
X142717585Y-127447549D01*
X142947549Y-127217585D01*
X143217958Y-127036903D01*
X143518421Y-126912447D01*
X143624744Y-126891298D01*
X143837389Y-126849000D01*
X144162611Y-126849000D01*
X144375256Y-126891298D01*
G37*
G36*
X76375256Y-126891298D02*
G01*
X76481579Y-126912447D01*
X76782042Y-127036903D01*
X77052451Y-127217585D01*
X77282415Y-127447549D01*
X77463097Y-127717958D01*
X77574616Y-127987188D01*
X77587553Y-128018422D01*
X77651000Y-128337389D01*
X77651000Y-128662611D01*
X77618827Y-128824353D01*
X77587553Y-128981579D01*
X77463097Y-129282042D01*
X77282415Y-129552451D01*
X77052451Y-129782415D01*
X76782042Y-129963097D01*
X76481579Y-130087553D01*
X76375256Y-130108702D01*
X76162611Y-130151000D01*
X75837389Y-130151000D01*
X75624744Y-130108702D01*
X75518421Y-130087553D01*
X75217958Y-129963097D01*
X74947549Y-129782415D01*
X74717585Y-129552451D01*
X74536903Y-129282042D01*
X74412447Y-128981579D01*
X74381173Y-128824353D01*
X74349000Y-128662611D01*
X74349000Y-128337389D01*
X74412447Y-128018422D01*
X74425385Y-127987188D01*
X74536903Y-127717958D01*
X74717585Y-127447549D01*
X74947549Y-127217585D01*
X75217958Y-127036903D01*
X75518421Y-126912447D01*
X75624744Y-126891298D01*
X75837389Y-126849000D01*
X76162611Y-126849000D01*
X76375256Y-126891298D01*
G37*
G36*
X87693512Y-127353927D02*
G01*
X87842812Y-127383624D01*
X88006784Y-127451544D01*
X88154354Y-127550147D01*
X88279853Y-127675646D01*
X88378456Y-127823216D01*
X88446376Y-127987188D01*
X88481000Y-128161259D01*
X88481000Y-128338741D01*
X88446376Y-128512812D01*
X88378456Y-128676784D01*
X88279853Y-128824354D01*
X88154354Y-128949853D01*
X88006784Y-129048456D01*
X87842812Y-129116376D01*
X87693512Y-129146073D01*
X87668742Y-129151000D01*
X87491258Y-129151000D01*
X87466488Y-129146073D01*
X87317188Y-129116376D01*
X87153216Y-129048456D01*
X87005646Y-128949853D01*
X86880147Y-128824354D01*
X86781544Y-128676784D01*
X86713624Y-128512812D01*
X86679000Y-128338741D01*
X86679000Y-128161259D01*
X86713624Y-127987188D01*
X86781544Y-127823216D01*
X86880147Y-127675646D01*
X87005646Y-127550147D01*
X87153216Y-127451544D01*
X87317188Y-127383624D01*
X87466488Y-127353927D01*
X87491258Y-127349000D01*
X87668742Y-127349000D01*
X87693512Y-127353927D01*
G37*
G36*
X99901000Y-129151000D02*
G01*
X98099000Y-129151000D01*
X98099000Y-127349000D01*
X99901000Y-127349000D01*
X99901000Y-129151000D01*
G37*
G36*
X101653512Y-127353927D02*
G01*
X101802812Y-127383624D01*
X101966784Y-127451544D01*
X102114354Y-127550147D01*
X102239853Y-127675646D01*
X102338456Y-127823216D01*
X102406376Y-127987188D01*
X102441000Y-128161259D01*
X102441000Y-128338741D01*
X102406376Y-128512812D01*
X102338456Y-128676784D01*
X102239853Y-128824354D01*
X102114354Y-128949853D01*
X101966784Y-129048456D01*
X101802812Y-129116376D01*
X101653512Y-129146073D01*
X101628742Y-129151000D01*
X101451258Y-129151000D01*
X101426488Y-129146073D01*
X101277188Y-129116376D01*
X101113216Y-129048456D01*
X100965646Y-128949853D01*
X100840147Y-128824354D01*
X100741544Y-128676784D01*
X100673624Y-128512812D01*
X100639000Y-128338741D01*
X100639000Y-128161259D01*
X100673624Y-127987188D01*
X100741544Y-127823216D01*
X100840147Y-127675646D01*
X100965646Y-127550147D01*
X101113216Y-127451544D01*
X101277188Y-127383624D01*
X101426488Y-127353927D01*
X101451258Y-127349000D01*
X101628742Y-127349000D01*
X101653512Y-127353927D01*
G37*
G36*
X104193512Y-127353927D02*
G01*
X104342812Y-127383624D01*
X104506784Y-127451544D01*
X104654354Y-127550147D01*
X104779853Y-127675646D01*
X104878456Y-127823216D01*
X104946376Y-127987188D01*
X104981000Y-128161259D01*
X104981000Y-128338741D01*
X104946376Y-128512812D01*
X104878456Y-128676784D01*
X104779853Y-128824354D01*
X104654354Y-128949853D01*
X104506784Y-129048456D01*
X104342812Y-129116376D01*
X104193512Y-129146073D01*
X104168742Y-129151000D01*
X103991258Y-129151000D01*
X103966488Y-129146073D01*
X103817188Y-129116376D01*
X103653216Y-129048456D01*
X103505646Y-128949853D01*
X103380147Y-128824354D01*
X103281544Y-128676784D01*
X103213624Y-128512812D01*
X103179000Y-128338741D01*
X103179000Y-128161259D01*
X103213624Y-127987188D01*
X103281544Y-127823216D01*
X103380147Y-127675646D01*
X103505646Y-127550147D01*
X103653216Y-127451544D01*
X103817188Y-127383624D01*
X103966488Y-127353927D01*
X103991258Y-127349000D01*
X104168742Y-127349000D01*
X104193512Y-127353927D01*
G37*
G36*
X83401000Y-129151000D02*
G01*
X81599000Y-129151000D01*
X81599000Y-127349000D01*
X83401000Y-127349000D01*
X83401000Y-129151000D01*
G37*
G36*
X85153512Y-127353927D02*
G01*
X85302812Y-127383624D01*
X85466784Y-127451544D01*
X85614354Y-127550147D01*
X85739853Y-127675646D01*
X85838456Y-127823216D01*
X85906376Y-127987188D01*
X85941000Y-128161259D01*
X85941000Y-128338741D01*
X85906376Y-128512812D01*
X85838456Y-128676784D01*
X85739853Y-128824354D01*
X85614354Y-128949853D01*
X85466784Y-129048456D01*
X85302812Y-129116376D01*
X85153512Y-129146073D01*
X85128742Y-129151000D01*
X84951258Y-129151000D01*
X84926488Y-129146073D01*
X84777188Y-129116376D01*
X84613216Y-129048456D01*
X84465646Y-128949853D01*
X84340147Y-128824354D01*
X84241544Y-128676784D01*
X84173624Y-128512812D01*
X84139000Y-128338741D01*
X84139000Y-128161259D01*
X84173624Y-127987188D01*
X84241544Y-127823216D01*
X84340147Y-127675646D01*
X84465646Y-127550147D01*
X84613216Y-127451544D01*
X84777188Y-127383624D01*
X84926488Y-127353927D01*
X84951258Y-127349000D01*
X85128742Y-127349000D01*
X85153512Y-127353927D01*
G37*
G36*
X136377617Y-124333420D02*
G01*
X136458399Y-124357925D01*
X136500335Y-124370646D01*
X136613424Y-124431094D01*
X136712554Y-124512447D01*
X136793906Y-124611575D01*
X136854354Y-124724664D01*
X136864040Y-124756596D01*
X136891580Y-124847382D01*
X136901000Y-124943027D01*
X136901000Y-125556973D01*
X136891580Y-125652618D01*
X136864040Y-125743404D01*
X136854354Y-125775336D01*
X136793906Y-125888425D01*
X136712554Y-125987554D01*
X136613425Y-126068906D01*
X136500336Y-126129354D01*
X136468404Y-126139040D01*
X136377618Y-126166580D01*
X136250000Y-126179149D01*
X136122383Y-126166580D01*
X136031597Y-126139040D01*
X135999665Y-126129354D01*
X135886576Y-126068906D01*
X135787447Y-125987554D01*
X135706096Y-125888427D01*
X135706095Y-125888425D01*
X135645647Y-125775336D01*
X135645645Y-125775333D01*
X135633237Y-125734427D01*
X135608420Y-125652618D01*
X135599000Y-125556973D01*
X135599000Y-124943028D01*
X135608420Y-124847383D01*
X135645645Y-124724669D01*
X135645646Y-124724665D01*
X135706094Y-124611576D01*
X135787447Y-124512446D01*
X135886575Y-124431094D01*
X135999664Y-124370646D01*
X136041600Y-124357925D01*
X136122382Y-124333420D01*
X136250000Y-124320851D01*
X136377617Y-124333420D01*
G37*
G36*
X117877617Y-124333420D02*
G01*
X117958399Y-124357925D01*
X118000335Y-124370646D01*
X118113424Y-124431094D01*
X118212554Y-124512447D01*
X118293906Y-124611575D01*
X118354354Y-124724664D01*
X118364040Y-124756596D01*
X118391580Y-124847382D01*
X118401000Y-124943027D01*
X118401000Y-125556973D01*
X118391580Y-125652618D01*
X118364040Y-125743404D01*
X118354354Y-125775336D01*
X118293906Y-125888425D01*
X118212554Y-125987554D01*
X118113425Y-126068906D01*
X118000336Y-126129354D01*
X117968404Y-126139040D01*
X117877618Y-126166580D01*
X117750000Y-126179149D01*
X117622383Y-126166580D01*
X117531597Y-126139040D01*
X117499665Y-126129354D01*
X117386576Y-126068906D01*
X117287447Y-125987554D01*
X117206096Y-125888427D01*
X117206095Y-125888425D01*
X117145647Y-125775336D01*
X117145645Y-125775333D01*
X117133237Y-125734427D01*
X117108420Y-125652618D01*
X117099000Y-125556973D01*
X117099000Y-124943028D01*
X117108420Y-124847383D01*
X117145645Y-124724669D01*
X117145646Y-124724665D01*
X117206094Y-124611576D01*
X117287447Y-124512446D01*
X117386575Y-124431094D01*
X117499664Y-124370646D01*
X117541600Y-124357925D01*
X117622382Y-124333420D01*
X117750000Y-124320851D01*
X117877617Y-124333420D01*
G37*
G36*
X125077617Y-124333420D02*
G01*
X125158399Y-124357925D01*
X125200335Y-124370646D01*
X125313424Y-124431094D01*
X125412554Y-124512447D01*
X125493906Y-124611575D01*
X125554354Y-124724664D01*
X125564040Y-124756596D01*
X125591580Y-124847382D01*
X125601000Y-124943027D01*
X125601000Y-125556973D01*
X125591580Y-125652618D01*
X125564040Y-125743404D01*
X125554354Y-125775336D01*
X125493906Y-125888425D01*
X125412554Y-125987554D01*
X125313425Y-126068906D01*
X125200336Y-126129354D01*
X125168404Y-126139040D01*
X125077618Y-126166580D01*
X124950000Y-126179149D01*
X124822383Y-126166580D01*
X124731597Y-126139040D01*
X124699665Y-126129354D01*
X124586576Y-126068906D01*
X124487447Y-125987554D01*
X124406096Y-125888427D01*
X124406095Y-125888425D01*
X124345647Y-125775336D01*
X124345645Y-125775333D01*
X124333237Y-125734427D01*
X124308420Y-125652618D01*
X124299000Y-125556973D01*
X124299000Y-124943028D01*
X124308420Y-124847383D01*
X124345645Y-124724669D01*
X124345646Y-124724665D01*
X124406094Y-124611576D01*
X124487447Y-124512446D01*
X124586575Y-124431094D01*
X124699664Y-124370646D01*
X124741600Y-124357925D01*
X124822382Y-124333420D01*
X124950000Y-124320851D01*
X125077617Y-124333420D01*
G37*
G36*
X110627617Y-124333420D02*
G01*
X110708399Y-124357925D01*
X110750335Y-124370646D01*
X110863424Y-124431094D01*
X110962554Y-124512447D01*
X111043906Y-124611575D01*
X111104354Y-124724664D01*
X111114040Y-124756596D01*
X111141580Y-124847382D01*
X111151000Y-124943027D01*
X111151000Y-125556973D01*
X111141580Y-125652618D01*
X111114040Y-125743404D01*
X111104354Y-125775336D01*
X111043906Y-125888425D01*
X110962554Y-125987554D01*
X110863425Y-126068906D01*
X110750336Y-126129354D01*
X110718404Y-126139040D01*
X110627618Y-126166580D01*
X110500000Y-126179149D01*
X110372383Y-126166580D01*
X110281597Y-126139040D01*
X110249665Y-126129354D01*
X110136576Y-126068906D01*
X110037447Y-125987554D01*
X109956096Y-125888427D01*
X109956095Y-125888425D01*
X109895647Y-125775336D01*
X109895645Y-125775333D01*
X109883237Y-125734427D01*
X109858420Y-125652618D01*
X109849000Y-125556973D01*
X109849000Y-124943028D01*
X109858420Y-124847383D01*
X109895645Y-124724669D01*
X109895646Y-124724665D01*
X109956094Y-124611576D01*
X110037447Y-124512446D01*
X110136575Y-124431094D01*
X110249664Y-124370646D01*
X110291600Y-124357925D01*
X110372382Y-124333420D01*
X110500000Y-124320851D01*
X110627617Y-124333420D01*
G37*
G36*
X134741242Y-124328404D02*
G01*
X134778337Y-124339657D01*
X134812515Y-124357925D01*
X134842481Y-124382519D01*
X134867075Y-124412485D01*
X134885343Y-124446663D01*
X134896596Y-124483758D01*
X134901000Y-124528474D01*
X134901000Y-125971526D01*
X134896596Y-126016242D01*
X134885343Y-126053337D01*
X134867075Y-126087515D01*
X134842481Y-126117481D01*
X134812515Y-126142075D01*
X134778337Y-126160343D01*
X134741242Y-126171596D01*
X134696526Y-126176000D01*
X133803474Y-126176000D01*
X133758758Y-126171596D01*
X133721663Y-126160343D01*
X133687485Y-126142075D01*
X133657519Y-126117481D01*
X133632925Y-126087515D01*
X133614657Y-126053337D01*
X133603404Y-126016242D01*
X133599000Y-125971526D01*
X133599000Y-124528474D01*
X133603404Y-124483758D01*
X133614657Y-124446663D01*
X133632925Y-124412485D01*
X133657519Y-124382519D01*
X133687485Y-124357925D01*
X133721663Y-124339657D01*
X133758758Y-124328404D01*
X133803474Y-124324000D01*
X134696526Y-124324000D01*
X134741242Y-124328404D01*
G37*
G36*
X123441242Y-124328404D02*
G01*
X123478337Y-124339657D01*
X123512515Y-124357925D01*
X123542481Y-124382519D01*
X123567075Y-124412485D01*
X123585343Y-124446663D01*
X123596596Y-124483758D01*
X123601000Y-124528474D01*
X123601000Y-125971526D01*
X123596596Y-126016242D01*
X123585343Y-126053337D01*
X123567075Y-126087515D01*
X123542481Y-126117481D01*
X123512515Y-126142075D01*
X123478337Y-126160343D01*
X123441242Y-126171596D01*
X123396526Y-126176000D01*
X122503474Y-126176000D01*
X122458758Y-126171596D01*
X122421663Y-126160343D01*
X122387485Y-126142075D01*
X122357519Y-126117481D01*
X122332925Y-126087515D01*
X122314657Y-126053337D01*
X122303404Y-126016242D01*
X122299000Y-125971526D01*
X122299000Y-124528474D01*
X122303404Y-124483758D01*
X122314657Y-124446663D01*
X122332925Y-124412485D01*
X122357519Y-124382519D01*
X122387485Y-124357925D01*
X122421663Y-124339657D01*
X122458758Y-124328404D01*
X122503474Y-124324000D01*
X123396526Y-124324000D01*
X123441242Y-124328404D01*
G37*
G36*
X116241242Y-124328404D02*
G01*
X116278337Y-124339657D01*
X116312515Y-124357925D01*
X116342481Y-124382519D01*
X116367075Y-124412485D01*
X116385343Y-124446663D01*
X116396596Y-124483758D01*
X116401000Y-124528474D01*
X116401000Y-125971526D01*
X116396596Y-126016242D01*
X116385343Y-126053337D01*
X116367075Y-126087515D01*
X116342481Y-126117481D01*
X116312515Y-126142075D01*
X116278337Y-126160343D01*
X116241242Y-126171596D01*
X116196526Y-126176000D01*
X115303474Y-126176000D01*
X115258758Y-126171596D01*
X115221663Y-126160343D01*
X115187485Y-126142075D01*
X115157519Y-126117481D01*
X115132925Y-126087515D01*
X115114657Y-126053337D01*
X115103404Y-126016242D01*
X115099000Y-125971526D01*
X115099000Y-124528474D01*
X115103404Y-124483758D01*
X115114657Y-124446663D01*
X115132925Y-124412485D01*
X115157519Y-124382519D01*
X115187485Y-124357925D01*
X115221663Y-124339657D01*
X115258758Y-124328404D01*
X115303474Y-124324000D01*
X116196526Y-124324000D01*
X116241242Y-124328404D01*
G37*
G36*
X108991242Y-124328404D02*
G01*
X109028337Y-124339657D01*
X109062515Y-124357925D01*
X109092481Y-124382519D01*
X109117075Y-124412485D01*
X109135343Y-124446663D01*
X109146596Y-124483758D01*
X109151000Y-124528474D01*
X109151000Y-125971526D01*
X109146596Y-126016242D01*
X109135343Y-126053337D01*
X109117075Y-126087515D01*
X109092481Y-126117481D01*
X109062515Y-126142075D01*
X109028337Y-126160343D01*
X108991242Y-126171596D01*
X108946526Y-126176000D01*
X108053474Y-126176000D01*
X108008758Y-126171596D01*
X107971663Y-126160343D01*
X107937485Y-126142075D01*
X107907519Y-126117481D01*
X107882925Y-126087515D01*
X107864657Y-126053337D01*
X107853404Y-126016242D01*
X107849000Y-125971526D01*
X107849000Y-124528474D01*
X107853404Y-124483758D01*
X107864657Y-124446663D01*
X107882925Y-124412485D01*
X107907519Y-124382519D01*
X107937485Y-124357925D01*
X107971663Y-124339657D01*
X108008758Y-124328404D01*
X108053474Y-124324000D01*
X108946526Y-124324000D01*
X108991242Y-124328404D01*
G37*
G36*
X81347395Y-121475546D02*
G01*
X81520466Y-121547234D01*
X81520467Y-121547235D01*
X81676227Y-121651310D01*
X81808690Y-121783773D01*
X81808691Y-121783775D01*
X81912766Y-121939534D01*
X81984454Y-122112605D01*
X82021000Y-122296333D01*
X82021000Y-122483667D01*
X81984454Y-122667395D01*
X81912766Y-122840466D01*
X81912765Y-122840467D01*
X81808690Y-122996227D01*
X81676227Y-123128690D01*
X81597818Y-123181081D01*
X81520466Y-123232766D01*
X81347395Y-123304454D01*
X81163667Y-123341000D01*
X80976333Y-123341000D01*
X80792605Y-123304454D01*
X80619534Y-123232766D01*
X80542182Y-123181081D01*
X80463773Y-123128690D01*
X80331310Y-122996227D01*
X80227235Y-122840467D01*
X80227234Y-122840466D01*
X80155546Y-122667395D01*
X80119000Y-122483667D01*
X80119000Y-122296333D01*
X80155546Y-122112605D01*
X80227234Y-121939534D01*
X80331309Y-121783775D01*
X80331310Y-121783773D01*
X80463773Y-121651310D01*
X80619533Y-121547235D01*
X80619534Y-121547234D01*
X80792605Y-121475546D01*
X80976333Y-121439000D01*
X81163667Y-121439000D01*
X81347395Y-121475546D01*
G37*
G36*
X104207395Y-121475546D02*
G01*
X104380466Y-121547234D01*
X104380467Y-121547235D01*
X104536227Y-121651310D01*
X104668690Y-121783773D01*
X104668691Y-121783775D01*
X104772766Y-121939534D01*
X104844454Y-122112605D01*
X104881000Y-122296333D01*
X104881000Y-122483667D01*
X104844454Y-122667395D01*
X104772766Y-122840466D01*
X104772765Y-122840467D01*
X104668690Y-122996227D01*
X104536227Y-123128690D01*
X104457818Y-123181081D01*
X104380466Y-123232766D01*
X104207395Y-123304454D01*
X104023667Y-123341000D01*
X103836333Y-123341000D01*
X103652605Y-123304454D01*
X103479534Y-123232766D01*
X103402182Y-123181081D01*
X103323773Y-123128690D01*
X103191310Y-122996227D01*
X103087235Y-122840467D01*
X103087234Y-122840466D01*
X103015546Y-122667395D01*
X102979000Y-122483667D01*
X102979000Y-122296333D01*
X103015546Y-122112605D01*
X103087234Y-121939534D01*
X103191309Y-121783775D01*
X103191310Y-121783773D01*
X103323773Y-121651310D01*
X103479533Y-121547235D01*
X103479534Y-121547234D01*
X103652605Y-121475546D01*
X103836333Y-121439000D01*
X104023667Y-121439000D01*
X104207395Y-121475546D01*
G37*
G36*
X141516242Y-120953404D02*
G01*
X141553337Y-120964657D01*
X141587515Y-120982925D01*
X141617481Y-121007519D01*
X141642075Y-121037485D01*
X141660343Y-121071663D01*
X141671596Y-121108758D01*
X141676000Y-121153474D01*
X141676000Y-122046526D01*
X141671596Y-122091242D01*
X141660343Y-122128337D01*
X141642075Y-122162515D01*
X141617481Y-122192481D01*
X141587515Y-122217075D01*
X141553337Y-122235343D01*
X141516242Y-122246596D01*
X141471526Y-122251000D01*
X140028474Y-122251000D01*
X139983758Y-122246596D01*
X139946663Y-122235343D01*
X139912485Y-122217075D01*
X139882519Y-122192481D01*
X139857925Y-122162515D01*
X139839657Y-122128337D01*
X139828404Y-122091242D01*
X139824000Y-122046526D01*
X139824000Y-121153474D01*
X139828404Y-121108758D01*
X139839657Y-121071663D01*
X139857925Y-121037485D01*
X139882519Y-121007519D01*
X139912485Y-120982925D01*
X139946663Y-120964657D01*
X139983758Y-120953404D01*
X140028474Y-120949000D01*
X141471526Y-120949000D01*
X141516242Y-120953404D01*
G37*
G36*
X104207395Y-118935546D02*
G01*
X104380466Y-119007234D01*
X104380467Y-119007235D01*
X104536227Y-119111310D01*
X104668690Y-119243773D01*
X104668691Y-119243775D01*
X104772766Y-119399534D01*
X104844454Y-119572605D01*
X104881000Y-119756333D01*
X104881000Y-119943667D01*
X104844454Y-120127395D01*
X104772766Y-120300466D01*
X104772765Y-120300467D01*
X104668690Y-120456227D01*
X104536227Y-120588690D01*
X104457818Y-120641081D01*
X104380466Y-120692766D01*
X104207395Y-120764454D01*
X104023667Y-120801000D01*
X103836333Y-120801000D01*
X103652605Y-120764454D01*
X103479534Y-120692766D01*
X103402182Y-120641081D01*
X103323773Y-120588690D01*
X103191310Y-120456227D01*
X103087235Y-120300467D01*
X103087234Y-120300466D01*
X103015546Y-120127395D01*
X102979000Y-119943667D01*
X102979000Y-119756333D01*
X103015546Y-119572605D01*
X103087234Y-119399534D01*
X103191309Y-119243775D01*
X103191310Y-119243773D01*
X103323773Y-119111310D01*
X103479533Y-119007235D01*
X103479534Y-119007234D01*
X103652605Y-118935546D01*
X103836333Y-118899000D01*
X104023667Y-118899000D01*
X104207395Y-118935546D01*
G37*
G36*
X81347395Y-118935546D02*
G01*
X81520466Y-119007234D01*
X81520467Y-119007235D01*
X81676227Y-119111310D01*
X81808690Y-119243773D01*
X81808691Y-119243775D01*
X81912766Y-119399534D01*
X81984454Y-119572605D01*
X82021000Y-119756333D01*
X82021000Y-119943667D01*
X81984454Y-120127395D01*
X81912766Y-120300466D01*
X81912765Y-120300467D01*
X81808690Y-120456227D01*
X81676227Y-120588690D01*
X81597818Y-120641081D01*
X81520466Y-120692766D01*
X81347395Y-120764454D01*
X81163667Y-120801000D01*
X80976333Y-120801000D01*
X80792605Y-120764454D01*
X80619534Y-120692766D01*
X80542182Y-120641081D01*
X80463773Y-120588690D01*
X80331310Y-120456227D01*
X80227235Y-120300467D01*
X80227234Y-120300466D01*
X80155546Y-120127395D01*
X80119000Y-119943667D01*
X80119000Y-119756333D01*
X80155546Y-119572605D01*
X80227234Y-119399534D01*
X80331309Y-119243775D01*
X80331310Y-119243773D01*
X80463773Y-119111310D01*
X80619533Y-119007235D01*
X80619534Y-119007234D01*
X80792605Y-118935546D01*
X80976333Y-118899000D01*
X81163667Y-118899000D01*
X81347395Y-118935546D01*
G37*
G36*
X141088855Y-118952140D02*
G01*
X141152618Y-118958420D01*
X141243404Y-118985960D01*
X141275336Y-118995646D01*
X141388425Y-119056094D01*
X141487554Y-119137446D01*
X141568906Y-119236575D01*
X141629354Y-119349664D01*
X141629355Y-119349668D01*
X141666580Y-119472382D01*
X141679149Y-119600000D01*
X141666580Y-119727618D01*
X141639040Y-119818404D01*
X141629354Y-119850336D01*
X141568906Y-119963425D01*
X141487554Y-120062554D01*
X141388425Y-120143906D01*
X141275336Y-120204354D01*
X141243404Y-120214040D01*
X141152618Y-120241580D01*
X141088855Y-120247860D01*
X141056974Y-120251000D01*
X140443026Y-120251000D01*
X140411145Y-120247860D01*
X140347382Y-120241580D01*
X140256596Y-120214040D01*
X140224664Y-120204354D01*
X140111575Y-120143906D01*
X140012446Y-120062554D01*
X139931094Y-119963425D01*
X139870646Y-119850336D01*
X139860960Y-119818404D01*
X139833420Y-119727618D01*
X139820851Y-119600000D01*
X139833420Y-119472382D01*
X139870645Y-119349668D01*
X139870646Y-119349664D01*
X139931094Y-119236575D01*
X140012446Y-119137446D01*
X140111575Y-119056094D01*
X140224664Y-118995646D01*
X140256596Y-118985960D01*
X140347382Y-118958420D01*
X140411145Y-118952140D01*
X140443026Y-118949000D01*
X141056974Y-118949000D01*
X141088855Y-118952140D01*
G37*
G36*
X121573512Y-117103927D02*
G01*
X121722812Y-117133624D01*
X121886784Y-117201544D01*
X122034354Y-117300147D01*
X122159853Y-117425646D01*
X122258456Y-117573216D01*
X122326376Y-117737188D01*
X122356073Y-117886488D01*
X122361000Y-117911258D01*
X122361000Y-118088742D01*
X122356073Y-118113512D01*
X122326376Y-118262812D01*
X122258456Y-118426784D01*
X122159853Y-118574354D01*
X122034354Y-118699853D01*
X121886784Y-118798456D01*
X121722812Y-118866376D01*
X121573512Y-118896073D01*
X121548742Y-118901000D01*
X121371258Y-118901000D01*
X121346488Y-118896073D01*
X121197188Y-118866376D01*
X121033216Y-118798456D01*
X120885646Y-118699853D01*
X120760147Y-118574354D01*
X120661544Y-118426784D01*
X120593624Y-118262812D01*
X120563927Y-118113512D01*
X120559000Y-118088742D01*
X120559000Y-117911258D01*
X120563927Y-117886488D01*
X120593624Y-117737188D01*
X120661544Y-117573216D01*
X120760147Y-117425646D01*
X120885646Y-117300147D01*
X121033216Y-117201544D01*
X121197188Y-117133624D01*
X121346488Y-117103927D01*
X121371258Y-117099000D01*
X121548742Y-117099000D01*
X121573512Y-117103927D01*
G37*
G36*
X124901000Y-118901000D02*
G01*
X123099000Y-118901000D01*
X123099000Y-117099000D01*
X124901000Y-117099000D01*
X124901000Y-118901000D01*
G37*
G36*
X114651000Y-118901000D02*
G01*
X112849000Y-118901000D01*
X112849000Y-117099000D01*
X114651000Y-117099000D01*
X114651000Y-118901000D01*
G37*
G36*
X116403512Y-117103927D02*
G01*
X116552812Y-117133624D01*
X116716784Y-117201544D01*
X116864354Y-117300147D01*
X116989853Y-117425646D01*
X117088456Y-117573216D01*
X117156376Y-117737188D01*
X117186073Y-117886488D01*
X117191000Y-117911258D01*
X117191000Y-118088742D01*
X117186073Y-118113512D01*
X117156376Y-118262812D01*
X117088456Y-118426784D01*
X116989853Y-118574354D01*
X116864354Y-118699853D01*
X116716784Y-118798456D01*
X116552812Y-118866376D01*
X116403512Y-118896073D01*
X116378742Y-118901000D01*
X116201258Y-118901000D01*
X116176488Y-118896073D01*
X116027188Y-118866376D01*
X115863216Y-118798456D01*
X115715646Y-118699853D01*
X115590147Y-118574354D01*
X115491544Y-118426784D01*
X115423624Y-118262812D01*
X115393927Y-118113512D01*
X115389000Y-118088742D01*
X115389000Y-117911258D01*
X115393927Y-117886488D01*
X115423624Y-117737188D01*
X115491544Y-117573216D01*
X115590147Y-117425646D01*
X115715646Y-117300147D01*
X115863216Y-117201544D01*
X116027188Y-117133624D01*
X116176488Y-117103927D01*
X116201258Y-117099000D01*
X116378742Y-117099000D01*
X116403512Y-117103927D01*
G37*
G36*
X104207395Y-116395546D02*
G01*
X104380466Y-116467234D01*
X104380467Y-116467235D01*
X104536227Y-116571310D01*
X104668690Y-116703773D01*
X104668691Y-116703775D01*
X104772766Y-116859534D01*
X104844454Y-117032605D01*
X104881000Y-117216333D01*
X104881000Y-117403667D01*
X104844454Y-117587395D01*
X104772766Y-117760466D01*
X104772765Y-117760467D01*
X104668690Y-117916227D01*
X104536227Y-118048690D01*
X104476286Y-118088741D01*
X104380466Y-118152766D01*
X104207395Y-118224454D01*
X104023667Y-118261000D01*
X103836333Y-118261000D01*
X103652605Y-118224454D01*
X103479534Y-118152766D01*
X103383714Y-118088741D01*
X103323773Y-118048690D01*
X103191310Y-117916227D01*
X103087235Y-117760467D01*
X103087234Y-117760466D01*
X103015546Y-117587395D01*
X102979000Y-117403667D01*
X102979000Y-117216333D01*
X103015546Y-117032605D01*
X103087234Y-116859534D01*
X103191309Y-116703775D01*
X103191310Y-116703773D01*
X103323773Y-116571310D01*
X103479533Y-116467235D01*
X103479534Y-116467234D01*
X103652605Y-116395546D01*
X103836333Y-116359000D01*
X104023667Y-116359000D01*
X104207395Y-116395546D01*
G37*
G36*
X81347395Y-116395546D02*
G01*
X81520466Y-116467234D01*
X81520467Y-116467235D01*
X81676227Y-116571310D01*
X81808690Y-116703773D01*
X81808691Y-116703775D01*
X81912766Y-116859534D01*
X81984454Y-117032605D01*
X82021000Y-117216333D01*
X82021000Y-117403667D01*
X81984454Y-117587395D01*
X81912766Y-117760466D01*
X81912765Y-117760467D01*
X81808690Y-117916227D01*
X81676227Y-118048690D01*
X81616286Y-118088741D01*
X81520466Y-118152766D01*
X81347395Y-118224454D01*
X81163667Y-118261000D01*
X80976333Y-118261000D01*
X80792605Y-118224454D01*
X80619534Y-118152766D01*
X80523714Y-118088741D01*
X80463773Y-118048690D01*
X80331310Y-117916227D01*
X80227235Y-117760467D01*
X80227234Y-117760466D01*
X80155546Y-117587395D01*
X80119000Y-117403667D01*
X80119000Y-117216333D01*
X80155546Y-117032605D01*
X80227234Y-116859534D01*
X80331309Y-116703775D01*
X80331310Y-116703773D01*
X80463773Y-116571310D01*
X80619533Y-116467235D01*
X80619534Y-116467234D01*
X80792605Y-116395546D01*
X80976333Y-116359000D01*
X81163667Y-116359000D01*
X81347395Y-116395546D01*
G37*
G36*
X74987395Y-116335546D02*
G01*
X75160466Y-116407234D01*
X75160467Y-116407235D01*
X75316227Y-116511310D01*
X75448690Y-116643773D01*
X75488782Y-116703775D01*
X75552766Y-116799534D01*
X75624454Y-116972605D01*
X75661000Y-117156333D01*
X75661000Y-117343667D01*
X75624454Y-117527395D01*
X75552766Y-117700466D01*
X75501081Y-117777818D01*
X75448690Y-117856227D01*
X75316227Y-117988690D01*
X75237818Y-118041081D01*
X75160466Y-118092766D01*
X74987395Y-118164454D01*
X74803667Y-118201000D01*
X74616333Y-118201000D01*
X74432605Y-118164454D01*
X74259534Y-118092766D01*
X74182182Y-118041081D01*
X74103773Y-117988690D01*
X73971310Y-117856227D01*
X73918919Y-117777818D01*
X73867234Y-117700466D01*
X73795546Y-117527395D01*
X73759000Y-117343667D01*
X73759000Y-117156333D01*
X73795546Y-116972605D01*
X73867234Y-116799534D01*
X73931218Y-116703775D01*
X73971310Y-116643773D01*
X74103773Y-116511310D01*
X74259533Y-116407235D01*
X74259534Y-116407234D01*
X74432605Y-116335546D01*
X74616333Y-116299000D01*
X74803667Y-116299000D01*
X74987395Y-116335546D01*
G37*
G36*
X78201000Y-118201000D02*
G01*
X76299000Y-118201000D01*
X76299000Y-116299000D01*
X78201000Y-116299000D01*
X78201000Y-118201000D01*
G37*
G36*
X81347395Y-113855546D02*
G01*
X81520466Y-113927234D01*
X81520467Y-113927235D01*
X81676227Y-114031310D01*
X81808690Y-114163773D01*
X81808691Y-114163775D01*
X81912766Y-114319534D01*
X81984454Y-114492605D01*
X82021000Y-114676333D01*
X82021000Y-114863667D01*
X81984454Y-115047395D01*
X81912766Y-115220466D01*
X81912765Y-115220467D01*
X81808690Y-115376227D01*
X81676227Y-115508690D01*
X81597818Y-115561081D01*
X81520466Y-115612766D01*
X81347395Y-115684454D01*
X81163667Y-115721000D01*
X80976333Y-115721000D01*
X80792605Y-115684454D01*
X80619534Y-115612766D01*
X80542182Y-115561081D01*
X80463773Y-115508690D01*
X80331310Y-115376227D01*
X80227235Y-115220467D01*
X80227234Y-115220466D01*
X80155546Y-115047395D01*
X80119000Y-114863667D01*
X80119000Y-114676333D01*
X80155546Y-114492605D01*
X80227234Y-114319534D01*
X80331309Y-114163775D01*
X80331310Y-114163773D01*
X80463773Y-114031310D01*
X80619533Y-113927235D01*
X80619534Y-113927234D01*
X80792605Y-113855546D01*
X80976333Y-113819000D01*
X81163667Y-113819000D01*
X81347395Y-113855546D01*
G37*
G36*
X104207395Y-113855546D02*
G01*
X104380466Y-113927234D01*
X104380467Y-113927235D01*
X104536227Y-114031310D01*
X104668690Y-114163773D01*
X104668691Y-114163775D01*
X104772766Y-114319534D01*
X104844454Y-114492605D01*
X104881000Y-114676333D01*
X104881000Y-114863667D01*
X104844454Y-115047395D01*
X104772766Y-115220466D01*
X104772765Y-115220467D01*
X104668690Y-115376227D01*
X104536227Y-115508690D01*
X104457818Y-115561081D01*
X104380466Y-115612766D01*
X104207395Y-115684454D01*
X104023667Y-115721000D01*
X103836333Y-115721000D01*
X103652605Y-115684454D01*
X103479534Y-115612766D01*
X103402182Y-115561081D01*
X103323773Y-115508690D01*
X103191310Y-115376227D01*
X103087235Y-115220467D01*
X103087234Y-115220466D01*
X103015546Y-115047395D01*
X102979000Y-114863667D01*
X102979000Y-114676333D01*
X103015546Y-114492605D01*
X103087234Y-114319534D01*
X103191309Y-114163775D01*
X103191310Y-114163773D01*
X103323773Y-114031310D01*
X103479533Y-113927235D01*
X103479534Y-113927234D01*
X103652605Y-113855546D01*
X103836333Y-113819000D01*
X104023667Y-113819000D01*
X104207395Y-113855546D01*
G37*
G36*
X141516242Y-113003404D02*
G01*
X141553337Y-113014657D01*
X141587515Y-113032925D01*
X141617481Y-113057519D01*
X141642075Y-113087485D01*
X141660343Y-113121663D01*
X141671596Y-113158758D01*
X141676000Y-113203474D01*
X141676000Y-114096526D01*
X141671596Y-114141242D01*
X141660343Y-114178337D01*
X141642075Y-114212515D01*
X141617481Y-114242481D01*
X141587515Y-114267075D01*
X141553337Y-114285343D01*
X141516242Y-114296596D01*
X141471526Y-114301000D01*
X140028474Y-114301000D01*
X139983758Y-114296596D01*
X139946663Y-114285343D01*
X139912485Y-114267075D01*
X139882519Y-114242481D01*
X139857925Y-114212515D01*
X139839657Y-114178337D01*
X139828404Y-114141242D01*
X139824000Y-114096526D01*
X139824000Y-113203474D01*
X139828404Y-113158758D01*
X139839657Y-113121663D01*
X139857925Y-113087485D01*
X139882519Y-113057519D01*
X139912485Y-113032925D01*
X139946663Y-113014657D01*
X139983758Y-113003404D01*
X140028474Y-112999000D01*
X141471526Y-112999000D01*
X141516242Y-113003404D01*
G37*
G36*
X104207395Y-111315546D02*
G01*
X104380466Y-111387234D01*
X104457818Y-111438919D01*
X104536227Y-111491310D01*
X104668690Y-111623773D01*
X104668691Y-111623775D01*
X104772766Y-111779534D01*
X104844454Y-111952605D01*
X104881000Y-112136333D01*
X104881000Y-112323667D01*
X104844454Y-112507395D01*
X104772766Y-112680466D01*
X104772765Y-112680467D01*
X104668690Y-112836227D01*
X104536227Y-112968690D01*
X104483064Y-113004212D01*
X104380466Y-113072766D01*
X104207395Y-113144454D01*
X104023667Y-113181000D01*
X103836333Y-113181000D01*
X103652605Y-113144454D01*
X103479534Y-113072766D01*
X103376936Y-113004212D01*
X103323773Y-112968690D01*
X103191310Y-112836227D01*
X103087235Y-112680467D01*
X103087234Y-112680466D01*
X103015546Y-112507395D01*
X102979000Y-112323667D01*
X102979000Y-112136333D01*
X103015546Y-111952605D01*
X103087234Y-111779534D01*
X103191309Y-111623775D01*
X103191310Y-111623773D01*
X103323773Y-111491310D01*
X103402182Y-111438919D01*
X103479534Y-111387234D01*
X103652605Y-111315546D01*
X103836333Y-111279000D01*
X104023667Y-111279000D01*
X104207395Y-111315546D01*
G37*
G36*
X81347395Y-111315546D02*
G01*
X81520466Y-111387234D01*
X81597818Y-111438919D01*
X81676227Y-111491310D01*
X81808690Y-111623773D01*
X81808691Y-111623775D01*
X81912766Y-111779534D01*
X81984454Y-111952605D01*
X82021000Y-112136333D01*
X82021000Y-112323667D01*
X81984454Y-112507395D01*
X81912766Y-112680466D01*
X81912765Y-112680467D01*
X81808690Y-112836227D01*
X81676227Y-112968690D01*
X81623064Y-113004212D01*
X81520466Y-113072766D01*
X81347395Y-113144454D01*
X81163667Y-113181000D01*
X80976333Y-113181000D01*
X80792605Y-113144454D01*
X80619534Y-113072766D01*
X80516936Y-113004212D01*
X80463773Y-112968690D01*
X80331310Y-112836227D01*
X80227235Y-112680467D01*
X80227234Y-112680466D01*
X80155546Y-112507395D01*
X80119000Y-112323667D01*
X80119000Y-112136333D01*
X80155546Y-111952605D01*
X80227234Y-111779534D01*
X80331309Y-111623775D01*
X80331310Y-111623773D01*
X80463773Y-111491310D01*
X80542182Y-111438919D01*
X80619534Y-111387234D01*
X80792605Y-111315546D01*
X80976333Y-111279000D01*
X81163667Y-111279000D01*
X81347395Y-111315546D01*
G37*
G36*
X141088855Y-111002140D02*
G01*
X141152618Y-111008420D01*
X141243404Y-111035960D01*
X141275336Y-111045646D01*
X141388425Y-111106094D01*
X141487554Y-111187446D01*
X141568906Y-111286575D01*
X141629354Y-111399664D01*
X141629355Y-111399668D01*
X141666580Y-111522382D01*
X141679149Y-111650000D01*
X141666580Y-111777618D01*
X141639040Y-111868404D01*
X141629354Y-111900336D01*
X141568906Y-112013425D01*
X141487554Y-112112554D01*
X141388425Y-112193906D01*
X141275336Y-112254354D01*
X141243404Y-112264040D01*
X141152618Y-112291580D01*
X141088855Y-112297860D01*
X141056974Y-112301000D01*
X140443026Y-112301000D01*
X140411145Y-112297860D01*
X140347382Y-112291580D01*
X140256596Y-112264040D01*
X140224664Y-112254354D01*
X140111575Y-112193906D01*
X140012446Y-112112554D01*
X139931094Y-112013425D01*
X139870646Y-111900336D01*
X139860960Y-111868404D01*
X139833420Y-111777618D01*
X139820851Y-111650000D01*
X139833420Y-111522382D01*
X139870645Y-111399668D01*
X139870646Y-111399664D01*
X139931094Y-111286575D01*
X140012446Y-111187446D01*
X140111575Y-111106094D01*
X140224664Y-111045646D01*
X140256596Y-111035960D01*
X140347382Y-111008420D01*
X140411145Y-111002140D01*
X140443026Y-110999000D01*
X141056974Y-110999000D01*
X141088855Y-111002140D01*
G37*
G36*
X104207395Y-108775546D02*
G01*
X104380466Y-108847234D01*
X104380467Y-108847235D01*
X104536227Y-108951310D01*
X104668690Y-109083773D01*
X104668691Y-109083775D01*
X104772766Y-109239534D01*
X104844454Y-109412605D01*
X104881000Y-109596333D01*
X104881000Y-109783667D01*
X104844454Y-109967395D01*
X104772766Y-110140466D01*
X104772765Y-110140467D01*
X104668690Y-110296227D01*
X104536227Y-110428690D01*
X104457818Y-110481081D01*
X104380466Y-110532766D01*
X104207395Y-110604454D01*
X104023667Y-110641000D01*
X103836333Y-110641000D01*
X103652605Y-110604454D01*
X103479534Y-110532766D01*
X103402182Y-110481081D01*
X103323773Y-110428690D01*
X103191310Y-110296227D01*
X103087235Y-110140467D01*
X103087234Y-110140466D01*
X103015546Y-109967395D01*
X102979000Y-109783667D01*
X102979000Y-109596333D01*
X103015546Y-109412605D01*
X103087234Y-109239534D01*
X103191309Y-109083775D01*
X103191310Y-109083773D01*
X103323773Y-108951310D01*
X103479533Y-108847235D01*
X103479534Y-108847234D01*
X103652605Y-108775546D01*
X103836333Y-108739000D01*
X104023667Y-108739000D01*
X104207395Y-108775546D01*
G37*
G36*
X81347395Y-108775546D02*
G01*
X81520466Y-108847234D01*
X81520467Y-108847235D01*
X81676227Y-108951310D01*
X81808690Y-109083773D01*
X81808691Y-109083775D01*
X81912766Y-109239534D01*
X81984454Y-109412605D01*
X82021000Y-109596333D01*
X82021000Y-109783667D01*
X81984454Y-109967395D01*
X81912766Y-110140466D01*
X81912765Y-110140467D01*
X81808690Y-110296227D01*
X81676227Y-110428690D01*
X81597818Y-110481081D01*
X81520466Y-110532766D01*
X81347395Y-110604454D01*
X81163667Y-110641000D01*
X80976333Y-110641000D01*
X80792605Y-110604454D01*
X80619534Y-110532766D01*
X80542182Y-110481081D01*
X80463773Y-110428690D01*
X80331310Y-110296227D01*
X80227235Y-110140467D01*
X80227234Y-110140466D01*
X80155546Y-109967395D01*
X80119000Y-109783667D01*
X80119000Y-109596333D01*
X80155546Y-109412605D01*
X80227234Y-109239534D01*
X80331309Y-109083775D01*
X80331310Y-109083773D01*
X80463773Y-108951310D01*
X80619533Y-108847235D01*
X80619534Y-108847234D01*
X80792605Y-108775546D01*
X80976333Y-108739000D01*
X81163667Y-108739000D01*
X81347395Y-108775546D01*
G37*
G36*
X81347395Y-106235546D02*
G01*
X81520466Y-106307234D01*
X81520467Y-106307235D01*
X81676227Y-106411310D01*
X81808690Y-106543773D01*
X81808691Y-106543775D01*
X81912766Y-106699534D01*
X81984454Y-106872605D01*
X82021000Y-107056333D01*
X82021000Y-107243667D01*
X81984454Y-107427395D01*
X81912766Y-107600466D01*
X81912765Y-107600467D01*
X81808690Y-107756227D01*
X81676227Y-107888690D01*
X81597818Y-107941081D01*
X81520466Y-107992766D01*
X81347395Y-108064454D01*
X81163667Y-108101000D01*
X80976333Y-108101000D01*
X80792605Y-108064454D01*
X80619534Y-107992766D01*
X80542182Y-107941081D01*
X80463773Y-107888690D01*
X80331310Y-107756227D01*
X80227235Y-107600467D01*
X80227234Y-107600466D01*
X80155546Y-107427395D01*
X80119000Y-107243667D01*
X80119000Y-107056333D01*
X80155546Y-106872605D01*
X80227234Y-106699534D01*
X80331309Y-106543775D01*
X80331310Y-106543773D01*
X80463773Y-106411310D01*
X80619533Y-106307235D01*
X80619534Y-106307234D01*
X80792605Y-106235546D01*
X80976333Y-106199000D01*
X81163667Y-106199000D01*
X81347395Y-106235546D01*
G37*
G36*
X104207395Y-106235546D02*
G01*
X104380466Y-106307234D01*
X104380467Y-106307235D01*
X104536227Y-106411310D01*
X104668690Y-106543773D01*
X104668691Y-106543775D01*
X104772766Y-106699534D01*
X104844454Y-106872605D01*
X104881000Y-107056333D01*
X104881000Y-107243667D01*
X104844454Y-107427395D01*
X104772766Y-107600466D01*
X104772765Y-107600467D01*
X104668690Y-107756227D01*
X104536227Y-107888690D01*
X104457818Y-107941081D01*
X104380466Y-107992766D01*
X104207395Y-108064454D01*
X104023667Y-108101000D01*
X103836333Y-108101000D01*
X103652605Y-108064454D01*
X103479534Y-107992766D01*
X103402182Y-107941081D01*
X103323773Y-107888690D01*
X103191310Y-107756227D01*
X103087235Y-107600467D01*
X103087234Y-107600466D01*
X103015546Y-107427395D01*
X102979000Y-107243667D01*
X102979000Y-107056333D01*
X103015546Y-106872605D01*
X103087234Y-106699534D01*
X103191309Y-106543775D01*
X103191310Y-106543773D01*
X103323773Y-106411310D01*
X103479533Y-106307235D01*
X103479534Y-106307234D01*
X103652605Y-106235546D01*
X103836333Y-106199000D01*
X104023667Y-106199000D01*
X104207395Y-106235546D01*
G37*
G36*
X110375256Y-103891298D02*
G01*
X110481579Y-103912447D01*
X110782042Y-104036903D01*
X111052451Y-104217585D01*
X111282415Y-104447549D01*
X111463097Y-104717958D01*
X111587553Y-105018421D01*
X111651000Y-105337391D01*
X111651000Y-105662609D01*
X111587553Y-105981579D01*
X111463097Y-106282042D01*
X111282415Y-106552451D01*
X111052451Y-106782415D01*
X110782042Y-106963097D01*
X110481579Y-107087553D01*
X110375256Y-107108702D01*
X110162611Y-107151000D01*
X109837389Y-107151000D01*
X109624744Y-107108702D01*
X109518421Y-107087553D01*
X109217958Y-106963097D01*
X108947549Y-106782415D01*
X108717585Y-106552451D01*
X108536903Y-106282042D01*
X108412447Y-105981579D01*
X108349000Y-105662609D01*
X108349000Y-105337391D01*
X108412447Y-105018421D01*
X108536903Y-104717958D01*
X108717585Y-104447549D01*
X108947549Y-104217585D01*
X109217958Y-104036903D01*
X109518421Y-103912447D01*
X109624744Y-103891298D01*
X109837389Y-103849000D01*
X110162611Y-103849000D01*
X110375256Y-103891298D01*
G37*
G36*
X76375256Y-103891298D02*
G01*
X76481579Y-103912447D01*
X76782042Y-104036903D01*
X77052451Y-104217585D01*
X77282415Y-104447549D01*
X77463097Y-104717958D01*
X77587553Y-105018421D01*
X77651000Y-105337391D01*
X77651000Y-105662609D01*
X77587553Y-105981579D01*
X77463097Y-106282042D01*
X77282415Y-106552451D01*
X77052451Y-106782415D01*
X76782042Y-106963097D01*
X76481579Y-107087553D01*
X76375256Y-107108702D01*
X76162611Y-107151000D01*
X75837389Y-107151000D01*
X75624744Y-107108702D01*
X75518421Y-107087553D01*
X75217958Y-106963097D01*
X74947549Y-106782415D01*
X74717585Y-106552451D01*
X74536903Y-106282042D01*
X74412447Y-105981579D01*
X74349000Y-105662609D01*
X74349000Y-105337391D01*
X74412447Y-105018421D01*
X74536903Y-104717958D01*
X74717585Y-104447549D01*
X74947549Y-104217585D01*
X75217958Y-104036903D01*
X75518421Y-103912447D01*
X75624744Y-103891298D01*
X75837389Y-103849000D01*
X76162611Y-103849000D01*
X76375256Y-103891298D01*
G37*
G36*
X144375256Y-103891298D02*
G01*
X144481579Y-103912447D01*
X144782042Y-104036903D01*
X145052451Y-104217585D01*
X145282415Y-104447549D01*
X145463097Y-104717958D01*
X145587553Y-105018421D01*
X145651000Y-105337391D01*
X145651000Y-105662609D01*
X145587553Y-105981579D01*
X145463097Y-106282042D01*
X145282415Y-106552451D01*
X145052451Y-106782415D01*
X144782042Y-106963097D01*
X144481579Y-107087553D01*
X144375256Y-107108702D01*
X144162611Y-107151000D01*
X143837389Y-107151000D01*
X143624744Y-107108702D01*
X143518421Y-107087553D01*
X143217958Y-106963097D01*
X142947549Y-106782415D01*
X142717585Y-106552451D01*
X142536903Y-106282042D01*
X142412447Y-105981579D01*
X142349000Y-105662609D01*
X142349000Y-105337391D01*
X142412447Y-105018421D01*
X142536903Y-104717958D01*
X142717585Y-104447549D01*
X142947549Y-104217585D01*
X143217958Y-104036903D01*
X143518421Y-103912447D01*
X143624744Y-103891298D01*
X143837389Y-103849000D01*
X144162611Y-103849000D01*
X144375256Y-103891298D01*
G37*
G36*
X104207395Y-103695546D02*
G01*
X104380466Y-103767234D01*
X104380467Y-103767235D01*
X104536227Y-103871310D01*
X104668690Y-104003773D01*
X104721081Y-104082182D01*
X104772766Y-104159534D01*
X104844454Y-104332605D01*
X104881000Y-104516333D01*
X104881000Y-104703667D01*
X104844454Y-104887395D01*
X104772766Y-105060466D01*
X104772765Y-105060467D01*
X104668690Y-105216227D01*
X104536227Y-105348690D01*
X104457818Y-105401081D01*
X104380466Y-105452766D01*
X104207395Y-105524454D01*
X104023667Y-105561000D01*
X103836333Y-105561000D01*
X103652605Y-105524454D01*
X103479534Y-105452766D01*
X103402182Y-105401081D01*
X103323773Y-105348690D01*
X103191310Y-105216227D01*
X103087235Y-105060467D01*
X103087234Y-105060466D01*
X103015546Y-104887395D01*
X102979000Y-104703667D01*
X102979000Y-104516333D01*
X103015546Y-104332605D01*
X103087234Y-104159534D01*
X103138919Y-104082182D01*
X103191310Y-104003773D01*
X103323773Y-103871310D01*
X103479533Y-103767235D01*
X103479534Y-103767234D01*
X103652605Y-103695546D01*
X103836333Y-103659000D01*
X104023667Y-103659000D01*
X104207395Y-103695546D01*
G37*
G36*
X81347395Y-103695546D02*
G01*
X81520466Y-103767234D01*
X81520467Y-103767235D01*
X81676227Y-103871310D01*
X81808690Y-104003773D01*
X81861081Y-104082182D01*
X81912766Y-104159534D01*
X81984454Y-104332605D01*
X82021000Y-104516333D01*
X82021000Y-104703667D01*
X81984454Y-104887395D01*
X81912766Y-105060466D01*
X81912765Y-105060467D01*
X81808690Y-105216227D01*
X81676227Y-105348690D01*
X81597818Y-105401081D01*
X81520466Y-105452766D01*
X81347395Y-105524454D01*
X81163667Y-105561000D01*
X80976333Y-105561000D01*
X80792605Y-105524454D01*
X80619534Y-105452766D01*
X80542182Y-105401081D01*
X80463773Y-105348690D01*
X80331310Y-105216227D01*
X80227235Y-105060467D01*
X80227234Y-105060466D01*
X80155546Y-104887395D01*
X80119000Y-104703667D01*
X80119000Y-104516333D01*
X80155546Y-104332605D01*
X80227234Y-104159534D01*
X80278919Y-104082182D01*
X80331310Y-104003773D01*
X80463773Y-103871310D01*
X80619533Y-103767235D01*
X80619534Y-103767234D01*
X80792605Y-103695546D01*
X80976333Y-103659000D01*
X81163667Y-103659000D01*
X81347395Y-103695546D01*
G37*
G36*
X138813512Y-103353927D02*
G01*
X138962812Y-103383624D01*
X139126784Y-103451544D01*
X139274354Y-103550147D01*
X139399853Y-103675646D01*
X139498456Y-103823216D01*
X139566376Y-103987188D01*
X139601000Y-104161259D01*
X139601000Y-104338741D01*
X139566376Y-104512812D01*
X139498456Y-104676784D01*
X139399853Y-104824354D01*
X139274354Y-104949853D01*
X139126784Y-105048456D01*
X138962812Y-105116376D01*
X138813512Y-105146073D01*
X138788742Y-105151000D01*
X138611258Y-105151000D01*
X138586488Y-105146073D01*
X138437188Y-105116376D01*
X138273216Y-105048456D01*
X138125646Y-104949853D01*
X138000147Y-104824354D01*
X137901544Y-104676784D01*
X137833624Y-104512812D01*
X137799000Y-104338741D01*
X137799000Y-104161259D01*
X137833624Y-103987188D01*
X137901544Y-103823216D01*
X138000147Y-103675646D01*
X138125646Y-103550147D01*
X138273216Y-103451544D01*
X138437188Y-103383624D01*
X138586488Y-103353927D01*
X138611258Y-103349000D01*
X138788742Y-103349000D01*
X138813512Y-103353927D01*
G37*
G36*
X136273512Y-103353927D02*
G01*
X136422812Y-103383624D01*
X136586784Y-103451544D01*
X136734354Y-103550147D01*
X136859853Y-103675646D01*
X136958456Y-103823216D01*
X137026376Y-103987188D01*
X137061000Y-104161259D01*
X137061000Y-104338741D01*
X137026376Y-104512812D01*
X136958456Y-104676784D01*
X136859853Y-104824354D01*
X136734354Y-104949853D01*
X136586784Y-105048456D01*
X136422812Y-105116376D01*
X136273512Y-105146073D01*
X136248742Y-105151000D01*
X136071258Y-105151000D01*
X136046488Y-105146073D01*
X135897188Y-105116376D01*
X135733216Y-105048456D01*
X135585646Y-104949853D01*
X135460147Y-104824354D01*
X135361544Y-104676784D01*
X135293624Y-104512812D01*
X135259000Y-104338741D01*
X135259000Y-104161259D01*
X135293624Y-103987188D01*
X135361544Y-103823216D01*
X135460147Y-103675646D01*
X135585646Y-103550147D01*
X135733216Y-103451544D01*
X135897188Y-103383624D01*
X136046488Y-103353927D01*
X136071258Y-103349000D01*
X136248742Y-103349000D01*
X136273512Y-103353927D01*
G37*
G36*
X133733512Y-103353927D02*
G01*
X133882812Y-103383624D01*
X134046784Y-103451544D01*
X134194354Y-103550147D01*
X134319853Y-103675646D01*
X134418456Y-103823216D01*
X134486376Y-103987188D01*
X134521000Y-104161259D01*
X134521000Y-104338741D01*
X134486376Y-104512812D01*
X134418456Y-104676784D01*
X134319853Y-104824354D01*
X134194354Y-104949853D01*
X134046784Y-105048456D01*
X133882812Y-105116376D01*
X133733512Y-105146073D01*
X133708742Y-105151000D01*
X133531258Y-105151000D01*
X133506488Y-105146073D01*
X133357188Y-105116376D01*
X133193216Y-105048456D01*
X133045646Y-104949853D01*
X132920147Y-104824354D01*
X132821544Y-104676784D01*
X132753624Y-104512812D01*
X132719000Y-104338741D01*
X132719000Y-104161259D01*
X132753624Y-103987188D01*
X132821544Y-103823216D01*
X132920147Y-103675646D01*
X133045646Y-103550147D01*
X133193216Y-103451544D01*
X133357188Y-103383624D01*
X133506488Y-103353927D01*
X133531258Y-103349000D01*
X133708742Y-103349000D01*
X133733512Y-103353927D01*
G37*
G36*
X131193512Y-103353927D02*
G01*
X131342812Y-103383624D01*
X131506784Y-103451544D01*
X131654354Y-103550147D01*
X131779853Y-103675646D01*
X131878456Y-103823216D01*
X131946376Y-103987188D01*
X131981000Y-104161259D01*
X131981000Y-104338741D01*
X131946376Y-104512812D01*
X131878456Y-104676784D01*
X131779853Y-104824354D01*
X131654354Y-104949853D01*
X131506784Y-105048456D01*
X131342812Y-105116376D01*
X131193512Y-105146073D01*
X131168742Y-105151000D01*
X130991258Y-105151000D01*
X130966488Y-105146073D01*
X130817188Y-105116376D01*
X130653216Y-105048456D01*
X130505646Y-104949853D01*
X130380147Y-104824354D01*
X130281544Y-104676784D01*
X130213624Y-104512812D01*
X130179000Y-104338741D01*
X130179000Y-104161259D01*
X130213624Y-103987188D01*
X130281544Y-103823216D01*
X130380147Y-103675646D01*
X130505646Y-103550147D01*
X130653216Y-103451544D01*
X130817188Y-103383624D01*
X130966488Y-103353927D01*
X130991258Y-103349000D01*
X131168742Y-103349000D01*
X131193512Y-103353927D01*
G37*
G36*
X128653512Y-103353927D02*
G01*
X128802812Y-103383624D01*
X128966784Y-103451544D01*
X129114354Y-103550147D01*
X129239853Y-103675646D01*
X129338456Y-103823216D01*
X129406376Y-103987188D01*
X129441000Y-104161259D01*
X129441000Y-104338741D01*
X129406376Y-104512812D01*
X129338456Y-104676784D01*
X129239853Y-104824354D01*
X129114354Y-104949853D01*
X128966784Y-105048456D01*
X128802812Y-105116376D01*
X128653512Y-105146073D01*
X128628742Y-105151000D01*
X128451258Y-105151000D01*
X128426488Y-105146073D01*
X128277188Y-105116376D01*
X128113216Y-105048456D01*
X127965646Y-104949853D01*
X127840147Y-104824354D01*
X127741544Y-104676784D01*
X127673624Y-104512812D01*
X127639000Y-104338741D01*
X127639000Y-104161259D01*
X127673624Y-103987188D01*
X127741544Y-103823216D01*
X127840147Y-103675646D01*
X127965646Y-103550147D01*
X128113216Y-103451544D01*
X128277188Y-103383624D01*
X128426488Y-103353927D01*
X128451258Y-103349000D01*
X128628742Y-103349000D01*
X128653512Y-103353927D01*
G37*
G36*
X126901000Y-105151000D02*
G01*
X125099000Y-105151000D01*
X125099000Y-103349000D01*
X126901000Y-103349000D01*
X126901000Y-105151000D01*
G37*
M02*
