G04 #@! TF.GenerationSoftware,KiCad,Pcbnew,(5.1.5)-3*
G04 #@! TF.CreationDate,2020-12-24T11:10:49+00:00*
G04 #@! TF.ProjectId,ModuleV421,4d6f6475-6c65-4563-9432-312e6b696361,rev?*
G04 #@! TF.SameCoordinates,Original*
G04 #@! TF.FileFunction,Soldermask,Top*
G04 #@! TF.FilePolarity,Negative*
%FSLAX46Y46*%
G04 Gerber Fmt 4.6, Leading zero omitted, Abs format (unit mm)*
G04 Created by KiCad (PCBNEW (5.1.5)-3) date 2020-12-24 11:10:49*
%MOMM*%
%LPD*%
G04 APERTURE LIST*
%ADD10R,1.400000X1.650000*%
%ADD11C,1.552000*%
%ADD12R,1.000000X0.800000*%
%ADD13R,1.200000X1.300000*%
%ADD14R,1.300000X2.100000*%
%ADD15R,1.600000X1.600000*%
%ADD16R,1.700000X1.200000*%
%ADD17R,1.600000X2.100000*%
%ADD18O,1.600000X2.100000*%
%ADD19R,0.900000X1.300000*%
%ADD20R,1.200000X1.150000*%
%ADD21C,3.600000*%
%ADD22R,2.100000X2.100000*%
%ADD23O,2.100000X2.100000*%
%ADD24R,1.900000X1.000000*%
G04 APERTURE END LIST*
D10*
X127572360Y-61609720D03*
X129572360Y-61609720D03*
D11*
X130417600Y-92237600D03*
D12*
X114017600Y-83037600D03*
X114017600Y-82137600D03*
D13*
X123767600Y-59787600D03*
X125667600Y-59787600D03*
X124717600Y-57787600D03*
D14*
X107667600Y-76087600D03*
X104767600Y-76087600D03*
X112167600Y-76087600D03*
X109267600Y-76087600D03*
X118867600Y-76087600D03*
X115967600Y-76087600D03*
X123267600Y-76087600D03*
X120367600Y-76087600D03*
X107667600Y-84037600D03*
X104767600Y-84037600D03*
X107667600Y-86687600D03*
X104767600Y-86687600D03*
X112167600Y-84037600D03*
X109267600Y-84037600D03*
X112167600Y-86687600D03*
X109267600Y-86687600D03*
X118767600Y-84037600D03*
X115867600Y-84037600D03*
X118767600Y-86687600D03*
X115867600Y-86687600D03*
X123267600Y-84037600D03*
X120367600Y-84037600D03*
X123267600Y-86687600D03*
X120367600Y-86687600D03*
X107667600Y-78737600D03*
X104767600Y-78737600D03*
X107667600Y-81387600D03*
X104767600Y-81387600D03*
X112167600Y-78737600D03*
X109267600Y-78737600D03*
X112167600Y-81387600D03*
X109267600Y-81387600D03*
X118867600Y-78737600D03*
X115967600Y-78737600D03*
X118767600Y-81387600D03*
X115867600Y-81387600D03*
X123267600Y-78737600D03*
X120367600Y-78737600D03*
X123267600Y-81387600D03*
X120367600Y-81387600D03*
D15*
X110442600Y-90512600D03*
X108242600Y-90512600D03*
D10*
X118817600Y-62587600D03*
X120817600Y-62587600D03*
D15*
X106617600Y-55287600D03*
X104417600Y-55287600D03*
D16*
X113867600Y-57747600D03*
X113867600Y-59027600D03*
X120167600Y-59027600D03*
X120167600Y-57747600D03*
D15*
X130417600Y-55087600D03*
X128217600Y-55087600D03*
D17*
X123217600Y-54387600D03*
D18*
X121217600Y-54387600D03*
D19*
X110092600Y-92312600D03*
X108592600Y-92312600D03*
X130967600Y-76287600D03*
X129467600Y-76287600D03*
X114167600Y-68487600D03*
X115667600Y-68487600D03*
X129367600Y-57187600D03*
X127867600Y-57187600D03*
X116167600Y-51887600D03*
X117667600Y-51887600D03*
X116167600Y-49787600D03*
X117667600Y-49787600D03*
X110467600Y-70887600D03*
X111967600Y-70887600D03*
X110467600Y-72887600D03*
X111967600Y-72887600D03*
X116167600Y-53987600D03*
X117667600Y-53987600D03*
X114167600Y-63837600D03*
X115667600Y-63837600D03*
X114167600Y-66087600D03*
X115667600Y-66087600D03*
X114167600Y-70587600D03*
X115667600Y-70587600D03*
X114167600Y-61587600D03*
X115667600Y-61587600D03*
D20*
X108367600Y-72887600D03*
X106867600Y-72887600D03*
D21*
X129167600Y-50737600D03*
X104667600Y-50737600D03*
X104667600Y-95237600D03*
X129167600Y-95237600D03*
D22*
X129917600Y-78987600D03*
D23*
X129917600Y-81527600D03*
X129917600Y-84067600D03*
X129917600Y-86607600D03*
X129917600Y-89147600D03*
D22*
X114017600Y-90237600D03*
D23*
X116557600Y-90237600D03*
X114017600Y-92777600D03*
X116557600Y-92777600D03*
X114017600Y-95317600D03*
X116557600Y-95317600D03*
D17*
X121217600Y-91487600D03*
D18*
X123217600Y-91487600D03*
D24*
X121417600Y-64577600D03*
X121417600Y-65847600D03*
X121417600Y-67117600D03*
X121417600Y-68387600D03*
X121417600Y-69657600D03*
X121417600Y-70927600D03*
X121417600Y-72197600D03*
X126817600Y-72197600D03*
X126817600Y-70927600D03*
X126817600Y-69657600D03*
X126817600Y-68387600D03*
X126817600Y-67117600D03*
X126817600Y-65847600D03*
X126817600Y-64577600D03*
D17*
X112617600Y-54387600D03*
D18*
X110617600Y-54387600D03*
D13*
X106567600Y-71287600D03*
X108467600Y-71287600D03*
X107517600Y-69287600D03*
M02*
