M48
; DRILL file {KiCad (5.1.5)-3} date 24/12/2020 11:10:51
; FORMAT={3:3/ absolute / metric / suppress leading zeros}
; #@! TF.CreationDate,2020-12-24T11:10:51+00:00
; #@! TF.GenerationSoftware,Kicad,Pcbnew,(5.1.5)-3
; #@! TF.FileFunction,Plated,1,2,PTH
FMAT,2
METRIC,TZ
T1C0.400
T2C0.750
T3C1.000
%
G90
G05
T1
X103918Y-67688
X105118Y-67688
X105418Y-89988
X106518Y-89988
X107518Y-67388
X108568Y-58138
X109818Y-67688
X109818Y-68788
X110218Y-96388
X111018Y-67688
X111018Y-68788
X111218Y-60188
X111318Y-96388
X112118Y-58663
X112868Y-65238
X112918Y-50438
X113318Y-72788
X113935Y-50409
X114018Y-81838
X114018Y-83888
X114188Y-72918
X115292Y-67349
X115877Y-74097
X115918Y-71688
X116818Y-68888
X117288Y-65255
X118159Y-72213
X118408Y-66962
X118669Y-71239
X119818Y-49188
X119818Y-51588
X121396Y-74309
X122126Y-63040
X122865Y-62225
X123083Y-64665
X123468Y-71087
X123723Y-72787
X124402Y-70505
X124793Y-61119
X125009Y-68610
X125077Y-73995
X125418Y-86288
X125418Y-87388
X126224Y-88607
X126443Y-75524
X127524Y-72149
X127572Y-61610
X127618Y-75288
X127818Y-87788
X128532Y-64569
X128715Y-67990
X128862Y-69898
X129733Y-71340
X130673Y-68468
X131018Y-56588
T2
X110618Y-54388
X112618Y-54388
X121218Y-91488
X123218Y-91488
X121218Y-54388
X123218Y-54388
T3
X114018Y-90238
X114018Y-92778
X114018Y-95318
X116558Y-90238
X116558Y-92778
X116558Y-95318
X129918Y-78988
X129918Y-81528
X129918Y-84068
X129918Y-86608
X129918Y-89148
T0
M30
