G04 #@! TF.GenerationSoftware,KiCad,Pcbnew,(5.1.5)-3*
G04 #@! TF.CreationDate,2021-03-08T13:26:00+00:00*
G04 #@! TF.ProjectId,ESP8266ControllerCircuit,45535038-3236-4364-936f-6e74726f6c6c,rev?*
G04 #@! TF.SameCoordinates,Original*
G04 #@! TF.FileFunction,Legend,Bot*
G04 #@! TF.FilePolarity,Positive*
%FSLAX46Y46*%
G04 Gerber Fmt 4.6, Leading zero omitted, Abs format (unit mm)*
G04 Created by KiCad (PCBNEW (5.1.5)-3) date 2021-03-08 13:26:00*
%MOMM*%
%LPD*%
G04 APERTURE LIST*
%ADD10C,0.150000*%
G04 APERTURE END LIST*
D10*
X126209523Y-129221428D02*
X126209523Y-130273809D01*
X126271428Y-130397619D01*
X126333333Y-130459523D01*
X126457142Y-130521428D01*
X126642857Y-130521428D01*
X126766666Y-130459523D01*
X126209523Y-130026190D02*
X126333333Y-130088095D01*
X126580952Y-130088095D01*
X126704761Y-130026190D01*
X126766666Y-129964285D01*
X126828571Y-129840476D01*
X126828571Y-129469047D01*
X126766666Y-129345238D01*
X126704761Y-129283333D01*
X126580952Y-129221428D01*
X126333333Y-129221428D01*
X126209523Y-129283333D01*
X125590476Y-130088095D02*
X125590476Y-129221428D01*
X125590476Y-128788095D02*
X125652380Y-128850000D01*
X125590476Y-128911904D01*
X125528571Y-128850000D01*
X125590476Y-128788095D01*
X125590476Y-128911904D01*
X125157142Y-129221428D02*
X124661904Y-129221428D01*
X124971428Y-128788095D02*
X124971428Y-129902380D01*
X124909523Y-130026190D01*
X124785714Y-130088095D01*
X124661904Y-130088095D01*
X124228571Y-130088095D02*
X124228571Y-128788095D01*
X123671428Y-130088095D02*
X123671428Y-129407142D01*
X123733333Y-129283333D01*
X123857142Y-129221428D01*
X124042857Y-129221428D01*
X124166666Y-129283333D01*
X124228571Y-129345238D01*
X122495238Y-129221428D02*
X122495238Y-130088095D01*
X123052380Y-129221428D02*
X123052380Y-129902380D01*
X122990476Y-130026190D01*
X122866666Y-130088095D01*
X122680952Y-130088095D01*
X122557142Y-130026190D01*
X122495238Y-129964285D01*
X121876190Y-130088095D02*
X121876190Y-128788095D01*
X121876190Y-129283333D02*
X121752380Y-129221428D01*
X121504761Y-129221428D01*
X121380952Y-129283333D01*
X121319047Y-129345238D01*
X121257142Y-129469047D01*
X121257142Y-129840476D01*
X121319047Y-129964285D01*
X121380952Y-130026190D01*
X121504761Y-130088095D01*
X121752380Y-130088095D01*
X121876190Y-130026190D01*
X120700000Y-129964285D02*
X120638095Y-130026190D01*
X120700000Y-130088095D01*
X120761904Y-130026190D01*
X120700000Y-129964285D01*
X120700000Y-130088095D01*
X119523809Y-130026190D02*
X119647619Y-130088095D01*
X119895238Y-130088095D01*
X120019047Y-130026190D01*
X120080952Y-129964285D01*
X120142857Y-129840476D01*
X120142857Y-129469047D01*
X120080952Y-129345238D01*
X120019047Y-129283333D01*
X119895238Y-129221428D01*
X119647619Y-129221428D01*
X119523809Y-129283333D01*
X118780952Y-130088095D02*
X118904761Y-130026190D01*
X118966666Y-129964285D01*
X119028571Y-129840476D01*
X119028571Y-129469047D01*
X118966666Y-129345238D01*
X118904761Y-129283333D01*
X118780952Y-129221428D01*
X118595238Y-129221428D01*
X118471428Y-129283333D01*
X118409523Y-129345238D01*
X118347619Y-129469047D01*
X118347619Y-129840476D01*
X118409523Y-129964285D01*
X118471428Y-130026190D01*
X118595238Y-130088095D01*
X118780952Y-130088095D01*
X117790476Y-130088095D02*
X117790476Y-129221428D01*
X117790476Y-129345238D02*
X117728571Y-129283333D01*
X117604761Y-129221428D01*
X117419047Y-129221428D01*
X117295238Y-129283333D01*
X117233333Y-129407142D01*
X117233333Y-130088095D01*
X117233333Y-129407142D02*
X117171428Y-129283333D01*
X117047619Y-129221428D01*
X116861904Y-129221428D01*
X116738095Y-129283333D01*
X116676190Y-129407142D01*
X116676190Y-130088095D01*
X115128571Y-128726190D02*
X116242857Y-130397619D01*
X114757142Y-130026190D02*
X114633333Y-130088095D01*
X114385714Y-130088095D01*
X114261904Y-130026190D01*
X114200000Y-129902380D01*
X114200000Y-129840476D01*
X114261904Y-129716666D01*
X114385714Y-129654761D01*
X114571428Y-129654761D01*
X114695238Y-129592857D01*
X114757142Y-129469047D01*
X114757142Y-129407142D01*
X114695238Y-129283333D01*
X114571428Y-129221428D01*
X114385714Y-129221428D01*
X114261904Y-129283333D01*
X113828571Y-129221428D02*
X113333333Y-129221428D01*
X113642857Y-128788095D02*
X113642857Y-129902380D01*
X113580952Y-130026190D01*
X113457142Y-130088095D01*
X113333333Y-130088095D01*
X112342857Y-129221428D02*
X112342857Y-130088095D01*
X112900000Y-129221428D02*
X112900000Y-129902380D01*
X112838095Y-130026190D01*
X112714285Y-130088095D01*
X112528571Y-130088095D01*
X112404761Y-130026190D01*
X112342857Y-129964285D01*
X111166666Y-130088095D02*
X111166666Y-129407142D01*
X111228571Y-129283333D01*
X111352380Y-129221428D01*
X111600000Y-129221428D01*
X111723809Y-129283333D01*
X111166666Y-130026190D02*
X111290476Y-130088095D01*
X111600000Y-130088095D01*
X111723809Y-130026190D01*
X111785714Y-129902380D01*
X111785714Y-129778571D01*
X111723809Y-129654761D01*
X111600000Y-129592857D01*
X111290476Y-129592857D01*
X111166666Y-129530952D01*
X110547619Y-130088095D02*
X110547619Y-129221428D01*
X110547619Y-129469047D02*
X110485714Y-129345238D01*
X110423809Y-129283333D01*
X110300000Y-129221428D01*
X110176190Y-129221428D01*
X109928571Y-129221428D02*
X109433333Y-129221428D01*
X109742857Y-128788095D02*
X109742857Y-129902380D01*
X109680952Y-130026190D01*
X109557142Y-130088095D01*
X109433333Y-130088095D01*
X109000000Y-129221428D02*
X109000000Y-130521428D01*
X109000000Y-129283333D02*
X108876190Y-129221428D01*
X108628571Y-129221428D01*
X108504761Y-129283333D01*
X108442857Y-129345238D01*
X108380952Y-129469047D01*
X108380952Y-129840476D01*
X108442857Y-129964285D01*
X108504761Y-130026190D01*
X108628571Y-130088095D01*
X108876190Y-130088095D01*
X109000000Y-130026190D01*
X107823809Y-130088095D02*
X107823809Y-129221428D01*
X107823809Y-128788095D02*
X107885714Y-128850000D01*
X107823809Y-128911904D01*
X107761904Y-128850000D01*
X107823809Y-128788095D01*
X107823809Y-128911904D01*
X107390476Y-129221428D02*
X106895238Y-129221428D01*
X107204761Y-128788095D02*
X107204761Y-129902380D01*
X107142857Y-130026190D01*
X107019047Y-130088095D01*
X106895238Y-130088095D01*
X106647619Y-129221428D02*
X106152380Y-129221428D01*
X106461904Y-128788095D02*
X106461904Y-129902380D01*
X106400000Y-130026190D01*
X106276190Y-130088095D01*
X106152380Y-130088095D01*
X105161904Y-130088095D02*
X105161904Y-129407142D01*
X105223809Y-129283333D01*
X105347619Y-129221428D01*
X105595238Y-129221428D01*
X105719047Y-129283333D01*
X105161904Y-130026190D02*
X105285714Y-130088095D01*
X105595238Y-130088095D01*
X105719047Y-130026190D01*
X105780952Y-129902380D01*
X105780952Y-129778571D01*
X105719047Y-129654761D01*
X105595238Y-129592857D01*
X105285714Y-129592857D01*
X105161904Y-129530952D01*
X104666666Y-129221428D02*
X104419047Y-130088095D01*
X104171428Y-129469047D01*
X103923809Y-130088095D01*
X103676190Y-129221428D01*
X102623809Y-130088095D02*
X102623809Y-129407142D01*
X102685714Y-129283333D01*
X102809523Y-129221428D01*
X103057142Y-129221428D01*
X103180952Y-129283333D01*
X102623809Y-130026190D02*
X102747619Y-130088095D01*
X103057142Y-130088095D01*
X103180952Y-130026190D01*
X103242857Y-129902380D01*
X103242857Y-129778571D01*
X103180952Y-129654761D01*
X103057142Y-129592857D01*
X102747619Y-129592857D01*
X102623809Y-129530952D01*
X102128571Y-129221428D02*
X101819047Y-130088095D01*
X101509523Y-129221428D02*
X101819047Y-130088095D01*
X101942857Y-130397619D01*
X102004761Y-130459523D01*
X102128571Y-130521428D01*
X100085714Y-128726190D02*
X101200000Y-130397619D01*
X99095238Y-130088095D02*
X99095238Y-128788095D01*
X99095238Y-130026190D02*
X99219047Y-130088095D01*
X99466666Y-130088095D01*
X99590476Y-130026190D01*
X99652380Y-129964285D01*
X99714285Y-129840476D01*
X99714285Y-129469047D01*
X99652380Y-129345238D01*
X99590476Y-129283333D01*
X99466666Y-129221428D01*
X99219047Y-129221428D01*
X99095238Y-129283333D01*
X98476190Y-130088095D02*
X98476190Y-129221428D01*
X98476190Y-128788095D02*
X98538095Y-128850000D01*
X98476190Y-128911904D01*
X98414285Y-128850000D01*
X98476190Y-128788095D01*
X98476190Y-128911904D01*
X97980952Y-129221428D02*
X97671428Y-130088095D01*
X97361904Y-129221428D02*
X97671428Y-130088095D01*
X97795238Y-130397619D01*
X97857142Y-130459523D01*
X97980952Y-130521428D01*
X96433333Y-129407142D02*
X96247619Y-129469047D01*
X96185714Y-129530952D01*
X96123809Y-129654761D01*
X96123809Y-129840476D01*
X96185714Y-129964285D01*
X96247619Y-130026190D01*
X96371428Y-130088095D01*
X96866666Y-130088095D01*
X96866666Y-128788095D01*
X96433333Y-128788095D01*
X96309523Y-128850000D01*
X96247619Y-128911904D01*
X96185714Y-129035714D01*
X96185714Y-129159523D01*
X96247619Y-129283333D01*
X96309523Y-129345238D01*
X96433333Y-129407142D01*
X96866666Y-129407142D01*
X95566666Y-130088095D02*
X95566666Y-128788095D01*
X95133333Y-129716666D01*
X94700000Y-128788095D01*
X94700000Y-130088095D01*
X94142857Y-130026190D02*
X93957142Y-130088095D01*
X93647619Y-130088095D01*
X93523809Y-130026190D01*
X93461904Y-129964285D01*
X93400000Y-129840476D01*
X93400000Y-129716666D01*
X93461904Y-129592857D01*
X93523809Y-129530952D01*
X93647619Y-129469047D01*
X93895238Y-129407142D01*
X94019047Y-129345238D01*
X94080952Y-129283333D01*
X94142857Y-129159523D01*
X94142857Y-129035714D01*
X94080952Y-128911904D01*
X94019047Y-128850000D01*
X93895238Y-128788095D01*
X93585714Y-128788095D01*
X93400000Y-128850000D01*
X92966666Y-129221428D02*
X92657142Y-130088095D01*
X92347619Y-129221428D01*
X91295238Y-129221428D02*
X91295238Y-130088095D01*
X91604761Y-128726190D02*
X91914285Y-129654761D01*
X91109523Y-129654761D01*
X133371428Y-122097619D02*
X133495238Y-122035714D01*
X133742857Y-122035714D01*
X133866666Y-122097619D01*
X133990476Y-122221428D01*
X134052380Y-122345238D01*
X134052380Y-122592857D01*
X133990476Y-122716666D01*
X133866666Y-122840476D01*
X133742857Y-122902380D01*
X133495238Y-122902380D01*
X133371428Y-122840476D01*
X133619047Y-121602380D02*
X133928571Y-121664285D01*
X134238095Y-121850000D01*
X134423809Y-122159523D01*
X134485714Y-122469047D01*
X134423809Y-122778571D01*
X134238095Y-123088095D01*
X133928571Y-123273809D01*
X133619047Y-123335714D01*
X133309523Y-123273809D01*
X133000000Y-123088095D01*
X132814285Y-122778571D01*
X132752380Y-122469047D01*
X132814285Y-122159523D01*
X133000000Y-121850000D01*
X133309523Y-121664285D01*
X133619047Y-121602380D01*
X132257142Y-121911904D02*
X132195238Y-121850000D01*
X132071428Y-121788095D01*
X131761904Y-121788095D01*
X131638095Y-121850000D01*
X131576190Y-121911904D01*
X131514285Y-122035714D01*
X131514285Y-122159523D01*
X131576190Y-122345238D01*
X132319047Y-123088095D01*
X131514285Y-123088095D01*
X130709523Y-121788095D02*
X130585714Y-121788095D01*
X130461904Y-121850000D01*
X130400000Y-121911904D01*
X130338095Y-122035714D01*
X130276190Y-122283333D01*
X130276190Y-122592857D01*
X130338095Y-122840476D01*
X130400000Y-122964285D01*
X130461904Y-123026190D01*
X130585714Y-123088095D01*
X130709523Y-123088095D01*
X130833333Y-123026190D01*
X130895238Y-122964285D01*
X130957142Y-122840476D01*
X131019047Y-122592857D01*
X131019047Y-122283333D01*
X130957142Y-122035714D01*
X130895238Y-121911904D01*
X130833333Y-121850000D01*
X130709523Y-121788095D01*
X129038095Y-123088095D02*
X129780952Y-123088095D01*
X129409523Y-123088095D02*
X129409523Y-121788095D01*
X129533333Y-121973809D01*
X129657142Y-122097619D01*
X129780952Y-122159523D01*
X128419047Y-123088095D02*
X128171428Y-123088095D01*
X128047619Y-123026190D01*
X127985714Y-122964285D01*
X127861904Y-122778571D01*
X127800000Y-122530952D01*
X127800000Y-122035714D01*
X127861904Y-121911904D01*
X127923809Y-121850000D01*
X128047619Y-121788095D01*
X128295238Y-121788095D01*
X128419047Y-121850000D01*
X128480952Y-121911904D01*
X128542857Y-122035714D01*
X128542857Y-122345238D01*
X128480952Y-122469047D01*
X128419047Y-122530952D01*
X128295238Y-122592857D01*
X128047619Y-122592857D01*
X127923809Y-122530952D01*
X127861904Y-122469047D01*
X127800000Y-122345238D01*
X126314285Y-121726190D02*
X127428571Y-123397619D01*
X125942857Y-121911904D02*
X125880952Y-121850000D01*
X125757142Y-121788095D01*
X125447619Y-121788095D01*
X125323809Y-121850000D01*
X125261904Y-121911904D01*
X125200000Y-122035714D01*
X125200000Y-122159523D01*
X125261904Y-122345238D01*
X126004761Y-123088095D01*
X125200000Y-123088095D01*
X124395238Y-121788095D02*
X124271428Y-121788095D01*
X124147619Y-121850000D01*
X124085714Y-121911904D01*
X124023809Y-122035714D01*
X123961904Y-122283333D01*
X123961904Y-122592857D01*
X124023809Y-122840476D01*
X124085714Y-122964285D01*
X124147619Y-123026190D01*
X124271428Y-123088095D01*
X124395238Y-123088095D01*
X124519047Y-123026190D01*
X124580952Y-122964285D01*
X124642857Y-122840476D01*
X124704761Y-122592857D01*
X124704761Y-122283333D01*
X124642857Y-122035714D01*
X124580952Y-121911904D01*
X124519047Y-121850000D01*
X124395238Y-121788095D01*
X123466666Y-121911904D02*
X123404761Y-121850000D01*
X123280952Y-121788095D01*
X122971428Y-121788095D01*
X122847619Y-121850000D01*
X122785714Y-121911904D01*
X122723809Y-122035714D01*
X122723809Y-122159523D01*
X122785714Y-122345238D01*
X123528571Y-123088095D01*
X122723809Y-123088095D01*
X121919047Y-121788095D02*
X121795238Y-121788095D01*
X121671428Y-121850000D01*
X121609523Y-121911904D01*
X121547619Y-122035714D01*
X121485714Y-122283333D01*
X121485714Y-122592857D01*
X121547619Y-122840476D01*
X121609523Y-122964285D01*
X121671428Y-123026190D01*
X121795238Y-123088095D01*
X121919047Y-123088095D01*
X122042857Y-123026190D01*
X122104761Y-122964285D01*
X122166666Y-122840476D01*
X122228571Y-122592857D01*
X122228571Y-122283333D01*
X122166666Y-122035714D01*
X122104761Y-121911904D01*
X122042857Y-121850000D01*
X121919047Y-121788095D01*
X120000000Y-123026190D02*
X119814285Y-123088095D01*
X119504761Y-123088095D01*
X119380952Y-123026190D01*
X119319047Y-122964285D01*
X119257142Y-122840476D01*
X119257142Y-122716666D01*
X119319047Y-122592857D01*
X119380952Y-122530952D01*
X119504761Y-122469047D01*
X119752380Y-122407142D01*
X119876190Y-122345238D01*
X119938095Y-122283333D01*
X120000000Y-122159523D01*
X120000000Y-122035714D01*
X119938095Y-121911904D01*
X119876190Y-121850000D01*
X119752380Y-121788095D01*
X119442857Y-121788095D01*
X119257142Y-121850000D01*
X118885714Y-122221428D02*
X118390476Y-122221428D01*
X118700000Y-121788095D02*
X118700000Y-122902380D01*
X118638095Y-123026190D01*
X118514285Y-123088095D01*
X118390476Y-123088095D01*
X117400000Y-122221428D02*
X117400000Y-123088095D01*
X117957142Y-122221428D02*
X117957142Y-122902380D01*
X117895238Y-123026190D01*
X117771428Y-123088095D01*
X117585714Y-123088095D01*
X117461904Y-123026190D01*
X117400000Y-122964285D01*
X116223809Y-123088095D02*
X116223809Y-122407142D01*
X116285714Y-122283333D01*
X116409523Y-122221428D01*
X116657142Y-122221428D01*
X116780952Y-122283333D01*
X116223809Y-123026190D02*
X116347619Y-123088095D01*
X116657142Y-123088095D01*
X116780952Y-123026190D01*
X116842857Y-122902380D01*
X116842857Y-122778571D01*
X116780952Y-122654761D01*
X116657142Y-122592857D01*
X116347619Y-122592857D01*
X116223809Y-122530952D01*
X115604761Y-123088095D02*
X115604761Y-122221428D01*
X115604761Y-122469047D02*
X115542857Y-122345238D01*
X115480952Y-122283333D01*
X115357142Y-122221428D01*
X115233333Y-122221428D01*
X114985714Y-122221428D02*
X114490476Y-122221428D01*
X114800000Y-121788095D02*
X114800000Y-122902380D01*
X114738095Y-123026190D01*
X114614285Y-123088095D01*
X114490476Y-123088095D01*
X113066666Y-123088095D02*
X113066666Y-121788095D01*
X112571428Y-121788095D01*
X112447619Y-121850000D01*
X112385714Y-121911904D01*
X112323809Y-122035714D01*
X112323809Y-122221428D01*
X112385714Y-122345238D01*
X112447619Y-122407142D01*
X112571428Y-122469047D01*
X113066666Y-122469047D01*
X111766666Y-123088095D02*
X111766666Y-122221428D01*
X111766666Y-121788095D02*
X111828571Y-121850000D01*
X111766666Y-121911904D01*
X111704761Y-121850000D01*
X111766666Y-121788095D01*
X111766666Y-121911904D01*
X111333333Y-122221428D02*
X110838095Y-122221428D01*
X111147619Y-121788095D02*
X111147619Y-122902380D01*
X111085714Y-123026190D01*
X110961904Y-123088095D01*
X110838095Y-123088095D01*
X110590476Y-122221428D02*
X110095238Y-122221428D01*
X110404761Y-121788095D02*
X110404761Y-122902380D01*
X110342857Y-123026190D01*
X110219047Y-123088095D01*
X110095238Y-123088095D01*
X109104761Y-123088095D02*
X109104761Y-122407142D01*
X109166666Y-122283333D01*
X109290476Y-122221428D01*
X109538095Y-122221428D01*
X109661904Y-122283333D01*
X109104761Y-123026190D02*
X109228571Y-123088095D01*
X109538095Y-123088095D01*
X109661904Y-123026190D01*
X109723809Y-122902380D01*
X109723809Y-122778571D01*
X109661904Y-122654761D01*
X109538095Y-122592857D01*
X109228571Y-122592857D01*
X109104761Y-122530952D01*
X108609523Y-122221428D02*
X108361904Y-123088095D01*
X108114285Y-122469047D01*
X107866666Y-123088095D01*
X107619047Y-122221428D01*
X106566666Y-123088095D02*
X106566666Y-122407142D01*
X106628571Y-122283333D01*
X106752380Y-122221428D01*
X107000000Y-122221428D01*
X107123809Y-122283333D01*
X106566666Y-123026190D02*
X106690476Y-123088095D01*
X107000000Y-123088095D01*
X107123809Y-123026190D01*
X107185714Y-122902380D01*
X107185714Y-122778571D01*
X107123809Y-122654761D01*
X107000000Y-122592857D01*
X106690476Y-122592857D01*
X106566666Y-122530952D01*
X106071428Y-122221428D02*
X105761904Y-123088095D01*
X105452380Y-122221428D02*
X105761904Y-123088095D01*
X105885714Y-123397619D01*
X105947619Y-123459523D01*
X106071428Y-123521428D01*
M02*
