G04 #@! TF.GenerationSoftware,KiCad,Pcbnew,(5.1.0)-1*
G04 #@! TF.CreationDate,2020-01-05T18:39:11+00:00*
G04 #@! TF.ProjectId,v4,76342e6b-6963-4616-945f-706362585858,rev?*
G04 #@! TF.SameCoordinates,Original*
G04 #@! TF.FileFunction,Copper,L2,Bot*
G04 #@! TF.FilePolarity,Positive*
%FSLAX46Y46*%
G04 Gerber Fmt 4.6, Leading zero omitted, Abs format (unit mm)*
G04 Created by KiCad (PCBNEW (5.1.0)-1) date 2020-01-05 18:39:11*
%MOMM*%
%LPD*%
G04 APERTURE LIST*
%ADD10R,1.200000X1.700000*%
%ADD11O,1.200000X1.700000*%
%ADD12R,1.700000X1.700000*%
%ADD13O,1.700000X1.700000*%
%ADD14C,0.800000*%
%ADD15C,1.000000*%
%ADD16C,0.300000*%
%ADD17C,0.254000*%
G04 APERTURE END LIST*
D10*
X123217600Y-54387600D03*
D11*
X121217600Y-54387600D03*
D12*
X129917600Y-78987600D03*
D13*
X129917600Y-81527600D03*
X129917600Y-84067600D03*
X129917600Y-86607600D03*
X129917600Y-89147600D03*
D12*
X113917600Y-90787600D03*
D13*
X116457600Y-90787600D03*
X113917600Y-93327600D03*
X116457600Y-93327600D03*
X113917600Y-95867600D03*
X116457600Y-95867600D03*
D10*
X121217600Y-91487600D03*
D11*
X123217600Y-91487600D03*
D10*
X112617600Y-54387600D03*
D11*
X110617600Y-54387600D03*
D14*
X112717600Y-67287600D03*
X111219064Y-73686136D03*
X119117600Y-86987600D03*
X120217600Y-86987600D03*
X121317600Y-86987600D03*
X122417600Y-86987600D03*
X117317600Y-68187600D03*
X106417600Y-62137610D03*
X119817600Y-51587600D03*
X119817600Y-49187600D03*
X104417600Y-59587600D03*
X108612556Y-62142654D03*
X116517600Y-68787600D03*
X118717600Y-75487600D03*
X114017600Y-75887600D03*
X117801870Y-86908949D03*
X112917600Y-50437610D03*
X113934889Y-50409368D03*
X128917600Y-74887600D03*
X117517600Y-61687600D03*
X113317600Y-69087600D03*
X119517596Y-65687600D03*
X117117600Y-56553279D03*
X109617635Y-64099235D03*
X109617631Y-84387631D03*
X124517600Y-69187600D03*
X125316827Y-66080902D03*
X123867592Y-61437608D03*
X109717600Y-60787600D03*
X125117600Y-72087600D03*
X116075647Y-74624439D03*
X122917598Y-65487602D03*
X128717618Y-65087600D03*
X119917600Y-67487600D03*
X124017610Y-75587594D03*
X113717600Y-80787600D03*
X122817578Y-71987598D03*
X130817610Y-59447358D03*
X127367579Y-73606829D03*
X127037787Y-88069510D03*
X116317600Y-88287600D03*
X111317600Y-74887600D03*
X113317600Y-79087600D03*
X125817600Y-74587604D03*
X116243643Y-75711547D03*
X111617608Y-92587620D03*
D15*
X121517600Y-91787600D02*
X121517600Y-91837600D01*
X121217600Y-91487600D02*
X121517600Y-91787600D01*
X118857600Y-93187600D02*
X116457600Y-90787600D01*
X118907601Y-93237601D02*
X118857600Y-93187600D01*
X122757601Y-93237601D02*
X118907601Y-93237601D01*
X123217600Y-91487600D02*
X123217600Y-92777602D01*
X123217600Y-92777602D02*
X122757601Y-93237601D01*
D16*
X110117600Y-54387600D02*
X110617600Y-54387600D01*
X108867599Y-61195601D02*
X113717599Y-66045601D01*
X110617600Y-54387600D02*
X110617600Y-55537600D01*
X113717599Y-68687601D02*
X113317600Y-69087600D01*
X110617600Y-55537600D02*
X108867599Y-57287601D01*
X108867599Y-57287601D02*
X108867599Y-61195601D01*
X113717599Y-66045601D02*
X113717599Y-68687601D01*
X118951911Y-65687600D02*
X119517596Y-65687600D01*
X113317600Y-69087600D02*
X116717600Y-65687600D01*
X116717600Y-65687600D02*
X118951911Y-65687600D01*
X112617600Y-54387600D02*
X114951921Y-54387600D01*
X114951921Y-54387600D02*
X116717601Y-56153280D01*
X116717601Y-56153280D02*
X117117600Y-56553279D01*
D15*
X109617635Y-64099235D02*
X109617635Y-84387627D01*
X109617635Y-84387627D02*
X109617631Y-84387631D01*
D16*
X124916828Y-66480901D02*
X125316827Y-66080902D01*
X124517600Y-69187600D02*
X124517600Y-66880129D01*
X124517600Y-66880129D02*
X124916828Y-66480901D01*
X123867592Y-61437608D02*
X123217584Y-60787600D01*
X110283285Y-60787600D02*
X109717600Y-60787600D01*
X123217584Y-60787600D02*
X110283285Y-60787600D01*
X123917611Y-73287589D02*
X117383278Y-73287589D01*
X125117600Y-72087600D02*
X123917611Y-73287589D01*
X117383278Y-73287589D02*
X116683276Y-73987591D01*
X116717600Y-73987600D02*
X116712486Y-73987600D01*
X116712486Y-73987600D02*
X116475646Y-74224440D01*
X116475646Y-74224440D02*
X116075647Y-74624439D01*
X128151933Y-65087600D02*
X128717618Y-65087600D01*
X123317600Y-65087600D02*
X128151933Y-65087600D01*
X122917598Y-65487602D02*
X123317600Y-65087600D01*
X119917600Y-67487600D02*
X115217600Y-72187600D01*
X115217600Y-72187600D02*
X115217600Y-75887600D01*
X115217600Y-75887600D02*
X116017599Y-76687599D01*
X123617611Y-75987593D02*
X124017610Y-75587594D01*
X122917605Y-76687599D02*
X123617611Y-75987593D01*
X116017599Y-76687599D02*
X122917605Y-76687599D01*
X112517600Y-81987600D02*
X113317601Y-81187599D01*
X113917600Y-95867600D02*
X112517600Y-94467600D01*
X113317601Y-81187599D02*
X113717600Y-80787600D01*
X112517600Y-94467600D02*
X112517600Y-81987600D01*
X123217577Y-71587599D02*
X122817578Y-71987598D01*
X123717599Y-71487601D02*
X123317575Y-71487601D01*
X123317575Y-71487601D02*
X123217577Y-71587599D01*
X123717599Y-71487601D02*
X124333640Y-70871560D01*
X124333640Y-70871560D02*
X125798085Y-70871560D01*
X130817610Y-65852035D02*
X125798085Y-70871560D01*
X130817610Y-59447358D02*
X130817610Y-66852035D01*
X126667602Y-74164856D02*
X126667602Y-86537598D01*
X126517577Y-74014831D02*
X126667602Y-74164856D01*
X125798085Y-70871560D02*
X126517577Y-71591052D01*
X126517577Y-71591052D02*
X126517577Y-74014831D01*
X117307599Y-94177599D02*
X116457600Y-93327600D01*
X122851120Y-94487600D02*
X117617600Y-94487600D01*
X126117600Y-91221120D02*
X122851120Y-94487600D01*
X126117600Y-87787600D02*
X126117600Y-91221120D01*
X126667602Y-87237598D02*
X126117600Y-87787600D01*
X126667602Y-86537598D02*
X126667602Y-87237598D01*
X117617600Y-94487600D02*
X117307599Y-94177599D01*
X127367579Y-87739718D02*
X127037787Y-88069510D01*
X127367579Y-73606829D02*
X127367579Y-87739718D01*
X115751915Y-88287600D02*
X116317600Y-88287600D01*
X113917600Y-90787600D02*
X113917600Y-89637600D01*
X113917600Y-89637600D02*
X115267600Y-88287600D01*
X115267600Y-88287600D02*
X115751915Y-88287600D01*
X113317600Y-78521915D02*
X113317600Y-79087600D01*
X113317600Y-76887600D02*
X113317600Y-78521915D01*
X111317600Y-74887600D02*
X113317600Y-76887600D01*
X118917600Y-73887600D02*
X117217600Y-75587600D01*
X125117596Y-73887600D02*
X118917600Y-73887600D01*
X125817600Y-74587604D02*
X125117596Y-73887600D01*
X117101635Y-75711547D02*
X116809328Y-75711547D01*
X117225578Y-75587604D02*
X117101635Y-75711547D01*
X116809328Y-75711547D02*
X116243643Y-75711547D01*
X111617608Y-92021935D02*
X111617608Y-92587620D01*
X111617608Y-80787592D02*
X111617608Y-92021935D01*
X113317600Y-79087600D02*
X111617608Y-80787592D01*
D17*
G36*
X130379378Y-67507897D02*
G01*
X130515751Y-67580789D01*
X130663724Y-67625676D01*
X130817610Y-67640833D01*
X130971497Y-67625676D01*
X131119470Y-67580789D01*
X131207600Y-67533683D01*
X131207601Y-77677236D01*
X131122094Y-77607063D01*
X131011780Y-77548098D01*
X130892082Y-77511788D01*
X130767600Y-77499528D01*
X129067600Y-77499528D01*
X128943118Y-77511788D01*
X128823420Y-77548098D01*
X128713106Y-77607063D01*
X128616415Y-77686415D01*
X128537063Y-77783106D01*
X128478098Y-77893420D01*
X128441788Y-78013118D01*
X128429528Y-78137600D01*
X128429528Y-79837600D01*
X128441788Y-79962082D01*
X128478098Y-80081780D01*
X128537063Y-80192094D01*
X128616415Y-80288785D01*
X128713106Y-80368137D01*
X128823420Y-80427102D01*
X128892287Y-80447993D01*
X128862466Y-80472466D01*
X128676894Y-80698586D01*
X128539001Y-80956566D01*
X128454087Y-81236489D01*
X128425415Y-81527600D01*
X128454087Y-81818711D01*
X128539001Y-82098634D01*
X128676894Y-82356614D01*
X128862466Y-82582734D01*
X129088586Y-82768306D01*
X129143391Y-82797600D01*
X129088586Y-82826894D01*
X128862466Y-83012466D01*
X128676894Y-83238586D01*
X128539001Y-83496566D01*
X128454087Y-83776489D01*
X128425415Y-84067600D01*
X128454087Y-84358711D01*
X128539001Y-84638634D01*
X128676894Y-84896614D01*
X128862466Y-85122734D01*
X129088586Y-85308306D01*
X129143391Y-85337600D01*
X129088586Y-85366894D01*
X128862466Y-85552466D01*
X128676894Y-85778586D01*
X128539001Y-86036566D01*
X128454087Y-86316489D01*
X128425415Y-86607600D01*
X128454087Y-86898711D01*
X128539001Y-87178634D01*
X128676894Y-87436614D01*
X128862466Y-87662734D01*
X129088586Y-87848306D01*
X129153123Y-87882801D01*
X129036245Y-87952422D01*
X128820012Y-88147331D01*
X128645959Y-88380680D01*
X128520775Y-88643501D01*
X128476124Y-88790710D01*
X128597445Y-89020600D01*
X129790600Y-89020600D01*
X129790600Y-89000600D01*
X130044600Y-89000600D01*
X130044600Y-89020600D01*
X130064600Y-89020600D01*
X130064600Y-89274600D01*
X130044600Y-89274600D01*
X130044600Y-90468414D01*
X130274491Y-90589081D01*
X130548852Y-90491757D01*
X130798955Y-90342778D01*
X131015188Y-90147869D01*
X131189241Y-89914520D01*
X131207601Y-89875974D01*
X131207601Y-94322263D01*
X131148231Y-94178931D01*
X130903638Y-93812871D01*
X130592329Y-93501562D01*
X130226269Y-93256969D01*
X129819525Y-93088490D01*
X129387728Y-93002600D01*
X128947472Y-93002600D01*
X128515675Y-93088490D01*
X128108931Y-93256969D01*
X127742871Y-93501562D01*
X127431562Y-93812871D01*
X127186969Y-94178931D01*
X127018490Y-94585675D01*
X126932600Y-95017472D01*
X126932600Y-95457728D01*
X127018490Y-95889525D01*
X127186969Y-96296269D01*
X127431562Y-96662329D01*
X127742871Y-96973638D01*
X128108931Y-97218231D01*
X128252260Y-97277600D01*
X116903237Y-97277600D01*
X117088852Y-97211757D01*
X117338955Y-97062778D01*
X117555188Y-96867869D01*
X117729241Y-96634520D01*
X117854425Y-96371699D01*
X117899076Y-96224490D01*
X117777755Y-95994600D01*
X116584600Y-95994600D01*
X116584600Y-96014600D01*
X116330600Y-96014600D01*
X116330600Y-95994600D01*
X116310600Y-95994600D01*
X116310600Y-95740600D01*
X116330600Y-95740600D01*
X116330600Y-95720600D01*
X116584600Y-95720600D01*
X116584600Y-95740600D01*
X117777755Y-95740600D01*
X117899076Y-95510710D01*
X117854425Y-95363501D01*
X117811128Y-95272600D01*
X122812567Y-95272600D01*
X122851120Y-95276397D01*
X122889673Y-95272600D01*
X122889681Y-95272600D01*
X123005007Y-95261241D01*
X123152980Y-95216354D01*
X123289353Y-95143462D01*
X123408884Y-95045364D01*
X123433467Y-95015410D01*
X126645416Y-91803462D01*
X126675364Y-91778884D01*
X126773462Y-91659353D01*
X126846354Y-91522980D01*
X126891241Y-91375007D01*
X126902600Y-91259681D01*
X126902600Y-91259674D01*
X126906397Y-91221121D01*
X126902600Y-91182568D01*
X126902600Y-89504490D01*
X128476124Y-89504490D01*
X128520775Y-89651699D01*
X128645959Y-89914520D01*
X128820012Y-90147869D01*
X129036245Y-90342778D01*
X129286348Y-90491757D01*
X129560709Y-90589081D01*
X129790600Y-90468414D01*
X129790600Y-89274600D01*
X128597445Y-89274600D01*
X128476124Y-89504490D01*
X126902600Y-89504490D01*
X126902600Y-89097897D01*
X126935848Y-89104510D01*
X127139726Y-89104510D01*
X127339685Y-89064736D01*
X127528043Y-88986715D01*
X127697561Y-88873447D01*
X127841724Y-88729284D01*
X127954992Y-88559766D01*
X128033013Y-88371408D01*
X128072787Y-88171449D01*
X128072787Y-88085630D01*
X128096333Y-88041578D01*
X128141220Y-87893605D01*
X128152579Y-87778279D01*
X128152579Y-87778272D01*
X128156376Y-87739719D01*
X128152579Y-87701166D01*
X128152579Y-74285540D01*
X128171516Y-74266603D01*
X128284784Y-74097085D01*
X128362805Y-73908727D01*
X128402579Y-73708768D01*
X128402579Y-73504890D01*
X128362805Y-73304931D01*
X128284784Y-73116573D01*
X128171516Y-72947055D01*
X128027353Y-72802892D01*
X127857835Y-72689624D01*
X127669477Y-72611603D01*
X127469518Y-72571829D01*
X127302577Y-72571829D01*
X127302577Y-71629604D01*
X127306374Y-71591051D01*
X127302577Y-71552498D01*
X127302577Y-71552491D01*
X127291218Y-71437165D01*
X127288840Y-71429324D01*
X127267460Y-71358846D01*
X127246331Y-71289192D01*
X127173439Y-71152819D01*
X127075341Y-71033288D01*
X127045393Y-71008711D01*
X126908242Y-70871560D01*
X130320350Y-67459453D01*
X130379378Y-67507897D01*
X130379378Y-67507897D01*
G37*
X130379378Y-67507897D02*
X130515751Y-67580789D01*
X130663724Y-67625676D01*
X130817610Y-67640833D01*
X130971497Y-67625676D01*
X131119470Y-67580789D01*
X131207600Y-67533683D01*
X131207601Y-77677236D01*
X131122094Y-77607063D01*
X131011780Y-77548098D01*
X130892082Y-77511788D01*
X130767600Y-77499528D01*
X129067600Y-77499528D01*
X128943118Y-77511788D01*
X128823420Y-77548098D01*
X128713106Y-77607063D01*
X128616415Y-77686415D01*
X128537063Y-77783106D01*
X128478098Y-77893420D01*
X128441788Y-78013118D01*
X128429528Y-78137600D01*
X128429528Y-79837600D01*
X128441788Y-79962082D01*
X128478098Y-80081780D01*
X128537063Y-80192094D01*
X128616415Y-80288785D01*
X128713106Y-80368137D01*
X128823420Y-80427102D01*
X128892287Y-80447993D01*
X128862466Y-80472466D01*
X128676894Y-80698586D01*
X128539001Y-80956566D01*
X128454087Y-81236489D01*
X128425415Y-81527600D01*
X128454087Y-81818711D01*
X128539001Y-82098634D01*
X128676894Y-82356614D01*
X128862466Y-82582734D01*
X129088586Y-82768306D01*
X129143391Y-82797600D01*
X129088586Y-82826894D01*
X128862466Y-83012466D01*
X128676894Y-83238586D01*
X128539001Y-83496566D01*
X128454087Y-83776489D01*
X128425415Y-84067600D01*
X128454087Y-84358711D01*
X128539001Y-84638634D01*
X128676894Y-84896614D01*
X128862466Y-85122734D01*
X129088586Y-85308306D01*
X129143391Y-85337600D01*
X129088586Y-85366894D01*
X128862466Y-85552466D01*
X128676894Y-85778586D01*
X128539001Y-86036566D01*
X128454087Y-86316489D01*
X128425415Y-86607600D01*
X128454087Y-86898711D01*
X128539001Y-87178634D01*
X128676894Y-87436614D01*
X128862466Y-87662734D01*
X129088586Y-87848306D01*
X129153123Y-87882801D01*
X129036245Y-87952422D01*
X128820012Y-88147331D01*
X128645959Y-88380680D01*
X128520775Y-88643501D01*
X128476124Y-88790710D01*
X128597445Y-89020600D01*
X129790600Y-89020600D01*
X129790600Y-89000600D01*
X130044600Y-89000600D01*
X130044600Y-89020600D01*
X130064600Y-89020600D01*
X130064600Y-89274600D01*
X130044600Y-89274600D01*
X130044600Y-90468414D01*
X130274491Y-90589081D01*
X130548852Y-90491757D01*
X130798955Y-90342778D01*
X131015188Y-90147869D01*
X131189241Y-89914520D01*
X131207601Y-89875974D01*
X131207601Y-94322263D01*
X131148231Y-94178931D01*
X130903638Y-93812871D01*
X130592329Y-93501562D01*
X130226269Y-93256969D01*
X129819525Y-93088490D01*
X129387728Y-93002600D01*
X128947472Y-93002600D01*
X128515675Y-93088490D01*
X128108931Y-93256969D01*
X127742871Y-93501562D01*
X127431562Y-93812871D01*
X127186969Y-94178931D01*
X127018490Y-94585675D01*
X126932600Y-95017472D01*
X126932600Y-95457728D01*
X127018490Y-95889525D01*
X127186969Y-96296269D01*
X127431562Y-96662329D01*
X127742871Y-96973638D01*
X128108931Y-97218231D01*
X128252260Y-97277600D01*
X116903237Y-97277600D01*
X117088852Y-97211757D01*
X117338955Y-97062778D01*
X117555188Y-96867869D01*
X117729241Y-96634520D01*
X117854425Y-96371699D01*
X117899076Y-96224490D01*
X117777755Y-95994600D01*
X116584600Y-95994600D01*
X116584600Y-96014600D01*
X116330600Y-96014600D01*
X116330600Y-95994600D01*
X116310600Y-95994600D01*
X116310600Y-95740600D01*
X116330600Y-95740600D01*
X116330600Y-95720600D01*
X116584600Y-95720600D01*
X116584600Y-95740600D01*
X117777755Y-95740600D01*
X117899076Y-95510710D01*
X117854425Y-95363501D01*
X117811128Y-95272600D01*
X122812567Y-95272600D01*
X122851120Y-95276397D01*
X122889673Y-95272600D01*
X122889681Y-95272600D01*
X123005007Y-95261241D01*
X123152980Y-95216354D01*
X123289353Y-95143462D01*
X123408884Y-95045364D01*
X123433467Y-95015410D01*
X126645416Y-91803462D01*
X126675364Y-91778884D01*
X126773462Y-91659353D01*
X126846354Y-91522980D01*
X126891241Y-91375007D01*
X126902600Y-91259681D01*
X126902600Y-91259674D01*
X126906397Y-91221121D01*
X126902600Y-91182568D01*
X126902600Y-89504490D01*
X128476124Y-89504490D01*
X128520775Y-89651699D01*
X128645959Y-89914520D01*
X128820012Y-90147869D01*
X129036245Y-90342778D01*
X129286348Y-90491757D01*
X129560709Y-90589081D01*
X129790600Y-90468414D01*
X129790600Y-89274600D01*
X128597445Y-89274600D01*
X128476124Y-89504490D01*
X126902600Y-89504490D01*
X126902600Y-89097897D01*
X126935848Y-89104510D01*
X127139726Y-89104510D01*
X127339685Y-89064736D01*
X127528043Y-88986715D01*
X127697561Y-88873447D01*
X127841724Y-88729284D01*
X127954992Y-88559766D01*
X128033013Y-88371408D01*
X128072787Y-88171449D01*
X128072787Y-88085630D01*
X128096333Y-88041578D01*
X128141220Y-87893605D01*
X128152579Y-87778279D01*
X128152579Y-87778272D01*
X128156376Y-87739719D01*
X128152579Y-87701166D01*
X128152579Y-74285540D01*
X128171516Y-74266603D01*
X128284784Y-74097085D01*
X128362805Y-73908727D01*
X128402579Y-73708768D01*
X128402579Y-73504890D01*
X128362805Y-73304931D01*
X128284784Y-73116573D01*
X128171516Y-72947055D01*
X128027353Y-72802892D01*
X127857835Y-72689624D01*
X127669477Y-72611603D01*
X127469518Y-72571829D01*
X127302577Y-72571829D01*
X127302577Y-71629604D01*
X127306374Y-71591051D01*
X127302577Y-71552498D01*
X127302577Y-71552491D01*
X127291218Y-71437165D01*
X127288840Y-71429324D01*
X127267460Y-71358846D01*
X127246331Y-71289192D01*
X127173439Y-71152819D01*
X127075341Y-71033288D01*
X127045393Y-71008711D01*
X126908242Y-70871560D01*
X130320350Y-67459453D01*
X130379378Y-67507897D01*
G36*
X128108931Y-48756969D02*
G01*
X127742871Y-49001562D01*
X127431562Y-49312871D01*
X127186969Y-49678931D01*
X127018490Y-50085675D01*
X126932600Y-50517472D01*
X126932600Y-50957728D01*
X127018490Y-51389525D01*
X127186969Y-51796269D01*
X127431562Y-52162329D01*
X127742871Y-52473638D01*
X128108931Y-52718231D01*
X128515675Y-52886710D01*
X128947472Y-52972600D01*
X129387728Y-52972600D01*
X129819525Y-52886710D01*
X130226269Y-52718231D01*
X130592329Y-52473638D01*
X130903638Y-52162329D01*
X131148231Y-51796269D01*
X131207600Y-51652940D01*
X131207600Y-58488621D01*
X131119508Y-58452132D01*
X130919549Y-58412358D01*
X130715671Y-58412358D01*
X130515712Y-58452132D01*
X130327354Y-58530153D01*
X130157836Y-58643421D01*
X130013673Y-58787584D01*
X129900405Y-58957102D01*
X129822384Y-59145460D01*
X129782610Y-59345419D01*
X129782610Y-59549297D01*
X129822384Y-59749256D01*
X129900405Y-59937614D01*
X130013673Y-60107132D01*
X130032610Y-60126069D01*
X130032611Y-65526876D01*
X125472928Y-70086560D01*
X125035162Y-70086560D01*
X125177374Y-69991537D01*
X125321537Y-69847374D01*
X125434805Y-69677856D01*
X125512826Y-69489498D01*
X125552600Y-69289539D01*
X125552600Y-69085661D01*
X125512826Y-68885702D01*
X125434805Y-68697344D01*
X125321537Y-68527826D01*
X125302600Y-68508889D01*
X125302600Y-67205285D01*
X125391983Y-67115902D01*
X125418766Y-67115902D01*
X125618725Y-67076128D01*
X125807083Y-66998107D01*
X125976601Y-66884839D01*
X126120764Y-66740676D01*
X126234032Y-66571158D01*
X126312053Y-66382800D01*
X126351827Y-66182841D01*
X126351827Y-65978963D01*
X126330670Y-65872600D01*
X128038907Y-65872600D01*
X128057844Y-65891537D01*
X128227362Y-66004805D01*
X128415720Y-66082826D01*
X128615679Y-66122600D01*
X128819557Y-66122600D01*
X129019516Y-66082826D01*
X129207874Y-66004805D01*
X129377392Y-65891537D01*
X129521555Y-65747374D01*
X129634823Y-65577856D01*
X129712844Y-65389498D01*
X129752618Y-65189539D01*
X129752618Y-64985661D01*
X129712844Y-64785702D01*
X129634823Y-64597344D01*
X129521555Y-64427826D01*
X129377392Y-64283663D01*
X129207874Y-64170395D01*
X129019516Y-64092374D01*
X128819557Y-64052600D01*
X128615679Y-64052600D01*
X128415720Y-64092374D01*
X128227362Y-64170395D01*
X128057844Y-64283663D01*
X128038907Y-64302600D01*
X123356152Y-64302600D01*
X123317599Y-64298803D01*
X123279046Y-64302600D01*
X123279039Y-64302600D01*
X123178090Y-64312543D01*
X123163712Y-64313959D01*
X123129272Y-64324406D01*
X123015740Y-64358846D01*
X122879367Y-64431738D01*
X122853945Y-64452602D01*
X122815659Y-64452602D01*
X122615700Y-64492376D01*
X122427342Y-64570397D01*
X122257824Y-64683665D01*
X122113661Y-64827828D01*
X122000393Y-64997346D01*
X121922372Y-65185704D01*
X121882598Y-65385663D01*
X121882598Y-65589541D01*
X121922372Y-65789500D01*
X122000393Y-65977858D01*
X122113661Y-66147376D01*
X122257824Y-66291539D01*
X122427342Y-66404807D01*
X122615700Y-66482828D01*
X122815659Y-66522602D01*
X123019537Y-66522602D01*
X123219496Y-66482828D01*
X123407854Y-66404807D01*
X123577372Y-66291539D01*
X123721535Y-66147376D01*
X123834803Y-65977858D01*
X123878403Y-65872600D01*
X124302984Y-65872600D01*
X124281827Y-65978963D01*
X124281827Y-66005746D01*
X123989786Y-66297786D01*
X123959837Y-66322365D01*
X123935259Y-66352313D01*
X123935255Y-66352317D01*
X123902290Y-66392485D01*
X123861739Y-66441896D01*
X123835206Y-66491537D01*
X123788846Y-66578270D01*
X123743959Y-66726243D01*
X123728803Y-66880129D01*
X123732601Y-66918692D01*
X123732600Y-68508889D01*
X123713663Y-68527826D01*
X123600395Y-68697344D01*
X123522374Y-68885702D01*
X123482600Y-69085661D01*
X123482600Y-69289539D01*
X123522374Y-69489498D01*
X123600395Y-69677856D01*
X123713663Y-69847374D01*
X123857826Y-69991537D01*
X124027344Y-70104805D01*
X124082177Y-70127518D01*
X124031780Y-70142806D01*
X123895407Y-70215698D01*
X123775876Y-70313796D01*
X123751295Y-70343748D01*
X123392442Y-70702601D01*
X123356131Y-70702601D01*
X123317575Y-70698804D01*
X123279020Y-70702601D01*
X123279014Y-70702601D01*
X123234624Y-70706973D01*
X123163689Y-70713959D01*
X123060603Y-70745230D01*
X123015715Y-70758847D01*
X122879342Y-70831739D01*
X122759811Y-70929837D01*
X122741131Y-70952598D01*
X122715639Y-70952598D01*
X122515680Y-70992372D01*
X122327322Y-71070393D01*
X122157804Y-71183661D01*
X122013641Y-71327824D01*
X121900373Y-71497342D01*
X121822352Y-71685700D01*
X121782578Y-71885659D01*
X121782578Y-72089537D01*
X121822352Y-72289496D01*
X121900373Y-72477854D01*
X121916900Y-72502589D01*
X117421830Y-72502589D01*
X117383277Y-72498792D01*
X117344724Y-72502589D01*
X117344717Y-72502589D01*
X117243768Y-72512532D01*
X117229390Y-72513948D01*
X117194950Y-72524395D01*
X117081418Y-72558835D01*
X116945045Y-72631727D01*
X116884837Y-72681139D01*
X116855465Y-72705244D01*
X116855462Y-72705247D01*
X116825514Y-72729825D01*
X116800935Y-72759774D01*
X116100931Y-73459779D01*
X116027415Y-73549359D01*
X116012309Y-73577620D01*
X116002600Y-73587329D01*
X116002600Y-72512757D01*
X119992757Y-68522600D01*
X120019539Y-68522600D01*
X120219498Y-68482826D01*
X120407856Y-68404805D01*
X120577374Y-68291537D01*
X120721537Y-68147374D01*
X120834805Y-67977856D01*
X120912826Y-67789498D01*
X120952600Y-67589539D01*
X120952600Y-67385661D01*
X120912826Y-67185702D01*
X120834805Y-66997344D01*
X120721537Y-66827826D01*
X120577374Y-66683663D01*
X120407856Y-66570395D01*
X120219498Y-66492374D01*
X120183661Y-66485246D01*
X120321533Y-66347374D01*
X120434801Y-66177856D01*
X120512822Y-65989498D01*
X120552596Y-65789539D01*
X120552596Y-65585661D01*
X120512822Y-65385702D01*
X120434801Y-65197344D01*
X120321533Y-65027826D01*
X120177370Y-64883663D01*
X120007852Y-64770395D01*
X119819494Y-64692374D01*
X119619535Y-64652600D01*
X119415657Y-64652600D01*
X119215698Y-64692374D01*
X119027340Y-64770395D01*
X118857822Y-64883663D01*
X118838885Y-64902600D01*
X116756152Y-64902600D01*
X116717599Y-64898803D01*
X116679046Y-64902600D01*
X116679039Y-64902600D01*
X116578090Y-64912543D01*
X116563712Y-64913959D01*
X116498589Y-64933714D01*
X116415740Y-64958846D01*
X116279367Y-65031738D01*
X116257883Y-65049370D01*
X116189787Y-65105255D01*
X116189784Y-65105258D01*
X116159836Y-65129836D01*
X116135258Y-65159784D01*
X114502599Y-66792443D01*
X114502599Y-66084157D01*
X114506396Y-66045601D01*
X114502599Y-66007041D01*
X114502599Y-66007040D01*
X114497285Y-65953089D01*
X114491241Y-65891714D01*
X114446353Y-65743741D01*
X114421984Y-65698149D01*
X114373461Y-65607368D01*
X114275363Y-65487837D01*
X114245410Y-65463255D01*
X110375167Y-61593012D01*
X110377374Y-61591537D01*
X110396311Y-61572600D01*
X122839167Y-61572600D01*
X122872366Y-61739506D01*
X122950387Y-61927864D01*
X123063655Y-62097382D01*
X123207818Y-62241545D01*
X123377336Y-62354813D01*
X123565694Y-62432834D01*
X123765653Y-62472608D01*
X123969531Y-62472608D01*
X124169490Y-62432834D01*
X124357848Y-62354813D01*
X124527366Y-62241545D01*
X124671529Y-62097382D01*
X124784797Y-61927864D01*
X124862818Y-61739506D01*
X124902592Y-61539547D01*
X124902592Y-61335669D01*
X124862818Y-61135710D01*
X124784797Y-60947352D01*
X124671529Y-60777834D01*
X124527366Y-60633671D01*
X124357848Y-60520403D01*
X124169490Y-60442382D01*
X123969531Y-60402608D01*
X123942749Y-60402608D01*
X123799931Y-60259789D01*
X123775348Y-60229836D01*
X123655817Y-60131738D01*
X123519444Y-60058846D01*
X123371471Y-60013959D01*
X123256145Y-60002600D01*
X123256137Y-60002600D01*
X123217584Y-59998803D01*
X123179031Y-60002600D01*
X110396311Y-60002600D01*
X110377374Y-59983663D01*
X110207856Y-59870395D01*
X110019498Y-59792374D01*
X109819539Y-59752600D01*
X109652599Y-59752600D01*
X109652599Y-57612758D01*
X111004338Y-56261020D01*
X115669384Y-56215220D01*
X116082600Y-56628436D01*
X116082600Y-56655218D01*
X116122374Y-56855177D01*
X116200395Y-57043535D01*
X116313663Y-57213053D01*
X116457826Y-57357216D01*
X116627344Y-57470484D01*
X116815702Y-57548505D01*
X117015661Y-57588279D01*
X117219539Y-57588279D01*
X117419498Y-57548505D01*
X117607856Y-57470484D01*
X117777374Y-57357216D01*
X117921537Y-57213053D01*
X118034805Y-57043535D01*
X118112826Y-56855177D01*
X118152600Y-56655218D01*
X118152600Y-56451340D01*
X118112826Y-56251381D01*
X118088012Y-56191475D01*
X125918847Y-56114594D01*
X125944261Y-56111770D01*
X125967973Y-56104183D01*
X125989749Y-56092116D01*
X126008753Y-56076032D01*
X126024253Y-56056550D01*
X126035656Y-56034418D01*
X126042521Y-56010487D01*
X126044585Y-55985676D01*
X125994585Y-52685676D01*
X125991984Y-52661956D01*
X125984591Y-52638182D01*
X125972702Y-52616308D01*
X125956774Y-52597173D01*
X125937419Y-52581514D01*
X125915381Y-52569931D01*
X125891507Y-52562871D01*
X125866714Y-52560603D01*
X107941714Y-52685603D01*
X107912277Y-52689273D01*
X107888799Y-52697559D01*
X107867390Y-52710265D01*
X107848870Y-52726904D01*
X107833953Y-52746837D01*
X107823211Y-52769296D01*
X107817057Y-52793420D01*
X107815727Y-52818281D01*
X107965727Y-56168281D01*
X107968290Y-56188598D01*
X107975750Y-56212350D01*
X107987701Y-56234191D01*
X108003683Y-56253280D01*
X108023083Y-56268884D01*
X108045153Y-56280404D01*
X108069048Y-56287397D01*
X108093847Y-56289594D01*
X108762009Y-56283034D01*
X108339789Y-56705254D01*
X108309835Y-56729837D01*
X108211737Y-56849369D01*
X108138845Y-56985742D01*
X108093958Y-57133715D01*
X108082599Y-57249041D01*
X108082599Y-57249048D01*
X108078802Y-57287601D01*
X108082599Y-57326154D01*
X108082600Y-61157038D01*
X108078802Y-61195601D01*
X108093958Y-61349487D01*
X108138845Y-61497460D01*
X108138846Y-61497461D01*
X108211738Y-61633834D01*
X108252289Y-61683245D01*
X108285254Y-61723413D01*
X108285258Y-61723417D01*
X108309836Y-61753365D01*
X108339784Y-61777943D01*
X109529286Y-62967445D01*
X109395136Y-62980658D01*
X109181188Y-63045559D01*
X108984012Y-63150951D01*
X108811186Y-63292786D01*
X108669351Y-63465612D01*
X108563959Y-63662789D01*
X108499058Y-63876737D01*
X108482635Y-64043484D01*
X108482636Y-84331829D01*
X108477140Y-84387631D01*
X108499054Y-84610129D01*
X108563955Y-84824077D01*
X108669348Y-85021253D01*
X108811183Y-85194079D01*
X108984009Y-85335914D01*
X109181185Y-85441307D01*
X109395133Y-85506208D01*
X109617631Y-85528122D01*
X109840129Y-85506208D01*
X110054077Y-85441307D01*
X110251253Y-85335914D01*
X110251254Y-85335913D01*
X110251258Y-85335911D01*
X110424084Y-85194076D01*
X110565919Y-85021250D01*
X110671311Y-84824074D01*
X110736212Y-84610126D01*
X110752635Y-84443379D01*
X110752635Y-84443378D01*
X110758126Y-84387627D01*
X110752635Y-84331875D01*
X110752635Y-75754886D01*
X110827344Y-75804805D01*
X111015702Y-75882826D01*
X111215661Y-75922600D01*
X111242443Y-75922600D01*
X112532600Y-77212758D01*
X112532601Y-78408888D01*
X112513663Y-78427826D01*
X112400395Y-78597344D01*
X112322374Y-78785702D01*
X112282600Y-78985661D01*
X112282600Y-79012443D01*
X111089798Y-80205245D01*
X111059844Y-80229828D01*
X110961746Y-80349360D01*
X110888854Y-80485733D01*
X110843967Y-80633706D01*
X110832608Y-80749032D01*
X110832608Y-80749039D01*
X110828811Y-80787592D01*
X110832608Y-80826145D01*
X110832609Y-91908908D01*
X110813671Y-91927846D01*
X110700403Y-92097364D01*
X110622382Y-92285722D01*
X110582608Y-92485681D01*
X110582608Y-92689559D01*
X110622382Y-92889518D01*
X110700403Y-93077876D01*
X110813671Y-93247394D01*
X110957834Y-93391557D01*
X111127352Y-93504825D01*
X111315710Y-93582846D01*
X111515669Y-93622620D01*
X111719547Y-93622620D01*
X111732600Y-93620024D01*
X111732600Y-94429047D01*
X111728803Y-94467600D01*
X111732600Y-94506153D01*
X111732600Y-94506160D01*
X111743959Y-94621486D01*
X111788846Y-94769459D01*
X111861738Y-94905832D01*
X111959836Y-95025364D01*
X111989790Y-95049947D01*
X112468574Y-95528731D01*
X112454087Y-95576489D01*
X112425415Y-95867600D01*
X112454087Y-96158711D01*
X112539001Y-96438634D01*
X112676894Y-96696614D01*
X112862466Y-96922734D01*
X113088586Y-97108306D01*
X113346566Y-97246199D01*
X113450081Y-97277600D01*
X105582940Y-97277600D01*
X105726269Y-97218231D01*
X106092329Y-96973638D01*
X106403638Y-96662329D01*
X106648231Y-96296269D01*
X106816710Y-95889525D01*
X106902600Y-95457728D01*
X106902600Y-95017472D01*
X106816710Y-94585675D01*
X106648231Y-94178931D01*
X106403638Y-93812871D01*
X106092329Y-93501562D01*
X105726269Y-93256969D01*
X105319525Y-93088490D01*
X104887728Y-93002600D01*
X104447472Y-93002600D01*
X104015675Y-93088490D01*
X103608931Y-93256969D01*
X103242871Y-93501562D01*
X102931562Y-93812871D01*
X102686969Y-94178931D01*
X102627600Y-94322260D01*
X102627600Y-51652940D01*
X102686969Y-51796269D01*
X102931562Y-52162329D01*
X103242871Y-52473638D01*
X103608931Y-52718231D01*
X104015675Y-52886710D01*
X104447472Y-52972600D01*
X104887728Y-52972600D01*
X105319525Y-52886710D01*
X105726269Y-52718231D01*
X106092329Y-52473638D01*
X106403638Y-52162329D01*
X106648231Y-51796269D01*
X106816710Y-51389525D01*
X106902600Y-50957728D01*
X106902600Y-50517472D01*
X106816710Y-50085675D01*
X106648231Y-49678931D01*
X106403638Y-49312871D01*
X106092329Y-49001562D01*
X105726269Y-48756969D01*
X105582940Y-48697600D01*
X128252260Y-48697600D01*
X128108931Y-48756969D01*
X128108931Y-48756969D01*
G37*
X128108931Y-48756969D02*
X127742871Y-49001562D01*
X127431562Y-49312871D01*
X127186969Y-49678931D01*
X127018490Y-50085675D01*
X126932600Y-50517472D01*
X126932600Y-50957728D01*
X127018490Y-51389525D01*
X127186969Y-51796269D01*
X127431562Y-52162329D01*
X127742871Y-52473638D01*
X128108931Y-52718231D01*
X128515675Y-52886710D01*
X128947472Y-52972600D01*
X129387728Y-52972600D01*
X129819525Y-52886710D01*
X130226269Y-52718231D01*
X130592329Y-52473638D01*
X130903638Y-52162329D01*
X131148231Y-51796269D01*
X131207600Y-51652940D01*
X131207600Y-58488621D01*
X131119508Y-58452132D01*
X130919549Y-58412358D01*
X130715671Y-58412358D01*
X130515712Y-58452132D01*
X130327354Y-58530153D01*
X130157836Y-58643421D01*
X130013673Y-58787584D01*
X129900405Y-58957102D01*
X129822384Y-59145460D01*
X129782610Y-59345419D01*
X129782610Y-59549297D01*
X129822384Y-59749256D01*
X129900405Y-59937614D01*
X130013673Y-60107132D01*
X130032610Y-60126069D01*
X130032611Y-65526876D01*
X125472928Y-70086560D01*
X125035162Y-70086560D01*
X125177374Y-69991537D01*
X125321537Y-69847374D01*
X125434805Y-69677856D01*
X125512826Y-69489498D01*
X125552600Y-69289539D01*
X125552600Y-69085661D01*
X125512826Y-68885702D01*
X125434805Y-68697344D01*
X125321537Y-68527826D01*
X125302600Y-68508889D01*
X125302600Y-67205285D01*
X125391983Y-67115902D01*
X125418766Y-67115902D01*
X125618725Y-67076128D01*
X125807083Y-66998107D01*
X125976601Y-66884839D01*
X126120764Y-66740676D01*
X126234032Y-66571158D01*
X126312053Y-66382800D01*
X126351827Y-66182841D01*
X126351827Y-65978963D01*
X126330670Y-65872600D01*
X128038907Y-65872600D01*
X128057844Y-65891537D01*
X128227362Y-66004805D01*
X128415720Y-66082826D01*
X128615679Y-66122600D01*
X128819557Y-66122600D01*
X129019516Y-66082826D01*
X129207874Y-66004805D01*
X129377392Y-65891537D01*
X129521555Y-65747374D01*
X129634823Y-65577856D01*
X129712844Y-65389498D01*
X129752618Y-65189539D01*
X129752618Y-64985661D01*
X129712844Y-64785702D01*
X129634823Y-64597344D01*
X129521555Y-64427826D01*
X129377392Y-64283663D01*
X129207874Y-64170395D01*
X129019516Y-64092374D01*
X128819557Y-64052600D01*
X128615679Y-64052600D01*
X128415720Y-64092374D01*
X128227362Y-64170395D01*
X128057844Y-64283663D01*
X128038907Y-64302600D01*
X123356152Y-64302600D01*
X123317599Y-64298803D01*
X123279046Y-64302600D01*
X123279039Y-64302600D01*
X123178090Y-64312543D01*
X123163712Y-64313959D01*
X123129272Y-64324406D01*
X123015740Y-64358846D01*
X122879367Y-64431738D01*
X122853945Y-64452602D01*
X122815659Y-64452602D01*
X122615700Y-64492376D01*
X122427342Y-64570397D01*
X122257824Y-64683665D01*
X122113661Y-64827828D01*
X122000393Y-64997346D01*
X121922372Y-65185704D01*
X121882598Y-65385663D01*
X121882598Y-65589541D01*
X121922372Y-65789500D01*
X122000393Y-65977858D01*
X122113661Y-66147376D01*
X122257824Y-66291539D01*
X122427342Y-66404807D01*
X122615700Y-66482828D01*
X122815659Y-66522602D01*
X123019537Y-66522602D01*
X123219496Y-66482828D01*
X123407854Y-66404807D01*
X123577372Y-66291539D01*
X123721535Y-66147376D01*
X123834803Y-65977858D01*
X123878403Y-65872600D01*
X124302984Y-65872600D01*
X124281827Y-65978963D01*
X124281827Y-66005746D01*
X123989786Y-66297786D01*
X123959837Y-66322365D01*
X123935259Y-66352313D01*
X123935255Y-66352317D01*
X123902290Y-66392485D01*
X123861739Y-66441896D01*
X123835206Y-66491537D01*
X123788846Y-66578270D01*
X123743959Y-66726243D01*
X123728803Y-66880129D01*
X123732601Y-66918692D01*
X123732600Y-68508889D01*
X123713663Y-68527826D01*
X123600395Y-68697344D01*
X123522374Y-68885702D01*
X123482600Y-69085661D01*
X123482600Y-69289539D01*
X123522374Y-69489498D01*
X123600395Y-69677856D01*
X123713663Y-69847374D01*
X123857826Y-69991537D01*
X124027344Y-70104805D01*
X124082177Y-70127518D01*
X124031780Y-70142806D01*
X123895407Y-70215698D01*
X123775876Y-70313796D01*
X123751295Y-70343748D01*
X123392442Y-70702601D01*
X123356131Y-70702601D01*
X123317575Y-70698804D01*
X123279020Y-70702601D01*
X123279014Y-70702601D01*
X123234624Y-70706973D01*
X123163689Y-70713959D01*
X123060603Y-70745230D01*
X123015715Y-70758847D01*
X122879342Y-70831739D01*
X122759811Y-70929837D01*
X122741131Y-70952598D01*
X122715639Y-70952598D01*
X122515680Y-70992372D01*
X122327322Y-71070393D01*
X122157804Y-71183661D01*
X122013641Y-71327824D01*
X121900373Y-71497342D01*
X121822352Y-71685700D01*
X121782578Y-71885659D01*
X121782578Y-72089537D01*
X121822352Y-72289496D01*
X121900373Y-72477854D01*
X121916900Y-72502589D01*
X117421830Y-72502589D01*
X117383277Y-72498792D01*
X117344724Y-72502589D01*
X117344717Y-72502589D01*
X117243768Y-72512532D01*
X117229390Y-72513948D01*
X117194950Y-72524395D01*
X117081418Y-72558835D01*
X116945045Y-72631727D01*
X116884837Y-72681139D01*
X116855465Y-72705244D01*
X116855462Y-72705247D01*
X116825514Y-72729825D01*
X116800935Y-72759774D01*
X116100931Y-73459779D01*
X116027415Y-73549359D01*
X116012309Y-73577620D01*
X116002600Y-73587329D01*
X116002600Y-72512757D01*
X119992757Y-68522600D01*
X120019539Y-68522600D01*
X120219498Y-68482826D01*
X120407856Y-68404805D01*
X120577374Y-68291537D01*
X120721537Y-68147374D01*
X120834805Y-67977856D01*
X120912826Y-67789498D01*
X120952600Y-67589539D01*
X120952600Y-67385661D01*
X120912826Y-67185702D01*
X120834805Y-66997344D01*
X120721537Y-66827826D01*
X120577374Y-66683663D01*
X120407856Y-66570395D01*
X120219498Y-66492374D01*
X120183661Y-66485246D01*
X120321533Y-66347374D01*
X120434801Y-66177856D01*
X120512822Y-65989498D01*
X120552596Y-65789539D01*
X120552596Y-65585661D01*
X120512822Y-65385702D01*
X120434801Y-65197344D01*
X120321533Y-65027826D01*
X120177370Y-64883663D01*
X120007852Y-64770395D01*
X119819494Y-64692374D01*
X119619535Y-64652600D01*
X119415657Y-64652600D01*
X119215698Y-64692374D01*
X119027340Y-64770395D01*
X118857822Y-64883663D01*
X118838885Y-64902600D01*
X116756152Y-64902600D01*
X116717599Y-64898803D01*
X116679046Y-64902600D01*
X116679039Y-64902600D01*
X116578090Y-64912543D01*
X116563712Y-64913959D01*
X116498589Y-64933714D01*
X116415740Y-64958846D01*
X116279367Y-65031738D01*
X116257883Y-65049370D01*
X116189787Y-65105255D01*
X116189784Y-65105258D01*
X116159836Y-65129836D01*
X116135258Y-65159784D01*
X114502599Y-66792443D01*
X114502599Y-66084157D01*
X114506396Y-66045601D01*
X114502599Y-66007041D01*
X114502599Y-66007040D01*
X114497285Y-65953089D01*
X114491241Y-65891714D01*
X114446353Y-65743741D01*
X114421984Y-65698149D01*
X114373461Y-65607368D01*
X114275363Y-65487837D01*
X114245410Y-65463255D01*
X110375167Y-61593012D01*
X110377374Y-61591537D01*
X110396311Y-61572600D01*
X122839167Y-61572600D01*
X122872366Y-61739506D01*
X122950387Y-61927864D01*
X123063655Y-62097382D01*
X123207818Y-62241545D01*
X123377336Y-62354813D01*
X123565694Y-62432834D01*
X123765653Y-62472608D01*
X123969531Y-62472608D01*
X124169490Y-62432834D01*
X124357848Y-62354813D01*
X124527366Y-62241545D01*
X124671529Y-62097382D01*
X124784797Y-61927864D01*
X124862818Y-61739506D01*
X124902592Y-61539547D01*
X124902592Y-61335669D01*
X124862818Y-61135710D01*
X124784797Y-60947352D01*
X124671529Y-60777834D01*
X124527366Y-60633671D01*
X124357848Y-60520403D01*
X124169490Y-60442382D01*
X123969531Y-60402608D01*
X123942749Y-60402608D01*
X123799931Y-60259789D01*
X123775348Y-60229836D01*
X123655817Y-60131738D01*
X123519444Y-60058846D01*
X123371471Y-60013959D01*
X123256145Y-60002600D01*
X123256137Y-60002600D01*
X123217584Y-59998803D01*
X123179031Y-60002600D01*
X110396311Y-60002600D01*
X110377374Y-59983663D01*
X110207856Y-59870395D01*
X110019498Y-59792374D01*
X109819539Y-59752600D01*
X109652599Y-59752600D01*
X109652599Y-57612758D01*
X111004338Y-56261020D01*
X115669384Y-56215220D01*
X116082600Y-56628436D01*
X116082600Y-56655218D01*
X116122374Y-56855177D01*
X116200395Y-57043535D01*
X116313663Y-57213053D01*
X116457826Y-57357216D01*
X116627344Y-57470484D01*
X116815702Y-57548505D01*
X117015661Y-57588279D01*
X117219539Y-57588279D01*
X117419498Y-57548505D01*
X117607856Y-57470484D01*
X117777374Y-57357216D01*
X117921537Y-57213053D01*
X118034805Y-57043535D01*
X118112826Y-56855177D01*
X118152600Y-56655218D01*
X118152600Y-56451340D01*
X118112826Y-56251381D01*
X118088012Y-56191475D01*
X125918847Y-56114594D01*
X125944261Y-56111770D01*
X125967973Y-56104183D01*
X125989749Y-56092116D01*
X126008753Y-56076032D01*
X126024253Y-56056550D01*
X126035656Y-56034418D01*
X126042521Y-56010487D01*
X126044585Y-55985676D01*
X125994585Y-52685676D01*
X125991984Y-52661956D01*
X125984591Y-52638182D01*
X125972702Y-52616308D01*
X125956774Y-52597173D01*
X125937419Y-52581514D01*
X125915381Y-52569931D01*
X125891507Y-52562871D01*
X125866714Y-52560603D01*
X107941714Y-52685603D01*
X107912277Y-52689273D01*
X107888799Y-52697559D01*
X107867390Y-52710265D01*
X107848870Y-52726904D01*
X107833953Y-52746837D01*
X107823211Y-52769296D01*
X107817057Y-52793420D01*
X107815727Y-52818281D01*
X107965727Y-56168281D01*
X107968290Y-56188598D01*
X107975750Y-56212350D01*
X107987701Y-56234191D01*
X108003683Y-56253280D01*
X108023083Y-56268884D01*
X108045153Y-56280404D01*
X108069048Y-56287397D01*
X108093847Y-56289594D01*
X108762009Y-56283034D01*
X108339789Y-56705254D01*
X108309835Y-56729837D01*
X108211737Y-56849369D01*
X108138845Y-56985742D01*
X108093958Y-57133715D01*
X108082599Y-57249041D01*
X108082599Y-57249048D01*
X108078802Y-57287601D01*
X108082599Y-57326154D01*
X108082600Y-61157038D01*
X108078802Y-61195601D01*
X108093958Y-61349487D01*
X108138845Y-61497460D01*
X108138846Y-61497461D01*
X108211738Y-61633834D01*
X108252289Y-61683245D01*
X108285254Y-61723413D01*
X108285258Y-61723417D01*
X108309836Y-61753365D01*
X108339784Y-61777943D01*
X109529286Y-62967445D01*
X109395136Y-62980658D01*
X109181188Y-63045559D01*
X108984012Y-63150951D01*
X108811186Y-63292786D01*
X108669351Y-63465612D01*
X108563959Y-63662789D01*
X108499058Y-63876737D01*
X108482635Y-64043484D01*
X108482636Y-84331829D01*
X108477140Y-84387631D01*
X108499054Y-84610129D01*
X108563955Y-84824077D01*
X108669348Y-85021253D01*
X108811183Y-85194079D01*
X108984009Y-85335914D01*
X109181185Y-85441307D01*
X109395133Y-85506208D01*
X109617631Y-85528122D01*
X109840129Y-85506208D01*
X110054077Y-85441307D01*
X110251253Y-85335914D01*
X110251254Y-85335913D01*
X110251258Y-85335911D01*
X110424084Y-85194076D01*
X110565919Y-85021250D01*
X110671311Y-84824074D01*
X110736212Y-84610126D01*
X110752635Y-84443379D01*
X110752635Y-84443378D01*
X110758126Y-84387627D01*
X110752635Y-84331875D01*
X110752635Y-75754886D01*
X110827344Y-75804805D01*
X111015702Y-75882826D01*
X111215661Y-75922600D01*
X111242443Y-75922600D01*
X112532600Y-77212758D01*
X112532601Y-78408888D01*
X112513663Y-78427826D01*
X112400395Y-78597344D01*
X112322374Y-78785702D01*
X112282600Y-78985661D01*
X112282600Y-79012443D01*
X111089798Y-80205245D01*
X111059844Y-80229828D01*
X110961746Y-80349360D01*
X110888854Y-80485733D01*
X110843967Y-80633706D01*
X110832608Y-80749032D01*
X110832608Y-80749039D01*
X110828811Y-80787592D01*
X110832608Y-80826145D01*
X110832609Y-91908908D01*
X110813671Y-91927846D01*
X110700403Y-92097364D01*
X110622382Y-92285722D01*
X110582608Y-92485681D01*
X110582608Y-92689559D01*
X110622382Y-92889518D01*
X110700403Y-93077876D01*
X110813671Y-93247394D01*
X110957834Y-93391557D01*
X111127352Y-93504825D01*
X111315710Y-93582846D01*
X111515669Y-93622620D01*
X111719547Y-93622620D01*
X111732600Y-93620024D01*
X111732600Y-94429047D01*
X111728803Y-94467600D01*
X111732600Y-94506153D01*
X111732600Y-94506160D01*
X111743959Y-94621486D01*
X111788846Y-94769459D01*
X111861738Y-94905832D01*
X111959836Y-95025364D01*
X111989790Y-95049947D01*
X112468574Y-95528731D01*
X112454087Y-95576489D01*
X112425415Y-95867600D01*
X112454087Y-96158711D01*
X112539001Y-96438634D01*
X112676894Y-96696614D01*
X112862466Y-96922734D01*
X113088586Y-97108306D01*
X113346566Y-97246199D01*
X113450081Y-97277600D01*
X105582940Y-97277600D01*
X105726269Y-97218231D01*
X106092329Y-96973638D01*
X106403638Y-96662329D01*
X106648231Y-96296269D01*
X106816710Y-95889525D01*
X106902600Y-95457728D01*
X106902600Y-95017472D01*
X106816710Y-94585675D01*
X106648231Y-94178931D01*
X106403638Y-93812871D01*
X106092329Y-93501562D01*
X105726269Y-93256969D01*
X105319525Y-93088490D01*
X104887728Y-93002600D01*
X104447472Y-93002600D01*
X104015675Y-93088490D01*
X103608931Y-93256969D01*
X103242871Y-93501562D01*
X102931562Y-93812871D01*
X102686969Y-94178931D01*
X102627600Y-94322260D01*
X102627600Y-51652940D01*
X102686969Y-51796269D01*
X102931562Y-52162329D01*
X103242871Y-52473638D01*
X103608931Y-52718231D01*
X104015675Y-52886710D01*
X104447472Y-52972600D01*
X104887728Y-52972600D01*
X105319525Y-52886710D01*
X105726269Y-52718231D01*
X106092329Y-52473638D01*
X106403638Y-52162329D01*
X106648231Y-51796269D01*
X106816710Y-51389525D01*
X106902600Y-50957728D01*
X106902600Y-50517472D01*
X106816710Y-50085675D01*
X106648231Y-49678931D01*
X106403638Y-49312871D01*
X106092329Y-49001562D01*
X105726269Y-48756969D01*
X105582940Y-48697600D01*
X128252260Y-48697600D01*
X128108931Y-48756969D01*
G36*
X112932599Y-66370758D02*
G01*
X112932600Y-68126796D01*
X112827344Y-68170395D01*
X112657826Y-68283663D01*
X112513663Y-68427826D01*
X112400395Y-68597344D01*
X112322374Y-68785702D01*
X112282600Y-68985661D01*
X112282600Y-69189539D01*
X112322374Y-69389498D01*
X112400395Y-69577856D01*
X112513663Y-69747374D01*
X112657826Y-69891537D01*
X112827344Y-70004805D01*
X113015702Y-70082826D01*
X113215661Y-70122600D01*
X113419539Y-70122600D01*
X113619498Y-70082826D01*
X113807856Y-70004805D01*
X113977374Y-69891537D01*
X114121537Y-69747374D01*
X114234805Y-69577856D01*
X114312826Y-69389498D01*
X114352600Y-69189539D01*
X114352600Y-69162757D01*
X117042758Y-66472600D01*
X118838885Y-66472600D01*
X118857822Y-66491537D01*
X119027340Y-66604805D01*
X119215698Y-66682826D01*
X119251535Y-66689954D01*
X119113663Y-66827826D01*
X119000395Y-66997344D01*
X118922374Y-67185702D01*
X118882600Y-67385661D01*
X118882600Y-67412443D01*
X114689790Y-71605253D01*
X114659836Y-71629836D01*
X114561738Y-71749368D01*
X114488846Y-71885741D01*
X114443959Y-72033714D01*
X114432600Y-72149040D01*
X114432600Y-72149047D01*
X114428803Y-72187600D01*
X114432600Y-72226153D01*
X114432601Y-75849037D01*
X114428803Y-75887600D01*
X114443959Y-76041486D01*
X114488846Y-76189459D01*
X114488847Y-76189460D01*
X114561739Y-76325833D01*
X114589605Y-76359787D01*
X114635255Y-76415412D01*
X114635259Y-76415416D01*
X114659837Y-76445364D01*
X114689785Y-76469942D01*
X115435256Y-77215414D01*
X115459835Y-77245363D01*
X115489783Y-77269941D01*
X115489786Y-77269944D01*
X115519158Y-77294049D01*
X115579366Y-77343461D01*
X115715739Y-77416353D01*
X115811376Y-77445364D01*
X115863711Y-77461240D01*
X115878089Y-77462656D01*
X115979038Y-77472599D01*
X115979045Y-77472599D01*
X116017598Y-77476396D01*
X116056151Y-77472599D01*
X122879052Y-77472599D01*
X122917605Y-77476396D01*
X122956158Y-77472599D01*
X122956166Y-77472599D01*
X123071492Y-77461240D01*
X123219465Y-77416353D01*
X123355838Y-77343461D01*
X123475369Y-77245363D01*
X123499952Y-77215410D01*
X124092768Y-76622594D01*
X124119549Y-76622594D01*
X124319508Y-76582820D01*
X124507866Y-76504799D01*
X124677384Y-76391531D01*
X124821547Y-76247368D01*
X124934815Y-76077850D01*
X125012836Y-75889492D01*
X125052610Y-75689533D01*
X125052610Y-75485655D01*
X125012836Y-75285696D01*
X124969728Y-75181624D01*
X125013663Y-75247378D01*
X125157826Y-75391541D01*
X125327344Y-75504809D01*
X125515702Y-75582830D01*
X125715661Y-75622604D01*
X125882602Y-75622604D01*
X125882603Y-86499028D01*
X125882602Y-86499038D01*
X125882602Y-86912440D01*
X125589789Y-87205254D01*
X125559836Y-87229836D01*
X125461738Y-87349368D01*
X125388846Y-87485741D01*
X125343959Y-87633714D01*
X125332600Y-87749040D01*
X125332600Y-87749047D01*
X125328803Y-87787600D01*
X125332600Y-87826153D01*
X125332601Y-90895961D01*
X124452600Y-91775962D01*
X124452600Y-91176935D01*
X124434730Y-90995498D01*
X124364111Y-90762699D01*
X124249433Y-90548151D01*
X124095102Y-90360098D01*
X123907048Y-90205767D01*
X123692500Y-90091089D01*
X123459701Y-90020470D01*
X123217600Y-89996625D01*
X122975498Y-90020470D01*
X122742699Y-90091089D01*
X122528151Y-90205767D01*
X122374291Y-90332036D01*
X122348137Y-90283106D01*
X122268785Y-90186415D01*
X122172094Y-90107063D01*
X122061780Y-90048098D01*
X121942082Y-90011788D01*
X121817600Y-89999528D01*
X121503350Y-90002600D01*
X121344600Y-90161350D01*
X121344600Y-91360600D01*
X121364600Y-91360600D01*
X121364600Y-91614600D01*
X121344600Y-91614600D01*
X121344600Y-91634600D01*
X121090600Y-91634600D01*
X121090600Y-91614600D01*
X120141350Y-91614600D01*
X119982600Y-91773350D01*
X119980807Y-92102601D01*
X119377734Y-92102601D01*
X117937445Y-90662314D01*
X117935011Y-90637600D01*
X119979528Y-90637600D01*
X119982600Y-91201850D01*
X120141350Y-91360600D01*
X121090600Y-91360600D01*
X121090600Y-90161350D01*
X120931850Y-90002600D01*
X120617600Y-89999528D01*
X120493118Y-90011788D01*
X120373420Y-90048098D01*
X120263106Y-90107063D01*
X120166415Y-90186415D01*
X120087063Y-90283106D01*
X120028098Y-90393420D01*
X119991788Y-90513118D01*
X119979528Y-90637600D01*
X117935011Y-90637600D01*
X117921113Y-90496489D01*
X117836199Y-90216566D01*
X117698306Y-89958586D01*
X117512734Y-89732466D01*
X117286614Y-89546894D01*
X117028634Y-89409001D01*
X116748711Y-89324087D01*
X116530550Y-89302600D01*
X116520087Y-89302600D01*
X116619498Y-89282826D01*
X116807856Y-89204805D01*
X116977374Y-89091537D01*
X117121537Y-88947374D01*
X117234805Y-88777856D01*
X117312826Y-88589498D01*
X117352600Y-88389539D01*
X117352600Y-88185661D01*
X117312826Y-87985702D01*
X117234805Y-87797344D01*
X117121537Y-87627826D01*
X116977374Y-87483663D01*
X116807856Y-87370395D01*
X116619498Y-87292374D01*
X116419539Y-87252600D01*
X116215661Y-87252600D01*
X116015702Y-87292374D01*
X115827344Y-87370395D01*
X115657826Y-87483663D01*
X115638889Y-87502600D01*
X115306152Y-87502600D01*
X115267599Y-87498803D01*
X115229046Y-87502600D01*
X115229039Y-87502600D01*
X115128090Y-87512543D01*
X115113712Y-87513959D01*
X115079272Y-87524406D01*
X114965740Y-87558846D01*
X114829367Y-87631738D01*
X114791599Y-87662734D01*
X114739787Y-87705255D01*
X114739784Y-87705258D01*
X114709836Y-87729836D01*
X114685258Y-87759784D01*
X113389785Y-89055258D01*
X113359837Y-89079836D01*
X113335259Y-89109784D01*
X113335255Y-89109788D01*
X113302600Y-89149578D01*
X113302600Y-82312757D01*
X113792758Y-81822600D01*
X113819539Y-81822600D01*
X114019498Y-81782826D01*
X114207856Y-81704805D01*
X114377374Y-81591537D01*
X114521537Y-81447374D01*
X114634805Y-81277856D01*
X114712826Y-81089498D01*
X114752600Y-80889539D01*
X114752600Y-80685661D01*
X114712826Y-80485702D01*
X114634805Y-80297344D01*
X114521537Y-80127826D01*
X114377374Y-79983663D01*
X114207856Y-79870395D01*
X114059831Y-79809080D01*
X114121537Y-79747374D01*
X114234805Y-79577856D01*
X114312826Y-79389498D01*
X114352600Y-79189539D01*
X114352600Y-78985661D01*
X114312826Y-78785702D01*
X114234805Y-78597344D01*
X114121537Y-78427826D01*
X114102600Y-78408889D01*
X114102600Y-76926152D01*
X114106397Y-76887599D01*
X114102600Y-76849046D01*
X114102600Y-76849039D01*
X114091241Y-76733713D01*
X114046354Y-76585740D01*
X113973462Y-76449367D01*
X113913576Y-76376397D01*
X113899945Y-76359787D01*
X113899942Y-76359784D01*
X113875364Y-76329836D01*
X113845417Y-76305259D01*
X112352600Y-74812443D01*
X112352600Y-74785661D01*
X112312826Y-74585702D01*
X112234805Y-74397344D01*
X112121537Y-74227826D01*
X111977374Y-74083663D01*
X111807856Y-73970395D01*
X111619498Y-73892374D01*
X111419539Y-73852600D01*
X111215661Y-73852600D01*
X111015702Y-73892374D01*
X110827344Y-73970395D01*
X110752635Y-74020314D01*
X110752635Y-64190794D01*
X112932599Y-66370758D01*
X112932599Y-66370758D01*
G37*
X112932599Y-66370758D02*
X112932600Y-68126796D01*
X112827344Y-68170395D01*
X112657826Y-68283663D01*
X112513663Y-68427826D01*
X112400395Y-68597344D01*
X112322374Y-68785702D01*
X112282600Y-68985661D01*
X112282600Y-69189539D01*
X112322374Y-69389498D01*
X112400395Y-69577856D01*
X112513663Y-69747374D01*
X112657826Y-69891537D01*
X112827344Y-70004805D01*
X113015702Y-70082826D01*
X113215661Y-70122600D01*
X113419539Y-70122600D01*
X113619498Y-70082826D01*
X113807856Y-70004805D01*
X113977374Y-69891537D01*
X114121537Y-69747374D01*
X114234805Y-69577856D01*
X114312826Y-69389498D01*
X114352600Y-69189539D01*
X114352600Y-69162757D01*
X117042758Y-66472600D01*
X118838885Y-66472600D01*
X118857822Y-66491537D01*
X119027340Y-66604805D01*
X119215698Y-66682826D01*
X119251535Y-66689954D01*
X119113663Y-66827826D01*
X119000395Y-66997344D01*
X118922374Y-67185702D01*
X118882600Y-67385661D01*
X118882600Y-67412443D01*
X114689790Y-71605253D01*
X114659836Y-71629836D01*
X114561738Y-71749368D01*
X114488846Y-71885741D01*
X114443959Y-72033714D01*
X114432600Y-72149040D01*
X114432600Y-72149047D01*
X114428803Y-72187600D01*
X114432600Y-72226153D01*
X114432601Y-75849037D01*
X114428803Y-75887600D01*
X114443959Y-76041486D01*
X114488846Y-76189459D01*
X114488847Y-76189460D01*
X114561739Y-76325833D01*
X114589605Y-76359787D01*
X114635255Y-76415412D01*
X114635259Y-76415416D01*
X114659837Y-76445364D01*
X114689785Y-76469942D01*
X115435256Y-77215414D01*
X115459835Y-77245363D01*
X115489783Y-77269941D01*
X115489786Y-77269944D01*
X115519158Y-77294049D01*
X115579366Y-77343461D01*
X115715739Y-77416353D01*
X115811376Y-77445364D01*
X115863711Y-77461240D01*
X115878089Y-77462656D01*
X115979038Y-77472599D01*
X115979045Y-77472599D01*
X116017598Y-77476396D01*
X116056151Y-77472599D01*
X122879052Y-77472599D01*
X122917605Y-77476396D01*
X122956158Y-77472599D01*
X122956166Y-77472599D01*
X123071492Y-77461240D01*
X123219465Y-77416353D01*
X123355838Y-77343461D01*
X123475369Y-77245363D01*
X123499952Y-77215410D01*
X124092768Y-76622594D01*
X124119549Y-76622594D01*
X124319508Y-76582820D01*
X124507866Y-76504799D01*
X124677384Y-76391531D01*
X124821547Y-76247368D01*
X124934815Y-76077850D01*
X125012836Y-75889492D01*
X125052610Y-75689533D01*
X125052610Y-75485655D01*
X125012836Y-75285696D01*
X124969728Y-75181624D01*
X125013663Y-75247378D01*
X125157826Y-75391541D01*
X125327344Y-75504809D01*
X125515702Y-75582830D01*
X125715661Y-75622604D01*
X125882602Y-75622604D01*
X125882603Y-86499028D01*
X125882602Y-86499038D01*
X125882602Y-86912440D01*
X125589789Y-87205254D01*
X125559836Y-87229836D01*
X125461738Y-87349368D01*
X125388846Y-87485741D01*
X125343959Y-87633714D01*
X125332600Y-87749040D01*
X125332600Y-87749047D01*
X125328803Y-87787600D01*
X125332600Y-87826153D01*
X125332601Y-90895961D01*
X124452600Y-91775962D01*
X124452600Y-91176935D01*
X124434730Y-90995498D01*
X124364111Y-90762699D01*
X124249433Y-90548151D01*
X124095102Y-90360098D01*
X123907048Y-90205767D01*
X123692500Y-90091089D01*
X123459701Y-90020470D01*
X123217600Y-89996625D01*
X122975498Y-90020470D01*
X122742699Y-90091089D01*
X122528151Y-90205767D01*
X122374291Y-90332036D01*
X122348137Y-90283106D01*
X122268785Y-90186415D01*
X122172094Y-90107063D01*
X122061780Y-90048098D01*
X121942082Y-90011788D01*
X121817600Y-89999528D01*
X121503350Y-90002600D01*
X121344600Y-90161350D01*
X121344600Y-91360600D01*
X121364600Y-91360600D01*
X121364600Y-91614600D01*
X121344600Y-91614600D01*
X121344600Y-91634600D01*
X121090600Y-91634600D01*
X121090600Y-91614600D01*
X120141350Y-91614600D01*
X119982600Y-91773350D01*
X119980807Y-92102601D01*
X119377734Y-92102601D01*
X117937445Y-90662314D01*
X117935011Y-90637600D01*
X119979528Y-90637600D01*
X119982600Y-91201850D01*
X120141350Y-91360600D01*
X121090600Y-91360600D01*
X121090600Y-90161350D01*
X120931850Y-90002600D01*
X120617600Y-89999528D01*
X120493118Y-90011788D01*
X120373420Y-90048098D01*
X120263106Y-90107063D01*
X120166415Y-90186415D01*
X120087063Y-90283106D01*
X120028098Y-90393420D01*
X119991788Y-90513118D01*
X119979528Y-90637600D01*
X117935011Y-90637600D01*
X117921113Y-90496489D01*
X117836199Y-90216566D01*
X117698306Y-89958586D01*
X117512734Y-89732466D01*
X117286614Y-89546894D01*
X117028634Y-89409001D01*
X116748711Y-89324087D01*
X116530550Y-89302600D01*
X116520087Y-89302600D01*
X116619498Y-89282826D01*
X116807856Y-89204805D01*
X116977374Y-89091537D01*
X117121537Y-88947374D01*
X117234805Y-88777856D01*
X117312826Y-88589498D01*
X117352600Y-88389539D01*
X117352600Y-88185661D01*
X117312826Y-87985702D01*
X117234805Y-87797344D01*
X117121537Y-87627826D01*
X116977374Y-87483663D01*
X116807856Y-87370395D01*
X116619498Y-87292374D01*
X116419539Y-87252600D01*
X116215661Y-87252600D01*
X116015702Y-87292374D01*
X115827344Y-87370395D01*
X115657826Y-87483663D01*
X115638889Y-87502600D01*
X115306152Y-87502600D01*
X115267599Y-87498803D01*
X115229046Y-87502600D01*
X115229039Y-87502600D01*
X115128090Y-87512543D01*
X115113712Y-87513959D01*
X115079272Y-87524406D01*
X114965740Y-87558846D01*
X114829367Y-87631738D01*
X114791599Y-87662734D01*
X114739787Y-87705255D01*
X114739784Y-87705258D01*
X114709836Y-87729836D01*
X114685258Y-87759784D01*
X113389785Y-89055258D01*
X113359837Y-89079836D01*
X113335259Y-89109784D01*
X113335255Y-89109788D01*
X113302600Y-89149578D01*
X113302600Y-82312757D01*
X113792758Y-81822600D01*
X113819539Y-81822600D01*
X114019498Y-81782826D01*
X114207856Y-81704805D01*
X114377374Y-81591537D01*
X114521537Y-81447374D01*
X114634805Y-81277856D01*
X114712826Y-81089498D01*
X114752600Y-80889539D01*
X114752600Y-80685661D01*
X114712826Y-80485702D01*
X114634805Y-80297344D01*
X114521537Y-80127826D01*
X114377374Y-79983663D01*
X114207856Y-79870395D01*
X114059831Y-79809080D01*
X114121537Y-79747374D01*
X114234805Y-79577856D01*
X114312826Y-79389498D01*
X114352600Y-79189539D01*
X114352600Y-78985661D01*
X114312826Y-78785702D01*
X114234805Y-78597344D01*
X114121537Y-78427826D01*
X114102600Y-78408889D01*
X114102600Y-76926152D01*
X114106397Y-76887599D01*
X114102600Y-76849046D01*
X114102600Y-76849039D01*
X114091241Y-76733713D01*
X114046354Y-76585740D01*
X113973462Y-76449367D01*
X113913576Y-76376397D01*
X113899945Y-76359787D01*
X113899942Y-76359784D01*
X113875364Y-76329836D01*
X113845417Y-76305259D01*
X112352600Y-74812443D01*
X112352600Y-74785661D01*
X112312826Y-74585702D01*
X112234805Y-74397344D01*
X112121537Y-74227826D01*
X111977374Y-74083663D01*
X111807856Y-73970395D01*
X111619498Y-73892374D01*
X111419539Y-73852600D01*
X111215661Y-73852600D01*
X111015702Y-73892374D01*
X110827344Y-73970395D01*
X110752635Y-74020314D01*
X110752635Y-64190794D01*
X112932599Y-66370758D01*
G36*
X123357836Y-74783657D02*
G01*
X123213673Y-74927820D01*
X123100405Y-75097338D01*
X123022384Y-75285696D01*
X122982610Y-75485655D01*
X122982610Y-75512436D01*
X122592448Y-75902599D01*
X118012758Y-75902599D01*
X119242758Y-74672600D01*
X123524045Y-74672600D01*
X123357836Y-74783657D01*
X123357836Y-74783657D01*
G37*
X123357836Y-74783657D02*
X123213673Y-74927820D01*
X123100405Y-75097338D01*
X123022384Y-75285696D01*
X122982610Y-75485655D01*
X122982610Y-75512436D01*
X122592448Y-75902599D01*
X118012758Y-75902599D01*
X119242758Y-74672600D01*
X123524045Y-74672600D01*
X123357836Y-74783657D01*
M02*
