G04 #@! TF.GenerationSoftware,KiCad,Pcbnew,(5.1.0)-1*
G04 #@! TF.CreationDate,2019-04-18T12:11:20+01:00*
G04 #@! TF.ProjectId,v4,76342e6b-6963-4616-945f-706362585858,rev?*
G04 #@! TF.SameCoordinates,Original*
G04 #@! TF.FileFunction,Legend,Bot*
G04 #@! TF.FilePolarity,Positive*
%FSLAX46Y46*%
G04 Gerber Fmt 4.6, Leading zero omitted, Abs format (unit mm)*
G04 Created by KiCad (PCBNEW (5.1.0)-1) date 2019-04-18 12:11:20*
%MOMM*%
%LPD*%
G04 APERTURE LIST*
%ADD10C,0.300000*%
%ADD11C,0.200000*%
%ADD12C,0.100000*%
G04 APERTURE END LIST*
D10*
X67690857Y-102048571D02*
X66833714Y-102048571D01*
X67262285Y-103548571D02*
X67262285Y-102048571D01*
X66476571Y-102048571D02*
X65476571Y-103548571D01*
X65476571Y-102048571D02*
X66476571Y-103548571D01*
X60041600Y-103599371D02*
X60541600Y-102885085D01*
X60898742Y-103599371D02*
X60898742Y-102099371D01*
X60327314Y-102099371D01*
X60184457Y-102170800D01*
X60113028Y-102242228D01*
X60041600Y-102385085D01*
X60041600Y-102599371D01*
X60113028Y-102742228D01*
X60184457Y-102813657D01*
X60327314Y-102885085D01*
X60898742Y-102885085D01*
X59541600Y-102099371D02*
X58541600Y-103599371D01*
X58541600Y-102099371D02*
X59541600Y-103599371D01*
D11*
X77423257Y-56541942D02*
X77470876Y-56589561D01*
X77613733Y-56637180D01*
X77708971Y-56637180D01*
X77851828Y-56589561D01*
X77947066Y-56494323D01*
X77994685Y-56399085D01*
X78042304Y-56208609D01*
X78042304Y-56065752D01*
X77994685Y-55875276D01*
X77947066Y-55780038D01*
X77851828Y-55684800D01*
X77708971Y-55637180D01*
X77613733Y-55637180D01*
X77470876Y-55684800D01*
X77423257Y-55732419D01*
X76566114Y-56637180D02*
X76566114Y-56113371D01*
X76613733Y-56018133D01*
X76708971Y-55970514D01*
X76899447Y-55970514D01*
X76994685Y-56018133D01*
X76566114Y-56589561D02*
X76661352Y-56637180D01*
X76899447Y-56637180D01*
X76994685Y-56589561D01*
X77042304Y-56494323D01*
X77042304Y-56399085D01*
X76994685Y-56303847D01*
X76899447Y-56256228D01*
X76661352Y-56256228D01*
X76566114Y-56208609D01*
X75947066Y-56637180D02*
X76042304Y-56589561D01*
X76089923Y-56494323D01*
X76089923Y-55637180D01*
X75566114Y-56637180D02*
X75566114Y-55970514D01*
X75566114Y-55637180D02*
X75613733Y-55684800D01*
X75566114Y-55732419D01*
X75518495Y-55684800D01*
X75566114Y-55637180D01*
X75566114Y-55732419D01*
X75089923Y-56637180D02*
X75089923Y-55637180D01*
X75089923Y-56018133D02*
X74994685Y-55970514D01*
X74804209Y-55970514D01*
X74708971Y-56018133D01*
X74661352Y-56065752D01*
X74613733Y-56160990D01*
X74613733Y-56446704D01*
X74661352Y-56541942D01*
X74708971Y-56589561D01*
X74804209Y-56637180D01*
X74994685Y-56637180D01*
X75089923Y-56589561D01*
X74185161Y-56637180D02*
X74185161Y-55970514D01*
X74185161Y-56160990D02*
X74137542Y-56065752D01*
X74089923Y-56018133D01*
X73994685Y-55970514D01*
X73899447Y-55970514D01*
X73137542Y-56637180D02*
X73137542Y-56113371D01*
X73185161Y-56018133D01*
X73280400Y-55970514D01*
X73470876Y-55970514D01*
X73566114Y-56018133D01*
X73137542Y-56589561D02*
X73232780Y-56637180D01*
X73470876Y-56637180D01*
X73566114Y-56589561D01*
X73613733Y-56494323D01*
X73613733Y-56399085D01*
X73566114Y-56303847D01*
X73470876Y-56256228D01*
X73232780Y-56256228D01*
X73137542Y-56208609D01*
X72804209Y-55970514D02*
X72423257Y-55970514D01*
X72661352Y-55637180D02*
X72661352Y-56494323D01*
X72613733Y-56589561D01*
X72518495Y-56637180D01*
X72423257Y-56637180D01*
X72089923Y-56637180D02*
X72089923Y-55970514D01*
X72089923Y-55637180D02*
X72137542Y-55684800D01*
X72089923Y-55732419D01*
X72042304Y-55684800D01*
X72089923Y-55637180D01*
X72089923Y-55732419D01*
X71470876Y-56637180D02*
X71566114Y-56589561D01*
X71613733Y-56541942D01*
X71661352Y-56446704D01*
X71661352Y-56160990D01*
X71613733Y-56065752D01*
X71566114Y-56018133D01*
X71470876Y-55970514D01*
X71328019Y-55970514D01*
X71232780Y-56018133D01*
X71185161Y-56065752D01*
X71137542Y-56160990D01*
X71137542Y-56446704D01*
X71185161Y-56541942D01*
X71232780Y-56589561D01*
X71328019Y-56637180D01*
X71470876Y-56637180D01*
X70708971Y-55970514D02*
X70708971Y-56637180D01*
X70708971Y-56065752D02*
X70661352Y-56018133D01*
X70566114Y-55970514D01*
X70423257Y-55970514D01*
X70328019Y-56018133D01*
X70280400Y-56113371D01*
X70280400Y-56637180D01*
X69137542Y-55970514D02*
X68899447Y-56637180D01*
X68661352Y-55970514D01*
X67851828Y-56637180D02*
X67851828Y-56113371D01*
X67899447Y-56018133D01*
X67994685Y-55970514D01*
X68185161Y-55970514D01*
X68280400Y-56018133D01*
X67851828Y-56589561D02*
X67947066Y-56637180D01*
X68185161Y-56637180D01*
X68280400Y-56589561D01*
X68328019Y-56494323D01*
X68328019Y-56399085D01*
X68280400Y-56303847D01*
X68185161Y-56256228D01*
X67947066Y-56256228D01*
X67851828Y-56208609D01*
X67232780Y-56637180D02*
X67328019Y-56589561D01*
X67375638Y-56494323D01*
X67375638Y-55637180D01*
X66423257Y-55970514D02*
X66423257Y-56637180D01*
X66851828Y-55970514D02*
X66851828Y-56494323D01*
X66804209Y-56589561D01*
X66708971Y-56637180D01*
X66566114Y-56637180D01*
X66470876Y-56589561D01*
X66423257Y-56541942D01*
X65566114Y-56589561D02*
X65661352Y-56637180D01*
X65851828Y-56637180D01*
X65947066Y-56589561D01*
X65994685Y-56494323D01*
X65994685Y-56113371D01*
X65947066Y-56018133D01*
X65851828Y-55970514D01*
X65661352Y-55970514D01*
X65566114Y-56018133D01*
X65518495Y-56113371D01*
X65518495Y-56208609D01*
X65994685Y-56303847D01*
D12*
G36*
X81940400Y-63703200D02*
G01*
X61569600Y-63703200D01*
X61569600Y-57353200D01*
X82042000Y-57353200D01*
X81940400Y-63703200D01*
G37*
X81940400Y-63703200D02*
X61569600Y-63703200D01*
X61569600Y-57353200D01*
X82042000Y-57353200D01*
X81940400Y-63703200D01*
D10*
X81391885Y-89827571D02*
X81391885Y-88327571D01*
X81034742Y-88327571D01*
X80820457Y-88399000D01*
X80677600Y-88541857D01*
X80606171Y-88684714D01*
X80534742Y-88970428D01*
X80534742Y-89184714D01*
X80606171Y-89470428D01*
X80677600Y-89613285D01*
X80820457Y-89756142D01*
X81034742Y-89827571D01*
X81391885Y-89827571D01*
X79606171Y-88327571D02*
X79320457Y-88327571D01*
X79177600Y-88399000D01*
X79034742Y-88541857D01*
X78963314Y-88827571D01*
X78963314Y-89327571D01*
X79034742Y-89613285D01*
X79177600Y-89756142D01*
X79320457Y-89827571D01*
X79606171Y-89827571D01*
X79749028Y-89756142D01*
X79891885Y-89613285D01*
X79963314Y-89327571D01*
X79963314Y-88827571D01*
X79891885Y-88541857D01*
X79749028Y-88399000D01*
X79606171Y-88327571D01*
X77177600Y-89827571D02*
X77177600Y-88327571D01*
X76320457Y-89827571D01*
X76320457Y-88327571D01*
X75320457Y-88327571D02*
X75034742Y-88327571D01*
X74891885Y-88399000D01*
X74749028Y-88541857D01*
X74677600Y-88827571D01*
X74677600Y-89327571D01*
X74749028Y-89613285D01*
X74891885Y-89756142D01*
X75034742Y-89827571D01*
X75320457Y-89827571D01*
X75463314Y-89756142D01*
X75606171Y-89613285D01*
X75677600Y-89327571D01*
X75677600Y-88827571D01*
X75606171Y-88541857D01*
X75463314Y-88399000D01*
X75320457Y-88327571D01*
X74249028Y-88327571D02*
X73391885Y-88327571D01*
X73820457Y-89827571D02*
X73820457Y-88327571D01*
X71820457Y-89756142D02*
X71606171Y-89827571D01*
X71249028Y-89827571D01*
X71106171Y-89756142D01*
X71034742Y-89684714D01*
X70963314Y-89541857D01*
X70963314Y-89399000D01*
X71034742Y-89256142D01*
X71106171Y-89184714D01*
X71249028Y-89113285D01*
X71534742Y-89041857D01*
X71677600Y-88970428D01*
X71749028Y-88899000D01*
X71820457Y-88756142D01*
X71820457Y-88613285D01*
X71749028Y-88470428D01*
X71677600Y-88399000D01*
X71534742Y-88327571D01*
X71177600Y-88327571D01*
X70963314Y-88399000D01*
X70320457Y-89827571D02*
X70320457Y-88327571D01*
X70320457Y-89041857D02*
X69463314Y-89041857D01*
X69463314Y-89827571D02*
X69463314Y-88327571D01*
X68463314Y-88327571D02*
X68177600Y-88327571D01*
X68034742Y-88399000D01*
X67891885Y-88541857D01*
X67820457Y-88827571D01*
X67820457Y-89327571D01*
X67891885Y-89613285D01*
X68034742Y-89756142D01*
X68177600Y-89827571D01*
X68463314Y-89827571D01*
X68606171Y-89756142D01*
X68749028Y-89613285D01*
X68820457Y-89327571D01*
X68820457Y-88827571D01*
X68749028Y-88541857D01*
X68606171Y-88399000D01*
X68463314Y-88327571D01*
X66320457Y-89827571D02*
X66820457Y-89113285D01*
X67177600Y-89827571D02*
X67177600Y-88327571D01*
X66606171Y-88327571D01*
X66463314Y-88399000D01*
X66391885Y-88470428D01*
X66320457Y-88613285D01*
X66320457Y-88827571D01*
X66391885Y-88970428D01*
X66463314Y-89041857D01*
X66606171Y-89113285D01*
X67177600Y-89113285D01*
X65891885Y-88327571D02*
X65034742Y-88327571D01*
X65463314Y-89827571D02*
X65463314Y-88327571D01*
X62534742Y-89684714D02*
X62606171Y-89756142D01*
X62820457Y-89827571D01*
X62963314Y-89827571D01*
X63177600Y-89756142D01*
X63320457Y-89613285D01*
X63391885Y-89470428D01*
X63463314Y-89184714D01*
X63463314Y-88970428D01*
X63391885Y-88684714D01*
X63320457Y-88541857D01*
X63177600Y-88399000D01*
X62963314Y-88327571D01*
X62820457Y-88327571D01*
X62606171Y-88399000D01*
X62534742Y-88470428D01*
X61891885Y-89827571D02*
X61891885Y-88327571D01*
X60320457Y-89827571D02*
X60820457Y-89113285D01*
X61177600Y-89827571D02*
X61177600Y-88327571D01*
X60606171Y-88327571D01*
X60463314Y-88399000D01*
X60391885Y-88470428D01*
X60320457Y-88613285D01*
X60320457Y-88827571D01*
X60391885Y-88970428D01*
X60463314Y-89041857D01*
X60606171Y-89113285D01*
X61177600Y-89113285D01*
X58820457Y-89684714D02*
X58891885Y-89756142D01*
X59106171Y-89827571D01*
X59249028Y-89827571D01*
X59463314Y-89756142D01*
X59606171Y-89613285D01*
X59677600Y-89470428D01*
X59749028Y-89184714D01*
X59749028Y-88970428D01*
X59677600Y-88684714D01*
X59606171Y-88541857D01*
X59463314Y-88399000D01*
X59249028Y-88327571D01*
X59106171Y-88327571D01*
X58891885Y-88399000D01*
X58820457Y-88470428D01*
X58177600Y-88327571D02*
X58177600Y-89541857D01*
X58106171Y-89684714D01*
X58034742Y-89756142D01*
X57891885Y-89827571D01*
X57606171Y-89827571D01*
X57463314Y-89756142D01*
X57391885Y-89684714D01*
X57320457Y-89541857D01*
X57320457Y-88327571D01*
X56606171Y-89827571D02*
X56606171Y-88327571D01*
X56106171Y-88327571D02*
X55249028Y-88327571D01*
X55677600Y-89827571D02*
X55677600Y-88327571D01*
X83463314Y-92377571D02*
X83463314Y-90877571D01*
X83106171Y-90877571D01*
X82891885Y-90949000D01*
X82749028Y-91091857D01*
X82677600Y-91234714D01*
X82606171Y-91520428D01*
X82606171Y-91734714D01*
X82677600Y-92020428D01*
X82749028Y-92163285D01*
X82891885Y-92306142D01*
X83106171Y-92377571D01*
X83463314Y-92377571D01*
X81677600Y-90877571D02*
X81391885Y-90877571D01*
X81249028Y-90949000D01*
X81106171Y-91091857D01*
X81034742Y-91377571D01*
X81034742Y-91877571D01*
X81106171Y-92163285D01*
X81249028Y-92306142D01*
X81391885Y-92377571D01*
X81677600Y-92377571D01*
X81820457Y-92306142D01*
X81963314Y-92163285D01*
X82034742Y-91877571D01*
X82034742Y-91377571D01*
X81963314Y-91091857D01*
X81820457Y-90949000D01*
X81677600Y-90877571D01*
X79249028Y-92377571D02*
X79249028Y-90877571D01*
X78391885Y-92377571D01*
X78391885Y-90877571D01*
X77391885Y-90877571D02*
X77106171Y-90877571D01*
X76963314Y-90949000D01*
X76820457Y-91091857D01*
X76749028Y-91377571D01*
X76749028Y-91877571D01*
X76820457Y-92163285D01*
X76963314Y-92306142D01*
X77106171Y-92377571D01*
X77391885Y-92377571D01*
X77534742Y-92306142D01*
X77677600Y-92163285D01*
X77749028Y-91877571D01*
X77749028Y-91377571D01*
X77677600Y-91091857D01*
X77534742Y-90949000D01*
X77391885Y-90877571D01*
X76320457Y-90877571D02*
X75463314Y-90877571D01*
X75891885Y-92377571D02*
X75891885Y-90877571D01*
X72963314Y-92377571D02*
X73463314Y-91663285D01*
X73820457Y-92377571D02*
X73820457Y-90877571D01*
X73249028Y-90877571D01*
X73106171Y-90949000D01*
X73034742Y-91020428D01*
X72963314Y-91163285D01*
X72963314Y-91377571D01*
X73034742Y-91520428D01*
X73106171Y-91591857D01*
X73249028Y-91663285D01*
X73820457Y-91663285D01*
X72320457Y-91591857D02*
X71820457Y-91591857D01*
X71606171Y-92377571D02*
X72320457Y-92377571D01*
X72320457Y-90877571D01*
X71606171Y-90877571D01*
X71177600Y-90877571D02*
X70677600Y-92377571D01*
X70177600Y-90877571D01*
X69677600Y-91591857D02*
X69177600Y-91591857D01*
X68963314Y-92377571D02*
X69677600Y-92377571D01*
X69677600Y-90877571D01*
X68963314Y-90877571D01*
X67463314Y-92377571D02*
X67963314Y-91663285D01*
X68320457Y-92377571D02*
X68320457Y-90877571D01*
X67749028Y-90877571D01*
X67606171Y-90949000D01*
X67534742Y-91020428D01*
X67463314Y-91163285D01*
X67463314Y-91377571D01*
X67534742Y-91520428D01*
X67606171Y-91591857D01*
X67749028Y-91663285D01*
X68320457Y-91663285D01*
X66891885Y-92306142D02*
X66677600Y-92377571D01*
X66320457Y-92377571D01*
X66177600Y-92306142D01*
X66106171Y-92234714D01*
X66034742Y-92091857D01*
X66034742Y-91949000D01*
X66106171Y-91806142D01*
X66177600Y-91734714D01*
X66320457Y-91663285D01*
X66606171Y-91591857D01*
X66749028Y-91520428D01*
X66820457Y-91449000D01*
X66891885Y-91306142D01*
X66891885Y-91163285D01*
X66820457Y-91020428D01*
X66749028Y-90949000D01*
X66606171Y-90877571D01*
X66249028Y-90877571D01*
X66034742Y-90949000D01*
X65391885Y-91591857D02*
X64891885Y-91591857D01*
X64677600Y-92377571D02*
X65391885Y-92377571D01*
X65391885Y-90877571D01*
X64677600Y-90877571D01*
X62891885Y-92377571D02*
X62891885Y-90877571D01*
X62320457Y-90877571D01*
X62177600Y-90949000D01*
X62106171Y-91020428D01*
X62034742Y-91163285D01*
X62034742Y-91377571D01*
X62106171Y-91520428D01*
X62177600Y-91591857D01*
X62320457Y-91663285D01*
X62891885Y-91663285D01*
X61106171Y-90877571D02*
X60820457Y-90877571D01*
X60677600Y-90949000D01*
X60534742Y-91091857D01*
X60463314Y-91377571D01*
X60463314Y-91877571D01*
X60534742Y-92163285D01*
X60677600Y-92306142D01*
X60820457Y-92377571D01*
X61106171Y-92377571D01*
X61249028Y-92306142D01*
X61391885Y-92163285D01*
X61463314Y-91877571D01*
X61463314Y-91377571D01*
X61391885Y-91091857D01*
X61249028Y-90949000D01*
X61106171Y-90877571D01*
X59106171Y-92377571D02*
X59820457Y-92377571D01*
X59820457Y-90877571D01*
X58677600Y-91949000D02*
X57963314Y-91949000D01*
X58820457Y-92377571D02*
X58320457Y-90877571D01*
X57820457Y-92377571D01*
X56463314Y-92377571D02*
X56963314Y-91663285D01*
X57320457Y-92377571D02*
X57320457Y-90877571D01*
X56749028Y-90877571D01*
X56606171Y-90949000D01*
X56534742Y-91020428D01*
X56463314Y-91163285D01*
X56463314Y-91377571D01*
X56534742Y-91520428D01*
X56606171Y-91591857D01*
X56749028Y-91663285D01*
X57320457Y-91663285D01*
X55820457Y-92377571D02*
X55820457Y-90877571D01*
X55320457Y-90877571D02*
X54463314Y-90877571D01*
X54891885Y-92377571D02*
X54891885Y-90877571D01*
X53677600Y-91663285D02*
X53677600Y-92377571D01*
X54177600Y-90877571D02*
X53677600Y-91663285D01*
X53177600Y-90877571D01*
X83875200Y-74382533D02*
X83875200Y-72982533D01*
X83408533Y-73982533D01*
X82941866Y-72982533D01*
X82941866Y-74382533D01*
X82341866Y-73982533D02*
X81675200Y-73982533D01*
X82475200Y-74382533D02*
X82008533Y-72982533D01*
X81541866Y-74382533D01*
X81208533Y-72982533D02*
X80275200Y-74382533D01*
X80275200Y-72982533D02*
X81208533Y-74382533D01*
X79741866Y-74382533D02*
X79741866Y-72982533D01*
X79075200Y-74382533D02*
X79075200Y-72982533D01*
X78608533Y-73982533D01*
X78141866Y-72982533D01*
X78141866Y-74382533D01*
X77475200Y-72982533D02*
X77475200Y-74115866D01*
X77408533Y-74249200D01*
X77341866Y-74315866D01*
X77208533Y-74382533D01*
X76941866Y-74382533D01*
X76808533Y-74315866D01*
X76741866Y-74249200D01*
X76675200Y-74115866D01*
X76675200Y-72982533D01*
X76008533Y-74382533D02*
X76008533Y-72982533D01*
X75541866Y-73982533D01*
X75075200Y-72982533D01*
X75075200Y-74382533D01*
X72741866Y-73449200D02*
X72741866Y-74382533D01*
X73075200Y-72915866D02*
X73408533Y-73915866D01*
X72541866Y-73915866D01*
X72008533Y-74249200D02*
X71941866Y-74315866D01*
X72008533Y-74382533D01*
X72075200Y-74315866D01*
X72008533Y-74249200D01*
X72008533Y-74382533D01*
X70675200Y-72982533D02*
X71341866Y-72982533D01*
X71408533Y-73649200D01*
X71341866Y-73582533D01*
X71208533Y-73515866D01*
X70875200Y-73515866D01*
X70741866Y-73582533D01*
X70675200Y-73649200D01*
X70608533Y-73782533D01*
X70608533Y-74115866D01*
X70675200Y-74249200D01*
X70741866Y-74315866D01*
X70875200Y-74382533D01*
X71208533Y-74382533D01*
X71341866Y-74315866D01*
X71408533Y-74249200D01*
X70208533Y-72982533D02*
X69741866Y-74382533D01*
X69275200Y-72982533D01*
X67275200Y-73649200D02*
X67075200Y-73715866D01*
X67008533Y-73782533D01*
X66941866Y-73915866D01*
X66941866Y-74115866D01*
X67008533Y-74249200D01*
X67075200Y-74315866D01*
X67208533Y-74382533D01*
X67741866Y-74382533D01*
X67741866Y-72982533D01*
X67275200Y-72982533D01*
X67141866Y-73049200D01*
X67075200Y-73115866D01*
X67008533Y-73249200D01*
X67008533Y-73382533D01*
X67075200Y-73515866D01*
X67141866Y-73582533D01*
X67275200Y-73649200D01*
X67741866Y-73649200D01*
X66408533Y-73982533D02*
X65741866Y-73982533D01*
X66541866Y-74382533D02*
X66075200Y-72982533D01*
X65608533Y-74382533D01*
X65341866Y-72982533D02*
X64541866Y-72982533D01*
X64941866Y-74382533D02*
X64941866Y-72982533D01*
X64275200Y-72982533D02*
X63475200Y-72982533D01*
X63875200Y-74382533D02*
X63875200Y-72982533D01*
X63008533Y-73649200D02*
X62541866Y-73649200D01*
X62341866Y-74382533D02*
X63008533Y-74382533D01*
X63008533Y-72982533D01*
X62341866Y-72982533D01*
X60941866Y-74382533D02*
X61408533Y-73715866D01*
X61741866Y-74382533D02*
X61741866Y-72982533D01*
X61208533Y-72982533D01*
X61075200Y-73049200D01*
X61008533Y-73115866D01*
X60941866Y-73249200D01*
X60941866Y-73449200D01*
X61008533Y-73582533D01*
X61075200Y-73649200D01*
X61208533Y-73715866D01*
X61741866Y-73715866D01*
X60075200Y-73715866D02*
X60075200Y-74382533D01*
X60541866Y-72982533D02*
X60075200Y-73715866D01*
X59608533Y-72982533D01*
X58075200Y-74382533D02*
X58075200Y-72982533D01*
X57408533Y-74382533D02*
X57408533Y-72982533D01*
X56608533Y-74382533D01*
X56608533Y-72982533D01*
X55941866Y-74382533D02*
X55941866Y-72982533D01*
X55408533Y-72982533D01*
X55275200Y-73049200D01*
X55208533Y-73115866D01*
X55141866Y-73249200D01*
X55141866Y-73449200D01*
X55208533Y-73582533D01*
X55275200Y-73649200D01*
X55408533Y-73715866D01*
X55941866Y-73715866D01*
X54541866Y-72982533D02*
X54541866Y-74115866D01*
X54475200Y-74249200D01*
X54408533Y-74315866D01*
X54275200Y-74382533D01*
X54008533Y-74382533D01*
X53875200Y-74315866D01*
X53808533Y-74249200D01*
X53741866Y-74115866D01*
X53741866Y-72982533D01*
X53275200Y-72982533D02*
X52475200Y-72982533D01*
X52875200Y-74382533D02*
X52875200Y-72982533D01*
X77108533Y-79182533D02*
X77908533Y-79182533D01*
X77508533Y-79182533D02*
X77508533Y-77782533D01*
X77641866Y-77982533D01*
X77775200Y-78115866D01*
X77908533Y-78182533D01*
X75508533Y-78782533D02*
X74841866Y-78782533D01*
X75641866Y-79182533D02*
X75175200Y-77782533D01*
X74708533Y-79182533D01*
X74241866Y-79182533D02*
X74241866Y-77782533D01*
X73775200Y-78782533D01*
X73308533Y-77782533D01*
X73308533Y-79182533D01*
X72641866Y-79182533D02*
X72641866Y-77782533D01*
X72108533Y-77782533D01*
X71975200Y-77849200D01*
X71908533Y-77915866D01*
X71841866Y-78049200D01*
X71841866Y-78249200D01*
X71908533Y-78382533D01*
X71975200Y-78449200D01*
X72108533Y-78515866D01*
X72641866Y-78515866D01*
X70175200Y-79182533D02*
X70175200Y-77782533D01*
X69841866Y-77782533D01*
X69641866Y-77849200D01*
X69508533Y-77982533D01*
X69441866Y-78115866D01*
X69375200Y-78382533D01*
X69375200Y-78582533D01*
X69441866Y-78849200D01*
X69508533Y-78982533D01*
X69641866Y-79115866D01*
X69841866Y-79182533D01*
X70175200Y-79182533D01*
X68775200Y-77782533D02*
X68775200Y-78915866D01*
X68708533Y-79049200D01*
X68641866Y-79115866D01*
X68508533Y-79182533D01*
X68241866Y-79182533D01*
X68108533Y-79115866D01*
X68041866Y-79049200D01*
X67975200Y-78915866D01*
X67975200Y-77782533D01*
X67308533Y-79182533D02*
X67308533Y-77782533D01*
X66841866Y-78782533D01*
X66375200Y-77782533D01*
X66375200Y-79182533D01*
X65708533Y-79182533D02*
X65708533Y-77782533D01*
X65175200Y-77782533D01*
X65041866Y-77849200D01*
X64975200Y-77915866D01*
X64908533Y-78049200D01*
X64908533Y-78249200D01*
X64975200Y-78382533D01*
X65041866Y-78449200D01*
X65175200Y-78515866D01*
X65708533Y-78515866D01*
X62575200Y-79182533D02*
X63241866Y-79182533D01*
X63241866Y-77782533D01*
X61841866Y-77782533D02*
X61575200Y-77782533D01*
X61441866Y-77849200D01*
X61308533Y-77982533D01*
X61241866Y-78249200D01*
X61241866Y-78715866D01*
X61308533Y-78982533D01*
X61441866Y-79115866D01*
X61575200Y-79182533D01*
X61841866Y-79182533D01*
X61975200Y-79115866D01*
X62108533Y-78982533D01*
X62175200Y-78715866D01*
X62175200Y-78249200D01*
X62108533Y-77982533D01*
X61975200Y-77849200D01*
X61841866Y-77782533D01*
X60708533Y-78782533D02*
X60041866Y-78782533D01*
X60841866Y-79182533D02*
X60375200Y-77782533D01*
X59908533Y-79182533D01*
X59441866Y-79182533D02*
X59441866Y-77782533D01*
X59108533Y-77782533D01*
X58908533Y-77849200D01*
X58775200Y-77982533D01*
X58708533Y-78115866D01*
X58641866Y-78382533D01*
X58641866Y-78582533D01*
X58708533Y-78849200D01*
X58775200Y-78982533D01*
X58908533Y-79115866D01*
X59108533Y-79182533D01*
X59441866Y-79182533D01*
X87062000Y-102762857D02*
X86847714Y-102834285D01*
X86776285Y-102905714D01*
X86704857Y-103048571D01*
X86704857Y-103262857D01*
X86776285Y-103405714D01*
X86847714Y-103477142D01*
X86990571Y-103548571D01*
X87562000Y-103548571D01*
X87562000Y-102048571D01*
X87062000Y-102048571D01*
X86919142Y-102120000D01*
X86847714Y-102191428D01*
X86776285Y-102334285D01*
X86776285Y-102477142D01*
X86847714Y-102620000D01*
X86919142Y-102691428D01*
X87062000Y-102762857D01*
X87562000Y-102762857D01*
X86133428Y-103120000D02*
X85419142Y-103120000D01*
X86276285Y-103548571D02*
X85776285Y-102048571D01*
X85276285Y-103548571D01*
X84990571Y-102048571D02*
X84133428Y-102048571D01*
X84562000Y-103548571D02*
X84562000Y-102048571D01*
X83847714Y-102048571D02*
X82990571Y-102048571D01*
X83419142Y-103548571D02*
X83419142Y-102048571D01*
X82490571Y-102762857D02*
X81990571Y-102762857D01*
X81776285Y-103548571D02*
X82490571Y-103548571D01*
X82490571Y-102048571D01*
X81776285Y-102048571D01*
X80276285Y-103548571D02*
X80776285Y-102834285D01*
X81133428Y-103548571D02*
X81133428Y-102048571D01*
X80562000Y-102048571D01*
X80419142Y-102120000D01*
X80347714Y-102191428D01*
X80276285Y-102334285D01*
X80276285Y-102548571D01*
X80347714Y-102691428D01*
X80419142Y-102762857D01*
X80562000Y-102834285D01*
X81133428Y-102834285D01*
X79347714Y-102834285D02*
X79347714Y-103548571D01*
X79847714Y-102048571D02*
X79347714Y-102834285D01*
X78847714Y-102048571D01*
D11*
X89078628Y-62902076D02*
X90131009Y-62902076D01*
X90254819Y-62840171D01*
X90316723Y-62778266D01*
X90378628Y-62654457D01*
X90378628Y-62468742D01*
X90316723Y-62344933D01*
X89883390Y-62902076D02*
X89945295Y-62778266D01*
X89945295Y-62530647D01*
X89883390Y-62406838D01*
X89821485Y-62344933D01*
X89697676Y-62283028D01*
X89326247Y-62283028D01*
X89202438Y-62344933D01*
X89140533Y-62406838D01*
X89078628Y-62530647D01*
X89078628Y-62778266D01*
X89140533Y-62902076D01*
X89945295Y-63521123D02*
X89078628Y-63521123D01*
X88645295Y-63521123D02*
X88707200Y-63459219D01*
X88769104Y-63521123D01*
X88707200Y-63583028D01*
X88645295Y-63521123D01*
X88769104Y-63521123D01*
X89078628Y-63954457D02*
X89078628Y-64449695D01*
X88645295Y-64140171D02*
X89759580Y-64140171D01*
X89883390Y-64202076D01*
X89945295Y-64325885D01*
X89945295Y-64449695D01*
X89945295Y-64883028D02*
X88645295Y-64883028D01*
X89945295Y-65440171D02*
X89264342Y-65440171D01*
X89140533Y-65378266D01*
X89078628Y-65254457D01*
X89078628Y-65068742D01*
X89140533Y-64944933D01*
X89202438Y-64883028D01*
X89078628Y-66616361D02*
X89945295Y-66616361D01*
X89078628Y-66059219D02*
X89759580Y-66059219D01*
X89883390Y-66121123D01*
X89945295Y-66244933D01*
X89945295Y-66430647D01*
X89883390Y-66554457D01*
X89821485Y-66616361D01*
X89945295Y-67235409D02*
X88645295Y-67235409D01*
X89140533Y-67235409D02*
X89078628Y-67359219D01*
X89078628Y-67606838D01*
X89140533Y-67730647D01*
X89202438Y-67792552D01*
X89326247Y-67854457D01*
X89697676Y-67854457D01*
X89821485Y-67792552D01*
X89883390Y-67730647D01*
X89945295Y-67606838D01*
X89945295Y-67359219D01*
X89883390Y-67235409D01*
X89821485Y-68411600D02*
X89883390Y-68473504D01*
X89945295Y-68411600D01*
X89883390Y-68349695D01*
X89821485Y-68411600D01*
X89945295Y-68411600D01*
X89883390Y-69587790D02*
X89945295Y-69463980D01*
X89945295Y-69216361D01*
X89883390Y-69092552D01*
X89821485Y-69030647D01*
X89697676Y-68968742D01*
X89326247Y-68968742D01*
X89202438Y-69030647D01*
X89140533Y-69092552D01*
X89078628Y-69216361D01*
X89078628Y-69463980D01*
X89140533Y-69587790D01*
X89945295Y-70330647D02*
X89883390Y-70206838D01*
X89821485Y-70144933D01*
X89697676Y-70083028D01*
X89326247Y-70083028D01*
X89202438Y-70144933D01*
X89140533Y-70206838D01*
X89078628Y-70330647D01*
X89078628Y-70516361D01*
X89140533Y-70640171D01*
X89202438Y-70702076D01*
X89326247Y-70763980D01*
X89697676Y-70763980D01*
X89821485Y-70702076D01*
X89883390Y-70640171D01*
X89945295Y-70516361D01*
X89945295Y-70330647D01*
X89945295Y-71321123D02*
X89078628Y-71321123D01*
X89202438Y-71321123D02*
X89140533Y-71383028D01*
X89078628Y-71506838D01*
X89078628Y-71692552D01*
X89140533Y-71816361D01*
X89264342Y-71878266D01*
X89945295Y-71878266D01*
X89264342Y-71878266D02*
X89140533Y-71940171D01*
X89078628Y-72063980D01*
X89078628Y-72249695D01*
X89140533Y-72373504D01*
X89264342Y-72435409D01*
X89945295Y-72435409D01*
X88583390Y-73983028D02*
X90254819Y-72868742D01*
X89883390Y-74354457D02*
X89945295Y-74478266D01*
X89945295Y-74725885D01*
X89883390Y-74849695D01*
X89759580Y-74911600D01*
X89697676Y-74911600D01*
X89573866Y-74849695D01*
X89511961Y-74725885D01*
X89511961Y-74540171D01*
X89450057Y-74416361D01*
X89326247Y-74354457D01*
X89264342Y-74354457D01*
X89140533Y-74416361D01*
X89078628Y-74540171D01*
X89078628Y-74725885D01*
X89140533Y-74849695D01*
X89078628Y-75283028D02*
X89078628Y-75778266D01*
X88645295Y-75468742D02*
X89759580Y-75468742D01*
X89883390Y-75530647D01*
X89945295Y-75654457D01*
X89945295Y-75778266D01*
X89078628Y-76768742D02*
X89945295Y-76768742D01*
X89078628Y-76211600D02*
X89759580Y-76211600D01*
X89883390Y-76273504D01*
X89945295Y-76397314D01*
X89945295Y-76583028D01*
X89883390Y-76706838D01*
X89821485Y-76768742D01*
X89945295Y-77944933D02*
X89264342Y-77944933D01*
X89140533Y-77883028D01*
X89078628Y-77759219D01*
X89078628Y-77511600D01*
X89140533Y-77387790D01*
X89883390Y-77944933D02*
X89945295Y-77821123D01*
X89945295Y-77511600D01*
X89883390Y-77387790D01*
X89759580Y-77325885D01*
X89635771Y-77325885D01*
X89511961Y-77387790D01*
X89450057Y-77511600D01*
X89450057Y-77821123D01*
X89388152Y-77944933D01*
X89945295Y-78563980D02*
X89078628Y-78563980D01*
X89326247Y-78563980D02*
X89202438Y-78625885D01*
X89140533Y-78687790D01*
X89078628Y-78811600D01*
X89078628Y-78935409D01*
X89078628Y-79183028D02*
X89078628Y-79678266D01*
X88645295Y-79368742D02*
X89759580Y-79368742D01*
X89883390Y-79430647D01*
X89945295Y-79554457D01*
X89945295Y-79678266D01*
X89078628Y-80111600D02*
X90378628Y-80111600D01*
X89140533Y-80111600D02*
X89078628Y-80235409D01*
X89078628Y-80483028D01*
X89140533Y-80606838D01*
X89202438Y-80668742D01*
X89326247Y-80730647D01*
X89697676Y-80730647D01*
X89821485Y-80668742D01*
X89883390Y-80606838D01*
X89945295Y-80483028D01*
X89945295Y-80235409D01*
X89883390Y-80111600D01*
X89945295Y-81287790D02*
X89078628Y-81287790D01*
X88645295Y-81287790D02*
X88707200Y-81225885D01*
X88769104Y-81287790D01*
X88707200Y-81349695D01*
X88645295Y-81287790D01*
X88769104Y-81287790D01*
X89078628Y-81721123D02*
X89078628Y-82216361D01*
X88645295Y-81906838D02*
X89759580Y-81906838D01*
X89883390Y-81968742D01*
X89945295Y-82092552D01*
X89945295Y-82216361D01*
X89078628Y-82463980D02*
X89078628Y-82959219D01*
X88645295Y-82649695D02*
X89759580Y-82649695D01*
X89883390Y-82711600D01*
X89945295Y-82835409D01*
X89945295Y-82959219D01*
X89945295Y-83949695D02*
X89264342Y-83949695D01*
X89140533Y-83887790D01*
X89078628Y-83763980D01*
X89078628Y-83516361D01*
X89140533Y-83392552D01*
X89883390Y-83949695D02*
X89945295Y-83825885D01*
X89945295Y-83516361D01*
X89883390Y-83392552D01*
X89759580Y-83330647D01*
X89635771Y-83330647D01*
X89511961Y-83392552D01*
X89450057Y-83516361D01*
X89450057Y-83825885D01*
X89388152Y-83949695D01*
X89078628Y-84444933D02*
X89945295Y-84692552D01*
X89326247Y-84940171D01*
X89945295Y-85187790D01*
X89078628Y-85435409D01*
X89945295Y-86487790D02*
X89264342Y-86487790D01*
X89140533Y-86425885D01*
X89078628Y-86302076D01*
X89078628Y-86054457D01*
X89140533Y-85930647D01*
X89883390Y-86487790D02*
X89945295Y-86363980D01*
X89945295Y-86054457D01*
X89883390Y-85930647D01*
X89759580Y-85868742D01*
X89635771Y-85868742D01*
X89511961Y-85930647D01*
X89450057Y-86054457D01*
X89450057Y-86363980D01*
X89388152Y-86487790D01*
X89078628Y-86983028D02*
X89945295Y-87292552D01*
X89078628Y-87602076D02*
X89945295Y-87292552D01*
X90254819Y-87168742D01*
X90316723Y-87106838D01*
X90378628Y-86983028D01*
X88583390Y-89025885D02*
X90254819Y-87911600D01*
X89945295Y-90016361D02*
X88645295Y-90016361D01*
X89883390Y-90016361D02*
X89945295Y-89892552D01*
X89945295Y-89644933D01*
X89883390Y-89521123D01*
X89821485Y-89459219D01*
X89697676Y-89397314D01*
X89326247Y-89397314D01*
X89202438Y-89459219D01*
X89140533Y-89521123D01*
X89078628Y-89644933D01*
X89078628Y-89892552D01*
X89140533Y-90016361D01*
X89945295Y-90635409D02*
X89078628Y-90635409D01*
X88645295Y-90635409D02*
X88707200Y-90573504D01*
X88769104Y-90635409D01*
X88707200Y-90697314D01*
X88645295Y-90635409D01*
X88769104Y-90635409D01*
X89078628Y-91130647D02*
X89945295Y-91440171D01*
X89078628Y-91749695D02*
X89945295Y-91440171D01*
X90254819Y-91316361D01*
X90316723Y-91254457D01*
X90378628Y-91130647D01*
X89264342Y-92678266D02*
X89326247Y-92863980D01*
X89388152Y-92925885D01*
X89511961Y-92987790D01*
X89697676Y-92987790D01*
X89821485Y-92925885D01*
X89883390Y-92863980D01*
X89945295Y-92740171D01*
X89945295Y-92244933D01*
X88645295Y-92244933D01*
X88645295Y-92678266D01*
X88707200Y-92802076D01*
X88769104Y-92863980D01*
X88892914Y-92925885D01*
X89016723Y-92925885D01*
X89140533Y-92863980D01*
X89202438Y-92802076D01*
X89264342Y-92678266D01*
X89264342Y-92244933D01*
X89945295Y-93544933D02*
X88645295Y-93544933D01*
X89573866Y-93978266D01*
X88645295Y-94411600D01*
X89945295Y-94411600D01*
X89883390Y-94968742D02*
X89945295Y-95154457D01*
X89945295Y-95463980D01*
X89883390Y-95587790D01*
X89821485Y-95649695D01*
X89697676Y-95711600D01*
X89573866Y-95711600D01*
X89450057Y-95649695D01*
X89388152Y-95587790D01*
X89326247Y-95463980D01*
X89264342Y-95216361D01*
X89202438Y-95092552D01*
X89140533Y-95030647D01*
X89016723Y-94968742D01*
X88892914Y-94968742D01*
X88769104Y-95030647D01*
X88707200Y-95092552D01*
X88645295Y-95216361D01*
X88645295Y-95525885D01*
X88707200Y-95711600D01*
X89078628Y-96144933D02*
X89945295Y-96454457D01*
X89078628Y-96763980D01*
X89078628Y-97816361D02*
X89945295Y-97816361D01*
X88583390Y-97506838D02*
X89511961Y-97197314D01*
X89511961Y-98002076D01*
D10*
X77778285Y-69092019D02*
X77902095Y-69030114D01*
X78149714Y-69030114D01*
X78273523Y-69092019D01*
X78397333Y-69215828D01*
X78459238Y-69339638D01*
X78459238Y-69587257D01*
X78397333Y-69711066D01*
X78273523Y-69834876D01*
X78149714Y-69896780D01*
X77902095Y-69896780D01*
X77778285Y-69834876D01*
X78025904Y-68596780D02*
X78335428Y-68658685D01*
X78644952Y-68844400D01*
X78830666Y-69153923D01*
X78892571Y-69463447D01*
X78830666Y-69772971D01*
X78644952Y-70082495D01*
X78335428Y-70268209D01*
X78025904Y-70330114D01*
X77716380Y-70268209D01*
X77406857Y-70082495D01*
X77221142Y-69772971D01*
X77159238Y-69463447D01*
X77221142Y-69153923D01*
X77406857Y-68844400D01*
X77716380Y-68658685D01*
X78025904Y-68596780D01*
X76664000Y-68906304D02*
X76602095Y-68844400D01*
X76478285Y-68782495D01*
X76168761Y-68782495D01*
X76044952Y-68844400D01*
X75983047Y-68906304D01*
X75921142Y-69030114D01*
X75921142Y-69153923D01*
X75983047Y-69339638D01*
X76725904Y-70082495D01*
X75921142Y-70082495D01*
X75116380Y-68782495D02*
X74992571Y-68782495D01*
X74868761Y-68844400D01*
X74806857Y-68906304D01*
X74744952Y-69030114D01*
X74683047Y-69277733D01*
X74683047Y-69587257D01*
X74744952Y-69834876D01*
X74806857Y-69958685D01*
X74868761Y-70020590D01*
X74992571Y-70082495D01*
X75116380Y-70082495D01*
X75240190Y-70020590D01*
X75302095Y-69958685D01*
X75364000Y-69834876D01*
X75425904Y-69587257D01*
X75425904Y-69277733D01*
X75364000Y-69030114D01*
X75302095Y-68906304D01*
X75240190Y-68844400D01*
X75116380Y-68782495D01*
X73444952Y-70082495D02*
X74187809Y-70082495D01*
X73816380Y-70082495D02*
X73816380Y-68782495D01*
X73940190Y-68968209D01*
X74064000Y-69092019D01*
X74187809Y-69153923D01*
X72825904Y-70082495D02*
X72578285Y-70082495D01*
X72454476Y-70020590D01*
X72392571Y-69958685D01*
X72268761Y-69772971D01*
X72206857Y-69525352D01*
X72206857Y-69030114D01*
X72268761Y-68906304D01*
X72330666Y-68844400D01*
X72454476Y-68782495D01*
X72702095Y-68782495D01*
X72825904Y-68844400D01*
X72887809Y-68906304D01*
X72949714Y-69030114D01*
X72949714Y-69339638D01*
X72887809Y-69463447D01*
X72825904Y-69525352D01*
X72702095Y-69587257D01*
X72454476Y-69587257D01*
X72330666Y-69525352D01*
X72268761Y-69463447D01*
X72206857Y-69339638D01*
X70721142Y-70020590D02*
X70535428Y-70082495D01*
X70225904Y-70082495D01*
X70102095Y-70020590D01*
X70040190Y-69958685D01*
X69978285Y-69834876D01*
X69978285Y-69711066D01*
X70040190Y-69587257D01*
X70102095Y-69525352D01*
X70225904Y-69463447D01*
X70473523Y-69401542D01*
X70597333Y-69339638D01*
X70659238Y-69277733D01*
X70721142Y-69153923D01*
X70721142Y-69030114D01*
X70659238Y-68906304D01*
X70597333Y-68844400D01*
X70473523Y-68782495D01*
X70163999Y-68782495D01*
X69978285Y-68844400D01*
X69606857Y-69215828D02*
X69111619Y-69215828D01*
X69421142Y-68782495D02*
X69421142Y-69896780D01*
X69359238Y-70020590D01*
X69235428Y-70082495D01*
X69111619Y-70082495D01*
X68121142Y-69215828D02*
X68121142Y-70082495D01*
X68678285Y-69215828D02*
X68678285Y-69896780D01*
X68616380Y-70020590D01*
X68492571Y-70082495D01*
X68306857Y-70082495D01*
X68183047Y-70020590D01*
X68121142Y-69958685D01*
X66944952Y-70082495D02*
X66944952Y-69401542D01*
X67006857Y-69277733D01*
X67130666Y-69215828D01*
X67378285Y-69215828D01*
X67502095Y-69277733D01*
X66944952Y-70020590D02*
X67068761Y-70082495D01*
X67378285Y-70082495D01*
X67502095Y-70020590D01*
X67563999Y-69896780D01*
X67563999Y-69772971D01*
X67502095Y-69649161D01*
X67378285Y-69587257D01*
X67068761Y-69587257D01*
X66944952Y-69525352D01*
X66325904Y-70082495D02*
X66325904Y-69215828D01*
X66325904Y-69463447D02*
X66263999Y-69339638D01*
X66202095Y-69277733D01*
X66078285Y-69215828D01*
X65954476Y-69215828D01*
X65706857Y-69215828D02*
X65211619Y-69215828D01*
X65521142Y-68782495D02*
X65521142Y-69896780D01*
X65459238Y-70020590D01*
X65335428Y-70082495D01*
X65211619Y-70082495D01*
X63787809Y-70082495D02*
X63787809Y-68782495D01*
X63292571Y-68782495D01*
X63168761Y-68844400D01*
X63106857Y-68906304D01*
X63044952Y-69030114D01*
X63044952Y-69215828D01*
X63106857Y-69339638D01*
X63168761Y-69401542D01*
X63292571Y-69463447D01*
X63787809Y-69463447D01*
X62487809Y-70082495D02*
X62487809Y-69215828D01*
X62487809Y-68782495D02*
X62549714Y-68844400D01*
X62487809Y-68906304D01*
X62425904Y-68844400D01*
X62487809Y-68782495D01*
X62487809Y-68906304D01*
X62054476Y-69215828D02*
X61559238Y-69215828D01*
X61868761Y-68782495D02*
X61868761Y-69896780D01*
X61806857Y-70020590D01*
X61683047Y-70082495D01*
X61559238Y-70082495D01*
X61311619Y-69215828D02*
X60816380Y-69215828D01*
X61125904Y-68782495D02*
X61125904Y-69896780D01*
X61063999Y-70020590D01*
X60940190Y-70082495D01*
X60816380Y-70082495D01*
X59825904Y-70082495D02*
X59825904Y-69401542D01*
X59887809Y-69277733D01*
X60011619Y-69215828D01*
X60259238Y-69215828D01*
X60383047Y-69277733D01*
X59825904Y-70020590D02*
X59949714Y-70082495D01*
X60259238Y-70082495D01*
X60383047Y-70020590D01*
X60444952Y-69896780D01*
X60444952Y-69772971D01*
X60383047Y-69649161D01*
X60259238Y-69587257D01*
X59949714Y-69587257D01*
X59825904Y-69525352D01*
X59330666Y-69215828D02*
X59083047Y-70082495D01*
X58835428Y-69463447D01*
X58587809Y-70082495D01*
X58340190Y-69215828D01*
X57287809Y-70082495D02*
X57287809Y-69401542D01*
X57349714Y-69277733D01*
X57473523Y-69215828D01*
X57721142Y-69215828D01*
X57844952Y-69277733D01*
X57287809Y-70020590D02*
X57411619Y-70082495D01*
X57721142Y-70082495D01*
X57844952Y-70020590D01*
X57906857Y-69896780D01*
X57906857Y-69772971D01*
X57844952Y-69649161D01*
X57721142Y-69587257D01*
X57411619Y-69587257D01*
X57287809Y-69525352D01*
X56792571Y-69215828D02*
X56483047Y-70082495D01*
X56173523Y-69215828D02*
X56483047Y-70082495D01*
X56606857Y-70392019D01*
X56668761Y-70453923D01*
X56792571Y-70515828D01*
M02*
