G04 #@! TF.GenerationSoftware,KiCad,Pcbnew,(5.1.0)-1*
G04 #@! TF.CreationDate,2020-01-01T13:54:35+00:00*
G04 #@! TF.ProjectId,v4,76342e6b-6963-4616-945f-706362585858,rev?*
G04 #@! TF.SameCoordinates,Original*
G04 #@! TF.FileFunction,Copper,L2,Bot*
G04 #@! TF.FilePolarity,Positive*
%FSLAX46Y46*%
G04 Gerber Fmt 4.6, Leading zero omitted, Abs format (unit mm)*
G04 Created by KiCad (PCBNEW (5.1.0)-1) date 2020-01-01 13:54:35*
%MOMM*%
%LPD*%
G04 APERTURE LIST*
%ADD10R,1.200000X1.700000*%
%ADD11O,1.200000X1.700000*%
%ADD12R,1.700000X1.700000*%
%ADD13O,1.700000X1.700000*%
%ADD14C,0.800000*%
%ADD15C,1.000000*%
%ADD16C,0.300000*%
%ADD17C,0.254000*%
G04 APERTURE END LIST*
D10*
X123217600Y-54387600D03*
D11*
X121217600Y-54387600D03*
D12*
X129917600Y-78987600D03*
D13*
X129917600Y-81527600D03*
X129917600Y-84067600D03*
X129917600Y-86607600D03*
X129917600Y-89147600D03*
D12*
X113917600Y-90787600D03*
D13*
X116457600Y-90787600D03*
X113917600Y-93327600D03*
X116457600Y-93327600D03*
X113917600Y-95867600D03*
X116457600Y-95867600D03*
D10*
X121217600Y-91487600D03*
D11*
X123217600Y-91487600D03*
D10*
X112617600Y-54387600D03*
D11*
X110617600Y-54387600D03*
D14*
X112717600Y-67287600D03*
X111219064Y-73686136D03*
X117817600Y-86987600D03*
X119117600Y-86987600D03*
X120217600Y-86987600D03*
X121317600Y-86987600D03*
X122417600Y-86987600D03*
X116917600Y-69187600D03*
X117317600Y-68187600D03*
X106417600Y-62137610D03*
X108617600Y-62137610D03*
X118317600Y-62537610D03*
X117517600Y-63387600D03*
X119817600Y-51587600D03*
X119817600Y-49187600D03*
X104417600Y-59587600D03*
X115117600Y-50287600D03*
X118917600Y-77337590D03*
X125517600Y-78687600D03*
X113317600Y-69087600D03*
X119517596Y-66687600D03*
X118517600Y-57587600D03*
X109617635Y-64099235D03*
X109617631Y-84387631D03*
X124517600Y-70187600D03*
X110867590Y-60558839D03*
X125316827Y-67080902D03*
X124117600Y-61787600D03*
X125117600Y-73087600D03*
X116117600Y-74987600D03*
X122917598Y-66487602D03*
X128717618Y-66087600D03*
X119917600Y-68487600D03*
X123167590Y-78133894D03*
X113717600Y-80787600D03*
X122817578Y-72987598D03*
X130817610Y-59447358D03*
X127367579Y-74606829D03*
X126967610Y-87996092D03*
X125017600Y-88387600D03*
X111317600Y-74887600D03*
X111667590Y-92987600D03*
X113317600Y-79087600D03*
X116984926Y-77165568D03*
X125817600Y-75587604D03*
D15*
X121517600Y-91787600D02*
X121517600Y-91837600D01*
X121217600Y-91487600D02*
X121517600Y-91787600D01*
D16*
X118951911Y-66687600D02*
X119517596Y-66687600D01*
X113317600Y-69087600D02*
X115717600Y-66687600D01*
X115717600Y-66687600D02*
X118951911Y-66687600D01*
D15*
X118857600Y-93187600D02*
X116457600Y-90787600D01*
X118907601Y-93237601D02*
X118857600Y-93187600D01*
X122757601Y-93237601D02*
X118907601Y-93237601D01*
X123217600Y-91487600D02*
X123217600Y-92777602D01*
X123217600Y-92777602D02*
X122757601Y-93237601D01*
D16*
X113717599Y-68687601D02*
X113317600Y-69087600D01*
X113717599Y-64666850D02*
X113717599Y-68687601D01*
X109217600Y-60166851D02*
X113717599Y-64666850D01*
X109217600Y-55787600D02*
X109217600Y-60166851D01*
X110117600Y-54387600D02*
X110617600Y-54387600D01*
X110617600Y-54387600D02*
X109217600Y-55787600D01*
X117951915Y-57587600D02*
X118517600Y-57587600D01*
X115317600Y-57587600D02*
X117951915Y-57587600D01*
X112617600Y-54387600D02*
X112617600Y-54887600D01*
X112617600Y-54887600D02*
X115317600Y-57587600D01*
D15*
X109617635Y-64099235D02*
X109617635Y-84387627D01*
X109617635Y-84387627D02*
X109617631Y-84387631D01*
D16*
X124916828Y-67480901D02*
X125316827Y-67080902D01*
X124517600Y-70187600D02*
X124517600Y-67880129D01*
X124517600Y-67880129D02*
X124916828Y-67480901D01*
X123717601Y-61387601D02*
X124117600Y-61787600D01*
X123417602Y-61687600D02*
X123717601Y-61387601D01*
X111996351Y-61687600D02*
X123417602Y-61687600D01*
X110867590Y-60558839D02*
X111996351Y-61687600D01*
X116683285Y-74987600D02*
X116117600Y-74987600D01*
X125117600Y-73087600D02*
X123217600Y-74987600D01*
X123217600Y-74987600D02*
X116683285Y-74987600D01*
X128151933Y-66087600D02*
X128717618Y-66087600D01*
X123317600Y-66087600D02*
X128151933Y-66087600D01*
X122917598Y-66487602D02*
X123317600Y-66087600D01*
X122767591Y-78533893D02*
X123167590Y-78133894D01*
X117095250Y-78533893D02*
X122767591Y-78533893D01*
X114867594Y-73537606D02*
X114867594Y-76306237D01*
X119917600Y-68487600D02*
X114867594Y-73537606D01*
X114867594Y-76306237D02*
X117095250Y-78533893D01*
X112517600Y-81987600D02*
X113317601Y-81187599D01*
X113917600Y-95867600D02*
X112517600Y-94467600D01*
X113317601Y-81187599D02*
X113717600Y-80787600D01*
X112517600Y-94467600D02*
X112517600Y-81987600D01*
X123217577Y-72587599D02*
X122817578Y-72987598D01*
X123717599Y-72487601D02*
X123317575Y-72487601D01*
X123317575Y-72487601D02*
X123217577Y-72587599D01*
X123717599Y-72487601D02*
X124333640Y-71871560D01*
X124333640Y-71871560D02*
X125798085Y-71871560D01*
X130817610Y-66852035D02*
X125798085Y-71871560D01*
X130817610Y-59447358D02*
X130817610Y-66852035D01*
X117307599Y-94177599D02*
X116457600Y-93327600D01*
X117617600Y-94487600D02*
X117307599Y-94177599D01*
X122851120Y-94487600D02*
X117617600Y-94487600D01*
X126117600Y-91221120D02*
X122851120Y-94487600D01*
X126667602Y-86537598D02*
X126117600Y-87087600D01*
X126517577Y-75014831D02*
X126667602Y-75164856D01*
X126517577Y-72591052D02*
X126517577Y-75014831D01*
X126667602Y-75164856D02*
X126667602Y-86537598D01*
X125798085Y-71871560D02*
X126517577Y-72591052D01*
X126117600Y-87087600D02*
X126117600Y-91221120D01*
X127367579Y-74606829D02*
X127367579Y-87596123D01*
X127367579Y-87596123D02*
X126967610Y-87996092D01*
X124451915Y-88387600D02*
X125017600Y-88387600D01*
X115167600Y-88387600D02*
X124451915Y-88387600D01*
X113917600Y-90787600D02*
X113917600Y-89637600D01*
X113917600Y-89637600D02*
X115167600Y-88387600D01*
X111667590Y-92987600D02*
X111667590Y-80737610D01*
X113317600Y-78521915D02*
X113317600Y-79087600D01*
X112917601Y-79487599D02*
X113317600Y-79087600D01*
X111667590Y-80737610D02*
X112917601Y-79487599D01*
X113317600Y-76887600D02*
X113317600Y-78521915D01*
X111317600Y-74887600D02*
X113317600Y-76887600D01*
X116984926Y-77165568D02*
X118562890Y-75587604D01*
X118562890Y-75587604D02*
X125251915Y-75587604D01*
X125251915Y-75587604D02*
X125817600Y-75587604D01*
D17*
G36*
X131207601Y-77677236D02*
G01*
X131122094Y-77607063D01*
X131011780Y-77548098D01*
X130892082Y-77511788D01*
X130767600Y-77499528D01*
X129067600Y-77499528D01*
X128943118Y-77511788D01*
X128823420Y-77548098D01*
X128713106Y-77607063D01*
X128616415Y-77686415D01*
X128537063Y-77783106D01*
X128478098Y-77893420D01*
X128441788Y-78013118D01*
X128429528Y-78137600D01*
X128429528Y-79837600D01*
X128441788Y-79962082D01*
X128478098Y-80081780D01*
X128537063Y-80192094D01*
X128616415Y-80288785D01*
X128713106Y-80368137D01*
X128823420Y-80427102D01*
X128892287Y-80447993D01*
X128862466Y-80472466D01*
X128676894Y-80698586D01*
X128539001Y-80956566D01*
X128454087Y-81236489D01*
X128425415Y-81527600D01*
X128454087Y-81818711D01*
X128539001Y-82098634D01*
X128676894Y-82356614D01*
X128862466Y-82582734D01*
X129088586Y-82768306D01*
X129143391Y-82797600D01*
X129088586Y-82826894D01*
X128862466Y-83012466D01*
X128676894Y-83238586D01*
X128539001Y-83496566D01*
X128454087Y-83776489D01*
X128425415Y-84067600D01*
X128454087Y-84358711D01*
X128539001Y-84638634D01*
X128676894Y-84896614D01*
X128862466Y-85122734D01*
X129088586Y-85308306D01*
X129143391Y-85337600D01*
X129088586Y-85366894D01*
X128862466Y-85552466D01*
X128676894Y-85778586D01*
X128539001Y-86036566D01*
X128454087Y-86316489D01*
X128425415Y-86607600D01*
X128454087Y-86898711D01*
X128539001Y-87178634D01*
X128676894Y-87436614D01*
X128862466Y-87662734D01*
X129088586Y-87848306D01*
X129153123Y-87882801D01*
X129036245Y-87952422D01*
X128820012Y-88147331D01*
X128645959Y-88380680D01*
X128520775Y-88643501D01*
X128476124Y-88790710D01*
X128597445Y-89020600D01*
X129790600Y-89020600D01*
X129790600Y-89000600D01*
X130044600Y-89000600D01*
X130044600Y-89020600D01*
X130064600Y-89020600D01*
X130064600Y-89274600D01*
X130044600Y-89274600D01*
X130044600Y-90468414D01*
X130274491Y-90589081D01*
X130548852Y-90491757D01*
X130798955Y-90342778D01*
X131015188Y-90147869D01*
X131189241Y-89914520D01*
X131207601Y-89875974D01*
X131207601Y-94322263D01*
X131148231Y-94178931D01*
X130903638Y-93812871D01*
X130592329Y-93501562D01*
X130226269Y-93256969D01*
X129819525Y-93088490D01*
X129387728Y-93002600D01*
X128947472Y-93002600D01*
X128515675Y-93088490D01*
X128108931Y-93256969D01*
X127742871Y-93501562D01*
X127431562Y-93812871D01*
X127186969Y-94178931D01*
X127018490Y-94585675D01*
X126932600Y-95017472D01*
X126932600Y-95457728D01*
X127018490Y-95889525D01*
X127186969Y-96296269D01*
X127431562Y-96662329D01*
X127742871Y-96973638D01*
X128108931Y-97218231D01*
X128252260Y-97277600D01*
X116903237Y-97277600D01*
X117088852Y-97211757D01*
X117338955Y-97062778D01*
X117555188Y-96867869D01*
X117729241Y-96634520D01*
X117854425Y-96371699D01*
X117899076Y-96224490D01*
X117777755Y-95994600D01*
X116584600Y-95994600D01*
X116584600Y-96014600D01*
X116330600Y-96014600D01*
X116330600Y-95994600D01*
X116310600Y-95994600D01*
X116310600Y-95740600D01*
X116330600Y-95740600D01*
X116330600Y-95720600D01*
X116584600Y-95720600D01*
X116584600Y-95740600D01*
X117777755Y-95740600D01*
X117899076Y-95510710D01*
X117854425Y-95363501D01*
X117811128Y-95272600D01*
X122812567Y-95272600D01*
X122851120Y-95276397D01*
X122889673Y-95272600D01*
X122889681Y-95272600D01*
X123005007Y-95261241D01*
X123152980Y-95216354D01*
X123289353Y-95143462D01*
X123408884Y-95045364D01*
X123433467Y-95015410D01*
X126645416Y-91803462D01*
X126675364Y-91778884D01*
X126773462Y-91659353D01*
X126846354Y-91522980D01*
X126891241Y-91375007D01*
X126902600Y-91259681D01*
X126902600Y-91259674D01*
X126906397Y-91221121D01*
X126902600Y-91182568D01*
X126902600Y-89504490D01*
X128476124Y-89504490D01*
X128520775Y-89651699D01*
X128645959Y-89914520D01*
X128820012Y-90147869D01*
X129036245Y-90342778D01*
X129286348Y-90491757D01*
X129560709Y-90589081D01*
X129790600Y-90468414D01*
X129790600Y-89274600D01*
X128597445Y-89274600D01*
X128476124Y-89504490D01*
X126902600Y-89504490D01*
X126902600Y-89031092D01*
X127069549Y-89031092D01*
X127269508Y-88991318D01*
X127457866Y-88913297D01*
X127627384Y-88800029D01*
X127771547Y-88655866D01*
X127884815Y-88486348D01*
X127962836Y-88297990D01*
X128002610Y-88098031D01*
X128002610Y-88059738D01*
X128023441Y-88034356D01*
X128096333Y-87897983D01*
X128107479Y-87861241D01*
X128141221Y-87750010D01*
X128151527Y-87645364D01*
X128152579Y-87634684D01*
X128152579Y-87634679D01*
X128156376Y-87596123D01*
X128152579Y-87557567D01*
X128152579Y-75285540D01*
X128171516Y-75266603D01*
X128284784Y-75097085D01*
X128362805Y-74908727D01*
X128402579Y-74708768D01*
X128402579Y-74504890D01*
X128362805Y-74304931D01*
X128284784Y-74116573D01*
X128171516Y-73947055D01*
X128027353Y-73802892D01*
X127857835Y-73689624D01*
X127669477Y-73611603D01*
X127469518Y-73571829D01*
X127302577Y-73571829D01*
X127302577Y-72629604D01*
X127306374Y-72591051D01*
X127302577Y-72552498D01*
X127302577Y-72552491D01*
X127291218Y-72437165D01*
X127288840Y-72429324D01*
X127267460Y-72358846D01*
X127246331Y-72289192D01*
X127173439Y-72152819D01*
X127075341Y-72033288D01*
X127045393Y-72008711D01*
X126908242Y-71871560D01*
X131207600Y-67572203D01*
X131207601Y-77677236D01*
X131207601Y-77677236D01*
G37*
X131207601Y-77677236D02*
X131122094Y-77607063D01*
X131011780Y-77548098D01*
X130892082Y-77511788D01*
X130767600Y-77499528D01*
X129067600Y-77499528D01*
X128943118Y-77511788D01*
X128823420Y-77548098D01*
X128713106Y-77607063D01*
X128616415Y-77686415D01*
X128537063Y-77783106D01*
X128478098Y-77893420D01*
X128441788Y-78013118D01*
X128429528Y-78137600D01*
X128429528Y-79837600D01*
X128441788Y-79962082D01*
X128478098Y-80081780D01*
X128537063Y-80192094D01*
X128616415Y-80288785D01*
X128713106Y-80368137D01*
X128823420Y-80427102D01*
X128892287Y-80447993D01*
X128862466Y-80472466D01*
X128676894Y-80698586D01*
X128539001Y-80956566D01*
X128454087Y-81236489D01*
X128425415Y-81527600D01*
X128454087Y-81818711D01*
X128539001Y-82098634D01*
X128676894Y-82356614D01*
X128862466Y-82582734D01*
X129088586Y-82768306D01*
X129143391Y-82797600D01*
X129088586Y-82826894D01*
X128862466Y-83012466D01*
X128676894Y-83238586D01*
X128539001Y-83496566D01*
X128454087Y-83776489D01*
X128425415Y-84067600D01*
X128454087Y-84358711D01*
X128539001Y-84638634D01*
X128676894Y-84896614D01*
X128862466Y-85122734D01*
X129088586Y-85308306D01*
X129143391Y-85337600D01*
X129088586Y-85366894D01*
X128862466Y-85552466D01*
X128676894Y-85778586D01*
X128539001Y-86036566D01*
X128454087Y-86316489D01*
X128425415Y-86607600D01*
X128454087Y-86898711D01*
X128539001Y-87178634D01*
X128676894Y-87436614D01*
X128862466Y-87662734D01*
X129088586Y-87848306D01*
X129153123Y-87882801D01*
X129036245Y-87952422D01*
X128820012Y-88147331D01*
X128645959Y-88380680D01*
X128520775Y-88643501D01*
X128476124Y-88790710D01*
X128597445Y-89020600D01*
X129790600Y-89020600D01*
X129790600Y-89000600D01*
X130044600Y-89000600D01*
X130044600Y-89020600D01*
X130064600Y-89020600D01*
X130064600Y-89274600D01*
X130044600Y-89274600D01*
X130044600Y-90468414D01*
X130274491Y-90589081D01*
X130548852Y-90491757D01*
X130798955Y-90342778D01*
X131015188Y-90147869D01*
X131189241Y-89914520D01*
X131207601Y-89875974D01*
X131207601Y-94322263D01*
X131148231Y-94178931D01*
X130903638Y-93812871D01*
X130592329Y-93501562D01*
X130226269Y-93256969D01*
X129819525Y-93088490D01*
X129387728Y-93002600D01*
X128947472Y-93002600D01*
X128515675Y-93088490D01*
X128108931Y-93256969D01*
X127742871Y-93501562D01*
X127431562Y-93812871D01*
X127186969Y-94178931D01*
X127018490Y-94585675D01*
X126932600Y-95017472D01*
X126932600Y-95457728D01*
X127018490Y-95889525D01*
X127186969Y-96296269D01*
X127431562Y-96662329D01*
X127742871Y-96973638D01*
X128108931Y-97218231D01*
X128252260Y-97277600D01*
X116903237Y-97277600D01*
X117088852Y-97211757D01*
X117338955Y-97062778D01*
X117555188Y-96867869D01*
X117729241Y-96634520D01*
X117854425Y-96371699D01*
X117899076Y-96224490D01*
X117777755Y-95994600D01*
X116584600Y-95994600D01*
X116584600Y-96014600D01*
X116330600Y-96014600D01*
X116330600Y-95994600D01*
X116310600Y-95994600D01*
X116310600Y-95740600D01*
X116330600Y-95740600D01*
X116330600Y-95720600D01*
X116584600Y-95720600D01*
X116584600Y-95740600D01*
X117777755Y-95740600D01*
X117899076Y-95510710D01*
X117854425Y-95363501D01*
X117811128Y-95272600D01*
X122812567Y-95272600D01*
X122851120Y-95276397D01*
X122889673Y-95272600D01*
X122889681Y-95272600D01*
X123005007Y-95261241D01*
X123152980Y-95216354D01*
X123289353Y-95143462D01*
X123408884Y-95045364D01*
X123433467Y-95015410D01*
X126645416Y-91803462D01*
X126675364Y-91778884D01*
X126773462Y-91659353D01*
X126846354Y-91522980D01*
X126891241Y-91375007D01*
X126902600Y-91259681D01*
X126902600Y-91259674D01*
X126906397Y-91221121D01*
X126902600Y-91182568D01*
X126902600Y-89504490D01*
X128476124Y-89504490D01*
X128520775Y-89651699D01*
X128645959Y-89914520D01*
X128820012Y-90147869D01*
X129036245Y-90342778D01*
X129286348Y-90491757D01*
X129560709Y-90589081D01*
X129790600Y-90468414D01*
X129790600Y-89274600D01*
X128597445Y-89274600D01*
X128476124Y-89504490D01*
X126902600Y-89504490D01*
X126902600Y-89031092D01*
X127069549Y-89031092D01*
X127269508Y-88991318D01*
X127457866Y-88913297D01*
X127627384Y-88800029D01*
X127771547Y-88655866D01*
X127884815Y-88486348D01*
X127962836Y-88297990D01*
X128002610Y-88098031D01*
X128002610Y-88059738D01*
X128023441Y-88034356D01*
X128096333Y-87897983D01*
X128107479Y-87861241D01*
X128141221Y-87750010D01*
X128151527Y-87645364D01*
X128152579Y-87634684D01*
X128152579Y-87634679D01*
X128156376Y-87596123D01*
X128152579Y-87557567D01*
X128152579Y-75285540D01*
X128171516Y-75266603D01*
X128284784Y-75097085D01*
X128362805Y-74908727D01*
X128402579Y-74708768D01*
X128402579Y-74504890D01*
X128362805Y-74304931D01*
X128284784Y-74116573D01*
X128171516Y-73947055D01*
X128027353Y-73802892D01*
X127857835Y-73689624D01*
X127669477Y-73611603D01*
X127469518Y-73571829D01*
X127302577Y-73571829D01*
X127302577Y-72629604D01*
X127306374Y-72591051D01*
X127302577Y-72552498D01*
X127302577Y-72552491D01*
X127291218Y-72437165D01*
X127288840Y-72429324D01*
X127267460Y-72358846D01*
X127246331Y-72289192D01*
X127173439Y-72152819D01*
X127075341Y-72033288D01*
X127045393Y-72008711D01*
X126908242Y-71871560D01*
X131207600Y-67572203D01*
X131207601Y-77677236D01*
G36*
X128108931Y-48756969D02*
G01*
X127742871Y-49001562D01*
X127431562Y-49312871D01*
X127186969Y-49678931D01*
X127018490Y-50085675D01*
X126932600Y-50517472D01*
X126932600Y-50957728D01*
X127018490Y-51389525D01*
X127186969Y-51796269D01*
X127431562Y-52162329D01*
X127742871Y-52473638D01*
X128108931Y-52718231D01*
X128515675Y-52886710D01*
X128947472Y-52972600D01*
X129387728Y-52972600D01*
X129819525Y-52886710D01*
X130226269Y-52718231D01*
X130592329Y-52473638D01*
X130903638Y-52162329D01*
X131148231Y-51796269D01*
X131207600Y-51652940D01*
X131207600Y-58488621D01*
X131119508Y-58452132D01*
X130919549Y-58412358D01*
X130715671Y-58412358D01*
X130515712Y-58452132D01*
X130327354Y-58530153D01*
X130157836Y-58643421D01*
X130013673Y-58787584D01*
X129900405Y-58957102D01*
X129822384Y-59145460D01*
X129782610Y-59345419D01*
X129782610Y-59549297D01*
X129822384Y-59749256D01*
X129900405Y-59937614D01*
X130013673Y-60107132D01*
X130032610Y-60126069D01*
X130032611Y-66526876D01*
X125472928Y-71086560D01*
X125035162Y-71086560D01*
X125177374Y-70991537D01*
X125321537Y-70847374D01*
X125434805Y-70677856D01*
X125512826Y-70489498D01*
X125552600Y-70289539D01*
X125552600Y-70085661D01*
X125512826Y-69885702D01*
X125434805Y-69697344D01*
X125321537Y-69527826D01*
X125302600Y-69508889D01*
X125302600Y-68205285D01*
X125391983Y-68115902D01*
X125418766Y-68115902D01*
X125618725Y-68076128D01*
X125807083Y-67998107D01*
X125976601Y-67884839D01*
X126120764Y-67740676D01*
X126234032Y-67571158D01*
X126312053Y-67382800D01*
X126351827Y-67182841D01*
X126351827Y-66978963D01*
X126330670Y-66872600D01*
X128038907Y-66872600D01*
X128057844Y-66891537D01*
X128227362Y-67004805D01*
X128415720Y-67082826D01*
X128615679Y-67122600D01*
X128819557Y-67122600D01*
X129019516Y-67082826D01*
X129207874Y-67004805D01*
X129377392Y-66891537D01*
X129521555Y-66747374D01*
X129634823Y-66577856D01*
X129712844Y-66389498D01*
X129752618Y-66189539D01*
X129752618Y-65985661D01*
X129712844Y-65785702D01*
X129634823Y-65597344D01*
X129521555Y-65427826D01*
X129377392Y-65283663D01*
X129207874Y-65170395D01*
X129019516Y-65092374D01*
X128819557Y-65052600D01*
X128615679Y-65052600D01*
X128415720Y-65092374D01*
X128227362Y-65170395D01*
X128057844Y-65283663D01*
X128038907Y-65302600D01*
X123356152Y-65302600D01*
X123317599Y-65298803D01*
X123279046Y-65302600D01*
X123279039Y-65302600D01*
X123178090Y-65312543D01*
X123163712Y-65313959D01*
X123134861Y-65322711D01*
X123015740Y-65358846D01*
X122879367Y-65431738D01*
X122853945Y-65452602D01*
X122815659Y-65452602D01*
X122615700Y-65492376D01*
X122427342Y-65570397D01*
X122257824Y-65683665D01*
X122113661Y-65827828D01*
X122000393Y-65997346D01*
X121922372Y-66185704D01*
X121882598Y-66385663D01*
X121882598Y-66589541D01*
X121922372Y-66789500D01*
X122000393Y-66977858D01*
X122113661Y-67147376D01*
X122257824Y-67291539D01*
X122427342Y-67404807D01*
X122615700Y-67482828D01*
X122815659Y-67522602D01*
X123019537Y-67522602D01*
X123219496Y-67482828D01*
X123407854Y-67404807D01*
X123577372Y-67291539D01*
X123721535Y-67147376D01*
X123834803Y-66977858D01*
X123878403Y-66872600D01*
X124302984Y-66872600D01*
X124281827Y-66978963D01*
X124281827Y-67005746D01*
X123989786Y-67297786D01*
X123959837Y-67322365D01*
X123935259Y-67352313D01*
X123935255Y-67352317D01*
X123902290Y-67392485D01*
X123861739Y-67441896D01*
X123856018Y-67452600D01*
X123788846Y-67578270D01*
X123743959Y-67726243D01*
X123728803Y-67880129D01*
X123732601Y-67918692D01*
X123732600Y-69508889D01*
X123713663Y-69527826D01*
X123600395Y-69697344D01*
X123522374Y-69885702D01*
X123482600Y-70085661D01*
X123482600Y-70289539D01*
X123522374Y-70489498D01*
X123600395Y-70677856D01*
X123713663Y-70847374D01*
X123857826Y-70991537D01*
X124027344Y-71104805D01*
X124082177Y-71127518D01*
X124031780Y-71142806D01*
X123895407Y-71215698D01*
X123775876Y-71313796D01*
X123751295Y-71343748D01*
X123392442Y-71702601D01*
X123356131Y-71702601D01*
X123317575Y-71698804D01*
X123279020Y-71702601D01*
X123279014Y-71702601D01*
X123234624Y-71706973D01*
X123163689Y-71713959D01*
X123060603Y-71745230D01*
X123015715Y-71758847D01*
X122879342Y-71831739D01*
X122759811Y-71929837D01*
X122741131Y-71952598D01*
X122715639Y-71952598D01*
X122515680Y-71992372D01*
X122327322Y-72070393D01*
X122157804Y-72183661D01*
X122013641Y-72327824D01*
X121900373Y-72497342D01*
X121822352Y-72685700D01*
X121782578Y-72885659D01*
X121782578Y-73089537D01*
X121822352Y-73289496D01*
X121900373Y-73477854D01*
X122013641Y-73647372D01*
X122157804Y-73791535D01*
X122327322Y-73904803D01*
X122515680Y-73982824D01*
X122715639Y-74022598D01*
X122919517Y-74022598D01*
X123110417Y-73984626D01*
X122892443Y-74202600D01*
X116796311Y-74202600D01*
X116777374Y-74183663D01*
X116607856Y-74070395D01*
X116419498Y-73992374D01*
X116219539Y-73952600D01*
X116015661Y-73952600D01*
X115815702Y-73992374D01*
X115652594Y-74059936D01*
X115652594Y-73862763D01*
X119992758Y-69522600D01*
X120019539Y-69522600D01*
X120219498Y-69482826D01*
X120407856Y-69404805D01*
X120577374Y-69291537D01*
X120721537Y-69147374D01*
X120834805Y-68977856D01*
X120912826Y-68789498D01*
X120952600Y-68589539D01*
X120952600Y-68385661D01*
X120912826Y-68185702D01*
X120834805Y-67997344D01*
X120721537Y-67827826D01*
X120577374Y-67683663D01*
X120407856Y-67570395D01*
X120219498Y-67492374D01*
X120183661Y-67485246D01*
X120321533Y-67347374D01*
X120434801Y-67177856D01*
X120512822Y-66989498D01*
X120552596Y-66789539D01*
X120552596Y-66585661D01*
X120512822Y-66385702D01*
X120434801Y-66197344D01*
X120321533Y-66027826D01*
X120177370Y-65883663D01*
X120007852Y-65770395D01*
X119819494Y-65692374D01*
X119619535Y-65652600D01*
X119415657Y-65652600D01*
X119215698Y-65692374D01*
X119027340Y-65770395D01*
X118857822Y-65883663D01*
X118838885Y-65902600D01*
X115756156Y-65902600D01*
X115717600Y-65898803D01*
X115679044Y-65902600D01*
X115679039Y-65902600D01*
X115638626Y-65906580D01*
X115563713Y-65913958D01*
X115415740Y-65958846D01*
X115279367Y-66031738D01*
X115159836Y-66129836D01*
X115135253Y-66159790D01*
X114502599Y-66792444D01*
X114502599Y-64705406D01*
X114506396Y-64666850D01*
X114502599Y-64628290D01*
X114502599Y-64628289D01*
X114498619Y-64587876D01*
X114491241Y-64512963D01*
X114446353Y-64364990D01*
X114373461Y-64228617D01*
X114275363Y-64109086D01*
X114245410Y-64084504D01*
X112633506Y-62472600D01*
X123338889Y-62472600D01*
X123457826Y-62591537D01*
X123627344Y-62704805D01*
X123815702Y-62782826D01*
X124015661Y-62822600D01*
X124219539Y-62822600D01*
X124419498Y-62782826D01*
X124607856Y-62704805D01*
X124777374Y-62591537D01*
X124921537Y-62447374D01*
X125034805Y-62277856D01*
X125112826Y-62089498D01*
X125152600Y-61889539D01*
X125152600Y-61685661D01*
X125112826Y-61485702D01*
X125034805Y-61297344D01*
X124921537Y-61127826D01*
X124777374Y-60983663D01*
X124607856Y-60870395D01*
X124419498Y-60792374D01*
X124219539Y-60752600D01*
X124181251Y-60752600D01*
X124155833Y-60731740D01*
X124019460Y-60658847D01*
X123871488Y-60613959D01*
X123717601Y-60598804D01*
X123563714Y-60613959D01*
X123415742Y-60658847D01*
X123279369Y-60731740D01*
X123159837Y-60829837D01*
X123135253Y-60859793D01*
X123092446Y-60902600D01*
X112321509Y-60902600D01*
X111902590Y-60483682D01*
X111902590Y-60456900D01*
X111862816Y-60256941D01*
X111784795Y-60068583D01*
X111671527Y-59899065D01*
X111527364Y-59754902D01*
X111357846Y-59641634D01*
X111169488Y-59563613D01*
X110969529Y-59523839D01*
X110765651Y-59523839D01*
X110565692Y-59563613D01*
X110377334Y-59641634D01*
X110207816Y-59754902D01*
X110063653Y-59899065D01*
X110062178Y-59901272D01*
X110002600Y-59841694D01*
X110002600Y-56270854D01*
X112862619Y-56242776D01*
X114735253Y-58115410D01*
X114759836Y-58145364D01*
X114879367Y-58243462D01*
X115015740Y-58316354D01*
X115163713Y-58361242D01*
X115238626Y-58368620D01*
X115279039Y-58372600D01*
X115279044Y-58372600D01*
X115317600Y-58376397D01*
X115356156Y-58372600D01*
X117838889Y-58372600D01*
X117857826Y-58391537D01*
X118027344Y-58504805D01*
X118215702Y-58582826D01*
X118415661Y-58622600D01*
X118619539Y-58622600D01*
X118819498Y-58582826D01*
X119007856Y-58504805D01*
X119177374Y-58391537D01*
X119321537Y-58247374D01*
X119434805Y-58077856D01*
X119512826Y-57889498D01*
X119552600Y-57689539D01*
X119552600Y-57485661D01*
X119512826Y-57285702D01*
X119434805Y-57097344D01*
X119321537Y-56927826D01*
X119177374Y-56783663D01*
X119007856Y-56670395D01*
X118819498Y-56592374D01*
X118619539Y-56552600D01*
X118415661Y-56552600D01*
X118215702Y-56592374D01*
X118027344Y-56670395D01*
X117857826Y-56783663D01*
X117838889Y-56802600D01*
X115642757Y-56802600D01*
X115061346Y-56221189D01*
X125918847Y-56114594D01*
X125944261Y-56111770D01*
X125967973Y-56104183D01*
X125989749Y-56092116D01*
X126008753Y-56076032D01*
X126024253Y-56056550D01*
X126035656Y-56034418D01*
X126042521Y-56010487D01*
X126044585Y-55985676D01*
X125994585Y-52685676D01*
X125991984Y-52661956D01*
X125984591Y-52638182D01*
X125972702Y-52616308D01*
X125956774Y-52597173D01*
X125937419Y-52581514D01*
X125915381Y-52569931D01*
X125891507Y-52562871D01*
X125866714Y-52560603D01*
X107941714Y-52685603D01*
X107912277Y-52689273D01*
X107888799Y-52697559D01*
X107867390Y-52710265D01*
X107848870Y-52726904D01*
X107833953Y-52746837D01*
X107823211Y-52769296D01*
X107817057Y-52793420D01*
X107815727Y-52818281D01*
X107965727Y-56168281D01*
X107968290Y-56188598D01*
X107975750Y-56212350D01*
X107987701Y-56234191D01*
X108003683Y-56253280D01*
X108023083Y-56268884D01*
X108045153Y-56280404D01*
X108069048Y-56287397D01*
X108093847Y-56289594D01*
X108432600Y-56286268D01*
X108432601Y-60128288D01*
X108428803Y-60166851D01*
X108443959Y-60320737D01*
X108488846Y-60468710D01*
X108488847Y-60468711D01*
X108561739Y-60605084D01*
X108602290Y-60654495D01*
X108635255Y-60694663D01*
X108635259Y-60694667D01*
X108659837Y-60724615D01*
X108689785Y-60749193D01*
X112932599Y-64992007D01*
X112932600Y-68126796D01*
X112827344Y-68170395D01*
X112657826Y-68283663D01*
X112513663Y-68427826D01*
X112400395Y-68597344D01*
X112322374Y-68785702D01*
X112282600Y-68985661D01*
X112282600Y-69189539D01*
X112322374Y-69389498D01*
X112400395Y-69577856D01*
X112513663Y-69747374D01*
X112657826Y-69891537D01*
X112827344Y-70004805D01*
X113015702Y-70082826D01*
X113215661Y-70122600D01*
X113419539Y-70122600D01*
X113619498Y-70082826D01*
X113807856Y-70004805D01*
X113977374Y-69891537D01*
X114121537Y-69747374D01*
X114234805Y-69577856D01*
X114312826Y-69389498D01*
X114352600Y-69189539D01*
X114352600Y-69162757D01*
X116042757Y-67472600D01*
X118838885Y-67472600D01*
X118857822Y-67491537D01*
X119027340Y-67604805D01*
X119215698Y-67682826D01*
X119251535Y-67689954D01*
X119113663Y-67827826D01*
X119000395Y-67997344D01*
X118922374Y-68185702D01*
X118882600Y-68385661D01*
X118882600Y-68412442D01*
X114339784Y-72955259D01*
X114309830Y-72979842D01*
X114211732Y-73099374D01*
X114138840Y-73235747D01*
X114093953Y-73383720D01*
X114082594Y-73499046D01*
X114082594Y-73499053D01*
X114078797Y-73537606D01*
X114082594Y-73576159D01*
X114082595Y-76267674D01*
X114078797Y-76306237D01*
X114093953Y-76460123D01*
X114138840Y-76608096D01*
X114138841Y-76608097D01*
X114211733Y-76744470D01*
X114252284Y-76793881D01*
X114285249Y-76834049D01*
X114285253Y-76834053D01*
X114309831Y-76864001D01*
X114339779Y-76888579D01*
X116512908Y-79061709D01*
X116537486Y-79091657D01*
X116567434Y-79116235D01*
X116567437Y-79116238D01*
X116583134Y-79129120D01*
X116657017Y-79189755D01*
X116793390Y-79262647D01*
X116901877Y-79295556D01*
X116941362Y-79307534D01*
X116955740Y-79308950D01*
X117056689Y-79318893D01*
X117056696Y-79318893D01*
X117095249Y-79322690D01*
X117133802Y-79318893D01*
X122729038Y-79318893D01*
X122767591Y-79322690D01*
X122806144Y-79318893D01*
X122806152Y-79318893D01*
X122921478Y-79307534D01*
X123069451Y-79262647D01*
X123205824Y-79189755D01*
X123231243Y-79168894D01*
X123269529Y-79168894D01*
X123469488Y-79129120D01*
X123657846Y-79051099D01*
X123827364Y-78937831D01*
X123971527Y-78793668D01*
X124084795Y-78624150D01*
X124162816Y-78435792D01*
X124202590Y-78235833D01*
X124202590Y-78031955D01*
X124162816Y-77831996D01*
X124084795Y-77643638D01*
X123971527Y-77474120D01*
X123827364Y-77329957D01*
X123657846Y-77216689D01*
X123469488Y-77138668D01*
X123269529Y-77098894D01*
X123065651Y-77098894D01*
X122865692Y-77138668D01*
X122677334Y-77216689D01*
X122507816Y-77329957D01*
X122363653Y-77474120D01*
X122250385Y-77643638D01*
X122206787Y-77748893D01*
X117839944Y-77748893D01*
X117902131Y-77655824D01*
X117980152Y-77467466D01*
X118019926Y-77267507D01*
X118019926Y-77240725D01*
X118888048Y-76372604D01*
X125138889Y-76372604D01*
X125157826Y-76391541D01*
X125327344Y-76504809D01*
X125515702Y-76582830D01*
X125715661Y-76622604D01*
X125882602Y-76622604D01*
X125882603Y-86212439D01*
X125589789Y-86505254D01*
X125559836Y-86529836D01*
X125461738Y-86649368D01*
X125388846Y-86785741D01*
X125343959Y-86933714D01*
X125332600Y-87049040D01*
X125332600Y-87049047D01*
X125328803Y-87087600D01*
X125332600Y-87126153D01*
X125332600Y-87397801D01*
X125319498Y-87392374D01*
X125119539Y-87352600D01*
X124915661Y-87352600D01*
X124715702Y-87392374D01*
X124527344Y-87470395D01*
X124357826Y-87583663D01*
X124338889Y-87602600D01*
X115206155Y-87602600D01*
X115167600Y-87598803D01*
X115129044Y-87602600D01*
X115129039Y-87602600D01*
X115088626Y-87606580D01*
X115013713Y-87613958D01*
X114865740Y-87658846D01*
X114729367Y-87731738D01*
X114669159Y-87781150D01*
X114639787Y-87805255D01*
X114639784Y-87805258D01*
X114609836Y-87829836D01*
X114585258Y-87859785D01*
X113389785Y-89055258D01*
X113359837Y-89079836D01*
X113335259Y-89109784D01*
X113335255Y-89109788D01*
X113302600Y-89149578D01*
X113302600Y-82312757D01*
X113792758Y-81822600D01*
X113819539Y-81822600D01*
X114019498Y-81782826D01*
X114207856Y-81704805D01*
X114377374Y-81591537D01*
X114521537Y-81447374D01*
X114634805Y-81277856D01*
X114712826Y-81089498D01*
X114752600Y-80889539D01*
X114752600Y-80685661D01*
X114712826Y-80485702D01*
X114634805Y-80297344D01*
X114521537Y-80127826D01*
X114377374Y-79983663D01*
X114207856Y-79870395D01*
X114059831Y-79809080D01*
X114121537Y-79747374D01*
X114234805Y-79577856D01*
X114312826Y-79389498D01*
X114352600Y-79189539D01*
X114352600Y-78985661D01*
X114312826Y-78785702D01*
X114234805Y-78597344D01*
X114121537Y-78427826D01*
X114102600Y-78408889D01*
X114102600Y-76926152D01*
X114106397Y-76887599D01*
X114102600Y-76849046D01*
X114102600Y-76849039D01*
X114091241Y-76733713D01*
X114046354Y-76585740D01*
X113973462Y-76449367D01*
X113924050Y-76389159D01*
X113899945Y-76359787D01*
X113899942Y-76359784D01*
X113875364Y-76329836D01*
X113845417Y-76305259D01*
X112352600Y-74812443D01*
X112352600Y-74785661D01*
X112312826Y-74585702D01*
X112234805Y-74397344D01*
X112121537Y-74227826D01*
X111977374Y-74083663D01*
X111807856Y-73970395D01*
X111619498Y-73892374D01*
X111419539Y-73852600D01*
X111215661Y-73852600D01*
X111015702Y-73892374D01*
X110827344Y-73970395D01*
X110752635Y-74020314D01*
X110752635Y-64043483D01*
X110736212Y-63876736D01*
X110671311Y-63662788D01*
X110565919Y-63465612D01*
X110424084Y-63292786D01*
X110251258Y-63150951D01*
X110054081Y-63045559D01*
X109840133Y-62980658D01*
X109617635Y-62958744D01*
X109395136Y-62980658D01*
X109181188Y-63045559D01*
X108984012Y-63150951D01*
X108811186Y-63292786D01*
X108669351Y-63465612D01*
X108563959Y-63662789D01*
X108499058Y-63876737D01*
X108482635Y-64043484D01*
X108482636Y-84331829D01*
X108477140Y-84387631D01*
X108499054Y-84610129D01*
X108563955Y-84824077D01*
X108669348Y-85021253D01*
X108811183Y-85194079D01*
X108984009Y-85335914D01*
X109181185Y-85441307D01*
X109395133Y-85506208D01*
X109617631Y-85528122D01*
X109840129Y-85506208D01*
X110054077Y-85441307D01*
X110251253Y-85335914D01*
X110251254Y-85335913D01*
X110251258Y-85335911D01*
X110424084Y-85194076D01*
X110565919Y-85021250D01*
X110671311Y-84824074D01*
X110736212Y-84610126D01*
X110752635Y-84443379D01*
X110752635Y-84443378D01*
X110758126Y-84387627D01*
X110752635Y-84331875D01*
X110752635Y-75754886D01*
X110827344Y-75804805D01*
X111015702Y-75882826D01*
X111215661Y-75922600D01*
X111242443Y-75922600D01*
X112532600Y-77212758D01*
X112532601Y-78408888D01*
X112513663Y-78427826D01*
X112400395Y-78597344D01*
X112322374Y-78785702D01*
X112282600Y-78985661D01*
X112282600Y-79012443D01*
X111139775Y-80155268D01*
X111109827Y-80179846D01*
X111085249Y-80209794D01*
X111085245Y-80209798D01*
X111052280Y-80249966D01*
X111011729Y-80299377D01*
X110985009Y-80349368D01*
X110938836Y-80435751D01*
X110893949Y-80583724D01*
X110878793Y-80737610D01*
X110882591Y-80776173D01*
X110882590Y-92308889D01*
X110863653Y-92327826D01*
X110750385Y-92497344D01*
X110672364Y-92685702D01*
X110632590Y-92885661D01*
X110632590Y-93089539D01*
X110672364Y-93289498D01*
X110750385Y-93477856D01*
X110863653Y-93647374D01*
X111007816Y-93791537D01*
X111177334Y-93904805D01*
X111365692Y-93982826D01*
X111565651Y-94022600D01*
X111732600Y-94022600D01*
X111732600Y-94429047D01*
X111728803Y-94467600D01*
X111732600Y-94506153D01*
X111732600Y-94506160D01*
X111743959Y-94621486D01*
X111788846Y-94769459D01*
X111861738Y-94905832D01*
X111959836Y-95025364D01*
X111989790Y-95049947D01*
X112468574Y-95528731D01*
X112454087Y-95576489D01*
X112425415Y-95867600D01*
X112454087Y-96158711D01*
X112539001Y-96438634D01*
X112676894Y-96696614D01*
X112862466Y-96922734D01*
X113088586Y-97108306D01*
X113346566Y-97246199D01*
X113450081Y-97277600D01*
X105582940Y-97277600D01*
X105726269Y-97218231D01*
X106092329Y-96973638D01*
X106403638Y-96662329D01*
X106648231Y-96296269D01*
X106816710Y-95889525D01*
X106902600Y-95457728D01*
X106902600Y-95017472D01*
X106816710Y-94585675D01*
X106648231Y-94178931D01*
X106403638Y-93812871D01*
X106092329Y-93501562D01*
X105726269Y-93256969D01*
X105319525Y-93088490D01*
X104887728Y-93002600D01*
X104447472Y-93002600D01*
X104015675Y-93088490D01*
X103608931Y-93256969D01*
X103242871Y-93501562D01*
X102931562Y-93812871D01*
X102686969Y-94178931D01*
X102627600Y-94322260D01*
X102627600Y-51652940D01*
X102686969Y-51796269D01*
X102931562Y-52162329D01*
X103242871Y-52473638D01*
X103608931Y-52718231D01*
X104015675Y-52886710D01*
X104447472Y-52972600D01*
X104887728Y-52972600D01*
X105319525Y-52886710D01*
X105726269Y-52718231D01*
X106092329Y-52473638D01*
X106403638Y-52162329D01*
X106648231Y-51796269D01*
X106816710Y-51389525D01*
X106902600Y-50957728D01*
X106902600Y-50517472D01*
X106816710Y-50085675D01*
X106648231Y-49678931D01*
X106403638Y-49312871D01*
X106092329Y-49001562D01*
X105726269Y-48756969D01*
X105582940Y-48697600D01*
X128252260Y-48697600D01*
X128108931Y-48756969D01*
X128108931Y-48756969D01*
G37*
X128108931Y-48756969D02*
X127742871Y-49001562D01*
X127431562Y-49312871D01*
X127186969Y-49678931D01*
X127018490Y-50085675D01*
X126932600Y-50517472D01*
X126932600Y-50957728D01*
X127018490Y-51389525D01*
X127186969Y-51796269D01*
X127431562Y-52162329D01*
X127742871Y-52473638D01*
X128108931Y-52718231D01*
X128515675Y-52886710D01*
X128947472Y-52972600D01*
X129387728Y-52972600D01*
X129819525Y-52886710D01*
X130226269Y-52718231D01*
X130592329Y-52473638D01*
X130903638Y-52162329D01*
X131148231Y-51796269D01*
X131207600Y-51652940D01*
X131207600Y-58488621D01*
X131119508Y-58452132D01*
X130919549Y-58412358D01*
X130715671Y-58412358D01*
X130515712Y-58452132D01*
X130327354Y-58530153D01*
X130157836Y-58643421D01*
X130013673Y-58787584D01*
X129900405Y-58957102D01*
X129822384Y-59145460D01*
X129782610Y-59345419D01*
X129782610Y-59549297D01*
X129822384Y-59749256D01*
X129900405Y-59937614D01*
X130013673Y-60107132D01*
X130032610Y-60126069D01*
X130032611Y-66526876D01*
X125472928Y-71086560D01*
X125035162Y-71086560D01*
X125177374Y-70991537D01*
X125321537Y-70847374D01*
X125434805Y-70677856D01*
X125512826Y-70489498D01*
X125552600Y-70289539D01*
X125552600Y-70085661D01*
X125512826Y-69885702D01*
X125434805Y-69697344D01*
X125321537Y-69527826D01*
X125302600Y-69508889D01*
X125302600Y-68205285D01*
X125391983Y-68115902D01*
X125418766Y-68115902D01*
X125618725Y-68076128D01*
X125807083Y-67998107D01*
X125976601Y-67884839D01*
X126120764Y-67740676D01*
X126234032Y-67571158D01*
X126312053Y-67382800D01*
X126351827Y-67182841D01*
X126351827Y-66978963D01*
X126330670Y-66872600D01*
X128038907Y-66872600D01*
X128057844Y-66891537D01*
X128227362Y-67004805D01*
X128415720Y-67082826D01*
X128615679Y-67122600D01*
X128819557Y-67122600D01*
X129019516Y-67082826D01*
X129207874Y-67004805D01*
X129377392Y-66891537D01*
X129521555Y-66747374D01*
X129634823Y-66577856D01*
X129712844Y-66389498D01*
X129752618Y-66189539D01*
X129752618Y-65985661D01*
X129712844Y-65785702D01*
X129634823Y-65597344D01*
X129521555Y-65427826D01*
X129377392Y-65283663D01*
X129207874Y-65170395D01*
X129019516Y-65092374D01*
X128819557Y-65052600D01*
X128615679Y-65052600D01*
X128415720Y-65092374D01*
X128227362Y-65170395D01*
X128057844Y-65283663D01*
X128038907Y-65302600D01*
X123356152Y-65302600D01*
X123317599Y-65298803D01*
X123279046Y-65302600D01*
X123279039Y-65302600D01*
X123178090Y-65312543D01*
X123163712Y-65313959D01*
X123134861Y-65322711D01*
X123015740Y-65358846D01*
X122879367Y-65431738D01*
X122853945Y-65452602D01*
X122815659Y-65452602D01*
X122615700Y-65492376D01*
X122427342Y-65570397D01*
X122257824Y-65683665D01*
X122113661Y-65827828D01*
X122000393Y-65997346D01*
X121922372Y-66185704D01*
X121882598Y-66385663D01*
X121882598Y-66589541D01*
X121922372Y-66789500D01*
X122000393Y-66977858D01*
X122113661Y-67147376D01*
X122257824Y-67291539D01*
X122427342Y-67404807D01*
X122615700Y-67482828D01*
X122815659Y-67522602D01*
X123019537Y-67522602D01*
X123219496Y-67482828D01*
X123407854Y-67404807D01*
X123577372Y-67291539D01*
X123721535Y-67147376D01*
X123834803Y-66977858D01*
X123878403Y-66872600D01*
X124302984Y-66872600D01*
X124281827Y-66978963D01*
X124281827Y-67005746D01*
X123989786Y-67297786D01*
X123959837Y-67322365D01*
X123935259Y-67352313D01*
X123935255Y-67352317D01*
X123902290Y-67392485D01*
X123861739Y-67441896D01*
X123856018Y-67452600D01*
X123788846Y-67578270D01*
X123743959Y-67726243D01*
X123728803Y-67880129D01*
X123732601Y-67918692D01*
X123732600Y-69508889D01*
X123713663Y-69527826D01*
X123600395Y-69697344D01*
X123522374Y-69885702D01*
X123482600Y-70085661D01*
X123482600Y-70289539D01*
X123522374Y-70489498D01*
X123600395Y-70677856D01*
X123713663Y-70847374D01*
X123857826Y-70991537D01*
X124027344Y-71104805D01*
X124082177Y-71127518D01*
X124031780Y-71142806D01*
X123895407Y-71215698D01*
X123775876Y-71313796D01*
X123751295Y-71343748D01*
X123392442Y-71702601D01*
X123356131Y-71702601D01*
X123317575Y-71698804D01*
X123279020Y-71702601D01*
X123279014Y-71702601D01*
X123234624Y-71706973D01*
X123163689Y-71713959D01*
X123060603Y-71745230D01*
X123015715Y-71758847D01*
X122879342Y-71831739D01*
X122759811Y-71929837D01*
X122741131Y-71952598D01*
X122715639Y-71952598D01*
X122515680Y-71992372D01*
X122327322Y-72070393D01*
X122157804Y-72183661D01*
X122013641Y-72327824D01*
X121900373Y-72497342D01*
X121822352Y-72685700D01*
X121782578Y-72885659D01*
X121782578Y-73089537D01*
X121822352Y-73289496D01*
X121900373Y-73477854D01*
X122013641Y-73647372D01*
X122157804Y-73791535D01*
X122327322Y-73904803D01*
X122515680Y-73982824D01*
X122715639Y-74022598D01*
X122919517Y-74022598D01*
X123110417Y-73984626D01*
X122892443Y-74202600D01*
X116796311Y-74202600D01*
X116777374Y-74183663D01*
X116607856Y-74070395D01*
X116419498Y-73992374D01*
X116219539Y-73952600D01*
X116015661Y-73952600D01*
X115815702Y-73992374D01*
X115652594Y-74059936D01*
X115652594Y-73862763D01*
X119992758Y-69522600D01*
X120019539Y-69522600D01*
X120219498Y-69482826D01*
X120407856Y-69404805D01*
X120577374Y-69291537D01*
X120721537Y-69147374D01*
X120834805Y-68977856D01*
X120912826Y-68789498D01*
X120952600Y-68589539D01*
X120952600Y-68385661D01*
X120912826Y-68185702D01*
X120834805Y-67997344D01*
X120721537Y-67827826D01*
X120577374Y-67683663D01*
X120407856Y-67570395D01*
X120219498Y-67492374D01*
X120183661Y-67485246D01*
X120321533Y-67347374D01*
X120434801Y-67177856D01*
X120512822Y-66989498D01*
X120552596Y-66789539D01*
X120552596Y-66585661D01*
X120512822Y-66385702D01*
X120434801Y-66197344D01*
X120321533Y-66027826D01*
X120177370Y-65883663D01*
X120007852Y-65770395D01*
X119819494Y-65692374D01*
X119619535Y-65652600D01*
X119415657Y-65652600D01*
X119215698Y-65692374D01*
X119027340Y-65770395D01*
X118857822Y-65883663D01*
X118838885Y-65902600D01*
X115756156Y-65902600D01*
X115717600Y-65898803D01*
X115679044Y-65902600D01*
X115679039Y-65902600D01*
X115638626Y-65906580D01*
X115563713Y-65913958D01*
X115415740Y-65958846D01*
X115279367Y-66031738D01*
X115159836Y-66129836D01*
X115135253Y-66159790D01*
X114502599Y-66792444D01*
X114502599Y-64705406D01*
X114506396Y-64666850D01*
X114502599Y-64628290D01*
X114502599Y-64628289D01*
X114498619Y-64587876D01*
X114491241Y-64512963D01*
X114446353Y-64364990D01*
X114373461Y-64228617D01*
X114275363Y-64109086D01*
X114245410Y-64084504D01*
X112633506Y-62472600D01*
X123338889Y-62472600D01*
X123457826Y-62591537D01*
X123627344Y-62704805D01*
X123815702Y-62782826D01*
X124015661Y-62822600D01*
X124219539Y-62822600D01*
X124419498Y-62782826D01*
X124607856Y-62704805D01*
X124777374Y-62591537D01*
X124921537Y-62447374D01*
X125034805Y-62277856D01*
X125112826Y-62089498D01*
X125152600Y-61889539D01*
X125152600Y-61685661D01*
X125112826Y-61485702D01*
X125034805Y-61297344D01*
X124921537Y-61127826D01*
X124777374Y-60983663D01*
X124607856Y-60870395D01*
X124419498Y-60792374D01*
X124219539Y-60752600D01*
X124181251Y-60752600D01*
X124155833Y-60731740D01*
X124019460Y-60658847D01*
X123871488Y-60613959D01*
X123717601Y-60598804D01*
X123563714Y-60613959D01*
X123415742Y-60658847D01*
X123279369Y-60731740D01*
X123159837Y-60829837D01*
X123135253Y-60859793D01*
X123092446Y-60902600D01*
X112321509Y-60902600D01*
X111902590Y-60483682D01*
X111902590Y-60456900D01*
X111862816Y-60256941D01*
X111784795Y-60068583D01*
X111671527Y-59899065D01*
X111527364Y-59754902D01*
X111357846Y-59641634D01*
X111169488Y-59563613D01*
X110969529Y-59523839D01*
X110765651Y-59523839D01*
X110565692Y-59563613D01*
X110377334Y-59641634D01*
X110207816Y-59754902D01*
X110063653Y-59899065D01*
X110062178Y-59901272D01*
X110002600Y-59841694D01*
X110002600Y-56270854D01*
X112862619Y-56242776D01*
X114735253Y-58115410D01*
X114759836Y-58145364D01*
X114879367Y-58243462D01*
X115015740Y-58316354D01*
X115163713Y-58361242D01*
X115238626Y-58368620D01*
X115279039Y-58372600D01*
X115279044Y-58372600D01*
X115317600Y-58376397D01*
X115356156Y-58372600D01*
X117838889Y-58372600D01*
X117857826Y-58391537D01*
X118027344Y-58504805D01*
X118215702Y-58582826D01*
X118415661Y-58622600D01*
X118619539Y-58622600D01*
X118819498Y-58582826D01*
X119007856Y-58504805D01*
X119177374Y-58391537D01*
X119321537Y-58247374D01*
X119434805Y-58077856D01*
X119512826Y-57889498D01*
X119552600Y-57689539D01*
X119552600Y-57485661D01*
X119512826Y-57285702D01*
X119434805Y-57097344D01*
X119321537Y-56927826D01*
X119177374Y-56783663D01*
X119007856Y-56670395D01*
X118819498Y-56592374D01*
X118619539Y-56552600D01*
X118415661Y-56552600D01*
X118215702Y-56592374D01*
X118027344Y-56670395D01*
X117857826Y-56783663D01*
X117838889Y-56802600D01*
X115642757Y-56802600D01*
X115061346Y-56221189D01*
X125918847Y-56114594D01*
X125944261Y-56111770D01*
X125967973Y-56104183D01*
X125989749Y-56092116D01*
X126008753Y-56076032D01*
X126024253Y-56056550D01*
X126035656Y-56034418D01*
X126042521Y-56010487D01*
X126044585Y-55985676D01*
X125994585Y-52685676D01*
X125991984Y-52661956D01*
X125984591Y-52638182D01*
X125972702Y-52616308D01*
X125956774Y-52597173D01*
X125937419Y-52581514D01*
X125915381Y-52569931D01*
X125891507Y-52562871D01*
X125866714Y-52560603D01*
X107941714Y-52685603D01*
X107912277Y-52689273D01*
X107888799Y-52697559D01*
X107867390Y-52710265D01*
X107848870Y-52726904D01*
X107833953Y-52746837D01*
X107823211Y-52769296D01*
X107817057Y-52793420D01*
X107815727Y-52818281D01*
X107965727Y-56168281D01*
X107968290Y-56188598D01*
X107975750Y-56212350D01*
X107987701Y-56234191D01*
X108003683Y-56253280D01*
X108023083Y-56268884D01*
X108045153Y-56280404D01*
X108069048Y-56287397D01*
X108093847Y-56289594D01*
X108432600Y-56286268D01*
X108432601Y-60128288D01*
X108428803Y-60166851D01*
X108443959Y-60320737D01*
X108488846Y-60468710D01*
X108488847Y-60468711D01*
X108561739Y-60605084D01*
X108602290Y-60654495D01*
X108635255Y-60694663D01*
X108635259Y-60694667D01*
X108659837Y-60724615D01*
X108689785Y-60749193D01*
X112932599Y-64992007D01*
X112932600Y-68126796D01*
X112827344Y-68170395D01*
X112657826Y-68283663D01*
X112513663Y-68427826D01*
X112400395Y-68597344D01*
X112322374Y-68785702D01*
X112282600Y-68985661D01*
X112282600Y-69189539D01*
X112322374Y-69389498D01*
X112400395Y-69577856D01*
X112513663Y-69747374D01*
X112657826Y-69891537D01*
X112827344Y-70004805D01*
X113015702Y-70082826D01*
X113215661Y-70122600D01*
X113419539Y-70122600D01*
X113619498Y-70082826D01*
X113807856Y-70004805D01*
X113977374Y-69891537D01*
X114121537Y-69747374D01*
X114234805Y-69577856D01*
X114312826Y-69389498D01*
X114352600Y-69189539D01*
X114352600Y-69162757D01*
X116042757Y-67472600D01*
X118838885Y-67472600D01*
X118857822Y-67491537D01*
X119027340Y-67604805D01*
X119215698Y-67682826D01*
X119251535Y-67689954D01*
X119113663Y-67827826D01*
X119000395Y-67997344D01*
X118922374Y-68185702D01*
X118882600Y-68385661D01*
X118882600Y-68412442D01*
X114339784Y-72955259D01*
X114309830Y-72979842D01*
X114211732Y-73099374D01*
X114138840Y-73235747D01*
X114093953Y-73383720D01*
X114082594Y-73499046D01*
X114082594Y-73499053D01*
X114078797Y-73537606D01*
X114082594Y-73576159D01*
X114082595Y-76267674D01*
X114078797Y-76306237D01*
X114093953Y-76460123D01*
X114138840Y-76608096D01*
X114138841Y-76608097D01*
X114211733Y-76744470D01*
X114252284Y-76793881D01*
X114285249Y-76834049D01*
X114285253Y-76834053D01*
X114309831Y-76864001D01*
X114339779Y-76888579D01*
X116512908Y-79061709D01*
X116537486Y-79091657D01*
X116567434Y-79116235D01*
X116567437Y-79116238D01*
X116583134Y-79129120D01*
X116657017Y-79189755D01*
X116793390Y-79262647D01*
X116901877Y-79295556D01*
X116941362Y-79307534D01*
X116955740Y-79308950D01*
X117056689Y-79318893D01*
X117056696Y-79318893D01*
X117095249Y-79322690D01*
X117133802Y-79318893D01*
X122729038Y-79318893D01*
X122767591Y-79322690D01*
X122806144Y-79318893D01*
X122806152Y-79318893D01*
X122921478Y-79307534D01*
X123069451Y-79262647D01*
X123205824Y-79189755D01*
X123231243Y-79168894D01*
X123269529Y-79168894D01*
X123469488Y-79129120D01*
X123657846Y-79051099D01*
X123827364Y-78937831D01*
X123971527Y-78793668D01*
X124084795Y-78624150D01*
X124162816Y-78435792D01*
X124202590Y-78235833D01*
X124202590Y-78031955D01*
X124162816Y-77831996D01*
X124084795Y-77643638D01*
X123971527Y-77474120D01*
X123827364Y-77329957D01*
X123657846Y-77216689D01*
X123469488Y-77138668D01*
X123269529Y-77098894D01*
X123065651Y-77098894D01*
X122865692Y-77138668D01*
X122677334Y-77216689D01*
X122507816Y-77329957D01*
X122363653Y-77474120D01*
X122250385Y-77643638D01*
X122206787Y-77748893D01*
X117839944Y-77748893D01*
X117902131Y-77655824D01*
X117980152Y-77467466D01*
X118019926Y-77267507D01*
X118019926Y-77240725D01*
X118888048Y-76372604D01*
X125138889Y-76372604D01*
X125157826Y-76391541D01*
X125327344Y-76504809D01*
X125515702Y-76582830D01*
X125715661Y-76622604D01*
X125882602Y-76622604D01*
X125882603Y-86212439D01*
X125589789Y-86505254D01*
X125559836Y-86529836D01*
X125461738Y-86649368D01*
X125388846Y-86785741D01*
X125343959Y-86933714D01*
X125332600Y-87049040D01*
X125332600Y-87049047D01*
X125328803Y-87087600D01*
X125332600Y-87126153D01*
X125332600Y-87397801D01*
X125319498Y-87392374D01*
X125119539Y-87352600D01*
X124915661Y-87352600D01*
X124715702Y-87392374D01*
X124527344Y-87470395D01*
X124357826Y-87583663D01*
X124338889Y-87602600D01*
X115206155Y-87602600D01*
X115167600Y-87598803D01*
X115129044Y-87602600D01*
X115129039Y-87602600D01*
X115088626Y-87606580D01*
X115013713Y-87613958D01*
X114865740Y-87658846D01*
X114729367Y-87731738D01*
X114669159Y-87781150D01*
X114639787Y-87805255D01*
X114639784Y-87805258D01*
X114609836Y-87829836D01*
X114585258Y-87859785D01*
X113389785Y-89055258D01*
X113359837Y-89079836D01*
X113335259Y-89109784D01*
X113335255Y-89109788D01*
X113302600Y-89149578D01*
X113302600Y-82312757D01*
X113792758Y-81822600D01*
X113819539Y-81822600D01*
X114019498Y-81782826D01*
X114207856Y-81704805D01*
X114377374Y-81591537D01*
X114521537Y-81447374D01*
X114634805Y-81277856D01*
X114712826Y-81089498D01*
X114752600Y-80889539D01*
X114752600Y-80685661D01*
X114712826Y-80485702D01*
X114634805Y-80297344D01*
X114521537Y-80127826D01*
X114377374Y-79983663D01*
X114207856Y-79870395D01*
X114059831Y-79809080D01*
X114121537Y-79747374D01*
X114234805Y-79577856D01*
X114312826Y-79389498D01*
X114352600Y-79189539D01*
X114352600Y-78985661D01*
X114312826Y-78785702D01*
X114234805Y-78597344D01*
X114121537Y-78427826D01*
X114102600Y-78408889D01*
X114102600Y-76926152D01*
X114106397Y-76887599D01*
X114102600Y-76849046D01*
X114102600Y-76849039D01*
X114091241Y-76733713D01*
X114046354Y-76585740D01*
X113973462Y-76449367D01*
X113924050Y-76389159D01*
X113899945Y-76359787D01*
X113899942Y-76359784D01*
X113875364Y-76329836D01*
X113845417Y-76305259D01*
X112352600Y-74812443D01*
X112352600Y-74785661D01*
X112312826Y-74585702D01*
X112234805Y-74397344D01*
X112121537Y-74227826D01*
X111977374Y-74083663D01*
X111807856Y-73970395D01*
X111619498Y-73892374D01*
X111419539Y-73852600D01*
X111215661Y-73852600D01*
X111015702Y-73892374D01*
X110827344Y-73970395D01*
X110752635Y-74020314D01*
X110752635Y-64043483D01*
X110736212Y-63876736D01*
X110671311Y-63662788D01*
X110565919Y-63465612D01*
X110424084Y-63292786D01*
X110251258Y-63150951D01*
X110054081Y-63045559D01*
X109840133Y-62980658D01*
X109617635Y-62958744D01*
X109395136Y-62980658D01*
X109181188Y-63045559D01*
X108984012Y-63150951D01*
X108811186Y-63292786D01*
X108669351Y-63465612D01*
X108563959Y-63662789D01*
X108499058Y-63876737D01*
X108482635Y-64043484D01*
X108482636Y-84331829D01*
X108477140Y-84387631D01*
X108499054Y-84610129D01*
X108563955Y-84824077D01*
X108669348Y-85021253D01*
X108811183Y-85194079D01*
X108984009Y-85335914D01*
X109181185Y-85441307D01*
X109395133Y-85506208D01*
X109617631Y-85528122D01*
X109840129Y-85506208D01*
X110054077Y-85441307D01*
X110251253Y-85335914D01*
X110251254Y-85335913D01*
X110251258Y-85335911D01*
X110424084Y-85194076D01*
X110565919Y-85021250D01*
X110671311Y-84824074D01*
X110736212Y-84610126D01*
X110752635Y-84443379D01*
X110752635Y-84443378D01*
X110758126Y-84387627D01*
X110752635Y-84331875D01*
X110752635Y-75754886D01*
X110827344Y-75804805D01*
X111015702Y-75882826D01*
X111215661Y-75922600D01*
X111242443Y-75922600D01*
X112532600Y-77212758D01*
X112532601Y-78408888D01*
X112513663Y-78427826D01*
X112400395Y-78597344D01*
X112322374Y-78785702D01*
X112282600Y-78985661D01*
X112282600Y-79012443D01*
X111139775Y-80155268D01*
X111109827Y-80179846D01*
X111085249Y-80209794D01*
X111085245Y-80209798D01*
X111052280Y-80249966D01*
X111011729Y-80299377D01*
X110985009Y-80349368D01*
X110938836Y-80435751D01*
X110893949Y-80583724D01*
X110878793Y-80737610D01*
X110882591Y-80776173D01*
X110882590Y-92308889D01*
X110863653Y-92327826D01*
X110750385Y-92497344D01*
X110672364Y-92685702D01*
X110632590Y-92885661D01*
X110632590Y-93089539D01*
X110672364Y-93289498D01*
X110750385Y-93477856D01*
X110863653Y-93647374D01*
X111007816Y-93791537D01*
X111177334Y-93904805D01*
X111365692Y-93982826D01*
X111565651Y-94022600D01*
X111732600Y-94022600D01*
X111732600Y-94429047D01*
X111728803Y-94467600D01*
X111732600Y-94506153D01*
X111732600Y-94506160D01*
X111743959Y-94621486D01*
X111788846Y-94769459D01*
X111861738Y-94905832D01*
X111959836Y-95025364D01*
X111989790Y-95049947D01*
X112468574Y-95528731D01*
X112454087Y-95576489D01*
X112425415Y-95867600D01*
X112454087Y-96158711D01*
X112539001Y-96438634D01*
X112676894Y-96696614D01*
X112862466Y-96922734D01*
X113088586Y-97108306D01*
X113346566Y-97246199D01*
X113450081Y-97277600D01*
X105582940Y-97277600D01*
X105726269Y-97218231D01*
X106092329Y-96973638D01*
X106403638Y-96662329D01*
X106648231Y-96296269D01*
X106816710Y-95889525D01*
X106902600Y-95457728D01*
X106902600Y-95017472D01*
X106816710Y-94585675D01*
X106648231Y-94178931D01*
X106403638Y-93812871D01*
X106092329Y-93501562D01*
X105726269Y-93256969D01*
X105319525Y-93088490D01*
X104887728Y-93002600D01*
X104447472Y-93002600D01*
X104015675Y-93088490D01*
X103608931Y-93256969D01*
X103242871Y-93501562D01*
X102931562Y-93812871D01*
X102686969Y-94178931D01*
X102627600Y-94322260D01*
X102627600Y-51652940D01*
X102686969Y-51796269D01*
X102931562Y-52162329D01*
X103242871Y-52473638D01*
X103608931Y-52718231D01*
X104015675Y-52886710D01*
X104447472Y-52972600D01*
X104887728Y-52972600D01*
X105319525Y-52886710D01*
X105726269Y-52718231D01*
X106092329Y-52473638D01*
X106403638Y-52162329D01*
X106648231Y-51796269D01*
X106816710Y-51389525D01*
X106902600Y-50957728D01*
X106902600Y-50517472D01*
X106816710Y-50085675D01*
X106648231Y-49678931D01*
X106403638Y-49312871D01*
X106092329Y-49001562D01*
X105726269Y-48756969D01*
X105582940Y-48697600D01*
X128252260Y-48697600D01*
X128108931Y-48756969D01*
G36*
X124357826Y-89191537D02*
G01*
X124527344Y-89304805D01*
X124715702Y-89382826D01*
X124915661Y-89422600D01*
X125119539Y-89422600D01*
X125319498Y-89382826D01*
X125332601Y-89377399D01*
X125332601Y-90895961D01*
X124452600Y-91775962D01*
X124452600Y-91176935D01*
X124434730Y-90995498D01*
X124364111Y-90762699D01*
X124249433Y-90548151D01*
X124095102Y-90360098D01*
X123907048Y-90205767D01*
X123692500Y-90091089D01*
X123459701Y-90020470D01*
X123217600Y-89996625D01*
X122975498Y-90020470D01*
X122742699Y-90091089D01*
X122528151Y-90205767D01*
X122374291Y-90332036D01*
X122348137Y-90283106D01*
X122268785Y-90186415D01*
X122172094Y-90107063D01*
X122061780Y-90048098D01*
X121942082Y-90011788D01*
X121817600Y-89999528D01*
X121503350Y-90002600D01*
X121344600Y-90161350D01*
X121344600Y-91360600D01*
X121364600Y-91360600D01*
X121364600Y-91614600D01*
X121344600Y-91614600D01*
X121344600Y-91634600D01*
X121090600Y-91634600D01*
X121090600Y-91614600D01*
X120141350Y-91614600D01*
X119982600Y-91773350D01*
X119980807Y-92102601D01*
X119377734Y-92102601D01*
X117937445Y-90662314D01*
X117935011Y-90637600D01*
X119979528Y-90637600D01*
X119982600Y-91201850D01*
X120141350Y-91360600D01*
X121090600Y-91360600D01*
X121090600Y-90161350D01*
X120931850Y-90002600D01*
X120617600Y-89999528D01*
X120493118Y-90011788D01*
X120373420Y-90048098D01*
X120263106Y-90107063D01*
X120166415Y-90186415D01*
X120087063Y-90283106D01*
X120028098Y-90393420D01*
X119991788Y-90513118D01*
X119979528Y-90637600D01*
X117935011Y-90637600D01*
X117921113Y-90496489D01*
X117836199Y-90216566D01*
X117698306Y-89958586D01*
X117512734Y-89732466D01*
X117286614Y-89546894D01*
X117028634Y-89409001D01*
X116748711Y-89324087D01*
X116530550Y-89302600D01*
X116384650Y-89302600D01*
X116166489Y-89324087D01*
X115886566Y-89409001D01*
X115628586Y-89546894D01*
X115402466Y-89732466D01*
X115377993Y-89762287D01*
X115357102Y-89693420D01*
X115298137Y-89583106D01*
X115218785Y-89486415D01*
X115196902Y-89468456D01*
X115492758Y-89172600D01*
X124338889Y-89172600D01*
X124357826Y-89191537D01*
X124357826Y-89191537D01*
G37*
X124357826Y-89191537D02*
X124527344Y-89304805D01*
X124715702Y-89382826D01*
X124915661Y-89422600D01*
X125119539Y-89422600D01*
X125319498Y-89382826D01*
X125332601Y-89377399D01*
X125332601Y-90895961D01*
X124452600Y-91775962D01*
X124452600Y-91176935D01*
X124434730Y-90995498D01*
X124364111Y-90762699D01*
X124249433Y-90548151D01*
X124095102Y-90360098D01*
X123907048Y-90205767D01*
X123692500Y-90091089D01*
X123459701Y-90020470D01*
X123217600Y-89996625D01*
X122975498Y-90020470D01*
X122742699Y-90091089D01*
X122528151Y-90205767D01*
X122374291Y-90332036D01*
X122348137Y-90283106D01*
X122268785Y-90186415D01*
X122172094Y-90107063D01*
X122061780Y-90048098D01*
X121942082Y-90011788D01*
X121817600Y-89999528D01*
X121503350Y-90002600D01*
X121344600Y-90161350D01*
X121344600Y-91360600D01*
X121364600Y-91360600D01*
X121364600Y-91614600D01*
X121344600Y-91614600D01*
X121344600Y-91634600D01*
X121090600Y-91634600D01*
X121090600Y-91614600D01*
X120141350Y-91614600D01*
X119982600Y-91773350D01*
X119980807Y-92102601D01*
X119377734Y-92102601D01*
X117937445Y-90662314D01*
X117935011Y-90637600D01*
X119979528Y-90637600D01*
X119982600Y-91201850D01*
X120141350Y-91360600D01*
X121090600Y-91360600D01*
X121090600Y-90161350D01*
X120931850Y-90002600D01*
X120617600Y-89999528D01*
X120493118Y-90011788D01*
X120373420Y-90048098D01*
X120263106Y-90107063D01*
X120166415Y-90186415D01*
X120087063Y-90283106D01*
X120028098Y-90393420D01*
X119991788Y-90513118D01*
X119979528Y-90637600D01*
X117935011Y-90637600D01*
X117921113Y-90496489D01*
X117836199Y-90216566D01*
X117698306Y-89958586D01*
X117512734Y-89732466D01*
X117286614Y-89546894D01*
X117028634Y-89409001D01*
X116748711Y-89324087D01*
X116530550Y-89302600D01*
X116384650Y-89302600D01*
X116166489Y-89324087D01*
X115886566Y-89409001D01*
X115628586Y-89546894D01*
X115402466Y-89732466D01*
X115377993Y-89762287D01*
X115357102Y-89693420D01*
X115298137Y-89583106D01*
X115218785Y-89486415D01*
X115196902Y-89468456D01*
X115492758Y-89172600D01*
X124338889Y-89172600D01*
X124357826Y-89191537D01*
M02*
