G04 #@! TF.GenerationSoftware,KiCad,Pcbnew,(5.1.0)-1*
G04 #@! TF.CreationDate,2019-04-30T12:48:31+01:00*
G04 #@! TF.ProjectId,v4,76342e6b-6963-4616-945f-706362585858,rev?*
G04 #@! TF.SameCoordinates,Original*
G04 #@! TF.FileFunction,Copper,L1,Top*
G04 #@! TF.FilePolarity,Positive*
%FSLAX46Y46*%
G04 Gerber Fmt 4.6, Leading zero omitted, Abs format (unit mm)*
G04 Created by KiCad (PCBNEW (5.1.0)-1) date 2019-04-30 12:48:31*
%MOMM*%
%LPD*%
G04 APERTURE LIST*
%ADD10C,2.400000*%
%ADD11R,1.200000X1.700000*%
%ADD12O,1.200000X1.700000*%
%ADD13R,1.500000X1.250000*%
%ADD14R,1.700000X1.700000*%
%ADD15O,1.700000X1.700000*%
%ADD16R,1.500000X1.300000*%
%ADD17R,1.500000X0.600000*%
%ADD18R,1.300000X0.800000*%
%ADD19R,0.800000X0.900000*%
%ADD20R,1.300000X1.500000*%
%ADD21R,2.000000X2.000000*%
%ADD22R,1.000000X3.200000*%
%ADD23C,0.800000*%
%ADD24C,0.300000*%
%ADD25C,1.000000*%
%ADD26C,0.254000*%
G04 APERTURE END LIST*
D10*
X56417600Y-64987600D03*
X86897600Y-64987600D03*
D11*
X69917600Y-94987600D03*
D12*
X71917600Y-94987600D03*
D13*
X79667600Y-75987600D03*
X82167600Y-75987600D03*
D14*
X55917600Y-80987600D03*
D15*
X55917600Y-83527600D03*
X55917600Y-86067600D03*
X55917600Y-88607600D03*
X55917600Y-91147600D03*
D16*
X54067600Y-72487600D03*
X56767600Y-72487600D03*
X74234266Y-56987600D03*
X76934266Y-56987600D03*
D14*
X85417600Y-79987600D03*
D15*
X87957600Y-79987600D03*
X85417600Y-82527600D03*
X87957600Y-82527600D03*
X85417600Y-85067600D03*
X87957600Y-85067600D03*
D13*
X61167600Y-79487600D03*
X63667600Y-79487600D03*
D11*
X81417600Y-94987600D03*
D12*
X83417600Y-94987600D03*
D16*
X82096000Y-87093600D03*
X79396000Y-87093600D03*
D17*
X64217600Y-81677600D03*
X64217600Y-82947600D03*
X64217600Y-84217600D03*
X64217600Y-85487600D03*
X64217600Y-86757600D03*
X64217600Y-88027600D03*
X64217600Y-89297600D03*
X69617600Y-89297600D03*
X69617600Y-88027600D03*
X69617600Y-86757600D03*
X69617600Y-85487600D03*
X69617600Y-84217600D03*
X69617600Y-82947600D03*
X69617600Y-81677600D03*
D13*
X79496000Y-84093600D03*
X81996000Y-84093600D03*
D11*
X60417600Y-94987600D03*
D12*
X62417600Y-94987600D03*
D16*
X72917600Y-75487600D03*
X75617600Y-75487600D03*
X69617600Y-75487600D03*
X66917600Y-75487600D03*
X69617600Y-72487600D03*
X66917600Y-72487600D03*
X76267600Y-85487600D03*
X73567600Y-85487600D03*
X54067600Y-75487600D03*
X56767600Y-75487600D03*
X60417600Y-72487600D03*
X63117600Y-72487600D03*
X69100933Y-56987600D03*
X66400933Y-56987600D03*
D18*
X73267600Y-89847600D03*
X73267600Y-91127600D03*
X79567600Y-91127600D03*
X79567600Y-89847600D03*
D19*
X79796000Y-81987600D03*
X81696000Y-81987600D03*
X80746000Y-79987600D03*
D16*
X82067600Y-56987600D03*
X84767600Y-56987600D03*
X58567600Y-56987600D03*
X61267600Y-56987600D03*
D19*
X79467600Y-73987600D03*
X81367600Y-73987600D03*
X80417600Y-71987600D03*
D20*
X71417600Y-64137600D03*
X71417600Y-66837600D03*
D16*
X73067600Y-72487600D03*
X75767600Y-72487600D03*
X63117600Y-75487600D03*
X60417600Y-75487600D03*
D21*
X60417600Y-85487600D03*
D22*
X59706000Y-67987600D03*
X53506000Y-67987600D03*
X83629200Y-68108000D03*
X89829200Y-68108000D03*
X53506000Y-61987600D03*
X59706000Y-61987600D03*
X89829200Y-61987600D03*
X83629200Y-61987600D03*
X62629200Y-61987600D03*
X68829200Y-61987600D03*
X80206000Y-61987600D03*
X74006000Y-61987600D03*
X68829200Y-67987600D03*
X62629200Y-67987600D03*
X74006000Y-67987600D03*
X80206000Y-67987600D03*
D23*
X70917600Y-58487600D03*
X58917600Y-71987600D03*
X82417600Y-77987600D03*
X82417600Y-85143589D03*
X70917600Y-78987600D03*
X60417596Y-76987596D03*
X67917600Y-76987600D03*
X63917600Y-76987600D03*
X65417600Y-72068501D03*
X71417600Y-89987600D03*
X71917602Y-80987600D03*
X76917600Y-87987600D03*
X61417627Y-70487573D03*
X60417600Y-70987600D03*
X71417600Y-68487600D03*
X71417596Y-76487600D03*
X82917600Y-78987600D03*
X69448255Y-79103184D03*
X71417600Y-72068501D03*
X67417600Y-87487600D03*
X57917592Y-58987600D03*
X52917596Y-77987600D03*
X67917604Y-91137590D03*
X71067603Y-88135501D03*
X65917600Y-90487600D03*
X67609223Y-85960478D03*
X68817587Y-73987600D03*
X66917600Y-82487600D03*
X65917596Y-86487596D03*
X70229210Y-65403989D03*
X67917600Y-79987600D03*
X69917600Y-73987600D03*
X71160808Y-87039454D03*
X58663328Y-91137590D03*
X78917600Y-77487600D03*
X54604534Y-77431054D03*
D24*
X81367600Y-75187600D02*
X82167600Y-75987600D01*
D25*
X81367600Y-73987600D02*
X81367600Y-75187600D01*
D24*
X81996000Y-82287600D02*
X81696000Y-81987600D01*
X81996000Y-84093600D02*
X81996000Y-82287600D01*
X56767600Y-75487600D02*
X60417600Y-75487600D01*
X60417600Y-72487600D02*
X60417600Y-75487600D01*
X69100933Y-56987600D02*
X69417600Y-56987600D01*
X69417600Y-56987600D02*
X70917600Y-58487600D01*
X60417600Y-72487600D02*
X59417600Y-72487600D01*
X59417600Y-72487600D02*
X58917600Y-71987600D01*
X82167600Y-75987600D02*
X82167600Y-77737600D01*
X82167600Y-77737600D02*
X82417600Y-77987600D01*
X82417600Y-84515200D02*
X81996000Y-84093600D01*
X82417600Y-85143589D02*
X82417600Y-84515200D01*
X60417600Y-76987592D02*
X60417596Y-76987596D01*
X60417600Y-75487600D02*
X60417600Y-76987592D01*
X68317599Y-77387599D02*
X67917600Y-76987600D01*
X63917600Y-79237600D02*
X63917600Y-76987600D01*
X63667600Y-79487600D02*
X63917600Y-79237600D01*
X66917600Y-72487600D02*
X65836699Y-72487600D01*
X65836699Y-72487600D02*
X65417600Y-72068501D01*
X73267600Y-91127600D02*
X72317600Y-91127600D01*
X71417600Y-90227600D02*
X71417600Y-89987600D01*
X72317600Y-91127600D02*
X71417600Y-90227600D01*
X70917600Y-80987600D02*
X70917600Y-78987600D01*
X69617600Y-81677600D02*
X70227600Y-81677600D01*
X70227600Y-81677600D02*
X70917600Y-80987600D01*
X69617600Y-81677600D02*
X71227602Y-81677600D01*
X71517603Y-81387599D02*
X71917602Y-80987600D01*
X71227602Y-81677600D02*
X71517603Y-81387599D01*
X81996000Y-84093600D02*
X81871000Y-84093600D01*
X80795999Y-85168601D02*
X79170914Y-85168601D01*
X76917600Y-87421915D02*
X76917600Y-87987600D01*
X79170914Y-85168601D02*
X76917600Y-87421915D01*
X81871000Y-84093600D02*
X80795999Y-85168601D01*
X61167600Y-79737600D02*
X61167600Y-79487600D01*
X64217600Y-81677600D02*
X63107600Y-81677600D01*
X63107600Y-81677600D02*
X61167600Y-79737600D01*
D25*
X59706000Y-70587600D02*
X60106000Y-70987600D01*
X59706000Y-67987600D02*
X59706000Y-70587600D01*
X60106000Y-70987600D02*
X60417600Y-70987600D01*
D24*
X61167600Y-78562600D02*
X61817626Y-77912574D01*
X61167600Y-79487600D02*
X61167600Y-78562600D01*
D25*
X61817626Y-70887572D02*
X61417627Y-70487573D01*
D24*
X61817626Y-77912574D02*
X61817626Y-70887572D01*
D25*
X60917600Y-70987600D02*
X61417627Y-70487573D01*
D24*
X60417600Y-70987600D02*
X60917600Y-70987600D01*
D25*
X86749600Y-64987600D02*
X83629200Y-68108000D01*
X86897600Y-64987600D02*
X86749600Y-64987600D01*
D24*
X82196000Y-87093600D02*
X82096000Y-87093600D01*
X83417600Y-94987600D02*
X83417600Y-88315200D01*
X83417600Y-88315200D02*
X82196000Y-87093600D01*
X84491601Y-85993599D02*
X80596001Y-85993599D01*
X79496000Y-87093600D02*
X79396000Y-87093600D01*
X85417600Y-85067600D02*
X84491601Y-85993599D01*
X80596001Y-85993599D02*
X79496000Y-87093600D01*
X65267600Y-85487600D02*
X64217600Y-85487600D01*
X66175602Y-85487600D02*
X65267600Y-85487600D01*
X66325605Y-87337605D02*
X66767605Y-86895605D01*
X66325605Y-87837605D02*
X66325605Y-87337605D01*
X66767605Y-86079603D02*
X66175602Y-85487600D01*
X79396000Y-87509200D02*
X74417600Y-92487600D01*
X66767605Y-86895605D02*
X66767605Y-86079603D01*
X79396000Y-87093600D02*
X79396000Y-87509200D01*
X74417600Y-92487600D02*
X71525614Y-92487600D01*
X71525614Y-92487600D02*
X69325602Y-90287588D01*
X69325602Y-90287588D02*
X68775588Y-90287588D01*
X68775588Y-90287588D02*
X66325605Y-87837605D01*
X69617600Y-88027600D02*
X68957600Y-88027600D01*
X71417600Y-66837600D02*
X71417600Y-68487600D01*
X82917600Y-80027600D02*
X82917600Y-78987600D01*
X85417600Y-82527600D02*
X82917600Y-80027600D01*
X71417596Y-76487600D02*
X69448255Y-78456941D01*
X69448255Y-78456941D02*
X69448255Y-79103184D01*
X73067600Y-72487600D02*
X71836699Y-72487600D01*
X71836699Y-72487600D02*
X71417600Y-72068501D01*
X67957600Y-88027600D02*
X67817599Y-87887599D01*
X69617600Y-88027600D02*
X67957600Y-88027600D01*
X67817599Y-87887599D02*
X67417600Y-87487600D01*
X61267600Y-56987600D02*
X61167600Y-56987600D01*
X59167600Y-58987600D02*
X57917592Y-58987600D01*
X61167600Y-56987600D02*
X59167600Y-58987600D01*
X63167600Y-89297600D02*
X58977600Y-93487600D01*
X64217600Y-89297600D02*
X63167600Y-89297600D01*
X54351915Y-93487600D02*
X52917596Y-92053281D01*
X52917596Y-78553285D02*
X52917596Y-77987600D01*
X52917596Y-92053281D02*
X52917596Y-78553285D01*
X58977600Y-93487600D02*
X54351915Y-93487600D01*
X66077614Y-89297600D02*
X67517605Y-90737591D01*
X67517605Y-90737591D02*
X67917604Y-91137590D01*
X64217600Y-89297600D02*
X66077614Y-89297600D01*
X84767600Y-57937600D02*
X84767600Y-56987600D01*
X88547601Y-61717601D02*
X84767600Y-57937600D01*
X88547601Y-75707599D02*
X88547601Y-61717601D01*
X85417600Y-78837600D02*
X88547601Y-75707599D01*
X85417600Y-79987600D02*
X85417600Y-78837600D01*
X70067600Y-89297600D02*
X71067603Y-88297597D01*
X71067603Y-88297597D02*
X71067603Y-88135501D01*
X69617600Y-89297600D02*
X70067600Y-89297600D01*
X69617600Y-85487600D02*
X68417600Y-85487600D01*
X68417600Y-85487600D02*
X66317598Y-83387598D01*
X60417600Y-92987600D02*
X62917600Y-90487600D01*
X60417600Y-94987600D02*
X60417600Y-92987600D01*
X62917600Y-90487600D02*
X65917600Y-90487600D01*
X63117600Y-73437600D02*
X63117600Y-72487600D01*
X65576133Y-75896133D02*
X63117600Y-73437600D01*
X66017612Y-80769067D02*
X65576133Y-80327588D01*
X66317598Y-83387598D02*
X66017612Y-83087612D01*
X66017612Y-83087612D02*
X66017612Y-80769067D01*
X65576133Y-80327588D02*
X65576133Y-75896133D01*
X67609223Y-85394793D02*
X67609223Y-85960478D01*
X67609223Y-84679223D02*
X67609223Y-85394793D01*
X66317598Y-83387598D02*
X67609223Y-84679223D01*
X69617600Y-75487600D02*
X72917600Y-75487600D01*
X69617600Y-75487600D02*
X69517600Y-75487600D01*
X69517600Y-75487600D02*
X68817587Y-74787587D01*
X68817587Y-74787587D02*
X68817587Y-73987600D01*
X63947601Y-87757601D02*
X64217600Y-88027600D01*
X55917600Y-88607600D02*
X56767599Y-87757601D01*
X56767599Y-87757601D02*
X63947601Y-87757601D01*
X68967600Y-72487600D02*
X66917600Y-74537600D01*
X66917600Y-74537600D02*
X66917600Y-75487600D01*
X69617600Y-72487600D02*
X68967600Y-72487600D01*
X61987600Y-86757600D02*
X64217600Y-86757600D01*
X60717600Y-85487600D02*
X61987600Y-86757600D01*
X60417600Y-85487600D02*
X60717600Y-85487600D01*
X66917600Y-75487600D02*
X66917600Y-82487600D01*
X65647592Y-86757600D02*
X65917596Y-86487596D01*
X64217600Y-86757600D02*
X65647592Y-86757600D01*
X74217600Y-88897600D02*
X74217600Y-89147600D01*
X76267600Y-85487600D02*
X76267600Y-86847600D01*
X73517600Y-89847600D02*
X73267600Y-89847600D01*
X74217600Y-89147600D02*
X73517600Y-89847600D01*
X76267600Y-86847600D02*
X74217600Y-88897600D01*
X70667600Y-84217600D02*
X69617600Y-84217600D01*
X71247600Y-84217600D02*
X70667600Y-84217600D01*
X72517600Y-85487600D02*
X71247600Y-84217600D01*
X73567600Y-85487600D02*
X72517600Y-85487600D01*
D25*
X53506000Y-61867200D02*
X53506000Y-67987600D01*
X89829200Y-68108000D02*
X89829200Y-61987600D01*
X59706000Y-61867200D02*
X62629200Y-61867200D01*
X83629200Y-61987600D02*
X80206000Y-61987600D01*
X68829200Y-67987600D02*
X68829200Y-61867200D01*
X74006000Y-61987600D02*
X74006000Y-67987600D01*
X80417600Y-68199200D02*
X80206000Y-67987600D01*
X80417600Y-71987600D02*
X80417600Y-68199200D01*
X76025109Y-70668491D02*
X78706000Y-67987600D01*
X62629200Y-67987600D02*
X62629200Y-68699200D01*
X78706000Y-67987600D02*
X80206000Y-67987600D01*
X64598491Y-70668491D02*
X76025109Y-70668491D01*
X62629200Y-68699200D02*
X64598491Y-70668491D01*
X62629200Y-66699200D02*
X62629200Y-67987600D01*
X56417600Y-64987600D02*
X60917600Y-64987600D01*
X60917600Y-64987600D02*
X62629200Y-66699200D01*
D24*
X76934266Y-56987600D02*
X82067600Y-56987600D01*
X58667600Y-56987600D02*
X58567600Y-56987600D01*
X59767601Y-55887599D02*
X58667600Y-56987600D01*
X64250932Y-55887599D02*
X59767601Y-55887599D01*
X65350933Y-56987600D02*
X64250932Y-55887599D01*
X66400933Y-56987600D02*
X65350933Y-56987600D01*
X79496000Y-82287600D02*
X79796000Y-81987600D01*
X79496000Y-84093600D02*
X79496000Y-82287600D01*
X75617600Y-75487600D02*
X75717600Y-75487600D01*
X78417600Y-80487600D02*
X79796000Y-81937600D01*
X79796000Y-81937600D02*
X79796000Y-81987600D01*
X74067598Y-77079596D02*
X74067598Y-78395602D01*
X75717600Y-75487600D02*
X75659594Y-75487600D01*
X75659594Y-75487600D02*
X74067598Y-77079596D01*
X74067598Y-78395602D02*
X76159596Y-80487600D01*
X76159596Y-80487600D02*
X78417600Y-80487600D01*
X71417600Y-64237600D02*
X70251211Y-65403989D01*
X70251211Y-65403989D02*
X70229210Y-65403989D01*
X71417600Y-64137600D02*
X71417600Y-64237600D01*
X71167600Y-82947600D02*
X69617600Y-82947600D01*
X78457600Y-82947600D02*
X71167600Y-82947600D01*
X79796000Y-81987600D02*
X79417600Y-81987600D01*
X79417600Y-81987600D02*
X78457600Y-82947600D01*
X69167600Y-82947600D02*
X67917600Y-81697600D01*
X67917600Y-80553285D02*
X67917600Y-79987600D01*
X67917600Y-81697600D02*
X67917600Y-80553285D01*
X69617600Y-82947600D02*
X69167600Y-82947600D01*
X74217600Y-73987600D02*
X69917600Y-73987600D01*
X75717600Y-75487600D02*
X74217600Y-73987600D01*
X69617600Y-86757600D02*
X70878954Y-86757600D01*
X70878954Y-86757600D02*
X71160808Y-87039454D01*
X56767600Y-73437600D02*
X55454535Y-74750665D01*
X56767600Y-72487600D02*
X56767600Y-73437600D01*
X55454535Y-74750665D02*
X55454535Y-79010667D01*
X54267601Y-80197601D02*
X54267601Y-92337601D01*
X58263329Y-91537589D02*
X58663328Y-91137590D01*
X57263329Y-92537589D02*
X58263329Y-91537589D01*
X54467589Y-92537589D02*
X57263329Y-92537589D01*
X54267601Y-92337601D02*
X54467589Y-92537589D01*
X55454535Y-79010667D02*
X54267601Y-80197601D01*
X54067600Y-75487600D02*
X54067600Y-72487600D01*
X79467600Y-75787600D02*
X79667600Y-75987600D01*
X79467600Y-73987600D02*
X79467600Y-75787600D01*
X79667600Y-75987600D02*
X79667600Y-76912600D01*
X79667600Y-76912600D02*
X79492600Y-76912600D01*
X79492600Y-76912600D02*
X78917600Y-77487600D01*
X54067600Y-76894120D02*
X54204535Y-77031055D01*
X54204535Y-77031055D02*
X54604534Y-77431054D01*
X54067600Y-75487600D02*
X54067600Y-76894120D01*
X59027600Y-82947600D02*
X64217600Y-82947600D01*
X57067600Y-80987600D02*
X59027600Y-82947600D01*
X57067600Y-80987600D02*
X55917600Y-80987600D01*
X65417601Y-81017599D02*
X65417601Y-82197599D01*
X64667600Y-82947600D02*
X64217600Y-82947600D01*
X64867601Y-76187601D02*
X64867601Y-80467599D01*
X65417601Y-82197599D02*
X64667600Y-82947600D01*
X64167600Y-75487600D02*
X64867601Y-76187601D01*
X63117600Y-75487600D02*
X64167600Y-75487600D01*
X64867601Y-80467599D02*
X65417601Y-81017599D01*
X63767600Y-84217600D02*
X64217600Y-84217600D01*
X55917600Y-86067600D02*
X58367600Y-83617600D01*
X63167600Y-83617600D02*
X63767600Y-84217600D01*
X58367600Y-83617600D02*
X63167600Y-83617600D01*
X78617600Y-91127600D02*
X79567600Y-91127600D01*
X73457590Y-96287610D02*
X78617600Y-91127600D01*
X70967610Y-96287610D02*
X73457590Y-96287610D01*
X69917600Y-95237600D02*
X70967610Y-96287610D01*
X69917600Y-94987600D02*
X69917600Y-95237600D01*
X72817600Y-94987600D02*
X71917600Y-94987600D01*
X73477600Y-94987600D02*
X72817600Y-94987600D01*
X78617600Y-89847600D02*
X73477600Y-94987600D01*
X79567600Y-89847600D02*
X78617600Y-89847600D01*
D26*
G36*
X90933152Y-99686173D02*
G01*
X90899845Y-100025850D01*
X90811137Y-100319668D01*
X90667046Y-100590663D01*
X90473070Y-100828502D01*
X90236584Y-101024140D01*
X89966605Y-101170117D01*
X89673414Y-101260875D01*
X89335413Y-101296400D01*
X53933521Y-101296400D01*
X53593350Y-101263045D01*
X53299532Y-101174337D01*
X53028537Y-101030246D01*
X52790698Y-100836270D01*
X52595060Y-100599784D01*
X52449083Y-100329805D01*
X52358325Y-100036614D01*
X52322800Y-99698613D01*
X52322800Y-98801944D01*
X52532600Y-98801944D01*
X52532600Y-99173256D01*
X52605039Y-99537434D01*
X52747134Y-99880482D01*
X52953425Y-100189218D01*
X53215982Y-100451775D01*
X53524718Y-100658066D01*
X53867766Y-100800161D01*
X54231944Y-100872600D01*
X54603256Y-100872600D01*
X54967434Y-100800161D01*
X55310482Y-100658066D01*
X55619218Y-100451775D01*
X55881775Y-100189218D01*
X56088066Y-99880482D01*
X56230161Y-99537434D01*
X56302600Y-99173256D01*
X56302600Y-98801944D01*
X87032600Y-98801944D01*
X87032600Y-99173256D01*
X87105039Y-99537434D01*
X87247134Y-99880482D01*
X87453425Y-100189218D01*
X87715982Y-100451775D01*
X88024718Y-100658066D01*
X88367766Y-100800161D01*
X88731944Y-100872600D01*
X89103256Y-100872600D01*
X89467434Y-100800161D01*
X89810482Y-100658066D01*
X90119218Y-100451775D01*
X90381775Y-100189218D01*
X90588066Y-99880482D01*
X90730161Y-99537434D01*
X90802600Y-99173256D01*
X90802600Y-98801944D01*
X90730161Y-98437766D01*
X90588066Y-98094718D01*
X90381775Y-97785982D01*
X90119218Y-97523425D01*
X89810482Y-97317134D01*
X89467434Y-97175039D01*
X89103256Y-97102600D01*
X88731944Y-97102600D01*
X88367766Y-97175039D01*
X88024718Y-97317134D01*
X87715982Y-97523425D01*
X87453425Y-97785982D01*
X87247134Y-98094718D01*
X87105039Y-98437766D01*
X87032600Y-98801944D01*
X56302600Y-98801944D01*
X56230161Y-98437766D01*
X56088066Y-98094718D01*
X55881775Y-97785982D01*
X55619218Y-97523425D01*
X55310482Y-97317134D01*
X54967434Y-97175039D01*
X54603256Y-97102600D01*
X54231944Y-97102600D01*
X53867766Y-97175039D01*
X53524718Y-97317134D01*
X53215982Y-97523425D01*
X52953425Y-97785982D01*
X52747134Y-98094718D01*
X52605039Y-98437766D01*
X52532600Y-98801944D01*
X52322800Y-98801944D01*
X52322800Y-92565922D01*
X52359832Y-92611045D01*
X52389786Y-92635628D01*
X53769573Y-94015416D01*
X53794151Y-94045364D01*
X53824099Y-94069942D01*
X53824102Y-94069945D01*
X53853474Y-94094050D01*
X53913682Y-94143462D01*
X54050055Y-94216354D01*
X54163587Y-94250794D01*
X54198027Y-94261241D01*
X54212405Y-94262657D01*
X54313354Y-94272600D01*
X54313361Y-94272600D01*
X54351914Y-94276397D01*
X54390467Y-94272600D01*
X58939047Y-94272600D01*
X58977600Y-94276397D01*
X59016153Y-94272600D01*
X59016161Y-94272600D01*
X59131487Y-94261241D01*
X59179528Y-94246668D01*
X59179528Y-95837600D01*
X59191788Y-95962082D01*
X59228098Y-96081780D01*
X59287063Y-96192094D01*
X59366415Y-96288785D01*
X59463106Y-96368137D01*
X59573420Y-96427102D01*
X59693118Y-96463412D01*
X59817600Y-96475672D01*
X61017600Y-96475672D01*
X61142082Y-96463412D01*
X61261780Y-96427102D01*
X61372094Y-96368137D01*
X61468785Y-96288785D01*
X61548137Y-96192094D01*
X61574292Y-96143163D01*
X61728152Y-96269433D01*
X61942700Y-96384111D01*
X62175499Y-96454730D01*
X62417600Y-96478575D01*
X62659702Y-96454730D01*
X62892501Y-96384111D01*
X63107049Y-96269433D01*
X63295102Y-96115102D01*
X63449433Y-95927049D01*
X63564111Y-95712500D01*
X63634730Y-95479701D01*
X63652600Y-95298264D01*
X63652600Y-94676935D01*
X63634730Y-94495498D01*
X63564111Y-94262699D01*
X63449433Y-94048151D01*
X63295102Y-93860098D01*
X63107048Y-93705767D01*
X62892500Y-93591089D01*
X62659701Y-93520470D01*
X62417600Y-93496625D01*
X62175498Y-93520470D01*
X61942699Y-93591089D01*
X61728151Y-93705767D01*
X61574291Y-93832036D01*
X61548137Y-93783106D01*
X61468785Y-93686415D01*
X61372094Y-93607063D01*
X61261780Y-93548098D01*
X61202600Y-93530146D01*
X61202600Y-93312757D01*
X63242758Y-91272600D01*
X65238889Y-91272600D01*
X65257826Y-91291537D01*
X65427344Y-91404805D01*
X65615702Y-91482826D01*
X65815661Y-91522600D01*
X66019539Y-91522600D01*
X66219498Y-91482826D01*
X66407856Y-91404805D01*
X66577374Y-91291537D01*
X66721537Y-91147374D01*
X66759867Y-91090010D01*
X66882604Y-91212747D01*
X66882604Y-91239529D01*
X66922378Y-91439488D01*
X67000399Y-91627846D01*
X67113667Y-91797364D01*
X67257830Y-91941527D01*
X67427348Y-92054795D01*
X67615706Y-92132816D01*
X67815665Y-92172590D01*
X68019543Y-92172590D01*
X68219502Y-92132816D01*
X68407860Y-92054795D01*
X68577378Y-91941527D01*
X68721541Y-91797364D01*
X68834809Y-91627846D01*
X68912830Y-91439488D01*
X68952604Y-91239529D01*
X68952604Y-91072588D01*
X69000445Y-91072588D01*
X70943267Y-93015410D01*
X70967850Y-93045364D01*
X71087381Y-93143462D01*
X71223754Y-93216354D01*
X71371727Y-93261242D01*
X71446640Y-93268620D01*
X71487053Y-93272600D01*
X71487058Y-93272600D01*
X71525614Y-93276397D01*
X71564170Y-93272600D01*
X74082443Y-93272600D01*
X73152443Y-94202600D01*
X73031987Y-94202600D01*
X72949433Y-94048151D01*
X72795102Y-93860098D01*
X72607048Y-93705767D01*
X72392500Y-93591089D01*
X72159701Y-93520470D01*
X71917600Y-93496625D01*
X71675498Y-93520470D01*
X71442699Y-93591089D01*
X71228151Y-93705767D01*
X71074291Y-93832036D01*
X71048137Y-93783106D01*
X70968785Y-93686415D01*
X70872094Y-93607063D01*
X70761780Y-93548098D01*
X70642082Y-93511788D01*
X70517600Y-93499528D01*
X69317600Y-93499528D01*
X69193118Y-93511788D01*
X69073420Y-93548098D01*
X68963106Y-93607063D01*
X68866415Y-93686415D01*
X68787063Y-93783106D01*
X68728098Y-93893420D01*
X68691788Y-94013118D01*
X68679528Y-94137600D01*
X68679528Y-95837600D01*
X68691788Y-95962082D01*
X68728098Y-96081780D01*
X68787063Y-96192094D01*
X68866415Y-96288785D01*
X68963106Y-96368137D01*
X69073420Y-96427102D01*
X69193118Y-96463412D01*
X69317600Y-96475672D01*
X70045514Y-96475672D01*
X70385267Y-96815425D01*
X70409846Y-96845374D01*
X70439794Y-96869952D01*
X70439797Y-96869955D01*
X70469169Y-96894060D01*
X70529377Y-96943472D01*
X70665750Y-97016364D01*
X70779282Y-97050804D01*
X70813722Y-97061251D01*
X70828100Y-97062667D01*
X70929049Y-97072610D01*
X70929056Y-97072610D01*
X70967609Y-97076407D01*
X71006162Y-97072610D01*
X73419037Y-97072610D01*
X73457590Y-97076407D01*
X73496143Y-97072610D01*
X73496151Y-97072610D01*
X73611477Y-97061251D01*
X73759450Y-97016364D01*
X73895823Y-96943472D01*
X74015354Y-96845374D01*
X74039937Y-96815420D01*
X75017757Y-95837600D01*
X80179528Y-95837600D01*
X80191788Y-95962082D01*
X80228098Y-96081780D01*
X80287063Y-96192094D01*
X80366415Y-96288785D01*
X80463106Y-96368137D01*
X80573420Y-96427102D01*
X80693118Y-96463412D01*
X80817600Y-96475672D01*
X81131850Y-96472600D01*
X81290600Y-96313850D01*
X81290600Y-95114600D01*
X80341350Y-95114600D01*
X80182600Y-95273350D01*
X80179528Y-95837600D01*
X75017757Y-95837600D01*
X76717757Y-94137600D01*
X80179528Y-94137600D01*
X80182600Y-94701850D01*
X80341350Y-94860600D01*
X81290600Y-94860600D01*
X81290600Y-93661350D01*
X81131850Y-93502600D01*
X80817600Y-93499528D01*
X80693118Y-93511788D01*
X80573420Y-93548098D01*
X80463106Y-93607063D01*
X80366415Y-93686415D01*
X80287063Y-93783106D01*
X80228098Y-93893420D01*
X80191788Y-94013118D01*
X80179528Y-94137600D01*
X76717757Y-94137600D01*
X78723166Y-92132192D01*
X78793118Y-92153412D01*
X78917600Y-92165672D01*
X80217600Y-92165672D01*
X80342082Y-92153412D01*
X80461780Y-92117102D01*
X80572094Y-92058137D01*
X80668785Y-91978785D01*
X80748137Y-91882094D01*
X80807102Y-91771780D01*
X80843412Y-91652082D01*
X80855672Y-91527600D01*
X80855672Y-90727600D01*
X80843412Y-90603118D01*
X80808370Y-90487600D01*
X80843412Y-90372082D01*
X80855672Y-90247600D01*
X80855672Y-89447600D01*
X80843412Y-89323118D01*
X80807102Y-89203420D01*
X80748137Y-89093106D01*
X80668785Y-88996415D01*
X80572094Y-88917063D01*
X80461780Y-88858098D01*
X80342082Y-88821788D01*
X80217600Y-88809528D01*
X79205829Y-88809528D01*
X79633685Y-88381672D01*
X80146000Y-88381672D01*
X80270482Y-88369412D01*
X80390180Y-88333102D01*
X80500494Y-88274137D01*
X80597185Y-88194785D01*
X80676537Y-88098094D01*
X80735502Y-87987780D01*
X80746000Y-87953173D01*
X80756498Y-87987780D01*
X80815463Y-88098094D01*
X80894815Y-88194785D01*
X80991506Y-88274137D01*
X81101820Y-88333102D01*
X81221518Y-88369412D01*
X81346000Y-88381672D01*
X82373914Y-88381672D01*
X82632601Y-88640359D01*
X82632600Y-93784183D01*
X82574291Y-93832036D01*
X82548137Y-93783106D01*
X82468785Y-93686415D01*
X82372094Y-93607063D01*
X82261780Y-93548098D01*
X82142082Y-93511788D01*
X82017600Y-93499528D01*
X81703350Y-93502600D01*
X81544600Y-93661350D01*
X81544600Y-94860600D01*
X81564600Y-94860600D01*
X81564600Y-95114600D01*
X81544600Y-95114600D01*
X81544600Y-96313850D01*
X81703350Y-96472600D01*
X82017600Y-96475672D01*
X82142082Y-96463412D01*
X82261780Y-96427102D01*
X82372094Y-96368137D01*
X82468785Y-96288785D01*
X82548137Y-96192094D01*
X82574292Y-96143163D01*
X82728152Y-96269433D01*
X82942700Y-96384111D01*
X83175499Y-96454730D01*
X83417600Y-96478575D01*
X83659702Y-96454730D01*
X83892501Y-96384111D01*
X84107049Y-96269433D01*
X84295102Y-96115102D01*
X84449433Y-95927049D01*
X84564111Y-95712500D01*
X84634730Y-95479701D01*
X84652600Y-95298264D01*
X84652600Y-94676935D01*
X84634730Y-94495498D01*
X84564111Y-94262699D01*
X84449433Y-94048151D01*
X84295102Y-93860098D01*
X84202600Y-93784184D01*
X84202600Y-88353752D01*
X84206397Y-88315199D01*
X84202600Y-88276646D01*
X84202600Y-88276639D01*
X84191241Y-88161313D01*
X84184614Y-88139465D01*
X84171714Y-88096941D01*
X84146354Y-88013340D01*
X84073462Y-87876967D01*
X83975364Y-87757436D01*
X83945415Y-87732858D01*
X83484072Y-87271514D01*
X83484072Y-86778599D01*
X84453048Y-86778599D01*
X84491601Y-86782396D01*
X84530154Y-86778599D01*
X84530162Y-86778599D01*
X84645488Y-86767240D01*
X84793461Y-86722353D01*
X84929834Y-86649461D01*
X85049365Y-86551363D01*
X85073948Y-86521409D01*
X85078731Y-86516626D01*
X85126489Y-86531113D01*
X85344650Y-86552600D01*
X85490550Y-86552600D01*
X85708711Y-86531113D01*
X85988634Y-86446199D01*
X86246614Y-86308306D01*
X86472734Y-86122734D01*
X86658306Y-85896614D01*
X86689184Y-85838844D01*
X86860012Y-86067869D01*
X87076245Y-86262778D01*
X87326348Y-86411757D01*
X87600709Y-86509081D01*
X87830600Y-86388414D01*
X87830600Y-85194600D01*
X88084600Y-85194600D01*
X88084600Y-86388414D01*
X88314491Y-86509081D01*
X88588852Y-86411757D01*
X88838955Y-86262778D01*
X89055188Y-86067869D01*
X89229241Y-85834520D01*
X89354425Y-85571699D01*
X89399076Y-85424490D01*
X89277755Y-85194600D01*
X88084600Y-85194600D01*
X87830600Y-85194600D01*
X87810600Y-85194600D01*
X87810600Y-84940600D01*
X87830600Y-84940600D01*
X87830600Y-84920600D01*
X88084600Y-84920600D01*
X88084600Y-84940600D01*
X89277755Y-84940600D01*
X89399076Y-84710710D01*
X89354425Y-84563501D01*
X89229241Y-84300680D01*
X89055188Y-84067331D01*
X88838955Y-83872422D01*
X88722077Y-83802801D01*
X88786614Y-83768306D01*
X89012734Y-83582734D01*
X89198306Y-83356614D01*
X89336199Y-83098634D01*
X89421113Y-82818711D01*
X89449785Y-82527600D01*
X89421113Y-82236489D01*
X89336199Y-81956566D01*
X89198306Y-81698586D01*
X89012734Y-81472466D01*
X88786614Y-81286894D01*
X88731809Y-81257600D01*
X88786614Y-81228306D01*
X89012734Y-81042734D01*
X89198306Y-80816614D01*
X89336199Y-80558634D01*
X89421113Y-80278711D01*
X89449785Y-79987600D01*
X89421113Y-79696489D01*
X89336199Y-79416566D01*
X89198306Y-79158586D01*
X89012734Y-78932466D01*
X88786614Y-78746894D01*
X88528634Y-78609001D01*
X88248711Y-78524087D01*
X88030550Y-78502600D01*
X87884650Y-78502600D01*
X87666489Y-78524087D01*
X87386566Y-78609001D01*
X87128586Y-78746894D01*
X86902466Y-78932466D01*
X86877993Y-78962287D01*
X86857102Y-78893420D01*
X86798137Y-78783106D01*
X86718785Y-78686415D01*
X86696901Y-78668456D01*
X89075412Y-76289945D01*
X89105365Y-76265363D01*
X89203463Y-76145832D01*
X89276355Y-76009459D01*
X89294683Y-75949040D01*
X89321243Y-75861486D01*
X89331351Y-75758846D01*
X89332601Y-75746160D01*
X89332601Y-75746155D01*
X89336398Y-75707599D01*
X89332601Y-75669043D01*
X89332601Y-70346072D01*
X90329200Y-70346072D01*
X90453682Y-70333812D01*
X90573380Y-70297502D01*
X90683694Y-70238537D01*
X90780385Y-70159185D01*
X90859737Y-70062494D01*
X90891053Y-70003907D01*
X90933152Y-99686173D01*
X90933152Y-99686173D01*
G37*
X90933152Y-99686173D02*
X90899845Y-100025850D01*
X90811137Y-100319668D01*
X90667046Y-100590663D01*
X90473070Y-100828502D01*
X90236584Y-101024140D01*
X89966605Y-101170117D01*
X89673414Y-101260875D01*
X89335413Y-101296400D01*
X53933521Y-101296400D01*
X53593350Y-101263045D01*
X53299532Y-101174337D01*
X53028537Y-101030246D01*
X52790698Y-100836270D01*
X52595060Y-100599784D01*
X52449083Y-100329805D01*
X52358325Y-100036614D01*
X52322800Y-99698613D01*
X52322800Y-98801944D01*
X52532600Y-98801944D01*
X52532600Y-99173256D01*
X52605039Y-99537434D01*
X52747134Y-99880482D01*
X52953425Y-100189218D01*
X53215982Y-100451775D01*
X53524718Y-100658066D01*
X53867766Y-100800161D01*
X54231944Y-100872600D01*
X54603256Y-100872600D01*
X54967434Y-100800161D01*
X55310482Y-100658066D01*
X55619218Y-100451775D01*
X55881775Y-100189218D01*
X56088066Y-99880482D01*
X56230161Y-99537434D01*
X56302600Y-99173256D01*
X56302600Y-98801944D01*
X87032600Y-98801944D01*
X87032600Y-99173256D01*
X87105039Y-99537434D01*
X87247134Y-99880482D01*
X87453425Y-100189218D01*
X87715982Y-100451775D01*
X88024718Y-100658066D01*
X88367766Y-100800161D01*
X88731944Y-100872600D01*
X89103256Y-100872600D01*
X89467434Y-100800161D01*
X89810482Y-100658066D01*
X90119218Y-100451775D01*
X90381775Y-100189218D01*
X90588066Y-99880482D01*
X90730161Y-99537434D01*
X90802600Y-99173256D01*
X90802600Y-98801944D01*
X90730161Y-98437766D01*
X90588066Y-98094718D01*
X90381775Y-97785982D01*
X90119218Y-97523425D01*
X89810482Y-97317134D01*
X89467434Y-97175039D01*
X89103256Y-97102600D01*
X88731944Y-97102600D01*
X88367766Y-97175039D01*
X88024718Y-97317134D01*
X87715982Y-97523425D01*
X87453425Y-97785982D01*
X87247134Y-98094718D01*
X87105039Y-98437766D01*
X87032600Y-98801944D01*
X56302600Y-98801944D01*
X56230161Y-98437766D01*
X56088066Y-98094718D01*
X55881775Y-97785982D01*
X55619218Y-97523425D01*
X55310482Y-97317134D01*
X54967434Y-97175039D01*
X54603256Y-97102600D01*
X54231944Y-97102600D01*
X53867766Y-97175039D01*
X53524718Y-97317134D01*
X53215982Y-97523425D01*
X52953425Y-97785982D01*
X52747134Y-98094718D01*
X52605039Y-98437766D01*
X52532600Y-98801944D01*
X52322800Y-98801944D01*
X52322800Y-92565922D01*
X52359832Y-92611045D01*
X52389786Y-92635628D01*
X53769573Y-94015416D01*
X53794151Y-94045364D01*
X53824099Y-94069942D01*
X53824102Y-94069945D01*
X53853474Y-94094050D01*
X53913682Y-94143462D01*
X54050055Y-94216354D01*
X54163587Y-94250794D01*
X54198027Y-94261241D01*
X54212405Y-94262657D01*
X54313354Y-94272600D01*
X54313361Y-94272600D01*
X54351914Y-94276397D01*
X54390467Y-94272600D01*
X58939047Y-94272600D01*
X58977600Y-94276397D01*
X59016153Y-94272600D01*
X59016161Y-94272600D01*
X59131487Y-94261241D01*
X59179528Y-94246668D01*
X59179528Y-95837600D01*
X59191788Y-95962082D01*
X59228098Y-96081780D01*
X59287063Y-96192094D01*
X59366415Y-96288785D01*
X59463106Y-96368137D01*
X59573420Y-96427102D01*
X59693118Y-96463412D01*
X59817600Y-96475672D01*
X61017600Y-96475672D01*
X61142082Y-96463412D01*
X61261780Y-96427102D01*
X61372094Y-96368137D01*
X61468785Y-96288785D01*
X61548137Y-96192094D01*
X61574292Y-96143163D01*
X61728152Y-96269433D01*
X61942700Y-96384111D01*
X62175499Y-96454730D01*
X62417600Y-96478575D01*
X62659702Y-96454730D01*
X62892501Y-96384111D01*
X63107049Y-96269433D01*
X63295102Y-96115102D01*
X63449433Y-95927049D01*
X63564111Y-95712500D01*
X63634730Y-95479701D01*
X63652600Y-95298264D01*
X63652600Y-94676935D01*
X63634730Y-94495498D01*
X63564111Y-94262699D01*
X63449433Y-94048151D01*
X63295102Y-93860098D01*
X63107048Y-93705767D01*
X62892500Y-93591089D01*
X62659701Y-93520470D01*
X62417600Y-93496625D01*
X62175498Y-93520470D01*
X61942699Y-93591089D01*
X61728151Y-93705767D01*
X61574291Y-93832036D01*
X61548137Y-93783106D01*
X61468785Y-93686415D01*
X61372094Y-93607063D01*
X61261780Y-93548098D01*
X61202600Y-93530146D01*
X61202600Y-93312757D01*
X63242758Y-91272600D01*
X65238889Y-91272600D01*
X65257826Y-91291537D01*
X65427344Y-91404805D01*
X65615702Y-91482826D01*
X65815661Y-91522600D01*
X66019539Y-91522600D01*
X66219498Y-91482826D01*
X66407856Y-91404805D01*
X66577374Y-91291537D01*
X66721537Y-91147374D01*
X66759867Y-91090010D01*
X66882604Y-91212747D01*
X66882604Y-91239529D01*
X66922378Y-91439488D01*
X67000399Y-91627846D01*
X67113667Y-91797364D01*
X67257830Y-91941527D01*
X67427348Y-92054795D01*
X67615706Y-92132816D01*
X67815665Y-92172590D01*
X68019543Y-92172590D01*
X68219502Y-92132816D01*
X68407860Y-92054795D01*
X68577378Y-91941527D01*
X68721541Y-91797364D01*
X68834809Y-91627846D01*
X68912830Y-91439488D01*
X68952604Y-91239529D01*
X68952604Y-91072588D01*
X69000445Y-91072588D01*
X70943267Y-93015410D01*
X70967850Y-93045364D01*
X71087381Y-93143462D01*
X71223754Y-93216354D01*
X71371727Y-93261242D01*
X71446640Y-93268620D01*
X71487053Y-93272600D01*
X71487058Y-93272600D01*
X71525614Y-93276397D01*
X71564170Y-93272600D01*
X74082443Y-93272600D01*
X73152443Y-94202600D01*
X73031987Y-94202600D01*
X72949433Y-94048151D01*
X72795102Y-93860098D01*
X72607048Y-93705767D01*
X72392500Y-93591089D01*
X72159701Y-93520470D01*
X71917600Y-93496625D01*
X71675498Y-93520470D01*
X71442699Y-93591089D01*
X71228151Y-93705767D01*
X71074291Y-93832036D01*
X71048137Y-93783106D01*
X70968785Y-93686415D01*
X70872094Y-93607063D01*
X70761780Y-93548098D01*
X70642082Y-93511788D01*
X70517600Y-93499528D01*
X69317600Y-93499528D01*
X69193118Y-93511788D01*
X69073420Y-93548098D01*
X68963106Y-93607063D01*
X68866415Y-93686415D01*
X68787063Y-93783106D01*
X68728098Y-93893420D01*
X68691788Y-94013118D01*
X68679528Y-94137600D01*
X68679528Y-95837600D01*
X68691788Y-95962082D01*
X68728098Y-96081780D01*
X68787063Y-96192094D01*
X68866415Y-96288785D01*
X68963106Y-96368137D01*
X69073420Y-96427102D01*
X69193118Y-96463412D01*
X69317600Y-96475672D01*
X70045514Y-96475672D01*
X70385267Y-96815425D01*
X70409846Y-96845374D01*
X70439794Y-96869952D01*
X70439797Y-96869955D01*
X70469169Y-96894060D01*
X70529377Y-96943472D01*
X70665750Y-97016364D01*
X70779282Y-97050804D01*
X70813722Y-97061251D01*
X70828100Y-97062667D01*
X70929049Y-97072610D01*
X70929056Y-97072610D01*
X70967609Y-97076407D01*
X71006162Y-97072610D01*
X73419037Y-97072610D01*
X73457590Y-97076407D01*
X73496143Y-97072610D01*
X73496151Y-97072610D01*
X73611477Y-97061251D01*
X73759450Y-97016364D01*
X73895823Y-96943472D01*
X74015354Y-96845374D01*
X74039937Y-96815420D01*
X75017757Y-95837600D01*
X80179528Y-95837600D01*
X80191788Y-95962082D01*
X80228098Y-96081780D01*
X80287063Y-96192094D01*
X80366415Y-96288785D01*
X80463106Y-96368137D01*
X80573420Y-96427102D01*
X80693118Y-96463412D01*
X80817600Y-96475672D01*
X81131850Y-96472600D01*
X81290600Y-96313850D01*
X81290600Y-95114600D01*
X80341350Y-95114600D01*
X80182600Y-95273350D01*
X80179528Y-95837600D01*
X75017757Y-95837600D01*
X76717757Y-94137600D01*
X80179528Y-94137600D01*
X80182600Y-94701850D01*
X80341350Y-94860600D01*
X81290600Y-94860600D01*
X81290600Y-93661350D01*
X81131850Y-93502600D01*
X80817600Y-93499528D01*
X80693118Y-93511788D01*
X80573420Y-93548098D01*
X80463106Y-93607063D01*
X80366415Y-93686415D01*
X80287063Y-93783106D01*
X80228098Y-93893420D01*
X80191788Y-94013118D01*
X80179528Y-94137600D01*
X76717757Y-94137600D01*
X78723166Y-92132192D01*
X78793118Y-92153412D01*
X78917600Y-92165672D01*
X80217600Y-92165672D01*
X80342082Y-92153412D01*
X80461780Y-92117102D01*
X80572094Y-92058137D01*
X80668785Y-91978785D01*
X80748137Y-91882094D01*
X80807102Y-91771780D01*
X80843412Y-91652082D01*
X80855672Y-91527600D01*
X80855672Y-90727600D01*
X80843412Y-90603118D01*
X80808370Y-90487600D01*
X80843412Y-90372082D01*
X80855672Y-90247600D01*
X80855672Y-89447600D01*
X80843412Y-89323118D01*
X80807102Y-89203420D01*
X80748137Y-89093106D01*
X80668785Y-88996415D01*
X80572094Y-88917063D01*
X80461780Y-88858098D01*
X80342082Y-88821788D01*
X80217600Y-88809528D01*
X79205829Y-88809528D01*
X79633685Y-88381672D01*
X80146000Y-88381672D01*
X80270482Y-88369412D01*
X80390180Y-88333102D01*
X80500494Y-88274137D01*
X80597185Y-88194785D01*
X80676537Y-88098094D01*
X80735502Y-87987780D01*
X80746000Y-87953173D01*
X80756498Y-87987780D01*
X80815463Y-88098094D01*
X80894815Y-88194785D01*
X80991506Y-88274137D01*
X81101820Y-88333102D01*
X81221518Y-88369412D01*
X81346000Y-88381672D01*
X82373914Y-88381672D01*
X82632601Y-88640359D01*
X82632600Y-93784183D01*
X82574291Y-93832036D01*
X82548137Y-93783106D01*
X82468785Y-93686415D01*
X82372094Y-93607063D01*
X82261780Y-93548098D01*
X82142082Y-93511788D01*
X82017600Y-93499528D01*
X81703350Y-93502600D01*
X81544600Y-93661350D01*
X81544600Y-94860600D01*
X81564600Y-94860600D01*
X81564600Y-95114600D01*
X81544600Y-95114600D01*
X81544600Y-96313850D01*
X81703350Y-96472600D01*
X82017600Y-96475672D01*
X82142082Y-96463412D01*
X82261780Y-96427102D01*
X82372094Y-96368137D01*
X82468785Y-96288785D01*
X82548137Y-96192094D01*
X82574292Y-96143163D01*
X82728152Y-96269433D01*
X82942700Y-96384111D01*
X83175499Y-96454730D01*
X83417600Y-96478575D01*
X83659702Y-96454730D01*
X83892501Y-96384111D01*
X84107049Y-96269433D01*
X84295102Y-96115102D01*
X84449433Y-95927049D01*
X84564111Y-95712500D01*
X84634730Y-95479701D01*
X84652600Y-95298264D01*
X84652600Y-94676935D01*
X84634730Y-94495498D01*
X84564111Y-94262699D01*
X84449433Y-94048151D01*
X84295102Y-93860098D01*
X84202600Y-93784184D01*
X84202600Y-88353752D01*
X84206397Y-88315199D01*
X84202600Y-88276646D01*
X84202600Y-88276639D01*
X84191241Y-88161313D01*
X84184614Y-88139465D01*
X84171714Y-88096941D01*
X84146354Y-88013340D01*
X84073462Y-87876967D01*
X83975364Y-87757436D01*
X83945415Y-87732858D01*
X83484072Y-87271514D01*
X83484072Y-86778599D01*
X84453048Y-86778599D01*
X84491601Y-86782396D01*
X84530154Y-86778599D01*
X84530162Y-86778599D01*
X84645488Y-86767240D01*
X84793461Y-86722353D01*
X84929834Y-86649461D01*
X85049365Y-86551363D01*
X85073948Y-86521409D01*
X85078731Y-86516626D01*
X85126489Y-86531113D01*
X85344650Y-86552600D01*
X85490550Y-86552600D01*
X85708711Y-86531113D01*
X85988634Y-86446199D01*
X86246614Y-86308306D01*
X86472734Y-86122734D01*
X86658306Y-85896614D01*
X86689184Y-85838844D01*
X86860012Y-86067869D01*
X87076245Y-86262778D01*
X87326348Y-86411757D01*
X87600709Y-86509081D01*
X87830600Y-86388414D01*
X87830600Y-85194600D01*
X88084600Y-85194600D01*
X88084600Y-86388414D01*
X88314491Y-86509081D01*
X88588852Y-86411757D01*
X88838955Y-86262778D01*
X89055188Y-86067869D01*
X89229241Y-85834520D01*
X89354425Y-85571699D01*
X89399076Y-85424490D01*
X89277755Y-85194600D01*
X88084600Y-85194600D01*
X87830600Y-85194600D01*
X87810600Y-85194600D01*
X87810600Y-84940600D01*
X87830600Y-84940600D01*
X87830600Y-84920600D01*
X88084600Y-84920600D01*
X88084600Y-84940600D01*
X89277755Y-84940600D01*
X89399076Y-84710710D01*
X89354425Y-84563501D01*
X89229241Y-84300680D01*
X89055188Y-84067331D01*
X88838955Y-83872422D01*
X88722077Y-83802801D01*
X88786614Y-83768306D01*
X89012734Y-83582734D01*
X89198306Y-83356614D01*
X89336199Y-83098634D01*
X89421113Y-82818711D01*
X89449785Y-82527600D01*
X89421113Y-82236489D01*
X89336199Y-81956566D01*
X89198306Y-81698586D01*
X89012734Y-81472466D01*
X88786614Y-81286894D01*
X88731809Y-81257600D01*
X88786614Y-81228306D01*
X89012734Y-81042734D01*
X89198306Y-80816614D01*
X89336199Y-80558634D01*
X89421113Y-80278711D01*
X89449785Y-79987600D01*
X89421113Y-79696489D01*
X89336199Y-79416566D01*
X89198306Y-79158586D01*
X89012734Y-78932466D01*
X88786614Y-78746894D01*
X88528634Y-78609001D01*
X88248711Y-78524087D01*
X88030550Y-78502600D01*
X87884650Y-78502600D01*
X87666489Y-78524087D01*
X87386566Y-78609001D01*
X87128586Y-78746894D01*
X86902466Y-78932466D01*
X86877993Y-78962287D01*
X86857102Y-78893420D01*
X86798137Y-78783106D01*
X86718785Y-78686415D01*
X86696901Y-78668456D01*
X89075412Y-76289945D01*
X89105365Y-76265363D01*
X89203463Y-76145832D01*
X89276355Y-76009459D01*
X89294683Y-75949040D01*
X89321243Y-75861486D01*
X89331351Y-75758846D01*
X89332601Y-75746160D01*
X89332601Y-75746155D01*
X89336398Y-75707599D01*
X89332601Y-75669043D01*
X89332601Y-70346072D01*
X90329200Y-70346072D01*
X90453682Y-70333812D01*
X90573380Y-70297502D01*
X90683694Y-70238537D01*
X90780385Y-70159185D01*
X90859737Y-70062494D01*
X90891053Y-70003907D01*
X90933152Y-99686173D01*
G36*
X62876242Y-88565660D02*
G01*
X62865740Y-88568846D01*
X62729367Y-88641738D01*
X62609836Y-88739836D01*
X62585255Y-88769788D01*
X58652443Y-92702600D01*
X58208475Y-92702600D01*
X58738485Y-92172590D01*
X58765267Y-92172590D01*
X58965226Y-92132816D01*
X59153584Y-92054795D01*
X59323102Y-91941527D01*
X59467265Y-91797364D01*
X59580533Y-91627846D01*
X59658554Y-91439488D01*
X59698328Y-91239529D01*
X59698328Y-91035651D01*
X59658554Y-90835692D01*
X59580533Y-90647334D01*
X59467265Y-90477816D01*
X59323102Y-90333653D01*
X59153584Y-90220385D01*
X58965226Y-90142364D01*
X58765267Y-90102590D01*
X58561389Y-90102590D01*
X58361430Y-90142364D01*
X58173072Y-90220385D01*
X58003554Y-90333653D01*
X57859391Y-90477816D01*
X57746123Y-90647334D01*
X57668102Y-90835692D01*
X57628328Y-91035651D01*
X57628328Y-91062433D01*
X57299383Y-91391378D01*
X57237755Y-91274600D01*
X56044600Y-91274600D01*
X56044600Y-91294600D01*
X55790600Y-91294600D01*
X55790600Y-91274600D01*
X55770600Y-91274600D01*
X55770600Y-91020600D01*
X55790600Y-91020600D01*
X55790600Y-91000600D01*
X56044600Y-91000600D01*
X56044600Y-91020600D01*
X57237755Y-91020600D01*
X57359076Y-90790710D01*
X57314425Y-90643501D01*
X57189241Y-90380680D01*
X57015188Y-90147331D01*
X56798955Y-89952422D01*
X56682077Y-89882801D01*
X56746614Y-89848306D01*
X56972734Y-89662734D01*
X57158306Y-89436614D01*
X57296199Y-89178634D01*
X57381113Y-88898711D01*
X57409785Y-88607600D01*
X57403383Y-88542601D01*
X62869247Y-88542601D01*
X62876242Y-88565660D01*
X62876242Y-88565660D01*
G37*
X62876242Y-88565660D02*
X62865740Y-88568846D01*
X62729367Y-88641738D01*
X62609836Y-88739836D01*
X62585255Y-88769788D01*
X58652443Y-92702600D01*
X58208475Y-92702600D01*
X58738485Y-92172590D01*
X58765267Y-92172590D01*
X58965226Y-92132816D01*
X59153584Y-92054795D01*
X59323102Y-91941527D01*
X59467265Y-91797364D01*
X59580533Y-91627846D01*
X59658554Y-91439488D01*
X59698328Y-91239529D01*
X59698328Y-91035651D01*
X59658554Y-90835692D01*
X59580533Y-90647334D01*
X59467265Y-90477816D01*
X59323102Y-90333653D01*
X59153584Y-90220385D01*
X58965226Y-90142364D01*
X58765267Y-90102590D01*
X58561389Y-90102590D01*
X58361430Y-90142364D01*
X58173072Y-90220385D01*
X58003554Y-90333653D01*
X57859391Y-90477816D01*
X57746123Y-90647334D01*
X57668102Y-90835692D01*
X57628328Y-91035651D01*
X57628328Y-91062433D01*
X57299383Y-91391378D01*
X57237755Y-91274600D01*
X56044600Y-91274600D01*
X56044600Y-91294600D01*
X55790600Y-91294600D01*
X55790600Y-91274600D01*
X55770600Y-91274600D01*
X55770600Y-91020600D01*
X55790600Y-91020600D01*
X55790600Y-91000600D01*
X56044600Y-91000600D01*
X56044600Y-91020600D01*
X57237755Y-91020600D01*
X57359076Y-90790710D01*
X57314425Y-90643501D01*
X57189241Y-90380680D01*
X57015188Y-90147331D01*
X56798955Y-89952422D01*
X56682077Y-89882801D01*
X56746614Y-89848306D01*
X56972734Y-89662734D01*
X57158306Y-89436614D01*
X57296199Y-89178634D01*
X57381113Y-88898711D01*
X57409785Y-88607600D01*
X57403383Y-88542601D01*
X62869247Y-88542601D01*
X62876242Y-88565660D01*
G36*
X78107928Y-84718600D02*
G01*
X78120188Y-84843082D01*
X78156498Y-84962780D01*
X78215463Y-85073094D01*
X78294815Y-85169785D01*
X78391506Y-85249137D01*
X78501820Y-85308102D01*
X78621518Y-85344412D01*
X78746000Y-85356672D01*
X80134696Y-85356672D01*
X80119114Y-85369460D01*
X80068188Y-85411254D01*
X80068185Y-85411257D01*
X80038237Y-85435835D01*
X80013659Y-85465784D01*
X79673914Y-85805528D01*
X78646000Y-85805528D01*
X78521518Y-85817788D01*
X78401820Y-85854098D01*
X78291506Y-85913063D01*
X78194815Y-85992415D01*
X78115463Y-86089106D01*
X78056498Y-86199420D01*
X78020188Y-86319118D01*
X78007928Y-86443600D01*
X78007928Y-87743600D01*
X78011829Y-87783214D01*
X74467147Y-91327897D01*
X74393850Y-91254600D01*
X73394600Y-91254600D01*
X73394600Y-91274600D01*
X73140600Y-91274600D01*
X73140600Y-91254600D01*
X72141350Y-91254600D01*
X71982600Y-91413350D01*
X71979528Y-91527600D01*
X71991788Y-91652082D01*
X72007112Y-91702600D01*
X71850771Y-91702600D01*
X70382387Y-90234216D01*
X70492082Y-90223412D01*
X70611780Y-90187102D01*
X70722094Y-90128137D01*
X70818785Y-90048785D01*
X70898137Y-89952094D01*
X70957102Y-89841780D01*
X70993412Y-89722082D01*
X71005672Y-89597600D01*
X71005672Y-89469685D01*
X71338455Y-89136902D01*
X71369501Y-89130727D01*
X71557859Y-89052706D01*
X71727377Y-88939438D01*
X71871540Y-88795275D01*
X71984808Y-88625757D01*
X72062829Y-88437399D01*
X72102603Y-88237440D01*
X72102603Y-88033562D01*
X72062829Y-87833603D01*
X71990934Y-87660034D01*
X72078013Y-87529710D01*
X72156034Y-87341352D01*
X72195808Y-87141393D01*
X72195808Y-86937515D01*
X72156034Y-86737556D01*
X72078013Y-86549198D01*
X71964745Y-86379680D01*
X71820582Y-86235517D01*
X71651064Y-86122249D01*
X71462706Y-86044228D01*
X71262747Y-86004454D01*
X71100404Y-86004454D01*
X71032841Y-85983959D01*
X70973385Y-85978103D01*
X70993412Y-85912082D01*
X71005672Y-85787600D01*
X71005672Y-85187600D01*
X70994554Y-85074711D01*
X71935258Y-86015415D01*
X71959836Y-86045364D01*
X71989784Y-86069942D01*
X71989787Y-86069945D01*
X72013135Y-86089106D01*
X72079367Y-86143462D01*
X72185703Y-86200299D01*
X72191788Y-86262082D01*
X72228098Y-86381780D01*
X72287063Y-86492094D01*
X72366415Y-86588785D01*
X72463106Y-86668137D01*
X72573420Y-86727102D01*
X72693118Y-86763412D01*
X72817600Y-86775672D01*
X74317600Y-86775672D01*
X74442082Y-86763412D01*
X74561780Y-86727102D01*
X74672094Y-86668137D01*
X74768785Y-86588785D01*
X74848137Y-86492094D01*
X74907102Y-86381780D01*
X74917600Y-86347173D01*
X74928098Y-86381780D01*
X74987063Y-86492094D01*
X75066415Y-86588785D01*
X75163106Y-86668137D01*
X75273420Y-86727102D01*
X75276889Y-86728154D01*
X73689790Y-88315253D01*
X73659836Y-88339836D01*
X73561738Y-88459368D01*
X73488846Y-88595741D01*
X73443959Y-88743714D01*
X73437477Y-88809528D01*
X72617600Y-88809528D01*
X72493118Y-88821788D01*
X72373420Y-88858098D01*
X72263106Y-88917063D01*
X72166415Y-88996415D01*
X72087063Y-89093106D01*
X72028098Y-89203420D01*
X71991788Y-89323118D01*
X71979528Y-89447600D01*
X71979528Y-90247600D01*
X71991788Y-90372082D01*
X72026830Y-90487600D01*
X71991788Y-90603118D01*
X71979528Y-90727600D01*
X71982600Y-90841850D01*
X72141350Y-91000600D01*
X73140600Y-91000600D01*
X73140600Y-90980600D01*
X73394600Y-90980600D01*
X73394600Y-91000600D01*
X74393850Y-91000600D01*
X74552600Y-90841850D01*
X74555672Y-90727600D01*
X74543412Y-90603118D01*
X74508370Y-90487600D01*
X74543412Y-90372082D01*
X74555672Y-90247600D01*
X74555672Y-89919686D01*
X74745415Y-89729943D01*
X74775364Y-89705364D01*
X74803369Y-89671241D01*
X74814361Y-89657847D01*
X74873462Y-89585833D01*
X74946354Y-89449460D01*
X74980664Y-89336354D01*
X74991241Y-89301488D01*
X74998601Y-89226756D01*
X76795410Y-87429947D01*
X76825364Y-87405364D01*
X76923462Y-87285833D01*
X76996354Y-87149460D01*
X77004502Y-87122600D01*
X77041242Y-87001487D01*
X77048693Y-86925828D01*
X77052600Y-86886161D01*
X77052600Y-86886156D01*
X77056397Y-86847600D01*
X77052600Y-86809044D01*
X77052600Y-86772225D01*
X77142082Y-86763412D01*
X77261780Y-86727102D01*
X77372094Y-86668137D01*
X77468785Y-86588785D01*
X77548137Y-86492094D01*
X77607102Y-86381780D01*
X77643412Y-86262082D01*
X77655672Y-86137600D01*
X77655672Y-84837600D01*
X77643412Y-84713118D01*
X77607102Y-84593420D01*
X77548137Y-84483106D01*
X77468785Y-84386415D01*
X77372094Y-84307063D01*
X77261780Y-84248098D01*
X77142082Y-84211788D01*
X77017600Y-84199528D01*
X75517600Y-84199528D01*
X75393118Y-84211788D01*
X75273420Y-84248098D01*
X75163106Y-84307063D01*
X75066415Y-84386415D01*
X74987063Y-84483106D01*
X74928098Y-84593420D01*
X74917600Y-84628027D01*
X74907102Y-84593420D01*
X74848137Y-84483106D01*
X74768785Y-84386415D01*
X74672094Y-84307063D01*
X74561780Y-84248098D01*
X74442082Y-84211788D01*
X74317600Y-84199528D01*
X72817600Y-84199528D01*
X72693118Y-84211788D01*
X72573420Y-84248098D01*
X72463106Y-84307063D01*
X72454381Y-84314223D01*
X71872757Y-83732600D01*
X78107928Y-83732600D01*
X78107928Y-84718600D01*
X78107928Y-84718600D01*
G37*
X78107928Y-84718600D02*
X78120188Y-84843082D01*
X78156498Y-84962780D01*
X78215463Y-85073094D01*
X78294815Y-85169785D01*
X78391506Y-85249137D01*
X78501820Y-85308102D01*
X78621518Y-85344412D01*
X78746000Y-85356672D01*
X80134696Y-85356672D01*
X80119114Y-85369460D01*
X80068188Y-85411254D01*
X80068185Y-85411257D01*
X80038237Y-85435835D01*
X80013659Y-85465784D01*
X79673914Y-85805528D01*
X78646000Y-85805528D01*
X78521518Y-85817788D01*
X78401820Y-85854098D01*
X78291506Y-85913063D01*
X78194815Y-85992415D01*
X78115463Y-86089106D01*
X78056498Y-86199420D01*
X78020188Y-86319118D01*
X78007928Y-86443600D01*
X78007928Y-87743600D01*
X78011829Y-87783214D01*
X74467147Y-91327897D01*
X74393850Y-91254600D01*
X73394600Y-91254600D01*
X73394600Y-91274600D01*
X73140600Y-91274600D01*
X73140600Y-91254600D01*
X72141350Y-91254600D01*
X71982600Y-91413350D01*
X71979528Y-91527600D01*
X71991788Y-91652082D01*
X72007112Y-91702600D01*
X71850771Y-91702600D01*
X70382387Y-90234216D01*
X70492082Y-90223412D01*
X70611780Y-90187102D01*
X70722094Y-90128137D01*
X70818785Y-90048785D01*
X70898137Y-89952094D01*
X70957102Y-89841780D01*
X70993412Y-89722082D01*
X71005672Y-89597600D01*
X71005672Y-89469685D01*
X71338455Y-89136902D01*
X71369501Y-89130727D01*
X71557859Y-89052706D01*
X71727377Y-88939438D01*
X71871540Y-88795275D01*
X71984808Y-88625757D01*
X72062829Y-88437399D01*
X72102603Y-88237440D01*
X72102603Y-88033562D01*
X72062829Y-87833603D01*
X71990934Y-87660034D01*
X72078013Y-87529710D01*
X72156034Y-87341352D01*
X72195808Y-87141393D01*
X72195808Y-86937515D01*
X72156034Y-86737556D01*
X72078013Y-86549198D01*
X71964745Y-86379680D01*
X71820582Y-86235517D01*
X71651064Y-86122249D01*
X71462706Y-86044228D01*
X71262747Y-86004454D01*
X71100404Y-86004454D01*
X71032841Y-85983959D01*
X70973385Y-85978103D01*
X70993412Y-85912082D01*
X71005672Y-85787600D01*
X71005672Y-85187600D01*
X70994554Y-85074711D01*
X71935258Y-86015415D01*
X71959836Y-86045364D01*
X71989784Y-86069942D01*
X71989787Y-86069945D01*
X72013135Y-86089106D01*
X72079367Y-86143462D01*
X72185703Y-86200299D01*
X72191788Y-86262082D01*
X72228098Y-86381780D01*
X72287063Y-86492094D01*
X72366415Y-86588785D01*
X72463106Y-86668137D01*
X72573420Y-86727102D01*
X72693118Y-86763412D01*
X72817600Y-86775672D01*
X74317600Y-86775672D01*
X74442082Y-86763412D01*
X74561780Y-86727102D01*
X74672094Y-86668137D01*
X74768785Y-86588785D01*
X74848137Y-86492094D01*
X74907102Y-86381780D01*
X74917600Y-86347173D01*
X74928098Y-86381780D01*
X74987063Y-86492094D01*
X75066415Y-86588785D01*
X75163106Y-86668137D01*
X75273420Y-86727102D01*
X75276889Y-86728154D01*
X73689790Y-88315253D01*
X73659836Y-88339836D01*
X73561738Y-88459368D01*
X73488846Y-88595741D01*
X73443959Y-88743714D01*
X73437477Y-88809528D01*
X72617600Y-88809528D01*
X72493118Y-88821788D01*
X72373420Y-88858098D01*
X72263106Y-88917063D01*
X72166415Y-88996415D01*
X72087063Y-89093106D01*
X72028098Y-89203420D01*
X71991788Y-89323118D01*
X71979528Y-89447600D01*
X71979528Y-90247600D01*
X71991788Y-90372082D01*
X72026830Y-90487600D01*
X71991788Y-90603118D01*
X71979528Y-90727600D01*
X71982600Y-90841850D01*
X72141350Y-91000600D01*
X73140600Y-91000600D01*
X73140600Y-90980600D01*
X73394600Y-90980600D01*
X73394600Y-91000600D01*
X74393850Y-91000600D01*
X74552600Y-90841850D01*
X74555672Y-90727600D01*
X74543412Y-90603118D01*
X74508370Y-90487600D01*
X74543412Y-90372082D01*
X74555672Y-90247600D01*
X74555672Y-89919686D01*
X74745415Y-89729943D01*
X74775364Y-89705364D01*
X74803369Y-89671241D01*
X74814361Y-89657847D01*
X74873462Y-89585833D01*
X74946354Y-89449460D01*
X74980664Y-89336354D01*
X74991241Y-89301488D01*
X74998601Y-89226756D01*
X76795410Y-87429947D01*
X76825364Y-87405364D01*
X76923462Y-87285833D01*
X76996354Y-87149460D01*
X77004502Y-87122600D01*
X77041242Y-87001487D01*
X77048693Y-86925828D01*
X77052600Y-86886161D01*
X77052600Y-86886156D01*
X77056397Y-86847600D01*
X77052600Y-86809044D01*
X77052600Y-86772225D01*
X77142082Y-86763412D01*
X77261780Y-86727102D01*
X77372094Y-86668137D01*
X77468785Y-86588785D01*
X77548137Y-86492094D01*
X77607102Y-86381780D01*
X77643412Y-86262082D01*
X77655672Y-86137600D01*
X77655672Y-84837600D01*
X77643412Y-84713118D01*
X77607102Y-84593420D01*
X77548137Y-84483106D01*
X77468785Y-84386415D01*
X77372094Y-84307063D01*
X77261780Y-84248098D01*
X77142082Y-84211788D01*
X77017600Y-84199528D01*
X75517600Y-84199528D01*
X75393118Y-84211788D01*
X75273420Y-84248098D01*
X75163106Y-84307063D01*
X75066415Y-84386415D01*
X74987063Y-84483106D01*
X74928098Y-84593420D01*
X74917600Y-84628027D01*
X74907102Y-84593420D01*
X74848137Y-84483106D01*
X74768785Y-84386415D01*
X74672094Y-84307063D01*
X74561780Y-84248098D01*
X74442082Y-84211788D01*
X74317600Y-84199528D01*
X72817600Y-84199528D01*
X72693118Y-84211788D01*
X72573420Y-84248098D01*
X72463106Y-84307063D01*
X72454381Y-84314223D01*
X71872757Y-83732600D01*
X78107928Y-83732600D01*
X78107928Y-84718600D01*
G36*
X80794815Y-85169785D02*
G01*
X80842110Y-85208599D01*
X80649890Y-85208599D01*
X80697185Y-85169785D01*
X80746000Y-85110304D01*
X80794815Y-85169785D01*
X80794815Y-85169785D01*
G37*
X80794815Y-85169785D02*
X80842110Y-85208599D01*
X80649890Y-85208599D01*
X80697185Y-85169785D01*
X80746000Y-85110304D01*
X80794815Y-85169785D01*
G36*
X89642910Y-55615163D02*
G01*
X89934283Y-55711601D01*
X90201374Y-55862798D01*
X90434012Y-56062993D01*
X90623333Y-56304561D01*
X90762128Y-56578301D01*
X90846052Y-56877138D01*
X90872866Y-57180979D01*
X90876957Y-60065322D01*
X90859737Y-60033106D01*
X90780385Y-59936415D01*
X90683694Y-59857063D01*
X90573380Y-59798098D01*
X90453682Y-59761788D01*
X90329200Y-59749528D01*
X89329200Y-59749528D01*
X89204718Y-59761788D01*
X89085020Y-59798098D01*
X88974706Y-59857063D01*
X88878015Y-59936415D01*
X88798663Y-60033106D01*
X88739698Y-60143420D01*
X88703388Y-60263118D01*
X88691128Y-60387600D01*
X88691128Y-60750971D01*
X85995901Y-58055744D01*
X86048137Y-57992094D01*
X86107102Y-57881780D01*
X86143412Y-57762082D01*
X86155672Y-57637600D01*
X86155672Y-57301944D01*
X87032600Y-57301944D01*
X87032600Y-57673256D01*
X87105039Y-58037434D01*
X87247134Y-58380482D01*
X87453425Y-58689218D01*
X87715982Y-58951775D01*
X88024718Y-59158066D01*
X88367766Y-59300161D01*
X88731944Y-59372600D01*
X89103256Y-59372600D01*
X89467434Y-59300161D01*
X89810482Y-59158066D01*
X90119218Y-58951775D01*
X90381775Y-58689218D01*
X90588066Y-58380482D01*
X90730161Y-58037434D01*
X90802600Y-57673256D01*
X90802600Y-57301944D01*
X90730161Y-56937766D01*
X90588066Y-56594718D01*
X90381775Y-56285982D01*
X90119218Y-56023425D01*
X89810482Y-55817134D01*
X89467434Y-55675039D01*
X89103256Y-55602600D01*
X88731944Y-55602600D01*
X88367766Y-55675039D01*
X88024718Y-55817134D01*
X87715982Y-56023425D01*
X87453425Y-56285982D01*
X87247134Y-56594718D01*
X87105039Y-56937766D01*
X87032600Y-57301944D01*
X86155672Y-57301944D01*
X86155672Y-56337600D01*
X86143412Y-56213118D01*
X86107102Y-56093420D01*
X86048137Y-55983106D01*
X85968785Y-55886415D01*
X85872094Y-55807063D01*
X85761780Y-55748098D01*
X85642082Y-55711788D01*
X85517600Y-55699528D01*
X84017600Y-55699528D01*
X83893118Y-55711788D01*
X83773420Y-55748098D01*
X83663106Y-55807063D01*
X83566415Y-55886415D01*
X83487063Y-55983106D01*
X83428098Y-56093420D01*
X83417600Y-56128027D01*
X83407102Y-56093420D01*
X83348137Y-55983106D01*
X83268785Y-55886415D01*
X83172094Y-55807063D01*
X83061780Y-55748098D01*
X82942082Y-55711788D01*
X82817600Y-55699528D01*
X81317600Y-55699528D01*
X81193118Y-55711788D01*
X81073420Y-55748098D01*
X80963106Y-55807063D01*
X80866415Y-55886415D01*
X80787063Y-55983106D01*
X80728098Y-56093420D01*
X80694979Y-56202600D01*
X78306887Y-56202600D01*
X78273768Y-56093420D01*
X78214803Y-55983106D01*
X78135451Y-55886415D01*
X78038760Y-55807063D01*
X77928446Y-55748098D01*
X77808748Y-55711788D01*
X77684266Y-55699528D01*
X76184266Y-55699528D01*
X76059784Y-55711788D01*
X75940086Y-55748098D01*
X75829772Y-55807063D01*
X75733081Y-55886415D01*
X75653729Y-55983106D01*
X75594764Y-56093420D01*
X75584266Y-56128027D01*
X75573768Y-56093420D01*
X75514803Y-55983106D01*
X75435451Y-55886415D01*
X75338760Y-55807063D01*
X75228446Y-55748098D01*
X75108748Y-55711788D01*
X74984266Y-55699528D01*
X74520016Y-55702600D01*
X74361266Y-55861350D01*
X74361266Y-56860600D01*
X74381266Y-56860600D01*
X74381266Y-57114600D01*
X74361266Y-57114600D01*
X74361266Y-58113850D01*
X74520016Y-58272600D01*
X74984266Y-58275672D01*
X75108748Y-58263412D01*
X75228446Y-58227102D01*
X75338760Y-58168137D01*
X75435451Y-58088785D01*
X75514803Y-57992094D01*
X75573768Y-57881780D01*
X75584266Y-57847173D01*
X75594764Y-57881780D01*
X75653729Y-57992094D01*
X75733081Y-58088785D01*
X75829772Y-58168137D01*
X75940086Y-58227102D01*
X76059784Y-58263412D01*
X76184266Y-58275672D01*
X77684266Y-58275672D01*
X77808748Y-58263412D01*
X77928446Y-58227102D01*
X78038760Y-58168137D01*
X78135451Y-58088785D01*
X78214803Y-57992094D01*
X78273768Y-57881780D01*
X78306887Y-57772600D01*
X80694979Y-57772600D01*
X80728098Y-57881780D01*
X80787063Y-57992094D01*
X80866415Y-58088785D01*
X80963106Y-58168137D01*
X81073420Y-58227102D01*
X81193118Y-58263412D01*
X81317600Y-58275672D01*
X82817600Y-58275672D01*
X82942082Y-58263412D01*
X83061780Y-58227102D01*
X83172094Y-58168137D01*
X83268785Y-58088785D01*
X83348137Y-57992094D01*
X83407102Y-57881780D01*
X83417600Y-57847173D01*
X83428098Y-57881780D01*
X83487063Y-57992094D01*
X83566415Y-58088785D01*
X83663106Y-58168137D01*
X83773420Y-58227102D01*
X83893118Y-58263412D01*
X84017600Y-58275672D01*
X84058202Y-58275672D01*
X84111738Y-58375832D01*
X84209836Y-58495364D01*
X84239790Y-58519947D01*
X87762602Y-62042759D01*
X87762602Y-63359705D01*
X87432850Y-63223118D01*
X87078332Y-63152600D01*
X86716868Y-63152600D01*
X86362350Y-63223118D01*
X86028401Y-63361444D01*
X85727856Y-63562262D01*
X85472262Y-63817856D01*
X85271444Y-64118401D01*
X85133118Y-64452350D01*
X85062600Y-64806868D01*
X85062600Y-65069468D01*
X84250221Y-65881847D01*
X84129200Y-65869928D01*
X83129200Y-65869928D01*
X83004718Y-65882188D01*
X82885020Y-65918498D01*
X82774706Y-65977463D01*
X82678015Y-66056815D01*
X82598663Y-66153506D01*
X82539698Y-66263820D01*
X82503388Y-66383518D01*
X82491128Y-66508000D01*
X82491128Y-68083439D01*
X82488709Y-68108000D01*
X82491128Y-68132561D01*
X82491128Y-69708000D01*
X82503388Y-69832482D01*
X82539698Y-69952180D01*
X82598663Y-70062494D01*
X82678015Y-70159185D01*
X82774706Y-70238537D01*
X82885020Y-70297502D01*
X83004718Y-70333812D01*
X83129200Y-70346072D01*
X84129200Y-70346072D01*
X84253682Y-70333812D01*
X84373380Y-70297502D01*
X84483694Y-70238537D01*
X84580385Y-70159185D01*
X84659737Y-70062494D01*
X84718702Y-69952180D01*
X84755012Y-69832482D01*
X84767272Y-69708000D01*
X84767272Y-68575059D01*
X86552439Y-66789893D01*
X86716868Y-66822600D01*
X87078332Y-66822600D01*
X87432850Y-66752082D01*
X87762602Y-66615495D01*
X87762601Y-75382442D01*
X84889785Y-78255258D01*
X84859837Y-78279836D01*
X84835259Y-78309784D01*
X84835255Y-78309788D01*
X84803683Y-78348259D01*
X84761739Y-78399367D01*
X84723805Y-78470338D01*
X84708202Y-78499528D01*
X84567600Y-78499528D01*
X84443118Y-78511788D01*
X84323420Y-78548098D01*
X84213106Y-78607063D01*
X84116415Y-78686415D01*
X84037063Y-78783106D01*
X83978098Y-78893420D01*
X83952600Y-78977476D01*
X83952600Y-78885661D01*
X83912826Y-78685702D01*
X83834805Y-78497344D01*
X83721537Y-78327826D01*
X83577374Y-78183663D01*
X83407856Y-78070395D01*
X83219498Y-77992374D01*
X83019539Y-77952600D01*
X82815661Y-77952600D01*
X82615702Y-77992374D01*
X82427344Y-78070395D01*
X82257826Y-78183663D01*
X82113663Y-78327826D01*
X82000395Y-78497344D01*
X81922374Y-78685702D01*
X81882600Y-78885661D01*
X81882600Y-79089539D01*
X81922374Y-79289498D01*
X82000395Y-79477856D01*
X82113663Y-79647374D01*
X82132600Y-79666311D01*
X82132600Y-79989047D01*
X82128803Y-80027600D01*
X82132600Y-80066153D01*
X82132600Y-80066160D01*
X82143959Y-80181486D01*
X82188846Y-80329459D01*
X82261738Y-80465832D01*
X82359836Y-80585364D01*
X82389790Y-80609947D01*
X83968574Y-82188732D01*
X83954087Y-82236489D01*
X83925415Y-82527600D01*
X83954087Y-82818711D01*
X84039001Y-83098634D01*
X84176894Y-83356614D01*
X84362466Y-83582734D01*
X84588586Y-83768306D01*
X84643391Y-83797600D01*
X84588586Y-83826894D01*
X84362466Y-84012466D01*
X84176894Y-84238586D01*
X84039001Y-84496566D01*
X83954087Y-84776489D01*
X83925415Y-85067600D01*
X83939302Y-85208599D01*
X83149890Y-85208599D01*
X83197185Y-85169785D01*
X83276537Y-85073094D01*
X83335502Y-84962780D01*
X83371812Y-84843082D01*
X83384072Y-84718600D01*
X83381000Y-84379350D01*
X83222250Y-84220600D01*
X82123000Y-84220600D01*
X82123000Y-84240600D01*
X81869000Y-84240600D01*
X81869000Y-84220600D01*
X81849000Y-84220600D01*
X81849000Y-83966600D01*
X81869000Y-83966600D01*
X81869000Y-83946600D01*
X82123000Y-83946600D01*
X82123000Y-83966600D01*
X83222250Y-83966600D01*
X83381000Y-83807850D01*
X83384072Y-83468600D01*
X83371812Y-83344118D01*
X83335502Y-83224420D01*
X83276537Y-83114106D01*
X83197185Y-83017415D01*
X83100494Y-82938063D01*
X82990180Y-82879098D01*
X82870482Y-82842788D01*
X82746000Y-82830528D01*
X82594171Y-82831533D01*
X82626537Y-82792094D01*
X82685502Y-82681780D01*
X82721812Y-82562082D01*
X82734072Y-82437600D01*
X82731000Y-82273350D01*
X82572250Y-82114600D01*
X81823000Y-82114600D01*
X81823000Y-82134600D01*
X81569000Y-82134600D01*
X81569000Y-82114600D01*
X81549000Y-82114600D01*
X81549000Y-81860600D01*
X81569000Y-81860600D01*
X81569000Y-81061350D01*
X81823000Y-81061350D01*
X81823000Y-81860600D01*
X82572250Y-81860600D01*
X82731000Y-81701850D01*
X82734072Y-81537600D01*
X82721812Y-81413118D01*
X82685502Y-81293420D01*
X82626537Y-81183106D01*
X82547185Y-81086415D01*
X82450494Y-81007063D01*
X82340180Y-80948098D01*
X82220482Y-80911788D01*
X82096000Y-80899528D01*
X81981750Y-80902600D01*
X81823000Y-81061350D01*
X81569000Y-81061350D01*
X81484393Y-80976743D01*
X81500494Y-80968137D01*
X81597185Y-80888785D01*
X81676537Y-80792094D01*
X81735502Y-80681780D01*
X81771812Y-80562082D01*
X81784072Y-80437600D01*
X81784072Y-79537600D01*
X81771812Y-79413118D01*
X81735502Y-79293420D01*
X81676537Y-79183106D01*
X81597185Y-79086415D01*
X81500494Y-79007063D01*
X81390180Y-78948098D01*
X81270482Y-78911788D01*
X81146000Y-78899528D01*
X80346000Y-78899528D01*
X80221518Y-78911788D01*
X80101820Y-78948098D01*
X79991506Y-79007063D01*
X79894815Y-79086415D01*
X79815463Y-79183106D01*
X79756498Y-79293420D01*
X79720188Y-79413118D01*
X79707928Y-79537600D01*
X79707928Y-80437600D01*
X79720188Y-80562082D01*
X79756498Y-80681780D01*
X79815463Y-80792094D01*
X79894815Y-80888785D01*
X79907905Y-80899528D01*
X79892282Y-80899528D01*
X79006264Y-79967487D01*
X78975364Y-79929836D01*
X78923253Y-79887069D01*
X78872289Y-79843039D01*
X78863583Y-79838098D01*
X78855833Y-79831738D01*
X78796369Y-79799954D01*
X78737805Y-79766719D01*
X78728299Y-79763571D01*
X78719460Y-79758846D01*
X78654964Y-79739281D01*
X78591015Y-79718101D01*
X78581074Y-79716867D01*
X78571487Y-79713959D01*
X78504399Y-79707351D01*
X78437561Y-79699056D01*
X78389004Y-79702600D01*
X76484754Y-79702600D01*
X74852598Y-78070445D01*
X74852598Y-77404753D01*
X75481680Y-76775672D01*
X76367600Y-76775672D01*
X76492082Y-76763412D01*
X76611780Y-76727102D01*
X76722094Y-76668137D01*
X76818785Y-76588785D01*
X76898137Y-76492094D01*
X76957102Y-76381780D01*
X76993412Y-76262082D01*
X77005672Y-76137600D01*
X77005672Y-74837600D01*
X76993412Y-74713118D01*
X76957102Y-74593420D01*
X76898137Y-74483106D01*
X76818785Y-74386415D01*
X76722094Y-74307063D01*
X76611780Y-74248098D01*
X76492082Y-74211788D01*
X76367600Y-74199528D01*
X75539686Y-74199528D01*
X75115184Y-73775026D01*
X75481850Y-73772600D01*
X75640600Y-73613850D01*
X75640600Y-72614600D01*
X75894600Y-72614600D01*
X75894600Y-73613850D01*
X76053350Y-73772600D01*
X76517600Y-73775672D01*
X76642082Y-73763412D01*
X76761780Y-73727102D01*
X76872094Y-73668137D01*
X76968785Y-73588785D01*
X77048137Y-73492094D01*
X77107102Y-73381780D01*
X77143412Y-73262082D01*
X77155672Y-73137600D01*
X77152600Y-72773350D01*
X76993850Y-72614600D01*
X75894600Y-72614600D01*
X75640600Y-72614600D01*
X75620600Y-72614600D01*
X75620600Y-72360600D01*
X75640600Y-72360600D01*
X75640600Y-72340600D01*
X75894600Y-72340600D01*
X75894600Y-72360600D01*
X76993850Y-72360600D01*
X77152600Y-72201850D01*
X77155672Y-71837600D01*
X77143412Y-71713118D01*
X77107102Y-71593420D01*
X77048137Y-71483106D01*
X76968785Y-71386415D01*
X76937770Y-71360961D01*
X79067928Y-69230804D01*
X79067928Y-69587600D01*
X79080188Y-69712082D01*
X79116498Y-69831780D01*
X79175463Y-69942094D01*
X79254815Y-70038785D01*
X79282601Y-70061588D01*
X79282600Y-72043351D01*
X79299023Y-72210098D01*
X79363924Y-72424046D01*
X79381416Y-72456772D01*
X79391788Y-72562082D01*
X79428098Y-72681780D01*
X79487063Y-72792094D01*
X79566415Y-72888785D01*
X79579505Y-72899528D01*
X79067600Y-72899528D01*
X78943118Y-72911788D01*
X78823420Y-72948098D01*
X78713106Y-73007063D01*
X78616415Y-73086415D01*
X78537063Y-73183106D01*
X78478098Y-73293420D01*
X78441788Y-73413118D01*
X78429528Y-73537600D01*
X78429528Y-74437600D01*
X78441788Y-74562082D01*
X78478098Y-74681780D01*
X78537063Y-74792094D01*
X78567804Y-74829552D01*
X78563106Y-74832063D01*
X78466415Y-74911415D01*
X78387063Y-75008106D01*
X78328098Y-75118420D01*
X78291788Y-75238118D01*
X78279528Y-75362600D01*
X78279528Y-76612600D01*
X78284755Y-76665670D01*
X78257826Y-76683663D01*
X78113663Y-76827826D01*
X78000395Y-76997344D01*
X77922374Y-77185702D01*
X77882600Y-77385661D01*
X77882600Y-77589539D01*
X77922374Y-77789498D01*
X78000395Y-77977856D01*
X78113663Y-78147374D01*
X78257826Y-78291537D01*
X78427344Y-78404805D01*
X78615702Y-78482826D01*
X78815661Y-78522600D01*
X79019539Y-78522600D01*
X79219498Y-78482826D01*
X79407856Y-78404805D01*
X79577374Y-78291537D01*
X79721537Y-78147374D01*
X79834805Y-77977856D01*
X79912826Y-77789498D01*
X79940549Y-77650124D01*
X79969460Y-77641354D01*
X80105833Y-77568462D01*
X80225364Y-77470364D01*
X80323462Y-77350833D01*
X80376999Y-77250672D01*
X80417600Y-77250672D01*
X80542082Y-77238412D01*
X80661780Y-77202102D01*
X80772094Y-77143137D01*
X80868785Y-77063785D01*
X80917600Y-77004304D01*
X80966415Y-77063785D01*
X81063106Y-77143137D01*
X81173420Y-77202102D01*
X81293118Y-77238412D01*
X81417600Y-77250672D01*
X81881850Y-77247600D01*
X82040600Y-77088850D01*
X82040600Y-76114600D01*
X82294600Y-76114600D01*
X82294600Y-77088850D01*
X82453350Y-77247600D01*
X82917600Y-77250672D01*
X83042082Y-77238412D01*
X83161780Y-77202102D01*
X83272094Y-77143137D01*
X83368785Y-77063785D01*
X83448137Y-76967094D01*
X83507102Y-76856780D01*
X83543412Y-76737082D01*
X83555672Y-76612600D01*
X83552600Y-76273350D01*
X83393850Y-76114600D01*
X82294600Y-76114600D01*
X82040600Y-76114600D01*
X82020600Y-76114600D01*
X82020600Y-75860600D01*
X82040600Y-75860600D01*
X82040600Y-75840600D01*
X82294600Y-75840600D01*
X82294600Y-75860600D01*
X83393850Y-75860600D01*
X83552600Y-75701850D01*
X83555672Y-75362600D01*
X83543412Y-75238118D01*
X83507102Y-75118420D01*
X83448137Y-75008106D01*
X83368785Y-74911415D01*
X83272094Y-74832063D01*
X83161780Y-74773098D01*
X83042082Y-74736788D01*
X82917600Y-74724528D01*
X82453350Y-74727600D01*
X82294602Y-74886348D01*
X82294602Y-74796401D01*
X82298137Y-74792094D01*
X82357102Y-74681780D01*
X82393412Y-74562082D01*
X82405672Y-74437600D01*
X82402600Y-74273350D01*
X82243850Y-74114600D01*
X81494600Y-74114600D01*
X81494600Y-74134600D01*
X81240600Y-74134600D01*
X81240600Y-74114600D01*
X81220600Y-74114600D01*
X81220600Y-73860600D01*
X81240600Y-73860600D01*
X81240600Y-73061350D01*
X81494600Y-73061350D01*
X81494600Y-73860600D01*
X82243850Y-73860600D01*
X82402600Y-73701850D01*
X82405672Y-73537600D01*
X82393412Y-73413118D01*
X82357102Y-73293420D01*
X82298137Y-73183106D01*
X82218785Y-73086415D01*
X82122094Y-73007063D01*
X82011780Y-72948098D01*
X81892082Y-72911788D01*
X81767600Y-72899528D01*
X81653350Y-72902600D01*
X81494600Y-73061350D01*
X81240600Y-73061350D01*
X81155993Y-72976743D01*
X81172094Y-72968137D01*
X81268785Y-72888785D01*
X81348137Y-72792094D01*
X81407102Y-72681780D01*
X81443412Y-72562082D01*
X81453784Y-72456773D01*
X81471276Y-72424047D01*
X81536177Y-72210099D01*
X81552600Y-72043352D01*
X81552600Y-68254952D01*
X81558091Y-68199200D01*
X81549109Y-68108000D01*
X81536177Y-67976701D01*
X81471276Y-67762753D01*
X81365884Y-67565577D01*
X81344072Y-67538999D01*
X81344072Y-66387600D01*
X81331812Y-66263118D01*
X81295502Y-66143420D01*
X81236537Y-66033106D01*
X81157185Y-65936415D01*
X81060494Y-65857063D01*
X80950180Y-65798098D01*
X80830482Y-65761788D01*
X80706000Y-65749528D01*
X79706000Y-65749528D01*
X79581518Y-65761788D01*
X79461820Y-65798098D01*
X79351506Y-65857063D01*
X79254815Y-65936415D01*
X79175463Y-66033106D01*
X79116498Y-66143420D01*
X79080188Y-66263118D01*
X79067928Y-66387600D01*
X79067928Y-66852600D01*
X78761741Y-66852600D01*
X78705999Y-66847110D01*
X78650257Y-66852600D01*
X78650248Y-66852600D01*
X78483501Y-66869023D01*
X78269553Y-66933924D01*
X78072377Y-67039316D01*
X77899551Y-67181151D01*
X77864009Y-67224459D01*
X75554978Y-69533491D01*
X75144072Y-69533491D01*
X75144072Y-66387600D01*
X75141000Y-66356408D01*
X75141000Y-63618792D01*
X75144072Y-63587600D01*
X75144072Y-61987600D01*
X79065509Y-61987600D01*
X79067928Y-62012161D01*
X79067928Y-63587600D01*
X79080188Y-63712082D01*
X79116498Y-63831780D01*
X79175463Y-63942094D01*
X79254815Y-64038785D01*
X79351506Y-64118137D01*
X79461820Y-64177102D01*
X79581518Y-64213412D01*
X79706000Y-64225672D01*
X80706000Y-64225672D01*
X80830482Y-64213412D01*
X80950180Y-64177102D01*
X81060494Y-64118137D01*
X81157185Y-64038785D01*
X81236537Y-63942094D01*
X81295502Y-63831780D01*
X81331812Y-63712082D01*
X81344072Y-63587600D01*
X81344072Y-63122600D01*
X82491128Y-63122600D01*
X82491128Y-63587600D01*
X82503388Y-63712082D01*
X82539698Y-63831780D01*
X82598663Y-63942094D01*
X82678015Y-64038785D01*
X82774706Y-64118137D01*
X82885020Y-64177102D01*
X83004718Y-64213412D01*
X83129200Y-64225672D01*
X84129200Y-64225672D01*
X84253682Y-64213412D01*
X84373380Y-64177102D01*
X84483694Y-64118137D01*
X84580385Y-64038785D01*
X84659737Y-63942094D01*
X84718702Y-63831780D01*
X84755012Y-63712082D01*
X84767272Y-63587600D01*
X84767272Y-62012161D01*
X84769691Y-61987600D01*
X84767272Y-61963039D01*
X84767272Y-60387600D01*
X84755012Y-60263118D01*
X84718702Y-60143420D01*
X84659737Y-60033106D01*
X84580385Y-59936415D01*
X84483694Y-59857063D01*
X84373380Y-59798098D01*
X84253682Y-59761788D01*
X84129200Y-59749528D01*
X83129200Y-59749528D01*
X83004718Y-59761788D01*
X82885020Y-59798098D01*
X82774706Y-59857063D01*
X82678015Y-59936415D01*
X82598663Y-60033106D01*
X82539698Y-60143420D01*
X82503388Y-60263118D01*
X82491128Y-60387600D01*
X82491128Y-60852600D01*
X81344072Y-60852600D01*
X81344072Y-60387600D01*
X81331812Y-60263118D01*
X81295502Y-60143420D01*
X81236537Y-60033106D01*
X81157185Y-59936415D01*
X81060494Y-59857063D01*
X80950180Y-59798098D01*
X80830482Y-59761788D01*
X80706000Y-59749528D01*
X79706000Y-59749528D01*
X79581518Y-59761788D01*
X79461820Y-59798098D01*
X79351506Y-59857063D01*
X79254815Y-59936415D01*
X79175463Y-60033106D01*
X79116498Y-60143420D01*
X79080188Y-60263118D01*
X79067928Y-60387600D01*
X79067928Y-61963039D01*
X79065509Y-61987600D01*
X75144072Y-61987600D01*
X75144072Y-60387600D01*
X75131812Y-60263118D01*
X75095502Y-60143420D01*
X75036537Y-60033106D01*
X74957185Y-59936415D01*
X74860494Y-59857063D01*
X74750180Y-59798098D01*
X74630482Y-59761788D01*
X74506000Y-59749528D01*
X73506000Y-59749528D01*
X73381518Y-59761788D01*
X73261820Y-59798098D01*
X73151506Y-59857063D01*
X73054815Y-59936415D01*
X72975463Y-60033106D01*
X72916498Y-60143420D01*
X72880188Y-60263118D01*
X72867928Y-60387600D01*
X72867928Y-63587600D01*
X72871000Y-63618794D01*
X72871001Y-66356401D01*
X72867928Y-66387600D01*
X72867928Y-69533491D01*
X69967272Y-69533491D01*
X69967272Y-66407163D01*
X70127271Y-66438989D01*
X70129528Y-66438989D01*
X70129528Y-67587600D01*
X70141788Y-67712082D01*
X70178098Y-67831780D01*
X70237063Y-67942094D01*
X70316415Y-68038785D01*
X70413106Y-68118137D01*
X70443607Y-68134441D01*
X70422374Y-68185702D01*
X70382600Y-68385661D01*
X70382600Y-68589539D01*
X70422374Y-68789498D01*
X70500395Y-68977856D01*
X70613663Y-69147374D01*
X70757826Y-69291537D01*
X70927344Y-69404805D01*
X71115702Y-69482826D01*
X71315661Y-69522600D01*
X71519539Y-69522600D01*
X71719498Y-69482826D01*
X71907856Y-69404805D01*
X72077374Y-69291537D01*
X72221537Y-69147374D01*
X72334805Y-68977856D01*
X72412826Y-68789498D01*
X72452600Y-68589539D01*
X72452600Y-68385661D01*
X72412826Y-68185702D01*
X72391593Y-68134441D01*
X72422094Y-68118137D01*
X72518785Y-68038785D01*
X72598137Y-67942094D01*
X72657102Y-67831780D01*
X72693412Y-67712082D01*
X72705672Y-67587600D01*
X72705672Y-66087600D01*
X72693412Y-65963118D01*
X72657102Y-65843420D01*
X72598137Y-65733106D01*
X72518785Y-65636415D01*
X72422094Y-65557063D01*
X72311780Y-65498098D01*
X72277173Y-65487600D01*
X72311780Y-65477102D01*
X72422094Y-65418137D01*
X72518785Y-65338785D01*
X72598137Y-65242094D01*
X72657102Y-65131780D01*
X72693412Y-65012082D01*
X72705672Y-64887600D01*
X72705672Y-63387600D01*
X72693412Y-63263118D01*
X72657102Y-63143420D01*
X72598137Y-63033106D01*
X72518785Y-62936415D01*
X72422094Y-62857063D01*
X72311780Y-62798098D01*
X72192082Y-62761788D01*
X72067600Y-62749528D01*
X70767600Y-62749528D01*
X70643118Y-62761788D01*
X70523420Y-62798098D01*
X70413106Y-62857063D01*
X70316415Y-62936415D01*
X70237063Y-63033106D01*
X70178098Y-63143420D01*
X70141788Y-63263118D01*
X70129528Y-63387600D01*
X70129528Y-64368989D01*
X70127271Y-64368989D01*
X69964200Y-64401426D01*
X69964200Y-63618792D01*
X69967272Y-63587600D01*
X69967272Y-60387600D01*
X69955012Y-60263118D01*
X69918702Y-60143420D01*
X69859737Y-60033106D01*
X69780385Y-59936415D01*
X69683694Y-59857063D01*
X69573380Y-59798098D01*
X69453682Y-59761788D01*
X69329200Y-59749528D01*
X68329200Y-59749528D01*
X68204718Y-59761788D01*
X68085020Y-59798098D01*
X67974706Y-59857063D01*
X67878015Y-59936415D01*
X67798663Y-60033106D01*
X67739698Y-60143420D01*
X67703388Y-60263118D01*
X67691128Y-60387600D01*
X67691128Y-63587600D01*
X67694201Y-63618799D01*
X67694200Y-66356406D01*
X67691128Y-66387600D01*
X67691128Y-69533491D01*
X65068623Y-69533491D01*
X63767272Y-68232141D01*
X63767272Y-66723761D01*
X63769691Y-66699200D01*
X63767272Y-66674639D01*
X63767272Y-66387600D01*
X63755012Y-66263118D01*
X63718702Y-66143420D01*
X63659737Y-66033106D01*
X63580385Y-65936415D01*
X63483694Y-65857063D01*
X63373380Y-65798098D01*
X63315747Y-65780615D01*
X61759596Y-64224465D01*
X61724049Y-64181151D01*
X61551223Y-64039316D01*
X61354047Y-63933924D01*
X61140099Y-63869023D01*
X60973352Y-63852600D01*
X60973351Y-63852600D01*
X60917600Y-63847109D01*
X60861849Y-63852600D01*
X60784373Y-63852600D01*
X60795502Y-63831780D01*
X60831812Y-63712082D01*
X60844072Y-63587600D01*
X60844072Y-63002200D01*
X61491128Y-63002200D01*
X61491128Y-63587600D01*
X61503388Y-63712082D01*
X61539698Y-63831780D01*
X61598663Y-63942094D01*
X61678015Y-64038785D01*
X61774706Y-64118137D01*
X61885020Y-64177102D01*
X62004718Y-64213412D01*
X62129200Y-64225672D01*
X63129200Y-64225672D01*
X63253682Y-64213412D01*
X63373380Y-64177102D01*
X63483694Y-64118137D01*
X63580385Y-64038785D01*
X63659737Y-63942094D01*
X63718702Y-63831780D01*
X63755012Y-63712082D01*
X63767272Y-63587600D01*
X63767272Y-61891761D01*
X63769691Y-61867200D01*
X63767272Y-61842639D01*
X63767272Y-60387600D01*
X63755012Y-60263118D01*
X63718702Y-60143420D01*
X63659737Y-60033106D01*
X63580385Y-59936415D01*
X63483694Y-59857063D01*
X63373380Y-59798098D01*
X63253682Y-59761788D01*
X63129200Y-59749528D01*
X62129200Y-59749528D01*
X62004718Y-59761788D01*
X61885020Y-59798098D01*
X61774706Y-59857063D01*
X61678015Y-59936415D01*
X61598663Y-60033106D01*
X61539698Y-60143420D01*
X61503388Y-60263118D01*
X61491128Y-60387600D01*
X61491128Y-60732200D01*
X60844072Y-60732200D01*
X60844072Y-60387600D01*
X60831812Y-60263118D01*
X60795502Y-60143420D01*
X60736537Y-60033106D01*
X60657185Y-59936415D01*
X60560494Y-59857063D01*
X60450180Y-59798098D01*
X60330482Y-59761788D01*
X60206000Y-59749528D01*
X59360100Y-59749528D01*
X59469460Y-59716354D01*
X59605833Y-59643462D01*
X59725364Y-59545364D01*
X59749947Y-59515410D01*
X60989686Y-58275672D01*
X62017600Y-58275672D01*
X62142082Y-58263412D01*
X62261780Y-58227102D01*
X62372094Y-58168137D01*
X62468785Y-58088785D01*
X62548137Y-57992094D01*
X62607102Y-57881780D01*
X62643412Y-57762082D01*
X62655672Y-57637600D01*
X62655672Y-56672599D01*
X63925775Y-56672599D01*
X64768588Y-57515413D01*
X64793169Y-57545364D01*
X64823117Y-57569942D01*
X64823120Y-57569945D01*
X64850696Y-57592576D01*
X64912700Y-57643462D01*
X65019036Y-57700299D01*
X65025121Y-57762082D01*
X65061431Y-57881780D01*
X65120396Y-57992094D01*
X65199748Y-58088785D01*
X65296439Y-58168137D01*
X65406753Y-58227102D01*
X65526451Y-58263412D01*
X65650933Y-58275672D01*
X67150933Y-58275672D01*
X67275415Y-58263412D01*
X67395113Y-58227102D01*
X67505427Y-58168137D01*
X67602118Y-58088785D01*
X67681470Y-57992094D01*
X67740435Y-57881780D01*
X67750933Y-57847173D01*
X67761431Y-57881780D01*
X67820396Y-57992094D01*
X67899748Y-58088785D01*
X67996439Y-58168137D01*
X68106753Y-58227102D01*
X68226451Y-58263412D01*
X68350933Y-58275672D01*
X68815183Y-58272600D01*
X68973933Y-58113850D01*
X68973933Y-57114600D01*
X69227933Y-57114600D01*
X69227933Y-58113850D01*
X69386683Y-58272600D01*
X69850933Y-58275672D01*
X69975415Y-58263412D01*
X70095113Y-58227102D01*
X70205427Y-58168137D01*
X70302118Y-58088785D01*
X70381470Y-57992094D01*
X70440435Y-57881780D01*
X70476745Y-57762082D01*
X70489005Y-57637600D01*
X72846194Y-57637600D01*
X72858454Y-57762082D01*
X72894764Y-57881780D01*
X72953729Y-57992094D01*
X73033081Y-58088785D01*
X73129772Y-58168137D01*
X73240086Y-58227102D01*
X73359784Y-58263412D01*
X73484266Y-58275672D01*
X73948516Y-58272600D01*
X74107266Y-58113850D01*
X74107266Y-57114600D01*
X73008016Y-57114600D01*
X72849266Y-57273350D01*
X72846194Y-57637600D01*
X70489005Y-57637600D01*
X70485933Y-57273350D01*
X70327183Y-57114600D01*
X69227933Y-57114600D01*
X68973933Y-57114600D01*
X68953933Y-57114600D01*
X68953933Y-56860600D01*
X68973933Y-56860600D01*
X68973933Y-55861350D01*
X69227933Y-55861350D01*
X69227933Y-56860600D01*
X70327183Y-56860600D01*
X70485933Y-56701850D01*
X70489005Y-56337600D01*
X72846194Y-56337600D01*
X72849266Y-56701850D01*
X73008016Y-56860600D01*
X74107266Y-56860600D01*
X74107266Y-55861350D01*
X73948516Y-55702600D01*
X73484266Y-55699528D01*
X73359784Y-55711788D01*
X73240086Y-55748098D01*
X73129772Y-55807063D01*
X73033081Y-55886415D01*
X72953729Y-55983106D01*
X72894764Y-56093420D01*
X72858454Y-56213118D01*
X72846194Y-56337600D01*
X70489005Y-56337600D01*
X70476745Y-56213118D01*
X70440435Y-56093420D01*
X70381470Y-55983106D01*
X70302118Y-55886415D01*
X70205427Y-55807063D01*
X70095113Y-55748098D01*
X69975415Y-55711788D01*
X69850933Y-55699528D01*
X69386683Y-55702600D01*
X69227933Y-55861350D01*
X68973933Y-55861350D01*
X68815183Y-55702600D01*
X68350933Y-55699528D01*
X68226451Y-55711788D01*
X68106753Y-55748098D01*
X67996439Y-55807063D01*
X67899748Y-55886415D01*
X67820396Y-55983106D01*
X67761431Y-56093420D01*
X67750933Y-56128027D01*
X67740435Y-56093420D01*
X67681470Y-55983106D01*
X67602118Y-55886415D01*
X67505427Y-55807063D01*
X67395113Y-55748098D01*
X67275415Y-55711788D01*
X67150933Y-55699528D01*
X65650933Y-55699528D01*
X65526451Y-55711788D01*
X65406753Y-55748098D01*
X65296439Y-55807063D01*
X65287714Y-55814223D01*
X65047490Y-55574000D01*
X89313069Y-55574000D01*
X89642910Y-55615163D01*
X89642910Y-55615163D01*
G37*
X89642910Y-55615163D02*
X89934283Y-55711601D01*
X90201374Y-55862798D01*
X90434012Y-56062993D01*
X90623333Y-56304561D01*
X90762128Y-56578301D01*
X90846052Y-56877138D01*
X90872866Y-57180979D01*
X90876957Y-60065322D01*
X90859737Y-60033106D01*
X90780385Y-59936415D01*
X90683694Y-59857063D01*
X90573380Y-59798098D01*
X90453682Y-59761788D01*
X90329200Y-59749528D01*
X89329200Y-59749528D01*
X89204718Y-59761788D01*
X89085020Y-59798098D01*
X88974706Y-59857063D01*
X88878015Y-59936415D01*
X88798663Y-60033106D01*
X88739698Y-60143420D01*
X88703388Y-60263118D01*
X88691128Y-60387600D01*
X88691128Y-60750971D01*
X85995901Y-58055744D01*
X86048137Y-57992094D01*
X86107102Y-57881780D01*
X86143412Y-57762082D01*
X86155672Y-57637600D01*
X86155672Y-57301944D01*
X87032600Y-57301944D01*
X87032600Y-57673256D01*
X87105039Y-58037434D01*
X87247134Y-58380482D01*
X87453425Y-58689218D01*
X87715982Y-58951775D01*
X88024718Y-59158066D01*
X88367766Y-59300161D01*
X88731944Y-59372600D01*
X89103256Y-59372600D01*
X89467434Y-59300161D01*
X89810482Y-59158066D01*
X90119218Y-58951775D01*
X90381775Y-58689218D01*
X90588066Y-58380482D01*
X90730161Y-58037434D01*
X90802600Y-57673256D01*
X90802600Y-57301944D01*
X90730161Y-56937766D01*
X90588066Y-56594718D01*
X90381775Y-56285982D01*
X90119218Y-56023425D01*
X89810482Y-55817134D01*
X89467434Y-55675039D01*
X89103256Y-55602600D01*
X88731944Y-55602600D01*
X88367766Y-55675039D01*
X88024718Y-55817134D01*
X87715982Y-56023425D01*
X87453425Y-56285982D01*
X87247134Y-56594718D01*
X87105039Y-56937766D01*
X87032600Y-57301944D01*
X86155672Y-57301944D01*
X86155672Y-56337600D01*
X86143412Y-56213118D01*
X86107102Y-56093420D01*
X86048137Y-55983106D01*
X85968785Y-55886415D01*
X85872094Y-55807063D01*
X85761780Y-55748098D01*
X85642082Y-55711788D01*
X85517600Y-55699528D01*
X84017600Y-55699528D01*
X83893118Y-55711788D01*
X83773420Y-55748098D01*
X83663106Y-55807063D01*
X83566415Y-55886415D01*
X83487063Y-55983106D01*
X83428098Y-56093420D01*
X83417600Y-56128027D01*
X83407102Y-56093420D01*
X83348137Y-55983106D01*
X83268785Y-55886415D01*
X83172094Y-55807063D01*
X83061780Y-55748098D01*
X82942082Y-55711788D01*
X82817600Y-55699528D01*
X81317600Y-55699528D01*
X81193118Y-55711788D01*
X81073420Y-55748098D01*
X80963106Y-55807063D01*
X80866415Y-55886415D01*
X80787063Y-55983106D01*
X80728098Y-56093420D01*
X80694979Y-56202600D01*
X78306887Y-56202600D01*
X78273768Y-56093420D01*
X78214803Y-55983106D01*
X78135451Y-55886415D01*
X78038760Y-55807063D01*
X77928446Y-55748098D01*
X77808748Y-55711788D01*
X77684266Y-55699528D01*
X76184266Y-55699528D01*
X76059784Y-55711788D01*
X75940086Y-55748098D01*
X75829772Y-55807063D01*
X75733081Y-55886415D01*
X75653729Y-55983106D01*
X75594764Y-56093420D01*
X75584266Y-56128027D01*
X75573768Y-56093420D01*
X75514803Y-55983106D01*
X75435451Y-55886415D01*
X75338760Y-55807063D01*
X75228446Y-55748098D01*
X75108748Y-55711788D01*
X74984266Y-55699528D01*
X74520016Y-55702600D01*
X74361266Y-55861350D01*
X74361266Y-56860600D01*
X74381266Y-56860600D01*
X74381266Y-57114600D01*
X74361266Y-57114600D01*
X74361266Y-58113850D01*
X74520016Y-58272600D01*
X74984266Y-58275672D01*
X75108748Y-58263412D01*
X75228446Y-58227102D01*
X75338760Y-58168137D01*
X75435451Y-58088785D01*
X75514803Y-57992094D01*
X75573768Y-57881780D01*
X75584266Y-57847173D01*
X75594764Y-57881780D01*
X75653729Y-57992094D01*
X75733081Y-58088785D01*
X75829772Y-58168137D01*
X75940086Y-58227102D01*
X76059784Y-58263412D01*
X76184266Y-58275672D01*
X77684266Y-58275672D01*
X77808748Y-58263412D01*
X77928446Y-58227102D01*
X78038760Y-58168137D01*
X78135451Y-58088785D01*
X78214803Y-57992094D01*
X78273768Y-57881780D01*
X78306887Y-57772600D01*
X80694979Y-57772600D01*
X80728098Y-57881780D01*
X80787063Y-57992094D01*
X80866415Y-58088785D01*
X80963106Y-58168137D01*
X81073420Y-58227102D01*
X81193118Y-58263412D01*
X81317600Y-58275672D01*
X82817600Y-58275672D01*
X82942082Y-58263412D01*
X83061780Y-58227102D01*
X83172094Y-58168137D01*
X83268785Y-58088785D01*
X83348137Y-57992094D01*
X83407102Y-57881780D01*
X83417600Y-57847173D01*
X83428098Y-57881780D01*
X83487063Y-57992094D01*
X83566415Y-58088785D01*
X83663106Y-58168137D01*
X83773420Y-58227102D01*
X83893118Y-58263412D01*
X84017600Y-58275672D01*
X84058202Y-58275672D01*
X84111738Y-58375832D01*
X84209836Y-58495364D01*
X84239790Y-58519947D01*
X87762602Y-62042759D01*
X87762602Y-63359705D01*
X87432850Y-63223118D01*
X87078332Y-63152600D01*
X86716868Y-63152600D01*
X86362350Y-63223118D01*
X86028401Y-63361444D01*
X85727856Y-63562262D01*
X85472262Y-63817856D01*
X85271444Y-64118401D01*
X85133118Y-64452350D01*
X85062600Y-64806868D01*
X85062600Y-65069468D01*
X84250221Y-65881847D01*
X84129200Y-65869928D01*
X83129200Y-65869928D01*
X83004718Y-65882188D01*
X82885020Y-65918498D01*
X82774706Y-65977463D01*
X82678015Y-66056815D01*
X82598663Y-66153506D01*
X82539698Y-66263820D01*
X82503388Y-66383518D01*
X82491128Y-66508000D01*
X82491128Y-68083439D01*
X82488709Y-68108000D01*
X82491128Y-68132561D01*
X82491128Y-69708000D01*
X82503388Y-69832482D01*
X82539698Y-69952180D01*
X82598663Y-70062494D01*
X82678015Y-70159185D01*
X82774706Y-70238537D01*
X82885020Y-70297502D01*
X83004718Y-70333812D01*
X83129200Y-70346072D01*
X84129200Y-70346072D01*
X84253682Y-70333812D01*
X84373380Y-70297502D01*
X84483694Y-70238537D01*
X84580385Y-70159185D01*
X84659737Y-70062494D01*
X84718702Y-69952180D01*
X84755012Y-69832482D01*
X84767272Y-69708000D01*
X84767272Y-68575059D01*
X86552439Y-66789893D01*
X86716868Y-66822600D01*
X87078332Y-66822600D01*
X87432850Y-66752082D01*
X87762602Y-66615495D01*
X87762601Y-75382442D01*
X84889785Y-78255258D01*
X84859837Y-78279836D01*
X84835259Y-78309784D01*
X84835255Y-78309788D01*
X84803683Y-78348259D01*
X84761739Y-78399367D01*
X84723805Y-78470338D01*
X84708202Y-78499528D01*
X84567600Y-78499528D01*
X84443118Y-78511788D01*
X84323420Y-78548098D01*
X84213106Y-78607063D01*
X84116415Y-78686415D01*
X84037063Y-78783106D01*
X83978098Y-78893420D01*
X83952600Y-78977476D01*
X83952600Y-78885661D01*
X83912826Y-78685702D01*
X83834805Y-78497344D01*
X83721537Y-78327826D01*
X83577374Y-78183663D01*
X83407856Y-78070395D01*
X83219498Y-77992374D01*
X83019539Y-77952600D01*
X82815661Y-77952600D01*
X82615702Y-77992374D01*
X82427344Y-78070395D01*
X82257826Y-78183663D01*
X82113663Y-78327826D01*
X82000395Y-78497344D01*
X81922374Y-78685702D01*
X81882600Y-78885661D01*
X81882600Y-79089539D01*
X81922374Y-79289498D01*
X82000395Y-79477856D01*
X82113663Y-79647374D01*
X82132600Y-79666311D01*
X82132600Y-79989047D01*
X82128803Y-80027600D01*
X82132600Y-80066153D01*
X82132600Y-80066160D01*
X82143959Y-80181486D01*
X82188846Y-80329459D01*
X82261738Y-80465832D01*
X82359836Y-80585364D01*
X82389790Y-80609947D01*
X83968574Y-82188732D01*
X83954087Y-82236489D01*
X83925415Y-82527600D01*
X83954087Y-82818711D01*
X84039001Y-83098634D01*
X84176894Y-83356614D01*
X84362466Y-83582734D01*
X84588586Y-83768306D01*
X84643391Y-83797600D01*
X84588586Y-83826894D01*
X84362466Y-84012466D01*
X84176894Y-84238586D01*
X84039001Y-84496566D01*
X83954087Y-84776489D01*
X83925415Y-85067600D01*
X83939302Y-85208599D01*
X83149890Y-85208599D01*
X83197185Y-85169785D01*
X83276537Y-85073094D01*
X83335502Y-84962780D01*
X83371812Y-84843082D01*
X83384072Y-84718600D01*
X83381000Y-84379350D01*
X83222250Y-84220600D01*
X82123000Y-84220600D01*
X82123000Y-84240600D01*
X81869000Y-84240600D01*
X81869000Y-84220600D01*
X81849000Y-84220600D01*
X81849000Y-83966600D01*
X81869000Y-83966600D01*
X81869000Y-83946600D01*
X82123000Y-83946600D01*
X82123000Y-83966600D01*
X83222250Y-83966600D01*
X83381000Y-83807850D01*
X83384072Y-83468600D01*
X83371812Y-83344118D01*
X83335502Y-83224420D01*
X83276537Y-83114106D01*
X83197185Y-83017415D01*
X83100494Y-82938063D01*
X82990180Y-82879098D01*
X82870482Y-82842788D01*
X82746000Y-82830528D01*
X82594171Y-82831533D01*
X82626537Y-82792094D01*
X82685502Y-82681780D01*
X82721812Y-82562082D01*
X82734072Y-82437600D01*
X82731000Y-82273350D01*
X82572250Y-82114600D01*
X81823000Y-82114600D01*
X81823000Y-82134600D01*
X81569000Y-82134600D01*
X81569000Y-82114600D01*
X81549000Y-82114600D01*
X81549000Y-81860600D01*
X81569000Y-81860600D01*
X81569000Y-81061350D01*
X81823000Y-81061350D01*
X81823000Y-81860600D01*
X82572250Y-81860600D01*
X82731000Y-81701850D01*
X82734072Y-81537600D01*
X82721812Y-81413118D01*
X82685502Y-81293420D01*
X82626537Y-81183106D01*
X82547185Y-81086415D01*
X82450494Y-81007063D01*
X82340180Y-80948098D01*
X82220482Y-80911788D01*
X82096000Y-80899528D01*
X81981750Y-80902600D01*
X81823000Y-81061350D01*
X81569000Y-81061350D01*
X81484393Y-80976743D01*
X81500494Y-80968137D01*
X81597185Y-80888785D01*
X81676537Y-80792094D01*
X81735502Y-80681780D01*
X81771812Y-80562082D01*
X81784072Y-80437600D01*
X81784072Y-79537600D01*
X81771812Y-79413118D01*
X81735502Y-79293420D01*
X81676537Y-79183106D01*
X81597185Y-79086415D01*
X81500494Y-79007063D01*
X81390180Y-78948098D01*
X81270482Y-78911788D01*
X81146000Y-78899528D01*
X80346000Y-78899528D01*
X80221518Y-78911788D01*
X80101820Y-78948098D01*
X79991506Y-79007063D01*
X79894815Y-79086415D01*
X79815463Y-79183106D01*
X79756498Y-79293420D01*
X79720188Y-79413118D01*
X79707928Y-79537600D01*
X79707928Y-80437600D01*
X79720188Y-80562082D01*
X79756498Y-80681780D01*
X79815463Y-80792094D01*
X79894815Y-80888785D01*
X79907905Y-80899528D01*
X79892282Y-80899528D01*
X79006264Y-79967487D01*
X78975364Y-79929836D01*
X78923253Y-79887069D01*
X78872289Y-79843039D01*
X78863583Y-79838098D01*
X78855833Y-79831738D01*
X78796369Y-79799954D01*
X78737805Y-79766719D01*
X78728299Y-79763571D01*
X78719460Y-79758846D01*
X78654964Y-79739281D01*
X78591015Y-79718101D01*
X78581074Y-79716867D01*
X78571487Y-79713959D01*
X78504399Y-79707351D01*
X78437561Y-79699056D01*
X78389004Y-79702600D01*
X76484754Y-79702600D01*
X74852598Y-78070445D01*
X74852598Y-77404753D01*
X75481680Y-76775672D01*
X76367600Y-76775672D01*
X76492082Y-76763412D01*
X76611780Y-76727102D01*
X76722094Y-76668137D01*
X76818785Y-76588785D01*
X76898137Y-76492094D01*
X76957102Y-76381780D01*
X76993412Y-76262082D01*
X77005672Y-76137600D01*
X77005672Y-74837600D01*
X76993412Y-74713118D01*
X76957102Y-74593420D01*
X76898137Y-74483106D01*
X76818785Y-74386415D01*
X76722094Y-74307063D01*
X76611780Y-74248098D01*
X76492082Y-74211788D01*
X76367600Y-74199528D01*
X75539686Y-74199528D01*
X75115184Y-73775026D01*
X75481850Y-73772600D01*
X75640600Y-73613850D01*
X75640600Y-72614600D01*
X75894600Y-72614600D01*
X75894600Y-73613850D01*
X76053350Y-73772600D01*
X76517600Y-73775672D01*
X76642082Y-73763412D01*
X76761780Y-73727102D01*
X76872094Y-73668137D01*
X76968785Y-73588785D01*
X77048137Y-73492094D01*
X77107102Y-73381780D01*
X77143412Y-73262082D01*
X77155672Y-73137600D01*
X77152600Y-72773350D01*
X76993850Y-72614600D01*
X75894600Y-72614600D01*
X75640600Y-72614600D01*
X75620600Y-72614600D01*
X75620600Y-72360600D01*
X75640600Y-72360600D01*
X75640600Y-72340600D01*
X75894600Y-72340600D01*
X75894600Y-72360600D01*
X76993850Y-72360600D01*
X77152600Y-72201850D01*
X77155672Y-71837600D01*
X77143412Y-71713118D01*
X77107102Y-71593420D01*
X77048137Y-71483106D01*
X76968785Y-71386415D01*
X76937770Y-71360961D01*
X79067928Y-69230804D01*
X79067928Y-69587600D01*
X79080188Y-69712082D01*
X79116498Y-69831780D01*
X79175463Y-69942094D01*
X79254815Y-70038785D01*
X79282601Y-70061588D01*
X79282600Y-72043351D01*
X79299023Y-72210098D01*
X79363924Y-72424046D01*
X79381416Y-72456772D01*
X79391788Y-72562082D01*
X79428098Y-72681780D01*
X79487063Y-72792094D01*
X79566415Y-72888785D01*
X79579505Y-72899528D01*
X79067600Y-72899528D01*
X78943118Y-72911788D01*
X78823420Y-72948098D01*
X78713106Y-73007063D01*
X78616415Y-73086415D01*
X78537063Y-73183106D01*
X78478098Y-73293420D01*
X78441788Y-73413118D01*
X78429528Y-73537600D01*
X78429528Y-74437600D01*
X78441788Y-74562082D01*
X78478098Y-74681780D01*
X78537063Y-74792094D01*
X78567804Y-74829552D01*
X78563106Y-74832063D01*
X78466415Y-74911415D01*
X78387063Y-75008106D01*
X78328098Y-75118420D01*
X78291788Y-75238118D01*
X78279528Y-75362600D01*
X78279528Y-76612600D01*
X78284755Y-76665670D01*
X78257826Y-76683663D01*
X78113663Y-76827826D01*
X78000395Y-76997344D01*
X77922374Y-77185702D01*
X77882600Y-77385661D01*
X77882600Y-77589539D01*
X77922374Y-77789498D01*
X78000395Y-77977856D01*
X78113663Y-78147374D01*
X78257826Y-78291537D01*
X78427344Y-78404805D01*
X78615702Y-78482826D01*
X78815661Y-78522600D01*
X79019539Y-78522600D01*
X79219498Y-78482826D01*
X79407856Y-78404805D01*
X79577374Y-78291537D01*
X79721537Y-78147374D01*
X79834805Y-77977856D01*
X79912826Y-77789498D01*
X79940549Y-77650124D01*
X79969460Y-77641354D01*
X80105833Y-77568462D01*
X80225364Y-77470364D01*
X80323462Y-77350833D01*
X80376999Y-77250672D01*
X80417600Y-77250672D01*
X80542082Y-77238412D01*
X80661780Y-77202102D01*
X80772094Y-77143137D01*
X80868785Y-77063785D01*
X80917600Y-77004304D01*
X80966415Y-77063785D01*
X81063106Y-77143137D01*
X81173420Y-77202102D01*
X81293118Y-77238412D01*
X81417600Y-77250672D01*
X81881850Y-77247600D01*
X82040600Y-77088850D01*
X82040600Y-76114600D01*
X82294600Y-76114600D01*
X82294600Y-77088850D01*
X82453350Y-77247600D01*
X82917600Y-77250672D01*
X83042082Y-77238412D01*
X83161780Y-77202102D01*
X83272094Y-77143137D01*
X83368785Y-77063785D01*
X83448137Y-76967094D01*
X83507102Y-76856780D01*
X83543412Y-76737082D01*
X83555672Y-76612600D01*
X83552600Y-76273350D01*
X83393850Y-76114600D01*
X82294600Y-76114600D01*
X82040600Y-76114600D01*
X82020600Y-76114600D01*
X82020600Y-75860600D01*
X82040600Y-75860600D01*
X82040600Y-75840600D01*
X82294600Y-75840600D01*
X82294600Y-75860600D01*
X83393850Y-75860600D01*
X83552600Y-75701850D01*
X83555672Y-75362600D01*
X83543412Y-75238118D01*
X83507102Y-75118420D01*
X83448137Y-75008106D01*
X83368785Y-74911415D01*
X83272094Y-74832063D01*
X83161780Y-74773098D01*
X83042082Y-74736788D01*
X82917600Y-74724528D01*
X82453350Y-74727600D01*
X82294602Y-74886348D01*
X82294602Y-74796401D01*
X82298137Y-74792094D01*
X82357102Y-74681780D01*
X82393412Y-74562082D01*
X82405672Y-74437600D01*
X82402600Y-74273350D01*
X82243850Y-74114600D01*
X81494600Y-74114600D01*
X81494600Y-74134600D01*
X81240600Y-74134600D01*
X81240600Y-74114600D01*
X81220600Y-74114600D01*
X81220600Y-73860600D01*
X81240600Y-73860600D01*
X81240600Y-73061350D01*
X81494600Y-73061350D01*
X81494600Y-73860600D01*
X82243850Y-73860600D01*
X82402600Y-73701850D01*
X82405672Y-73537600D01*
X82393412Y-73413118D01*
X82357102Y-73293420D01*
X82298137Y-73183106D01*
X82218785Y-73086415D01*
X82122094Y-73007063D01*
X82011780Y-72948098D01*
X81892082Y-72911788D01*
X81767600Y-72899528D01*
X81653350Y-72902600D01*
X81494600Y-73061350D01*
X81240600Y-73061350D01*
X81155993Y-72976743D01*
X81172094Y-72968137D01*
X81268785Y-72888785D01*
X81348137Y-72792094D01*
X81407102Y-72681780D01*
X81443412Y-72562082D01*
X81453784Y-72456773D01*
X81471276Y-72424047D01*
X81536177Y-72210099D01*
X81552600Y-72043352D01*
X81552600Y-68254952D01*
X81558091Y-68199200D01*
X81549109Y-68108000D01*
X81536177Y-67976701D01*
X81471276Y-67762753D01*
X81365884Y-67565577D01*
X81344072Y-67538999D01*
X81344072Y-66387600D01*
X81331812Y-66263118D01*
X81295502Y-66143420D01*
X81236537Y-66033106D01*
X81157185Y-65936415D01*
X81060494Y-65857063D01*
X80950180Y-65798098D01*
X80830482Y-65761788D01*
X80706000Y-65749528D01*
X79706000Y-65749528D01*
X79581518Y-65761788D01*
X79461820Y-65798098D01*
X79351506Y-65857063D01*
X79254815Y-65936415D01*
X79175463Y-66033106D01*
X79116498Y-66143420D01*
X79080188Y-66263118D01*
X79067928Y-66387600D01*
X79067928Y-66852600D01*
X78761741Y-66852600D01*
X78705999Y-66847110D01*
X78650257Y-66852600D01*
X78650248Y-66852600D01*
X78483501Y-66869023D01*
X78269553Y-66933924D01*
X78072377Y-67039316D01*
X77899551Y-67181151D01*
X77864009Y-67224459D01*
X75554978Y-69533491D01*
X75144072Y-69533491D01*
X75144072Y-66387600D01*
X75141000Y-66356408D01*
X75141000Y-63618792D01*
X75144072Y-63587600D01*
X75144072Y-61987600D01*
X79065509Y-61987600D01*
X79067928Y-62012161D01*
X79067928Y-63587600D01*
X79080188Y-63712082D01*
X79116498Y-63831780D01*
X79175463Y-63942094D01*
X79254815Y-64038785D01*
X79351506Y-64118137D01*
X79461820Y-64177102D01*
X79581518Y-64213412D01*
X79706000Y-64225672D01*
X80706000Y-64225672D01*
X80830482Y-64213412D01*
X80950180Y-64177102D01*
X81060494Y-64118137D01*
X81157185Y-64038785D01*
X81236537Y-63942094D01*
X81295502Y-63831780D01*
X81331812Y-63712082D01*
X81344072Y-63587600D01*
X81344072Y-63122600D01*
X82491128Y-63122600D01*
X82491128Y-63587600D01*
X82503388Y-63712082D01*
X82539698Y-63831780D01*
X82598663Y-63942094D01*
X82678015Y-64038785D01*
X82774706Y-64118137D01*
X82885020Y-64177102D01*
X83004718Y-64213412D01*
X83129200Y-64225672D01*
X84129200Y-64225672D01*
X84253682Y-64213412D01*
X84373380Y-64177102D01*
X84483694Y-64118137D01*
X84580385Y-64038785D01*
X84659737Y-63942094D01*
X84718702Y-63831780D01*
X84755012Y-63712082D01*
X84767272Y-63587600D01*
X84767272Y-62012161D01*
X84769691Y-61987600D01*
X84767272Y-61963039D01*
X84767272Y-60387600D01*
X84755012Y-60263118D01*
X84718702Y-60143420D01*
X84659737Y-60033106D01*
X84580385Y-59936415D01*
X84483694Y-59857063D01*
X84373380Y-59798098D01*
X84253682Y-59761788D01*
X84129200Y-59749528D01*
X83129200Y-59749528D01*
X83004718Y-59761788D01*
X82885020Y-59798098D01*
X82774706Y-59857063D01*
X82678015Y-59936415D01*
X82598663Y-60033106D01*
X82539698Y-60143420D01*
X82503388Y-60263118D01*
X82491128Y-60387600D01*
X82491128Y-60852600D01*
X81344072Y-60852600D01*
X81344072Y-60387600D01*
X81331812Y-60263118D01*
X81295502Y-60143420D01*
X81236537Y-60033106D01*
X81157185Y-59936415D01*
X81060494Y-59857063D01*
X80950180Y-59798098D01*
X80830482Y-59761788D01*
X80706000Y-59749528D01*
X79706000Y-59749528D01*
X79581518Y-59761788D01*
X79461820Y-59798098D01*
X79351506Y-59857063D01*
X79254815Y-59936415D01*
X79175463Y-60033106D01*
X79116498Y-60143420D01*
X79080188Y-60263118D01*
X79067928Y-60387600D01*
X79067928Y-61963039D01*
X79065509Y-61987600D01*
X75144072Y-61987600D01*
X75144072Y-60387600D01*
X75131812Y-60263118D01*
X75095502Y-60143420D01*
X75036537Y-60033106D01*
X74957185Y-59936415D01*
X74860494Y-59857063D01*
X74750180Y-59798098D01*
X74630482Y-59761788D01*
X74506000Y-59749528D01*
X73506000Y-59749528D01*
X73381518Y-59761788D01*
X73261820Y-59798098D01*
X73151506Y-59857063D01*
X73054815Y-59936415D01*
X72975463Y-60033106D01*
X72916498Y-60143420D01*
X72880188Y-60263118D01*
X72867928Y-60387600D01*
X72867928Y-63587600D01*
X72871000Y-63618794D01*
X72871001Y-66356401D01*
X72867928Y-66387600D01*
X72867928Y-69533491D01*
X69967272Y-69533491D01*
X69967272Y-66407163D01*
X70127271Y-66438989D01*
X70129528Y-66438989D01*
X70129528Y-67587600D01*
X70141788Y-67712082D01*
X70178098Y-67831780D01*
X70237063Y-67942094D01*
X70316415Y-68038785D01*
X70413106Y-68118137D01*
X70443607Y-68134441D01*
X70422374Y-68185702D01*
X70382600Y-68385661D01*
X70382600Y-68589539D01*
X70422374Y-68789498D01*
X70500395Y-68977856D01*
X70613663Y-69147374D01*
X70757826Y-69291537D01*
X70927344Y-69404805D01*
X71115702Y-69482826D01*
X71315661Y-69522600D01*
X71519539Y-69522600D01*
X71719498Y-69482826D01*
X71907856Y-69404805D01*
X72077374Y-69291537D01*
X72221537Y-69147374D01*
X72334805Y-68977856D01*
X72412826Y-68789498D01*
X72452600Y-68589539D01*
X72452600Y-68385661D01*
X72412826Y-68185702D01*
X72391593Y-68134441D01*
X72422094Y-68118137D01*
X72518785Y-68038785D01*
X72598137Y-67942094D01*
X72657102Y-67831780D01*
X72693412Y-67712082D01*
X72705672Y-67587600D01*
X72705672Y-66087600D01*
X72693412Y-65963118D01*
X72657102Y-65843420D01*
X72598137Y-65733106D01*
X72518785Y-65636415D01*
X72422094Y-65557063D01*
X72311780Y-65498098D01*
X72277173Y-65487600D01*
X72311780Y-65477102D01*
X72422094Y-65418137D01*
X72518785Y-65338785D01*
X72598137Y-65242094D01*
X72657102Y-65131780D01*
X72693412Y-65012082D01*
X72705672Y-64887600D01*
X72705672Y-63387600D01*
X72693412Y-63263118D01*
X72657102Y-63143420D01*
X72598137Y-63033106D01*
X72518785Y-62936415D01*
X72422094Y-62857063D01*
X72311780Y-62798098D01*
X72192082Y-62761788D01*
X72067600Y-62749528D01*
X70767600Y-62749528D01*
X70643118Y-62761788D01*
X70523420Y-62798098D01*
X70413106Y-62857063D01*
X70316415Y-62936415D01*
X70237063Y-63033106D01*
X70178098Y-63143420D01*
X70141788Y-63263118D01*
X70129528Y-63387600D01*
X70129528Y-64368989D01*
X70127271Y-64368989D01*
X69964200Y-64401426D01*
X69964200Y-63618792D01*
X69967272Y-63587600D01*
X69967272Y-60387600D01*
X69955012Y-60263118D01*
X69918702Y-60143420D01*
X69859737Y-60033106D01*
X69780385Y-59936415D01*
X69683694Y-59857063D01*
X69573380Y-59798098D01*
X69453682Y-59761788D01*
X69329200Y-59749528D01*
X68329200Y-59749528D01*
X68204718Y-59761788D01*
X68085020Y-59798098D01*
X67974706Y-59857063D01*
X67878015Y-59936415D01*
X67798663Y-60033106D01*
X67739698Y-60143420D01*
X67703388Y-60263118D01*
X67691128Y-60387600D01*
X67691128Y-63587600D01*
X67694201Y-63618799D01*
X67694200Y-66356406D01*
X67691128Y-66387600D01*
X67691128Y-69533491D01*
X65068623Y-69533491D01*
X63767272Y-68232141D01*
X63767272Y-66723761D01*
X63769691Y-66699200D01*
X63767272Y-66674639D01*
X63767272Y-66387600D01*
X63755012Y-66263118D01*
X63718702Y-66143420D01*
X63659737Y-66033106D01*
X63580385Y-65936415D01*
X63483694Y-65857063D01*
X63373380Y-65798098D01*
X63315747Y-65780615D01*
X61759596Y-64224465D01*
X61724049Y-64181151D01*
X61551223Y-64039316D01*
X61354047Y-63933924D01*
X61140099Y-63869023D01*
X60973352Y-63852600D01*
X60973351Y-63852600D01*
X60917600Y-63847109D01*
X60861849Y-63852600D01*
X60784373Y-63852600D01*
X60795502Y-63831780D01*
X60831812Y-63712082D01*
X60844072Y-63587600D01*
X60844072Y-63002200D01*
X61491128Y-63002200D01*
X61491128Y-63587600D01*
X61503388Y-63712082D01*
X61539698Y-63831780D01*
X61598663Y-63942094D01*
X61678015Y-64038785D01*
X61774706Y-64118137D01*
X61885020Y-64177102D01*
X62004718Y-64213412D01*
X62129200Y-64225672D01*
X63129200Y-64225672D01*
X63253682Y-64213412D01*
X63373380Y-64177102D01*
X63483694Y-64118137D01*
X63580385Y-64038785D01*
X63659737Y-63942094D01*
X63718702Y-63831780D01*
X63755012Y-63712082D01*
X63767272Y-63587600D01*
X63767272Y-61891761D01*
X63769691Y-61867200D01*
X63767272Y-61842639D01*
X63767272Y-60387600D01*
X63755012Y-60263118D01*
X63718702Y-60143420D01*
X63659737Y-60033106D01*
X63580385Y-59936415D01*
X63483694Y-59857063D01*
X63373380Y-59798098D01*
X63253682Y-59761788D01*
X63129200Y-59749528D01*
X62129200Y-59749528D01*
X62004718Y-59761788D01*
X61885020Y-59798098D01*
X61774706Y-59857063D01*
X61678015Y-59936415D01*
X61598663Y-60033106D01*
X61539698Y-60143420D01*
X61503388Y-60263118D01*
X61491128Y-60387600D01*
X61491128Y-60732200D01*
X60844072Y-60732200D01*
X60844072Y-60387600D01*
X60831812Y-60263118D01*
X60795502Y-60143420D01*
X60736537Y-60033106D01*
X60657185Y-59936415D01*
X60560494Y-59857063D01*
X60450180Y-59798098D01*
X60330482Y-59761788D01*
X60206000Y-59749528D01*
X59360100Y-59749528D01*
X59469460Y-59716354D01*
X59605833Y-59643462D01*
X59725364Y-59545364D01*
X59749947Y-59515410D01*
X60989686Y-58275672D01*
X62017600Y-58275672D01*
X62142082Y-58263412D01*
X62261780Y-58227102D01*
X62372094Y-58168137D01*
X62468785Y-58088785D01*
X62548137Y-57992094D01*
X62607102Y-57881780D01*
X62643412Y-57762082D01*
X62655672Y-57637600D01*
X62655672Y-56672599D01*
X63925775Y-56672599D01*
X64768588Y-57515413D01*
X64793169Y-57545364D01*
X64823117Y-57569942D01*
X64823120Y-57569945D01*
X64850696Y-57592576D01*
X64912700Y-57643462D01*
X65019036Y-57700299D01*
X65025121Y-57762082D01*
X65061431Y-57881780D01*
X65120396Y-57992094D01*
X65199748Y-58088785D01*
X65296439Y-58168137D01*
X65406753Y-58227102D01*
X65526451Y-58263412D01*
X65650933Y-58275672D01*
X67150933Y-58275672D01*
X67275415Y-58263412D01*
X67395113Y-58227102D01*
X67505427Y-58168137D01*
X67602118Y-58088785D01*
X67681470Y-57992094D01*
X67740435Y-57881780D01*
X67750933Y-57847173D01*
X67761431Y-57881780D01*
X67820396Y-57992094D01*
X67899748Y-58088785D01*
X67996439Y-58168137D01*
X68106753Y-58227102D01*
X68226451Y-58263412D01*
X68350933Y-58275672D01*
X68815183Y-58272600D01*
X68973933Y-58113850D01*
X68973933Y-57114600D01*
X69227933Y-57114600D01*
X69227933Y-58113850D01*
X69386683Y-58272600D01*
X69850933Y-58275672D01*
X69975415Y-58263412D01*
X70095113Y-58227102D01*
X70205427Y-58168137D01*
X70302118Y-58088785D01*
X70381470Y-57992094D01*
X70440435Y-57881780D01*
X70476745Y-57762082D01*
X70489005Y-57637600D01*
X72846194Y-57637600D01*
X72858454Y-57762082D01*
X72894764Y-57881780D01*
X72953729Y-57992094D01*
X73033081Y-58088785D01*
X73129772Y-58168137D01*
X73240086Y-58227102D01*
X73359784Y-58263412D01*
X73484266Y-58275672D01*
X73948516Y-58272600D01*
X74107266Y-58113850D01*
X74107266Y-57114600D01*
X73008016Y-57114600D01*
X72849266Y-57273350D01*
X72846194Y-57637600D01*
X70489005Y-57637600D01*
X70485933Y-57273350D01*
X70327183Y-57114600D01*
X69227933Y-57114600D01*
X68973933Y-57114600D01*
X68953933Y-57114600D01*
X68953933Y-56860600D01*
X68973933Y-56860600D01*
X68973933Y-55861350D01*
X69227933Y-55861350D01*
X69227933Y-56860600D01*
X70327183Y-56860600D01*
X70485933Y-56701850D01*
X70489005Y-56337600D01*
X72846194Y-56337600D01*
X72849266Y-56701850D01*
X73008016Y-56860600D01*
X74107266Y-56860600D01*
X74107266Y-55861350D01*
X73948516Y-55702600D01*
X73484266Y-55699528D01*
X73359784Y-55711788D01*
X73240086Y-55748098D01*
X73129772Y-55807063D01*
X73033081Y-55886415D01*
X72953729Y-55983106D01*
X72894764Y-56093420D01*
X72858454Y-56213118D01*
X72846194Y-56337600D01*
X70489005Y-56337600D01*
X70476745Y-56213118D01*
X70440435Y-56093420D01*
X70381470Y-55983106D01*
X70302118Y-55886415D01*
X70205427Y-55807063D01*
X70095113Y-55748098D01*
X69975415Y-55711788D01*
X69850933Y-55699528D01*
X69386683Y-55702600D01*
X69227933Y-55861350D01*
X68973933Y-55861350D01*
X68815183Y-55702600D01*
X68350933Y-55699528D01*
X68226451Y-55711788D01*
X68106753Y-55748098D01*
X67996439Y-55807063D01*
X67899748Y-55886415D01*
X67820396Y-55983106D01*
X67761431Y-56093420D01*
X67750933Y-56128027D01*
X67740435Y-56093420D01*
X67681470Y-55983106D01*
X67602118Y-55886415D01*
X67505427Y-55807063D01*
X67395113Y-55748098D01*
X67275415Y-55711788D01*
X67150933Y-55699528D01*
X65650933Y-55699528D01*
X65526451Y-55711788D01*
X65406753Y-55748098D01*
X65296439Y-55807063D01*
X65287714Y-55814223D01*
X65047490Y-55574000D01*
X89313069Y-55574000D01*
X89642910Y-55615163D01*
G36*
X73338844Y-76777737D02*
G01*
X73293957Y-76925710D01*
X73282598Y-77041036D01*
X73282598Y-77041043D01*
X73278801Y-77079596D01*
X73282598Y-77118149D01*
X73282599Y-78357040D01*
X73278801Y-78395602D01*
X73293957Y-78549488D01*
X73338844Y-78697461D01*
X73349013Y-78716486D01*
X73411737Y-78833835D01*
X73436870Y-78864459D01*
X73485253Y-78923414D01*
X73485257Y-78923418D01*
X73509835Y-78953366D01*
X73539783Y-78977944D01*
X75577254Y-81015416D01*
X75601832Y-81045364D01*
X75631780Y-81069942D01*
X75631783Y-81069945D01*
X75646204Y-81081780D01*
X75721363Y-81143462D01*
X75853255Y-81213959D01*
X75857736Y-81216354D01*
X76005709Y-81261242D01*
X76080622Y-81268620D01*
X76121035Y-81272600D01*
X76121040Y-81272600D01*
X76159596Y-81276397D01*
X76198151Y-81272600D01*
X78080743Y-81272600D01*
X78539673Y-81755369D01*
X78132443Y-82162600D01*
X70975054Y-82162600D01*
X70993412Y-82102082D01*
X71005672Y-81977600D01*
X71002600Y-81963350D01*
X70843850Y-81804600D01*
X69744600Y-81804600D01*
X69744600Y-81824600D01*
X69490600Y-81824600D01*
X69490600Y-81804600D01*
X69470600Y-81804600D01*
X69470600Y-81550600D01*
X69490600Y-81550600D01*
X69490600Y-80901350D01*
X69744600Y-80901350D01*
X69744600Y-81550600D01*
X70843850Y-81550600D01*
X71002600Y-81391850D01*
X71005672Y-81377600D01*
X70993412Y-81253118D01*
X70957102Y-81133420D01*
X70898137Y-81023106D01*
X70818785Y-80926415D01*
X70722094Y-80847063D01*
X70611780Y-80788098D01*
X70492082Y-80751788D01*
X70367600Y-80739528D01*
X69903350Y-80742600D01*
X69744600Y-80901350D01*
X69490600Y-80901350D01*
X69331850Y-80742600D01*
X68867600Y-80739528D01*
X68743118Y-80751788D01*
X68702600Y-80764079D01*
X68702600Y-80666311D01*
X68721537Y-80647374D01*
X68834805Y-80477856D01*
X68912826Y-80289498D01*
X68952600Y-80089539D01*
X68952600Y-80016782D01*
X68957999Y-80020389D01*
X69146357Y-80098410D01*
X69346316Y-80138184D01*
X69550194Y-80138184D01*
X69750153Y-80098410D01*
X69938511Y-80020389D01*
X70108029Y-79907121D01*
X70252192Y-79762958D01*
X70365460Y-79593440D01*
X70443481Y-79405082D01*
X70483255Y-79205123D01*
X70483255Y-79001245D01*
X70443481Y-78801286D01*
X70376287Y-78639066D01*
X71492753Y-77522600D01*
X71519535Y-77522600D01*
X71719494Y-77482826D01*
X71907852Y-77404805D01*
X72077370Y-77291537D01*
X72221533Y-77147374D01*
X72334801Y-76977856D01*
X72412822Y-76789498D01*
X72415572Y-76775672D01*
X73339948Y-76775672D01*
X73338844Y-76777737D01*
X73338844Y-76777737D01*
G37*
X73338844Y-76777737D02*
X73293957Y-76925710D01*
X73282598Y-77041036D01*
X73282598Y-77041043D01*
X73278801Y-77079596D01*
X73282598Y-77118149D01*
X73282599Y-78357040D01*
X73278801Y-78395602D01*
X73293957Y-78549488D01*
X73338844Y-78697461D01*
X73349013Y-78716486D01*
X73411737Y-78833835D01*
X73436870Y-78864459D01*
X73485253Y-78923414D01*
X73485257Y-78923418D01*
X73509835Y-78953366D01*
X73539783Y-78977944D01*
X75577254Y-81015416D01*
X75601832Y-81045364D01*
X75631780Y-81069942D01*
X75631783Y-81069945D01*
X75646204Y-81081780D01*
X75721363Y-81143462D01*
X75853255Y-81213959D01*
X75857736Y-81216354D01*
X76005709Y-81261242D01*
X76080622Y-81268620D01*
X76121035Y-81272600D01*
X76121040Y-81272600D01*
X76159596Y-81276397D01*
X76198151Y-81272600D01*
X78080743Y-81272600D01*
X78539673Y-81755369D01*
X78132443Y-82162600D01*
X70975054Y-82162600D01*
X70993412Y-82102082D01*
X71005672Y-81977600D01*
X71002600Y-81963350D01*
X70843850Y-81804600D01*
X69744600Y-81804600D01*
X69744600Y-81824600D01*
X69490600Y-81824600D01*
X69490600Y-81804600D01*
X69470600Y-81804600D01*
X69470600Y-81550600D01*
X69490600Y-81550600D01*
X69490600Y-80901350D01*
X69744600Y-80901350D01*
X69744600Y-81550600D01*
X70843850Y-81550600D01*
X71002600Y-81391850D01*
X71005672Y-81377600D01*
X70993412Y-81253118D01*
X70957102Y-81133420D01*
X70898137Y-81023106D01*
X70818785Y-80926415D01*
X70722094Y-80847063D01*
X70611780Y-80788098D01*
X70492082Y-80751788D01*
X70367600Y-80739528D01*
X69903350Y-80742600D01*
X69744600Y-80901350D01*
X69490600Y-80901350D01*
X69331850Y-80742600D01*
X68867600Y-80739528D01*
X68743118Y-80751788D01*
X68702600Y-80764079D01*
X68702600Y-80666311D01*
X68721537Y-80647374D01*
X68834805Y-80477856D01*
X68912826Y-80289498D01*
X68952600Y-80089539D01*
X68952600Y-80016782D01*
X68957999Y-80020389D01*
X69146357Y-80098410D01*
X69346316Y-80138184D01*
X69550194Y-80138184D01*
X69750153Y-80098410D01*
X69938511Y-80020389D01*
X70108029Y-79907121D01*
X70252192Y-79762958D01*
X70365460Y-79593440D01*
X70443481Y-79405082D01*
X70483255Y-79205123D01*
X70483255Y-79001245D01*
X70443481Y-78801286D01*
X70376287Y-78639066D01*
X71492753Y-77522600D01*
X71519535Y-77522600D01*
X71719494Y-77482826D01*
X71907852Y-77404805D01*
X72077370Y-77291537D01*
X72221533Y-77147374D01*
X72334801Y-76977856D01*
X72412822Y-76789498D01*
X72415572Y-76775672D01*
X73339948Y-76775672D01*
X73338844Y-76777737D01*
G36*
X58845514Y-55699528D02*
G01*
X57817600Y-55699528D01*
X57693118Y-55711788D01*
X57573420Y-55748098D01*
X57463106Y-55807063D01*
X57366415Y-55886415D01*
X57287063Y-55983106D01*
X57228098Y-56093420D01*
X57191788Y-56213118D01*
X57179528Y-56337600D01*
X57179528Y-57637600D01*
X57191788Y-57762082D01*
X57228098Y-57881780D01*
X57287063Y-57992094D01*
X57366415Y-58088785D01*
X57381404Y-58101086D01*
X57257818Y-58183663D01*
X57113655Y-58327826D01*
X57000387Y-58497344D01*
X56922366Y-58685702D01*
X56882592Y-58885661D01*
X56882592Y-59089539D01*
X56922366Y-59289498D01*
X57000387Y-59477856D01*
X57113655Y-59647374D01*
X57257818Y-59791537D01*
X57427336Y-59904805D01*
X57615694Y-59982826D01*
X57815653Y-60022600D01*
X58019531Y-60022600D01*
X58219490Y-59982826D01*
X58407848Y-59904805D01*
X58577366Y-59791537D01*
X58596303Y-59772600D01*
X59045876Y-59772600D01*
X58961820Y-59798098D01*
X58851506Y-59857063D01*
X58754815Y-59936415D01*
X58675463Y-60033106D01*
X58616498Y-60143420D01*
X58580188Y-60263118D01*
X58567928Y-60387600D01*
X58567928Y-61842639D01*
X58565509Y-61867200D01*
X58567928Y-61891761D01*
X58567928Y-63587600D01*
X58580188Y-63712082D01*
X58616498Y-63831780D01*
X58627627Y-63852600D01*
X57866153Y-63852600D01*
X57842938Y-63817856D01*
X57587344Y-63562262D01*
X57286799Y-63361444D01*
X56952850Y-63223118D01*
X56598332Y-63152600D01*
X56236868Y-63152600D01*
X55882350Y-63223118D01*
X55548401Y-63361444D01*
X55247856Y-63562262D01*
X54992262Y-63817856D01*
X54791444Y-64118401D01*
X54653118Y-64452350D01*
X54641000Y-64513271D01*
X54641000Y-63618792D01*
X54644072Y-63587600D01*
X54644072Y-60387600D01*
X54631812Y-60263118D01*
X54595502Y-60143420D01*
X54536537Y-60033106D01*
X54457185Y-59936415D01*
X54360494Y-59857063D01*
X54250180Y-59798098D01*
X54130482Y-59761788D01*
X54006000Y-59749528D01*
X53006000Y-59749528D01*
X52881518Y-59761788D01*
X52761820Y-59798098D01*
X52651506Y-59857063D01*
X52554815Y-59936415D01*
X52475463Y-60033106D01*
X52416498Y-60143420D01*
X52380188Y-60263118D01*
X52367928Y-60387600D01*
X52367928Y-63587600D01*
X52371000Y-63618795D01*
X52371001Y-66356401D01*
X52367928Y-66387600D01*
X52367928Y-69587600D01*
X52380188Y-69712082D01*
X52416498Y-69831780D01*
X52475463Y-69942094D01*
X52554815Y-70038785D01*
X52651506Y-70118137D01*
X52761820Y-70177102D01*
X52881518Y-70213412D01*
X53006000Y-70225672D01*
X54006000Y-70225672D01*
X54130482Y-70213412D01*
X54250180Y-70177102D01*
X54360494Y-70118137D01*
X54457185Y-70038785D01*
X54536537Y-69942094D01*
X54595502Y-69831780D01*
X54631812Y-69712082D01*
X54644072Y-69587600D01*
X54644072Y-66387600D01*
X54641000Y-66356408D01*
X54641000Y-65461929D01*
X54653118Y-65522850D01*
X54791444Y-65856799D01*
X54992262Y-66157344D01*
X55247856Y-66412938D01*
X55548401Y-66613756D01*
X55882350Y-66752082D01*
X56236868Y-66822600D01*
X56598332Y-66822600D01*
X56952850Y-66752082D01*
X57286799Y-66613756D01*
X57587344Y-66412938D01*
X57842938Y-66157344D01*
X57866153Y-66122600D01*
X58627627Y-66122600D01*
X58616498Y-66143420D01*
X58580188Y-66263118D01*
X58567928Y-66387600D01*
X58567928Y-69587600D01*
X58571001Y-69618798D01*
X58571001Y-70531839D01*
X58565509Y-70587600D01*
X58587423Y-70810098D01*
X58652324Y-71024046D01*
X58652325Y-71024047D01*
X58757717Y-71221223D01*
X58899552Y-71394049D01*
X58942860Y-71429591D01*
X59088057Y-71574788D01*
X59078098Y-71593420D01*
X59041788Y-71713118D01*
X59029528Y-71837600D01*
X59032600Y-72201850D01*
X59191350Y-72360600D01*
X60290600Y-72360600D01*
X60290600Y-72340600D01*
X60544600Y-72340600D01*
X60544600Y-72360600D01*
X60564600Y-72360600D01*
X60564600Y-72614600D01*
X60544600Y-72614600D01*
X60544600Y-73613850D01*
X60703350Y-73772600D01*
X61032627Y-73774779D01*
X61032627Y-74200421D01*
X60703350Y-74202600D01*
X60544600Y-74361350D01*
X60544600Y-75360600D01*
X60564600Y-75360600D01*
X60564600Y-75614600D01*
X60544600Y-75614600D01*
X60544600Y-76613850D01*
X60703350Y-76772600D01*
X61032626Y-76774779D01*
X61032626Y-77587417D01*
X60639785Y-77980258D01*
X60609837Y-78004836D01*
X60585259Y-78034784D01*
X60585255Y-78034788D01*
X60561315Y-78063959D01*
X60511739Y-78124367D01*
X60495322Y-78155082D01*
X60458202Y-78224528D01*
X60417600Y-78224528D01*
X60293118Y-78236788D01*
X60173420Y-78273098D01*
X60063106Y-78332063D01*
X59966415Y-78411415D01*
X59887063Y-78508106D01*
X59828098Y-78618420D01*
X59791788Y-78738118D01*
X59779528Y-78862600D01*
X59779528Y-80112600D01*
X59791788Y-80237082D01*
X59828098Y-80356780D01*
X59887063Y-80467094D01*
X59966415Y-80563785D01*
X60063106Y-80643137D01*
X60173420Y-80702102D01*
X60293118Y-80738412D01*
X60417600Y-80750672D01*
X61070515Y-80750672D01*
X62482442Y-82162600D01*
X59352757Y-82162600D01*
X57649947Y-80459790D01*
X57625364Y-80429836D01*
X57505833Y-80331738D01*
X57405672Y-80278201D01*
X57405672Y-80137600D01*
X57393412Y-80013118D01*
X57357102Y-79893420D01*
X57298137Y-79783106D01*
X57218785Y-79686415D01*
X57122094Y-79607063D01*
X57011780Y-79548098D01*
X56892082Y-79511788D01*
X56767600Y-79499528D01*
X56068847Y-79499528D01*
X56086633Y-79477856D01*
X56110397Y-79448900D01*
X56183289Y-79312527D01*
X56215870Y-79205123D01*
X56228176Y-79164555D01*
X56233446Y-79111049D01*
X56239535Y-79049228D01*
X56239535Y-79049221D01*
X56243332Y-79010668D01*
X56239535Y-78972115D01*
X56239535Y-76774203D01*
X56481850Y-76772600D01*
X56640600Y-76613850D01*
X56640600Y-75614600D01*
X56894600Y-75614600D01*
X56894600Y-76613850D01*
X57053350Y-76772600D01*
X57517600Y-76775672D01*
X57642082Y-76763412D01*
X57761780Y-76727102D01*
X57872094Y-76668137D01*
X57968785Y-76588785D01*
X58048137Y-76492094D01*
X58107102Y-76381780D01*
X58143412Y-76262082D01*
X58155672Y-76137600D01*
X59029528Y-76137600D01*
X59041788Y-76262082D01*
X59078098Y-76381780D01*
X59137063Y-76492094D01*
X59216415Y-76588785D01*
X59313106Y-76668137D01*
X59423420Y-76727102D01*
X59543118Y-76763412D01*
X59667600Y-76775672D01*
X60131850Y-76772600D01*
X60290600Y-76613850D01*
X60290600Y-75614600D01*
X59191350Y-75614600D01*
X59032600Y-75773350D01*
X59029528Y-76137600D01*
X58155672Y-76137600D01*
X58152600Y-75773350D01*
X57993850Y-75614600D01*
X56894600Y-75614600D01*
X56640600Y-75614600D01*
X56620600Y-75614600D01*
X56620600Y-75360600D01*
X56640600Y-75360600D01*
X56640600Y-75340600D01*
X56894600Y-75340600D01*
X56894600Y-75360600D01*
X57993850Y-75360600D01*
X58152600Y-75201850D01*
X58155672Y-74837600D01*
X59029528Y-74837600D01*
X59032600Y-75201850D01*
X59191350Y-75360600D01*
X60290600Y-75360600D01*
X60290600Y-74361350D01*
X60131850Y-74202600D01*
X59667600Y-74199528D01*
X59543118Y-74211788D01*
X59423420Y-74248098D01*
X59313106Y-74307063D01*
X59216415Y-74386415D01*
X59137063Y-74483106D01*
X59078098Y-74593420D01*
X59041788Y-74713118D01*
X59029528Y-74837600D01*
X58155672Y-74837600D01*
X58143412Y-74713118D01*
X58107102Y-74593420D01*
X58048137Y-74483106D01*
X57968785Y-74386415D01*
X57872094Y-74307063D01*
X57761780Y-74248098D01*
X57642082Y-74211788D01*
X57517600Y-74199528D01*
X57113154Y-74202204D01*
X57295415Y-74019942D01*
X57325364Y-73995364D01*
X57349946Y-73965412D01*
X57374050Y-73936041D01*
X57423462Y-73875833D01*
X57476999Y-73775672D01*
X57517600Y-73775672D01*
X57642082Y-73763412D01*
X57761780Y-73727102D01*
X57872094Y-73668137D01*
X57968785Y-73588785D01*
X58048137Y-73492094D01*
X58107102Y-73381780D01*
X58143412Y-73262082D01*
X58155672Y-73137600D01*
X59029528Y-73137600D01*
X59041788Y-73262082D01*
X59078098Y-73381780D01*
X59137063Y-73492094D01*
X59216415Y-73588785D01*
X59313106Y-73668137D01*
X59423420Y-73727102D01*
X59543118Y-73763412D01*
X59667600Y-73775672D01*
X60131850Y-73772600D01*
X60290600Y-73613850D01*
X60290600Y-72614600D01*
X59191350Y-72614600D01*
X59032600Y-72773350D01*
X59029528Y-73137600D01*
X58155672Y-73137600D01*
X58155672Y-71837600D01*
X58143412Y-71713118D01*
X58107102Y-71593420D01*
X58048137Y-71483106D01*
X57968785Y-71386415D01*
X57872094Y-71307063D01*
X57761780Y-71248098D01*
X57642082Y-71211788D01*
X57517600Y-71199528D01*
X56017600Y-71199528D01*
X55893118Y-71211788D01*
X55773420Y-71248098D01*
X55663106Y-71307063D01*
X55566415Y-71386415D01*
X55487063Y-71483106D01*
X55428098Y-71593420D01*
X55417600Y-71628027D01*
X55407102Y-71593420D01*
X55348137Y-71483106D01*
X55268785Y-71386415D01*
X55172094Y-71307063D01*
X55061780Y-71248098D01*
X54942082Y-71211788D01*
X54817600Y-71199528D01*
X53317600Y-71199528D01*
X53193118Y-71211788D01*
X53073420Y-71248098D01*
X52963106Y-71307063D01*
X52866415Y-71386415D01*
X52787063Y-71483106D01*
X52728098Y-71593420D01*
X52691788Y-71713118D01*
X52679528Y-71837600D01*
X52679528Y-73137600D01*
X52691788Y-73262082D01*
X52728098Y-73381780D01*
X52787063Y-73492094D01*
X52866415Y-73588785D01*
X52963106Y-73668137D01*
X53073420Y-73727102D01*
X53193118Y-73763412D01*
X53282601Y-73772225D01*
X53282600Y-74202975D01*
X53193118Y-74211788D01*
X53073420Y-74248098D01*
X52963106Y-74307063D01*
X52866415Y-74386415D01*
X52787063Y-74483106D01*
X52728098Y-74593420D01*
X52691788Y-74713118D01*
X52679528Y-74837600D01*
X52679528Y-76137600D01*
X52691788Y-76262082D01*
X52728098Y-76381780D01*
X52787063Y-76492094D01*
X52866415Y-76588785D01*
X52963106Y-76668137D01*
X53073420Y-76727102D01*
X53193118Y-76763412D01*
X53282601Y-76772225D01*
X53282601Y-76855558D01*
X53278803Y-76894120D01*
X53291414Y-77022164D01*
X53219494Y-76992374D01*
X53019535Y-76952600D01*
X52815657Y-76952600D01*
X52615698Y-76992374D01*
X52427340Y-77070395D01*
X52322800Y-77140246D01*
X52322800Y-57184722D01*
X52356155Y-56844550D01*
X52444863Y-56550731D01*
X52588952Y-56279738D01*
X52782930Y-56041898D01*
X53019417Y-55846259D01*
X53289391Y-55700284D01*
X53582586Y-55609525D01*
X53741880Y-55592783D01*
X53524718Y-55682734D01*
X53215982Y-55889025D01*
X52953425Y-56151582D01*
X52747134Y-56460318D01*
X52605039Y-56803366D01*
X52532600Y-57167544D01*
X52532600Y-57538856D01*
X52605039Y-57903034D01*
X52747134Y-58246082D01*
X52953425Y-58554818D01*
X53215982Y-58817375D01*
X53524718Y-59023666D01*
X53867766Y-59165761D01*
X54231944Y-59238200D01*
X54603256Y-59238200D01*
X54967434Y-59165761D01*
X55310482Y-59023666D01*
X55619218Y-58817375D01*
X55881775Y-58554818D01*
X56088066Y-58246082D01*
X56230161Y-57903034D01*
X56302600Y-57538856D01*
X56302600Y-57167544D01*
X56230161Y-56803366D01*
X56088066Y-56460318D01*
X55881775Y-56151582D01*
X55619218Y-55889025D01*
X55310482Y-55682734D01*
X55047975Y-55574000D01*
X58971042Y-55574000D01*
X58845514Y-55699528D01*
X58845514Y-55699528D01*
G37*
X58845514Y-55699528D02*
X57817600Y-55699528D01*
X57693118Y-55711788D01*
X57573420Y-55748098D01*
X57463106Y-55807063D01*
X57366415Y-55886415D01*
X57287063Y-55983106D01*
X57228098Y-56093420D01*
X57191788Y-56213118D01*
X57179528Y-56337600D01*
X57179528Y-57637600D01*
X57191788Y-57762082D01*
X57228098Y-57881780D01*
X57287063Y-57992094D01*
X57366415Y-58088785D01*
X57381404Y-58101086D01*
X57257818Y-58183663D01*
X57113655Y-58327826D01*
X57000387Y-58497344D01*
X56922366Y-58685702D01*
X56882592Y-58885661D01*
X56882592Y-59089539D01*
X56922366Y-59289498D01*
X57000387Y-59477856D01*
X57113655Y-59647374D01*
X57257818Y-59791537D01*
X57427336Y-59904805D01*
X57615694Y-59982826D01*
X57815653Y-60022600D01*
X58019531Y-60022600D01*
X58219490Y-59982826D01*
X58407848Y-59904805D01*
X58577366Y-59791537D01*
X58596303Y-59772600D01*
X59045876Y-59772600D01*
X58961820Y-59798098D01*
X58851506Y-59857063D01*
X58754815Y-59936415D01*
X58675463Y-60033106D01*
X58616498Y-60143420D01*
X58580188Y-60263118D01*
X58567928Y-60387600D01*
X58567928Y-61842639D01*
X58565509Y-61867200D01*
X58567928Y-61891761D01*
X58567928Y-63587600D01*
X58580188Y-63712082D01*
X58616498Y-63831780D01*
X58627627Y-63852600D01*
X57866153Y-63852600D01*
X57842938Y-63817856D01*
X57587344Y-63562262D01*
X57286799Y-63361444D01*
X56952850Y-63223118D01*
X56598332Y-63152600D01*
X56236868Y-63152600D01*
X55882350Y-63223118D01*
X55548401Y-63361444D01*
X55247856Y-63562262D01*
X54992262Y-63817856D01*
X54791444Y-64118401D01*
X54653118Y-64452350D01*
X54641000Y-64513271D01*
X54641000Y-63618792D01*
X54644072Y-63587600D01*
X54644072Y-60387600D01*
X54631812Y-60263118D01*
X54595502Y-60143420D01*
X54536537Y-60033106D01*
X54457185Y-59936415D01*
X54360494Y-59857063D01*
X54250180Y-59798098D01*
X54130482Y-59761788D01*
X54006000Y-59749528D01*
X53006000Y-59749528D01*
X52881518Y-59761788D01*
X52761820Y-59798098D01*
X52651506Y-59857063D01*
X52554815Y-59936415D01*
X52475463Y-60033106D01*
X52416498Y-60143420D01*
X52380188Y-60263118D01*
X52367928Y-60387600D01*
X52367928Y-63587600D01*
X52371000Y-63618795D01*
X52371001Y-66356401D01*
X52367928Y-66387600D01*
X52367928Y-69587600D01*
X52380188Y-69712082D01*
X52416498Y-69831780D01*
X52475463Y-69942094D01*
X52554815Y-70038785D01*
X52651506Y-70118137D01*
X52761820Y-70177102D01*
X52881518Y-70213412D01*
X53006000Y-70225672D01*
X54006000Y-70225672D01*
X54130482Y-70213412D01*
X54250180Y-70177102D01*
X54360494Y-70118137D01*
X54457185Y-70038785D01*
X54536537Y-69942094D01*
X54595502Y-69831780D01*
X54631812Y-69712082D01*
X54644072Y-69587600D01*
X54644072Y-66387600D01*
X54641000Y-66356408D01*
X54641000Y-65461929D01*
X54653118Y-65522850D01*
X54791444Y-65856799D01*
X54992262Y-66157344D01*
X55247856Y-66412938D01*
X55548401Y-66613756D01*
X55882350Y-66752082D01*
X56236868Y-66822600D01*
X56598332Y-66822600D01*
X56952850Y-66752082D01*
X57286799Y-66613756D01*
X57587344Y-66412938D01*
X57842938Y-66157344D01*
X57866153Y-66122600D01*
X58627627Y-66122600D01*
X58616498Y-66143420D01*
X58580188Y-66263118D01*
X58567928Y-66387600D01*
X58567928Y-69587600D01*
X58571001Y-69618798D01*
X58571001Y-70531839D01*
X58565509Y-70587600D01*
X58587423Y-70810098D01*
X58652324Y-71024046D01*
X58652325Y-71024047D01*
X58757717Y-71221223D01*
X58899552Y-71394049D01*
X58942860Y-71429591D01*
X59088057Y-71574788D01*
X59078098Y-71593420D01*
X59041788Y-71713118D01*
X59029528Y-71837600D01*
X59032600Y-72201850D01*
X59191350Y-72360600D01*
X60290600Y-72360600D01*
X60290600Y-72340600D01*
X60544600Y-72340600D01*
X60544600Y-72360600D01*
X60564600Y-72360600D01*
X60564600Y-72614600D01*
X60544600Y-72614600D01*
X60544600Y-73613850D01*
X60703350Y-73772600D01*
X61032627Y-73774779D01*
X61032627Y-74200421D01*
X60703350Y-74202600D01*
X60544600Y-74361350D01*
X60544600Y-75360600D01*
X60564600Y-75360600D01*
X60564600Y-75614600D01*
X60544600Y-75614600D01*
X60544600Y-76613850D01*
X60703350Y-76772600D01*
X61032626Y-76774779D01*
X61032626Y-77587417D01*
X60639785Y-77980258D01*
X60609837Y-78004836D01*
X60585259Y-78034784D01*
X60585255Y-78034788D01*
X60561315Y-78063959D01*
X60511739Y-78124367D01*
X60495322Y-78155082D01*
X60458202Y-78224528D01*
X60417600Y-78224528D01*
X60293118Y-78236788D01*
X60173420Y-78273098D01*
X60063106Y-78332063D01*
X59966415Y-78411415D01*
X59887063Y-78508106D01*
X59828098Y-78618420D01*
X59791788Y-78738118D01*
X59779528Y-78862600D01*
X59779528Y-80112600D01*
X59791788Y-80237082D01*
X59828098Y-80356780D01*
X59887063Y-80467094D01*
X59966415Y-80563785D01*
X60063106Y-80643137D01*
X60173420Y-80702102D01*
X60293118Y-80738412D01*
X60417600Y-80750672D01*
X61070515Y-80750672D01*
X62482442Y-82162600D01*
X59352757Y-82162600D01*
X57649947Y-80459790D01*
X57625364Y-80429836D01*
X57505833Y-80331738D01*
X57405672Y-80278201D01*
X57405672Y-80137600D01*
X57393412Y-80013118D01*
X57357102Y-79893420D01*
X57298137Y-79783106D01*
X57218785Y-79686415D01*
X57122094Y-79607063D01*
X57011780Y-79548098D01*
X56892082Y-79511788D01*
X56767600Y-79499528D01*
X56068847Y-79499528D01*
X56086633Y-79477856D01*
X56110397Y-79448900D01*
X56183289Y-79312527D01*
X56215870Y-79205123D01*
X56228176Y-79164555D01*
X56233446Y-79111049D01*
X56239535Y-79049228D01*
X56239535Y-79049221D01*
X56243332Y-79010668D01*
X56239535Y-78972115D01*
X56239535Y-76774203D01*
X56481850Y-76772600D01*
X56640600Y-76613850D01*
X56640600Y-75614600D01*
X56894600Y-75614600D01*
X56894600Y-76613850D01*
X57053350Y-76772600D01*
X57517600Y-76775672D01*
X57642082Y-76763412D01*
X57761780Y-76727102D01*
X57872094Y-76668137D01*
X57968785Y-76588785D01*
X58048137Y-76492094D01*
X58107102Y-76381780D01*
X58143412Y-76262082D01*
X58155672Y-76137600D01*
X59029528Y-76137600D01*
X59041788Y-76262082D01*
X59078098Y-76381780D01*
X59137063Y-76492094D01*
X59216415Y-76588785D01*
X59313106Y-76668137D01*
X59423420Y-76727102D01*
X59543118Y-76763412D01*
X59667600Y-76775672D01*
X60131850Y-76772600D01*
X60290600Y-76613850D01*
X60290600Y-75614600D01*
X59191350Y-75614600D01*
X59032600Y-75773350D01*
X59029528Y-76137600D01*
X58155672Y-76137600D01*
X58152600Y-75773350D01*
X57993850Y-75614600D01*
X56894600Y-75614600D01*
X56640600Y-75614600D01*
X56620600Y-75614600D01*
X56620600Y-75360600D01*
X56640600Y-75360600D01*
X56640600Y-75340600D01*
X56894600Y-75340600D01*
X56894600Y-75360600D01*
X57993850Y-75360600D01*
X58152600Y-75201850D01*
X58155672Y-74837600D01*
X59029528Y-74837600D01*
X59032600Y-75201850D01*
X59191350Y-75360600D01*
X60290600Y-75360600D01*
X60290600Y-74361350D01*
X60131850Y-74202600D01*
X59667600Y-74199528D01*
X59543118Y-74211788D01*
X59423420Y-74248098D01*
X59313106Y-74307063D01*
X59216415Y-74386415D01*
X59137063Y-74483106D01*
X59078098Y-74593420D01*
X59041788Y-74713118D01*
X59029528Y-74837600D01*
X58155672Y-74837600D01*
X58143412Y-74713118D01*
X58107102Y-74593420D01*
X58048137Y-74483106D01*
X57968785Y-74386415D01*
X57872094Y-74307063D01*
X57761780Y-74248098D01*
X57642082Y-74211788D01*
X57517600Y-74199528D01*
X57113154Y-74202204D01*
X57295415Y-74019942D01*
X57325364Y-73995364D01*
X57349946Y-73965412D01*
X57374050Y-73936041D01*
X57423462Y-73875833D01*
X57476999Y-73775672D01*
X57517600Y-73775672D01*
X57642082Y-73763412D01*
X57761780Y-73727102D01*
X57872094Y-73668137D01*
X57968785Y-73588785D01*
X58048137Y-73492094D01*
X58107102Y-73381780D01*
X58143412Y-73262082D01*
X58155672Y-73137600D01*
X59029528Y-73137600D01*
X59041788Y-73262082D01*
X59078098Y-73381780D01*
X59137063Y-73492094D01*
X59216415Y-73588785D01*
X59313106Y-73668137D01*
X59423420Y-73727102D01*
X59543118Y-73763412D01*
X59667600Y-73775672D01*
X60131850Y-73772600D01*
X60290600Y-73613850D01*
X60290600Y-72614600D01*
X59191350Y-72614600D01*
X59032600Y-72773350D01*
X59029528Y-73137600D01*
X58155672Y-73137600D01*
X58155672Y-71837600D01*
X58143412Y-71713118D01*
X58107102Y-71593420D01*
X58048137Y-71483106D01*
X57968785Y-71386415D01*
X57872094Y-71307063D01*
X57761780Y-71248098D01*
X57642082Y-71211788D01*
X57517600Y-71199528D01*
X56017600Y-71199528D01*
X55893118Y-71211788D01*
X55773420Y-71248098D01*
X55663106Y-71307063D01*
X55566415Y-71386415D01*
X55487063Y-71483106D01*
X55428098Y-71593420D01*
X55417600Y-71628027D01*
X55407102Y-71593420D01*
X55348137Y-71483106D01*
X55268785Y-71386415D01*
X55172094Y-71307063D01*
X55061780Y-71248098D01*
X54942082Y-71211788D01*
X54817600Y-71199528D01*
X53317600Y-71199528D01*
X53193118Y-71211788D01*
X53073420Y-71248098D01*
X52963106Y-71307063D01*
X52866415Y-71386415D01*
X52787063Y-71483106D01*
X52728098Y-71593420D01*
X52691788Y-71713118D01*
X52679528Y-71837600D01*
X52679528Y-73137600D01*
X52691788Y-73262082D01*
X52728098Y-73381780D01*
X52787063Y-73492094D01*
X52866415Y-73588785D01*
X52963106Y-73668137D01*
X53073420Y-73727102D01*
X53193118Y-73763412D01*
X53282601Y-73772225D01*
X53282600Y-74202975D01*
X53193118Y-74211788D01*
X53073420Y-74248098D01*
X52963106Y-74307063D01*
X52866415Y-74386415D01*
X52787063Y-74483106D01*
X52728098Y-74593420D01*
X52691788Y-74713118D01*
X52679528Y-74837600D01*
X52679528Y-76137600D01*
X52691788Y-76262082D01*
X52728098Y-76381780D01*
X52787063Y-76492094D01*
X52866415Y-76588785D01*
X52963106Y-76668137D01*
X53073420Y-76727102D01*
X53193118Y-76763412D01*
X53282601Y-76772225D01*
X53282601Y-76855558D01*
X53278803Y-76894120D01*
X53291414Y-77022164D01*
X53219494Y-76992374D01*
X53019535Y-76952600D01*
X52815657Y-76952600D01*
X52615698Y-76992374D01*
X52427340Y-77070395D01*
X52322800Y-77140246D01*
X52322800Y-57184722D01*
X52356155Y-56844550D01*
X52444863Y-56550731D01*
X52588952Y-56279738D01*
X52782930Y-56041898D01*
X53019417Y-55846259D01*
X53289391Y-55700284D01*
X53582586Y-55609525D01*
X53741880Y-55592783D01*
X53524718Y-55682734D01*
X53215982Y-55889025D01*
X52953425Y-56151582D01*
X52747134Y-56460318D01*
X52605039Y-56803366D01*
X52532600Y-57167544D01*
X52532600Y-57538856D01*
X52605039Y-57903034D01*
X52747134Y-58246082D01*
X52953425Y-58554818D01*
X53215982Y-58817375D01*
X53524718Y-59023666D01*
X53867766Y-59165761D01*
X54231944Y-59238200D01*
X54603256Y-59238200D01*
X54967434Y-59165761D01*
X55310482Y-59023666D01*
X55619218Y-58817375D01*
X55881775Y-58554818D01*
X56088066Y-58246082D01*
X56230161Y-57903034D01*
X56302600Y-57538856D01*
X56302600Y-57167544D01*
X56230161Y-56803366D01*
X56088066Y-56460318D01*
X55881775Y-56151582D01*
X55619218Y-55889025D01*
X55310482Y-55682734D01*
X55047975Y-55574000D01*
X58971042Y-55574000D01*
X58845514Y-55699528D01*
G36*
X64082601Y-78226745D02*
G01*
X63953350Y-78227600D01*
X63794600Y-78386350D01*
X63794600Y-79360600D01*
X63814600Y-79360600D01*
X63814600Y-79614600D01*
X63794600Y-79614600D01*
X63794600Y-79634600D01*
X63540600Y-79634600D01*
X63540600Y-79614600D01*
X63520600Y-79614600D01*
X63520600Y-79360600D01*
X63540600Y-79360600D01*
X63540600Y-78386350D01*
X63381850Y-78227600D01*
X62917600Y-78224528D01*
X62793118Y-78236788D01*
X62673420Y-78273098D01*
X62563106Y-78332063D01*
X62466415Y-78411415D01*
X62417600Y-78470896D01*
X62396266Y-78444901D01*
X62473488Y-78350807D01*
X62546380Y-78214434D01*
X62562951Y-78159808D01*
X62591268Y-78066461D01*
X62599994Y-77977856D01*
X62602626Y-77951135D01*
X62602626Y-77951130D01*
X62606423Y-77912574D01*
X62602626Y-77874018D01*
X62602626Y-76775672D01*
X63867600Y-76775672D01*
X63992082Y-76763412D01*
X64082601Y-76735953D01*
X64082601Y-78226745D01*
X64082601Y-78226745D01*
G37*
X64082601Y-78226745D02*
X63953350Y-78227600D01*
X63794600Y-78386350D01*
X63794600Y-79360600D01*
X63814600Y-79360600D01*
X63814600Y-79614600D01*
X63794600Y-79614600D01*
X63794600Y-79634600D01*
X63540600Y-79634600D01*
X63540600Y-79614600D01*
X63520600Y-79614600D01*
X63520600Y-79360600D01*
X63540600Y-79360600D01*
X63540600Y-78386350D01*
X63381850Y-78227600D01*
X62917600Y-78224528D01*
X62793118Y-78236788D01*
X62673420Y-78273098D01*
X62563106Y-78332063D01*
X62466415Y-78411415D01*
X62417600Y-78470896D01*
X62396266Y-78444901D01*
X62473488Y-78350807D01*
X62546380Y-78214434D01*
X62562951Y-78159808D01*
X62591268Y-78066461D01*
X62599994Y-77977856D01*
X62602626Y-77951135D01*
X62602626Y-77951130D01*
X62606423Y-77912574D01*
X62602626Y-77874018D01*
X62602626Y-76775672D01*
X63867600Y-76775672D01*
X63992082Y-76763412D01*
X64082601Y-76735953D01*
X64082601Y-78226745D01*
G36*
X68278098Y-76381780D02*
G01*
X68337063Y-76492094D01*
X68416415Y-76588785D01*
X68513106Y-76668137D01*
X68623420Y-76727102D01*
X68743118Y-76763412D01*
X68867600Y-76775672D01*
X70019367Y-76775672D01*
X68920445Y-77874594D01*
X68890491Y-77899177D01*
X68792393Y-78018709D01*
X68719501Y-78155082D01*
X68674614Y-78303055D01*
X68663255Y-78418381D01*
X68663255Y-78418388D01*
X68662590Y-78425138D01*
X68644318Y-78443410D01*
X68531050Y-78612928D01*
X68453029Y-78801286D01*
X68413255Y-79001245D01*
X68413255Y-79074002D01*
X68407856Y-79070395D01*
X68219498Y-78992374D01*
X68019539Y-78952600D01*
X67815661Y-78952600D01*
X67702600Y-78975089D01*
X67702600Y-76772225D01*
X67792082Y-76763412D01*
X67911780Y-76727102D01*
X68022094Y-76668137D01*
X68118785Y-76588785D01*
X68198137Y-76492094D01*
X68257102Y-76381780D01*
X68267600Y-76347173D01*
X68278098Y-76381780D01*
X68278098Y-76381780D01*
G37*
X68278098Y-76381780D02*
X68337063Y-76492094D01*
X68416415Y-76588785D01*
X68513106Y-76668137D01*
X68623420Y-76727102D01*
X68743118Y-76763412D01*
X68867600Y-76775672D01*
X70019367Y-76775672D01*
X68920445Y-77874594D01*
X68890491Y-77899177D01*
X68792393Y-78018709D01*
X68719501Y-78155082D01*
X68674614Y-78303055D01*
X68663255Y-78418381D01*
X68663255Y-78418388D01*
X68662590Y-78425138D01*
X68644318Y-78443410D01*
X68531050Y-78612928D01*
X68453029Y-78801286D01*
X68413255Y-79001245D01*
X68413255Y-79074002D01*
X68407856Y-79070395D01*
X68219498Y-78992374D01*
X68019539Y-78952600D01*
X67815661Y-78952600D01*
X67702600Y-78975089D01*
X67702600Y-76772225D01*
X67792082Y-76763412D01*
X67911780Y-76727102D01*
X68022094Y-76668137D01*
X68118785Y-76588785D01*
X68198137Y-76492094D01*
X68257102Y-76381780D01*
X68267600Y-76347173D01*
X68278098Y-76381780D01*
G36*
X64598490Y-71808982D02*
G01*
X64654242Y-71803491D01*
X65532887Y-71803491D01*
X65529528Y-71837600D01*
X65532600Y-72201850D01*
X65691350Y-72360600D01*
X66790600Y-72360600D01*
X66790600Y-72340600D01*
X67044600Y-72340600D01*
X67044600Y-72360600D01*
X67064600Y-72360600D01*
X67064600Y-72614600D01*
X67044600Y-72614600D01*
X67044600Y-72634600D01*
X66790600Y-72634600D01*
X66790600Y-72614600D01*
X65691350Y-72614600D01*
X65532600Y-72773350D01*
X65529528Y-73137600D01*
X65541788Y-73262082D01*
X65578098Y-73381780D01*
X65637063Y-73492094D01*
X65716415Y-73588785D01*
X65813106Y-73668137D01*
X65923420Y-73727102D01*
X66043118Y-73763412D01*
X66167600Y-73775672D01*
X66572047Y-73772996D01*
X66389790Y-73955253D01*
X66359836Y-73979836D01*
X66261738Y-74099368D01*
X66208202Y-74199528D01*
X66167600Y-74199528D01*
X66043118Y-74211788D01*
X65923420Y-74248098D01*
X65813106Y-74307063D01*
X65716415Y-74386415D01*
X65637063Y-74483106D01*
X65578098Y-74593420D01*
X65541788Y-74713118D01*
X65538335Y-74748178D01*
X64345901Y-73555744D01*
X64398137Y-73492094D01*
X64457102Y-73381780D01*
X64493412Y-73262082D01*
X64505672Y-73137600D01*
X64505672Y-71837600D01*
X64501917Y-71799470D01*
X64598490Y-71808982D01*
X64598490Y-71808982D01*
G37*
X64598490Y-71808982D02*
X64654242Y-71803491D01*
X65532887Y-71803491D01*
X65529528Y-71837600D01*
X65532600Y-72201850D01*
X65691350Y-72360600D01*
X66790600Y-72360600D01*
X66790600Y-72340600D01*
X67044600Y-72340600D01*
X67044600Y-72360600D01*
X67064600Y-72360600D01*
X67064600Y-72614600D01*
X67044600Y-72614600D01*
X67044600Y-72634600D01*
X66790600Y-72634600D01*
X66790600Y-72614600D01*
X65691350Y-72614600D01*
X65532600Y-72773350D01*
X65529528Y-73137600D01*
X65541788Y-73262082D01*
X65578098Y-73381780D01*
X65637063Y-73492094D01*
X65716415Y-73588785D01*
X65813106Y-73668137D01*
X65923420Y-73727102D01*
X66043118Y-73763412D01*
X66167600Y-73775672D01*
X66572047Y-73772996D01*
X66389790Y-73955253D01*
X66359836Y-73979836D01*
X66261738Y-74099368D01*
X66208202Y-74199528D01*
X66167600Y-74199528D01*
X66043118Y-74211788D01*
X65923420Y-74248098D01*
X65813106Y-74307063D01*
X65716415Y-74386415D01*
X65637063Y-74483106D01*
X65578098Y-74593420D01*
X65541788Y-74713118D01*
X65538335Y-74748178D01*
X64345901Y-73555744D01*
X64398137Y-73492094D01*
X64457102Y-73381780D01*
X64493412Y-73262082D01*
X64505672Y-73137600D01*
X64505672Y-71837600D01*
X64501917Y-71799470D01*
X64598490Y-71808982D01*
M02*
