G04 #@! TF.GenerationSoftware,KiCad,Pcbnew,(5.0.0)*
G04 #@! TF.CreationDate,2019-03-26T19:26:32+00:00*
G04 #@! TF.ProjectId,v4,76342E6B696361645F70636200000000,rev?*
G04 #@! TF.SameCoordinates,Original*
G04 #@! TF.FileFunction,Paste,Top*
G04 #@! TF.FilePolarity,Positive*
%FSLAX46Y46*%
G04 Gerber Fmt 4.6, Leading zero omitted, Abs format (unit mm)*
G04 Created by KiCad (PCBNEW (5.0.0)) date 03/26/19 19:26:32*
%MOMM*%
%LPD*%
G01*
G04 APERTURE LIST*
%ADD10R,1.500000X1.300000*%
%ADD11R,1.500000X1.250000*%
%ADD12R,1.500000X0.600000*%
%ADD13R,1.300000X0.800000*%
%ADD14R,0.800000X0.900000*%
%ADD15R,1.300000X1.500000*%
%ADD16R,3.200000X1.000000*%
G04 APERTURE END LIST*
D10*
G04 #@! TO.C,R17*
X80844400Y-81408970D03*
X83544400Y-81408970D03*
G04 #@! TD*
D11*
G04 #@! TO.C,C1*
X76055200Y-96824800D03*
X73555200Y-96824800D03*
G04 #@! TD*
D10*
G04 #@! TO.C,R1*
X81664800Y-90322400D03*
X78964800Y-90322400D03*
G04 #@! TD*
D12*
G04 #@! TO.C,U4*
X76055200Y-94132400D03*
X76055200Y-92862400D03*
X76055200Y-91592400D03*
X76055200Y-90322400D03*
X76055200Y-89052400D03*
X76055200Y-87782400D03*
X76055200Y-86512400D03*
X70655200Y-86512400D03*
X70655200Y-87782400D03*
X70655200Y-89052400D03*
X70655200Y-90322400D03*
X70655200Y-91592400D03*
X70655200Y-92862400D03*
X70655200Y-94132400D03*
G04 #@! TD*
D11*
G04 #@! TO.C,C2*
X85465600Y-91948000D03*
X87965600Y-91948000D03*
G04 #@! TD*
D10*
G04 #@! TO.C,R2*
X64588400Y-93522800D03*
X67288400Y-93522800D03*
G04 #@! TD*
G04 #@! TO.C,R3*
X64443600Y-90271600D03*
X61743600Y-90271600D03*
G04 #@! TD*
G04 #@! TO.C,R4*
X61649600Y-93522800D03*
X58949600Y-93522800D03*
G04 #@! TD*
G04 #@! TO.C,R5*
X73892400Y-99212400D03*
X71192400Y-99212400D03*
G04 #@! TD*
G04 #@! TO.C,R15*
X67788800Y-81408970D03*
X70488800Y-81408970D03*
G04 #@! TD*
G04 #@! TO.C,R16*
X56823600Y-93522800D03*
X54123600Y-93522800D03*
G04 #@! TD*
G04 #@! TO.C,R18*
X80793600Y-84597000D03*
X83493600Y-84597000D03*
G04 #@! TD*
D13*
G04 #@! TO.C,U1*
X76962400Y-102595600D03*
X76962400Y-101315600D03*
X70662400Y-101315600D03*
X70662400Y-102595600D03*
G04 #@! TD*
D14*
G04 #@! TO.C,D1*
X85714800Y-90103200D03*
X87614800Y-90103200D03*
X86664800Y-88103200D03*
G04 #@! TD*
D10*
G04 #@! TO.C,D3*
X85772000Y-81381600D03*
X88472000Y-81381600D03*
G04 #@! TD*
G04 #@! TO.C,D4*
X85772000Y-84582000D03*
X88472000Y-84582000D03*
G04 #@! TD*
D14*
G04 #@! TO.C,Q1*
X67274400Y-73325600D03*
X69174400Y-73325600D03*
X68224400Y-71325600D03*
G04 #@! TD*
D15*
G04 #@! TO.C,R19*
X71882000Y-62499600D03*
X71882000Y-59799600D03*
G04 #@! TD*
G04 #@! TO.C,R20*
X71882000Y-66302000D03*
X71882000Y-69002000D03*
G04 #@! TD*
D10*
G04 #@! TO.C,R21*
X81664800Y-92862400D03*
X78964800Y-92862400D03*
G04 #@! TD*
D16*
G04 #@! TO.C,R6*
X89357200Y-61189200D03*
X89357200Y-67389200D03*
G04 #@! TD*
G04 #@! TO.C,R7*
X53797200Y-67389200D03*
X53797200Y-61189200D03*
G04 #@! TD*
G04 #@! TO.C,R8*
X84565066Y-61199200D03*
X84565066Y-67399200D03*
G04 #@! TD*
G04 #@! TO.C,R9*
X58606266Y-67399200D03*
X58606266Y-61199200D03*
G04 #@! TD*
G04 #@! TO.C,R10*
X79772933Y-67389200D03*
X79772933Y-61189200D03*
G04 #@! TD*
G04 #@! TO.C,R11*
X63415332Y-67389200D03*
X63415332Y-61189200D03*
G04 #@! TD*
G04 #@! TO.C,R12*
X74980800Y-67399200D03*
X74980800Y-61199200D03*
G04 #@! TD*
G04 #@! TO.C,R13*
X68224400Y-67399200D03*
X68224400Y-61199200D03*
G04 #@! TD*
M02*
