G04 #@! TF.GenerationSoftware,KiCad,Pcbnew,(5.0.0)*
G04 #@! TF.CreationDate,2019-03-26T19:26:32+00:00*
G04 #@! TF.ProjectId,v4,76342E6B696361645F70636200000000,rev?*
G04 #@! TF.SameCoordinates,Original*
G04 #@! TF.FileFunction,Copper,L1,Top,Signal*
G04 #@! TF.FilePolarity,Positive*
%FSLAX46Y46*%
G04 Gerber Fmt 4.6, Leading zero omitted, Abs format (unit mm)*
G04 Created by KiCad (PCBNEW (5.0.0)) date 03/26/19 19:26:32*
%MOMM*%
%LPD*%
G01*
G04 APERTURE LIST*
G04 #@! TA.AperFunction,ComponentPad*
%ADD10C,4.000000*%
G04 #@! TD*
G04 #@! TA.AperFunction,SMDPad,CuDef*
%ADD11R,1.500000X1.300000*%
G04 #@! TD*
G04 #@! TA.AperFunction,ComponentPad*
%ADD12R,1.700000X1.700000*%
G04 #@! TD*
G04 #@! TA.AperFunction,ComponentPad*
%ADD13O,1.700000X1.700000*%
G04 #@! TD*
G04 #@! TA.AperFunction,ComponentPad*
%ADD14R,1.200000X1.700000*%
G04 #@! TD*
G04 #@! TA.AperFunction,ComponentPad*
%ADD15O,1.200000X1.700000*%
G04 #@! TD*
G04 #@! TA.AperFunction,SMDPad,CuDef*
%ADD16R,1.500000X1.250000*%
G04 #@! TD*
G04 #@! TA.AperFunction,SMDPad,CuDef*
%ADD17R,1.500000X0.600000*%
G04 #@! TD*
G04 #@! TA.AperFunction,SMDPad,CuDef*
%ADD18R,1.300000X0.800000*%
G04 #@! TD*
G04 #@! TA.AperFunction,SMDPad,CuDef*
%ADD19R,0.800000X0.900000*%
G04 #@! TD*
G04 #@! TA.AperFunction,SMDPad,CuDef*
%ADD20R,1.300000X1.500000*%
G04 #@! TD*
G04 #@! TA.AperFunction,SMDPad,CuDef*
%ADD21R,2.000000X2.000000*%
G04 #@! TD*
G04 #@! TA.AperFunction,SMDPad,CuDef*
%ADD22R,3.200000X1.000000*%
G04 #@! TD*
G04 #@! TA.AperFunction,ViaPad*
%ADD23C,0.800000*%
G04 #@! TD*
G04 #@! TA.AperFunction,Conductor*
%ADD24C,0.600000*%
G04 #@! TD*
G04 #@! TA.AperFunction,Conductor*
%ADD25C,1.000000*%
G04 #@! TD*
G04 #@! TA.AperFunction,Conductor*
%ADD26C,0.300000*%
G04 #@! TD*
G04 #@! TA.AperFunction,Conductor*
%ADD27C,0.254000*%
G04 #@! TD*
G04 APERTURE END LIST*
D10*
G04 #@! TO.P,REF\002A\002A,1*
G04 #@! TO.N,N/C*
X89204800Y-57302400D03*
G04 #@! TD*
G04 #@! TO.P,REF\002A\002A,1*
G04 #@! TO.N,N/C*
X54051200Y-57302400D03*
G04 #@! TD*
G04 #@! TO.P,REF\002A\002A,1*
G04 #@! TO.N,N/C*
X89204800Y-101854000D03*
G04 #@! TD*
D11*
G04 #@! TO.P,R17,1*
G04 #@! TO.N,GND*
X80844400Y-81408970D03*
G04 #@! TO.P,R17,2*
G04 #@! TO.N,Net-(D3-Pad1)*
X83544400Y-81408970D03*
G04 #@! TD*
D12*
G04 #@! TO.P,J7,1*
G04 #@! TO.N,Net-(J3-Pad1)*
X63652400Y-101701600D03*
D13*
G04 #@! TO.P,J7,2*
G04 #@! TO.N,Net-(J3-Pad2)*
X66192400Y-101701600D03*
G04 #@! TD*
D14*
G04 #@! TO.P,J3,1*
G04 #@! TO.N,Net-(J3-Pad1)*
X63906400Y-97078800D03*
D15*
G04 #@! TO.P,J3,2*
G04 #@! TO.N,Net-(J3-Pad2)*
X65906400Y-97078800D03*
G04 #@! TD*
D12*
G04 #@! TO.P,J2,1*
G04 #@! TO.N,Net-(D3-Pad2)*
X62636400Y-86410800D03*
D13*
G04 #@! TO.P,J2,2*
G04 #@! TO.N,VCC*
X60096400Y-86410800D03*
G04 #@! TO.P,J2,3*
G04 #@! TO.N,Net-(J2-Pad3)*
X62636400Y-83870800D03*
G04 #@! TO.P,J2,4*
G04 #@! TO.N,Net-(D4-Pad2)*
X60096400Y-83870800D03*
G04 #@! TO.P,J2,5*
G04 #@! TO.N,Net-(J2-Pad5)*
X62636400Y-81330800D03*
G04 #@! TO.P,J2,6*
G04 #@! TO.N,GND*
X60096400Y-81330800D03*
G04 #@! TD*
D16*
G04 #@! TO.P,C1,1*
G04 #@! TO.N,VCC*
X76055200Y-96824800D03*
G04 #@! TO.P,C1,2*
G04 #@! TO.N,GND*
X73555200Y-96824800D03*
G04 #@! TD*
D14*
G04 #@! TO.P,J1,1*
G04 #@! TO.N,GND*
X81889600Y-96926400D03*
D15*
G04 #@! TO.P,J1,2*
G04 #@! TO.N,VCC*
X83889600Y-96926400D03*
G04 #@! TD*
D11*
G04 #@! TO.P,R1,1*
G04 #@! TO.N,VCC*
X81664800Y-90322400D03*
G04 #@! TO.P,R1,2*
G04 #@! TO.N,Net-(J2-Pad5)*
X78964800Y-90322400D03*
G04 #@! TD*
D17*
G04 #@! TO.P,U4,1*
G04 #@! TO.N,VCC*
X76055200Y-94132400D03*
G04 #@! TO.P,U4,2*
G04 #@! TO.N,Net-(J8-Pad1)*
X76055200Y-92862400D03*
G04 #@! TO.P,U4,3*
G04 #@! TO.N,Net-(J8-Pad3)*
X76055200Y-91592400D03*
G04 #@! TO.P,U4,4*
G04 #@! TO.N,Net-(J2-Pad5)*
X76055200Y-90322400D03*
G04 #@! TO.P,U4,5*
G04 #@! TO.N,Net-(R3-Pad2)*
X76055200Y-89052400D03*
G04 #@! TO.P,U4,6*
G04 #@! TO.N,ENABLE*
X76055200Y-87782400D03*
G04 #@! TO.P,U4,7*
G04 #@! TO.N,Net-(D4-Pad2)*
X76055200Y-86512400D03*
G04 #@! TO.P,U4,8*
G04 #@! TO.N,Net-(D3-Pad2)*
X70655200Y-86512400D03*
G04 #@! TO.P,U4,9*
G04 #@! TO.N,Net-(J2-Pad3)*
X70655200Y-87782400D03*
G04 #@! TO.P,U4,10*
G04 #@! TO.N,DUMP_LOAD_ENABLE*
X70655200Y-89052400D03*
G04 #@! TO.P,U4,11*
G04 #@! TO.N,RXD0*
X70655200Y-90322400D03*
G04 #@! TO.P,U4,12*
G04 #@! TO.N,TXD0*
X70655200Y-91592400D03*
G04 #@! TO.P,U4,13*
G04 #@! TO.N,2_VOLT*
X70655200Y-92862400D03*
G04 #@! TO.P,U4,14*
G04 #@! TO.N,GND*
X70655200Y-94132400D03*
G04 #@! TD*
D16*
G04 #@! TO.P,C2,1*
G04 #@! TO.N,2_VOLT*
X85465600Y-91948000D03*
G04 #@! TO.P,C2,2*
G04 #@! TO.N,GND*
X87965600Y-91948000D03*
G04 #@! TD*
D14*
G04 #@! TO.P,J4,1*
G04 #@! TO.N,RXD0*
X54660800Y-97078800D03*
D15*
G04 #@! TO.P,J4,2*
G04 #@! TO.N,VCC*
X56660800Y-97078800D03*
G04 #@! TD*
D12*
G04 #@! TO.P,J5,1*
G04 #@! TO.N,GND*
X81584800Y-101447600D03*
D13*
G04 #@! TO.P,J5,2*
G04 #@! TO.N,VCC*
X84124800Y-101447600D03*
G04 #@! TD*
D12*
G04 #@! TO.P,J6,1*
G04 #@! TO.N,RXD0*
X54305200Y-101701600D03*
D13*
G04 #@! TO.P,J6,2*
G04 #@! TO.N,VCC*
X56845200Y-101701600D03*
G04 #@! TD*
D11*
G04 #@! TO.P,R2,1*
G04 #@! TO.N,ENABLE*
X64588400Y-93522800D03*
G04 #@! TO.P,R2,2*
G04 #@! TO.N,2_VOLT*
X67288400Y-93522800D03*
G04 #@! TD*
G04 #@! TO.P,R3,1*
G04 #@! TO.N,ENABLE*
X64443600Y-90271600D03*
G04 #@! TO.P,R3,2*
G04 #@! TO.N,Net-(R3-Pad2)*
X61743600Y-90271600D03*
G04 #@! TD*
G04 #@! TO.P,R4,1*
G04 #@! TO.N,Net-(R3-Pad2)*
X61649600Y-93522800D03*
G04 #@! TO.P,R4,2*
G04 #@! TO.N,GND*
X58949600Y-93522800D03*
G04 #@! TD*
G04 #@! TO.P,R5,1*
G04 #@! TO.N,Net-(R5-Pad1)*
X73892400Y-99212400D03*
G04 #@! TO.P,R5,2*
G04 #@! TO.N,TXD0*
X71192400Y-99212400D03*
G04 #@! TD*
G04 #@! TO.P,R15,1*
G04 #@! TO.N,DUMP_LOAD_ENABLE*
X67788800Y-81408970D03*
G04 #@! TO.P,R15,2*
G04 #@! TO.N,GND*
X70488800Y-81408970D03*
G04 #@! TD*
G04 #@! TO.P,R16,1*
G04 #@! TO.N,GND*
X56823600Y-93522800D03*
G04 #@! TO.P,R16,2*
G04 #@! TO.N,RXD0*
X54123600Y-93522800D03*
G04 #@! TD*
G04 #@! TO.P,R18,1*
G04 #@! TO.N,GND*
X80793600Y-84597000D03*
G04 #@! TO.P,R18,2*
G04 #@! TO.N,Net-(D4-Pad1)*
X83493600Y-84597000D03*
G04 #@! TD*
D18*
G04 #@! TO.P,U1,1*
G04 #@! TO.N,Net-(R5-Pad1)*
X76962400Y-102595600D03*
G04 #@! TO.P,U1,2*
G04 #@! TO.N,GND*
X76962400Y-101315600D03*
G04 #@! TO.P,U1,3*
G04 #@! TO.N,Net-(J3-Pad1)*
X70662400Y-101315600D03*
G04 #@! TO.P,U1,4*
G04 #@! TO.N,Net-(J3-Pad2)*
X70662400Y-102595600D03*
G04 #@! TD*
D19*
G04 #@! TO.P,D1,1*
G04 #@! TO.N,2_VOLT*
X85714800Y-90103200D03*
G04 #@! TO.P,D1,2*
G04 #@! TO.N,GND*
X87614800Y-90103200D03*
G04 #@! TO.P,D1,3*
G04 #@! TO.N,N/C*
X86664800Y-88103200D03*
G04 #@! TD*
D11*
G04 #@! TO.P,D3,1*
G04 #@! TO.N,Net-(D3-Pad1)*
X85772000Y-81381600D03*
G04 #@! TO.P,D3,2*
G04 #@! TO.N,Net-(D3-Pad2)*
X88472000Y-81381600D03*
G04 #@! TD*
G04 #@! TO.P,D4,1*
G04 #@! TO.N,Net-(D4-Pad1)*
X85772000Y-84582000D03*
G04 #@! TO.P,D4,2*
G04 #@! TO.N,Net-(D4-Pad2)*
X88472000Y-84582000D03*
G04 #@! TD*
D19*
G04 #@! TO.P,Q1,1*
G04 #@! TO.N,DUMP_LOAD_ENABLE*
X67274400Y-73325600D03*
G04 #@! TO.P,Q1,2*
G04 #@! TO.N,GND*
X69174400Y-73325600D03*
G04 #@! TO.P,Q1,3*
G04 #@! TO.N,Net-(Q1-Pad3)*
X68224400Y-71325600D03*
G04 #@! TD*
D20*
G04 #@! TO.P,R19,2*
G04 #@! TO.N,Net-(J2-Pad3)*
X71882000Y-62499600D03*
G04 #@! TO.P,R19,1*
G04 #@! TO.N,2_VOLT*
X71882000Y-59799600D03*
G04 #@! TD*
G04 #@! TO.P,R20,1*
G04 #@! TO.N,Net-(J2-Pad3)*
X71882000Y-66302000D03*
G04 #@! TO.P,R20,2*
G04 #@! TO.N,GND*
X71882000Y-69002000D03*
G04 #@! TD*
D11*
G04 #@! TO.P,R21,2*
G04 #@! TO.N,GND*
X81664800Y-92862400D03*
G04 #@! TO.P,R21,1*
G04 #@! TO.N,Net-(J8-Pad1)*
X78964800Y-92862400D03*
G04 #@! TD*
D21*
G04 #@! TO.P,TP2,1*
G04 #@! TO.N,Net-(R3-Pad2)*
X79349600Y-87680800D03*
G04 #@! TD*
D13*
G04 #@! TO.P,J8,4*
G04 #@! TO.N,ENABLE*
X55118000Y-78790800D03*
G04 #@! TO.P,J8,3*
G04 #@! TO.N,Net-(J8-Pad3)*
X55118000Y-81330800D03*
G04 #@! TO.P,J8,2*
G04 #@! TO.N,2_VOLT*
X55118000Y-83870800D03*
D12*
G04 #@! TO.P,J8,1*
G04 #@! TO.N,Net-(J8-Pad1)*
X55118000Y-86410800D03*
G04 #@! TD*
D22*
G04 #@! TO.P,R6,2*
G04 #@! TO.N,Net-(R6-Pad2)*
X89357200Y-61189200D03*
G04 #@! TO.P,R6,1*
G04 #@! TO.N,VCC*
X89357200Y-67389200D03*
G04 #@! TD*
G04 #@! TO.P,R7,1*
G04 #@! TO.N,VCC*
X53797200Y-67389200D03*
G04 #@! TO.P,R7,2*
G04 #@! TO.N,Net-(R7-Pad2)*
X53797200Y-61189200D03*
G04 #@! TD*
G04 #@! TO.P,R8,1*
G04 #@! TO.N,Net-(R6-Pad2)*
X84565066Y-61199200D03*
G04 #@! TO.P,R8,2*
G04 #@! TO.N,Net-(R10-Pad1)*
X84565066Y-67399200D03*
G04 #@! TD*
G04 #@! TO.P,R9,2*
G04 #@! TO.N,Net-(R11-Pad1)*
X58606266Y-67399200D03*
G04 #@! TO.P,R9,1*
G04 #@! TO.N,Net-(R7-Pad2)*
X58606266Y-61199200D03*
G04 #@! TD*
G04 #@! TO.P,R10,1*
G04 #@! TO.N,Net-(R10-Pad1)*
X79772933Y-67389200D03*
G04 #@! TO.P,R10,2*
G04 #@! TO.N,Net-(R10-Pad2)*
X79772933Y-61189200D03*
G04 #@! TD*
G04 #@! TO.P,R11,1*
G04 #@! TO.N,Net-(R11-Pad1)*
X63415332Y-67389200D03*
G04 #@! TO.P,R11,2*
G04 #@! TO.N,Net-(R11-Pad2)*
X63415332Y-61189200D03*
G04 #@! TD*
G04 #@! TO.P,R12,2*
G04 #@! TO.N,Net-(Q1-Pad3)*
X74980800Y-67399200D03*
G04 #@! TO.P,R12,1*
G04 #@! TO.N,Net-(R10-Pad2)*
X74980800Y-61199200D03*
G04 #@! TD*
G04 #@! TO.P,R13,2*
G04 #@! TO.N,Net-(Q1-Pad3)*
X68224400Y-67399200D03*
G04 #@! TO.P,R13,1*
G04 #@! TO.N,Net-(R11-Pad2)*
X68224400Y-61199200D03*
G04 #@! TD*
D21*
G04 #@! TO.P,TP1,1*
G04 #@! TO.N,GND*
X60858400Y-75488800D03*
G04 #@! TD*
D23*
G04 #@! TO.N,GND*
X72390000Y-80772000D03*
X60909198Y-99161600D03*
X78943200Y-84582000D03*
X73026970Y-81408970D03*
X70104000Y-69328400D03*
X61214000Y-77876400D03*
X65125600Y-80111600D03*
G04 #@! TO.N,VCC*
X59791600Y-88862790D03*
G04 #@! TO.N,Net-(J2-Pad5)*
X73914000Y-90373200D03*
G04 #@! TO.N,Net-(J2-Pad3)*
X65735200Y-69189600D03*
X70561200Y-63144400D03*
G04 #@! TO.N,Net-(D4-Pad2)*
X72705213Y-85875613D03*
G04 #@! TO.N,Net-(D3-Pad2)*
X70040648Y-84794349D03*
X71272400Y-83616800D03*
X67259200Y-86410800D03*
G04 #@! TO.N,RXD0*
X68795898Y-92638086D03*
G04 #@! TO.N,ENABLE*
X74301268Y-86121223D03*
X66395600Y-88914023D03*
G04 #@! TO.N,Net-(R3-Pad2)*
X73812400Y-93421200D03*
X63093600Y-94589600D03*
G04 #@! TO.N,TXD0*
X71092812Y-96215200D03*
X69756661Y-97511567D03*
G04 #@! TO.N,2_VOLT*
X81436880Y-94212404D03*
X83820000Y-89611200D03*
X69392800Y-95961200D03*
X74015600Y-59016000D03*
G04 #@! TO.N,Net-(J8-Pad3)*
X73863200Y-91643204D03*
G04 #@! TO.N,Net-(J8-Pad1)*
X55220515Y-90064208D03*
X77470000Y-95402400D03*
G04 #@! TO.N,DUMP_LOAD_ENABLE*
X67208400Y-74523600D03*
X69138800Y-83769200D03*
G04 #@! TD*
D24*
G04 #@! TO.N,GND*
X87965600Y-93746000D02*
X87965600Y-91948000D01*
X86664800Y-95046800D02*
X87965600Y-93746000D01*
D25*
X72339200Y-80822800D02*
X72390000Y-80772000D01*
D26*
X80844400Y-84546200D02*
X80793600Y-84597000D01*
D24*
X87965600Y-90454000D02*
X87614800Y-90103200D01*
X87965600Y-91948000D02*
X87965600Y-90454000D01*
D26*
X58949600Y-93522800D02*
X56823600Y-93522800D01*
D24*
X83718400Y-95046800D02*
X86664800Y-95046800D01*
X81838800Y-96926400D02*
X83718400Y-95046800D01*
D26*
X80844400Y-81408970D02*
X73026970Y-81408970D01*
D25*
X73026970Y-81408970D02*
X72789999Y-81171999D01*
D26*
X72789999Y-81171999D02*
X72390000Y-80772000D01*
X80793600Y-84597000D02*
X78958200Y-84597000D01*
X78958200Y-84597000D02*
X78943200Y-84582000D01*
D25*
X73026970Y-81408970D02*
X72390000Y-80772000D01*
D26*
X70430400Y-69002000D02*
X70104000Y-69328400D01*
X71882000Y-69002000D02*
X70430400Y-69002000D01*
D25*
X69718800Y-73325600D02*
X69174400Y-73325600D01*
X70975979Y-74582779D02*
X69718800Y-73325600D01*
X72288400Y-75895200D02*
X70975979Y-74582779D01*
D26*
X72339200Y-75895200D02*
X72288400Y-75895200D01*
X71780400Y-81381600D02*
X72390000Y-80772000D01*
X70488800Y-81381600D02*
X71780400Y-81381600D01*
D25*
X72390000Y-75996800D02*
X72288400Y-75895200D01*
X72390000Y-80772000D02*
X72390000Y-75996800D01*
D26*
X60814001Y-78276399D02*
X61214000Y-77876400D01*
X60096400Y-78994000D02*
X60814001Y-78276399D01*
X60096400Y-81330800D02*
X60096400Y-78994000D01*
X76962400Y-100615600D02*
X76962400Y-101315600D01*
X76962400Y-100107000D02*
X76962400Y-100615600D01*
X73680200Y-96824800D02*
X76962400Y-100107000D01*
X73555200Y-96824800D02*
X73680200Y-96824800D01*
X86649187Y-95062413D02*
X86664800Y-95046800D01*
X80838413Y-95062413D02*
X86649187Y-95062413D01*
X80365600Y-94589600D02*
X80838413Y-95062413D01*
X80365600Y-93522800D02*
X80365600Y-94589600D01*
X81664800Y-92862400D02*
X81026000Y-92862400D01*
X81026000Y-92862400D02*
X80365600Y-93522800D01*
X72390000Y-80772000D02*
X71729600Y-80111600D01*
X71729600Y-80111600D02*
X65691285Y-80111600D01*
X65691285Y-80111600D02*
X65125600Y-80111600D01*
X60706000Y-98958402D02*
X60909198Y-99161600D01*
X59486800Y-97739202D02*
X60706000Y-98958402D01*
X58949600Y-93522800D02*
X59486800Y-94060000D01*
X59486800Y-94060000D02*
X59486800Y-97739202D01*
X70655200Y-94732400D02*
X70242802Y-95144798D01*
X70242802Y-95144798D02*
X70242802Y-96739706D01*
X72505200Y-97749800D02*
X73430200Y-96824800D01*
X73430200Y-96824800D02*
X73555200Y-96824800D01*
X71252896Y-97749800D02*
X72505200Y-97749800D01*
X70242802Y-96739706D02*
X71252896Y-97749800D01*
X70655200Y-94132400D02*
X70655200Y-94732400D01*
G04 #@! TO.N,VCC*
X84067600Y-86969600D02*
X90322400Y-86969600D01*
X81664800Y-89372400D02*
X84067600Y-86969600D01*
X81664800Y-90322400D02*
X81664800Y-89372400D01*
D25*
X90322400Y-77054400D02*
X90322400Y-86969600D01*
D26*
X56845200Y-97263200D02*
X56660800Y-97078800D01*
X56845200Y-101701600D02*
X56845200Y-97263200D01*
D25*
X87919600Y-64451600D02*
X86868000Y-64451600D01*
X89357200Y-65889200D02*
X87919600Y-64451600D01*
X89357200Y-68239200D02*
X89357200Y-65889200D01*
D26*
X90322400Y-77431600D02*
X90322400Y-77054400D01*
X76055200Y-94132400D02*
X76055200Y-95625198D01*
X76055200Y-96824800D02*
X76055200Y-95625198D01*
X76055200Y-95625198D02*
X76086402Y-95656400D01*
X76086402Y-95656400D02*
X76047600Y-97434400D01*
D25*
X86967200Y-96977200D02*
X83921600Y-96977200D01*
X90322400Y-86969600D02*
X90322400Y-93622000D01*
X90322400Y-93622000D02*
X86967200Y-96977200D01*
D26*
X83889600Y-97176400D02*
X83889600Y-96926400D01*
X82514000Y-98552000D02*
X83889600Y-97176400D01*
X76857400Y-98552000D02*
X82514000Y-98552000D01*
X76055200Y-96824800D02*
X76055200Y-97749800D01*
X76055200Y-97749800D02*
X76857400Y-98552000D01*
X57740181Y-90914209D02*
X59391601Y-89262789D01*
X59391601Y-89262789D02*
X59791600Y-88862790D01*
X54502607Y-90914209D02*
X57740181Y-90914209D01*
X52730400Y-89142002D02*
X54502607Y-90914209D01*
X52730400Y-89142002D02*
X52730400Y-76456000D01*
X52730400Y-76456000D02*
X53797200Y-75389200D01*
X83889600Y-101212400D02*
X84124800Y-101447600D01*
D25*
X83921600Y-97009200D02*
X83921600Y-101295200D01*
X89357200Y-76089200D02*
X90322400Y-77054400D01*
X89357200Y-68326000D02*
X89357200Y-76089200D01*
D26*
X53797200Y-75336400D02*
X53797200Y-67448800D01*
D25*
X53797200Y-67448800D02*
X56761601Y-64484399D01*
X86799199Y-64484399D02*
X86817200Y-64502400D01*
X56761601Y-64484399D02*
X86799199Y-64484399D01*
D26*
X55473600Y-91885202D02*
X52730400Y-89142002D01*
X55473600Y-94682800D02*
X55473600Y-91885202D01*
X56660800Y-97078800D02*
X56660800Y-95870000D01*
X56660800Y-95870000D02*
X55473600Y-94682800D01*
G04 #@! TO.N,Net-(J2-Pad5)*
X78964800Y-90322400D02*
X76055200Y-90322400D01*
X73964800Y-90322400D02*
X73914000Y-90373200D01*
X76055200Y-90322400D02*
X73964800Y-90322400D01*
G04 #@! TO.N,Net-(J2-Pad3)*
X65735200Y-66618398D02*
X65735200Y-68623915D01*
X65735200Y-69755285D02*
X65735200Y-69189600D01*
X65735200Y-73658396D02*
X65735200Y-69755285D01*
X65836800Y-73759996D02*
X65735200Y-73658396D01*
X65735200Y-68623915D02*
X65735200Y-69189600D01*
X71882000Y-66302000D02*
X70932000Y-66302000D01*
X70932000Y-66302000D02*
X70879199Y-66249199D01*
X66104399Y-66249199D02*
X65735200Y-66618398D01*
X70879199Y-66249199D02*
X66104399Y-66249199D01*
X70561200Y-62870400D02*
X70561200Y-63144400D01*
X70932000Y-62499600D02*
X70561200Y-62870400D01*
X71882000Y-62499600D02*
X70932000Y-62499600D01*
X62636400Y-83870800D02*
X64173998Y-82333202D01*
X64173998Y-75424402D02*
X65836800Y-73761600D01*
X64173998Y-82333202D02*
X64173998Y-75424402D01*
X62636400Y-83870800D02*
X64922400Y-86156800D01*
X65581198Y-87464002D02*
X69286802Y-87464002D01*
X69605200Y-87782400D02*
X70655200Y-87782400D01*
X64922400Y-86805204D02*
X65581198Y-87464002D01*
X64922400Y-86156800D02*
X64922400Y-86805204D01*
X69286802Y-87464002D02*
X69605200Y-87782400D01*
G04 #@! TO.N,Net-(D4-Pad2)*
X75371602Y-85228802D02*
X73352024Y-85228802D01*
X76055200Y-86512400D02*
X76055200Y-85912400D01*
X76055200Y-85912400D02*
X75371602Y-85228802D01*
X73105212Y-85475614D02*
X72705213Y-85875613D01*
X73352024Y-85228802D02*
X73105212Y-85475614D01*
X77105200Y-86512400D02*
X76055200Y-86512400D01*
X77707998Y-86512400D02*
X77105200Y-86512400D01*
X78368398Y-85852000D02*
X77707998Y-86512400D01*
X87102000Y-85852000D02*
X78368398Y-85852000D01*
X88472000Y-84582000D02*
X88372000Y-84582000D01*
X88372000Y-84582000D02*
X87102000Y-85852000D01*
G04 #@! TO.N,Net-(D3-Pad2)*
X71838085Y-83616800D02*
X71272400Y-83616800D01*
X86289200Y-83464400D02*
X71990485Y-83464400D01*
X70655200Y-86512400D02*
X70655200Y-85408901D01*
X88372000Y-81381600D02*
X86289200Y-83464400D01*
X88472000Y-81381600D02*
X88372000Y-81381600D01*
X71990485Y-83464400D02*
X71838085Y-83616800D01*
X70655200Y-85408901D02*
X70440647Y-85194348D01*
X70440647Y-85194348D02*
X70040648Y-84794349D01*
X70655200Y-86512400D02*
X67360800Y-86512400D01*
X67360800Y-86512400D02*
X67259200Y-86410800D01*
G04 #@! TO.N,Net-(J3-Pad2)*
X66192400Y-97364800D02*
X65906400Y-97078800D01*
X66192400Y-101701600D02*
X66192400Y-97364800D01*
X67086400Y-102595600D02*
X66192400Y-101701600D01*
X70662800Y-102616000D02*
X67086400Y-102595600D01*
G04 #@! TO.N,Net-(J3-Pad1)*
X63906400Y-101447600D02*
X63652400Y-101701600D01*
X63906400Y-97078800D02*
X63906400Y-101447600D01*
X63906400Y-96828800D02*
X63906400Y-97078800D01*
X65231200Y-95504000D02*
X63906400Y-96828800D01*
X67513200Y-95504000D02*
X65231200Y-95504000D01*
X67513200Y-99314000D02*
X67513200Y-95504000D01*
X70764400Y-101295200D02*
X69514800Y-101315600D01*
X69514800Y-101315600D02*
X67513200Y-99314000D01*
G04 #@! TO.N,RXD0*
X54305200Y-97434400D02*
X54660800Y-97078800D01*
X54305200Y-101701600D02*
X54305200Y-97434400D01*
X54660800Y-94060000D02*
X54123600Y-93522800D01*
X54660800Y-97078800D02*
X54660800Y-94060000D01*
X68795898Y-92072401D02*
X68795898Y-92638086D01*
X70205200Y-90322400D02*
X68795898Y-91731702D01*
X70655200Y-90322400D02*
X70205200Y-90322400D01*
X68795898Y-91731702D02*
X68795898Y-92072401D01*
G04 #@! TO.N,ENABLE*
X64588400Y-90416400D02*
X64443600Y-90271600D01*
X64588400Y-93522800D02*
X64588400Y-90416400D01*
X74301268Y-86478468D02*
X74301268Y-86121223D01*
X75605200Y-87782400D02*
X74301268Y-86478468D01*
X76055200Y-87782400D02*
X75605200Y-87782400D01*
X64588400Y-93522800D02*
X64588400Y-90721223D01*
X64588400Y-90721223D02*
X65995601Y-89314022D01*
X65995601Y-89314022D02*
X66395600Y-88914023D01*
G04 #@! TO.N,Net-(R3-Pad2)*
X61649600Y-90365600D02*
X61743600Y-90271600D01*
X61649600Y-93522800D02*
X61649600Y-90365600D01*
X76505200Y-89052400D02*
X76055200Y-89052400D01*
X77876800Y-87680800D02*
X76505200Y-89052400D01*
X79349600Y-87680800D02*
X77876800Y-87680800D01*
X61649600Y-93522800D02*
X61749600Y-93522800D01*
X62816400Y-94589600D02*
X63093600Y-94589600D01*
X61749600Y-93522800D02*
X62816400Y-94589600D01*
X73412401Y-93021201D02*
X73812400Y-93421200D01*
X72542400Y-92151200D02*
X73412401Y-93021201D01*
X72542400Y-90407216D02*
X72542400Y-92151200D01*
X76055200Y-89052400D02*
X73897216Y-89052400D01*
X73897216Y-89052400D02*
X72542400Y-90407216D01*
G04 #@! TO.N,Net-(R5-Pad1)*
X76012400Y-102595600D02*
X76962400Y-102595600D01*
X73892400Y-100475600D02*
X76012400Y-102595600D01*
X73892400Y-99212400D02*
X73892400Y-100475600D01*
G04 #@! TO.N,TXD0*
X71492811Y-95815201D02*
X71092812Y-96215200D01*
X72440800Y-94867212D02*
X71492811Y-95815201D01*
X72440800Y-92928000D02*
X72440800Y-94867212D01*
X70655200Y-91592400D02*
X71105200Y-91592400D01*
X71105200Y-91592400D02*
X72440800Y-92928000D01*
X71092400Y-99212400D02*
X69756661Y-97876661D01*
X69756661Y-97876661D02*
X69756661Y-97511567D01*
X71192400Y-99212400D02*
X71092400Y-99212400D01*
D25*
G04 #@! TO.N,Net-(R6-Pad2)*
X84575066Y-61189200D02*
X84565066Y-61199200D01*
X89357200Y-61189200D02*
X84575066Y-61189200D01*
G04 #@! TO.N,Net-(R7-Pad2)*
X53807200Y-61199200D02*
X53797200Y-61189200D01*
X58606266Y-61199200D02*
X53807200Y-61199200D01*
G04 #@! TO.N,Net-(R10-Pad1)*
X84555066Y-67389200D02*
X84565066Y-67399200D01*
X79772933Y-67389200D02*
X84555066Y-67389200D01*
G04 #@! TO.N,Net-(R11-Pad1)*
X63405332Y-67399200D02*
X63415332Y-67389200D01*
X58606266Y-67399200D02*
X63405332Y-67399200D01*
G04 #@! TO.N,Net-(R10-Pad2)*
X74990800Y-61189200D02*
X74980800Y-61199200D01*
X79772933Y-61189200D02*
X74990800Y-61189200D01*
G04 #@! TO.N,Net-(R11-Pad2)*
X63425332Y-61199200D02*
X63415332Y-61189200D01*
X68224400Y-61199200D02*
X63425332Y-61199200D01*
G04 #@! TO.N,Net-(Q1-Pad3)*
X68224400Y-71325600D02*
X68224400Y-68249200D01*
X68224400Y-68249200D02*
X68224400Y-67399200D01*
X74980800Y-68899200D02*
X74980800Y-67399200D01*
X68240400Y-71309600D02*
X72570400Y-71309600D01*
X72570400Y-71309600D02*
X74980800Y-68899200D01*
D26*
G04 #@! TO.N,Net-(D3-Pad1)*
X85744630Y-81408970D02*
X85772000Y-81381600D01*
X83544400Y-81408970D02*
X85744630Y-81408970D01*
G04 #@! TO.N,Net-(D4-Pad1)*
X85757000Y-84597000D02*
X85772000Y-84582000D01*
X83493600Y-84597000D02*
X85757000Y-84597000D01*
D24*
G04 #@! TO.N,2_VOLT*
X85714800Y-91698800D02*
X85465600Y-91948000D01*
X85714800Y-90103200D02*
X85714800Y-91698800D01*
D26*
X68338400Y-93522800D02*
X67288400Y-93522800D01*
X70205200Y-92862400D02*
X69544800Y-93522800D01*
X70655200Y-92862400D02*
X70205200Y-92862400D01*
X69544800Y-93522800D02*
X68338400Y-93522800D01*
X71882000Y-59799600D02*
X71882000Y-59899600D01*
D24*
X85465600Y-91948000D02*
X85340600Y-91948000D01*
X83076196Y-94212404D02*
X81436880Y-94212404D01*
X85340600Y-91948000D02*
X83076196Y-94212404D01*
D26*
X83820000Y-90427400D02*
X83820000Y-89611200D01*
X85340600Y-91948000D02*
X83820000Y-90427400D01*
X68338400Y-93522800D02*
X68338400Y-94906800D01*
X68338400Y-94906800D02*
X68992801Y-95561201D01*
X68992801Y-95561201D02*
X69392800Y-95961200D01*
X73232000Y-59799600D02*
X73615601Y-59415999D01*
X71882000Y-59799600D02*
X73232000Y-59799600D01*
X73615601Y-59415999D02*
X74015600Y-59016000D01*
X55118000Y-83870800D02*
X59246398Y-87999198D01*
X65267851Y-87999198D02*
X65332666Y-88064013D01*
X67288400Y-92572800D02*
X67288400Y-93522800D01*
X67288400Y-88483996D02*
X67288400Y-92572800D01*
X59246398Y-87999198D02*
X65267851Y-87999198D01*
X65332666Y-88064013D02*
X66868417Y-88064013D01*
X66868417Y-88064013D02*
X67288400Y-88483996D01*
G04 #@! TO.N,Net-(J8-Pad3)*
X76055200Y-91592400D02*
X73914004Y-91592400D01*
X73914004Y-91592400D02*
X73863200Y-91643204D01*
G04 #@! TO.N,Net-(J8-Pad1)*
X78964800Y-92862400D02*
X76055200Y-92862400D01*
X55118000Y-89961693D02*
X55220515Y-90064208D01*
X55118000Y-86410800D02*
X55118000Y-89961693D01*
X77470000Y-94836715D02*
X77470000Y-95402400D01*
X76505200Y-92862400D02*
X77470000Y-93827200D01*
X77470000Y-93827200D02*
X77470000Y-94836715D01*
X76055200Y-92862400D02*
X76505200Y-92862400D01*
G04 #@! TO.N,DUMP_LOAD_ENABLE*
X67274400Y-74457600D02*
X67208400Y-74523600D01*
X67274400Y-73325600D02*
X67274400Y-74457600D01*
X71855201Y-85406805D02*
X70217596Y-83769200D01*
X70217596Y-83769200D02*
X69704485Y-83769200D01*
X69704485Y-83769200D02*
X69138800Y-83769200D01*
X71855201Y-88302399D02*
X71855201Y-85406805D01*
X71105200Y-89052400D02*
X71855201Y-88302399D01*
X70655200Y-89052400D02*
X71105200Y-89052400D01*
X67788800Y-82419200D02*
X69138800Y-83769200D01*
X67788800Y-81381600D02*
X67788800Y-82419200D01*
G04 #@! TD*
D27*
G04 #@! TO.N,GND*
G36*
X90933200Y-99855947D02*
X90697408Y-99620155D01*
X89728934Y-99219000D01*
X88680666Y-99219000D01*
X87712192Y-99620155D01*
X86970955Y-100361392D01*
X86569800Y-101329866D01*
X86569800Y-102378134D01*
X86970955Y-103346608D01*
X87206747Y-103582400D01*
X77877162Y-103582400D01*
X78070209Y-103453409D01*
X78210557Y-103243365D01*
X78259840Y-102995600D01*
X78259840Y-102195600D01*
X78210557Y-101947835D01*
X78206216Y-101941338D01*
X78247400Y-101841910D01*
X78247400Y-101733350D01*
X80099800Y-101733350D01*
X80099800Y-102423909D01*
X80196473Y-102657298D01*
X80375101Y-102835927D01*
X80608490Y-102932600D01*
X81299050Y-102932600D01*
X81457800Y-102773850D01*
X81457800Y-101574600D01*
X80258550Y-101574600D01*
X80099800Y-101733350D01*
X78247400Y-101733350D01*
X78247400Y-101601350D01*
X78088650Y-101442600D01*
X77089400Y-101442600D01*
X77089400Y-101462600D01*
X76835400Y-101462600D01*
X76835400Y-101442600D01*
X76815400Y-101442600D01*
X76815400Y-101188600D01*
X76835400Y-101188600D01*
X76835400Y-100439350D01*
X77089400Y-100439350D01*
X77089400Y-101188600D01*
X78088650Y-101188600D01*
X78247400Y-101029850D01*
X78247400Y-100789290D01*
X78150727Y-100555901D01*
X78066117Y-100471291D01*
X80099800Y-100471291D01*
X80099800Y-101161850D01*
X80258550Y-101320600D01*
X81457800Y-101320600D01*
X81457800Y-100121350D01*
X81299050Y-99962600D01*
X80608490Y-99962600D01*
X80375101Y-100059273D01*
X80196473Y-100237902D01*
X80099800Y-100471291D01*
X78066117Y-100471291D01*
X77972098Y-100377273D01*
X77738709Y-100280600D01*
X77248150Y-100280600D01*
X77089400Y-100439350D01*
X76835400Y-100439350D01*
X76676650Y-100280600D01*
X76186091Y-100280600D01*
X75952702Y-100377273D01*
X75774073Y-100555901D01*
X75677400Y-100789290D01*
X75677400Y-101029850D01*
X75836148Y-101188598D01*
X75715555Y-101188598D01*
X74948521Y-100421564D01*
X75100209Y-100320209D01*
X75240557Y-100110165D01*
X75289840Y-99862400D01*
X75289840Y-98562400D01*
X75240557Y-98314635D01*
X75100209Y-98104591D01*
X74890165Y-97964243D01*
X74722194Y-97930832D01*
X74806546Y-97846480D01*
X74847391Y-97907609D01*
X75057435Y-98047957D01*
X75305200Y-98097240D01*
X75343241Y-98097240D01*
X75445451Y-98250208D01*
X75445454Y-98250211D01*
X75489248Y-98315753D01*
X75554790Y-98359547D01*
X76247653Y-99052411D01*
X76291447Y-99117953D01*
X76356989Y-99161747D01*
X76356991Y-99161749D01*
X76551108Y-99291454D01*
X76780084Y-99337000D01*
X76780087Y-99337000D01*
X76857399Y-99352378D01*
X76934711Y-99337000D01*
X82436688Y-99337000D01*
X82514000Y-99352378D01*
X82591312Y-99337000D01*
X82591316Y-99337000D01*
X82786601Y-99298156D01*
X82786601Y-100056001D01*
X82561110Y-99962600D01*
X81870550Y-99962600D01*
X81711800Y-100121350D01*
X81711800Y-101320600D01*
X81731800Y-101320600D01*
X81731800Y-101574600D01*
X81711800Y-101574600D01*
X81711800Y-102773850D01*
X81870550Y-102932600D01*
X82561110Y-102932600D01*
X82794499Y-102835927D01*
X82973127Y-102657298D01*
X83039704Y-102496567D01*
X83054175Y-102518225D01*
X83545382Y-102846439D01*
X83978544Y-102932600D01*
X84271056Y-102932600D01*
X84704218Y-102846439D01*
X85195425Y-102518225D01*
X85523639Y-102027018D01*
X85638892Y-101447600D01*
X85523639Y-100868182D01*
X85195425Y-100376975D01*
X85056600Y-100284215D01*
X85056600Y-98112200D01*
X86855417Y-98112200D01*
X86967200Y-98134435D01*
X87078983Y-98112200D01*
X87410055Y-98046346D01*
X87785489Y-97795489D01*
X87848813Y-97700718D01*
X90933200Y-94616332D01*
X90933200Y-99855947D01*
X90933200Y-99855947D01*
G37*
X90933200Y-99855947D02*
X90697408Y-99620155D01*
X89728934Y-99219000D01*
X88680666Y-99219000D01*
X87712192Y-99620155D01*
X86970955Y-100361392D01*
X86569800Y-101329866D01*
X86569800Y-102378134D01*
X86970955Y-103346608D01*
X87206747Y-103582400D01*
X77877162Y-103582400D01*
X78070209Y-103453409D01*
X78210557Y-103243365D01*
X78259840Y-102995600D01*
X78259840Y-102195600D01*
X78210557Y-101947835D01*
X78206216Y-101941338D01*
X78247400Y-101841910D01*
X78247400Y-101733350D01*
X80099800Y-101733350D01*
X80099800Y-102423909D01*
X80196473Y-102657298D01*
X80375101Y-102835927D01*
X80608490Y-102932600D01*
X81299050Y-102932600D01*
X81457800Y-102773850D01*
X81457800Y-101574600D01*
X80258550Y-101574600D01*
X80099800Y-101733350D01*
X78247400Y-101733350D01*
X78247400Y-101601350D01*
X78088650Y-101442600D01*
X77089400Y-101442600D01*
X77089400Y-101462600D01*
X76835400Y-101462600D01*
X76835400Y-101442600D01*
X76815400Y-101442600D01*
X76815400Y-101188600D01*
X76835400Y-101188600D01*
X76835400Y-100439350D01*
X77089400Y-100439350D01*
X77089400Y-101188600D01*
X78088650Y-101188600D01*
X78247400Y-101029850D01*
X78247400Y-100789290D01*
X78150727Y-100555901D01*
X78066117Y-100471291D01*
X80099800Y-100471291D01*
X80099800Y-101161850D01*
X80258550Y-101320600D01*
X81457800Y-101320600D01*
X81457800Y-100121350D01*
X81299050Y-99962600D01*
X80608490Y-99962600D01*
X80375101Y-100059273D01*
X80196473Y-100237902D01*
X80099800Y-100471291D01*
X78066117Y-100471291D01*
X77972098Y-100377273D01*
X77738709Y-100280600D01*
X77248150Y-100280600D01*
X77089400Y-100439350D01*
X76835400Y-100439350D01*
X76676650Y-100280600D01*
X76186091Y-100280600D01*
X75952702Y-100377273D01*
X75774073Y-100555901D01*
X75677400Y-100789290D01*
X75677400Y-101029850D01*
X75836148Y-101188598D01*
X75715555Y-101188598D01*
X74948521Y-100421564D01*
X75100209Y-100320209D01*
X75240557Y-100110165D01*
X75289840Y-99862400D01*
X75289840Y-98562400D01*
X75240557Y-98314635D01*
X75100209Y-98104591D01*
X74890165Y-97964243D01*
X74722194Y-97930832D01*
X74806546Y-97846480D01*
X74847391Y-97907609D01*
X75057435Y-98047957D01*
X75305200Y-98097240D01*
X75343241Y-98097240D01*
X75445451Y-98250208D01*
X75445454Y-98250211D01*
X75489248Y-98315753D01*
X75554790Y-98359547D01*
X76247653Y-99052411D01*
X76291447Y-99117953D01*
X76356989Y-99161747D01*
X76356991Y-99161749D01*
X76551108Y-99291454D01*
X76780084Y-99337000D01*
X76780087Y-99337000D01*
X76857399Y-99352378D01*
X76934711Y-99337000D01*
X82436688Y-99337000D01*
X82514000Y-99352378D01*
X82591312Y-99337000D01*
X82591316Y-99337000D01*
X82786601Y-99298156D01*
X82786601Y-100056001D01*
X82561110Y-99962600D01*
X81870550Y-99962600D01*
X81711800Y-100121350D01*
X81711800Y-101320600D01*
X81731800Y-101320600D01*
X81731800Y-101574600D01*
X81711800Y-101574600D01*
X81711800Y-102773850D01*
X81870550Y-102932600D01*
X82561110Y-102932600D01*
X82794499Y-102835927D01*
X82973127Y-102657298D01*
X83039704Y-102496567D01*
X83054175Y-102518225D01*
X83545382Y-102846439D01*
X83978544Y-102932600D01*
X84271056Y-102932600D01*
X84704218Y-102846439D01*
X85195425Y-102518225D01*
X85523639Y-102027018D01*
X85638892Y-101447600D01*
X85523639Y-100868182D01*
X85195425Y-100376975D01*
X85056600Y-100284215D01*
X85056600Y-98112200D01*
X86855417Y-98112200D01*
X86967200Y-98134435D01*
X87078983Y-98112200D01*
X87410055Y-98046346D01*
X87785489Y-97795489D01*
X87848813Y-97700718D01*
X90933200Y-94616332D01*
X90933200Y-99855947D01*
G36*
X60346160Y-90921600D02*
X60395443Y-91169365D01*
X60535791Y-91379409D01*
X60745835Y-91519757D01*
X60864601Y-91543381D01*
X60864600Y-92232322D01*
X60651835Y-92274643D01*
X60441791Y-92414991D01*
X60301443Y-92625035D01*
X60295879Y-92653009D01*
X60237927Y-92513101D01*
X60059298Y-92334473D01*
X59825909Y-92237800D01*
X59235350Y-92237800D01*
X59076600Y-92396550D01*
X59076600Y-93395800D01*
X59096600Y-93395800D01*
X59096600Y-93649800D01*
X59076600Y-93649800D01*
X59076600Y-94649050D01*
X59235350Y-94807800D01*
X59825909Y-94807800D01*
X60059298Y-94711127D01*
X60237927Y-94532499D01*
X60295879Y-94392591D01*
X60301443Y-94420565D01*
X60441791Y-94630609D01*
X60651835Y-94770957D01*
X60899600Y-94820240D01*
X61936882Y-94820240D01*
X62162179Y-95045537D01*
X62216169Y-95175880D01*
X62507320Y-95467031D01*
X62887726Y-95624600D01*
X63089016Y-95624600D01*
X63058635Y-95630643D01*
X62848591Y-95770991D01*
X62708243Y-95981035D01*
X62658960Y-96228800D01*
X62658960Y-97928800D01*
X62708243Y-98176565D01*
X62848591Y-98386609D01*
X63058635Y-98526957D01*
X63121400Y-98539442D01*
X63121401Y-100204160D01*
X62802400Y-100204160D01*
X62554635Y-100253443D01*
X62344591Y-100393791D01*
X62204243Y-100603835D01*
X62154960Y-100851600D01*
X62154960Y-102551600D01*
X62204243Y-102799365D01*
X62344591Y-103009409D01*
X62554635Y-103149757D01*
X62802400Y-103199040D01*
X64502400Y-103199040D01*
X64750165Y-103149757D01*
X64960209Y-103009409D01*
X65100557Y-102799365D01*
X65109584Y-102753981D01*
X65121775Y-102772225D01*
X65612982Y-103100439D01*
X66046144Y-103186600D01*
X66338656Y-103186600D01*
X66513008Y-103151919D01*
X66517229Y-103158315D01*
X66584387Y-103203745D01*
X66585991Y-103205349D01*
X66648631Y-103247204D01*
X66775896Y-103333294D01*
X66778172Y-103333760D01*
X66780108Y-103335054D01*
X66931062Y-103365080D01*
X67004608Y-103380146D01*
X67006870Y-103380159D01*
X67086400Y-103395978D01*
X67161495Y-103381041D01*
X69515207Y-103394467D01*
X69554591Y-103453409D01*
X69747638Y-103582400D01*
X52322800Y-103582400D01*
X52322800Y-89844559D01*
X53892860Y-91414620D01*
X53936654Y-91480162D01*
X54002196Y-91523956D01*
X54002198Y-91523958D01*
X54002201Y-91523960D01*
X54688601Y-92210360D01*
X54688601Y-92225360D01*
X53373600Y-92225360D01*
X53125835Y-92274643D01*
X52915791Y-92414991D01*
X52775443Y-92625035D01*
X52726160Y-92872800D01*
X52726160Y-94172800D01*
X52775443Y-94420565D01*
X52915791Y-94630609D01*
X53125835Y-94770957D01*
X53373600Y-94820240D01*
X53875801Y-94820240D01*
X53875800Y-95618158D01*
X53813035Y-95630643D01*
X53602991Y-95770991D01*
X53462643Y-95981035D01*
X53413360Y-96228800D01*
X53413360Y-97928800D01*
X53462643Y-98176565D01*
X53520201Y-98262706D01*
X53520200Y-100204160D01*
X53455200Y-100204160D01*
X53207435Y-100253443D01*
X52997391Y-100393791D01*
X52857043Y-100603835D01*
X52807760Y-100851600D01*
X52807760Y-102551600D01*
X52857043Y-102799365D01*
X52997391Y-103009409D01*
X53207435Y-103149757D01*
X53455200Y-103199040D01*
X55155200Y-103199040D01*
X55402965Y-103149757D01*
X55613009Y-103009409D01*
X55753357Y-102799365D01*
X55762384Y-102753981D01*
X55774575Y-102772225D01*
X56265782Y-103100439D01*
X56698944Y-103186600D01*
X56991456Y-103186600D01*
X57424618Y-103100439D01*
X57915825Y-102772225D01*
X58244039Y-102281018D01*
X58359292Y-101701600D01*
X58244039Y-101122182D01*
X57915825Y-100630975D01*
X57630200Y-100440126D01*
X57630200Y-98100930D01*
X57824144Y-97810672D01*
X57895800Y-97450435D01*
X57895800Y-96707164D01*
X57824144Y-96346927D01*
X57551185Y-95938415D01*
X57459725Y-95877304D01*
X57461178Y-95869999D01*
X57445800Y-95792688D01*
X57445800Y-95792684D01*
X57400254Y-95563708D01*
X57344132Y-95479716D01*
X57270549Y-95369591D01*
X57270547Y-95369589D01*
X57226753Y-95304047D01*
X57161211Y-95260253D01*
X56623304Y-94722346D01*
X56696600Y-94649050D01*
X56696600Y-93649800D01*
X56950600Y-93649800D01*
X56950600Y-94649050D01*
X57109350Y-94807800D01*
X57699909Y-94807800D01*
X57886600Y-94730470D01*
X58073291Y-94807800D01*
X58663850Y-94807800D01*
X58822600Y-94649050D01*
X58822600Y-93649800D01*
X56950600Y-93649800D01*
X56696600Y-93649800D01*
X56676600Y-93649800D01*
X56676600Y-93395800D01*
X56696600Y-93395800D01*
X56696600Y-92396550D01*
X56950600Y-92396550D01*
X56950600Y-93395800D01*
X58822600Y-93395800D01*
X58822600Y-92396550D01*
X58663850Y-92237800D01*
X58073291Y-92237800D01*
X57886600Y-92315130D01*
X57699909Y-92237800D01*
X57109350Y-92237800D01*
X56950600Y-92396550D01*
X56696600Y-92396550D01*
X56537850Y-92237800D01*
X56258600Y-92237800D01*
X56258600Y-91962514D01*
X56273978Y-91885202D01*
X56258600Y-91807890D01*
X56258600Y-91807886D01*
X56236983Y-91699209D01*
X57662869Y-91699209D01*
X57740181Y-91714587D01*
X57817493Y-91699209D01*
X57817497Y-91699209D01*
X58046473Y-91653663D01*
X58306134Y-91480162D01*
X58349930Y-91414617D01*
X59866757Y-89897790D01*
X59997474Y-89897790D01*
X60346160Y-89753360D01*
X60346160Y-90921600D01*
X60346160Y-90921600D01*
G37*
X60346160Y-90921600D02*
X60395443Y-91169365D01*
X60535791Y-91379409D01*
X60745835Y-91519757D01*
X60864601Y-91543381D01*
X60864600Y-92232322D01*
X60651835Y-92274643D01*
X60441791Y-92414991D01*
X60301443Y-92625035D01*
X60295879Y-92653009D01*
X60237927Y-92513101D01*
X60059298Y-92334473D01*
X59825909Y-92237800D01*
X59235350Y-92237800D01*
X59076600Y-92396550D01*
X59076600Y-93395800D01*
X59096600Y-93395800D01*
X59096600Y-93649800D01*
X59076600Y-93649800D01*
X59076600Y-94649050D01*
X59235350Y-94807800D01*
X59825909Y-94807800D01*
X60059298Y-94711127D01*
X60237927Y-94532499D01*
X60295879Y-94392591D01*
X60301443Y-94420565D01*
X60441791Y-94630609D01*
X60651835Y-94770957D01*
X60899600Y-94820240D01*
X61936882Y-94820240D01*
X62162179Y-95045537D01*
X62216169Y-95175880D01*
X62507320Y-95467031D01*
X62887726Y-95624600D01*
X63089016Y-95624600D01*
X63058635Y-95630643D01*
X62848591Y-95770991D01*
X62708243Y-95981035D01*
X62658960Y-96228800D01*
X62658960Y-97928800D01*
X62708243Y-98176565D01*
X62848591Y-98386609D01*
X63058635Y-98526957D01*
X63121400Y-98539442D01*
X63121401Y-100204160D01*
X62802400Y-100204160D01*
X62554635Y-100253443D01*
X62344591Y-100393791D01*
X62204243Y-100603835D01*
X62154960Y-100851600D01*
X62154960Y-102551600D01*
X62204243Y-102799365D01*
X62344591Y-103009409D01*
X62554635Y-103149757D01*
X62802400Y-103199040D01*
X64502400Y-103199040D01*
X64750165Y-103149757D01*
X64960209Y-103009409D01*
X65100557Y-102799365D01*
X65109584Y-102753981D01*
X65121775Y-102772225D01*
X65612982Y-103100439D01*
X66046144Y-103186600D01*
X66338656Y-103186600D01*
X66513008Y-103151919D01*
X66517229Y-103158315D01*
X66584387Y-103203745D01*
X66585991Y-103205349D01*
X66648631Y-103247204D01*
X66775896Y-103333294D01*
X66778172Y-103333760D01*
X66780108Y-103335054D01*
X66931062Y-103365080D01*
X67004608Y-103380146D01*
X67006870Y-103380159D01*
X67086400Y-103395978D01*
X67161495Y-103381041D01*
X69515207Y-103394467D01*
X69554591Y-103453409D01*
X69747638Y-103582400D01*
X52322800Y-103582400D01*
X52322800Y-89844559D01*
X53892860Y-91414620D01*
X53936654Y-91480162D01*
X54002196Y-91523956D01*
X54002198Y-91523958D01*
X54002201Y-91523960D01*
X54688601Y-92210360D01*
X54688601Y-92225360D01*
X53373600Y-92225360D01*
X53125835Y-92274643D01*
X52915791Y-92414991D01*
X52775443Y-92625035D01*
X52726160Y-92872800D01*
X52726160Y-94172800D01*
X52775443Y-94420565D01*
X52915791Y-94630609D01*
X53125835Y-94770957D01*
X53373600Y-94820240D01*
X53875801Y-94820240D01*
X53875800Y-95618158D01*
X53813035Y-95630643D01*
X53602991Y-95770991D01*
X53462643Y-95981035D01*
X53413360Y-96228800D01*
X53413360Y-97928800D01*
X53462643Y-98176565D01*
X53520201Y-98262706D01*
X53520200Y-100204160D01*
X53455200Y-100204160D01*
X53207435Y-100253443D01*
X52997391Y-100393791D01*
X52857043Y-100603835D01*
X52807760Y-100851600D01*
X52807760Y-102551600D01*
X52857043Y-102799365D01*
X52997391Y-103009409D01*
X53207435Y-103149757D01*
X53455200Y-103199040D01*
X55155200Y-103199040D01*
X55402965Y-103149757D01*
X55613009Y-103009409D01*
X55753357Y-102799365D01*
X55762384Y-102753981D01*
X55774575Y-102772225D01*
X56265782Y-103100439D01*
X56698944Y-103186600D01*
X56991456Y-103186600D01*
X57424618Y-103100439D01*
X57915825Y-102772225D01*
X58244039Y-102281018D01*
X58359292Y-101701600D01*
X58244039Y-101122182D01*
X57915825Y-100630975D01*
X57630200Y-100440126D01*
X57630200Y-98100930D01*
X57824144Y-97810672D01*
X57895800Y-97450435D01*
X57895800Y-96707164D01*
X57824144Y-96346927D01*
X57551185Y-95938415D01*
X57459725Y-95877304D01*
X57461178Y-95869999D01*
X57445800Y-95792688D01*
X57445800Y-95792684D01*
X57400254Y-95563708D01*
X57344132Y-95479716D01*
X57270549Y-95369591D01*
X57270547Y-95369589D01*
X57226753Y-95304047D01*
X57161211Y-95260253D01*
X56623304Y-94722346D01*
X56696600Y-94649050D01*
X56696600Y-93649800D01*
X56950600Y-93649800D01*
X56950600Y-94649050D01*
X57109350Y-94807800D01*
X57699909Y-94807800D01*
X57886600Y-94730470D01*
X58073291Y-94807800D01*
X58663850Y-94807800D01*
X58822600Y-94649050D01*
X58822600Y-93649800D01*
X56950600Y-93649800D01*
X56696600Y-93649800D01*
X56676600Y-93649800D01*
X56676600Y-93395800D01*
X56696600Y-93395800D01*
X56696600Y-92396550D01*
X56950600Y-92396550D01*
X56950600Y-93395800D01*
X58822600Y-93395800D01*
X58822600Y-92396550D01*
X58663850Y-92237800D01*
X58073291Y-92237800D01*
X57886600Y-92315130D01*
X57699909Y-92237800D01*
X57109350Y-92237800D01*
X56950600Y-92396550D01*
X56696600Y-92396550D01*
X56537850Y-92237800D01*
X56258600Y-92237800D01*
X56258600Y-91962514D01*
X56273978Y-91885202D01*
X56258600Y-91807890D01*
X56258600Y-91807886D01*
X56236983Y-91699209D01*
X57662869Y-91699209D01*
X57740181Y-91714587D01*
X57817493Y-91699209D01*
X57817497Y-91699209D01*
X58046473Y-91653663D01*
X58306134Y-91480162D01*
X58349930Y-91414617D01*
X59866757Y-89897790D01*
X59997474Y-89897790D01*
X60346160Y-89753360D01*
X60346160Y-90921600D01*
G36*
X74657760Y-94432400D02*
X74707043Y-94680165D01*
X74847391Y-94890209D01*
X75057435Y-95030557D01*
X75270201Y-95072878D01*
X75270201Y-95547882D01*
X75267832Y-95559793D01*
X75057435Y-95601643D01*
X74847391Y-95741991D01*
X74806546Y-95803120D01*
X74664898Y-95661473D01*
X74431509Y-95564800D01*
X73840950Y-95564800D01*
X73682200Y-95723550D01*
X73682200Y-96697800D01*
X73702200Y-96697800D01*
X73702200Y-96951800D01*
X73682200Y-96951800D01*
X73682200Y-96971800D01*
X73428200Y-96971800D01*
X73428200Y-96951800D01*
X72328950Y-96951800D01*
X72170200Y-97110550D01*
X72170200Y-97576110D01*
X72266873Y-97809499D01*
X72445502Y-97988127D01*
X72678891Y-98084800D01*
X72714210Y-98084800D01*
X72684591Y-98104591D01*
X72544243Y-98314635D01*
X72542400Y-98323900D01*
X72540557Y-98314635D01*
X72400209Y-98104591D01*
X72190165Y-97964243D01*
X71942400Y-97914960D01*
X70905117Y-97914960D01*
X70767040Y-97776882D01*
X70791661Y-97717441D01*
X70791661Y-97305693D01*
X70744182Y-97191069D01*
X70886938Y-97250200D01*
X71298686Y-97250200D01*
X71679092Y-97092631D01*
X71970243Y-96801480D01*
X72127812Y-96421074D01*
X72127812Y-96290357D01*
X72170200Y-96247969D01*
X72170200Y-96539050D01*
X72328950Y-96697800D01*
X73428200Y-96697800D01*
X73428200Y-95723550D01*
X73269450Y-95564800D01*
X72853370Y-95564800D01*
X72941211Y-95476959D01*
X73006753Y-95433165D01*
X73050547Y-95367623D01*
X73050549Y-95367621D01*
X73180254Y-95173504D01*
X73194292Y-95102931D01*
X73225800Y-94944528D01*
X73225800Y-94944524D01*
X73241178Y-94867212D01*
X73225800Y-94789900D01*
X73225800Y-94298311D01*
X73226120Y-94298631D01*
X73606526Y-94456200D01*
X74018274Y-94456200D01*
X74398680Y-94298631D01*
X74657760Y-94039551D01*
X74657760Y-94432400D01*
X74657760Y-94432400D01*
G37*
X74657760Y-94432400D02*
X74707043Y-94680165D01*
X74847391Y-94890209D01*
X75057435Y-95030557D01*
X75270201Y-95072878D01*
X75270201Y-95547882D01*
X75267832Y-95559793D01*
X75057435Y-95601643D01*
X74847391Y-95741991D01*
X74806546Y-95803120D01*
X74664898Y-95661473D01*
X74431509Y-95564800D01*
X73840950Y-95564800D01*
X73682200Y-95723550D01*
X73682200Y-96697800D01*
X73702200Y-96697800D01*
X73702200Y-96951800D01*
X73682200Y-96951800D01*
X73682200Y-96971800D01*
X73428200Y-96971800D01*
X73428200Y-96951800D01*
X72328950Y-96951800D01*
X72170200Y-97110550D01*
X72170200Y-97576110D01*
X72266873Y-97809499D01*
X72445502Y-97988127D01*
X72678891Y-98084800D01*
X72714210Y-98084800D01*
X72684591Y-98104591D01*
X72544243Y-98314635D01*
X72542400Y-98323900D01*
X72540557Y-98314635D01*
X72400209Y-98104591D01*
X72190165Y-97964243D01*
X71942400Y-97914960D01*
X70905117Y-97914960D01*
X70767040Y-97776882D01*
X70791661Y-97717441D01*
X70791661Y-97305693D01*
X70744182Y-97191069D01*
X70886938Y-97250200D01*
X71298686Y-97250200D01*
X71679092Y-97092631D01*
X71970243Y-96801480D01*
X72127812Y-96421074D01*
X72127812Y-96290357D01*
X72170200Y-96247969D01*
X72170200Y-96539050D01*
X72328950Y-96697800D01*
X73428200Y-96697800D01*
X73428200Y-95723550D01*
X73269450Y-95564800D01*
X72853370Y-95564800D01*
X72941211Y-95476959D01*
X73006753Y-95433165D01*
X73050547Y-95367623D01*
X73050549Y-95367621D01*
X73180254Y-95173504D01*
X73194292Y-95102931D01*
X73225800Y-94944528D01*
X73225800Y-94944524D01*
X73241178Y-94867212D01*
X73225800Y-94789900D01*
X73225800Y-94298311D01*
X73226120Y-94298631D01*
X73606526Y-94456200D01*
X74018274Y-94456200D01*
X74398680Y-94298631D01*
X74657760Y-94039551D01*
X74657760Y-94432400D01*
G36*
X88092600Y-91821000D02*
X88112600Y-91821000D01*
X88112600Y-92075000D01*
X88092600Y-92075000D01*
X88092600Y-93049250D01*
X88251350Y-93208000D01*
X88841909Y-93208000D01*
X89075298Y-93111327D01*
X89187401Y-92999225D01*
X89187401Y-93151867D01*
X86497069Y-95842200D01*
X84817527Y-95842200D01*
X84779985Y-95786015D01*
X84371472Y-95513056D01*
X83889600Y-95417205D01*
X83407727Y-95513056D01*
X83044190Y-95755964D01*
X83027927Y-95716701D01*
X82849298Y-95538073D01*
X82615909Y-95441400D01*
X82175350Y-95441400D01*
X82016600Y-95600150D01*
X82016600Y-96799400D01*
X82036600Y-96799400D01*
X82036600Y-97053400D01*
X82016600Y-97053400D01*
X82016600Y-97073400D01*
X81762600Y-97073400D01*
X81762600Y-97053400D01*
X80813350Y-97053400D01*
X80654600Y-97212150D01*
X80654600Y-97767000D01*
X77356962Y-97767000D01*
X77403357Y-97697565D01*
X77452640Y-97449800D01*
X77452640Y-96437400D01*
X77675874Y-96437400D01*
X78056280Y-96279831D01*
X78347431Y-95988680D01*
X78363415Y-95950090D01*
X80654600Y-95950090D01*
X80654600Y-96640650D01*
X80813350Y-96799400D01*
X81762600Y-96799400D01*
X81762600Y-95600150D01*
X81603850Y-95441400D01*
X81163291Y-95441400D01*
X80929902Y-95538073D01*
X80751273Y-95716701D01*
X80654600Y-95950090D01*
X78363415Y-95950090D01*
X78505000Y-95608274D01*
X78505000Y-95196526D01*
X78347431Y-94816120D01*
X78255000Y-94723689D01*
X78255000Y-94159840D01*
X79714800Y-94159840D01*
X79962565Y-94110557D01*
X80172609Y-93970209D01*
X80312957Y-93760165D01*
X80318521Y-93732191D01*
X80376473Y-93872099D01*
X80433812Y-93929438D01*
X80401880Y-94006530D01*
X80401880Y-94418278D01*
X80559449Y-94798684D01*
X80850600Y-95089835D01*
X81231006Y-95247404D01*
X81642754Y-95247404D01*
X81884176Y-95147404D01*
X82984110Y-95147404D01*
X83076196Y-95165721D01*
X83168282Y-95147404D01*
X83441015Y-95093154D01*
X83750293Y-94886501D01*
X83802457Y-94808432D01*
X85390450Y-93220440D01*
X86215600Y-93220440D01*
X86463365Y-93171157D01*
X86673409Y-93030809D01*
X86714254Y-92969680D01*
X86855902Y-93111327D01*
X87089291Y-93208000D01*
X87679850Y-93208000D01*
X87838600Y-93049250D01*
X87838600Y-92075000D01*
X87818600Y-92075000D01*
X87818600Y-91821000D01*
X87838600Y-91821000D01*
X87838600Y-91801000D01*
X88092600Y-91801000D01*
X88092600Y-91821000D01*
X88092600Y-91821000D01*
G37*
X88092600Y-91821000D02*
X88112600Y-91821000D01*
X88112600Y-92075000D01*
X88092600Y-92075000D01*
X88092600Y-93049250D01*
X88251350Y-93208000D01*
X88841909Y-93208000D01*
X89075298Y-93111327D01*
X89187401Y-92999225D01*
X89187401Y-93151867D01*
X86497069Y-95842200D01*
X84817527Y-95842200D01*
X84779985Y-95786015D01*
X84371472Y-95513056D01*
X83889600Y-95417205D01*
X83407727Y-95513056D01*
X83044190Y-95755964D01*
X83027927Y-95716701D01*
X82849298Y-95538073D01*
X82615909Y-95441400D01*
X82175350Y-95441400D01*
X82016600Y-95600150D01*
X82016600Y-96799400D01*
X82036600Y-96799400D01*
X82036600Y-97053400D01*
X82016600Y-97053400D01*
X82016600Y-97073400D01*
X81762600Y-97073400D01*
X81762600Y-97053400D01*
X80813350Y-97053400D01*
X80654600Y-97212150D01*
X80654600Y-97767000D01*
X77356962Y-97767000D01*
X77403357Y-97697565D01*
X77452640Y-97449800D01*
X77452640Y-96437400D01*
X77675874Y-96437400D01*
X78056280Y-96279831D01*
X78347431Y-95988680D01*
X78363415Y-95950090D01*
X80654600Y-95950090D01*
X80654600Y-96640650D01*
X80813350Y-96799400D01*
X81762600Y-96799400D01*
X81762600Y-95600150D01*
X81603850Y-95441400D01*
X81163291Y-95441400D01*
X80929902Y-95538073D01*
X80751273Y-95716701D01*
X80654600Y-95950090D01*
X78363415Y-95950090D01*
X78505000Y-95608274D01*
X78505000Y-95196526D01*
X78347431Y-94816120D01*
X78255000Y-94723689D01*
X78255000Y-94159840D01*
X79714800Y-94159840D01*
X79962565Y-94110557D01*
X80172609Y-93970209D01*
X80312957Y-93760165D01*
X80318521Y-93732191D01*
X80376473Y-93872099D01*
X80433812Y-93929438D01*
X80401880Y-94006530D01*
X80401880Y-94418278D01*
X80559449Y-94798684D01*
X80850600Y-95089835D01*
X81231006Y-95247404D01*
X81642754Y-95247404D01*
X81884176Y-95147404D01*
X82984110Y-95147404D01*
X83076196Y-95165721D01*
X83168282Y-95147404D01*
X83441015Y-95093154D01*
X83750293Y-94886501D01*
X83802457Y-94808432D01*
X85390450Y-93220440D01*
X86215600Y-93220440D01*
X86463365Y-93171157D01*
X86673409Y-93030809D01*
X86714254Y-92969680D01*
X86855902Y-93111327D01*
X87089291Y-93208000D01*
X87679850Y-93208000D01*
X87838600Y-93049250D01*
X87838600Y-92075000D01*
X87818600Y-92075000D01*
X87818600Y-91821000D01*
X87838600Y-91821000D01*
X87838600Y-91801000D01*
X88092600Y-91801000D01*
X88092600Y-91821000D01*
G36*
X70782200Y-94005400D02*
X70802200Y-94005400D01*
X70802200Y-94259400D01*
X70782200Y-94259400D01*
X70782200Y-94908650D01*
X70940950Y-95067400D01*
X71130455Y-95067400D01*
X71017655Y-95180200D01*
X70886938Y-95180200D01*
X70506532Y-95337769D01*
X70328561Y-95515740D01*
X70270231Y-95374920D01*
X69979080Y-95083769D01*
X69939562Y-95067400D01*
X70369450Y-95067400D01*
X70528200Y-94908650D01*
X70528200Y-94259400D01*
X70508200Y-94259400D01*
X70508200Y-94005400D01*
X70528200Y-94005400D01*
X70528200Y-93985400D01*
X70782200Y-93985400D01*
X70782200Y-94005400D01*
X70782200Y-94005400D01*
G37*
X70782200Y-94005400D02*
X70802200Y-94005400D01*
X70802200Y-94259400D01*
X70782200Y-94259400D01*
X70782200Y-94908650D01*
X70940950Y-95067400D01*
X71130455Y-95067400D01*
X71017655Y-95180200D01*
X70886938Y-95180200D01*
X70506532Y-95337769D01*
X70328561Y-95515740D01*
X70270231Y-95374920D01*
X69979080Y-95083769D01*
X69939562Y-95067400D01*
X70369450Y-95067400D01*
X70528200Y-94908650D01*
X70528200Y-94259400D01*
X70508200Y-94259400D01*
X70508200Y-94005400D01*
X70528200Y-94005400D01*
X70528200Y-93985400D01*
X70782200Y-93985400D01*
X70782200Y-94005400D01*
G36*
X83063143Y-90646200D02*
X83080546Y-90733691D01*
X83201165Y-90914209D01*
X83254047Y-90993353D01*
X83319592Y-91037149D01*
X84068160Y-91785718D01*
X84068160Y-91898150D01*
X82933980Y-93032330D01*
X82891050Y-92989400D01*
X81791800Y-92989400D01*
X81791800Y-93009400D01*
X81537800Y-93009400D01*
X81537800Y-92989400D01*
X81517800Y-92989400D01*
X81517800Y-92735400D01*
X81537800Y-92735400D01*
X81537800Y-92715400D01*
X81791800Y-92715400D01*
X81791800Y-92735400D01*
X82891050Y-92735400D01*
X83049800Y-92576650D01*
X83049800Y-92086090D01*
X82953127Y-91852701D01*
X82774498Y-91674073D01*
X82569351Y-91589098D01*
X82662565Y-91570557D01*
X82872609Y-91430209D01*
X83012957Y-91220165D01*
X83062240Y-90972400D01*
X83062240Y-90641660D01*
X83063143Y-90646200D01*
X83063143Y-90646200D01*
G37*
X83063143Y-90646200D02*
X83080546Y-90733691D01*
X83201165Y-90914209D01*
X83254047Y-90993353D01*
X83319592Y-91037149D01*
X84068160Y-91785718D01*
X84068160Y-91898150D01*
X82933980Y-93032330D01*
X82891050Y-92989400D01*
X81791800Y-92989400D01*
X81791800Y-93009400D01*
X81537800Y-93009400D01*
X81537800Y-92989400D01*
X81517800Y-92989400D01*
X81517800Y-92735400D01*
X81537800Y-92735400D01*
X81537800Y-92715400D01*
X81791800Y-92715400D01*
X81791800Y-92735400D01*
X82891050Y-92735400D01*
X83049800Y-92576650D01*
X83049800Y-92086090D01*
X82953127Y-91852701D01*
X82774498Y-91674073D01*
X82569351Y-91589098D01*
X82662565Y-91570557D01*
X82872609Y-91430209D01*
X83012957Y-91220165D01*
X83062240Y-90972400D01*
X83062240Y-90641660D01*
X83063143Y-90646200D01*
G36*
X89187401Y-90896775D02*
X89075298Y-90784673D01*
X88841909Y-90688000D01*
X88646283Y-90688000D01*
X88649800Y-90679509D01*
X88649800Y-90388950D01*
X88491050Y-90230200D01*
X87741800Y-90230200D01*
X87741800Y-90250200D01*
X87487800Y-90250200D01*
X87487800Y-90230200D01*
X87467800Y-90230200D01*
X87467800Y-89976200D01*
X87487800Y-89976200D01*
X87487800Y-89176950D01*
X87741800Y-89176950D01*
X87741800Y-89976200D01*
X88491050Y-89976200D01*
X88649800Y-89817450D01*
X88649800Y-89526891D01*
X88553127Y-89293502D01*
X88374499Y-89114873D01*
X88141110Y-89018200D01*
X87900550Y-89018200D01*
X87741800Y-89176950D01*
X87487800Y-89176950D01*
X87402269Y-89091419D01*
X87522609Y-89011009D01*
X87662957Y-88800965D01*
X87712240Y-88553200D01*
X87712240Y-87754600D01*
X89187400Y-87754600D01*
X89187401Y-90896775D01*
X89187401Y-90896775D01*
G37*
X89187401Y-90896775D02*
X89075298Y-90784673D01*
X88841909Y-90688000D01*
X88646283Y-90688000D01*
X88649800Y-90679509D01*
X88649800Y-90388950D01*
X88491050Y-90230200D01*
X87741800Y-90230200D01*
X87741800Y-90250200D01*
X87487800Y-90250200D01*
X87487800Y-90230200D01*
X87467800Y-90230200D01*
X87467800Y-89976200D01*
X87487800Y-89976200D01*
X87487800Y-89176950D01*
X87741800Y-89176950D01*
X87741800Y-89976200D01*
X88491050Y-89976200D01*
X88649800Y-89817450D01*
X88649800Y-89526891D01*
X88553127Y-89293502D01*
X88374499Y-89114873D01*
X88141110Y-89018200D01*
X87900550Y-89018200D01*
X87741800Y-89176950D01*
X87487800Y-89176950D01*
X87402269Y-89091419D01*
X87522609Y-89011009D01*
X87662957Y-88800965D01*
X87712240Y-88553200D01*
X87712240Y-87754600D01*
X89187400Y-87754600D01*
X89187401Y-90896775D01*
G36*
X65538446Y-65683246D02*
X65494650Y-65748791D01*
X65234792Y-66008649D01*
X65169247Y-66052445D01*
X65125451Y-66117990D01*
X65039534Y-66246574D01*
X65015332Y-66241760D01*
X63464574Y-66241760D01*
X63415331Y-66231965D01*
X63366088Y-66241760D01*
X61815332Y-66241760D01*
X61702517Y-66264200D01*
X60268807Y-66264200D01*
X60206266Y-66251760D01*
X57006266Y-66251760D01*
X56758501Y-66301043D01*
X56548457Y-66441391D01*
X56408109Y-66651435D01*
X56358826Y-66899200D01*
X56358826Y-67899200D01*
X56408109Y-68146965D01*
X56548457Y-68357009D01*
X56758501Y-68497357D01*
X57006266Y-68546640D01*
X60206266Y-68546640D01*
X60268807Y-68534200D01*
X61803065Y-68534200D01*
X61815332Y-68536640D01*
X63305816Y-68536640D01*
X63405332Y-68556435D01*
X63504848Y-68536640D01*
X64924449Y-68536640D01*
X64857769Y-68603320D01*
X64700200Y-68983726D01*
X64700200Y-69395474D01*
X64857769Y-69775880D01*
X64950201Y-69868312D01*
X64950200Y-73538042D01*
X63673588Y-74814655D01*
X63608046Y-74858449D01*
X63564252Y-74923991D01*
X63564249Y-74923994D01*
X63434544Y-75118111D01*
X63373620Y-75424402D01*
X63388999Y-75501719D01*
X63388998Y-80047676D01*
X63215818Y-79931961D01*
X62782656Y-79845800D01*
X62490144Y-79845800D01*
X62056982Y-79931961D01*
X61565775Y-80260175D01*
X61365047Y-80560586D01*
X60977758Y-80135617D01*
X60453292Y-79889314D01*
X60223400Y-80009981D01*
X60223400Y-81203800D01*
X60243400Y-81203800D01*
X60243400Y-81457800D01*
X60223400Y-81457800D01*
X60223400Y-81477800D01*
X59969400Y-81477800D01*
X59969400Y-81457800D01*
X58776245Y-81457800D01*
X58654924Y-81687690D01*
X58824755Y-82097724D01*
X59215042Y-82525983D01*
X59344878Y-82586957D01*
X59025775Y-82800175D01*
X58697561Y-83291382D01*
X58582308Y-83870800D01*
X58697561Y-84450218D01*
X59025775Y-84941425D01*
X59324161Y-85140800D01*
X59025775Y-85340175D01*
X58697561Y-85831382D01*
X58613142Y-86255785D01*
X56565075Y-84207718D01*
X56632092Y-83870800D01*
X56516839Y-83291382D01*
X56188625Y-82800175D01*
X55890239Y-82600800D01*
X56188625Y-82401425D01*
X56516839Y-81910218D01*
X56632092Y-81330800D01*
X56561103Y-80973910D01*
X58654924Y-80973910D01*
X58776245Y-81203800D01*
X59969400Y-81203800D01*
X59969400Y-80009981D01*
X59739508Y-79889314D01*
X59215042Y-80135617D01*
X58824755Y-80563876D01*
X58654924Y-80973910D01*
X56561103Y-80973910D01*
X56516839Y-80751382D01*
X56188625Y-80260175D01*
X55890239Y-80060800D01*
X56188625Y-79861425D01*
X56516839Y-79370218D01*
X56632092Y-78790800D01*
X56516839Y-78211382D01*
X56188625Y-77720175D01*
X55697418Y-77391961D01*
X55264256Y-77305800D01*
X54971744Y-77305800D01*
X54538582Y-77391961D01*
X54047375Y-77720175D01*
X53719161Y-78211382D01*
X53603908Y-78790800D01*
X53719161Y-79370218D01*
X54047375Y-79861425D01*
X54345761Y-80060800D01*
X54047375Y-80260175D01*
X53719161Y-80751382D01*
X53603908Y-81330800D01*
X53719161Y-81910218D01*
X54047375Y-82401425D01*
X54345761Y-82600800D01*
X54047375Y-82800175D01*
X53719161Y-83291382D01*
X53603908Y-83870800D01*
X53719161Y-84450218D01*
X54047375Y-84941425D01*
X54065619Y-84953616D01*
X54020235Y-84962643D01*
X53810191Y-85102991D01*
X53669843Y-85313035D01*
X53620560Y-85560800D01*
X53620560Y-87260800D01*
X53669843Y-87508565D01*
X53810191Y-87718609D01*
X54020235Y-87858957D01*
X54268000Y-87908240D01*
X54333000Y-87908240D01*
X54333001Y-89502271D01*
X54294288Y-89595732D01*
X53515400Y-88816845D01*
X53515400Y-76781157D01*
X54406949Y-75889609D01*
X54483829Y-75774550D01*
X59223400Y-75774550D01*
X59223400Y-76615110D01*
X59320073Y-76848499D01*
X59498702Y-77027127D01*
X59732091Y-77123800D01*
X60572650Y-77123800D01*
X60731400Y-76965050D01*
X60731400Y-75615800D01*
X60985400Y-75615800D01*
X60985400Y-76965050D01*
X61144150Y-77123800D01*
X61984709Y-77123800D01*
X62218098Y-77027127D01*
X62396727Y-76848499D01*
X62493400Y-76615110D01*
X62493400Y-75774550D01*
X62334650Y-75615800D01*
X60985400Y-75615800D01*
X60731400Y-75615800D01*
X59382150Y-75615800D01*
X59223400Y-75774550D01*
X54483829Y-75774550D01*
X54536654Y-75695492D01*
X54597578Y-75389201D01*
X54582200Y-75311889D01*
X54582200Y-74362490D01*
X59223400Y-74362490D01*
X59223400Y-75203050D01*
X59382150Y-75361800D01*
X60731400Y-75361800D01*
X60731400Y-74012550D01*
X60985400Y-74012550D01*
X60985400Y-75361800D01*
X62334650Y-75361800D01*
X62493400Y-75203050D01*
X62493400Y-74362490D01*
X62396727Y-74129101D01*
X62218098Y-73950473D01*
X61984709Y-73853800D01*
X61144150Y-73853800D01*
X60985400Y-74012550D01*
X60731400Y-74012550D01*
X60572650Y-73853800D01*
X59732091Y-73853800D01*
X59498702Y-73950473D01*
X59320073Y-74129101D01*
X59223400Y-74362490D01*
X54582200Y-74362490D01*
X54582200Y-68536640D01*
X55397200Y-68536640D01*
X55644965Y-68487357D01*
X55855009Y-68347009D01*
X55995357Y-68136965D01*
X56044640Y-67889200D01*
X56044640Y-66889200D01*
X56030918Y-66820214D01*
X57231733Y-65619399D01*
X65633999Y-65619399D01*
X65538446Y-65683246D01*
X65538446Y-65683246D01*
G37*
X65538446Y-65683246D02*
X65494650Y-65748791D01*
X65234792Y-66008649D01*
X65169247Y-66052445D01*
X65125451Y-66117990D01*
X65039534Y-66246574D01*
X65015332Y-66241760D01*
X63464574Y-66241760D01*
X63415331Y-66231965D01*
X63366088Y-66241760D01*
X61815332Y-66241760D01*
X61702517Y-66264200D01*
X60268807Y-66264200D01*
X60206266Y-66251760D01*
X57006266Y-66251760D01*
X56758501Y-66301043D01*
X56548457Y-66441391D01*
X56408109Y-66651435D01*
X56358826Y-66899200D01*
X56358826Y-67899200D01*
X56408109Y-68146965D01*
X56548457Y-68357009D01*
X56758501Y-68497357D01*
X57006266Y-68546640D01*
X60206266Y-68546640D01*
X60268807Y-68534200D01*
X61803065Y-68534200D01*
X61815332Y-68536640D01*
X63305816Y-68536640D01*
X63405332Y-68556435D01*
X63504848Y-68536640D01*
X64924449Y-68536640D01*
X64857769Y-68603320D01*
X64700200Y-68983726D01*
X64700200Y-69395474D01*
X64857769Y-69775880D01*
X64950201Y-69868312D01*
X64950200Y-73538042D01*
X63673588Y-74814655D01*
X63608046Y-74858449D01*
X63564252Y-74923991D01*
X63564249Y-74923994D01*
X63434544Y-75118111D01*
X63373620Y-75424402D01*
X63388999Y-75501719D01*
X63388998Y-80047676D01*
X63215818Y-79931961D01*
X62782656Y-79845800D01*
X62490144Y-79845800D01*
X62056982Y-79931961D01*
X61565775Y-80260175D01*
X61365047Y-80560586D01*
X60977758Y-80135617D01*
X60453292Y-79889314D01*
X60223400Y-80009981D01*
X60223400Y-81203800D01*
X60243400Y-81203800D01*
X60243400Y-81457800D01*
X60223400Y-81457800D01*
X60223400Y-81477800D01*
X59969400Y-81477800D01*
X59969400Y-81457800D01*
X58776245Y-81457800D01*
X58654924Y-81687690D01*
X58824755Y-82097724D01*
X59215042Y-82525983D01*
X59344878Y-82586957D01*
X59025775Y-82800175D01*
X58697561Y-83291382D01*
X58582308Y-83870800D01*
X58697561Y-84450218D01*
X59025775Y-84941425D01*
X59324161Y-85140800D01*
X59025775Y-85340175D01*
X58697561Y-85831382D01*
X58613142Y-86255785D01*
X56565075Y-84207718D01*
X56632092Y-83870800D01*
X56516839Y-83291382D01*
X56188625Y-82800175D01*
X55890239Y-82600800D01*
X56188625Y-82401425D01*
X56516839Y-81910218D01*
X56632092Y-81330800D01*
X56561103Y-80973910D01*
X58654924Y-80973910D01*
X58776245Y-81203800D01*
X59969400Y-81203800D01*
X59969400Y-80009981D01*
X59739508Y-79889314D01*
X59215042Y-80135617D01*
X58824755Y-80563876D01*
X58654924Y-80973910D01*
X56561103Y-80973910D01*
X56516839Y-80751382D01*
X56188625Y-80260175D01*
X55890239Y-80060800D01*
X56188625Y-79861425D01*
X56516839Y-79370218D01*
X56632092Y-78790800D01*
X56516839Y-78211382D01*
X56188625Y-77720175D01*
X55697418Y-77391961D01*
X55264256Y-77305800D01*
X54971744Y-77305800D01*
X54538582Y-77391961D01*
X54047375Y-77720175D01*
X53719161Y-78211382D01*
X53603908Y-78790800D01*
X53719161Y-79370218D01*
X54047375Y-79861425D01*
X54345761Y-80060800D01*
X54047375Y-80260175D01*
X53719161Y-80751382D01*
X53603908Y-81330800D01*
X53719161Y-81910218D01*
X54047375Y-82401425D01*
X54345761Y-82600800D01*
X54047375Y-82800175D01*
X53719161Y-83291382D01*
X53603908Y-83870800D01*
X53719161Y-84450218D01*
X54047375Y-84941425D01*
X54065619Y-84953616D01*
X54020235Y-84962643D01*
X53810191Y-85102991D01*
X53669843Y-85313035D01*
X53620560Y-85560800D01*
X53620560Y-87260800D01*
X53669843Y-87508565D01*
X53810191Y-87718609D01*
X54020235Y-87858957D01*
X54268000Y-87908240D01*
X54333000Y-87908240D01*
X54333001Y-89502271D01*
X54294288Y-89595732D01*
X53515400Y-88816845D01*
X53515400Y-76781157D01*
X54406949Y-75889609D01*
X54483829Y-75774550D01*
X59223400Y-75774550D01*
X59223400Y-76615110D01*
X59320073Y-76848499D01*
X59498702Y-77027127D01*
X59732091Y-77123800D01*
X60572650Y-77123800D01*
X60731400Y-76965050D01*
X60731400Y-75615800D01*
X60985400Y-75615800D01*
X60985400Y-76965050D01*
X61144150Y-77123800D01*
X61984709Y-77123800D01*
X62218098Y-77027127D01*
X62396727Y-76848499D01*
X62493400Y-76615110D01*
X62493400Y-75774550D01*
X62334650Y-75615800D01*
X60985400Y-75615800D01*
X60731400Y-75615800D01*
X59382150Y-75615800D01*
X59223400Y-75774550D01*
X54483829Y-75774550D01*
X54536654Y-75695492D01*
X54597578Y-75389201D01*
X54582200Y-75311889D01*
X54582200Y-74362490D01*
X59223400Y-74362490D01*
X59223400Y-75203050D01*
X59382150Y-75361800D01*
X60731400Y-75361800D01*
X60731400Y-74012550D01*
X60985400Y-74012550D01*
X60985400Y-75361800D01*
X62334650Y-75361800D01*
X62493400Y-75203050D01*
X62493400Y-74362490D01*
X62396727Y-74129101D01*
X62218098Y-73950473D01*
X61984709Y-73853800D01*
X61144150Y-73853800D01*
X60985400Y-74012550D01*
X60731400Y-74012550D01*
X60572650Y-73853800D01*
X59732091Y-73853800D01*
X59498702Y-73950473D01*
X59320073Y-74129101D01*
X59223400Y-74362490D01*
X54582200Y-74362490D01*
X54582200Y-68536640D01*
X55397200Y-68536640D01*
X55644965Y-68487357D01*
X55855009Y-68347009D01*
X55995357Y-68136965D01*
X56044640Y-67889200D01*
X56044640Y-66889200D01*
X56030918Y-66820214D01*
X57231733Y-65619399D01*
X65633999Y-65619399D01*
X65538446Y-65683246D01*
G36*
X88104628Y-66241760D02*
X87757200Y-66241760D01*
X87509435Y-66291043D01*
X87299391Y-66431391D01*
X87159043Y-66641435D01*
X87109760Y-66889200D01*
X87109760Y-67889200D01*
X87159043Y-68136965D01*
X87299391Y-68347009D01*
X87509435Y-68487357D01*
X87757200Y-68536640D01*
X88222200Y-68536640D01*
X88222201Y-75977412D01*
X88199965Y-76089200D01*
X88288054Y-76532054D01*
X88341169Y-76611546D01*
X88538912Y-76907489D01*
X88633679Y-76970811D01*
X89187400Y-77524532D01*
X89187400Y-80084160D01*
X87722000Y-80084160D01*
X87474235Y-80133443D01*
X87264191Y-80273791D01*
X87123843Y-80483835D01*
X87122000Y-80493100D01*
X87120157Y-80483835D01*
X86979809Y-80273791D01*
X86769765Y-80133443D01*
X86522000Y-80084160D01*
X85022000Y-80084160D01*
X84774235Y-80133443D01*
X84637719Y-80224661D01*
X84542165Y-80160813D01*
X84294400Y-80111530D01*
X82794400Y-80111530D01*
X82546635Y-80160813D01*
X82336591Y-80301161D01*
X82196243Y-80511205D01*
X82190679Y-80539179D01*
X82132727Y-80399271D01*
X81954098Y-80220643D01*
X81720709Y-80123970D01*
X81130150Y-80123970D01*
X80971400Y-80282720D01*
X80971400Y-81281970D01*
X80991400Y-81281970D01*
X80991400Y-81535970D01*
X80971400Y-81535970D01*
X80971400Y-81555970D01*
X80717400Y-81555970D01*
X80717400Y-81535970D01*
X79618150Y-81535970D01*
X79459400Y-81694720D01*
X79459400Y-82185280D01*
X79556073Y-82418669D01*
X79734702Y-82597297D01*
X79932916Y-82679400D01*
X72067795Y-82679400D01*
X71990484Y-82664022D01*
X71913174Y-82679400D01*
X71913169Y-82679400D01*
X71778549Y-82706178D01*
X71557093Y-82614448D01*
X71598498Y-82597297D01*
X71777127Y-82418669D01*
X71873800Y-82185280D01*
X71873800Y-81694720D01*
X71715050Y-81535970D01*
X70615800Y-81535970D01*
X70615800Y-82535220D01*
X70774550Y-82693970D01*
X70795723Y-82693970D01*
X70686120Y-82739369D01*
X70417004Y-83008485D01*
X70294912Y-82984200D01*
X70294908Y-82984200D01*
X70217596Y-82968822D01*
X70140284Y-82984200D01*
X69817511Y-82984200D01*
X69725080Y-82891769D01*
X69344674Y-82734200D01*
X69213958Y-82734200D01*
X68996566Y-82516808D01*
X68996609Y-82516779D01*
X69136957Y-82306735D01*
X69142521Y-82278761D01*
X69200473Y-82418669D01*
X69379102Y-82597297D01*
X69612491Y-82693970D01*
X70203050Y-82693970D01*
X70361800Y-82535220D01*
X70361800Y-81535970D01*
X70341800Y-81535970D01*
X70341800Y-81281970D01*
X70361800Y-81281970D01*
X70361800Y-80282720D01*
X70615800Y-80282720D01*
X70615800Y-81281970D01*
X71715050Y-81281970D01*
X71873800Y-81123220D01*
X71873800Y-80632660D01*
X79459400Y-80632660D01*
X79459400Y-81123220D01*
X79618150Y-81281970D01*
X80717400Y-81281970D01*
X80717400Y-80282720D01*
X80558650Y-80123970D01*
X79968091Y-80123970D01*
X79734702Y-80220643D01*
X79556073Y-80399271D01*
X79459400Y-80632660D01*
X71873800Y-80632660D01*
X71777127Y-80399271D01*
X71598498Y-80220643D01*
X71365109Y-80123970D01*
X70774550Y-80123970D01*
X70615800Y-80282720D01*
X70361800Y-80282720D01*
X70203050Y-80123970D01*
X69612491Y-80123970D01*
X69379102Y-80220643D01*
X69200473Y-80399271D01*
X69142521Y-80539179D01*
X69136957Y-80511205D01*
X68996609Y-80301161D01*
X68786565Y-80160813D01*
X68538800Y-80111530D01*
X67038800Y-80111530D01*
X66791035Y-80160813D01*
X66580991Y-80301161D01*
X66440643Y-80511205D01*
X66391360Y-80758970D01*
X66391360Y-82058970D01*
X66440643Y-82306735D01*
X66580991Y-82516779D01*
X66791035Y-82657127D01*
X67038800Y-82706410D01*
X67045551Y-82706410D01*
X67049346Y-82725491D01*
X67179051Y-82919608D01*
X67179054Y-82919611D01*
X67222848Y-82985153D01*
X67288390Y-83028947D01*
X68103800Y-83844358D01*
X68103800Y-83975074D01*
X68261369Y-84355480D01*
X68552520Y-84646631D01*
X68932926Y-84804200D01*
X69005648Y-84804200D01*
X69005648Y-85000223D01*
X69163217Y-85380629D01*
X69454368Y-85671780D01*
X69526568Y-85701686D01*
X69488085Y-85727400D01*
X68039511Y-85727400D01*
X67845480Y-85533369D01*
X67465074Y-85375800D01*
X67053326Y-85375800D01*
X66672920Y-85533369D01*
X66381769Y-85824520D01*
X66224200Y-86204926D01*
X66224200Y-86616674D01*
X66250017Y-86679002D01*
X65906356Y-86679002D01*
X65707400Y-86480047D01*
X65707400Y-86234110D01*
X65722778Y-86156799D01*
X65707400Y-86079488D01*
X65707400Y-86079484D01*
X65661854Y-85850508D01*
X65570038Y-85713096D01*
X65532149Y-85656391D01*
X65532147Y-85656389D01*
X65488353Y-85590847D01*
X65422811Y-85547053D01*
X64083475Y-84207718D01*
X64150492Y-83870800D01*
X64083475Y-83533882D01*
X64674409Y-82942949D01*
X64739951Y-82899155D01*
X64783745Y-82833613D01*
X64783747Y-82833611D01*
X64913452Y-82639494D01*
X64934193Y-82535220D01*
X64958998Y-82410518D01*
X64958998Y-82410514D01*
X64974376Y-82333202D01*
X64958998Y-82255890D01*
X64958998Y-75749559D01*
X66173400Y-74535158D01*
X66173400Y-74729474D01*
X66330969Y-75109880D01*
X66622120Y-75401031D01*
X67002526Y-75558600D01*
X67414274Y-75558600D01*
X67794680Y-75401031D01*
X68085831Y-75109880D01*
X68243400Y-74729474D01*
X68243400Y-74317726D01*
X68179289Y-74162949D01*
X68221413Y-74099906D01*
X68236073Y-74135298D01*
X68414701Y-74313927D01*
X68648090Y-74410600D01*
X68888650Y-74410600D01*
X69047400Y-74251850D01*
X69047400Y-73452600D01*
X69301400Y-73452600D01*
X69301400Y-74251850D01*
X69460150Y-74410600D01*
X69700710Y-74410600D01*
X69934099Y-74313927D01*
X70112727Y-74135298D01*
X70209400Y-73901909D01*
X70209400Y-73611350D01*
X70050650Y-73452600D01*
X69301400Y-73452600D01*
X69047400Y-73452600D01*
X69027400Y-73452600D01*
X69027400Y-73198600D01*
X69047400Y-73198600D01*
X69047400Y-73178600D01*
X69301400Y-73178600D01*
X69301400Y-73198600D01*
X70050650Y-73198600D01*
X70209400Y-73039850D01*
X70209400Y-72749291D01*
X70112727Y-72515902D01*
X70041425Y-72444600D01*
X72458617Y-72444600D01*
X72570400Y-72466835D01*
X72682183Y-72444600D01*
X73013255Y-72378746D01*
X73388689Y-72127889D01*
X73452013Y-72033118D01*
X75704321Y-69780810D01*
X75799089Y-69717489D01*
X76049946Y-69342055D01*
X76115800Y-69010983D01*
X76115800Y-69010982D01*
X76138035Y-68899201D01*
X76115800Y-68787419D01*
X76115800Y-68546640D01*
X76580800Y-68546640D01*
X76828565Y-68497357D01*
X77038609Y-68357009D01*
X77178957Y-68146965D01*
X77228240Y-67899200D01*
X77228240Y-66899200D01*
X77226251Y-66889200D01*
X77525493Y-66889200D01*
X77525493Y-67889200D01*
X77574776Y-68136965D01*
X77715124Y-68347009D01*
X77925168Y-68487357D01*
X78172933Y-68536640D01*
X81372933Y-68536640D01*
X81435474Y-68524200D01*
X82852251Y-68524200D01*
X82965066Y-68546640D01*
X84515822Y-68546640D01*
X84565065Y-68556435D01*
X84614308Y-68546640D01*
X86165066Y-68546640D01*
X86412831Y-68497357D01*
X86622875Y-68357009D01*
X86763223Y-68146965D01*
X86812506Y-67899200D01*
X86812506Y-66899200D01*
X86763223Y-66651435D01*
X86622875Y-66441391D01*
X86412831Y-66301043D01*
X86165066Y-66251760D01*
X84654582Y-66251760D01*
X84555066Y-66231965D01*
X84455550Y-66251760D01*
X82965066Y-66251760D01*
X82952799Y-66254200D01*
X81435474Y-66254200D01*
X81372933Y-66241760D01*
X78172933Y-66241760D01*
X77925168Y-66291043D01*
X77715124Y-66431391D01*
X77574776Y-66641435D01*
X77525493Y-66889200D01*
X77226251Y-66889200D01*
X77178957Y-66651435D01*
X77038609Y-66441391D01*
X76828565Y-66301043D01*
X76580800Y-66251760D01*
X75030043Y-66251760D01*
X74980800Y-66241965D01*
X74931557Y-66251760D01*
X73380800Y-66251760D01*
X73179440Y-66291813D01*
X73179440Y-65619399D01*
X86614921Y-65619399D01*
X86817199Y-65659635D01*
X87184368Y-65586600D01*
X87449469Y-65586600D01*
X88104628Y-66241760D01*
X88104628Y-66241760D01*
G37*
X88104628Y-66241760D02*
X87757200Y-66241760D01*
X87509435Y-66291043D01*
X87299391Y-66431391D01*
X87159043Y-66641435D01*
X87109760Y-66889200D01*
X87109760Y-67889200D01*
X87159043Y-68136965D01*
X87299391Y-68347009D01*
X87509435Y-68487357D01*
X87757200Y-68536640D01*
X88222200Y-68536640D01*
X88222201Y-75977412D01*
X88199965Y-76089200D01*
X88288054Y-76532054D01*
X88341169Y-76611546D01*
X88538912Y-76907489D01*
X88633679Y-76970811D01*
X89187400Y-77524532D01*
X89187400Y-80084160D01*
X87722000Y-80084160D01*
X87474235Y-80133443D01*
X87264191Y-80273791D01*
X87123843Y-80483835D01*
X87122000Y-80493100D01*
X87120157Y-80483835D01*
X86979809Y-80273791D01*
X86769765Y-80133443D01*
X86522000Y-80084160D01*
X85022000Y-80084160D01*
X84774235Y-80133443D01*
X84637719Y-80224661D01*
X84542165Y-80160813D01*
X84294400Y-80111530D01*
X82794400Y-80111530D01*
X82546635Y-80160813D01*
X82336591Y-80301161D01*
X82196243Y-80511205D01*
X82190679Y-80539179D01*
X82132727Y-80399271D01*
X81954098Y-80220643D01*
X81720709Y-80123970D01*
X81130150Y-80123970D01*
X80971400Y-80282720D01*
X80971400Y-81281970D01*
X80991400Y-81281970D01*
X80991400Y-81535970D01*
X80971400Y-81535970D01*
X80971400Y-81555970D01*
X80717400Y-81555970D01*
X80717400Y-81535970D01*
X79618150Y-81535970D01*
X79459400Y-81694720D01*
X79459400Y-82185280D01*
X79556073Y-82418669D01*
X79734702Y-82597297D01*
X79932916Y-82679400D01*
X72067795Y-82679400D01*
X71990484Y-82664022D01*
X71913174Y-82679400D01*
X71913169Y-82679400D01*
X71778549Y-82706178D01*
X71557093Y-82614448D01*
X71598498Y-82597297D01*
X71777127Y-82418669D01*
X71873800Y-82185280D01*
X71873800Y-81694720D01*
X71715050Y-81535970D01*
X70615800Y-81535970D01*
X70615800Y-82535220D01*
X70774550Y-82693970D01*
X70795723Y-82693970D01*
X70686120Y-82739369D01*
X70417004Y-83008485D01*
X70294912Y-82984200D01*
X70294908Y-82984200D01*
X70217596Y-82968822D01*
X70140284Y-82984200D01*
X69817511Y-82984200D01*
X69725080Y-82891769D01*
X69344674Y-82734200D01*
X69213958Y-82734200D01*
X68996566Y-82516808D01*
X68996609Y-82516779D01*
X69136957Y-82306735D01*
X69142521Y-82278761D01*
X69200473Y-82418669D01*
X69379102Y-82597297D01*
X69612491Y-82693970D01*
X70203050Y-82693970D01*
X70361800Y-82535220D01*
X70361800Y-81535970D01*
X70341800Y-81535970D01*
X70341800Y-81281970D01*
X70361800Y-81281970D01*
X70361800Y-80282720D01*
X70615800Y-80282720D01*
X70615800Y-81281970D01*
X71715050Y-81281970D01*
X71873800Y-81123220D01*
X71873800Y-80632660D01*
X79459400Y-80632660D01*
X79459400Y-81123220D01*
X79618150Y-81281970D01*
X80717400Y-81281970D01*
X80717400Y-80282720D01*
X80558650Y-80123970D01*
X79968091Y-80123970D01*
X79734702Y-80220643D01*
X79556073Y-80399271D01*
X79459400Y-80632660D01*
X71873800Y-80632660D01*
X71777127Y-80399271D01*
X71598498Y-80220643D01*
X71365109Y-80123970D01*
X70774550Y-80123970D01*
X70615800Y-80282720D01*
X70361800Y-80282720D01*
X70203050Y-80123970D01*
X69612491Y-80123970D01*
X69379102Y-80220643D01*
X69200473Y-80399271D01*
X69142521Y-80539179D01*
X69136957Y-80511205D01*
X68996609Y-80301161D01*
X68786565Y-80160813D01*
X68538800Y-80111530D01*
X67038800Y-80111530D01*
X66791035Y-80160813D01*
X66580991Y-80301161D01*
X66440643Y-80511205D01*
X66391360Y-80758970D01*
X66391360Y-82058970D01*
X66440643Y-82306735D01*
X66580991Y-82516779D01*
X66791035Y-82657127D01*
X67038800Y-82706410D01*
X67045551Y-82706410D01*
X67049346Y-82725491D01*
X67179051Y-82919608D01*
X67179054Y-82919611D01*
X67222848Y-82985153D01*
X67288390Y-83028947D01*
X68103800Y-83844358D01*
X68103800Y-83975074D01*
X68261369Y-84355480D01*
X68552520Y-84646631D01*
X68932926Y-84804200D01*
X69005648Y-84804200D01*
X69005648Y-85000223D01*
X69163217Y-85380629D01*
X69454368Y-85671780D01*
X69526568Y-85701686D01*
X69488085Y-85727400D01*
X68039511Y-85727400D01*
X67845480Y-85533369D01*
X67465074Y-85375800D01*
X67053326Y-85375800D01*
X66672920Y-85533369D01*
X66381769Y-85824520D01*
X66224200Y-86204926D01*
X66224200Y-86616674D01*
X66250017Y-86679002D01*
X65906356Y-86679002D01*
X65707400Y-86480047D01*
X65707400Y-86234110D01*
X65722778Y-86156799D01*
X65707400Y-86079488D01*
X65707400Y-86079484D01*
X65661854Y-85850508D01*
X65570038Y-85713096D01*
X65532149Y-85656391D01*
X65532147Y-85656389D01*
X65488353Y-85590847D01*
X65422811Y-85547053D01*
X64083475Y-84207718D01*
X64150492Y-83870800D01*
X64083475Y-83533882D01*
X64674409Y-82942949D01*
X64739951Y-82899155D01*
X64783745Y-82833613D01*
X64783747Y-82833611D01*
X64913452Y-82639494D01*
X64934193Y-82535220D01*
X64958998Y-82410518D01*
X64958998Y-82410514D01*
X64974376Y-82333202D01*
X64958998Y-82255890D01*
X64958998Y-75749559D01*
X66173400Y-74535158D01*
X66173400Y-74729474D01*
X66330969Y-75109880D01*
X66622120Y-75401031D01*
X67002526Y-75558600D01*
X67414274Y-75558600D01*
X67794680Y-75401031D01*
X68085831Y-75109880D01*
X68243400Y-74729474D01*
X68243400Y-74317726D01*
X68179289Y-74162949D01*
X68221413Y-74099906D01*
X68236073Y-74135298D01*
X68414701Y-74313927D01*
X68648090Y-74410600D01*
X68888650Y-74410600D01*
X69047400Y-74251850D01*
X69047400Y-73452600D01*
X69301400Y-73452600D01*
X69301400Y-74251850D01*
X69460150Y-74410600D01*
X69700710Y-74410600D01*
X69934099Y-74313927D01*
X70112727Y-74135298D01*
X70209400Y-73901909D01*
X70209400Y-73611350D01*
X70050650Y-73452600D01*
X69301400Y-73452600D01*
X69047400Y-73452600D01*
X69027400Y-73452600D01*
X69027400Y-73198600D01*
X69047400Y-73198600D01*
X69047400Y-73178600D01*
X69301400Y-73178600D01*
X69301400Y-73198600D01*
X70050650Y-73198600D01*
X70209400Y-73039850D01*
X70209400Y-72749291D01*
X70112727Y-72515902D01*
X70041425Y-72444600D01*
X72458617Y-72444600D01*
X72570400Y-72466835D01*
X72682183Y-72444600D01*
X73013255Y-72378746D01*
X73388689Y-72127889D01*
X73452013Y-72033118D01*
X75704321Y-69780810D01*
X75799089Y-69717489D01*
X76049946Y-69342055D01*
X76115800Y-69010983D01*
X76115800Y-69010982D01*
X76138035Y-68899201D01*
X76115800Y-68787419D01*
X76115800Y-68546640D01*
X76580800Y-68546640D01*
X76828565Y-68497357D01*
X77038609Y-68357009D01*
X77178957Y-68146965D01*
X77228240Y-67899200D01*
X77228240Y-66899200D01*
X77226251Y-66889200D01*
X77525493Y-66889200D01*
X77525493Y-67889200D01*
X77574776Y-68136965D01*
X77715124Y-68347009D01*
X77925168Y-68487357D01*
X78172933Y-68536640D01*
X81372933Y-68536640D01*
X81435474Y-68524200D01*
X82852251Y-68524200D01*
X82965066Y-68546640D01*
X84515822Y-68546640D01*
X84565065Y-68556435D01*
X84614308Y-68546640D01*
X86165066Y-68546640D01*
X86412831Y-68497357D01*
X86622875Y-68357009D01*
X86763223Y-68146965D01*
X86812506Y-67899200D01*
X86812506Y-66899200D01*
X86763223Y-66651435D01*
X86622875Y-66441391D01*
X86412831Y-66301043D01*
X86165066Y-66251760D01*
X84654582Y-66251760D01*
X84555066Y-66231965D01*
X84455550Y-66251760D01*
X82965066Y-66251760D01*
X82952799Y-66254200D01*
X81435474Y-66254200D01*
X81372933Y-66241760D01*
X78172933Y-66241760D01*
X77925168Y-66291043D01*
X77715124Y-66431391D01*
X77574776Y-66641435D01*
X77525493Y-66889200D01*
X77226251Y-66889200D01*
X77178957Y-66651435D01*
X77038609Y-66441391D01*
X76828565Y-66301043D01*
X76580800Y-66251760D01*
X75030043Y-66251760D01*
X74980800Y-66241965D01*
X74931557Y-66251760D01*
X73380800Y-66251760D01*
X73179440Y-66291813D01*
X73179440Y-65619399D01*
X86614921Y-65619399D01*
X86817199Y-65659635D01*
X87184368Y-65586600D01*
X87449469Y-65586600D01*
X88104628Y-66241760D01*
G36*
X79408600Y-84311250D02*
X79567350Y-84470000D01*
X80666600Y-84470000D01*
X80666600Y-84450000D01*
X80920600Y-84450000D01*
X80920600Y-84470000D01*
X80940600Y-84470000D01*
X80940600Y-84724000D01*
X80920600Y-84724000D01*
X80920600Y-84744000D01*
X80666600Y-84744000D01*
X80666600Y-84724000D01*
X79567350Y-84724000D01*
X79408600Y-84882750D01*
X79408600Y-85067000D01*
X78445710Y-85067000D01*
X78368398Y-85051622D01*
X78291086Y-85067000D01*
X78291082Y-85067000D01*
X78062106Y-85112546D01*
X77802445Y-85286047D01*
X77758649Y-85351592D01*
X77382841Y-85727400D01*
X77222315Y-85727400D01*
X77052965Y-85614243D01*
X76805200Y-85564960D01*
X76767160Y-85564960D01*
X76621153Y-85346447D01*
X76555608Y-85302651D01*
X75981351Y-84728394D01*
X75937555Y-84662849D01*
X75677894Y-84489348D01*
X75448918Y-84443802D01*
X75448914Y-84443802D01*
X75371602Y-84428424D01*
X75294290Y-84443802D01*
X73429336Y-84443802D01*
X73352024Y-84428424D01*
X73274712Y-84443802D01*
X73274708Y-84443802D01*
X73045732Y-84489348D01*
X72786071Y-84662849D01*
X72742275Y-84728394D01*
X72630056Y-84840613D01*
X72499339Y-84840613D01*
X72437977Y-84866030D01*
X72421154Y-84840852D01*
X72355612Y-84797058D01*
X71955732Y-84397179D01*
X71959978Y-84392933D01*
X72144377Y-84356254D01*
X72304294Y-84249400D01*
X79408600Y-84249400D01*
X79408600Y-84311250D01*
X79408600Y-84311250D01*
G37*
X79408600Y-84311250D02*
X79567350Y-84470000D01*
X80666600Y-84470000D01*
X80666600Y-84450000D01*
X80920600Y-84450000D01*
X80920600Y-84470000D01*
X80940600Y-84470000D01*
X80940600Y-84724000D01*
X80920600Y-84724000D01*
X80920600Y-84744000D01*
X80666600Y-84744000D01*
X80666600Y-84724000D01*
X79567350Y-84724000D01*
X79408600Y-84882750D01*
X79408600Y-85067000D01*
X78445710Y-85067000D01*
X78368398Y-85051622D01*
X78291086Y-85067000D01*
X78291082Y-85067000D01*
X78062106Y-85112546D01*
X77802445Y-85286047D01*
X77758649Y-85351592D01*
X77382841Y-85727400D01*
X77222315Y-85727400D01*
X77052965Y-85614243D01*
X76805200Y-85564960D01*
X76767160Y-85564960D01*
X76621153Y-85346447D01*
X76555608Y-85302651D01*
X75981351Y-84728394D01*
X75937555Y-84662849D01*
X75677894Y-84489348D01*
X75448918Y-84443802D01*
X75448914Y-84443802D01*
X75371602Y-84428424D01*
X75294290Y-84443802D01*
X73429336Y-84443802D01*
X73352024Y-84428424D01*
X73274712Y-84443802D01*
X73274708Y-84443802D01*
X73045732Y-84489348D01*
X72786071Y-84662849D01*
X72742275Y-84728394D01*
X72630056Y-84840613D01*
X72499339Y-84840613D01*
X72437977Y-84866030D01*
X72421154Y-84840852D01*
X72355612Y-84797058D01*
X71955732Y-84397179D01*
X71959978Y-84392933D01*
X72144377Y-84356254D01*
X72304294Y-84249400D01*
X79408600Y-84249400D01*
X79408600Y-84311250D01*
G36*
X70584560Y-67052000D02*
X70633843Y-67299765D01*
X70774191Y-67509809D01*
X70984235Y-67650157D01*
X71012209Y-67655721D01*
X70872301Y-67713673D01*
X70693673Y-67892302D01*
X70597000Y-68125691D01*
X70597000Y-68716250D01*
X70755750Y-68875000D01*
X71755000Y-68875000D01*
X71755000Y-68855000D01*
X72009000Y-68855000D01*
X72009000Y-68875000D01*
X73008250Y-68875000D01*
X73167000Y-68716250D01*
X73167000Y-68504113D01*
X73380800Y-68546640D01*
X73728228Y-68546640D01*
X73077059Y-69197809D01*
X73008250Y-69129000D01*
X72009000Y-69129000D01*
X72009000Y-69149000D01*
X71755000Y-69149000D01*
X71755000Y-69129000D01*
X70755750Y-69129000D01*
X70597000Y-69287750D01*
X70597000Y-69878309D01*
X70693673Y-70111698D01*
X70756575Y-70174600D01*
X69359400Y-70174600D01*
X69359400Y-68546640D01*
X69824400Y-68546640D01*
X70072165Y-68497357D01*
X70282209Y-68357009D01*
X70422557Y-68146965D01*
X70471840Y-67899200D01*
X70471840Y-67034199D01*
X70584560Y-67034199D01*
X70584560Y-67052000D01*
X70584560Y-67052000D01*
G37*
X70584560Y-67052000D02*
X70633843Y-67299765D01*
X70774191Y-67509809D01*
X70984235Y-67650157D01*
X71012209Y-67655721D01*
X70872301Y-67713673D01*
X70693673Y-67892302D01*
X70597000Y-68125691D01*
X70597000Y-68716250D01*
X70755750Y-68875000D01*
X71755000Y-68875000D01*
X71755000Y-68855000D01*
X72009000Y-68855000D01*
X72009000Y-68875000D01*
X73008250Y-68875000D01*
X73167000Y-68716250D01*
X73167000Y-68504113D01*
X73380800Y-68546640D01*
X73728228Y-68546640D01*
X73077059Y-69197809D01*
X73008250Y-69129000D01*
X72009000Y-69129000D01*
X72009000Y-69149000D01*
X71755000Y-69149000D01*
X71755000Y-69129000D01*
X70755750Y-69129000D01*
X70597000Y-69287750D01*
X70597000Y-69878309D01*
X70693673Y-70111698D01*
X70756575Y-70174600D01*
X69359400Y-70174600D01*
X69359400Y-68546640D01*
X69824400Y-68546640D01*
X70072165Y-68497357D01*
X70282209Y-68357009D01*
X70422557Y-68146965D01*
X70471840Y-67899200D01*
X70471840Y-67034199D01*
X70584560Y-67034199D01*
X70584560Y-67052000D01*
G04 #@! TD*
M02*
