G04 #@! TF.GenerationSoftware,KiCad,Pcbnew,(5.1.0)-1*
G04 #@! TF.CreationDate,2019-04-30T11:34:50+01:00*
G04 #@! TF.ProjectId,v4,76342e6b-6963-4616-945f-706362585858,rev?*
G04 #@! TF.SameCoordinates,Original*
G04 #@! TF.FileFunction,Legend,Top*
G04 #@! TF.FilePolarity,Positive*
%FSLAX46Y46*%
G04 Gerber Fmt 4.6, Leading zero omitted, Abs format (unit mm)*
G04 Created by KiCad (PCBNEW (5.1.0)-1) date 2019-04-30 11:34:50*
%MOMM*%
%LPD*%
G04 APERTURE LIST*
%ADD10C,0.300000*%
%ADD11C,0.200000*%
%ADD12C,0.120000*%
%ADD13C,0.150000*%
G04 APERTURE END LIST*
D10*
X85789028Y-78075695D02*
X85046171Y-78075695D01*
X85417600Y-78075695D02*
X85417600Y-76775695D01*
X85293790Y-76961409D01*
X85169980Y-77085219D01*
X85046171Y-77147123D01*
X59831528Y-59666171D02*
X60019028Y-58166171D01*
X60376171Y-58166171D01*
X60581528Y-58237600D01*
X60706528Y-58380457D01*
X60760100Y-58523314D01*
X60795814Y-58809028D01*
X60769028Y-59023314D01*
X60661885Y-59309028D01*
X60572600Y-59451885D01*
X60411885Y-59594742D01*
X60188671Y-59666171D01*
X59831528Y-59666171D01*
X61313671Y-59237600D02*
X62027957Y-59237600D01*
X61117242Y-59666171D02*
X61804742Y-58166171D01*
X62117242Y-59666171D01*
X62617242Y-59666171D02*
X62804742Y-58166171D01*
X63474385Y-59666171D01*
X63661885Y-58166171D01*
X65152957Y-58237600D02*
X65019028Y-58166171D01*
X64804742Y-58166171D01*
X64581528Y-58237600D01*
X64420814Y-58380457D01*
X64331528Y-58523314D01*
X64224385Y-58809028D01*
X64197600Y-59023314D01*
X64233314Y-59309028D01*
X64286885Y-59451885D01*
X64411885Y-59594742D01*
X64617242Y-59666171D01*
X64760100Y-59666171D01*
X64983314Y-59594742D01*
X65063671Y-59523314D01*
X65126171Y-59023314D01*
X64840457Y-59023314D01*
X65786885Y-58880457D02*
X66286885Y-58880457D01*
X66402957Y-59666171D02*
X65688671Y-59666171D01*
X65876171Y-58166171D01*
X66590457Y-58166171D01*
X67902957Y-59666171D02*
X67492242Y-58951885D01*
X67045814Y-59666171D02*
X67233314Y-58166171D01*
X67804742Y-58166171D01*
X67938671Y-58237600D01*
X68001171Y-58309028D01*
X68054742Y-58451885D01*
X68027957Y-58666171D01*
X67938671Y-58809028D01*
X67858314Y-58880457D01*
X67706528Y-58951885D01*
X67135100Y-58951885D01*
X69688671Y-59666171D02*
X69876171Y-58166171D01*
X69786885Y-58880457D02*
X70644028Y-58880457D01*
X70545814Y-59666171D02*
X70733314Y-58166171D01*
X71733314Y-58166171D02*
X72019028Y-58166171D01*
X72152957Y-58237600D01*
X72277957Y-58380457D01*
X72313671Y-58666171D01*
X72251171Y-59166171D01*
X72144028Y-59451885D01*
X71983314Y-59594742D01*
X71831528Y-59666171D01*
X71545814Y-59666171D01*
X71411885Y-59594742D01*
X71286885Y-59451885D01*
X71251171Y-59166171D01*
X71313671Y-58666171D01*
X71420814Y-58380457D01*
X71581528Y-58237600D01*
X71733314Y-58166171D01*
X72804742Y-58166171D02*
X73661885Y-58166171D01*
X73045814Y-59666171D02*
X73233314Y-58166171D01*
X75054742Y-59594742D02*
X75260100Y-59666171D01*
X75617242Y-59666171D01*
X75769028Y-59594742D01*
X75849385Y-59523314D01*
X75938671Y-59380457D01*
X75956528Y-59237600D01*
X75902957Y-59094742D01*
X75840457Y-59023314D01*
X75706528Y-58951885D01*
X75429742Y-58880457D01*
X75295814Y-58809028D01*
X75233314Y-58737600D01*
X75179742Y-58594742D01*
X75197600Y-58451885D01*
X75286885Y-58309028D01*
X75367242Y-58237600D01*
X75519028Y-58166171D01*
X75876171Y-58166171D01*
X76081528Y-58237600D01*
X76733314Y-58166171D02*
X76581528Y-59380457D01*
X76635100Y-59523314D01*
X76697600Y-59594742D01*
X76831528Y-59666171D01*
X77117242Y-59666171D01*
X77269028Y-59594742D01*
X77349385Y-59523314D01*
X77438671Y-59380457D01*
X77590457Y-58166171D01*
X78974385Y-59666171D02*
X78563671Y-58951885D01*
X78117242Y-59666171D02*
X78304742Y-58166171D01*
X78876171Y-58166171D01*
X79010100Y-58237600D01*
X79072600Y-58309028D01*
X79126171Y-58451885D01*
X79099385Y-58666171D01*
X79010100Y-58809028D01*
X78929742Y-58880457D01*
X78777957Y-58951885D01*
X78206528Y-58951885D01*
X80215457Y-58880457D02*
X79715457Y-58880457D01*
X79617242Y-59666171D02*
X79804742Y-58166171D01*
X80519028Y-58166171D01*
X80885100Y-59237600D02*
X81599385Y-59237600D01*
X80688671Y-59666171D02*
X81376171Y-58166171D01*
X81688671Y-59666171D01*
X83063671Y-59523314D02*
X82983314Y-59594742D01*
X82760100Y-59666171D01*
X82617242Y-59666171D01*
X82411885Y-59594742D01*
X82286885Y-59451885D01*
X82233314Y-59309028D01*
X82197600Y-59023314D01*
X82224385Y-58809028D01*
X82331528Y-58523314D01*
X82420814Y-58380457D01*
X82581528Y-58237600D01*
X82804742Y-58166171D01*
X82947600Y-58166171D01*
X83152957Y-58237600D01*
X83215457Y-58309028D01*
X83786885Y-58880457D02*
X84286885Y-58880457D01*
X84402957Y-59666171D02*
X83688671Y-59666171D01*
X83876171Y-58166171D01*
X84590457Y-58166171D01*
D11*
X83144742Y-92439980D02*
X83144742Y-91439980D01*
X83478076Y-92154266D01*
X83811409Y-91439980D01*
X83811409Y-92439980D01*
X84716171Y-92439980D02*
X84716171Y-91916171D01*
X84668552Y-91820933D01*
X84573314Y-91773314D01*
X84382838Y-91773314D01*
X84287600Y-91820933D01*
X84716171Y-92392361D02*
X84620933Y-92439980D01*
X84382838Y-92439980D01*
X84287600Y-92392361D01*
X84239980Y-92297123D01*
X84239980Y-92201885D01*
X84287600Y-92106647D01*
X84382838Y-92059028D01*
X84620933Y-92059028D01*
X84716171Y-92011409D01*
X85097123Y-91773314D02*
X85335219Y-92439980D01*
X85573314Y-91773314D02*
X85335219Y-92439980D01*
X85239980Y-92678076D01*
X85192361Y-92725695D01*
X85097123Y-92773314D01*
X86668552Y-91535219D02*
X86716171Y-91487600D01*
X86811409Y-91439980D01*
X87049504Y-91439980D01*
X87144742Y-91487600D01*
X87192361Y-91535219D01*
X87239980Y-91630457D01*
X87239980Y-91725695D01*
X87192361Y-91868552D01*
X86620933Y-92439980D01*
X87239980Y-92439980D01*
X87859028Y-91439980D02*
X87954266Y-91439980D01*
X88049504Y-91487600D01*
X88097123Y-91535219D01*
X88144742Y-91630457D01*
X88192361Y-91820933D01*
X88192361Y-92059028D01*
X88144742Y-92249504D01*
X88097123Y-92344742D01*
X88049504Y-92392361D01*
X87954266Y-92439980D01*
X87859028Y-92439980D01*
X87763790Y-92392361D01*
X87716171Y-92344742D01*
X87668552Y-92249504D01*
X87620933Y-92059028D01*
X87620933Y-91820933D01*
X87668552Y-91630457D01*
X87716171Y-91535219D01*
X87763790Y-91487600D01*
X87859028Y-91439980D01*
X89144742Y-92439980D02*
X88573314Y-92439980D01*
X88859028Y-92439980D02*
X88859028Y-91439980D01*
X88763790Y-91582838D01*
X88668552Y-91678076D01*
X88573314Y-91725695D01*
X89620933Y-92439980D02*
X89811409Y-92439980D01*
X89906647Y-92392361D01*
X89954266Y-92344742D01*
X90049504Y-92201885D01*
X90097123Y-92011409D01*
X90097123Y-91630457D01*
X90049504Y-91535219D01*
X90001885Y-91487600D01*
X89906647Y-91439980D01*
X89716171Y-91439980D01*
X89620933Y-91487600D01*
X89573314Y-91535219D01*
X89525695Y-91630457D01*
X89525695Y-91868552D01*
X89573314Y-91963790D01*
X89620933Y-92011409D01*
X89716171Y-92059028D01*
X89906647Y-92059028D01*
X90001885Y-92011409D01*
X90049504Y-91963790D01*
X90097123Y-91868552D01*
D10*
X65289028Y-93075695D02*
X64546171Y-93075695D01*
X64917600Y-93075695D02*
X64917600Y-91775695D01*
X64793790Y-91961409D01*
X64669980Y-92085219D01*
X64546171Y-92147123D01*
X75389266Y-90892361D02*
X75389266Y-88892361D01*
X75865457Y-88892361D01*
X76151171Y-88987600D01*
X76341647Y-89178076D01*
X76436885Y-89368552D01*
X76532123Y-89749504D01*
X76532123Y-90035219D01*
X76436885Y-90416171D01*
X76341647Y-90606647D01*
X76151171Y-90797123D01*
X75865457Y-90892361D01*
X75389266Y-90892361D01*
X77389266Y-90892361D02*
X77389266Y-88892361D01*
X78722600Y-89939980D02*
X78722600Y-90892361D01*
X78055933Y-88892361D02*
X78722600Y-89939980D01*
X79389266Y-88892361D01*
X80722600Y-89844742D02*
X81008314Y-89939980D01*
X81103552Y-90035219D01*
X81198790Y-90225695D01*
X81198790Y-90511409D01*
X81103552Y-90701885D01*
X81008314Y-90797123D01*
X80817838Y-90892361D01*
X80055933Y-90892361D01*
X80055933Y-88892361D01*
X80722600Y-88892361D01*
X80913076Y-88987600D01*
X81008314Y-89082838D01*
X81103552Y-89273314D01*
X81103552Y-89463790D01*
X81008314Y-89654266D01*
X80913076Y-89749504D01*
X80722600Y-89844742D01*
X80055933Y-89844742D01*
X82055933Y-90892361D02*
X82055933Y-88892361D01*
X82722600Y-90320933D01*
X83389266Y-88892361D01*
X83389266Y-90892361D01*
X84246409Y-90797123D02*
X84532123Y-90892361D01*
X85008314Y-90892361D01*
X85198790Y-90797123D01*
X85294028Y-90701885D01*
X85389266Y-90511409D01*
X85389266Y-90320933D01*
X85294028Y-90130457D01*
X85198790Y-90035219D01*
X85008314Y-89939980D01*
X84627361Y-89844742D01*
X84436885Y-89749504D01*
X84341647Y-89654266D01*
X84246409Y-89463790D01*
X84246409Y-89273314D01*
X84341647Y-89082838D01*
X84436885Y-88987600D01*
X84627361Y-88892361D01*
X85103552Y-88892361D01*
X85389266Y-88987600D01*
X87579742Y-89559028D02*
X88055933Y-90892361D01*
X88532123Y-89559028D01*
X90151171Y-89559028D02*
X90151171Y-90892361D01*
X89674980Y-88797123D02*
X89198790Y-90225695D01*
X90436885Y-90225695D01*
X66346171Y-82666171D02*
X65489028Y-82666171D01*
X65917600Y-82666171D02*
X65917600Y-81166171D01*
X65774742Y-81380457D01*
X65631885Y-81523314D01*
X65489028Y-81594742D01*
X81989028Y-93880457D02*
X80846171Y-93880457D01*
X82846171Y-94094742D02*
X83989028Y-94094742D01*
X83417600Y-94666171D02*
X83417600Y-93523314D01*
X65316885Y-107501371D02*
X66245457Y-107501371D01*
X65745457Y-108072800D01*
X65959742Y-108072800D01*
X66102600Y-108144228D01*
X66174028Y-108215657D01*
X66245457Y-108358514D01*
X66245457Y-108715657D01*
X66174028Y-108858514D01*
X66102600Y-108929942D01*
X65959742Y-109001371D01*
X65531171Y-109001371D01*
X65388314Y-108929942D01*
X65316885Y-108858514D01*
X66959742Y-109001371D02*
X67245457Y-109001371D01*
X67388314Y-108929942D01*
X67459742Y-108858514D01*
X67602600Y-108644228D01*
X67674028Y-108358514D01*
X67674028Y-107787085D01*
X67602600Y-107644228D01*
X67531171Y-107572800D01*
X67388314Y-107501371D01*
X67102600Y-107501371D01*
X66959742Y-107572800D01*
X66888314Y-107644228D01*
X66816885Y-107787085D01*
X66816885Y-108144228D01*
X66888314Y-108287085D01*
X66959742Y-108358514D01*
X67102600Y-108429942D01*
X67388314Y-108429942D01*
X67531171Y-108358514D01*
X67602600Y-108287085D01*
X67674028Y-108144228D01*
X68316885Y-108858514D02*
X68388314Y-108929942D01*
X68316885Y-109001371D01*
X68245457Y-108929942D01*
X68316885Y-108858514D01*
X68316885Y-109001371D01*
X69102600Y-109001371D02*
X69388314Y-109001371D01*
X69531171Y-108929942D01*
X69602600Y-108858514D01*
X69745457Y-108644228D01*
X69816885Y-108358514D01*
X69816885Y-107787085D01*
X69745457Y-107644228D01*
X69674028Y-107572800D01*
X69531171Y-107501371D01*
X69245457Y-107501371D01*
X69102600Y-107572800D01*
X69031171Y-107644228D01*
X68959742Y-107787085D01*
X68959742Y-108144228D01*
X69031171Y-108287085D01*
X69102600Y-108358514D01*
X69245457Y-108429942D01*
X69531171Y-108429942D01*
X69674028Y-108358514D01*
X69745457Y-108287085D01*
X69816885Y-108144228D01*
X70674028Y-108144228D02*
X70531171Y-108072800D01*
X70459742Y-108001371D01*
X70388314Y-107858514D01*
X70388314Y-107787085D01*
X70459742Y-107644228D01*
X70531171Y-107572800D01*
X70674028Y-107501371D01*
X70959742Y-107501371D01*
X71102600Y-107572800D01*
X71174028Y-107644228D01*
X71245457Y-107787085D01*
X71245457Y-107858514D01*
X71174028Y-108001371D01*
X71102600Y-108072800D01*
X70959742Y-108144228D01*
X70674028Y-108144228D01*
X70531171Y-108215657D01*
X70459742Y-108287085D01*
X70388314Y-108429942D01*
X70388314Y-108715657D01*
X70459742Y-108858514D01*
X70531171Y-108929942D01*
X70674028Y-109001371D01*
X70959742Y-109001371D01*
X71102600Y-108929942D01*
X71174028Y-108858514D01*
X71245457Y-108715657D01*
X71245457Y-108429942D01*
X71174028Y-108287085D01*
X71102600Y-108215657D01*
X70959742Y-108144228D01*
X72174028Y-107501371D02*
X72316885Y-107501371D01*
X72459742Y-107572800D01*
X72531171Y-107644228D01*
X72602600Y-107787085D01*
X72674028Y-108072800D01*
X72674028Y-108429942D01*
X72602600Y-108715657D01*
X72531171Y-108858514D01*
X72459742Y-108929942D01*
X72316885Y-109001371D01*
X72174028Y-109001371D01*
X72031171Y-108929942D01*
X71959742Y-108858514D01*
X71888314Y-108715657D01*
X71816885Y-108429942D01*
X71816885Y-108072800D01*
X71888314Y-107787085D01*
X71959742Y-107644228D01*
X72031171Y-107572800D01*
X72174028Y-107501371D01*
X74459742Y-109001371D02*
X74459742Y-108001371D01*
X74459742Y-108144228D02*
X74531171Y-108072800D01*
X74674028Y-108001371D01*
X74888314Y-108001371D01*
X75031171Y-108072800D01*
X75102600Y-108215657D01*
X75102600Y-109001371D01*
X75102600Y-108215657D02*
X75174028Y-108072800D01*
X75316885Y-108001371D01*
X75531171Y-108001371D01*
X75674028Y-108072800D01*
X75745457Y-108215657D01*
X75745457Y-109001371D01*
X76459742Y-109001371D02*
X76459742Y-108001371D01*
X76459742Y-108144228D02*
X76531171Y-108072800D01*
X76674028Y-108001371D01*
X76888314Y-108001371D01*
X77031171Y-108072800D01*
X77102600Y-108215657D01*
X77102600Y-109001371D01*
X77102600Y-108215657D02*
X77174028Y-108072800D01*
X77316885Y-108001371D01*
X77531171Y-108001371D01*
X77674028Y-108072800D01*
X77745457Y-108215657D01*
X77745457Y-109001371D01*
X51612800Y-106222800D02*
X91592400Y-106222800D01*
X51612800Y-104546400D02*
X51612800Y-106809221D01*
X91592400Y-104546400D02*
X91592400Y-106809221D01*
X91592400Y-106222800D02*
X90465896Y-106809221D01*
X91592400Y-106222800D02*
X90465896Y-105636379D01*
X51612800Y-106222800D02*
X52739304Y-106809221D01*
X51612800Y-106222800D02*
X52739304Y-105636379D01*
X97061828Y-74078200D02*
X96061828Y-74078200D01*
X97633257Y-73721057D02*
X96561828Y-73363914D01*
X96561828Y-74292485D01*
X96061828Y-74935342D02*
X96061828Y-75221057D01*
X96133257Y-75363914D01*
X96204685Y-75435342D01*
X96418971Y-75578200D01*
X96704685Y-75649628D01*
X97276114Y-75649628D01*
X97418971Y-75578200D01*
X97490400Y-75506771D01*
X97561828Y-75363914D01*
X97561828Y-75078200D01*
X97490400Y-74935342D01*
X97418971Y-74863914D01*
X97276114Y-74792485D01*
X96918971Y-74792485D01*
X96776114Y-74863914D01*
X96704685Y-74935342D01*
X96633257Y-75078200D01*
X96633257Y-75363914D01*
X96704685Y-75506771D01*
X96776114Y-75578200D01*
X96918971Y-75649628D01*
X96204685Y-76292485D02*
X96133257Y-76363914D01*
X96061828Y-76292485D01*
X96133257Y-76221057D01*
X96204685Y-76292485D01*
X96061828Y-76292485D01*
X97561828Y-76863914D02*
X97561828Y-77792485D01*
X96990400Y-77292485D01*
X96990400Y-77506771D01*
X96918971Y-77649628D01*
X96847542Y-77721057D01*
X96704685Y-77792485D01*
X96347542Y-77792485D01*
X96204685Y-77721057D01*
X96133257Y-77649628D01*
X96061828Y-77506771D01*
X96061828Y-77078200D01*
X96133257Y-76935342D01*
X96204685Y-76863914D01*
X97418971Y-78363914D02*
X97490400Y-78435342D01*
X97561828Y-78578200D01*
X97561828Y-78935342D01*
X97490400Y-79078200D01*
X97418971Y-79149628D01*
X97276114Y-79221057D01*
X97133257Y-79221057D01*
X96918971Y-79149628D01*
X96061828Y-78292485D01*
X96061828Y-79221057D01*
X97561828Y-79721057D02*
X97561828Y-80721057D01*
X96061828Y-80078200D01*
X96061828Y-82435342D02*
X97061828Y-82435342D01*
X96918971Y-82435342D02*
X96990400Y-82506771D01*
X97061828Y-82649628D01*
X97061828Y-82863914D01*
X96990400Y-83006771D01*
X96847542Y-83078200D01*
X96061828Y-83078200D01*
X96847542Y-83078200D02*
X96990400Y-83149628D01*
X97061828Y-83292485D01*
X97061828Y-83506771D01*
X96990400Y-83649628D01*
X96847542Y-83721057D01*
X96061828Y-83721057D01*
X96061828Y-84435342D02*
X97061828Y-84435342D01*
X96918971Y-84435342D02*
X96990400Y-84506771D01*
X97061828Y-84649628D01*
X97061828Y-84863914D01*
X96990400Y-85006771D01*
X96847542Y-85078200D01*
X96061828Y-85078200D01*
X96847542Y-85078200D02*
X96990400Y-85149628D01*
X97061828Y-85292485D01*
X97061828Y-85506771D01*
X96990400Y-85649628D01*
X96847542Y-85721057D01*
X96061828Y-85721057D01*
X94640400Y-54914800D02*
X94640400Y-104241600D01*
X92405200Y-54914800D02*
X95226821Y-54914800D01*
X92405200Y-104241600D02*
X95226821Y-104241600D01*
X94640400Y-104241600D02*
X94053979Y-103115096D01*
X94640400Y-104241600D02*
X95226821Y-103115096D01*
X94640400Y-54914800D02*
X94053979Y-56041304D01*
X94640400Y-54914800D02*
X95226821Y-56041304D01*
D12*
X69417600Y-103733600D02*
X69417600Y-99383600D01*
X69417600Y-99383600D02*
X70417600Y-99383600D01*
X70417600Y-99383600D02*
X70417600Y-103733600D01*
X68117600Y-97533600D02*
X67767600Y-97533600D01*
X67767600Y-97533600D02*
X67767600Y-95933600D01*
X67767600Y-95933600D02*
X66867600Y-95933600D01*
X66867600Y-95933600D02*
X66867600Y-103733600D01*
X66867600Y-103733600D02*
X72967600Y-103733600D01*
X72967600Y-103733600D02*
X72967600Y-95933600D01*
X72967600Y-95933600D02*
X72067600Y-95933600D01*
X72067600Y-95933600D02*
X72067600Y-97533600D01*
X72067600Y-97533600D02*
X71717600Y-97533600D01*
X66867600Y-97533600D02*
X67767600Y-97533600D01*
X72967600Y-97533600D02*
X72067600Y-97533600D01*
X67617600Y-99883600D02*
X67617600Y-101483600D01*
X67617600Y-101483600D02*
X68617600Y-101483600D01*
X68617600Y-101483600D02*
X68617600Y-99883600D01*
X68617600Y-99883600D02*
X67617600Y-99883600D01*
X72217600Y-99883600D02*
X72217600Y-101483600D01*
X72217600Y-101483600D02*
X71217600Y-101483600D01*
X71217600Y-101483600D02*
X71217600Y-99883600D01*
X71217600Y-99883600D02*
X72217600Y-99883600D01*
X68617600Y-101483600D02*
X68617600Y-103733600D01*
X68117600Y-101483600D02*
X68117600Y-103733600D01*
X68117600Y-97533600D02*
X68117600Y-96333600D01*
X81417600Y-75137600D02*
X80417600Y-75137600D01*
X80417600Y-76837600D02*
X81417600Y-76837600D01*
X54587600Y-92477600D02*
X57247600Y-92477600D01*
X54587600Y-82257600D02*
X54587600Y-92477600D01*
X57247600Y-82257600D02*
X57247600Y-92477600D01*
X54587600Y-82257600D02*
X57247600Y-82257600D01*
X54587600Y-80987600D02*
X54587600Y-79657600D01*
X54587600Y-79657600D02*
X55917600Y-79657600D01*
X56017600Y-73367600D02*
X54817600Y-73367600D01*
X54817600Y-71607600D02*
X56017600Y-71607600D01*
X76184266Y-57867600D02*
X74984266Y-57867600D01*
X74984266Y-56107600D02*
X76184266Y-56107600D01*
X84087600Y-86397600D02*
X89287600Y-86397600D01*
X84087600Y-81257600D02*
X84087600Y-86397600D01*
X89287600Y-78657600D02*
X89287600Y-86397600D01*
X84087600Y-81257600D02*
X86687600Y-81257600D01*
X86687600Y-81257600D02*
X86687600Y-78657600D01*
X86687600Y-78657600D02*
X89287600Y-78657600D01*
X84087600Y-79987600D02*
X84087600Y-78657600D01*
X84087600Y-78657600D02*
X85417600Y-78657600D01*
X62917600Y-78637600D02*
X61917600Y-78637600D01*
X61917600Y-80337600D02*
X62917600Y-80337600D01*
X81917600Y-103225600D02*
X81917600Y-98875600D01*
X81917600Y-98875600D02*
X82917600Y-98875600D01*
X82917600Y-98875600D02*
X82917600Y-103225600D01*
X80617600Y-97025600D02*
X80267600Y-97025600D01*
X80267600Y-97025600D02*
X80267600Y-95425600D01*
X80267600Y-95425600D02*
X79367600Y-95425600D01*
X79367600Y-95425600D02*
X79367600Y-103225600D01*
X79367600Y-103225600D02*
X85467600Y-103225600D01*
X85467600Y-103225600D02*
X85467600Y-95425600D01*
X85467600Y-95425600D02*
X84567600Y-95425600D01*
X84567600Y-95425600D02*
X84567600Y-97025600D01*
X84567600Y-97025600D02*
X84217600Y-97025600D01*
X79367600Y-97025600D02*
X80267600Y-97025600D01*
X85467600Y-97025600D02*
X84567600Y-97025600D01*
X80117600Y-99375600D02*
X80117600Y-100975600D01*
X80117600Y-100975600D02*
X81117600Y-100975600D01*
X81117600Y-100975600D02*
X81117600Y-99375600D01*
X81117600Y-99375600D02*
X80117600Y-99375600D01*
X84717600Y-99375600D02*
X84717600Y-100975600D01*
X84717600Y-100975600D02*
X83717600Y-100975600D01*
X83717600Y-100975600D02*
X83717600Y-99375600D01*
X83717600Y-99375600D02*
X84717600Y-99375600D01*
X81117600Y-100975600D02*
X81117600Y-103225600D01*
X80617600Y-100975600D02*
X80617600Y-103225600D01*
X80617600Y-97025600D02*
X80617600Y-95825600D01*
X80146000Y-86213600D02*
X81346000Y-86213600D01*
X81346000Y-87973600D02*
X80146000Y-87973600D01*
D13*
X64842600Y-81037600D02*
X64842600Y-81062600D01*
X68992600Y-81037600D02*
X68992600Y-81152600D01*
X68992600Y-89937600D02*
X68992600Y-89822600D01*
X64842600Y-89937600D02*
X64842600Y-89822600D01*
X64842600Y-81037600D02*
X68992600Y-81037600D01*
X64842600Y-89937600D02*
X68992600Y-89937600D01*
X64842600Y-81062600D02*
X63467600Y-81062600D01*
D12*
X81246000Y-83243600D02*
X80246000Y-83243600D01*
X80246000Y-84943600D02*
X81246000Y-84943600D01*
X60037600Y-103733600D02*
X60037600Y-99383600D01*
X60037600Y-99383600D02*
X61037600Y-99383600D01*
X61037600Y-99383600D02*
X61037600Y-103733600D01*
X58737600Y-97533600D02*
X58387600Y-97533600D01*
X58387600Y-97533600D02*
X58387600Y-95933600D01*
X58387600Y-95933600D02*
X57487600Y-95933600D01*
X57487600Y-95933600D02*
X57487600Y-103733600D01*
X57487600Y-103733600D02*
X63587600Y-103733600D01*
X63587600Y-103733600D02*
X63587600Y-95933600D01*
X63587600Y-95933600D02*
X62687600Y-95933600D01*
X62687600Y-95933600D02*
X62687600Y-97533600D01*
X62687600Y-97533600D02*
X62337600Y-97533600D01*
X57487600Y-97533600D02*
X58387600Y-97533600D01*
X63587600Y-97533600D02*
X62687600Y-97533600D01*
X58237600Y-99883600D02*
X58237600Y-101483600D01*
X58237600Y-101483600D02*
X59237600Y-101483600D01*
X59237600Y-101483600D02*
X59237600Y-99883600D01*
X59237600Y-99883600D02*
X58237600Y-99883600D01*
X62837600Y-99883600D02*
X62837600Y-101483600D01*
X62837600Y-101483600D02*
X61837600Y-101483600D01*
X61837600Y-101483600D02*
X61837600Y-99883600D01*
X61837600Y-99883600D02*
X62837600Y-99883600D01*
X59237600Y-101483600D02*
X59237600Y-103733600D01*
X58737600Y-101483600D02*
X58737600Y-103733600D01*
X58737600Y-97533600D02*
X58737600Y-96333600D01*
X74867600Y-76367600D02*
X73667600Y-76367600D01*
X73667600Y-74607600D02*
X74867600Y-74607600D01*
X67667600Y-74607600D02*
X68867600Y-74607600D01*
X68867600Y-76367600D02*
X67667600Y-76367600D01*
X67667600Y-71607600D02*
X68867600Y-71607600D01*
X68867600Y-73367600D02*
X67667600Y-73367600D01*
X76517600Y-97367600D02*
X75317600Y-97367600D01*
X75317600Y-95607600D02*
X76517600Y-95607600D01*
X56017600Y-76367600D02*
X54817600Y-76367600D01*
X54817600Y-74607600D02*
X56017600Y-74607600D01*
X62367600Y-73367600D02*
X61167600Y-73367600D01*
X61167600Y-71607600D02*
X62367600Y-71607600D01*
X67150933Y-56107600D02*
X68350933Y-56107600D01*
X68350933Y-57867600D02*
X67150933Y-57867600D01*
X67017600Y-91397600D02*
X67017600Y-91797600D01*
X67017600Y-91797600D02*
X65617600Y-91797600D01*
X67017600Y-91397600D02*
X71817600Y-91397600D01*
X67017600Y-94597600D02*
X71817600Y-94597600D01*
X82326000Y-80227600D02*
X81396000Y-80227600D01*
X79166000Y-80227600D02*
X80096000Y-80227600D01*
X79166000Y-80227600D02*
X79166000Y-82387600D01*
X82326000Y-80227600D02*
X82326000Y-81687600D01*
X84417600Y-57737600D02*
X81217600Y-57737600D01*
X81217600Y-56237600D02*
X84417600Y-56237600D01*
X81217600Y-56237600D02*
X81217600Y-57737600D01*
X60917600Y-57737600D02*
X57717600Y-57737600D01*
X57717600Y-56237600D02*
X60917600Y-56237600D01*
X57717600Y-56237600D02*
X57717600Y-57737600D01*
X81997600Y-72227600D02*
X81067600Y-72227600D01*
X78837600Y-72227600D02*
X79767600Y-72227600D01*
X78837600Y-72227600D02*
X78837600Y-74387600D01*
X81997600Y-72227600D02*
X81997600Y-73687600D01*
X70537600Y-66087600D02*
X70537600Y-64887600D01*
X72297600Y-64887600D02*
X72297600Y-66087600D01*
X75017600Y-73367600D02*
X73817600Y-73367600D01*
X73817600Y-71607600D02*
X75017600Y-71607600D01*
X61167600Y-74607600D02*
X62367600Y-74607600D01*
X62367600Y-76367600D02*
X61167600Y-76367600D01*
X58717600Y-87187600D02*
X58717600Y-84787600D01*
X61117600Y-87187600D02*
X58717600Y-87187600D01*
X61117600Y-84787600D02*
X61117600Y-87187600D01*
X58717600Y-84787600D02*
X61117600Y-84787600D01*
X54006000Y-66167600D02*
X59206000Y-66167600D01*
X59206000Y-69807600D02*
X54006000Y-69807600D01*
X89329200Y-69928000D02*
X84129200Y-69928000D01*
X84129200Y-66288000D02*
X89329200Y-66288000D01*
X59206000Y-63807600D02*
X54006000Y-63807600D01*
X54006000Y-60167600D02*
X59206000Y-60167600D01*
X84129200Y-60167600D02*
X89329200Y-60167600D01*
X89329200Y-63807600D02*
X84129200Y-63807600D01*
X68329200Y-63807600D02*
X63129200Y-63807600D01*
X63129200Y-60167600D02*
X68329200Y-60167600D01*
X74506000Y-60167600D02*
X79706000Y-60167600D01*
X79706000Y-63807600D02*
X74506000Y-63807600D01*
X63129200Y-66167600D02*
X68329200Y-66167600D01*
X68329200Y-69807600D02*
X63129200Y-69807600D01*
X79706000Y-69807600D02*
X74506000Y-69807600D01*
X74506000Y-66167600D02*
X79706000Y-66167600D01*
D13*
X73707580Y-103725695D02*
X73707580Y-103154266D01*
X74707580Y-103439980D02*
X73707580Y-103439980D01*
X73707580Y-102916171D02*
X74707580Y-102249504D01*
X73707580Y-102249504D02*
X74707580Y-102916171D01*
X74707580Y-101344742D02*
X74707580Y-101916171D01*
X74707580Y-101630457D02*
X73707580Y-101630457D01*
X73850438Y-101725695D01*
X73945676Y-101820933D01*
X73993295Y-101916171D01*
X80250933Y-77844742D02*
X80203314Y-77892361D01*
X80060457Y-77939980D01*
X79965219Y-77939980D01*
X79822361Y-77892361D01*
X79727123Y-77797123D01*
X79679504Y-77701885D01*
X79631885Y-77511409D01*
X79631885Y-77368552D01*
X79679504Y-77178076D01*
X79727123Y-77082838D01*
X79822361Y-76987600D01*
X79965219Y-76939980D01*
X80060457Y-76939980D01*
X80203314Y-76987600D01*
X80250933Y-77035219D01*
X80584266Y-76939980D02*
X81203314Y-76939980D01*
X80869980Y-77320933D01*
X81012838Y-77320933D01*
X81108076Y-77368552D01*
X81155695Y-77416171D01*
X81203314Y-77511409D01*
X81203314Y-77749504D01*
X81155695Y-77844742D01*
X81108076Y-77892361D01*
X81012838Y-77939980D01*
X80727123Y-77939980D01*
X80631885Y-77892361D01*
X80584266Y-77844742D01*
X53822361Y-89225695D02*
X53869980Y-89082838D01*
X53869980Y-88844742D01*
X53822361Y-88749504D01*
X53774742Y-88701885D01*
X53679504Y-88654266D01*
X53584266Y-88654266D01*
X53489028Y-88701885D01*
X53441409Y-88749504D01*
X53393790Y-88844742D01*
X53346171Y-89035219D01*
X53298552Y-89130457D01*
X53250933Y-89178076D01*
X53155695Y-89225695D01*
X53060457Y-89225695D01*
X52965219Y-89178076D01*
X52917600Y-89130457D01*
X52869980Y-89035219D01*
X52869980Y-88797123D01*
X52917600Y-88654266D01*
X53346171Y-88225695D02*
X53346171Y-87892361D01*
X53869980Y-87749504D02*
X53869980Y-88225695D01*
X52869980Y-88225695D01*
X52869980Y-87749504D01*
X53869980Y-87320933D02*
X52869980Y-87320933D01*
X53869980Y-86749504D01*
X52869980Y-86749504D01*
X53822361Y-86320933D02*
X53869980Y-86178076D01*
X53869980Y-85939980D01*
X53822361Y-85844742D01*
X53774742Y-85797123D01*
X53679504Y-85749504D01*
X53584266Y-85749504D01*
X53489028Y-85797123D01*
X53441409Y-85844742D01*
X53393790Y-85939980D01*
X53346171Y-86130457D01*
X53298552Y-86225695D01*
X53250933Y-86273314D01*
X53155695Y-86320933D01*
X53060457Y-86320933D01*
X52965219Y-86273314D01*
X52917600Y-86225695D01*
X52869980Y-86130457D01*
X52869980Y-85892361D01*
X52917600Y-85749504D01*
X52869980Y-85130457D02*
X52869980Y-84939980D01*
X52917600Y-84844742D01*
X53012838Y-84749504D01*
X53203314Y-84701885D01*
X53536647Y-84701885D01*
X53727123Y-84749504D01*
X53822361Y-84844742D01*
X53869980Y-84939980D01*
X53869980Y-85130457D01*
X53822361Y-85225695D01*
X53727123Y-85320933D01*
X53536647Y-85368552D01*
X53203314Y-85368552D01*
X53012838Y-85320933D01*
X52917600Y-85225695D01*
X52869980Y-85130457D01*
X53869980Y-83701885D02*
X53393790Y-84035219D01*
X53869980Y-84273314D02*
X52869980Y-84273314D01*
X52869980Y-83892361D01*
X52917600Y-83797123D01*
X52965219Y-83749504D01*
X53060457Y-83701885D01*
X53203314Y-83701885D01*
X53298552Y-83749504D01*
X53346171Y-83797123D01*
X53393790Y-83892361D01*
X53393790Y-84273314D01*
X53869980Y-82749504D02*
X53869980Y-83320933D01*
X53869980Y-83035219D02*
X52869980Y-83035219D01*
X53012838Y-83130457D01*
X53108076Y-83225695D01*
X53155695Y-83320933D01*
X54774742Y-71439980D02*
X54441409Y-70963790D01*
X54203314Y-71439980D02*
X54203314Y-70439980D01*
X54584266Y-70439980D01*
X54679504Y-70487600D01*
X54727123Y-70535219D01*
X54774742Y-70630457D01*
X54774742Y-70773314D01*
X54727123Y-70868552D01*
X54679504Y-70916171D01*
X54584266Y-70963790D01*
X54203314Y-70963790D01*
X55727123Y-71439980D02*
X55155695Y-71439980D01*
X55441409Y-71439980D02*
X55441409Y-70439980D01*
X55346171Y-70582838D01*
X55250933Y-70678076D01*
X55155695Y-70725695D01*
X56584266Y-70773314D02*
X56584266Y-71439980D01*
X56346171Y-70392361D02*
X56108076Y-71106647D01*
X56727123Y-71106647D01*
X74941408Y-55939980D02*
X74608075Y-55463790D01*
X74369980Y-55939980D02*
X74369980Y-54939980D01*
X74750932Y-54939980D01*
X74846170Y-54987600D01*
X74893789Y-55035219D01*
X74941408Y-55130457D01*
X74941408Y-55273314D01*
X74893789Y-55368552D01*
X74846170Y-55416171D01*
X74750932Y-55463790D01*
X74369980Y-55463790D01*
X75893789Y-55939980D02*
X75322361Y-55939980D01*
X75608075Y-55939980D02*
X75608075Y-54939980D01*
X75512837Y-55082838D01*
X75417599Y-55178076D01*
X75322361Y-55225695D01*
X76227123Y-54939980D02*
X76893789Y-54939980D01*
X76465218Y-55939980D01*
X88584266Y-76939980D02*
X88584266Y-77654266D01*
X88536647Y-77797123D01*
X88441409Y-77892361D01*
X88298552Y-77939980D01*
X88203314Y-77939980D01*
X89012838Y-77035219D02*
X89060457Y-76987600D01*
X89155695Y-76939980D01*
X89393790Y-76939980D01*
X89489028Y-76987600D01*
X89536647Y-77035219D01*
X89584266Y-77130457D01*
X89584266Y-77225695D01*
X89536647Y-77368552D01*
X88965219Y-77939980D01*
X89584266Y-77939980D01*
X60750933Y-81344742D02*
X60703314Y-81392361D01*
X60560457Y-81439980D01*
X60465219Y-81439980D01*
X60322361Y-81392361D01*
X60227123Y-81297123D01*
X60179504Y-81201885D01*
X60131885Y-81011409D01*
X60131885Y-80868552D01*
X60179504Y-80678076D01*
X60227123Y-80582838D01*
X60322361Y-80487600D01*
X60465219Y-80439980D01*
X60560457Y-80439980D01*
X60703314Y-80487600D01*
X60750933Y-80535219D01*
X61703314Y-81439980D02*
X61131885Y-81439980D01*
X61417600Y-81439980D02*
X61417600Y-80439980D01*
X61322361Y-80582838D01*
X61227123Y-80678076D01*
X61131885Y-80725695D01*
X87102380Y-99610514D02*
X86102380Y-99610514D01*
X86102380Y-99229561D01*
X86150000Y-99134323D01*
X86197619Y-99086704D01*
X86292857Y-99039085D01*
X86435714Y-99039085D01*
X86530952Y-99086704D01*
X86578571Y-99134323D01*
X86626190Y-99229561D01*
X86626190Y-99610514D01*
X86102380Y-98420038D02*
X86102380Y-98229561D01*
X86150000Y-98134323D01*
X86245238Y-98039085D01*
X86435714Y-97991466D01*
X86769047Y-97991466D01*
X86959523Y-98039085D01*
X87054761Y-98134323D01*
X87102380Y-98229561D01*
X87102380Y-98420038D01*
X87054761Y-98515276D01*
X86959523Y-98610514D01*
X86769047Y-98658133D01*
X86435714Y-98658133D01*
X86245238Y-98610514D01*
X86150000Y-98515276D01*
X86102380Y-98420038D01*
X86102380Y-97658133D02*
X87102380Y-97420038D01*
X86388095Y-97229561D01*
X87102380Y-97039085D01*
X86102380Y-96800990D01*
X86578571Y-96420038D02*
X86578571Y-96086704D01*
X87102380Y-95943847D02*
X87102380Y-96420038D01*
X86102380Y-96420038D01*
X86102380Y-95943847D01*
X87102380Y-94943847D02*
X86626190Y-95277180D01*
X87102380Y-95515276D02*
X86102380Y-95515276D01*
X86102380Y-95134323D01*
X86150000Y-95039085D01*
X86197619Y-94991466D01*
X86292857Y-94943847D01*
X86435714Y-94943847D01*
X86530952Y-94991466D01*
X86578571Y-95039085D01*
X86626190Y-95134323D01*
X86626190Y-95515276D01*
X87102380Y-93991466D02*
X87102380Y-94562895D01*
X87102380Y-94277180D02*
X86102380Y-94277180D01*
X86245238Y-94372419D01*
X86340476Y-94467657D01*
X86388095Y-94562895D01*
X77250933Y-87749180D02*
X76917600Y-87272990D01*
X76679504Y-87749180D02*
X76679504Y-86749180D01*
X77060457Y-86749180D01*
X77155695Y-86796800D01*
X77203314Y-86844419D01*
X77250933Y-86939657D01*
X77250933Y-87082514D01*
X77203314Y-87177752D01*
X77155695Y-87225371D01*
X77060457Y-87272990D01*
X76679504Y-87272990D01*
X78203314Y-87749180D02*
X77631885Y-87749180D01*
X77917600Y-87749180D02*
X77917600Y-86749180D01*
X77822361Y-86892038D01*
X77727123Y-86987276D01*
X77631885Y-87034895D01*
X69155695Y-79439980D02*
X69155695Y-80249504D01*
X69203314Y-80344742D01*
X69250933Y-80392361D01*
X69346171Y-80439980D01*
X69536647Y-80439980D01*
X69631885Y-80392361D01*
X69679504Y-80344742D01*
X69727123Y-80249504D01*
X69727123Y-79439980D01*
X70631885Y-79773314D02*
X70631885Y-80439980D01*
X70393790Y-79392361D02*
X70155695Y-80106647D01*
X70774742Y-80106647D01*
X77250933Y-84450742D02*
X77203314Y-84498361D01*
X77060457Y-84545980D01*
X76965219Y-84545980D01*
X76822361Y-84498361D01*
X76727123Y-84403123D01*
X76679504Y-84307885D01*
X76631885Y-84117409D01*
X76631885Y-83974552D01*
X76679504Y-83784076D01*
X76727123Y-83688838D01*
X76822361Y-83593600D01*
X76965219Y-83545980D01*
X77060457Y-83545980D01*
X77203314Y-83593600D01*
X77250933Y-83641219D01*
X77631885Y-83641219D02*
X77679504Y-83593600D01*
X77774742Y-83545980D01*
X78012838Y-83545980D01*
X78108076Y-83593600D01*
X78155695Y-83641219D01*
X78203314Y-83736457D01*
X78203314Y-83831695D01*
X78155695Y-83974552D01*
X77584266Y-84545980D01*
X78203314Y-84545980D01*
X65369980Y-103130457D02*
X64893790Y-103463790D01*
X65369980Y-103701885D02*
X64369980Y-103701885D01*
X64369980Y-103320933D01*
X64417600Y-103225695D01*
X64465219Y-103178076D01*
X64560457Y-103130457D01*
X64703314Y-103130457D01*
X64798552Y-103178076D01*
X64846171Y-103225695D01*
X64893790Y-103320933D01*
X64893790Y-103701885D01*
X64369980Y-102797123D02*
X65369980Y-102130457D01*
X64369980Y-102130457D02*
X65369980Y-102797123D01*
X65369980Y-101225695D02*
X65369980Y-101797123D01*
X65369980Y-101511409D02*
X64369980Y-101511409D01*
X64512838Y-101606647D01*
X64608076Y-101701885D01*
X64655695Y-101797123D01*
X74151733Y-77463980D02*
X73818400Y-76987790D01*
X73580304Y-77463980D02*
X73580304Y-76463980D01*
X73961257Y-76463980D01*
X74056495Y-76511600D01*
X74104114Y-76559219D01*
X74151733Y-76654457D01*
X74151733Y-76797314D01*
X74104114Y-76892552D01*
X74056495Y-76940171D01*
X73961257Y-76987790D01*
X73580304Y-76987790D01*
X74532685Y-76559219D02*
X74580304Y-76511600D01*
X74675542Y-76463980D01*
X74913638Y-76463980D01*
X75008876Y-76511600D01*
X75056495Y-76559219D01*
X75104114Y-76654457D01*
X75104114Y-76749695D01*
X75056495Y-76892552D01*
X74485066Y-77463980D01*
X75104114Y-77463980D01*
X68250933Y-77439980D02*
X67917600Y-76963790D01*
X67679504Y-77439980D02*
X67679504Y-76439980D01*
X68060457Y-76439980D01*
X68155695Y-76487600D01*
X68203314Y-76535219D01*
X68250933Y-76630457D01*
X68250933Y-76773314D01*
X68203314Y-76868552D01*
X68155695Y-76916171D01*
X68060457Y-76963790D01*
X67679504Y-76963790D01*
X68584266Y-76439980D02*
X69203314Y-76439980D01*
X68869980Y-76820933D01*
X69012838Y-76820933D01*
X69108076Y-76868552D01*
X69155695Y-76916171D01*
X69203314Y-77011409D01*
X69203314Y-77249504D01*
X69155695Y-77344742D01*
X69108076Y-77392361D01*
X69012838Y-77439980D01*
X68727123Y-77439980D01*
X68631885Y-77392361D01*
X68584266Y-77344742D01*
X68250933Y-71415980D02*
X67917600Y-70939790D01*
X67679504Y-71415980D02*
X67679504Y-70415980D01*
X68060457Y-70415980D01*
X68155695Y-70463600D01*
X68203314Y-70511219D01*
X68250933Y-70606457D01*
X68250933Y-70749314D01*
X68203314Y-70844552D01*
X68155695Y-70892171D01*
X68060457Y-70939790D01*
X67679504Y-70939790D01*
X69108076Y-70749314D02*
X69108076Y-71415980D01*
X68869980Y-70368361D02*
X68631885Y-71082647D01*
X69250933Y-71082647D01*
X75750933Y-98939980D02*
X75417600Y-98463790D01*
X75179504Y-98939980D02*
X75179504Y-97939980D01*
X75560457Y-97939980D01*
X75655695Y-97987600D01*
X75703314Y-98035219D01*
X75750933Y-98130457D01*
X75750933Y-98273314D01*
X75703314Y-98368552D01*
X75655695Y-98416171D01*
X75560457Y-98463790D01*
X75179504Y-98463790D01*
X76655695Y-97939980D02*
X76179504Y-97939980D01*
X76131885Y-98416171D01*
X76179504Y-98368552D01*
X76274742Y-98320933D01*
X76512838Y-98320933D01*
X76608076Y-98368552D01*
X76655695Y-98416171D01*
X76703314Y-98511409D01*
X76703314Y-98749504D01*
X76655695Y-98844742D01*
X76608076Y-98892361D01*
X76512838Y-98939980D01*
X76274742Y-98939980D01*
X76179504Y-98892361D01*
X76131885Y-98844742D01*
X54774742Y-77439980D02*
X54441409Y-76963790D01*
X54203314Y-77439980D02*
X54203314Y-76439980D01*
X54584266Y-76439980D01*
X54679504Y-76487600D01*
X54727123Y-76535219D01*
X54774742Y-76630457D01*
X54774742Y-76773314D01*
X54727123Y-76868552D01*
X54679504Y-76916171D01*
X54584266Y-76963790D01*
X54203314Y-76963790D01*
X55727123Y-77439980D02*
X55155695Y-77439980D01*
X55441409Y-77439980D02*
X55441409Y-76439980D01*
X55346171Y-76582838D01*
X55250933Y-76678076D01*
X55155695Y-76725695D01*
X56631885Y-76439980D02*
X56155695Y-76439980D01*
X56108076Y-76916171D01*
X56155695Y-76868552D01*
X56250933Y-76820933D01*
X56489028Y-76820933D01*
X56584266Y-76868552D01*
X56631885Y-76916171D01*
X56679504Y-77011409D01*
X56679504Y-77249504D01*
X56631885Y-77344742D01*
X56584266Y-77392361D01*
X56489028Y-77439980D01*
X56250933Y-77439980D01*
X56155695Y-77392361D01*
X56108076Y-77344742D01*
X61274742Y-71439980D02*
X60941409Y-70963790D01*
X60703314Y-71439980D02*
X60703314Y-70439980D01*
X61084266Y-70439980D01*
X61179504Y-70487600D01*
X61227123Y-70535219D01*
X61274742Y-70630457D01*
X61274742Y-70773314D01*
X61227123Y-70868552D01*
X61179504Y-70916171D01*
X61084266Y-70963790D01*
X60703314Y-70963790D01*
X62227123Y-71439980D02*
X61655695Y-71439980D01*
X61941409Y-71439980D02*
X61941409Y-70439980D01*
X61846171Y-70582838D01*
X61750933Y-70678076D01*
X61655695Y-70725695D01*
X63084266Y-70439980D02*
X62893790Y-70439980D01*
X62798552Y-70487600D01*
X62750933Y-70535219D01*
X62655695Y-70678076D01*
X62608076Y-70868552D01*
X62608076Y-71249504D01*
X62655695Y-71344742D01*
X62703314Y-71392361D01*
X62798552Y-71439980D01*
X62989028Y-71439980D01*
X63084266Y-71392361D01*
X63131885Y-71344742D01*
X63179504Y-71249504D01*
X63179504Y-71011409D01*
X63131885Y-70916171D01*
X63084266Y-70868552D01*
X62989028Y-70820933D01*
X62798552Y-70820933D01*
X62703314Y-70868552D01*
X62655695Y-70916171D01*
X62608076Y-71011409D01*
X67108075Y-55939980D02*
X66774742Y-55463790D01*
X66536647Y-55939980D02*
X66536647Y-54939980D01*
X66917599Y-54939980D01*
X67012837Y-54987600D01*
X67060456Y-55035219D01*
X67108075Y-55130457D01*
X67108075Y-55273314D01*
X67060456Y-55368552D01*
X67012837Y-55416171D01*
X66917599Y-55463790D01*
X66536647Y-55463790D01*
X68060456Y-55939980D02*
X67489028Y-55939980D01*
X67774742Y-55939980D02*
X67774742Y-54939980D01*
X67679504Y-55082838D01*
X67584266Y-55178076D01*
X67489028Y-55225695D01*
X68631885Y-55368552D02*
X68536647Y-55320933D01*
X68489028Y-55273314D01*
X68441409Y-55178076D01*
X68441409Y-55130457D01*
X68489028Y-55035219D01*
X68536647Y-54987600D01*
X68631885Y-54939980D01*
X68822361Y-54939980D01*
X68917599Y-54987600D01*
X68965218Y-55035219D01*
X69012837Y-55130457D01*
X69012837Y-55178076D01*
X68965218Y-55273314D01*
X68917599Y-55320933D01*
X68822361Y-55368552D01*
X68631885Y-55368552D01*
X68536647Y-55416171D01*
X68489028Y-55463790D01*
X68441409Y-55559028D01*
X68441409Y-55749504D01*
X68489028Y-55844742D01*
X68536647Y-55892361D01*
X68631885Y-55939980D01*
X68822361Y-55939980D01*
X68917599Y-55892361D01*
X68965218Y-55844742D01*
X69012837Y-55749504D01*
X69012837Y-55559028D01*
X68965218Y-55463790D01*
X68917599Y-55416171D01*
X68822361Y-55368552D01*
X65446495Y-94771980D02*
X65446495Y-95581504D01*
X65494114Y-95676742D01*
X65541733Y-95724361D01*
X65636971Y-95771980D01*
X65827447Y-95771980D01*
X65922685Y-95724361D01*
X65970304Y-95676742D01*
X66017923Y-95581504D01*
X66017923Y-94771980D01*
X67017923Y-95771980D02*
X66446495Y-95771980D01*
X66732209Y-95771980D02*
X66732209Y-94771980D01*
X66636971Y-94914838D01*
X66541733Y-95010076D01*
X66446495Y-95057695D01*
X77179504Y-81439980D02*
X77179504Y-80439980D01*
X77417600Y-80439980D01*
X77560457Y-80487600D01*
X77655695Y-80582838D01*
X77703314Y-80678076D01*
X77750933Y-80868552D01*
X77750933Y-81011409D01*
X77703314Y-81201885D01*
X77655695Y-81297123D01*
X77560457Y-81392361D01*
X77417600Y-81439980D01*
X77179504Y-81439980D01*
X78703314Y-81439980D02*
X78131885Y-81439980D01*
X78417600Y-81439980D02*
X78417600Y-80439980D01*
X78322361Y-80582838D01*
X78227123Y-80678076D01*
X78131885Y-80725695D01*
X85179504Y-58939980D02*
X85179504Y-57939980D01*
X85417600Y-57939980D01*
X85560457Y-57987600D01*
X85655695Y-58082838D01*
X85703314Y-58178076D01*
X85750933Y-58368552D01*
X85750933Y-58511409D01*
X85703314Y-58701885D01*
X85655695Y-58797123D01*
X85560457Y-58892361D01*
X85417600Y-58939980D01*
X85179504Y-58939980D01*
X86084266Y-57939980D02*
X86703314Y-57939980D01*
X86369980Y-58320933D01*
X86512838Y-58320933D01*
X86608076Y-58368552D01*
X86655695Y-58416171D01*
X86703314Y-58511409D01*
X86703314Y-58749504D01*
X86655695Y-58844742D01*
X86608076Y-58892361D01*
X86512838Y-58939980D01*
X86227123Y-58939980D01*
X86131885Y-58892361D01*
X86084266Y-58844742D01*
X82036647Y-55939980D02*
X81703314Y-55463790D01*
X81465219Y-55939980D02*
X81465219Y-54939980D01*
X81846171Y-54939980D01*
X81941409Y-54987600D01*
X81989028Y-55035219D01*
X82036647Y-55130457D01*
X82036647Y-55273314D01*
X81989028Y-55368552D01*
X81941409Y-55416171D01*
X81846171Y-55463790D01*
X81465219Y-55463790D01*
X82465219Y-55416171D02*
X82798552Y-55416171D01*
X82941409Y-55939980D02*
X82465219Y-55939980D01*
X82465219Y-54939980D01*
X82941409Y-54939980D01*
X83369980Y-55939980D02*
X83369980Y-54939980D01*
X83608076Y-54939980D01*
X83750933Y-54987600D01*
X83846171Y-55082838D01*
X83893790Y-55178076D01*
X83941409Y-55368552D01*
X83941409Y-55511409D01*
X83893790Y-55701885D01*
X83846171Y-55797123D01*
X83750933Y-55892361D01*
X83608076Y-55939980D01*
X83369980Y-55939980D01*
X85608076Y-55939980D02*
X85131885Y-55939980D01*
X85131885Y-54939980D01*
X85941409Y-55416171D02*
X86274742Y-55416171D01*
X86417600Y-55939980D02*
X85941409Y-55939980D01*
X85941409Y-54939980D01*
X86417600Y-54939980D01*
X86846171Y-55939980D02*
X86846171Y-54939980D01*
X87084266Y-54939980D01*
X87227123Y-54987600D01*
X87322361Y-55082838D01*
X87369980Y-55178076D01*
X87417600Y-55368552D01*
X87417600Y-55511409D01*
X87369980Y-55701885D01*
X87322361Y-55797123D01*
X87227123Y-55892361D01*
X87084266Y-55939980D01*
X86846171Y-55939980D01*
X57679504Y-58939980D02*
X57679504Y-57939980D01*
X57917600Y-57939980D01*
X58060457Y-57987600D01*
X58155695Y-58082838D01*
X58203314Y-58178076D01*
X58250933Y-58368552D01*
X58250933Y-58511409D01*
X58203314Y-58701885D01*
X58155695Y-58797123D01*
X58060457Y-58892361D01*
X57917600Y-58939980D01*
X57679504Y-58939980D01*
X59108076Y-58273314D02*
X59108076Y-58939980D01*
X58869980Y-57892361D02*
X58631885Y-58606647D01*
X59250933Y-58606647D01*
X58322361Y-54987600D02*
X58227123Y-54939980D01*
X58084266Y-54939980D01*
X57941409Y-54987600D01*
X57846171Y-55082838D01*
X57798552Y-55178076D01*
X57750933Y-55368552D01*
X57750933Y-55511409D01*
X57798552Y-55701885D01*
X57846171Y-55797123D01*
X57941409Y-55892361D01*
X58084266Y-55939980D01*
X58179504Y-55939980D01*
X58322361Y-55892361D01*
X58369980Y-55844742D01*
X58369980Y-55511409D01*
X58179504Y-55511409D01*
X58798552Y-55939980D02*
X58798552Y-55273314D01*
X58798552Y-55463790D02*
X58846171Y-55368552D01*
X58893790Y-55320933D01*
X58989028Y-55273314D01*
X59084266Y-55273314D01*
X59798552Y-55892361D02*
X59703314Y-55939980D01*
X59512838Y-55939980D01*
X59417600Y-55892361D01*
X59369980Y-55797123D01*
X59369980Y-55416171D01*
X59417600Y-55320933D01*
X59512838Y-55273314D01*
X59703314Y-55273314D01*
X59798552Y-55320933D01*
X59846171Y-55416171D01*
X59846171Y-55511409D01*
X59369980Y-55606647D01*
X60655695Y-55892361D02*
X60560457Y-55939980D01*
X60369980Y-55939980D01*
X60274742Y-55892361D01*
X60227123Y-55797123D01*
X60227123Y-55416171D01*
X60274742Y-55320933D01*
X60369980Y-55273314D01*
X60560457Y-55273314D01*
X60655695Y-55320933D01*
X60703314Y-55416171D01*
X60703314Y-55511409D01*
X60227123Y-55606647D01*
X61131885Y-55273314D02*
X61131885Y-55939980D01*
X61131885Y-55368552D02*
X61179504Y-55320933D01*
X61274742Y-55273314D01*
X61417600Y-55273314D01*
X61512838Y-55320933D01*
X61560457Y-55416171D01*
X61560457Y-55939980D01*
X63274742Y-55939980D02*
X62798552Y-55939980D01*
X62798552Y-54939980D01*
X63608076Y-55416171D02*
X63941409Y-55416171D01*
X64084266Y-55939980D02*
X63608076Y-55939980D01*
X63608076Y-54939980D01*
X64084266Y-54939980D01*
X64512838Y-55939980D02*
X64512838Y-54939980D01*
X64750933Y-54939980D01*
X64893790Y-54987600D01*
X64989028Y-55082838D01*
X65036647Y-55178076D01*
X65084266Y-55368552D01*
X65084266Y-55511409D01*
X65036647Y-55701885D01*
X64989028Y-55797123D01*
X64893790Y-55892361D01*
X64750933Y-55939980D01*
X64512838Y-55939980D01*
X83322361Y-72035219D02*
X83227123Y-71987600D01*
X83131885Y-71892361D01*
X82989028Y-71749504D01*
X82893790Y-71701885D01*
X82798552Y-71701885D01*
X82846171Y-71939980D02*
X82750933Y-71892361D01*
X82655695Y-71797123D01*
X82608076Y-71606647D01*
X82608076Y-71273314D01*
X82655695Y-71082838D01*
X82750933Y-70987600D01*
X82846171Y-70939980D01*
X83036647Y-70939980D01*
X83131885Y-70987600D01*
X83227123Y-71082838D01*
X83274742Y-71273314D01*
X83274742Y-71606647D01*
X83227123Y-71797123D01*
X83131885Y-71892361D01*
X83036647Y-71939980D01*
X82846171Y-71939980D01*
X84227123Y-71939980D02*
X83655695Y-71939980D01*
X83941409Y-71939980D02*
X83941409Y-70939980D01*
X83846171Y-71082838D01*
X83750933Y-71178076D01*
X83655695Y-71225695D01*
X71920780Y-62117257D02*
X71444590Y-62450590D01*
X71920780Y-62688685D02*
X70920780Y-62688685D01*
X70920780Y-62307733D01*
X70968400Y-62212495D01*
X71016019Y-62164876D01*
X71111257Y-62117257D01*
X71254114Y-62117257D01*
X71349352Y-62164876D01*
X71396971Y-62212495D01*
X71444590Y-62307733D01*
X71444590Y-62688685D01*
X71920780Y-61164876D02*
X71920780Y-61736304D01*
X71920780Y-61450590D02*
X70920780Y-61450590D01*
X71063638Y-61545828D01*
X71158876Y-61641066D01*
X71206495Y-61736304D01*
X71920780Y-60688685D02*
X71920780Y-60498209D01*
X71873161Y-60402971D01*
X71825542Y-60355352D01*
X71682685Y-60260114D01*
X71492209Y-60212495D01*
X71111257Y-60212495D01*
X71016019Y-60260114D01*
X70968400Y-60307733D01*
X70920780Y-60402971D01*
X70920780Y-60593447D01*
X70968400Y-60688685D01*
X71016019Y-60736304D01*
X71111257Y-60783923D01*
X71349352Y-60783923D01*
X71444590Y-60736304D01*
X71492209Y-60688685D01*
X71539828Y-60593447D01*
X71539828Y-60402971D01*
X71492209Y-60307733D01*
X71444590Y-60260114D01*
X71349352Y-60212495D01*
X73774742Y-71439980D02*
X73441409Y-70963790D01*
X73203314Y-71439980D02*
X73203314Y-70439980D01*
X73584266Y-70439980D01*
X73679504Y-70487600D01*
X73727123Y-70535219D01*
X73774742Y-70630457D01*
X73774742Y-70773314D01*
X73727123Y-70868552D01*
X73679504Y-70916171D01*
X73584266Y-70963790D01*
X73203314Y-70963790D01*
X74155695Y-70535219D02*
X74203314Y-70487600D01*
X74298552Y-70439980D01*
X74536647Y-70439980D01*
X74631885Y-70487600D01*
X74679504Y-70535219D01*
X74727123Y-70630457D01*
X74727123Y-70725695D01*
X74679504Y-70868552D01*
X74108076Y-71439980D01*
X74727123Y-71439980D01*
X75346171Y-70439980D02*
X75441409Y-70439980D01*
X75536647Y-70487600D01*
X75584266Y-70535219D01*
X75631885Y-70630457D01*
X75679504Y-70820933D01*
X75679504Y-71059028D01*
X75631885Y-71249504D01*
X75584266Y-71344742D01*
X75536647Y-71392361D01*
X75441409Y-71439980D01*
X75346171Y-71439980D01*
X75250933Y-71392361D01*
X75203314Y-71344742D01*
X75155695Y-71249504D01*
X75108076Y-71059028D01*
X75108076Y-70820933D01*
X75155695Y-70630457D01*
X75203314Y-70535219D01*
X75250933Y-70487600D01*
X75346171Y-70439980D01*
X61274742Y-77439980D02*
X60941409Y-76963790D01*
X60703314Y-77439980D02*
X60703314Y-76439980D01*
X61084266Y-76439980D01*
X61179504Y-76487600D01*
X61227123Y-76535219D01*
X61274742Y-76630457D01*
X61274742Y-76773314D01*
X61227123Y-76868552D01*
X61179504Y-76916171D01*
X61084266Y-76963790D01*
X60703314Y-76963790D01*
X61655695Y-76535219D02*
X61703314Y-76487600D01*
X61798552Y-76439980D01*
X62036647Y-76439980D01*
X62131885Y-76487600D01*
X62179504Y-76535219D01*
X62227123Y-76630457D01*
X62227123Y-76725695D01*
X62179504Y-76868552D01*
X61608076Y-77439980D01*
X62227123Y-77439980D01*
X63179504Y-77439980D02*
X62608076Y-77439980D01*
X62893790Y-77439980D02*
X62893790Y-76439980D01*
X62798552Y-76582838D01*
X62703314Y-76678076D01*
X62608076Y-76725695D01*
X58655695Y-87939980D02*
X59227123Y-87939980D01*
X58941409Y-88939980D02*
X58941409Y-87939980D01*
X59560457Y-88939980D02*
X59560457Y-87939980D01*
X59941409Y-87939980D01*
X60036647Y-87987600D01*
X60084266Y-88035219D01*
X60131885Y-88130457D01*
X60131885Y-88273314D01*
X60084266Y-88368552D01*
X60036647Y-88416171D01*
X59941409Y-88463790D01*
X59560457Y-88463790D01*
X60512838Y-88035219D02*
X60560457Y-87987600D01*
X60655695Y-87939980D01*
X60893790Y-87939980D01*
X60989028Y-87987600D01*
X61036647Y-88035219D01*
X61084266Y-88130457D01*
X61084266Y-88225695D01*
X61036647Y-88368552D01*
X60465219Y-88939980D01*
X61084266Y-88939980D01*
X57250933Y-68439980D02*
X56917600Y-67963790D01*
X56679504Y-68439980D02*
X56679504Y-67439980D01*
X57060457Y-67439980D01*
X57155695Y-67487600D01*
X57203314Y-67535219D01*
X57250933Y-67630457D01*
X57250933Y-67773314D01*
X57203314Y-67868552D01*
X57155695Y-67916171D01*
X57060457Y-67963790D01*
X56679504Y-67963790D01*
X58108076Y-67439980D02*
X57917600Y-67439980D01*
X57822361Y-67487600D01*
X57774742Y-67535219D01*
X57679504Y-67678076D01*
X57631885Y-67868552D01*
X57631885Y-68249504D01*
X57679504Y-68344742D01*
X57727123Y-68392361D01*
X57822361Y-68439980D01*
X58012838Y-68439980D01*
X58108076Y-68392361D01*
X58155695Y-68344742D01*
X58203314Y-68249504D01*
X58203314Y-68011409D01*
X58155695Y-67916171D01*
X58108076Y-67868552D01*
X58012838Y-67820933D01*
X57822361Y-67820933D01*
X57727123Y-67868552D01*
X57679504Y-67916171D01*
X57631885Y-68011409D01*
X86250933Y-68306380D02*
X85917600Y-67830190D01*
X85679504Y-68306380D02*
X85679504Y-67306380D01*
X86060457Y-67306380D01*
X86155695Y-67354000D01*
X86203314Y-67401619D01*
X86250933Y-67496857D01*
X86250933Y-67639714D01*
X86203314Y-67734952D01*
X86155695Y-67782571D01*
X86060457Y-67830190D01*
X85679504Y-67830190D01*
X86584266Y-67306380D02*
X87250933Y-67306380D01*
X86822361Y-68306380D01*
X56750933Y-62560380D02*
X56417600Y-62084190D01*
X56179504Y-62560380D02*
X56179504Y-61560380D01*
X56560457Y-61560380D01*
X56655695Y-61608000D01*
X56703314Y-61655619D01*
X56750933Y-61750857D01*
X56750933Y-61893714D01*
X56703314Y-61988952D01*
X56655695Y-62036571D01*
X56560457Y-62084190D01*
X56179504Y-62084190D01*
X57322361Y-61988952D02*
X57227123Y-61941333D01*
X57179504Y-61893714D01*
X57131885Y-61798476D01*
X57131885Y-61750857D01*
X57179504Y-61655619D01*
X57227123Y-61608000D01*
X57322361Y-61560380D01*
X57512838Y-61560380D01*
X57608076Y-61608000D01*
X57655695Y-61655619D01*
X57703314Y-61750857D01*
X57703314Y-61798476D01*
X57655695Y-61893714D01*
X57608076Y-61941333D01*
X57512838Y-61988952D01*
X57322361Y-61988952D01*
X57227123Y-62036571D01*
X57179504Y-62084190D01*
X57131885Y-62179428D01*
X57131885Y-62369904D01*
X57179504Y-62465142D01*
X57227123Y-62512761D01*
X57322361Y-62560380D01*
X57512838Y-62560380D01*
X57608076Y-62512761D01*
X57655695Y-62465142D01*
X57703314Y-62369904D01*
X57703314Y-62179428D01*
X57655695Y-62084190D01*
X57608076Y-62036571D01*
X57512838Y-61988952D01*
X86250933Y-62304514D02*
X85917600Y-61828324D01*
X85679504Y-62304514D02*
X85679504Y-61304514D01*
X86060457Y-61304514D01*
X86155695Y-61352134D01*
X86203314Y-61399753D01*
X86250933Y-61494991D01*
X86250933Y-61637848D01*
X86203314Y-61733086D01*
X86155695Y-61780705D01*
X86060457Y-61828324D01*
X85679504Y-61828324D01*
X86727123Y-62304514D02*
X86917600Y-62304514D01*
X87012838Y-62256895D01*
X87060457Y-62209276D01*
X87155695Y-62066419D01*
X87203314Y-61875943D01*
X87203314Y-61494991D01*
X87155695Y-61399753D01*
X87108076Y-61352134D01*
X87012838Y-61304514D01*
X86822361Y-61304514D01*
X86727123Y-61352134D01*
X86679504Y-61399753D01*
X86631885Y-61494991D01*
X86631885Y-61733086D01*
X86679504Y-61828324D01*
X86727123Y-61875943D01*
X86822361Y-61923562D01*
X87012838Y-61923562D01*
X87108076Y-61875943D01*
X87155695Y-61828324D01*
X87203314Y-61733086D01*
X64774742Y-62560380D02*
X64441409Y-62084190D01*
X64203314Y-62560380D02*
X64203314Y-61560380D01*
X64584266Y-61560380D01*
X64679504Y-61608000D01*
X64727123Y-61655619D01*
X64774742Y-61750857D01*
X64774742Y-61893714D01*
X64727123Y-61988952D01*
X64679504Y-62036571D01*
X64584266Y-62084190D01*
X64203314Y-62084190D01*
X65727123Y-62560380D02*
X65155695Y-62560380D01*
X65441409Y-62560380D02*
X65441409Y-61560380D01*
X65346171Y-61703238D01*
X65250933Y-61798476D01*
X65155695Y-61846095D01*
X66346171Y-61560380D02*
X66441409Y-61560380D01*
X66536647Y-61608000D01*
X66584266Y-61655619D01*
X66631885Y-61750857D01*
X66679504Y-61941333D01*
X66679504Y-62179428D01*
X66631885Y-62369904D01*
X66584266Y-62465142D01*
X66536647Y-62512761D01*
X66441409Y-62560380D01*
X66346171Y-62560380D01*
X66250933Y-62512761D01*
X66203314Y-62465142D01*
X66155695Y-62369904D01*
X66108076Y-62179428D01*
X66108076Y-61941333D01*
X66155695Y-61750857D01*
X66203314Y-61655619D01*
X66250933Y-61608000D01*
X66346171Y-61560380D01*
X76774742Y-62439980D02*
X76441409Y-61963790D01*
X76203314Y-62439980D02*
X76203314Y-61439980D01*
X76584266Y-61439980D01*
X76679504Y-61487600D01*
X76727123Y-61535219D01*
X76774742Y-61630457D01*
X76774742Y-61773314D01*
X76727123Y-61868552D01*
X76679504Y-61916171D01*
X76584266Y-61963790D01*
X76203314Y-61963790D01*
X77727123Y-62439980D02*
X77155695Y-62439980D01*
X77441409Y-62439980D02*
X77441409Y-61439980D01*
X77346171Y-61582838D01*
X77250933Y-61678076D01*
X77155695Y-61725695D01*
X78679504Y-62439980D02*
X78108076Y-62439980D01*
X78393790Y-62439980D02*
X78393790Y-61439980D01*
X78298552Y-61582838D01*
X78203314Y-61678076D01*
X78108076Y-61725695D01*
X65274742Y-68439980D02*
X64941409Y-67963790D01*
X64703314Y-68439980D02*
X64703314Y-67439980D01*
X65084266Y-67439980D01*
X65179504Y-67487600D01*
X65227123Y-67535219D01*
X65274742Y-67630457D01*
X65274742Y-67773314D01*
X65227123Y-67868552D01*
X65179504Y-67916171D01*
X65084266Y-67963790D01*
X64703314Y-67963790D01*
X66227123Y-68439980D02*
X65655695Y-68439980D01*
X65941409Y-68439980D02*
X65941409Y-67439980D01*
X65846171Y-67582838D01*
X65750933Y-67678076D01*
X65655695Y-67725695D01*
X66608076Y-67535219D02*
X66655695Y-67487600D01*
X66750933Y-67439980D01*
X66989028Y-67439980D01*
X67084266Y-67487600D01*
X67131885Y-67535219D01*
X67179504Y-67630457D01*
X67179504Y-67725695D01*
X67131885Y-67868552D01*
X66560457Y-68439980D01*
X67179504Y-68439980D01*
X76774742Y-68236780D02*
X76441409Y-67760590D01*
X76203314Y-68236780D02*
X76203314Y-67236780D01*
X76584266Y-67236780D01*
X76679504Y-67284400D01*
X76727123Y-67332019D01*
X76774742Y-67427257D01*
X76774742Y-67570114D01*
X76727123Y-67665352D01*
X76679504Y-67712971D01*
X76584266Y-67760590D01*
X76203314Y-67760590D01*
X77727123Y-68236780D02*
X77155695Y-68236780D01*
X77441409Y-68236780D02*
X77441409Y-67236780D01*
X77346171Y-67379638D01*
X77250933Y-67474876D01*
X77155695Y-67522495D01*
X78060457Y-67236780D02*
X78679504Y-67236780D01*
X78346171Y-67617733D01*
X78489028Y-67617733D01*
X78584266Y-67665352D01*
X78631885Y-67712971D01*
X78679504Y-67808209D01*
X78679504Y-68046304D01*
X78631885Y-68141542D01*
X78584266Y-68189161D01*
X78489028Y-68236780D01*
X78203314Y-68236780D01*
X78108076Y-68189161D01*
X78060457Y-68141542D01*
M02*
