G04 #@! TF.GenerationSoftware,KiCad,Pcbnew,5.1.5-52549c5~84~ubuntu18.04.1*
G04 #@! TF.CreationDate,2020-01-16T22:12:14+01:00*
G04 #@! TF.ProjectId,v4,76342e6b-6963-4616-945f-706362585858,rev?*
G04 #@! TF.SameCoordinates,Original*
G04 #@! TF.FileFunction,Legend,Top*
G04 #@! TF.FilePolarity,Positive*
%FSLAX46Y46*%
G04 Gerber Fmt 4.6, Leading zero omitted, Abs format (unit mm)*
G04 Created by KiCad (PCBNEW 5.1.5-52549c5~84~ubuntu18.04.1) date 2020-01-16 22:12:14*
%MOMM*%
%LPD*%
G04 APERTURE LIST*
%ADD10C,0.300000*%
%ADD11C,0.100000*%
%ADD12C,0.200000*%
%ADD13C,0.380000*%
%ADD14C,0.120000*%
%ADD15C,0.150000*%
G04 APERTURE END LIST*
D10*
X122946171Y-89094742D02*
X124089028Y-89094742D01*
X123517600Y-89666171D02*
X123517600Y-88523314D01*
D11*
X125924028Y-91159028D02*
X125981171Y-91159028D01*
X126038314Y-91187600D01*
X126066885Y-91216171D01*
X126095457Y-91273314D01*
X126124028Y-91387600D01*
X126124028Y-91530457D01*
X126095457Y-91644742D01*
X126066885Y-91701885D01*
X126038314Y-91730457D01*
X125981171Y-91759028D01*
X125924028Y-91759028D01*
X125866885Y-91730457D01*
X125838314Y-91701885D01*
X125809742Y-91644742D01*
X125781171Y-91530457D01*
X125781171Y-91387600D01*
X125809742Y-91273314D01*
X125838314Y-91216171D01*
X125866885Y-91187600D01*
X125924028Y-91159028D01*
X126638314Y-91159028D02*
X126524028Y-91159028D01*
X126466885Y-91187600D01*
X126438314Y-91216171D01*
X126381171Y-91301885D01*
X126352600Y-91416171D01*
X126352600Y-91644742D01*
X126381171Y-91701885D01*
X126409742Y-91730457D01*
X126466885Y-91759028D01*
X126581171Y-91759028D01*
X126638314Y-91730457D01*
X126666885Y-91701885D01*
X126695457Y-91644742D01*
X126695457Y-91501885D01*
X126666885Y-91444742D01*
X126638314Y-91416171D01*
X126581171Y-91387600D01*
X126466885Y-91387600D01*
X126409742Y-91416171D01*
X126381171Y-91444742D01*
X126352600Y-91501885D01*
X127066885Y-91159028D02*
X127124028Y-91159028D01*
X127181171Y-91187600D01*
X127209742Y-91216171D01*
X127238314Y-91273314D01*
X127266885Y-91387600D01*
X127266885Y-91530457D01*
X127238314Y-91644742D01*
X127209742Y-91701885D01*
X127181171Y-91730457D01*
X127124028Y-91759028D01*
X127066885Y-91759028D01*
X127009742Y-91730457D01*
X126981171Y-91701885D01*
X126952600Y-91644742D01*
X126924028Y-91530457D01*
X126924028Y-91387600D01*
X126952600Y-91273314D01*
X126981171Y-91216171D01*
X127009742Y-91187600D01*
X127066885Y-91159028D01*
X127466885Y-91159028D02*
X127838314Y-91159028D01*
X127638314Y-91387600D01*
X127724028Y-91387600D01*
X127781171Y-91416171D01*
X127809742Y-91444742D01*
X127838314Y-91501885D01*
X127838314Y-91644742D01*
X127809742Y-91701885D01*
X127781171Y-91730457D01*
X127724028Y-91759028D01*
X127552600Y-91759028D01*
X127495457Y-91730457D01*
X127466885Y-91701885D01*
X128724028Y-91159028D02*
X128724028Y-91587600D01*
X128695457Y-91673314D01*
X128638314Y-91730457D01*
X128552600Y-91759028D01*
X128495457Y-91759028D01*
X129295457Y-91759028D02*
X129009742Y-91759028D01*
X129009742Y-91159028D01*
X129838314Y-91701885D02*
X129809742Y-91730457D01*
X129724028Y-91759028D01*
X129666885Y-91759028D01*
X129581171Y-91730457D01*
X129524028Y-91673314D01*
X129495457Y-91616171D01*
X129466885Y-91501885D01*
X129466885Y-91416171D01*
X129495457Y-91301885D01*
X129524028Y-91244742D01*
X129581171Y-91187600D01*
X129666885Y-91159028D01*
X129724028Y-91159028D01*
X129809742Y-91187600D01*
X129838314Y-91216171D01*
X130095457Y-91759028D02*
X130095457Y-91159028D01*
X130324028Y-91159028D01*
X130381171Y-91187600D01*
X130409742Y-91216171D01*
X130438314Y-91273314D01*
X130438314Y-91359028D01*
X130409742Y-91416171D01*
X130381171Y-91444742D01*
X130324028Y-91473314D01*
X130095457Y-91473314D01*
X131038314Y-91701885D02*
X131009742Y-91730457D01*
X130924028Y-91759028D01*
X130866885Y-91759028D01*
X130781171Y-91730457D01*
X130724028Y-91673314D01*
X130695457Y-91616171D01*
X130666885Y-91501885D01*
X130666885Y-91416171D01*
X130695457Y-91301885D01*
X130724028Y-91244742D01*
X130781171Y-91187600D01*
X130866885Y-91159028D01*
X130924028Y-91159028D01*
X131009742Y-91187600D01*
X131038314Y-91216171D01*
X131495457Y-91444742D02*
X131581171Y-91473314D01*
X131609742Y-91501885D01*
X131638314Y-91559028D01*
X131638314Y-91644742D01*
X131609742Y-91701885D01*
X131581171Y-91730457D01*
X131524028Y-91759028D01*
X131295457Y-91759028D01*
X131295457Y-91159028D01*
X131495457Y-91159028D01*
X131552600Y-91187600D01*
X131581171Y-91216171D01*
X131609742Y-91273314D01*
X131609742Y-91330457D01*
X131581171Y-91387600D01*
X131552600Y-91416171D01*
X131495457Y-91444742D01*
X131295457Y-91444742D01*
D12*
X116260457Y-58330457D02*
X115574742Y-58330457D01*
X115917600Y-58330457D02*
X115917600Y-57130457D01*
X115803314Y-57301885D01*
X115689028Y-57416171D01*
X115574742Y-57473314D01*
D10*
X113521171Y-85243671D02*
X112021171Y-85056171D01*
X112021171Y-84699028D01*
X112092600Y-84493671D01*
X112235457Y-84368671D01*
X112378314Y-84315100D01*
X112664028Y-84279385D01*
X112878314Y-84306171D01*
X113164028Y-84413314D01*
X113306885Y-84502600D01*
X113449742Y-84663314D01*
X113521171Y-84886528D01*
X113521171Y-85243671D01*
X113092600Y-83761528D02*
X113092600Y-83047242D01*
X113521171Y-83957957D02*
X112021171Y-83270457D01*
X113521171Y-82957957D01*
X113521171Y-82457957D02*
X112021171Y-82270457D01*
X113521171Y-81600814D01*
X112021171Y-81413314D01*
X112092600Y-79922242D02*
X112021171Y-80056171D01*
X112021171Y-80270457D01*
X112092600Y-80493671D01*
X112235457Y-80654385D01*
X112378314Y-80743671D01*
X112664028Y-80850814D01*
X112878314Y-80877600D01*
X113164028Y-80841885D01*
X113306885Y-80788314D01*
X113449742Y-80663314D01*
X113521171Y-80457957D01*
X113521171Y-80315100D01*
X113449742Y-80091885D01*
X113378314Y-80011528D01*
X112878314Y-79949028D01*
X112878314Y-80234742D01*
X112735457Y-79288314D02*
X112735457Y-78788314D01*
X113521171Y-78672242D02*
X113521171Y-79386528D01*
X112021171Y-79199028D01*
X112021171Y-78484742D01*
X113521171Y-77172242D02*
X112806885Y-77582957D01*
X113521171Y-78029385D02*
X112021171Y-77841885D01*
X112021171Y-77270457D01*
X112092600Y-77136528D01*
X112164028Y-77074028D01*
X112306885Y-77020457D01*
X112521171Y-77047242D01*
X112664028Y-77136528D01*
X112735457Y-77216885D01*
X112806885Y-77368671D01*
X112806885Y-77940100D01*
X116071171Y-83386528D02*
X114571171Y-83199028D01*
X115285457Y-83288314D02*
X115285457Y-82431171D01*
X116071171Y-82529385D02*
X114571171Y-82341885D01*
X114571171Y-81341885D02*
X114571171Y-81056171D01*
X114642600Y-80922242D01*
X114785457Y-80797242D01*
X115071171Y-80761528D01*
X115571171Y-80824028D01*
X115856885Y-80931171D01*
X115999742Y-81091885D01*
X116071171Y-81243671D01*
X116071171Y-81529385D01*
X115999742Y-81663314D01*
X115856885Y-81788314D01*
X115571171Y-81824028D01*
X115071171Y-81761528D01*
X114785457Y-81654385D01*
X114642600Y-81493671D01*
X114571171Y-81341885D01*
X114571171Y-80270457D02*
X114571171Y-79413314D01*
X116071171Y-80029385D02*
X114571171Y-79841885D01*
X115928314Y-79082957D02*
X115999742Y-79020457D01*
X116071171Y-79100814D01*
X115999742Y-79163314D01*
X115928314Y-79082957D01*
X116071171Y-79100814D01*
X115499742Y-79029385D02*
X114642600Y-78993671D01*
X114571171Y-78913314D01*
X114642600Y-78850814D01*
X115499742Y-79029385D01*
X114571171Y-78913314D01*
X112589028Y-89875695D02*
X111846171Y-89875695D01*
X112217600Y-89875695D02*
X112217600Y-88575695D01*
X112093790Y-88761409D01*
X111969980Y-88885219D01*
X111846171Y-88947123D01*
D13*
X131231885Y-75006028D02*
X129431885Y-75006028D01*
X129431885Y-74577457D01*
X129517600Y-74320314D01*
X129689028Y-74148885D01*
X129860457Y-74063171D01*
X130203314Y-73977457D01*
X130460457Y-73977457D01*
X130803314Y-74063171D01*
X130974742Y-74148885D01*
X131146171Y-74320314D01*
X131231885Y-74577457D01*
X131231885Y-75006028D01*
X131231885Y-73206028D02*
X129431885Y-73206028D01*
X130374742Y-72006028D02*
X131231885Y-72006028D01*
X129431885Y-72606028D02*
X130374742Y-72006028D01*
X129431885Y-71406028D01*
X130289028Y-70206028D02*
X130374742Y-69948885D01*
X130460457Y-69863171D01*
X130631885Y-69777457D01*
X130889028Y-69777457D01*
X131060457Y-69863171D01*
X131146171Y-69948885D01*
X131231885Y-70120314D01*
X131231885Y-70806028D01*
X129431885Y-70806028D01*
X129431885Y-70206028D01*
X129517600Y-70034600D01*
X129603314Y-69948885D01*
X129774742Y-69863171D01*
X129946171Y-69863171D01*
X130117600Y-69948885D01*
X130203314Y-70034600D01*
X130289028Y-70206028D01*
X130289028Y-70806028D01*
X131231885Y-69006028D02*
X129431885Y-69006028D01*
X130717600Y-68406028D01*
X129431885Y-67806028D01*
X131231885Y-67806028D01*
X131146171Y-67034600D02*
X131231885Y-66777457D01*
X131231885Y-66348885D01*
X131146171Y-66177457D01*
X131060457Y-66091742D01*
X130889028Y-66006028D01*
X130717600Y-66006028D01*
X130546171Y-66091742D01*
X130460457Y-66177457D01*
X130374742Y-66348885D01*
X130289028Y-66691742D01*
X130203314Y-66863171D01*
X130117600Y-66948885D01*
X129946171Y-67034600D01*
X129774742Y-67034600D01*
X129603314Y-66948885D01*
X129517600Y-66863171D01*
X129431885Y-66691742D01*
X129431885Y-66263171D01*
X129517600Y-66006028D01*
X130031885Y-64034600D02*
X131231885Y-63606028D01*
X130031885Y-63177457D01*
X130031885Y-61720314D02*
X131231885Y-61720314D01*
X129346171Y-62148885D02*
X130631885Y-62577457D01*
X130631885Y-61463171D01*
X131060457Y-60777457D02*
X131146171Y-60691742D01*
X131231885Y-60777457D01*
X131146171Y-60863171D01*
X131060457Y-60777457D01*
X131231885Y-60777457D01*
X129603314Y-60006028D02*
X129517600Y-59920314D01*
X129431885Y-59748885D01*
X129431885Y-59320314D01*
X129517600Y-59148885D01*
X129603314Y-59063171D01*
X129774742Y-58977457D01*
X129946171Y-58977457D01*
X130203314Y-59063171D01*
X131231885Y-60091742D01*
X131231885Y-58977457D01*
D10*
X120146171Y-64766171D02*
X119289028Y-64766171D01*
X119717600Y-64766171D02*
X119717600Y-63266171D01*
X119574742Y-63480457D01*
X119431885Y-63623314D01*
X119289028Y-63694742D01*
X122089028Y-89180457D02*
X120946171Y-89180457D01*
X110631885Y-100942571D02*
X111560457Y-100942571D01*
X111060457Y-101514000D01*
X111274742Y-101514000D01*
X111417600Y-101585428D01*
X111489028Y-101656857D01*
X111560457Y-101799714D01*
X111560457Y-102156857D01*
X111489028Y-102299714D01*
X111417600Y-102371142D01*
X111274742Y-102442571D01*
X110846171Y-102442571D01*
X110703314Y-102371142D01*
X110631885Y-102299714D01*
X112489028Y-100942571D02*
X112631885Y-100942571D01*
X112774742Y-101014000D01*
X112846171Y-101085428D01*
X112917600Y-101228285D01*
X112989028Y-101514000D01*
X112989028Y-101871142D01*
X112917600Y-102156857D01*
X112846171Y-102299714D01*
X112774742Y-102371142D01*
X112631885Y-102442571D01*
X112489028Y-102442571D01*
X112346171Y-102371142D01*
X112274742Y-102299714D01*
X112203314Y-102156857D01*
X112131885Y-101871142D01*
X112131885Y-101514000D01*
X112203314Y-101228285D01*
X112274742Y-101085428D01*
X112346171Y-101014000D01*
X112489028Y-100942571D01*
X113631885Y-102299714D02*
X113703314Y-102371142D01*
X113631885Y-102442571D01*
X113560457Y-102371142D01*
X113631885Y-102299714D01*
X113631885Y-102442571D01*
X114631885Y-100942571D02*
X114774742Y-100942571D01*
X114917600Y-101014000D01*
X114989028Y-101085428D01*
X115060457Y-101228285D01*
X115131885Y-101514000D01*
X115131885Y-101871142D01*
X115060457Y-102156857D01*
X114989028Y-102299714D01*
X114917600Y-102371142D01*
X114774742Y-102442571D01*
X114631885Y-102442571D01*
X114489028Y-102371142D01*
X114417600Y-102299714D01*
X114346171Y-102156857D01*
X114274742Y-101871142D01*
X114274742Y-101514000D01*
X114346171Y-101228285D01*
X114417600Y-101085428D01*
X114489028Y-101014000D01*
X114631885Y-100942571D01*
X116060457Y-100942571D02*
X116203314Y-100942571D01*
X116346171Y-101014000D01*
X116417600Y-101085428D01*
X116489028Y-101228285D01*
X116560457Y-101514000D01*
X116560457Y-101871142D01*
X116489028Y-102156857D01*
X116417600Y-102299714D01*
X116346171Y-102371142D01*
X116203314Y-102442571D01*
X116060457Y-102442571D01*
X115917600Y-102371142D01*
X115846171Y-102299714D01*
X115774742Y-102156857D01*
X115703314Y-101871142D01*
X115703314Y-101514000D01*
X115774742Y-101228285D01*
X115846171Y-101085428D01*
X115917600Y-101014000D01*
X116060457Y-100942571D01*
X117489028Y-100942571D02*
X117631885Y-100942571D01*
X117774742Y-101014000D01*
X117846171Y-101085428D01*
X117917600Y-101228285D01*
X117989028Y-101514000D01*
X117989028Y-101871142D01*
X117917600Y-102156857D01*
X117846171Y-102299714D01*
X117774742Y-102371142D01*
X117631885Y-102442571D01*
X117489028Y-102442571D01*
X117346171Y-102371142D01*
X117274742Y-102299714D01*
X117203314Y-102156857D01*
X117131885Y-101871142D01*
X117131885Y-101514000D01*
X117203314Y-101228285D01*
X117274742Y-101085428D01*
X117346171Y-101014000D01*
X117489028Y-100942571D01*
X119774742Y-102442571D02*
X119774742Y-101442571D01*
X119774742Y-101585428D02*
X119846171Y-101514000D01*
X119989028Y-101442571D01*
X120203314Y-101442571D01*
X120346171Y-101514000D01*
X120417600Y-101656857D01*
X120417600Y-102442571D01*
X120417600Y-101656857D02*
X120489028Y-101514000D01*
X120631885Y-101442571D01*
X120846171Y-101442571D01*
X120989028Y-101514000D01*
X121060457Y-101656857D01*
X121060457Y-102442571D01*
X121774742Y-102442571D02*
X121774742Y-101442571D01*
X121774742Y-101585428D02*
X121846171Y-101514000D01*
X121989028Y-101442571D01*
X122203314Y-101442571D01*
X122346171Y-101514000D01*
X122417600Y-101656857D01*
X122417600Y-102442571D01*
X122417600Y-101656857D02*
X122489028Y-101514000D01*
X122631885Y-101442571D01*
X122846171Y-101442571D01*
X122989028Y-101514000D01*
X123060457Y-101656857D01*
X123060457Y-102442571D01*
X101917600Y-99664000D02*
X131917600Y-99664000D01*
X101917600Y-97987600D02*
X101917600Y-100250421D01*
X131917600Y-97987600D02*
X131917600Y-100250421D01*
X131917600Y-99664000D02*
X130791096Y-100250421D01*
X131917600Y-99664000D02*
X130791096Y-99077579D01*
X101917600Y-99664000D02*
X103044104Y-100250421D01*
X101917600Y-99664000D02*
X103044104Y-99077579D01*
X136939028Y-66559028D02*
X136939028Y-65844742D01*
X136224742Y-65773314D01*
X136296171Y-65844742D01*
X136367600Y-65987600D01*
X136367600Y-66344742D01*
X136296171Y-66487600D01*
X136224742Y-66559028D01*
X136081885Y-66630457D01*
X135724742Y-66630457D01*
X135581885Y-66559028D01*
X135510457Y-66487600D01*
X135439028Y-66344742D01*
X135439028Y-65987600D01*
X135510457Y-65844742D01*
X135581885Y-65773314D01*
X136939028Y-67559028D02*
X136939028Y-67701885D01*
X136867600Y-67844742D01*
X136796171Y-67916171D01*
X136653314Y-67987600D01*
X136367600Y-68059028D01*
X136010457Y-68059028D01*
X135724742Y-67987600D01*
X135581885Y-67916171D01*
X135510457Y-67844742D01*
X135439028Y-67701885D01*
X135439028Y-67559028D01*
X135510457Y-67416171D01*
X135581885Y-67344742D01*
X135724742Y-67273314D01*
X136010457Y-67201885D01*
X136367600Y-67201885D01*
X136653314Y-67273314D01*
X136796171Y-67344742D01*
X136867600Y-67416171D01*
X136939028Y-67559028D01*
X135581885Y-68701885D02*
X135510457Y-68773314D01*
X135439028Y-68701885D01*
X135510457Y-68630457D01*
X135581885Y-68701885D01*
X135439028Y-68701885D01*
X136939028Y-69701885D02*
X136939028Y-69844742D01*
X136867600Y-69987600D01*
X136796171Y-70059028D01*
X136653314Y-70130457D01*
X136367600Y-70201885D01*
X136010457Y-70201885D01*
X135724742Y-70130457D01*
X135581885Y-70059028D01*
X135510457Y-69987600D01*
X135439028Y-69844742D01*
X135439028Y-69701885D01*
X135510457Y-69559028D01*
X135581885Y-69487600D01*
X135724742Y-69416171D01*
X136010457Y-69344742D01*
X136367600Y-69344742D01*
X136653314Y-69416171D01*
X136796171Y-69487600D01*
X136867600Y-69559028D01*
X136939028Y-69701885D01*
X136939028Y-71130457D02*
X136939028Y-71273314D01*
X136867600Y-71416171D01*
X136796171Y-71487600D01*
X136653314Y-71559028D01*
X136367600Y-71630457D01*
X136010457Y-71630457D01*
X135724742Y-71559028D01*
X135581885Y-71487600D01*
X135510457Y-71416171D01*
X135439028Y-71273314D01*
X135439028Y-71130457D01*
X135510457Y-70987600D01*
X135581885Y-70916171D01*
X135724742Y-70844742D01*
X136010457Y-70773314D01*
X136367600Y-70773314D01*
X136653314Y-70844742D01*
X136796171Y-70916171D01*
X136867600Y-70987600D01*
X136939028Y-71130457D01*
X136939028Y-72559028D02*
X136939028Y-72701885D01*
X136867600Y-72844742D01*
X136796171Y-72916171D01*
X136653314Y-72987600D01*
X136367600Y-73059028D01*
X136010457Y-73059028D01*
X135724742Y-72987600D01*
X135581885Y-72916171D01*
X135510457Y-72844742D01*
X135439028Y-72701885D01*
X135439028Y-72559028D01*
X135510457Y-72416171D01*
X135581885Y-72344742D01*
X135724742Y-72273314D01*
X136010457Y-72201885D01*
X136367600Y-72201885D01*
X136653314Y-72273314D01*
X136796171Y-72344742D01*
X136867600Y-72416171D01*
X136939028Y-72559028D01*
X135439028Y-74844742D02*
X136439028Y-74844742D01*
X136296171Y-74844742D02*
X136367600Y-74916171D01*
X136439028Y-75059028D01*
X136439028Y-75273314D01*
X136367600Y-75416171D01*
X136224742Y-75487600D01*
X135439028Y-75487600D01*
X136224742Y-75487600D02*
X136367600Y-75559028D01*
X136439028Y-75701885D01*
X136439028Y-75916171D01*
X136367600Y-76059028D01*
X136224742Y-76130457D01*
X135439028Y-76130457D01*
X135439028Y-76844742D02*
X136439028Y-76844742D01*
X136296171Y-76844742D02*
X136367600Y-76916171D01*
X136439028Y-77059028D01*
X136439028Y-77273314D01*
X136367600Y-77416171D01*
X136224742Y-77487600D01*
X135439028Y-77487600D01*
X136224742Y-77487600D02*
X136367600Y-77559028D01*
X136439028Y-77701885D01*
X136439028Y-77916171D01*
X136367600Y-78059028D01*
X136224742Y-78130457D01*
X135439028Y-78130457D01*
X134017600Y-46987600D02*
X134017600Y-96987600D01*
X131917600Y-46987600D02*
X134604021Y-46987600D01*
X131917600Y-96987600D02*
X134604021Y-96987600D01*
X134017600Y-96987600D02*
X133431179Y-95861096D01*
X134017600Y-96987600D02*
X134604021Y-95861096D01*
X134017600Y-46987600D02*
X133431179Y-48114104D01*
X134017600Y-46987600D02*
X134604021Y-48114104D01*
D14*
X108317600Y-93287600D02*
X108317600Y-94687600D01*
X108317600Y-94687600D02*
X111117600Y-94687600D01*
X108317600Y-93287600D02*
X111117600Y-93287600D01*
X120317600Y-61737600D02*
X119317600Y-61737600D01*
X119317600Y-63437600D02*
X120317600Y-63437600D01*
X103717600Y-54587600D02*
X103717600Y-55987600D01*
X103717600Y-55987600D02*
X106517600Y-55987600D01*
X103717600Y-54587600D02*
X106517600Y-54587600D01*
X114617600Y-56797600D02*
X114617600Y-57197600D01*
X114617600Y-57197600D02*
X113217600Y-57197600D01*
X114617600Y-56797600D02*
X119417600Y-56797600D01*
X114617600Y-59997600D02*
X119417600Y-59997600D01*
X127517600Y-54387600D02*
X127517600Y-55787600D01*
X127517600Y-55787600D02*
X130317600Y-55787600D01*
X127517600Y-54387600D02*
X130317600Y-54387600D01*
X122717600Y-48037600D02*
X122717600Y-52387600D01*
X122717600Y-52387600D02*
X121717600Y-52387600D01*
X121717600Y-52387600D02*
X121717600Y-48037600D01*
X124017600Y-54237600D02*
X124367600Y-54237600D01*
X124367600Y-54237600D02*
X124367600Y-55837600D01*
X124367600Y-55837600D02*
X125267600Y-55837600D01*
X125267600Y-55837600D02*
X125267600Y-48037600D01*
X125267600Y-48037600D02*
X119167600Y-48037600D01*
X119167600Y-48037600D02*
X119167600Y-55837600D01*
X119167600Y-55837600D02*
X120067600Y-55837600D01*
X120067600Y-55837600D02*
X120067600Y-54237600D01*
X120067600Y-54237600D02*
X120417600Y-54237600D01*
X125267600Y-54237600D02*
X124367600Y-54237600D01*
X119167600Y-54237600D02*
X120067600Y-54237600D01*
X124517600Y-51887600D02*
X124517600Y-50287600D01*
X124517600Y-50287600D02*
X123517600Y-50287600D01*
X123517600Y-50287600D02*
X123517600Y-51887600D01*
X123517600Y-51887600D02*
X124517600Y-51887600D01*
X119917600Y-51887600D02*
X119917600Y-50287600D01*
X119917600Y-50287600D02*
X120917600Y-50287600D01*
X120917600Y-50287600D02*
X120917600Y-51887600D01*
X120917600Y-51887600D02*
X119917600Y-51887600D01*
X123517600Y-50287600D02*
X123517600Y-48037600D01*
X124017600Y-50287600D02*
X124017600Y-48037600D01*
X124017600Y-54237600D02*
X124017600Y-55437600D01*
X109617600Y-95107600D02*
X110617600Y-95107600D01*
X110617600Y-96467600D02*
X109617600Y-96467600D01*
X129717600Y-75607600D02*
X130717600Y-75607600D01*
X130717600Y-76967600D02*
X129717600Y-76967600D01*
X109917600Y-74667600D02*
X108917600Y-74667600D01*
X108917600Y-73307600D02*
X109917600Y-73307600D01*
X106317600Y-74867600D02*
X105317600Y-74867600D01*
X105317600Y-73507600D02*
X106317600Y-73507600D01*
X128117600Y-56507600D02*
X129117600Y-56507600D01*
X129117600Y-57867600D02*
X128117600Y-57867600D01*
X117417600Y-52567600D02*
X116417600Y-52567600D01*
X116417600Y-51207600D02*
X117417600Y-51207600D01*
X117417600Y-50467600D02*
X116417600Y-50467600D01*
X116417600Y-49107600D02*
X117417600Y-49107600D01*
X115467600Y-71167600D02*
X114467600Y-71167600D01*
X114467600Y-69807600D02*
X115467600Y-69807600D01*
X115467600Y-74167600D02*
X114467600Y-74167600D01*
X114467600Y-72807600D02*
X115467600Y-72807600D01*
X117417600Y-54667600D02*
X116417600Y-54667600D01*
X116417600Y-53307600D02*
X117417600Y-53307600D01*
X118037600Y-71087600D02*
X118037600Y-70087600D01*
X119397600Y-70087600D02*
X119397600Y-71087600D01*
X119397600Y-73087600D02*
X119397600Y-74087600D01*
X118037600Y-74087600D02*
X118037600Y-73087600D01*
X124417600Y-74867600D02*
X123417600Y-74867600D01*
X123417600Y-73507600D02*
X124417600Y-73507600D01*
X118037600Y-68187600D02*
X118037600Y-67187600D01*
X119397600Y-67187600D02*
X119397600Y-68187600D01*
X115467600Y-68087600D02*
X114767600Y-68087600D01*
X114767600Y-66887600D02*
X115467600Y-66887600D01*
X126467600Y-62387600D02*
X125767600Y-62387600D01*
X125767600Y-61187600D02*
X126467600Y-61187600D01*
X128587600Y-90477600D02*
X131247600Y-90477600D01*
X128587600Y-80257600D02*
X128587600Y-90477600D01*
X131247600Y-80257600D02*
X131247600Y-90477600D01*
X128587600Y-80257600D02*
X131247600Y-80257600D01*
X128587600Y-78987600D02*
X128587600Y-77657600D01*
X128587600Y-77657600D02*
X129917600Y-77657600D01*
X112587600Y-97197600D02*
X117787600Y-97197600D01*
X112587600Y-92057600D02*
X112587600Y-97197600D01*
X117787600Y-89457600D02*
X117787600Y-97197600D01*
X112587600Y-92057600D02*
X115187600Y-92057600D01*
X115187600Y-92057600D02*
X115187600Y-89457600D01*
X115187600Y-89457600D02*
X117787600Y-89457600D01*
X112587600Y-90787600D02*
X112587600Y-89457600D01*
X112587600Y-89457600D02*
X113917600Y-89457600D01*
X121717600Y-97837600D02*
X121717600Y-93487600D01*
X121717600Y-93487600D02*
X122717600Y-93487600D01*
X122717600Y-93487600D02*
X122717600Y-97837600D01*
X120417600Y-91637600D02*
X120067600Y-91637600D01*
X120067600Y-91637600D02*
X120067600Y-90037600D01*
X120067600Y-90037600D02*
X119167600Y-90037600D01*
X119167600Y-90037600D02*
X119167600Y-97837600D01*
X119167600Y-97837600D02*
X125267600Y-97837600D01*
X125267600Y-97837600D02*
X125267600Y-90037600D01*
X125267600Y-90037600D02*
X124367600Y-90037600D01*
X124367600Y-90037600D02*
X124367600Y-91637600D01*
X124367600Y-91637600D02*
X124017600Y-91637600D01*
X119167600Y-91637600D02*
X120067600Y-91637600D01*
X125267600Y-91637600D02*
X124367600Y-91637600D01*
X119917600Y-93987600D02*
X119917600Y-95587600D01*
X119917600Y-95587600D02*
X120917600Y-95587600D01*
X120917600Y-95587600D02*
X120917600Y-93987600D01*
X120917600Y-93987600D02*
X119917600Y-93987600D01*
X124517600Y-93987600D02*
X124517600Y-95587600D01*
X124517600Y-95587600D02*
X123517600Y-95587600D01*
X123517600Y-95587600D02*
X123517600Y-93987600D01*
X123517600Y-93987600D02*
X124517600Y-93987600D01*
X120917600Y-95587600D02*
X120917600Y-97837600D01*
X120417600Y-95587600D02*
X120417600Y-97837600D01*
X120417600Y-91637600D02*
X120417600Y-90437600D01*
D15*
X122042600Y-63937600D02*
X122042600Y-63962600D01*
X126192600Y-63937600D02*
X126192600Y-64052600D01*
X126192600Y-72837600D02*
X126192600Y-72722600D01*
X122042600Y-72837600D02*
X122042600Y-72722600D01*
X122042600Y-63937600D02*
X126192600Y-63937600D01*
X122042600Y-72837600D02*
X126192600Y-72837600D01*
X122042600Y-63962600D02*
X120667600Y-63962600D01*
D14*
X112117600Y-48037600D02*
X112117600Y-52387600D01*
X112117600Y-52387600D02*
X111117600Y-52387600D01*
X111117600Y-52387600D02*
X111117600Y-48037600D01*
X113417600Y-54237600D02*
X113767600Y-54237600D01*
X113767600Y-54237600D02*
X113767600Y-55837600D01*
X113767600Y-55837600D02*
X114667600Y-55837600D01*
X114667600Y-55837600D02*
X114667600Y-48037600D01*
X114667600Y-48037600D02*
X108567600Y-48037600D01*
X108567600Y-48037600D02*
X108567600Y-55837600D01*
X108567600Y-55837600D02*
X109467600Y-55837600D01*
X109467600Y-55837600D02*
X109467600Y-54237600D01*
X109467600Y-54237600D02*
X109817600Y-54237600D01*
X114667600Y-54237600D02*
X113767600Y-54237600D01*
X108567600Y-54237600D02*
X109467600Y-54237600D01*
X113917600Y-51887600D02*
X113917600Y-50287600D01*
X113917600Y-50287600D02*
X112917600Y-50287600D01*
X112917600Y-50287600D02*
X112917600Y-51887600D01*
X112917600Y-51887600D02*
X113917600Y-51887600D01*
X109317600Y-51887600D02*
X109317600Y-50287600D01*
X109317600Y-50287600D02*
X110317600Y-50287600D01*
X110317600Y-50287600D02*
X110317600Y-51887600D01*
X110317600Y-51887600D02*
X109317600Y-51887600D01*
X112917600Y-50287600D02*
X112917600Y-48037600D01*
X113417600Y-50287600D02*
X113417600Y-48037600D01*
X113417600Y-54237600D02*
X113417600Y-55437600D01*
X122637600Y-59847600D02*
X123567600Y-59847600D01*
X125797600Y-59847600D02*
X124867600Y-59847600D01*
X125797600Y-59847600D02*
X125797600Y-57687600D01*
X122637600Y-59847600D02*
X122637600Y-58387600D01*
X113537600Y-65247600D02*
X114467600Y-65247600D01*
X116697600Y-65247600D02*
X115767600Y-65247600D01*
X116697600Y-65247600D02*
X116697600Y-63087600D01*
X113537600Y-65247600D02*
X113537600Y-63787600D01*
X111437600Y-66587600D02*
X111437600Y-71787600D01*
X107797600Y-71787600D02*
X107797600Y-66587600D01*
X107797600Y-81787600D02*
X107797600Y-76587600D01*
X111437600Y-76587600D02*
X111437600Y-81787600D01*
X106937600Y-66587600D02*
X106937600Y-71787600D01*
X103297600Y-71787600D02*
X103297600Y-66587600D01*
X103297600Y-81787600D02*
X103297600Y-76587600D01*
X106937600Y-76587600D02*
X106937600Y-81787600D01*
X106937600Y-58399200D02*
X106937600Y-63599200D01*
X103297600Y-63599200D02*
X103297600Y-58399200D01*
X103297600Y-90087600D02*
X103297600Y-84887600D01*
X106937600Y-84887600D02*
X106937600Y-90087600D01*
X107797600Y-63599200D02*
X107797600Y-58399200D01*
X111437600Y-58399200D02*
X111437600Y-63599200D01*
X111437600Y-84887600D02*
X111437600Y-90087600D01*
X107797600Y-90087600D02*
X107797600Y-84887600D01*
D15*
X109379504Y-92989980D02*
X109379504Y-91989980D01*
X109617600Y-91989980D01*
X109760457Y-92037600D01*
X109855695Y-92132838D01*
X109903314Y-92228076D01*
X109950933Y-92418552D01*
X109950933Y-92561409D01*
X109903314Y-92751885D01*
X109855695Y-92847123D01*
X109760457Y-92942361D01*
X109617600Y-92989980D01*
X109379504Y-92989980D01*
X110331885Y-92085219D02*
X110379504Y-92037600D01*
X110474742Y-91989980D01*
X110712838Y-91989980D01*
X110808076Y-92037600D01*
X110855695Y-92085219D01*
X110903314Y-92180457D01*
X110903314Y-92275695D01*
X110855695Y-92418552D01*
X110284266Y-92989980D01*
X110903314Y-92989980D01*
X119650933Y-61444742D02*
X119603314Y-61492361D01*
X119460457Y-61539980D01*
X119365219Y-61539980D01*
X119222361Y-61492361D01*
X119127123Y-61397123D01*
X119079504Y-61301885D01*
X119031885Y-61111409D01*
X119031885Y-60968552D01*
X119079504Y-60778076D01*
X119127123Y-60682838D01*
X119222361Y-60587600D01*
X119365219Y-60539980D01*
X119460457Y-60539980D01*
X119603314Y-60587600D01*
X119650933Y-60635219D01*
X120603314Y-61539980D02*
X120031885Y-61539980D01*
X120317600Y-61539980D02*
X120317600Y-60539980D01*
X120222361Y-60682838D01*
X120127123Y-60778076D01*
X120031885Y-60825695D01*
X104779504Y-54289980D02*
X104779504Y-53289980D01*
X105017600Y-53289980D01*
X105160457Y-53337600D01*
X105255695Y-53432838D01*
X105303314Y-53528076D01*
X105350933Y-53718552D01*
X105350933Y-53861409D01*
X105303314Y-54051885D01*
X105255695Y-54147123D01*
X105160457Y-54242361D01*
X105017600Y-54289980D01*
X104779504Y-54289980D01*
X105684266Y-53289980D02*
X106303314Y-53289980D01*
X105969980Y-53670933D01*
X106112838Y-53670933D01*
X106208076Y-53718552D01*
X106255695Y-53766171D01*
X106303314Y-53861409D01*
X106303314Y-54099504D01*
X106255695Y-54194742D01*
X106208076Y-54242361D01*
X106112838Y-54289980D01*
X105827123Y-54289980D01*
X105731885Y-54242361D01*
X105684266Y-54194742D01*
D11*
X116384266Y-60204266D02*
X116384266Y-60770933D01*
X116417600Y-60837600D01*
X116450933Y-60870933D01*
X116517600Y-60904266D01*
X116650933Y-60904266D01*
X116717600Y-60870933D01*
X116750933Y-60837600D01*
X116784266Y-60770933D01*
X116784266Y-60204266D01*
X117484266Y-60904266D02*
X117084266Y-60904266D01*
X117284266Y-60904266D02*
X117284266Y-60204266D01*
X117217600Y-60304266D01*
X117150933Y-60370933D01*
X117084266Y-60404266D01*
X128800933Y-54204266D02*
X128800933Y-53504266D01*
X128967600Y-53504266D01*
X129067600Y-53537600D01*
X129134266Y-53604266D01*
X129167600Y-53670933D01*
X129200933Y-53804266D01*
X129200933Y-53904266D01*
X129167600Y-54037600D01*
X129134266Y-54104266D01*
X129067600Y-54170933D01*
X128967600Y-54204266D01*
X128800933Y-54204266D01*
X129800933Y-53737600D02*
X129800933Y-54204266D01*
X129634266Y-53470933D02*
X129467600Y-53970933D01*
X129900933Y-53970933D01*
X125934266Y-50254266D02*
X125934266Y-49854266D01*
X126634266Y-50054266D02*
X125934266Y-50054266D01*
X125934266Y-49687600D02*
X126634266Y-49220933D01*
X125934266Y-49220933D02*
X126634266Y-49687600D01*
X126634266Y-48587600D02*
X126634266Y-48987600D01*
X126634266Y-48787600D02*
X125934266Y-48787600D01*
X126034266Y-48854266D01*
X126100933Y-48920933D01*
X126134266Y-48987600D01*
X109567600Y-97604266D02*
X109334266Y-97270933D01*
X109167600Y-97604266D02*
X109167600Y-96904266D01*
X109434266Y-96904266D01*
X109500933Y-96937600D01*
X109534266Y-96970933D01*
X109567600Y-97037600D01*
X109567600Y-97137600D01*
X109534266Y-97204266D01*
X109500933Y-97237600D01*
X109434266Y-97270933D01*
X109167600Y-97270933D01*
X109834266Y-96970933D02*
X109867600Y-96937600D01*
X109934266Y-96904266D01*
X110100933Y-96904266D01*
X110167600Y-96937600D01*
X110200933Y-96970933D01*
X110234266Y-97037600D01*
X110234266Y-97104266D01*
X110200933Y-97204266D01*
X109800933Y-97604266D01*
X110234266Y-97604266D01*
X110467600Y-96904266D02*
X110900933Y-96904266D01*
X110667600Y-97170933D01*
X110767600Y-97170933D01*
X110834266Y-97204266D01*
X110867600Y-97237600D01*
X110900933Y-97304266D01*
X110900933Y-97470933D01*
X110867600Y-97537600D01*
X110834266Y-97570933D01*
X110767600Y-97604266D01*
X110567600Y-97604266D01*
X110500933Y-97570933D01*
X110467600Y-97537600D01*
X127567600Y-76604266D02*
X127334266Y-76270933D01*
X127167600Y-76604266D02*
X127167600Y-75904266D01*
X127434266Y-75904266D01*
X127500933Y-75937600D01*
X127534266Y-75970933D01*
X127567600Y-76037600D01*
X127567600Y-76137600D01*
X127534266Y-76204266D01*
X127500933Y-76237600D01*
X127434266Y-76270933D01*
X127167600Y-76270933D01*
X127834266Y-75970933D02*
X127867600Y-75937600D01*
X127934266Y-75904266D01*
X128100933Y-75904266D01*
X128167600Y-75937600D01*
X128200933Y-75970933D01*
X128234266Y-76037600D01*
X128234266Y-76104266D01*
X128200933Y-76204266D01*
X127800933Y-76604266D01*
X128234266Y-76604266D01*
X128900933Y-76604266D02*
X128500933Y-76604266D01*
X128700933Y-76604266D02*
X128700933Y-75904266D01*
X128634266Y-76004266D01*
X128567600Y-76070933D01*
X128500933Y-76104266D01*
X111534266Y-74637600D02*
X111200933Y-74870933D01*
X111534266Y-75037600D02*
X110834266Y-75037600D01*
X110834266Y-74770933D01*
X110867600Y-74704266D01*
X110900933Y-74670933D01*
X110967600Y-74637600D01*
X111067600Y-74637600D01*
X111134266Y-74670933D01*
X111167600Y-74704266D01*
X111200933Y-74770933D01*
X111200933Y-75037600D01*
X110900933Y-74370933D02*
X110867600Y-74337600D01*
X110834266Y-74270933D01*
X110834266Y-74104266D01*
X110867600Y-74037600D01*
X110900933Y-74004266D01*
X110967600Y-73970933D01*
X111034266Y-73970933D01*
X111134266Y-74004266D01*
X111534266Y-74404266D01*
X111534266Y-73970933D01*
X110834266Y-73537600D02*
X110834266Y-73470933D01*
X110867600Y-73404266D01*
X110900933Y-73370933D01*
X110967600Y-73337600D01*
X111100933Y-73304266D01*
X111267600Y-73304266D01*
X111400933Y-73337600D01*
X111467600Y-73370933D01*
X111500933Y-73404266D01*
X111534266Y-73470933D01*
X111534266Y-73537600D01*
X111500933Y-73604266D01*
X111467600Y-73637600D01*
X111400933Y-73670933D01*
X111267600Y-73704266D01*
X111100933Y-73704266D01*
X110967600Y-73670933D01*
X110900933Y-73637600D01*
X110867600Y-73604266D01*
X110834266Y-73537600D01*
X104334266Y-74637600D02*
X104000933Y-74870933D01*
X104334266Y-75037600D02*
X103634266Y-75037600D01*
X103634266Y-74770933D01*
X103667600Y-74704266D01*
X103700933Y-74670933D01*
X103767600Y-74637600D01*
X103867600Y-74637600D01*
X103934266Y-74670933D01*
X103967600Y-74704266D01*
X104000933Y-74770933D01*
X104000933Y-75037600D01*
X104334266Y-73970933D02*
X104334266Y-74370933D01*
X104334266Y-74170933D02*
X103634266Y-74170933D01*
X103734266Y-74237600D01*
X103800933Y-74304266D01*
X103834266Y-74370933D01*
X104334266Y-73637600D02*
X104334266Y-73504266D01*
X104300933Y-73437600D01*
X104267600Y-73404266D01*
X104167600Y-73337600D01*
X104034266Y-73304266D01*
X103767600Y-73304266D01*
X103700933Y-73337600D01*
X103667600Y-73370933D01*
X103634266Y-73437600D01*
X103634266Y-73570933D01*
X103667600Y-73637600D01*
X103700933Y-73670933D01*
X103767600Y-73704266D01*
X103934266Y-73704266D01*
X104000933Y-73670933D01*
X104034266Y-73637600D01*
X104067600Y-73570933D01*
X104067600Y-73437600D01*
X104034266Y-73370933D01*
X104000933Y-73337600D01*
X103934266Y-73304266D01*
X128167600Y-58954266D02*
X127934266Y-58620933D01*
X127767600Y-58954266D02*
X127767600Y-58254266D01*
X128034266Y-58254266D01*
X128100933Y-58287600D01*
X128134266Y-58320933D01*
X128167600Y-58387600D01*
X128167600Y-58487600D01*
X128134266Y-58554266D01*
X128100933Y-58587600D01*
X128034266Y-58620933D01*
X127767600Y-58620933D01*
X128834266Y-58954266D02*
X128434266Y-58954266D01*
X128634266Y-58954266D02*
X128634266Y-58254266D01*
X128567600Y-58354266D01*
X128500933Y-58420933D01*
X128434266Y-58454266D01*
X129234266Y-58554266D02*
X129167600Y-58520933D01*
X129134266Y-58487600D01*
X129100933Y-58420933D01*
X129100933Y-58387600D01*
X129134266Y-58320933D01*
X129167600Y-58287600D01*
X129234266Y-58254266D01*
X129367600Y-58254266D01*
X129434266Y-58287600D01*
X129467600Y-58320933D01*
X129500933Y-58387600D01*
X129500933Y-58420933D01*
X129467600Y-58487600D01*
X129434266Y-58520933D01*
X129367600Y-58554266D01*
X129234266Y-58554266D01*
X129167600Y-58587600D01*
X129134266Y-58620933D01*
X129100933Y-58687600D01*
X129100933Y-58820933D01*
X129134266Y-58887600D01*
X129167600Y-58920933D01*
X129234266Y-58954266D01*
X129367600Y-58954266D01*
X129434266Y-58920933D01*
X129467600Y-58887600D01*
X129500933Y-58820933D01*
X129500933Y-58687600D01*
X129467600Y-58620933D01*
X129434266Y-58587600D01*
X129367600Y-58554266D01*
X118667600Y-52204266D02*
X118434266Y-51870933D01*
X118267600Y-52204266D02*
X118267600Y-51504266D01*
X118534266Y-51504266D01*
X118600933Y-51537600D01*
X118634266Y-51570933D01*
X118667600Y-51637600D01*
X118667600Y-51737600D01*
X118634266Y-51804266D01*
X118600933Y-51837600D01*
X118534266Y-51870933D01*
X118267600Y-51870933D01*
X119334266Y-52204266D02*
X118934266Y-52204266D01*
X119134266Y-52204266D02*
X119134266Y-51504266D01*
X119067600Y-51604266D01*
X119000933Y-51670933D01*
X118934266Y-51704266D01*
X119567600Y-51504266D02*
X120034266Y-51504266D01*
X119734266Y-52204266D01*
X116467600Y-48904266D02*
X116234266Y-48570933D01*
X116067600Y-48904266D02*
X116067600Y-48204266D01*
X116334266Y-48204266D01*
X116400933Y-48237600D01*
X116434266Y-48270933D01*
X116467600Y-48337600D01*
X116467600Y-48437600D01*
X116434266Y-48504266D01*
X116400933Y-48537600D01*
X116334266Y-48570933D01*
X116067600Y-48570933D01*
X117134266Y-48904266D02*
X116734266Y-48904266D01*
X116934266Y-48904266D02*
X116934266Y-48204266D01*
X116867600Y-48304266D01*
X116800933Y-48370933D01*
X116734266Y-48404266D01*
X117734266Y-48204266D02*
X117600933Y-48204266D01*
X117534266Y-48237600D01*
X117500933Y-48270933D01*
X117434266Y-48370933D01*
X117400933Y-48504266D01*
X117400933Y-48770933D01*
X117434266Y-48837600D01*
X117467600Y-48870933D01*
X117534266Y-48904266D01*
X117667600Y-48904266D01*
X117734266Y-48870933D01*
X117767600Y-48837600D01*
X117800933Y-48770933D01*
X117800933Y-48604266D01*
X117767600Y-48537600D01*
X117734266Y-48504266D01*
X117667600Y-48470933D01*
X117534266Y-48470933D01*
X117467600Y-48504266D01*
X117434266Y-48537600D01*
X117400933Y-48604266D01*
X114517600Y-69354266D02*
X114284266Y-69020933D01*
X114117600Y-69354266D02*
X114117600Y-68654266D01*
X114384266Y-68654266D01*
X114450933Y-68687600D01*
X114484266Y-68720933D01*
X114517600Y-68787600D01*
X114517600Y-68887600D01*
X114484266Y-68954266D01*
X114450933Y-68987600D01*
X114384266Y-69020933D01*
X114117600Y-69020933D01*
X115184266Y-69354266D02*
X114784266Y-69354266D01*
X114984266Y-69354266D02*
X114984266Y-68654266D01*
X114917600Y-68754266D01*
X114850933Y-68820933D01*
X114784266Y-68854266D01*
X115817600Y-68654266D02*
X115484266Y-68654266D01*
X115450933Y-68987600D01*
X115484266Y-68954266D01*
X115550933Y-68920933D01*
X115717600Y-68920933D01*
X115784266Y-68954266D01*
X115817600Y-68987600D01*
X115850933Y-69054266D01*
X115850933Y-69220933D01*
X115817600Y-69287600D01*
X115784266Y-69320933D01*
X115717600Y-69354266D01*
X115550933Y-69354266D01*
X115484266Y-69320933D01*
X115450933Y-69287600D01*
X114517600Y-72354266D02*
X114284266Y-72020933D01*
X114117600Y-72354266D02*
X114117600Y-71654266D01*
X114384266Y-71654266D01*
X114450933Y-71687600D01*
X114484266Y-71720933D01*
X114517600Y-71787600D01*
X114517600Y-71887600D01*
X114484266Y-71954266D01*
X114450933Y-71987600D01*
X114384266Y-72020933D01*
X114117600Y-72020933D01*
X115184266Y-72354266D02*
X114784266Y-72354266D01*
X114984266Y-72354266D02*
X114984266Y-71654266D01*
X114917600Y-71754266D01*
X114850933Y-71820933D01*
X114784266Y-71854266D01*
X115784266Y-71887600D02*
X115784266Y-72354266D01*
X115617600Y-71620933D02*
X115450933Y-72120933D01*
X115884266Y-72120933D01*
X116800933Y-55504266D02*
X116567600Y-55170933D01*
X116400933Y-55504266D02*
X116400933Y-54804266D01*
X116667600Y-54804266D01*
X116734266Y-54837600D01*
X116767600Y-54870933D01*
X116800933Y-54937600D01*
X116800933Y-55037600D01*
X116767600Y-55104266D01*
X116734266Y-55137600D01*
X116667600Y-55170933D01*
X116400933Y-55170933D01*
X117434266Y-54804266D02*
X117100933Y-54804266D01*
X117067600Y-55137600D01*
X117100933Y-55104266D01*
X117167600Y-55070933D01*
X117334266Y-55070933D01*
X117400933Y-55104266D01*
X117434266Y-55137600D01*
X117467600Y-55204266D01*
X117467600Y-55370933D01*
X117434266Y-55437600D01*
X117400933Y-55470933D01*
X117334266Y-55504266D01*
X117167600Y-55504266D01*
X117100933Y-55470933D01*
X117067600Y-55437600D01*
X117734266Y-70404266D02*
X117400933Y-70637600D01*
X117734266Y-70804266D02*
X117034266Y-70804266D01*
X117034266Y-70537600D01*
X117067600Y-70470933D01*
X117100933Y-70437600D01*
X117167600Y-70404266D01*
X117267600Y-70404266D01*
X117334266Y-70437600D01*
X117367600Y-70470933D01*
X117400933Y-70537600D01*
X117400933Y-70804266D01*
X117267600Y-69804266D02*
X117734266Y-69804266D01*
X117000933Y-69970933D02*
X117500933Y-70137600D01*
X117500933Y-69704266D01*
X117634266Y-73604266D02*
X117300933Y-73837600D01*
X117634266Y-74004266D02*
X116934266Y-74004266D01*
X116934266Y-73737600D01*
X116967600Y-73670933D01*
X117000933Y-73637600D01*
X117067600Y-73604266D01*
X117167600Y-73604266D01*
X117234266Y-73637600D01*
X117267600Y-73670933D01*
X117300933Y-73737600D01*
X117300933Y-74004266D01*
X116934266Y-73370933D02*
X116934266Y-72937600D01*
X117200933Y-73170933D01*
X117200933Y-73070933D01*
X117234266Y-73004266D01*
X117267600Y-72970933D01*
X117334266Y-72937600D01*
X117500933Y-72937600D01*
X117567600Y-72970933D01*
X117600933Y-73004266D01*
X117634266Y-73070933D01*
X117634266Y-73270933D01*
X117600933Y-73337600D01*
X117567600Y-73370933D01*
X123900933Y-76004266D02*
X123667600Y-75670933D01*
X123500933Y-76004266D02*
X123500933Y-75304266D01*
X123767600Y-75304266D01*
X123834266Y-75337600D01*
X123867600Y-75370933D01*
X123900933Y-75437600D01*
X123900933Y-75537600D01*
X123867600Y-75604266D01*
X123834266Y-75637600D01*
X123767600Y-75670933D01*
X123500933Y-75670933D01*
X124167600Y-75370933D02*
X124200933Y-75337600D01*
X124267600Y-75304266D01*
X124434266Y-75304266D01*
X124500933Y-75337600D01*
X124534266Y-75370933D01*
X124567600Y-75437600D01*
X124567600Y-75504266D01*
X124534266Y-75604266D01*
X124134266Y-76004266D01*
X124567600Y-76004266D01*
X117634266Y-68004266D02*
X117300933Y-68237600D01*
X117634266Y-68404266D02*
X116934266Y-68404266D01*
X116934266Y-68137600D01*
X116967600Y-68070933D01*
X117000933Y-68037600D01*
X117067600Y-68004266D01*
X117167600Y-68004266D01*
X117234266Y-68037600D01*
X117267600Y-68070933D01*
X117300933Y-68137600D01*
X117300933Y-68404266D01*
X117634266Y-67337600D02*
X117634266Y-67737600D01*
X117634266Y-67537600D02*
X116934266Y-67537600D01*
X117034266Y-67604266D01*
X117100933Y-67670933D01*
X117134266Y-67737600D01*
X112700933Y-67837600D02*
X112667600Y-67870933D01*
X112567600Y-67904266D01*
X112500933Y-67904266D01*
X112400933Y-67870933D01*
X112334266Y-67804266D01*
X112300933Y-67737600D01*
X112267600Y-67604266D01*
X112267600Y-67504266D01*
X112300933Y-67370933D01*
X112334266Y-67304266D01*
X112400933Y-67237600D01*
X112500933Y-67204266D01*
X112567600Y-67204266D01*
X112667600Y-67237600D01*
X112700933Y-67270933D01*
X112934266Y-67204266D02*
X113367600Y-67204266D01*
X113134266Y-67470933D01*
X113234266Y-67470933D01*
X113300933Y-67504266D01*
X113334266Y-67537600D01*
X113367600Y-67604266D01*
X113367600Y-67770933D01*
X113334266Y-67837600D01*
X113300933Y-67870933D01*
X113234266Y-67904266D01*
X113034266Y-67904266D01*
X112967600Y-67870933D01*
X112934266Y-67837600D01*
X123600933Y-62037600D02*
X123567600Y-62070933D01*
X123467600Y-62104266D01*
X123400933Y-62104266D01*
X123300933Y-62070933D01*
X123234266Y-62004266D01*
X123200933Y-61937600D01*
X123167600Y-61804266D01*
X123167600Y-61704266D01*
X123200933Y-61570933D01*
X123234266Y-61504266D01*
X123300933Y-61437600D01*
X123400933Y-61404266D01*
X123467600Y-61404266D01*
X123567600Y-61437600D01*
X123600933Y-61470933D01*
X123867600Y-61470933D02*
X123900933Y-61437600D01*
X123967600Y-61404266D01*
X124134266Y-61404266D01*
X124200933Y-61437600D01*
X124234266Y-61470933D01*
X124267600Y-61537600D01*
X124267600Y-61604266D01*
X124234266Y-61704266D01*
X123834266Y-62104266D01*
X124267600Y-62104266D01*
X128300933Y-84754266D02*
X128334266Y-84654266D01*
X128334266Y-84487600D01*
X128300933Y-84420933D01*
X128267600Y-84387600D01*
X128200933Y-84354266D01*
X128134266Y-84354266D01*
X128067600Y-84387600D01*
X128034266Y-84420933D01*
X128000933Y-84487600D01*
X127967600Y-84620933D01*
X127934266Y-84687600D01*
X127900933Y-84720933D01*
X127834266Y-84754266D01*
X127767600Y-84754266D01*
X127700933Y-84720933D01*
X127667600Y-84687600D01*
X127634266Y-84620933D01*
X127634266Y-84454266D01*
X127667600Y-84354266D01*
X127967600Y-84054266D02*
X127967600Y-83820933D01*
X128334266Y-83720933D02*
X128334266Y-84054266D01*
X127634266Y-84054266D01*
X127634266Y-83720933D01*
X128334266Y-83420933D02*
X127634266Y-83420933D01*
X128334266Y-83020933D01*
X127634266Y-83020933D01*
X128300933Y-82720933D02*
X128334266Y-82620933D01*
X128334266Y-82454266D01*
X128300933Y-82387600D01*
X128267600Y-82354266D01*
X128200933Y-82320933D01*
X128134266Y-82320933D01*
X128067600Y-82354266D01*
X128034266Y-82387600D01*
X128000933Y-82454266D01*
X127967600Y-82587600D01*
X127934266Y-82654266D01*
X127900933Y-82687600D01*
X127834266Y-82720933D01*
X127767600Y-82720933D01*
X127700933Y-82687600D01*
X127667600Y-82654266D01*
X127634266Y-82587600D01*
X127634266Y-82420933D01*
X127667600Y-82320933D01*
X127634266Y-81887600D02*
X127634266Y-81754266D01*
X127667600Y-81687600D01*
X127734266Y-81620933D01*
X127867600Y-81587600D01*
X128100933Y-81587600D01*
X128234266Y-81620933D01*
X128300933Y-81687600D01*
X128334266Y-81754266D01*
X128334266Y-81887600D01*
X128300933Y-81954266D01*
X128234266Y-82020933D01*
X128100933Y-82054266D01*
X127867600Y-82054266D01*
X127734266Y-82020933D01*
X127667600Y-81954266D01*
X127634266Y-81887600D01*
X128334266Y-80887600D02*
X128000933Y-81120933D01*
X128334266Y-81287600D02*
X127634266Y-81287600D01*
X127634266Y-81020933D01*
X127667600Y-80954266D01*
X127700933Y-80920933D01*
X127767600Y-80887600D01*
X127867600Y-80887600D01*
X127934266Y-80920933D01*
X127967600Y-80954266D01*
X128000933Y-81020933D01*
X128000933Y-81287600D01*
X128334266Y-80220933D02*
X128334266Y-80620933D01*
X128334266Y-80420933D02*
X127634266Y-80420933D01*
X127734266Y-80487600D01*
X127800933Y-80554266D01*
X127834266Y-80620933D01*
X114784266Y-97004266D02*
X114784266Y-97504266D01*
X114750933Y-97604266D01*
X114684266Y-97670933D01*
X114584266Y-97704266D01*
X114517600Y-97704266D01*
X115084266Y-97070933D02*
X115117600Y-97037600D01*
X115184266Y-97004266D01*
X115350933Y-97004266D01*
X115417600Y-97037600D01*
X115450933Y-97070933D01*
X115484266Y-97137600D01*
X115484266Y-97204266D01*
X115450933Y-97304266D01*
X115050933Y-97704266D01*
X115484266Y-97704266D01*
X126634266Y-96737600D02*
X125934266Y-96737600D01*
X125934266Y-96470933D01*
X125967600Y-96404266D01*
X126000933Y-96370933D01*
X126067600Y-96337600D01*
X126167600Y-96337600D01*
X126234266Y-96370933D01*
X126267600Y-96404266D01*
X126300933Y-96470933D01*
X126300933Y-96737600D01*
X125934266Y-95904266D02*
X125934266Y-95770933D01*
X125967600Y-95704266D01*
X126034266Y-95637600D01*
X126167600Y-95604266D01*
X126400933Y-95604266D01*
X126534266Y-95637600D01*
X126600933Y-95704266D01*
X126634266Y-95770933D01*
X126634266Y-95904266D01*
X126600933Y-95970933D01*
X126534266Y-96037600D01*
X126400933Y-96070933D01*
X126167600Y-96070933D01*
X126034266Y-96037600D01*
X125967600Y-95970933D01*
X125934266Y-95904266D01*
X125934266Y-95370933D02*
X126634266Y-95204266D01*
X126134266Y-95070933D01*
X126634266Y-94937600D01*
X125934266Y-94770933D01*
X126267600Y-94504266D02*
X126267600Y-94270933D01*
X126634266Y-94170933D02*
X126634266Y-94504266D01*
X125934266Y-94504266D01*
X125934266Y-94170933D01*
X126634266Y-93470933D02*
X126300933Y-93704266D01*
X126634266Y-93870933D02*
X125934266Y-93870933D01*
X125934266Y-93604266D01*
X125967600Y-93537600D01*
X126000933Y-93504266D01*
X126067600Y-93470933D01*
X126167600Y-93470933D01*
X126234266Y-93504266D01*
X126267600Y-93537600D01*
X126300933Y-93604266D01*
X126300933Y-93870933D01*
X126634266Y-92804266D02*
X126634266Y-93204266D01*
X126634266Y-93004266D02*
X125934266Y-93004266D01*
X126034266Y-93070933D01*
X126100933Y-93137600D01*
X126134266Y-93204266D01*
X124134266Y-70820933D02*
X124134266Y-70487600D01*
X124334266Y-70887600D02*
X123634266Y-70654266D01*
X124334266Y-70420933D01*
X123634266Y-70287600D02*
X123634266Y-69887600D01*
X124334266Y-70087600D02*
X123634266Y-70087600D01*
X123634266Y-69754266D02*
X123634266Y-69354266D01*
X124334266Y-69554266D02*
X123634266Y-69554266D01*
X124334266Y-69120933D02*
X123634266Y-69120933D01*
X124334266Y-68787600D02*
X123634266Y-68787600D01*
X124334266Y-68387600D01*
X123634266Y-68387600D01*
X124000933Y-67920933D02*
X124334266Y-67920933D01*
X123634266Y-68154266D02*
X124000933Y-67920933D01*
X123634266Y-67687600D01*
X123934266Y-67354266D02*
X123900933Y-67420933D01*
X123867600Y-67454266D01*
X123800933Y-67487600D01*
X123767600Y-67487600D01*
X123700933Y-67454266D01*
X123667600Y-67420933D01*
X123634266Y-67354266D01*
X123634266Y-67220933D01*
X123667600Y-67154266D01*
X123700933Y-67120933D01*
X123767600Y-67087600D01*
X123800933Y-67087600D01*
X123867600Y-67120933D01*
X123900933Y-67154266D01*
X123934266Y-67220933D01*
X123934266Y-67354266D01*
X123967600Y-67420933D01*
X124000933Y-67454266D01*
X124067600Y-67487600D01*
X124200933Y-67487600D01*
X124267600Y-67454266D01*
X124300933Y-67420933D01*
X124334266Y-67354266D01*
X124334266Y-67220933D01*
X124300933Y-67154266D01*
X124267600Y-67120933D01*
X124200933Y-67087600D01*
X124067600Y-67087600D01*
X124000933Y-67120933D01*
X123967600Y-67154266D01*
X123934266Y-67220933D01*
X123867600Y-66487600D02*
X124334266Y-66487600D01*
X123600933Y-66654266D02*
X124100933Y-66820933D01*
X124100933Y-66387600D01*
X124334266Y-65754266D02*
X124334266Y-66154266D01*
X124334266Y-65954266D02*
X123634266Y-65954266D01*
X123734266Y-66020933D01*
X123800933Y-66087600D01*
X123834266Y-66154266D01*
X108234266Y-49937600D02*
X107900933Y-50170933D01*
X108234266Y-50337600D02*
X107534266Y-50337600D01*
X107534266Y-50070933D01*
X107567600Y-50004266D01*
X107600933Y-49970933D01*
X107667600Y-49937600D01*
X107767600Y-49937600D01*
X107834266Y-49970933D01*
X107867600Y-50004266D01*
X107900933Y-50070933D01*
X107900933Y-50337600D01*
X107534266Y-49704266D02*
X108234266Y-49237600D01*
X107534266Y-49237600D02*
X108234266Y-49704266D01*
X108234266Y-48604266D02*
X108234266Y-49004266D01*
X108234266Y-48804266D02*
X107534266Y-48804266D01*
X107634266Y-48870933D01*
X107700933Y-48937600D01*
X107734266Y-49004266D01*
X123700933Y-61704266D02*
X123700933Y-61004266D01*
X123867600Y-61004266D01*
X123967600Y-61037600D01*
X124034266Y-61104266D01*
X124067600Y-61170933D01*
X124100933Y-61304266D01*
X124100933Y-61404266D01*
X124067600Y-61537600D01*
X124034266Y-61604266D01*
X123967600Y-61670933D01*
X123867600Y-61704266D01*
X123700933Y-61704266D01*
X124767600Y-61704266D02*
X124367600Y-61704266D01*
X124567600Y-61704266D02*
X124567600Y-61004266D01*
X124500933Y-61104266D01*
X124434266Y-61170933D01*
X124367600Y-61204266D01*
X114950933Y-67270933D02*
X114884266Y-67237600D01*
X114817600Y-67170933D01*
X114717600Y-67070933D01*
X114650933Y-67037600D01*
X114584266Y-67037600D01*
X114617600Y-67204266D02*
X114550933Y-67170933D01*
X114484266Y-67104266D01*
X114450933Y-66970933D01*
X114450933Y-66737600D01*
X114484266Y-66604266D01*
X114550933Y-66537600D01*
X114617600Y-66504266D01*
X114750933Y-66504266D01*
X114817600Y-66537600D01*
X114884266Y-66604266D01*
X114917600Y-66737600D01*
X114917600Y-66970933D01*
X114884266Y-67104266D01*
X114817600Y-67170933D01*
X114750933Y-67204266D01*
X114617600Y-67204266D01*
X115584266Y-67204266D02*
X115184266Y-67204266D01*
X115384266Y-67204266D02*
X115384266Y-66504266D01*
X115317600Y-66604266D01*
X115250933Y-66670933D01*
X115184266Y-66704266D01*
X109984266Y-69254266D02*
X109650933Y-69487600D01*
X109984266Y-69654266D02*
X109284266Y-69654266D01*
X109284266Y-69387600D01*
X109317600Y-69320933D01*
X109350933Y-69287600D01*
X109417600Y-69254266D01*
X109517600Y-69254266D01*
X109584266Y-69287600D01*
X109617600Y-69320933D01*
X109650933Y-69387600D01*
X109650933Y-69654266D01*
X109284266Y-68654266D02*
X109284266Y-68787600D01*
X109317600Y-68854266D01*
X109350933Y-68887600D01*
X109450933Y-68954266D01*
X109584266Y-68987600D01*
X109850933Y-68987600D01*
X109917600Y-68954266D01*
X109950933Y-68920933D01*
X109984266Y-68854266D01*
X109984266Y-68720933D01*
X109950933Y-68654266D01*
X109917600Y-68620933D01*
X109850933Y-68587600D01*
X109684266Y-68587600D01*
X109617600Y-68620933D01*
X109584266Y-68654266D01*
X109550933Y-68720933D01*
X109550933Y-68854266D01*
X109584266Y-68920933D01*
X109617600Y-68954266D01*
X109684266Y-68987600D01*
X109984266Y-79304266D02*
X109650933Y-79537600D01*
X109984266Y-79704266D02*
X109284266Y-79704266D01*
X109284266Y-79437600D01*
X109317600Y-79370933D01*
X109350933Y-79337600D01*
X109417600Y-79304266D01*
X109517600Y-79304266D01*
X109584266Y-79337600D01*
X109617600Y-79370933D01*
X109650933Y-79437600D01*
X109650933Y-79704266D01*
X109284266Y-79070933D02*
X109284266Y-78604266D01*
X109984266Y-78904266D01*
X105584266Y-68992666D02*
X105250933Y-69226000D01*
X105584266Y-69392666D02*
X104884266Y-69392666D01*
X104884266Y-69126000D01*
X104917600Y-69059333D01*
X104950933Y-69026000D01*
X105017600Y-68992666D01*
X105117600Y-68992666D01*
X105184266Y-69026000D01*
X105217600Y-69059333D01*
X105250933Y-69126000D01*
X105250933Y-69392666D01*
X105184266Y-68592666D02*
X105150933Y-68659333D01*
X105117600Y-68692666D01*
X105050933Y-68726000D01*
X105017600Y-68726000D01*
X104950933Y-68692666D01*
X104917600Y-68659333D01*
X104884266Y-68592666D01*
X104884266Y-68459333D01*
X104917600Y-68392666D01*
X104950933Y-68359333D01*
X105017600Y-68326000D01*
X105050933Y-68326000D01*
X105117600Y-68359333D01*
X105150933Y-68392666D01*
X105184266Y-68459333D01*
X105184266Y-68592666D01*
X105217600Y-68659333D01*
X105250933Y-68692666D01*
X105317600Y-68726000D01*
X105450933Y-68726000D01*
X105517600Y-68692666D01*
X105550933Y-68659333D01*
X105584266Y-68592666D01*
X105584266Y-68459333D01*
X105550933Y-68392666D01*
X105517600Y-68359333D01*
X105450933Y-68326000D01*
X105317600Y-68326000D01*
X105250933Y-68359333D01*
X105217600Y-68392666D01*
X105184266Y-68459333D01*
X105584266Y-79615866D02*
X105250933Y-79849200D01*
X105584266Y-80015866D02*
X104884266Y-80015866D01*
X104884266Y-79749200D01*
X104917600Y-79682533D01*
X104950933Y-79649200D01*
X105017600Y-79615866D01*
X105117600Y-79615866D01*
X105184266Y-79649200D01*
X105217600Y-79682533D01*
X105250933Y-79749200D01*
X105250933Y-80015866D01*
X105584266Y-79282533D02*
X105584266Y-79149200D01*
X105550933Y-79082533D01*
X105517600Y-79049200D01*
X105417600Y-78982533D01*
X105284266Y-78949200D01*
X105017600Y-78949200D01*
X104950933Y-78982533D01*
X104917600Y-79015866D01*
X104884266Y-79082533D01*
X104884266Y-79215866D01*
X104917600Y-79282533D01*
X104950933Y-79315866D01*
X105017600Y-79349200D01*
X105184266Y-79349200D01*
X105250933Y-79315866D01*
X105284266Y-79282533D01*
X105317600Y-79215866D01*
X105317600Y-79082533D01*
X105284266Y-79015866D01*
X105250933Y-78982533D01*
X105184266Y-78949200D01*
X105584266Y-61537600D02*
X105250933Y-61770933D01*
X105584266Y-61937600D02*
X104884266Y-61937600D01*
X104884266Y-61670933D01*
X104917600Y-61604266D01*
X104950933Y-61570933D01*
X105017600Y-61537600D01*
X105117600Y-61537600D01*
X105184266Y-61570933D01*
X105217600Y-61604266D01*
X105250933Y-61670933D01*
X105250933Y-61937600D01*
X105584266Y-60870933D02*
X105584266Y-61270933D01*
X105584266Y-61070933D02*
X104884266Y-61070933D01*
X104984266Y-61137600D01*
X105050933Y-61204266D01*
X105084266Y-61270933D01*
X104884266Y-60437600D02*
X104884266Y-60370933D01*
X104917600Y-60304266D01*
X104950933Y-60270933D01*
X105017600Y-60237600D01*
X105150933Y-60204266D01*
X105317600Y-60204266D01*
X105450933Y-60237600D01*
X105517600Y-60270933D01*
X105550933Y-60304266D01*
X105584266Y-60370933D01*
X105584266Y-60437600D01*
X105550933Y-60504266D01*
X105517600Y-60537600D01*
X105450933Y-60570933D01*
X105317600Y-60604266D01*
X105150933Y-60604266D01*
X105017600Y-60570933D01*
X104950933Y-60537600D01*
X104917600Y-60504266D01*
X104884266Y-60437600D01*
X105584266Y-88049200D02*
X105250933Y-88282533D01*
X105584266Y-88449200D02*
X104884266Y-88449200D01*
X104884266Y-88182533D01*
X104917600Y-88115866D01*
X104950933Y-88082533D01*
X105017600Y-88049200D01*
X105117600Y-88049200D01*
X105184266Y-88082533D01*
X105217600Y-88115866D01*
X105250933Y-88182533D01*
X105250933Y-88449200D01*
X105584266Y-87382533D02*
X105584266Y-87782533D01*
X105584266Y-87582533D02*
X104884266Y-87582533D01*
X104984266Y-87649200D01*
X105050933Y-87715866D01*
X105084266Y-87782533D01*
X105584266Y-86715866D02*
X105584266Y-87115866D01*
X105584266Y-86915866D02*
X104884266Y-86915866D01*
X104984266Y-86982533D01*
X105050933Y-87049200D01*
X105084266Y-87115866D01*
X109984266Y-61537600D02*
X109650933Y-61770933D01*
X109984266Y-61937600D02*
X109284266Y-61937600D01*
X109284266Y-61670933D01*
X109317600Y-61604266D01*
X109350933Y-61570933D01*
X109417600Y-61537600D01*
X109517600Y-61537600D01*
X109584266Y-61570933D01*
X109617600Y-61604266D01*
X109650933Y-61670933D01*
X109650933Y-61937600D01*
X109984266Y-60870933D02*
X109984266Y-61270933D01*
X109984266Y-61070933D02*
X109284266Y-61070933D01*
X109384266Y-61137600D01*
X109450933Y-61204266D01*
X109484266Y-61270933D01*
X109350933Y-60604266D02*
X109317600Y-60570933D01*
X109284266Y-60504266D01*
X109284266Y-60337600D01*
X109317600Y-60270933D01*
X109350933Y-60237600D01*
X109417600Y-60204266D01*
X109484266Y-60204266D01*
X109584266Y-60237600D01*
X109984266Y-60637600D01*
X109984266Y-60204266D01*
X109984266Y-87899200D02*
X109650933Y-88132533D01*
X109984266Y-88299200D02*
X109284266Y-88299200D01*
X109284266Y-88032533D01*
X109317600Y-87965866D01*
X109350933Y-87932533D01*
X109417600Y-87899200D01*
X109517600Y-87899200D01*
X109584266Y-87932533D01*
X109617600Y-87965866D01*
X109650933Y-88032533D01*
X109650933Y-88299200D01*
X109984266Y-87232533D02*
X109984266Y-87632533D01*
X109984266Y-87432533D02*
X109284266Y-87432533D01*
X109384266Y-87499200D01*
X109450933Y-87565866D01*
X109484266Y-87632533D01*
X109284266Y-86999200D02*
X109284266Y-86565866D01*
X109550933Y-86799200D01*
X109550933Y-86699200D01*
X109584266Y-86632533D01*
X109617600Y-86599200D01*
X109684266Y-86565866D01*
X109850933Y-86565866D01*
X109917600Y-86599200D01*
X109950933Y-86632533D01*
X109984266Y-86699200D01*
X109984266Y-86899200D01*
X109950933Y-86965866D01*
X109917600Y-86999200D01*
M02*
