G04 #@! TF.GenerationSoftware,KiCad,Pcbnew,(5.1.0)-1*
G04 #@! TF.CreationDate,2019-04-18T12:11:20+01:00*
G04 #@! TF.ProjectId,v4,76342e6b-6963-4616-945f-706362585858,rev?*
G04 #@! TF.SameCoordinates,Original*
G04 #@! TF.FileFunction,Copper,L1,Top*
G04 #@! TF.FilePolarity,Positive*
%FSLAX46Y46*%
G04 Gerber Fmt 4.6, Leading zero omitted, Abs format (unit mm)*
G04 Created by KiCad (PCBNEW (5.1.0)-1) date 2019-04-18 12:11:20*
%MOMM*%
%LPD*%
G04 APERTURE LIST*
%ADD10R,1.200000X1.700000*%
%ADD11O,1.200000X1.700000*%
%ADD12R,1.500000X1.250000*%
%ADD13R,1.700000X1.700000*%
%ADD14O,1.700000X1.700000*%
%ADD15R,1.500000X1.300000*%
%ADD16R,1.500000X0.600000*%
%ADD17R,1.300000X0.800000*%
%ADD18R,0.800000X0.900000*%
%ADD19R,1.300000X1.500000*%
%ADD20R,2.000000X2.000000*%
%ADD21R,3.200000X1.000000*%
%ADD22C,0.800000*%
%ADD23C,0.600000*%
%ADD24C,0.300000*%
%ADD25C,1.000000*%
%ADD26C,0.254000*%
G04 APERTURE END LIST*
D10*
X65532000Y-97180400D03*
D11*
X67532000Y-97180400D03*
D12*
X67380800Y-75438000D03*
X69880800Y-75438000D03*
D13*
X55118000Y-86410800D03*
D14*
X55118000Y-83870800D03*
X55118000Y-81330800D03*
X55118000Y-78790800D03*
X55118000Y-76250800D03*
D15*
X66214000Y-84023200D03*
X68914000Y-84023200D03*
X80844400Y-82550000D03*
X83544400Y-82550000D03*
D13*
X62636400Y-86410800D03*
D14*
X60096400Y-86410800D03*
X62636400Y-83870800D03*
X60096400Y-83870800D03*
X62636400Y-81330800D03*
X60096400Y-81330800D03*
D12*
X76055200Y-96824800D03*
X73555200Y-96824800D03*
D10*
X82143600Y-96875600D03*
D11*
X84143600Y-96875600D03*
D15*
X81664800Y-90322400D03*
X78964800Y-90322400D03*
D16*
X76055200Y-94132400D03*
X76055200Y-92862400D03*
X76055200Y-91592400D03*
X76055200Y-90322400D03*
X76055200Y-89052400D03*
X76055200Y-87782400D03*
X76055200Y-86512400D03*
X70655200Y-86512400D03*
X70655200Y-87782400D03*
X70655200Y-89052400D03*
X70655200Y-90322400D03*
X70655200Y-91592400D03*
X70655200Y-92862400D03*
X70655200Y-94132400D03*
D12*
X85465600Y-91948000D03*
X87965600Y-91948000D03*
D10*
X58572400Y-97180400D03*
D11*
X60572400Y-97180400D03*
D15*
X64588400Y-93522800D03*
X67288400Y-93522800D03*
X64443600Y-91338400D03*
X61743600Y-91338400D03*
X61649600Y-93522800D03*
X58949600Y-93522800D03*
X73892400Y-99212400D03*
X71192400Y-99212400D03*
X66214000Y-81889600D03*
X68914000Y-81889600D03*
X56823600Y-93522800D03*
X54123600Y-93522800D03*
X80852000Y-84582000D03*
X78152000Y-84582000D03*
D17*
X77775200Y-102544800D03*
X77775200Y-101264800D03*
X71475200Y-101264800D03*
X71475200Y-102544800D03*
D18*
X85714800Y-90103200D03*
X87614800Y-90103200D03*
X86664800Y-88103200D03*
D15*
X85924400Y-82550000D03*
X88624400Y-82550000D03*
X75916800Y-82550000D03*
X78616800Y-82550000D03*
D18*
X67274400Y-73325600D03*
X69174400Y-73325600D03*
X68224400Y-71325600D03*
D19*
X71323200Y-64537600D03*
X71323200Y-67237600D03*
D15*
X59102000Y-75387200D03*
X61802000Y-75387200D03*
X78964800Y-92862400D03*
X81664800Y-92862400D03*
D20*
X79349600Y-87680800D03*
D21*
X89357200Y-67389200D03*
X89357200Y-61189200D03*
X53797200Y-67389200D03*
X53797200Y-61189200D03*
X84565066Y-61199200D03*
X84565066Y-67399200D03*
X58606266Y-61199200D03*
X58606266Y-67399200D03*
X79772933Y-67389200D03*
X79772933Y-61189200D03*
X63415332Y-67389200D03*
X63415332Y-61189200D03*
X74980800Y-61199200D03*
X74980800Y-67399200D03*
X68224400Y-61199200D03*
X68224400Y-67399200D03*
D22*
X78333600Y-99822000D03*
X72390000Y-77520804D03*
X72288405Y-75895205D03*
X64008000Y-99872800D03*
X72390000Y-79705200D03*
X72339200Y-76708000D03*
X73736200Y-81051400D03*
X83464413Y-92201987D03*
X59791600Y-88862790D03*
X73914000Y-90373200D03*
X70408798Y-69138800D03*
X62890400Y-73863200D03*
X73080786Y-85926499D03*
X67970400Y-85953600D03*
X70655200Y-85046802D03*
X71272401Y-82296000D03*
X68484309Y-91822789D03*
X74121337Y-86283261D03*
X67259200Y-88442800D03*
X72997155Y-92176446D03*
X63138384Y-93218000D03*
X73221586Y-95134810D03*
X71725337Y-96044171D03*
X71755642Y-68758444D03*
X78790800Y-94212414D03*
X68834000Y-93522800D03*
X56692800Y-91033600D03*
X73932092Y-91596861D03*
X77470000Y-95402400D03*
X54356000Y-89103200D03*
D23*
X87965600Y-90454000D02*
X87614800Y-90103200D01*
X87965600Y-91948000D02*
X87965600Y-90454000D01*
D24*
X58949600Y-93522800D02*
X56823600Y-93522800D01*
D25*
X69718800Y-73325600D02*
X69174400Y-73325600D01*
X72288400Y-75895200D02*
X70510400Y-74117200D01*
D24*
X72339200Y-75895200D02*
X72288400Y-75895200D01*
X60096400Y-78994000D02*
X61214000Y-77876400D01*
X60096400Y-81330800D02*
X60096400Y-78994000D01*
D25*
X70510400Y-74117200D02*
X69718800Y-73325600D01*
X72288400Y-75895200D02*
X72288405Y-75895205D01*
D24*
X72288405Y-77419209D02*
X72390000Y-77520804D01*
D25*
X72288405Y-75895205D02*
X72390000Y-75996800D01*
D24*
X70510400Y-74754400D02*
X70510400Y-74117200D01*
X61802000Y-77288400D02*
X61214000Y-77876400D01*
X61802000Y-75387200D02*
X61802000Y-77288400D01*
X56743600Y-77876400D02*
X55118000Y-76250800D01*
X61214000Y-77876400D02*
X56743600Y-77876400D01*
D25*
X72390000Y-75996800D02*
X72390000Y-77317614D01*
D24*
X78333600Y-99944400D02*
X78333600Y-99822000D01*
X77775200Y-100380400D02*
X78333600Y-99822000D01*
X77775200Y-101264800D02*
X77775200Y-100380400D01*
X77775200Y-100178000D02*
X77775200Y-101264800D01*
X76875700Y-99278500D02*
X77775200Y-100178000D01*
X76133900Y-99278500D02*
X76875700Y-99278500D01*
X73555200Y-96824800D02*
X73680200Y-96824800D01*
X73680200Y-96824800D02*
X76133900Y-99278500D01*
X71198400Y-79705200D02*
X72390000Y-79705200D01*
X69014000Y-81889600D02*
X71198400Y-79705200D01*
X68914000Y-81889600D02*
X69014000Y-81889600D01*
D25*
X69880800Y-75384000D02*
X70510400Y-74754400D01*
D24*
X69880800Y-75438000D02*
X69880800Y-75384000D01*
X80852000Y-82557600D02*
X80844400Y-82550000D01*
X80852000Y-84582000D02*
X80852000Y-82557600D01*
X73949166Y-80838434D02*
X73736200Y-81051400D01*
X80844400Y-82550000D02*
X80744400Y-82550000D01*
X80744400Y-82550000D02*
X79032834Y-80838434D01*
X79032834Y-80838434D02*
X73949166Y-80838434D01*
D23*
X87965600Y-92831600D02*
X87965600Y-91948000D01*
X86766400Y-94030800D02*
X87965600Y-92831600D01*
X84738400Y-94030800D02*
X86766400Y-94030800D01*
X82143600Y-96875600D02*
X82143600Y-96625600D01*
X82143600Y-96625600D02*
X84738400Y-94030800D01*
D24*
X81664800Y-92862400D02*
X82804000Y-92862400D01*
X82804000Y-92862400D02*
X83464413Y-92201987D01*
X72371585Y-95398785D02*
X71105200Y-94132400D01*
X73555200Y-96675626D02*
X72371585Y-95492011D01*
X71105200Y-94132400D02*
X70655200Y-94132400D01*
X72371585Y-95492011D02*
X72371585Y-95398785D01*
X73555200Y-96824800D02*
X73555200Y-96675626D01*
X58949600Y-93522800D02*
X58949600Y-93881345D01*
X60389069Y-95222812D02*
X64008000Y-98841743D01*
X60291067Y-95222812D02*
X60389069Y-95222812D01*
X64008000Y-99307115D02*
X64008000Y-99872800D01*
X64008000Y-98841743D02*
X64008000Y-99307115D01*
X58949600Y-93881345D02*
X60291067Y-95222812D01*
X84067600Y-86969600D02*
X90322400Y-86969600D01*
X81664800Y-89372400D02*
X84067600Y-86969600D01*
X81664800Y-90322400D02*
X81664800Y-89372400D01*
D25*
X90322400Y-77054400D02*
X90322400Y-86969600D01*
D24*
X90322400Y-77431600D02*
X90322400Y-77054400D01*
X76055200Y-94132400D02*
X76055200Y-95625198D01*
X76055200Y-96824800D02*
X76055200Y-95625198D01*
X76055200Y-95625198D02*
X76086402Y-95656400D01*
X76086402Y-95656400D02*
X76047600Y-97434400D01*
D25*
X89357200Y-76089200D02*
X90322400Y-77054400D01*
X89357200Y-68326000D02*
X89357200Y-76089200D01*
D24*
X59778010Y-88849200D02*
X59791600Y-88862790D01*
X56286400Y-88849200D02*
X59778010Y-88849200D01*
X55067200Y-90068400D02*
X56286400Y-88849200D01*
X52730400Y-89142002D02*
X53656798Y-90068400D01*
X53656798Y-90068400D02*
X55067200Y-90068400D01*
D25*
X84378980Y-97110980D02*
X84143600Y-96875600D01*
X86833420Y-97110980D02*
X84378980Y-97110980D01*
X90322400Y-86969600D02*
X90322400Y-93622000D01*
X90322400Y-93622000D02*
X86833420Y-97110980D01*
D24*
X84143600Y-97669600D02*
X84143600Y-96875600D01*
X83261200Y-98552000D02*
X84143600Y-97669600D01*
X76857400Y-98552000D02*
X83261200Y-98552000D01*
X76055200Y-96824800D02*
X76055200Y-97749800D01*
X76055200Y-97749800D02*
X76857400Y-98552000D01*
D25*
X86307600Y-62839600D02*
X84582000Y-62839600D01*
X89357200Y-68239200D02*
X89357200Y-65889200D01*
X89357200Y-65889200D02*
X86307600Y-62839600D01*
X53797200Y-67448800D02*
X58406400Y-62839600D01*
X58406400Y-62839600D02*
X85456815Y-62839600D01*
D24*
X52730400Y-69748400D02*
X53797200Y-68681600D01*
X52730400Y-89142002D02*
X52730400Y-69748400D01*
X53797200Y-67389200D02*
X53797200Y-68681600D01*
X55422800Y-91834402D02*
X52730400Y-89142002D01*
X55422800Y-94332002D02*
X55422800Y-91834402D01*
X55713599Y-94622801D02*
X55422800Y-94332002D01*
X58264801Y-94622801D02*
X55713599Y-94622801D01*
X60572400Y-97180400D02*
X60572400Y-96930400D01*
X60572400Y-96930400D02*
X58264801Y-94622801D01*
X78964800Y-90322400D02*
X76055200Y-90322400D01*
X73964800Y-90322400D02*
X73914000Y-90373200D01*
X76055200Y-90322400D02*
X73964800Y-90322400D01*
X71323200Y-67237600D02*
X71323200Y-67337600D01*
X70373200Y-68287600D02*
X70373200Y-69103202D01*
X71323200Y-67337600D02*
X70373200Y-68287600D01*
X70373200Y-69103202D02*
X70408798Y-69138800D01*
X59102000Y-75387200D02*
X59202000Y-75387200D01*
X63950799Y-82556401D02*
X63950799Y-74923599D01*
X59202000Y-75387200D02*
X60726000Y-73863200D01*
X60726000Y-73863200D02*
X62890400Y-73863200D01*
X63950799Y-74923599D02*
X62890400Y-73863200D01*
X62636400Y-83870800D02*
X63950799Y-82556401D01*
X69605200Y-87782400D02*
X70655200Y-87782400D01*
X62636400Y-83870800D02*
X65758387Y-86992787D01*
X68815587Y-86992787D02*
X69605200Y-87782400D01*
X65758387Y-86992787D02*
X68815587Y-86992787D01*
X73778483Y-85228802D02*
X73080786Y-85926499D01*
X73978398Y-85228802D02*
X73778483Y-85228802D01*
X75605200Y-86512400D02*
X74321602Y-85228802D01*
X74321602Y-85228802D02*
X73978398Y-85228802D01*
X76055200Y-86512400D02*
X75605200Y-86512400D01*
X78516800Y-82550000D02*
X77416799Y-81449999D01*
X74716799Y-81539999D02*
X74716799Y-84490401D01*
X78616800Y-82550000D02*
X78516800Y-82550000D01*
X77416799Y-81449999D02*
X74806799Y-81449999D01*
X74716799Y-84490401D02*
X73978398Y-85228802D01*
X74806799Y-81449999D02*
X74716799Y-81539999D01*
X69046400Y-85953600D02*
X67970400Y-85953600D01*
X70655200Y-86512400D02*
X69605200Y-86512400D01*
X69605200Y-86512400D02*
X69046400Y-85953600D01*
X70655200Y-86512400D02*
X70655200Y-85046802D01*
X88472000Y-82550000D02*
X85951178Y-80029178D01*
X71672400Y-81896001D02*
X71272401Y-82296000D01*
X73539223Y-80029178D02*
X71672400Y-81896001D01*
X85951178Y-80029178D02*
X73539223Y-80029178D01*
X67532000Y-99551600D02*
X67532000Y-97180400D01*
X70525200Y-102544800D02*
X67532000Y-99551600D01*
X71475200Y-102544800D02*
X70525200Y-102544800D01*
X65532000Y-96113600D02*
X65532000Y-97180400D01*
X70525200Y-101264800D02*
X69240400Y-99980000D01*
X71475200Y-101264800D02*
X70525200Y-101264800D01*
X69240400Y-99980000D02*
X69240400Y-96469200D01*
X69240400Y-96469200D02*
X68376800Y-95605600D01*
X68376800Y-95605600D02*
X66040000Y-95605600D01*
X66040000Y-95605600D02*
X65532000Y-96113600D01*
X54102000Y-93544400D02*
X54123600Y-93522800D01*
X54102000Y-94132400D02*
X54102000Y-93544400D01*
X55192412Y-95222812D02*
X54102000Y-94132400D01*
X58572400Y-97180400D02*
X56614812Y-95222812D01*
X56614812Y-95222812D02*
X55192412Y-95222812D01*
X70655200Y-90322400D02*
X70205200Y-90322400D01*
X70205200Y-90322400D02*
X68704811Y-91822789D01*
X68704811Y-91822789D02*
X68484309Y-91822789D01*
X64443600Y-93378000D02*
X64588400Y-93522800D01*
X64443600Y-91338400D02*
X64443600Y-93378000D01*
X75605200Y-87782400D02*
X74121337Y-86298537D01*
X76055200Y-87782400D02*
X75605200Y-87782400D01*
X74121337Y-86298537D02*
X74121337Y-86283261D01*
X64543600Y-91338400D02*
X67259200Y-88622800D01*
X67259200Y-88622800D02*
X67259200Y-88442800D01*
X64443600Y-91338400D02*
X64543600Y-91338400D01*
X76505200Y-89052400D02*
X76055200Y-89052400D01*
X77876800Y-87680800D02*
X76505200Y-89052400D01*
X79349600Y-87680800D02*
X77876800Y-87680800D01*
X61743600Y-93428800D02*
X61649600Y-93522800D01*
X61743600Y-91338400D02*
X61743600Y-93428800D01*
X72997155Y-89952461D02*
X72997155Y-92176446D01*
X76055200Y-89052400D02*
X73897216Y-89052400D01*
X73897216Y-89052400D02*
X72997155Y-89952461D01*
X61649600Y-93522800D02*
X62833584Y-93522800D01*
X62833584Y-93522800D02*
X63138384Y-93218000D01*
X77094000Y-102544800D02*
X77775200Y-102544800D01*
X73892400Y-99212400D02*
X73892400Y-99343200D01*
X73892400Y-99343200D02*
X77094000Y-102544800D01*
X71192400Y-96577108D02*
X71325338Y-96444170D01*
X70655200Y-91592400D02*
X71105200Y-91592400D01*
X73221586Y-94569125D02*
X73221586Y-95134810D01*
X73221586Y-93708786D02*
X73221586Y-94569125D01*
X71325338Y-96444170D02*
X71725337Y-96044171D01*
X71192400Y-99212400D02*
X71192400Y-96577108D01*
X71105200Y-91592400D02*
X73221586Y-93708786D01*
D25*
X84575066Y-61189200D02*
X84565066Y-61199200D01*
X89357200Y-61189200D02*
X84575066Y-61189200D01*
X53807200Y-61199200D02*
X53797200Y-61189200D01*
X58606266Y-61199200D02*
X53807200Y-61199200D01*
X84555066Y-67389200D02*
X84565066Y-67399200D01*
X79772933Y-67389200D02*
X84555066Y-67389200D01*
X63405332Y-67399200D02*
X63415332Y-67389200D01*
X58606266Y-67399200D02*
X63405332Y-67399200D01*
X77172933Y-61189200D02*
X77162933Y-61199200D01*
X79772933Y-61189200D02*
X77172933Y-61189200D01*
X77162933Y-61199200D02*
X74980800Y-61199200D01*
X63425332Y-61199200D02*
X63415332Y-61189200D01*
X68224400Y-61199200D02*
X63425332Y-61199200D01*
X68224400Y-71325600D02*
X68224400Y-67399200D01*
X71184400Y-71309600D02*
X74980800Y-67513200D01*
X68240400Y-71309600D02*
X71184400Y-71309600D01*
X74980800Y-67513200D02*
X74980800Y-67399200D01*
D24*
X85924400Y-82550000D02*
X85772000Y-82550000D01*
X83544400Y-82577370D02*
X85897030Y-82577370D01*
X85897030Y-82577370D02*
X85924400Y-82550000D01*
X76998800Y-84582000D02*
X78152000Y-84582000D01*
X75916800Y-82550000D02*
X75916800Y-83500000D01*
X75916800Y-83500000D02*
X76998800Y-84582000D01*
D23*
X85714800Y-90103200D02*
X85714800Y-91698800D01*
D24*
X68338400Y-93522800D02*
X67288400Y-93522800D01*
X70205200Y-92862400D02*
X69544800Y-93522800D01*
X70655200Y-92862400D02*
X70205200Y-92862400D01*
X69544800Y-93522800D02*
X68338400Y-93522800D01*
X72586799Y-65901199D02*
X72586799Y-68079687D01*
X71323200Y-64637600D02*
X72586799Y-65901199D01*
X71323200Y-64537600D02*
X71323200Y-64637600D01*
X72586799Y-68079687D02*
X71908042Y-68758444D01*
X71908042Y-68758444D02*
X71755642Y-68758444D01*
D23*
X85714800Y-91698800D02*
X85465600Y-91948000D01*
D24*
X79356485Y-94212414D02*
X78790800Y-94212414D01*
X85340600Y-91948000D02*
X83076186Y-94212414D01*
X83076186Y-94212414D02*
X79356485Y-94212414D01*
X68338400Y-93522800D02*
X68834000Y-93522800D01*
X57505600Y-91846400D02*
X56692800Y-91033600D01*
X59483202Y-91846400D02*
X57505600Y-91846400D01*
X67288400Y-94255600D02*
X66921199Y-94622801D01*
X67288400Y-93522800D02*
X67288400Y-94255600D01*
X66921199Y-94622801D02*
X60539599Y-94622801D01*
X60539599Y-94622801D02*
X60449599Y-94532801D01*
X60449599Y-94532801D02*
X60449599Y-92812797D01*
X60449599Y-92812797D02*
X59483202Y-91846400D01*
X73936553Y-91592400D02*
X73932092Y-91596861D01*
X76055200Y-91592400D02*
X73936553Y-91592400D01*
X78964800Y-92862400D02*
X76055200Y-92862400D01*
X77470000Y-93827200D02*
X77470000Y-95402400D01*
X76505200Y-92862400D02*
X77470000Y-93827200D01*
X76055200Y-92862400D02*
X76505200Y-92862400D01*
X55118000Y-88341200D02*
X54356000Y-89103200D01*
X55118000Y-86410800D02*
X55118000Y-88341200D01*
X72230784Y-87926816D02*
X71105200Y-89052400D01*
X72230784Y-84575184D02*
X72230784Y-87926816D01*
X71678800Y-84023200D02*
X72230784Y-84575184D01*
X68914000Y-84023200D02*
X71678800Y-84023200D01*
X71105200Y-89052400D02*
X70655200Y-89052400D01*
X67274400Y-75331600D02*
X67380800Y-75438000D01*
X67274400Y-73325600D02*
X67274400Y-75331600D01*
X66214000Y-84023200D02*
X66214000Y-81889600D01*
X66214000Y-77550000D02*
X66214000Y-81889600D01*
X67380800Y-75438000D02*
X67380800Y-76383200D01*
X67380800Y-76383200D02*
X66214000Y-77550000D01*
D26*
G36*
X90933200Y-101172825D02*
G01*
X90824466Y-100910318D01*
X90618175Y-100601582D01*
X90355618Y-100339025D01*
X90046882Y-100132734D01*
X89703834Y-99990639D01*
X89339656Y-99918200D01*
X88968344Y-99918200D01*
X88604166Y-99990639D01*
X88261118Y-100132734D01*
X87952382Y-100339025D01*
X87689825Y-100601582D01*
X87483534Y-100910318D01*
X87341439Y-101253366D01*
X87269000Y-101617544D01*
X87269000Y-101988856D01*
X87341439Y-102353034D01*
X87483534Y-102696082D01*
X87689825Y-103004818D01*
X87952382Y-103267375D01*
X88261118Y-103473666D01*
X88523625Y-103582400D01*
X78429992Y-103582400D01*
X78549682Y-103570612D01*
X78669380Y-103534302D01*
X78779694Y-103475337D01*
X78876385Y-103395985D01*
X78955737Y-103299294D01*
X79014702Y-103188980D01*
X79051012Y-103069282D01*
X79063272Y-102944800D01*
X79063272Y-102144800D01*
X79051012Y-102020318D01*
X79015970Y-101904800D01*
X79051012Y-101789282D01*
X79063272Y-101664800D01*
X79060200Y-101550550D01*
X78901450Y-101391800D01*
X77902200Y-101391800D01*
X77902200Y-101411800D01*
X77648200Y-101411800D01*
X77648200Y-101391800D01*
X77628200Y-101391800D01*
X77628200Y-101137800D01*
X77648200Y-101137800D01*
X77648200Y-100388550D01*
X77902200Y-100388550D01*
X77902200Y-101137800D01*
X78901450Y-101137800D01*
X79060200Y-100979050D01*
X79063272Y-100864800D01*
X79051012Y-100740318D01*
X79014702Y-100620620D01*
X78955737Y-100510306D01*
X78876385Y-100413615D01*
X78779694Y-100334263D01*
X78669380Y-100275298D01*
X78549682Y-100238988D01*
X78425200Y-100226728D01*
X78060950Y-100229800D01*
X77902200Y-100388550D01*
X77648200Y-100388550D01*
X77489450Y-100229800D01*
X77125200Y-100226728D01*
X77000718Y-100238988D01*
X76881020Y-100275298D01*
X76770706Y-100334263D01*
X76674015Y-100413615D01*
X76594663Y-100510306D01*
X76535698Y-100620620D01*
X76499388Y-100740318D01*
X76490448Y-100831090D01*
X75280472Y-99621115D01*
X75280472Y-98562400D01*
X75268212Y-98437918D01*
X75231902Y-98318220D01*
X75172937Y-98207906D01*
X75093585Y-98111215D01*
X74996894Y-98031863D01*
X74886580Y-97972898D01*
X74766882Y-97936588D01*
X74718776Y-97931850D01*
X74756385Y-97900985D01*
X74805200Y-97841504D01*
X74854015Y-97900985D01*
X74950706Y-97980337D01*
X75061020Y-98039302D01*
X75180718Y-98075612D01*
X75305200Y-98087872D01*
X75345802Y-98087872D01*
X75399339Y-98188033D01*
X75431618Y-98227364D01*
X75472855Y-98277612D01*
X75472859Y-98277616D01*
X75497437Y-98307564D01*
X75527385Y-98332142D01*
X76275057Y-99079815D01*
X76299636Y-99109764D01*
X76329584Y-99134342D01*
X76329587Y-99134345D01*
X76358959Y-99158450D01*
X76419167Y-99207862D01*
X76555540Y-99280754D01*
X76703512Y-99325641D01*
X76717890Y-99327057D01*
X76818839Y-99337000D01*
X76818846Y-99337000D01*
X76857399Y-99340797D01*
X76895952Y-99337000D01*
X83222647Y-99337000D01*
X83261200Y-99340797D01*
X83299753Y-99337000D01*
X83299761Y-99337000D01*
X83415087Y-99325641D01*
X83563060Y-99280754D01*
X83699433Y-99207862D01*
X83818964Y-99109764D01*
X83843547Y-99079810D01*
X84671417Y-98251941D01*
X84678680Y-98245980D01*
X86777669Y-98245980D01*
X86833420Y-98251471D01*
X86889171Y-98245980D01*
X86889172Y-98245980D01*
X87055919Y-98229557D01*
X87269867Y-98164656D01*
X87467043Y-98059264D01*
X87639869Y-97917429D01*
X87675416Y-97874115D01*
X90933200Y-94616332D01*
X90933200Y-101172825D01*
X90933200Y-101172825D01*
G37*
X90933200Y-101172825D02*
X90824466Y-100910318D01*
X90618175Y-100601582D01*
X90355618Y-100339025D01*
X90046882Y-100132734D01*
X89703834Y-99990639D01*
X89339656Y-99918200D01*
X88968344Y-99918200D01*
X88604166Y-99990639D01*
X88261118Y-100132734D01*
X87952382Y-100339025D01*
X87689825Y-100601582D01*
X87483534Y-100910318D01*
X87341439Y-101253366D01*
X87269000Y-101617544D01*
X87269000Y-101988856D01*
X87341439Y-102353034D01*
X87483534Y-102696082D01*
X87689825Y-103004818D01*
X87952382Y-103267375D01*
X88261118Y-103473666D01*
X88523625Y-103582400D01*
X78429992Y-103582400D01*
X78549682Y-103570612D01*
X78669380Y-103534302D01*
X78779694Y-103475337D01*
X78876385Y-103395985D01*
X78955737Y-103299294D01*
X79014702Y-103188980D01*
X79051012Y-103069282D01*
X79063272Y-102944800D01*
X79063272Y-102144800D01*
X79051012Y-102020318D01*
X79015970Y-101904800D01*
X79051012Y-101789282D01*
X79063272Y-101664800D01*
X79060200Y-101550550D01*
X78901450Y-101391800D01*
X77902200Y-101391800D01*
X77902200Y-101411800D01*
X77648200Y-101411800D01*
X77648200Y-101391800D01*
X77628200Y-101391800D01*
X77628200Y-101137800D01*
X77648200Y-101137800D01*
X77648200Y-100388550D01*
X77902200Y-100388550D01*
X77902200Y-101137800D01*
X78901450Y-101137800D01*
X79060200Y-100979050D01*
X79063272Y-100864800D01*
X79051012Y-100740318D01*
X79014702Y-100620620D01*
X78955737Y-100510306D01*
X78876385Y-100413615D01*
X78779694Y-100334263D01*
X78669380Y-100275298D01*
X78549682Y-100238988D01*
X78425200Y-100226728D01*
X78060950Y-100229800D01*
X77902200Y-100388550D01*
X77648200Y-100388550D01*
X77489450Y-100229800D01*
X77125200Y-100226728D01*
X77000718Y-100238988D01*
X76881020Y-100275298D01*
X76770706Y-100334263D01*
X76674015Y-100413615D01*
X76594663Y-100510306D01*
X76535698Y-100620620D01*
X76499388Y-100740318D01*
X76490448Y-100831090D01*
X75280472Y-99621115D01*
X75280472Y-98562400D01*
X75268212Y-98437918D01*
X75231902Y-98318220D01*
X75172937Y-98207906D01*
X75093585Y-98111215D01*
X74996894Y-98031863D01*
X74886580Y-97972898D01*
X74766882Y-97936588D01*
X74718776Y-97931850D01*
X74756385Y-97900985D01*
X74805200Y-97841504D01*
X74854015Y-97900985D01*
X74950706Y-97980337D01*
X75061020Y-98039302D01*
X75180718Y-98075612D01*
X75305200Y-98087872D01*
X75345802Y-98087872D01*
X75399339Y-98188033D01*
X75431618Y-98227364D01*
X75472855Y-98277612D01*
X75472859Y-98277616D01*
X75497437Y-98307564D01*
X75527385Y-98332142D01*
X76275057Y-99079815D01*
X76299636Y-99109764D01*
X76329584Y-99134342D01*
X76329587Y-99134345D01*
X76358959Y-99158450D01*
X76419167Y-99207862D01*
X76555540Y-99280754D01*
X76703512Y-99325641D01*
X76717890Y-99327057D01*
X76818839Y-99337000D01*
X76818846Y-99337000D01*
X76857399Y-99340797D01*
X76895952Y-99337000D01*
X83222647Y-99337000D01*
X83261200Y-99340797D01*
X83299753Y-99337000D01*
X83299761Y-99337000D01*
X83415087Y-99325641D01*
X83563060Y-99280754D01*
X83699433Y-99207862D01*
X83818964Y-99109764D01*
X83843547Y-99079810D01*
X84671417Y-98251941D01*
X84678680Y-98245980D01*
X86777669Y-98245980D01*
X86833420Y-98251471D01*
X86889171Y-98245980D01*
X86889172Y-98245980D01*
X87055919Y-98229557D01*
X87269867Y-98164656D01*
X87467043Y-98059264D01*
X87639869Y-97917429D01*
X87675416Y-97874115D01*
X90933200Y-94616332D01*
X90933200Y-101172825D01*
G36*
X53074451Y-90596210D02*
G01*
X53099034Y-90626164D01*
X53128986Y-90650745D01*
X54637801Y-92159560D01*
X54637801Y-92234728D01*
X53373600Y-92234728D01*
X53249118Y-92246988D01*
X53129420Y-92283298D01*
X53019106Y-92342263D01*
X52922415Y-92421615D01*
X52843063Y-92518306D01*
X52784098Y-92628620D01*
X52747788Y-92748318D01*
X52735528Y-92872800D01*
X52735528Y-94172800D01*
X52747788Y-94297282D01*
X52784098Y-94416980D01*
X52843063Y-94527294D01*
X52922415Y-94623985D01*
X53019106Y-94703337D01*
X53129420Y-94762302D01*
X53249118Y-94798612D01*
X53373600Y-94810872D01*
X53670315Y-94810872D01*
X54610070Y-95750627D01*
X54634648Y-95780576D01*
X54664596Y-95805154D01*
X54664599Y-95805157D01*
X54672622Y-95811741D01*
X54754179Y-95878674D01*
X54890552Y-95951566D01*
X55004084Y-95986006D01*
X55038524Y-95996453D01*
X55052902Y-95997869D01*
X55153851Y-96007812D01*
X55153858Y-96007812D01*
X55192411Y-96011609D01*
X55230964Y-96007812D01*
X56289655Y-96007812D01*
X57334328Y-97052486D01*
X57334328Y-98030400D01*
X57346588Y-98154882D01*
X57382898Y-98274580D01*
X57441863Y-98384894D01*
X57521215Y-98481585D01*
X57617906Y-98560937D01*
X57728220Y-98619902D01*
X57847918Y-98656212D01*
X57972400Y-98668472D01*
X59172400Y-98668472D01*
X59296882Y-98656212D01*
X59416580Y-98619902D01*
X59526894Y-98560937D01*
X59623585Y-98481585D01*
X59702937Y-98384894D01*
X59729092Y-98335963D01*
X59882952Y-98462233D01*
X60097500Y-98576911D01*
X60330299Y-98647530D01*
X60572400Y-98671375D01*
X60814502Y-98647530D01*
X61047301Y-98576911D01*
X61261849Y-98462233D01*
X61449902Y-98307902D01*
X61604233Y-98119849D01*
X61718911Y-97905300D01*
X61789530Y-97672501D01*
X61807400Y-97491064D01*
X61807400Y-96869735D01*
X61789530Y-96688298D01*
X61718911Y-96455499D01*
X61604233Y-96240951D01*
X61449902Y-96052898D01*
X61261848Y-95898567D01*
X61047300Y-95783889D01*
X60814501Y-95713270D01*
X60572400Y-95689425D01*
X60453311Y-95701154D01*
X59562119Y-94809962D01*
X59699600Y-94810872D01*
X59713222Y-94809530D01*
X59720845Y-94834660D01*
X59793737Y-94971033D01*
X59891835Y-95090565D01*
X59921789Y-95115148D01*
X59957252Y-95150611D01*
X59981835Y-95180565D01*
X60101366Y-95278663D01*
X60237739Y-95351555D01*
X60385712Y-95396442D01*
X60501038Y-95407801D01*
X60501045Y-95407801D01*
X60539598Y-95411598D01*
X60578151Y-95407801D01*
X65127642Y-95407801D01*
X65004190Y-95531253D01*
X64974236Y-95555836D01*
X64876138Y-95675368D01*
X64863465Y-95699078D01*
X64807518Y-95704588D01*
X64687820Y-95740898D01*
X64577506Y-95799863D01*
X64480815Y-95879215D01*
X64401463Y-95975906D01*
X64342498Y-96086220D01*
X64306188Y-96205918D01*
X64293928Y-96330400D01*
X64293928Y-98030400D01*
X64306188Y-98154882D01*
X64342498Y-98274580D01*
X64401463Y-98384894D01*
X64480815Y-98481585D01*
X64577506Y-98560937D01*
X64687820Y-98619902D01*
X64807518Y-98656212D01*
X64932000Y-98668472D01*
X66132000Y-98668472D01*
X66256482Y-98656212D01*
X66376180Y-98619902D01*
X66486494Y-98560937D01*
X66583185Y-98481585D01*
X66662537Y-98384894D01*
X66688692Y-98335963D01*
X66747000Y-98383816D01*
X66747000Y-99513047D01*
X66743203Y-99551600D01*
X66747000Y-99590153D01*
X66747000Y-99590160D01*
X66758359Y-99705486D01*
X66803246Y-99853459D01*
X66876138Y-99989832D01*
X66974236Y-100109364D01*
X67004190Y-100133947D01*
X69942858Y-103072616D01*
X69967436Y-103102564D01*
X69997384Y-103127142D01*
X69997387Y-103127145D01*
X70026759Y-103151250D01*
X70086967Y-103200662D01*
X70223340Y-103273554D01*
X70292045Y-103294395D01*
X70294663Y-103299294D01*
X70374015Y-103395985D01*
X70470706Y-103475337D01*
X70581020Y-103534302D01*
X70700718Y-103570612D01*
X70820408Y-103582400D01*
X54732375Y-103582400D01*
X54994882Y-103473666D01*
X55303618Y-103267375D01*
X55566175Y-103004818D01*
X55772466Y-102696082D01*
X55914561Y-102353034D01*
X55987000Y-101988856D01*
X55987000Y-101617544D01*
X55914561Y-101253366D01*
X55772466Y-100910318D01*
X55566175Y-100601582D01*
X55303618Y-100339025D01*
X54994882Y-100132734D01*
X54651834Y-99990639D01*
X54287656Y-99918200D01*
X53916344Y-99918200D01*
X53552166Y-99990639D01*
X53209118Y-100132734D01*
X52900382Y-100339025D01*
X52637825Y-100601582D01*
X52431534Y-100910318D01*
X52322800Y-101172825D01*
X52322800Y-89844559D01*
X53074451Y-90596210D01*
X53074451Y-90596210D01*
G37*
X53074451Y-90596210D02*
X53099034Y-90626164D01*
X53128986Y-90650745D01*
X54637801Y-92159560D01*
X54637801Y-92234728D01*
X53373600Y-92234728D01*
X53249118Y-92246988D01*
X53129420Y-92283298D01*
X53019106Y-92342263D01*
X52922415Y-92421615D01*
X52843063Y-92518306D01*
X52784098Y-92628620D01*
X52747788Y-92748318D01*
X52735528Y-92872800D01*
X52735528Y-94172800D01*
X52747788Y-94297282D01*
X52784098Y-94416980D01*
X52843063Y-94527294D01*
X52922415Y-94623985D01*
X53019106Y-94703337D01*
X53129420Y-94762302D01*
X53249118Y-94798612D01*
X53373600Y-94810872D01*
X53670315Y-94810872D01*
X54610070Y-95750627D01*
X54634648Y-95780576D01*
X54664596Y-95805154D01*
X54664599Y-95805157D01*
X54672622Y-95811741D01*
X54754179Y-95878674D01*
X54890552Y-95951566D01*
X55004084Y-95986006D01*
X55038524Y-95996453D01*
X55052902Y-95997869D01*
X55153851Y-96007812D01*
X55153858Y-96007812D01*
X55192411Y-96011609D01*
X55230964Y-96007812D01*
X56289655Y-96007812D01*
X57334328Y-97052486D01*
X57334328Y-98030400D01*
X57346588Y-98154882D01*
X57382898Y-98274580D01*
X57441863Y-98384894D01*
X57521215Y-98481585D01*
X57617906Y-98560937D01*
X57728220Y-98619902D01*
X57847918Y-98656212D01*
X57972400Y-98668472D01*
X59172400Y-98668472D01*
X59296882Y-98656212D01*
X59416580Y-98619902D01*
X59526894Y-98560937D01*
X59623585Y-98481585D01*
X59702937Y-98384894D01*
X59729092Y-98335963D01*
X59882952Y-98462233D01*
X60097500Y-98576911D01*
X60330299Y-98647530D01*
X60572400Y-98671375D01*
X60814502Y-98647530D01*
X61047301Y-98576911D01*
X61261849Y-98462233D01*
X61449902Y-98307902D01*
X61604233Y-98119849D01*
X61718911Y-97905300D01*
X61789530Y-97672501D01*
X61807400Y-97491064D01*
X61807400Y-96869735D01*
X61789530Y-96688298D01*
X61718911Y-96455499D01*
X61604233Y-96240951D01*
X61449902Y-96052898D01*
X61261848Y-95898567D01*
X61047300Y-95783889D01*
X60814501Y-95713270D01*
X60572400Y-95689425D01*
X60453311Y-95701154D01*
X59562119Y-94809962D01*
X59699600Y-94810872D01*
X59713222Y-94809530D01*
X59720845Y-94834660D01*
X59793737Y-94971033D01*
X59891835Y-95090565D01*
X59921789Y-95115148D01*
X59957252Y-95150611D01*
X59981835Y-95180565D01*
X60101366Y-95278663D01*
X60237739Y-95351555D01*
X60385712Y-95396442D01*
X60501038Y-95407801D01*
X60501045Y-95407801D01*
X60539598Y-95411598D01*
X60578151Y-95407801D01*
X65127642Y-95407801D01*
X65004190Y-95531253D01*
X64974236Y-95555836D01*
X64876138Y-95675368D01*
X64863465Y-95699078D01*
X64807518Y-95704588D01*
X64687820Y-95740898D01*
X64577506Y-95799863D01*
X64480815Y-95879215D01*
X64401463Y-95975906D01*
X64342498Y-96086220D01*
X64306188Y-96205918D01*
X64293928Y-96330400D01*
X64293928Y-98030400D01*
X64306188Y-98154882D01*
X64342498Y-98274580D01*
X64401463Y-98384894D01*
X64480815Y-98481585D01*
X64577506Y-98560937D01*
X64687820Y-98619902D01*
X64807518Y-98656212D01*
X64932000Y-98668472D01*
X66132000Y-98668472D01*
X66256482Y-98656212D01*
X66376180Y-98619902D01*
X66486494Y-98560937D01*
X66583185Y-98481585D01*
X66662537Y-98384894D01*
X66688692Y-98335963D01*
X66747000Y-98383816D01*
X66747000Y-99513047D01*
X66743203Y-99551600D01*
X66747000Y-99590153D01*
X66747000Y-99590160D01*
X66758359Y-99705486D01*
X66803246Y-99853459D01*
X66876138Y-99989832D01*
X66974236Y-100109364D01*
X67004190Y-100133947D01*
X69942858Y-103072616D01*
X69967436Y-103102564D01*
X69997384Y-103127142D01*
X69997387Y-103127145D01*
X70026759Y-103151250D01*
X70086967Y-103200662D01*
X70223340Y-103273554D01*
X70292045Y-103294395D01*
X70294663Y-103299294D01*
X70374015Y-103395985D01*
X70470706Y-103475337D01*
X70581020Y-103534302D01*
X70700718Y-103570612D01*
X70820408Y-103582400D01*
X54732375Y-103582400D01*
X54994882Y-103473666D01*
X55303618Y-103267375D01*
X55566175Y-103004818D01*
X55772466Y-102696082D01*
X55914561Y-102353034D01*
X55987000Y-101988856D01*
X55987000Y-101617544D01*
X55914561Y-101253366D01*
X55772466Y-100910318D01*
X55566175Y-100601582D01*
X55303618Y-100339025D01*
X54994882Y-100132734D01*
X54651834Y-99990639D01*
X54287656Y-99918200D01*
X53916344Y-99918200D01*
X53552166Y-99990639D01*
X53209118Y-100132734D01*
X52900382Y-100339025D01*
X52637825Y-100601582D01*
X52431534Y-100910318D01*
X52322800Y-101172825D01*
X52322800Y-89844559D01*
X53074451Y-90596210D01*
G36*
X72436586Y-94033943D02*
G01*
X72436586Y-94456099D01*
X72417649Y-94475036D01*
X72304381Y-94644554D01*
X72226360Y-94832912D01*
X72186586Y-95032871D01*
X72186586Y-95114951D01*
X72027235Y-95048945D01*
X71827276Y-95009171D01*
X71673198Y-95009171D01*
X71759694Y-94962937D01*
X71856385Y-94883585D01*
X71935737Y-94786894D01*
X71994702Y-94676580D01*
X72031012Y-94556882D01*
X72043272Y-94432400D01*
X72040200Y-94418150D01*
X71881450Y-94259400D01*
X70782200Y-94259400D01*
X70782200Y-94908650D01*
X70940950Y-95067400D01*
X71371999Y-95070252D01*
X71235081Y-95126966D01*
X71065563Y-95240234D01*
X70921400Y-95384397D01*
X70808132Y-95553915D01*
X70730111Y-95742273D01*
X70690337Y-95942232D01*
X70690337Y-95969014D01*
X70664587Y-95994764D01*
X70634637Y-96019344D01*
X70610059Y-96049292D01*
X70610055Y-96049296D01*
X70579752Y-96086220D01*
X70536539Y-96138875D01*
X70503974Y-96199800D01*
X70463646Y-96275249D01*
X70418759Y-96423222D01*
X70403603Y-96577108D01*
X70407401Y-96615671D01*
X70407400Y-97927775D01*
X70317918Y-97936588D01*
X70198220Y-97972898D01*
X70087906Y-98031863D01*
X70025400Y-98083160D01*
X70025400Y-96507756D01*
X70029197Y-96469200D01*
X70025400Y-96430644D01*
X70025400Y-96430639D01*
X70017847Y-96353952D01*
X70014042Y-96315313D01*
X69969154Y-96167340D01*
X69963498Y-96156759D01*
X69896262Y-96030967D01*
X69798164Y-95911436D01*
X69768210Y-95886853D01*
X68959147Y-95077790D01*
X68934564Y-95047836D01*
X68815033Y-94949738D01*
X68678660Y-94876846D01*
X68530687Y-94831959D01*
X68415361Y-94820600D01*
X68415353Y-94820600D01*
X68376800Y-94816803D01*
X68338247Y-94820600D01*
X67837347Y-94820600D01*
X67846164Y-94813364D01*
X67848209Y-94810872D01*
X68038400Y-94810872D01*
X68162882Y-94798612D01*
X68282580Y-94762302D01*
X68392894Y-94703337D01*
X68489585Y-94623985D01*
X68568937Y-94527294D01*
X68569875Y-94525539D01*
X68732061Y-94557800D01*
X68935939Y-94557800D01*
X69135898Y-94518026D01*
X69270087Y-94462443D01*
X69279388Y-94556882D01*
X69315698Y-94676580D01*
X69374663Y-94786894D01*
X69454015Y-94883585D01*
X69550706Y-94962937D01*
X69661020Y-95021902D01*
X69780718Y-95058212D01*
X69905200Y-95070472D01*
X70369450Y-95067400D01*
X70528200Y-94908650D01*
X70528200Y-94259400D01*
X70508200Y-94259400D01*
X70508200Y-94005400D01*
X70528200Y-94005400D01*
X70528200Y-93985400D01*
X70782200Y-93985400D01*
X70782200Y-94005400D01*
X71881450Y-94005400D01*
X72040200Y-93846650D01*
X72043272Y-93832400D01*
X72031012Y-93707918D01*
X71996374Y-93593731D01*
X72436586Y-94033943D01*
X72436586Y-94033943D01*
G37*
X72436586Y-94033943D02*
X72436586Y-94456099D01*
X72417649Y-94475036D01*
X72304381Y-94644554D01*
X72226360Y-94832912D01*
X72186586Y-95032871D01*
X72186586Y-95114951D01*
X72027235Y-95048945D01*
X71827276Y-95009171D01*
X71673198Y-95009171D01*
X71759694Y-94962937D01*
X71856385Y-94883585D01*
X71935737Y-94786894D01*
X71994702Y-94676580D01*
X72031012Y-94556882D01*
X72043272Y-94432400D01*
X72040200Y-94418150D01*
X71881450Y-94259400D01*
X70782200Y-94259400D01*
X70782200Y-94908650D01*
X70940950Y-95067400D01*
X71371999Y-95070252D01*
X71235081Y-95126966D01*
X71065563Y-95240234D01*
X70921400Y-95384397D01*
X70808132Y-95553915D01*
X70730111Y-95742273D01*
X70690337Y-95942232D01*
X70690337Y-95969014D01*
X70664587Y-95994764D01*
X70634637Y-96019344D01*
X70610059Y-96049292D01*
X70610055Y-96049296D01*
X70579752Y-96086220D01*
X70536539Y-96138875D01*
X70503974Y-96199800D01*
X70463646Y-96275249D01*
X70418759Y-96423222D01*
X70403603Y-96577108D01*
X70407401Y-96615671D01*
X70407400Y-97927775D01*
X70317918Y-97936588D01*
X70198220Y-97972898D01*
X70087906Y-98031863D01*
X70025400Y-98083160D01*
X70025400Y-96507756D01*
X70029197Y-96469200D01*
X70025400Y-96430644D01*
X70025400Y-96430639D01*
X70017847Y-96353952D01*
X70014042Y-96315313D01*
X69969154Y-96167340D01*
X69963498Y-96156759D01*
X69896262Y-96030967D01*
X69798164Y-95911436D01*
X69768210Y-95886853D01*
X68959147Y-95077790D01*
X68934564Y-95047836D01*
X68815033Y-94949738D01*
X68678660Y-94876846D01*
X68530687Y-94831959D01*
X68415361Y-94820600D01*
X68415353Y-94820600D01*
X68376800Y-94816803D01*
X68338247Y-94820600D01*
X67837347Y-94820600D01*
X67846164Y-94813364D01*
X67848209Y-94810872D01*
X68038400Y-94810872D01*
X68162882Y-94798612D01*
X68282580Y-94762302D01*
X68392894Y-94703337D01*
X68489585Y-94623985D01*
X68568937Y-94527294D01*
X68569875Y-94525539D01*
X68732061Y-94557800D01*
X68935939Y-94557800D01*
X69135898Y-94518026D01*
X69270087Y-94462443D01*
X69279388Y-94556882D01*
X69315698Y-94676580D01*
X69374663Y-94786894D01*
X69454015Y-94883585D01*
X69550706Y-94962937D01*
X69661020Y-95021902D01*
X69780718Y-95058212D01*
X69905200Y-95070472D01*
X70369450Y-95067400D01*
X70528200Y-94908650D01*
X70528200Y-94259400D01*
X70508200Y-94259400D01*
X70508200Y-94005400D01*
X70528200Y-94005400D01*
X70528200Y-93985400D01*
X70782200Y-93985400D01*
X70782200Y-94005400D01*
X71881450Y-94005400D01*
X72040200Y-93846650D01*
X72043272Y-93832400D01*
X72031012Y-93707918D01*
X71996374Y-93593731D01*
X72436586Y-94033943D01*
G36*
X88092600Y-91821000D02*
G01*
X88112600Y-91821000D01*
X88112600Y-92075000D01*
X88092600Y-92075000D01*
X88092600Y-93049250D01*
X88251350Y-93208000D01*
X88715600Y-93211072D01*
X88840082Y-93198812D01*
X88959780Y-93162502D01*
X89070094Y-93103537D01*
X89166785Y-93024185D01*
X89187401Y-92999064D01*
X89187401Y-93151867D01*
X86363289Y-95975980D01*
X85196722Y-95975980D01*
X85175433Y-95936151D01*
X85021102Y-95748098D01*
X84833048Y-95593767D01*
X84618500Y-95479089D01*
X84385701Y-95408470D01*
X84143600Y-95384625D01*
X83901498Y-95408470D01*
X83668699Y-95479089D01*
X83454151Y-95593767D01*
X83300291Y-95720036D01*
X83274137Y-95671106D01*
X83194785Y-95574415D01*
X83098094Y-95495063D01*
X82987780Y-95436098D01*
X82868082Y-95399788D01*
X82743600Y-95387528D01*
X82429350Y-95390600D01*
X82270600Y-95549350D01*
X82270600Y-96748600D01*
X82290600Y-96748600D01*
X82290600Y-97002600D01*
X82270600Y-97002600D01*
X82270600Y-97022600D01*
X82016600Y-97022600D01*
X82016600Y-97002600D01*
X81067350Y-97002600D01*
X80908600Y-97161350D01*
X80905528Y-97725600D01*
X80909605Y-97767000D01*
X77355671Y-97767000D01*
X77394702Y-97693980D01*
X77431012Y-97574282D01*
X77443272Y-97449800D01*
X77443272Y-96437400D01*
X77571939Y-96437400D01*
X77771898Y-96397626D01*
X77960256Y-96319605D01*
X78129774Y-96206337D01*
X78273937Y-96062174D01*
X78298374Y-96025600D01*
X80905528Y-96025600D01*
X80908600Y-96589850D01*
X81067350Y-96748600D01*
X82016600Y-96748600D01*
X82016600Y-95549350D01*
X81857850Y-95390600D01*
X81543600Y-95387528D01*
X81419118Y-95399788D01*
X81299420Y-95436098D01*
X81189106Y-95495063D01*
X81092415Y-95574415D01*
X81013063Y-95671106D01*
X80954098Y-95781420D01*
X80917788Y-95901118D01*
X80905528Y-96025600D01*
X78298374Y-96025600D01*
X78387205Y-95892656D01*
X78465226Y-95704298D01*
X78505000Y-95504339D01*
X78505000Y-95300461D01*
X78486325Y-95206572D01*
X78488902Y-95207640D01*
X78688861Y-95247414D01*
X78892739Y-95247414D01*
X79092698Y-95207640D01*
X79281056Y-95129619D01*
X79450574Y-95016351D01*
X79469511Y-94997414D01*
X83037633Y-94997414D01*
X83076186Y-95001211D01*
X83114739Y-94997414D01*
X83114747Y-94997414D01*
X83230073Y-94986055D01*
X83378046Y-94941168D01*
X83514419Y-94868276D01*
X83633950Y-94770178D01*
X83658533Y-94740224D01*
X85187686Y-93211072D01*
X86215600Y-93211072D01*
X86340082Y-93198812D01*
X86459780Y-93162502D01*
X86570094Y-93103537D01*
X86666785Y-93024185D01*
X86715600Y-92964704D01*
X86764415Y-93024185D01*
X86861106Y-93103537D01*
X86971420Y-93162502D01*
X87091118Y-93198812D01*
X87215600Y-93211072D01*
X87679850Y-93208000D01*
X87838600Y-93049250D01*
X87838600Y-92075000D01*
X87818600Y-92075000D01*
X87818600Y-91821000D01*
X87838600Y-91821000D01*
X87838600Y-91801000D01*
X88092600Y-91801000D01*
X88092600Y-91821000D01*
X88092600Y-91821000D01*
G37*
X88092600Y-91821000D02*
X88112600Y-91821000D01*
X88112600Y-92075000D01*
X88092600Y-92075000D01*
X88092600Y-93049250D01*
X88251350Y-93208000D01*
X88715600Y-93211072D01*
X88840082Y-93198812D01*
X88959780Y-93162502D01*
X89070094Y-93103537D01*
X89166785Y-93024185D01*
X89187401Y-92999064D01*
X89187401Y-93151867D01*
X86363289Y-95975980D01*
X85196722Y-95975980D01*
X85175433Y-95936151D01*
X85021102Y-95748098D01*
X84833048Y-95593767D01*
X84618500Y-95479089D01*
X84385701Y-95408470D01*
X84143600Y-95384625D01*
X83901498Y-95408470D01*
X83668699Y-95479089D01*
X83454151Y-95593767D01*
X83300291Y-95720036D01*
X83274137Y-95671106D01*
X83194785Y-95574415D01*
X83098094Y-95495063D01*
X82987780Y-95436098D01*
X82868082Y-95399788D01*
X82743600Y-95387528D01*
X82429350Y-95390600D01*
X82270600Y-95549350D01*
X82270600Y-96748600D01*
X82290600Y-96748600D01*
X82290600Y-97002600D01*
X82270600Y-97002600D01*
X82270600Y-97022600D01*
X82016600Y-97022600D01*
X82016600Y-97002600D01*
X81067350Y-97002600D01*
X80908600Y-97161350D01*
X80905528Y-97725600D01*
X80909605Y-97767000D01*
X77355671Y-97767000D01*
X77394702Y-97693980D01*
X77431012Y-97574282D01*
X77443272Y-97449800D01*
X77443272Y-96437400D01*
X77571939Y-96437400D01*
X77771898Y-96397626D01*
X77960256Y-96319605D01*
X78129774Y-96206337D01*
X78273937Y-96062174D01*
X78298374Y-96025600D01*
X80905528Y-96025600D01*
X80908600Y-96589850D01*
X81067350Y-96748600D01*
X82016600Y-96748600D01*
X82016600Y-95549350D01*
X81857850Y-95390600D01*
X81543600Y-95387528D01*
X81419118Y-95399788D01*
X81299420Y-95436098D01*
X81189106Y-95495063D01*
X81092415Y-95574415D01*
X81013063Y-95671106D01*
X80954098Y-95781420D01*
X80917788Y-95901118D01*
X80905528Y-96025600D01*
X78298374Y-96025600D01*
X78387205Y-95892656D01*
X78465226Y-95704298D01*
X78505000Y-95504339D01*
X78505000Y-95300461D01*
X78486325Y-95206572D01*
X78488902Y-95207640D01*
X78688861Y-95247414D01*
X78892739Y-95247414D01*
X79092698Y-95207640D01*
X79281056Y-95129619D01*
X79450574Y-95016351D01*
X79469511Y-94997414D01*
X83037633Y-94997414D01*
X83076186Y-95001211D01*
X83114739Y-94997414D01*
X83114747Y-94997414D01*
X83230073Y-94986055D01*
X83378046Y-94941168D01*
X83514419Y-94868276D01*
X83633950Y-94770178D01*
X83658533Y-94740224D01*
X85187686Y-93211072D01*
X86215600Y-93211072D01*
X86340082Y-93198812D01*
X86459780Y-93162502D01*
X86570094Y-93103537D01*
X86666785Y-93024185D01*
X86715600Y-92964704D01*
X86764415Y-93024185D01*
X86861106Y-93103537D01*
X86971420Y-93162502D01*
X87091118Y-93198812D01*
X87215600Y-93211072D01*
X87679850Y-93208000D01*
X87838600Y-93049250D01*
X87838600Y-92075000D01*
X87818600Y-92075000D01*
X87818600Y-91821000D01*
X87838600Y-91821000D01*
X87838600Y-91801000D01*
X88092600Y-91801000D01*
X88092600Y-91821000D01*
G36*
X73682200Y-96697800D02*
G01*
X73702200Y-96697800D01*
X73702200Y-96951800D01*
X73682200Y-96951800D01*
X73682200Y-96971800D01*
X73428200Y-96971800D01*
X73428200Y-96951800D01*
X73408200Y-96951800D01*
X73408200Y-96697800D01*
X73428200Y-96697800D01*
X73428200Y-96677800D01*
X73682200Y-96677800D01*
X73682200Y-96697800D01*
X73682200Y-96697800D01*
G37*
X73682200Y-96697800D02*
X73702200Y-96697800D01*
X73702200Y-96951800D01*
X73682200Y-96951800D01*
X73682200Y-96971800D01*
X73428200Y-96971800D01*
X73428200Y-96951800D01*
X73408200Y-96951800D01*
X73408200Y-96697800D01*
X73428200Y-96697800D01*
X73428200Y-96677800D01*
X73682200Y-96677800D01*
X73682200Y-96697800D01*
G36*
X56950600Y-93395800D02*
G01*
X58822600Y-93395800D01*
X58822600Y-93375800D01*
X59076600Y-93375800D01*
X59076600Y-93395800D01*
X59096600Y-93395800D01*
X59096600Y-93649800D01*
X59076600Y-93649800D01*
X59076600Y-93669800D01*
X58822600Y-93669800D01*
X58822600Y-93649800D01*
X56950600Y-93649800D01*
X56950600Y-93669800D01*
X56696600Y-93669800D01*
X56696600Y-93649800D01*
X56676600Y-93649800D01*
X56676600Y-93395800D01*
X56696600Y-93395800D01*
X56696600Y-93375800D01*
X56950600Y-93375800D01*
X56950600Y-93395800D01*
X56950600Y-93395800D01*
G37*
X56950600Y-93395800D02*
X58822600Y-93395800D01*
X58822600Y-93375800D01*
X59076600Y-93375800D01*
X59076600Y-93395800D01*
X59096600Y-93395800D01*
X59096600Y-93649800D01*
X59076600Y-93649800D01*
X59076600Y-93669800D01*
X58822600Y-93669800D01*
X58822600Y-93649800D01*
X56950600Y-93649800D01*
X56950600Y-93669800D01*
X56696600Y-93669800D01*
X56696600Y-93649800D01*
X56676600Y-93649800D01*
X56676600Y-93395800D01*
X56696600Y-93395800D01*
X56696600Y-93375800D01*
X56950600Y-93375800D01*
X56950600Y-93395800D01*
G36*
X85626728Y-88553200D02*
G01*
X85638988Y-88677682D01*
X85675298Y-88797380D01*
X85734263Y-88907694D01*
X85813615Y-89004385D01*
X85826705Y-89015128D01*
X85314800Y-89015128D01*
X85190318Y-89027388D01*
X85070620Y-89063698D01*
X84960306Y-89122663D01*
X84863615Y-89202015D01*
X84784263Y-89298706D01*
X84725298Y-89409020D01*
X84688988Y-89528718D01*
X84676728Y-89653200D01*
X84676728Y-90553200D01*
X84688988Y-90677682D01*
X84691894Y-90687263D01*
X84591118Y-90697188D01*
X84471420Y-90733498D01*
X84361106Y-90792463D01*
X84264415Y-90871815D01*
X84185063Y-90968506D01*
X84126098Y-91078820D01*
X84089788Y-91198518D01*
X84077528Y-91323000D01*
X84077528Y-92100914D01*
X83040046Y-93138396D01*
X82891050Y-92989400D01*
X81791800Y-92989400D01*
X81791800Y-93009400D01*
X81537800Y-93009400D01*
X81537800Y-92989400D01*
X81517800Y-92989400D01*
X81517800Y-92735400D01*
X81537800Y-92735400D01*
X81537800Y-92715400D01*
X81791800Y-92715400D01*
X81791800Y-92735400D01*
X82891050Y-92735400D01*
X83049800Y-92576650D01*
X83052872Y-92212400D01*
X83040612Y-92087918D01*
X83004302Y-91968220D01*
X82945337Y-91857906D01*
X82865985Y-91761215D01*
X82769294Y-91681863D01*
X82658980Y-91622898D01*
X82558442Y-91592400D01*
X82658980Y-91561902D01*
X82769294Y-91502937D01*
X82865985Y-91423585D01*
X82945337Y-91326894D01*
X83004302Y-91216580D01*
X83040612Y-91096882D01*
X83052872Y-90972400D01*
X83052872Y-89672400D01*
X83040612Y-89547918D01*
X83004302Y-89428220D01*
X82945337Y-89317906D01*
X82893101Y-89254256D01*
X84392758Y-87754600D01*
X85626728Y-87754600D01*
X85626728Y-88553200D01*
X85626728Y-88553200D01*
G37*
X85626728Y-88553200D02*
X85638988Y-88677682D01*
X85675298Y-88797380D01*
X85734263Y-88907694D01*
X85813615Y-89004385D01*
X85826705Y-89015128D01*
X85314800Y-89015128D01*
X85190318Y-89027388D01*
X85070620Y-89063698D01*
X84960306Y-89122663D01*
X84863615Y-89202015D01*
X84784263Y-89298706D01*
X84725298Y-89409020D01*
X84688988Y-89528718D01*
X84676728Y-89653200D01*
X84676728Y-90553200D01*
X84688988Y-90677682D01*
X84691894Y-90687263D01*
X84591118Y-90697188D01*
X84471420Y-90733498D01*
X84361106Y-90792463D01*
X84264415Y-90871815D01*
X84185063Y-90968506D01*
X84126098Y-91078820D01*
X84089788Y-91198518D01*
X84077528Y-91323000D01*
X84077528Y-92100914D01*
X83040046Y-93138396D01*
X82891050Y-92989400D01*
X81791800Y-92989400D01*
X81791800Y-93009400D01*
X81537800Y-93009400D01*
X81537800Y-92989400D01*
X81517800Y-92989400D01*
X81517800Y-92735400D01*
X81537800Y-92735400D01*
X81537800Y-92715400D01*
X81791800Y-92715400D01*
X81791800Y-92735400D01*
X82891050Y-92735400D01*
X83049800Y-92576650D01*
X83052872Y-92212400D01*
X83040612Y-92087918D01*
X83004302Y-91968220D01*
X82945337Y-91857906D01*
X82865985Y-91761215D01*
X82769294Y-91681863D01*
X82658980Y-91622898D01*
X82558442Y-91592400D01*
X82658980Y-91561902D01*
X82769294Y-91502937D01*
X82865985Y-91423585D01*
X82945337Y-91326894D01*
X83004302Y-91216580D01*
X83040612Y-91096882D01*
X83052872Y-90972400D01*
X83052872Y-89672400D01*
X83040612Y-89547918D01*
X83004302Y-89428220D01*
X82945337Y-89317906D01*
X82893101Y-89254256D01*
X84392758Y-87754600D01*
X85626728Y-87754600D01*
X85626728Y-88553200D01*
G36*
X89187401Y-90896935D02*
G01*
X89166785Y-90871815D01*
X89070094Y-90792463D01*
X88959780Y-90733498D01*
X88840082Y-90697188D01*
X88715600Y-90684928D01*
X88638259Y-90685440D01*
X88640612Y-90677682D01*
X88652872Y-90553200D01*
X88649800Y-90388950D01*
X88491050Y-90230200D01*
X87741800Y-90230200D01*
X87741800Y-90250200D01*
X87487800Y-90250200D01*
X87487800Y-90230200D01*
X87467800Y-90230200D01*
X87467800Y-89976200D01*
X87487800Y-89976200D01*
X87487800Y-89176950D01*
X87741800Y-89176950D01*
X87741800Y-89976200D01*
X88491050Y-89976200D01*
X88649800Y-89817450D01*
X88652872Y-89653200D01*
X88640612Y-89528718D01*
X88604302Y-89409020D01*
X88545337Y-89298706D01*
X88465985Y-89202015D01*
X88369294Y-89122663D01*
X88258980Y-89063698D01*
X88139282Y-89027388D01*
X88014800Y-89015128D01*
X87900550Y-89018200D01*
X87741800Y-89176950D01*
X87487800Y-89176950D01*
X87403193Y-89092343D01*
X87419294Y-89083737D01*
X87515985Y-89004385D01*
X87595337Y-88907694D01*
X87654302Y-88797380D01*
X87690612Y-88677682D01*
X87702872Y-88553200D01*
X87702872Y-87754600D01*
X89187400Y-87754600D01*
X89187401Y-90896935D01*
X89187401Y-90896935D01*
G37*
X89187401Y-90896935D02*
X89166785Y-90871815D01*
X89070094Y-90792463D01*
X88959780Y-90733498D01*
X88840082Y-90697188D01*
X88715600Y-90684928D01*
X88638259Y-90685440D01*
X88640612Y-90677682D01*
X88652872Y-90553200D01*
X88649800Y-90388950D01*
X88491050Y-90230200D01*
X87741800Y-90230200D01*
X87741800Y-90250200D01*
X87487800Y-90250200D01*
X87487800Y-90230200D01*
X87467800Y-90230200D01*
X87467800Y-89976200D01*
X87487800Y-89976200D01*
X87487800Y-89176950D01*
X87741800Y-89176950D01*
X87741800Y-89976200D01*
X88491050Y-89976200D01*
X88649800Y-89817450D01*
X88652872Y-89653200D01*
X88640612Y-89528718D01*
X88604302Y-89409020D01*
X88545337Y-89298706D01*
X88465985Y-89202015D01*
X88369294Y-89122663D01*
X88258980Y-89063698D01*
X88139282Y-89027388D01*
X88014800Y-89015128D01*
X87900550Y-89018200D01*
X87741800Y-89176950D01*
X87487800Y-89176950D01*
X87403193Y-89092343D01*
X87419294Y-89083737D01*
X87515985Y-89004385D01*
X87595337Y-88907694D01*
X87654302Y-88797380D01*
X87690612Y-88677682D01*
X87702872Y-88553200D01*
X87702872Y-87754600D01*
X89187400Y-87754600D01*
X89187401Y-90896935D01*
G36*
X86073771Y-81261928D02*
G01*
X85174400Y-81261928D01*
X85049918Y-81274188D01*
X84930220Y-81310498D01*
X84819906Y-81369463D01*
X84734400Y-81439636D01*
X84648894Y-81369463D01*
X84538580Y-81310498D01*
X84418882Y-81274188D01*
X84294400Y-81261928D01*
X82794400Y-81261928D01*
X82669918Y-81274188D01*
X82550220Y-81310498D01*
X82439906Y-81369463D01*
X82343215Y-81448815D01*
X82263863Y-81545506D01*
X82204898Y-81655820D01*
X82194400Y-81690427D01*
X82183902Y-81655820D01*
X82124937Y-81545506D01*
X82045585Y-81448815D01*
X81948894Y-81369463D01*
X81838580Y-81310498D01*
X81718882Y-81274188D01*
X81594400Y-81261928D01*
X81130150Y-81265000D01*
X80971400Y-81423750D01*
X80971400Y-82423000D01*
X80991400Y-82423000D01*
X80991400Y-82677000D01*
X80971400Y-82677000D01*
X80971400Y-83676250D01*
X80979000Y-83683850D01*
X80979000Y-84455000D01*
X82078250Y-84455000D01*
X82237000Y-84296250D01*
X82240072Y-83932000D01*
X82227812Y-83807518D01*
X82191502Y-83687820D01*
X82132537Y-83577506D01*
X82119294Y-83561370D01*
X82124937Y-83554494D01*
X82183902Y-83444180D01*
X82194400Y-83409573D01*
X82204898Y-83444180D01*
X82263863Y-83554494D01*
X82343215Y-83651185D01*
X82439906Y-83730537D01*
X82550220Y-83789502D01*
X82669918Y-83825812D01*
X82794400Y-83838072D01*
X84294400Y-83838072D01*
X84418882Y-83825812D01*
X84538580Y-83789502D01*
X84648894Y-83730537D01*
X84734400Y-83660364D01*
X84819906Y-83730537D01*
X84930220Y-83789502D01*
X85049918Y-83825812D01*
X85174400Y-83838072D01*
X86674400Y-83838072D01*
X86798882Y-83825812D01*
X86918580Y-83789502D01*
X87028894Y-83730537D01*
X87125585Y-83651185D01*
X87204937Y-83554494D01*
X87263902Y-83444180D01*
X87274400Y-83409573D01*
X87284898Y-83444180D01*
X87343863Y-83554494D01*
X87423215Y-83651185D01*
X87519906Y-83730537D01*
X87630220Y-83789502D01*
X87749918Y-83825812D01*
X87874400Y-83838072D01*
X89187401Y-83838072D01*
X89187401Y-86184600D01*
X84106152Y-86184600D01*
X84067599Y-86180803D01*
X84029046Y-86184600D01*
X84029039Y-86184600D01*
X83928090Y-86194543D01*
X83913712Y-86195959D01*
X83887238Y-86203990D01*
X83765740Y-86240846D01*
X83629367Y-86313738D01*
X83574809Y-86358513D01*
X83539787Y-86387255D01*
X83539784Y-86387258D01*
X83509836Y-86411836D01*
X83485258Y-86441784D01*
X81136985Y-88790058D01*
X81107037Y-88814636D01*
X81082459Y-88844584D01*
X81082455Y-88844588D01*
X81067518Y-88862789D01*
X81008939Y-88934167D01*
X80972101Y-89003087D01*
X80955402Y-89034328D01*
X80914800Y-89034328D01*
X80877951Y-89037957D01*
X80880137Y-89035294D01*
X80939102Y-88924980D01*
X80975412Y-88805282D01*
X80987672Y-88680800D01*
X80987672Y-86680800D01*
X80975412Y-86556318D01*
X80939102Y-86436620D01*
X80880137Y-86326306D01*
X80800785Y-86229615D01*
X80704094Y-86150263D01*
X80593780Y-86091298D01*
X80474082Y-86054988D01*
X80349600Y-86042728D01*
X78349600Y-86042728D01*
X78225118Y-86054988D01*
X78105420Y-86091298D01*
X77995106Y-86150263D01*
X77898415Y-86229615D01*
X77819063Y-86326306D01*
X77760098Y-86436620D01*
X77723788Y-86556318D01*
X77711528Y-86680800D01*
X77711528Y-86910612D01*
X77700862Y-86913848D01*
X77574940Y-86952046D01*
X77438567Y-87024938D01*
X77390552Y-87064343D01*
X77394702Y-87056580D01*
X77431012Y-86936882D01*
X77443272Y-86812400D01*
X77443272Y-86212400D01*
X77431012Y-86087918D01*
X77394702Y-85968220D01*
X77338919Y-85863859D01*
X77402000Y-85870072D01*
X78902000Y-85870072D01*
X79026482Y-85857812D01*
X79146180Y-85821502D01*
X79256494Y-85762537D01*
X79353185Y-85683185D01*
X79432537Y-85586494D01*
X79491502Y-85476180D01*
X79502000Y-85441573D01*
X79512498Y-85476180D01*
X79571463Y-85586494D01*
X79650815Y-85683185D01*
X79747506Y-85762537D01*
X79857820Y-85821502D01*
X79977518Y-85857812D01*
X80102000Y-85870072D01*
X80566250Y-85867000D01*
X80725000Y-85708250D01*
X80725000Y-84709000D01*
X80979000Y-84709000D01*
X80979000Y-85708250D01*
X81137750Y-85867000D01*
X81602000Y-85870072D01*
X81726482Y-85857812D01*
X81846180Y-85821502D01*
X81956494Y-85762537D01*
X82053185Y-85683185D01*
X82132537Y-85586494D01*
X82191502Y-85476180D01*
X82227812Y-85356482D01*
X82240072Y-85232000D01*
X82237000Y-84867750D01*
X82078250Y-84709000D01*
X80979000Y-84709000D01*
X80725000Y-84709000D01*
X80705000Y-84709000D01*
X80705000Y-84455000D01*
X80725000Y-84455000D01*
X80725000Y-83455750D01*
X80717400Y-83448150D01*
X80717400Y-82677000D01*
X80697400Y-82677000D01*
X80697400Y-82423000D01*
X80717400Y-82423000D01*
X80717400Y-81423750D01*
X80558650Y-81265000D01*
X80094400Y-81261928D01*
X79969918Y-81274188D01*
X79850220Y-81310498D01*
X79739906Y-81369463D01*
X79730600Y-81377100D01*
X79721294Y-81369463D01*
X79610980Y-81310498D01*
X79491282Y-81274188D01*
X79366800Y-81261928D01*
X78338885Y-81261928D01*
X77999146Y-80922189D01*
X77974563Y-80892235D01*
X77879452Y-80814178D01*
X85626021Y-80814178D01*
X86073771Y-81261928D01*
X86073771Y-81261928D01*
G37*
X86073771Y-81261928D02*
X85174400Y-81261928D01*
X85049918Y-81274188D01*
X84930220Y-81310498D01*
X84819906Y-81369463D01*
X84734400Y-81439636D01*
X84648894Y-81369463D01*
X84538580Y-81310498D01*
X84418882Y-81274188D01*
X84294400Y-81261928D01*
X82794400Y-81261928D01*
X82669918Y-81274188D01*
X82550220Y-81310498D01*
X82439906Y-81369463D01*
X82343215Y-81448815D01*
X82263863Y-81545506D01*
X82204898Y-81655820D01*
X82194400Y-81690427D01*
X82183902Y-81655820D01*
X82124937Y-81545506D01*
X82045585Y-81448815D01*
X81948894Y-81369463D01*
X81838580Y-81310498D01*
X81718882Y-81274188D01*
X81594400Y-81261928D01*
X81130150Y-81265000D01*
X80971400Y-81423750D01*
X80971400Y-82423000D01*
X80991400Y-82423000D01*
X80991400Y-82677000D01*
X80971400Y-82677000D01*
X80971400Y-83676250D01*
X80979000Y-83683850D01*
X80979000Y-84455000D01*
X82078250Y-84455000D01*
X82237000Y-84296250D01*
X82240072Y-83932000D01*
X82227812Y-83807518D01*
X82191502Y-83687820D01*
X82132537Y-83577506D01*
X82119294Y-83561370D01*
X82124937Y-83554494D01*
X82183902Y-83444180D01*
X82194400Y-83409573D01*
X82204898Y-83444180D01*
X82263863Y-83554494D01*
X82343215Y-83651185D01*
X82439906Y-83730537D01*
X82550220Y-83789502D01*
X82669918Y-83825812D01*
X82794400Y-83838072D01*
X84294400Y-83838072D01*
X84418882Y-83825812D01*
X84538580Y-83789502D01*
X84648894Y-83730537D01*
X84734400Y-83660364D01*
X84819906Y-83730537D01*
X84930220Y-83789502D01*
X85049918Y-83825812D01*
X85174400Y-83838072D01*
X86674400Y-83838072D01*
X86798882Y-83825812D01*
X86918580Y-83789502D01*
X87028894Y-83730537D01*
X87125585Y-83651185D01*
X87204937Y-83554494D01*
X87263902Y-83444180D01*
X87274400Y-83409573D01*
X87284898Y-83444180D01*
X87343863Y-83554494D01*
X87423215Y-83651185D01*
X87519906Y-83730537D01*
X87630220Y-83789502D01*
X87749918Y-83825812D01*
X87874400Y-83838072D01*
X89187401Y-83838072D01*
X89187401Y-86184600D01*
X84106152Y-86184600D01*
X84067599Y-86180803D01*
X84029046Y-86184600D01*
X84029039Y-86184600D01*
X83928090Y-86194543D01*
X83913712Y-86195959D01*
X83887238Y-86203990D01*
X83765740Y-86240846D01*
X83629367Y-86313738D01*
X83574809Y-86358513D01*
X83539787Y-86387255D01*
X83539784Y-86387258D01*
X83509836Y-86411836D01*
X83485258Y-86441784D01*
X81136985Y-88790058D01*
X81107037Y-88814636D01*
X81082459Y-88844584D01*
X81082455Y-88844588D01*
X81067518Y-88862789D01*
X81008939Y-88934167D01*
X80972101Y-89003087D01*
X80955402Y-89034328D01*
X80914800Y-89034328D01*
X80877951Y-89037957D01*
X80880137Y-89035294D01*
X80939102Y-88924980D01*
X80975412Y-88805282D01*
X80987672Y-88680800D01*
X80987672Y-86680800D01*
X80975412Y-86556318D01*
X80939102Y-86436620D01*
X80880137Y-86326306D01*
X80800785Y-86229615D01*
X80704094Y-86150263D01*
X80593780Y-86091298D01*
X80474082Y-86054988D01*
X80349600Y-86042728D01*
X78349600Y-86042728D01*
X78225118Y-86054988D01*
X78105420Y-86091298D01*
X77995106Y-86150263D01*
X77898415Y-86229615D01*
X77819063Y-86326306D01*
X77760098Y-86436620D01*
X77723788Y-86556318D01*
X77711528Y-86680800D01*
X77711528Y-86910612D01*
X77700862Y-86913848D01*
X77574940Y-86952046D01*
X77438567Y-87024938D01*
X77390552Y-87064343D01*
X77394702Y-87056580D01*
X77431012Y-86936882D01*
X77443272Y-86812400D01*
X77443272Y-86212400D01*
X77431012Y-86087918D01*
X77394702Y-85968220D01*
X77338919Y-85863859D01*
X77402000Y-85870072D01*
X78902000Y-85870072D01*
X79026482Y-85857812D01*
X79146180Y-85821502D01*
X79256494Y-85762537D01*
X79353185Y-85683185D01*
X79432537Y-85586494D01*
X79491502Y-85476180D01*
X79502000Y-85441573D01*
X79512498Y-85476180D01*
X79571463Y-85586494D01*
X79650815Y-85683185D01*
X79747506Y-85762537D01*
X79857820Y-85821502D01*
X79977518Y-85857812D01*
X80102000Y-85870072D01*
X80566250Y-85867000D01*
X80725000Y-85708250D01*
X80725000Y-84709000D01*
X80979000Y-84709000D01*
X80979000Y-85708250D01*
X81137750Y-85867000D01*
X81602000Y-85870072D01*
X81726482Y-85857812D01*
X81846180Y-85821502D01*
X81956494Y-85762537D01*
X82053185Y-85683185D01*
X82132537Y-85586494D01*
X82191502Y-85476180D01*
X82227812Y-85356482D01*
X82240072Y-85232000D01*
X82237000Y-84867750D01*
X82078250Y-84709000D01*
X80979000Y-84709000D01*
X80725000Y-84709000D01*
X80705000Y-84709000D01*
X80705000Y-84455000D01*
X80725000Y-84455000D01*
X80725000Y-83455750D01*
X80717400Y-83448150D01*
X80717400Y-82677000D01*
X80697400Y-82677000D01*
X80697400Y-82423000D01*
X80717400Y-82423000D01*
X80717400Y-81423750D01*
X80558650Y-81265000D01*
X80094400Y-81261928D01*
X79969918Y-81274188D01*
X79850220Y-81310498D01*
X79739906Y-81369463D01*
X79730600Y-81377100D01*
X79721294Y-81369463D01*
X79610980Y-81310498D01*
X79491282Y-81274188D01*
X79366800Y-81261928D01*
X78338885Y-81261928D01*
X77999146Y-80922189D01*
X77974563Y-80892235D01*
X77879452Y-80814178D01*
X85626021Y-80814178D01*
X86073771Y-81261928D01*
G36*
X70035128Y-65287600D02*
G01*
X70047388Y-65412082D01*
X70083698Y-65531780D01*
X70142663Y-65642094D01*
X70222015Y-65738785D01*
X70318706Y-65818137D01*
X70429020Y-65877102D01*
X70463627Y-65887600D01*
X70429020Y-65898098D01*
X70318706Y-65957063D01*
X70222015Y-66036415D01*
X70142663Y-66133106D01*
X70083698Y-66243420D01*
X70064013Y-66308313D01*
X69948882Y-66273388D01*
X69824400Y-66261128D01*
X68248961Y-66261128D01*
X68224400Y-66258709D01*
X68199839Y-66261128D01*
X66624400Y-66261128D01*
X66499918Y-66273388D01*
X66380220Y-66309698D01*
X66269906Y-66368663D01*
X66173215Y-66448015D01*
X66093863Y-66544706D01*
X66034898Y-66655020D01*
X65998588Y-66774718D01*
X65986328Y-66899200D01*
X65986328Y-67899200D01*
X65998588Y-68023682D01*
X66034898Y-68143380D01*
X66093863Y-68253694D01*
X66173215Y-68350385D01*
X66269906Y-68429737D01*
X66380220Y-68488702D01*
X66499918Y-68525012D01*
X66624400Y-68537272D01*
X67089401Y-68537272D01*
X67089400Y-71381351D01*
X67105823Y-71548098D01*
X67170724Y-71762046D01*
X67188216Y-71794772D01*
X67198588Y-71900082D01*
X67234898Y-72019780D01*
X67293863Y-72130094D01*
X67373215Y-72226785D01*
X67386305Y-72237528D01*
X66874400Y-72237528D01*
X66749918Y-72249788D01*
X66630220Y-72286098D01*
X66519906Y-72345063D01*
X66423215Y-72424415D01*
X66343863Y-72521106D01*
X66284898Y-72631420D01*
X66248588Y-72751118D01*
X66236328Y-72875600D01*
X66236328Y-73775600D01*
X66248588Y-73900082D01*
X66284898Y-74019780D01*
X66343863Y-74130094D01*
X66413761Y-74215265D01*
X66386620Y-74223498D01*
X66276306Y-74282463D01*
X66179615Y-74361815D01*
X66100263Y-74458506D01*
X66041298Y-74568820D01*
X66004988Y-74688518D01*
X65992728Y-74813000D01*
X65992728Y-76063000D01*
X66004988Y-76187482D01*
X66041298Y-76307180D01*
X66100263Y-76417494D01*
X66161604Y-76492239D01*
X65686190Y-76967653D01*
X65656236Y-76992236D01*
X65558138Y-77111768D01*
X65485246Y-77248141D01*
X65440359Y-77396114D01*
X65429000Y-77511440D01*
X65429000Y-77511447D01*
X65425203Y-77550000D01*
X65429000Y-77588553D01*
X65429001Y-80604975D01*
X65339518Y-80613788D01*
X65219820Y-80650098D01*
X65109506Y-80709063D01*
X65012815Y-80788415D01*
X64933463Y-80885106D01*
X64874498Y-80995420D01*
X64838188Y-81115118D01*
X64825928Y-81239600D01*
X64825928Y-82539600D01*
X64838188Y-82664082D01*
X64874498Y-82783780D01*
X64933463Y-82894094D01*
X64984596Y-82956400D01*
X64933463Y-83018706D01*
X64874498Y-83129020D01*
X64838188Y-83248718D01*
X64825928Y-83373200D01*
X64825928Y-84673200D01*
X64838188Y-84797682D01*
X64874498Y-84917380D01*
X64933463Y-85027694D01*
X65012815Y-85124385D01*
X65109506Y-85203737D01*
X65219820Y-85262702D01*
X65339518Y-85299012D01*
X65464000Y-85311272D01*
X66964000Y-85311272D01*
X67088482Y-85299012D01*
X67192974Y-85267315D01*
X67166463Y-85293826D01*
X67053195Y-85463344D01*
X66975174Y-85651702D01*
X66935400Y-85851661D01*
X66935400Y-86055539D01*
X66965684Y-86207787D01*
X66083545Y-86207787D01*
X64085426Y-84209669D01*
X64099913Y-84161911D01*
X64128585Y-83870800D01*
X64099913Y-83579689D01*
X64085426Y-83531932D01*
X64478616Y-83138742D01*
X64508563Y-83114165D01*
X64534959Y-83082003D01*
X64567964Y-83041786D01*
X64606661Y-82994634D01*
X64679553Y-82858261D01*
X64686382Y-82835750D01*
X64724441Y-82710288D01*
X64732339Y-82630094D01*
X64735799Y-82594962D01*
X64735799Y-82594957D01*
X64739596Y-82556401D01*
X64735799Y-82517845D01*
X64735799Y-74962155D01*
X64739596Y-74923599D01*
X64735799Y-74885043D01*
X64735799Y-74885038D01*
X64731819Y-74844625D01*
X64724441Y-74769712D01*
X64679553Y-74621739D01*
X64674731Y-74612718D01*
X64606661Y-74485366D01*
X64508563Y-74365835D01*
X64478609Y-74341252D01*
X63925400Y-73788043D01*
X63925400Y-73761261D01*
X63885626Y-73561302D01*
X63807605Y-73372944D01*
X63694337Y-73203426D01*
X63550174Y-73059263D01*
X63380656Y-72945995D01*
X63192298Y-72867974D01*
X62992339Y-72828200D01*
X62788461Y-72828200D01*
X62588502Y-72867974D01*
X62400144Y-72945995D01*
X62230626Y-73059263D01*
X62211689Y-73078200D01*
X60764552Y-73078200D01*
X60725999Y-73074403D01*
X60687446Y-73078200D01*
X60687439Y-73078200D01*
X60586490Y-73088143D01*
X60572112Y-73089559D01*
X60537672Y-73100006D01*
X60424140Y-73134446D01*
X60287767Y-73207338D01*
X60227559Y-73256750D01*
X60198187Y-73280855D01*
X60198184Y-73280858D01*
X60168236Y-73305436D01*
X60143658Y-73335384D01*
X59379915Y-74099128D01*
X58352000Y-74099128D01*
X58227518Y-74111388D01*
X58107820Y-74147698D01*
X57997506Y-74206663D01*
X57900815Y-74286015D01*
X57821463Y-74382706D01*
X57762498Y-74493020D01*
X57726188Y-74612718D01*
X57713928Y-74737200D01*
X57713928Y-76037200D01*
X57726188Y-76161682D01*
X57762498Y-76281380D01*
X57821463Y-76391694D01*
X57900815Y-76488385D01*
X57997506Y-76567737D01*
X58107820Y-76626702D01*
X58227518Y-76663012D01*
X58352000Y-76675272D01*
X59852000Y-76675272D01*
X59976482Y-76663012D01*
X60096180Y-76626702D01*
X60206494Y-76567737D01*
X60303185Y-76488385D01*
X60382537Y-76391694D01*
X60441502Y-76281380D01*
X60452000Y-76246773D01*
X60462498Y-76281380D01*
X60521463Y-76391694D01*
X60600815Y-76488385D01*
X60697506Y-76567737D01*
X60807820Y-76626702D01*
X60927518Y-76663012D01*
X61052000Y-76675272D01*
X61516250Y-76672200D01*
X61675000Y-76513450D01*
X61675000Y-75514200D01*
X61655000Y-75514200D01*
X61655000Y-75260200D01*
X61675000Y-75260200D01*
X61675000Y-75240200D01*
X61929000Y-75240200D01*
X61929000Y-75260200D01*
X61949000Y-75260200D01*
X61949000Y-75514200D01*
X61929000Y-75514200D01*
X61929000Y-76513450D01*
X62087750Y-76672200D01*
X62552000Y-76675272D01*
X62676482Y-76663012D01*
X62796180Y-76626702D01*
X62906494Y-76567737D01*
X63003185Y-76488385D01*
X63082537Y-76391694D01*
X63141502Y-76281380D01*
X63165800Y-76201281D01*
X63165799Y-79939571D01*
X62927511Y-79867287D01*
X62709350Y-79845800D01*
X62563450Y-79845800D01*
X62345289Y-79867287D01*
X62065366Y-79952201D01*
X61807386Y-80090094D01*
X61581266Y-80275666D01*
X61395694Y-80501786D01*
X61364816Y-80559556D01*
X61193988Y-80330531D01*
X60977755Y-80135622D01*
X60727652Y-79986643D01*
X60453291Y-79889319D01*
X60223400Y-80009986D01*
X60223400Y-81203800D01*
X60243400Y-81203800D01*
X60243400Y-81457800D01*
X60223400Y-81457800D01*
X60223400Y-81477800D01*
X59969400Y-81477800D01*
X59969400Y-81457800D01*
X58776245Y-81457800D01*
X58654924Y-81687690D01*
X58699575Y-81834899D01*
X58824759Y-82097720D01*
X58998812Y-82331069D01*
X59215045Y-82525978D01*
X59331923Y-82595599D01*
X59267386Y-82630094D01*
X59041266Y-82815666D01*
X58855694Y-83041786D01*
X58717801Y-83299766D01*
X58632887Y-83579689D01*
X58604215Y-83870800D01*
X58632887Y-84161911D01*
X58717801Y-84441834D01*
X58855694Y-84699814D01*
X59041266Y-84925934D01*
X59267386Y-85111506D01*
X59322191Y-85140800D01*
X59267386Y-85170094D01*
X59041266Y-85355666D01*
X58855694Y-85581786D01*
X58717801Y-85839766D01*
X58632887Y-86119689D01*
X58604215Y-86410800D01*
X58632887Y-86701911D01*
X58717801Y-86981834D01*
X58855694Y-87239814D01*
X59041266Y-87465934D01*
X59267386Y-87651506D01*
X59525366Y-87789399D01*
X59666869Y-87832324D01*
X59489702Y-87867564D01*
X59301344Y-87945585D01*
X59131826Y-88058853D01*
X59126479Y-88064200D01*
X56324952Y-88064200D01*
X56286399Y-88060403D01*
X56247846Y-88064200D01*
X56247839Y-88064200D01*
X56146890Y-88074143D01*
X56132512Y-88075559D01*
X56025655Y-88107974D01*
X55984540Y-88120446D01*
X55903000Y-88164030D01*
X55903000Y-87898872D01*
X55968000Y-87898872D01*
X56092482Y-87886612D01*
X56212180Y-87850302D01*
X56322494Y-87791337D01*
X56419185Y-87711985D01*
X56498537Y-87615294D01*
X56557502Y-87504980D01*
X56593812Y-87385282D01*
X56606072Y-87260800D01*
X56606072Y-85560800D01*
X56593812Y-85436318D01*
X56557502Y-85316620D01*
X56498537Y-85206306D01*
X56419185Y-85109615D01*
X56322494Y-85030263D01*
X56212180Y-84971298D01*
X56143313Y-84950407D01*
X56173134Y-84925934D01*
X56358706Y-84699814D01*
X56496599Y-84441834D01*
X56581513Y-84161911D01*
X56610185Y-83870800D01*
X56581513Y-83579689D01*
X56496599Y-83299766D01*
X56358706Y-83041786D01*
X56173134Y-82815666D01*
X55947014Y-82630094D01*
X55892209Y-82600800D01*
X55947014Y-82571506D01*
X56173134Y-82385934D01*
X56358706Y-82159814D01*
X56496599Y-81901834D01*
X56581513Y-81621911D01*
X56610185Y-81330800D01*
X56581513Y-81039689D01*
X56561560Y-80973910D01*
X58654924Y-80973910D01*
X58776245Y-81203800D01*
X59969400Y-81203800D01*
X59969400Y-80009986D01*
X59739509Y-79889319D01*
X59465148Y-79986643D01*
X59215045Y-80135622D01*
X58998812Y-80330531D01*
X58824759Y-80563880D01*
X58699575Y-80826701D01*
X58654924Y-80973910D01*
X56561560Y-80973910D01*
X56496599Y-80759766D01*
X56358706Y-80501786D01*
X56173134Y-80275666D01*
X55947014Y-80090094D01*
X55892209Y-80060800D01*
X55947014Y-80031506D01*
X56173134Y-79845934D01*
X56358706Y-79619814D01*
X56496599Y-79361834D01*
X56581513Y-79081911D01*
X56610185Y-78790800D01*
X56581513Y-78499689D01*
X56496599Y-78219766D01*
X56358706Y-77961786D01*
X56173134Y-77735666D01*
X55947014Y-77550094D01*
X55882477Y-77515599D01*
X55999355Y-77445978D01*
X56215588Y-77251069D01*
X56389641Y-77017720D01*
X56514825Y-76754899D01*
X56559476Y-76607690D01*
X56438155Y-76377800D01*
X55245000Y-76377800D01*
X55245000Y-76397800D01*
X54991000Y-76397800D01*
X54991000Y-76377800D01*
X53797845Y-76377800D01*
X53676524Y-76607690D01*
X53721175Y-76754899D01*
X53846359Y-77017720D01*
X54020412Y-77251069D01*
X54236645Y-77445978D01*
X54353523Y-77515599D01*
X54288986Y-77550094D01*
X54062866Y-77735666D01*
X53877294Y-77961786D01*
X53739401Y-78219766D01*
X53654487Y-78499689D01*
X53625815Y-78790800D01*
X53654487Y-79081911D01*
X53739401Y-79361834D01*
X53877294Y-79619814D01*
X54062866Y-79845934D01*
X54288986Y-80031506D01*
X54343791Y-80060800D01*
X54288986Y-80090094D01*
X54062866Y-80275666D01*
X53877294Y-80501786D01*
X53739401Y-80759766D01*
X53654487Y-81039689D01*
X53625815Y-81330800D01*
X53654487Y-81621911D01*
X53739401Y-81901834D01*
X53877294Y-82159814D01*
X54062866Y-82385934D01*
X54288986Y-82571506D01*
X54343791Y-82600800D01*
X54288986Y-82630094D01*
X54062866Y-82815666D01*
X53877294Y-83041786D01*
X53739401Y-83299766D01*
X53654487Y-83579689D01*
X53625815Y-83870800D01*
X53654487Y-84161911D01*
X53739401Y-84441834D01*
X53877294Y-84699814D01*
X54062866Y-84925934D01*
X54092687Y-84950407D01*
X54023820Y-84971298D01*
X53913506Y-85030263D01*
X53816815Y-85109615D01*
X53737463Y-85206306D01*
X53678498Y-85316620D01*
X53642188Y-85436318D01*
X53629928Y-85560800D01*
X53629928Y-87260800D01*
X53642188Y-87385282D01*
X53678498Y-87504980D01*
X53737463Y-87615294D01*
X53816815Y-87711985D01*
X53913506Y-87791337D01*
X54023820Y-87850302D01*
X54143518Y-87886612D01*
X54268000Y-87898872D01*
X54333001Y-87898872D01*
X54333001Y-88016042D01*
X54280843Y-88068200D01*
X54254061Y-88068200D01*
X54054102Y-88107974D01*
X53865744Y-88185995D01*
X53696226Y-88299263D01*
X53552063Y-88443426D01*
X53515400Y-88498296D01*
X53515400Y-75893910D01*
X53676524Y-75893910D01*
X53797845Y-76123800D01*
X54991000Y-76123800D01*
X54991000Y-74929986D01*
X55245000Y-74929986D01*
X55245000Y-76123800D01*
X56438155Y-76123800D01*
X56559476Y-75893910D01*
X56514825Y-75746701D01*
X56389641Y-75483880D01*
X56215588Y-75250531D01*
X55999355Y-75055622D01*
X55749252Y-74906643D01*
X55474891Y-74809319D01*
X55245000Y-74929986D01*
X54991000Y-74929986D01*
X54761109Y-74809319D01*
X54486748Y-74906643D01*
X54236645Y-75055622D01*
X54020412Y-75250531D01*
X53846359Y-75483880D01*
X53721175Y-75746701D01*
X53676524Y-75893910D01*
X53515400Y-75893910D01*
X53515400Y-70073557D01*
X54325015Y-69263943D01*
X54354964Y-69239364D01*
X54397542Y-69187484D01*
X54435064Y-69141763D01*
X54453062Y-69119833D01*
X54525954Y-68983460D01*
X54570841Y-68835487D01*
X54582200Y-68720161D01*
X54582200Y-68720154D01*
X54585997Y-68681601D01*
X54582200Y-68643048D01*
X54582200Y-68527272D01*
X55397200Y-68527272D01*
X55521682Y-68515012D01*
X55641380Y-68478702D01*
X55751694Y-68419737D01*
X55848385Y-68340385D01*
X55927737Y-68243694D01*
X55986702Y-68133380D01*
X56023012Y-68013682D01*
X56035272Y-67889200D01*
X56035272Y-66899200D01*
X56368194Y-66899200D01*
X56368194Y-67899200D01*
X56380454Y-68023682D01*
X56416764Y-68143380D01*
X56475729Y-68253694D01*
X56555081Y-68350385D01*
X56651772Y-68429737D01*
X56762086Y-68488702D01*
X56881784Y-68525012D01*
X57006266Y-68537272D01*
X60206266Y-68537272D01*
X60237458Y-68534200D01*
X63349581Y-68534200D01*
X63405332Y-68539691D01*
X63461083Y-68534200D01*
X63461084Y-68534200D01*
X63531426Y-68527272D01*
X65015332Y-68527272D01*
X65139814Y-68515012D01*
X65259512Y-68478702D01*
X65369826Y-68419737D01*
X65466517Y-68340385D01*
X65545869Y-68243694D01*
X65604834Y-68133380D01*
X65641144Y-68013682D01*
X65653404Y-67889200D01*
X65653404Y-66889200D01*
X65641144Y-66764718D01*
X65604834Y-66645020D01*
X65545869Y-66534706D01*
X65466517Y-66438015D01*
X65369826Y-66358663D01*
X65259512Y-66299698D01*
X65139814Y-66263388D01*
X65015332Y-66251128D01*
X63439892Y-66251128D01*
X63415331Y-66248709D01*
X63390770Y-66251128D01*
X61815332Y-66251128D01*
X61690850Y-66263388D01*
X61688173Y-66264200D01*
X60237458Y-66264200D01*
X60206266Y-66261128D01*
X57006266Y-66261128D01*
X56881784Y-66273388D01*
X56762086Y-66309698D01*
X56651772Y-66368663D01*
X56555081Y-66448015D01*
X56475729Y-66544706D01*
X56416764Y-66655020D01*
X56380454Y-66774718D01*
X56368194Y-66899200D01*
X56035272Y-66899200D01*
X56035272Y-66889200D01*
X56028696Y-66822435D01*
X58876532Y-63974600D01*
X70035128Y-63974600D01*
X70035128Y-65287600D01*
X70035128Y-65287600D01*
G37*
X70035128Y-65287600D02*
X70047388Y-65412082D01*
X70083698Y-65531780D01*
X70142663Y-65642094D01*
X70222015Y-65738785D01*
X70318706Y-65818137D01*
X70429020Y-65877102D01*
X70463627Y-65887600D01*
X70429020Y-65898098D01*
X70318706Y-65957063D01*
X70222015Y-66036415D01*
X70142663Y-66133106D01*
X70083698Y-66243420D01*
X70064013Y-66308313D01*
X69948882Y-66273388D01*
X69824400Y-66261128D01*
X68248961Y-66261128D01*
X68224400Y-66258709D01*
X68199839Y-66261128D01*
X66624400Y-66261128D01*
X66499918Y-66273388D01*
X66380220Y-66309698D01*
X66269906Y-66368663D01*
X66173215Y-66448015D01*
X66093863Y-66544706D01*
X66034898Y-66655020D01*
X65998588Y-66774718D01*
X65986328Y-66899200D01*
X65986328Y-67899200D01*
X65998588Y-68023682D01*
X66034898Y-68143380D01*
X66093863Y-68253694D01*
X66173215Y-68350385D01*
X66269906Y-68429737D01*
X66380220Y-68488702D01*
X66499918Y-68525012D01*
X66624400Y-68537272D01*
X67089401Y-68537272D01*
X67089400Y-71381351D01*
X67105823Y-71548098D01*
X67170724Y-71762046D01*
X67188216Y-71794772D01*
X67198588Y-71900082D01*
X67234898Y-72019780D01*
X67293863Y-72130094D01*
X67373215Y-72226785D01*
X67386305Y-72237528D01*
X66874400Y-72237528D01*
X66749918Y-72249788D01*
X66630220Y-72286098D01*
X66519906Y-72345063D01*
X66423215Y-72424415D01*
X66343863Y-72521106D01*
X66284898Y-72631420D01*
X66248588Y-72751118D01*
X66236328Y-72875600D01*
X66236328Y-73775600D01*
X66248588Y-73900082D01*
X66284898Y-74019780D01*
X66343863Y-74130094D01*
X66413761Y-74215265D01*
X66386620Y-74223498D01*
X66276306Y-74282463D01*
X66179615Y-74361815D01*
X66100263Y-74458506D01*
X66041298Y-74568820D01*
X66004988Y-74688518D01*
X65992728Y-74813000D01*
X65992728Y-76063000D01*
X66004988Y-76187482D01*
X66041298Y-76307180D01*
X66100263Y-76417494D01*
X66161604Y-76492239D01*
X65686190Y-76967653D01*
X65656236Y-76992236D01*
X65558138Y-77111768D01*
X65485246Y-77248141D01*
X65440359Y-77396114D01*
X65429000Y-77511440D01*
X65429000Y-77511447D01*
X65425203Y-77550000D01*
X65429000Y-77588553D01*
X65429001Y-80604975D01*
X65339518Y-80613788D01*
X65219820Y-80650098D01*
X65109506Y-80709063D01*
X65012815Y-80788415D01*
X64933463Y-80885106D01*
X64874498Y-80995420D01*
X64838188Y-81115118D01*
X64825928Y-81239600D01*
X64825928Y-82539600D01*
X64838188Y-82664082D01*
X64874498Y-82783780D01*
X64933463Y-82894094D01*
X64984596Y-82956400D01*
X64933463Y-83018706D01*
X64874498Y-83129020D01*
X64838188Y-83248718D01*
X64825928Y-83373200D01*
X64825928Y-84673200D01*
X64838188Y-84797682D01*
X64874498Y-84917380D01*
X64933463Y-85027694D01*
X65012815Y-85124385D01*
X65109506Y-85203737D01*
X65219820Y-85262702D01*
X65339518Y-85299012D01*
X65464000Y-85311272D01*
X66964000Y-85311272D01*
X67088482Y-85299012D01*
X67192974Y-85267315D01*
X67166463Y-85293826D01*
X67053195Y-85463344D01*
X66975174Y-85651702D01*
X66935400Y-85851661D01*
X66935400Y-86055539D01*
X66965684Y-86207787D01*
X66083545Y-86207787D01*
X64085426Y-84209669D01*
X64099913Y-84161911D01*
X64128585Y-83870800D01*
X64099913Y-83579689D01*
X64085426Y-83531932D01*
X64478616Y-83138742D01*
X64508563Y-83114165D01*
X64534959Y-83082003D01*
X64567964Y-83041786D01*
X64606661Y-82994634D01*
X64679553Y-82858261D01*
X64686382Y-82835750D01*
X64724441Y-82710288D01*
X64732339Y-82630094D01*
X64735799Y-82594962D01*
X64735799Y-82594957D01*
X64739596Y-82556401D01*
X64735799Y-82517845D01*
X64735799Y-74962155D01*
X64739596Y-74923599D01*
X64735799Y-74885043D01*
X64735799Y-74885038D01*
X64731819Y-74844625D01*
X64724441Y-74769712D01*
X64679553Y-74621739D01*
X64674731Y-74612718D01*
X64606661Y-74485366D01*
X64508563Y-74365835D01*
X64478609Y-74341252D01*
X63925400Y-73788043D01*
X63925400Y-73761261D01*
X63885626Y-73561302D01*
X63807605Y-73372944D01*
X63694337Y-73203426D01*
X63550174Y-73059263D01*
X63380656Y-72945995D01*
X63192298Y-72867974D01*
X62992339Y-72828200D01*
X62788461Y-72828200D01*
X62588502Y-72867974D01*
X62400144Y-72945995D01*
X62230626Y-73059263D01*
X62211689Y-73078200D01*
X60764552Y-73078200D01*
X60725999Y-73074403D01*
X60687446Y-73078200D01*
X60687439Y-73078200D01*
X60586490Y-73088143D01*
X60572112Y-73089559D01*
X60537672Y-73100006D01*
X60424140Y-73134446D01*
X60287767Y-73207338D01*
X60227559Y-73256750D01*
X60198187Y-73280855D01*
X60198184Y-73280858D01*
X60168236Y-73305436D01*
X60143658Y-73335384D01*
X59379915Y-74099128D01*
X58352000Y-74099128D01*
X58227518Y-74111388D01*
X58107820Y-74147698D01*
X57997506Y-74206663D01*
X57900815Y-74286015D01*
X57821463Y-74382706D01*
X57762498Y-74493020D01*
X57726188Y-74612718D01*
X57713928Y-74737200D01*
X57713928Y-76037200D01*
X57726188Y-76161682D01*
X57762498Y-76281380D01*
X57821463Y-76391694D01*
X57900815Y-76488385D01*
X57997506Y-76567737D01*
X58107820Y-76626702D01*
X58227518Y-76663012D01*
X58352000Y-76675272D01*
X59852000Y-76675272D01*
X59976482Y-76663012D01*
X60096180Y-76626702D01*
X60206494Y-76567737D01*
X60303185Y-76488385D01*
X60382537Y-76391694D01*
X60441502Y-76281380D01*
X60452000Y-76246773D01*
X60462498Y-76281380D01*
X60521463Y-76391694D01*
X60600815Y-76488385D01*
X60697506Y-76567737D01*
X60807820Y-76626702D01*
X60927518Y-76663012D01*
X61052000Y-76675272D01*
X61516250Y-76672200D01*
X61675000Y-76513450D01*
X61675000Y-75514200D01*
X61655000Y-75514200D01*
X61655000Y-75260200D01*
X61675000Y-75260200D01*
X61675000Y-75240200D01*
X61929000Y-75240200D01*
X61929000Y-75260200D01*
X61949000Y-75260200D01*
X61949000Y-75514200D01*
X61929000Y-75514200D01*
X61929000Y-76513450D01*
X62087750Y-76672200D01*
X62552000Y-76675272D01*
X62676482Y-76663012D01*
X62796180Y-76626702D01*
X62906494Y-76567737D01*
X63003185Y-76488385D01*
X63082537Y-76391694D01*
X63141502Y-76281380D01*
X63165800Y-76201281D01*
X63165799Y-79939571D01*
X62927511Y-79867287D01*
X62709350Y-79845800D01*
X62563450Y-79845800D01*
X62345289Y-79867287D01*
X62065366Y-79952201D01*
X61807386Y-80090094D01*
X61581266Y-80275666D01*
X61395694Y-80501786D01*
X61364816Y-80559556D01*
X61193988Y-80330531D01*
X60977755Y-80135622D01*
X60727652Y-79986643D01*
X60453291Y-79889319D01*
X60223400Y-80009986D01*
X60223400Y-81203800D01*
X60243400Y-81203800D01*
X60243400Y-81457800D01*
X60223400Y-81457800D01*
X60223400Y-81477800D01*
X59969400Y-81477800D01*
X59969400Y-81457800D01*
X58776245Y-81457800D01*
X58654924Y-81687690D01*
X58699575Y-81834899D01*
X58824759Y-82097720D01*
X58998812Y-82331069D01*
X59215045Y-82525978D01*
X59331923Y-82595599D01*
X59267386Y-82630094D01*
X59041266Y-82815666D01*
X58855694Y-83041786D01*
X58717801Y-83299766D01*
X58632887Y-83579689D01*
X58604215Y-83870800D01*
X58632887Y-84161911D01*
X58717801Y-84441834D01*
X58855694Y-84699814D01*
X59041266Y-84925934D01*
X59267386Y-85111506D01*
X59322191Y-85140800D01*
X59267386Y-85170094D01*
X59041266Y-85355666D01*
X58855694Y-85581786D01*
X58717801Y-85839766D01*
X58632887Y-86119689D01*
X58604215Y-86410800D01*
X58632887Y-86701911D01*
X58717801Y-86981834D01*
X58855694Y-87239814D01*
X59041266Y-87465934D01*
X59267386Y-87651506D01*
X59525366Y-87789399D01*
X59666869Y-87832324D01*
X59489702Y-87867564D01*
X59301344Y-87945585D01*
X59131826Y-88058853D01*
X59126479Y-88064200D01*
X56324952Y-88064200D01*
X56286399Y-88060403D01*
X56247846Y-88064200D01*
X56247839Y-88064200D01*
X56146890Y-88074143D01*
X56132512Y-88075559D01*
X56025655Y-88107974D01*
X55984540Y-88120446D01*
X55903000Y-88164030D01*
X55903000Y-87898872D01*
X55968000Y-87898872D01*
X56092482Y-87886612D01*
X56212180Y-87850302D01*
X56322494Y-87791337D01*
X56419185Y-87711985D01*
X56498537Y-87615294D01*
X56557502Y-87504980D01*
X56593812Y-87385282D01*
X56606072Y-87260800D01*
X56606072Y-85560800D01*
X56593812Y-85436318D01*
X56557502Y-85316620D01*
X56498537Y-85206306D01*
X56419185Y-85109615D01*
X56322494Y-85030263D01*
X56212180Y-84971298D01*
X56143313Y-84950407D01*
X56173134Y-84925934D01*
X56358706Y-84699814D01*
X56496599Y-84441834D01*
X56581513Y-84161911D01*
X56610185Y-83870800D01*
X56581513Y-83579689D01*
X56496599Y-83299766D01*
X56358706Y-83041786D01*
X56173134Y-82815666D01*
X55947014Y-82630094D01*
X55892209Y-82600800D01*
X55947014Y-82571506D01*
X56173134Y-82385934D01*
X56358706Y-82159814D01*
X56496599Y-81901834D01*
X56581513Y-81621911D01*
X56610185Y-81330800D01*
X56581513Y-81039689D01*
X56561560Y-80973910D01*
X58654924Y-80973910D01*
X58776245Y-81203800D01*
X59969400Y-81203800D01*
X59969400Y-80009986D01*
X59739509Y-79889319D01*
X59465148Y-79986643D01*
X59215045Y-80135622D01*
X58998812Y-80330531D01*
X58824759Y-80563880D01*
X58699575Y-80826701D01*
X58654924Y-80973910D01*
X56561560Y-80973910D01*
X56496599Y-80759766D01*
X56358706Y-80501786D01*
X56173134Y-80275666D01*
X55947014Y-80090094D01*
X55892209Y-80060800D01*
X55947014Y-80031506D01*
X56173134Y-79845934D01*
X56358706Y-79619814D01*
X56496599Y-79361834D01*
X56581513Y-79081911D01*
X56610185Y-78790800D01*
X56581513Y-78499689D01*
X56496599Y-78219766D01*
X56358706Y-77961786D01*
X56173134Y-77735666D01*
X55947014Y-77550094D01*
X55882477Y-77515599D01*
X55999355Y-77445978D01*
X56215588Y-77251069D01*
X56389641Y-77017720D01*
X56514825Y-76754899D01*
X56559476Y-76607690D01*
X56438155Y-76377800D01*
X55245000Y-76377800D01*
X55245000Y-76397800D01*
X54991000Y-76397800D01*
X54991000Y-76377800D01*
X53797845Y-76377800D01*
X53676524Y-76607690D01*
X53721175Y-76754899D01*
X53846359Y-77017720D01*
X54020412Y-77251069D01*
X54236645Y-77445978D01*
X54353523Y-77515599D01*
X54288986Y-77550094D01*
X54062866Y-77735666D01*
X53877294Y-77961786D01*
X53739401Y-78219766D01*
X53654487Y-78499689D01*
X53625815Y-78790800D01*
X53654487Y-79081911D01*
X53739401Y-79361834D01*
X53877294Y-79619814D01*
X54062866Y-79845934D01*
X54288986Y-80031506D01*
X54343791Y-80060800D01*
X54288986Y-80090094D01*
X54062866Y-80275666D01*
X53877294Y-80501786D01*
X53739401Y-80759766D01*
X53654487Y-81039689D01*
X53625815Y-81330800D01*
X53654487Y-81621911D01*
X53739401Y-81901834D01*
X53877294Y-82159814D01*
X54062866Y-82385934D01*
X54288986Y-82571506D01*
X54343791Y-82600800D01*
X54288986Y-82630094D01*
X54062866Y-82815666D01*
X53877294Y-83041786D01*
X53739401Y-83299766D01*
X53654487Y-83579689D01*
X53625815Y-83870800D01*
X53654487Y-84161911D01*
X53739401Y-84441834D01*
X53877294Y-84699814D01*
X54062866Y-84925934D01*
X54092687Y-84950407D01*
X54023820Y-84971298D01*
X53913506Y-85030263D01*
X53816815Y-85109615D01*
X53737463Y-85206306D01*
X53678498Y-85316620D01*
X53642188Y-85436318D01*
X53629928Y-85560800D01*
X53629928Y-87260800D01*
X53642188Y-87385282D01*
X53678498Y-87504980D01*
X53737463Y-87615294D01*
X53816815Y-87711985D01*
X53913506Y-87791337D01*
X54023820Y-87850302D01*
X54143518Y-87886612D01*
X54268000Y-87898872D01*
X54333001Y-87898872D01*
X54333001Y-88016042D01*
X54280843Y-88068200D01*
X54254061Y-88068200D01*
X54054102Y-88107974D01*
X53865744Y-88185995D01*
X53696226Y-88299263D01*
X53552063Y-88443426D01*
X53515400Y-88498296D01*
X53515400Y-75893910D01*
X53676524Y-75893910D01*
X53797845Y-76123800D01*
X54991000Y-76123800D01*
X54991000Y-74929986D01*
X55245000Y-74929986D01*
X55245000Y-76123800D01*
X56438155Y-76123800D01*
X56559476Y-75893910D01*
X56514825Y-75746701D01*
X56389641Y-75483880D01*
X56215588Y-75250531D01*
X55999355Y-75055622D01*
X55749252Y-74906643D01*
X55474891Y-74809319D01*
X55245000Y-74929986D01*
X54991000Y-74929986D01*
X54761109Y-74809319D01*
X54486748Y-74906643D01*
X54236645Y-75055622D01*
X54020412Y-75250531D01*
X53846359Y-75483880D01*
X53721175Y-75746701D01*
X53676524Y-75893910D01*
X53515400Y-75893910D01*
X53515400Y-70073557D01*
X54325015Y-69263943D01*
X54354964Y-69239364D01*
X54397542Y-69187484D01*
X54435064Y-69141763D01*
X54453062Y-69119833D01*
X54525954Y-68983460D01*
X54570841Y-68835487D01*
X54582200Y-68720161D01*
X54582200Y-68720154D01*
X54585997Y-68681601D01*
X54582200Y-68643048D01*
X54582200Y-68527272D01*
X55397200Y-68527272D01*
X55521682Y-68515012D01*
X55641380Y-68478702D01*
X55751694Y-68419737D01*
X55848385Y-68340385D01*
X55927737Y-68243694D01*
X55986702Y-68133380D01*
X56023012Y-68013682D01*
X56035272Y-67889200D01*
X56035272Y-66899200D01*
X56368194Y-66899200D01*
X56368194Y-67899200D01*
X56380454Y-68023682D01*
X56416764Y-68143380D01*
X56475729Y-68253694D01*
X56555081Y-68350385D01*
X56651772Y-68429737D01*
X56762086Y-68488702D01*
X56881784Y-68525012D01*
X57006266Y-68537272D01*
X60206266Y-68537272D01*
X60237458Y-68534200D01*
X63349581Y-68534200D01*
X63405332Y-68539691D01*
X63461083Y-68534200D01*
X63461084Y-68534200D01*
X63531426Y-68527272D01*
X65015332Y-68527272D01*
X65139814Y-68515012D01*
X65259512Y-68478702D01*
X65369826Y-68419737D01*
X65466517Y-68340385D01*
X65545869Y-68243694D01*
X65604834Y-68133380D01*
X65641144Y-68013682D01*
X65653404Y-67889200D01*
X65653404Y-66889200D01*
X65641144Y-66764718D01*
X65604834Y-66645020D01*
X65545869Y-66534706D01*
X65466517Y-66438015D01*
X65369826Y-66358663D01*
X65259512Y-66299698D01*
X65139814Y-66263388D01*
X65015332Y-66251128D01*
X63439892Y-66251128D01*
X63415331Y-66248709D01*
X63390770Y-66251128D01*
X61815332Y-66251128D01*
X61690850Y-66263388D01*
X61688173Y-66264200D01*
X60237458Y-66264200D01*
X60206266Y-66261128D01*
X57006266Y-66261128D01*
X56881784Y-66273388D01*
X56762086Y-66309698D01*
X56651772Y-66368663D01*
X56555081Y-66448015D01*
X56475729Y-66544706D01*
X56416764Y-66655020D01*
X56380454Y-66774718D01*
X56368194Y-66899200D01*
X56035272Y-66899200D01*
X56035272Y-66889200D01*
X56028696Y-66822435D01*
X58876532Y-63974600D01*
X70035128Y-63974600D01*
X70035128Y-65287600D01*
G36*
X74249035Y-80892235D02*
G01*
X74224452Y-80922189D01*
X74188989Y-80957652D01*
X74159035Y-80982235D01*
X74060937Y-81101767D01*
X73988045Y-81238140D01*
X73943158Y-81386113D01*
X73931799Y-81501439D01*
X73931799Y-81501446D01*
X73928002Y-81539999D01*
X73931799Y-81578552D01*
X73931800Y-84165243D01*
X73643771Y-84453272D01*
X73624596Y-84455160D01*
X73476623Y-84500048D01*
X73340250Y-84572940D01*
X73220719Y-84671038D01*
X73196138Y-84700990D01*
X73015784Y-84881344D01*
X73015784Y-84613736D01*
X73019581Y-84575183D01*
X73015784Y-84536630D01*
X73015784Y-84536623D01*
X73004425Y-84421297D01*
X72959538Y-84273324D01*
X72886646Y-84136951D01*
X72837234Y-84076743D01*
X72813129Y-84047371D01*
X72813126Y-84047368D01*
X72788548Y-84017420D01*
X72758600Y-83992842D01*
X72261146Y-83495389D01*
X72236564Y-83465436D01*
X72117033Y-83367338D01*
X71980660Y-83294446D01*
X71832687Y-83249559D01*
X71717361Y-83238200D01*
X71717353Y-83238200D01*
X71705203Y-83237003D01*
X71762657Y-83213205D01*
X71932175Y-83099937D01*
X72076338Y-82955774D01*
X72189606Y-82786256D01*
X72267627Y-82597898D01*
X72307401Y-82397939D01*
X72307401Y-82371157D01*
X73864381Y-80814178D01*
X74344146Y-80814178D01*
X74249035Y-80892235D01*
X74249035Y-80892235D01*
G37*
X74249035Y-80892235D02*
X74224452Y-80922189D01*
X74188989Y-80957652D01*
X74159035Y-80982235D01*
X74060937Y-81101767D01*
X73988045Y-81238140D01*
X73943158Y-81386113D01*
X73931799Y-81501439D01*
X73931799Y-81501446D01*
X73928002Y-81539999D01*
X73931799Y-81578552D01*
X73931800Y-84165243D01*
X73643771Y-84453272D01*
X73624596Y-84455160D01*
X73476623Y-84500048D01*
X73340250Y-84572940D01*
X73220719Y-84671038D01*
X73196138Y-84700990D01*
X73015784Y-84881344D01*
X73015784Y-84613736D01*
X73019581Y-84575183D01*
X73015784Y-84536630D01*
X73015784Y-84536623D01*
X73004425Y-84421297D01*
X72959538Y-84273324D01*
X72886646Y-84136951D01*
X72837234Y-84076743D01*
X72813129Y-84047371D01*
X72813126Y-84047368D01*
X72788548Y-84017420D01*
X72758600Y-83992842D01*
X72261146Y-83495389D01*
X72236564Y-83465436D01*
X72117033Y-83367338D01*
X71980660Y-83294446D01*
X71832687Y-83249559D01*
X71717361Y-83238200D01*
X71717353Y-83238200D01*
X71705203Y-83237003D01*
X71762657Y-83213205D01*
X71932175Y-83099937D01*
X72076338Y-82955774D01*
X72189606Y-82786256D01*
X72267627Y-82597898D01*
X72307401Y-82397939D01*
X72307401Y-82371157D01*
X73864381Y-80814178D01*
X74344146Y-80814178D01*
X74249035Y-80892235D01*
G36*
X88113995Y-66251128D02*
G01*
X87757200Y-66251128D01*
X87632718Y-66263388D01*
X87513020Y-66299698D01*
X87402706Y-66358663D01*
X87306015Y-66438015D01*
X87226663Y-66534706D01*
X87167698Y-66645020D01*
X87131388Y-66764718D01*
X87119128Y-66889200D01*
X87119128Y-67889200D01*
X87131388Y-68013682D01*
X87167698Y-68133380D01*
X87226663Y-68243694D01*
X87306015Y-68340385D01*
X87402706Y-68419737D01*
X87513020Y-68478702D01*
X87632718Y-68515012D01*
X87757200Y-68527272D01*
X88222200Y-68527272D01*
X88222201Y-76033439D01*
X88216709Y-76089200D01*
X88238623Y-76311698D01*
X88303524Y-76525646D01*
X88309640Y-76537088D01*
X88408917Y-76722823D01*
X88550752Y-76895649D01*
X88594060Y-76931191D01*
X89187400Y-77524532D01*
X89187400Y-81261928D01*
X88294085Y-81261928D01*
X86533525Y-79501368D01*
X86508942Y-79471414D01*
X86389411Y-79373316D01*
X86253038Y-79300424D01*
X86105065Y-79255537D01*
X85989739Y-79244178D01*
X85989731Y-79244178D01*
X85951178Y-79240381D01*
X85912625Y-79244178D01*
X73577775Y-79244178D01*
X73539222Y-79240381D01*
X73500669Y-79244178D01*
X73500662Y-79244178D01*
X73399713Y-79254121D01*
X73385335Y-79255537D01*
X73350895Y-79265984D01*
X73237363Y-79300424D01*
X73100990Y-79373316D01*
X73040782Y-79422728D01*
X73011410Y-79446833D01*
X73011407Y-79446836D01*
X72981459Y-79471414D01*
X72956881Y-79501362D01*
X71197244Y-81261000D01*
X71170462Y-81261000D01*
X70970503Y-81300774D01*
X70782145Y-81378795D01*
X70612627Y-81492063D01*
X70468464Y-81636226D01*
X70355196Y-81805744D01*
X70277175Y-81994102D01*
X70250725Y-82127075D01*
X70140250Y-82016600D01*
X69041000Y-82016600D01*
X69041000Y-82036600D01*
X68787000Y-82036600D01*
X68787000Y-82016600D01*
X68767000Y-82016600D01*
X68767000Y-81762600D01*
X68787000Y-81762600D01*
X68787000Y-80763350D01*
X69041000Y-80763350D01*
X69041000Y-81762600D01*
X70140250Y-81762600D01*
X70299000Y-81603850D01*
X70302072Y-81239600D01*
X70289812Y-81115118D01*
X70253502Y-80995420D01*
X70194537Y-80885106D01*
X70115185Y-80788415D01*
X70018494Y-80709063D01*
X69908180Y-80650098D01*
X69788482Y-80613788D01*
X69664000Y-80601528D01*
X69199750Y-80604600D01*
X69041000Y-80763350D01*
X68787000Y-80763350D01*
X68628250Y-80604600D01*
X68164000Y-80601528D01*
X68039518Y-80613788D01*
X67919820Y-80650098D01*
X67809506Y-80709063D01*
X67712815Y-80788415D01*
X67633463Y-80885106D01*
X67574498Y-80995420D01*
X67564000Y-81030027D01*
X67553502Y-80995420D01*
X67494537Y-80885106D01*
X67415185Y-80788415D01*
X67318494Y-80709063D01*
X67208180Y-80650098D01*
X67088482Y-80613788D01*
X66999000Y-80604975D01*
X66999000Y-77875157D01*
X67908615Y-76965542D01*
X67938564Y-76940964D01*
X68036662Y-76821433D01*
X68100996Y-76701072D01*
X68130800Y-76701072D01*
X68255282Y-76688812D01*
X68374980Y-76652502D01*
X68485294Y-76593537D01*
X68581985Y-76514185D01*
X68630800Y-76454704D01*
X68679615Y-76514185D01*
X68776306Y-76593537D01*
X68886620Y-76652502D01*
X69006318Y-76688812D01*
X69130800Y-76701072D01*
X69595050Y-76698000D01*
X69753800Y-76539250D01*
X69753800Y-75565000D01*
X70007800Y-75565000D01*
X70007800Y-76539250D01*
X70166550Y-76698000D01*
X70630800Y-76701072D01*
X70755282Y-76688812D01*
X70874980Y-76652502D01*
X70985294Y-76593537D01*
X71081985Y-76514185D01*
X71161337Y-76417494D01*
X71220302Y-76307180D01*
X71256612Y-76187482D01*
X71268872Y-76063000D01*
X71265800Y-75723750D01*
X71107050Y-75565000D01*
X70007800Y-75565000D01*
X69753800Y-75565000D01*
X69733800Y-75565000D01*
X69733800Y-75311000D01*
X69753800Y-75311000D01*
X69753800Y-75291000D01*
X70007800Y-75291000D01*
X70007800Y-75311000D01*
X71107050Y-75311000D01*
X71265800Y-75152250D01*
X71268872Y-74813000D01*
X71256612Y-74688518D01*
X71220302Y-74568820D01*
X71161337Y-74458506D01*
X71081985Y-74361815D01*
X70985294Y-74282463D01*
X70874980Y-74223498D01*
X70755282Y-74187188D01*
X70630800Y-74174928D01*
X70166550Y-74178000D01*
X70007802Y-74336748D01*
X70007802Y-74241379D01*
X70025585Y-74226785D01*
X70104937Y-74130094D01*
X70163902Y-74019780D01*
X70200212Y-73900082D01*
X70212472Y-73775600D01*
X70209400Y-73611350D01*
X70050650Y-73452600D01*
X69301400Y-73452600D01*
X69301400Y-73472600D01*
X69047400Y-73472600D01*
X69047400Y-73452600D01*
X69027400Y-73452600D01*
X69027400Y-73198600D01*
X69047400Y-73198600D01*
X69047400Y-73178600D01*
X69301400Y-73178600D01*
X69301400Y-73198600D01*
X70050650Y-73198600D01*
X70209400Y-73039850D01*
X70212472Y-72875600D01*
X70200212Y-72751118D01*
X70163902Y-72631420D01*
X70104937Y-72521106D01*
X70042150Y-72444600D01*
X71128649Y-72444600D01*
X71184400Y-72450091D01*
X71240151Y-72444600D01*
X71240152Y-72444600D01*
X71406899Y-72428177D01*
X71620847Y-72363276D01*
X71818023Y-72257884D01*
X71990849Y-72116049D01*
X72026396Y-72072735D01*
X75561860Y-68537272D01*
X76580800Y-68537272D01*
X76705282Y-68525012D01*
X76824980Y-68488702D01*
X76935294Y-68429737D01*
X77031985Y-68350385D01*
X77111337Y-68253694D01*
X77170302Y-68143380D01*
X77206612Y-68023682D01*
X77218872Y-67899200D01*
X77218872Y-66899200D01*
X77217888Y-66889200D01*
X77534861Y-66889200D01*
X77534861Y-67889200D01*
X77547121Y-68013682D01*
X77583431Y-68133380D01*
X77642396Y-68243694D01*
X77721748Y-68340385D01*
X77818439Y-68419737D01*
X77928753Y-68478702D01*
X78048451Y-68515012D01*
X78172933Y-68527272D01*
X81372933Y-68527272D01*
X81404125Y-68524200D01*
X82837907Y-68524200D01*
X82840584Y-68525012D01*
X82965066Y-68537272D01*
X84540504Y-68537272D01*
X84565065Y-68539691D01*
X84589626Y-68537272D01*
X86165066Y-68537272D01*
X86289548Y-68525012D01*
X86409246Y-68488702D01*
X86519560Y-68429737D01*
X86616251Y-68350385D01*
X86695603Y-68253694D01*
X86754568Y-68143380D01*
X86790878Y-68023682D01*
X86803138Y-67899200D01*
X86803138Y-66899200D01*
X86790878Y-66774718D01*
X86754568Y-66655020D01*
X86695603Y-66544706D01*
X86616251Y-66448015D01*
X86519560Y-66368663D01*
X86409246Y-66309698D01*
X86289548Y-66273388D01*
X86165066Y-66261128D01*
X84681160Y-66261128D01*
X84610818Y-66254200D01*
X84610817Y-66254200D01*
X84555066Y-66248709D01*
X84499315Y-66254200D01*
X81404125Y-66254200D01*
X81372933Y-66251128D01*
X78172933Y-66251128D01*
X78048451Y-66263388D01*
X77928753Y-66299698D01*
X77818439Y-66358663D01*
X77721748Y-66438015D01*
X77642396Y-66534706D01*
X77583431Y-66645020D01*
X77547121Y-66764718D01*
X77534861Y-66889200D01*
X77217888Y-66889200D01*
X77206612Y-66774718D01*
X77170302Y-66655020D01*
X77111337Y-66544706D01*
X77031985Y-66448015D01*
X76935294Y-66368663D01*
X76824980Y-66309698D01*
X76705282Y-66273388D01*
X76580800Y-66261128D01*
X75005361Y-66261128D01*
X74980800Y-66258709D01*
X74956239Y-66261128D01*
X73380800Y-66261128D01*
X73371799Y-66262014D01*
X73371799Y-65939755D01*
X73375596Y-65901199D01*
X73371799Y-65862639D01*
X73371799Y-65862638D01*
X73367416Y-65818137D01*
X73360441Y-65747312D01*
X73315553Y-65599339D01*
X73279442Y-65531780D01*
X73242661Y-65462966D01*
X73144563Y-65343435D01*
X73114610Y-65318853D01*
X72611272Y-64815515D01*
X72611272Y-63974600D01*
X85837469Y-63974600D01*
X88113995Y-66251128D01*
X88113995Y-66251128D01*
G37*
X88113995Y-66251128D02*
X87757200Y-66251128D01*
X87632718Y-66263388D01*
X87513020Y-66299698D01*
X87402706Y-66358663D01*
X87306015Y-66438015D01*
X87226663Y-66534706D01*
X87167698Y-66645020D01*
X87131388Y-66764718D01*
X87119128Y-66889200D01*
X87119128Y-67889200D01*
X87131388Y-68013682D01*
X87167698Y-68133380D01*
X87226663Y-68243694D01*
X87306015Y-68340385D01*
X87402706Y-68419737D01*
X87513020Y-68478702D01*
X87632718Y-68515012D01*
X87757200Y-68527272D01*
X88222200Y-68527272D01*
X88222201Y-76033439D01*
X88216709Y-76089200D01*
X88238623Y-76311698D01*
X88303524Y-76525646D01*
X88309640Y-76537088D01*
X88408917Y-76722823D01*
X88550752Y-76895649D01*
X88594060Y-76931191D01*
X89187400Y-77524532D01*
X89187400Y-81261928D01*
X88294085Y-81261928D01*
X86533525Y-79501368D01*
X86508942Y-79471414D01*
X86389411Y-79373316D01*
X86253038Y-79300424D01*
X86105065Y-79255537D01*
X85989739Y-79244178D01*
X85989731Y-79244178D01*
X85951178Y-79240381D01*
X85912625Y-79244178D01*
X73577775Y-79244178D01*
X73539222Y-79240381D01*
X73500669Y-79244178D01*
X73500662Y-79244178D01*
X73399713Y-79254121D01*
X73385335Y-79255537D01*
X73350895Y-79265984D01*
X73237363Y-79300424D01*
X73100990Y-79373316D01*
X73040782Y-79422728D01*
X73011410Y-79446833D01*
X73011407Y-79446836D01*
X72981459Y-79471414D01*
X72956881Y-79501362D01*
X71197244Y-81261000D01*
X71170462Y-81261000D01*
X70970503Y-81300774D01*
X70782145Y-81378795D01*
X70612627Y-81492063D01*
X70468464Y-81636226D01*
X70355196Y-81805744D01*
X70277175Y-81994102D01*
X70250725Y-82127075D01*
X70140250Y-82016600D01*
X69041000Y-82016600D01*
X69041000Y-82036600D01*
X68787000Y-82036600D01*
X68787000Y-82016600D01*
X68767000Y-82016600D01*
X68767000Y-81762600D01*
X68787000Y-81762600D01*
X68787000Y-80763350D01*
X69041000Y-80763350D01*
X69041000Y-81762600D01*
X70140250Y-81762600D01*
X70299000Y-81603850D01*
X70302072Y-81239600D01*
X70289812Y-81115118D01*
X70253502Y-80995420D01*
X70194537Y-80885106D01*
X70115185Y-80788415D01*
X70018494Y-80709063D01*
X69908180Y-80650098D01*
X69788482Y-80613788D01*
X69664000Y-80601528D01*
X69199750Y-80604600D01*
X69041000Y-80763350D01*
X68787000Y-80763350D01*
X68628250Y-80604600D01*
X68164000Y-80601528D01*
X68039518Y-80613788D01*
X67919820Y-80650098D01*
X67809506Y-80709063D01*
X67712815Y-80788415D01*
X67633463Y-80885106D01*
X67574498Y-80995420D01*
X67564000Y-81030027D01*
X67553502Y-80995420D01*
X67494537Y-80885106D01*
X67415185Y-80788415D01*
X67318494Y-80709063D01*
X67208180Y-80650098D01*
X67088482Y-80613788D01*
X66999000Y-80604975D01*
X66999000Y-77875157D01*
X67908615Y-76965542D01*
X67938564Y-76940964D01*
X68036662Y-76821433D01*
X68100996Y-76701072D01*
X68130800Y-76701072D01*
X68255282Y-76688812D01*
X68374980Y-76652502D01*
X68485294Y-76593537D01*
X68581985Y-76514185D01*
X68630800Y-76454704D01*
X68679615Y-76514185D01*
X68776306Y-76593537D01*
X68886620Y-76652502D01*
X69006318Y-76688812D01*
X69130800Y-76701072D01*
X69595050Y-76698000D01*
X69753800Y-76539250D01*
X69753800Y-75565000D01*
X70007800Y-75565000D01*
X70007800Y-76539250D01*
X70166550Y-76698000D01*
X70630800Y-76701072D01*
X70755282Y-76688812D01*
X70874980Y-76652502D01*
X70985294Y-76593537D01*
X71081985Y-76514185D01*
X71161337Y-76417494D01*
X71220302Y-76307180D01*
X71256612Y-76187482D01*
X71268872Y-76063000D01*
X71265800Y-75723750D01*
X71107050Y-75565000D01*
X70007800Y-75565000D01*
X69753800Y-75565000D01*
X69733800Y-75565000D01*
X69733800Y-75311000D01*
X69753800Y-75311000D01*
X69753800Y-75291000D01*
X70007800Y-75291000D01*
X70007800Y-75311000D01*
X71107050Y-75311000D01*
X71265800Y-75152250D01*
X71268872Y-74813000D01*
X71256612Y-74688518D01*
X71220302Y-74568820D01*
X71161337Y-74458506D01*
X71081985Y-74361815D01*
X70985294Y-74282463D01*
X70874980Y-74223498D01*
X70755282Y-74187188D01*
X70630800Y-74174928D01*
X70166550Y-74178000D01*
X70007802Y-74336748D01*
X70007802Y-74241379D01*
X70025585Y-74226785D01*
X70104937Y-74130094D01*
X70163902Y-74019780D01*
X70200212Y-73900082D01*
X70212472Y-73775600D01*
X70209400Y-73611350D01*
X70050650Y-73452600D01*
X69301400Y-73452600D01*
X69301400Y-73472600D01*
X69047400Y-73472600D01*
X69047400Y-73452600D01*
X69027400Y-73452600D01*
X69027400Y-73198600D01*
X69047400Y-73198600D01*
X69047400Y-73178600D01*
X69301400Y-73178600D01*
X69301400Y-73198600D01*
X70050650Y-73198600D01*
X70209400Y-73039850D01*
X70212472Y-72875600D01*
X70200212Y-72751118D01*
X70163902Y-72631420D01*
X70104937Y-72521106D01*
X70042150Y-72444600D01*
X71128649Y-72444600D01*
X71184400Y-72450091D01*
X71240151Y-72444600D01*
X71240152Y-72444600D01*
X71406899Y-72428177D01*
X71620847Y-72363276D01*
X71818023Y-72257884D01*
X71990849Y-72116049D01*
X72026396Y-72072735D01*
X75561860Y-68537272D01*
X76580800Y-68537272D01*
X76705282Y-68525012D01*
X76824980Y-68488702D01*
X76935294Y-68429737D01*
X77031985Y-68350385D01*
X77111337Y-68253694D01*
X77170302Y-68143380D01*
X77206612Y-68023682D01*
X77218872Y-67899200D01*
X77218872Y-66899200D01*
X77217888Y-66889200D01*
X77534861Y-66889200D01*
X77534861Y-67889200D01*
X77547121Y-68013682D01*
X77583431Y-68133380D01*
X77642396Y-68243694D01*
X77721748Y-68340385D01*
X77818439Y-68419737D01*
X77928753Y-68478702D01*
X78048451Y-68515012D01*
X78172933Y-68527272D01*
X81372933Y-68527272D01*
X81404125Y-68524200D01*
X82837907Y-68524200D01*
X82840584Y-68525012D01*
X82965066Y-68537272D01*
X84540504Y-68537272D01*
X84565065Y-68539691D01*
X84589626Y-68537272D01*
X86165066Y-68537272D01*
X86289548Y-68525012D01*
X86409246Y-68488702D01*
X86519560Y-68429737D01*
X86616251Y-68350385D01*
X86695603Y-68253694D01*
X86754568Y-68143380D01*
X86790878Y-68023682D01*
X86803138Y-67899200D01*
X86803138Y-66899200D01*
X86790878Y-66774718D01*
X86754568Y-66655020D01*
X86695603Y-66544706D01*
X86616251Y-66448015D01*
X86519560Y-66368663D01*
X86409246Y-66309698D01*
X86289548Y-66273388D01*
X86165066Y-66261128D01*
X84681160Y-66261128D01*
X84610818Y-66254200D01*
X84610817Y-66254200D01*
X84555066Y-66248709D01*
X84499315Y-66254200D01*
X81404125Y-66254200D01*
X81372933Y-66251128D01*
X78172933Y-66251128D01*
X78048451Y-66263388D01*
X77928753Y-66299698D01*
X77818439Y-66358663D01*
X77721748Y-66438015D01*
X77642396Y-66534706D01*
X77583431Y-66645020D01*
X77547121Y-66764718D01*
X77534861Y-66889200D01*
X77217888Y-66889200D01*
X77206612Y-66774718D01*
X77170302Y-66655020D01*
X77111337Y-66544706D01*
X77031985Y-66448015D01*
X76935294Y-66368663D01*
X76824980Y-66309698D01*
X76705282Y-66273388D01*
X76580800Y-66261128D01*
X75005361Y-66261128D01*
X74980800Y-66258709D01*
X74956239Y-66261128D01*
X73380800Y-66261128D01*
X73371799Y-66262014D01*
X73371799Y-65939755D01*
X73375596Y-65901199D01*
X73371799Y-65862639D01*
X73371799Y-65862638D01*
X73367416Y-65818137D01*
X73360441Y-65747312D01*
X73315553Y-65599339D01*
X73279442Y-65531780D01*
X73242661Y-65462966D01*
X73144563Y-65343435D01*
X73114610Y-65318853D01*
X72611272Y-64815515D01*
X72611272Y-63974600D01*
X85837469Y-63974600D01*
X88113995Y-66251128D01*
M02*
