G04 #@! TF.GenerationSoftware,KiCad,Pcbnew,(5.1.0)-1*
G04 #@! TF.CreationDate,2020-01-25T09:08:36+00:00*
G04 #@! TF.ProjectId,v4,76342e6b-6963-4616-945f-706362585858,rev?*
G04 #@! TF.SameCoordinates,Original*
G04 #@! TF.FileFunction,Copper,L1,Top*
G04 #@! TF.FilePolarity,Positive*
%FSLAX46Y46*%
G04 Gerber Fmt 4.6, Leading zero omitted, Abs format (unit mm)*
G04 Created by KiCad (PCBNEW (5.1.0)-1) date 2020-01-25 09:08:36*
%MOMM*%
%LPD*%
G04 APERTURE LIST*
%ADD10R,0.800000X0.900000*%
%ADD11R,0.900000X1.700000*%
%ADD12R,1.200000X1.200000*%
%ADD13R,1.000000X1.250000*%
%ADD14R,1.300000X0.800000*%
%ADD15R,1.200000X1.700000*%
%ADD16O,1.200000X1.700000*%
%ADD17R,0.500000X0.900000*%
%ADD18R,0.900000X0.500000*%
%ADD19R,0.800000X0.750000*%
%ADD20R,1.700000X1.700000*%
%ADD21O,1.700000X1.700000*%
%ADD22R,1.500000X0.600000*%
%ADD23C,0.800000*%
%ADD24C,0.300000*%
%ADD25C,1.000000*%
%ADD26C,0.254000*%
G04 APERTURE END LIST*
D10*
X123767600Y-59787600D03*
X125667600Y-59787600D03*
X124717600Y-57787600D03*
D11*
X107667600Y-76087600D03*
X104767600Y-76087600D03*
X112167600Y-76087600D03*
X109267600Y-76087600D03*
X118867600Y-76087600D03*
X115967600Y-76087600D03*
X123267600Y-76087600D03*
X120367600Y-76087600D03*
X107667600Y-84037600D03*
X104767600Y-84037600D03*
X107667600Y-86687600D03*
X104767600Y-86687600D03*
X112167600Y-84037600D03*
X109267600Y-84037600D03*
X112167600Y-86687600D03*
X109267600Y-86687600D03*
X118767600Y-84037600D03*
X115867600Y-84037600D03*
X118767600Y-86687600D03*
X115867600Y-86687600D03*
X123267600Y-84037600D03*
X120367600Y-84037600D03*
X123267600Y-86687600D03*
X120367600Y-86687600D03*
X107667600Y-78737600D03*
X104767600Y-78737600D03*
X107667600Y-81387600D03*
X104767600Y-81387600D03*
X112167600Y-78737600D03*
X109267600Y-78737600D03*
X112167600Y-81387600D03*
X109267600Y-81387600D03*
X118867600Y-78737600D03*
X115967600Y-78737600D03*
X118767600Y-81387600D03*
X115867600Y-81387600D03*
X123267600Y-78737600D03*
X120367600Y-78737600D03*
X123267600Y-81387600D03*
X120367600Y-81387600D03*
D12*
X111142600Y-93212600D03*
X108942600Y-93212600D03*
D13*
X118817600Y-62587600D03*
X120817600Y-62587600D03*
D12*
X106617600Y-55287600D03*
X104417600Y-55287600D03*
D14*
X113867600Y-57747600D03*
X113867600Y-59027600D03*
X120167600Y-59027600D03*
X120167600Y-57747600D03*
D12*
X130417600Y-55087600D03*
X128217600Y-55087600D03*
D15*
X123217600Y-54387600D03*
D16*
X121217600Y-54387600D03*
D17*
X110792600Y-95012600D03*
X109292600Y-95012600D03*
X130967600Y-76287600D03*
X129467600Y-76287600D03*
D18*
X114017600Y-81837600D03*
X114017600Y-83337600D03*
D17*
X114167600Y-68337600D03*
X115667600Y-68337600D03*
X129367600Y-57187600D03*
X127867600Y-57187600D03*
X116167600Y-51887600D03*
X117667600Y-51887600D03*
X116167600Y-49787600D03*
X117667600Y-49787600D03*
X110467600Y-70887600D03*
X111967600Y-70887600D03*
X110467600Y-72887600D03*
X111967600Y-72887600D03*
X116167600Y-53987600D03*
X117667600Y-53987600D03*
X114167600Y-63837600D03*
X115667600Y-63837600D03*
X114167600Y-66087600D03*
X115667600Y-66087600D03*
X114167600Y-70587600D03*
X115667600Y-70587600D03*
X114167600Y-61587600D03*
X115667600Y-61587600D03*
D19*
X108367600Y-72887600D03*
X106867600Y-72887600D03*
D20*
X129917600Y-78987600D03*
D21*
X129917600Y-81527600D03*
X129917600Y-84067600D03*
X129917600Y-86607600D03*
X129917600Y-89147600D03*
D20*
X114017600Y-90237600D03*
D21*
X116557600Y-90237600D03*
X114017600Y-92777600D03*
X116557600Y-92777600D03*
X114017600Y-95317600D03*
X116557600Y-95317600D03*
D15*
X121217600Y-91487600D03*
D16*
X123217600Y-91487600D03*
D22*
X121417600Y-64577600D03*
X121417600Y-65847600D03*
X121417600Y-67117600D03*
X121417600Y-68387600D03*
X121417600Y-69657600D03*
X121417600Y-70927600D03*
X121417600Y-72197600D03*
X126817600Y-72197600D03*
X126817600Y-70927600D03*
X126817600Y-69657600D03*
X126817600Y-68387600D03*
X126817600Y-67117600D03*
X126817600Y-65847600D03*
X126817600Y-64577600D03*
D15*
X112617600Y-54387600D03*
D16*
X110617600Y-54387600D03*
D10*
X106567600Y-71287600D03*
X108467600Y-71287600D03*
X107517600Y-69287600D03*
D23*
X114217600Y-83987600D03*
X119817600Y-51587600D03*
X119817600Y-49187600D03*
X112917600Y-50437610D03*
X113934889Y-50409368D03*
X111017600Y-67687600D03*
X109817600Y-67687600D03*
X105417600Y-89987600D03*
X106517600Y-89987600D03*
X105417600Y-91087600D03*
X106517600Y-91087600D03*
X125417600Y-86287600D03*
X125417600Y-87387600D03*
X128717600Y-69287600D03*
X128717600Y-70487600D03*
X121755525Y-63266240D03*
X127017600Y-63187600D03*
X109817600Y-68787600D03*
X111017600Y-68787600D03*
X103917600Y-67687600D03*
X105117600Y-67687600D03*
X113317600Y-72787600D03*
X117287772Y-65254798D03*
X114187550Y-72917650D03*
X130517634Y-74939699D03*
X112117600Y-58662600D03*
X111217600Y-60187600D03*
X118417600Y-70987600D03*
X117117600Y-56553279D03*
X107517600Y-67387598D03*
X108567600Y-58137600D03*
X118117600Y-67187600D03*
X125517600Y-62287600D03*
X127617600Y-75287600D03*
X121517604Y-74187600D03*
X115877103Y-74097241D03*
X115277454Y-71519104D03*
X124517600Y-69787600D03*
X118047655Y-72196396D03*
X122817533Y-65137590D03*
X129425452Y-64795296D03*
X123617600Y-68087600D03*
X125767610Y-73687600D03*
X112867589Y-65237589D03*
X131017600Y-56587600D03*
X123759203Y-71987611D03*
X127967610Y-88069510D03*
X126217600Y-88687600D03*
X127524287Y-72149244D03*
X114017600Y-81837612D03*
X117033977Y-69175389D03*
X126414253Y-75437610D03*
X116717600Y-73387600D03*
D24*
X114067600Y-83837600D02*
X114217600Y-83987600D01*
X114017600Y-83837600D02*
X114067600Y-83837600D01*
X108367600Y-71387600D02*
X108467600Y-71287600D01*
X108367600Y-72887600D02*
X108367600Y-71387600D01*
X114017600Y-83787600D02*
X114217600Y-83987600D01*
X114017600Y-83337600D02*
X114017600Y-83787600D01*
X121076885Y-62587600D02*
X121355526Y-62866241D01*
X120817600Y-62587600D02*
X121076885Y-62587600D01*
X121355526Y-62866241D02*
X121755525Y-63266240D01*
X126817600Y-64577600D02*
X126817600Y-63387600D01*
X126817600Y-63387600D02*
X127017600Y-63187600D01*
X129467600Y-76287600D02*
X129467600Y-76087600D01*
X130517634Y-75037566D02*
X130517634Y-74939699D01*
X129467600Y-76087600D02*
X130517634Y-75037566D01*
X118037600Y-95317600D02*
X116557600Y-95317600D01*
X121217600Y-91487600D02*
X121217600Y-92137600D01*
X121217600Y-92137600D02*
X118037600Y-95317600D01*
D25*
X121217600Y-93337600D02*
X120217600Y-94337600D01*
X121217600Y-91487600D02*
X121217600Y-93337600D01*
X120217600Y-94337600D02*
X120217600Y-95037600D01*
D24*
X110792600Y-95712600D02*
X110792600Y-95012600D01*
X112180100Y-97100100D02*
X110792600Y-95712600D01*
X120367600Y-64577600D02*
X121417600Y-64577600D01*
X118817600Y-63027600D02*
X120367600Y-64577600D01*
X118817600Y-62587600D02*
X118817600Y-63027600D01*
X107517600Y-54387600D02*
X106617600Y-55287600D01*
X110617600Y-54387600D02*
X107517600Y-54387600D01*
X111617599Y-60587599D02*
X111217600Y-60187600D01*
X112617600Y-61587600D02*
X111617599Y-60587599D01*
X114167600Y-61587600D02*
X112617600Y-61587600D01*
X118017600Y-62587600D02*
X116117599Y-60687599D01*
X114867601Y-60687599D02*
X114167600Y-61387600D01*
X118817600Y-62587600D02*
X118017600Y-62587600D01*
X114167600Y-61387600D02*
X114167600Y-61587600D01*
X116117599Y-60687599D02*
X114867601Y-60687599D01*
D25*
X123267600Y-76087600D02*
X123267600Y-78737600D01*
X123267600Y-81387600D02*
X123267600Y-84037600D01*
X123267600Y-78737600D02*
X123267600Y-81387600D01*
X123267600Y-86687600D02*
X123267600Y-84037600D01*
X123217600Y-86737600D02*
X123267600Y-86687600D01*
X123217600Y-91487600D02*
X123217600Y-86737600D01*
D24*
X118817599Y-71387599D02*
X118417600Y-70987600D01*
X123267600Y-73879596D02*
X122335605Y-72947601D01*
X120217599Y-72857601D02*
X120217599Y-72329595D01*
X120217599Y-72329595D02*
X119275603Y-71387599D01*
X119275603Y-71387599D02*
X118817599Y-71387599D01*
X120307599Y-72947601D02*
X120217599Y-72857601D01*
X122335605Y-72947601D02*
X120307599Y-72947601D01*
X123267600Y-76087600D02*
X123267600Y-73879596D01*
X123217600Y-91237600D02*
X123217600Y-91487600D01*
X121917601Y-89937601D02*
X123217600Y-91237600D01*
X116557600Y-90237600D02*
X116857599Y-89937601D01*
X116857599Y-89937601D02*
X121917601Y-89937601D01*
X113517600Y-52667598D02*
X113517600Y-53237600D01*
X117667600Y-49787600D02*
X117667600Y-49987600D01*
X117667600Y-49987600D02*
X116867601Y-50787599D01*
X115397599Y-50787599D02*
X113517600Y-52667598D01*
X112617600Y-54137600D02*
X112617600Y-54387600D01*
X113517600Y-53237600D02*
X112617600Y-54137600D01*
X116867601Y-50787599D02*
X115397599Y-50787599D01*
X121511066Y-61087611D02*
X118869068Y-61087611D01*
X117117600Y-59336143D02*
X117117600Y-57118964D01*
X117117600Y-57118964D02*
X117117600Y-56553279D01*
X126817600Y-68387600D02*
X126367600Y-68387600D01*
X123767602Y-63344147D02*
X121511066Y-61087611D01*
X118869068Y-61087611D02*
X117117600Y-59336143D01*
X126367600Y-68387600D02*
X123767602Y-65787602D01*
X123767602Y-65787602D02*
X123767602Y-63344147D01*
X113467599Y-69137599D02*
X114167600Y-69837600D01*
X114167600Y-66837600D02*
X113467599Y-67537601D01*
X114167600Y-69837600D02*
X114167600Y-70587600D01*
X114167600Y-66087600D02*
X114167600Y-66837600D01*
X113467599Y-67537601D02*
X113467599Y-69137599D01*
X122467600Y-70927600D02*
X121417600Y-70927600D01*
X123965603Y-70927600D02*
X122467600Y-70927600D01*
X124917600Y-71879597D02*
X123965603Y-70927600D01*
X124917600Y-81287600D02*
X124917600Y-71879597D01*
X129917600Y-86287600D02*
X124917600Y-81287600D01*
X129917600Y-86607600D02*
X129917600Y-86287600D01*
X118825602Y-70037598D02*
X117961057Y-70037598D01*
X117961057Y-70037598D02*
X115461068Y-72537587D01*
X115009583Y-72537587D02*
X114167600Y-71695604D01*
X114167600Y-71695604D02*
X114167600Y-71337600D01*
X115461068Y-72537587D02*
X115009583Y-72537587D01*
X119715604Y-70927600D02*
X118825602Y-70037598D01*
X121417600Y-70927600D02*
X119715604Y-70927600D01*
X114167600Y-71337600D02*
X114167600Y-70587600D01*
X116167600Y-55447600D02*
X113867600Y-57747600D01*
X116167600Y-53987600D02*
X116167600Y-55447600D01*
X117667600Y-54187600D02*
X117667600Y-53987600D01*
X118217600Y-59587600D02*
X118217600Y-54737600D01*
X124367613Y-63095615D02*
X121759598Y-60487600D01*
X121759598Y-60487600D02*
X119117600Y-60487600D01*
X119117600Y-60487600D02*
X118217600Y-59587600D01*
X124367613Y-65117613D02*
X124367613Y-63095615D01*
X118217600Y-54737600D02*
X117667600Y-54187600D01*
X126817600Y-67117600D02*
X126367600Y-67117600D01*
X126367600Y-67117600D02*
X124367613Y-65117613D01*
D25*
X118767600Y-81387600D02*
X120367600Y-81387600D01*
X118867600Y-78687600D02*
X120367600Y-78687600D01*
X112167600Y-81487600D02*
X113417589Y-80237611D01*
X114617611Y-80237611D02*
X115867600Y-81487600D01*
X113417589Y-80237611D02*
X114617611Y-80237611D01*
X115967600Y-78737600D02*
X112167600Y-78737600D01*
X109267600Y-81387600D02*
X107667600Y-81387600D01*
X107667600Y-78737600D02*
X109267600Y-78737600D01*
X104624909Y-86544909D02*
X104624909Y-71443451D01*
X104767600Y-86687600D02*
X104624909Y-86544909D01*
X107317600Y-69087600D02*
X107517600Y-69287600D01*
X104624909Y-71443451D02*
X104999180Y-71069180D01*
X104999180Y-71069180D02*
X104999180Y-70206018D01*
X104999180Y-70206018D02*
X106117598Y-69087600D01*
X106117598Y-69087600D02*
X107317600Y-69087600D01*
D24*
X107517600Y-69287600D02*
X107517600Y-67387598D01*
X114017600Y-56387600D02*
X110317600Y-56387600D01*
X115267599Y-52987601D02*
X115267599Y-55137601D01*
X116167600Y-51887600D02*
X116167600Y-52087600D01*
X116167600Y-52087600D02*
X115267599Y-52987601D01*
X108967599Y-57737601D02*
X108567600Y-58137600D01*
X110317600Y-56387600D02*
X108967599Y-57737601D01*
X115267599Y-55137601D02*
X114017600Y-56387600D01*
X109517600Y-49587600D02*
X104417600Y-54687600D01*
X118617600Y-50937600D02*
X118617600Y-49227598D01*
X104417600Y-54687600D02*
X104417600Y-55287600D01*
X117667600Y-51887600D02*
X118617600Y-50937600D01*
X118617600Y-49227598D02*
X118077602Y-48687600D01*
X118077602Y-48687600D02*
X114617600Y-48687600D01*
X114617600Y-48687600D02*
X113717600Y-49587600D01*
X113717600Y-49587600D02*
X109517600Y-49587600D01*
X127967600Y-57187600D02*
X127867600Y-57187600D01*
X128217600Y-56837600D02*
X128217600Y-55087600D01*
X127867600Y-57187600D02*
X128217600Y-56837600D01*
X115667600Y-69837600D02*
X114167600Y-68337600D01*
X115667600Y-70587600D02*
X115667600Y-69837600D01*
X114167600Y-68137600D02*
X115117600Y-67187600D01*
X117551915Y-67187600D02*
X118117600Y-67187600D01*
X114167600Y-68337600D02*
X114167600Y-68137600D01*
X115117600Y-67187600D02*
X117551915Y-67187600D01*
X123767600Y-59737600D02*
X123767600Y-60537600D01*
X125117601Y-61887601D02*
X125517600Y-62287600D01*
X125517600Y-62853285D02*
X125517600Y-62287600D01*
X126367600Y-65847600D02*
X125517600Y-64997600D01*
X126817600Y-65847600D02*
X126367600Y-65847600D01*
X123767600Y-60537600D02*
X125117601Y-61887601D01*
X125667600Y-62137600D02*
X125517600Y-62287600D01*
X125517600Y-64997600D02*
X125517600Y-62853285D01*
X125667600Y-59787600D02*
X125667600Y-62137600D01*
X127617600Y-79227600D02*
X129917600Y-81527600D01*
X127617600Y-75287600D02*
X127617600Y-79227600D01*
X121517604Y-74187600D02*
X121117605Y-74587599D01*
X116277102Y-74497240D02*
X115877103Y-74097241D01*
X115667600Y-70587600D02*
X115667600Y-71337600D01*
X115667600Y-71337600D02*
X115486096Y-71519104D01*
X115486096Y-71519104D02*
X115277454Y-71519104D01*
X116367461Y-74587599D02*
X116277102Y-74497240D01*
X121117605Y-74587599D02*
X116367461Y-74587599D01*
X126817600Y-69657600D02*
X124647600Y-69657600D01*
X124647600Y-69657600D02*
X124517600Y-69787600D01*
X116650802Y-72196396D02*
X117481970Y-72196396D01*
X115609598Y-73137598D02*
X115709600Y-73137598D01*
X114809594Y-73937602D02*
X115609598Y-73137598D01*
X111967600Y-72887600D02*
X111967600Y-73087600D01*
X117481970Y-72196396D02*
X118047655Y-72196396D01*
X112817602Y-73937602D02*
X114809594Y-73937602D01*
X115709600Y-73137598D02*
X116650802Y-72196396D01*
X111967600Y-73087600D02*
X112817602Y-73937602D01*
X106567600Y-72587600D02*
X106867600Y-72887600D01*
X106567600Y-71287600D02*
X106567600Y-72587600D01*
X110467600Y-70887600D02*
X110467600Y-72887600D01*
X106892600Y-72887600D02*
X106867600Y-72887600D01*
X107717601Y-73712601D02*
X106892600Y-72887600D01*
X110392599Y-73712601D02*
X107717601Y-73712601D01*
X110467600Y-73637600D02*
X110392599Y-73712601D01*
X110467600Y-72887600D02*
X110467600Y-73637600D01*
X120877600Y-59027600D02*
X120167600Y-59027600D01*
X121617600Y-58287600D02*
X120877600Y-59027600D01*
X121617600Y-57169302D02*
X121617600Y-58287600D01*
X123217600Y-54387600D02*
X123217600Y-55569302D01*
X123217600Y-55569302D02*
X121617600Y-57169302D01*
X120167600Y-57037600D02*
X120167600Y-57747600D01*
X121217600Y-54387600D02*
X121217600Y-55987600D01*
X121217600Y-55987600D02*
X120167600Y-57037600D01*
X108942600Y-94662600D02*
X108942600Y-93212600D01*
X109292600Y-95012600D02*
X108942600Y-94662600D01*
X121867600Y-65847600D02*
X122577610Y-65137590D01*
X122577610Y-65137590D02*
X122817533Y-65137590D01*
X121417600Y-65847600D02*
X121867600Y-65847600D01*
X130967600Y-76487600D02*
X130967600Y-76287600D01*
X130417600Y-77037600D02*
X130967600Y-76487600D01*
X130217600Y-77037600D02*
X130417600Y-77037600D01*
X129917600Y-77337600D02*
X130217600Y-77037600D01*
X129917600Y-78987600D02*
X129917600Y-77337600D01*
X129825451Y-65195295D02*
X129425452Y-64795296D01*
X131392590Y-66762434D02*
X129825451Y-65195295D01*
X131392590Y-76112610D02*
X131392590Y-66762434D01*
X129917600Y-78987600D02*
X129917600Y-77587600D01*
X129917600Y-77587600D02*
X131392590Y-76112610D01*
X123217601Y-67687601D02*
X123617600Y-68087600D01*
X122647600Y-67117600D02*
X123217601Y-67687601D01*
X121417600Y-67117600D02*
X122647600Y-67117600D01*
X125517609Y-79667609D02*
X125517609Y-74503286D01*
X129917600Y-84067600D02*
X125517609Y-79667609D01*
X125517609Y-74503286D02*
X125767610Y-74253285D01*
X125767610Y-74253285D02*
X125767610Y-73687600D01*
X113557599Y-62937599D02*
X112867589Y-63627609D01*
X115667600Y-61787600D02*
X114517601Y-62937599D01*
X114517601Y-62937599D02*
X113557599Y-62937599D01*
X112867589Y-63627609D02*
X112867589Y-64671904D01*
X112867589Y-64671904D02*
X112867589Y-65237589D01*
X120217599Y-66337599D02*
X120217599Y-67637599D01*
X115667600Y-61587600D02*
X115667600Y-61787600D01*
X120967600Y-68387600D02*
X121417600Y-68387600D01*
X115667600Y-61787600D02*
X120217599Y-66337599D01*
X120217599Y-67637599D02*
X120967600Y-68387600D01*
X114167600Y-64587600D02*
X115667600Y-66087600D01*
X114167600Y-63837600D02*
X114167600Y-64587600D01*
X119617588Y-68307588D02*
X120967600Y-69657600D01*
X115667600Y-66087600D02*
X117117600Y-66087600D01*
X117117600Y-66087600D02*
X117167598Y-66137598D01*
X117167598Y-66137598D02*
X118925606Y-66137598D01*
X118925606Y-66137598D02*
X119617588Y-66829580D01*
X120967600Y-69657600D02*
X121417600Y-69657600D01*
X119617588Y-66829580D02*
X119617588Y-68307588D01*
X130417600Y-55987600D02*
X131017600Y-56587600D01*
X130417600Y-55087600D02*
X130417600Y-55987600D01*
X123549214Y-72197600D02*
X123759203Y-71987611D01*
X121417600Y-72197600D02*
X123549214Y-72197600D01*
X127967610Y-88069510D02*
X126835690Y-88069510D01*
X126617599Y-88287601D02*
X126217600Y-88687600D01*
X126835690Y-88069510D02*
X126617599Y-88287601D01*
X126817600Y-72197600D02*
X126865956Y-72149244D01*
X126865956Y-72149244D02*
X126958602Y-72149244D01*
X126958602Y-72149244D02*
X127524287Y-72149244D01*
X113317600Y-90237600D02*
X114017600Y-90237600D01*
X111817600Y-91737600D02*
X113317600Y-90237600D01*
X111142600Y-93212600D02*
X111817600Y-92537600D01*
X111817600Y-92537600D02*
X111817600Y-91737600D01*
X115667600Y-68337600D02*
X116217600Y-68337600D01*
X117033977Y-69153977D02*
X117033977Y-69175389D01*
X116217600Y-68337600D02*
X117033977Y-69153977D01*
X128374288Y-71434288D02*
X128374288Y-72906378D01*
X126817600Y-70927600D02*
X127867600Y-70927600D01*
X127867600Y-70927600D02*
X128374288Y-71434288D01*
X126414253Y-75432098D02*
X126414253Y-75437610D01*
X126414253Y-74866413D02*
X126414253Y-75432098D01*
X128374288Y-72906378D02*
X126414253Y-74866413D01*
D25*
X118767600Y-86687600D02*
X120367600Y-86687600D01*
X118767600Y-84037600D02*
X120367600Y-84037600D01*
X112167600Y-86687600D02*
X115867600Y-86687600D01*
X112167600Y-84087600D02*
X113467590Y-85387590D01*
X114567610Y-85387590D02*
X115867600Y-84087600D01*
X113467590Y-85387590D02*
X114567610Y-85387590D01*
X107667600Y-86687600D02*
X109267600Y-86687600D01*
X107667600Y-84087600D02*
X109267600Y-84087600D01*
X118867600Y-76087600D02*
X120367600Y-76087600D01*
X112167600Y-76087600D02*
X115967600Y-76087600D01*
X107667600Y-76087600D02*
X109267600Y-76087600D01*
D26*
G36*
X102686969Y-51796269D02*
G01*
X102931562Y-52162329D01*
X103242871Y-52473638D01*
X103608931Y-52718231D01*
X104015675Y-52886710D01*
X104447472Y-52972600D01*
X104887728Y-52972600D01*
X105055893Y-52939150D01*
X103945515Y-54049528D01*
X103817600Y-54049528D01*
X103693118Y-54061788D01*
X103573420Y-54098098D01*
X103463106Y-54157063D01*
X103366415Y-54236415D01*
X103287063Y-54333106D01*
X103228098Y-54443420D01*
X103191788Y-54563118D01*
X103179528Y-54687600D01*
X103179528Y-55887600D01*
X103191788Y-56012082D01*
X103228098Y-56131780D01*
X103287063Y-56242094D01*
X103366415Y-56338785D01*
X103463106Y-56418137D01*
X103573420Y-56477102D01*
X103693118Y-56513412D01*
X103817600Y-56525672D01*
X105017600Y-56525672D01*
X105142082Y-56513412D01*
X105261780Y-56477102D01*
X105372094Y-56418137D01*
X105468785Y-56338785D01*
X105517600Y-56279304D01*
X105566415Y-56338785D01*
X105663106Y-56418137D01*
X105773420Y-56477102D01*
X105893118Y-56513412D01*
X106017600Y-56525672D01*
X107217600Y-56525672D01*
X107342082Y-56513412D01*
X107461780Y-56477102D01*
X107572094Y-56418137D01*
X107668785Y-56338785D01*
X107748137Y-56242094D01*
X107807102Y-56131780D01*
X107843412Y-56012082D01*
X107855672Y-55887600D01*
X107855672Y-55172600D01*
X107921144Y-55172600D01*
X107965727Y-56168281D01*
X107968290Y-56188598D01*
X107975750Y-56212350D01*
X107987701Y-56234191D01*
X108003683Y-56253280D01*
X108023083Y-56268884D01*
X108045153Y-56280404D01*
X108069048Y-56287397D01*
X108093847Y-56289594D01*
X109317462Y-56277581D01*
X108492443Y-57102600D01*
X108465661Y-57102600D01*
X108265702Y-57142374D01*
X108077344Y-57220395D01*
X107907826Y-57333663D01*
X107763663Y-57477826D01*
X107650395Y-57647344D01*
X107572374Y-57835702D01*
X107532600Y-58035661D01*
X107532600Y-58239539D01*
X107572374Y-58439498D01*
X107650395Y-58627856D01*
X107763663Y-58797374D01*
X107907826Y-58941537D01*
X108077344Y-59054805D01*
X108265702Y-59132826D01*
X108465661Y-59172600D01*
X108669539Y-59172600D01*
X108869498Y-59132826D01*
X109057856Y-59054805D01*
X109227374Y-58941537D01*
X109371537Y-58797374D01*
X109484805Y-58627856D01*
X109562826Y-58439498D01*
X109602600Y-58239539D01*
X109602600Y-58212757D01*
X110642757Y-57172600D01*
X112607112Y-57172600D01*
X112591788Y-57223118D01*
X112579528Y-57347600D01*
X112579528Y-58147600D01*
X112591788Y-58272082D01*
X112626830Y-58387600D01*
X112591788Y-58503118D01*
X112579528Y-58627600D01*
X112582600Y-58741850D01*
X112741350Y-58900600D01*
X113740600Y-58900600D01*
X113740600Y-58880600D01*
X113994600Y-58880600D01*
X113994600Y-58900600D01*
X114993850Y-58900600D01*
X115152600Y-58741850D01*
X115155672Y-58627600D01*
X115143412Y-58503118D01*
X115108370Y-58387600D01*
X115143412Y-58272082D01*
X115155672Y-58147600D01*
X115155672Y-57569685D01*
X116082600Y-56642758D01*
X116082600Y-56655218D01*
X116122374Y-56855177D01*
X116200395Y-57043535D01*
X116313663Y-57213053D01*
X116332601Y-57231991D01*
X116332600Y-59297590D01*
X116328803Y-59336143D01*
X116332600Y-59374696D01*
X116332600Y-59374703D01*
X116343959Y-59490029D01*
X116388846Y-59638002D01*
X116461738Y-59774375D01*
X116559836Y-59893907D01*
X116589790Y-59918490D01*
X118054507Y-61383207D01*
X117969046Y-61428888D01*
X116699946Y-60159789D01*
X116675363Y-60129835D01*
X116555832Y-60031737D01*
X116419459Y-59958845D01*
X116271486Y-59913958D01*
X116156160Y-59902599D01*
X116156152Y-59902599D01*
X116117599Y-59898802D01*
X116079046Y-59902599D01*
X114939767Y-59902599D01*
X114968785Y-59878785D01*
X115048137Y-59782094D01*
X115107102Y-59671780D01*
X115143412Y-59552082D01*
X115155672Y-59427600D01*
X115152600Y-59313350D01*
X114993850Y-59154600D01*
X113994600Y-59154600D01*
X113994600Y-59903850D01*
X114153350Y-60062600D01*
X114389337Y-60064590D01*
X114339788Y-60105254D01*
X114339785Y-60105257D01*
X114309837Y-60129835D01*
X114285258Y-60159784D01*
X113945515Y-60499528D01*
X113917600Y-60499528D01*
X113793118Y-60511788D01*
X113673420Y-60548098D01*
X113563106Y-60607063D01*
X113466415Y-60686415D01*
X113387063Y-60783106D01*
X113376643Y-60802600D01*
X112942758Y-60802600D01*
X112252600Y-60112443D01*
X112252600Y-60085661D01*
X112212826Y-59885702D01*
X112134805Y-59697344D01*
X112021537Y-59527826D01*
X111921311Y-59427600D01*
X112579528Y-59427600D01*
X112591788Y-59552082D01*
X112628098Y-59671780D01*
X112687063Y-59782094D01*
X112766415Y-59878785D01*
X112863106Y-59958137D01*
X112973420Y-60017102D01*
X113093118Y-60053412D01*
X113217600Y-60065672D01*
X113581850Y-60062600D01*
X113740600Y-59903850D01*
X113740600Y-59154600D01*
X112741350Y-59154600D01*
X112582600Y-59313350D01*
X112579528Y-59427600D01*
X111921311Y-59427600D01*
X111877374Y-59383663D01*
X111707856Y-59270395D01*
X111519498Y-59192374D01*
X111319539Y-59152600D01*
X111115661Y-59152600D01*
X110915702Y-59192374D01*
X110727344Y-59270395D01*
X110557826Y-59383663D01*
X110413663Y-59527826D01*
X110300395Y-59697344D01*
X110222374Y-59885702D01*
X110182600Y-60085661D01*
X110182600Y-60289539D01*
X110222374Y-60489498D01*
X110300395Y-60677856D01*
X110413663Y-60847374D01*
X110557826Y-60991537D01*
X110727344Y-61104805D01*
X110915702Y-61182826D01*
X111115661Y-61222600D01*
X111142443Y-61222600D01*
X112035257Y-62115415D01*
X112059836Y-62145364D01*
X112089784Y-62169942D01*
X112089787Y-62169945D01*
X112097649Y-62176397D01*
X112179367Y-62243462D01*
X112315740Y-62316354D01*
X112463713Y-62361242D01*
X112538626Y-62368620D01*
X112579039Y-62372600D01*
X112579044Y-62372600D01*
X112617600Y-62376397D01*
X112656155Y-62372600D01*
X113008651Y-62372600D01*
X112999835Y-62379835D01*
X112975254Y-62409787D01*
X112339779Y-63045262D01*
X112309825Y-63069845D01*
X112211727Y-63189377D01*
X112138835Y-63325750D01*
X112093948Y-63473723D01*
X112082589Y-63589049D01*
X112082589Y-63589056D01*
X112078792Y-63627609D01*
X112082589Y-63666162D01*
X112082590Y-64558877D01*
X112063652Y-64577815D01*
X111950384Y-64747333D01*
X111872363Y-64935691D01*
X111832589Y-65135650D01*
X111832589Y-65339528D01*
X111872363Y-65539487D01*
X111950384Y-65727845D01*
X112063652Y-65897363D01*
X112207815Y-66041526D01*
X112377333Y-66154794D01*
X112565691Y-66232815D01*
X112765650Y-66272589D01*
X112969528Y-66272589D01*
X113169487Y-66232815D01*
X113279528Y-66187234D01*
X113279528Y-66537600D01*
X113286514Y-66608529D01*
X112939788Y-66955254D01*
X112909835Y-66979837D01*
X112811737Y-67099369D01*
X112738845Y-67235742D01*
X112693958Y-67383715D01*
X112682599Y-67499041D01*
X112682599Y-67499048D01*
X112678802Y-67537601D01*
X112682599Y-67576154D01*
X112682600Y-69099037D01*
X112678802Y-69137599D01*
X112693958Y-69291485D01*
X112738845Y-69439458D01*
X112763563Y-69485702D01*
X112811738Y-69575832D01*
X112837369Y-69607063D01*
X112885254Y-69665411D01*
X112885258Y-69665415D01*
X112909836Y-69695363D01*
X112939784Y-69719941D01*
X113286514Y-70066671D01*
X113279528Y-70137600D01*
X113279528Y-71037600D01*
X113291788Y-71162082D01*
X113328098Y-71281780D01*
X113382600Y-71383744D01*
X113382600Y-71657051D01*
X113378803Y-71695604D01*
X113382600Y-71734157D01*
X113382600Y-71734164D01*
X113393959Y-71849490D01*
X113438846Y-71997463D01*
X113511738Y-72133836D01*
X113609836Y-72253368D01*
X113639790Y-72277951D01*
X114427236Y-73065397D01*
X114451819Y-73095351D01*
X114501179Y-73135860D01*
X114484437Y-73152602D01*
X113142760Y-73152602D01*
X112855672Y-72865515D01*
X112855672Y-72437600D01*
X112843412Y-72313118D01*
X112807102Y-72193420D01*
X112748137Y-72083106D01*
X112668785Y-71986415D01*
X112572094Y-71907063D01*
X112535364Y-71887430D01*
X112582989Y-71860693D01*
X112678019Y-71779358D01*
X112755355Y-71681047D01*
X112812025Y-71569537D01*
X112845852Y-71449114D01*
X112855536Y-71324405D01*
X112852600Y-71173350D01*
X112693850Y-71014600D01*
X112090600Y-71014600D01*
X112090600Y-71034600D01*
X111844600Y-71034600D01*
X111844600Y-71014600D01*
X111820600Y-71014600D01*
X111820600Y-70760600D01*
X111844600Y-70760600D01*
X111844600Y-69961350D01*
X112090600Y-69961350D01*
X112090600Y-70760600D01*
X112693850Y-70760600D01*
X112852600Y-70601850D01*
X112855536Y-70450795D01*
X112845852Y-70326086D01*
X112812025Y-70205663D01*
X112755355Y-70094153D01*
X112678019Y-69995842D01*
X112582989Y-69914507D01*
X112473918Y-69853274D01*
X112354997Y-69814496D01*
X112249350Y-69802600D01*
X112090600Y-69961350D01*
X111844600Y-69961350D01*
X111685850Y-69802600D01*
X111580203Y-69814496D01*
X111461282Y-69853274D01*
X111352211Y-69914507D01*
X111257181Y-69995842D01*
X111217705Y-70046025D01*
X111168785Y-69986415D01*
X111072094Y-69907063D01*
X110961780Y-69848098D01*
X110842082Y-69811788D01*
X110717600Y-69799528D01*
X110217600Y-69799528D01*
X110093118Y-69811788D01*
X109973420Y-69848098D01*
X109863106Y-69907063D01*
X109766415Y-69986415D01*
X109687063Y-70083106D01*
X109628098Y-70193420D01*
X109591788Y-70313118D01*
X109579528Y-70437600D01*
X109579528Y-71337600D01*
X109591788Y-71462082D01*
X109628098Y-71581780D01*
X109682600Y-71683745D01*
X109682601Y-72091454D01*
X109628098Y-72193420D01*
X109591788Y-72313118D01*
X109579528Y-72437600D01*
X109579528Y-72927601D01*
X108220600Y-72927601D01*
X108220600Y-72760600D01*
X108240600Y-72760600D01*
X108240600Y-72313850D01*
X108340600Y-72213850D01*
X108340600Y-72036350D01*
X108494600Y-72036350D01*
X108494600Y-72760600D01*
X109243850Y-72760600D01*
X109402600Y-72601850D01*
X109405672Y-72512600D01*
X109393412Y-72388118D01*
X109357102Y-72268420D01*
X109315831Y-72191209D01*
X109318785Y-72188785D01*
X109398137Y-72092094D01*
X109457102Y-71981780D01*
X109493412Y-71862082D01*
X109505672Y-71737600D01*
X109502600Y-71573350D01*
X109343850Y-71414600D01*
X108594600Y-71414600D01*
X108594600Y-71936350D01*
X108494600Y-72036350D01*
X108340600Y-72036350D01*
X108340600Y-71414600D01*
X108320600Y-71414600D01*
X108320600Y-71160600D01*
X108340600Y-71160600D01*
X108340600Y-70361350D01*
X108594600Y-70361350D01*
X108594600Y-71160600D01*
X109343850Y-71160600D01*
X109502600Y-71001850D01*
X109505672Y-70837600D01*
X109493412Y-70713118D01*
X109457102Y-70593420D01*
X109398137Y-70483106D01*
X109318785Y-70386415D01*
X109222094Y-70307063D01*
X109111780Y-70248098D01*
X108992082Y-70211788D01*
X108867600Y-70199528D01*
X108753350Y-70202600D01*
X108594600Y-70361350D01*
X108340600Y-70361350D01*
X108255993Y-70276743D01*
X108272094Y-70268137D01*
X108368785Y-70188785D01*
X108448137Y-70092094D01*
X108507102Y-69981780D01*
X108543412Y-69862082D01*
X108553784Y-69756773D01*
X108571276Y-69724047D01*
X108636177Y-69510099D01*
X108658091Y-69287600D01*
X108636177Y-69065102D01*
X108571276Y-68851154D01*
X108553784Y-68818428D01*
X108543412Y-68713118D01*
X108507102Y-68593420D01*
X108448137Y-68483106D01*
X108368785Y-68386415D01*
X108302600Y-68332099D01*
X108302600Y-68066309D01*
X108321537Y-68047372D01*
X108434805Y-67877854D01*
X108512826Y-67689496D01*
X108552600Y-67489537D01*
X108552600Y-67285659D01*
X108512826Y-67085700D01*
X108434805Y-66897342D01*
X108321537Y-66727824D01*
X108177374Y-66583661D01*
X108007856Y-66470393D01*
X107819498Y-66392372D01*
X107619539Y-66352598D01*
X107415661Y-66352598D01*
X107215702Y-66392372D01*
X107027344Y-66470393D01*
X106857826Y-66583661D01*
X106713663Y-66727824D01*
X106600395Y-66897342D01*
X106522374Y-67085700D01*
X106482600Y-67285659D01*
X106482600Y-67489537D01*
X106522374Y-67689496D01*
X106600395Y-67877854D01*
X106650339Y-67952600D01*
X106173349Y-67952600D01*
X106117598Y-67947109D01*
X106061846Y-67952600D01*
X105895099Y-67969023D01*
X105681151Y-68033924D01*
X105483975Y-68139316D01*
X105311149Y-68281151D01*
X105275606Y-68324460D01*
X104236040Y-69364027D01*
X104192732Y-69399569D01*
X104050897Y-69572395D01*
X103945504Y-69769571D01*
X103880603Y-69983519D01*
X103864180Y-70150266D01*
X103858689Y-70206018D01*
X103864180Y-70261769D01*
X103864180Y-70599049D01*
X103861769Y-70601460D01*
X103818461Y-70637002D01*
X103676626Y-70809828D01*
X103655667Y-70849040D01*
X103571233Y-71007005D01*
X103506332Y-71220953D01*
X103484418Y-71443451D01*
X103489910Y-71499212D01*
X103489909Y-86489158D01*
X103484418Y-86544909D01*
X103494390Y-86646160D01*
X103506332Y-86767407D01*
X103571233Y-86981355D01*
X103676625Y-87178532D01*
X103679528Y-87182069D01*
X103679528Y-87537600D01*
X103691788Y-87662082D01*
X103728098Y-87781780D01*
X103787063Y-87892094D01*
X103866415Y-87988785D01*
X103963106Y-88068137D01*
X104073420Y-88127102D01*
X104193118Y-88163412D01*
X104317600Y-88175672D01*
X105217600Y-88175672D01*
X105342082Y-88163412D01*
X105461780Y-88127102D01*
X105572094Y-88068137D01*
X105668785Y-87988785D01*
X105748137Y-87892094D01*
X105807102Y-87781780D01*
X105843412Y-87662082D01*
X105855672Y-87537600D01*
X105855672Y-87010660D01*
X105886177Y-86910099D01*
X105908091Y-86687600D01*
X105886177Y-86465102D01*
X105855672Y-86364541D01*
X105855672Y-85837600D01*
X105843412Y-85713118D01*
X105807102Y-85593420D01*
X105759909Y-85505130D01*
X105759909Y-85220070D01*
X105807102Y-85131780D01*
X105843412Y-85012082D01*
X105855672Y-84887600D01*
X105855672Y-83187600D01*
X105843412Y-83063118D01*
X105807102Y-82943420D01*
X105759909Y-82855130D01*
X105759909Y-82570070D01*
X105807102Y-82481780D01*
X105843412Y-82362082D01*
X105855672Y-82237600D01*
X105855672Y-80537600D01*
X105843412Y-80413118D01*
X105807102Y-80293420D01*
X105759909Y-80205130D01*
X105759909Y-79920070D01*
X105807102Y-79831780D01*
X105843412Y-79712082D01*
X105855672Y-79587600D01*
X105855672Y-77887600D01*
X105843412Y-77763118D01*
X105807102Y-77643420D01*
X105759909Y-77555130D01*
X105759909Y-77270070D01*
X105807102Y-77181780D01*
X105843412Y-77062082D01*
X105855672Y-76937600D01*
X105855672Y-76087600D01*
X106527109Y-76087600D01*
X106549023Y-76310099D01*
X106579528Y-76410660D01*
X106579528Y-76937600D01*
X106591788Y-77062082D01*
X106628098Y-77181780D01*
X106687063Y-77292094D01*
X106766415Y-77388785D01*
X106795434Y-77412600D01*
X106766415Y-77436415D01*
X106687063Y-77533106D01*
X106628098Y-77643420D01*
X106591788Y-77763118D01*
X106579528Y-77887600D01*
X106579528Y-78414540D01*
X106549023Y-78515101D01*
X106527109Y-78737600D01*
X106549023Y-78960099D01*
X106579528Y-79060660D01*
X106579528Y-79587600D01*
X106591788Y-79712082D01*
X106628098Y-79831780D01*
X106687063Y-79942094D01*
X106766415Y-80038785D01*
X106795434Y-80062600D01*
X106766415Y-80086415D01*
X106687063Y-80183106D01*
X106628098Y-80293420D01*
X106591788Y-80413118D01*
X106579528Y-80537600D01*
X106579528Y-81064540D01*
X106549023Y-81165101D01*
X106527109Y-81387600D01*
X106549023Y-81610099D01*
X106579528Y-81710660D01*
X106579528Y-82237600D01*
X106591788Y-82362082D01*
X106628098Y-82481780D01*
X106687063Y-82592094D01*
X106766415Y-82688785D01*
X106795434Y-82712600D01*
X106766415Y-82736415D01*
X106687063Y-82833106D01*
X106628098Y-82943420D01*
X106591788Y-83063118D01*
X106579528Y-83187600D01*
X106579528Y-83764540D01*
X106549023Y-83865101D01*
X106527109Y-84087600D01*
X106549023Y-84310099D01*
X106579528Y-84410660D01*
X106579528Y-84887600D01*
X106591788Y-85012082D01*
X106628098Y-85131780D01*
X106687063Y-85242094D01*
X106766415Y-85338785D01*
X106795434Y-85362600D01*
X106766415Y-85386415D01*
X106687063Y-85483106D01*
X106628098Y-85593420D01*
X106591788Y-85713118D01*
X106579528Y-85837600D01*
X106579528Y-86364540D01*
X106549023Y-86465101D01*
X106527109Y-86687600D01*
X106549023Y-86910099D01*
X106579528Y-87010660D01*
X106579528Y-87537600D01*
X106591788Y-87662082D01*
X106628098Y-87781780D01*
X106687063Y-87892094D01*
X106766415Y-87988785D01*
X106863106Y-88068137D01*
X106973420Y-88127102D01*
X107093118Y-88163412D01*
X107217600Y-88175672D01*
X108117600Y-88175672D01*
X108242082Y-88163412D01*
X108361780Y-88127102D01*
X108467600Y-88070539D01*
X108573420Y-88127102D01*
X108693118Y-88163412D01*
X108817600Y-88175672D01*
X109717600Y-88175672D01*
X109842082Y-88163412D01*
X109961780Y-88127102D01*
X110072094Y-88068137D01*
X110168785Y-87988785D01*
X110248137Y-87892094D01*
X110307102Y-87781780D01*
X110343412Y-87662082D01*
X110355672Y-87537600D01*
X110355672Y-87010660D01*
X110386177Y-86910099D01*
X110408091Y-86687600D01*
X110386177Y-86465101D01*
X110355672Y-86364540D01*
X110355672Y-85837600D01*
X110343412Y-85713118D01*
X110307102Y-85593420D01*
X110248137Y-85483106D01*
X110168785Y-85386415D01*
X110139766Y-85362600D01*
X110168785Y-85338785D01*
X110248137Y-85242094D01*
X110307102Y-85131780D01*
X110343412Y-85012082D01*
X110355672Y-84887600D01*
X110355672Y-84410660D01*
X110386177Y-84310099D01*
X110408091Y-84087600D01*
X110386177Y-83865101D01*
X110355672Y-83764540D01*
X110355672Y-83187600D01*
X110343412Y-83063118D01*
X110307102Y-82943420D01*
X110248137Y-82833106D01*
X110168785Y-82736415D01*
X110139766Y-82712600D01*
X110168785Y-82688785D01*
X110248137Y-82592094D01*
X110307102Y-82481780D01*
X110343412Y-82362082D01*
X110355672Y-82237600D01*
X110355672Y-81710660D01*
X110386177Y-81610099D01*
X110408091Y-81387600D01*
X110386177Y-81165101D01*
X110355672Y-81064540D01*
X110355672Y-80537600D01*
X110343412Y-80413118D01*
X110307102Y-80293420D01*
X110248137Y-80183106D01*
X110168785Y-80086415D01*
X110139766Y-80062600D01*
X110168785Y-80038785D01*
X110248137Y-79942094D01*
X110307102Y-79831780D01*
X110343412Y-79712082D01*
X110355672Y-79587600D01*
X110355672Y-79060660D01*
X110386177Y-78960099D01*
X110408091Y-78737600D01*
X110386177Y-78515101D01*
X110355672Y-78414540D01*
X110355672Y-77887600D01*
X110343412Y-77763118D01*
X110307102Y-77643420D01*
X110248137Y-77533106D01*
X110168785Y-77436415D01*
X110139766Y-77412600D01*
X110168785Y-77388785D01*
X110248137Y-77292094D01*
X110307102Y-77181780D01*
X110343412Y-77062082D01*
X110355672Y-76937600D01*
X110355672Y-76410660D01*
X110386177Y-76310099D01*
X110408091Y-76087600D01*
X110386177Y-75865101D01*
X110355672Y-75764540D01*
X110355672Y-75237600D01*
X110343412Y-75113118D01*
X110307102Y-74993420D01*
X110248137Y-74883106D01*
X110168785Y-74786415D01*
X110072094Y-74707063D01*
X109961780Y-74648098D01*
X109842082Y-74611788D01*
X109717600Y-74599528D01*
X108817600Y-74599528D01*
X108693118Y-74611788D01*
X108573420Y-74648098D01*
X108467600Y-74704661D01*
X108361780Y-74648098D01*
X108242082Y-74611788D01*
X108117600Y-74599528D01*
X107217600Y-74599528D01*
X107093118Y-74611788D01*
X106973420Y-74648098D01*
X106863106Y-74707063D01*
X106766415Y-74786415D01*
X106687063Y-74883106D01*
X106628098Y-74993420D01*
X106591788Y-75113118D01*
X106579528Y-75237600D01*
X106579528Y-75764540D01*
X106549023Y-75865101D01*
X106527109Y-76087600D01*
X105855672Y-76087600D01*
X105855672Y-75237600D01*
X105843412Y-75113118D01*
X105807102Y-74993420D01*
X105759909Y-74905130D01*
X105759909Y-72224479D01*
X105782601Y-72243102D01*
X105782601Y-72549038D01*
X105778803Y-72587600D01*
X105793959Y-72741486D01*
X105829528Y-72858742D01*
X105829528Y-73262600D01*
X105841788Y-73387082D01*
X105878098Y-73506780D01*
X105937063Y-73617094D01*
X106016415Y-73713785D01*
X106113106Y-73793137D01*
X106223420Y-73852102D01*
X106343118Y-73888412D01*
X106467600Y-73900672D01*
X106795515Y-73900672D01*
X107135254Y-74240411D01*
X107159837Y-74270365D01*
X107279368Y-74368463D01*
X107391094Y-74428181D01*
X107415741Y-74441355D01*
X107563714Y-74486243D01*
X107638627Y-74493621D01*
X107679040Y-74497601D01*
X107679045Y-74497601D01*
X107717601Y-74501398D01*
X107756157Y-74497601D01*
X110354046Y-74497601D01*
X110392599Y-74501398D01*
X110431152Y-74497601D01*
X110431160Y-74497601D01*
X110546486Y-74486242D01*
X110694459Y-74441355D01*
X110830832Y-74368463D01*
X110950363Y-74270365D01*
X110974946Y-74240411D01*
X110995410Y-74219947D01*
X111025364Y-74195364D01*
X111123462Y-74075833D01*
X111196354Y-73939460D01*
X111241241Y-73791487D01*
X111244176Y-73761687D01*
X111266415Y-73788785D01*
X111363106Y-73868137D01*
X111473420Y-73927102D01*
X111593118Y-73963412D01*
X111717600Y-73975672D01*
X111745515Y-73975672D01*
X112235259Y-74465417D01*
X112259838Y-74495366D01*
X112289786Y-74519944D01*
X112289789Y-74519947D01*
X112308688Y-74535457D01*
X112379369Y-74593464D01*
X112390714Y-74599528D01*
X111717600Y-74599528D01*
X111593118Y-74611788D01*
X111473420Y-74648098D01*
X111363106Y-74707063D01*
X111266415Y-74786415D01*
X111187063Y-74883106D01*
X111128098Y-74993420D01*
X111091788Y-75113118D01*
X111079528Y-75237600D01*
X111079528Y-75764540D01*
X111049023Y-75865101D01*
X111027109Y-76087600D01*
X111049023Y-76310099D01*
X111079528Y-76410660D01*
X111079528Y-76937600D01*
X111091788Y-77062082D01*
X111128098Y-77181780D01*
X111187063Y-77292094D01*
X111266415Y-77388785D01*
X111295434Y-77412600D01*
X111266415Y-77436415D01*
X111187063Y-77533106D01*
X111128098Y-77643420D01*
X111091788Y-77763118D01*
X111079528Y-77887600D01*
X111079528Y-78414540D01*
X111049023Y-78515101D01*
X111027109Y-78737600D01*
X111049023Y-78960099D01*
X111079528Y-79060660D01*
X111079528Y-79587600D01*
X111091788Y-79712082D01*
X111128098Y-79831780D01*
X111187063Y-79942094D01*
X111266415Y-80038785D01*
X111295434Y-80062600D01*
X111266415Y-80086415D01*
X111187063Y-80183106D01*
X111128098Y-80293420D01*
X111091788Y-80413118D01*
X111079528Y-80537600D01*
X111079528Y-81164541D01*
X111049023Y-81265102D01*
X111027109Y-81487600D01*
X111049023Y-81710098D01*
X111079528Y-81810659D01*
X111079528Y-82237600D01*
X111091788Y-82362082D01*
X111128098Y-82481780D01*
X111187063Y-82592094D01*
X111266415Y-82688785D01*
X111295434Y-82712600D01*
X111266415Y-82736415D01*
X111187063Y-82833106D01*
X111128098Y-82943420D01*
X111091788Y-83063118D01*
X111079528Y-83187600D01*
X111079528Y-83764541D01*
X111049023Y-83865102D01*
X111027109Y-84087600D01*
X111049023Y-84310098D01*
X111079528Y-84410659D01*
X111079528Y-84887600D01*
X111091788Y-85012082D01*
X111128098Y-85131780D01*
X111187063Y-85242094D01*
X111266415Y-85338785D01*
X111295434Y-85362600D01*
X111266415Y-85386415D01*
X111187063Y-85483106D01*
X111128098Y-85593420D01*
X111091788Y-85713118D01*
X111079528Y-85837600D01*
X111079528Y-86364540D01*
X111049023Y-86465101D01*
X111027109Y-86687600D01*
X111049023Y-86910099D01*
X111079528Y-87010660D01*
X111079528Y-87537600D01*
X111091788Y-87662082D01*
X111128098Y-87781780D01*
X111187063Y-87892094D01*
X111266415Y-87988785D01*
X111363106Y-88068137D01*
X111473420Y-88127102D01*
X111593118Y-88163412D01*
X111717600Y-88175672D01*
X112617600Y-88175672D01*
X112742082Y-88163412D01*
X112861780Y-88127102D01*
X112972094Y-88068137D01*
X113068785Y-87988785D01*
X113148137Y-87892094D01*
X113185283Y-87822600D01*
X114849917Y-87822600D01*
X114887063Y-87892094D01*
X114966415Y-87988785D01*
X115063106Y-88068137D01*
X115173420Y-88127102D01*
X115293118Y-88163412D01*
X115417600Y-88175672D01*
X116317600Y-88175672D01*
X116442082Y-88163412D01*
X116561780Y-88127102D01*
X116672094Y-88068137D01*
X116768785Y-87988785D01*
X116848137Y-87892094D01*
X116907102Y-87781780D01*
X116943412Y-87662082D01*
X116955672Y-87537600D01*
X116955672Y-87010660D01*
X116986177Y-86910099D01*
X117008091Y-86687600D01*
X116986177Y-86465101D01*
X116955672Y-86364540D01*
X116955672Y-85837600D01*
X116943412Y-85713118D01*
X116907102Y-85593420D01*
X116848137Y-85483106D01*
X116768785Y-85386415D01*
X116739766Y-85362600D01*
X116768785Y-85338785D01*
X116848137Y-85242094D01*
X116907102Y-85131780D01*
X116943412Y-85012082D01*
X116955672Y-84887600D01*
X116955672Y-84410657D01*
X116986176Y-84310100D01*
X117008090Y-84087601D01*
X116986176Y-83865102D01*
X116955672Y-83764545D01*
X116955672Y-83187600D01*
X116943412Y-83063118D01*
X116907102Y-82943420D01*
X116848137Y-82833106D01*
X116768785Y-82736415D01*
X116739766Y-82712600D01*
X116768785Y-82688785D01*
X116848137Y-82592094D01*
X116907102Y-82481780D01*
X116943412Y-82362082D01*
X116955672Y-82237600D01*
X116955672Y-81810655D01*
X116986176Y-81710098D01*
X117008090Y-81487599D01*
X116986176Y-81265100D01*
X116955672Y-81164543D01*
X116955672Y-80537600D01*
X116943412Y-80413118D01*
X116907102Y-80293420D01*
X116848137Y-80183106D01*
X116785673Y-80106993D01*
X116868785Y-80038785D01*
X116948137Y-79942094D01*
X117007102Y-79831780D01*
X117043412Y-79712082D01*
X117055672Y-79587600D01*
X117055672Y-79060660D01*
X117086177Y-78960099D01*
X117108091Y-78737600D01*
X117086177Y-78515101D01*
X117055672Y-78414540D01*
X117055672Y-77887600D01*
X117043412Y-77763118D01*
X117007102Y-77643420D01*
X116948137Y-77533106D01*
X116868785Y-77436415D01*
X116839766Y-77412600D01*
X116868785Y-77388785D01*
X116948137Y-77292094D01*
X117007102Y-77181780D01*
X117043412Y-77062082D01*
X117055672Y-76937600D01*
X117055672Y-76410660D01*
X117086177Y-76310099D01*
X117108091Y-76087600D01*
X117086177Y-75865101D01*
X117055672Y-75764540D01*
X117055672Y-75372599D01*
X117779528Y-75372599D01*
X117779528Y-75764540D01*
X117749023Y-75865101D01*
X117727109Y-76087600D01*
X117749023Y-76310099D01*
X117779528Y-76410660D01*
X117779528Y-76937600D01*
X117791788Y-77062082D01*
X117828098Y-77181780D01*
X117887063Y-77292094D01*
X117966415Y-77388785D01*
X117995434Y-77412600D01*
X117966415Y-77436415D01*
X117887063Y-77533106D01*
X117828098Y-77643420D01*
X117791788Y-77763118D01*
X117779528Y-77887600D01*
X117779528Y-78364540D01*
X117749023Y-78465101D01*
X117727109Y-78687600D01*
X117749023Y-78910099D01*
X117779528Y-79010660D01*
X117779528Y-79587600D01*
X117791788Y-79712082D01*
X117828098Y-79831780D01*
X117887063Y-79942094D01*
X117949527Y-80018207D01*
X117866415Y-80086415D01*
X117787063Y-80183106D01*
X117728098Y-80293420D01*
X117691788Y-80413118D01*
X117679528Y-80537600D01*
X117679528Y-81064540D01*
X117649023Y-81165101D01*
X117627109Y-81387600D01*
X117649023Y-81610099D01*
X117679528Y-81710660D01*
X117679528Y-82237600D01*
X117691788Y-82362082D01*
X117728098Y-82481780D01*
X117787063Y-82592094D01*
X117866415Y-82688785D01*
X117895434Y-82712600D01*
X117866415Y-82736415D01*
X117787063Y-82833106D01*
X117728098Y-82943420D01*
X117691788Y-83063118D01*
X117679528Y-83187600D01*
X117679528Y-83714540D01*
X117649023Y-83815101D01*
X117627109Y-84037600D01*
X117649023Y-84260099D01*
X117679528Y-84360660D01*
X117679528Y-84887600D01*
X117691788Y-85012082D01*
X117728098Y-85131780D01*
X117787063Y-85242094D01*
X117866415Y-85338785D01*
X117895434Y-85362600D01*
X117866415Y-85386415D01*
X117787063Y-85483106D01*
X117728098Y-85593420D01*
X117691788Y-85713118D01*
X117679528Y-85837600D01*
X117679528Y-86364540D01*
X117649023Y-86465101D01*
X117627109Y-86687600D01*
X117649023Y-86910099D01*
X117679528Y-87010660D01*
X117679528Y-87537600D01*
X117691788Y-87662082D01*
X117728098Y-87781780D01*
X117787063Y-87892094D01*
X117866415Y-87988785D01*
X117963106Y-88068137D01*
X118073420Y-88127102D01*
X118193118Y-88163412D01*
X118317600Y-88175672D01*
X119217600Y-88175672D01*
X119342082Y-88163412D01*
X119461780Y-88127102D01*
X119567600Y-88070539D01*
X119673420Y-88127102D01*
X119793118Y-88163412D01*
X119917600Y-88175672D01*
X120817600Y-88175672D01*
X120942082Y-88163412D01*
X121061780Y-88127102D01*
X121172094Y-88068137D01*
X121268785Y-87988785D01*
X121348137Y-87892094D01*
X121407102Y-87781780D01*
X121443412Y-87662082D01*
X121455672Y-87537600D01*
X121455672Y-87010660D01*
X121486177Y-86910099D01*
X121508091Y-86687600D01*
X121486177Y-86465101D01*
X121455672Y-86364540D01*
X121455672Y-85837600D01*
X121443412Y-85713118D01*
X121407102Y-85593420D01*
X121348137Y-85483106D01*
X121268785Y-85386415D01*
X121239766Y-85362600D01*
X121268785Y-85338785D01*
X121348137Y-85242094D01*
X121407102Y-85131780D01*
X121443412Y-85012082D01*
X121455672Y-84887600D01*
X121455672Y-84360660D01*
X121486177Y-84260099D01*
X121508091Y-84037600D01*
X121486177Y-83815101D01*
X121455672Y-83714540D01*
X121455672Y-83187600D01*
X121443412Y-83063118D01*
X121407102Y-82943420D01*
X121348137Y-82833106D01*
X121268785Y-82736415D01*
X121239766Y-82712600D01*
X121268785Y-82688785D01*
X121348137Y-82592094D01*
X121407102Y-82481780D01*
X121443412Y-82362082D01*
X121455672Y-82237600D01*
X121455672Y-81710660D01*
X121486177Y-81610099D01*
X121508091Y-81387600D01*
X121486177Y-81165101D01*
X121455672Y-81064540D01*
X121455672Y-80537600D01*
X121443412Y-80413118D01*
X121407102Y-80293420D01*
X121348137Y-80183106D01*
X121268785Y-80086415D01*
X121239766Y-80062600D01*
X121268785Y-80038785D01*
X121348137Y-79942094D01*
X121407102Y-79831780D01*
X121443412Y-79712082D01*
X121455672Y-79587600D01*
X121455672Y-79010660D01*
X121486177Y-78910099D01*
X121508091Y-78687600D01*
X121486177Y-78465101D01*
X121455672Y-78364540D01*
X121455672Y-77887600D01*
X121443412Y-77763118D01*
X121407102Y-77643420D01*
X121348137Y-77533106D01*
X121268785Y-77436415D01*
X121239766Y-77412600D01*
X121268785Y-77388785D01*
X121348137Y-77292094D01*
X121407102Y-77181780D01*
X121443412Y-77062082D01*
X121455672Y-76937600D01*
X121455672Y-76410660D01*
X121486177Y-76310099D01*
X121508091Y-76087600D01*
X121486177Y-75865101D01*
X121455672Y-75764540D01*
X121455672Y-75297000D01*
X121555838Y-75243461D01*
X121581257Y-75222600D01*
X121619543Y-75222600D01*
X121819502Y-75182826D01*
X122007860Y-75104805D01*
X122177378Y-74991537D01*
X122292802Y-74876113D01*
X122287063Y-74883106D01*
X122228098Y-74993420D01*
X122191788Y-75113118D01*
X122179528Y-75237600D01*
X122179528Y-75764541D01*
X122149023Y-75865102D01*
X122132600Y-76031849D01*
X122132601Y-78681839D01*
X122132600Y-78681849D01*
X122132601Y-81331839D01*
X122132600Y-81331849D01*
X122132601Y-83981848D01*
X122132600Y-86404414D01*
X122099023Y-86515102D01*
X122077109Y-86737600D01*
X122082601Y-86793361D01*
X122082600Y-89167331D01*
X122071488Y-89163960D01*
X121956162Y-89152601D01*
X121956154Y-89152601D01*
X121917601Y-89148804D01*
X121879048Y-89152601D01*
X117576343Y-89152601D01*
X117386614Y-88996894D01*
X117128634Y-88859001D01*
X116848711Y-88774087D01*
X116630550Y-88752600D01*
X116484650Y-88752600D01*
X116266489Y-88774087D01*
X115986566Y-88859001D01*
X115728586Y-88996894D01*
X115502466Y-89182466D01*
X115477993Y-89212287D01*
X115457102Y-89143420D01*
X115398137Y-89033106D01*
X115318785Y-88936415D01*
X115222094Y-88857063D01*
X115111780Y-88798098D01*
X114992082Y-88761788D01*
X114867600Y-88749528D01*
X113167600Y-88749528D01*
X113043118Y-88761788D01*
X112923420Y-88798098D01*
X112813106Y-88857063D01*
X112716415Y-88936415D01*
X112637063Y-89033106D01*
X112578098Y-89143420D01*
X112541788Y-89263118D01*
X112529528Y-89387600D01*
X112529528Y-89915514D01*
X111289785Y-91155258D01*
X111259837Y-91179836D01*
X111235259Y-91209784D01*
X111235255Y-91209788D01*
X111212431Y-91237599D01*
X111161739Y-91299367D01*
X111144414Y-91331780D01*
X111088846Y-91435741D01*
X111043959Y-91583714D01*
X111040760Y-91616199D01*
X111032600Y-91699039D01*
X111032600Y-91699047D01*
X111028803Y-91737600D01*
X111032600Y-91776153D01*
X111032600Y-91974528D01*
X110542600Y-91974528D01*
X110418118Y-91986788D01*
X110298420Y-92023098D01*
X110188106Y-92082063D01*
X110091415Y-92161415D01*
X110042600Y-92220896D01*
X109993785Y-92161415D01*
X109897094Y-92082063D01*
X109786780Y-92023098D01*
X109667082Y-91986788D01*
X109542600Y-91974528D01*
X108342600Y-91974528D01*
X108218118Y-91986788D01*
X108098420Y-92023098D01*
X107988106Y-92082063D01*
X107891415Y-92161415D01*
X107812063Y-92258106D01*
X107753098Y-92368420D01*
X107716788Y-92488118D01*
X107704528Y-92612600D01*
X107704528Y-93812600D01*
X107716788Y-93937082D01*
X107753098Y-94056780D01*
X107812063Y-94167094D01*
X107891415Y-94263785D01*
X107988106Y-94343137D01*
X108098420Y-94402102D01*
X108157600Y-94420054D01*
X108157600Y-94624047D01*
X108153803Y-94662600D01*
X108157600Y-94701153D01*
X108157600Y-94701160D01*
X108168959Y-94816486D01*
X108213846Y-94964459D01*
X108286738Y-95100832D01*
X108384836Y-95220364D01*
X108404528Y-95236525D01*
X108404528Y-95462600D01*
X108416788Y-95587082D01*
X108453098Y-95706780D01*
X108512063Y-95817094D01*
X108591415Y-95913785D01*
X108688106Y-95993137D01*
X108798420Y-96052102D01*
X108918118Y-96088412D01*
X109042600Y-96100672D01*
X109542600Y-96100672D01*
X109667082Y-96088412D01*
X109786780Y-96052102D01*
X109897094Y-95993137D01*
X109993785Y-95913785D01*
X110042705Y-95854175D01*
X110082181Y-95904358D01*
X110177211Y-95985693D01*
X110286282Y-96046926D01*
X110405203Y-96085704D01*
X110510850Y-96097600D01*
X110669600Y-95938850D01*
X110669600Y-95139600D01*
X110915600Y-95139600D01*
X110915600Y-95938850D01*
X111074350Y-96097600D01*
X111179997Y-96085704D01*
X111298918Y-96046926D01*
X111407989Y-95985693D01*
X111503019Y-95904358D01*
X111580355Y-95806047D01*
X111637025Y-95694537D01*
X111670852Y-95574114D01*
X111680536Y-95449405D01*
X111677600Y-95298350D01*
X111518850Y-95139600D01*
X110915600Y-95139600D01*
X110669600Y-95139600D01*
X110645600Y-95139600D01*
X110645600Y-94885600D01*
X110669600Y-94885600D01*
X110669600Y-94865600D01*
X110915600Y-94865600D01*
X110915600Y-94885600D01*
X111518850Y-94885600D01*
X111677600Y-94726850D01*
X111680536Y-94575795D01*
X111670852Y-94451086D01*
X111670736Y-94450672D01*
X111742600Y-94450672D01*
X111867082Y-94438412D01*
X111986780Y-94402102D01*
X112097094Y-94343137D01*
X112193785Y-94263785D01*
X112273137Y-94167094D01*
X112332102Y-94056780D01*
X112368412Y-93937082D01*
X112380672Y-93812600D01*
X112380672Y-93088896D01*
X112405443Y-93058714D01*
X112424050Y-93036041D01*
X112473462Y-92975833D01*
X112533818Y-92862914D01*
X112554087Y-93068711D01*
X112639001Y-93348634D01*
X112776894Y-93606614D01*
X112962466Y-93832734D01*
X113188586Y-94018306D01*
X113243391Y-94047600D01*
X113188586Y-94076894D01*
X112962466Y-94262466D01*
X112776894Y-94488586D01*
X112639001Y-94746566D01*
X112554087Y-95026489D01*
X112525415Y-95317600D01*
X112554087Y-95608711D01*
X112639001Y-95888634D01*
X112776894Y-96146614D01*
X112962466Y-96372734D01*
X113188586Y-96558306D01*
X113446566Y-96696199D01*
X113726489Y-96781113D01*
X113944650Y-96802600D01*
X114090550Y-96802600D01*
X114308711Y-96781113D01*
X114588634Y-96696199D01*
X114846614Y-96558306D01*
X115072734Y-96372734D01*
X115258306Y-96146614D01*
X115289184Y-96088844D01*
X115460012Y-96317869D01*
X115676245Y-96512778D01*
X115926348Y-96661757D01*
X116200709Y-96759081D01*
X116430600Y-96638414D01*
X116430600Y-95444600D01*
X116684600Y-95444600D01*
X116684600Y-96638414D01*
X116914491Y-96759081D01*
X117188852Y-96661757D01*
X117438955Y-96512778D01*
X117655188Y-96317869D01*
X117829241Y-96084520D01*
X117954425Y-95821699D01*
X117999076Y-95674490D01*
X117877755Y-95444600D01*
X116684600Y-95444600D01*
X116430600Y-95444600D01*
X116410600Y-95444600D01*
X116410600Y-95190600D01*
X116430600Y-95190600D01*
X116430600Y-95170600D01*
X116684600Y-95170600D01*
X116684600Y-95190600D01*
X117877755Y-95190600D01*
X117999076Y-94960710D01*
X117954425Y-94813501D01*
X117829241Y-94550680D01*
X117655188Y-94317331D01*
X117438955Y-94122422D01*
X117322077Y-94052801D01*
X117386614Y-94018306D01*
X117612734Y-93832734D01*
X117798306Y-93606614D01*
X117936199Y-93348634D01*
X118021113Y-93068711D01*
X118049785Y-92777600D01*
X118021113Y-92486489D01*
X117975948Y-92337600D01*
X119979528Y-92337600D01*
X119991788Y-92462082D01*
X120028098Y-92581780D01*
X120087063Y-92692094D01*
X120166415Y-92788785D01*
X120263106Y-92868137D01*
X120373420Y-92927102D01*
X120493118Y-92963412D01*
X120617600Y-92975672D01*
X120931850Y-92972600D01*
X121090600Y-92813850D01*
X121090600Y-91614600D01*
X120141350Y-91614600D01*
X119982600Y-91773350D01*
X119979528Y-92337600D01*
X117975948Y-92337600D01*
X117936199Y-92206566D01*
X117798306Y-91948586D01*
X117612734Y-91722466D01*
X117386614Y-91536894D01*
X117331809Y-91507600D01*
X117386614Y-91478306D01*
X117612734Y-91292734D01*
X117798306Y-91066614D01*
X117936199Y-90808634D01*
X117962297Y-90722601D01*
X119979991Y-90722601D01*
X119982600Y-91201850D01*
X120141350Y-91360600D01*
X121090600Y-91360600D01*
X121090600Y-91340600D01*
X121344600Y-91340600D01*
X121344600Y-91360600D01*
X121364600Y-91360600D01*
X121364600Y-91614600D01*
X121344600Y-91614600D01*
X121344600Y-92813850D01*
X121503350Y-92972600D01*
X121817600Y-92975672D01*
X121942082Y-92963412D01*
X122061780Y-92927102D01*
X122172094Y-92868137D01*
X122268785Y-92788785D01*
X122348137Y-92692094D01*
X122374292Y-92643163D01*
X122528152Y-92769433D01*
X122742700Y-92884111D01*
X122975499Y-92954730D01*
X123217600Y-92978575D01*
X123459702Y-92954730D01*
X123692501Y-92884111D01*
X123907049Y-92769433D01*
X124095102Y-92615102D01*
X124249433Y-92427049D01*
X124364111Y-92212500D01*
X124434730Y-91979701D01*
X124452600Y-91798264D01*
X124452600Y-91176935D01*
X124434730Y-90995498D01*
X124364111Y-90762699D01*
X124352600Y-90741163D01*
X124352600Y-87568792D01*
X124355672Y-87537600D01*
X124355672Y-87010660D01*
X124386177Y-86910099D01*
X124402600Y-86743352D01*
X124402600Y-86743351D01*
X124408091Y-86687600D01*
X124402600Y-86631848D01*
X124402600Y-81882757D01*
X128545065Y-86025222D01*
X128539001Y-86036566D01*
X128454087Y-86316489D01*
X128425415Y-86607600D01*
X128454087Y-86898711D01*
X128539001Y-87178634D01*
X128562185Y-87222009D01*
X128457866Y-87152305D01*
X128269508Y-87074284D01*
X128069549Y-87034510D01*
X127865671Y-87034510D01*
X127665712Y-87074284D01*
X127477354Y-87152305D01*
X127307836Y-87265573D01*
X127288899Y-87284510D01*
X126874242Y-87284510D01*
X126835689Y-87280713D01*
X126797136Y-87284510D01*
X126797129Y-87284510D01*
X126696180Y-87294453D01*
X126681802Y-87295869D01*
X126653865Y-87304344D01*
X126533830Y-87340756D01*
X126397457Y-87413648D01*
X126277926Y-87511746D01*
X126253343Y-87541700D01*
X126142443Y-87652600D01*
X126115661Y-87652600D01*
X125915702Y-87692374D01*
X125727344Y-87770395D01*
X125557826Y-87883663D01*
X125413663Y-88027826D01*
X125300395Y-88197344D01*
X125222374Y-88385702D01*
X125182600Y-88585661D01*
X125182600Y-88789539D01*
X125222374Y-88989498D01*
X125300395Y-89177856D01*
X125413663Y-89347374D01*
X125557826Y-89491537D01*
X125727344Y-89604805D01*
X125915702Y-89682826D01*
X126115661Y-89722600D01*
X126319539Y-89722600D01*
X126519498Y-89682826D01*
X126707856Y-89604805D01*
X126857988Y-89504490D01*
X128476124Y-89504490D01*
X128520775Y-89651699D01*
X128645959Y-89914520D01*
X128820012Y-90147869D01*
X129036245Y-90342778D01*
X129286348Y-90491757D01*
X129560709Y-90589081D01*
X129790600Y-90468414D01*
X129790600Y-89274600D01*
X128597445Y-89274600D01*
X128476124Y-89504490D01*
X126857988Y-89504490D01*
X126877374Y-89491537D01*
X127021537Y-89347374D01*
X127134805Y-89177856D01*
X127212826Y-88989498D01*
X127239677Y-88854510D01*
X127288899Y-88854510D01*
X127307836Y-88873447D01*
X127477354Y-88986715D01*
X127665712Y-89064736D01*
X127865671Y-89104510D01*
X128069549Y-89104510D01*
X128269508Y-89064736D01*
X128457866Y-88986715D01*
X128547837Y-88926598D01*
X128597445Y-89020600D01*
X129790600Y-89020600D01*
X129790600Y-89000600D01*
X130044600Y-89000600D01*
X130044600Y-89020600D01*
X130064600Y-89020600D01*
X130064600Y-89274600D01*
X130044600Y-89274600D01*
X130044600Y-90468414D01*
X130274491Y-90589081D01*
X130548852Y-90491757D01*
X130798955Y-90342778D01*
X131015188Y-90147869D01*
X131189241Y-89914520D01*
X131207601Y-89875974D01*
X131207601Y-94322263D01*
X131148231Y-94178931D01*
X130903638Y-93812871D01*
X130592329Y-93501562D01*
X130226269Y-93256969D01*
X129819525Y-93088490D01*
X129387728Y-93002600D01*
X128947472Y-93002600D01*
X128515675Y-93088490D01*
X128108931Y-93256969D01*
X127742871Y-93501562D01*
X127431562Y-93812871D01*
X127186969Y-94178931D01*
X127018490Y-94585675D01*
X126932600Y-95017472D01*
X126932600Y-95457728D01*
X127018490Y-95889525D01*
X127186969Y-96296269D01*
X127431562Y-96662329D01*
X127742871Y-96973638D01*
X128108931Y-97218231D01*
X128252260Y-97277600D01*
X105582940Y-97277600D01*
X105726269Y-97218231D01*
X106092329Y-96973638D01*
X106403638Y-96662329D01*
X106648231Y-96296269D01*
X106816710Y-95889525D01*
X106902600Y-95457728D01*
X106902600Y-95017472D01*
X106816710Y-94585675D01*
X106648231Y-94178931D01*
X106403638Y-93812871D01*
X106092329Y-93501562D01*
X105726269Y-93256969D01*
X105319525Y-93088490D01*
X104887728Y-93002600D01*
X104447472Y-93002600D01*
X104015675Y-93088490D01*
X103608931Y-93256969D01*
X103242871Y-93501562D01*
X102931562Y-93812871D01*
X102686969Y-94178931D01*
X102627600Y-94322260D01*
X102627600Y-51652940D01*
X102686969Y-51796269D01*
X102686969Y-51796269D01*
G37*
X102686969Y-51796269D02*
X102931562Y-52162329D01*
X103242871Y-52473638D01*
X103608931Y-52718231D01*
X104015675Y-52886710D01*
X104447472Y-52972600D01*
X104887728Y-52972600D01*
X105055893Y-52939150D01*
X103945515Y-54049528D01*
X103817600Y-54049528D01*
X103693118Y-54061788D01*
X103573420Y-54098098D01*
X103463106Y-54157063D01*
X103366415Y-54236415D01*
X103287063Y-54333106D01*
X103228098Y-54443420D01*
X103191788Y-54563118D01*
X103179528Y-54687600D01*
X103179528Y-55887600D01*
X103191788Y-56012082D01*
X103228098Y-56131780D01*
X103287063Y-56242094D01*
X103366415Y-56338785D01*
X103463106Y-56418137D01*
X103573420Y-56477102D01*
X103693118Y-56513412D01*
X103817600Y-56525672D01*
X105017600Y-56525672D01*
X105142082Y-56513412D01*
X105261780Y-56477102D01*
X105372094Y-56418137D01*
X105468785Y-56338785D01*
X105517600Y-56279304D01*
X105566415Y-56338785D01*
X105663106Y-56418137D01*
X105773420Y-56477102D01*
X105893118Y-56513412D01*
X106017600Y-56525672D01*
X107217600Y-56525672D01*
X107342082Y-56513412D01*
X107461780Y-56477102D01*
X107572094Y-56418137D01*
X107668785Y-56338785D01*
X107748137Y-56242094D01*
X107807102Y-56131780D01*
X107843412Y-56012082D01*
X107855672Y-55887600D01*
X107855672Y-55172600D01*
X107921144Y-55172600D01*
X107965727Y-56168281D01*
X107968290Y-56188598D01*
X107975750Y-56212350D01*
X107987701Y-56234191D01*
X108003683Y-56253280D01*
X108023083Y-56268884D01*
X108045153Y-56280404D01*
X108069048Y-56287397D01*
X108093847Y-56289594D01*
X109317462Y-56277581D01*
X108492443Y-57102600D01*
X108465661Y-57102600D01*
X108265702Y-57142374D01*
X108077344Y-57220395D01*
X107907826Y-57333663D01*
X107763663Y-57477826D01*
X107650395Y-57647344D01*
X107572374Y-57835702D01*
X107532600Y-58035661D01*
X107532600Y-58239539D01*
X107572374Y-58439498D01*
X107650395Y-58627856D01*
X107763663Y-58797374D01*
X107907826Y-58941537D01*
X108077344Y-59054805D01*
X108265702Y-59132826D01*
X108465661Y-59172600D01*
X108669539Y-59172600D01*
X108869498Y-59132826D01*
X109057856Y-59054805D01*
X109227374Y-58941537D01*
X109371537Y-58797374D01*
X109484805Y-58627856D01*
X109562826Y-58439498D01*
X109602600Y-58239539D01*
X109602600Y-58212757D01*
X110642757Y-57172600D01*
X112607112Y-57172600D01*
X112591788Y-57223118D01*
X112579528Y-57347600D01*
X112579528Y-58147600D01*
X112591788Y-58272082D01*
X112626830Y-58387600D01*
X112591788Y-58503118D01*
X112579528Y-58627600D01*
X112582600Y-58741850D01*
X112741350Y-58900600D01*
X113740600Y-58900600D01*
X113740600Y-58880600D01*
X113994600Y-58880600D01*
X113994600Y-58900600D01*
X114993850Y-58900600D01*
X115152600Y-58741850D01*
X115155672Y-58627600D01*
X115143412Y-58503118D01*
X115108370Y-58387600D01*
X115143412Y-58272082D01*
X115155672Y-58147600D01*
X115155672Y-57569685D01*
X116082600Y-56642758D01*
X116082600Y-56655218D01*
X116122374Y-56855177D01*
X116200395Y-57043535D01*
X116313663Y-57213053D01*
X116332601Y-57231991D01*
X116332600Y-59297590D01*
X116328803Y-59336143D01*
X116332600Y-59374696D01*
X116332600Y-59374703D01*
X116343959Y-59490029D01*
X116388846Y-59638002D01*
X116461738Y-59774375D01*
X116559836Y-59893907D01*
X116589790Y-59918490D01*
X118054507Y-61383207D01*
X117969046Y-61428888D01*
X116699946Y-60159789D01*
X116675363Y-60129835D01*
X116555832Y-60031737D01*
X116419459Y-59958845D01*
X116271486Y-59913958D01*
X116156160Y-59902599D01*
X116156152Y-59902599D01*
X116117599Y-59898802D01*
X116079046Y-59902599D01*
X114939767Y-59902599D01*
X114968785Y-59878785D01*
X115048137Y-59782094D01*
X115107102Y-59671780D01*
X115143412Y-59552082D01*
X115155672Y-59427600D01*
X115152600Y-59313350D01*
X114993850Y-59154600D01*
X113994600Y-59154600D01*
X113994600Y-59903850D01*
X114153350Y-60062600D01*
X114389337Y-60064590D01*
X114339788Y-60105254D01*
X114339785Y-60105257D01*
X114309837Y-60129835D01*
X114285258Y-60159784D01*
X113945515Y-60499528D01*
X113917600Y-60499528D01*
X113793118Y-60511788D01*
X113673420Y-60548098D01*
X113563106Y-60607063D01*
X113466415Y-60686415D01*
X113387063Y-60783106D01*
X113376643Y-60802600D01*
X112942758Y-60802600D01*
X112252600Y-60112443D01*
X112252600Y-60085661D01*
X112212826Y-59885702D01*
X112134805Y-59697344D01*
X112021537Y-59527826D01*
X111921311Y-59427600D01*
X112579528Y-59427600D01*
X112591788Y-59552082D01*
X112628098Y-59671780D01*
X112687063Y-59782094D01*
X112766415Y-59878785D01*
X112863106Y-59958137D01*
X112973420Y-60017102D01*
X113093118Y-60053412D01*
X113217600Y-60065672D01*
X113581850Y-60062600D01*
X113740600Y-59903850D01*
X113740600Y-59154600D01*
X112741350Y-59154600D01*
X112582600Y-59313350D01*
X112579528Y-59427600D01*
X111921311Y-59427600D01*
X111877374Y-59383663D01*
X111707856Y-59270395D01*
X111519498Y-59192374D01*
X111319539Y-59152600D01*
X111115661Y-59152600D01*
X110915702Y-59192374D01*
X110727344Y-59270395D01*
X110557826Y-59383663D01*
X110413663Y-59527826D01*
X110300395Y-59697344D01*
X110222374Y-59885702D01*
X110182600Y-60085661D01*
X110182600Y-60289539D01*
X110222374Y-60489498D01*
X110300395Y-60677856D01*
X110413663Y-60847374D01*
X110557826Y-60991537D01*
X110727344Y-61104805D01*
X110915702Y-61182826D01*
X111115661Y-61222600D01*
X111142443Y-61222600D01*
X112035257Y-62115415D01*
X112059836Y-62145364D01*
X112089784Y-62169942D01*
X112089787Y-62169945D01*
X112097649Y-62176397D01*
X112179367Y-62243462D01*
X112315740Y-62316354D01*
X112463713Y-62361242D01*
X112538626Y-62368620D01*
X112579039Y-62372600D01*
X112579044Y-62372600D01*
X112617600Y-62376397D01*
X112656155Y-62372600D01*
X113008651Y-62372600D01*
X112999835Y-62379835D01*
X112975254Y-62409787D01*
X112339779Y-63045262D01*
X112309825Y-63069845D01*
X112211727Y-63189377D01*
X112138835Y-63325750D01*
X112093948Y-63473723D01*
X112082589Y-63589049D01*
X112082589Y-63589056D01*
X112078792Y-63627609D01*
X112082589Y-63666162D01*
X112082590Y-64558877D01*
X112063652Y-64577815D01*
X111950384Y-64747333D01*
X111872363Y-64935691D01*
X111832589Y-65135650D01*
X111832589Y-65339528D01*
X111872363Y-65539487D01*
X111950384Y-65727845D01*
X112063652Y-65897363D01*
X112207815Y-66041526D01*
X112377333Y-66154794D01*
X112565691Y-66232815D01*
X112765650Y-66272589D01*
X112969528Y-66272589D01*
X113169487Y-66232815D01*
X113279528Y-66187234D01*
X113279528Y-66537600D01*
X113286514Y-66608529D01*
X112939788Y-66955254D01*
X112909835Y-66979837D01*
X112811737Y-67099369D01*
X112738845Y-67235742D01*
X112693958Y-67383715D01*
X112682599Y-67499041D01*
X112682599Y-67499048D01*
X112678802Y-67537601D01*
X112682599Y-67576154D01*
X112682600Y-69099037D01*
X112678802Y-69137599D01*
X112693958Y-69291485D01*
X112738845Y-69439458D01*
X112763563Y-69485702D01*
X112811738Y-69575832D01*
X112837369Y-69607063D01*
X112885254Y-69665411D01*
X112885258Y-69665415D01*
X112909836Y-69695363D01*
X112939784Y-69719941D01*
X113286514Y-70066671D01*
X113279528Y-70137600D01*
X113279528Y-71037600D01*
X113291788Y-71162082D01*
X113328098Y-71281780D01*
X113382600Y-71383744D01*
X113382600Y-71657051D01*
X113378803Y-71695604D01*
X113382600Y-71734157D01*
X113382600Y-71734164D01*
X113393959Y-71849490D01*
X113438846Y-71997463D01*
X113511738Y-72133836D01*
X113609836Y-72253368D01*
X113639790Y-72277951D01*
X114427236Y-73065397D01*
X114451819Y-73095351D01*
X114501179Y-73135860D01*
X114484437Y-73152602D01*
X113142760Y-73152602D01*
X112855672Y-72865515D01*
X112855672Y-72437600D01*
X112843412Y-72313118D01*
X112807102Y-72193420D01*
X112748137Y-72083106D01*
X112668785Y-71986415D01*
X112572094Y-71907063D01*
X112535364Y-71887430D01*
X112582989Y-71860693D01*
X112678019Y-71779358D01*
X112755355Y-71681047D01*
X112812025Y-71569537D01*
X112845852Y-71449114D01*
X112855536Y-71324405D01*
X112852600Y-71173350D01*
X112693850Y-71014600D01*
X112090600Y-71014600D01*
X112090600Y-71034600D01*
X111844600Y-71034600D01*
X111844600Y-71014600D01*
X111820600Y-71014600D01*
X111820600Y-70760600D01*
X111844600Y-70760600D01*
X111844600Y-69961350D01*
X112090600Y-69961350D01*
X112090600Y-70760600D01*
X112693850Y-70760600D01*
X112852600Y-70601850D01*
X112855536Y-70450795D01*
X112845852Y-70326086D01*
X112812025Y-70205663D01*
X112755355Y-70094153D01*
X112678019Y-69995842D01*
X112582989Y-69914507D01*
X112473918Y-69853274D01*
X112354997Y-69814496D01*
X112249350Y-69802600D01*
X112090600Y-69961350D01*
X111844600Y-69961350D01*
X111685850Y-69802600D01*
X111580203Y-69814496D01*
X111461282Y-69853274D01*
X111352211Y-69914507D01*
X111257181Y-69995842D01*
X111217705Y-70046025D01*
X111168785Y-69986415D01*
X111072094Y-69907063D01*
X110961780Y-69848098D01*
X110842082Y-69811788D01*
X110717600Y-69799528D01*
X110217600Y-69799528D01*
X110093118Y-69811788D01*
X109973420Y-69848098D01*
X109863106Y-69907063D01*
X109766415Y-69986415D01*
X109687063Y-70083106D01*
X109628098Y-70193420D01*
X109591788Y-70313118D01*
X109579528Y-70437600D01*
X109579528Y-71337600D01*
X109591788Y-71462082D01*
X109628098Y-71581780D01*
X109682600Y-71683745D01*
X109682601Y-72091454D01*
X109628098Y-72193420D01*
X109591788Y-72313118D01*
X109579528Y-72437600D01*
X109579528Y-72927601D01*
X108220600Y-72927601D01*
X108220600Y-72760600D01*
X108240600Y-72760600D01*
X108240600Y-72313850D01*
X108340600Y-72213850D01*
X108340600Y-72036350D01*
X108494600Y-72036350D01*
X108494600Y-72760600D01*
X109243850Y-72760600D01*
X109402600Y-72601850D01*
X109405672Y-72512600D01*
X109393412Y-72388118D01*
X109357102Y-72268420D01*
X109315831Y-72191209D01*
X109318785Y-72188785D01*
X109398137Y-72092094D01*
X109457102Y-71981780D01*
X109493412Y-71862082D01*
X109505672Y-71737600D01*
X109502600Y-71573350D01*
X109343850Y-71414600D01*
X108594600Y-71414600D01*
X108594600Y-71936350D01*
X108494600Y-72036350D01*
X108340600Y-72036350D01*
X108340600Y-71414600D01*
X108320600Y-71414600D01*
X108320600Y-71160600D01*
X108340600Y-71160600D01*
X108340600Y-70361350D01*
X108594600Y-70361350D01*
X108594600Y-71160600D01*
X109343850Y-71160600D01*
X109502600Y-71001850D01*
X109505672Y-70837600D01*
X109493412Y-70713118D01*
X109457102Y-70593420D01*
X109398137Y-70483106D01*
X109318785Y-70386415D01*
X109222094Y-70307063D01*
X109111780Y-70248098D01*
X108992082Y-70211788D01*
X108867600Y-70199528D01*
X108753350Y-70202600D01*
X108594600Y-70361350D01*
X108340600Y-70361350D01*
X108255993Y-70276743D01*
X108272094Y-70268137D01*
X108368785Y-70188785D01*
X108448137Y-70092094D01*
X108507102Y-69981780D01*
X108543412Y-69862082D01*
X108553784Y-69756773D01*
X108571276Y-69724047D01*
X108636177Y-69510099D01*
X108658091Y-69287600D01*
X108636177Y-69065102D01*
X108571276Y-68851154D01*
X108553784Y-68818428D01*
X108543412Y-68713118D01*
X108507102Y-68593420D01*
X108448137Y-68483106D01*
X108368785Y-68386415D01*
X108302600Y-68332099D01*
X108302600Y-68066309D01*
X108321537Y-68047372D01*
X108434805Y-67877854D01*
X108512826Y-67689496D01*
X108552600Y-67489537D01*
X108552600Y-67285659D01*
X108512826Y-67085700D01*
X108434805Y-66897342D01*
X108321537Y-66727824D01*
X108177374Y-66583661D01*
X108007856Y-66470393D01*
X107819498Y-66392372D01*
X107619539Y-66352598D01*
X107415661Y-66352598D01*
X107215702Y-66392372D01*
X107027344Y-66470393D01*
X106857826Y-66583661D01*
X106713663Y-66727824D01*
X106600395Y-66897342D01*
X106522374Y-67085700D01*
X106482600Y-67285659D01*
X106482600Y-67489537D01*
X106522374Y-67689496D01*
X106600395Y-67877854D01*
X106650339Y-67952600D01*
X106173349Y-67952600D01*
X106117598Y-67947109D01*
X106061846Y-67952600D01*
X105895099Y-67969023D01*
X105681151Y-68033924D01*
X105483975Y-68139316D01*
X105311149Y-68281151D01*
X105275606Y-68324460D01*
X104236040Y-69364027D01*
X104192732Y-69399569D01*
X104050897Y-69572395D01*
X103945504Y-69769571D01*
X103880603Y-69983519D01*
X103864180Y-70150266D01*
X103858689Y-70206018D01*
X103864180Y-70261769D01*
X103864180Y-70599049D01*
X103861769Y-70601460D01*
X103818461Y-70637002D01*
X103676626Y-70809828D01*
X103655667Y-70849040D01*
X103571233Y-71007005D01*
X103506332Y-71220953D01*
X103484418Y-71443451D01*
X103489910Y-71499212D01*
X103489909Y-86489158D01*
X103484418Y-86544909D01*
X103494390Y-86646160D01*
X103506332Y-86767407D01*
X103571233Y-86981355D01*
X103676625Y-87178532D01*
X103679528Y-87182069D01*
X103679528Y-87537600D01*
X103691788Y-87662082D01*
X103728098Y-87781780D01*
X103787063Y-87892094D01*
X103866415Y-87988785D01*
X103963106Y-88068137D01*
X104073420Y-88127102D01*
X104193118Y-88163412D01*
X104317600Y-88175672D01*
X105217600Y-88175672D01*
X105342082Y-88163412D01*
X105461780Y-88127102D01*
X105572094Y-88068137D01*
X105668785Y-87988785D01*
X105748137Y-87892094D01*
X105807102Y-87781780D01*
X105843412Y-87662082D01*
X105855672Y-87537600D01*
X105855672Y-87010660D01*
X105886177Y-86910099D01*
X105908091Y-86687600D01*
X105886177Y-86465102D01*
X105855672Y-86364541D01*
X105855672Y-85837600D01*
X105843412Y-85713118D01*
X105807102Y-85593420D01*
X105759909Y-85505130D01*
X105759909Y-85220070D01*
X105807102Y-85131780D01*
X105843412Y-85012082D01*
X105855672Y-84887600D01*
X105855672Y-83187600D01*
X105843412Y-83063118D01*
X105807102Y-82943420D01*
X105759909Y-82855130D01*
X105759909Y-82570070D01*
X105807102Y-82481780D01*
X105843412Y-82362082D01*
X105855672Y-82237600D01*
X105855672Y-80537600D01*
X105843412Y-80413118D01*
X105807102Y-80293420D01*
X105759909Y-80205130D01*
X105759909Y-79920070D01*
X105807102Y-79831780D01*
X105843412Y-79712082D01*
X105855672Y-79587600D01*
X105855672Y-77887600D01*
X105843412Y-77763118D01*
X105807102Y-77643420D01*
X105759909Y-77555130D01*
X105759909Y-77270070D01*
X105807102Y-77181780D01*
X105843412Y-77062082D01*
X105855672Y-76937600D01*
X105855672Y-76087600D01*
X106527109Y-76087600D01*
X106549023Y-76310099D01*
X106579528Y-76410660D01*
X106579528Y-76937600D01*
X106591788Y-77062082D01*
X106628098Y-77181780D01*
X106687063Y-77292094D01*
X106766415Y-77388785D01*
X106795434Y-77412600D01*
X106766415Y-77436415D01*
X106687063Y-77533106D01*
X106628098Y-77643420D01*
X106591788Y-77763118D01*
X106579528Y-77887600D01*
X106579528Y-78414540D01*
X106549023Y-78515101D01*
X106527109Y-78737600D01*
X106549023Y-78960099D01*
X106579528Y-79060660D01*
X106579528Y-79587600D01*
X106591788Y-79712082D01*
X106628098Y-79831780D01*
X106687063Y-79942094D01*
X106766415Y-80038785D01*
X106795434Y-80062600D01*
X106766415Y-80086415D01*
X106687063Y-80183106D01*
X106628098Y-80293420D01*
X106591788Y-80413118D01*
X106579528Y-80537600D01*
X106579528Y-81064540D01*
X106549023Y-81165101D01*
X106527109Y-81387600D01*
X106549023Y-81610099D01*
X106579528Y-81710660D01*
X106579528Y-82237600D01*
X106591788Y-82362082D01*
X106628098Y-82481780D01*
X106687063Y-82592094D01*
X106766415Y-82688785D01*
X106795434Y-82712600D01*
X106766415Y-82736415D01*
X106687063Y-82833106D01*
X106628098Y-82943420D01*
X106591788Y-83063118D01*
X106579528Y-83187600D01*
X106579528Y-83764540D01*
X106549023Y-83865101D01*
X106527109Y-84087600D01*
X106549023Y-84310099D01*
X106579528Y-84410660D01*
X106579528Y-84887600D01*
X106591788Y-85012082D01*
X106628098Y-85131780D01*
X106687063Y-85242094D01*
X106766415Y-85338785D01*
X106795434Y-85362600D01*
X106766415Y-85386415D01*
X106687063Y-85483106D01*
X106628098Y-85593420D01*
X106591788Y-85713118D01*
X106579528Y-85837600D01*
X106579528Y-86364540D01*
X106549023Y-86465101D01*
X106527109Y-86687600D01*
X106549023Y-86910099D01*
X106579528Y-87010660D01*
X106579528Y-87537600D01*
X106591788Y-87662082D01*
X106628098Y-87781780D01*
X106687063Y-87892094D01*
X106766415Y-87988785D01*
X106863106Y-88068137D01*
X106973420Y-88127102D01*
X107093118Y-88163412D01*
X107217600Y-88175672D01*
X108117600Y-88175672D01*
X108242082Y-88163412D01*
X108361780Y-88127102D01*
X108467600Y-88070539D01*
X108573420Y-88127102D01*
X108693118Y-88163412D01*
X108817600Y-88175672D01*
X109717600Y-88175672D01*
X109842082Y-88163412D01*
X109961780Y-88127102D01*
X110072094Y-88068137D01*
X110168785Y-87988785D01*
X110248137Y-87892094D01*
X110307102Y-87781780D01*
X110343412Y-87662082D01*
X110355672Y-87537600D01*
X110355672Y-87010660D01*
X110386177Y-86910099D01*
X110408091Y-86687600D01*
X110386177Y-86465101D01*
X110355672Y-86364540D01*
X110355672Y-85837600D01*
X110343412Y-85713118D01*
X110307102Y-85593420D01*
X110248137Y-85483106D01*
X110168785Y-85386415D01*
X110139766Y-85362600D01*
X110168785Y-85338785D01*
X110248137Y-85242094D01*
X110307102Y-85131780D01*
X110343412Y-85012082D01*
X110355672Y-84887600D01*
X110355672Y-84410660D01*
X110386177Y-84310099D01*
X110408091Y-84087600D01*
X110386177Y-83865101D01*
X110355672Y-83764540D01*
X110355672Y-83187600D01*
X110343412Y-83063118D01*
X110307102Y-82943420D01*
X110248137Y-82833106D01*
X110168785Y-82736415D01*
X110139766Y-82712600D01*
X110168785Y-82688785D01*
X110248137Y-82592094D01*
X110307102Y-82481780D01*
X110343412Y-82362082D01*
X110355672Y-82237600D01*
X110355672Y-81710660D01*
X110386177Y-81610099D01*
X110408091Y-81387600D01*
X110386177Y-81165101D01*
X110355672Y-81064540D01*
X110355672Y-80537600D01*
X110343412Y-80413118D01*
X110307102Y-80293420D01*
X110248137Y-80183106D01*
X110168785Y-80086415D01*
X110139766Y-80062600D01*
X110168785Y-80038785D01*
X110248137Y-79942094D01*
X110307102Y-79831780D01*
X110343412Y-79712082D01*
X110355672Y-79587600D01*
X110355672Y-79060660D01*
X110386177Y-78960099D01*
X110408091Y-78737600D01*
X110386177Y-78515101D01*
X110355672Y-78414540D01*
X110355672Y-77887600D01*
X110343412Y-77763118D01*
X110307102Y-77643420D01*
X110248137Y-77533106D01*
X110168785Y-77436415D01*
X110139766Y-77412600D01*
X110168785Y-77388785D01*
X110248137Y-77292094D01*
X110307102Y-77181780D01*
X110343412Y-77062082D01*
X110355672Y-76937600D01*
X110355672Y-76410660D01*
X110386177Y-76310099D01*
X110408091Y-76087600D01*
X110386177Y-75865101D01*
X110355672Y-75764540D01*
X110355672Y-75237600D01*
X110343412Y-75113118D01*
X110307102Y-74993420D01*
X110248137Y-74883106D01*
X110168785Y-74786415D01*
X110072094Y-74707063D01*
X109961780Y-74648098D01*
X109842082Y-74611788D01*
X109717600Y-74599528D01*
X108817600Y-74599528D01*
X108693118Y-74611788D01*
X108573420Y-74648098D01*
X108467600Y-74704661D01*
X108361780Y-74648098D01*
X108242082Y-74611788D01*
X108117600Y-74599528D01*
X107217600Y-74599528D01*
X107093118Y-74611788D01*
X106973420Y-74648098D01*
X106863106Y-74707063D01*
X106766415Y-74786415D01*
X106687063Y-74883106D01*
X106628098Y-74993420D01*
X106591788Y-75113118D01*
X106579528Y-75237600D01*
X106579528Y-75764540D01*
X106549023Y-75865101D01*
X106527109Y-76087600D01*
X105855672Y-76087600D01*
X105855672Y-75237600D01*
X105843412Y-75113118D01*
X105807102Y-74993420D01*
X105759909Y-74905130D01*
X105759909Y-72224479D01*
X105782601Y-72243102D01*
X105782601Y-72549038D01*
X105778803Y-72587600D01*
X105793959Y-72741486D01*
X105829528Y-72858742D01*
X105829528Y-73262600D01*
X105841788Y-73387082D01*
X105878098Y-73506780D01*
X105937063Y-73617094D01*
X106016415Y-73713785D01*
X106113106Y-73793137D01*
X106223420Y-73852102D01*
X106343118Y-73888412D01*
X106467600Y-73900672D01*
X106795515Y-73900672D01*
X107135254Y-74240411D01*
X107159837Y-74270365D01*
X107279368Y-74368463D01*
X107391094Y-74428181D01*
X107415741Y-74441355D01*
X107563714Y-74486243D01*
X107638627Y-74493621D01*
X107679040Y-74497601D01*
X107679045Y-74497601D01*
X107717601Y-74501398D01*
X107756157Y-74497601D01*
X110354046Y-74497601D01*
X110392599Y-74501398D01*
X110431152Y-74497601D01*
X110431160Y-74497601D01*
X110546486Y-74486242D01*
X110694459Y-74441355D01*
X110830832Y-74368463D01*
X110950363Y-74270365D01*
X110974946Y-74240411D01*
X110995410Y-74219947D01*
X111025364Y-74195364D01*
X111123462Y-74075833D01*
X111196354Y-73939460D01*
X111241241Y-73791487D01*
X111244176Y-73761687D01*
X111266415Y-73788785D01*
X111363106Y-73868137D01*
X111473420Y-73927102D01*
X111593118Y-73963412D01*
X111717600Y-73975672D01*
X111745515Y-73975672D01*
X112235259Y-74465417D01*
X112259838Y-74495366D01*
X112289786Y-74519944D01*
X112289789Y-74519947D01*
X112308688Y-74535457D01*
X112379369Y-74593464D01*
X112390714Y-74599528D01*
X111717600Y-74599528D01*
X111593118Y-74611788D01*
X111473420Y-74648098D01*
X111363106Y-74707063D01*
X111266415Y-74786415D01*
X111187063Y-74883106D01*
X111128098Y-74993420D01*
X111091788Y-75113118D01*
X111079528Y-75237600D01*
X111079528Y-75764540D01*
X111049023Y-75865101D01*
X111027109Y-76087600D01*
X111049023Y-76310099D01*
X111079528Y-76410660D01*
X111079528Y-76937600D01*
X111091788Y-77062082D01*
X111128098Y-77181780D01*
X111187063Y-77292094D01*
X111266415Y-77388785D01*
X111295434Y-77412600D01*
X111266415Y-77436415D01*
X111187063Y-77533106D01*
X111128098Y-77643420D01*
X111091788Y-77763118D01*
X111079528Y-77887600D01*
X111079528Y-78414540D01*
X111049023Y-78515101D01*
X111027109Y-78737600D01*
X111049023Y-78960099D01*
X111079528Y-79060660D01*
X111079528Y-79587600D01*
X111091788Y-79712082D01*
X111128098Y-79831780D01*
X111187063Y-79942094D01*
X111266415Y-80038785D01*
X111295434Y-80062600D01*
X111266415Y-80086415D01*
X111187063Y-80183106D01*
X111128098Y-80293420D01*
X111091788Y-80413118D01*
X111079528Y-80537600D01*
X111079528Y-81164541D01*
X111049023Y-81265102D01*
X111027109Y-81487600D01*
X111049023Y-81710098D01*
X111079528Y-81810659D01*
X111079528Y-82237600D01*
X111091788Y-82362082D01*
X111128098Y-82481780D01*
X111187063Y-82592094D01*
X111266415Y-82688785D01*
X111295434Y-82712600D01*
X111266415Y-82736415D01*
X111187063Y-82833106D01*
X111128098Y-82943420D01*
X111091788Y-83063118D01*
X111079528Y-83187600D01*
X111079528Y-83764541D01*
X111049023Y-83865102D01*
X111027109Y-84087600D01*
X111049023Y-84310098D01*
X111079528Y-84410659D01*
X111079528Y-84887600D01*
X111091788Y-85012082D01*
X111128098Y-85131780D01*
X111187063Y-85242094D01*
X111266415Y-85338785D01*
X111295434Y-85362600D01*
X111266415Y-85386415D01*
X111187063Y-85483106D01*
X111128098Y-85593420D01*
X111091788Y-85713118D01*
X111079528Y-85837600D01*
X111079528Y-86364540D01*
X111049023Y-86465101D01*
X111027109Y-86687600D01*
X111049023Y-86910099D01*
X111079528Y-87010660D01*
X111079528Y-87537600D01*
X111091788Y-87662082D01*
X111128098Y-87781780D01*
X111187063Y-87892094D01*
X111266415Y-87988785D01*
X111363106Y-88068137D01*
X111473420Y-88127102D01*
X111593118Y-88163412D01*
X111717600Y-88175672D01*
X112617600Y-88175672D01*
X112742082Y-88163412D01*
X112861780Y-88127102D01*
X112972094Y-88068137D01*
X113068785Y-87988785D01*
X113148137Y-87892094D01*
X113185283Y-87822600D01*
X114849917Y-87822600D01*
X114887063Y-87892094D01*
X114966415Y-87988785D01*
X115063106Y-88068137D01*
X115173420Y-88127102D01*
X115293118Y-88163412D01*
X115417600Y-88175672D01*
X116317600Y-88175672D01*
X116442082Y-88163412D01*
X116561780Y-88127102D01*
X116672094Y-88068137D01*
X116768785Y-87988785D01*
X116848137Y-87892094D01*
X116907102Y-87781780D01*
X116943412Y-87662082D01*
X116955672Y-87537600D01*
X116955672Y-87010660D01*
X116986177Y-86910099D01*
X117008091Y-86687600D01*
X116986177Y-86465101D01*
X116955672Y-86364540D01*
X116955672Y-85837600D01*
X116943412Y-85713118D01*
X116907102Y-85593420D01*
X116848137Y-85483106D01*
X116768785Y-85386415D01*
X116739766Y-85362600D01*
X116768785Y-85338785D01*
X116848137Y-85242094D01*
X116907102Y-85131780D01*
X116943412Y-85012082D01*
X116955672Y-84887600D01*
X116955672Y-84410657D01*
X116986176Y-84310100D01*
X117008090Y-84087601D01*
X116986176Y-83865102D01*
X116955672Y-83764545D01*
X116955672Y-83187600D01*
X116943412Y-83063118D01*
X116907102Y-82943420D01*
X116848137Y-82833106D01*
X116768785Y-82736415D01*
X116739766Y-82712600D01*
X116768785Y-82688785D01*
X116848137Y-82592094D01*
X116907102Y-82481780D01*
X116943412Y-82362082D01*
X116955672Y-82237600D01*
X116955672Y-81810655D01*
X116986176Y-81710098D01*
X117008090Y-81487599D01*
X116986176Y-81265100D01*
X116955672Y-81164543D01*
X116955672Y-80537600D01*
X116943412Y-80413118D01*
X116907102Y-80293420D01*
X116848137Y-80183106D01*
X116785673Y-80106993D01*
X116868785Y-80038785D01*
X116948137Y-79942094D01*
X117007102Y-79831780D01*
X117043412Y-79712082D01*
X117055672Y-79587600D01*
X117055672Y-79060660D01*
X117086177Y-78960099D01*
X117108091Y-78737600D01*
X117086177Y-78515101D01*
X117055672Y-78414540D01*
X117055672Y-77887600D01*
X117043412Y-77763118D01*
X117007102Y-77643420D01*
X116948137Y-77533106D01*
X116868785Y-77436415D01*
X116839766Y-77412600D01*
X116868785Y-77388785D01*
X116948137Y-77292094D01*
X117007102Y-77181780D01*
X117043412Y-77062082D01*
X117055672Y-76937600D01*
X117055672Y-76410660D01*
X117086177Y-76310099D01*
X117108091Y-76087600D01*
X117086177Y-75865101D01*
X117055672Y-75764540D01*
X117055672Y-75372599D01*
X117779528Y-75372599D01*
X117779528Y-75764540D01*
X117749023Y-75865101D01*
X117727109Y-76087600D01*
X117749023Y-76310099D01*
X117779528Y-76410660D01*
X117779528Y-76937600D01*
X117791788Y-77062082D01*
X117828098Y-77181780D01*
X117887063Y-77292094D01*
X117966415Y-77388785D01*
X117995434Y-77412600D01*
X117966415Y-77436415D01*
X117887063Y-77533106D01*
X117828098Y-77643420D01*
X117791788Y-77763118D01*
X117779528Y-77887600D01*
X117779528Y-78364540D01*
X117749023Y-78465101D01*
X117727109Y-78687600D01*
X117749023Y-78910099D01*
X117779528Y-79010660D01*
X117779528Y-79587600D01*
X117791788Y-79712082D01*
X117828098Y-79831780D01*
X117887063Y-79942094D01*
X117949527Y-80018207D01*
X117866415Y-80086415D01*
X117787063Y-80183106D01*
X117728098Y-80293420D01*
X117691788Y-80413118D01*
X117679528Y-80537600D01*
X117679528Y-81064540D01*
X117649023Y-81165101D01*
X117627109Y-81387600D01*
X117649023Y-81610099D01*
X117679528Y-81710660D01*
X117679528Y-82237600D01*
X117691788Y-82362082D01*
X117728098Y-82481780D01*
X117787063Y-82592094D01*
X117866415Y-82688785D01*
X117895434Y-82712600D01*
X117866415Y-82736415D01*
X117787063Y-82833106D01*
X117728098Y-82943420D01*
X117691788Y-83063118D01*
X117679528Y-83187600D01*
X117679528Y-83714540D01*
X117649023Y-83815101D01*
X117627109Y-84037600D01*
X117649023Y-84260099D01*
X117679528Y-84360660D01*
X117679528Y-84887600D01*
X117691788Y-85012082D01*
X117728098Y-85131780D01*
X117787063Y-85242094D01*
X117866415Y-85338785D01*
X117895434Y-85362600D01*
X117866415Y-85386415D01*
X117787063Y-85483106D01*
X117728098Y-85593420D01*
X117691788Y-85713118D01*
X117679528Y-85837600D01*
X117679528Y-86364540D01*
X117649023Y-86465101D01*
X117627109Y-86687600D01*
X117649023Y-86910099D01*
X117679528Y-87010660D01*
X117679528Y-87537600D01*
X117691788Y-87662082D01*
X117728098Y-87781780D01*
X117787063Y-87892094D01*
X117866415Y-87988785D01*
X117963106Y-88068137D01*
X118073420Y-88127102D01*
X118193118Y-88163412D01*
X118317600Y-88175672D01*
X119217600Y-88175672D01*
X119342082Y-88163412D01*
X119461780Y-88127102D01*
X119567600Y-88070539D01*
X119673420Y-88127102D01*
X119793118Y-88163412D01*
X119917600Y-88175672D01*
X120817600Y-88175672D01*
X120942082Y-88163412D01*
X121061780Y-88127102D01*
X121172094Y-88068137D01*
X121268785Y-87988785D01*
X121348137Y-87892094D01*
X121407102Y-87781780D01*
X121443412Y-87662082D01*
X121455672Y-87537600D01*
X121455672Y-87010660D01*
X121486177Y-86910099D01*
X121508091Y-86687600D01*
X121486177Y-86465101D01*
X121455672Y-86364540D01*
X121455672Y-85837600D01*
X121443412Y-85713118D01*
X121407102Y-85593420D01*
X121348137Y-85483106D01*
X121268785Y-85386415D01*
X121239766Y-85362600D01*
X121268785Y-85338785D01*
X121348137Y-85242094D01*
X121407102Y-85131780D01*
X121443412Y-85012082D01*
X121455672Y-84887600D01*
X121455672Y-84360660D01*
X121486177Y-84260099D01*
X121508091Y-84037600D01*
X121486177Y-83815101D01*
X121455672Y-83714540D01*
X121455672Y-83187600D01*
X121443412Y-83063118D01*
X121407102Y-82943420D01*
X121348137Y-82833106D01*
X121268785Y-82736415D01*
X121239766Y-82712600D01*
X121268785Y-82688785D01*
X121348137Y-82592094D01*
X121407102Y-82481780D01*
X121443412Y-82362082D01*
X121455672Y-82237600D01*
X121455672Y-81710660D01*
X121486177Y-81610099D01*
X121508091Y-81387600D01*
X121486177Y-81165101D01*
X121455672Y-81064540D01*
X121455672Y-80537600D01*
X121443412Y-80413118D01*
X121407102Y-80293420D01*
X121348137Y-80183106D01*
X121268785Y-80086415D01*
X121239766Y-80062600D01*
X121268785Y-80038785D01*
X121348137Y-79942094D01*
X121407102Y-79831780D01*
X121443412Y-79712082D01*
X121455672Y-79587600D01*
X121455672Y-79010660D01*
X121486177Y-78910099D01*
X121508091Y-78687600D01*
X121486177Y-78465101D01*
X121455672Y-78364540D01*
X121455672Y-77887600D01*
X121443412Y-77763118D01*
X121407102Y-77643420D01*
X121348137Y-77533106D01*
X121268785Y-77436415D01*
X121239766Y-77412600D01*
X121268785Y-77388785D01*
X121348137Y-77292094D01*
X121407102Y-77181780D01*
X121443412Y-77062082D01*
X121455672Y-76937600D01*
X121455672Y-76410660D01*
X121486177Y-76310099D01*
X121508091Y-76087600D01*
X121486177Y-75865101D01*
X121455672Y-75764540D01*
X121455672Y-75297000D01*
X121555838Y-75243461D01*
X121581257Y-75222600D01*
X121619543Y-75222600D01*
X121819502Y-75182826D01*
X122007860Y-75104805D01*
X122177378Y-74991537D01*
X122292802Y-74876113D01*
X122287063Y-74883106D01*
X122228098Y-74993420D01*
X122191788Y-75113118D01*
X122179528Y-75237600D01*
X122179528Y-75764541D01*
X122149023Y-75865102D01*
X122132600Y-76031849D01*
X122132601Y-78681839D01*
X122132600Y-78681849D01*
X122132601Y-81331839D01*
X122132600Y-81331849D01*
X122132601Y-83981848D01*
X122132600Y-86404414D01*
X122099023Y-86515102D01*
X122077109Y-86737600D01*
X122082601Y-86793361D01*
X122082600Y-89167331D01*
X122071488Y-89163960D01*
X121956162Y-89152601D01*
X121956154Y-89152601D01*
X121917601Y-89148804D01*
X121879048Y-89152601D01*
X117576343Y-89152601D01*
X117386614Y-88996894D01*
X117128634Y-88859001D01*
X116848711Y-88774087D01*
X116630550Y-88752600D01*
X116484650Y-88752600D01*
X116266489Y-88774087D01*
X115986566Y-88859001D01*
X115728586Y-88996894D01*
X115502466Y-89182466D01*
X115477993Y-89212287D01*
X115457102Y-89143420D01*
X115398137Y-89033106D01*
X115318785Y-88936415D01*
X115222094Y-88857063D01*
X115111780Y-88798098D01*
X114992082Y-88761788D01*
X114867600Y-88749528D01*
X113167600Y-88749528D01*
X113043118Y-88761788D01*
X112923420Y-88798098D01*
X112813106Y-88857063D01*
X112716415Y-88936415D01*
X112637063Y-89033106D01*
X112578098Y-89143420D01*
X112541788Y-89263118D01*
X112529528Y-89387600D01*
X112529528Y-89915514D01*
X111289785Y-91155258D01*
X111259837Y-91179836D01*
X111235259Y-91209784D01*
X111235255Y-91209788D01*
X111212431Y-91237599D01*
X111161739Y-91299367D01*
X111144414Y-91331780D01*
X111088846Y-91435741D01*
X111043959Y-91583714D01*
X111040760Y-91616199D01*
X111032600Y-91699039D01*
X111032600Y-91699047D01*
X111028803Y-91737600D01*
X111032600Y-91776153D01*
X111032600Y-91974528D01*
X110542600Y-91974528D01*
X110418118Y-91986788D01*
X110298420Y-92023098D01*
X110188106Y-92082063D01*
X110091415Y-92161415D01*
X110042600Y-92220896D01*
X109993785Y-92161415D01*
X109897094Y-92082063D01*
X109786780Y-92023098D01*
X109667082Y-91986788D01*
X109542600Y-91974528D01*
X108342600Y-91974528D01*
X108218118Y-91986788D01*
X108098420Y-92023098D01*
X107988106Y-92082063D01*
X107891415Y-92161415D01*
X107812063Y-92258106D01*
X107753098Y-92368420D01*
X107716788Y-92488118D01*
X107704528Y-92612600D01*
X107704528Y-93812600D01*
X107716788Y-93937082D01*
X107753098Y-94056780D01*
X107812063Y-94167094D01*
X107891415Y-94263785D01*
X107988106Y-94343137D01*
X108098420Y-94402102D01*
X108157600Y-94420054D01*
X108157600Y-94624047D01*
X108153803Y-94662600D01*
X108157600Y-94701153D01*
X108157600Y-94701160D01*
X108168959Y-94816486D01*
X108213846Y-94964459D01*
X108286738Y-95100832D01*
X108384836Y-95220364D01*
X108404528Y-95236525D01*
X108404528Y-95462600D01*
X108416788Y-95587082D01*
X108453098Y-95706780D01*
X108512063Y-95817094D01*
X108591415Y-95913785D01*
X108688106Y-95993137D01*
X108798420Y-96052102D01*
X108918118Y-96088412D01*
X109042600Y-96100672D01*
X109542600Y-96100672D01*
X109667082Y-96088412D01*
X109786780Y-96052102D01*
X109897094Y-95993137D01*
X109993785Y-95913785D01*
X110042705Y-95854175D01*
X110082181Y-95904358D01*
X110177211Y-95985693D01*
X110286282Y-96046926D01*
X110405203Y-96085704D01*
X110510850Y-96097600D01*
X110669600Y-95938850D01*
X110669600Y-95139600D01*
X110915600Y-95139600D01*
X110915600Y-95938850D01*
X111074350Y-96097600D01*
X111179997Y-96085704D01*
X111298918Y-96046926D01*
X111407989Y-95985693D01*
X111503019Y-95904358D01*
X111580355Y-95806047D01*
X111637025Y-95694537D01*
X111670852Y-95574114D01*
X111680536Y-95449405D01*
X111677600Y-95298350D01*
X111518850Y-95139600D01*
X110915600Y-95139600D01*
X110669600Y-95139600D01*
X110645600Y-95139600D01*
X110645600Y-94885600D01*
X110669600Y-94885600D01*
X110669600Y-94865600D01*
X110915600Y-94865600D01*
X110915600Y-94885600D01*
X111518850Y-94885600D01*
X111677600Y-94726850D01*
X111680536Y-94575795D01*
X111670852Y-94451086D01*
X111670736Y-94450672D01*
X111742600Y-94450672D01*
X111867082Y-94438412D01*
X111986780Y-94402102D01*
X112097094Y-94343137D01*
X112193785Y-94263785D01*
X112273137Y-94167094D01*
X112332102Y-94056780D01*
X112368412Y-93937082D01*
X112380672Y-93812600D01*
X112380672Y-93088896D01*
X112405443Y-93058714D01*
X112424050Y-93036041D01*
X112473462Y-92975833D01*
X112533818Y-92862914D01*
X112554087Y-93068711D01*
X112639001Y-93348634D01*
X112776894Y-93606614D01*
X112962466Y-93832734D01*
X113188586Y-94018306D01*
X113243391Y-94047600D01*
X113188586Y-94076894D01*
X112962466Y-94262466D01*
X112776894Y-94488586D01*
X112639001Y-94746566D01*
X112554087Y-95026489D01*
X112525415Y-95317600D01*
X112554087Y-95608711D01*
X112639001Y-95888634D01*
X112776894Y-96146614D01*
X112962466Y-96372734D01*
X113188586Y-96558306D01*
X113446566Y-96696199D01*
X113726489Y-96781113D01*
X113944650Y-96802600D01*
X114090550Y-96802600D01*
X114308711Y-96781113D01*
X114588634Y-96696199D01*
X114846614Y-96558306D01*
X115072734Y-96372734D01*
X115258306Y-96146614D01*
X115289184Y-96088844D01*
X115460012Y-96317869D01*
X115676245Y-96512778D01*
X115926348Y-96661757D01*
X116200709Y-96759081D01*
X116430600Y-96638414D01*
X116430600Y-95444600D01*
X116684600Y-95444600D01*
X116684600Y-96638414D01*
X116914491Y-96759081D01*
X117188852Y-96661757D01*
X117438955Y-96512778D01*
X117655188Y-96317869D01*
X117829241Y-96084520D01*
X117954425Y-95821699D01*
X117999076Y-95674490D01*
X117877755Y-95444600D01*
X116684600Y-95444600D01*
X116430600Y-95444600D01*
X116410600Y-95444600D01*
X116410600Y-95190600D01*
X116430600Y-95190600D01*
X116430600Y-95170600D01*
X116684600Y-95170600D01*
X116684600Y-95190600D01*
X117877755Y-95190600D01*
X117999076Y-94960710D01*
X117954425Y-94813501D01*
X117829241Y-94550680D01*
X117655188Y-94317331D01*
X117438955Y-94122422D01*
X117322077Y-94052801D01*
X117386614Y-94018306D01*
X117612734Y-93832734D01*
X117798306Y-93606614D01*
X117936199Y-93348634D01*
X118021113Y-93068711D01*
X118049785Y-92777600D01*
X118021113Y-92486489D01*
X117975948Y-92337600D01*
X119979528Y-92337600D01*
X119991788Y-92462082D01*
X120028098Y-92581780D01*
X120087063Y-92692094D01*
X120166415Y-92788785D01*
X120263106Y-92868137D01*
X120373420Y-92927102D01*
X120493118Y-92963412D01*
X120617600Y-92975672D01*
X120931850Y-92972600D01*
X121090600Y-92813850D01*
X121090600Y-91614600D01*
X120141350Y-91614600D01*
X119982600Y-91773350D01*
X119979528Y-92337600D01*
X117975948Y-92337600D01*
X117936199Y-92206566D01*
X117798306Y-91948586D01*
X117612734Y-91722466D01*
X117386614Y-91536894D01*
X117331809Y-91507600D01*
X117386614Y-91478306D01*
X117612734Y-91292734D01*
X117798306Y-91066614D01*
X117936199Y-90808634D01*
X117962297Y-90722601D01*
X119979991Y-90722601D01*
X119982600Y-91201850D01*
X120141350Y-91360600D01*
X121090600Y-91360600D01*
X121090600Y-91340600D01*
X121344600Y-91340600D01*
X121344600Y-91360600D01*
X121364600Y-91360600D01*
X121364600Y-91614600D01*
X121344600Y-91614600D01*
X121344600Y-92813850D01*
X121503350Y-92972600D01*
X121817600Y-92975672D01*
X121942082Y-92963412D01*
X122061780Y-92927102D01*
X122172094Y-92868137D01*
X122268785Y-92788785D01*
X122348137Y-92692094D01*
X122374292Y-92643163D01*
X122528152Y-92769433D01*
X122742700Y-92884111D01*
X122975499Y-92954730D01*
X123217600Y-92978575D01*
X123459702Y-92954730D01*
X123692501Y-92884111D01*
X123907049Y-92769433D01*
X124095102Y-92615102D01*
X124249433Y-92427049D01*
X124364111Y-92212500D01*
X124434730Y-91979701D01*
X124452600Y-91798264D01*
X124452600Y-91176935D01*
X124434730Y-90995498D01*
X124364111Y-90762699D01*
X124352600Y-90741163D01*
X124352600Y-87568792D01*
X124355672Y-87537600D01*
X124355672Y-87010660D01*
X124386177Y-86910099D01*
X124402600Y-86743352D01*
X124402600Y-86743351D01*
X124408091Y-86687600D01*
X124402600Y-86631848D01*
X124402600Y-81882757D01*
X128545065Y-86025222D01*
X128539001Y-86036566D01*
X128454087Y-86316489D01*
X128425415Y-86607600D01*
X128454087Y-86898711D01*
X128539001Y-87178634D01*
X128562185Y-87222009D01*
X128457866Y-87152305D01*
X128269508Y-87074284D01*
X128069549Y-87034510D01*
X127865671Y-87034510D01*
X127665712Y-87074284D01*
X127477354Y-87152305D01*
X127307836Y-87265573D01*
X127288899Y-87284510D01*
X126874242Y-87284510D01*
X126835689Y-87280713D01*
X126797136Y-87284510D01*
X126797129Y-87284510D01*
X126696180Y-87294453D01*
X126681802Y-87295869D01*
X126653865Y-87304344D01*
X126533830Y-87340756D01*
X126397457Y-87413648D01*
X126277926Y-87511746D01*
X126253343Y-87541700D01*
X126142443Y-87652600D01*
X126115661Y-87652600D01*
X125915702Y-87692374D01*
X125727344Y-87770395D01*
X125557826Y-87883663D01*
X125413663Y-88027826D01*
X125300395Y-88197344D01*
X125222374Y-88385702D01*
X125182600Y-88585661D01*
X125182600Y-88789539D01*
X125222374Y-88989498D01*
X125300395Y-89177856D01*
X125413663Y-89347374D01*
X125557826Y-89491537D01*
X125727344Y-89604805D01*
X125915702Y-89682826D01*
X126115661Y-89722600D01*
X126319539Y-89722600D01*
X126519498Y-89682826D01*
X126707856Y-89604805D01*
X126857988Y-89504490D01*
X128476124Y-89504490D01*
X128520775Y-89651699D01*
X128645959Y-89914520D01*
X128820012Y-90147869D01*
X129036245Y-90342778D01*
X129286348Y-90491757D01*
X129560709Y-90589081D01*
X129790600Y-90468414D01*
X129790600Y-89274600D01*
X128597445Y-89274600D01*
X128476124Y-89504490D01*
X126857988Y-89504490D01*
X126877374Y-89491537D01*
X127021537Y-89347374D01*
X127134805Y-89177856D01*
X127212826Y-88989498D01*
X127239677Y-88854510D01*
X127288899Y-88854510D01*
X127307836Y-88873447D01*
X127477354Y-88986715D01*
X127665712Y-89064736D01*
X127865671Y-89104510D01*
X128069549Y-89104510D01*
X128269508Y-89064736D01*
X128457866Y-88986715D01*
X128547837Y-88926598D01*
X128597445Y-89020600D01*
X129790600Y-89020600D01*
X129790600Y-89000600D01*
X130044600Y-89000600D01*
X130044600Y-89020600D01*
X130064600Y-89020600D01*
X130064600Y-89274600D01*
X130044600Y-89274600D01*
X130044600Y-90468414D01*
X130274491Y-90589081D01*
X130548852Y-90491757D01*
X130798955Y-90342778D01*
X131015188Y-90147869D01*
X131189241Y-89914520D01*
X131207601Y-89875974D01*
X131207601Y-94322263D01*
X131148231Y-94178931D01*
X130903638Y-93812871D01*
X130592329Y-93501562D01*
X130226269Y-93256969D01*
X129819525Y-93088490D01*
X129387728Y-93002600D01*
X128947472Y-93002600D01*
X128515675Y-93088490D01*
X128108931Y-93256969D01*
X127742871Y-93501562D01*
X127431562Y-93812871D01*
X127186969Y-94178931D01*
X127018490Y-94585675D01*
X126932600Y-95017472D01*
X126932600Y-95457728D01*
X127018490Y-95889525D01*
X127186969Y-96296269D01*
X127431562Y-96662329D01*
X127742871Y-96973638D01*
X128108931Y-97218231D01*
X128252260Y-97277600D01*
X105582940Y-97277600D01*
X105726269Y-97218231D01*
X106092329Y-96973638D01*
X106403638Y-96662329D01*
X106648231Y-96296269D01*
X106816710Y-95889525D01*
X106902600Y-95457728D01*
X106902600Y-95017472D01*
X106816710Y-94585675D01*
X106648231Y-94178931D01*
X106403638Y-93812871D01*
X106092329Y-93501562D01*
X105726269Y-93256969D01*
X105319525Y-93088490D01*
X104887728Y-93002600D01*
X104447472Y-93002600D01*
X104015675Y-93088490D01*
X103608931Y-93256969D01*
X103242871Y-93501562D01*
X102931562Y-93812871D01*
X102686969Y-94178931D01*
X102627600Y-94322260D01*
X102627600Y-51652940D01*
X102686969Y-51796269D01*
G36*
X114144600Y-83214600D02*
G01*
X114164600Y-83214600D01*
X114164600Y-83460600D01*
X114144600Y-83460600D01*
X114144600Y-84063850D01*
X114215409Y-84134659D01*
X114097479Y-84252590D01*
X113937722Y-84252590D01*
X113819791Y-84134659D01*
X113890600Y-84063850D01*
X113890600Y-83460600D01*
X113870600Y-83460600D01*
X113870600Y-83214600D01*
X113890600Y-83214600D01*
X113890600Y-83190600D01*
X114144600Y-83190600D01*
X114144600Y-83214600D01*
X114144600Y-83214600D01*
G37*
X114144600Y-83214600D02*
X114164600Y-83214600D01*
X114164600Y-83460600D01*
X114144600Y-83460600D01*
X114144600Y-84063850D01*
X114215409Y-84134659D01*
X114097479Y-84252590D01*
X113937722Y-84252590D01*
X113819791Y-84134659D01*
X113890600Y-84063850D01*
X113890600Y-83460600D01*
X113870600Y-83460600D01*
X113870600Y-83214600D01*
X113890600Y-83214600D01*
X113890600Y-83190600D01*
X114144600Y-83190600D01*
X114144600Y-83214600D01*
G36*
X128108931Y-48756969D02*
G01*
X127742871Y-49001562D01*
X127431562Y-49312871D01*
X127186969Y-49678931D01*
X127018490Y-50085675D01*
X126932600Y-50517472D01*
X126932600Y-50957728D01*
X127018490Y-51389525D01*
X127186969Y-51796269D01*
X127431562Y-52162329D01*
X127742871Y-52473638D01*
X128108931Y-52718231D01*
X128515675Y-52886710D01*
X128947472Y-52972600D01*
X129387728Y-52972600D01*
X129819525Y-52886710D01*
X130226269Y-52718231D01*
X130592329Y-52473638D01*
X130903638Y-52162329D01*
X131148231Y-51796269D01*
X131207600Y-51652940D01*
X131207600Y-53881663D01*
X131142082Y-53861788D01*
X131017600Y-53849528D01*
X129817600Y-53849528D01*
X129693118Y-53861788D01*
X129573420Y-53898098D01*
X129463106Y-53957063D01*
X129366415Y-54036415D01*
X129317600Y-54095896D01*
X129268785Y-54036415D01*
X129172094Y-53957063D01*
X129061780Y-53898098D01*
X128942082Y-53861788D01*
X128817600Y-53849528D01*
X127617600Y-53849528D01*
X127493118Y-53861788D01*
X127373420Y-53898098D01*
X127263106Y-53957063D01*
X127166415Y-54036415D01*
X127087063Y-54133106D01*
X127028098Y-54243420D01*
X126991788Y-54363118D01*
X126979528Y-54487600D01*
X126979528Y-55687600D01*
X126991788Y-55812082D01*
X127028098Y-55931780D01*
X127087063Y-56042094D01*
X127166415Y-56138785D01*
X127256359Y-56212600D01*
X127166415Y-56286415D01*
X127087063Y-56383106D01*
X127028098Y-56493420D01*
X126991788Y-56613118D01*
X126979528Y-56737600D01*
X126979528Y-57637600D01*
X126991788Y-57762082D01*
X127028098Y-57881780D01*
X127087063Y-57992094D01*
X127166415Y-58088785D01*
X127263106Y-58168137D01*
X127373420Y-58227102D01*
X127493118Y-58263412D01*
X127617600Y-58275672D01*
X128117600Y-58275672D01*
X128242082Y-58263412D01*
X128361780Y-58227102D01*
X128472094Y-58168137D01*
X128568785Y-58088785D01*
X128617705Y-58029175D01*
X128657181Y-58079358D01*
X128752211Y-58160693D01*
X128861282Y-58221926D01*
X128980203Y-58260704D01*
X129085850Y-58272600D01*
X129244600Y-58113850D01*
X129244600Y-57314600D01*
X129220600Y-57314600D01*
X129220600Y-57060600D01*
X129244600Y-57060600D01*
X129244600Y-57040600D01*
X129490600Y-57040600D01*
X129490600Y-57060600D01*
X129514600Y-57060600D01*
X129514600Y-57314600D01*
X129490600Y-57314600D01*
X129490600Y-58113850D01*
X129649350Y-58272600D01*
X129754997Y-58260704D01*
X129873918Y-58221926D01*
X129982989Y-58160693D01*
X130078019Y-58079358D01*
X130155355Y-57981047D01*
X130212025Y-57869537D01*
X130245852Y-57749114D01*
X130255536Y-57624405D01*
X130252600Y-57473350D01*
X130093852Y-57314602D01*
X130252600Y-57314602D01*
X130252600Y-57286311D01*
X130357826Y-57391537D01*
X130527344Y-57504805D01*
X130715702Y-57582826D01*
X130915661Y-57622600D01*
X131119539Y-57622600D01*
X131207600Y-57605084D01*
X131207600Y-65467287D01*
X130460452Y-64720139D01*
X130460452Y-64693357D01*
X130420678Y-64493398D01*
X130342657Y-64305040D01*
X130229389Y-64135522D01*
X130085226Y-63991359D01*
X129915708Y-63878091D01*
X129727350Y-63800070D01*
X129527391Y-63760296D01*
X129323513Y-63760296D01*
X129123554Y-63800070D01*
X128935196Y-63878091D01*
X128765678Y-63991359D01*
X128621515Y-64135522D01*
X128508247Y-64305040D01*
X128430226Y-64493398D01*
X128390452Y-64693357D01*
X128390452Y-64897235D01*
X128430226Y-65097194D01*
X128508247Y-65285552D01*
X128621515Y-65455070D01*
X128765678Y-65599233D01*
X128935196Y-65712501D01*
X129123554Y-65790522D01*
X129323513Y-65830296D01*
X129350295Y-65830296D01*
X130607591Y-67087593D01*
X130607590Y-75210363D01*
X130593118Y-75211788D01*
X130473420Y-75248098D01*
X130363106Y-75307063D01*
X130266415Y-75386415D01*
X130217495Y-75446025D01*
X130178019Y-75395842D01*
X130082989Y-75314507D01*
X129973918Y-75253274D01*
X129854997Y-75214496D01*
X129749350Y-75202600D01*
X129590600Y-75361350D01*
X129590600Y-76160600D01*
X129614600Y-76160600D01*
X129614600Y-76414600D01*
X129590600Y-76414600D01*
X129590600Y-76434600D01*
X129344600Y-76434600D01*
X129344600Y-76414600D01*
X128741350Y-76414600D01*
X128582600Y-76573350D01*
X128579664Y-76724405D01*
X128589348Y-76849114D01*
X128623175Y-76969537D01*
X128679845Y-77081047D01*
X128757181Y-77179358D01*
X128852211Y-77260693D01*
X128961282Y-77321926D01*
X129080203Y-77360704D01*
X129131649Y-77366497D01*
X129132601Y-77376162D01*
X129132601Y-77499528D01*
X129067600Y-77499528D01*
X128943118Y-77511788D01*
X128823420Y-77548098D01*
X128713106Y-77607063D01*
X128616415Y-77686415D01*
X128537063Y-77783106D01*
X128478098Y-77893420D01*
X128441788Y-78013118D01*
X128429528Y-78137600D01*
X128429528Y-78929371D01*
X128402600Y-78902443D01*
X128402600Y-75966311D01*
X128421537Y-75947374D01*
X128486068Y-75850795D01*
X128579664Y-75850795D01*
X128582600Y-76001850D01*
X128741350Y-76160600D01*
X129344600Y-76160600D01*
X129344600Y-75361350D01*
X129185850Y-75202600D01*
X129080203Y-75214496D01*
X128961282Y-75253274D01*
X128852211Y-75314507D01*
X128757181Y-75395842D01*
X128679845Y-75494153D01*
X128623175Y-75605663D01*
X128589348Y-75726086D01*
X128579664Y-75850795D01*
X128486068Y-75850795D01*
X128534805Y-75777856D01*
X128612826Y-75589498D01*
X128652600Y-75389539D01*
X128652600Y-75185661D01*
X128612826Y-74985702D01*
X128534805Y-74797344D01*
X128421537Y-74627826D01*
X128277374Y-74483663D01*
X128107856Y-74370395D01*
X128046036Y-74344788D01*
X128902104Y-73488720D01*
X128932052Y-73464142D01*
X129030150Y-73344611D01*
X129103042Y-73208238D01*
X129147929Y-73060265D01*
X129159288Y-72944939D01*
X129159288Y-72944932D01*
X129163085Y-72906379D01*
X129159288Y-72867826D01*
X129159288Y-71472840D01*
X129163085Y-71434287D01*
X129159288Y-71395734D01*
X129159288Y-71395727D01*
X129147929Y-71280401D01*
X129103042Y-71132428D01*
X129030150Y-70996055D01*
X128932052Y-70876524D01*
X128902099Y-70851942D01*
X128449947Y-70399790D01*
X128425364Y-70369836D01*
X128305833Y-70271738D01*
X128169460Y-70198846D01*
X128158958Y-70195660D01*
X128193412Y-70082082D01*
X128205672Y-69957600D01*
X128205672Y-69357600D01*
X128193412Y-69233118D01*
X128157102Y-69113420D01*
X128108557Y-69022600D01*
X128157102Y-68931780D01*
X128193412Y-68812082D01*
X128205672Y-68687600D01*
X128205672Y-68087600D01*
X128193412Y-67963118D01*
X128157102Y-67843420D01*
X128108557Y-67752600D01*
X128157102Y-67661780D01*
X128193412Y-67542082D01*
X128205672Y-67417600D01*
X128205672Y-66817600D01*
X128193412Y-66693118D01*
X128157102Y-66573420D01*
X128108557Y-66482600D01*
X128157102Y-66391780D01*
X128193412Y-66272082D01*
X128205672Y-66147600D01*
X128205672Y-65547600D01*
X128193412Y-65423118D01*
X128157102Y-65303420D01*
X128108557Y-65212600D01*
X128157102Y-65121780D01*
X128193412Y-65002082D01*
X128205672Y-64877600D01*
X128202600Y-64863350D01*
X128043850Y-64704600D01*
X126944600Y-64704600D01*
X126944600Y-64724600D01*
X126690600Y-64724600D01*
X126690600Y-64704600D01*
X126670600Y-64704600D01*
X126670600Y-64450600D01*
X126690600Y-64450600D01*
X126690600Y-63801350D01*
X126944600Y-63801350D01*
X126944600Y-64450600D01*
X128043850Y-64450600D01*
X128202600Y-64291850D01*
X128205672Y-64277600D01*
X128193412Y-64153118D01*
X128157102Y-64033420D01*
X128098137Y-63923106D01*
X128018785Y-63826415D01*
X127922094Y-63747063D01*
X127811780Y-63688098D01*
X127692082Y-63651788D01*
X127567600Y-63639528D01*
X127103350Y-63642600D01*
X126944600Y-63801350D01*
X126690600Y-63801350D01*
X126531850Y-63642600D01*
X126302600Y-63641083D01*
X126302600Y-62966311D01*
X126321537Y-62947374D01*
X126434805Y-62777856D01*
X126512826Y-62589498D01*
X126552600Y-62389539D01*
X126552600Y-62185661D01*
X126512826Y-61985702D01*
X126452600Y-61840305D01*
X126452600Y-60743101D01*
X126518785Y-60688785D01*
X126598137Y-60592094D01*
X126657102Y-60481780D01*
X126693412Y-60362082D01*
X126705672Y-60237600D01*
X126705672Y-59337600D01*
X126693412Y-59213118D01*
X126657102Y-59093420D01*
X126598137Y-58983106D01*
X126518785Y-58886415D01*
X126422094Y-58807063D01*
X126311780Y-58748098D01*
X126192082Y-58711788D01*
X126067600Y-58699528D01*
X125555695Y-58699528D01*
X125568785Y-58688785D01*
X125648137Y-58592094D01*
X125707102Y-58481780D01*
X125743412Y-58362082D01*
X125755672Y-58237600D01*
X125752600Y-58073350D01*
X125593850Y-57914600D01*
X124844600Y-57914600D01*
X124844600Y-58713850D01*
X124929207Y-58798457D01*
X124913106Y-58807063D01*
X124816415Y-58886415D01*
X124737063Y-58983106D01*
X124717600Y-59019518D01*
X124698137Y-58983106D01*
X124618785Y-58886415D01*
X124522094Y-58807063D01*
X124505993Y-58798457D01*
X124590600Y-58713850D01*
X124590600Y-57914600D01*
X123841350Y-57914600D01*
X123682600Y-58073350D01*
X123679528Y-58237600D01*
X123691788Y-58362082D01*
X123728098Y-58481780D01*
X123787063Y-58592094D01*
X123866415Y-58688785D01*
X123879505Y-58699528D01*
X123367600Y-58699528D01*
X123243118Y-58711788D01*
X123123420Y-58748098D01*
X123013106Y-58807063D01*
X122916415Y-58886415D01*
X122837063Y-58983106D01*
X122778098Y-59093420D01*
X122741788Y-59213118D01*
X122729528Y-59337600D01*
X122729528Y-60237600D01*
X122741520Y-60359365D01*
X122341945Y-59959790D01*
X122317362Y-59929836D01*
X122197831Y-59831738D01*
X122061458Y-59758846D01*
X121913485Y-59713959D01*
X121798159Y-59702600D01*
X121798151Y-59702600D01*
X121759598Y-59698803D01*
X121721045Y-59702600D01*
X121390628Y-59702600D01*
X121407102Y-59671780D01*
X121432637Y-59587602D01*
X121435364Y-59585364D01*
X121459947Y-59555411D01*
X122145415Y-58869943D01*
X122175364Y-58845364D01*
X122206798Y-58807063D01*
X122255189Y-58748098D01*
X122273462Y-58725833D01*
X122346354Y-58589460D01*
X122391241Y-58441487D01*
X122402600Y-58326161D01*
X122402600Y-58326154D01*
X122406397Y-58287601D01*
X122402600Y-58249048D01*
X122402600Y-57494459D01*
X122559459Y-57337600D01*
X123679528Y-57337600D01*
X123682600Y-57501850D01*
X123841350Y-57660600D01*
X124590600Y-57660600D01*
X124590600Y-56861350D01*
X124844600Y-56861350D01*
X124844600Y-57660600D01*
X125593850Y-57660600D01*
X125752600Y-57501850D01*
X125755672Y-57337600D01*
X125743412Y-57213118D01*
X125707102Y-57093420D01*
X125648137Y-56983106D01*
X125568785Y-56886415D01*
X125472094Y-56807063D01*
X125361780Y-56748098D01*
X125242082Y-56711788D01*
X125117600Y-56699528D01*
X125003350Y-56702600D01*
X124844600Y-56861350D01*
X124590600Y-56861350D01*
X124431850Y-56702600D01*
X124317600Y-56699528D01*
X124193118Y-56711788D01*
X124073420Y-56748098D01*
X123963106Y-56807063D01*
X123866415Y-56886415D01*
X123787063Y-56983106D01*
X123728098Y-57093420D01*
X123691788Y-57213118D01*
X123679528Y-57337600D01*
X122559459Y-57337600D01*
X123745410Y-56151649D01*
X123764793Y-56135742D01*
X125918847Y-56114594D01*
X125944261Y-56111770D01*
X125967973Y-56104183D01*
X125989749Y-56092116D01*
X126008753Y-56076032D01*
X126024253Y-56056550D01*
X126035656Y-56034418D01*
X126042521Y-56010487D01*
X126044585Y-55985676D01*
X125994585Y-52685676D01*
X125991984Y-52661956D01*
X125984591Y-52638182D01*
X125972702Y-52616308D01*
X125956774Y-52597173D01*
X125937419Y-52581514D01*
X125915381Y-52569931D01*
X125891507Y-52562871D01*
X125866714Y-52560603D01*
X118490928Y-52612038D01*
X118507102Y-52581780D01*
X118543412Y-52462082D01*
X118555672Y-52337600D01*
X118555672Y-52109685D01*
X119145411Y-51519946D01*
X119175364Y-51495364D01*
X119273462Y-51375833D01*
X119346354Y-51239460D01*
X119370808Y-51158846D01*
X119391242Y-51091487D01*
X119401590Y-50986415D01*
X119402600Y-50976161D01*
X119402600Y-50976156D01*
X119406397Y-50937600D01*
X119402600Y-50899044D01*
X119402600Y-49266150D01*
X119406397Y-49227597D01*
X119402600Y-49189044D01*
X119402600Y-49189037D01*
X119391241Y-49073711D01*
X119346354Y-48925738D01*
X119273462Y-48789365D01*
X119202255Y-48702600D01*
X119199945Y-48699785D01*
X119199942Y-48699782D01*
X119198151Y-48697600D01*
X128252260Y-48697600D01*
X128108931Y-48756969D01*
X128108931Y-48756969D01*
G37*
X128108931Y-48756969D02*
X127742871Y-49001562D01*
X127431562Y-49312871D01*
X127186969Y-49678931D01*
X127018490Y-50085675D01*
X126932600Y-50517472D01*
X126932600Y-50957728D01*
X127018490Y-51389525D01*
X127186969Y-51796269D01*
X127431562Y-52162329D01*
X127742871Y-52473638D01*
X128108931Y-52718231D01*
X128515675Y-52886710D01*
X128947472Y-52972600D01*
X129387728Y-52972600D01*
X129819525Y-52886710D01*
X130226269Y-52718231D01*
X130592329Y-52473638D01*
X130903638Y-52162329D01*
X131148231Y-51796269D01*
X131207600Y-51652940D01*
X131207600Y-53881663D01*
X131142082Y-53861788D01*
X131017600Y-53849528D01*
X129817600Y-53849528D01*
X129693118Y-53861788D01*
X129573420Y-53898098D01*
X129463106Y-53957063D01*
X129366415Y-54036415D01*
X129317600Y-54095896D01*
X129268785Y-54036415D01*
X129172094Y-53957063D01*
X129061780Y-53898098D01*
X128942082Y-53861788D01*
X128817600Y-53849528D01*
X127617600Y-53849528D01*
X127493118Y-53861788D01*
X127373420Y-53898098D01*
X127263106Y-53957063D01*
X127166415Y-54036415D01*
X127087063Y-54133106D01*
X127028098Y-54243420D01*
X126991788Y-54363118D01*
X126979528Y-54487600D01*
X126979528Y-55687600D01*
X126991788Y-55812082D01*
X127028098Y-55931780D01*
X127087063Y-56042094D01*
X127166415Y-56138785D01*
X127256359Y-56212600D01*
X127166415Y-56286415D01*
X127087063Y-56383106D01*
X127028098Y-56493420D01*
X126991788Y-56613118D01*
X126979528Y-56737600D01*
X126979528Y-57637600D01*
X126991788Y-57762082D01*
X127028098Y-57881780D01*
X127087063Y-57992094D01*
X127166415Y-58088785D01*
X127263106Y-58168137D01*
X127373420Y-58227102D01*
X127493118Y-58263412D01*
X127617600Y-58275672D01*
X128117600Y-58275672D01*
X128242082Y-58263412D01*
X128361780Y-58227102D01*
X128472094Y-58168137D01*
X128568785Y-58088785D01*
X128617705Y-58029175D01*
X128657181Y-58079358D01*
X128752211Y-58160693D01*
X128861282Y-58221926D01*
X128980203Y-58260704D01*
X129085850Y-58272600D01*
X129244600Y-58113850D01*
X129244600Y-57314600D01*
X129220600Y-57314600D01*
X129220600Y-57060600D01*
X129244600Y-57060600D01*
X129244600Y-57040600D01*
X129490600Y-57040600D01*
X129490600Y-57060600D01*
X129514600Y-57060600D01*
X129514600Y-57314600D01*
X129490600Y-57314600D01*
X129490600Y-58113850D01*
X129649350Y-58272600D01*
X129754997Y-58260704D01*
X129873918Y-58221926D01*
X129982989Y-58160693D01*
X130078019Y-58079358D01*
X130155355Y-57981047D01*
X130212025Y-57869537D01*
X130245852Y-57749114D01*
X130255536Y-57624405D01*
X130252600Y-57473350D01*
X130093852Y-57314602D01*
X130252600Y-57314602D01*
X130252600Y-57286311D01*
X130357826Y-57391537D01*
X130527344Y-57504805D01*
X130715702Y-57582826D01*
X130915661Y-57622600D01*
X131119539Y-57622600D01*
X131207600Y-57605084D01*
X131207600Y-65467287D01*
X130460452Y-64720139D01*
X130460452Y-64693357D01*
X130420678Y-64493398D01*
X130342657Y-64305040D01*
X130229389Y-64135522D01*
X130085226Y-63991359D01*
X129915708Y-63878091D01*
X129727350Y-63800070D01*
X129527391Y-63760296D01*
X129323513Y-63760296D01*
X129123554Y-63800070D01*
X128935196Y-63878091D01*
X128765678Y-63991359D01*
X128621515Y-64135522D01*
X128508247Y-64305040D01*
X128430226Y-64493398D01*
X128390452Y-64693357D01*
X128390452Y-64897235D01*
X128430226Y-65097194D01*
X128508247Y-65285552D01*
X128621515Y-65455070D01*
X128765678Y-65599233D01*
X128935196Y-65712501D01*
X129123554Y-65790522D01*
X129323513Y-65830296D01*
X129350295Y-65830296D01*
X130607591Y-67087593D01*
X130607590Y-75210363D01*
X130593118Y-75211788D01*
X130473420Y-75248098D01*
X130363106Y-75307063D01*
X130266415Y-75386415D01*
X130217495Y-75446025D01*
X130178019Y-75395842D01*
X130082989Y-75314507D01*
X129973918Y-75253274D01*
X129854997Y-75214496D01*
X129749350Y-75202600D01*
X129590600Y-75361350D01*
X129590600Y-76160600D01*
X129614600Y-76160600D01*
X129614600Y-76414600D01*
X129590600Y-76414600D01*
X129590600Y-76434600D01*
X129344600Y-76434600D01*
X129344600Y-76414600D01*
X128741350Y-76414600D01*
X128582600Y-76573350D01*
X128579664Y-76724405D01*
X128589348Y-76849114D01*
X128623175Y-76969537D01*
X128679845Y-77081047D01*
X128757181Y-77179358D01*
X128852211Y-77260693D01*
X128961282Y-77321926D01*
X129080203Y-77360704D01*
X129131649Y-77366497D01*
X129132601Y-77376162D01*
X129132601Y-77499528D01*
X129067600Y-77499528D01*
X128943118Y-77511788D01*
X128823420Y-77548098D01*
X128713106Y-77607063D01*
X128616415Y-77686415D01*
X128537063Y-77783106D01*
X128478098Y-77893420D01*
X128441788Y-78013118D01*
X128429528Y-78137600D01*
X128429528Y-78929371D01*
X128402600Y-78902443D01*
X128402600Y-75966311D01*
X128421537Y-75947374D01*
X128486068Y-75850795D01*
X128579664Y-75850795D01*
X128582600Y-76001850D01*
X128741350Y-76160600D01*
X129344600Y-76160600D01*
X129344600Y-75361350D01*
X129185850Y-75202600D01*
X129080203Y-75214496D01*
X128961282Y-75253274D01*
X128852211Y-75314507D01*
X128757181Y-75395842D01*
X128679845Y-75494153D01*
X128623175Y-75605663D01*
X128589348Y-75726086D01*
X128579664Y-75850795D01*
X128486068Y-75850795D01*
X128534805Y-75777856D01*
X128612826Y-75589498D01*
X128652600Y-75389539D01*
X128652600Y-75185661D01*
X128612826Y-74985702D01*
X128534805Y-74797344D01*
X128421537Y-74627826D01*
X128277374Y-74483663D01*
X128107856Y-74370395D01*
X128046036Y-74344788D01*
X128902104Y-73488720D01*
X128932052Y-73464142D01*
X129030150Y-73344611D01*
X129103042Y-73208238D01*
X129147929Y-73060265D01*
X129159288Y-72944939D01*
X129159288Y-72944932D01*
X129163085Y-72906379D01*
X129159288Y-72867826D01*
X129159288Y-71472840D01*
X129163085Y-71434287D01*
X129159288Y-71395734D01*
X129159288Y-71395727D01*
X129147929Y-71280401D01*
X129103042Y-71132428D01*
X129030150Y-70996055D01*
X128932052Y-70876524D01*
X128902099Y-70851942D01*
X128449947Y-70399790D01*
X128425364Y-70369836D01*
X128305833Y-70271738D01*
X128169460Y-70198846D01*
X128158958Y-70195660D01*
X128193412Y-70082082D01*
X128205672Y-69957600D01*
X128205672Y-69357600D01*
X128193412Y-69233118D01*
X128157102Y-69113420D01*
X128108557Y-69022600D01*
X128157102Y-68931780D01*
X128193412Y-68812082D01*
X128205672Y-68687600D01*
X128205672Y-68087600D01*
X128193412Y-67963118D01*
X128157102Y-67843420D01*
X128108557Y-67752600D01*
X128157102Y-67661780D01*
X128193412Y-67542082D01*
X128205672Y-67417600D01*
X128205672Y-66817600D01*
X128193412Y-66693118D01*
X128157102Y-66573420D01*
X128108557Y-66482600D01*
X128157102Y-66391780D01*
X128193412Y-66272082D01*
X128205672Y-66147600D01*
X128205672Y-65547600D01*
X128193412Y-65423118D01*
X128157102Y-65303420D01*
X128108557Y-65212600D01*
X128157102Y-65121780D01*
X128193412Y-65002082D01*
X128205672Y-64877600D01*
X128202600Y-64863350D01*
X128043850Y-64704600D01*
X126944600Y-64704600D01*
X126944600Y-64724600D01*
X126690600Y-64724600D01*
X126690600Y-64704600D01*
X126670600Y-64704600D01*
X126670600Y-64450600D01*
X126690600Y-64450600D01*
X126690600Y-63801350D01*
X126944600Y-63801350D01*
X126944600Y-64450600D01*
X128043850Y-64450600D01*
X128202600Y-64291850D01*
X128205672Y-64277600D01*
X128193412Y-64153118D01*
X128157102Y-64033420D01*
X128098137Y-63923106D01*
X128018785Y-63826415D01*
X127922094Y-63747063D01*
X127811780Y-63688098D01*
X127692082Y-63651788D01*
X127567600Y-63639528D01*
X127103350Y-63642600D01*
X126944600Y-63801350D01*
X126690600Y-63801350D01*
X126531850Y-63642600D01*
X126302600Y-63641083D01*
X126302600Y-62966311D01*
X126321537Y-62947374D01*
X126434805Y-62777856D01*
X126512826Y-62589498D01*
X126552600Y-62389539D01*
X126552600Y-62185661D01*
X126512826Y-61985702D01*
X126452600Y-61840305D01*
X126452600Y-60743101D01*
X126518785Y-60688785D01*
X126598137Y-60592094D01*
X126657102Y-60481780D01*
X126693412Y-60362082D01*
X126705672Y-60237600D01*
X126705672Y-59337600D01*
X126693412Y-59213118D01*
X126657102Y-59093420D01*
X126598137Y-58983106D01*
X126518785Y-58886415D01*
X126422094Y-58807063D01*
X126311780Y-58748098D01*
X126192082Y-58711788D01*
X126067600Y-58699528D01*
X125555695Y-58699528D01*
X125568785Y-58688785D01*
X125648137Y-58592094D01*
X125707102Y-58481780D01*
X125743412Y-58362082D01*
X125755672Y-58237600D01*
X125752600Y-58073350D01*
X125593850Y-57914600D01*
X124844600Y-57914600D01*
X124844600Y-58713850D01*
X124929207Y-58798457D01*
X124913106Y-58807063D01*
X124816415Y-58886415D01*
X124737063Y-58983106D01*
X124717600Y-59019518D01*
X124698137Y-58983106D01*
X124618785Y-58886415D01*
X124522094Y-58807063D01*
X124505993Y-58798457D01*
X124590600Y-58713850D01*
X124590600Y-57914600D01*
X123841350Y-57914600D01*
X123682600Y-58073350D01*
X123679528Y-58237600D01*
X123691788Y-58362082D01*
X123728098Y-58481780D01*
X123787063Y-58592094D01*
X123866415Y-58688785D01*
X123879505Y-58699528D01*
X123367600Y-58699528D01*
X123243118Y-58711788D01*
X123123420Y-58748098D01*
X123013106Y-58807063D01*
X122916415Y-58886415D01*
X122837063Y-58983106D01*
X122778098Y-59093420D01*
X122741788Y-59213118D01*
X122729528Y-59337600D01*
X122729528Y-60237600D01*
X122741520Y-60359365D01*
X122341945Y-59959790D01*
X122317362Y-59929836D01*
X122197831Y-59831738D01*
X122061458Y-59758846D01*
X121913485Y-59713959D01*
X121798159Y-59702600D01*
X121798151Y-59702600D01*
X121759598Y-59698803D01*
X121721045Y-59702600D01*
X121390628Y-59702600D01*
X121407102Y-59671780D01*
X121432637Y-59587602D01*
X121435364Y-59585364D01*
X121459947Y-59555411D01*
X122145415Y-58869943D01*
X122175364Y-58845364D01*
X122206798Y-58807063D01*
X122255189Y-58748098D01*
X122273462Y-58725833D01*
X122346354Y-58589460D01*
X122391241Y-58441487D01*
X122402600Y-58326161D01*
X122402600Y-58326154D01*
X122406397Y-58287601D01*
X122402600Y-58249048D01*
X122402600Y-57494459D01*
X122559459Y-57337600D01*
X123679528Y-57337600D01*
X123682600Y-57501850D01*
X123841350Y-57660600D01*
X124590600Y-57660600D01*
X124590600Y-56861350D01*
X124844600Y-56861350D01*
X124844600Y-57660600D01*
X125593850Y-57660600D01*
X125752600Y-57501850D01*
X125755672Y-57337600D01*
X125743412Y-57213118D01*
X125707102Y-57093420D01*
X125648137Y-56983106D01*
X125568785Y-56886415D01*
X125472094Y-56807063D01*
X125361780Y-56748098D01*
X125242082Y-56711788D01*
X125117600Y-56699528D01*
X125003350Y-56702600D01*
X124844600Y-56861350D01*
X124590600Y-56861350D01*
X124431850Y-56702600D01*
X124317600Y-56699528D01*
X124193118Y-56711788D01*
X124073420Y-56748098D01*
X123963106Y-56807063D01*
X123866415Y-56886415D01*
X123787063Y-56983106D01*
X123728098Y-57093420D01*
X123691788Y-57213118D01*
X123679528Y-57337600D01*
X122559459Y-57337600D01*
X123745410Y-56151649D01*
X123764793Y-56135742D01*
X125918847Y-56114594D01*
X125944261Y-56111770D01*
X125967973Y-56104183D01*
X125989749Y-56092116D01*
X126008753Y-56076032D01*
X126024253Y-56056550D01*
X126035656Y-56034418D01*
X126042521Y-56010487D01*
X126044585Y-55985676D01*
X125994585Y-52685676D01*
X125991984Y-52661956D01*
X125984591Y-52638182D01*
X125972702Y-52616308D01*
X125956774Y-52597173D01*
X125937419Y-52581514D01*
X125915381Y-52569931D01*
X125891507Y-52562871D01*
X125866714Y-52560603D01*
X118490928Y-52612038D01*
X118507102Y-52581780D01*
X118543412Y-52462082D01*
X118555672Y-52337600D01*
X118555672Y-52109685D01*
X119145411Y-51519946D01*
X119175364Y-51495364D01*
X119273462Y-51375833D01*
X119346354Y-51239460D01*
X119370808Y-51158846D01*
X119391242Y-51091487D01*
X119401590Y-50986415D01*
X119402600Y-50976161D01*
X119402600Y-50976156D01*
X119406397Y-50937600D01*
X119402600Y-50899044D01*
X119402600Y-49266150D01*
X119406397Y-49227597D01*
X119402600Y-49189044D01*
X119402600Y-49189037D01*
X119391241Y-49073711D01*
X119346354Y-48925738D01*
X119273462Y-48789365D01*
X119202255Y-48702600D01*
X119199945Y-48699785D01*
X119199942Y-48699782D01*
X119198151Y-48697600D01*
X128252260Y-48697600D01*
X128108931Y-48756969D01*
G36*
X118122440Y-65352598D02*
G01*
X117398863Y-65352598D01*
X117271487Y-65313959D01*
X117156161Y-65302600D01*
X117156153Y-65302600D01*
X117117600Y-65298803D01*
X117079047Y-65302600D01*
X116458557Y-65302600D01*
X116448137Y-65283106D01*
X116368785Y-65186415D01*
X116272094Y-65107063D01*
X116161780Y-65048098D01*
X116042082Y-65011788D01*
X115917600Y-64999528D01*
X115689686Y-64999528D01*
X115499304Y-64809146D01*
X115544600Y-64763850D01*
X115544600Y-63964600D01*
X115790600Y-63964600D01*
X115790600Y-64763850D01*
X115949350Y-64922600D01*
X116054997Y-64910704D01*
X116173918Y-64871926D01*
X116282989Y-64810693D01*
X116378019Y-64729358D01*
X116455355Y-64631047D01*
X116512025Y-64519537D01*
X116545852Y-64399114D01*
X116555536Y-64274405D01*
X116552600Y-64123350D01*
X116393850Y-63964600D01*
X115790600Y-63964600D01*
X115544600Y-63964600D01*
X115520600Y-63964600D01*
X115520600Y-63710600D01*
X115544600Y-63710600D01*
X115544600Y-63690600D01*
X115790600Y-63690600D01*
X115790600Y-63710600D01*
X116393850Y-63710600D01*
X116437146Y-63667304D01*
X118122440Y-65352598D01*
X118122440Y-65352598D01*
G37*
X118122440Y-65352598D02*
X117398863Y-65352598D01*
X117271487Y-65313959D01*
X117156161Y-65302600D01*
X117156153Y-65302600D01*
X117117600Y-65298803D01*
X117079047Y-65302600D01*
X116458557Y-65302600D01*
X116448137Y-65283106D01*
X116368785Y-65186415D01*
X116272094Y-65107063D01*
X116161780Y-65048098D01*
X116042082Y-65011788D01*
X115917600Y-64999528D01*
X115689686Y-64999528D01*
X115499304Y-64809146D01*
X115544600Y-64763850D01*
X115544600Y-63964600D01*
X115790600Y-63964600D01*
X115790600Y-64763850D01*
X115949350Y-64922600D01*
X116054997Y-64910704D01*
X116173918Y-64871926D01*
X116282989Y-64810693D01*
X116378019Y-64729358D01*
X116455355Y-64631047D01*
X116512025Y-64519537D01*
X116545852Y-64399114D01*
X116555536Y-64274405D01*
X116552600Y-64123350D01*
X116393850Y-63964600D01*
X115790600Y-63964600D01*
X115544600Y-63964600D01*
X115520600Y-63964600D01*
X115520600Y-63710600D01*
X115544600Y-63710600D01*
X115544600Y-63690600D01*
X115790600Y-63690600D01*
X115790600Y-63710600D01*
X116393850Y-63710600D01*
X116437146Y-63667304D01*
X118122440Y-65352598D01*
G36*
X122982603Y-63669305D02*
G01*
X122982603Y-64115147D01*
X122919472Y-64102590D01*
X122778084Y-64102590D01*
X122757102Y-64033420D01*
X122698137Y-63923106D01*
X122618785Y-63826415D01*
X122522094Y-63747063D01*
X122411780Y-63688098D01*
X122292082Y-63651788D01*
X122167600Y-63639528D01*
X121788692Y-63639528D01*
X121848137Y-63567094D01*
X121907102Y-63456780D01*
X121943412Y-63337082D01*
X121955672Y-63212600D01*
X121952600Y-62873350D01*
X121793852Y-62714602D01*
X121952600Y-62714602D01*
X121952600Y-62639302D01*
X122982603Y-63669305D01*
X122982603Y-63669305D01*
G37*
X122982603Y-63669305D02*
X122982603Y-64115147D01*
X122919472Y-64102590D01*
X122778084Y-64102590D01*
X122757102Y-64033420D01*
X122698137Y-63923106D01*
X122618785Y-63826415D01*
X122522094Y-63747063D01*
X122411780Y-63688098D01*
X122292082Y-63651788D01*
X122167600Y-63639528D01*
X121788692Y-63639528D01*
X121848137Y-63567094D01*
X121907102Y-63456780D01*
X121943412Y-63337082D01*
X121955672Y-63212600D01*
X121952600Y-62873350D01*
X121793852Y-62714602D01*
X121952600Y-62714602D01*
X121952600Y-62639302D01*
X122982603Y-63669305D01*
G36*
X120944600Y-62460600D02*
G01*
X120964600Y-62460600D01*
X120964600Y-62714600D01*
X120944600Y-62714600D01*
X120944600Y-62734600D01*
X120690600Y-62734600D01*
X120690600Y-62714600D01*
X120670600Y-62714600D01*
X120670600Y-62460600D01*
X120690600Y-62460600D01*
X120690600Y-62440600D01*
X120944600Y-62440600D01*
X120944600Y-62460600D01*
X120944600Y-62460600D01*
G37*
X120944600Y-62460600D02*
X120964600Y-62460600D01*
X120964600Y-62714600D01*
X120944600Y-62714600D01*
X120944600Y-62734600D01*
X120690600Y-62734600D01*
X120690600Y-62714600D01*
X120670600Y-62714600D01*
X120670600Y-62460600D01*
X120690600Y-62460600D01*
X120690600Y-62440600D01*
X120944600Y-62440600D01*
X120944600Y-62460600D01*
G36*
X115282600Y-49501850D02*
G01*
X115441350Y-49660600D01*
X116044600Y-49660600D01*
X116044600Y-49640600D01*
X116290600Y-49640600D01*
X116290600Y-49660600D01*
X116314600Y-49660600D01*
X116314600Y-49914600D01*
X116290600Y-49914600D01*
X116290600Y-49934600D01*
X116044600Y-49934600D01*
X116044600Y-49914600D01*
X115441350Y-49914600D01*
X115352730Y-50003220D01*
X115258089Y-50012542D01*
X115243711Y-50013958D01*
X115154797Y-50040930D01*
X115095739Y-50058845D01*
X114959366Y-50131737D01*
X114912810Y-50169945D01*
X114869786Y-50205254D01*
X114869783Y-50205257D01*
X114839835Y-50229835D01*
X114815257Y-50259783D01*
X112989790Y-52085251D01*
X112959836Y-52109834D01*
X112861738Y-52229366D01*
X112788846Y-52365739D01*
X112743959Y-52513712D01*
X112732600Y-52629038D01*
X112732600Y-52629045D01*
X112730319Y-52652210D01*
X107941714Y-52685603D01*
X107912277Y-52689273D01*
X107888799Y-52697559D01*
X107867390Y-52710265D01*
X107848870Y-52726904D01*
X107833953Y-52746837D01*
X107823211Y-52769296D01*
X107817057Y-52793420D01*
X107815727Y-52818281D01*
X107850846Y-53602600D01*
X107556152Y-53602600D01*
X107517599Y-53598803D01*
X107479046Y-53602600D01*
X107479039Y-53602600D01*
X107378090Y-53612543D01*
X107363712Y-53613959D01*
X107311373Y-53629836D01*
X107215740Y-53658846D01*
X107079367Y-53731738D01*
X107019159Y-53781150D01*
X106989787Y-53805255D01*
X106989784Y-53805258D01*
X106959836Y-53829836D01*
X106935257Y-53859785D01*
X106745514Y-54049528D01*
X106165829Y-54049528D01*
X109842758Y-50372600D01*
X113679047Y-50372600D01*
X113717600Y-50376397D01*
X113756153Y-50372600D01*
X113756161Y-50372600D01*
X113871487Y-50361241D01*
X114019460Y-50316354D01*
X114155833Y-50243462D01*
X114275364Y-50145364D01*
X114299947Y-50115410D01*
X114942758Y-49472600D01*
X115282031Y-49472600D01*
X115282600Y-49501850D01*
X115282600Y-49501850D01*
G37*
X115282600Y-49501850D02*
X115441350Y-49660600D01*
X116044600Y-49660600D01*
X116044600Y-49640600D01*
X116290600Y-49640600D01*
X116290600Y-49660600D01*
X116314600Y-49660600D01*
X116314600Y-49914600D01*
X116290600Y-49914600D01*
X116290600Y-49934600D01*
X116044600Y-49934600D01*
X116044600Y-49914600D01*
X115441350Y-49914600D01*
X115352730Y-50003220D01*
X115258089Y-50012542D01*
X115243711Y-50013958D01*
X115154797Y-50040930D01*
X115095739Y-50058845D01*
X114959366Y-50131737D01*
X114912810Y-50169945D01*
X114869786Y-50205254D01*
X114869783Y-50205257D01*
X114839835Y-50229835D01*
X114815257Y-50259783D01*
X112989790Y-52085251D01*
X112959836Y-52109834D01*
X112861738Y-52229366D01*
X112788846Y-52365739D01*
X112743959Y-52513712D01*
X112732600Y-52629038D01*
X112732600Y-52629045D01*
X112730319Y-52652210D01*
X107941714Y-52685603D01*
X107912277Y-52689273D01*
X107888799Y-52697559D01*
X107867390Y-52710265D01*
X107848870Y-52726904D01*
X107833953Y-52746837D01*
X107823211Y-52769296D01*
X107817057Y-52793420D01*
X107815727Y-52818281D01*
X107850846Y-53602600D01*
X107556152Y-53602600D01*
X107517599Y-53598803D01*
X107479046Y-53602600D01*
X107479039Y-53602600D01*
X107378090Y-53612543D01*
X107363712Y-53613959D01*
X107311373Y-53629836D01*
X107215740Y-53658846D01*
X107079367Y-53731738D01*
X107019159Y-53781150D01*
X106989787Y-53805255D01*
X106989784Y-53805258D01*
X106959836Y-53829836D01*
X106935257Y-53859785D01*
X106745514Y-54049528D01*
X106165829Y-54049528D01*
X109842758Y-50372600D01*
X113679047Y-50372600D01*
X113717600Y-50376397D01*
X113756153Y-50372600D01*
X113756161Y-50372600D01*
X113871487Y-50361241D01*
X114019460Y-50316354D01*
X114155833Y-50243462D01*
X114275364Y-50145364D01*
X114299947Y-50115410D01*
X114942758Y-49472600D01*
X115282031Y-49472600D01*
X115282600Y-49501850D01*
M02*
