G04 #@! TF.GenerationSoftware,KiCad,Pcbnew,(5.1.0)-1*
G04 #@! TF.CreationDate,2019-12-19T19:06:34+00:00*
G04 #@! TF.ProjectId,v4,76342e6b-6963-4616-945f-706362585858,rev?*
G04 #@! TF.SameCoordinates,Original*
G04 #@! TF.FileFunction,Paste,Top*
G04 #@! TF.FilePolarity,Positive*
%FSLAX46Y46*%
G04 Gerber Fmt 4.6, Leading zero omitted, Abs format (unit mm)*
G04 Created by KiCad (PCBNEW (5.1.0)-1) date 2019-12-19 19:06:34*
%MOMM*%
%LPD*%
G04 APERTURE LIST*
%ADD10R,0.500000X0.900000*%
%ADD11R,0.800000X0.800000*%
%ADD12R,0.800000X0.750000*%
%ADD13R,1.500000X0.600000*%
%ADD14R,0.800000X1.300000*%
%ADD15R,0.800000X0.900000*%
%ADD16R,3.200000X1.000000*%
G04 APERTURE END LIST*
D10*
X110167600Y-96387600D03*
X108667600Y-96387600D03*
X119267600Y-69433750D03*
X120767600Y-69433750D03*
X113967600Y-72987595D03*
X115467600Y-72987595D03*
X104767600Y-74387600D03*
X106267600Y-74387600D03*
X128567600Y-57487600D03*
X130067600Y-57487600D03*
X115367600Y-57587600D03*
X113867600Y-57587600D03*
X119267600Y-58772215D03*
X120767600Y-58772215D03*
X113967600Y-67064520D03*
X115467600Y-67064520D03*
X113967600Y-70618365D03*
X115467600Y-70618365D03*
X124967600Y-59956830D03*
X126467600Y-59956830D03*
X119267600Y-64237600D03*
X120767600Y-64237600D03*
X119267600Y-62326060D03*
X120767600Y-62326060D03*
X122917600Y-87237600D03*
X124417600Y-87237600D03*
X124967600Y-63510675D03*
X126467600Y-63510675D03*
D11*
X130117600Y-55487600D03*
X128517600Y-55487600D03*
X105517600Y-54987600D03*
X103917600Y-54987600D03*
X109617600Y-93887600D03*
X108017600Y-93887600D03*
D12*
X115467600Y-64695290D03*
X113967600Y-64695290D03*
X126467600Y-71802980D03*
X124967600Y-71802980D03*
X123567600Y-75287600D03*
X122067600Y-75287600D03*
D13*
X120117600Y-77477600D03*
X120117600Y-78747600D03*
X120117600Y-80017600D03*
X120117600Y-81287600D03*
X120117600Y-82557600D03*
X120117600Y-83827600D03*
X120117600Y-85097600D03*
X125517600Y-85097600D03*
X125517600Y-83827600D03*
X125517600Y-82557600D03*
X125517600Y-81287600D03*
X125517600Y-80017600D03*
X125517600Y-78747600D03*
X125517600Y-77477600D03*
D14*
X116577600Y-55437600D03*
X117857600Y-55437600D03*
X117857600Y-49137600D03*
X116577600Y-49137600D03*
D15*
X124267600Y-69249135D03*
X126167600Y-69249135D03*
X125217600Y-67249135D03*
X113217600Y-61737600D03*
X115117600Y-61737600D03*
X114167600Y-59737600D03*
D16*
X109617600Y-71887600D03*
X109617600Y-65687600D03*
X109617600Y-76887600D03*
X109617600Y-83087600D03*
X105117600Y-71887600D03*
X105117600Y-65687600D03*
X105117600Y-76887600D03*
X105117600Y-83087600D03*
X105117600Y-63499200D03*
X105117600Y-57299200D03*
X105117600Y-85176000D03*
X105117600Y-91376000D03*
X109617600Y-57299200D03*
X109617600Y-63499200D03*
X109617600Y-91376000D03*
X109617600Y-85176000D03*
M02*
