G04 #@! TF.GenerationSoftware,KiCad,Pcbnew,(5.1.0)-1*
G04 #@! TF.CreationDate,2020-01-01T13:54:36+00:00*
G04 #@! TF.ProjectId,v4,76342e6b-6963-4616-945f-706362585858,rev?*
G04 #@! TF.SameCoordinates,Original*
G04 #@! TF.FileFunction,Soldermask,Top*
G04 #@! TF.FilePolarity,Negative*
%FSLAX46Y46*%
G04 Gerber Fmt 4.6, Leading zero omitted, Abs format (unit mm)*
G04 Created by KiCad (PCBNEW (5.1.0)-1) date 2020-01-01 13:54:36*
%MOMM*%
%LPD*%
G04 APERTURE LIST*
%ADD10R,1.600000X2.100000*%
%ADD11O,1.600000X2.100000*%
%ADD12R,2.200000X1.470000*%
%ADD13R,0.900000X1.300000*%
%ADD14R,1.300000X0.900000*%
%ADD15R,1.200000X1.200000*%
%ADD16R,1.200000X1.150000*%
%ADD17C,3.600000*%
%ADD18R,2.100000X2.100000*%
%ADD19O,2.100000X2.100000*%
%ADD20R,1.900000X1.000000*%
%ADD21R,1.200000X1.300000*%
%ADD22R,3.600000X1.400000*%
G04 APERTURE END LIST*
D10*
X123217600Y-54387600D03*
D11*
X121217600Y-54387600D03*
D12*
X113817600Y-57787600D03*
X113817600Y-60287600D03*
X123017600Y-60287600D03*
X123017600Y-57787600D03*
D13*
X110867600Y-95787600D03*
X109367600Y-95787600D03*
X126967600Y-77487600D03*
X125467600Y-77487600D03*
X108667600Y-73987600D03*
X110167600Y-73987600D03*
X105067600Y-74187600D03*
X106567600Y-74187600D03*
X129967600Y-56687600D03*
X128467600Y-56687600D03*
X116167600Y-53487600D03*
X117667600Y-53487600D03*
X116167600Y-50287600D03*
X117667600Y-50287600D03*
X114217600Y-70487600D03*
X115717600Y-70487600D03*
X114217600Y-73487600D03*
X115717600Y-73487600D03*
X116167600Y-55687600D03*
X117667600Y-55687600D03*
D14*
X118717600Y-70837600D03*
X118717600Y-72337600D03*
X118717600Y-75337600D03*
X118717600Y-73837600D03*
D13*
X123167600Y-75187600D03*
X124667600Y-75187600D03*
D14*
X118717600Y-67937600D03*
X118717600Y-69437600D03*
D15*
X130117600Y-55087600D03*
X128517600Y-55087600D03*
X106317600Y-54987600D03*
X104717600Y-54987600D03*
X111117600Y-94187600D03*
X109517600Y-94187600D03*
D16*
X115867600Y-67487600D03*
X114367600Y-67487600D03*
X127467600Y-63087600D03*
X125967600Y-63087600D03*
X122167600Y-63887600D03*
X120667600Y-63887600D03*
D17*
X129167600Y-50737600D03*
X104667600Y-50737600D03*
X104667600Y-95237600D03*
X129167600Y-95237600D03*
D18*
X129917600Y-78987600D03*
D19*
X129917600Y-81527600D03*
X129917600Y-84067600D03*
X129917600Y-86607600D03*
X129917600Y-89147600D03*
D18*
X113917600Y-90787600D03*
D19*
X116457600Y-90787600D03*
X113917600Y-93327600D03*
X116457600Y-93327600D03*
X113917600Y-95867600D03*
X116457600Y-95867600D03*
D10*
X121217600Y-91487600D03*
D11*
X123217600Y-91487600D03*
D20*
X121417600Y-65577600D03*
X121417600Y-66847600D03*
X121417600Y-68117600D03*
X121417600Y-69387600D03*
X121417600Y-70657600D03*
X121417600Y-71927600D03*
X121417600Y-73197600D03*
X126817600Y-73197600D03*
X126817600Y-71927600D03*
X126817600Y-70657600D03*
X126817600Y-69387600D03*
X126817600Y-68117600D03*
X126817600Y-66847600D03*
X126817600Y-65577600D03*
D10*
X112617600Y-54387600D03*
D11*
X110617600Y-54387600D03*
D21*
X125767600Y-61487600D03*
X127667600Y-61487600D03*
X126717600Y-59487600D03*
X114167600Y-65487600D03*
X116067600Y-65487600D03*
X115117600Y-63487600D03*
D22*
X109617600Y-72287600D03*
X109617600Y-66087600D03*
X109617600Y-76087600D03*
X109617600Y-82287600D03*
X105117600Y-72287600D03*
X105117600Y-66087600D03*
X105117600Y-76087600D03*
X105117600Y-82287600D03*
X105117600Y-64099200D03*
X105117600Y-57899200D03*
X105117600Y-84387600D03*
X105117600Y-90587600D03*
X109617600Y-57899200D03*
X109617600Y-64099200D03*
X109617600Y-90587600D03*
X109617600Y-84387600D03*
M02*
