G04 #@! TF.GenerationSoftware,KiCad,Pcbnew,(5.1.0)-1*
G04 #@! TF.CreationDate,2020-01-02T20:36:26+00:00*
G04 #@! TF.ProjectId,v4,76342e6b-6963-4616-945f-706362585858,rev?*
G04 #@! TF.SameCoordinates,Original*
G04 #@! TF.FileFunction,Paste,Top*
G04 #@! TF.FilePolarity,Positive*
%FSLAX46Y46*%
G04 Gerber Fmt 4.6, Leading zero omitted, Abs format (unit mm)*
G04 Created by KiCad (PCBNEW (5.1.0)-1) date 2020-01-02 20:36:26*
%MOMM*%
%LPD*%
G04 APERTURE LIST*
%ADD10R,1.200000X1.200000*%
%ADD11R,1.000000X1.250000*%
%ADD12R,1.300000X0.800000*%
%ADD13R,0.500000X0.900000*%
%ADD14R,0.900000X0.500000*%
%ADD15R,0.800000X0.750000*%
%ADD16R,1.500000X0.600000*%
%ADD17R,0.800000X0.900000*%
%ADD18R,3.200000X1.000000*%
G04 APERTURE END LIST*
D10*
X111217600Y-93987600D03*
X109017600Y-93987600D03*
D11*
X118817600Y-62587600D03*
X120817600Y-62587600D03*
D10*
X106617600Y-55287600D03*
X104417600Y-55287600D03*
D12*
X113867600Y-57747600D03*
X113867600Y-59027600D03*
X120167600Y-59027600D03*
X120167600Y-57747600D03*
D10*
X130417600Y-55087600D03*
X128217600Y-55087600D03*
D13*
X110867600Y-95787600D03*
X109367600Y-95787600D03*
X130967600Y-76287600D03*
X129467600Y-76287600D03*
X108667600Y-73987600D03*
X110167600Y-73987600D03*
X105067600Y-74187600D03*
X106567600Y-74187600D03*
X129367600Y-57187600D03*
X127867600Y-57187600D03*
X116167600Y-51887600D03*
X117667600Y-51887600D03*
X116167600Y-49787600D03*
X117667600Y-49787600D03*
X114217600Y-70487600D03*
X115717600Y-70487600D03*
X114217600Y-73487600D03*
X115717600Y-73487600D03*
X116167600Y-53987600D03*
X117667600Y-53987600D03*
D14*
X118717600Y-69837600D03*
X118717600Y-71337600D03*
X118717600Y-74337600D03*
X118717600Y-72837600D03*
D13*
X123167600Y-74187600D03*
X124667600Y-74187600D03*
D14*
X118717600Y-66937600D03*
X118717600Y-68437600D03*
D15*
X115867600Y-67487600D03*
X114367600Y-67487600D03*
X126867600Y-61787600D03*
X125367600Y-61787600D03*
D16*
X121417600Y-64577600D03*
X121417600Y-65847600D03*
X121417600Y-67117600D03*
X121417600Y-68387600D03*
X121417600Y-69657600D03*
X121417600Y-70927600D03*
X121417600Y-72197600D03*
X126817600Y-72197600D03*
X126817600Y-70927600D03*
X126817600Y-69657600D03*
X126817600Y-68387600D03*
X126817600Y-67117600D03*
X126817600Y-65847600D03*
X126817600Y-64577600D03*
D17*
X123267600Y-60087600D03*
X125167600Y-60087600D03*
X124217600Y-58087600D03*
X114167600Y-65487600D03*
X116067600Y-65487600D03*
X115117600Y-63487600D03*
D18*
X109617600Y-72287600D03*
X109617600Y-66087600D03*
X109617600Y-76087600D03*
X109617600Y-82287600D03*
X105117600Y-72287600D03*
X105117600Y-66087600D03*
X105117600Y-76087600D03*
X105117600Y-82287600D03*
X105117600Y-64099200D03*
X105117600Y-57899200D03*
X105117600Y-84387600D03*
X105117600Y-90587600D03*
X109617600Y-57899200D03*
X109617600Y-64099200D03*
X109617600Y-90587600D03*
X109617600Y-84387600D03*
M02*
