G04 #@! TF.GenerationSoftware,KiCad,Pcbnew,(5.1.0)-1*
G04 #@! TF.CreationDate,2019-12-22T10:38:16+00:00*
G04 #@! TF.ProjectId,v4,76342e6b-6963-4616-945f-706362585858,rev?*
G04 #@! TF.SameCoordinates,Original*
G04 #@! TF.FileFunction,Copper,L1,Top*
G04 #@! TF.FilePolarity,Positive*
%FSLAX46Y46*%
G04 Gerber Fmt 4.6, Leading zero omitted, Abs format (unit mm)*
G04 Created by KiCad (PCBNEW (5.1.0)-1) date 2019-12-22 10:38:16*
%MOMM*%
%LPD*%
G04 APERTURE LIST*
%ADD10R,0.500000X0.900000*%
%ADD11R,0.800000X0.800000*%
%ADD12R,0.800000X0.750000*%
%ADD13R,1.200000X1.700000*%
%ADD14O,1.200000X1.700000*%
%ADD15R,1.700000X1.700000*%
%ADD16O,1.700000X1.700000*%
%ADD17R,1.500000X0.600000*%
%ADD18R,0.800000X1.300000*%
%ADD19R,0.800000X0.900000*%
%ADD20R,3.200000X1.000000*%
%ADD21C,0.800000*%
%ADD22C,1.000000*%
%ADD23C,0.300000*%
%ADD24C,0.254000*%
G04 APERTURE END LIST*
D10*
X110167600Y-96387600D03*
X108667600Y-96387600D03*
X120767600Y-69787600D03*
X119267600Y-69787600D03*
X113967600Y-74487600D03*
X115467600Y-74487600D03*
X104767600Y-74387600D03*
X106267600Y-74387600D03*
X130067600Y-56787600D03*
X128567600Y-56787600D03*
X115367600Y-57587600D03*
X113867600Y-57587600D03*
X119267600Y-60587600D03*
X120767600Y-60587600D03*
X113967600Y-66787600D03*
X115467600Y-66787600D03*
X113967600Y-69787600D03*
X115467600Y-69787600D03*
X126467600Y-60587600D03*
X124967600Y-60587600D03*
X120767600Y-66787600D03*
X119267600Y-66787600D03*
X119267600Y-63787600D03*
X120767600Y-63787600D03*
X121967600Y-87287600D03*
X123467600Y-87287600D03*
X126467600Y-63787600D03*
X124967600Y-63787600D03*
D11*
X130117600Y-54787600D03*
X128517600Y-54787600D03*
X105517600Y-54987600D03*
X103917600Y-54987600D03*
X109617600Y-93887600D03*
X108017600Y-93887600D03*
D12*
X115467600Y-63787600D03*
X113967600Y-63787600D03*
X126467600Y-70887600D03*
X124967600Y-70887600D03*
X123567600Y-75287600D03*
X122067600Y-75287600D03*
D13*
X123717600Y-54387600D03*
D14*
X121717600Y-54387600D03*
D15*
X129917600Y-78987600D03*
D16*
X129917600Y-81527600D03*
X129917600Y-84067600D03*
X129917600Y-86607600D03*
X129917600Y-89147600D03*
D15*
X113917600Y-90787600D03*
D16*
X116457600Y-90787600D03*
X113917600Y-93327600D03*
X116457600Y-93327600D03*
X113917600Y-95867600D03*
X116457600Y-95867600D03*
D13*
X121517600Y-91587600D03*
D14*
X123517600Y-91587600D03*
D17*
X120117600Y-77477600D03*
X120117600Y-78747600D03*
X120117600Y-80017600D03*
X120117600Y-81287600D03*
X120117600Y-82557600D03*
X120117600Y-83827600D03*
X120117600Y-85097600D03*
X125517600Y-85097600D03*
X125517600Y-83827600D03*
X125517600Y-82557600D03*
X125517600Y-81287600D03*
X125517600Y-80017600D03*
X125517600Y-78747600D03*
X125517600Y-77477600D03*
D13*
X112117600Y-54387600D03*
D14*
X110117600Y-54387600D03*
D18*
X116577600Y-55437600D03*
X117857600Y-55437600D03*
X117857600Y-49137600D03*
X116577600Y-49137600D03*
D19*
X124267600Y-68787600D03*
X126167600Y-68787600D03*
X125217600Y-66787600D03*
X113167600Y-61787600D03*
X115067600Y-61787600D03*
X114117600Y-59787600D03*
D20*
X109617600Y-71887600D03*
X109617600Y-65687600D03*
X109617600Y-76887600D03*
X109617600Y-83087600D03*
X105117600Y-71887600D03*
X105117600Y-65687600D03*
X105117600Y-76887600D03*
X105117600Y-83087600D03*
X105117600Y-63499200D03*
X105117600Y-57299200D03*
X105117600Y-85176000D03*
X105117600Y-91376000D03*
X109617600Y-57299200D03*
X109617600Y-63499200D03*
X109617600Y-91376000D03*
X109617600Y-85176000D03*
D21*
X114117600Y-77487600D03*
X114017600Y-79287600D03*
X115417600Y-79387600D03*
X114817600Y-81087600D03*
X114817600Y-82687600D03*
X119067621Y-87887600D03*
X106167600Y-80487600D03*
X115867579Y-78084404D03*
X112517600Y-64087600D03*
X125089008Y-73422597D03*
X130517600Y-59687600D03*
X126617600Y-56787600D03*
X126658113Y-75087600D03*
X118616112Y-72328990D03*
X127567590Y-65582807D03*
X121417600Y-73987600D03*
X109788928Y-89137607D03*
X112817601Y-87937589D03*
X118467610Y-82037590D03*
X127567590Y-64287600D03*
X120890467Y-72295977D03*
X124067595Y-83787600D03*
X119308489Y-86095105D03*
X107717600Y-73887592D03*
X112017600Y-75087600D03*
X127717600Y-83887589D03*
X127717600Y-85587602D03*
X127878222Y-78591742D03*
X127717600Y-88187600D03*
X121317600Y-59137610D03*
X124075744Y-80424071D03*
X117917600Y-62987600D03*
X122617611Y-71873973D03*
X121617600Y-68487600D03*
X120735801Y-64904580D03*
X127517600Y-60587600D03*
X117217600Y-56887600D03*
X127134100Y-77781614D03*
X126811552Y-80193648D03*
X107117600Y-60587600D03*
X108517600Y-87487600D03*
X130617600Y-76487602D03*
X125417600Y-72287600D03*
X109417600Y-69487600D03*
X122917600Y-65487592D03*
X126846311Y-82937865D03*
X116617600Y-70087600D03*
X122983004Y-77212611D03*
X121379162Y-79873942D03*
X125917604Y-86887581D03*
X125934483Y-89665304D03*
X110417600Y-92987600D03*
D22*
X117487600Y-95867600D02*
X116457600Y-95867600D01*
X121517600Y-91837600D02*
X117487600Y-95867600D01*
X121517600Y-91587600D02*
X121517600Y-91837600D01*
D23*
X126467600Y-69087600D02*
X126167600Y-68787600D01*
X126467600Y-70887600D02*
X126467600Y-69087600D01*
X125517600Y-76612600D02*
X125517600Y-77477600D01*
X123567600Y-75287600D02*
X124192600Y-75287600D01*
X124192600Y-75287600D02*
X125517600Y-76612600D01*
X110717600Y-96387600D02*
X110167600Y-96387600D01*
X111497601Y-97167601D02*
X110717600Y-96387600D01*
X116359680Y-97167601D02*
X111497601Y-97167601D01*
X116457600Y-97069681D02*
X116359680Y-97167601D01*
X116457600Y-95867600D02*
X116457600Y-97069681D01*
D22*
X109617600Y-72376000D02*
X109617600Y-73176000D01*
X109617600Y-71887600D02*
X109617600Y-76887600D01*
X112217601Y-81787599D02*
X112217601Y-86353270D01*
X111267589Y-80837587D02*
X112217601Y-81787599D01*
X111267589Y-80037589D02*
X111267589Y-80837587D01*
X109617600Y-78387600D02*
X111267589Y-80037589D01*
X109617600Y-76887600D02*
X109617600Y-78387600D01*
D23*
X106117600Y-54387600D02*
X105517600Y-54987600D01*
X110117600Y-54387600D02*
X106117600Y-54387600D01*
X112217601Y-86353270D02*
X112208984Y-86353270D01*
X120117600Y-76877600D02*
X121707600Y-75287600D01*
X121707600Y-75287600D02*
X122067600Y-75287600D01*
X120117600Y-77477600D02*
X120117600Y-76877600D01*
X118174722Y-71887600D02*
X118216113Y-71928991D01*
X109617600Y-71887600D02*
X118174722Y-71887600D01*
X118216113Y-71928991D02*
X118616112Y-72328990D01*
X127512807Y-65582807D02*
X127567590Y-65582807D01*
X126467600Y-63787600D02*
X126467600Y-64537600D01*
X126467600Y-64537600D02*
X127512807Y-65582807D01*
X121442600Y-73987600D02*
X121417600Y-73987600D01*
X122067600Y-75287600D02*
X122067600Y-74612600D01*
X122067600Y-74612600D02*
X121442600Y-73987600D01*
D22*
X112208984Y-86717551D02*
X112208984Y-86353270D01*
X109788928Y-89137607D02*
X112208984Y-86717551D01*
D23*
X119667600Y-81287600D02*
X118917610Y-82037590D01*
X118917610Y-82037590D02*
X118467610Y-82037590D01*
X120117600Y-81287600D02*
X119667600Y-81287600D01*
X127567590Y-63471905D02*
X127567590Y-63721915D01*
X124967600Y-63587600D02*
X125667601Y-62887599D01*
X127567590Y-63721915D02*
X127567590Y-64287600D01*
X124967600Y-63787600D02*
X124967600Y-63587600D01*
X125667601Y-62887599D02*
X126983284Y-62887599D01*
X126983284Y-62887599D02*
X127567590Y-63471905D01*
X117717611Y-79337611D02*
X117717611Y-75468833D01*
X119667600Y-81287600D02*
X117717611Y-79337611D01*
X117717611Y-75468833D02*
X120490468Y-72695976D01*
X120490468Y-72695976D02*
X120890467Y-72295977D01*
X113917600Y-95867600D02*
X112347344Y-94297344D01*
X112017588Y-88737602D02*
X112417602Y-88337588D01*
X112017588Y-92246133D02*
X112017588Y-88737602D01*
X112417602Y-88337588D02*
X112817601Y-87937589D01*
X112347344Y-94297344D02*
X112347344Y-92575889D01*
X112347344Y-92575889D02*
X112017588Y-92246133D01*
X124107595Y-83827600D02*
X124067595Y-83787600D01*
X125517600Y-83827600D02*
X124107595Y-83827600D01*
X118908490Y-86495104D02*
X119308489Y-86095105D01*
X116715994Y-88687600D02*
X118908490Y-86495104D01*
X114267602Y-88095602D02*
X114859600Y-88687600D01*
X114859600Y-88687600D02*
X116715994Y-88687600D01*
X107317601Y-74287591D02*
X107717600Y-73887592D01*
X107217592Y-74387600D02*
X107317601Y-74287591D01*
X106267600Y-74387600D02*
X107217592Y-74387600D01*
X112217600Y-80444080D02*
X112217600Y-75987600D01*
X113167612Y-81394092D02*
X112217600Y-80444080D01*
X114267602Y-88095602D02*
X113167612Y-86995612D01*
X113167612Y-86995612D02*
X113167612Y-81394092D01*
X113967600Y-74637600D02*
X113967600Y-74487600D01*
X113717600Y-74887600D02*
X113967600Y-74637600D01*
X112217600Y-75987600D02*
X113317600Y-74887600D01*
X113317600Y-74887600D02*
X113717600Y-74887600D01*
X112017600Y-75653285D02*
X112017600Y-75087600D01*
X112017600Y-75787600D02*
X112017600Y-75653285D01*
X112217600Y-75987600D02*
X112017600Y-75787600D01*
X112617599Y-91997601D02*
X112617599Y-89745605D01*
X113917600Y-93327600D02*
X113067601Y-92477601D01*
X113067601Y-92477601D02*
X113067601Y-92447603D01*
X112617599Y-89745605D02*
X114267602Y-88095602D01*
X113067601Y-92447603D02*
X112617599Y-91997601D01*
X127717600Y-83887589D02*
X127717600Y-85587602D01*
X120117600Y-85697600D02*
X120167599Y-85747599D01*
X127117601Y-88787599D02*
X127317601Y-88587599D01*
X120167599Y-88297601D02*
X120907597Y-89037599D01*
X127317601Y-88587599D02*
X127717600Y-88187600D01*
X125565677Y-88787599D02*
X127117601Y-88787599D01*
X125315677Y-89037599D02*
X125565677Y-88787599D01*
X120167599Y-85747599D02*
X120167599Y-88297601D01*
X120117600Y-85097600D02*
X120117600Y-85697600D01*
X120907597Y-89037599D02*
X125315677Y-89037599D01*
X128517611Y-59687611D02*
X128517611Y-77952353D01*
X127517600Y-53908688D02*
X127517600Y-58687600D01*
X128278221Y-78191743D02*
X127878222Y-78591742D01*
X130117600Y-54787600D02*
X130117600Y-54087600D01*
X129678144Y-53648144D02*
X127778144Y-53648144D01*
X128517611Y-77952353D02*
X128278221Y-78191743D01*
X127517600Y-58687600D02*
X128517611Y-59687611D01*
X130117600Y-54087600D02*
X129678144Y-53648144D01*
X127778144Y-53648144D02*
X127517600Y-53908688D01*
X125067600Y-81287600D02*
X124204071Y-80424071D01*
X124204071Y-80424071D02*
X124075744Y-80424071D01*
X125517600Y-81287600D02*
X125067600Y-81287600D01*
X121317600Y-60037600D02*
X121317600Y-59137610D01*
X120767600Y-60587600D02*
X121317600Y-60037600D01*
X120767600Y-60587600D02*
X120767600Y-60787600D01*
X118483285Y-62987600D02*
X117917600Y-62987600D01*
X120767600Y-60787600D02*
X118567600Y-62987600D01*
X118567600Y-62987600D02*
X118483285Y-62987600D01*
X127639598Y-86607600D02*
X126109611Y-88137587D01*
X123067601Y-88387601D02*
X121367600Y-86687600D01*
X129917600Y-86607600D02*
X127639598Y-86607600D01*
X120567600Y-83827600D02*
X120117600Y-83827600D01*
X126109611Y-88137587D02*
X125367146Y-88137587D01*
X125367146Y-88137587D02*
X125117132Y-88387601D01*
X121367600Y-84627600D02*
X120567600Y-83827600D01*
X125117132Y-88387601D02*
X123067601Y-88387601D01*
X121367600Y-86687600D02*
X121367600Y-84627600D01*
X119267600Y-63787600D02*
X119267600Y-63587600D01*
X122009598Y-67621596D02*
X122617611Y-68229609D01*
X119267600Y-63587600D02*
X119967601Y-62887599D01*
X122617611Y-68229609D02*
X122617611Y-71308288D01*
X119967601Y-62887599D02*
X121377601Y-62887599D01*
X122009598Y-63519596D02*
X122009598Y-67621596D01*
X122617611Y-71308288D02*
X122617611Y-71873973D01*
X121377601Y-62887599D02*
X122009598Y-63519596D01*
X117987600Y-83157600D02*
X117117600Y-82287600D01*
X117117600Y-75029598D02*
X119967601Y-72179597D01*
X119967601Y-72179597D02*
X119967601Y-69171914D01*
X120117600Y-82557600D02*
X119667600Y-82557600D01*
X121051915Y-68487600D02*
X121617600Y-68487600D01*
X119067600Y-83157600D02*
X117987600Y-83157600D01*
X117117600Y-82287600D02*
X117117600Y-75029598D01*
X119967601Y-69171914D02*
X120651915Y-68487600D01*
X120651915Y-68487600D02*
X121051915Y-68487600D01*
X119667600Y-82557600D02*
X119067600Y-83157600D01*
X120767600Y-63787600D02*
X120767600Y-64872781D01*
X120767600Y-64936379D02*
X120735801Y-64904580D01*
X120767600Y-64872781D02*
X120735801Y-64904580D01*
X120767600Y-66787600D02*
X120767600Y-64936379D01*
X126467600Y-60587600D02*
X127517600Y-60587600D01*
X117077600Y-56887600D02*
X117217600Y-56887600D01*
X116577600Y-56387600D02*
X117077600Y-56887600D01*
X116577600Y-55437600D02*
X116577600Y-56387600D01*
X125517600Y-80017600D02*
X126635504Y-80017600D01*
X126635504Y-80017600D02*
X126811552Y-80193648D01*
X124967600Y-61337600D02*
X124967600Y-60587600D01*
X124132700Y-62172500D02*
X124967600Y-61337600D01*
X127134100Y-77781614D02*
X127917600Y-76998114D01*
X127917600Y-76998114D02*
X127917600Y-67190821D01*
X127917600Y-67190821D02*
X126114379Y-65387600D01*
X126114379Y-65387600D02*
X124617600Y-65387600D01*
X124132700Y-64902700D02*
X124132700Y-62172500D01*
X124617600Y-65387600D02*
X124132700Y-64902700D01*
D22*
X109617600Y-66176000D02*
X109617600Y-65687600D01*
X105117600Y-71887600D02*
X105117600Y-70676000D01*
X105117600Y-70676000D02*
X109617600Y-66176000D01*
X105706000Y-76887600D02*
X105117600Y-76887600D01*
X109617600Y-83087600D02*
X109617600Y-80799200D01*
X109617600Y-80799200D02*
X105706000Y-76887600D01*
X105117600Y-65687600D02*
X105117600Y-63499200D01*
X105117600Y-85176000D02*
X105117600Y-83087600D01*
X109568032Y-57249632D02*
X109617600Y-57299200D01*
X105117600Y-57299200D02*
X105167168Y-57249632D01*
X105167168Y-57249632D02*
X109568032Y-57249632D01*
X109617600Y-91376000D02*
X105117600Y-91376000D01*
X109617600Y-61999200D02*
X109617600Y-63499200D01*
X111829200Y-59787600D02*
X109617600Y-61999200D01*
X114117600Y-59787600D02*
X111829200Y-59787600D01*
D23*
X115367600Y-58537600D02*
X115367600Y-57587600D01*
X114117600Y-59787600D02*
X115367600Y-58537600D01*
D22*
X109617600Y-62287600D02*
X109617600Y-63499200D01*
X107117600Y-60587600D02*
X107117600Y-60587600D01*
X107117600Y-60587600D02*
X109617600Y-62287600D01*
X108806000Y-87487600D02*
X108517600Y-87487600D01*
X109617600Y-86676000D02*
X108806000Y-87487600D01*
X109617600Y-85176000D02*
X109617600Y-86676000D01*
D23*
X105017601Y-56087601D02*
X103917600Y-54987600D01*
X112717601Y-56087601D02*
X105017601Y-56087601D01*
X113867600Y-57587600D02*
X113867600Y-57237600D01*
X113867600Y-57237600D02*
X112717601Y-56087601D01*
X128517600Y-56737600D02*
X128517600Y-54787600D01*
X128567600Y-56787600D02*
X128517600Y-56737600D01*
X126567600Y-78747600D02*
X128497601Y-80677601D01*
X129067601Y-80677601D02*
X129917600Y-81527600D01*
X125517600Y-78747600D02*
X126567600Y-78747600D01*
X128497601Y-80677601D02*
X129067601Y-80677601D01*
X131367609Y-77237611D02*
X130617600Y-76487602D01*
X131367609Y-80077591D02*
X131367609Y-77237611D01*
X129917600Y-81527600D02*
X131367609Y-80077591D01*
X124267600Y-70187600D02*
X124967600Y-70887600D01*
X124267600Y-68787600D02*
X124267600Y-70187600D01*
X123217585Y-87037585D02*
X123217585Y-80086158D01*
X123467600Y-87287600D02*
X123217585Y-87037585D01*
X123217585Y-80086158D02*
X123417611Y-79886132D01*
X124467600Y-78747600D02*
X125517600Y-78747600D01*
X123417611Y-79886132D02*
X123417611Y-79336131D01*
X123417611Y-79336131D02*
X124006142Y-78747600D01*
X124006142Y-78747600D02*
X124467600Y-78747600D01*
X124967600Y-71837600D02*
X125017601Y-71887601D01*
X124967600Y-70887600D02*
X124967600Y-71837600D01*
X125017601Y-71887601D02*
X125417600Y-72287600D01*
X108851915Y-69487600D02*
X109417600Y-69487600D01*
X104767600Y-74387600D02*
X104767600Y-74187600D01*
X104767600Y-74187600D02*
X105575602Y-73379598D01*
X105575602Y-73379598D02*
X106867598Y-73379598D01*
X106867598Y-73379598D02*
X107417600Y-72829596D01*
X107417600Y-72829596D02*
X107417600Y-70921915D01*
X107417600Y-70921915D02*
X108851915Y-69487600D01*
X124267600Y-66837592D02*
X123317599Y-65887591D01*
X124267600Y-68787600D02*
X124267600Y-66837592D01*
X123317599Y-65887591D02*
X122917600Y-65487592D01*
X125517600Y-82557600D02*
X126567600Y-82557600D01*
X126846311Y-82836311D02*
X126846311Y-82937865D01*
X126567600Y-82557600D02*
X126846311Y-82836311D01*
X116317600Y-69787600D02*
X116617600Y-70087600D01*
X115467600Y-69787600D02*
X116317600Y-69787600D01*
X113167600Y-62987600D02*
X113167600Y-61787600D01*
X113967600Y-63787600D02*
X113167600Y-62987600D01*
X113967600Y-66037600D02*
X113967600Y-63787600D01*
X113967600Y-66787600D02*
X113967600Y-66037600D01*
X113967600Y-66787600D02*
X113967600Y-67537600D01*
X113967600Y-67537600D02*
X113967600Y-69787600D01*
X120117600Y-78747600D02*
X121448015Y-78747600D01*
X121448015Y-78747600D02*
X122983004Y-77212611D01*
X118317622Y-77397622D02*
X119667600Y-78747600D01*
X121767601Y-72879595D02*
X121509598Y-73137598D01*
X121767601Y-71537601D02*
X121767601Y-72879595D01*
X120767600Y-70537600D02*
X121767601Y-71537601D01*
X119667600Y-78747600D02*
X120117600Y-78747600D01*
X118317622Y-75829574D02*
X118317622Y-77397622D01*
X121009598Y-73137598D02*
X118317622Y-75829574D01*
X121509598Y-73137598D02*
X121009598Y-73137598D01*
X120767600Y-69787600D02*
X120767600Y-70537600D01*
X120117600Y-80017600D02*
X121235504Y-80017600D01*
X121235504Y-80017600D02*
X121379162Y-79873942D01*
X123717600Y-54187600D02*
X123717600Y-54387600D01*
X122217600Y-52687600D02*
X123717600Y-54187600D01*
X120817600Y-52687600D02*
X122217600Y-52687600D01*
X120810786Y-52694414D02*
X120817600Y-52687600D01*
X117857600Y-49137600D02*
X117857600Y-49741228D01*
X117857600Y-49741228D02*
X120810786Y-52694414D01*
X116577600Y-49747600D02*
X116577600Y-49137600D01*
X121717600Y-54387600D02*
X121217600Y-54387600D01*
X121217600Y-54387600D02*
X116577600Y-49747600D01*
X108417600Y-94287600D02*
X108017600Y-93887600D01*
X108667600Y-96387600D02*
X108417600Y-96137600D01*
X108417600Y-96137600D02*
X108417600Y-94287600D01*
X125517600Y-85097600D02*
X125517600Y-86487577D01*
X125517600Y-86487577D02*
X125517605Y-86487582D01*
X125517605Y-86487582D02*
X125917604Y-86887581D01*
X117259306Y-89665304D02*
X125368798Y-89665304D01*
X113917600Y-90787600D02*
X113917600Y-89637600D01*
X125368798Y-89665304D02*
X125934483Y-89665304D01*
X113917600Y-89637600D02*
X114067601Y-89487599D01*
X117081601Y-89487599D02*
X117259306Y-89665304D01*
X114067601Y-89487599D02*
X117081601Y-89487599D01*
X109617600Y-93187600D02*
X109817600Y-92987600D01*
X109617600Y-93887600D02*
X109617600Y-93187600D01*
X109817600Y-92987600D02*
X109851915Y-92987600D01*
X109851915Y-92987600D02*
X110417600Y-92987600D01*
D24*
G36*
X116754514Y-97277600D02*
G01*
X116584602Y-97277600D01*
X116584602Y-97188415D01*
X116754514Y-97277600D01*
X116754514Y-97277600D01*
G37*
X116754514Y-97277600D02*
X116584602Y-97277600D01*
X116584602Y-97188415D01*
X116754514Y-97277600D01*
G36*
X128597445Y-89020600D02*
G01*
X129790600Y-89020600D01*
X129790600Y-89000600D01*
X130044600Y-89000600D01*
X130044600Y-89020600D01*
X130064600Y-89020600D01*
X130064600Y-89274600D01*
X130044600Y-89274600D01*
X130044600Y-90468414D01*
X130274491Y-90589081D01*
X130548852Y-90491757D01*
X130798955Y-90342778D01*
X131015188Y-90147869D01*
X131189241Y-89914520D01*
X131207601Y-89875974D01*
X131207601Y-93421041D01*
X130905961Y-93119401D01*
X130459319Y-92820964D01*
X129963037Y-92615397D01*
X129436186Y-92510600D01*
X128899014Y-92510600D01*
X128372163Y-92615397D01*
X127875881Y-92820964D01*
X127429239Y-93119401D01*
X127049401Y-93499239D01*
X126750964Y-93945881D01*
X126545397Y-94442163D01*
X126440600Y-94969014D01*
X126440600Y-95506186D01*
X126545397Y-96033037D01*
X126750964Y-96529319D01*
X127049401Y-96975961D01*
X127351040Y-97277600D01*
X116903237Y-97277600D01*
X117088852Y-97211757D01*
X117338955Y-97062778D01*
X117555188Y-96867869D01*
X117729241Y-96634520D01*
X117854425Y-96371699D01*
X117899076Y-96224490D01*
X117777755Y-95994600D01*
X116584600Y-95994600D01*
X116584600Y-96014600D01*
X116330600Y-96014600D01*
X116330600Y-95994600D01*
X116310600Y-95994600D01*
X116310600Y-95740600D01*
X116330600Y-95740600D01*
X116330600Y-95720600D01*
X116584600Y-95720600D01*
X116584600Y-95740600D01*
X117777755Y-95740600D01*
X117899076Y-95510710D01*
X117854425Y-95363501D01*
X117729241Y-95100680D01*
X117555188Y-94867331D01*
X117338955Y-94672422D01*
X117222077Y-94602801D01*
X117286614Y-94568306D01*
X117512734Y-94382734D01*
X117698306Y-94156614D01*
X117836199Y-93898634D01*
X117921113Y-93618711D01*
X117949785Y-93327600D01*
X117921113Y-93036489D01*
X117836199Y-92756566D01*
X117698306Y-92498586D01*
X117648257Y-92437600D01*
X120279528Y-92437600D01*
X120291788Y-92562082D01*
X120328098Y-92681780D01*
X120387063Y-92792094D01*
X120466415Y-92888785D01*
X120563106Y-92968137D01*
X120673420Y-93027102D01*
X120793118Y-93063412D01*
X120917600Y-93075672D01*
X121231850Y-93072600D01*
X121390600Y-92913850D01*
X121390600Y-91714600D01*
X120441350Y-91714600D01*
X120282600Y-91873350D01*
X120279528Y-92437600D01*
X117648257Y-92437600D01*
X117512734Y-92272466D01*
X117286614Y-92086894D01*
X117231809Y-92057600D01*
X117286614Y-92028306D01*
X117512734Y-91842734D01*
X117698306Y-91616614D01*
X117836199Y-91358634D01*
X117921113Y-91078711D01*
X117949785Y-90787600D01*
X117921113Y-90496489D01*
X117907103Y-90450304D01*
X120351144Y-90450304D01*
X120328098Y-90493420D01*
X120291788Y-90613118D01*
X120279528Y-90737600D01*
X120282600Y-91301850D01*
X120441350Y-91460600D01*
X121390600Y-91460600D01*
X121390600Y-91440600D01*
X121644600Y-91440600D01*
X121644600Y-91460600D01*
X121664600Y-91460600D01*
X121664600Y-91714600D01*
X121644600Y-91714600D01*
X121644600Y-92913850D01*
X121803350Y-93072600D01*
X122117600Y-93075672D01*
X122242082Y-93063412D01*
X122361780Y-93027102D01*
X122472094Y-92968137D01*
X122568785Y-92888785D01*
X122648137Y-92792094D01*
X122674292Y-92743163D01*
X122828152Y-92869433D01*
X123042700Y-92984111D01*
X123275499Y-93054730D01*
X123517600Y-93078575D01*
X123759702Y-93054730D01*
X123992501Y-92984111D01*
X124207049Y-92869433D01*
X124395102Y-92715102D01*
X124549433Y-92527049D01*
X124664111Y-92312500D01*
X124734730Y-92079701D01*
X124752600Y-91898264D01*
X124752600Y-91276935D01*
X124734730Y-91095498D01*
X124664111Y-90862699D01*
X124549433Y-90648151D01*
X124395102Y-90460098D01*
X124383168Y-90450304D01*
X125255772Y-90450304D01*
X125274709Y-90469241D01*
X125444227Y-90582509D01*
X125632585Y-90660530D01*
X125832544Y-90700304D01*
X126036422Y-90700304D01*
X126236381Y-90660530D01*
X126424739Y-90582509D01*
X126594257Y-90469241D01*
X126738420Y-90325078D01*
X126851688Y-90155560D01*
X126929709Y-89967202D01*
X126969483Y-89767243D01*
X126969483Y-89572599D01*
X127079048Y-89572599D01*
X127117601Y-89576396D01*
X127156154Y-89572599D01*
X127156162Y-89572599D01*
X127271488Y-89561240D01*
X127419461Y-89516353D01*
X127441655Y-89504490D01*
X128476124Y-89504490D01*
X128520775Y-89651699D01*
X128645959Y-89914520D01*
X128820012Y-90147869D01*
X129036245Y-90342778D01*
X129286348Y-90491757D01*
X129560709Y-90589081D01*
X129790600Y-90468414D01*
X129790600Y-89274600D01*
X128597445Y-89274600D01*
X128476124Y-89504490D01*
X127441655Y-89504490D01*
X127555834Y-89443461D01*
X127675365Y-89345363D01*
X127699949Y-89315408D01*
X127792756Y-89222600D01*
X127819539Y-89222600D01*
X128019498Y-89182826D01*
X128207856Y-89104805D01*
X128377374Y-88991537D01*
X128511385Y-88857526D01*
X128597445Y-89020600D01*
X128597445Y-89020600D01*
G37*
X128597445Y-89020600D02*
X129790600Y-89020600D01*
X129790600Y-89000600D01*
X130044600Y-89000600D01*
X130044600Y-89020600D01*
X130064600Y-89020600D01*
X130064600Y-89274600D01*
X130044600Y-89274600D01*
X130044600Y-90468414D01*
X130274491Y-90589081D01*
X130548852Y-90491757D01*
X130798955Y-90342778D01*
X131015188Y-90147869D01*
X131189241Y-89914520D01*
X131207601Y-89875974D01*
X131207601Y-93421041D01*
X130905961Y-93119401D01*
X130459319Y-92820964D01*
X129963037Y-92615397D01*
X129436186Y-92510600D01*
X128899014Y-92510600D01*
X128372163Y-92615397D01*
X127875881Y-92820964D01*
X127429239Y-93119401D01*
X127049401Y-93499239D01*
X126750964Y-93945881D01*
X126545397Y-94442163D01*
X126440600Y-94969014D01*
X126440600Y-95506186D01*
X126545397Y-96033037D01*
X126750964Y-96529319D01*
X127049401Y-96975961D01*
X127351040Y-97277600D01*
X116903237Y-97277600D01*
X117088852Y-97211757D01*
X117338955Y-97062778D01*
X117555188Y-96867869D01*
X117729241Y-96634520D01*
X117854425Y-96371699D01*
X117899076Y-96224490D01*
X117777755Y-95994600D01*
X116584600Y-95994600D01*
X116584600Y-96014600D01*
X116330600Y-96014600D01*
X116330600Y-95994600D01*
X116310600Y-95994600D01*
X116310600Y-95740600D01*
X116330600Y-95740600D01*
X116330600Y-95720600D01*
X116584600Y-95720600D01*
X116584600Y-95740600D01*
X117777755Y-95740600D01*
X117899076Y-95510710D01*
X117854425Y-95363501D01*
X117729241Y-95100680D01*
X117555188Y-94867331D01*
X117338955Y-94672422D01*
X117222077Y-94602801D01*
X117286614Y-94568306D01*
X117512734Y-94382734D01*
X117698306Y-94156614D01*
X117836199Y-93898634D01*
X117921113Y-93618711D01*
X117949785Y-93327600D01*
X117921113Y-93036489D01*
X117836199Y-92756566D01*
X117698306Y-92498586D01*
X117648257Y-92437600D01*
X120279528Y-92437600D01*
X120291788Y-92562082D01*
X120328098Y-92681780D01*
X120387063Y-92792094D01*
X120466415Y-92888785D01*
X120563106Y-92968137D01*
X120673420Y-93027102D01*
X120793118Y-93063412D01*
X120917600Y-93075672D01*
X121231850Y-93072600D01*
X121390600Y-92913850D01*
X121390600Y-91714600D01*
X120441350Y-91714600D01*
X120282600Y-91873350D01*
X120279528Y-92437600D01*
X117648257Y-92437600D01*
X117512734Y-92272466D01*
X117286614Y-92086894D01*
X117231809Y-92057600D01*
X117286614Y-92028306D01*
X117512734Y-91842734D01*
X117698306Y-91616614D01*
X117836199Y-91358634D01*
X117921113Y-91078711D01*
X117949785Y-90787600D01*
X117921113Y-90496489D01*
X117907103Y-90450304D01*
X120351144Y-90450304D01*
X120328098Y-90493420D01*
X120291788Y-90613118D01*
X120279528Y-90737600D01*
X120282600Y-91301850D01*
X120441350Y-91460600D01*
X121390600Y-91460600D01*
X121390600Y-91440600D01*
X121644600Y-91440600D01*
X121644600Y-91460600D01*
X121664600Y-91460600D01*
X121664600Y-91714600D01*
X121644600Y-91714600D01*
X121644600Y-92913850D01*
X121803350Y-93072600D01*
X122117600Y-93075672D01*
X122242082Y-93063412D01*
X122361780Y-93027102D01*
X122472094Y-92968137D01*
X122568785Y-92888785D01*
X122648137Y-92792094D01*
X122674292Y-92743163D01*
X122828152Y-92869433D01*
X123042700Y-92984111D01*
X123275499Y-93054730D01*
X123517600Y-93078575D01*
X123759702Y-93054730D01*
X123992501Y-92984111D01*
X124207049Y-92869433D01*
X124395102Y-92715102D01*
X124549433Y-92527049D01*
X124664111Y-92312500D01*
X124734730Y-92079701D01*
X124752600Y-91898264D01*
X124752600Y-91276935D01*
X124734730Y-91095498D01*
X124664111Y-90862699D01*
X124549433Y-90648151D01*
X124395102Y-90460098D01*
X124383168Y-90450304D01*
X125255772Y-90450304D01*
X125274709Y-90469241D01*
X125444227Y-90582509D01*
X125632585Y-90660530D01*
X125832544Y-90700304D01*
X126036422Y-90700304D01*
X126236381Y-90660530D01*
X126424739Y-90582509D01*
X126594257Y-90469241D01*
X126738420Y-90325078D01*
X126851688Y-90155560D01*
X126929709Y-89967202D01*
X126969483Y-89767243D01*
X126969483Y-89572599D01*
X127079048Y-89572599D01*
X127117601Y-89576396D01*
X127156154Y-89572599D01*
X127156162Y-89572599D01*
X127271488Y-89561240D01*
X127419461Y-89516353D01*
X127441655Y-89504490D01*
X128476124Y-89504490D01*
X128520775Y-89651699D01*
X128645959Y-89914520D01*
X128820012Y-90147869D01*
X129036245Y-90342778D01*
X129286348Y-90491757D01*
X129560709Y-90589081D01*
X129790600Y-90468414D01*
X129790600Y-89274600D01*
X128597445Y-89274600D01*
X128476124Y-89504490D01*
X127441655Y-89504490D01*
X127555834Y-89443461D01*
X127675365Y-89345363D01*
X127699949Y-89315408D01*
X127792756Y-89222600D01*
X127819539Y-89222600D01*
X128019498Y-89182826D01*
X128207856Y-89104805D01*
X128377374Y-88991537D01*
X128511385Y-88857526D01*
X128597445Y-89020600D01*
G36*
X111459824Y-92803897D02*
G01*
X111489778Y-92828480D01*
X111562345Y-92901047D01*
X111562344Y-94258791D01*
X111558547Y-94297344D01*
X111562344Y-94335897D01*
X111562344Y-94335904D01*
X111573703Y-94451230D01*
X111618590Y-94599203D01*
X111691482Y-94735576D01*
X111789580Y-94855108D01*
X111819534Y-94879691D01*
X112468574Y-95528732D01*
X112454087Y-95576489D01*
X112425415Y-95867600D01*
X112454087Y-96158711D01*
X112539001Y-96438634D01*
X112676894Y-96696614D01*
X112862466Y-96922734D01*
X113088586Y-97108306D01*
X113346566Y-97246199D01*
X113450081Y-97277600D01*
X110879402Y-97277600D01*
X110955355Y-97181047D01*
X111012025Y-97069537D01*
X111045852Y-96949114D01*
X111055536Y-96824405D01*
X111052600Y-96673350D01*
X110893850Y-96514600D01*
X110290600Y-96514600D01*
X110290600Y-96534600D01*
X110044600Y-96534600D01*
X110044600Y-96514600D01*
X110020600Y-96514600D01*
X110020600Y-96260600D01*
X110044600Y-96260600D01*
X110044600Y-95461350D01*
X110290600Y-95461350D01*
X110290600Y-96260600D01*
X110893850Y-96260600D01*
X111052600Y-96101850D01*
X111055536Y-95950795D01*
X111045852Y-95826086D01*
X111012025Y-95705663D01*
X110955355Y-95594153D01*
X110878019Y-95495842D01*
X110782989Y-95414507D01*
X110673918Y-95353274D01*
X110554997Y-95314496D01*
X110449350Y-95302600D01*
X110290600Y-95461350D01*
X110044600Y-95461350D01*
X109885850Y-95302600D01*
X109780203Y-95314496D01*
X109661282Y-95353274D01*
X109552211Y-95414507D01*
X109457181Y-95495842D01*
X109417705Y-95546025D01*
X109368785Y-95486415D01*
X109272094Y-95407063D01*
X109202600Y-95369917D01*
X109202600Y-94924195D01*
X109217600Y-94925672D01*
X110017600Y-94925672D01*
X110142082Y-94913412D01*
X110261780Y-94877102D01*
X110372094Y-94818137D01*
X110468785Y-94738785D01*
X110548137Y-94642094D01*
X110607102Y-94531780D01*
X110643412Y-94412082D01*
X110655672Y-94287600D01*
X110655672Y-93995522D01*
X110719498Y-93982826D01*
X110907856Y-93904805D01*
X111077374Y-93791537D01*
X111221537Y-93647374D01*
X111334805Y-93477856D01*
X111412826Y-93289498D01*
X111452600Y-93089539D01*
X111452600Y-92885661D01*
X111428822Y-92766122D01*
X111459824Y-92803897D01*
X111459824Y-92803897D01*
G37*
X111459824Y-92803897D02*
X111489778Y-92828480D01*
X111562345Y-92901047D01*
X111562344Y-94258791D01*
X111558547Y-94297344D01*
X111562344Y-94335897D01*
X111562344Y-94335904D01*
X111573703Y-94451230D01*
X111618590Y-94599203D01*
X111691482Y-94735576D01*
X111789580Y-94855108D01*
X111819534Y-94879691D01*
X112468574Y-95528732D01*
X112454087Y-95576489D01*
X112425415Y-95867600D01*
X112454087Y-96158711D01*
X112539001Y-96438634D01*
X112676894Y-96696614D01*
X112862466Y-96922734D01*
X113088586Y-97108306D01*
X113346566Y-97246199D01*
X113450081Y-97277600D01*
X110879402Y-97277600D01*
X110955355Y-97181047D01*
X111012025Y-97069537D01*
X111045852Y-96949114D01*
X111055536Y-96824405D01*
X111052600Y-96673350D01*
X110893850Y-96514600D01*
X110290600Y-96514600D01*
X110290600Y-96534600D01*
X110044600Y-96534600D01*
X110044600Y-96514600D01*
X110020600Y-96514600D01*
X110020600Y-96260600D01*
X110044600Y-96260600D01*
X110044600Y-95461350D01*
X110290600Y-95461350D01*
X110290600Y-96260600D01*
X110893850Y-96260600D01*
X111052600Y-96101850D01*
X111055536Y-95950795D01*
X111045852Y-95826086D01*
X111012025Y-95705663D01*
X110955355Y-95594153D01*
X110878019Y-95495842D01*
X110782989Y-95414507D01*
X110673918Y-95353274D01*
X110554997Y-95314496D01*
X110449350Y-95302600D01*
X110290600Y-95461350D01*
X110044600Y-95461350D01*
X109885850Y-95302600D01*
X109780203Y-95314496D01*
X109661282Y-95353274D01*
X109552211Y-95414507D01*
X109457181Y-95495842D01*
X109417705Y-95546025D01*
X109368785Y-95486415D01*
X109272094Y-95407063D01*
X109202600Y-95369917D01*
X109202600Y-94924195D01*
X109217600Y-94925672D01*
X110017600Y-94925672D01*
X110142082Y-94913412D01*
X110261780Y-94877102D01*
X110372094Y-94818137D01*
X110468785Y-94738785D01*
X110548137Y-94642094D01*
X110607102Y-94531780D01*
X110643412Y-94412082D01*
X110655672Y-94287600D01*
X110655672Y-93995522D01*
X110719498Y-93982826D01*
X110907856Y-93904805D01*
X111077374Y-93791537D01*
X111221537Y-93647374D01*
X111334805Y-93477856D01*
X111412826Y-93289498D01*
X111452600Y-93089539D01*
X111452600Y-92885661D01*
X111428822Y-92766122D01*
X111459824Y-92803897D01*
G36*
X116330598Y-97277600D02*
G01*
X116160686Y-97277600D01*
X116330598Y-97188415D01*
X116330598Y-97277600D01*
X116330598Y-97277600D01*
G37*
X116330598Y-97277600D02*
X116160686Y-97277600D01*
X116330598Y-97188415D01*
X116330598Y-97277600D01*
G36*
X115390600Y-53587600D02*
G01*
X115393040Y-53612376D01*
X115400267Y-53636201D01*
X115412003Y-53658157D01*
X115427797Y-53677403D01*
X115447043Y-53693197D01*
X115468999Y-53704933D01*
X115492824Y-53712160D01*
X115517600Y-53714600D01*
X118790600Y-53714600D01*
X118790600Y-54437714D01*
X118788137Y-54433106D01*
X118708785Y-54336415D01*
X118612094Y-54257063D01*
X118501780Y-54198098D01*
X118382082Y-54161788D01*
X118257600Y-54149528D01*
X118143350Y-54152600D01*
X117984600Y-54311350D01*
X117984600Y-55310600D01*
X118004600Y-55310600D01*
X118004600Y-55564600D01*
X117984600Y-55564600D01*
X117984600Y-55584600D01*
X117730600Y-55584600D01*
X117730600Y-55564600D01*
X117710600Y-55564600D01*
X117710600Y-55310600D01*
X117730600Y-55310600D01*
X117730600Y-54311350D01*
X117571850Y-54152600D01*
X117457600Y-54149528D01*
X117333118Y-54161788D01*
X117217600Y-54196830D01*
X117102082Y-54161788D01*
X116977600Y-54149528D01*
X116177600Y-54149528D01*
X116053118Y-54161788D01*
X115933420Y-54198098D01*
X115823106Y-54257063D01*
X115726415Y-54336415D01*
X115647063Y-54433106D01*
X115588098Y-54543420D01*
X115551788Y-54663118D01*
X115539528Y-54787600D01*
X115539528Y-56087600D01*
X115551788Y-56212082D01*
X115588098Y-56331780D01*
X115647063Y-56442094D01*
X115700933Y-56507735D01*
X115617600Y-56499528D01*
X115117600Y-56499528D01*
X114993118Y-56511788D01*
X114873420Y-56548098D01*
X114763106Y-56607063D01*
X114666415Y-56686415D01*
X114617600Y-56745896D01*
X114568785Y-56686415D01*
X114472094Y-56607063D01*
X114361780Y-56548098D01*
X114256241Y-56516083D01*
X113299948Y-55559791D01*
X113279029Y-55534301D01*
X113307102Y-55481780D01*
X113343412Y-55362082D01*
X113355672Y-55237600D01*
X113355672Y-53537600D01*
X113343412Y-53413118D01*
X113307102Y-53293420D01*
X113248137Y-53183106D01*
X113168785Y-53086415D01*
X113072094Y-53007063D01*
X112961780Y-52948098D01*
X112842082Y-52911788D01*
X112717600Y-52899528D01*
X111517600Y-52899528D01*
X111393118Y-52911788D01*
X111273420Y-52948098D01*
X111163106Y-53007063D01*
X111066415Y-53086415D01*
X110987063Y-53183106D01*
X110960909Y-53232036D01*
X110807049Y-53105767D01*
X110592501Y-52991089D01*
X110359702Y-52920470D01*
X110117600Y-52896625D01*
X109875499Y-52920470D01*
X109642700Y-52991089D01*
X109428152Y-53105767D01*
X109240099Y-53260098D01*
X109085768Y-53448151D01*
X109003213Y-53602600D01*
X106156152Y-53602600D01*
X106117599Y-53598803D01*
X106079046Y-53602600D01*
X106079039Y-53602600D01*
X105979785Y-53612376D01*
X105963712Y-53613959D01*
X105851020Y-53648144D01*
X105815740Y-53658846D01*
X105679367Y-53731738D01*
X105651264Y-53754802D01*
X105589787Y-53805255D01*
X105589784Y-53805258D01*
X105559836Y-53829836D01*
X105535257Y-53859785D01*
X105445514Y-53949528D01*
X105117600Y-53949528D01*
X104993118Y-53961788D01*
X104873420Y-53998098D01*
X104763106Y-54057063D01*
X104717600Y-54094409D01*
X104672094Y-54057063D01*
X104561780Y-53998098D01*
X104442082Y-53961788D01*
X104317600Y-53949528D01*
X103517600Y-53949528D01*
X103393118Y-53961788D01*
X103273420Y-53998098D01*
X103163106Y-54057063D01*
X103066415Y-54136415D01*
X102987063Y-54233106D01*
X102928098Y-54343420D01*
X102891788Y-54463118D01*
X102879528Y-54587600D01*
X102879528Y-55387600D01*
X102891788Y-55512082D01*
X102928098Y-55631780D01*
X102987063Y-55742094D01*
X103066415Y-55838785D01*
X103163106Y-55918137D01*
X103273420Y-55977102D01*
X103393118Y-56013412D01*
X103517600Y-56025672D01*
X103845515Y-56025672D01*
X103980970Y-56161128D01*
X103517600Y-56161128D01*
X103393118Y-56173388D01*
X103273420Y-56209698D01*
X103163106Y-56268663D01*
X103066415Y-56348015D01*
X102987063Y-56444706D01*
X102928098Y-56555020D01*
X102891788Y-56674718D01*
X102879528Y-56799200D01*
X102879528Y-57799200D01*
X102891788Y-57923682D01*
X102928098Y-58043380D01*
X102987063Y-58153694D01*
X103066415Y-58250385D01*
X103163106Y-58329737D01*
X103273420Y-58388702D01*
X103393118Y-58425012D01*
X103517600Y-58437272D01*
X105093039Y-58437272D01*
X105117600Y-58439691D01*
X105142161Y-58437272D01*
X106717600Y-58437272D01*
X106842082Y-58425012D01*
X106961780Y-58388702D01*
X106969394Y-58384632D01*
X107765806Y-58384632D01*
X107773420Y-58388702D01*
X107893118Y-58425012D01*
X108017600Y-58437272D01*
X109593039Y-58437272D01*
X109617600Y-58439691D01*
X109642161Y-58437272D01*
X111217600Y-58437272D01*
X111342082Y-58425012D01*
X111461780Y-58388702D01*
X111572094Y-58329737D01*
X111668785Y-58250385D01*
X111748137Y-58153694D01*
X111807102Y-58043380D01*
X111843412Y-57923682D01*
X111855672Y-57799200D01*
X111855672Y-56872601D01*
X112392444Y-56872601D01*
X112979528Y-57459686D01*
X112979528Y-58037600D01*
X112991788Y-58162082D01*
X113028098Y-58281780D01*
X113087063Y-58392094D01*
X113166415Y-58488785D01*
X113263106Y-58568137D01*
X113373420Y-58627102D01*
X113457476Y-58652600D01*
X111884952Y-58652600D01*
X111829200Y-58647109D01*
X111606701Y-58669023D01*
X111392753Y-58733924D01*
X111195577Y-58839316D01*
X111066056Y-58945611D01*
X111066054Y-58945613D01*
X111022751Y-58981151D01*
X110987213Y-59024454D01*
X109307493Y-60704175D01*
X107798107Y-59677793D01*
X107751223Y-59639316D01*
X107656650Y-59588766D01*
X107562596Y-59537506D01*
X107558153Y-59536119D01*
X107554047Y-59533924D01*
X107451428Y-59502795D01*
X107349182Y-59470869D01*
X107344558Y-59470376D01*
X107340099Y-59469023D01*
X107233367Y-59458511D01*
X107126869Y-59447147D01*
X107066476Y-59452600D01*
X107061848Y-59452600D01*
X107010887Y-59457619D01*
X106904201Y-59467252D01*
X106899738Y-59468566D01*
X106895101Y-59469023D01*
X106792513Y-59500143D01*
X106689732Y-59530411D01*
X106685607Y-59532573D01*
X106681153Y-59533924D01*
X106586596Y-59584465D01*
X106491706Y-59634198D01*
X106488087Y-59637119D01*
X106483977Y-59639316D01*
X106401066Y-59707360D01*
X106317733Y-59774623D01*
X106314752Y-59778196D01*
X106311151Y-59781151D01*
X106243104Y-59864067D01*
X106174498Y-59946291D01*
X106172272Y-59950375D01*
X106169316Y-59953977D01*
X106118763Y-60048556D01*
X106067506Y-60142604D01*
X106066119Y-60147047D01*
X106063924Y-60151153D01*
X106032795Y-60253772D01*
X106000869Y-60356018D01*
X106000376Y-60360642D01*
X105999023Y-60365101D01*
X105988511Y-60471831D01*
X105977147Y-60578331D01*
X105977565Y-60582965D01*
X105977109Y-60587600D01*
X105987619Y-60694310D01*
X105997252Y-60800999D01*
X105998566Y-60805462D01*
X105999023Y-60810099D01*
X106030143Y-60912687D01*
X106060411Y-61015468D01*
X106062573Y-61019593D01*
X106063924Y-61024047D01*
X106114465Y-61118604D01*
X106164198Y-61213494D01*
X106167119Y-61217113D01*
X106169316Y-61221223D01*
X106237360Y-61304134D01*
X106304623Y-61387467D01*
X106308196Y-61390448D01*
X106311151Y-61394049D01*
X106394091Y-61462116D01*
X106433276Y-61494811D01*
X106437088Y-61497403D01*
X106483977Y-61535884D01*
X106529314Y-61560117D01*
X107777069Y-62408591D01*
X107773420Y-62409698D01*
X107663106Y-62468663D01*
X107566415Y-62548015D01*
X107487063Y-62644706D01*
X107428098Y-62755020D01*
X107391788Y-62874718D01*
X107379528Y-62999200D01*
X107379528Y-63999200D01*
X107391788Y-64123682D01*
X107428098Y-64243380D01*
X107487063Y-64353694D01*
X107566415Y-64450385D01*
X107663106Y-64529737D01*
X107773420Y-64588702D01*
X107788907Y-64593400D01*
X107773420Y-64598098D01*
X107663106Y-64657063D01*
X107566415Y-64736415D01*
X107487063Y-64833106D01*
X107428098Y-64943420D01*
X107391788Y-65063118D01*
X107379528Y-65187600D01*
X107379528Y-66187600D01*
X107391788Y-66312082D01*
X107428098Y-66431780D01*
X107487063Y-66542094D01*
X107558873Y-66629595D01*
X104354460Y-69834009D01*
X104311152Y-69869551D01*
X104169317Y-70042377D01*
X104063924Y-70239553D01*
X103999023Y-70453501D01*
X103995481Y-70489460D01*
X103977109Y-70676000D01*
X103982600Y-70731751D01*
X103982600Y-70749528D01*
X103517600Y-70749528D01*
X103393118Y-70761788D01*
X103273420Y-70798098D01*
X103163106Y-70857063D01*
X103066415Y-70936415D01*
X102987063Y-71033106D01*
X102928098Y-71143420D01*
X102891788Y-71263118D01*
X102879528Y-71387600D01*
X102879528Y-72387600D01*
X102891788Y-72512082D01*
X102928098Y-72631780D01*
X102987063Y-72742094D01*
X103066415Y-72838785D01*
X103163106Y-72918137D01*
X103273420Y-72977102D01*
X103393118Y-73013412D01*
X103517600Y-73025672D01*
X104819370Y-73025672D01*
X104545515Y-73299528D01*
X104517600Y-73299528D01*
X104393118Y-73311788D01*
X104273420Y-73348098D01*
X104163106Y-73407063D01*
X104066415Y-73486415D01*
X103987063Y-73583106D01*
X103928098Y-73693420D01*
X103891788Y-73813118D01*
X103879528Y-73937600D01*
X103879528Y-74837600D01*
X103891788Y-74962082D01*
X103928098Y-75081780D01*
X103987063Y-75192094D01*
X104066415Y-75288785D01*
X104163106Y-75368137D01*
X104273420Y-75427102D01*
X104393118Y-75463412D01*
X104517600Y-75475672D01*
X105017600Y-75475672D01*
X105142082Y-75463412D01*
X105261780Y-75427102D01*
X105372094Y-75368137D01*
X105468785Y-75288785D01*
X105517600Y-75229304D01*
X105566415Y-75288785D01*
X105663106Y-75368137D01*
X105773420Y-75427102D01*
X105893118Y-75463412D01*
X106017600Y-75475672D01*
X106517600Y-75475672D01*
X106642082Y-75463412D01*
X106761780Y-75427102D01*
X106872094Y-75368137D01*
X106968785Y-75288785D01*
X107048137Y-75192094D01*
X107058557Y-75172600D01*
X107179039Y-75172600D01*
X107217592Y-75176397D01*
X107256145Y-75172600D01*
X107256153Y-75172600D01*
X107371479Y-75161241D01*
X107519452Y-75116354D01*
X107655825Y-75043462D01*
X107775356Y-74945364D01*
X107794045Y-74922592D01*
X107819539Y-74922592D01*
X108019498Y-74882818D01*
X108207856Y-74804797D01*
X108377374Y-74691529D01*
X108482601Y-74586302D01*
X108482601Y-75749528D01*
X108017600Y-75749528D01*
X107893118Y-75761788D01*
X107773420Y-75798098D01*
X107663106Y-75857063D01*
X107566415Y-75936415D01*
X107487063Y-76033106D01*
X107428098Y-76143420D01*
X107391788Y-76263118D01*
X107379528Y-76387600D01*
X107379528Y-76955997D01*
X107355672Y-76932141D01*
X107355672Y-76387600D01*
X107343412Y-76263118D01*
X107307102Y-76143420D01*
X107248137Y-76033106D01*
X107168785Y-75936415D01*
X107072094Y-75857063D01*
X106961780Y-75798098D01*
X106842082Y-75761788D01*
X106717600Y-75749528D01*
X105730561Y-75749528D01*
X105706000Y-75747109D01*
X105681439Y-75749528D01*
X103517600Y-75749528D01*
X103393118Y-75761788D01*
X103273420Y-75798098D01*
X103163106Y-75857063D01*
X103066415Y-75936415D01*
X102987063Y-76033106D01*
X102928098Y-76143420D01*
X102891788Y-76263118D01*
X102879528Y-76387600D01*
X102879528Y-77387600D01*
X102891788Y-77512082D01*
X102928098Y-77631780D01*
X102987063Y-77742094D01*
X103066415Y-77838785D01*
X103163106Y-77918137D01*
X103273420Y-77977102D01*
X103393118Y-78013412D01*
X103517600Y-78025672D01*
X105238941Y-78025672D01*
X108482601Y-81269333D01*
X108482600Y-81949528D01*
X108017600Y-81949528D01*
X107893118Y-81961788D01*
X107773420Y-81998098D01*
X107663106Y-82057063D01*
X107566415Y-82136415D01*
X107487063Y-82233106D01*
X107428098Y-82343420D01*
X107391788Y-82463118D01*
X107379528Y-82587600D01*
X107379528Y-83587600D01*
X107391788Y-83712082D01*
X107428098Y-83831780D01*
X107487063Y-83942094D01*
X107566415Y-84038785D01*
X107663106Y-84118137D01*
X107688667Y-84131800D01*
X107663106Y-84145463D01*
X107566415Y-84224815D01*
X107487063Y-84321506D01*
X107428098Y-84431820D01*
X107391788Y-84551518D01*
X107379528Y-84676000D01*
X107379528Y-85676000D01*
X107391788Y-85800482D01*
X107428098Y-85920180D01*
X107487063Y-86030494D01*
X107566415Y-86127185D01*
X107663106Y-86206537D01*
X107773420Y-86265502D01*
X107893118Y-86301812D01*
X108017600Y-86314072D01*
X108374396Y-86314072D01*
X108322105Y-86366363D01*
X108295101Y-86369023D01*
X108081153Y-86433924D01*
X107883977Y-86539316D01*
X107711151Y-86681151D01*
X107569316Y-86853977D01*
X107463924Y-87051153D01*
X107399023Y-87265101D01*
X107377109Y-87487600D01*
X107399023Y-87710099D01*
X107463924Y-87924047D01*
X107569316Y-88121223D01*
X107711151Y-88294049D01*
X107883977Y-88435884D01*
X108081153Y-88541276D01*
X108295101Y-88606177D01*
X108461848Y-88622600D01*
X108750249Y-88622600D01*
X108775894Y-88625126D01*
X108735252Y-88701161D01*
X108670351Y-88915109D01*
X108648437Y-89137607D01*
X108670351Y-89360105D01*
X108735252Y-89574053D01*
X108840645Y-89771229D01*
X108982480Y-89944055D01*
X109155306Y-90085890D01*
X109352482Y-90191283D01*
X109506249Y-90237928D01*
X108017600Y-90237928D01*
X107986408Y-90241000D01*
X106748792Y-90241000D01*
X106717600Y-90237928D01*
X103517600Y-90237928D01*
X103393118Y-90250188D01*
X103273420Y-90286498D01*
X103163106Y-90345463D01*
X103066415Y-90424815D01*
X102987063Y-90521506D01*
X102928098Y-90631820D01*
X102891788Y-90751518D01*
X102879528Y-90876000D01*
X102879528Y-91876000D01*
X102891788Y-92000482D01*
X102928098Y-92120180D01*
X102987063Y-92230494D01*
X103066415Y-92327185D01*
X103163106Y-92406537D01*
X103273420Y-92465502D01*
X103393118Y-92501812D01*
X103517600Y-92514072D01*
X104381559Y-92514072D01*
X103872163Y-92615397D01*
X103375881Y-92820964D01*
X102929239Y-93119401D01*
X102627600Y-93421040D01*
X102627600Y-82587600D01*
X102879528Y-82587600D01*
X102879528Y-83587600D01*
X102891788Y-83712082D01*
X102928098Y-83831780D01*
X102987063Y-83942094D01*
X103066415Y-84038785D01*
X103163106Y-84118137D01*
X103188667Y-84131800D01*
X103163106Y-84145463D01*
X103066415Y-84224815D01*
X102987063Y-84321506D01*
X102928098Y-84431820D01*
X102891788Y-84551518D01*
X102879528Y-84676000D01*
X102879528Y-85676000D01*
X102891788Y-85800482D01*
X102928098Y-85920180D01*
X102987063Y-86030494D01*
X103066415Y-86127185D01*
X103163106Y-86206537D01*
X103273420Y-86265502D01*
X103393118Y-86301812D01*
X103517600Y-86314072D01*
X105093039Y-86314072D01*
X105117600Y-86316491D01*
X105142161Y-86314072D01*
X106717600Y-86314072D01*
X106842082Y-86301812D01*
X106961780Y-86265502D01*
X107072094Y-86206537D01*
X107168785Y-86127185D01*
X107248137Y-86030494D01*
X107307102Y-85920180D01*
X107343412Y-85800482D01*
X107355672Y-85676000D01*
X107355672Y-84676000D01*
X107343412Y-84551518D01*
X107307102Y-84431820D01*
X107248137Y-84321506D01*
X107168785Y-84224815D01*
X107072094Y-84145463D01*
X107046533Y-84131800D01*
X107072094Y-84118137D01*
X107168785Y-84038785D01*
X107248137Y-83942094D01*
X107307102Y-83831780D01*
X107343412Y-83712082D01*
X107355672Y-83587600D01*
X107355672Y-82587600D01*
X107343412Y-82463118D01*
X107307102Y-82343420D01*
X107248137Y-82233106D01*
X107168785Y-82136415D01*
X107072094Y-82057063D01*
X106961780Y-81998098D01*
X106842082Y-81961788D01*
X106717600Y-81949528D01*
X105142161Y-81949528D01*
X105117600Y-81947109D01*
X105093039Y-81949528D01*
X103517600Y-81949528D01*
X103393118Y-81961788D01*
X103273420Y-81998098D01*
X103163106Y-82057063D01*
X103066415Y-82136415D01*
X102987063Y-82233106D01*
X102928098Y-82343420D01*
X102891788Y-82463118D01*
X102879528Y-82587600D01*
X102627600Y-82587600D01*
X102627600Y-62999200D01*
X102879528Y-62999200D01*
X102879528Y-63999200D01*
X102891788Y-64123682D01*
X102928098Y-64243380D01*
X102987063Y-64353694D01*
X103066415Y-64450385D01*
X103163106Y-64529737D01*
X103273420Y-64588702D01*
X103288907Y-64593400D01*
X103273420Y-64598098D01*
X103163106Y-64657063D01*
X103066415Y-64736415D01*
X102987063Y-64833106D01*
X102928098Y-64943420D01*
X102891788Y-65063118D01*
X102879528Y-65187600D01*
X102879528Y-66187600D01*
X102891788Y-66312082D01*
X102928098Y-66431780D01*
X102987063Y-66542094D01*
X103066415Y-66638785D01*
X103163106Y-66718137D01*
X103273420Y-66777102D01*
X103393118Y-66813412D01*
X103517600Y-66825672D01*
X105093039Y-66825672D01*
X105117600Y-66828091D01*
X105142161Y-66825672D01*
X106717600Y-66825672D01*
X106842082Y-66813412D01*
X106961780Y-66777102D01*
X107072094Y-66718137D01*
X107168785Y-66638785D01*
X107248137Y-66542094D01*
X107307102Y-66431780D01*
X107343412Y-66312082D01*
X107355672Y-66187600D01*
X107355672Y-65187600D01*
X107343412Y-65063118D01*
X107307102Y-64943420D01*
X107248137Y-64833106D01*
X107168785Y-64736415D01*
X107072094Y-64657063D01*
X106961780Y-64598098D01*
X106946293Y-64593400D01*
X106961780Y-64588702D01*
X107072094Y-64529737D01*
X107168785Y-64450385D01*
X107248137Y-64353694D01*
X107307102Y-64243380D01*
X107343412Y-64123682D01*
X107355672Y-63999200D01*
X107355672Y-62999200D01*
X107343412Y-62874718D01*
X107307102Y-62755020D01*
X107248137Y-62644706D01*
X107168785Y-62548015D01*
X107072094Y-62468663D01*
X106961780Y-62409698D01*
X106842082Y-62373388D01*
X106717600Y-62361128D01*
X105142161Y-62361128D01*
X105117600Y-62358709D01*
X105093039Y-62361128D01*
X103517600Y-62361128D01*
X103393118Y-62373388D01*
X103273420Y-62409698D01*
X103163106Y-62468663D01*
X103066415Y-62548015D01*
X102987063Y-62644706D01*
X102928098Y-62755020D01*
X102891788Y-62874718D01*
X102879528Y-62999200D01*
X102627600Y-62999200D01*
X102627600Y-52554160D01*
X102929239Y-52855799D01*
X103375881Y-53154236D01*
X103872163Y-53359803D01*
X104399014Y-53464600D01*
X104936186Y-53464600D01*
X105463037Y-53359803D01*
X105959319Y-53154236D01*
X106405961Y-52855799D01*
X106785799Y-52475961D01*
X107084236Y-52029319D01*
X107289803Y-51533037D01*
X107394600Y-51006186D01*
X107394600Y-50469014D01*
X107289803Y-49942163D01*
X107084236Y-49445881D01*
X106785799Y-48999239D01*
X106484160Y-48697600D01*
X115390600Y-48697600D01*
X115390600Y-53587600D01*
X115390600Y-53587600D01*
G37*
X115390600Y-53587600D02*
X115393040Y-53612376D01*
X115400267Y-53636201D01*
X115412003Y-53658157D01*
X115427797Y-53677403D01*
X115447043Y-53693197D01*
X115468999Y-53704933D01*
X115492824Y-53712160D01*
X115517600Y-53714600D01*
X118790600Y-53714600D01*
X118790600Y-54437714D01*
X118788137Y-54433106D01*
X118708785Y-54336415D01*
X118612094Y-54257063D01*
X118501780Y-54198098D01*
X118382082Y-54161788D01*
X118257600Y-54149528D01*
X118143350Y-54152600D01*
X117984600Y-54311350D01*
X117984600Y-55310600D01*
X118004600Y-55310600D01*
X118004600Y-55564600D01*
X117984600Y-55564600D01*
X117984600Y-55584600D01*
X117730600Y-55584600D01*
X117730600Y-55564600D01*
X117710600Y-55564600D01*
X117710600Y-55310600D01*
X117730600Y-55310600D01*
X117730600Y-54311350D01*
X117571850Y-54152600D01*
X117457600Y-54149528D01*
X117333118Y-54161788D01*
X117217600Y-54196830D01*
X117102082Y-54161788D01*
X116977600Y-54149528D01*
X116177600Y-54149528D01*
X116053118Y-54161788D01*
X115933420Y-54198098D01*
X115823106Y-54257063D01*
X115726415Y-54336415D01*
X115647063Y-54433106D01*
X115588098Y-54543420D01*
X115551788Y-54663118D01*
X115539528Y-54787600D01*
X115539528Y-56087600D01*
X115551788Y-56212082D01*
X115588098Y-56331780D01*
X115647063Y-56442094D01*
X115700933Y-56507735D01*
X115617600Y-56499528D01*
X115117600Y-56499528D01*
X114993118Y-56511788D01*
X114873420Y-56548098D01*
X114763106Y-56607063D01*
X114666415Y-56686415D01*
X114617600Y-56745896D01*
X114568785Y-56686415D01*
X114472094Y-56607063D01*
X114361780Y-56548098D01*
X114256241Y-56516083D01*
X113299948Y-55559791D01*
X113279029Y-55534301D01*
X113307102Y-55481780D01*
X113343412Y-55362082D01*
X113355672Y-55237600D01*
X113355672Y-53537600D01*
X113343412Y-53413118D01*
X113307102Y-53293420D01*
X113248137Y-53183106D01*
X113168785Y-53086415D01*
X113072094Y-53007063D01*
X112961780Y-52948098D01*
X112842082Y-52911788D01*
X112717600Y-52899528D01*
X111517600Y-52899528D01*
X111393118Y-52911788D01*
X111273420Y-52948098D01*
X111163106Y-53007063D01*
X111066415Y-53086415D01*
X110987063Y-53183106D01*
X110960909Y-53232036D01*
X110807049Y-53105767D01*
X110592501Y-52991089D01*
X110359702Y-52920470D01*
X110117600Y-52896625D01*
X109875499Y-52920470D01*
X109642700Y-52991089D01*
X109428152Y-53105767D01*
X109240099Y-53260098D01*
X109085768Y-53448151D01*
X109003213Y-53602600D01*
X106156152Y-53602600D01*
X106117599Y-53598803D01*
X106079046Y-53602600D01*
X106079039Y-53602600D01*
X105979785Y-53612376D01*
X105963712Y-53613959D01*
X105851020Y-53648144D01*
X105815740Y-53658846D01*
X105679367Y-53731738D01*
X105651264Y-53754802D01*
X105589787Y-53805255D01*
X105589784Y-53805258D01*
X105559836Y-53829836D01*
X105535257Y-53859785D01*
X105445514Y-53949528D01*
X105117600Y-53949528D01*
X104993118Y-53961788D01*
X104873420Y-53998098D01*
X104763106Y-54057063D01*
X104717600Y-54094409D01*
X104672094Y-54057063D01*
X104561780Y-53998098D01*
X104442082Y-53961788D01*
X104317600Y-53949528D01*
X103517600Y-53949528D01*
X103393118Y-53961788D01*
X103273420Y-53998098D01*
X103163106Y-54057063D01*
X103066415Y-54136415D01*
X102987063Y-54233106D01*
X102928098Y-54343420D01*
X102891788Y-54463118D01*
X102879528Y-54587600D01*
X102879528Y-55387600D01*
X102891788Y-55512082D01*
X102928098Y-55631780D01*
X102987063Y-55742094D01*
X103066415Y-55838785D01*
X103163106Y-55918137D01*
X103273420Y-55977102D01*
X103393118Y-56013412D01*
X103517600Y-56025672D01*
X103845515Y-56025672D01*
X103980970Y-56161128D01*
X103517600Y-56161128D01*
X103393118Y-56173388D01*
X103273420Y-56209698D01*
X103163106Y-56268663D01*
X103066415Y-56348015D01*
X102987063Y-56444706D01*
X102928098Y-56555020D01*
X102891788Y-56674718D01*
X102879528Y-56799200D01*
X102879528Y-57799200D01*
X102891788Y-57923682D01*
X102928098Y-58043380D01*
X102987063Y-58153694D01*
X103066415Y-58250385D01*
X103163106Y-58329737D01*
X103273420Y-58388702D01*
X103393118Y-58425012D01*
X103517600Y-58437272D01*
X105093039Y-58437272D01*
X105117600Y-58439691D01*
X105142161Y-58437272D01*
X106717600Y-58437272D01*
X106842082Y-58425012D01*
X106961780Y-58388702D01*
X106969394Y-58384632D01*
X107765806Y-58384632D01*
X107773420Y-58388702D01*
X107893118Y-58425012D01*
X108017600Y-58437272D01*
X109593039Y-58437272D01*
X109617600Y-58439691D01*
X109642161Y-58437272D01*
X111217600Y-58437272D01*
X111342082Y-58425012D01*
X111461780Y-58388702D01*
X111572094Y-58329737D01*
X111668785Y-58250385D01*
X111748137Y-58153694D01*
X111807102Y-58043380D01*
X111843412Y-57923682D01*
X111855672Y-57799200D01*
X111855672Y-56872601D01*
X112392444Y-56872601D01*
X112979528Y-57459686D01*
X112979528Y-58037600D01*
X112991788Y-58162082D01*
X113028098Y-58281780D01*
X113087063Y-58392094D01*
X113166415Y-58488785D01*
X113263106Y-58568137D01*
X113373420Y-58627102D01*
X113457476Y-58652600D01*
X111884952Y-58652600D01*
X111829200Y-58647109D01*
X111606701Y-58669023D01*
X111392753Y-58733924D01*
X111195577Y-58839316D01*
X111066056Y-58945611D01*
X111066054Y-58945613D01*
X111022751Y-58981151D01*
X110987213Y-59024454D01*
X109307493Y-60704175D01*
X107798107Y-59677793D01*
X107751223Y-59639316D01*
X107656650Y-59588766D01*
X107562596Y-59537506D01*
X107558153Y-59536119D01*
X107554047Y-59533924D01*
X107451428Y-59502795D01*
X107349182Y-59470869D01*
X107344558Y-59470376D01*
X107340099Y-59469023D01*
X107233367Y-59458511D01*
X107126869Y-59447147D01*
X107066476Y-59452600D01*
X107061848Y-59452600D01*
X107010887Y-59457619D01*
X106904201Y-59467252D01*
X106899738Y-59468566D01*
X106895101Y-59469023D01*
X106792513Y-59500143D01*
X106689732Y-59530411D01*
X106685607Y-59532573D01*
X106681153Y-59533924D01*
X106586596Y-59584465D01*
X106491706Y-59634198D01*
X106488087Y-59637119D01*
X106483977Y-59639316D01*
X106401066Y-59707360D01*
X106317733Y-59774623D01*
X106314752Y-59778196D01*
X106311151Y-59781151D01*
X106243104Y-59864067D01*
X106174498Y-59946291D01*
X106172272Y-59950375D01*
X106169316Y-59953977D01*
X106118763Y-60048556D01*
X106067506Y-60142604D01*
X106066119Y-60147047D01*
X106063924Y-60151153D01*
X106032795Y-60253772D01*
X106000869Y-60356018D01*
X106000376Y-60360642D01*
X105999023Y-60365101D01*
X105988511Y-60471831D01*
X105977147Y-60578331D01*
X105977565Y-60582965D01*
X105977109Y-60587600D01*
X105987619Y-60694310D01*
X105997252Y-60800999D01*
X105998566Y-60805462D01*
X105999023Y-60810099D01*
X106030143Y-60912687D01*
X106060411Y-61015468D01*
X106062573Y-61019593D01*
X106063924Y-61024047D01*
X106114465Y-61118604D01*
X106164198Y-61213494D01*
X106167119Y-61217113D01*
X106169316Y-61221223D01*
X106237360Y-61304134D01*
X106304623Y-61387467D01*
X106308196Y-61390448D01*
X106311151Y-61394049D01*
X106394091Y-61462116D01*
X106433276Y-61494811D01*
X106437088Y-61497403D01*
X106483977Y-61535884D01*
X106529314Y-61560117D01*
X107777069Y-62408591D01*
X107773420Y-62409698D01*
X107663106Y-62468663D01*
X107566415Y-62548015D01*
X107487063Y-62644706D01*
X107428098Y-62755020D01*
X107391788Y-62874718D01*
X107379528Y-62999200D01*
X107379528Y-63999200D01*
X107391788Y-64123682D01*
X107428098Y-64243380D01*
X107487063Y-64353694D01*
X107566415Y-64450385D01*
X107663106Y-64529737D01*
X107773420Y-64588702D01*
X107788907Y-64593400D01*
X107773420Y-64598098D01*
X107663106Y-64657063D01*
X107566415Y-64736415D01*
X107487063Y-64833106D01*
X107428098Y-64943420D01*
X107391788Y-65063118D01*
X107379528Y-65187600D01*
X107379528Y-66187600D01*
X107391788Y-66312082D01*
X107428098Y-66431780D01*
X107487063Y-66542094D01*
X107558873Y-66629595D01*
X104354460Y-69834009D01*
X104311152Y-69869551D01*
X104169317Y-70042377D01*
X104063924Y-70239553D01*
X103999023Y-70453501D01*
X103995481Y-70489460D01*
X103977109Y-70676000D01*
X103982600Y-70731751D01*
X103982600Y-70749528D01*
X103517600Y-70749528D01*
X103393118Y-70761788D01*
X103273420Y-70798098D01*
X103163106Y-70857063D01*
X103066415Y-70936415D01*
X102987063Y-71033106D01*
X102928098Y-71143420D01*
X102891788Y-71263118D01*
X102879528Y-71387600D01*
X102879528Y-72387600D01*
X102891788Y-72512082D01*
X102928098Y-72631780D01*
X102987063Y-72742094D01*
X103066415Y-72838785D01*
X103163106Y-72918137D01*
X103273420Y-72977102D01*
X103393118Y-73013412D01*
X103517600Y-73025672D01*
X104819370Y-73025672D01*
X104545515Y-73299528D01*
X104517600Y-73299528D01*
X104393118Y-73311788D01*
X104273420Y-73348098D01*
X104163106Y-73407063D01*
X104066415Y-73486415D01*
X103987063Y-73583106D01*
X103928098Y-73693420D01*
X103891788Y-73813118D01*
X103879528Y-73937600D01*
X103879528Y-74837600D01*
X103891788Y-74962082D01*
X103928098Y-75081780D01*
X103987063Y-75192094D01*
X104066415Y-75288785D01*
X104163106Y-75368137D01*
X104273420Y-75427102D01*
X104393118Y-75463412D01*
X104517600Y-75475672D01*
X105017600Y-75475672D01*
X105142082Y-75463412D01*
X105261780Y-75427102D01*
X105372094Y-75368137D01*
X105468785Y-75288785D01*
X105517600Y-75229304D01*
X105566415Y-75288785D01*
X105663106Y-75368137D01*
X105773420Y-75427102D01*
X105893118Y-75463412D01*
X106017600Y-75475672D01*
X106517600Y-75475672D01*
X106642082Y-75463412D01*
X106761780Y-75427102D01*
X106872094Y-75368137D01*
X106968785Y-75288785D01*
X107048137Y-75192094D01*
X107058557Y-75172600D01*
X107179039Y-75172600D01*
X107217592Y-75176397D01*
X107256145Y-75172600D01*
X107256153Y-75172600D01*
X107371479Y-75161241D01*
X107519452Y-75116354D01*
X107655825Y-75043462D01*
X107775356Y-74945364D01*
X107794045Y-74922592D01*
X107819539Y-74922592D01*
X108019498Y-74882818D01*
X108207856Y-74804797D01*
X108377374Y-74691529D01*
X108482601Y-74586302D01*
X108482601Y-75749528D01*
X108017600Y-75749528D01*
X107893118Y-75761788D01*
X107773420Y-75798098D01*
X107663106Y-75857063D01*
X107566415Y-75936415D01*
X107487063Y-76033106D01*
X107428098Y-76143420D01*
X107391788Y-76263118D01*
X107379528Y-76387600D01*
X107379528Y-76955997D01*
X107355672Y-76932141D01*
X107355672Y-76387600D01*
X107343412Y-76263118D01*
X107307102Y-76143420D01*
X107248137Y-76033106D01*
X107168785Y-75936415D01*
X107072094Y-75857063D01*
X106961780Y-75798098D01*
X106842082Y-75761788D01*
X106717600Y-75749528D01*
X105730561Y-75749528D01*
X105706000Y-75747109D01*
X105681439Y-75749528D01*
X103517600Y-75749528D01*
X103393118Y-75761788D01*
X103273420Y-75798098D01*
X103163106Y-75857063D01*
X103066415Y-75936415D01*
X102987063Y-76033106D01*
X102928098Y-76143420D01*
X102891788Y-76263118D01*
X102879528Y-76387600D01*
X102879528Y-77387600D01*
X102891788Y-77512082D01*
X102928098Y-77631780D01*
X102987063Y-77742094D01*
X103066415Y-77838785D01*
X103163106Y-77918137D01*
X103273420Y-77977102D01*
X103393118Y-78013412D01*
X103517600Y-78025672D01*
X105238941Y-78025672D01*
X108482601Y-81269333D01*
X108482600Y-81949528D01*
X108017600Y-81949528D01*
X107893118Y-81961788D01*
X107773420Y-81998098D01*
X107663106Y-82057063D01*
X107566415Y-82136415D01*
X107487063Y-82233106D01*
X107428098Y-82343420D01*
X107391788Y-82463118D01*
X107379528Y-82587600D01*
X107379528Y-83587600D01*
X107391788Y-83712082D01*
X107428098Y-83831780D01*
X107487063Y-83942094D01*
X107566415Y-84038785D01*
X107663106Y-84118137D01*
X107688667Y-84131800D01*
X107663106Y-84145463D01*
X107566415Y-84224815D01*
X107487063Y-84321506D01*
X107428098Y-84431820D01*
X107391788Y-84551518D01*
X107379528Y-84676000D01*
X107379528Y-85676000D01*
X107391788Y-85800482D01*
X107428098Y-85920180D01*
X107487063Y-86030494D01*
X107566415Y-86127185D01*
X107663106Y-86206537D01*
X107773420Y-86265502D01*
X107893118Y-86301812D01*
X108017600Y-86314072D01*
X108374396Y-86314072D01*
X108322105Y-86366363D01*
X108295101Y-86369023D01*
X108081153Y-86433924D01*
X107883977Y-86539316D01*
X107711151Y-86681151D01*
X107569316Y-86853977D01*
X107463924Y-87051153D01*
X107399023Y-87265101D01*
X107377109Y-87487600D01*
X107399023Y-87710099D01*
X107463924Y-87924047D01*
X107569316Y-88121223D01*
X107711151Y-88294049D01*
X107883977Y-88435884D01*
X108081153Y-88541276D01*
X108295101Y-88606177D01*
X108461848Y-88622600D01*
X108750249Y-88622600D01*
X108775894Y-88625126D01*
X108735252Y-88701161D01*
X108670351Y-88915109D01*
X108648437Y-89137607D01*
X108670351Y-89360105D01*
X108735252Y-89574053D01*
X108840645Y-89771229D01*
X108982480Y-89944055D01*
X109155306Y-90085890D01*
X109352482Y-90191283D01*
X109506249Y-90237928D01*
X108017600Y-90237928D01*
X107986408Y-90241000D01*
X106748792Y-90241000D01*
X106717600Y-90237928D01*
X103517600Y-90237928D01*
X103393118Y-90250188D01*
X103273420Y-90286498D01*
X103163106Y-90345463D01*
X103066415Y-90424815D01*
X102987063Y-90521506D01*
X102928098Y-90631820D01*
X102891788Y-90751518D01*
X102879528Y-90876000D01*
X102879528Y-91876000D01*
X102891788Y-92000482D01*
X102928098Y-92120180D01*
X102987063Y-92230494D01*
X103066415Y-92327185D01*
X103163106Y-92406537D01*
X103273420Y-92465502D01*
X103393118Y-92501812D01*
X103517600Y-92514072D01*
X104381559Y-92514072D01*
X103872163Y-92615397D01*
X103375881Y-92820964D01*
X102929239Y-93119401D01*
X102627600Y-93421040D01*
X102627600Y-82587600D01*
X102879528Y-82587600D01*
X102879528Y-83587600D01*
X102891788Y-83712082D01*
X102928098Y-83831780D01*
X102987063Y-83942094D01*
X103066415Y-84038785D01*
X103163106Y-84118137D01*
X103188667Y-84131800D01*
X103163106Y-84145463D01*
X103066415Y-84224815D01*
X102987063Y-84321506D01*
X102928098Y-84431820D01*
X102891788Y-84551518D01*
X102879528Y-84676000D01*
X102879528Y-85676000D01*
X102891788Y-85800482D01*
X102928098Y-85920180D01*
X102987063Y-86030494D01*
X103066415Y-86127185D01*
X103163106Y-86206537D01*
X103273420Y-86265502D01*
X103393118Y-86301812D01*
X103517600Y-86314072D01*
X105093039Y-86314072D01*
X105117600Y-86316491D01*
X105142161Y-86314072D01*
X106717600Y-86314072D01*
X106842082Y-86301812D01*
X106961780Y-86265502D01*
X107072094Y-86206537D01*
X107168785Y-86127185D01*
X107248137Y-86030494D01*
X107307102Y-85920180D01*
X107343412Y-85800482D01*
X107355672Y-85676000D01*
X107355672Y-84676000D01*
X107343412Y-84551518D01*
X107307102Y-84431820D01*
X107248137Y-84321506D01*
X107168785Y-84224815D01*
X107072094Y-84145463D01*
X107046533Y-84131800D01*
X107072094Y-84118137D01*
X107168785Y-84038785D01*
X107248137Y-83942094D01*
X107307102Y-83831780D01*
X107343412Y-83712082D01*
X107355672Y-83587600D01*
X107355672Y-82587600D01*
X107343412Y-82463118D01*
X107307102Y-82343420D01*
X107248137Y-82233106D01*
X107168785Y-82136415D01*
X107072094Y-82057063D01*
X106961780Y-81998098D01*
X106842082Y-81961788D01*
X106717600Y-81949528D01*
X105142161Y-81949528D01*
X105117600Y-81947109D01*
X105093039Y-81949528D01*
X103517600Y-81949528D01*
X103393118Y-81961788D01*
X103273420Y-81998098D01*
X103163106Y-82057063D01*
X103066415Y-82136415D01*
X102987063Y-82233106D01*
X102928098Y-82343420D01*
X102891788Y-82463118D01*
X102879528Y-82587600D01*
X102627600Y-82587600D01*
X102627600Y-62999200D01*
X102879528Y-62999200D01*
X102879528Y-63999200D01*
X102891788Y-64123682D01*
X102928098Y-64243380D01*
X102987063Y-64353694D01*
X103066415Y-64450385D01*
X103163106Y-64529737D01*
X103273420Y-64588702D01*
X103288907Y-64593400D01*
X103273420Y-64598098D01*
X103163106Y-64657063D01*
X103066415Y-64736415D01*
X102987063Y-64833106D01*
X102928098Y-64943420D01*
X102891788Y-65063118D01*
X102879528Y-65187600D01*
X102879528Y-66187600D01*
X102891788Y-66312082D01*
X102928098Y-66431780D01*
X102987063Y-66542094D01*
X103066415Y-66638785D01*
X103163106Y-66718137D01*
X103273420Y-66777102D01*
X103393118Y-66813412D01*
X103517600Y-66825672D01*
X105093039Y-66825672D01*
X105117600Y-66828091D01*
X105142161Y-66825672D01*
X106717600Y-66825672D01*
X106842082Y-66813412D01*
X106961780Y-66777102D01*
X107072094Y-66718137D01*
X107168785Y-66638785D01*
X107248137Y-66542094D01*
X107307102Y-66431780D01*
X107343412Y-66312082D01*
X107355672Y-66187600D01*
X107355672Y-65187600D01*
X107343412Y-65063118D01*
X107307102Y-64943420D01*
X107248137Y-64833106D01*
X107168785Y-64736415D01*
X107072094Y-64657063D01*
X106961780Y-64598098D01*
X106946293Y-64593400D01*
X106961780Y-64588702D01*
X107072094Y-64529737D01*
X107168785Y-64450385D01*
X107248137Y-64353694D01*
X107307102Y-64243380D01*
X107343412Y-64123682D01*
X107355672Y-63999200D01*
X107355672Y-62999200D01*
X107343412Y-62874718D01*
X107307102Y-62755020D01*
X107248137Y-62644706D01*
X107168785Y-62548015D01*
X107072094Y-62468663D01*
X106961780Y-62409698D01*
X106842082Y-62373388D01*
X106717600Y-62361128D01*
X105142161Y-62361128D01*
X105117600Y-62358709D01*
X105093039Y-62361128D01*
X103517600Y-62361128D01*
X103393118Y-62373388D01*
X103273420Y-62409698D01*
X103163106Y-62468663D01*
X103066415Y-62548015D01*
X102987063Y-62644706D01*
X102928098Y-62755020D01*
X102891788Y-62874718D01*
X102879528Y-62999200D01*
X102627600Y-62999200D01*
X102627600Y-52554160D01*
X102929239Y-52855799D01*
X103375881Y-53154236D01*
X103872163Y-53359803D01*
X104399014Y-53464600D01*
X104936186Y-53464600D01*
X105463037Y-53359803D01*
X105959319Y-53154236D01*
X106405961Y-52855799D01*
X106785799Y-52475961D01*
X107084236Y-52029319D01*
X107289803Y-51533037D01*
X107394600Y-51006186D01*
X107394600Y-50469014D01*
X107289803Y-49942163D01*
X107084236Y-49445881D01*
X106785799Y-48999239D01*
X106484160Y-48697600D01*
X115390600Y-48697600D01*
X115390600Y-53587600D01*
G36*
X119382600Y-88259038D02*
G01*
X119378802Y-88297601D01*
X119393958Y-88451487D01*
X119438845Y-88599460D01*
X119464443Y-88647351D01*
X119511738Y-88735834D01*
X119521804Y-88748099D01*
X119585254Y-88825413D01*
X119585258Y-88825417D01*
X119609836Y-88855365D01*
X119639784Y-88879943D01*
X119640145Y-88880304D01*
X117633447Y-88880304D01*
X119382600Y-87131151D01*
X119382600Y-88259038D01*
X119382600Y-88259038D01*
G37*
X119382600Y-88259038D02*
X119378802Y-88297601D01*
X119393958Y-88451487D01*
X119438845Y-88599460D01*
X119464443Y-88647351D01*
X119511738Y-88735834D01*
X119521804Y-88748099D01*
X119585254Y-88825413D01*
X119585258Y-88825417D01*
X119609836Y-88855365D01*
X119639784Y-88879943D01*
X119640145Y-88880304D01*
X117633447Y-88880304D01*
X119382600Y-87131151D01*
X119382600Y-88259038D01*
G36*
X117698907Y-72819246D02*
G01*
X117812175Y-72988764D01*
X117930226Y-73106815D01*
X116589785Y-74447256D01*
X116559837Y-74471834D01*
X116535259Y-74501782D01*
X116535255Y-74501786D01*
X116512235Y-74529836D01*
X116461739Y-74591365D01*
X116440159Y-74631739D01*
X116388846Y-74727739D01*
X116353949Y-74842778D01*
X116352600Y-74773350D01*
X116193850Y-74614600D01*
X115590600Y-74614600D01*
X115590600Y-75413850D01*
X115749350Y-75572600D01*
X115854997Y-75560704D01*
X115973918Y-75521926D01*
X116082989Y-75460693D01*
X116178019Y-75379358D01*
X116255355Y-75281047D01*
X116312025Y-75169537D01*
X116332601Y-75096287D01*
X116332600Y-82249047D01*
X116328803Y-82287600D01*
X116332600Y-82326153D01*
X116332600Y-82326160D01*
X116343959Y-82441486D01*
X116388846Y-82589459D01*
X116461738Y-82725832D01*
X116559836Y-82845364D01*
X116589790Y-82869947D01*
X117405253Y-83685410D01*
X117429836Y-83715364D01*
X117549367Y-83813462D01*
X117685740Y-83886354D01*
X117833713Y-83931242D01*
X117908626Y-83938620D01*
X117949039Y-83942600D01*
X117949044Y-83942600D01*
X117987600Y-83946397D01*
X118026156Y-83942600D01*
X118729528Y-83942600D01*
X118729528Y-84127600D01*
X118741788Y-84252082D01*
X118778098Y-84371780D01*
X118826643Y-84462600D01*
X118778098Y-84553420D01*
X118741788Y-84673118D01*
X118729528Y-84797600D01*
X118729528Y-85237171D01*
X118648715Y-85291168D01*
X118504552Y-85435331D01*
X118391284Y-85604849D01*
X118313263Y-85793207D01*
X118273489Y-85993166D01*
X118273489Y-86019948D01*
X116390837Y-87902600D01*
X115184757Y-87902600D01*
X114849946Y-87567789D01*
X114825366Y-87537838D01*
X114795414Y-87513257D01*
X113952612Y-86670455D01*
X113952612Y-81432648D01*
X113956409Y-81394092D01*
X113952612Y-81355536D01*
X113952612Y-81355531D01*
X113948013Y-81308836D01*
X113941254Y-81240205D01*
X113896366Y-81092232D01*
X113869711Y-81042364D01*
X113823474Y-80955859D01*
X113725376Y-80836328D01*
X113695422Y-80811745D01*
X113002600Y-80118923D01*
X113002600Y-76312757D01*
X113642758Y-75672600D01*
X113679047Y-75672600D01*
X113717600Y-75676397D01*
X113756153Y-75672600D01*
X113756161Y-75672600D01*
X113871487Y-75661241D01*
X114019460Y-75616354D01*
X114095572Y-75575672D01*
X114217600Y-75575672D01*
X114342082Y-75563412D01*
X114461780Y-75527102D01*
X114572094Y-75468137D01*
X114668785Y-75388785D01*
X114717705Y-75329175D01*
X114757181Y-75379358D01*
X114852211Y-75460693D01*
X114961282Y-75521926D01*
X115080203Y-75560704D01*
X115185850Y-75572600D01*
X115344600Y-75413850D01*
X115344600Y-74614600D01*
X115320600Y-74614600D01*
X115320600Y-74360600D01*
X115344600Y-74360600D01*
X115344600Y-73561350D01*
X115590600Y-73561350D01*
X115590600Y-74360600D01*
X116193850Y-74360600D01*
X116352600Y-74201850D01*
X116355536Y-74050795D01*
X116345852Y-73926086D01*
X116312025Y-73805663D01*
X116255355Y-73694153D01*
X116178019Y-73595842D01*
X116082989Y-73514507D01*
X115973918Y-73453274D01*
X115854997Y-73414496D01*
X115749350Y-73402600D01*
X115590600Y-73561350D01*
X115344600Y-73561350D01*
X115185850Y-73402600D01*
X115080203Y-73414496D01*
X114961282Y-73453274D01*
X114852211Y-73514507D01*
X114757181Y-73595842D01*
X114717705Y-73646025D01*
X114668785Y-73586415D01*
X114572094Y-73507063D01*
X114461780Y-73448098D01*
X114342082Y-73411788D01*
X114217600Y-73399528D01*
X113717600Y-73399528D01*
X113593118Y-73411788D01*
X113473420Y-73448098D01*
X113363106Y-73507063D01*
X113266415Y-73586415D01*
X113187063Y-73683106D01*
X113128098Y-73793420D01*
X113091788Y-73913118D01*
X113079528Y-74037600D01*
X113079528Y-74139496D01*
X113015740Y-74158846D01*
X112879367Y-74231738D01*
X112827228Y-74274528D01*
X112789787Y-74305255D01*
X112789784Y-74305258D01*
X112759836Y-74329836D01*
X112743478Y-74349767D01*
X112677374Y-74283663D01*
X112507856Y-74170395D01*
X112319498Y-74092374D01*
X112119539Y-74052600D01*
X111915661Y-74052600D01*
X111715702Y-74092374D01*
X111527344Y-74170395D01*
X111357826Y-74283663D01*
X111213663Y-74427826D01*
X111100395Y-74597344D01*
X111022374Y-74785702D01*
X110982600Y-74985661D01*
X110982600Y-75189539D01*
X111022374Y-75389498D01*
X111100395Y-75577856D01*
X111213663Y-75747374D01*
X111215817Y-75749528D01*
X110752600Y-75749528D01*
X110752600Y-73025672D01*
X111217600Y-73025672D01*
X111342082Y-73013412D01*
X111461780Y-72977102D01*
X111572094Y-72918137D01*
X111668785Y-72838785D01*
X111748137Y-72742094D01*
X111785283Y-72672600D01*
X117638164Y-72672600D01*
X117698907Y-72819246D01*
X117698907Y-72819246D01*
G37*
X117698907Y-72819246D02*
X117812175Y-72988764D01*
X117930226Y-73106815D01*
X116589785Y-74447256D01*
X116559837Y-74471834D01*
X116535259Y-74501782D01*
X116535255Y-74501786D01*
X116512235Y-74529836D01*
X116461739Y-74591365D01*
X116440159Y-74631739D01*
X116388846Y-74727739D01*
X116353949Y-74842778D01*
X116352600Y-74773350D01*
X116193850Y-74614600D01*
X115590600Y-74614600D01*
X115590600Y-75413850D01*
X115749350Y-75572600D01*
X115854997Y-75560704D01*
X115973918Y-75521926D01*
X116082989Y-75460693D01*
X116178019Y-75379358D01*
X116255355Y-75281047D01*
X116312025Y-75169537D01*
X116332601Y-75096287D01*
X116332600Y-82249047D01*
X116328803Y-82287600D01*
X116332600Y-82326153D01*
X116332600Y-82326160D01*
X116343959Y-82441486D01*
X116388846Y-82589459D01*
X116461738Y-82725832D01*
X116559836Y-82845364D01*
X116589790Y-82869947D01*
X117405253Y-83685410D01*
X117429836Y-83715364D01*
X117549367Y-83813462D01*
X117685740Y-83886354D01*
X117833713Y-83931242D01*
X117908626Y-83938620D01*
X117949039Y-83942600D01*
X117949044Y-83942600D01*
X117987600Y-83946397D01*
X118026156Y-83942600D01*
X118729528Y-83942600D01*
X118729528Y-84127600D01*
X118741788Y-84252082D01*
X118778098Y-84371780D01*
X118826643Y-84462600D01*
X118778098Y-84553420D01*
X118741788Y-84673118D01*
X118729528Y-84797600D01*
X118729528Y-85237171D01*
X118648715Y-85291168D01*
X118504552Y-85435331D01*
X118391284Y-85604849D01*
X118313263Y-85793207D01*
X118273489Y-85993166D01*
X118273489Y-86019948D01*
X116390837Y-87902600D01*
X115184757Y-87902600D01*
X114849946Y-87567789D01*
X114825366Y-87537838D01*
X114795414Y-87513257D01*
X113952612Y-86670455D01*
X113952612Y-81432648D01*
X113956409Y-81394092D01*
X113952612Y-81355536D01*
X113952612Y-81355531D01*
X113948013Y-81308836D01*
X113941254Y-81240205D01*
X113896366Y-81092232D01*
X113869711Y-81042364D01*
X113823474Y-80955859D01*
X113725376Y-80836328D01*
X113695422Y-80811745D01*
X113002600Y-80118923D01*
X113002600Y-76312757D01*
X113642758Y-75672600D01*
X113679047Y-75672600D01*
X113717600Y-75676397D01*
X113756153Y-75672600D01*
X113756161Y-75672600D01*
X113871487Y-75661241D01*
X114019460Y-75616354D01*
X114095572Y-75575672D01*
X114217600Y-75575672D01*
X114342082Y-75563412D01*
X114461780Y-75527102D01*
X114572094Y-75468137D01*
X114668785Y-75388785D01*
X114717705Y-75329175D01*
X114757181Y-75379358D01*
X114852211Y-75460693D01*
X114961282Y-75521926D01*
X115080203Y-75560704D01*
X115185850Y-75572600D01*
X115344600Y-75413850D01*
X115344600Y-74614600D01*
X115320600Y-74614600D01*
X115320600Y-74360600D01*
X115344600Y-74360600D01*
X115344600Y-73561350D01*
X115590600Y-73561350D01*
X115590600Y-74360600D01*
X116193850Y-74360600D01*
X116352600Y-74201850D01*
X116355536Y-74050795D01*
X116345852Y-73926086D01*
X116312025Y-73805663D01*
X116255355Y-73694153D01*
X116178019Y-73595842D01*
X116082989Y-73514507D01*
X115973918Y-73453274D01*
X115854997Y-73414496D01*
X115749350Y-73402600D01*
X115590600Y-73561350D01*
X115344600Y-73561350D01*
X115185850Y-73402600D01*
X115080203Y-73414496D01*
X114961282Y-73453274D01*
X114852211Y-73514507D01*
X114757181Y-73595842D01*
X114717705Y-73646025D01*
X114668785Y-73586415D01*
X114572094Y-73507063D01*
X114461780Y-73448098D01*
X114342082Y-73411788D01*
X114217600Y-73399528D01*
X113717600Y-73399528D01*
X113593118Y-73411788D01*
X113473420Y-73448098D01*
X113363106Y-73507063D01*
X113266415Y-73586415D01*
X113187063Y-73683106D01*
X113128098Y-73793420D01*
X113091788Y-73913118D01*
X113079528Y-74037600D01*
X113079528Y-74139496D01*
X113015740Y-74158846D01*
X112879367Y-74231738D01*
X112827228Y-74274528D01*
X112789787Y-74305255D01*
X112789784Y-74305258D01*
X112759836Y-74329836D01*
X112743478Y-74349767D01*
X112677374Y-74283663D01*
X112507856Y-74170395D01*
X112319498Y-74092374D01*
X112119539Y-74052600D01*
X111915661Y-74052600D01*
X111715702Y-74092374D01*
X111527344Y-74170395D01*
X111357826Y-74283663D01*
X111213663Y-74427826D01*
X111100395Y-74597344D01*
X111022374Y-74785702D01*
X110982600Y-74985661D01*
X110982600Y-75189539D01*
X111022374Y-75389498D01*
X111100395Y-75577856D01*
X111213663Y-75747374D01*
X111215817Y-75749528D01*
X110752600Y-75749528D01*
X110752600Y-73025672D01*
X111217600Y-73025672D01*
X111342082Y-73013412D01*
X111461780Y-72977102D01*
X111572094Y-72918137D01*
X111668785Y-72838785D01*
X111748137Y-72742094D01*
X111785283Y-72672600D01*
X117638164Y-72672600D01*
X117698907Y-72819246D01*
G36*
X127132601Y-67515979D02*
G01*
X127132601Y-68047582D01*
X127098137Y-67983106D01*
X127018785Y-67886415D01*
X126922094Y-67807063D01*
X126811780Y-67748098D01*
X126692082Y-67711788D01*
X126567600Y-67699528D01*
X126453350Y-67702600D01*
X126294600Y-67861350D01*
X126294600Y-68660600D01*
X126314600Y-68660600D01*
X126314600Y-68914600D01*
X126294600Y-68914600D01*
X126294600Y-69713850D01*
X126453350Y-69872600D01*
X126567600Y-69875672D01*
X126692082Y-69863412D01*
X126811780Y-69827102D01*
X126922094Y-69768137D01*
X127018785Y-69688785D01*
X127098137Y-69592094D01*
X127132601Y-69527618D01*
X127132601Y-69934227D01*
X127111780Y-69923098D01*
X126992082Y-69886788D01*
X126867600Y-69874528D01*
X126753350Y-69877600D01*
X126594600Y-70036350D01*
X126594600Y-70760600D01*
X126614600Y-70760600D01*
X126614600Y-71014600D01*
X126594600Y-71014600D01*
X126594600Y-71738850D01*
X126753350Y-71897600D01*
X126867600Y-71900672D01*
X126992082Y-71888412D01*
X127111780Y-71852102D01*
X127132601Y-71840973D01*
X127132600Y-76672956D01*
X127058942Y-76746614D01*
X127032161Y-76746614D01*
X126832202Y-76786388D01*
X126784290Y-76806234D01*
X126718785Y-76726415D01*
X126622094Y-76647063D01*
X126511780Y-76588098D01*
X126392082Y-76551788D01*
X126267600Y-76539528D01*
X125803350Y-76542600D01*
X125644600Y-76701350D01*
X125644600Y-77350600D01*
X125664600Y-77350600D01*
X125664600Y-77604600D01*
X125644600Y-77604600D01*
X125644600Y-77624600D01*
X125390600Y-77624600D01*
X125390600Y-77604600D01*
X124291350Y-77604600D01*
X124132600Y-77763350D01*
X124129528Y-77777600D01*
X124141788Y-77902082D01*
X124160146Y-77962600D01*
X124044698Y-77962600D01*
X124006142Y-77958803D01*
X123967586Y-77962600D01*
X123967581Y-77962600D01*
X123929356Y-77966365D01*
X123852255Y-77973958D01*
X123704282Y-78018846D01*
X123567909Y-78091738D01*
X123448378Y-78189836D01*
X123423797Y-78219788D01*
X122889796Y-78753789D01*
X122859848Y-78778367D01*
X122835270Y-78808315D01*
X122835266Y-78808319D01*
X122803026Y-78847604D01*
X122761750Y-78897898D01*
X122688857Y-79034271D01*
X122643970Y-79182244D01*
X122632611Y-79297570D01*
X122632611Y-79297578D01*
X122628814Y-79336131D01*
X122632611Y-79374684D01*
X122632611Y-79561549D01*
X122611751Y-79586968D01*
X122561724Y-79647925D01*
X122548101Y-79673412D01*
X122488831Y-79784299D01*
X122443944Y-79932272D01*
X122428788Y-80086158D01*
X122432586Y-80124721D01*
X122432585Y-86239242D01*
X122342082Y-86211788D01*
X122217600Y-86199528D01*
X122152600Y-86199528D01*
X122152600Y-84666156D01*
X122156397Y-84627600D01*
X122152600Y-84589044D01*
X122152600Y-84589039D01*
X122147754Y-84539836D01*
X122141242Y-84473713D01*
X122096354Y-84325740D01*
X122090834Y-84315412D01*
X122023462Y-84189367D01*
X121925364Y-84069836D01*
X121895410Y-84045253D01*
X121505672Y-83655515D01*
X121505672Y-83527600D01*
X121493412Y-83403118D01*
X121457102Y-83283420D01*
X121408557Y-83192600D01*
X121457102Y-83101780D01*
X121493412Y-82982082D01*
X121505672Y-82857600D01*
X121505672Y-82257600D01*
X121493412Y-82133118D01*
X121457102Y-82013420D01*
X121408557Y-81922600D01*
X121457102Y-81831780D01*
X121493412Y-81712082D01*
X121505672Y-81587600D01*
X121505672Y-80987600D01*
X121497602Y-80905660D01*
X121681060Y-80869168D01*
X121869418Y-80791147D01*
X122038936Y-80677879D01*
X122183099Y-80533716D01*
X122296367Y-80364198D01*
X122374388Y-80175840D01*
X122414162Y-79975881D01*
X122414162Y-79772003D01*
X122374388Y-79572044D01*
X122296367Y-79383686D01*
X122183099Y-79214168D01*
X122137352Y-79168421D01*
X123058162Y-78247611D01*
X123084943Y-78247611D01*
X123284902Y-78207837D01*
X123473260Y-78129816D01*
X123642778Y-78016548D01*
X123786941Y-77872385D01*
X123900209Y-77702867D01*
X123978230Y-77514509D01*
X124018004Y-77314550D01*
X124018004Y-77177600D01*
X124129528Y-77177600D01*
X124132600Y-77191850D01*
X124291350Y-77350600D01*
X125390600Y-77350600D01*
X125390600Y-76701350D01*
X125231850Y-76542600D01*
X124767600Y-76539528D01*
X124643118Y-76551788D01*
X124523420Y-76588098D01*
X124413106Y-76647063D01*
X124316415Y-76726415D01*
X124237063Y-76823106D01*
X124178098Y-76933420D01*
X124141788Y-77053118D01*
X124129528Y-77177600D01*
X124018004Y-77177600D01*
X124018004Y-77110672D01*
X123978230Y-76910713D01*
X123900209Y-76722355D01*
X123786941Y-76552837D01*
X123642778Y-76408674D01*
X123473260Y-76295406D01*
X123339464Y-76239986D01*
X123440600Y-76138850D01*
X123440600Y-75414600D01*
X123694600Y-75414600D01*
X123694600Y-76138850D01*
X123853350Y-76297600D01*
X123967600Y-76300672D01*
X124092082Y-76288412D01*
X124211780Y-76252102D01*
X124322094Y-76193137D01*
X124418785Y-76113785D01*
X124498137Y-76017094D01*
X124557102Y-75906780D01*
X124593412Y-75787082D01*
X124605672Y-75662600D01*
X124602600Y-75573350D01*
X124443850Y-75414600D01*
X123694600Y-75414600D01*
X123440600Y-75414600D01*
X123420600Y-75414600D01*
X123420600Y-75160600D01*
X123440600Y-75160600D01*
X123440600Y-74436350D01*
X123694600Y-74436350D01*
X123694600Y-75160600D01*
X124443850Y-75160600D01*
X124602600Y-75001850D01*
X124605672Y-74912600D01*
X124593412Y-74788118D01*
X124557102Y-74668420D01*
X124498137Y-74558106D01*
X124418785Y-74461415D01*
X124322094Y-74382063D01*
X124211780Y-74323098D01*
X124092082Y-74286788D01*
X123967600Y-74274528D01*
X123853350Y-74277600D01*
X123694600Y-74436350D01*
X123440600Y-74436350D01*
X123281850Y-74277600D01*
X123167600Y-74274528D01*
X123043118Y-74286788D01*
X122923420Y-74323098D01*
X122817600Y-74379661D01*
X122817195Y-74379445D01*
X122796354Y-74310740D01*
X122723462Y-74174367D01*
X122669284Y-74108352D01*
X122649945Y-74084787D01*
X122649942Y-74084784D01*
X122625364Y-74054836D01*
X122595415Y-74030257D01*
X122452600Y-73887442D01*
X122452600Y-73885661D01*
X122412826Y-73685702D01*
X122334805Y-73497344D01*
X122305576Y-73453600D01*
X122325365Y-73437359D01*
X122423463Y-73317828D01*
X122496355Y-73181455D01*
X122541242Y-73033482D01*
X122552601Y-72918156D01*
X122552601Y-72918149D01*
X122553505Y-72908973D01*
X122719550Y-72908973D01*
X122919509Y-72869199D01*
X123107867Y-72791178D01*
X123277385Y-72677910D01*
X123421548Y-72533747D01*
X123534816Y-72364229D01*
X123612837Y-72175871D01*
X123652611Y-71975912D01*
X123652611Y-71772034D01*
X123612837Y-71572075D01*
X123534816Y-71383717D01*
X123421548Y-71214199D01*
X123402611Y-71195262D01*
X123402611Y-69671965D01*
X123416415Y-69688785D01*
X123482601Y-69743102D01*
X123482601Y-70149038D01*
X123478803Y-70187600D01*
X123493959Y-70341486D01*
X123538846Y-70489459D01*
X123538847Y-70489460D01*
X123611739Y-70625833D01*
X123627768Y-70645364D01*
X123685255Y-70715412D01*
X123685259Y-70715416D01*
X123709837Y-70745364D01*
X123739785Y-70769942D01*
X123929528Y-70959685D01*
X123929528Y-71262600D01*
X123941788Y-71387082D01*
X123978098Y-71506780D01*
X124037063Y-71617094D01*
X124116415Y-71713785D01*
X124182601Y-71768102D01*
X124182601Y-71799038D01*
X124178803Y-71837600D01*
X124193959Y-71991486D01*
X124238846Y-72139459D01*
X124258309Y-72175871D01*
X124311739Y-72275833D01*
X124328272Y-72295978D01*
X124382600Y-72362177D01*
X124382600Y-72389539D01*
X124422374Y-72589498D01*
X124500395Y-72777856D01*
X124613663Y-72947374D01*
X124757826Y-73091537D01*
X124927344Y-73204805D01*
X125115702Y-73282826D01*
X125315661Y-73322600D01*
X125519539Y-73322600D01*
X125719498Y-73282826D01*
X125907856Y-73204805D01*
X126077374Y-73091537D01*
X126221537Y-72947374D01*
X126334805Y-72777856D01*
X126412826Y-72589498D01*
X126452600Y-72389539D01*
X126452600Y-72185661D01*
X126412826Y-71985702D01*
X126334805Y-71797344D01*
X126313697Y-71765753D01*
X126340600Y-71738850D01*
X126340600Y-71014600D01*
X126320600Y-71014600D01*
X126320600Y-70760600D01*
X126340600Y-70760600D01*
X126340600Y-70036350D01*
X126181850Y-69877600D01*
X126067600Y-69874528D01*
X125943118Y-69886788D01*
X125823420Y-69923098D01*
X125717600Y-69979661D01*
X125611780Y-69923098D01*
X125492082Y-69886788D01*
X125367600Y-69874528D01*
X125064685Y-69874528D01*
X125052600Y-69862443D01*
X125052600Y-69743101D01*
X125118785Y-69688785D01*
X125198137Y-69592094D01*
X125217600Y-69555682D01*
X125237063Y-69592094D01*
X125316415Y-69688785D01*
X125413106Y-69768137D01*
X125523420Y-69827102D01*
X125643118Y-69863412D01*
X125767600Y-69875672D01*
X125881850Y-69872600D01*
X126040600Y-69713850D01*
X126040600Y-68914600D01*
X126020600Y-68914600D01*
X126020600Y-68660600D01*
X126040600Y-68660600D01*
X126040600Y-67861350D01*
X125955993Y-67776743D01*
X125972094Y-67768137D01*
X126068785Y-67688785D01*
X126148137Y-67592094D01*
X126207102Y-67481780D01*
X126243412Y-67362082D01*
X126255672Y-67237600D01*
X126255672Y-66639050D01*
X127132601Y-67515979D01*
X127132601Y-67515979D01*
G37*
X127132601Y-67515979D02*
X127132601Y-68047582D01*
X127098137Y-67983106D01*
X127018785Y-67886415D01*
X126922094Y-67807063D01*
X126811780Y-67748098D01*
X126692082Y-67711788D01*
X126567600Y-67699528D01*
X126453350Y-67702600D01*
X126294600Y-67861350D01*
X126294600Y-68660600D01*
X126314600Y-68660600D01*
X126314600Y-68914600D01*
X126294600Y-68914600D01*
X126294600Y-69713850D01*
X126453350Y-69872600D01*
X126567600Y-69875672D01*
X126692082Y-69863412D01*
X126811780Y-69827102D01*
X126922094Y-69768137D01*
X127018785Y-69688785D01*
X127098137Y-69592094D01*
X127132601Y-69527618D01*
X127132601Y-69934227D01*
X127111780Y-69923098D01*
X126992082Y-69886788D01*
X126867600Y-69874528D01*
X126753350Y-69877600D01*
X126594600Y-70036350D01*
X126594600Y-70760600D01*
X126614600Y-70760600D01*
X126614600Y-71014600D01*
X126594600Y-71014600D01*
X126594600Y-71738850D01*
X126753350Y-71897600D01*
X126867600Y-71900672D01*
X126992082Y-71888412D01*
X127111780Y-71852102D01*
X127132601Y-71840973D01*
X127132600Y-76672956D01*
X127058942Y-76746614D01*
X127032161Y-76746614D01*
X126832202Y-76786388D01*
X126784290Y-76806234D01*
X126718785Y-76726415D01*
X126622094Y-76647063D01*
X126511780Y-76588098D01*
X126392082Y-76551788D01*
X126267600Y-76539528D01*
X125803350Y-76542600D01*
X125644600Y-76701350D01*
X125644600Y-77350600D01*
X125664600Y-77350600D01*
X125664600Y-77604600D01*
X125644600Y-77604600D01*
X125644600Y-77624600D01*
X125390600Y-77624600D01*
X125390600Y-77604600D01*
X124291350Y-77604600D01*
X124132600Y-77763350D01*
X124129528Y-77777600D01*
X124141788Y-77902082D01*
X124160146Y-77962600D01*
X124044698Y-77962600D01*
X124006142Y-77958803D01*
X123967586Y-77962600D01*
X123967581Y-77962600D01*
X123929356Y-77966365D01*
X123852255Y-77973958D01*
X123704282Y-78018846D01*
X123567909Y-78091738D01*
X123448378Y-78189836D01*
X123423797Y-78219788D01*
X122889796Y-78753789D01*
X122859848Y-78778367D01*
X122835270Y-78808315D01*
X122835266Y-78808319D01*
X122803026Y-78847604D01*
X122761750Y-78897898D01*
X122688857Y-79034271D01*
X122643970Y-79182244D01*
X122632611Y-79297570D01*
X122632611Y-79297578D01*
X122628814Y-79336131D01*
X122632611Y-79374684D01*
X122632611Y-79561549D01*
X122611751Y-79586968D01*
X122561724Y-79647925D01*
X122548101Y-79673412D01*
X122488831Y-79784299D01*
X122443944Y-79932272D01*
X122428788Y-80086158D01*
X122432586Y-80124721D01*
X122432585Y-86239242D01*
X122342082Y-86211788D01*
X122217600Y-86199528D01*
X122152600Y-86199528D01*
X122152600Y-84666156D01*
X122156397Y-84627600D01*
X122152600Y-84589044D01*
X122152600Y-84589039D01*
X122147754Y-84539836D01*
X122141242Y-84473713D01*
X122096354Y-84325740D01*
X122090834Y-84315412D01*
X122023462Y-84189367D01*
X121925364Y-84069836D01*
X121895410Y-84045253D01*
X121505672Y-83655515D01*
X121505672Y-83527600D01*
X121493412Y-83403118D01*
X121457102Y-83283420D01*
X121408557Y-83192600D01*
X121457102Y-83101780D01*
X121493412Y-82982082D01*
X121505672Y-82857600D01*
X121505672Y-82257600D01*
X121493412Y-82133118D01*
X121457102Y-82013420D01*
X121408557Y-81922600D01*
X121457102Y-81831780D01*
X121493412Y-81712082D01*
X121505672Y-81587600D01*
X121505672Y-80987600D01*
X121497602Y-80905660D01*
X121681060Y-80869168D01*
X121869418Y-80791147D01*
X122038936Y-80677879D01*
X122183099Y-80533716D01*
X122296367Y-80364198D01*
X122374388Y-80175840D01*
X122414162Y-79975881D01*
X122414162Y-79772003D01*
X122374388Y-79572044D01*
X122296367Y-79383686D01*
X122183099Y-79214168D01*
X122137352Y-79168421D01*
X123058162Y-78247611D01*
X123084943Y-78247611D01*
X123284902Y-78207837D01*
X123473260Y-78129816D01*
X123642778Y-78016548D01*
X123786941Y-77872385D01*
X123900209Y-77702867D01*
X123978230Y-77514509D01*
X124018004Y-77314550D01*
X124018004Y-77177600D01*
X124129528Y-77177600D01*
X124132600Y-77191850D01*
X124291350Y-77350600D01*
X125390600Y-77350600D01*
X125390600Y-76701350D01*
X125231850Y-76542600D01*
X124767600Y-76539528D01*
X124643118Y-76551788D01*
X124523420Y-76588098D01*
X124413106Y-76647063D01*
X124316415Y-76726415D01*
X124237063Y-76823106D01*
X124178098Y-76933420D01*
X124141788Y-77053118D01*
X124129528Y-77177600D01*
X124018004Y-77177600D01*
X124018004Y-77110672D01*
X123978230Y-76910713D01*
X123900209Y-76722355D01*
X123786941Y-76552837D01*
X123642778Y-76408674D01*
X123473260Y-76295406D01*
X123339464Y-76239986D01*
X123440600Y-76138850D01*
X123440600Y-75414600D01*
X123694600Y-75414600D01*
X123694600Y-76138850D01*
X123853350Y-76297600D01*
X123967600Y-76300672D01*
X124092082Y-76288412D01*
X124211780Y-76252102D01*
X124322094Y-76193137D01*
X124418785Y-76113785D01*
X124498137Y-76017094D01*
X124557102Y-75906780D01*
X124593412Y-75787082D01*
X124605672Y-75662600D01*
X124602600Y-75573350D01*
X124443850Y-75414600D01*
X123694600Y-75414600D01*
X123440600Y-75414600D01*
X123420600Y-75414600D01*
X123420600Y-75160600D01*
X123440600Y-75160600D01*
X123440600Y-74436350D01*
X123694600Y-74436350D01*
X123694600Y-75160600D01*
X124443850Y-75160600D01*
X124602600Y-75001850D01*
X124605672Y-74912600D01*
X124593412Y-74788118D01*
X124557102Y-74668420D01*
X124498137Y-74558106D01*
X124418785Y-74461415D01*
X124322094Y-74382063D01*
X124211780Y-74323098D01*
X124092082Y-74286788D01*
X123967600Y-74274528D01*
X123853350Y-74277600D01*
X123694600Y-74436350D01*
X123440600Y-74436350D01*
X123281850Y-74277600D01*
X123167600Y-74274528D01*
X123043118Y-74286788D01*
X122923420Y-74323098D01*
X122817600Y-74379661D01*
X122817195Y-74379445D01*
X122796354Y-74310740D01*
X122723462Y-74174367D01*
X122669284Y-74108352D01*
X122649945Y-74084787D01*
X122649942Y-74084784D01*
X122625364Y-74054836D01*
X122595415Y-74030257D01*
X122452600Y-73887442D01*
X122452600Y-73885661D01*
X122412826Y-73685702D01*
X122334805Y-73497344D01*
X122305576Y-73453600D01*
X122325365Y-73437359D01*
X122423463Y-73317828D01*
X122496355Y-73181455D01*
X122541242Y-73033482D01*
X122552601Y-72918156D01*
X122552601Y-72918149D01*
X122553505Y-72908973D01*
X122719550Y-72908973D01*
X122919509Y-72869199D01*
X123107867Y-72791178D01*
X123277385Y-72677910D01*
X123421548Y-72533747D01*
X123534816Y-72364229D01*
X123612837Y-72175871D01*
X123652611Y-71975912D01*
X123652611Y-71772034D01*
X123612837Y-71572075D01*
X123534816Y-71383717D01*
X123421548Y-71214199D01*
X123402611Y-71195262D01*
X123402611Y-69671965D01*
X123416415Y-69688785D01*
X123482601Y-69743102D01*
X123482601Y-70149038D01*
X123478803Y-70187600D01*
X123493959Y-70341486D01*
X123538846Y-70489459D01*
X123538847Y-70489460D01*
X123611739Y-70625833D01*
X123627768Y-70645364D01*
X123685255Y-70715412D01*
X123685259Y-70715416D01*
X123709837Y-70745364D01*
X123739785Y-70769942D01*
X123929528Y-70959685D01*
X123929528Y-71262600D01*
X123941788Y-71387082D01*
X123978098Y-71506780D01*
X124037063Y-71617094D01*
X124116415Y-71713785D01*
X124182601Y-71768102D01*
X124182601Y-71799038D01*
X124178803Y-71837600D01*
X124193959Y-71991486D01*
X124238846Y-72139459D01*
X124258309Y-72175871D01*
X124311739Y-72275833D01*
X124328272Y-72295978D01*
X124382600Y-72362177D01*
X124382600Y-72389539D01*
X124422374Y-72589498D01*
X124500395Y-72777856D01*
X124613663Y-72947374D01*
X124757826Y-73091537D01*
X124927344Y-73204805D01*
X125115702Y-73282826D01*
X125315661Y-73322600D01*
X125519539Y-73322600D01*
X125719498Y-73282826D01*
X125907856Y-73204805D01*
X126077374Y-73091537D01*
X126221537Y-72947374D01*
X126334805Y-72777856D01*
X126412826Y-72589498D01*
X126452600Y-72389539D01*
X126452600Y-72185661D01*
X126412826Y-71985702D01*
X126334805Y-71797344D01*
X126313697Y-71765753D01*
X126340600Y-71738850D01*
X126340600Y-71014600D01*
X126320600Y-71014600D01*
X126320600Y-70760600D01*
X126340600Y-70760600D01*
X126340600Y-70036350D01*
X126181850Y-69877600D01*
X126067600Y-69874528D01*
X125943118Y-69886788D01*
X125823420Y-69923098D01*
X125717600Y-69979661D01*
X125611780Y-69923098D01*
X125492082Y-69886788D01*
X125367600Y-69874528D01*
X125064685Y-69874528D01*
X125052600Y-69862443D01*
X125052600Y-69743101D01*
X125118785Y-69688785D01*
X125198137Y-69592094D01*
X125217600Y-69555682D01*
X125237063Y-69592094D01*
X125316415Y-69688785D01*
X125413106Y-69768137D01*
X125523420Y-69827102D01*
X125643118Y-69863412D01*
X125767600Y-69875672D01*
X125881850Y-69872600D01*
X126040600Y-69713850D01*
X126040600Y-68914600D01*
X126020600Y-68914600D01*
X126020600Y-68660600D01*
X126040600Y-68660600D01*
X126040600Y-67861350D01*
X125955993Y-67776743D01*
X125972094Y-67768137D01*
X126068785Y-67688785D01*
X126148137Y-67592094D01*
X126207102Y-67481780D01*
X126243412Y-67362082D01*
X126255672Y-67237600D01*
X126255672Y-66639050D01*
X127132601Y-67515979D01*
G36*
X131207601Y-75637044D02*
G01*
X131107856Y-75570397D01*
X130919498Y-75492376D01*
X130719539Y-75452602D01*
X130515661Y-75452602D01*
X130315702Y-75492376D01*
X130127344Y-75570397D01*
X129957826Y-75683665D01*
X129813663Y-75827828D01*
X129700395Y-75997346D01*
X129622374Y-76185704D01*
X129582600Y-76385663D01*
X129582600Y-76589541D01*
X129622374Y-76789500D01*
X129700395Y-76977858D01*
X129813663Y-77147376D01*
X129957826Y-77291539D01*
X130127344Y-77404807D01*
X130315702Y-77482828D01*
X130399659Y-77499528D01*
X129302611Y-77499528D01*
X129302611Y-59726163D01*
X129306408Y-59687610D01*
X129302611Y-59649057D01*
X129302611Y-59649050D01*
X129291252Y-59533724D01*
X129285420Y-59514496D01*
X129246365Y-59385751D01*
X129220628Y-59337600D01*
X129173473Y-59249378D01*
X129075375Y-59129847D01*
X129045428Y-59105270D01*
X128302600Y-58362443D01*
X128302600Y-57874195D01*
X128317600Y-57875672D01*
X128817600Y-57875672D01*
X128942082Y-57863412D01*
X129061780Y-57827102D01*
X129172094Y-57768137D01*
X129268785Y-57688785D01*
X129317705Y-57629175D01*
X129357181Y-57679358D01*
X129452211Y-57760693D01*
X129561282Y-57821926D01*
X129680203Y-57860704D01*
X129785850Y-57872600D01*
X129944600Y-57713850D01*
X129944600Y-56914600D01*
X130190600Y-56914600D01*
X130190600Y-57713850D01*
X130349350Y-57872600D01*
X130454997Y-57860704D01*
X130573918Y-57821926D01*
X130682989Y-57760693D01*
X130778019Y-57679358D01*
X130855355Y-57581047D01*
X130912025Y-57469537D01*
X130945852Y-57349114D01*
X130955536Y-57224405D01*
X130952600Y-57073350D01*
X130793850Y-56914600D01*
X130190600Y-56914600D01*
X129944600Y-56914600D01*
X129920600Y-56914600D01*
X129920600Y-56660600D01*
X129944600Y-56660600D01*
X129944600Y-56640600D01*
X130190600Y-56640600D01*
X130190600Y-56660600D01*
X130793850Y-56660600D01*
X130952600Y-56501850D01*
X130955536Y-56350795D01*
X130945852Y-56226086D01*
X130912025Y-56105663D01*
X130855355Y-55994153D01*
X130778019Y-55895842D01*
X130682989Y-55814507D01*
X130667373Y-55805740D01*
X130761780Y-55777102D01*
X130872094Y-55718137D01*
X130968785Y-55638785D01*
X131048137Y-55542094D01*
X131107102Y-55431780D01*
X131143412Y-55312082D01*
X131155672Y-55187600D01*
X131155672Y-54387600D01*
X131143412Y-54263118D01*
X131107102Y-54143420D01*
X131048137Y-54033106D01*
X130968785Y-53936415D01*
X130872094Y-53857063D01*
X130867196Y-53854445D01*
X130846354Y-53785740D01*
X130773462Y-53649367D01*
X130675364Y-53529836D01*
X130645405Y-53505249D01*
X130342699Y-53202542D01*
X130459319Y-53154236D01*
X130905961Y-52855799D01*
X131207600Y-52554160D01*
X131207601Y-75637044D01*
X131207601Y-75637044D01*
G37*
X131207601Y-75637044D02*
X131107856Y-75570397D01*
X130919498Y-75492376D01*
X130719539Y-75452602D01*
X130515661Y-75452602D01*
X130315702Y-75492376D01*
X130127344Y-75570397D01*
X129957826Y-75683665D01*
X129813663Y-75827828D01*
X129700395Y-75997346D01*
X129622374Y-76185704D01*
X129582600Y-76385663D01*
X129582600Y-76589541D01*
X129622374Y-76789500D01*
X129700395Y-76977858D01*
X129813663Y-77147376D01*
X129957826Y-77291539D01*
X130127344Y-77404807D01*
X130315702Y-77482828D01*
X130399659Y-77499528D01*
X129302611Y-77499528D01*
X129302611Y-59726163D01*
X129306408Y-59687610D01*
X129302611Y-59649057D01*
X129302611Y-59649050D01*
X129291252Y-59533724D01*
X129285420Y-59514496D01*
X129246365Y-59385751D01*
X129220628Y-59337600D01*
X129173473Y-59249378D01*
X129075375Y-59129847D01*
X129045428Y-59105270D01*
X128302600Y-58362443D01*
X128302600Y-57874195D01*
X128317600Y-57875672D01*
X128817600Y-57875672D01*
X128942082Y-57863412D01*
X129061780Y-57827102D01*
X129172094Y-57768137D01*
X129268785Y-57688785D01*
X129317705Y-57629175D01*
X129357181Y-57679358D01*
X129452211Y-57760693D01*
X129561282Y-57821926D01*
X129680203Y-57860704D01*
X129785850Y-57872600D01*
X129944600Y-57713850D01*
X129944600Y-56914600D01*
X130190600Y-56914600D01*
X130190600Y-57713850D01*
X130349350Y-57872600D01*
X130454997Y-57860704D01*
X130573918Y-57821926D01*
X130682989Y-57760693D01*
X130778019Y-57679358D01*
X130855355Y-57581047D01*
X130912025Y-57469537D01*
X130945852Y-57349114D01*
X130955536Y-57224405D01*
X130952600Y-57073350D01*
X130793850Y-56914600D01*
X130190600Y-56914600D01*
X129944600Y-56914600D01*
X129920600Y-56914600D01*
X129920600Y-56660600D01*
X129944600Y-56660600D01*
X129944600Y-56640600D01*
X130190600Y-56640600D01*
X130190600Y-56660600D01*
X130793850Y-56660600D01*
X130952600Y-56501850D01*
X130955536Y-56350795D01*
X130945852Y-56226086D01*
X130912025Y-56105663D01*
X130855355Y-55994153D01*
X130778019Y-55895842D01*
X130682989Y-55814507D01*
X130667373Y-55805740D01*
X130761780Y-55777102D01*
X130872094Y-55718137D01*
X130968785Y-55638785D01*
X131048137Y-55542094D01*
X131107102Y-55431780D01*
X131143412Y-55312082D01*
X131155672Y-55187600D01*
X131155672Y-54387600D01*
X131143412Y-54263118D01*
X131107102Y-54143420D01*
X131048137Y-54033106D01*
X130968785Y-53936415D01*
X130872094Y-53857063D01*
X130867196Y-53854445D01*
X130846354Y-53785740D01*
X130773462Y-53649367D01*
X130675364Y-53529836D01*
X130645405Y-53505249D01*
X130342699Y-53202542D01*
X130459319Y-53154236D01*
X130905961Y-52855799D01*
X131207600Y-52554160D01*
X131207601Y-75637044D01*
G36*
X127049401Y-48999239D02*
G01*
X126750964Y-49445881D01*
X126545397Y-49942163D01*
X126440600Y-50469014D01*
X126440600Y-51006186D01*
X126545397Y-51533037D01*
X126750964Y-52029319D01*
X127049401Y-52475961D01*
X127429239Y-52855799D01*
X127509383Y-52909350D01*
X127476284Y-52919390D01*
X127339911Y-52992282D01*
X127220380Y-53090380D01*
X127195793Y-53120338D01*
X126989791Y-53326340D01*
X126959836Y-53350924D01*
X126861738Y-53470456D01*
X126788846Y-53606829D01*
X126743959Y-53754802D01*
X126732600Y-53870128D01*
X126732600Y-53870135D01*
X126728803Y-53908688D01*
X126732600Y-53947241D01*
X126732601Y-58649037D01*
X126728803Y-58687600D01*
X126743959Y-58841486D01*
X126788846Y-58989459D01*
X126788847Y-58989460D01*
X126861739Y-59125833D01*
X126884837Y-59153977D01*
X126935255Y-59215412D01*
X126935259Y-59215416D01*
X126959837Y-59245364D01*
X126989785Y-59269942D01*
X127296204Y-59576361D01*
X127215702Y-59592374D01*
X127108369Y-59636833D01*
X127072094Y-59607063D01*
X126961780Y-59548098D01*
X126842082Y-59511788D01*
X126717600Y-59499528D01*
X126217600Y-59499528D01*
X126093118Y-59511788D01*
X125973420Y-59548098D01*
X125863106Y-59607063D01*
X125766415Y-59686415D01*
X125717600Y-59745896D01*
X125668785Y-59686415D01*
X125572094Y-59607063D01*
X125461780Y-59548098D01*
X125342082Y-59511788D01*
X125217600Y-59499528D01*
X124717600Y-59499528D01*
X124593118Y-59511788D01*
X124473420Y-59548098D01*
X124363106Y-59607063D01*
X124266415Y-59686415D01*
X124187063Y-59783106D01*
X124128098Y-59893420D01*
X124091788Y-60013118D01*
X124079528Y-60137600D01*
X124079528Y-61037600D01*
X124086514Y-61108529D01*
X123604885Y-61590158D01*
X123574937Y-61614736D01*
X123550359Y-61644684D01*
X123550355Y-61644688D01*
X123524927Y-61675672D01*
X123476839Y-61734267D01*
X123437877Y-61807160D01*
X123403946Y-61870641D01*
X123359059Y-62018614D01*
X123343903Y-62172500D01*
X123347701Y-62211063D01*
X123347700Y-64545469D01*
X123219498Y-64492366D01*
X123019539Y-64452592D01*
X122815661Y-64452592D01*
X122794598Y-64456782D01*
X122794598Y-63558152D01*
X122798395Y-63519596D01*
X122794598Y-63481036D01*
X122794598Y-63481035D01*
X122788592Y-63420055D01*
X122783240Y-63365709D01*
X122738352Y-63217736D01*
X122711992Y-63168420D01*
X122665460Y-63081363D01*
X122567362Y-62961832D01*
X122537409Y-62937250D01*
X121959948Y-62359789D01*
X121935365Y-62329835D01*
X121815834Y-62231737D01*
X121679461Y-62158845D01*
X121531488Y-62113958D01*
X121416162Y-62102599D01*
X121416154Y-62102599D01*
X121377601Y-62098802D01*
X121339048Y-62102599D01*
X120562758Y-62102599D01*
X120989685Y-61675672D01*
X121017600Y-61675672D01*
X121142082Y-61663412D01*
X121261780Y-61627102D01*
X121372094Y-61568137D01*
X121468785Y-61488785D01*
X121548137Y-61392094D01*
X121607102Y-61281780D01*
X121643412Y-61162082D01*
X121655672Y-61037600D01*
X121655672Y-60809686D01*
X121845416Y-60619942D01*
X121875364Y-60595364D01*
X121903369Y-60561241D01*
X121924050Y-60536041D01*
X121973462Y-60475833D01*
X122046354Y-60339460D01*
X122091241Y-60191487D01*
X122102600Y-60076161D01*
X122102600Y-60076154D01*
X122106397Y-60037601D01*
X122102600Y-59999048D01*
X122102600Y-59816321D01*
X122121537Y-59797384D01*
X122234805Y-59627866D01*
X122312826Y-59439508D01*
X122352600Y-59239549D01*
X122352600Y-59035671D01*
X122312826Y-58835712D01*
X122234805Y-58647354D01*
X122121537Y-58477836D01*
X121977374Y-58333673D01*
X121807856Y-58220405D01*
X121619498Y-58142384D01*
X121419539Y-58102610D01*
X121215661Y-58102610D01*
X121015702Y-58142384D01*
X120827344Y-58220405D01*
X120657826Y-58333673D01*
X120513663Y-58477836D01*
X120400395Y-58647354D01*
X120322374Y-58835712D01*
X120282600Y-59035671D01*
X120282600Y-59239549D01*
X120322374Y-59439508D01*
X120356868Y-59522784D01*
X120273420Y-59548098D01*
X120163106Y-59607063D01*
X120066415Y-59686415D01*
X120017495Y-59746025D01*
X119978019Y-59695842D01*
X119882989Y-59614507D01*
X119773918Y-59553274D01*
X119654997Y-59514496D01*
X119549350Y-59502600D01*
X119390600Y-59661350D01*
X119390600Y-60460600D01*
X119414600Y-60460600D01*
X119414600Y-60714600D01*
X119390600Y-60714600D01*
X119390600Y-60734600D01*
X119144600Y-60734600D01*
X119144600Y-60714600D01*
X118541350Y-60714600D01*
X118382600Y-60873350D01*
X118379664Y-61024405D01*
X118389348Y-61149114D01*
X118423175Y-61269537D01*
X118479845Y-61381047D01*
X118557181Y-61479358D01*
X118652211Y-61560693D01*
X118761282Y-61621926D01*
X118807912Y-61637131D01*
X118384374Y-62060669D01*
X118219498Y-61992374D01*
X118019539Y-61952600D01*
X117815661Y-61952600D01*
X117615702Y-61992374D01*
X117427344Y-62070395D01*
X117257826Y-62183663D01*
X117113663Y-62327826D01*
X117000395Y-62497344D01*
X116922374Y-62685702D01*
X116882600Y-62885661D01*
X116882600Y-63089539D01*
X116922374Y-63289498D01*
X117000395Y-63477856D01*
X117113663Y-63647374D01*
X117257826Y-63791537D01*
X117427344Y-63904805D01*
X117615702Y-63982826D01*
X117815661Y-64022600D01*
X118019539Y-64022600D01*
X118219498Y-63982826D01*
X118379528Y-63916539D01*
X118379528Y-64237600D01*
X118391788Y-64362082D01*
X118428098Y-64481780D01*
X118487063Y-64592094D01*
X118566415Y-64688785D01*
X118663106Y-64768137D01*
X118773420Y-64827102D01*
X118893118Y-64863412D01*
X119017600Y-64875672D01*
X119517600Y-64875672D01*
X119642082Y-64863412D01*
X119700801Y-64845600D01*
X119700801Y-65006519D01*
X119740575Y-65206478D01*
X119818596Y-65394836D01*
X119931864Y-65564354D01*
X119982601Y-65615091D01*
X119982600Y-65901666D01*
X119978019Y-65895842D01*
X119882989Y-65814507D01*
X119773918Y-65753274D01*
X119654997Y-65714496D01*
X119549350Y-65702600D01*
X119390600Y-65861350D01*
X119390600Y-66660600D01*
X119414600Y-66660600D01*
X119414600Y-66914600D01*
X119390600Y-66914600D01*
X119390600Y-67713850D01*
X119549350Y-67872600D01*
X119654997Y-67860704D01*
X119773918Y-67821926D01*
X119882989Y-67760693D01*
X119978019Y-67679358D01*
X120017495Y-67629175D01*
X120066415Y-67688785D01*
X120163106Y-67768137D01*
X120247888Y-67813455D01*
X120213682Y-67831738D01*
X120175088Y-67863412D01*
X120124102Y-67905255D01*
X120124099Y-67905258D01*
X120094151Y-67929836D01*
X120069572Y-67959785D01*
X119439786Y-68589572D01*
X119409838Y-68614150D01*
X119385260Y-68644098D01*
X119385256Y-68644102D01*
X119371717Y-68660600D01*
X119311740Y-68733681D01*
X119281926Y-68789460D01*
X119238847Y-68870055D01*
X119193960Y-69018028D01*
X119178804Y-69171914D01*
X119182602Y-69210477D01*
X119182602Y-69934600D01*
X119144600Y-69934600D01*
X119144600Y-69914600D01*
X118541350Y-69914600D01*
X118382600Y-70073350D01*
X118379664Y-70224405D01*
X118389348Y-70349114D01*
X118423175Y-70469537D01*
X118479845Y-70581047D01*
X118557181Y-70679358D01*
X118652211Y-70760693D01*
X118761282Y-70821926D01*
X118880203Y-70860704D01*
X118985850Y-70872600D01*
X119140598Y-70717852D01*
X119140598Y-70872600D01*
X119182601Y-70872600D01*
X119182601Y-71462722D01*
X119106368Y-71411785D01*
X118918010Y-71333764D01*
X118718051Y-71293990D01*
X118688808Y-71293990D01*
X118612955Y-71231738D01*
X118476582Y-71158846D01*
X118328609Y-71113959D01*
X118213283Y-71102600D01*
X118213275Y-71102600D01*
X118174722Y-71098803D01*
X118136169Y-71102600D01*
X116820087Y-71102600D01*
X116919498Y-71082826D01*
X117107856Y-71004805D01*
X117277374Y-70891537D01*
X117421537Y-70747374D01*
X117534805Y-70577856D01*
X117612826Y-70389498D01*
X117652600Y-70189539D01*
X117652600Y-69985661D01*
X117612826Y-69785702D01*
X117534805Y-69597344D01*
X117421537Y-69427826D01*
X117344506Y-69350795D01*
X118379664Y-69350795D01*
X118382600Y-69501850D01*
X118541350Y-69660600D01*
X119144600Y-69660600D01*
X119144600Y-68861350D01*
X118985850Y-68702600D01*
X118880203Y-68714496D01*
X118761282Y-68753274D01*
X118652211Y-68814507D01*
X118557181Y-68895842D01*
X118479845Y-68994153D01*
X118423175Y-69105663D01*
X118389348Y-69226086D01*
X118379664Y-69350795D01*
X117344506Y-69350795D01*
X117277374Y-69283663D01*
X117107856Y-69170395D01*
X116919498Y-69092374D01*
X116719539Y-69052600D01*
X116598870Y-69052600D01*
X116471487Y-69013959D01*
X116356161Y-69002600D01*
X116356153Y-69002600D01*
X116317600Y-68998803D01*
X116279047Y-69002600D01*
X116258557Y-69002600D01*
X116248137Y-68983106D01*
X116168785Y-68886415D01*
X116072094Y-68807063D01*
X115961780Y-68748098D01*
X115842082Y-68711788D01*
X115717600Y-68699528D01*
X115217600Y-68699528D01*
X115093118Y-68711788D01*
X114973420Y-68748098D01*
X114863106Y-68807063D01*
X114766415Y-68886415D01*
X114752600Y-68903249D01*
X114752600Y-67673535D01*
X114757181Y-67679358D01*
X114852211Y-67760693D01*
X114961282Y-67821926D01*
X115080203Y-67860704D01*
X115185850Y-67872600D01*
X115344600Y-67713850D01*
X115344600Y-66914600D01*
X115590600Y-66914600D01*
X115590600Y-67713850D01*
X115749350Y-67872600D01*
X115854997Y-67860704D01*
X115973918Y-67821926D01*
X116082989Y-67760693D01*
X116178019Y-67679358D01*
X116255355Y-67581047D01*
X116312025Y-67469537D01*
X116345852Y-67349114D01*
X116355536Y-67224405D01*
X118379664Y-67224405D01*
X118389348Y-67349114D01*
X118423175Y-67469537D01*
X118479845Y-67581047D01*
X118557181Y-67679358D01*
X118652211Y-67760693D01*
X118761282Y-67821926D01*
X118880203Y-67860704D01*
X118985850Y-67872600D01*
X119144600Y-67713850D01*
X119144600Y-66914600D01*
X118541350Y-66914600D01*
X118382600Y-67073350D01*
X118379664Y-67224405D01*
X116355536Y-67224405D01*
X116352600Y-67073350D01*
X116193850Y-66914600D01*
X115590600Y-66914600D01*
X115344600Y-66914600D01*
X115320600Y-66914600D01*
X115320600Y-66660600D01*
X115344600Y-66660600D01*
X115344600Y-65861350D01*
X115590600Y-65861350D01*
X115590600Y-66660600D01*
X116193850Y-66660600D01*
X116352600Y-66501850D01*
X116355536Y-66350795D01*
X118379664Y-66350795D01*
X118382600Y-66501850D01*
X118541350Y-66660600D01*
X119144600Y-66660600D01*
X119144600Y-65861350D01*
X118985850Y-65702600D01*
X118880203Y-65714496D01*
X118761282Y-65753274D01*
X118652211Y-65814507D01*
X118557181Y-65895842D01*
X118479845Y-65994153D01*
X118423175Y-66105663D01*
X118389348Y-66226086D01*
X118379664Y-66350795D01*
X116355536Y-66350795D01*
X116345852Y-66226086D01*
X116312025Y-66105663D01*
X116255355Y-65994153D01*
X116178019Y-65895842D01*
X116082989Y-65814507D01*
X115973918Y-65753274D01*
X115854997Y-65714496D01*
X115749350Y-65702600D01*
X115590600Y-65861350D01*
X115344600Y-65861350D01*
X115185850Y-65702600D01*
X115080203Y-65714496D01*
X114961282Y-65753274D01*
X114852211Y-65814507D01*
X114757181Y-65895842D01*
X114752600Y-65901665D01*
X114752600Y-64714247D01*
X114823420Y-64752102D01*
X114943118Y-64788412D01*
X115067600Y-64800672D01*
X115181850Y-64797600D01*
X115340600Y-64638850D01*
X115340600Y-63914600D01*
X115594600Y-63914600D01*
X115594600Y-64638850D01*
X115753350Y-64797600D01*
X115867600Y-64800672D01*
X115992082Y-64788412D01*
X116111780Y-64752102D01*
X116222094Y-64693137D01*
X116318785Y-64613785D01*
X116398137Y-64517094D01*
X116457102Y-64406780D01*
X116493412Y-64287082D01*
X116505672Y-64162600D01*
X116502600Y-64073350D01*
X116343850Y-63914600D01*
X115594600Y-63914600D01*
X115340600Y-63914600D01*
X115320600Y-63914600D01*
X115320600Y-63660600D01*
X115340600Y-63660600D01*
X115340600Y-63640600D01*
X115594600Y-63640600D01*
X115594600Y-63660600D01*
X116343850Y-63660600D01*
X116502600Y-63501850D01*
X116505672Y-63412600D01*
X116493412Y-63288118D01*
X116457102Y-63168420D01*
X116398137Y-63058106D01*
X116318785Y-62961415D01*
X116222094Y-62882063D01*
X116111780Y-62823098D01*
X115992082Y-62786788D01*
X115867600Y-62774528D01*
X115807094Y-62776155D01*
X115822094Y-62768137D01*
X115918785Y-62688785D01*
X115998137Y-62592094D01*
X116057102Y-62481780D01*
X116093412Y-62362082D01*
X116105672Y-62237600D01*
X116102600Y-62073350D01*
X115943850Y-61914600D01*
X115194600Y-61914600D01*
X115194600Y-61934600D01*
X114940600Y-61934600D01*
X114940600Y-61914600D01*
X114920600Y-61914600D01*
X114920600Y-61660600D01*
X114940600Y-61660600D01*
X114940600Y-60861350D01*
X115194600Y-60861350D01*
X115194600Y-61660600D01*
X115943850Y-61660600D01*
X116102600Y-61501850D01*
X116105672Y-61337600D01*
X116093412Y-61213118D01*
X116057102Y-61093420D01*
X115998137Y-60983106D01*
X115918785Y-60886415D01*
X115822094Y-60807063D01*
X115711780Y-60748098D01*
X115592082Y-60711788D01*
X115467600Y-60699528D01*
X115353350Y-60702600D01*
X115194600Y-60861350D01*
X114940600Y-60861350D01*
X114855993Y-60776743D01*
X114872094Y-60768137D01*
X114968785Y-60688785D01*
X115048137Y-60592094D01*
X115107102Y-60481780D01*
X115143412Y-60362082D01*
X115153784Y-60256773D01*
X115171276Y-60224047D01*
X115193496Y-60150795D01*
X118379664Y-60150795D01*
X118382600Y-60301850D01*
X118541350Y-60460600D01*
X119144600Y-60460600D01*
X119144600Y-59661350D01*
X118985850Y-59502600D01*
X118880203Y-59514496D01*
X118761282Y-59553274D01*
X118652211Y-59614507D01*
X118557181Y-59695842D01*
X118479845Y-59794153D01*
X118423175Y-59905663D01*
X118389348Y-60026086D01*
X118379664Y-60150795D01*
X115193496Y-60150795D01*
X115236177Y-60010099D01*
X115258091Y-59787600D01*
X115255371Y-59759986D01*
X115895417Y-59119941D01*
X115925364Y-59095364D01*
X116023462Y-58975833D01*
X116096354Y-58839460D01*
X116097491Y-58835712D01*
X116141242Y-58691487D01*
X116152237Y-58579846D01*
X116152600Y-58576161D01*
X116152600Y-58576156D01*
X116156397Y-58537600D01*
X116152600Y-58499045D01*
X116152600Y-58383744D01*
X116207102Y-58281780D01*
X116243412Y-58162082D01*
X116255672Y-58037600D01*
X116255672Y-57269886D01*
X116300395Y-57377856D01*
X116413663Y-57547374D01*
X116557826Y-57691537D01*
X116727344Y-57804805D01*
X116915702Y-57882826D01*
X117115661Y-57922600D01*
X117319539Y-57922600D01*
X117519498Y-57882826D01*
X117707856Y-57804805D01*
X117877374Y-57691537D01*
X118021537Y-57547374D01*
X118134805Y-57377856D01*
X118212826Y-57189498D01*
X118252600Y-56989539D01*
X118252600Y-56785661D01*
X118240576Y-56725214D01*
X118257600Y-56725672D01*
X118382082Y-56713412D01*
X118501780Y-56677102D01*
X118612094Y-56618137D01*
X118708785Y-56538785D01*
X118788137Y-56442094D01*
X118847102Y-56331780D01*
X118883412Y-56212082D01*
X118893249Y-56112202D01*
X118917600Y-56114600D01*
X125917600Y-56114600D01*
X125942376Y-56112160D01*
X125966201Y-56104933D01*
X125988157Y-56093197D01*
X126007403Y-56077403D01*
X126023197Y-56058157D01*
X126034933Y-56036201D01*
X126042160Y-56012376D01*
X126044600Y-55987600D01*
X126044600Y-48697600D01*
X127351040Y-48697600D01*
X127049401Y-48999239D01*
X127049401Y-48999239D01*
G37*
X127049401Y-48999239D02*
X126750964Y-49445881D01*
X126545397Y-49942163D01*
X126440600Y-50469014D01*
X126440600Y-51006186D01*
X126545397Y-51533037D01*
X126750964Y-52029319D01*
X127049401Y-52475961D01*
X127429239Y-52855799D01*
X127509383Y-52909350D01*
X127476284Y-52919390D01*
X127339911Y-52992282D01*
X127220380Y-53090380D01*
X127195793Y-53120338D01*
X126989791Y-53326340D01*
X126959836Y-53350924D01*
X126861738Y-53470456D01*
X126788846Y-53606829D01*
X126743959Y-53754802D01*
X126732600Y-53870128D01*
X126732600Y-53870135D01*
X126728803Y-53908688D01*
X126732600Y-53947241D01*
X126732601Y-58649037D01*
X126728803Y-58687600D01*
X126743959Y-58841486D01*
X126788846Y-58989459D01*
X126788847Y-58989460D01*
X126861739Y-59125833D01*
X126884837Y-59153977D01*
X126935255Y-59215412D01*
X126935259Y-59215416D01*
X126959837Y-59245364D01*
X126989785Y-59269942D01*
X127296204Y-59576361D01*
X127215702Y-59592374D01*
X127108369Y-59636833D01*
X127072094Y-59607063D01*
X126961780Y-59548098D01*
X126842082Y-59511788D01*
X126717600Y-59499528D01*
X126217600Y-59499528D01*
X126093118Y-59511788D01*
X125973420Y-59548098D01*
X125863106Y-59607063D01*
X125766415Y-59686415D01*
X125717600Y-59745896D01*
X125668785Y-59686415D01*
X125572094Y-59607063D01*
X125461780Y-59548098D01*
X125342082Y-59511788D01*
X125217600Y-59499528D01*
X124717600Y-59499528D01*
X124593118Y-59511788D01*
X124473420Y-59548098D01*
X124363106Y-59607063D01*
X124266415Y-59686415D01*
X124187063Y-59783106D01*
X124128098Y-59893420D01*
X124091788Y-60013118D01*
X124079528Y-60137600D01*
X124079528Y-61037600D01*
X124086514Y-61108529D01*
X123604885Y-61590158D01*
X123574937Y-61614736D01*
X123550359Y-61644684D01*
X123550355Y-61644688D01*
X123524927Y-61675672D01*
X123476839Y-61734267D01*
X123437877Y-61807160D01*
X123403946Y-61870641D01*
X123359059Y-62018614D01*
X123343903Y-62172500D01*
X123347701Y-62211063D01*
X123347700Y-64545469D01*
X123219498Y-64492366D01*
X123019539Y-64452592D01*
X122815661Y-64452592D01*
X122794598Y-64456782D01*
X122794598Y-63558152D01*
X122798395Y-63519596D01*
X122794598Y-63481036D01*
X122794598Y-63481035D01*
X122788592Y-63420055D01*
X122783240Y-63365709D01*
X122738352Y-63217736D01*
X122711992Y-63168420D01*
X122665460Y-63081363D01*
X122567362Y-62961832D01*
X122537409Y-62937250D01*
X121959948Y-62359789D01*
X121935365Y-62329835D01*
X121815834Y-62231737D01*
X121679461Y-62158845D01*
X121531488Y-62113958D01*
X121416162Y-62102599D01*
X121416154Y-62102599D01*
X121377601Y-62098802D01*
X121339048Y-62102599D01*
X120562758Y-62102599D01*
X120989685Y-61675672D01*
X121017600Y-61675672D01*
X121142082Y-61663412D01*
X121261780Y-61627102D01*
X121372094Y-61568137D01*
X121468785Y-61488785D01*
X121548137Y-61392094D01*
X121607102Y-61281780D01*
X121643412Y-61162082D01*
X121655672Y-61037600D01*
X121655672Y-60809686D01*
X121845416Y-60619942D01*
X121875364Y-60595364D01*
X121903369Y-60561241D01*
X121924050Y-60536041D01*
X121973462Y-60475833D01*
X122046354Y-60339460D01*
X122091241Y-60191487D01*
X122102600Y-60076161D01*
X122102600Y-60076154D01*
X122106397Y-60037601D01*
X122102600Y-59999048D01*
X122102600Y-59816321D01*
X122121537Y-59797384D01*
X122234805Y-59627866D01*
X122312826Y-59439508D01*
X122352600Y-59239549D01*
X122352600Y-59035671D01*
X122312826Y-58835712D01*
X122234805Y-58647354D01*
X122121537Y-58477836D01*
X121977374Y-58333673D01*
X121807856Y-58220405D01*
X121619498Y-58142384D01*
X121419539Y-58102610D01*
X121215661Y-58102610D01*
X121015702Y-58142384D01*
X120827344Y-58220405D01*
X120657826Y-58333673D01*
X120513663Y-58477836D01*
X120400395Y-58647354D01*
X120322374Y-58835712D01*
X120282600Y-59035671D01*
X120282600Y-59239549D01*
X120322374Y-59439508D01*
X120356868Y-59522784D01*
X120273420Y-59548098D01*
X120163106Y-59607063D01*
X120066415Y-59686415D01*
X120017495Y-59746025D01*
X119978019Y-59695842D01*
X119882989Y-59614507D01*
X119773918Y-59553274D01*
X119654997Y-59514496D01*
X119549350Y-59502600D01*
X119390600Y-59661350D01*
X119390600Y-60460600D01*
X119414600Y-60460600D01*
X119414600Y-60714600D01*
X119390600Y-60714600D01*
X119390600Y-60734600D01*
X119144600Y-60734600D01*
X119144600Y-60714600D01*
X118541350Y-60714600D01*
X118382600Y-60873350D01*
X118379664Y-61024405D01*
X118389348Y-61149114D01*
X118423175Y-61269537D01*
X118479845Y-61381047D01*
X118557181Y-61479358D01*
X118652211Y-61560693D01*
X118761282Y-61621926D01*
X118807912Y-61637131D01*
X118384374Y-62060669D01*
X118219498Y-61992374D01*
X118019539Y-61952600D01*
X117815661Y-61952600D01*
X117615702Y-61992374D01*
X117427344Y-62070395D01*
X117257826Y-62183663D01*
X117113663Y-62327826D01*
X117000395Y-62497344D01*
X116922374Y-62685702D01*
X116882600Y-62885661D01*
X116882600Y-63089539D01*
X116922374Y-63289498D01*
X117000395Y-63477856D01*
X117113663Y-63647374D01*
X117257826Y-63791537D01*
X117427344Y-63904805D01*
X117615702Y-63982826D01*
X117815661Y-64022600D01*
X118019539Y-64022600D01*
X118219498Y-63982826D01*
X118379528Y-63916539D01*
X118379528Y-64237600D01*
X118391788Y-64362082D01*
X118428098Y-64481780D01*
X118487063Y-64592094D01*
X118566415Y-64688785D01*
X118663106Y-64768137D01*
X118773420Y-64827102D01*
X118893118Y-64863412D01*
X119017600Y-64875672D01*
X119517600Y-64875672D01*
X119642082Y-64863412D01*
X119700801Y-64845600D01*
X119700801Y-65006519D01*
X119740575Y-65206478D01*
X119818596Y-65394836D01*
X119931864Y-65564354D01*
X119982601Y-65615091D01*
X119982600Y-65901666D01*
X119978019Y-65895842D01*
X119882989Y-65814507D01*
X119773918Y-65753274D01*
X119654997Y-65714496D01*
X119549350Y-65702600D01*
X119390600Y-65861350D01*
X119390600Y-66660600D01*
X119414600Y-66660600D01*
X119414600Y-66914600D01*
X119390600Y-66914600D01*
X119390600Y-67713850D01*
X119549350Y-67872600D01*
X119654997Y-67860704D01*
X119773918Y-67821926D01*
X119882989Y-67760693D01*
X119978019Y-67679358D01*
X120017495Y-67629175D01*
X120066415Y-67688785D01*
X120163106Y-67768137D01*
X120247888Y-67813455D01*
X120213682Y-67831738D01*
X120175088Y-67863412D01*
X120124102Y-67905255D01*
X120124099Y-67905258D01*
X120094151Y-67929836D01*
X120069572Y-67959785D01*
X119439786Y-68589572D01*
X119409838Y-68614150D01*
X119385260Y-68644098D01*
X119385256Y-68644102D01*
X119371717Y-68660600D01*
X119311740Y-68733681D01*
X119281926Y-68789460D01*
X119238847Y-68870055D01*
X119193960Y-69018028D01*
X119178804Y-69171914D01*
X119182602Y-69210477D01*
X119182602Y-69934600D01*
X119144600Y-69934600D01*
X119144600Y-69914600D01*
X118541350Y-69914600D01*
X118382600Y-70073350D01*
X118379664Y-70224405D01*
X118389348Y-70349114D01*
X118423175Y-70469537D01*
X118479845Y-70581047D01*
X118557181Y-70679358D01*
X118652211Y-70760693D01*
X118761282Y-70821926D01*
X118880203Y-70860704D01*
X118985850Y-70872600D01*
X119140598Y-70717852D01*
X119140598Y-70872600D01*
X119182601Y-70872600D01*
X119182601Y-71462722D01*
X119106368Y-71411785D01*
X118918010Y-71333764D01*
X118718051Y-71293990D01*
X118688808Y-71293990D01*
X118612955Y-71231738D01*
X118476582Y-71158846D01*
X118328609Y-71113959D01*
X118213283Y-71102600D01*
X118213275Y-71102600D01*
X118174722Y-71098803D01*
X118136169Y-71102600D01*
X116820087Y-71102600D01*
X116919498Y-71082826D01*
X117107856Y-71004805D01*
X117277374Y-70891537D01*
X117421537Y-70747374D01*
X117534805Y-70577856D01*
X117612826Y-70389498D01*
X117652600Y-70189539D01*
X117652600Y-69985661D01*
X117612826Y-69785702D01*
X117534805Y-69597344D01*
X117421537Y-69427826D01*
X117344506Y-69350795D01*
X118379664Y-69350795D01*
X118382600Y-69501850D01*
X118541350Y-69660600D01*
X119144600Y-69660600D01*
X119144600Y-68861350D01*
X118985850Y-68702600D01*
X118880203Y-68714496D01*
X118761282Y-68753274D01*
X118652211Y-68814507D01*
X118557181Y-68895842D01*
X118479845Y-68994153D01*
X118423175Y-69105663D01*
X118389348Y-69226086D01*
X118379664Y-69350795D01*
X117344506Y-69350795D01*
X117277374Y-69283663D01*
X117107856Y-69170395D01*
X116919498Y-69092374D01*
X116719539Y-69052600D01*
X116598870Y-69052600D01*
X116471487Y-69013959D01*
X116356161Y-69002600D01*
X116356153Y-69002600D01*
X116317600Y-68998803D01*
X116279047Y-69002600D01*
X116258557Y-69002600D01*
X116248137Y-68983106D01*
X116168785Y-68886415D01*
X116072094Y-68807063D01*
X115961780Y-68748098D01*
X115842082Y-68711788D01*
X115717600Y-68699528D01*
X115217600Y-68699528D01*
X115093118Y-68711788D01*
X114973420Y-68748098D01*
X114863106Y-68807063D01*
X114766415Y-68886415D01*
X114752600Y-68903249D01*
X114752600Y-67673535D01*
X114757181Y-67679358D01*
X114852211Y-67760693D01*
X114961282Y-67821926D01*
X115080203Y-67860704D01*
X115185850Y-67872600D01*
X115344600Y-67713850D01*
X115344600Y-66914600D01*
X115590600Y-66914600D01*
X115590600Y-67713850D01*
X115749350Y-67872600D01*
X115854997Y-67860704D01*
X115973918Y-67821926D01*
X116082989Y-67760693D01*
X116178019Y-67679358D01*
X116255355Y-67581047D01*
X116312025Y-67469537D01*
X116345852Y-67349114D01*
X116355536Y-67224405D01*
X118379664Y-67224405D01*
X118389348Y-67349114D01*
X118423175Y-67469537D01*
X118479845Y-67581047D01*
X118557181Y-67679358D01*
X118652211Y-67760693D01*
X118761282Y-67821926D01*
X118880203Y-67860704D01*
X118985850Y-67872600D01*
X119144600Y-67713850D01*
X119144600Y-66914600D01*
X118541350Y-66914600D01*
X118382600Y-67073350D01*
X118379664Y-67224405D01*
X116355536Y-67224405D01*
X116352600Y-67073350D01*
X116193850Y-66914600D01*
X115590600Y-66914600D01*
X115344600Y-66914600D01*
X115320600Y-66914600D01*
X115320600Y-66660600D01*
X115344600Y-66660600D01*
X115344600Y-65861350D01*
X115590600Y-65861350D01*
X115590600Y-66660600D01*
X116193850Y-66660600D01*
X116352600Y-66501850D01*
X116355536Y-66350795D01*
X118379664Y-66350795D01*
X118382600Y-66501850D01*
X118541350Y-66660600D01*
X119144600Y-66660600D01*
X119144600Y-65861350D01*
X118985850Y-65702600D01*
X118880203Y-65714496D01*
X118761282Y-65753274D01*
X118652211Y-65814507D01*
X118557181Y-65895842D01*
X118479845Y-65994153D01*
X118423175Y-66105663D01*
X118389348Y-66226086D01*
X118379664Y-66350795D01*
X116355536Y-66350795D01*
X116345852Y-66226086D01*
X116312025Y-66105663D01*
X116255355Y-65994153D01*
X116178019Y-65895842D01*
X116082989Y-65814507D01*
X115973918Y-65753274D01*
X115854997Y-65714496D01*
X115749350Y-65702600D01*
X115590600Y-65861350D01*
X115344600Y-65861350D01*
X115185850Y-65702600D01*
X115080203Y-65714496D01*
X114961282Y-65753274D01*
X114852211Y-65814507D01*
X114757181Y-65895842D01*
X114752600Y-65901665D01*
X114752600Y-64714247D01*
X114823420Y-64752102D01*
X114943118Y-64788412D01*
X115067600Y-64800672D01*
X115181850Y-64797600D01*
X115340600Y-64638850D01*
X115340600Y-63914600D01*
X115594600Y-63914600D01*
X115594600Y-64638850D01*
X115753350Y-64797600D01*
X115867600Y-64800672D01*
X115992082Y-64788412D01*
X116111780Y-64752102D01*
X116222094Y-64693137D01*
X116318785Y-64613785D01*
X116398137Y-64517094D01*
X116457102Y-64406780D01*
X116493412Y-64287082D01*
X116505672Y-64162600D01*
X116502600Y-64073350D01*
X116343850Y-63914600D01*
X115594600Y-63914600D01*
X115340600Y-63914600D01*
X115320600Y-63914600D01*
X115320600Y-63660600D01*
X115340600Y-63660600D01*
X115340600Y-63640600D01*
X115594600Y-63640600D01*
X115594600Y-63660600D01*
X116343850Y-63660600D01*
X116502600Y-63501850D01*
X116505672Y-63412600D01*
X116493412Y-63288118D01*
X116457102Y-63168420D01*
X116398137Y-63058106D01*
X116318785Y-62961415D01*
X116222094Y-62882063D01*
X116111780Y-62823098D01*
X115992082Y-62786788D01*
X115867600Y-62774528D01*
X115807094Y-62776155D01*
X115822094Y-62768137D01*
X115918785Y-62688785D01*
X115998137Y-62592094D01*
X116057102Y-62481780D01*
X116093412Y-62362082D01*
X116105672Y-62237600D01*
X116102600Y-62073350D01*
X115943850Y-61914600D01*
X115194600Y-61914600D01*
X115194600Y-61934600D01*
X114940600Y-61934600D01*
X114940600Y-61914600D01*
X114920600Y-61914600D01*
X114920600Y-61660600D01*
X114940600Y-61660600D01*
X114940600Y-60861350D01*
X115194600Y-60861350D01*
X115194600Y-61660600D01*
X115943850Y-61660600D01*
X116102600Y-61501850D01*
X116105672Y-61337600D01*
X116093412Y-61213118D01*
X116057102Y-61093420D01*
X115998137Y-60983106D01*
X115918785Y-60886415D01*
X115822094Y-60807063D01*
X115711780Y-60748098D01*
X115592082Y-60711788D01*
X115467600Y-60699528D01*
X115353350Y-60702600D01*
X115194600Y-60861350D01*
X114940600Y-60861350D01*
X114855993Y-60776743D01*
X114872094Y-60768137D01*
X114968785Y-60688785D01*
X115048137Y-60592094D01*
X115107102Y-60481780D01*
X115143412Y-60362082D01*
X115153784Y-60256773D01*
X115171276Y-60224047D01*
X115193496Y-60150795D01*
X118379664Y-60150795D01*
X118382600Y-60301850D01*
X118541350Y-60460600D01*
X119144600Y-60460600D01*
X119144600Y-59661350D01*
X118985850Y-59502600D01*
X118880203Y-59514496D01*
X118761282Y-59553274D01*
X118652211Y-59614507D01*
X118557181Y-59695842D01*
X118479845Y-59794153D01*
X118423175Y-59905663D01*
X118389348Y-60026086D01*
X118379664Y-60150795D01*
X115193496Y-60150795D01*
X115236177Y-60010099D01*
X115258091Y-59787600D01*
X115255371Y-59759986D01*
X115895417Y-59119941D01*
X115925364Y-59095364D01*
X116023462Y-58975833D01*
X116096354Y-58839460D01*
X116097491Y-58835712D01*
X116141242Y-58691487D01*
X116152237Y-58579846D01*
X116152600Y-58576161D01*
X116152600Y-58576156D01*
X116156397Y-58537600D01*
X116152600Y-58499045D01*
X116152600Y-58383744D01*
X116207102Y-58281780D01*
X116243412Y-58162082D01*
X116255672Y-58037600D01*
X116255672Y-57269886D01*
X116300395Y-57377856D01*
X116413663Y-57547374D01*
X116557826Y-57691537D01*
X116727344Y-57804805D01*
X116915702Y-57882826D01*
X117115661Y-57922600D01*
X117319539Y-57922600D01*
X117519498Y-57882826D01*
X117707856Y-57804805D01*
X117877374Y-57691537D01*
X118021537Y-57547374D01*
X118134805Y-57377856D01*
X118212826Y-57189498D01*
X118252600Y-56989539D01*
X118252600Y-56785661D01*
X118240576Y-56725214D01*
X118257600Y-56725672D01*
X118382082Y-56713412D01*
X118501780Y-56677102D01*
X118612094Y-56618137D01*
X118708785Y-56538785D01*
X118788137Y-56442094D01*
X118847102Y-56331780D01*
X118883412Y-56212082D01*
X118893249Y-56112202D01*
X118917600Y-56114600D01*
X125917600Y-56114600D01*
X125942376Y-56112160D01*
X125966201Y-56104933D01*
X125988157Y-56093197D01*
X126007403Y-56077403D01*
X126023197Y-56058157D01*
X126034933Y-56036201D01*
X126042160Y-56012376D01*
X126044600Y-55987600D01*
X126044600Y-48697600D01*
X127351040Y-48697600D01*
X127049401Y-48999239D01*
G36*
X112178098Y-61093420D02*
G01*
X112141788Y-61213118D01*
X112129528Y-61337600D01*
X112129528Y-62237600D01*
X112141788Y-62362082D01*
X112178098Y-62481780D01*
X112237063Y-62592094D01*
X112316415Y-62688785D01*
X112382600Y-62743102D01*
X112382600Y-62949047D01*
X112378803Y-62987600D01*
X112382600Y-63026153D01*
X112382600Y-63026160D01*
X112393959Y-63141486D01*
X112438846Y-63289459D01*
X112511738Y-63425832D01*
X112609836Y-63545364D01*
X112639788Y-63569945D01*
X112929528Y-63859685D01*
X112929528Y-64162600D01*
X112941788Y-64287082D01*
X112978098Y-64406780D01*
X113037063Y-64517094D01*
X113116415Y-64613785D01*
X113182601Y-64668102D01*
X113182600Y-65991455D01*
X113128098Y-66093420D01*
X113091788Y-66213118D01*
X113079528Y-66337600D01*
X113079528Y-67237600D01*
X113091788Y-67362082D01*
X113128098Y-67481780D01*
X113182600Y-67583745D01*
X113182601Y-68991454D01*
X113128098Y-69093420D01*
X113091788Y-69213118D01*
X113079528Y-69337600D01*
X113079528Y-70237600D01*
X113091788Y-70362082D01*
X113128098Y-70481780D01*
X113187063Y-70592094D01*
X113266415Y-70688785D01*
X113363106Y-70768137D01*
X113473420Y-70827102D01*
X113593118Y-70863412D01*
X113717600Y-70875672D01*
X114217600Y-70875672D01*
X114342082Y-70863412D01*
X114461780Y-70827102D01*
X114572094Y-70768137D01*
X114668785Y-70688785D01*
X114717600Y-70629304D01*
X114766415Y-70688785D01*
X114863106Y-70768137D01*
X114973420Y-70827102D01*
X115093118Y-70863412D01*
X115217600Y-70875672D01*
X115717600Y-70875672D01*
X115842082Y-70863412D01*
X115909308Y-70843019D01*
X115957826Y-70891537D01*
X116127344Y-71004805D01*
X116315702Y-71082826D01*
X116415113Y-71102600D01*
X111785283Y-71102600D01*
X111748137Y-71033106D01*
X111668785Y-70936415D01*
X111572094Y-70857063D01*
X111461780Y-70798098D01*
X111342082Y-70761788D01*
X111217600Y-70749528D01*
X109642161Y-70749528D01*
X109617600Y-70747109D01*
X109593039Y-70749528D01*
X108700144Y-70749528D01*
X109010445Y-70439227D01*
X109115702Y-70482826D01*
X109315661Y-70522600D01*
X109519539Y-70522600D01*
X109719498Y-70482826D01*
X109907856Y-70404805D01*
X110077374Y-70291537D01*
X110221537Y-70147374D01*
X110334805Y-69977856D01*
X110412826Y-69789498D01*
X110452600Y-69589539D01*
X110452600Y-69385661D01*
X110412826Y-69185702D01*
X110334805Y-68997344D01*
X110221537Y-68827826D01*
X110077374Y-68683663D01*
X109907856Y-68570395D01*
X109719498Y-68492374D01*
X109519539Y-68452600D01*
X109315661Y-68452600D01*
X109115702Y-68492374D01*
X108927344Y-68570395D01*
X108757826Y-68683663D01*
X108730754Y-68710735D01*
X108698028Y-68713958D01*
X108679002Y-68719730D01*
X110380741Y-67017991D01*
X110424049Y-66982449D01*
X110552713Y-66825672D01*
X111217600Y-66825672D01*
X111342082Y-66813412D01*
X111461780Y-66777102D01*
X111572094Y-66718137D01*
X111668785Y-66638785D01*
X111748137Y-66542094D01*
X111807102Y-66431780D01*
X111843412Y-66312082D01*
X111855672Y-66187600D01*
X111855672Y-65187600D01*
X111843412Y-65063118D01*
X111807102Y-64943420D01*
X111748137Y-64833106D01*
X111668785Y-64736415D01*
X111572094Y-64657063D01*
X111461780Y-64598098D01*
X111446293Y-64593400D01*
X111461780Y-64588702D01*
X111572094Y-64529737D01*
X111668785Y-64450385D01*
X111748137Y-64353694D01*
X111807102Y-64243380D01*
X111843412Y-64123682D01*
X111855672Y-63999200D01*
X111855672Y-62999200D01*
X111843412Y-62874718D01*
X111807102Y-62755020D01*
X111748137Y-62644706D01*
X111668785Y-62548015D01*
X111572094Y-62468663D01*
X111461780Y-62409698D01*
X111342082Y-62373388D01*
X111217600Y-62361128D01*
X110860803Y-62361128D01*
X112235038Y-60986895D01*
X112178098Y-61093420D01*
X112178098Y-61093420D01*
G37*
X112178098Y-61093420D02*
X112141788Y-61213118D01*
X112129528Y-61337600D01*
X112129528Y-62237600D01*
X112141788Y-62362082D01*
X112178098Y-62481780D01*
X112237063Y-62592094D01*
X112316415Y-62688785D01*
X112382600Y-62743102D01*
X112382600Y-62949047D01*
X112378803Y-62987600D01*
X112382600Y-63026153D01*
X112382600Y-63026160D01*
X112393959Y-63141486D01*
X112438846Y-63289459D01*
X112511738Y-63425832D01*
X112609836Y-63545364D01*
X112639788Y-63569945D01*
X112929528Y-63859685D01*
X112929528Y-64162600D01*
X112941788Y-64287082D01*
X112978098Y-64406780D01*
X113037063Y-64517094D01*
X113116415Y-64613785D01*
X113182601Y-64668102D01*
X113182600Y-65991455D01*
X113128098Y-66093420D01*
X113091788Y-66213118D01*
X113079528Y-66337600D01*
X113079528Y-67237600D01*
X113091788Y-67362082D01*
X113128098Y-67481780D01*
X113182600Y-67583745D01*
X113182601Y-68991454D01*
X113128098Y-69093420D01*
X113091788Y-69213118D01*
X113079528Y-69337600D01*
X113079528Y-70237600D01*
X113091788Y-70362082D01*
X113128098Y-70481780D01*
X113187063Y-70592094D01*
X113266415Y-70688785D01*
X113363106Y-70768137D01*
X113473420Y-70827102D01*
X113593118Y-70863412D01*
X113717600Y-70875672D01*
X114217600Y-70875672D01*
X114342082Y-70863412D01*
X114461780Y-70827102D01*
X114572094Y-70768137D01*
X114668785Y-70688785D01*
X114717600Y-70629304D01*
X114766415Y-70688785D01*
X114863106Y-70768137D01*
X114973420Y-70827102D01*
X115093118Y-70863412D01*
X115217600Y-70875672D01*
X115717600Y-70875672D01*
X115842082Y-70863412D01*
X115909308Y-70843019D01*
X115957826Y-70891537D01*
X116127344Y-71004805D01*
X116315702Y-71082826D01*
X116415113Y-71102600D01*
X111785283Y-71102600D01*
X111748137Y-71033106D01*
X111668785Y-70936415D01*
X111572094Y-70857063D01*
X111461780Y-70798098D01*
X111342082Y-70761788D01*
X111217600Y-70749528D01*
X109642161Y-70749528D01*
X109617600Y-70747109D01*
X109593039Y-70749528D01*
X108700144Y-70749528D01*
X109010445Y-70439227D01*
X109115702Y-70482826D01*
X109315661Y-70522600D01*
X109519539Y-70522600D01*
X109719498Y-70482826D01*
X109907856Y-70404805D01*
X110077374Y-70291537D01*
X110221537Y-70147374D01*
X110334805Y-69977856D01*
X110412826Y-69789498D01*
X110452600Y-69589539D01*
X110452600Y-69385661D01*
X110412826Y-69185702D01*
X110334805Y-68997344D01*
X110221537Y-68827826D01*
X110077374Y-68683663D01*
X109907856Y-68570395D01*
X109719498Y-68492374D01*
X109519539Y-68452600D01*
X109315661Y-68452600D01*
X109115702Y-68492374D01*
X108927344Y-68570395D01*
X108757826Y-68683663D01*
X108730754Y-68710735D01*
X108698028Y-68713958D01*
X108679002Y-68719730D01*
X110380741Y-67017991D01*
X110424049Y-66982449D01*
X110552713Y-66825672D01*
X111217600Y-66825672D01*
X111342082Y-66813412D01*
X111461780Y-66777102D01*
X111572094Y-66718137D01*
X111668785Y-66638785D01*
X111748137Y-66542094D01*
X111807102Y-66431780D01*
X111843412Y-66312082D01*
X111855672Y-66187600D01*
X111855672Y-65187600D01*
X111843412Y-65063118D01*
X111807102Y-64943420D01*
X111748137Y-64833106D01*
X111668785Y-64736415D01*
X111572094Y-64657063D01*
X111461780Y-64598098D01*
X111446293Y-64593400D01*
X111461780Y-64588702D01*
X111572094Y-64529737D01*
X111668785Y-64450385D01*
X111748137Y-64353694D01*
X111807102Y-64243380D01*
X111843412Y-64123682D01*
X111855672Y-63999200D01*
X111855672Y-62999200D01*
X111843412Y-62874718D01*
X111807102Y-62755020D01*
X111748137Y-62644706D01*
X111668785Y-62548015D01*
X111572094Y-62468663D01*
X111461780Y-62409698D01*
X111342082Y-62373388D01*
X111217600Y-62361128D01*
X110860803Y-62361128D01*
X112235038Y-60986895D01*
X112178098Y-61093420D01*
M02*
