G04 #@! TF.GenerationSoftware,KiCad,Pcbnew,(5.1.0)-1*
G04 #@! TF.CreationDate,2019-12-22T19:44:08+00:00*
G04 #@! TF.ProjectId,v4,76342e6b-6963-4616-945f-706362585858,rev?*
G04 #@! TF.SameCoordinates,Original*
G04 #@! TF.FileFunction,Legend,Top*
G04 #@! TF.FilePolarity,Positive*
%FSLAX46Y46*%
G04 Gerber Fmt 4.6, Leading zero omitted, Abs format (unit mm)*
G04 Created by KiCad (PCBNEW (5.1.0)-1) date 2019-12-22 19:44:08*
%MOMM*%
%LPD*%
G04 APERTURE LIST*
%ADD10C,0.300000*%
%ADD11C,0.150000*%
%ADD12C,0.200000*%
%ADD13C,0.380000*%
%ADD14C,0.120000*%
G04 APERTURE END LIST*
D10*
X122946171Y-89094742D02*
X124089028Y-89094742D01*
X123517600Y-89666171D02*
X123517600Y-88523314D01*
D11*
X117333225Y-85159028D02*
X117390367Y-85159028D01*
X117443939Y-85187600D01*
X117468939Y-85216171D01*
X117490367Y-85273314D01*
X117504653Y-85387600D01*
X117486796Y-85530457D01*
X117443939Y-85644742D01*
X117408225Y-85701885D01*
X117376082Y-85730457D01*
X117315367Y-85759028D01*
X117258225Y-85759028D01*
X117204653Y-85730457D01*
X117179653Y-85701885D01*
X117158225Y-85644742D01*
X117143939Y-85530457D01*
X117161796Y-85387600D01*
X117204653Y-85273314D01*
X117240367Y-85216171D01*
X117272510Y-85187600D01*
X117333225Y-85159028D01*
X118047510Y-85159028D02*
X117933225Y-85159028D01*
X117872510Y-85187600D01*
X117840367Y-85216171D01*
X117772510Y-85301885D01*
X117729653Y-85416171D01*
X117701082Y-85644742D01*
X117722510Y-85701885D01*
X117747510Y-85730457D01*
X117801082Y-85759028D01*
X117915367Y-85759028D01*
X117976082Y-85730457D01*
X118008225Y-85701885D01*
X118043939Y-85644742D01*
X118061796Y-85501885D01*
X118040367Y-85444742D01*
X118015367Y-85416171D01*
X117961796Y-85387600D01*
X117847510Y-85387600D01*
X117786796Y-85416171D01*
X117754653Y-85444742D01*
X117718939Y-85501885D01*
X118476082Y-85159028D02*
X118533225Y-85159028D01*
X118586796Y-85187600D01*
X118611796Y-85216171D01*
X118633225Y-85273314D01*
X118647510Y-85387600D01*
X118629653Y-85530457D01*
X118586796Y-85644742D01*
X118551082Y-85701885D01*
X118518939Y-85730457D01*
X118458225Y-85759028D01*
X118401082Y-85759028D01*
X118347510Y-85730457D01*
X118322510Y-85701885D01*
X118301082Y-85644742D01*
X118286796Y-85530457D01*
X118304653Y-85387600D01*
X118347510Y-85273314D01*
X118383225Y-85216171D01*
X118415367Y-85187600D01*
X118476082Y-85159028D01*
X118876082Y-85159028D02*
X119247510Y-85159028D01*
X119018939Y-85387600D01*
X119104653Y-85387600D01*
X119158225Y-85416171D01*
X119183225Y-85444742D01*
X119204653Y-85501885D01*
X119186796Y-85644742D01*
X119151082Y-85701885D01*
X119118939Y-85730457D01*
X119058225Y-85759028D01*
X118886796Y-85759028D01*
X118833225Y-85730457D01*
X118808225Y-85701885D01*
X120133225Y-85159028D02*
X120079653Y-85587600D01*
X120040367Y-85673314D01*
X119976082Y-85730457D01*
X119886796Y-85759028D01*
X119829653Y-85759028D01*
X120629653Y-85759028D02*
X120343939Y-85759028D01*
X120418939Y-85159028D01*
X121179653Y-85701885D02*
X121147510Y-85730457D01*
X121058225Y-85759028D01*
X121001082Y-85759028D01*
X120918939Y-85730457D01*
X120868939Y-85673314D01*
X120847510Y-85616171D01*
X120833225Y-85501885D01*
X120843939Y-85416171D01*
X120886796Y-85301885D01*
X120922510Y-85244742D01*
X120986796Y-85187600D01*
X121076082Y-85159028D01*
X121133225Y-85159028D01*
X121215367Y-85187600D01*
X121240367Y-85216171D01*
X121429653Y-85759028D02*
X121504653Y-85159028D01*
X121733225Y-85159028D01*
X121786796Y-85187600D01*
X121811796Y-85216171D01*
X121833225Y-85273314D01*
X121822510Y-85359028D01*
X121786796Y-85416171D01*
X121754653Y-85444742D01*
X121693939Y-85473314D01*
X121465367Y-85473314D01*
X122379653Y-85701885D02*
X122347510Y-85730457D01*
X122258225Y-85759028D01*
X122201082Y-85759028D01*
X122118939Y-85730457D01*
X122068939Y-85673314D01*
X122047510Y-85616171D01*
X122033225Y-85501885D01*
X122043939Y-85416171D01*
X122086796Y-85301885D01*
X122122510Y-85244742D01*
X122186796Y-85187600D01*
X122276082Y-85159028D01*
X122333225Y-85159028D01*
X122415367Y-85187600D01*
X122440367Y-85216171D01*
X122868939Y-85444742D02*
X122951082Y-85473314D01*
X122976082Y-85501885D01*
X122997510Y-85559028D01*
X122986796Y-85644742D01*
X122951082Y-85701885D01*
X122918939Y-85730457D01*
X122858225Y-85759028D01*
X122629653Y-85759028D01*
X122704653Y-85159028D01*
X122904653Y-85159028D01*
X122958225Y-85187600D01*
X122983225Y-85216171D01*
X123004653Y-85273314D01*
X122997510Y-85330457D01*
X122961796Y-85387600D01*
X122929653Y-85416171D01*
X122868939Y-85444742D01*
X122668939Y-85444742D01*
D12*
X115710457Y-55144742D02*
X115710457Y-55830457D01*
X115710457Y-55487600D02*
X114510457Y-55487600D01*
X114681885Y-55601885D01*
X114796171Y-55716171D01*
X114853314Y-55830457D01*
D10*
X113521171Y-85243671D02*
X112021171Y-85056171D01*
X112021171Y-84699028D01*
X112092600Y-84493671D01*
X112235457Y-84368671D01*
X112378314Y-84315100D01*
X112664028Y-84279385D01*
X112878314Y-84306171D01*
X113164028Y-84413314D01*
X113306885Y-84502600D01*
X113449742Y-84663314D01*
X113521171Y-84886528D01*
X113521171Y-85243671D01*
X113092600Y-83761528D02*
X113092600Y-83047242D01*
X113521171Y-83957957D02*
X112021171Y-83270457D01*
X113521171Y-82957957D01*
X113521171Y-82457957D02*
X112021171Y-82270457D01*
X113521171Y-81600814D01*
X112021171Y-81413314D01*
X112092600Y-79922242D02*
X112021171Y-80056171D01*
X112021171Y-80270457D01*
X112092600Y-80493671D01*
X112235457Y-80654385D01*
X112378314Y-80743671D01*
X112664028Y-80850814D01*
X112878314Y-80877600D01*
X113164028Y-80841885D01*
X113306885Y-80788314D01*
X113449742Y-80663314D01*
X113521171Y-80457957D01*
X113521171Y-80315100D01*
X113449742Y-80091885D01*
X113378314Y-80011528D01*
X112878314Y-79949028D01*
X112878314Y-80234742D01*
X112735457Y-79288314D02*
X112735457Y-78788314D01*
X113521171Y-78672242D02*
X113521171Y-79386528D01*
X112021171Y-79199028D01*
X112021171Y-78484742D01*
X113521171Y-77172242D02*
X112806885Y-77582957D01*
X113521171Y-78029385D02*
X112021171Y-77841885D01*
X112021171Y-77270457D01*
X112092600Y-77136528D01*
X112164028Y-77074028D01*
X112306885Y-77020457D01*
X112521171Y-77047242D01*
X112664028Y-77136528D01*
X112735457Y-77216885D01*
X112806885Y-77368671D01*
X112806885Y-77940100D01*
X116071171Y-83386528D02*
X114571171Y-83199028D01*
X115285457Y-83288314D02*
X115285457Y-82431171D01*
X116071171Y-82529385D02*
X114571171Y-82341885D01*
X114571171Y-81341885D02*
X114571171Y-81056171D01*
X114642600Y-80922242D01*
X114785457Y-80797242D01*
X115071171Y-80761528D01*
X115571171Y-80824028D01*
X115856885Y-80931171D01*
X115999742Y-81091885D01*
X116071171Y-81243671D01*
X116071171Y-81529385D01*
X115999742Y-81663314D01*
X115856885Y-81788314D01*
X115571171Y-81824028D01*
X115071171Y-81761528D01*
X114785457Y-81654385D01*
X114642600Y-81493671D01*
X114571171Y-81341885D01*
X114571171Y-80270457D02*
X114571171Y-79413314D01*
X116071171Y-80029385D02*
X114571171Y-79841885D01*
X115928314Y-79082957D02*
X115999742Y-79020457D01*
X116071171Y-79100814D01*
X115999742Y-79163314D01*
X115928314Y-79082957D01*
X116071171Y-79100814D01*
X115499742Y-79029385D02*
X114642600Y-78993671D01*
X114571171Y-78913314D01*
X114642600Y-78850814D01*
X115499742Y-79029385D01*
X114571171Y-78913314D01*
X112589028Y-89875695D02*
X111846171Y-89875695D01*
X112217600Y-89875695D02*
X112217600Y-88575695D01*
X112093790Y-88761409D01*
X111969980Y-88885219D01*
X111846171Y-88947123D01*
D13*
X130631885Y-76356028D02*
X128831885Y-76356028D01*
X128831885Y-75927457D01*
X128917600Y-75670314D01*
X129089028Y-75498885D01*
X129260457Y-75413171D01*
X129603314Y-75327457D01*
X129860457Y-75327457D01*
X130203314Y-75413171D01*
X130374742Y-75498885D01*
X130546171Y-75670314D01*
X130631885Y-75927457D01*
X130631885Y-76356028D01*
X130631885Y-74556028D02*
X128831885Y-74556028D01*
X129774742Y-73356028D02*
X130631885Y-73356028D01*
X128831885Y-73956028D02*
X129774742Y-73356028D01*
X128831885Y-72756028D01*
X129689028Y-71556028D02*
X129774742Y-71298885D01*
X129860457Y-71213171D01*
X130031885Y-71127457D01*
X130289028Y-71127457D01*
X130460457Y-71213171D01*
X130546171Y-71298885D01*
X130631885Y-71470314D01*
X130631885Y-72156028D01*
X128831885Y-72156028D01*
X128831885Y-71556028D01*
X128917600Y-71384600D01*
X129003314Y-71298885D01*
X129174742Y-71213171D01*
X129346171Y-71213171D01*
X129517600Y-71298885D01*
X129603314Y-71384600D01*
X129689028Y-71556028D01*
X129689028Y-72156028D01*
X130631885Y-70356028D02*
X128831885Y-70356028D01*
X130117600Y-69756028D01*
X128831885Y-69156028D01*
X130631885Y-69156028D01*
X130546171Y-68384600D02*
X130631885Y-68127457D01*
X130631885Y-67698885D01*
X130546171Y-67527457D01*
X130460457Y-67441742D01*
X130289028Y-67356028D01*
X130117600Y-67356028D01*
X129946171Y-67441742D01*
X129860457Y-67527457D01*
X129774742Y-67698885D01*
X129689028Y-68041742D01*
X129603314Y-68213171D01*
X129517600Y-68298885D01*
X129346171Y-68384600D01*
X129174742Y-68384600D01*
X129003314Y-68298885D01*
X128917600Y-68213171D01*
X128831885Y-68041742D01*
X128831885Y-67613171D01*
X128917600Y-67356028D01*
X129431885Y-65384600D02*
X130631885Y-64956028D01*
X129431885Y-64527457D01*
X129431885Y-63070314D02*
X130631885Y-63070314D01*
X128746171Y-63498885D02*
X130031885Y-63927457D01*
X130031885Y-62813171D01*
X130460457Y-62127457D02*
X130546171Y-62041742D01*
X130631885Y-62127457D01*
X130546171Y-62213171D01*
X130460457Y-62127457D01*
X130631885Y-62127457D01*
X129003314Y-61356028D02*
X128917600Y-61270314D01*
X128831885Y-61098885D01*
X128831885Y-60670314D01*
X128917600Y-60498885D01*
X129003314Y-60413171D01*
X129174742Y-60327457D01*
X129346171Y-60327457D01*
X129603314Y-60413171D01*
X130631885Y-61441742D01*
X130631885Y-60327457D01*
D10*
X120146171Y-65766171D02*
X119289028Y-65766171D01*
X119717600Y-65766171D02*
X119717600Y-64266171D01*
X119574742Y-64480457D01*
X119431885Y-64623314D01*
X119289028Y-64694742D01*
X122089028Y-89180457D02*
X120946171Y-89180457D01*
X110631885Y-100942571D02*
X111560457Y-100942571D01*
X111060457Y-101514000D01*
X111274742Y-101514000D01*
X111417600Y-101585428D01*
X111489028Y-101656857D01*
X111560457Y-101799714D01*
X111560457Y-102156857D01*
X111489028Y-102299714D01*
X111417600Y-102371142D01*
X111274742Y-102442571D01*
X110846171Y-102442571D01*
X110703314Y-102371142D01*
X110631885Y-102299714D01*
X112489028Y-100942571D02*
X112631885Y-100942571D01*
X112774742Y-101014000D01*
X112846171Y-101085428D01*
X112917600Y-101228285D01*
X112989028Y-101514000D01*
X112989028Y-101871142D01*
X112917600Y-102156857D01*
X112846171Y-102299714D01*
X112774742Y-102371142D01*
X112631885Y-102442571D01*
X112489028Y-102442571D01*
X112346171Y-102371142D01*
X112274742Y-102299714D01*
X112203314Y-102156857D01*
X112131885Y-101871142D01*
X112131885Y-101514000D01*
X112203314Y-101228285D01*
X112274742Y-101085428D01*
X112346171Y-101014000D01*
X112489028Y-100942571D01*
X113631885Y-102299714D02*
X113703314Y-102371142D01*
X113631885Y-102442571D01*
X113560457Y-102371142D01*
X113631885Y-102299714D01*
X113631885Y-102442571D01*
X114631885Y-100942571D02*
X114774742Y-100942571D01*
X114917600Y-101014000D01*
X114989028Y-101085428D01*
X115060457Y-101228285D01*
X115131885Y-101514000D01*
X115131885Y-101871142D01*
X115060457Y-102156857D01*
X114989028Y-102299714D01*
X114917600Y-102371142D01*
X114774742Y-102442571D01*
X114631885Y-102442571D01*
X114489028Y-102371142D01*
X114417600Y-102299714D01*
X114346171Y-102156857D01*
X114274742Y-101871142D01*
X114274742Y-101514000D01*
X114346171Y-101228285D01*
X114417600Y-101085428D01*
X114489028Y-101014000D01*
X114631885Y-100942571D01*
X116060457Y-100942571D02*
X116203314Y-100942571D01*
X116346171Y-101014000D01*
X116417600Y-101085428D01*
X116489028Y-101228285D01*
X116560457Y-101514000D01*
X116560457Y-101871142D01*
X116489028Y-102156857D01*
X116417600Y-102299714D01*
X116346171Y-102371142D01*
X116203314Y-102442571D01*
X116060457Y-102442571D01*
X115917600Y-102371142D01*
X115846171Y-102299714D01*
X115774742Y-102156857D01*
X115703314Y-101871142D01*
X115703314Y-101514000D01*
X115774742Y-101228285D01*
X115846171Y-101085428D01*
X115917600Y-101014000D01*
X116060457Y-100942571D01*
X117489028Y-100942571D02*
X117631885Y-100942571D01*
X117774742Y-101014000D01*
X117846171Y-101085428D01*
X117917600Y-101228285D01*
X117989028Y-101514000D01*
X117989028Y-101871142D01*
X117917600Y-102156857D01*
X117846171Y-102299714D01*
X117774742Y-102371142D01*
X117631885Y-102442571D01*
X117489028Y-102442571D01*
X117346171Y-102371142D01*
X117274742Y-102299714D01*
X117203314Y-102156857D01*
X117131885Y-101871142D01*
X117131885Y-101514000D01*
X117203314Y-101228285D01*
X117274742Y-101085428D01*
X117346171Y-101014000D01*
X117489028Y-100942571D01*
X119774742Y-102442571D02*
X119774742Y-101442571D01*
X119774742Y-101585428D02*
X119846171Y-101514000D01*
X119989028Y-101442571D01*
X120203314Y-101442571D01*
X120346171Y-101514000D01*
X120417600Y-101656857D01*
X120417600Y-102442571D01*
X120417600Y-101656857D02*
X120489028Y-101514000D01*
X120631885Y-101442571D01*
X120846171Y-101442571D01*
X120989028Y-101514000D01*
X121060457Y-101656857D01*
X121060457Y-102442571D01*
X121774742Y-102442571D02*
X121774742Y-101442571D01*
X121774742Y-101585428D02*
X121846171Y-101514000D01*
X121989028Y-101442571D01*
X122203314Y-101442571D01*
X122346171Y-101514000D01*
X122417600Y-101656857D01*
X122417600Y-102442571D01*
X122417600Y-101656857D02*
X122489028Y-101514000D01*
X122631885Y-101442571D01*
X122846171Y-101442571D01*
X122989028Y-101514000D01*
X123060457Y-101656857D01*
X123060457Y-102442571D01*
X101917600Y-99664000D02*
X131917600Y-99664000D01*
X101917600Y-97987600D02*
X101917600Y-100250421D01*
X131917600Y-97987600D02*
X131917600Y-100250421D01*
X131917600Y-99664000D02*
X130791096Y-100250421D01*
X131917600Y-99664000D02*
X130791096Y-99077579D01*
X101917600Y-99664000D02*
X103044104Y-100250421D01*
X101917600Y-99664000D02*
X103044104Y-99077579D01*
X136939028Y-67559028D02*
X136939028Y-66844742D01*
X136224742Y-66773314D01*
X136296171Y-66844742D01*
X136367600Y-66987600D01*
X136367600Y-67344742D01*
X136296171Y-67487600D01*
X136224742Y-67559028D01*
X136081885Y-67630457D01*
X135724742Y-67630457D01*
X135581885Y-67559028D01*
X135510457Y-67487600D01*
X135439028Y-67344742D01*
X135439028Y-66987600D01*
X135510457Y-66844742D01*
X135581885Y-66773314D01*
X136939028Y-68559028D02*
X136939028Y-68701885D01*
X136867600Y-68844742D01*
X136796171Y-68916171D01*
X136653314Y-68987600D01*
X136367600Y-69059028D01*
X136010457Y-69059028D01*
X135724742Y-68987600D01*
X135581885Y-68916171D01*
X135510457Y-68844742D01*
X135439028Y-68701885D01*
X135439028Y-68559028D01*
X135510457Y-68416171D01*
X135581885Y-68344742D01*
X135724742Y-68273314D01*
X136010457Y-68201885D01*
X136367600Y-68201885D01*
X136653314Y-68273314D01*
X136796171Y-68344742D01*
X136867600Y-68416171D01*
X136939028Y-68559028D01*
X135581885Y-69701885D02*
X135510457Y-69773314D01*
X135439028Y-69701885D01*
X135510457Y-69630457D01*
X135581885Y-69701885D01*
X135439028Y-69701885D01*
X136939028Y-70701885D02*
X136939028Y-70844742D01*
X136867600Y-70987600D01*
X136796171Y-71059028D01*
X136653314Y-71130457D01*
X136367600Y-71201885D01*
X136010457Y-71201885D01*
X135724742Y-71130457D01*
X135581885Y-71059028D01*
X135510457Y-70987600D01*
X135439028Y-70844742D01*
X135439028Y-70701885D01*
X135510457Y-70559028D01*
X135581885Y-70487600D01*
X135724742Y-70416171D01*
X136010457Y-70344742D01*
X136367600Y-70344742D01*
X136653314Y-70416171D01*
X136796171Y-70487600D01*
X136867600Y-70559028D01*
X136939028Y-70701885D01*
X136939028Y-72130457D02*
X136939028Y-72273314D01*
X136867600Y-72416171D01*
X136796171Y-72487600D01*
X136653314Y-72559028D01*
X136367600Y-72630457D01*
X136010457Y-72630457D01*
X135724742Y-72559028D01*
X135581885Y-72487600D01*
X135510457Y-72416171D01*
X135439028Y-72273314D01*
X135439028Y-72130457D01*
X135510457Y-71987600D01*
X135581885Y-71916171D01*
X135724742Y-71844742D01*
X136010457Y-71773314D01*
X136367600Y-71773314D01*
X136653314Y-71844742D01*
X136796171Y-71916171D01*
X136867600Y-71987600D01*
X136939028Y-72130457D01*
X136939028Y-73559028D02*
X136939028Y-73701885D01*
X136867600Y-73844742D01*
X136796171Y-73916171D01*
X136653314Y-73987600D01*
X136367600Y-74059028D01*
X136010457Y-74059028D01*
X135724742Y-73987600D01*
X135581885Y-73916171D01*
X135510457Y-73844742D01*
X135439028Y-73701885D01*
X135439028Y-73559028D01*
X135510457Y-73416171D01*
X135581885Y-73344742D01*
X135724742Y-73273314D01*
X136010457Y-73201885D01*
X136367600Y-73201885D01*
X136653314Y-73273314D01*
X136796171Y-73344742D01*
X136867600Y-73416171D01*
X136939028Y-73559028D01*
X135439028Y-75844742D02*
X136439028Y-75844742D01*
X136296171Y-75844742D02*
X136367600Y-75916171D01*
X136439028Y-76059028D01*
X136439028Y-76273314D01*
X136367600Y-76416171D01*
X136224742Y-76487600D01*
X135439028Y-76487600D01*
X136224742Y-76487600D02*
X136367600Y-76559028D01*
X136439028Y-76701885D01*
X136439028Y-76916171D01*
X136367600Y-77059028D01*
X136224742Y-77130457D01*
X135439028Y-77130457D01*
X135439028Y-77844742D02*
X136439028Y-77844742D01*
X136296171Y-77844742D02*
X136367600Y-77916171D01*
X136439028Y-78059028D01*
X136439028Y-78273314D01*
X136367600Y-78416171D01*
X136224742Y-78487600D01*
X135439028Y-78487600D01*
X136224742Y-78487600D02*
X136367600Y-78559028D01*
X136439028Y-78701885D01*
X136439028Y-78916171D01*
X136367600Y-79059028D01*
X136224742Y-79130457D01*
X135439028Y-79130457D01*
X134017600Y-47987600D02*
X134017600Y-97987600D01*
X131917600Y-47987600D02*
X134604021Y-47987600D01*
X131917600Y-97987600D02*
X134604021Y-97987600D01*
X134017600Y-97987600D02*
X133431179Y-96861096D01*
X134017600Y-97987600D02*
X134604021Y-96861096D01*
X134017600Y-47987600D02*
X133431179Y-49114104D01*
X134017600Y-47987600D02*
X134604021Y-49114104D01*
D14*
X109617600Y-95107600D02*
X110617600Y-95107600D01*
X110617600Y-96467600D02*
X109617600Y-96467600D01*
X124617600Y-78407600D02*
X125617600Y-78407600D01*
X125617600Y-79767600D02*
X124617600Y-79767600D01*
X109917600Y-74667600D02*
X108917600Y-74667600D01*
X108917600Y-73307600D02*
X109917600Y-73307600D01*
X106317600Y-74867600D02*
X105317600Y-74867600D01*
X105317600Y-73507600D02*
X106317600Y-73507600D01*
X128717600Y-56007600D02*
X129717600Y-56007600D01*
X129717600Y-57367600D02*
X128717600Y-57367600D01*
X107597600Y-54687600D02*
X107597600Y-55687600D01*
X106237600Y-55687600D02*
X106237600Y-54687600D01*
X114617600Y-58367600D02*
X113617600Y-58367600D01*
X113617600Y-57007600D02*
X114617600Y-57007600D01*
X115467600Y-71167600D02*
X114467600Y-71167600D01*
X114467600Y-69807600D02*
X115467600Y-69807600D01*
X115467600Y-74167600D02*
X114467600Y-74167600D01*
X114467600Y-72807600D02*
X115467600Y-72807600D01*
X116717600Y-57007600D02*
X117717600Y-57007600D01*
X117717600Y-58367600D02*
X116717600Y-58367600D01*
X118037600Y-72087600D02*
X118037600Y-71087600D01*
X119397600Y-71087600D02*
X119397600Y-72087600D01*
X119397600Y-74087600D02*
X119397600Y-75087600D01*
X118037600Y-75087600D02*
X118037600Y-74087600D01*
X124417600Y-75867600D02*
X123417600Y-75867600D01*
X123417600Y-74507600D02*
X124417600Y-74507600D01*
X118037600Y-69187600D02*
X118037600Y-68187600D01*
X119397600Y-68187600D02*
X119397600Y-69187600D01*
X128017600Y-54587600D02*
X128017600Y-55587600D01*
X128017600Y-55587600D02*
X130117600Y-55587600D01*
X128017600Y-54587600D02*
X130117600Y-54587600D01*
X102817600Y-54887600D02*
X102817600Y-55887600D01*
X102817600Y-55887600D02*
X104917600Y-55887600D01*
X102817600Y-54887600D02*
X104917600Y-54887600D01*
X109017600Y-93687600D02*
X109017600Y-94687600D01*
X109017600Y-94687600D02*
X111117600Y-94687600D01*
X109017600Y-93687600D02*
X111117600Y-93687600D01*
X115467600Y-68087600D02*
X114767600Y-68087600D01*
X114767600Y-66887600D02*
X115467600Y-66887600D01*
X127067600Y-63687600D02*
X126367600Y-63687600D01*
X126367600Y-62487600D02*
X127067600Y-62487600D01*
X122317600Y-64487600D02*
X121617600Y-64487600D01*
X121617600Y-63287600D02*
X122317600Y-63287600D01*
X123217600Y-48037600D02*
X123217600Y-52387600D01*
X123217600Y-52387600D02*
X122217600Y-52387600D01*
X122217600Y-52387600D02*
X122217600Y-48037600D01*
X124517600Y-54237600D02*
X124867600Y-54237600D01*
X124867600Y-54237600D02*
X124867600Y-55837600D01*
X124867600Y-55837600D02*
X125767600Y-55837600D01*
X125767600Y-55837600D02*
X125767600Y-48037600D01*
X125767600Y-48037600D02*
X119667600Y-48037600D01*
X119667600Y-48037600D02*
X119667600Y-55837600D01*
X119667600Y-55837600D02*
X120567600Y-55837600D01*
X120567600Y-55837600D02*
X120567600Y-54237600D01*
X120567600Y-54237600D02*
X120917600Y-54237600D01*
X125767600Y-54237600D02*
X124867600Y-54237600D01*
X119667600Y-54237600D02*
X120567600Y-54237600D01*
X125017600Y-51887600D02*
X125017600Y-50287600D01*
X125017600Y-50287600D02*
X124017600Y-50287600D01*
X124017600Y-50287600D02*
X124017600Y-51887600D01*
X124017600Y-51887600D02*
X125017600Y-51887600D01*
X120417600Y-51887600D02*
X120417600Y-50287600D01*
X120417600Y-50287600D02*
X121417600Y-50287600D01*
X121417600Y-50287600D02*
X121417600Y-51887600D01*
X121417600Y-51887600D02*
X120417600Y-51887600D01*
X124017600Y-50287600D02*
X124017600Y-48037600D01*
X124517600Y-50287600D02*
X124517600Y-48037600D01*
X124517600Y-54237600D02*
X124517600Y-55437600D01*
X128587600Y-90477600D02*
X131247600Y-90477600D01*
X128587600Y-80257600D02*
X128587600Y-90477600D01*
X131247600Y-80257600D02*
X131247600Y-90477600D01*
X128587600Y-80257600D02*
X131247600Y-80257600D01*
X128587600Y-78987600D02*
X128587600Y-77657600D01*
X128587600Y-77657600D02*
X129917600Y-77657600D01*
X112587600Y-97197600D02*
X117787600Y-97197600D01*
X112587600Y-92057600D02*
X112587600Y-97197600D01*
X117787600Y-89457600D02*
X117787600Y-97197600D01*
X112587600Y-92057600D02*
X115187600Y-92057600D01*
X115187600Y-92057600D02*
X115187600Y-89457600D01*
X115187600Y-89457600D02*
X117787600Y-89457600D01*
X112587600Y-90787600D02*
X112587600Y-89457600D01*
X112587600Y-89457600D02*
X113917600Y-89457600D01*
X122017600Y-97937600D02*
X122017600Y-93587600D01*
X122017600Y-93587600D02*
X123017600Y-93587600D01*
X123017600Y-93587600D02*
X123017600Y-97937600D01*
X120717600Y-91737600D02*
X120367600Y-91737600D01*
X120367600Y-91737600D02*
X120367600Y-90137600D01*
X120367600Y-90137600D02*
X119467600Y-90137600D01*
X119467600Y-90137600D02*
X119467600Y-97937600D01*
X119467600Y-97937600D02*
X125567600Y-97937600D01*
X125567600Y-97937600D02*
X125567600Y-90137600D01*
X125567600Y-90137600D02*
X124667600Y-90137600D01*
X124667600Y-90137600D02*
X124667600Y-91737600D01*
X124667600Y-91737600D02*
X124317600Y-91737600D01*
X119467600Y-91737600D02*
X120367600Y-91737600D01*
X125567600Y-91737600D02*
X124667600Y-91737600D01*
X120217600Y-94087600D02*
X120217600Y-95687600D01*
X120217600Y-95687600D02*
X121217600Y-95687600D01*
X121217600Y-95687600D02*
X121217600Y-94087600D01*
X121217600Y-94087600D02*
X120217600Y-94087600D01*
X124817600Y-94087600D02*
X124817600Y-95687600D01*
X124817600Y-95687600D02*
X123817600Y-95687600D01*
X123817600Y-95687600D02*
X123817600Y-94087600D01*
X123817600Y-94087600D02*
X124817600Y-94087600D01*
X121217600Y-95687600D02*
X121217600Y-97937600D01*
X120717600Y-95687600D02*
X120717600Y-97937600D01*
X120717600Y-91737600D02*
X120717600Y-90537600D01*
D11*
X122042600Y-64937600D02*
X122042600Y-64962600D01*
X126192600Y-64937600D02*
X126192600Y-65052600D01*
X126192600Y-73837600D02*
X126192600Y-73722600D01*
X122042600Y-73837600D02*
X122042600Y-73722600D01*
X122042600Y-64937600D02*
X126192600Y-64937600D01*
X122042600Y-73837600D02*
X126192600Y-73837600D01*
X122042600Y-64962600D02*
X120667600Y-64962600D01*
D14*
X111617600Y-48037600D02*
X111617600Y-52387600D01*
X111617600Y-52387600D02*
X110617600Y-52387600D01*
X110617600Y-52387600D02*
X110617600Y-48037600D01*
X112917600Y-54237600D02*
X113267600Y-54237600D01*
X113267600Y-54237600D02*
X113267600Y-55837600D01*
X113267600Y-55837600D02*
X114167600Y-55837600D01*
X114167600Y-55837600D02*
X114167600Y-48037600D01*
X114167600Y-48037600D02*
X108067600Y-48037600D01*
X108067600Y-48037600D02*
X108067600Y-55837600D01*
X108067600Y-55837600D02*
X108967600Y-55837600D01*
X108967600Y-55837600D02*
X108967600Y-54237600D01*
X108967600Y-54237600D02*
X109317600Y-54237600D01*
X114167600Y-54237600D02*
X113267600Y-54237600D01*
X108067600Y-54237600D02*
X108967600Y-54237600D01*
X113417600Y-51887600D02*
X113417600Y-50287600D01*
X113417600Y-50287600D02*
X112417600Y-50287600D01*
X112417600Y-50287600D02*
X112417600Y-51887600D01*
X112417600Y-51887600D02*
X113417600Y-51887600D01*
X108817600Y-51887600D02*
X108817600Y-50287600D01*
X108817600Y-50287600D02*
X109817600Y-50287600D01*
X109817600Y-50287600D02*
X109817600Y-51887600D01*
X109817600Y-51887600D02*
X108817600Y-51887600D01*
X112417600Y-50287600D02*
X112417600Y-48037600D01*
X112917600Y-50287600D02*
X112917600Y-48037600D01*
X112917600Y-54237600D02*
X112917600Y-55437600D01*
X115627600Y-54687600D02*
X116027600Y-54687600D01*
X116027600Y-54687600D02*
X116027600Y-56087600D01*
X115627600Y-54687600D02*
X115627600Y-49887600D01*
X118827600Y-54687600D02*
X118827600Y-49887600D01*
X128297600Y-59727600D02*
X127367600Y-59727600D01*
X125137600Y-59727600D02*
X126067600Y-59727600D01*
X125137600Y-59727600D02*
X125137600Y-61887600D01*
X128297600Y-59727600D02*
X128297600Y-61187600D01*
X116697600Y-63727600D02*
X115767600Y-63727600D01*
X113537600Y-63727600D02*
X114467600Y-63727600D01*
X113537600Y-63727600D02*
X113537600Y-65887600D01*
X116697600Y-63727600D02*
X116697600Y-65187600D01*
X111437600Y-66587600D02*
X111437600Y-71787600D01*
X107797600Y-71787600D02*
X107797600Y-66587600D01*
X107797600Y-81787600D02*
X107797600Y-76587600D01*
X111437600Y-76587600D02*
X111437600Y-81787600D01*
X106937600Y-66587600D02*
X106937600Y-71787600D01*
X103297600Y-71787600D02*
X103297600Y-66587600D01*
X103297600Y-81787600D02*
X103297600Y-76587600D01*
X106937600Y-76587600D02*
X106937600Y-81787600D01*
X106937600Y-58399200D02*
X106937600Y-63599200D01*
X103297600Y-63599200D02*
X103297600Y-58399200D01*
X103297600Y-90087600D02*
X103297600Y-84887600D01*
X106937600Y-84887600D02*
X106937600Y-90087600D01*
X107797600Y-63599200D02*
X107797600Y-58399200D01*
X111437600Y-58399200D02*
X111437600Y-63599200D01*
X111437600Y-84887600D02*
X111437600Y-90087600D01*
X107797600Y-90087600D02*
X107797600Y-84887600D01*
D11*
X109439028Y-97694742D02*
X109139028Y-97266171D01*
X108924742Y-97694742D02*
X108924742Y-96794742D01*
X109267600Y-96794742D01*
X109353314Y-96837600D01*
X109396171Y-96880457D01*
X109439028Y-96966171D01*
X109439028Y-97094742D01*
X109396171Y-97180457D01*
X109353314Y-97223314D01*
X109267600Y-97266171D01*
X108924742Y-97266171D01*
X109781885Y-96880457D02*
X109824742Y-96837600D01*
X109910457Y-96794742D01*
X110124742Y-96794742D01*
X110210457Y-96837600D01*
X110253314Y-96880457D01*
X110296171Y-96966171D01*
X110296171Y-97051885D01*
X110253314Y-97180457D01*
X109739028Y-97694742D01*
X110296171Y-97694742D01*
X110596171Y-96794742D02*
X111153314Y-96794742D01*
X110853314Y-97137600D01*
X110981885Y-97137600D01*
X111067600Y-97180457D01*
X111110457Y-97223314D01*
X111153314Y-97309028D01*
X111153314Y-97523314D01*
X111110457Y-97609028D01*
X111067600Y-97651885D01*
X110981885Y-97694742D01*
X110724742Y-97694742D01*
X110639028Y-97651885D01*
X110596171Y-97609028D01*
X124474742Y-80989980D02*
X124141409Y-80513790D01*
X123903314Y-80989980D02*
X123903314Y-79989980D01*
X124284266Y-79989980D01*
X124379504Y-80037600D01*
X124427123Y-80085219D01*
X124474742Y-80180457D01*
X124474742Y-80323314D01*
X124427123Y-80418552D01*
X124379504Y-80466171D01*
X124284266Y-80513790D01*
X123903314Y-80513790D01*
X124855695Y-80085219D02*
X124903314Y-80037600D01*
X124998552Y-79989980D01*
X125236647Y-79989980D01*
X125331885Y-80037600D01*
X125379504Y-80085219D01*
X125427123Y-80180457D01*
X125427123Y-80275695D01*
X125379504Y-80418552D01*
X124808076Y-80989980D01*
X125427123Y-80989980D01*
X126379504Y-80989980D02*
X125808076Y-80989980D01*
X126093790Y-80989980D02*
X126093790Y-79989980D01*
X125998552Y-80132838D01*
X125903314Y-80228076D01*
X125808076Y-80275695D01*
X111489028Y-74573314D02*
X111203314Y-74773314D01*
X111489028Y-74916171D02*
X110889028Y-74916171D01*
X110889028Y-74687600D01*
X110917600Y-74630457D01*
X110946171Y-74601885D01*
X111003314Y-74573314D01*
X111089028Y-74573314D01*
X111146171Y-74601885D01*
X111174742Y-74630457D01*
X111203314Y-74687600D01*
X111203314Y-74916171D01*
X110946171Y-74344742D02*
X110917600Y-74316171D01*
X110889028Y-74259028D01*
X110889028Y-74116171D01*
X110917600Y-74059028D01*
X110946171Y-74030457D01*
X111003314Y-74001885D01*
X111060457Y-74001885D01*
X111146171Y-74030457D01*
X111489028Y-74373314D01*
X111489028Y-74001885D01*
X110889028Y-73630457D02*
X110889028Y-73573314D01*
X110917600Y-73516171D01*
X110946171Y-73487600D01*
X111003314Y-73459028D01*
X111117600Y-73430457D01*
X111260457Y-73430457D01*
X111374742Y-73459028D01*
X111431885Y-73487600D01*
X111460457Y-73516171D01*
X111489028Y-73573314D01*
X111489028Y-73630457D01*
X111460457Y-73687600D01*
X111431885Y-73716171D01*
X111374742Y-73744742D01*
X111260457Y-73773314D01*
X111117600Y-73773314D01*
X111003314Y-73744742D01*
X110946171Y-73716171D01*
X110917600Y-73687600D01*
X110889028Y-73630457D01*
X104289028Y-74573314D02*
X104003314Y-74773314D01*
X104289028Y-74916171D02*
X103689028Y-74916171D01*
X103689028Y-74687600D01*
X103717600Y-74630457D01*
X103746171Y-74601885D01*
X103803314Y-74573314D01*
X103889028Y-74573314D01*
X103946171Y-74601885D01*
X103974742Y-74630457D01*
X104003314Y-74687600D01*
X104003314Y-74916171D01*
X104289028Y-74001885D02*
X104289028Y-74344742D01*
X104289028Y-74173314D02*
X103689028Y-74173314D01*
X103774742Y-74230457D01*
X103831885Y-74287600D01*
X103860457Y-74344742D01*
X104289028Y-73716171D02*
X104289028Y-73601885D01*
X104260457Y-73544742D01*
X104231885Y-73516171D01*
X104146171Y-73459028D01*
X104031885Y-73430457D01*
X103803314Y-73430457D01*
X103746171Y-73459028D01*
X103717600Y-73487600D01*
X103689028Y-73544742D01*
X103689028Y-73659028D01*
X103717600Y-73716171D01*
X103746171Y-73744742D01*
X103803314Y-73773314D01*
X103946171Y-73773314D01*
X104003314Y-73744742D01*
X104031885Y-73716171D01*
X104060457Y-73659028D01*
X104060457Y-73544742D01*
X104031885Y-73487600D01*
X104003314Y-73459028D01*
X103946171Y-73430457D01*
X128639028Y-58544742D02*
X128339028Y-58116171D01*
X128124742Y-58544742D02*
X128124742Y-57644742D01*
X128467600Y-57644742D01*
X128553314Y-57687600D01*
X128596171Y-57730457D01*
X128639028Y-57816171D01*
X128639028Y-57944742D01*
X128596171Y-58030457D01*
X128553314Y-58073314D01*
X128467600Y-58116171D01*
X128124742Y-58116171D01*
X129496171Y-58544742D02*
X128981885Y-58544742D01*
X129239028Y-58544742D02*
X129239028Y-57644742D01*
X129153314Y-57773314D01*
X129067600Y-57859028D01*
X128981885Y-57901885D01*
X130010457Y-58030457D02*
X129924742Y-57987600D01*
X129881885Y-57944742D01*
X129839028Y-57859028D01*
X129839028Y-57816171D01*
X129881885Y-57730457D01*
X129924742Y-57687600D01*
X130010457Y-57644742D01*
X130181885Y-57644742D01*
X130267600Y-57687600D01*
X130310457Y-57730457D01*
X130353314Y-57816171D01*
X130353314Y-57859028D01*
X130310457Y-57944742D01*
X130267600Y-57987600D01*
X130181885Y-58030457D01*
X130010457Y-58030457D01*
X129924742Y-58073314D01*
X129881885Y-58116171D01*
X129839028Y-58201885D01*
X129839028Y-58373314D01*
X129881885Y-58459028D01*
X129924742Y-58501885D01*
X130010457Y-58544742D01*
X130181885Y-58544742D01*
X130267600Y-58501885D01*
X130310457Y-58459028D01*
X130353314Y-58373314D01*
X130353314Y-58201885D01*
X130310457Y-58116171D01*
X130267600Y-58073314D01*
X130181885Y-58030457D01*
X113474742Y-59639980D02*
X113141409Y-59163790D01*
X112903314Y-59639980D02*
X112903314Y-58639980D01*
X113284266Y-58639980D01*
X113379504Y-58687600D01*
X113427123Y-58735219D01*
X113474742Y-58830457D01*
X113474742Y-58973314D01*
X113427123Y-59068552D01*
X113379504Y-59116171D01*
X113284266Y-59163790D01*
X112903314Y-59163790D01*
X114427123Y-59639980D02*
X113855695Y-59639980D01*
X114141409Y-59639980D02*
X114141409Y-58639980D01*
X114046171Y-58782838D01*
X113950933Y-58878076D01*
X113855695Y-58925695D01*
X115284266Y-58639980D02*
X115093790Y-58639980D01*
X114998552Y-58687600D01*
X114950933Y-58735219D01*
X114855695Y-58878076D01*
X114808076Y-59068552D01*
X114808076Y-59449504D01*
X114855695Y-59544742D01*
X114903314Y-59592361D01*
X114998552Y-59639980D01*
X115189028Y-59639980D01*
X115284266Y-59592361D01*
X115331885Y-59544742D01*
X115379504Y-59449504D01*
X115379504Y-59211409D01*
X115331885Y-59116171D01*
X115284266Y-59068552D01*
X115189028Y-59020933D01*
X114998552Y-59020933D01*
X114903314Y-59068552D01*
X114855695Y-59116171D01*
X114808076Y-59211409D01*
X114389028Y-69444742D02*
X114089028Y-69016171D01*
X113874742Y-69444742D02*
X113874742Y-68544742D01*
X114217600Y-68544742D01*
X114303314Y-68587600D01*
X114346171Y-68630457D01*
X114389028Y-68716171D01*
X114389028Y-68844742D01*
X114346171Y-68930457D01*
X114303314Y-68973314D01*
X114217600Y-69016171D01*
X113874742Y-69016171D01*
X115246171Y-69444742D02*
X114731885Y-69444742D01*
X114989028Y-69444742D02*
X114989028Y-68544742D01*
X114903314Y-68673314D01*
X114817600Y-68759028D01*
X114731885Y-68801885D01*
X116060457Y-68544742D02*
X115631885Y-68544742D01*
X115589028Y-68973314D01*
X115631885Y-68930457D01*
X115717600Y-68887600D01*
X115931885Y-68887600D01*
X116017600Y-68930457D01*
X116060457Y-68973314D01*
X116103314Y-69059028D01*
X116103314Y-69273314D01*
X116060457Y-69359028D01*
X116017600Y-69401885D01*
X115931885Y-69444742D01*
X115717600Y-69444742D01*
X115631885Y-69401885D01*
X115589028Y-69359028D01*
X114389028Y-72444742D02*
X114089028Y-72016171D01*
X113874742Y-72444742D02*
X113874742Y-71544742D01*
X114217600Y-71544742D01*
X114303314Y-71587600D01*
X114346171Y-71630457D01*
X114389028Y-71716171D01*
X114389028Y-71844742D01*
X114346171Y-71930457D01*
X114303314Y-71973314D01*
X114217600Y-72016171D01*
X113874742Y-72016171D01*
X115246171Y-72444742D02*
X114731885Y-72444742D01*
X114989028Y-72444742D02*
X114989028Y-71544742D01*
X114903314Y-71673314D01*
X114817600Y-71759028D01*
X114731885Y-71801885D01*
X116017600Y-71844742D02*
X116017600Y-72444742D01*
X115803314Y-71501885D02*
X115589028Y-72144742D01*
X116146171Y-72144742D01*
X117650933Y-59639980D02*
X117317600Y-59163790D01*
X117079504Y-59639980D02*
X117079504Y-58639980D01*
X117460457Y-58639980D01*
X117555695Y-58687600D01*
X117603314Y-58735219D01*
X117650933Y-58830457D01*
X117650933Y-58973314D01*
X117603314Y-59068552D01*
X117555695Y-59116171D01*
X117460457Y-59163790D01*
X117079504Y-59163790D01*
X118555695Y-58639980D02*
X118079504Y-58639980D01*
X118031885Y-59116171D01*
X118079504Y-59068552D01*
X118174742Y-59020933D01*
X118412838Y-59020933D01*
X118508076Y-59068552D01*
X118555695Y-59116171D01*
X118603314Y-59211409D01*
X118603314Y-59449504D01*
X118555695Y-59544742D01*
X118508076Y-59592361D01*
X118412838Y-59639980D01*
X118174742Y-59639980D01*
X118079504Y-59592361D01*
X118031885Y-59544742D01*
X117824742Y-71437600D02*
X117396171Y-71737600D01*
X117824742Y-71951885D02*
X116924742Y-71951885D01*
X116924742Y-71609028D01*
X116967600Y-71523314D01*
X117010457Y-71480457D01*
X117096171Y-71437600D01*
X117224742Y-71437600D01*
X117310457Y-71480457D01*
X117353314Y-71523314D01*
X117396171Y-71609028D01*
X117396171Y-71951885D01*
X117224742Y-70666171D02*
X117824742Y-70666171D01*
X116881885Y-70880457D02*
X117524742Y-71094742D01*
X117524742Y-70537600D01*
X117724742Y-74637600D02*
X117296171Y-74937600D01*
X117724742Y-75151885D02*
X116824742Y-75151885D01*
X116824742Y-74809028D01*
X116867600Y-74723314D01*
X116910457Y-74680457D01*
X116996171Y-74637600D01*
X117124742Y-74637600D01*
X117210457Y-74680457D01*
X117253314Y-74723314D01*
X117296171Y-74809028D01*
X117296171Y-75151885D01*
X116824742Y-74337600D02*
X116824742Y-73780457D01*
X117167600Y-74080457D01*
X117167600Y-73951885D01*
X117210457Y-73866171D01*
X117253314Y-73823314D01*
X117339028Y-73780457D01*
X117553314Y-73780457D01*
X117639028Y-73823314D01*
X117681885Y-73866171D01*
X117724742Y-73951885D01*
X117724742Y-74209028D01*
X117681885Y-74294742D01*
X117639028Y-74337600D01*
X123850933Y-77139980D02*
X123517600Y-76663790D01*
X123279504Y-77139980D02*
X123279504Y-76139980D01*
X123660457Y-76139980D01*
X123755695Y-76187600D01*
X123803314Y-76235219D01*
X123850933Y-76330457D01*
X123850933Y-76473314D01*
X123803314Y-76568552D01*
X123755695Y-76616171D01*
X123660457Y-76663790D01*
X123279504Y-76663790D01*
X124231885Y-76235219D02*
X124279504Y-76187600D01*
X124374742Y-76139980D01*
X124612838Y-76139980D01*
X124708076Y-76187600D01*
X124755695Y-76235219D01*
X124803314Y-76330457D01*
X124803314Y-76425695D01*
X124755695Y-76568552D01*
X124184266Y-77139980D01*
X124803314Y-77139980D01*
X117724742Y-69037600D02*
X117296171Y-69337600D01*
X117724742Y-69551885D02*
X116824742Y-69551885D01*
X116824742Y-69209028D01*
X116867600Y-69123314D01*
X116910457Y-69080457D01*
X116996171Y-69037600D01*
X117124742Y-69037600D01*
X117210457Y-69080457D01*
X117253314Y-69123314D01*
X117296171Y-69209028D01*
X117296171Y-69551885D01*
X117724742Y-68180457D02*
X117724742Y-68694742D01*
X117724742Y-68437600D02*
X116824742Y-68437600D01*
X116953314Y-68523314D01*
X117039028Y-68609028D01*
X117081885Y-68694742D01*
X126253314Y-55494742D02*
X126253314Y-54594742D01*
X126467600Y-54594742D01*
X126596171Y-54637600D01*
X126681885Y-54723314D01*
X126724742Y-54809028D01*
X126767600Y-54980457D01*
X126767600Y-55109028D01*
X126724742Y-55280457D01*
X126681885Y-55366171D01*
X126596171Y-55451885D01*
X126467600Y-55494742D01*
X126253314Y-55494742D01*
X127539028Y-54894742D02*
X127539028Y-55494742D01*
X127324742Y-54551885D02*
X127110457Y-55194742D01*
X127667600Y-55194742D01*
X102253314Y-56994742D02*
X102253314Y-56094742D01*
X102467600Y-56094742D01*
X102596171Y-56137600D01*
X102681885Y-56223314D01*
X102724742Y-56309028D01*
X102767600Y-56480457D01*
X102767600Y-56609028D01*
X102724742Y-56780457D01*
X102681885Y-56866171D01*
X102596171Y-56951885D01*
X102467600Y-56994742D01*
X102253314Y-56994742D01*
X103067600Y-56094742D02*
X103624742Y-56094742D01*
X103324742Y-56437600D01*
X103453314Y-56437600D01*
X103539028Y-56480457D01*
X103581885Y-56523314D01*
X103624742Y-56609028D01*
X103624742Y-56823314D01*
X103581885Y-56909028D01*
X103539028Y-56951885D01*
X103453314Y-56994742D01*
X103196171Y-56994742D01*
X103110457Y-56951885D01*
X103067600Y-56909028D01*
X108853314Y-93294742D02*
X108853314Y-92394742D01*
X109067600Y-92394742D01*
X109196171Y-92437600D01*
X109281885Y-92523314D01*
X109324742Y-92609028D01*
X109367600Y-92780457D01*
X109367600Y-92909028D01*
X109324742Y-93080457D01*
X109281885Y-93166171D01*
X109196171Y-93251885D01*
X109067600Y-93294742D01*
X108853314Y-93294742D01*
X109710457Y-92480457D02*
X109753314Y-92437600D01*
X109839028Y-92394742D01*
X110053314Y-92394742D01*
X110139028Y-92437600D01*
X110181885Y-92480457D01*
X110224742Y-92566171D01*
X110224742Y-92651885D01*
X110181885Y-92780457D01*
X109667600Y-93294742D01*
X110224742Y-93294742D01*
X112667600Y-67909028D02*
X112624742Y-67951885D01*
X112496171Y-67994742D01*
X112410457Y-67994742D01*
X112281885Y-67951885D01*
X112196171Y-67866171D01*
X112153314Y-67780457D01*
X112110457Y-67609028D01*
X112110457Y-67480457D01*
X112153314Y-67309028D01*
X112196171Y-67223314D01*
X112281885Y-67137600D01*
X112410457Y-67094742D01*
X112496171Y-67094742D01*
X112624742Y-67137600D01*
X112667600Y-67180457D01*
X112967600Y-67094742D02*
X113524742Y-67094742D01*
X113224742Y-67437600D01*
X113353314Y-67437600D01*
X113439028Y-67480457D01*
X113481885Y-67523314D01*
X113524742Y-67609028D01*
X113524742Y-67823314D01*
X113481885Y-67909028D01*
X113439028Y-67951885D01*
X113353314Y-67994742D01*
X113096171Y-67994742D01*
X113010457Y-67951885D01*
X112967600Y-67909028D01*
X124150933Y-63444742D02*
X124103314Y-63492361D01*
X123960457Y-63539980D01*
X123865219Y-63539980D01*
X123722361Y-63492361D01*
X123627123Y-63397123D01*
X123579504Y-63301885D01*
X123531885Y-63111409D01*
X123531885Y-62968552D01*
X123579504Y-62778076D01*
X123627123Y-62682838D01*
X123722361Y-62587600D01*
X123865219Y-62539980D01*
X123960457Y-62539980D01*
X124103314Y-62587600D01*
X124150933Y-62635219D01*
X124531885Y-62635219D02*
X124579504Y-62587600D01*
X124674742Y-62539980D01*
X124912838Y-62539980D01*
X125008076Y-62587600D01*
X125055695Y-62635219D01*
X125103314Y-62730457D01*
X125103314Y-62825695D01*
X125055695Y-62968552D01*
X124484266Y-63539980D01*
X125103314Y-63539980D01*
X121150933Y-62844742D02*
X121103314Y-62892361D01*
X120960457Y-62939980D01*
X120865219Y-62939980D01*
X120722361Y-62892361D01*
X120627123Y-62797123D01*
X120579504Y-62701885D01*
X120531885Y-62511409D01*
X120531885Y-62368552D01*
X120579504Y-62178076D01*
X120627123Y-62082838D01*
X120722361Y-61987600D01*
X120865219Y-61939980D01*
X120960457Y-61939980D01*
X121103314Y-61987600D01*
X121150933Y-62035219D01*
X122103314Y-62939980D02*
X121531885Y-62939980D01*
X121817600Y-62939980D02*
X121817600Y-61939980D01*
X121722361Y-62082838D01*
X121627123Y-62178076D01*
X121531885Y-62225695D01*
X126269980Y-50625695D02*
X126269980Y-50054266D01*
X127269980Y-50339980D02*
X126269980Y-50339980D01*
X126269980Y-49816171D02*
X127269980Y-49149504D01*
X126269980Y-49149504D02*
X127269980Y-49816171D01*
X127269980Y-48244742D02*
X127269980Y-48816171D01*
X127269980Y-48530457D02*
X126269980Y-48530457D01*
X126412838Y-48625695D01*
X126508076Y-48720933D01*
X126555695Y-48816171D01*
X127822361Y-83725695D02*
X127869980Y-83582838D01*
X127869980Y-83344742D01*
X127822361Y-83249504D01*
X127774742Y-83201885D01*
X127679504Y-83154266D01*
X127584266Y-83154266D01*
X127489028Y-83201885D01*
X127441409Y-83249504D01*
X127393790Y-83344742D01*
X127346171Y-83535219D01*
X127298552Y-83630457D01*
X127250933Y-83678076D01*
X127155695Y-83725695D01*
X127060457Y-83725695D01*
X126965219Y-83678076D01*
X126917600Y-83630457D01*
X126869980Y-83535219D01*
X126869980Y-83297123D01*
X126917600Y-83154266D01*
X127346171Y-82725695D02*
X127346171Y-82392361D01*
X127869980Y-82249504D02*
X127869980Y-82725695D01*
X126869980Y-82725695D01*
X126869980Y-82249504D01*
X127869980Y-81820933D02*
X126869980Y-81820933D01*
X127869980Y-81249504D01*
X126869980Y-81249504D01*
X127822361Y-80820933D02*
X127869980Y-80678076D01*
X127869980Y-80439980D01*
X127822361Y-80344742D01*
X127774742Y-80297123D01*
X127679504Y-80249504D01*
X127584266Y-80249504D01*
X127489028Y-80297123D01*
X127441409Y-80344742D01*
X127393790Y-80439980D01*
X127346171Y-80630457D01*
X127298552Y-80725695D01*
X127250933Y-80773314D01*
X127155695Y-80820933D01*
X127060457Y-80820933D01*
X126965219Y-80773314D01*
X126917600Y-80725695D01*
X126869980Y-80630457D01*
X126869980Y-80392361D01*
X126917600Y-80249504D01*
X126869980Y-79630457D02*
X126869980Y-79439980D01*
X126917600Y-79344742D01*
X127012838Y-79249504D01*
X127203314Y-79201885D01*
X127536647Y-79201885D01*
X127727123Y-79249504D01*
X127822361Y-79344742D01*
X127869980Y-79439980D01*
X127869980Y-79630457D01*
X127822361Y-79725695D01*
X127727123Y-79820933D01*
X127536647Y-79868552D01*
X127203314Y-79868552D01*
X127012838Y-79820933D01*
X126917600Y-79725695D01*
X126869980Y-79630457D01*
X127869980Y-78201885D02*
X127393790Y-78535219D01*
X127869980Y-78773314D02*
X126869980Y-78773314D01*
X126869980Y-78392361D01*
X126917600Y-78297123D01*
X126965219Y-78249504D01*
X127060457Y-78201885D01*
X127203314Y-78201885D01*
X127298552Y-78249504D01*
X127346171Y-78297123D01*
X127393790Y-78392361D01*
X127393790Y-78773314D01*
X127869980Y-77249504D02*
X127869980Y-77820933D01*
X127869980Y-77535219D02*
X126869980Y-77535219D01*
X127012838Y-77630457D01*
X127108076Y-77725695D01*
X127155695Y-77820933D01*
X114684266Y-96839980D02*
X114684266Y-97554266D01*
X114636647Y-97697123D01*
X114541409Y-97792361D01*
X114398552Y-97839980D01*
X114303314Y-97839980D01*
X115112838Y-96935219D02*
X115160457Y-96887600D01*
X115255695Y-96839980D01*
X115493790Y-96839980D01*
X115589028Y-96887600D01*
X115636647Y-96935219D01*
X115684266Y-97030457D01*
X115684266Y-97125695D01*
X115636647Y-97268552D01*
X115065219Y-97839980D01*
X115684266Y-97839980D01*
X127069980Y-97673314D02*
X126069980Y-97673314D01*
X126069980Y-97292361D01*
X126117600Y-97197123D01*
X126165219Y-97149504D01*
X126260457Y-97101885D01*
X126403314Y-97101885D01*
X126498552Y-97149504D01*
X126546171Y-97197123D01*
X126593790Y-97292361D01*
X126593790Y-97673314D01*
X126069980Y-96482838D02*
X126069980Y-96292361D01*
X126117600Y-96197123D01*
X126212838Y-96101885D01*
X126403314Y-96054266D01*
X126736647Y-96054266D01*
X126927123Y-96101885D01*
X127022361Y-96197123D01*
X127069980Y-96292361D01*
X127069980Y-96482838D01*
X127022361Y-96578076D01*
X126927123Y-96673314D01*
X126736647Y-96720933D01*
X126403314Y-96720933D01*
X126212838Y-96673314D01*
X126117600Y-96578076D01*
X126069980Y-96482838D01*
X126069980Y-95720933D02*
X127069980Y-95482838D01*
X126355695Y-95292361D01*
X127069980Y-95101885D01*
X126069980Y-94863790D01*
X126546171Y-94482838D02*
X126546171Y-94149504D01*
X127069980Y-94006647D02*
X127069980Y-94482838D01*
X126069980Y-94482838D01*
X126069980Y-94006647D01*
X127069980Y-93006647D02*
X126593790Y-93339980D01*
X127069980Y-93578076D02*
X126069980Y-93578076D01*
X126069980Y-93197123D01*
X126117600Y-93101885D01*
X126165219Y-93054266D01*
X126260457Y-93006647D01*
X126403314Y-93006647D01*
X126498552Y-93054266D01*
X126546171Y-93101885D01*
X126593790Y-93197123D01*
X126593790Y-93578076D01*
X127069980Y-92054266D02*
X127069980Y-92625695D01*
X127069980Y-92339980D02*
X126069980Y-92339980D01*
X126212838Y-92435219D01*
X126308076Y-92530457D01*
X126355695Y-92625695D01*
X124184266Y-72906647D02*
X124184266Y-72430457D01*
X124469980Y-73001885D02*
X123469980Y-72668552D01*
X124469980Y-72335219D01*
X123469980Y-72144742D02*
X123469980Y-71573314D01*
X124469980Y-71859028D02*
X123469980Y-71859028D01*
X123469980Y-71382838D02*
X123469980Y-70811409D01*
X124469980Y-71097123D02*
X123469980Y-71097123D01*
X124469980Y-70478076D02*
X123469980Y-70478076D01*
X124469980Y-70001885D02*
X123469980Y-70001885D01*
X124469980Y-69430457D01*
X123469980Y-69430457D01*
X123993790Y-68763790D02*
X124469980Y-68763790D01*
X123469980Y-69097123D02*
X123993790Y-68763790D01*
X123469980Y-68430457D01*
X123898552Y-67954266D02*
X123850933Y-68049504D01*
X123803314Y-68097123D01*
X123708076Y-68144742D01*
X123660457Y-68144742D01*
X123565219Y-68097123D01*
X123517600Y-68049504D01*
X123469980Y-67954266D01*
X123469980Y-67763790D01*
X123517600Y-67668552D01*
X123565219Y-67620933D01*
X123660457Y-67573314D01*
X123708076Y-67573314D01*
X123803314Y-67620933D01*
X123850933Y-67668552D01*
X123898552Y-67763790D01*
X123898552Y-67954266D01*
X123946171Y-68049504D01*
X123993790Y-68097123D01*
X124089028Y-68144742D01*
X124279504Y-68144742D01*
X124374742Y-68097123D01*
X124422361Y-68049504D01*
X124469980Y-67954266D01*
X124469980Y-67763790D01*
X124422361Y-67668552D01*
X124374742Y-67620933D01*
X124279504Y-67573314D01*
X124089028Y-67573314D01*
X123993790Y-67620933D01*
X123946171Y-67668552D01*
X123898552Y-67763790D01*
X123803314Y-66716171D02*
X124469980Y-66716171D01*
X123422361Y-66954266D02*
X124136647Y-67192361D01*
X124136647Y-66573314D01*
X124469980Y-65668552D02*
X124469980Y-66239980D01*
X124469980Y-65954266D02*
X123469980Y-65954266D01*
X123612838Y-66049504D01*
X123708076Y-66144742D01*
X123755695Y-66239980D01*
X107869980Y-50130457D02*
X107393790Y-50463790D01*
X107869980Y-50701885D02*
X106869980Y-50701885D01*
X106869980Y-50320933D01*
X106917600Y-50225695D01*
X106965219Y-50178076D01*
X107060457Y-50130457D01*
X107203314Y-50130457D01*
X107298552Y-50178076D01*
X107346171Y-50225695D01*
X107393790Y-50320933D01*
X107393790Y-50701885D01*
X106869980Y-49797123D02*
X107869980Y-49130457D01*
X106869980Y-49130457D02*
X107869980Y-49797123D01*
X107869980Y-48225695D02*
X107869980Y-48797123D01*
X107869980Y-48511409D02*
X106869980Y-48511409D01*
X107012838Y-48606647D01*
X107108076Y-48701885D01*
X107155695Y-48797123D01*
X116669980Y-52349504D02*
X117479504Y-52349504D01*
X117574742Y-52301885D01*
X117622361Y-52254266D01*
X117669980Y-52159028D01*
X117669980Y-51968552D01*
X117622361Y-51873314D01*
X117574742Y-51825695D01*
X117479504Y-51778076D01*
X116669980Y-51778076D01*
X117669980Y-50778076D02*
X117669980Y-51349504D01*
X117669980Y-51063790D02*
X116669980Y-51063790D01*
X116812838Y-51159028D01*
X116908076Y-51254266D01*
X116955695Y-51349504D01*
X123279504Y-59739980D02*
X123279504Y-58739980D01*
X123517600Y-58739980D01*
X123660457Y-58787600D01*
X123755695Y-58882838D01*
X123803314Y-58978076D01*
X123850933Y-59168552D01*
X123850933Y-59311409D01*
X123803314Y-59501885D01*
X123755695Y-59597123D01*
X123660457Y-59692361D01*
X123517600Y-59739980D01*
X123279504Y-59739980D01*
X124803314Y-59739980D02*
X124231885Y-59739980D01*
X124517600Y-59739980D02*
X124517600Y-58739980D01*
X124422361Y-58882838D01*
X124327123Y-58978076D01*
X124231885Y-59025695D01*
X115122361Y-62635219D02*
X115027123Y-62587600D01*
X114931885Y-62492361D01*
X114789028Y-62349504D01*
X114693790Y-62301885D01*
X114598552Y-62301885D01*
X114646171Y-62539980D02*
X114550933Y-62492361D01*
X114455695Y-62397123D01*
X114408076Y-62206647D01*
X114408076Y-61873314D01*
X114455695Y-61682838D01*
X114550933Y-61587600D01*
X114646171Y-61539980D01*
X114836647Y-61539980D01*
X114931885Y-61587600D01*
X115027123Y-61682838D01*
X115074742Y-61873314D01*
X115074742Y-62206647D01*
X115027123Y-62397123D01*
X114931885Y-62492361D01*
X114836647Y-62539980D01*
X114646171Y-62539980D01*
X116027123Y-62539980D02*
X115455695Y-62539980D01*
X115741409Y-62539980D02*
X115741409Y-61539980D01*
X115646171Y-61682838D01*
X115550933Y-61778076D01*
X115455695Y-61825695D01*
X110119980Y-69304266D02*
X109643790Y-69637600D01*
X110119980Y-69875695D02*
X109119980Y-69875695D01*
X109119980Y-69494742D01*
X109167600Y-69399504D01*
X109215219Y-69351885D01*
X109310457Y-69304266D01*
X109453314Y-69304266D01*
X109548552Y-69351885D01*
X109596171Y-69399504D01*
X109643790Y-69494742D01*
X109643790Y-69875695D01*
X109119980Y-68447123D02*
X109119980Y-68637600D01*
X109167600Y-68732838D01*
X109215219Y-68780457D01*
X109358076Y-68875695D01*
X109548552Y-68923314D01*
X109929504Y-68923314D01*
X110024742Y-68875695D01*
X110072361Y-68828076D01*
X110119980Y-68732838D01*
X110119980Y-68542361D01*
X110072361Y-68447123D01*
X110024742Y-68399504D01*
X109929504Y-68351885D01*
X109691409Y-68351885D01*
X109596171Y-68399504D01*
X109548552Y-68447123D01*
X109500933Y-68542361D01*
X109500933Y-68732838D01*
X109548552Y-68828076D01*
X109596171Y-68875695D01*
X109691409Y-68923314D01*
X110119980Y-79354266D02*
X109643790Y-79687600D01*
X110119980Y-79925695D02*
X109119980Y-79925695D01*
X109119980Y-79544742D01*
X109167600Y-79449504D01*
X109215219Y-79401885D01*
X109310457Y-79354266D01*
X109453314Y-79354266D01*
X109548552Y-79401885D01*
X109596171Y-79449504D01*
X109643790Y-79544742D01*
X109643790Y-79925695D01*
X109119980Y-79020933D02*
X109119980Y-78354266D01*
X110119980Y-78782838D01*
X105719980Y-69042666D02*
X105243790Y-69376000D01*
X105719980Y-69614095D02*
X104719980Y-69614095D01*
X104719980Y-69233142D01*
X104767600Y-69137904D01*
X104815219Y-69090285D01*
X104910457Y-69042666D01*
X105053314Y-69042666D01*
X105148552Y-69090285D01*
X105196171Y-69137904D01*
X105243790Y-69233142D01*
X105243790Y-69614095D01*
X105148552Y-68471238D02*
X105100933Y-68566476D01*
X105053314Y-68614095D01*
X104958076Y-68661714D01*
X104910457Y-68661714D01*
X104815219Y-68614095D01*
X104767600Y-68566476D01*
X104719980Y-68471238D01*
X104719980Y-68280761D01*
X104767600Y-68185523D01*
X104815219Y-68137904D01*
X104910457Y-68090285D01*
X104958076Y-68090285D01*
X105053314Y-68137904D01*
X105100933Y-68185523D01*
X105148552Y-68280761D01*
X105148552Y-68471238D01*
X105196171Y-68566476D01*
X105243790Y-68614095D01*
X105339028Y-68661714D01*
X105529504Y-68661714D01*
X105624742Y-68614095D01*
X105672361Y-68566476D01*
X105719980Y-68471238D01*
X105719980Y-68280761D01*
X105672361Y-68185523D01*
X105624742Y-68137904D01*
X105529504Y-68090285D01*
X105339028Y-68090285D01*
X105243790Y-68137904D01*
X105196171Y-68185523D01*
X105148552Y-68280761D01*
X105719980Y-79665866D02*
X105243790Y-79999200D01*
X105719980Y-80237295D02*
X104719980Y-80237295D01*
X104719980Y-79856342D01*
X104767600Y-79761104D01*
X104815219Y-79713485D01*
X104910457Y-79665866D01*
X105053314Y-79665866D01*
X105148552Y-79713485D01*
X105196171Y-79761104D01*
X105243790Y-79856342D01*
X105243790Y-80237295D01*
X105719980Y-79189676D02*
X105719980Y-78999200D01*
X105672361Y-78903961D01*
X105624742Y-78856342D01*
X105481885Y-78761104D01*
X105291409Y-78713485D01*
X104910457Y-78713485D01*
X104815219Y-78761104D01*
X104767600Y-78808723D01*
X104719980Y-78903961D01*
X104719980Y-79094438D01*
X104767600Y-79189676D01*
X104815219Y-79237295D01*
X104910457Y-79284914D01*
X105148552Y-79284914D01*
X105243790Y-79237295D01*
X105291409Y-79189676D01*
X105339028Y-79094438D01*
X105339028Y-78903961D01*
X105291409Y-78808723D01*
X105243790Y-78761104D01*
X105148552Y-78713485D01*
X105719980Y-61730457D02*
X105243790Y-62063790D01*
X105719980Y-62301885D02*
X104719980Y-62301885D01*
X104719980Y-61920933D01*
X104767600Y-61825695D01*
X104815219Y-61778076D01*
X104910457Y-61730457D01*
X105053314Y-61730457D01*
X105148552Y-61778076D01*
X105196171Y-61825695D01*
X105243790Y-61920933D01*
X105243790Y-62301885D01*
X105719980Y-60778076D02*
X105719980Y-61349504D01*
X105719980Y-61063790D02*
X104719980Y-61063790D01*
X104862838Y-61159028D01*
X104958076Y-61254266D01*
X105005695Y-61349504D01*
X104719980Y-60159028D02*
X104719980Y-60063790D01*
X104767600Y-59968552D01*
X104815219Y-59920933D01*
X104910457Y-59873314D01*
X105100933Y-59825695D01*
X105339028Y-59825695D01*
X105529504Y-59873314D01*
X105624742Y-59920933D01*
X105672361Y-59968552D01*
X105719980Y-60063790D01*
X105719980Y-60159028D01*
X105672361Y-60254266D01*
X105624742Y-60301885D01*
X105529504Y-60349504D01*
X105339028Y-60397123D01*
X105100933Y-60397123D01*
X104910457Y-60349504D01*
X104815219Y-60301885D01*
X104767600Y-60254266D01*
X104719980Y-60159028D01*
X105719980Y-88242057D02*
X105243790Y-88575390D01*
X105719980Y-88813485D02*
X104719980Y-88813485D01*
X104719980Y-88432533D01*
X104767600Y-88337295D01*
X104815219Y-88289676D01*
X104910457Y-88242057D01*
X105053314Y-88242057D01*
X105148552Y-88289676D01*
X105196171Y-88337295D01*
X105243790Y-88432533D01*
X105243790Y-88813485D01*
X105719980Y-87289676D02*
X105719980Y-87861104D01*
X105719980Y-87575390D02*
X104719980Y-87575390D01*
X104862838Y-87670628D01*
X104958076Y-87765866D01*
X105005695Y-87861104D01*
X105719980Y-86337295D02*
X105719980Y-86908723D01*
X105719980Y-86623009D02*
X104719980Y-86623009D01*
X104862838Y-86718247D01*
X104958076Y-86813485D01*
X105005695Y-86908723D01*
X110119980Y-61730457D02*
X109643790Y-62063790D01*
X110119980Y-62301885D02*
X109119980Y-62301885D01*
X109119980Y-61920933D01*
X109167600Y-61825695D01*
X109215219Y-61778076D01*
X109310457Y-61730457D01*
X109453314Y-61730457D01*
X109548552Y-61778076D01*
X109596171Y-61825695D01*
X109643790Y-61920933D01*
X109643790Y-62301885D01*
X110119980Y-60778076D02*
X110119980Y-61349504D01*
X110119980Y-61063790D02*
X109119980Y-61063790D01*
X109262838Y-61159028D01*
X109358076Y-61254266D01*
X109405695Y-61349504D01*
X109215219Y-60397123D02*
X109167600Y-60349504D01*
X109119980Y-60254266D01*
X109119980Y-60016171D01*
X109167600Y-59920933D01*
X109215219Y-59873314D01*
X109310457Y-59825695D01*
X109405695Y-59825695D01*
X109548552Y-59873314D01*
X110119980Y-60444742D01*
X110119980Y-59825695D01*
X110119980Y-88092057D02*
X109643790Y-88425390D01*
X110119980Y-88663485D02*
X109119980Y-88663485D01*
X109119980Y-88282533D01*
X109167600Y-88187295D01*
X109215219Y-88139676D01*
X109310457Y-88092057D01*
X109453314Y-88092057D01*
X109548552Y-88139676D01*
X109596171Y-88187295D01*
X109643790Y-88282533D01*
X109643790Y-88663485D01*
X110119980Y-87139676D02*
X110119980Y-87711104D01*
X110119980Y-87425390D02*
X109119980Y-87425390D01*
X109262838Y-87520628D01*
X109358076Y-87615866D01*
X109405695Y-87711104D01*
X109119980Y-86806342D02*
X109119980Y-86187295D01*
X109500933Y-86520628D01*
X109500933Y-86377771D01*
X109548552Y-86282533D01*
X109596171Y-86234914D01*
X109691409Y-86187295D01*
X109929504Y-86187295D01*
X110024742Y-86234914D01*
X110072361Y-86282533D01*
X110119980Y-86377771D01*
X110119980Y-86663485D01*
X110072361Y-86758723D01*
X110024742Y-86806342D01*
M02*
