G04 #@! TF.GenerationSoftware,KiCad,Pcbnew,(5.1.0)-1*
G04 #@! TF.CreationDate,2020-02-17T19:18:01+00:00*
G04 #@! TF.ProjectId,v4,76342e6b-6963-4616-945f-706362585858,rev?*
G04 #@! TF.SameCoordinates,Original*
G04 #@! TF.FileFunction,Legend,Top*
G04 #@! TF.FilePolarity,Positive*
%FSLAX46Y46*%
G04 Gerber Fmt 4.6, Leading zero omitted, Abs format (unit mm)*
G04 Created by KiCad (PCBNEW (5.1.0)-1) date 2020-02-17 19:18:01*
%MOMM*%
%LPD*%
G04 APERTURE LIST*
%ADD10C,0.300000*%
%ADD11C,0.100000*%
%ADD12C,0.200000*%
%ADD13C,0.380000*%
%ADD14C,0.120000*%
%ADD15C,0.150000*%
G04 APERTURE END LIST*
D10*
X122946171Y-89094742D02*
X124089028Y-89094742D01*
X123517600Y-89666171D02*
X123517600Y-88523314D01*
D11*
X125924028Y-91159028D02*
X125981171Y-91159028D01*
X126038314Y-91187600D01*
X126066885Y-91216171D01*
X126095457Y-91273314D01*
X126124028Y-91387600D01*
X126124028Y-91530457D01*
X126095457Y-91644742D01*
X126066885Y-91701885D01*
X126038314Y-91730457D01*
X125981171Y-91759028D01*
X125924028Y-91759028D01*
X125866885Y-91730457D01*
X125838314Y-91701885D01*
X125809742Y-91644742D01*
X125781171Y-91530457D01*
X125781171Y-91387600D01*
X125809742Y-91273314D01*
X125838314Y-91216171D01*
X125866885Y-91187600D01*
X125924028Y-91159028D01*
X126638314Y-91159028D02*
X126524028Y-91159028D01*
X126466885Y-91187600D01*
X126438314Y-91216171D01*
X126381171Y-91301885D01*
X126352600Y-91416171D01*
X126352600Y-91644742D01*
X126381171Y-91701885D01*
X126409742Y-91730457D01*
X126466885Y-91759028D01*
X126581171Y-91759028D01*
X126638314Y-91730457D01*
X126666885Y-91701885D01*
X126695457Y-91644742D01*
X126695457Y-91501885D01*
X126666885Y-91444742D01*
X126638314Y-91416171D01*
X126581171Y-91387600D01*
X126466885Y-91387600D01*
X126409742Y-91416171D01*
X126381171Y-91444742D01*
X126352600Y-91501885D01*
X127066885Y-91159028D02*
X127124028Y-91159028D01*
X127181171Y-91187600D01*
X127209742Y-91216171D01*
X127238314Y-91273314D01*
X127266885Y-91387600D01*
X127266885Y-91530457D01*
X127238314Y-91644742D01*
X127209742Y-91701885D01*
X127181171Y-91730457D01*
X127124028Y-91759028D01*
X127066885Y-91759028D01*
X127009742Y-91730457D01*
X126981171Y-91701885D01*
X126952600Y-91644742D01*
X126924028Y-91530457D01*
X126924028Y-91387600D01*
X126952600Y-91273314D01*
X126981171Y-91216171D01*
X127009742Y-91187600D01*
X127066885Y-91159028D01*
X127466885Y-91159028D02*
X127838314Y-91159028D01*
X127638314Y-91387600D01*
X127724028Y-91387600D01*
X127781171Y-91416171D01*
X127809742Y-91444742D01*
X127838314Y-91501885D01*
X127838314Y-91644742D01*
X127809742Y-91701885D01*
X127781171Y-91730457D01*
X127724028Y-91759028D01*
X127552600Y-91759028D01*
X127495457Y-91730457D01*
X127466885Y-91701885D01*
X128724028Y-91159028D02*
X128724028Y-91587600D01*
X128695457Y-91673314D01*
X128638314Y-91730457D01*
X128552600Y-91759028D01*
X128495457Y-91759028D01*
X129295457Y-91759028D02*
X129009742Y-91759028D01*
X129009742Y-91159028D01*
X129838314Y-91701885D02*
X129809742Y-91730457D01*
X129724028Y-91759028D01*
X129666885Y-91759028D01*
X129581171Y-91730457D01*
X129524028Y-91673314D01*
X129495457Y-91616171D01*
X129466885Y-91501885D01*
X129466885Y-91416171D01*
X129495457Y-91301885D01*
X129524028Y-91244742D01*
X129581171Y-91187600D01*
X129666885Y-91159028D01*
X129724028Y-91159028D01*
X129809742Y-91187600D01*
X129838314Y-91216171D01*
X130095457Y-91759028D02*
X130095457Y-91159028D01*
X130324028Y-91159028D01*
X130381171Y-91187600D01*
X130409742Y-91216171D01*
X130438314Y-91273314D01*
X130438314Y-91359028D01*
X130409742Y-91416171D01*
X130381171Y-91444742D01*
X130324028Y-91473314D01*
X130095457Y-91473314D01*
X131038314Y-91701885D02*
X131009742Y-91730457D01*
X130924028Y-91759028D01*
X130866885Y-91759028D01*
X130781171Y-91730457D01*
X130724028Y-91673314D01*
X130695457Y-91616171D01*
X130666885Y-91501885D01*
X130666885Y-91416171D01*
X130695457Y-91301885D01*
X130724028Y-91244742D01*
X130781171Y-91187600D01*
X130866885Y-91159028D01*
X130924028Y-91159028D01*
X131009742Y-91187600D01*
X131038314Y-91216171D01*
X131495457Y-91444742D02*
X131581171Y-91473314D01*
X131609742Y-91501885D01*
X131638314Y-91559028D01*
X131638314Y-91644742D01*
X131609742Y-91701885D01*
X131581171Y-91730457D01*
X131524028Y-91759028D01*
X131295457Y-91759028D01*
X131295457Y-91159028D01*
X131495457Y-91159028D01*
X131552600Y-91187600D01*
X131581171Y-91216171D01*
X131609742Y-91273314D01*
X131609742Y-91330457D01*
X131581171Y-91387600D01*
X131552600Y-91416171D01*
X131495457Y-91444742D01*
X131295457Y-91444742D01*
D12*
X116260457Y-58330457D02*
X115574742Y-58330457D01*
X115917600Y-58330457D02*
X115917600Y-57130457D01*
X115803314Y-57301885D01*
X115689028Y-57416171D01*
X115574742Y-57473314D01*
D10*
X103750933Y-88234891D02*
X102350933Y-88059891D01*
X102350933Y-87726558D01*
X102417600Y-87534891D01*
X102550933Y-87418225D01*
X102684266Y-87368225D01*
X102950933Y-87334891D01*
X103150933Y-87359891D01*
X103417600Y-87459891D01*
X103550933Y-87543225D01*
X103684266Y-87693225D01*
X103750933Y-87901558D01*
X103750933Y-88234891D01*
X103350933Y-86851558D02*
X103350933Y-86184891D01*
X103750933Y-87034891D02*
X102350933Y-86393225D01*
X103750933Y-86101558D01*
X103750933Y-85634891D02*
X102350933Y-85459891D01*
X103750933Y-84834891D01*
X102350933Y-84659891D01*
X102417600Y-83268225D02*
X102350933Y-83393225D01*
X102350933Y-83593225D01*
X102417600Y-83801558D01*
X102550933Y-83951558D01*
X102684266Y-84034891D01*
X102950933Y-84134891D01*
X103150933Y-84159891D01*
X103417600Y-84126558D01*
X103550933Y-84076558D01*
X103684266Y-83959891D01*
X103750933Y-83768225D01*
X103750933Y-83634891D01*
X103684266Y-83426558D01*
X103617600Y-83351558D01*
X103150933Y-83293225D01*
X103150933Y-83559891D01*
X103017600Y-82676558D02*
X103017600Y-82209891D01*
X103750933Y-82101558D02*
X103750933Y-82768225D01*
X102350933Y-82593225D01*
X102350933Y-81926558D01*
X103750933Y-80701558D02*
X103084266Y-81084891D01*
X103750933Y-81501558D02*
X102350933Y-81326558D01*
X102350933Y-80793225D01*
X102417600Y-80668225D01*
X102484266Y-80609891D01*
X102617600Y-80559891D01*
X102817600Y-80584891D01*
X102950933Y-80668225D01*
X103017600Y-80743225D01*
X103084266Y-80884891D01*
X103084266Y-81418225D01*
X103750933Y-79034891D02*
X102350933Y-78859891D01*
X103017600Y-78943225D02*
X103017600Y-78143225D01*
X103750933Y-78234891D02*
X102350933Y-78059891D01*
X102350933Y-77126558D02*
X102350933Y-76859891D01*
X102417600Y-76734891D01*
X102550933Y-76618225D01*
X102817600Y-76584891D01*
X103284266Y-76643225D01*
X103550933Y-76743225D01*
X103684266Y-76893225D01*
X103750933Y-77034891D01*
X103750933Y-77301558D01*
X103684266Y-77426558D01*
X103550933Y-77543225D01*
X103284266Y-77576558D01*
X102817600Y-77518225D01*
X102550933Y-77418225D01*
X102417600Y-77268225D01*
X102350933Y-77126558D01*
X102350933Y-76126558D02*
X102350933Y-75326558D01*
X103750933Y-75901558D02*
X102350933Y-75726558D01*
X103617600Y-75018225D02*
X103684266Y-74959891D01*
X103750933Y-75034891D01*
X103684266Y-75093225D01*
X103617600Y-75018225D01*
X103750933Y-75034891D01*
X103217600Y-74968225D02*
X102417600Y-74934891D01*
X102350933Y-74859891D01*
X102417600Y-74801558D01*
X103217600Y-74968225D01*
X102350933Y-74859891D01*
X112589028Y-89875695D02*
X111846171Y-89875695D01*
X112217600Y-89875695D02*
X112217600Y-88575695D01*
X112093790Y-88761409D01*
X111969980Y-88885219D01*
X111846171Y-88947123D01*
D13*
X131231885Y-75006028D02*
X129431885Y-75006028D01*
X129431885Y-74577457D01*
X129517600Y-74320314D01*
X129689028Y-74148885D01*
X129860457Y-74063171D01*
X130203314Y-73977457D01*
X130460457Y-73977457D01*
X130803314Y-74063171D01*
X130974742Y-74148885D01*
X131146171Y-74320314D01*
X131231885Y-74577457D01*
X131231885Y-75006028D01*
X131231885Y-73206028D02*
X129431885Y-73206028D01*
X130374742Y-72006028D02*
X131231885Y-72006028D01*
X129431885Y-72606028D02*
X130374742Y-72006028D01*
X129431885Y-71406028D01*
X130289028Y-70206028D02*
X130374742Y-69948885D01*
X130460457Y-69863171D01*
X130631885Y-69777457D01*
X130889028Y-69777457D01*
X131060457Y-69863171D01*
X131146171Y-69948885D01*
X131231885Y-70120314D01*
X131231885Y-70806028D01*
X129431885Y-70806028D01*
X129431885Y-70206028D01*
X129517600Y-70034600D01*
X129603314Y-69948885D01*
X129774742Y-69863171D01*
X129946171Y-69863171D01*
X130117600Y-69948885D01*
X130203314Y-70034600D01*
X130289028Y-70206028D01*
X130289028Y-70806028D01*
X131231885Y-69006028D02*
X129431885Y-69006028D01*
X130717600Y-68406028D01*
X129431885Y-67806028D01*
X131231885Y-67806028D01*
X131146171Y-67034600D02*
X131231885Y-66777457D01*
X131231885Y-66348885D01*
X131146171Y-66177457D01*
X131060457Y-66091742D01*
X130889028Y-66006028D01*
X130717600Y-66006028D01*
X130546171Y-66091742D01*
X130460457Y-66177457D01*
X130374742Y-66348885D01*
X130289028Y-66691742D01*
X130203314Y-66863171D01*
X130117600Y-66948885D01*
X129946171Y-67034600D01*
X129774742Y-67034600D01*
X129603314Y-66948885D01*
X129517600Y-66863171D01*
X129431885Y-66691742D01*
X129431885Y-66263171D01*
X129517600Y-66006028D01*
X130031885Y-64034600D02*
X131231885Y-63606028D01*
X130031885Y-63177457D01*
X130031885Y-61720314D02*
X131231885Y-61720314D01*
X129346171Y-62148885D02*
X130631885Y-62577457D01*
X130631885Y-61463171D01*
X131060457Y-60777457D02*
X131146171Y-60691742D01*
X131231885Y-60777457D01*
X131146171Y-60863171D01*
X131060457Y-60777457D01*
X131231885Y-60777457D01*
X129603314Y-60006028D02*
X129517600Y-59920314D01*
X129431885Y-59748885D01*
X129431885Y-59320314D01*
X129517600Y-59148885D01*
X129603314Y-59063171D01*
X129774742Y-58977457D01*
X129946171Y-58977457D01*
X130203314Y-59063171D01*
X131231885Y-60091742D01*
X131231885Y-58977457D01*
D12*
X120169980Y-64201885D02*
X120169980Y-64773314D01*
X120169980Y-64487600D02*
X119169980Y-64487600D01*
X119312838Y-64582838D01*
X119408076Y-64678076D01*
X119455695Y-64773314D01*
D10*
X122089028Y-89180457D02*
X120946171Y-89180457D01*
X110631885Y-100942571D02*
X111560457Y-100942571D01*
X111060457Y-101514000D01*
X111274742Y-101514000D01*
X111417600Y-101585428D01*
X111489028Y-101656857D01*
X111560457Y-101799714D01*
X111560457Y-102156857D01*
X111489028Y-102299714D01*
X111417600Y-102371142D01*
X111274742Y-102442571D01*
X110846171Y-102442571D01*
X110703314Y-102371142D01*
X110631885Y-102299714D01*
X112489028Y-100942571D02*
X112631885Y-100942571D01*
X112774742Y-101014000D01*
X112846171Y-101085428D01*
X112917600Y-101228285D01*
X112989028Y-101514000D01*
X112989028Y-101871142D01*
X112917600Y-102156857D01*
X112846171Y-102299714D01*
X112774742Y-102371142D01*
X112631885Y-102442571D01*
X112489028Y-102442571D01*
X112346171Y-102371142D01*
X112274742Y-102299714D01*
X112203314Y-102156857D01*
X112131885Y-101871142D01*
X112131885Y-101514000D01*
X112203314Y-101228285D01*
X112274742Y-101085428D01*
X112346171Y-101014000D01*
X112489028Y-100942571D01*
X113631885Y-102299714D02*
X113703314Y-102371142D01*
X113631885Y-102442571D01*
X113560457Y-102371142D01*
X113631885Y-102299714D01*
X113631885Y-102442571D01*
X114631885Y-100942571D02*
X114774742Y-100942571D01*
X114917600Y-101014000D01*
X114989028Y-101085428D01*
X115060457Y-101228285D01*
X115131885Y-101514000D01*
X115131885Y-101871142D01*
X115060457Y-102156857D01*
X114989028Y-102299714D01*
X114917600Y-102371142D01*
X114774742Y-102442571D01*
X114631885Y-102442571D01*
X114489028Y-102371142D01*
X114417600Y-102299714D01*
X114346171Y-102156857D01*
X114274742Y-101871142D01*
X114274742Y-101514000D01*
X114346171Y-101228285D01*
X114417600Y-101085428D01*
X114489028Y-101014000D01*
X114631885Y-100942571D01*
X116060457Y-100942571D02*
X116203314Y-100942571D01*
X116346171Y-101014000D01*
X116417600Y-101085428D01*
X116489028Y-101228285D01*
X116560457Y-101514000D01*
X116560457Y-101871142D01*
X116489028Y-102156857D01*
X116417600Y-102299714D01*
X116346171Y-102371142D01*
X116203314Y-102442571D01*
X116060457Y-102442571D01*
X115917600Y-102371142D01*
X115846171Y-102299714D01*
X115774742Y-102156857D01*
X115703314Y-101871142D01*
X115703314Y-101514000D01*
X115774742Y-101228285D01*
X115846171Y-101085428D01*
X115917600Y-101014000D01*
X116060457Y-100942571D01*
X117489028Y-100942571D02*
X117631885Y-100942571D01*
X117774742Y-101014000D01*
X117846171Y-101085428D01*
X117917600Y-101228285D01*
X117989028Y-101514000D01*
X117989028Y-101871142D01*
X117917600Y-102156857D01*
X117846171Y-102299714D01*
X117774742Y-102371142D01*
X117631885Y-102442571D01*
X117489028Y-102442571D01*
X117346171Y-102371142D01*
X117274742Y-102299714D01*
X117203314Y-102156857D01*
X117131885Y-101871142D01*
X117131885Y-101514000D01*
X117203314Y-101228285D01*
X117274742Y-101085428D01*
X117346171Y-101014000D01*
X117489028Y-100942571D01*
X119774742Y-102442571D02*
X119774742Y-101442571D01*
X119774742Y-101585428D02*
X119846171Y-101514000D01*
X119989028Y-101442571D01*
X120203314Y-101442571D01*
X120346171Y-101514000D01*
X120417600Y-101656857D01*
X120417600Y-102442571D01*
X120417600Y-101656857D02*
X120489028Y-101514000D01*
X120631885Y-101442571D01*
X120846171Y-101442571D01*
X120989028Y-101514000D01*
X121060457Y-101656857D01*
X121060457Y-102442571D01*
X121774742Y-102442571D02*
X121774742Y-101442571D01*
X121774742Y-101585428D02*
X121846171Y-101514000D01*
X121989028Y-101442571D01*
X122203314Y-101442571D01*
X122346171Y-101514000D01*
X122417600Y-101656857D01*
X122417600Y-102442571D01*
X122417600Y-101656857D02*
X122489028Y-101514000D01*
X122631885Y-101442571D01*
X122846171Y-101442571D01*
X122989028Y-101514000D01*
X123060457Y-101656857D01*
X123060457Y-102442571D01*
X101917600Y-99664000D02*
X131917600Y-99664000D01*
X101917600Y-97987600D02*
X101917600Y-100250421D01*
X131917600Y-97987600D02*
X131917600Y-100250421D01*
X131917600Y-99664000D02*
X130791096Y-100250421D01*
X131917600Y-99664000D02*
X130791096Y-99077579D01*
X101917600Y-99664000D02*
X103044104Y-100250421D01*
X101917600Y-99664000D02*
X103044104Y-99077579D01*
X136939028Y-66559028D02*
X136939028Y-65844742D01*
X136224742Y-65773314D01*
X136296171Y-65844742D01*
X136367600Y-65987600D01*
X136367600Y-66344742D01*
X136296171Y-66487600D01*
X136224742Y-66559028D01*
X136081885Y-66630457D01*
X135724742Y-66630457D01*
X135581885Y-66559028D01*
X135510457Y-66487600D01*
X135439028Y-66344742D01*
X135439028Y-65987600D01*
X135510457Y-65844742D01*
X135581885Y-65773314D01*
X136939028Y-67559028D02*
X136939028Y-67701885D01*
X136867600Y-67844742D01*
X136796171Y-67916171D01*
X136653314Y-67987600D01*
X136367600Y-68059028D01*
X136010457Y-68059028D01*
X135724742Y-67987600D01*
X135581885Y-67916171D01*
X135510457Y-67844742D01*
X135439028Y-67701885D01*
X135439028Y-67559028D01*
X135510457Y-67416171D01*
X135581885Y-67344742D01*
X135724742Y-67273314D01*
X136010457Y-67201885D01*
X136367600Y-67201885D01*
X136653314Y-67273314D01*
X136796171Y-67344742D01*
X136867600Y-67416171D01*
X136939028Y-67559028D01*
X135581885Y-68701885D02*
X135510457Y-68773314D01*
X135439028Y-68701885D01*
X135510457Y-68630457D01*
X135581885Y-68701885D01*
X135439028Y-68701885D01*
X136939028Y-69701885D02*
X136939028Y-69844742D01*
X136867600Y-69987600D01*
X136796171Y-70059028D01*
X136653314Y-70130457D01*
X136367600Y-70201885D01*
X136010457Y-70201885D01*
X135724742Y-70130457D01*
X135581885Y-70059028D01*
X135510457Y-69987600D01*
X135439028Y-69844742D01*
X135439028Y-69701885D01*
X135510457Y-69559028D01*
X135581885Y-69487600D01*
X135724742Y-69416171D01*
X136010457Y-69344742D01*
X136367600Y-69344742D01*
X136653314Y-69416171D01*
X136796171Y-69487600D01*
X136867600Y-69559028D01*
X136939028Y-69701885D01*
X136939028Y-71130457D02*
X136939028Y-71273314D01*
X136867600Y-71416171D01*
X136796171Y-71487600D01*
X136653314Y-71559028D01*
X136367600Y-71630457D01*
X136010457Y-71630457D01*
X135724742Y-71559028D01*
X135581885Y-71487600D01*
X135510457Y-71416171D01*
X135439028Y-71273314D01*
X135439028Y-71130457D01*
X135510457Y-70987600D01*
X135581885Y-70916171D01*
X135724742Y-70844742D01*
X136010457Y-70773314D01*
X136367600Y-70773314D01*
X136653314Y-70844742D01*
X136796171Y-70916171D01*
X136867600Y-70987600D01*
X136939028Y-71130457D01*
X136939028Y-72559028D02*
X136939028Y-72701885D01*
X136867600Y-72844742D01*
X136796171Y-72916171D01*
X136653314Y-72987600D01*
X136367600Y-73059028D01*
X136010457Y-73059028D01*
X135724742Y-72987600D01*
X135581885Y-72916171D01*
X135510457Y-72844742D01*
X135439028Y-72701885D01*
X135439028Y-72559028D01*
X135510457Y-72416171D01*
X135581885Y-72344742D01*
X135724742Y-72273314D01*
X136010457Y-72201885D01*
X136367600Y-72201885D01*
X136653314Y-72273314D01*
X136796171Y-72344742D01*
X136867600Y-72416171D01*
X136939028Y-72559028D01*
X135439028Y-74844742D02*
X136439028Y-74844742D01*
X136296171Y-74844742D02*
X136367600Y-74916171D01*
X136439028Y-75059028D01*
X136439028Y-75273314D01*
X136367600Y-75416171D01*
X136224742Y-75487600D01*
X135439028Y-75487600D01*
X136224742Y-75487600D02*
X136367600Y-75559028D01*
X136439028Y-75701885D01*
X136439028Y-75916171D01*
X136367600Y-76059028D01*
X136224742Y-76130457D01*
X135439028Y-76130457D01*
X135439028Y-76844742D02*
X136439028Y-76844742D01*
X136296171Y-76844742D02*
X136367600Y-76916171D01*
X136439028Y-77059028D01*
X136439028Y-77273314D01*
X136367600Y-77416171D01*
X136224742Y-77487600D01*
X135439028Y-77487600D01*
X136224742Y-77487600D02*
X136367600Y-77559028D01*
X136439028Y-77701885D01*
X136439028Y-77916171D01*
X136367600Y-78059028D01*
X136224742Y-78130457D01*
X135439028Y-78130457D01*
X134017600Y-46987600D02*
X134017600Y-96987600D01*
X131917600Y-46987600D02*
X134604021Y-46987600D01*
X131917600Y-96987600D02*
X134604021Y-96987600D01*
X134017600Y-96987600D02*
X133431179Y-95861096D01*
X134017600Y-96987600D02*
X134604021Y-95861096D01*
X134017600Y-46987600D02*
X133431179Y-48114104D01*
X134017600Y-46987600D02*
X134604021Y-48114104D01*
D14*
X126297600Y-58027600D02*
X125367600Y-58027600D01*
X123137600Y-58027600D02*
X124067600Y-58027600D01*
X123137600Y-58027600D02*
X123137600Y-60187600D01*
X126297600Y-58027600D02*
X126297600Y-59487600D01*
X105217600Y-75017600D02*
X107217600Y-75017600D01*
X107217600Y-77157600D02*
X105217600Y-77157600D01*
X109717600Y-75017600D02*
X111717600Y-75017600D01*
X111717600Y-77157600D02*
X109717600Y-77157600D01*
X116417600Y-75017600D02*
X118417600Y-75017600D01*
X118417600Y-77157600D02*
X116417600Y-77157600D01*
X120817600Y-75017600D02*
X122817600Y-75017600D01*
X122817600Y-77157600D02*
X120817600Y-77157600D01*
X105217600Y-82967600D02*
X107217600Y-82967600D01*
X107217600Y-85107600D02*
X105217600Y-85107600D01*
X105217600Y-85617600D02*
X107217600Y-85617600D01*
X107217600Y-87757600D02*
X105217600Y-87757600D01*
X109717600Y-82967600D02*
X111717600Y-82967600D01*
X111717600Y-85107600D02*
X109717600Y-85107600D01*
X109717600Y-85617600D02*
X111717600Y-85617600D01*
X111717600Y-87757600D02*
X109717600Y-87757600D01*
X116317600Y-82967600D02*
X118317600Y-82967600D01*
X118317600Y-85107600D02*
X116317600Y-85107600D01*
X116317600Y-85617600D02*
X118317600Y-85617600D01*
X118317600Y-87757600D02*
X116317600Y-87757600D01*
X120817600Y-82967600D02*
X122817600Y-82967600D01*
X122817600Y-85107600D02*
X120817600Y-85107600D01*
X120817600Y-85617600D02*
X122817600Y-85617600D01*
X122817600Y-87757600D02*
X120817600Y-87757600D01*
X105217600Y-77667600D02*
X107217600Y-77667600D01*
X107217600Y-79807600D02*
X105217600Y-79807600D01*
X105217600Y-80317600D02*
X107217600Y-80317600D01*
X107217600Y-82457600D02*
X105217600Y-82457600D01*
X109717600Y-77667600D02*
X111717600Y-77667600D01*
X111717600Y-79807600D02*
X109717600Y-79807600D01*
X109717600Y-80317600D02*
X111717600Y-80317600D01*
X111717600Y-82457600D02*
X109717600Y-82457600D01*
X116417600Y-77667600D02*
X118417600Y-77667600D01*
X118417600Y-79807600D02*
X116417600Y-79807600D01*
X116317600Y-80317600D02*
X118317600Y-80317600D01*
X118317600Y-82457600D02*
X116317600Y-82457600D01*
X120817600Y-77667600D02*
X122817600Y-77667600D01*
X122817600Y-79807600D02*
X120817600Y-79807600D01*
X120817600Y-80317600D02*
X122817600Y-80317600D01*
X122817600Y-82457600D02*
X120817600Y-82457600D01*
X108242600Y-92512600D02*
X108242600Y-93912600D01*
X108242600Y-93912600D02*
X111042600Y-93912600D01*
X108242600Y-92512600D02*
X111042600Y-92512600D01*
X120317600Y-61737600D02*
X119317600Y-61737600D01*
X119317600Y-63437600D02*
X120317600Y-63437600D01*
X103717600Y-54587600D02*
X103717600Y-55987600D01*
X103717600Y-55987600D02*
X106517600Y-55987600D01*
X103717600Y-54587600D02*
X106517600Y-54587600D01*
X114617600Y-56797600D02*
X114617600Y-57197600D01*
X114617600Y-57197600D02*
X113217600Y-57197600D01*
X114617600Y-56797600D02*
X119417600Y-56797600D01*
X114617600Y-59997600D02*
X119417600Y-59997600D01*
X127517600Y-54387600D02*
X127517600Y-55787600D01*
X127517600Y-55787600D02*
X130317600Y-55787600D01*
X127517600Y-54387600D02*
X130317600Y-54387600D01*
X122717600Y-48037600D02*
X122717600Y-52387600D01*
X122717600Y-52387600D02*
X121717600Y-52387600D01*
X121717600Y-52387600D02*
X121717600Y-48037600D01*
X124017600Y-54237600D02*
X124367600Y-54237600D01*
X124367600Y-54237600D02*
X124367600Y-55837600D01*
X124367600Y-55837600D02*
X125267600Y-55837600D01*
X125267600Y-55837600D02*
X125267600Y-48037600D01*
X125267600Y-48037600D02*
X119167600Y-48037600D01*
X119167600Y-48037600D02*
X119167600Y-55837600D01*
X119167600Y-55837600D02*
X120067600Y-55837600D01*
X120067600Y-55837600D02*
X120067600Y-54237600D01*
X120067600Y-54237600D02*
X120417600Y-54237600D01*
X125267600Y-54237600D02*
X124367600Y-54237600D01*
X119167600Y-54237600D02*
X120067600Y-54237600D01*
X124517600Y-51887600D02*
X124517600Y-50287600D01*
X124517600Y-50287600D02*
X123517600Y-50287600D01*
X123517600Y-50287600D02*
X123517600Y-51887600D01*
X123517600Y-51887600D02*
X124517600Y-51887600D01*
X119917600Y-51887600D02*
X119917600Y-50287600D01*
X119917600Y-50287600D02*
X120917600Y-50287600D01*
X120917600Y-50287600D02*
X120917600Y-51887600D01*
X120917600Y-51887600D02*
X119917600Y-51887600D01*
X123517600Y-50287600D02*
X123517600Y-48037600D01*
X124017600Y-50287600D02*
X124017600Y-48037600D01*
X124017600Y-54237600D02*
X124017600Y-55437600D01*
X109542600Y-94332600D02*
X110542600Y-94332600D01*
X110542600Y-95692600D02*
X109542600Y-95692600D01*
X129717600Y-75607600D02*
X130717600Y-75607600D01*
X130717600Y-76967600D02*
X129717600Y-76967600D01*
X113337600Y-83087600D02*
X113337600Y-82087600D01*
X114697600Y-82087600D02*
X114697600Y-83087600D01*
X115417600Y-69017600D02*
X114417600Y-69017600D01*
X114417600Y-67657600D02*
X115417600Y-67657600D01*
X128117600Y-56507600D02*
X129117600Y-56507600D01*
X129117600Y-57867600D02*
X128117600Y-57867600D01*
X117417600Y-52567600D02*
X116417600Y-52567600D01*
X116417600Y-51207600D02*
X117417600Y-51207600D01*
X117417600Y-50467600D02*
X116417600Y-50467600D01*
X116417600Y-49107600D02*
X117417600Y-49107600D01*
X111717600Y-71567600D02*
X110717600Y-71567600D01*
X110717600Y-70207600D02*
X111717600Y-70207600D01*
X111717600Y-73567600D02*
X110717600Y-73567600D01*
X110717600Y-72207600D02*
X111717600Y-72207600D01*
X117417600Y-54667600D02*
X116417600Y-54667600D01*
X116417600Y-53307600D02*
X117417600Y-53307600D01*
X115417600Y-64517600D02*
X114417600Y-64517600D01*
X114417600Y-63157600D02*
X115417600Y-63157600D01*
X115417600Y-66767600D02*
X114417600Y-66767600D01*
X114417600Y-65407600D02*
X115417600Y-65407600D01*
X115417600Y-71267600D02*
X114417600Y-71267600D01*
X114417600Y-69907600D02*
X115417600Y-69907600D01*
X115417600Y-62267600D02*
X114417600Y-62267600D01*
X114417600Y-60907600D02*
X115417600Y-60907600D01*
X107967600Y-73487600D02*
X107267600Y-73487600D01*
X107267600Y-72287600D02*
X107967600Y-72287600D01*
X128587600Y-90477600D02*
X131247600Y-90477600D01*
X128587600Y-80257600D02*
X128587600Y-90477600D01*
X131247600Y-80257600D02*
X131247600Y-90477600D01*
X128587600Y-80257600D02*
X131247600Y-80257600D01*
X128587600Y-78987600D02*
X128587600Y-77657600D01*
X128587600Y-77657600D02*
X129917600Y-77657600D01*
X112687600Y-96647600D02*
X117887600Y-96647600D01*
X112687600Y-91507600D02*
X112687600Y-96647600D01*
X117887600Y-88907600D02*
X117887600Y-96647600D01*
X112687600Y-91507600D02*
X115287600Y-91507600D01*
X115287600Y-91507600D02*
X115287600Y-88907600D01*
X115287600Y-88907600D02*
X117887600Y-88907600D01*
X112687600Y-90237600D02*
X112687600Y-88907600D01*
X112687600Y-88907600D02*
X114017600Y-88907600D01*
X121717600Y-97837600D02*
X121717600Y-93487600D01*
X121717600Y-93487600D02*
X122717600Y-93487600D01*
X122717600Y-93487600D02*
X122717600Y-97837600D01*
X120417600Y-91637600D02*
X120067600Y-91637600D01*
X120067600Y-91637600D02*
X120067600Y-90037600D01*
X120067600Y-90037600D02*
X119167600Y-90037600D01*
X119167600Y-90037600D02*
X119167600Y-97837600D01*
X119167600Y-97837600D02*
X125267600Y-97837600D01*
X125267600Y-97837600D02*
X125267600Y-90037600D01*
X125267600Y-90037600D02*
X124367600Y-90037600D01*
X124367600Y-90037600D02*
X124367600Y-91637600D01*
X124367600Y-91637600D02*
X124017600Y-91637600D01*
X119167600Y-91637600D02*
X120067600Y-91637600D01*
X125267600Y-91637600D02*
X124367600Y-91637600D01*
X119917600Y-93987600D02*
X119917600Y-95587600D01*
X119917600Y-95587600D02*
X120917600Y-95587600D01*
X120917600Y-95587600D02*
X120917600Y-93987600D01*
X120917600Y-93987600D02*
X119917600Y-93987600D01*
X124517600Y-93987600D02*
X124517600Y-95587600D01*
X124517600Y-95587600D02*
X123517600Y-95587600D01*
X123517600Y-95587600D02*
X123517600Y-93987600D01*
X123517600Y-93987600D02*
X124517600Y-93987600D01*
X120917600Y-95587600D02*
X120917600Y-97837600D01*
X120417600Y-95587600D02*
X120417600Y-97837600D01*
X120417600Y-91637600D02*
X120417600Y-90437600D01*
D15*
X122042600Y-63937600D02*
X122042600Y-63962600D01*
X126192600Y-63937600D02*
X126192600Y-64052600D01*
X126192600Y-72837600D02*
X126192600Y-72722600D01*
X122042600Y-72837600D02*
X122042600Y-72722600D01*
X122042600Y-63937600D02*
X126192600Y-63937600D01*
X122042600Y-72837600D02*
X126192600Y-72837600D01*
X122042600Y-63962600D02*
X120667600Y-63962600D01*
D14*
X112117600Y-48037600D02*
X112117600Y-52387600D01*
X112117600Y-52387600D02*
X111117600Y-52387600D01*
X111117600Y-52387600D02*
X111117600Y-48037600D01*
X113417600Y-54237600D02*
X113767600Y-54237600D01*
X113767600Y-54237600D02*
X113767600Y-55837600D01*
X113767600Y-55837600D02*
X114667600Y-55837600D01*
X114667600Y-55837600D02*
X114667600Y-48037600D01*
X114667600Y-48037600D02*
X108567600Y-48037600D01*
X108567600Y-48037600D02*
X108567600Y-55837600D01*
X108567600Y-55837600D02*
X109467600Y-55837600D01*
X109467600Y-55837600D02*
X109467600Y-54237600D01*
X109467600Y-54237600D02*
X109817600Y-54237600D01*
X114667600Y-54237600D02*
X113767600Y-54237600D01*
X108567600Y-54237600D02*
X109467600Y-54237600D01*
X113917600Y-51887600D02*
X113917600Y-50287600D01*
X113917600Y-50287600D02*
X112917600Y-50287600D01*
X112917600Y-50287600D02*
X112917600Y-51887600D01*
X112917600Y-51887600D02*
X113917600Y-51887600D01*
X109317600Y-51887600D02*
X109317600Y-50287600D01*
X109317600Y-50287600D02*
X110317600Y-50287600D01*
X110317600Y-50287600D02*
X110317600Y-51887600D01*
X110317600Y-51887600D02*
X109317600Y-51887600D01*
X112917600Y-50287600D02*
X112917600Y-48037600D01*
X113417600Y-50287600D02*
X113417600Y-48037600D01*
X113417600Y-54237600D02*
X113417600Y-55437600D01*
X109097600Y-69527600D02*
X108167600Y-69527600D01*
X105937600Y-69527600D02*
X106867600Y-69527600D01*
X105937600Y-69527600D02*
X105937600Y-71687600D01*
X109097600Y-69527600D02*
X109097600Y-70987600D01*
D15*
X126679504Y-60439980D02*
X126679504Y-59439980D01*
X126917600Y-59439980D01*
X127060457Y-59487600D01*
X127155695Y-59582838D01*
X127203314Y-59678076D01*
X127250933Y-59868552D01*
X127250933Y-60011409D01*
X127203314Y-60201885D01*
X127155695Y-60297123D01*
X127060457Y-60392361D01*
X126917600Y-60439980D01*
X126679504Y-60439980D01*
X128203314Y-60439980D02*
X127631885Y-60439980D01*
X127917600Y-60439980D02*
X127917600Y-59439980D01*
X127822361Y-59582838D01*
X127727123Y-59678076D01*
X127631885Y-59725695D01*
X109304504Y-92214980D02*
X109304504Y-91214980D01*
X109542600Y-91214980D01*
X109685457Y-91262600D01*
X109780695Y-91357838D01*
X109828314Y-91453076D01*
X109875933Y-91643552D01*
X109875933Y-91786409D01*
X109828314Y-91976885D01*
X109780695Y-92072123D01*
X109685457Y-92167361D01*
X109542600Y-92214980D01*
X109304504Y-92214980D01*
X110256885Y-91310219D02*
X110304504Y-91262600D01*
X110399742Y-91214980D01*
X110637838Y-91214980D01*
X110733076Y-91262600D01*
X110780695Y-91310219D01*
X110828314Y-91405457D01*
X110828314Y-91500695D01*
X110780695Y-91643552D01*
X110209266Y-92214980D01*
X110828314Y-92214980D01*
D11*
X119700933Y-61437600D02*
X119667600Y-61470933D01*
X119567600Y-61504266D01*
X119500933Y-61504266D01*
X119400933Y-61470933D01*
X119334266Y-61404266D01*
X119300933Y-61337600D01*
X119267600Y-61204266D01*
X119267600Y-61104266D01*
X119300933Y-60970933D01*
X119334266Y-60904266D01*
X119400933Y-60837600D01*
X119500933Y-60804266D01*
X119567600Y-60804266D01*
X119667600Y-60837600D01*
X119700933Y-60870933D01*
X120367600Y-61504266D02*
X119967600Y-61504266D01*
X120167600Y-61504266D02*
X120167600Y-60804266D01*
X120100933Y-60904266D01*
X120034266Y-60970933D01*
X119967600Y-61004266D01*
D15*
X104779504Y-54289980D02*
X104779504Y-53289980D01*
X105017600Y-53289980D01*
X105160457Y-53337600D01*
X105255695Y-53432838D01*
X105303314Y-53528076D01*
X105350933Y-53718552D01*
X105350933Y-53861409D01*
X105303314Y-54051885D01*
X105255695Y-54147123D01*
X105160457Y-54242361D01*
X105017600Y-54289980D01*
X104779504Y-54289980D01*
X105684266Y-53289980D02*
X106303314Y-53289980D01*
X105969980Y-53670933D01*
X106112838Y-53670933D01*
X106208076Y-53718552D01*
X106255695Y-53766171D01*
X106303314Y-53861409D01*
X106303314Y-54099504D01*
X106255695Y-54194742D01*
X106208076Y-54242361D01*
X106112838Y-54289980D01*
X105827123Y-54289980D01*
X105731885Y-54242361D01*
X105684266Y-54194742D01*
D11*
X117684266Y-57104266D02*
X117684266Y-57670933D01*
X117717600Y-57737600D01*
X117750933Y-57770933D01*
X117817600Y-57804266D01*
X117950933Y-57804266D01*
X118017600Y-57770933D01*
X118050933Y-57737600D01*
X118084266Y-57670933D01*
X118084266Y-57104266D01*
X118784266Y-57804266D02*
X118384266Y-57804266D01*
X118584266Y-57804266D02*
X118584266Y-57104266D01*
X118517600Y-57204266D01*
X118450933Y-57270933D01*
X118384266Y-57304266D01*
X128800933Y-54204266D02*
X128800933Y-53504266D01*
X128967600Y-53504266D01*
X129067600Y-53537600D01*
X129134266Y-53604266D01*
X129167600Y-53670933D01*
X129200933Y-53804266D01*
X129200933Y-53904266D01*
X129167600Y-54037600D01*
X129134266Y-54104266D01*
X129067600Y-54170933D01*
X128967600Y-54204266D01*
X128800933Y-54204266D01*
X129800933Y-53737600D02*
X129800933Y-54204266D01*
X129634266Y-53470933D02*
X129467600Y-53970933D01*
X129900933Y-53970933D01*
X125934266Y-50254266D02*
X125934266Y-49854266D01*
X126634266Y-50054266D02*
X125934266Y-50054266D01*
X125934266Y-49687600D02*
X126634266Y-49220933D01*
X125934266Y-49220933D02*
X126634266Y-49687600D01*
X126634266Y-48587600D02*
X126634266Y-48987600D01*
X126634266Y-48787600D02*
X125934266Y-48787600D01*
X126034266Y-48854266D01*
X126100933Y-48920933D01*
X126134266Y-48987600D01*
X109492600Y-96829266D02*
X109259266Y-96495933D01*
X109092600Y-96829266D02*
X109092600Y-96129266D01*
X109359266Y-96129266D01*
X109425933Y-96162600D01*
X109459266Y-96195933D01*
X109492600Y-96262600D01*
X109492600Y-96362600D01*
X109459266Y-96429266D01*
X109425933Y-96462600D01*
X109359266Y-96495933D01*
X109092600Y-96495933D01*
X109759266Y-96195933D02*
X109792600Y-96162600D01*
X109859266Y-96129266D01*
X110025933Y-96129266D01*
X110092600Y-96162600D01*
X110125933Y-96195933D01*
X110159266Y-96262600D01*
X110159266Y-96329266D01*
X110125933Y-96429266D01*
X109725933Y-96829266D01*
X110159266Y-96829266D01*
X110392600Y-96129266D02*
X110825933Y-96129266D01*
X110592600Y-96395933D01*
X110692600Y-96395933D01*
X110759266Y-96429266D01*
X110792600Y-96462600D01*
X110825933Y-96529266D01*
X110825933Y-96695933D01*
X110792600Y-96762600D01*
X110759266Y-96795933D01*
X110692600Y-96829266D01*
X110492600Y-96829266D01*
X110425933Y-96795933D01*
X110392600Y-96762600D01*
X127567600Y-76604266D02*
X127334266Y-76270933D01*
X127167600Y-76604266D02*
X127167600Y-75904266D01*
X127434266Y-75904266D01*
X127500933Y-75937600D01*
X127534266Y-75970933D01*
X127567600Y-76037600D01*
X127567600Y-76137600D01*
X127534266Y-76204266D01*
X127500933Y-76237600D01*
X127434266Y-76270933D01*
X127167600Y-76270933D01*
X127834266Y-75970933D02*
X127867600Y-75937600D01*
X127934266Y-75904266D01*
X128100933Y-75904266D01*
X128167600Y-75937600D01*
X128200933Y-75970933D01*
X128234266Y-76037600D01*
X128234266Y-76104266D01*
X128200933Y-76204266D01*
X127800933Y-76604266D01*
X128234266Y-76604266D01*
X128900933Y-76604266D02*
X128500933Y-76604266D01*
X128700933Y-76604266D02*
X128700933Y-75904266D01*
X128634266Y-76004266D01*
X128567600Y-76070933D01*
X128500933Y-76104266D01*
X113367600Y-84704266D02*
X113134266Y-84370933D01*
X112967600Y-84704266D02*
X112967600Y-84004266D01*
X113234266Y-84004266D01*
X113300933Y-84037600D01*
X113334266Y-84070933D01*
X113367600Y-84137600D01*
X113367600Y-84237600D01*
X113334266Y-84304266D01*
X113300933Y-84337600D01*
X113234266Y-84370933D01*
X112967600Y-84370933D01*
X113634266Y-84070933D02*
X113667600Y-84037600D01*
X113734266Y-84004266D01*
X113900933Y-84004266D01*
X113967600Y-84037600D01*
X114000933Y-84070933D01*
X114034266Y-84137600D01*
X114034266Y-84204266D01*
X114000933Y-84304266D01*
X113600933Y-84704266D01*
X114034266Y-84704266D01*
X114467600Y-84004266D02*
X114534266Y-84004266D01*
X114600933Y-84037600D01*
X114634266Y-84070933D01*
X114667600Y-84137600D01*
X114700933Y-84270933D01*
X114700933Y-84437600D01*
X114667600Y-84570933D01*
X114634266Y-84637600D01*
X114600933Y-84670933D01*
X114534266Y-84704266D01*
X114467600Y-84704266D01*
X114400933Y-84670933D01*
X114367600Y-84637600D01*
X114334266Y-84570933D01*
X114300933Y-84437600D01*
X114300933Y-84270933D01*
X114334266Y-84137600D01*
X114367600Y-84070933D01*
X114400933Y-84037600D01*
X114467600Y-84004266D01*
X116700933Y-68704266D02*
X116467599Y-68370933D01*
X116300933Y-68704266D02*
X116300933Y-68004266D01*
X116567599Y-68004266D01*
X116634266Y-68037600D01*
X116667599Y-68070933D01*
X116700933Y-68137600D01*
X116700933Y-68237600D01*
X116667599Y-68304266D01*
X116634266Y-68337600D01*
X116567599Y-68370933D01*
X116300933Y-68370933D01*
X117367599Y-68704266D02*
X116967599Y-68704266D01*
X117167599Y-68704266D02*
X117167599Y-68004266D01*
X117100933Y-68104266D01*
X117034266Y-68170933D01*
X116967599Y-68204266D01*
X117700933Y-68704266D02*
X117834266Y-68704266D01*
X117900933Y-68670933D01*
X117934266Y-68637600D01*
X118000933Y-68537600D01*
X118034266Y-68404266D01*
X118034266Y-68137600D01*
X118000933Y-68070933D01*
X117967599Y-68037600D01*
X117900933Y-68004266D01*
X117767599Y-68004266D01*
X117700933Y-68037600D01*
X117667599Y-68070933D01*
X117634266Y-68137600D01*
X117634266Y-68304266D01*
X117667599Y-68370933D01*
X117700933Y-68404266D01*
X117767599Y-68437600D01*
X117900933Y-68437600D01*
X117967599Y-68404266D01*
X118000933Y-68370933D01*
X118034266Y-68304266D01*
X130367600Y-57604266D02*
X130134266Y-57270933D01*
X129967600Y-57604266D02*
X129967600Y-56904266D01*
X130234266Y-56904266D01*
X130300933Y-56937600D01*
X130334266Y-56970933D01*
X130367600Y-57037600D01*
X130367600Y-57137600D01*
X130334266Y-57204266D01*
X130300933Y-57237600D01*
X130234266Y-57270933D01*
X129967600Y-57270933D01*
X131034266Y-57604266D02*
X130634266Y-57604266D01*
X130834266Y-57604266D02*
X130834266Y-56904266D01*
X130767600Y-57004266D01*
X130700933Y-57070933D01*
X130634266Y-57104266D01*
X131434266Y-57204266D02*
X131367600Y-57170933D01*
X131334266Y-57137600D01*
X131300933Y-57070933D01*
X131300933Y-57037600D01*
X131334266Y-56970933D01*
X131367600Y-56937600D01*
X131434266Y-56904266D01*
X131567600Y-56904266D01*
X131634266Y-56937600D01*
X131667600Y-56970933D01*
X131700933Y-57037600D01*
X131700933Y-57070933D01*
X131667600Y-57137600D01*
X131634266Y-57170933D01*
X131567600Y-57204266D01*
X131434266Y-57204266D01*
X131367600Y-57237600D01*
X131334266Y-57270933D01*
X131300933Y-57337600D01*
X131300933Y-57470933D01*
X131334266Y-57537600D01*
X131367600Y-57570933D01*
X131434266Y-57604266D01*
X131567600Y-57604266D01*
X131634266Y-57570933D01*
X131667600Y-57537600D01*
X131700933Y-57470933D01*
X131700933Y-57337600D01*
X131667600Y-57270933D01*
X131634266Y-57237600D01*
X131567600Y-57204266D01*
X118667600Y-52204266D02*
X118434266Y-51870933D01*
X118267600Y-52204266D02*
X118267600Y-51504266D01*
X118534266Y-51504266D01*
X118600933Y-51537600D01*
X118634266Y-51570933D01*
X118667600Y-51637600D01*
X118667600Y-51737600D01*
X118634266Y-51804266D01*
X118600933Y-51837600D01*
X118534266Y-51870933D01*
X118267600Y-51870933D01*
X119334266Y-52204266D02*
X118934266Y-52204266D01*
X119134266Y-52204266D02*
X119134266Y-51504266D01*
X119067600Y-51604266D01*
X119000933Y-51670933D01*
X118934266Y-51704266D01*
X119567600Y-51504266D02*
X120034266Y-51504266D01*
X119734266Y-52204266D01*
X116467600Y-48904266D02*
X116234266Y-48570933D01*
X116067600Y-48904266D02*
X116067600Y-48204266D01*
X116334266Y-48204266D01*
X116400933Y-48237600D01*
X116434266Y-48270933D01*
X116467600Y-48337600D01*
X116467600Y-48437600D01*
X116434266Y-48504266D01*
X116400933Y-48537600D01*
X116334266Y-48570933D01*
X116067600Y-48570933D01*
X117134266Y-48904266D02*
X116734266Y-48904266D01*
X116934266Y-48904266D02*
X116934266Y-48204266D01*
X116867600Y-48304266D01*
X116800933Y-48370933D01*
X116734266Y-48404266D01*
X117734266Y-48204266D02*
X117600933Y-48204266D01*
X117534266Y-48237600D01*
X117500933Y-48270933D01*
X117434266Y-48370933D01*
X117400933Y-48504266D01*
X117400933Y-48770933D01*
X117434266Y-48837600D01*
X117467600Y-48870933D01*
X117534266Y-48904266D01*
X117667600Y-48904266D01*
X117734266Y-48870933D01*
X117767600Y-48837600D01*
X117800933Y-48770933D01*
X117800933Y-48604266D01*
X117767600Y-48537600D01*
X117734266Y-48504266D01*
X117667600Y-48470933D01*
X117534266Y-48470933D01*
X117467600Y-48504266D01*
X117434266Y-48537600D01*
X117400933Y-48604266D01*
X110767600Y-70004266D02*
X110534266Y-69670933D01*
X110367600Y-70004266D02*
X110367600Y-69304266D01*
X110634266Y-69304266D01*
X110700933Y-69337600D01*
X110734266Y-69370933D01*
X110767600Y-69437600D01*
X110767600Y-69537600D01*
X110734266Y-69604266D01*
X110700933Y-69637600D01*
X110634266Y-69670933D01*
X110367600Y-69670933D01*
X111434266Y-70004266D02*
X111034266Y-70004266D01*
X111234266Y-70004266D02*
X111234266Y-69304266D01*
X111167600Y-69404266D01*
X111100933Y-69470933D01*
X111034266Y-69504266D01*
X112067600Y-69304266D02*
X111734266Y-69304266D01*
X111700933Y-69637600D01*
X111734266Y-69604266D01*
X111800933Y-69570933D01*
X111967600Y-69570933D01*
X112034266Y-69604266D01*
X112067600Y-69637600D01*
X112100933Y-69704266D01*
X112100933Y-69870933D01*
X112067600Y-69937600D01*
X112034266Y-69970933D01*
X111967600Y-70004266D01*
X111800933Y-70004266D01*
X111734266Y-69970933D01*
X111700933Y-69937600D01*
X110367600Y-74404266D02*
X110134266Y-74070933D01*
X109967600Y-74404266D02*
X109967600Y-73704266D01*
X110234266Y-73704266D01*
X110300933Y-73737600D01*
X110334266Y-73770933D01*
X110367600Y-73837600D01*
X110367600Y-73937600D01*
X110334266Y-74004266D01*
X110300933Y-74037600D01*
X110234266Y-74070933D01*
X109967600Y-74070933D01*
X111034266Y-74404266D02*
X110634266Y-74404266D01*
X110834266Y-74404266D02*
X110834266Y-73704266D01*
X110767600Y-73804266D01*
X110700933Y-73870933D01*
X110634266Y-73904266D01*
X111634266Y-73937600D02*
X111634266Y-74404266D01*
X111467600Y-73670933D02*
X111300933Y-74170933D01*
X111734266Y-74170933D01*
X116800933Y-55504266D02*
X116567600Y-55170933D01*
X116400933Y-55504266D02*
X116400933Y-54804266D01*
X116667600Y-54804266D01*
X116734266Y-54837600D01*
X116767600Y-54870933D01*
X116800933Y-54937600D01*
X116800933Y-55037600D01*
X116767600Y-55104266D01*
X116734266Y-55137600D01*
X116667600Y-55170933D01*
X116400933Y-55170933D01*
X117434266Y-54804266D02*
X117100933Y-54804266D01*
X117067600Y-55137600D01*
X117100933Y-55104266D01*
X117167600Y-55070933D01*
X117334266Y-55070933D01*
X117400933Y-55104266D01*
X117434266Y-55137600D01*
X117467600Y-55204266D01*
X117467600Y-55370933D01*
X117434266Y-55437600D01*
X117400933Y-55470933D01*
X117334266Y-55504266D01*
X117167600Y-55504266D01*
X117100933Y-55470933D01*
X117067600Y-55437600D01*
X116700933Y-64204266D02*
X116467600Y-63870933D01*
X116300933Y-64204266D02*
X116300933Y-63504266D01*
X116567600Y-63504266D01*
X116634266Y-63537600D01*
X116667600Y-63570933D01*
X116700933Y-63637600D01*
X116700933Y-63737600D01*
X116667600Y-63804266D01*
X116634266Y-63837600D01*
X116567600Y-63870933D01*
X116300933Y-63870933D01*
X117300933Y-63737600D02*
X117300933Y-64204266D01*
X117134266Y-63470933D02*
X116967600Y-63970933D01*
X117400933Y-63970933D01*
X116700933Y-66504266D02*
X116467600Y-66170933D01*
X116300933Y-66504266D02*
X116300933Y-65804266D01*
X116567600Y-65804266D01*
X116634266Y-65837600D01*
X116667600Y-65870933D01*
X116700933Y-65937600D01*
X116700933Y-66037600D01*
X116667600Y-66104266D01*
X116634266Y-66137600D01*
X116567600Y-66170933D01*
X116300933Y-66170933D01*
X116934266Y-65804266D02*
X117367600Y-65804266D01*
X117134266Y-66070933D01*
X117234266Y-66070933D01*
X117300933Y-66104266D01*
X117334266Y-66137600D01*
X117367600Y-66204266D01*
X117367600Y-66370933D01*
X117334266Y-66437600D01*
X117300933Y-66470933D01*
X117234266Y-66504266D01*
X117034266Y-66504266D01*
X116967600Y-66470933D01*
X116934266Y-66437600D01*
X116700933Y-71004266D02*
X116467600Y-70670933D01*
X116300933Y-71004266D02*
X116300933Y-70304266D01*
X116567600Y-70304266D01*
X116634266Y-70337600D01*
X116667600Y-70370933D01*
X116700933Y-70437600D01*
X116700933Y-70537600D01*
X116667600Y-70604266D01*
X116634266Y-70637600D01*
X116567600Y-70670933D01*
X116300933Y-70670933D01*
X116967600Y-70370933D02*
X117000933Y-70337600D01*
X117067600Y-70304266D01*
X117234266Y-70304266D01*
X117300933Y-70337600D01*
X117334266Y-70370933D01*
X117367600Y-70437600D01*
X117367600Y-70504266D01*
X117334266Y-70604266D01*
X116934266Y-71004266D01*
X117367600Y-71004266D01*
X116700933Y-62104266D02*
X116467600Y-61770933D01*
X116300933Y-62104266D02*
X116300933Y-61404266D01*
X116567600Y-61404266D01*
X116634266Y-61437600D01*
X116667600Y-61470933D01*
X116700933Y-61537600D01*
X116700933Y-61637600D01*
X116667600Y-61704266D01*
X116634266Y-61737600D01*
X116567600Y-61770933D01*
X116300933Y-61770933D01*
X117367600Y-62104266D02*
X116967600Y-62104266D01*
X117167600Y-62104266D02*
X117167600Y-61404266D01*
X117100933Y-61504266D01*
X117034266Y-61570933D01*
X116967600Y-61604266D01*
X105200933Y-73237600D02*
X105167600Y-73270933D01*
X105067600Y-73304266D01*
X105000933Y-73304266D01*
X104900933Y-73270933D01*
X104834266Y-73204266D01*
X104800933Y-73137600D01*
X104767600Y-73004266D01*
X104767600Y-72904266D01*
X104800933Y-72770933D01*
X104834266Y-72704266D01*
X104900933Y-72637600D01*
X105000933Y-72604266D01*
X105067600Y-72604266D01*
X105167600Y-72637600D01*
X105200933Y-72670933D01*
X105434266Y-72604266D02*
X105867600Y-72604266D01*
X105634266Y-72870933D01*
X105734266Y-72870933D01*
X105800933Y-72904266D01*
X105834266Y-72937600D01*
X105867600Y-73004266D01*
X105867600Y-73170933D01*
X105834266Y-73237600D01*
X105800933Y-73270933D01*
X105734266Y-73304266D01*
X105534266Y-73304266D01*
X105467600Y-73270933D01*
X105434266Y-73237600D01*
X128300933Y-84754266D02*
X128334266Y-84654266D01*
X128334266Y-84487600D01*
X128300933Y-84420933D01*
X128267600Y-84387600D01*
X128200933Y-84354266D01*
X128134266Y-84354266D01*
X128067600Y-84387600D01*
X128034266Y-84420933D01*
X128000933Y-84487600D01*
X127967600Y-84620933D01*
X127934266Y-84687600D01*
X127900933Y-84720933D01*
X127834266Y-84754266D01*
X127767600Y-84754266D01*
X127700933Y-84720933D01*
X127667600Y-84687600D01*
X127634266Y-84620933D01*
X127634266Y-84454266D01*
X127667600Y-84354266D01*
X127967600Y-84054266D02*
X127967600Y-83820933D01*
X128334266Y-83720933D02*
X128334266Y-84054266D01*
X127634266Y-84054266D01*
X127634266Y-83720933D01*
X128334266Y-83420933D02*
X127634266Y-83420933D01*
X128334266Y-83020933D01*
X127634266Y-83020933D01*
X128300933Y-82720933D02*
X128334266Y-82620933D01*
X128334266Y-82454266D01*
X128300933Y-82387600D01*
X128267600Y-82354266D01*
X128200933Y-82320933D01*
X128134266Y-82320933D01*
X128067600Y-82354266D01*
X128034266Y-82387600D01*
X128000933Y-82454266D01*
X127967600Y-82587600D01*
X127934266Y-82654266D01*
X127900933Y-82687600D01*
X127834266Y-82720933D01*
X127767600Y-82720933D01*
X127700933Y-82687600D01*
X127667600Y-82654266D01*
X127634266Y-82587600D01*
X127634266Y-82420933D01*
X127667600Y-82320933D01*
X127634266Y-81887600D02*
X127634266Y-81754266D01*
X127667600Y-81687600D01*
X127734266Y-81620933D01*
X127867600Y-81587600D01*
X128100933Y-81587600D01*
X128234266Y-81620933D01*
X128300933Y-81687600D01*
X128334266Y-81754266D01*
X128334266Y-81887600D01*
X128300933Y-81954266D01*
X128234266Y-82020933D01*
X128100933Y-82054266D01*
X127867600Y-82054266D01*
X127734266Y-82020933D01*
X127667600Y-81954266D01*
X127634266Y-81887600D01*
X128334266Y-80887600D02*
X128000933Y-81120933D01*
X128334266Y-81287600D02*
X127634266Y-81287600D01*
X127634266Y-81020933D01*
X127667600Y-80954266D01*
X127700933Y-80920933D01*
X127767600Y-80887600D01*
X127867600Y-80887600D01*
X127934266Y-80920933D01*
X127967600Y-80954266D01*
X128000933Y-81020933D01*
X128000933Y-81287600D01*
X128334266Y-80220933D02*
X128334266Y-80620933D01*
X128334266Y-80420933D02*
X127634266Y-80420933D01*
X127734266Y-80487600D01*
X127800933Y-80554266D01*
X127834266Y-80620933D01*
X114884266Y-96454266D02*
X114884266Y-96954266D01*
X114850933Y-97054266D01*
X114784266Y-97120933D01*
X114684266Y-97154266D01*
X114617600Y-97154266D01*
X115184266Y-96520933D02*
X115217600Y-96487600D01*
X115284266Y-96454266D01*
X115450933Y-96454266D01*
X115517600Y-96487600D01*
X115550933Y-96520933D01*
X115584266Y-96587600D01*
X115584266Y-96654266D01*
X115550933Y-96754266D01*
X115150933Y-97154266D01*
X115584266Y-97154266D01*
X126634266Y-96737600D02*
X125934266Y-96737600D01*
X125934266Y-96470933D01*
X125967600Y-96404266D01*
X126000933Y-96370933D01*
X126067600Y-96337600D01*
X126167600Y-96337600D01*
X126234266Y-96370933D01*
X126267600Y-96404266D01*
X126300933Y-96470933D01*
X126300933Y-96737600D01*
X125934266Y-95904266D02*
X125934266Y-95770933D01*
X125967600Y-95704266D01*
X126034266Y-95637600D01*
X126167600Y-95604266D01*
X126400933Y-95604266D01*
X126534266Y-95637600D01*
X126600933Y-95704266D01*
X126634266Y-95770933D01*
X126634266Y-95904266D01*
X126600933Y-95970933D01*
X126534266Y-96037600D01*
X126400933Y-96070933D01*
X126167600Y-96070933D01*
X126034266Y-96037600D01*
X125967600Y-95970933D01*
X125934266Y-95904266D01*
X125934266Y-95370933D02*
X126634266Y-95204266D01*
X126134266Y-95070933D01*
X126634266Y-94937600D01*
X125934266Y-94770933D01*
X126267600Y-94504266D02*
X126267600Y-94270933D01*
X126634266Y-94170933D02*
X126634266Y-94504266D01*
X125934266Y-94504266D01*
X125934266Y-94170933D01*
X126634266Y-93470933D02*
X126300933Y-93704266D01*
X126634266Y-93870933D02*
X125934266Y-93870933D01*
X125934266Y-93604266D01*
X125967600Y-93537600D01*
X126000933Y-93504266D01*
X126067600Y-93470933D01*
X126167600Y-93470933D01*
X126234266Y-93504266D01*
X126267600Y-93537600D01*
X126300933Y-93604266D01*
X126300933Y-93870933D01*
X126634266Y-92804266D02*
X126634266Y-93204266D01*
X126634266Y-93004266D02*
X125934266Y-93004266D01*
X126034266Y-93070933D01*
X126100933Y-93137600D01*
X126134266Y-93204266D01*
X124134266Y-70820933D02*
X124134266Y-70487600D01*
X124334266Y-70887600D02*
X123634266Y-70654266D01*
X124334266Y-70420933D01*
X123634266Y-70287600D02*
X123634266Y-69887600D01*
X124334266Y-70087600D02*
X123634266Y-70087600D01*
X123634266Y-69754266D02*
X123634266Y-69354266D01*
X124334266Y-69554266D02*
X123634266Y-69554266D01*
X124334266Y-69120933D02*
X123634266Y-69120933D01*
X124334266Y-68787600D02*
X123634266Y-68787600D01*
X124334266Y-68387600D01*
X123634266Y-68387600D01*
X124000933Y-67920933D02*
X124334266Y-67920933D01*
X123634266Y-68154266D02*
X124000933Y-67920933D01*
X123634266Y-67687600D01*
X123934266Y-67354266D02*
X123900933Y-67420933D01*
X123867600Y-67454266D01*
X123800933Y-67487600D01*
X123767600Y-67487600D01*
X123700933Y-67454266D01*
X123667600Y-67420933D01*
X123634266Y-67354266D01*
X123634266Y-67220933D01*
X123667600Y-67154266D01*
X123700933Y-67120933D01*
X123767600Y-67087600D01*
X123800933Y-67087600D01*
X123867600Y-67120933D01*
X123900933Y-67154266D01*
X123934266Y-67220933D01*
X123934266Y-67354266D01*
X123967600Y-67420933D01*
X124000933Y-67454266D01*
X124067600Y-67487600D01*
X124200933Y-67487600D01*
X124267600Y-67454266D01*
X124300933Y-67420933D01*
X124334266Y-67354266D01*
X124334266Y-67220933D01*
X124300933Y-67154266D01*
X124267600Y-67120933D01*
X124200933Y-67087600D01*
X124067600Y-67087600D01*
X124000933Y-67120933D01*
X123967600Y-67154266D01*
X123934266Y-67220933D01*
X123867600Y-66487600D02*
X124334266Y-66487600D01*
X123600933Y-66654266D02*
X124100933Y-66820933D01*
X124100933Y-66387600D01*
X124334266Y-65754266D02*
X124334266Y-66154266D01*
X124334266Y-65954266D02*
X123634266Y-65954266D01*
X123734266Y-66020933D01*
X123800933Y-66087600D01*
X123834266Y-66154266D01*
X108234266Y-49937600D02*
X107900933Y-50170933D01*
X108234266Y-50337600D02*
X107534266Y-50337600D01*
X107534266Y-50070933D01*
X107567600Y-50004266D01*
X107600933Y-49970933D01*
X107667600Y-49937600D01*
X107767600Y-49937600D01*
X107834266Y-49970933D01*
X107867600Y-50004266D01*
X107900933Y-50070933D01*
X107900933Y-50337600D01*
X107534266Y-49704266D02*
X108234266Y-49237600D01*
X107534266Y-49237600D02*
X108234266Y-49704266D01*
X108234266Y-48604266D02*
X108234266Y-49004266D01*
X108234266Y-48804266D02*
X107534266Y-48804266D01*
X107634266Y-48870933D01*
X107700933Y-48937600D01*
X107734266Y-49004266D01*
X107550933Y-68270933D02*
X107484266Y-68237600D01*
X107417600Y-68170933D01*
X107317600Y-68070933D01*
X107250933Y-68037600D01*
X107184266Y-68037600D01*
X107217600Y-68204266D02*
X107150933Y-68170933D01*
X107084266Y-68104266D01*
X107050933Y-67970933D01*
X107050933Y-67737600D01*
X107084266Y-67604266D01*
X107150933Y-67537600D01*
X107217600Y-67504266D01*
X107350933Y-67504266D01*
X107417600Y-67537600D01*
X107484266Y-67604266D01*
X107517600Y-67737600D01*
X107517600Y-67970933D01*
X107484266Y-68104266D01*
X107417600Y-68170933D01*
X107350933Y-68204266D01*
X107217600Y-68204266D01*
X108184266Y-68204266D02*
X107784266Y-68204266D01*
X107984266Y-68204266D02*
X107984266Y-67504266D01*
X107917600Y-67604266D01*
X107850933Y-67670933D01*
X107784266Y-67704266D01*
M02*
