G04 #@! TF.GenerationSoftware,KiCad,Pcbnew,(5.0.0)*
G04 #@! TF.CreationDate,2019-03-26T19:26:32+00:00*
G04 #@! TF.ProjectId,v4,76342E6B696361645F70636200000000,rev?*
G04 #@! TF.SameCoordinates,Original*
G04 #@! TF.FileFunction,Legend,Top*
G04 #@! TF.FilePolarity,Positive*
%FSLAX46Y46*%
G04 Gerber Fmt 4.6, Leading zero omitted, Abs format (unit mm)*
G04 Created by KiCad (PCBNEW (5.0.0)) date 03/26/19 19:26:32*
%MOMM*%
%LPD*%
G01*
G04 APERTURE LIST*
%ADD10C,0.300000*%
%ADD11C,0.200000*%
%ADD12C,0.120000*%
%ADD13C,0.150000*%
G04 APERTURE END LIST*
D10*
X57346000Y-58692171D02*
X57346000Y-57192171D01*
X57703142Y-57192171D01*
X57917428Y-57263600D01*
X58060285Y-57406457D01*
X58131714Y-57549314D01*
X58203142Y-57835028D01*
X58203142Y-58049314D01*
X58131714Y-58335028D01*
X58060285Y-58477885D01*
X57917428Y-58620742D01*
X57703142Y-58692171D01*
X57346000Y-58692171D01*
X58774571Y-58263600D02*
X59488857Y-58263600D01*
X58631714Y-58692171D02*
X59131714Y-57192171D01*
X59631714Y-58692171D01*
X60131714Y-58692171D02*
X60131714Y-57192171D01*
X60988857Y-58692171D01*
X60988857Y-57192171D01*
X62488857Y-57263600D02*
X62346000Y-57192171D01*
X62131714Y-57192171D01*
X61917428Y-57263600D01*
X61774571Y-57406457D01*
X61703142Y-57549314D01*
X61631714Y-57835028D01*
X61631714Y-58049314D01*
X61703142Y-58335028D01*
X61774571Y-58477885D01*
X61917428Y-58620742D01*
X62131714Y-58692171D01*
X62274571Y-58692171D01*
X62488857Y-58620742D01*
X62560285Y-58549314D01*
X62560285Y-58049314D01*
X62274571Y-58049314D01*
X63203142Y-57906457D02*
X63703142Y-57906457D01*
X63917428Y-58692171D02*
X63203142Y-58692171D01*
X63203142Y-57192171D01*
X63917428Y-57192171D01*
X65417428Y-58692171D02*
X64917428Y-57977885D01*
X64560285Y-58692171D02*
X64560285Y-57192171D01*
X65131714Y-57192171D01*
X65274571Y-57263600D01*
X65346000Y-57335028D01*
X65417428Y-57477885D01*
X65417428Y-57692171D01*
X65346000Y-57835028D01*
X65274571Y-57906457D01*
X65131714Y-57977885D01*
X64560285Y-57977885D01*
X67203142Y-58692171D02*
X67203142Y-57192171D01*
X67203142Y-57906457D02*
X68060285Y-57906457D01*
X68060285Y-58692171D02*
X68060285Y-57192171D01*
X69060285Y-57192171D02*
X69346000Y-57192171D01*
X69488857Y-57263600D01*
X69631714Y-57406457D01*
X69703142Y-57692171D01*
X69703142Y-58192171D01*
X69631714Y-58477885D01*
X69488857Y-58620742D01*
X69346000Y-58692171D01*
X69060285Y-58692171D01*
X68917428Y-58620742D01*
X68774571Y-58477885D01*
X68703142Y-58192171D01*
X68703142Y-57692171D01*
X68774571Y-57406457D01*
X68917428Y-57263600D01*
X69060285Y-57192171D01*
X70131714Y-57192171D02*
X70988857Y-57192171D01*
X70560285Y-58692171D02*
X70560285Y-57192171D01*
X72560285Y-58620742D02*
X72774571Y-58692171D01*
X73131714Y-58692171D01*
X73274571Y-58620742D01*
X73346000Y-58549314D01*
X73417428Y-58406457D01*
X73417428Y-58263600D01*
X73346000Y-58120742D01*
X73274571Y-58049314D01*
X73131714Y-57977885D01*
X72846000Y-57906457D01*
X72703142Y-57835028D01*
X72631714Y-57763600D01*
X72560285Y-57620742D01*
X72560285Y-57477885D01*
X72631714Y-57335028D01*
X72703142Y-57263600D01*
X72846000Y-57192171D01*
X73203142Y-57192171D01*
X73417428Y-57263600D01*
X74060285Y-57192171D02*
X74060285Y-58406457D01*
X74131714Y-58549314D01*
X74203142Y-58620742D01*
X74346000Y-58692171D01*
X74631714Y-58692171D01*
X74774571Y-58620742D01*
X74846000Y-58549314D01*
X74917428Y-58406457D01*
X74917428Y-57192171D01*
X76488857Y-58692171D02*
X75988857Y-57977885D01*
X75631714Y-58692171D02*
X75631714Y-57192171D01*
X76203142Y-57192171D01*
X76346000Y-57263600D01*
X76417428Y-57335028D01*
X76488857Y-57477885D01*
X76488857Y-57692171D01*
X76417428Y-57835028D01*
X76346000Y-57906457D01*
X76203142Y-57977885D01*
X75631714Y-57977885D01*
X77631714Y-57906457D02*
X77131714Y-57906457D01*
X77131714Y-58692171D02*
X77131714Y-57192171D01*
X77846000Y-57192171D01*
X78346000Y-58263600D02*
X79060285Y-58263600D01*
X78203142Y-58692171D02*
X78703142Y-57192171D01*
X79203142Y-58692171D01*
X80560285Y-58549314D02*
X80488857Y-58620742D01*
X80274571Y-58692171D01*
X80131714Y-58692171D01*
X79917428Y-58620742D01*
X79774571Y-58477885D01*
X79703142Y-58335028D01*
X79631714Y-58049314D01*
X79631714Y-57835028D01*
X79703142Y-57549314D01*
X79774571Y-57406457D01*
X79917428Y-57263600D01*
X80131714Y-57192171D01*
X80274571Y-57192171D01*
X80488857Y-57263600D01*
X80560285Y-57335028D01*
X81203142Y-57906457D02*
X81703142Y-57906457D01*
X81917428Y-58692171D02*
X81203142Y-58692171D01*
X81203142Y-57192171D01*
X81917428Y-57192171D01*
D11*
X84417866Y-75753980D02*
X84513104Y-75753980D01*
X84608342Y-75801600D01*
X84655961Y-75849219D01*
X84703580Y-75944457D01*
X84751200Y-76134933D01*
X84751200Y-76373028D01*
X84703580Y-76563504D01*
X84655961Y-76658742D01*
X84608342Y-76706361D01*
X84513104Y-76753980D01*
X84417866Y-76753980D01*
X84322628Y-76706361D01*
X84275009Y-76658742D01*
X84227390Y-76563504D01*
X84179771Y-76373028D01*
X84179771Y-76134933D01*
X84227390Y-75944457D01*
X84275009Y-75849219D01*
X84322628Y-75801600D01*
X84417866Y-75753980D01*
X85608342Y-76087314D02*
X85608342Y-76753980D01*
X85370247Y-75706361D02*
X85132152Y-76420647D01*
X85751200Y-76420647D01*
X86846438Y-75706361D02*
X85989295Y-76992076D01*
X87132152Y-75849219D02*
X87179771Y-75801600D01*
X87275009Y-75753980D01*
X87513104Y-75753980D01*
X87608342Y-75801600D01*
X87655961Y-75849219D01*
X87703580Y-75944457D01*
X87703580Y-76039695D01*
X87655961Y-76182552D01*
X87084533Y-76753980D01*
X87703580Y-76753980D01*
X88322628Y-75753980D02*
X88417866Y-75753980D01*
X88513104Y-75801600D01*
X88560723Y-75849219D01*
X88608342Y-75944457D01*
X88655961Y-76134933D01*
X88655961Y-76373028D01*
X88608342Y-76563504D01*
X88560723Y-76658742D01*
X88513104Y-76706361D01*
X88417866Y-76753980D01*
X88322628Y-76753980D01*
X88227390Y-76706361D01*
X88179771Y-76658742D01*
X88132152Y-76563504D01*
X88084533Y-76373028D01*
X88084533Y-76134933D01*
X88132152Y-75944457D01*
X88179771Y-75849219D01*
X88227390Y-75801600D01*
X88322628Y-75753980D01*
X89608342Y-76753980D02*
X89036914Y-76753980D01*
X89322628Y-76753980D02*
X89322628Y-75753980D01*
X89227390Y-75896838D01*
X89132152Y-75992076D01*
X89036914Y-76039695D01*
X90084533Y-76753980D02*
X90275009Y-76753980D01*
X90370247Y-76706361D01*
X90417866Y-76658742D01*
X90513104Y-76515885D01*
X90560723Y-76325409D01*
X90560723Y-75944457D01*
X90513104Y-75849219D01*
X90465485Y-75801600D01*
X90370247Y-75753980D01*
X90179771Y-75753980D01*
X90084533Y-75801600D01*
X90036914Y-75849219D01*
X89989295Y-75944457D01*
X89989295Y-76182552D01*
X90036914Y-76277790D01*
X90084533Y-76325409D01*
X90179771Y-76373028D01*
X90370247Y-76373028D01*
X90465485Y-76325409D01*
X90513104Y-76277790D01*
X90560723Y-76182552D01*
D10*
X78857428Y-103661295D02*
X78114571Y-103661295D01*
X78486000Y-103661295D02*
X78486000Y-102361295D01*
X78362190Y-102547009D01*
X78238380Y-102670819D01*
X78114571Y-102732723D01*
X77943028Y-95431695D02*
X77200171Y-95431695D01*
X77571600Y-95431695D02*
X77571600Y-94131695D01*
X77447790Y-94317409D01*
X77323980Y-94441219D01*
X77200171Y-94503123D01*
X75505266Y-74920361D02*
X75505266Y-72920361D01*
X75981457Y-72920361D01*
X76267171Y-73015600D01*
X76457647Y-73206076D01*
X76552885Y-73396552D01*
X76648123Y-73777504D01*
X76648123Y-74063219D01*
X76552885Y-74444171D01*
X76457647Y-74634647D01*
X76267171Y-74825123D01*
X75981457Y-74920361D01*
X75505266Y-74920361D01*
X77505266Y-74920361D02*
X77505266Y-72920361D01*
X78838600Y-73967980D02*
X78838600Y-74920361D01*
X78171933Y-72920361D02*
X78838600Y-73967980D01*
X79505266Y-72920361D01*
X80838600Y-73872742D02*
X81124314Y-73967980D01*
X81219552Y-74063219D01*
X81314790Y-74253695D01*
X81314790Y-74539409D01*
X81219552Y-74729885D01*
X81124314Y-74825123D01*
X80933838Y-74920361D01*
X80171933Y-74920361D01*
X80171933Y-72920361D01*
X80838600Y-72920361D01*
X81029076Y-73015600D01*
X81124314Y-73110838D01*
X81219552Y-73301314D01*
X81219552Y-73491790D01*
X81124314Y-73682266D01*
X81029076Y-73777504D01*
X80838600Y-73872742D01*
X80171933Y-73872742D01*
X82171933Y-74920361D02*
X82171933Y-72920361D01*
X82838600Y-74348933D01*
X83505266Y-72920361D01*
X83505266Y-74920361D01*
X84362409Y-74825123D02*
X84648123Y-74920361D01*
X85124314Y-74920361D01*
X85314790Y-74825123D01*
X85410028Y-74729885D01*
X85505266Y-74539409D01*
X85505266Y-74348933D01*
X85410028Y-74158457D01*
X85314790Y-74063219D01*
X85124314Y-73967980D01*
X84743361Y-73872742D01*
X84552885Y-73777504D01*
X84457647Y-73682266D01*
X84362409Y-73491790D01*
X84362409Y-73301314D01*
X84457647Y-73110838D01*
X84552885Y-73015600D01*
X84743361Y-72920361D01*
X85219552Y-72920361D01*
X85505266Y-73015600D01*
X87695742Y-73587028D02*
X88171933Y-74920361D01*
X88648123Y-73587028D01*
X90267171Y-73587028D02*
X90267171Y-74920361D01*
X89790980Y-72825123D02*
X89314790Y-74253695D01*
X90552885Y-74253695D01*
X53057371Y-87292571D02*
X52200228Y-87292571D01*
X52628800Y-87292571D02*
X52628800Y-85792571D01*
X52485942Y-86006857D01*
X52343085Y-86149714D01*
X52200228Y-86221142D01*
X65757371Y-87190971D02*
X64900228Y-87190971D01*
X65328800Y-87190971D02*
X65328800Y-85690971D01*
X65185942Y-85905257D01*
X65043085Y-86048114D01*
X64900228Y-86119542D01*
X81945942Y-95059428D02*
X81945942Y-93916571D01*
X83299371Y-94391942D02*
X84442228Y-94391942D01*
X83870800Y-94963371D02*
X83870800Y-93820514D01*
X65367685Y-107501371D02*
X66296257Y-107501371D01*
X65796257Y-108072800D01*
X66010542Y-108072800D01*
X66153400Y-108144228D01*
X66224828Y-108215657D01*
X66296257Y-108358514D01*
X66296257Y-108715657D01*
X66224828Y-108858514D01*
X66153400Y-108929942D01*
X66010542Y-109001371D01*
X65581971Y-109001371D01*
X65439114Y-108929942D01*
X65367685Y-108858514D01*
X67010542Y-109001371D02*
X67296257Y-109001371D01*
X67439114Y-108929942D01*
X67510542Y-108858514D01*
X67653400Y-108644228D01*
X67724828Y-108358514D01*
X67724828Y-107787085D01*
X67653400Y-107644228D01*
X67581971Y-107572800D01*
X67439114Y-107501371D01*
X67153400Y-107501371D01*
X67010542Y-107572800D01*
X66939114Y-107644228D01*
X66867685Y-107787085D01*
X66867685Y-108144228D01*
X66939114Y-108287085D01*
X67010542Y-108358514D01*
X67153400Y-108429942D01*
X67439114Y-108429942D01*
X67581971Y-108358514D01*
X67653400Y-108287085D01*
X67724828Y-108144228D01*
X68367685Y-108858514D02*
X68439114Y-108929942D01*
X68367685Y-109001371D01*
X68296257Y-108929942D01*
X68367685Y-108858514D01*
X68367685Y-109001371D01*
X69153400Y-109001371D02*
X69439114Y-109001371D01*
X69581971Y-108929942D01*
X69653400Y-108858514D01*
X69796257Y-108644228D01*
X69867685Y-108358514D01*
X69867685Y-107787085D01*
X69796257Y-107644228D01*
X69724828Y-107572800D01*
X69581971Y-107501371D01*
X69296257Y-107501371D01*
X69153400Y-107572800D01*
X69081971Y-107644228D01*
X69010542Y-107787085D01*
X69010542Y-108144228D01*
X69081971Y-108287085D01*
X69153400Y-108358514D01*
X69296257Y-108429942D01*
X69581971Y-108429942D01*
X69724828Y-108358514D01*
X69796257Y-108287085D01*
X69867685Y-108144228D01*
X70724828Y-108144228D02*
X70581971Y-108072800D01*
X70510542Y-108001371D01*
X70439114Y-107858514D01*
X70439114Y-107787085D01*
X70510542Y-107644228D01*
X70581971Y-107572800D01*
X70724828Y-107501371D01*
X71010542Y-107501371D01*
X71153400Y-107572800D01*
X71224828Y-107644228D01*
X71296257Y-107787085D01*
X71296257Y-107858514D01*
X71224828Y-108001371D01*
X71153400Y-108072800D01*
X71010542Y-108144228D01*
X70724828Y-108144228D01*
X70581971Y-108215657D01*
X70510542Y-108287085D01*
X70439114Y-108429942D01*
X70439114Y-108715657D01*
X70510542Y-108858514D01*
X70581971Y-108929942D01*
X70724828Y-109001371D01*
X71010542Y-109001371D01*
X71153400Y-108929942D01*
X71224828Y-108858514D01*
X71296257Y-108715657D01*
X71296257Y-108429942D01*
X71224828Y-108287085D01*
X71153400Y-108215657D01*
X71010542Y-108144228D01*
X72224828Y-107501371D02*
X72367685Y-107501371D01*
X72510542Y-107572800D01*
X72581971Y-107644228D01*
X72653400Y-107787085D01*
X72724828Y-108072800D01*
X72724828Y-108429942D01*
X72653400Y-108715657D01*
X72581971Y-108858514D01*
X72510542Y-108929942D01*
X72367685Y-109001371D01*
X72224828Y-109001371D01*
X72081971Y-108929942D01*
X72010542Y-108858514D01*
X71939114Y-108715657D01*
X71867685Y-108429942D01*
X71867685Y-108072800D01*
X71939114Y-107787085D01*
X72010542Y-107644228D01*
X72081971Y-107572800D01*
X72224828Y-107501371D01*
X74510542Y-109001371D02*
X74510542Y-108001371D01*
X74510542Y-108144228D02*
X74581971Y-108072800D01*
X74724828Y-108001371D01*
X74939114Y-108001371D01*
X75081971Y-108072800D01*
X75153400Y-108215657D01*
X75153400Y-109001371D01*
X75153400Y-108215657D02*
X75224828Y-108072800D01*
X75367685Y-108001371D01*
X75581971Y-108001371D01*
X75724828Y-108072800D01*
X75796257Y-108215657D01*
X75796257Y-109001371D01*
X76510542Y-109001371D02*
X76510542Y-108001371D01*
X76510542Y-108144228D02*
X76581971Y-108072800D01*
X76724828Y-108001371D01*
X76939114Y-108001371D01*
X77081971Y-108072800D01*
X77153400Y-108215657D01*
X77153400Y-109001371D01*
X77153400Y-108215657D02*
X77224828Y-108072800D01*
X77367685Y-108001371D01*
X77581971Y-108001371D01*
X77724828Y-108072800D01*
X77796257Y-108215657D01*
X77796257Y-109001371D01*
X51663600Y-106222800D02*
X91643200Y-106222800D01*
X51663600Y-104546400D02*
X51663600Y-106809221D01*
X91643200Y-104546400D02*
X91643200Y-106809221D01*
X91643200Y-106222800D02*
X90516696Y-106809221D01*
X91643200Y-106222800D02*
X90516696Y-105636379D01*
X51663600Y-106222800D02*
X52790104Y-106809221D01*
X51663600Y-106222800D02*
X52790104Y-105636379D01*
X97061828Y-74078200D02*
X96061828Y-74078200D01*
X97633257Y-73721057D02*
X96561828Y-73363914D01*
X96561828Y-74292485D01*
X96061828Y-74935342D02*
X96061828Y-75221057D01*
X96133257Y-75363914D01*
X96204685Y-75435342D01*
X96418971Y-75578200D01*
X96704685Y-75649628D01*
X97276114Y-75649628D01*
X97418971Y-75578200D01*
X97490400Y-75506771D01*
X97561828Y-75363914D01*
X97561828Y-75078200D01*
X97490400Y-74935342D01*
X97418971Y-74863914D01*
X97276114Y-74792485D01*
X96918971Y-74792485D01*
X96776114Y-74863914D01*
X96704685Y-74935342D01*
X96633257Y-75078200D01*
X96633257Y-75363914D01*
X96704685Y-75506771D01*
X96776114Y-75578200D01*
X96918971Y-75649628D01*
X96204685Y-76292485D02*
X96133257Y-76363914D01*
X96061828Y-76292485D01*
X96133257Y-76221057D01*
X96204685Y-76292485D01*
X96061828Y-76292485D01*
X97561828Y-76863914D02*
X97561828Y-77792485D01*
X96990400Y-77292485D01*
X96990400Y-77506771D01*
X96918971Y-77649628D01*
X96847542Y-77721057D01*
X96704685Y-77792485D01*
X96347542Y-77792485D01*
X96204685Y-77721057D01*
X96133257Y-77649628D01*
X96061828Y-77506771D01*
X96061828Y-77078200D01*
X96133257Y-76935342D01*
X96204685Y-76863914D01*
X97418971Y-78363914D02*
X97490400Y-78435342D01*
X97561828Y-78578200D01*
X97561828Y-78935342D01*
X97490400Y-79078200D01*
X97418971Y-79149628D01*
X97276114Y-79221057D01*
X97133257Y-79221057D01*
X96918971Y-79149628D01*
X96061828Y-78292485D01*
X96061828Y-79221057D01*
X97561828Y-79721057D02*
X97561828Y-80721057D01*
X96061828Y-80078200D01*
X96061828Y-82435342D02*
X97061828Y-82435342D01*
X96918971Y-82435342D02*
X96990400Y-82506771D01*
X97061828Y-82649628D01*
X97061828Y-82863914D01*
X96990400Y-83006771D01*
X96847542Y-83078200D01*
X96061828Y-83078200D01*
X96847542Y-83078200D02*
X96990400Y-83149628D01*
X97061828Y-83292485D01*
X97061828Y-83506771D01*
X96990400Y-83649628D01*
X96847542Y-83721057D01*
X96061828Y-83721057D01*
X96061828Y-84435342D02*
X97061828Y-84435342D01*
X96918971Y-84435342D02*
X96990400Y-84506771D01*
X97061828Y-84649628D01*
X97061828Y-84863914D01*
X96990400Y-85006771D01*
X96847542Y-85078200D01*
X96061828Y-85078200D01*
X96847542Y-85078200D02*
X96990400Y-85149628D01*
X97061828Y-85292485D01*
X97061828Y-85506771D01*
X96990400Y-85649628D01*
X96847542Y-85721057D01*
X96061828Y-85721057D01*
X94640400Y-54914800D02*
X94640400Y-104241600D01*
X92405200Y-54914800D02*
X95226821Y-54914800D01*
X92405200Y-104241600D02*
X95226821Y-104241600D01*
X94640400Y-104241600D02*
X94053979Y-103115096D01*
X94640400Y-104241600D02*
X95226821Y-103115096D01*
X94640400Y-54914800D02*
X94053979Y-56041304D01*
X94640400Y-54914800D02*
X95226821Y-56041304D01*
D12*
G04 #@! TO.C,REF\002A\002A*
X91490800Y-57302400D02*
G75*
G03X91490800Y-57302400I-2286000J0D01*
G01*
X56337200Y-57302400D02*
G75*
G03X56337200Y-57302400I-2286000J0D01*
G01*
X91490800Y-101854000D02*
G75*
G03X91490800Y-101854000I-2286000J0D01*
G01*
G04 #@! TO.C,R17*
X82794400Y-82288970D02*
X81594400Y-82288970D01*
X81594400Y-80528970D02*
X82794400Y-80528970D01*
G04 #@! TO.C,J7*
X67522400Y-103031600D02*
X67522400Y-100371600D01*
X64922400Y-103031600D02*
X67522400Y-103031600D01*
X64922400Y-100371600D02*
X67522400Y-100371600D01*
X64922400Y-103031600D02*
X64922400Y-100371600D01*
X63652400Y-103031600D02*
X62322400Y-103031600D01*
X62322400Y-103031600D02*
X62322400Y-101701600D01*
G04 #@! TO.C,J3*
X64406400Y-103428800D02*
X64406400Y-99078800D01*
X64406400Y-99078800D02*
X65406400Y-99078800D01*
X65406400Y-99078800D02*
X65406400Y-103428800D01*
X63106400Y-97228800D02*
X62756400Y-97228800D01*
X62756400Y-97228800D02*
X62756400Y-95628800D01*
X62756400Y-95628800D02*
X61856400Y-95628800D01*
X61856400Y-95628800D02*
X61856400Y-103428800D01*
X61856400Y-103428800D02*
X67956400Y-103428800D01*
X67956400Y-103428800D02*
X67956400Y-95628800D01*
X67956400Y-95628800D02*
X67056400Y-95628800D01*
X67056400Y-95628800D02*
X67056400Y-97228800D01*
X67056400Y-97228800D02*
X66706400Y-97228800D01*
X61856400Y-97228800D02*
X62756400Y-97228800D01*
X67956400Y-97228800D02*
X67056400Y-97228800D01*
X62606400Y-99578800D02*
X62606400Y-101178800D01*
X62606400Y-101178800D02*
X63606400Y-101178800D01*
X63606400Y-101178800D02*
X63606400Y-99578800D01*
X63606400Y-99578800D02*
X62606400Y-99578800D01*
X67206400Y-99578800D02*
X67206400Y-101178800D01*
X67206400Y-101178800D02*
X66206400Y-101178800D01*
X66206400Y-101178800D02*
X66206400Y-99578800D01*
X66206400Y-99578800D02*
X67206400Y-99578800D01*
X63606400Y-101178800D02*
X63606400Y-103428800D01*
X63106400Y-101178800D02*
X63106400Y-103428800D01*
X63106400Y-97228800D02*
X63106400Y-96028800D01*
G04 #@! TO.C,J2*
X63966400Y-80000800D02*
X58766400Y-80000800D01*
X63966400Y-85140800D02*
X63966400Y-80000800D01*
X58766400Y-87740800D02*
X58766400Y-80000800D01*
X63966400Y-85140800D02*
X61366400Y-85140800D01*
X61366400Y-85140800D02*
X61366400Y-87740800D01*
X61366400Y-87740800D02*
X58766400Y-87740800D01*
X63966400Y-86410800D02*
X63966400Y-87740800D01*
X63966400Y-87740800D02*
X62636400Y-87740800D01*
G04 #@! TO.C,C1*
X74305200Y-97674800D02*
X75305200Y-97674800D01*
X75305200Y-95974800D02*
X74305200Y-95974800D01*
G04 #@! TO.C,J1*
X82389600Y-103276400D02*
X82389600Y-98926400D01*
X82389600Y-98926400D02*
X83389600Y-98926400D01*
X83389600Y-98926400D02*
X83389600Y-103276400D01*
X81089600Y-97076400D02*
X80739600Y-97076400D01*
X80739600Y-97076400D02*
X80739600Y-95476400D01*
X80739600Y-95476400D02*
X79839600Y-95476400D01*
X79839600Y-95476400D02*
X79839600Y-103276400D01*
X79839600Y-103276400D02*
X85939600Y-103276400D01*
X85939600Y-103276400D02*
X85939600Y-95476400D01*
X85939600Y-95476400D02*
X85039600Y-95476400D01*
X85039600Y-95476400D02*
X85039600Y-97076400D01*
X85039600Y-97076400D02*
X84689600Y-97076400D01*
X79839600Y-97076400D02*
X80739600Y-97076400D01*
X85939600Y-97076400D02*
X85039600Y-97076400D01*
X80589600Y-99426400D02*
X80589600Y-101026400D01*
X80589600Y-101026400D02*
X81589600Y-101026400D01*
X81589600Y-101026400D02*
X81589600Y-99426400D01*
X81589600Y-99426400D02*
X80589600Y-99426400D01*
X85189600Y-99426400D02*
X85189600Y-101026400D01*
X85189600Y-101026400D02*
X84189600Y-101026400D01*
X84189600Y-101026400D02*
X84189600Y-99426400D01*
X84189600Y-99426400D02*
X85189600Y-99426400D01*
X81589600Y-101026400D02*
X81589600Y-103276400D01*
X81089600Y-101026400D02*
X81089600Y-103276400D01*
X81089600Y-97076400D02*
X81089600Y-95876400D01*
G04 #@! TO.C,R1*
X79714800Y-89442400D02*
X80914800Y-89442400D01*
X80914800Y-91202400D02*
X79714800Y-91202400D01*
D13*
G04 #@! TO.C,U4*
X75430200Y-94772400D02*
X75430200Y-94747400D01*
X71280200Y-94772400D02*
X71280200Y-94657400D01*
X71280200Y-85872400D02*
X71280200Y-85987400D01*
X75430200Y-85872400D02*
X75430200Y-85987400D01*
X75430200Y-94772400D02*
X71280200Y-94772400D01*
X75430200Y-85872400D02*
X71280200Y-85872400D01*
X75430200Y-94747400D02*
X76805200Y-94747400D01*
D12*
G04 #@! TO.C,C2*
X87215600Y-91098000D02*
X86215600Y-91098000D01*
X86215600Y-92798000D02*
X87215600Y-92798000D01*
G04 #@! TO.C,J4*
X55160800Y-103428800D02*
X55160800Y-99078800D01*
X55160800Y-99078800D02*
X56160800Y-99078800D01*
X56160800Y-99078800D02*
X56160800Y-103428800D01*
X53860800Y-97228800D02*
X53510800Y-97228800D01*
X53510800Y-97228800D02*
X53510800Y-95628800D01*
X53510800Y-95628800D02*
X52610800Y-95628800D01*
X52610800Y-95628800D02*
X52610800Y-103428800D01*
X52610800Y-103428800D02*
X58710800Y-103428800D01*
X58710800Y-103428800D02*
X58710800Y-95628800D01*
X58710800Y-95628800D02*
X57810800Y-95628800D01*
X57810800Y-95628800D02*
X57810800Y-97228800D01*
X57810800Y-97228800D02*
X57460800Y-97228800D01*
X52610800Y-97228800D02*
X53510800Y-97228800D01*
X58710800Y-97228800D02*
X57810800Y-97228800D01*
X53360800Y-99578800D02*
X53360800Y-101178800D01*
X53360800Y-101178800D02*
X54360800Y-101178800D01*
X54360800Y-101178800D02*
X54360800Y-99578800D01*
X54360800Y-99578800D02*
X53360800Y-99578800D01*
X57960800Y-99578800D02*
X57960800Y-101178800D01*
X57960800Y-101178800D02*
X56960800Y-101178800D01*
X56960800Y-101178800D02*
X56960800Y-99578800D01*
X56960800Y-99578800D02*
X57960800Y-99578800D01*
X54360800Y-101178800D02*
X54360800Y-103428800D01*
X53860800Y-101178800D02*
X53860800Y-103428800D01*
X53860800Y-97228800D02*
X53860800Y-96028800D01*
G04 #@! TO.C,J5*
X85454800Y-102777600D02*
X85454800Y-100117600D01*
X82854800Y-102777600D02*
X85454800Y-102777600D01*
X82854800Y-100117600D02*
X85454800Y-100117600D01*
X82854800Y-102777600D02*
X82854800Y-100117600D01*
X81584800Y-102777600D02*
X80254800Y-102777600D01*
X80254800Y-102777600D02*
X80254800Y-101447600D01*
G04 #@! TO.C,J6*
X58175200Y-103031600D02*
X58175200Y-100371600D01*
X55575200Y-103031600D02*
X58175200Y-103031600D01*
X55575200Y-100371600D02*
X58175200Y-100371600D01*
X55575200Y-103031600D02*
X55575200Y-100371600D01*
X54305200Y-103031600D02*
X52975200Y-103031600D01*
X52975200Y-103031600D02*
X52975200Y-101701600D01*
G04 #@! TO.C,R2*
X66538400Y-94402800D02*
X65338400Y-94402800D01*
X65338400Y-92642800D02*
X66538400Y-92642800D01*
G04 #@! TO.C,R3*
X62493600Y-89391600D02*
X63693600Y-89391600D01*
X63693600Y-91151600D02*
X62493600Y-91151600D01*
G04 #@! TO.C,R4*
X59699600Y-92642800D02*
X60899600Y-92642800D01*
X60899600Y-94402800D02*
X59699600Y-94402800D01*
G04 #@! TO.C,R5*
X71942400Y-98332400D02*
X73142400Y-98332400D01*
X73142400Y-100092400D02*
X71942400Y-100092400D01*
G04 #@! TO.C,R15*
X69738800Y-82288970D02*
X68538800Y-82288970D01*
X68538800Y-80528970D02*
X69738800Y-80528970D01*
G04 #@! TO.C,R16*
X54873600Y-92642800D02*
X56073600Y-92642800D01*
X56073600Y-94402800D02*
X54873600Y-94402800D01*
G04 #@! TO.C,R18*
X82743600Y-85477000D02*
X81543600Y-85477000D01*
X81543600Y-83717000D02*
X82743600Y-83717000D01*
G04 #@! TO.C,U1*
X76212400Y-103545600D02*
X76212400Y-103145600D01*
X76212400Y-103145600D02*
X77612400Y-103145600D01*
X76212400Y-103545600D02*
X71412400Y-103545600D01*
X76212400Y-100345600D02*
X71412400Y-100345600D01*
G04 #@! TO.C,D1*
X88244800Y-88343200D02*
X87314800Y-88343200D01*
X85084800Y-88343200D02*
X86014800Y-88343200D01*
X85084800Y-88343200D02*
X85084800Y-90503200D01*
X88244800Y-88343200D02*
X88244800Y-89803200D01*
G04 #@! TO.C,D3*
X88122000Y-82131600D02*
X84922000Y-82131600D01*
X84922000Y-80631600D02*
X88122000Y-80631600D01*
X84922000Y-80631600D02*
X84922000Y-82131600D01*
G04 #@! TO.C,D4*
X88122000Y-85332000D02*
X84922000Y-85332000D01*
X84922000Y-83832000D02*
X88122000Y-83832000D01*
X84922000Y-83832000D02*
X84922000Y-85332000D01*
G04 #@! TO.C,Q1*
X69804400Y-71565600D02*
X68874400Y-71565600D01*
X66644400Y-71565600D02*
X67574400Y-71565600D01*
X66644400Y-71565600D02*
X66644400Y-73725600D01*
X69804400Y-71565600D02*
X69804400Y-73025600D01*
G04 #@! TO.C,R19*
X72762000Y-60549600D02*
X72762000Y-61749600D01*
X71002000Y-61749600D02*
X71002000Y-60549600D01*
G04 #@! TO.C,R20*
X71002000Y-68252000D02*
X71002000Y-67052000D01*
X72762000Y-67052000D02*
X72762000Y-68252000D01*
G04 #@! TO.C,R21*
X79714800Y-91982400D02*
X80914800Y-91982400D01*
X80914800Y-93742400D02*
X79714800Y-93742400D01*
G04 #@! TO.C,TP2*
X78149600Y-86480800D02*
X80549600Y-86480800D01*
X80549600Y-86480800D02*
X80549600Y-88880800D01*
X80549600Y-88880800D02*
X78149600Y-88880800D01*
X78149600Y-88880800D02*
X78149600Y-86480800D01*
G04 #@! TO.C,J8*
X56448000Y-87740800D02*
X55118000Y-87740800D01*
X56448000Y-86410800D02*
X56448000Y-87740800D01*
X56448000Y-85140800D02*
X53788000Y-85140800D01*
X53788000Y-85140800D02*
X53788000Y-77460800D01*
X56448000Y-85140800D02*
X56448000Y-77460800D01*
X56448000Y-77460800D02*
X53788000Y-77460800D01*
G04 #@! TO.C,R6*
X87537200Y-66889200D02*
X87537200Y-61689200D01*
X91177200Y-61689200D02*
X91177200Y-66889200D01*
G04 #@! TO.C,R7*
X55617200Y-61689200D02*
X55617200Y-66889200D01*
X51977200Y-66889200D02*
X51977200Y-61689200D01*
G04 #@! TO.C,R8*
X82745066Y-66899200D02*
X82745066Y-61699200D01*
X86385066Y-61699200D02*
X86385066Y-66899200D01*
G04 #@! TO.C,R9*
X60426266Y-61699200D02*
X60426266Y-66899200D01*
X56786266Y-66899200D02*
X56786266Y-61699200D01*
G04 #@! TO.C,R10*
X81592933Y-61689200D02*
X81592933Y-66889200D01*
X77952933Y-66889200D02*
X77952933Y-61689200D01*
G04 #@! TO.C,R11*
X65235332Y-61689200D02*
X65235332Y-66889200D01*
X61595332Y-66889200D02*
X61595332Y-61689200D01*
G04 #@! TO.C,R12*
X76800800Y-61699200D02*
X76800800Y-66899200D01*
X73160800Y-66899200D02*
X73160800Y-61699200D01*
G04 #@! TO.C,R13*
X70044400Y-61699200D02*
X70044400Y-66899200D01*
X66404400Y-66899200D02*
X66404400Y-61699200D01*
G04 #@! TO.C,TP1*
X59658400Y-74288800D02*
X62058400Y-74288800D01*
X62058400Y-74288800D02*
X62058400Y-76688800D01*
X62058400Y-76688800D02*
X59658400Y-76688800D01*
X59658400Y-76688800D02*
X59658400Y-74288800D01*
G04 #@! TO.C,R17*
D13*
X81500742Y-80259180D02*
X81167409Y-79782990D01*
X80929314Y-80259180D02*
X80929314Y-79259180D01*
X81310266Y-79259180D01*
X81405504Y-79306800D01*
X81453123Y-79354419D01*
X81500742Y-79449657D01*
X81500742Y-79592514D01*
X81453123Y-79687752D01*
X81405504Y-79735371D01*
X81310266Y-79782990D01*
X80929314Y-79782990D01*
X82453123Y-80259180D02*
X81881695Y-80259180D01*
X82167409Y-80259180D02*
X82167409Y-79259180D01*
X82072171Y-79402038D01*
X81976933Y-79497276D01*
X81881695Y-79544895D01*
X82786457Y-79259180D02*
X83453123Y-79259180D01*
X83024552Y-80259180D01*
G04 #@! TO.C,J3*
X68591180Y-100663333D02*
X69305466Y-100663333D01*
X69448323Y-100710952D01*
X69543561Y-100806190D01*
X69591180Y-100949047D01*
X69591180Y-101044285D01*
X68591180Y-100282380D02*
X68591180Y-99663333D01*
X68972133Y-99996666D01*
X68972133Y-99853809D01*
X69019752Y-99758571D01*
X69067371Y-99710952D01*
X69162609Y-99663333D01*
X69400704Y-99663333D01*
X69495942Y-99710952D01*
X69543561Y-99758571D01*
X69591180Y-99853809D01*
X69591180Y-100139523D01*
X69543561Y-100234761D01*
X69495942Y-100282380D01*
G04 #@! TO.C,J2*
X61033066Y-78243180D02*
X61033066Y-78957466D01*
X60985447Y-79100323D01*
X60890209Y-79195561D01*
X60747352Y-79243180D01*
X60652114Y-79243180D01*
X61461638Y-78338419D02*
X61509257Y-78290800D01*
X61604495Y-78243180D01*
X61842590Y-78243180D01*
X61937828Y-78290800D01*
X61985447Y-78338419D01*
X62033066Y-78433657D01*
X62033066Y-78528895D01*
X61985447Y-78671752D01*
X61414019Y-79243180D01*
X62033066Y-79243180D01*
G04 #@! TO.C,C1*
X71359733Y-97131142D02*
X71312114Y-97178761D01*
X71169257Y-97226380D01*
X71074019Y-97226380D01*
X70931161Y-97178761D01*
X70835923Y-97083523D01*
X70788304Y-96988285D01*
X70740685Y-96797809D01*
X70740685Y-96654952D01*
X70788304Y-96464476D01*
X70835923Y-96369238D01*
X70931161Y-96274000D01*
X71074019Y-96226380D01*
X71169257Y-96226380D01*
X71312114Y-96274000D01*
X71359733Y-96321619D01*
X72312114Y-97226380D02*
X71740685Y-97226380D01*
X72026400Y-97226380D02*
X72026400Y-96226380D01*
X71931161Y-96369238D01*
X71835923Y-96464476D01*
X71740685Y-96512095D01*
G04 #@! TO.C,J1*
X86523580Y-98377333D02*
X87237866Y-98377333D01*
X87380723Y-98424952D01*
X87475961Y-98520190D01*
X87523580Y-98663047D01*
X87523580Y-98758285D01*
X87523580Y-97377333D02*
X87523580Y-97948761D01*
X87523580Y-97663047D02*
X86523580Y-97663047D01*
X86666438Y-97758285D01*
X86761676Y-97853523D01*
X86809295Y-97948761D01*
G04 #@! TO.C,R1*
X83399333Y-90977980D02*
X83066000Y-90501790D01*
X82827904Y-90977980D02*
X82827904Y-89977980D01*
X83208857Y-89977980D01*
X83304095Y-90025600D01*
X83351714Y-90073219D01*
X83399333Y-90168457D01*
X83399333Y-90311314D01*
X83351714Y-90406552D01*
X83304095Y-90454171D01*
X83208857Y-90501790D01*
X82827904Y-90501790D01*
X84351714Y-90977980D02*
X83780285Y-90977980D01*
X84066000Y-90977980D02*
X84066000Y-89977980D01*
X83970761Y-90120838D01*
X83875523Y-90216076D01*
X83780285Y-90263695D01*
G04 #@! TO.C,U4*
X72644095Y-84339180D02*
X72644095Y-85148704D01*
X72691714Y-85243942D01*
X72739333Y-85291561D01*
X72834571Y-85339180D01*
X73025047Y-85339180D01*
X73120285Y-85291561D01*
X73167904Y-85243942D01*
X73215523Y-85148704D01*
X73215523Y-84339180D01*
X74120285Y-84672514D02*
X74120285Y-85339180D01*
X73882190Y-84291561D02*
X73644095Y-85005847D01*
X74263142Y-85005847D01*
G04 #@! TO.C,C2*
X89749333Y-92305142D02*
X89701714Y-92352761D01*
X89558857Y-92400380D01*
X89463619Y-92400380D01*
X89320761Y-92352761D01*
X89225523Y-92257523D01*
X89177904Y-92162285D01*
X89130285Y-91971809D01*
X89130285Y-91828952D01*
X89177904Y-91638476D01*
X89225523Y-91543238D01*
X89320761Y-91448000D01*
X89463619Y-91400380D01*
X89558857Y-91400380D01*
X89701714Y-91448000D01*
X89749333Y-91495619D01*
X90130285Y-91495619D02*
X90177904Y-91448000D01*
X90273142Y-91400380D01*
X90511238Y-91400380D01*
X90606476Y-91448000D01*
X90654095Y-91495619D01*
X90701714Y-91590857D01*
X90701714Y-91686095D01*
X90654095Y-91828952D01*
X90082666Y-92400380D01*
X90701714Y-92400380D01*
G04 #@! TO.C,J4*
X59294780Y-101323733D02*
X60009066Y-101323733D01*
X60151923Y-101371352D01*
X60247161Y-101466590D01*
X60294780Y-101609447D01*
X60294780Y-101704685D01*
X59628114Y-100418971D02*
X60294780Y-100418971D01*
X59247161Y-100657066D02*
X59961447Y-100895161D01*
X59961447Y-100276114D01*
G04 #@! TO.C,R2*
X64298533Y-92451180D02*
X63965200Y-91974990D01*
X63727104Y-92451180D02*
X63727104Y-91451180D01*
X64108057Y-91451180D01*
X64203295Y-91498800D01*
X64250914Y-91546419D01*
X64298533Y-91641657D01*
X64298533Y-91784514D01*
X64250914Y-91879752D01*
X64203295Y-91927371D01*
X64108057Y-91974990D01*
X63727104Y-91974990D01*
X64679485Y-91546419D02*
X64727104Y-91498800D01*
X64822342Y-91451180D01*
X65060438Y-91451180D01*
X65155676Y-91498800D01*
X65203295Y-91546419D01*
X65250914Y-91641657D01*
X65250914Y-91736895D01*
X65203295Y-91879752D01*
X64631866Y-92451180D01*
X65250914Y-92451180D01*
G04 #@! TO.C,R3*
X61402933Y-89250780D02*
X61069600Y-88774590D01*
X60831504Y-89250780D02*
X60831504Y-88250780D01*
X61212457Y-88250780D01*
X61307695Y-88298400D01*
X61355314Y-88346019D01*
X61402933Y-88441257D01*
X61402933Y-88584114D01*
X61355314Y-88679352D01*
X61307695Y-88726971D01*
X61212457Y-88774590D01*
X60831504Y-88774590D01*
X61736266Y-88250780D02*
X62355314Y-88250780D01*
X62021980Y-88631733D01*
X62164838Y-88631733D01*
X62260076Y-88679352D01*
X62307695Y-88726971D01*
X62355314Y-88822209D01*
X62355314Y-89060304D01*
X62307695Y-89155542D01*
X62260076Y-89203161D01*
X62164838Y-89250780D01*
X61879123Y-89250780D01*
X61783885Y-89203161D01*
X61736266Y-89155542D01*
G04 #@! TO.C,R4*
X58608933Y-92451180D02*
X58275600Y-91974990D01*
X58037504Y-92451180D02*
X58037504Y-91451180D01*
X58418457Y-91451180D01*
X58513695Y-91498800D01*
X58561314Y-91546419D01*
X58608933Y-91641657D01*
X58608933Y-91784514D01*
X58561314Y-91879752D01*
X58513695Y-91927371D01*
X58418457Y-91974990D01*
X58037504Y-91974990D01*
X59466076Y-91784514D02*
X59466076Y-92451180D01*
X59227980Y-91403561D02*
X58989885Y-92117847D01*
X59608933Y-92117847D01*
G04 #@! TO.C,R5*
X75728533Y-99817180D02*
X75395200Y-99340990D01*
X75157104Y-99817180D02*
X75157104Y-98817180D01*
X75538057Y-98817180D01*
X75633295Y-98864800D01*
X75680914Y-98912419D01*
X75728533Y-99007657D01*
X75728533Y-99150514D01*
X75680914Y-99245752D01*
X75633295Y-99293371D01*
X75538057Y-99340990D01*
X75157104Y-99340990D01*
X76633295Y-98817180D02*
X76157104Y-98817180D01*
X76109485Y-99293371D01*
X76157104Y-99245752D01*
X76252342Y-99198133D01*
X76490438Y-99198133D01*
X76585676Y-99245752D01*
X76633295Y-99293371D01*
X76680914Y-99388609D01*
X76680914Y-99626704D01*
X76633295Y-99721942D01*
X76585676Y-99769561D01*
X76490438Y-99817180D01*
X76252342Y-99817180D01*
X76157104Y-99769561D01*
X76109485Y-99721942D01*
G04 #@! TO.C,R15*
X69613542Y-80337350D02*
X69280209Y-79861160D01*
X69042114Y-80337350D02*
X69042114Y-79337350D01*
X69423066Y-79337350D01*
X69518304Y-79384970D01*
X69565923Y-79432589D01*
X69613542Y-79527827D01*
X69613542Y-79670684D01*
X69565923Y-79765922D01*
X69518304Y-79813541D01*
X69423066Y-79861160D01*
X69042114Y-79861160D01*
X70565923Y-80337350D02*
X69994495Y-80337350D01*
X70280209Y-80337350D02*
X70280209Y-79337350D01*
X70184971Y-79480208D01*
X70089733Y-79575446D01*
X69994495Y-79623065D01*
X71470685Y-79337350D02*
X70994495Y-79337350D01*
X70946876Y-79813541D01*
X70994495Y-79765922D01*
X71089733Y-79718303D01*
X71327828Y-79718303D01*
X71423066Y-79765922D01*
X71470685Y-79813541D01*
X71518304Y-79908779D01*
X71518304Y-80146874D01*
X71470685Y-80242112D01*
X71423066Y-80289731D01*
X71327828Y-80337350D01*
X71089733Y-80337350D01*
X70994495Y-80289731D01*
X70946876Y-80242112D01*
G04 #@! TO.C,R16*
X53814742Y-92349580D02*
X53481409Y-91873390D01*
X53243314Y-92349580D02*
X53243314Y-91349580D01*
X53624266Y-91349580D01*
X53719504Y-91397200D01*
X53767123Y-91444819D01*
X53814742Y-91540057D01*
X53814742Y-91682914D01*
X53767123Y-91778152D01*
X53719504Y-91825771D01*
X53624266Y-91873390D01*
X53243314Y-91873390D01*
X54767123Y-92349580D02*
X54195695Y-92349580D01*
X54481409Y-92349580D02*
X54481409Y-91349580D01*
X54386171Y-91492438D01*
X54290933Y-91587676D01*
X54195695Y-91635295D01*
X55624266Y-91349580D02*
X55433790Y-91349580D01*
X55338552Y-91397200D01*
X55290933Y-91444819D01*
X55195695Y-91587676D01*
X55148076Y-91778152D01*
X55148076Y-92159104D01*
X55195695Y-92254342D01*
X55243314Y-92301961D01*
X55338552Y-92349580D01*
X55529028Y-92349580D01*
X55624266Y-92301961D01*
X55671885Y-92254342D01*
X55719504Y-92159104D01*
X55719504Y-91921009D01*
X55671885Y-91825771D01*
X55624266Y-91778152D01*
X55529028Y-91730533D01*
X55338552Y-91730533D01*
X55243314Y-91778152D01*
X55195695Y-91825771D01*
X55148076Y-91921009D01*
G04 #@! TO.C,R18*
X81449942Y-83447210D02*
X81116609Y-82971020D01*
X80878514Y-83447210D02*
X80878514Y-82447210D01*
X81259466Y-82447210D01*
X81354704Y-82494830D01*
X81402323Y-82542449D01*
X81449942Y-82637687D01*
X81449942Y-82780544D01*
X81402323Y-82875782D01*
X81354704Y-82923401D01*
X81259466Y-82971020D01*
X80878514Y-82971020D01*
X82402323Y-83447210D02*
X81830895Y-83447210D01*
X82116609Y-83447210D02*
X82116609Y-82447210D01*
X82021371Y-82590068D01*
X81926133Y-82685306D01*
X81830895Y-82732925D01*
X82973752Y-82875782D02*
X82878514Y-82828163D01*
X82830895Y-82780544D01*
X82783276Y-82685306D01*
X82783276Y-82637687D01*
X82830895Y-82542449D01*
X82878514Y-82494830D01*
X82973752Y-82447210D01*
X83164228Y-82447210D01*
X83259466Y-82494830D01*
X83307085Y-82542449D01*
X83354704Y-82637687D01*
X83354704Y-82685306D01*
X83307085Y-82780544D01*
X83259466Y-82828163D01*
X83164228Y-82875782D01*
X82973752Y-82875782D01*
X82878514Y-82923401D01*
X82830895Y-82971020D01*
X82783276Y-83066258D01*
X82783276Y-83256734D01*
X82830895Y-83351972D01*
X82878514Y-83399591D01*
X82973752Y-83447210D01*
X83164228Y-83447210D01*
X83259466Y-83399591D01*
X83307085Y-83351972D01*
X83354704Y-83256734D01*
X83354704Y-83066258D01*
X83307085Y-82971020D01*
X83259466Y-82923401D01*
X83164228Y-82875782D01*
G04 #@! TO.C,U1*
X71932895Y-102220780D02*
X71932895Y-103030304D01*
X71980514Y-103125542D01*
X72028133Y-103173161D01*
X72123371Y-103220780D01*
X72313847Y-103220780D01*
X72409085Y-103173161D01*
X72456704Y-103125542D01*
X72504323Y-103030304D01*
X72504323Y-102220780D01*
X73504323Y-103220780D02*
X72932895Y-103220780D01*
X73218609Y-103220780D02*
X73218609Y-102220780D01*
X73123371Y-102363638D01*
X73028133Y-102458876D01*
X72932895Y-102506495D01*
G04 #@! TO.C,D1*
X88568304Y-88437980D02*
X88568304Y-87437980D01*
X88806400Y-87437980D01*
X88949257Y-87485600D01*
X89044495Y-87580838D01*
X89092114Y-87676076D01*
X89139733Y-87866552D01*
X89139733Y-88009409D01*
X89092114Y-88199885D01*
X89044495Y-88295123D01*
X88949257Y-88390361D01*
X88806400Y-88437980D01*
X88568304Y-88437980D01*
X90092114Y-88437980D02*
X89520685Y-88437980D01*
X89806400Y-88437980D02*
X89806400Y-87437980D01*
X89711161Y-87580838D01*
X89615923Y-87676076D01*
X89520685Y-87723695D01*
G04 #@! TO.C,D3*
X87806304Y-80157580D02*
X87806304Y-79157580D01*
X88044400Y-79157580D01*
X88187257Y-79205200D01*
X88282495Y-79300438D01*
X88330114Y-79395676D01*
X88377733Y-79586152D01*
X88377733Y-79729009D01*
X88330114Y-79919485D01*
X88282495Y-80014723D01*
X88187257Y-80109961D01*
X88044400Y-80157580D01*
X87806304Y-80157580D01*
X88711066Y-79157580D02*
X89330114Y-79157580D01*
X88996780Y-79538533D01*
X89139638Y-79538533D01*
X89234876Y-79586152D01*
X89282495Y-79633771D01*
X89330114Y-79729009D01*
X89330114Y-79967104D01*
X89282495Y-80062342D01*
X89234876Y-80109961D01*
X89139638Y-80157580D01*
X88853923Y-80157580D01*
X88758685Y-80109961D01*
X88711066Y-80062342D01*
G04 #@! TO.C,D4*
X87806304Y-83432210D02*
X87806304Y-82432210D01*
X88044400Y-82432210D01*
X88187257Y-82479830D01*
X88282495Y-82575068D01*
X88330114Y-82670306D01*
X88377733Y-82860782D01*
X88377733Y-83003639D01*
X88330114Y-83194115D01*
X88282495Y-83289353D01*
X88187257Y-83384591D01*
X88044400Y-83432210D01*
X87806304Y-83432210D01*
X89234876Y-82765544D02*
X89234876Y-83432210D01*
X88996780Y-82384591D02*
X88758685Y-83098877D01*
X89377733Y-83098877D01*
G04 #@! TO.C,Q1*
X65436761Y-72162019D02*
X65341523Y-72114400D01*
X65246285Y-72019161D01*
X65103428Y-71876304D01*
X65008190Y-71828685D01*
X64912952Y-71828685D01*
X64960571Y-72066780D02*
X64865333Y-72019161D01*
X64770095Y-71923923D01*
X64722476Y-71733447D01*
X64722476Y-71400114D01*
X64770095Y-71209638D01*
X64865333Y-71114400D01*
X64960571Y-71066780D01*
X65151047Y-71066780D01*
X65246285Y-71114400D01*
X65341523Y-71209638D01*
X65389142Y-71400114D01*
X65389142Y-71733447D01*
X65341523Y-71923923D01*
X65246285Y-72019161D01*
X65151047Y-72066780D01*
X64960571Y-72066780D01*
X66341523Y-72066780D02*
X65770095Y-72066780D01*
X66055809Y-72066780D02*
X66055809Y-71066780D01*
X65960571Y-71209638D01*
X65865333Y-71304876D01*
X65770095Y-71352495D01*
G04 #@! TO.C,R19*
X71086742Y-64751580D02*
X70753409Y-64275390D01*
X70515314Y-64751580D02*
X70515314Y-63751580D01*
X70896266Y-63751580D01*
X70991504Y-63799200D01*
X71039123Y-63846819D01*
X71086742Y-63942057D01*
X71086742Y-64084914D01*
X71039123Y-64180152D01*
X70991504Y-64227771D01*
X70896266Y-64275390D01*
X70515314Y-64275390D01*
X72039123Y-64751580D02*
X71467695Y-64751580D01*
X71753409Y-64751580D02*
X71753409Y-63751580D01*
X71658171Y-63894438D01*
X71562933Y-63989676D01*
X71467695Y-64037295D01*
X72515314Y-64751580D02*
X72705790Y-64751580D01*
X72801028Y-64703961D01*
X72848647Y-64656342D01*
X72943885Y-64513485D01*
X72991504Y-64323009D01*
X72991504Y-63942057D01*
X72943885Y-63846819D01*
X72896266Y-63799200D01*
X72801028Y-63751580D01*
X72610552Y-63751580D01*
X72515314Y-63799200D01*
X72467695Y-63846819D01*
X72420076Y-63942057D01*
X72420076Y-64180152D01*
X72467695Y-64275390D01*
X72515314Y-64323009D01*
X72610552Y-64370628D01*
X72801028Y-64370628D01*
X72896266Y-64323009D01*
X72943885Y-64275390D01*
X72991504Y-64180152D01*
G04 #@! TO.C,R20*
X71391542Y-71457180D02*
X71058209Y-70980990D01*
X70820114Y-71457180D02*
X70820114Y-70457180D01*
X71201066Y-70457180D01*
X71296304Y-70504800D01*
X71343923Y-70552419D01*
X71391542Y-70647657D01*
X71391542Y-70790514D01*
X71343923Y-70885752D01*
X71296304Y-70933371D01*
X71201066Y-70980990D01*
X70820114Y-70980990D01*
X71772495Y-70552419D02*
X71820114Y-70504800D01*
X71915352Y-70457180D01*
X72153447Y-70457180D01*
X72248685Y-70504800D01*
X72296304Y-70552419D01*
X72343923Y-70647657D01*
X72343923Y-70742895D01*
X72296304Y-70885752D01*
X71724876Y-71457180D01*
X72343923Y-71457180D01*
X72962971Y-70457180D02*
X73058209Y-70457180D01*
X73153447Y-70504800D01*
X73201066Y-70552419D01*
X73248685Y-70647657D01*
X73296304Y-70838133D01*
X73296304Y-71076228D01*
X73248685Y-71266704D01*
X73201066Y-71361942D01*
X73153447Y-71409561D01*
X73058209Y-71457180D01*
X72962971Y-71457180D01*
X72867733Y-71409561D01*
X72820114Y-71361942D01*
X72772495Y-71266704D01*
X72724876Y-71076228D01*
X72724876Y-70838133D01*
X72772495Y-70647657D01*
X72820114Y-70552419D01*
X72867733Y-70504800D01*
X72962971Y-70457180D01*
G04 #@! TO.C,R21*
X78960742Y-94889580D02*
X78627409Y-94413390D01*
X78389314Y-94889580D02*
X78389314Y-93889580D01*
X78770266Y-93889580D01*
X78865504Y-93937200D01*
X78913123Y-93984819D01*
X78960742Y-94080057D01*
X78960742Y-94222914D01*
X78913123Y-94318152D01*
X78865504Y-94365771D01*
X78770266Y-94413390D01*
X78389314Y-94413390D01*
X79341695Y-93984819D02*
X79389314Y-93937200D01*
X79484552Y-93889580D01*
X79722647Y-93889580D01*
X79817885Y-93937200D01*
X79865504Y-93984819D01*
X79913123Y-94080057D01*
X79913123Y-94175295D01*
X79865504Y-94318152D01*
X79294076Y-94889580D01*
X79913123Y-94889580D01*
X80865504Y-94889580D02*
X80294076Y-94889580D01*
X80579790Y-94889580D02*
X80579790Y-93889580D01*
X80484552Y-94032438D01*
X80389314Y-94127676D01*
X80294076Y-94175295D01*
G04 #@! TO.C,TP2*
X81084895Y-87183980D02*
X81656323Y-87183980D01*
X81370609Y-88183980D02*
X81370609Y-87183980D01*
X81989657Y-88183980D02*
X81989657Y-87183980D01*
X82370609Y-87183980D01*
X82465847Y-87231600D01*
X82513466Y-87279219D01*
X82561085Y-87374457D01*
X82561085Y-87517314D01*
X82513466Y-87612552D01*
X82465847Y-87660171D01*
X82370609Y-87707790D01*
X81989657Y-87707790D01*
X82942038Y-87279219D02*
X82989657Y-87231600D01*
X83084895Y-87183980D01*
X83322990Y-87183980D01*
X83418228Y-87231600D01*
X83465847Y-87279219D01*
X83513466Y-87374457D01*
X83513466Y-87469695D01*
X83465847Y-87612552D01*
X82894419Y-88183980D01*
X83513466Y-88183980D01*
G04 #@! TO.C,J8*
X54937066Y-75449180D02*
X54937066Y-76163466D01*
X54889447Y-76306323D01*
X54794209Y-76401561D01*
X54651352Y-76449180D01*
X54556114Y-76449180D01*
X55556114Y-75877752D02*
X55460876Y-75830133D01*
X55413257Y-75782514D01*
X55365638Y-75687276D01*
X55365638Y-75639657D01*
X55413257Y-75544419D01*
X55460876Y-75496800D01*
X55556114Y-75449180D01*
X55746590Y-75449180D01*
X55841828Y-75496800D01*
X55889447Y-75544419D01*
X55937066Y-75639657D01*
X55937066Y-75687276D01*
X55889447Y-75782514D01*
X55841828Y-75830133D01*
X55746590Y-75877752D01*
X55556114Y-75877752D01*
X55460876Y-75925371D01*
X55413257Y-75972990D01*
X55365638Y-76068228D01*
X55365638Y-76258704D01*
X55413257Y-76353942D01*
X55460876Y-76401561D01*
X55556114Y-76449180D01*
X55746590Y-76449180D01*
X55841828Y-76401561D01*
X55889447Y-76353942D01*
X55937066Y-76258704D01*
X55937066Y-76068228D01*
X55889447Y-75972990D01*
X55841828Y-75925371D01*
X55746590Y-75877752D01*
G04 #@! TO.C,R6*
X89139733Y-69323580D02*
X88806400Y-68847390D01*
X88568304Y-69323580D02*
X88568304Y-68323580D01*
X88949257Y-68323580D01*
X89044495Y-68371200D01*
X89092114Y-68418819D01*
X89139733Y-68514057D01*
X89139733Y-68656914D01*
X89092114Y-68752152D01*
X89044495Y-68799771D01*
X88949257Y-68847390D01*
X88568304Y-68847390D01*
X89996876Y-68323580D02*
X89806400Y-68323580D01*
X89711161Y-68371200D01*
X89663542Y-68418819D01*
X89568304Y-68561676D01*
X89520685Y-68752152D01*
X89520685Y-69133104D01*
X89568304Y-69228342D01*
X89615923Y-69275961D01*
X89711161Y-69323580D01*
X89901638Y-69323580D01*
X89996876Y-69275961D01*
X90044495Y-69228342D01*
X90092114Y-69133104D01*
X90092114Y-68895009D01*
X90044495Y-68799771D01*
X89996876Y-68752152D01*
X89901638Y-68704533D01*
X89711161Y-68704533D01*
X89615923Y-68752152D01*
X89568304Y-68799771D01*
X89520685Y-68895009D01*
G04 #@! TO.C,R7*
X53376533Y-69323580D02*
X53043200Y-68847390D01*
X52805104Y-69323580D02*
X52805104Y-68323580D01*
X53186057Y-68323580D01*
X53281295Y-68371200D01*
X53328914Y-68418819D01*
X53376533Y-68514057D01*
X53376533Y-68656914D01*
X53328914Y-68752152D01*
X53281295Y-68799771D01*
X53186057Y-68847390D01*
X52805104Y-68847390D01*
X53709866Y-68323580D02*
X54376533Y-68323580D01*
X53947961Y-69323580D01*
G04 #@! TO.C,R8*
X84110533Y-69323580D02*
X83777200Y-68847390D01*
X83539104Y-69323580D02*
X83539104Y-68323580D01*
X83920057Y-68323580D01*
X84015295Y-68371200D01*
X84062914Y-68418819D01*
X84110533Y-68514057D01*
X84110533Y-68656914D01*
X84062914Y-68752152D01*
X84015295Y-68799771D01*
X83920057Y-68847390D01*
X83539104Y-68847390D01*
X84681961Y-68752152D02*
X84586723Y-68704533D01*
X84539104Y-68656914D01*
X84491485Y-68561676D01*
X84491485Y-68514057D01*
X84539104Y-68418819D01*
X84586723Y-68371200D01*
X84681961Y-68323580D01*
X84872438Y-68323580D01*
X84967676Y-68371200D01*
X85015295Y-68418819D01*
X85062914Y-68514057D01*
X85062914Y-68561676D01*
X85015295Y-68656914D01*
X84967676Y-68704533D01*
X84872438Y-68752152D01*
X84681961Y-68752152D01*
X84586723Y-68799771D01*
X84539104Y-68847390D01*
X84491485Y-68942628D01*
X84491485Y-69133104D01*
X84539104Y-69228342D01*
X84586723Y-69275961D01*
X84681961Y-69323580D01*
X84872438Y-69323580D01*
X84967676Y-69275961D01*
X85015295Y-69228342D01*
X85062914Y-69133104D01*
X85062914Y-68942628D01*
X85015295Y-68847390D01*
X84967676Y-68799771D01*
X84872438Y-68752152D01*
G04 #@! TO.C,R9*
X58304133Y-69323580D02*
X57970800Y-68847390D01*
X57732704Y-69323580D02*
X57732704Y-68323580D01*
X58113657Y-68323580D01*
X58208895Y-68371200D01*
X58256514Y-68418819D01*
X58304133Y-68514057D01*
X58304133Y-68656914D01*
X58256514Y-68752152D01*
X58208895Y-68799771D01*
X58113657Y-68847390D01*
X57732704Y-68847390D01*
X58780323Y-69323580D02*
X58970800Y-69323580D01*
X59066038Y-69275961D01*
X59113657Y-69228342D01*
X59208895Y-69085485D01*
X59256514Y-68895009D01*
X59256514Y-68514057D01*
X59208895Y-68418819D01*
X59161276Y-68371200D01*
X59066038Y-68323580D01*
X58875561Y-68323580D01*
X58780323Y-68371200D01*
X58732704Y-68418819D01*
X58685085Y-68514057D01*
X58685085Y-68752152D01*
X58732704Y-68847390D01*
X58780323Y-68895009D01*
X58875561Y-68942628D01*
X59066038Y-68942628D01*
X59161276Y-68895009D01*
X59208895Y-68847390D01*
X59256514Y-68752152D01*
G04 #@! TO.C,R10*
X79113142Y-69323580D02*
X78779809Y-68847390D01*
X78541714Y-69323580D02*
X78541714Y-68323580D01*
X78922666Y-68323580D01*
X79017904Y-68371200D01*
X79065523Y-68418819D01*
X79113142Y-68514057D01*
X79113142Y-68656914D01*
X79065523Y-68752152D01*
X79017904Y-68799771D01*
X78922666Y-68847390D01*
X78541714Y-68847390D01*
X80065523Y-69323580D02*
X79494095Y-69323580D01*
X79779809Y-69323580D02*
X79779809Y-68323580D01*
X79684571Y-68466438D01*
X79589333Y-68561676D01*
X79494095Y-68609295D01*
X80684571Y-68323580D02*
X80779809Y-68323580D01*
X80875047Y-68371200D01*
X80922666Y-68418819D01*
X80970285Y-68514057D01*
X81017904Y-68704533D01*
X81017904Y-68942628D01*
X80970285Y-69133104D01*
X80922666Y-69228342D01*
X80875047Y-69275961D01*
X80779809Y-69323580D01*
X80684571Y-69323580D01*
X80589333Y-69275961D01*
X80541714Y-69228342D01*
X80494095Y-69133104D01*
X80446476Y-68942628D01*
X80446476Y-68704533D01*
X80494095Y-68514057D01*
X80541714Y-68418819D01*
X80589333Y-68371200D01*
X80684571Y-68323580D01*
G04 #@! TO.C,R11*
X62653942Y-69323580D02*
X62320609Y-68847390D01*
X62082514Y-69323580D02*
X62082514Y-68323580D01*
X62463466Y-68323580D01*
X62558704Y-68371200D01*
X62606323Y-68418819D01*
X62653942Y-68514057D01*
X62653942Y-68656914D01*
X62606323Y-68752152D01*
X62558704Y-68799771D01*
X62463466Y-68847390D01*
X62082514Y-68847390D01*
X63606323Y-69323580D02*
X63034895Y-69323580D01*
X63320609Y-69323580D02*
X63320609Y-68323580D01*
X63225371Y-68466438D01*
X63130133Y-68561676D01*
X63034895Y-68609295D01*
X64558704Y-69323580D02*
X63987276Y-69323580D01*
X64272990Y-69323580D02*
X64272990Y-68323580D01*
X64177752Y-68466438D01*
X64082514Y-68561676D01*
X63987276Y-68609295D01*
G04 #@! TO.C,R12*
X74439542Y-69323580D02*
X74106209Y-68847390D01*
X73868114Y-69323580D02*
X73868114Y-68323580D01*
X74249066Y-68323580D01*
X74344304Y-68371200D01*
X74391923Y-68418819D01*
X74439542Y-68514057D01*
X74439542Y-68656914D01*
X74391923Y-68752152D01*
X74344304Y-68799771D01*
X74249066Y-68847390D01*
X73868114Y-68847390D01*
X75391923Y-69323580D02*
X74820495Y-69323580D01*
X75106209Y-69323580D02*
X75106209Y-68323580D01*
X75010971Y-68466438D01*
X74915733Y-68561676D01*
X74820495Y-68609295D01*
X75772876Y-68418819D02*
X75820495Y-68371200D01*
X75915733Y-68323580D01*
X76153828Y-68323580D01*
X76249066Y-68371200D01*
X76296685Y-68418819D01*
X76344304Y-68514057D01*
X76344304Y-68609295D01*
X76296685Y-68752152D01*
X75725257Y-69323580D01*
X76344304Y-69323580D01*
G04 #@! TO.C,R13*
X67784742Y-69323580D02*
X67451409Y-68847390D01*
X67213314Y-69323580D02*
X67213314Y-68323580D01*
X67594266Y-68323580D01*
X67689504Y-68371200D01*
X67737123Y-68418819D01*
X67784742Y-68514057D01*
X67784742Y-68656914D01*
X67737123Y-68752152D01*
X67689504Y-68799771D01*
X67594266Y-68847390D01*
X67213314Y-68847390D01*
X68737123Y-69323580D02*
X68165695Y-69323580D01*
X68451409Y-69323580D02*
X68451409Y-68323580D01*
X68356171Y-68466438D01*
X68260933Y-68561676D01*
X68165695Y-68609295D01*
X69070457Y-68323580D02*
X69689504Y-68323580D01*
X69356171Y-68704533D01*
X69499028Y-68704533D01*
X69594266Y-68752152D01*
X69641885Y-68799771D01*
X69689504Y-68895009D01*
X69689504Y-69133104D01*
X69641885Y-69228342D01*
X69594266Y-69275961D01*
X69499028Y-69323580D01*
X69213314Y-69323580D01*
X69118076Y-69275961D01*
X69070457Y-69228342D01*
G04 #@! TO.C,TP1*
X59596495Y-72943180D02*
X60167923Y-72943180D01*
X59882209Y-73943180D02*
X59882209Y-72943180D01*
X60501257Y-73943180D02*
X60501257Y-72943180D01*
X60882209Y-72943180D01*
X60977447Y-72990800D01*
X61025066Y-73038419D01*
X61072685Y-73133657D01*
X61072685Y-73276514D01*
X61025066Y-73371752D01*
X60977447Y-73419371D01*
X60882209Y-73466990D01*
X60501257Y-73466990D01*
X62025066Y-73943180D02*
X61453638Y-73943180D01*
X61739352Y-73943180D02*
X61739352Y-72943180D01*
X61644114Y-73086038D01*
X61548876Y-73181276D01*
X61453638Y-73228895D01*
G04 #@! TD*
M02*
