G04 #@! TF.GenerationSoftware,KiCad,Pcbnew,(5.1.0)-1*
G04 #@! TF.CreationDate,2019-12-22T19:44:07+00:00*
G04 #@! TF.ProjectId,v4,76342e6b-6963-4616-945f-706362585858,rev?*
G04 #@! TF.SameCoordinates,Original*
G04 #@! TF.FileFunction,Paste,Top*
G04 #@! TF.FilePolarity,Positive*
%FSLAX46Y46*%
G04 Gerber Fmt 4.6, Leading zero omitted, Abs format (unit mm)*
G04 Created by KiCad (PCBNEW (5.1.0)-1) date 2019-12-22 19:44:07*
%MOMM*%
%LPD*%
G04 APERTURE LIST*
%ADD10R,0.500000X0.900000*%
%ADD11R,0.900000X0.500000*%
%ADD12R,0.800000X0.800000*%
%ADD13R,0.800000X0.750000*%
%ADD14R,1.500000X0.600000*%
%ADD15R,0.800000X1.300000*%
%ADD16R,0.800000X0.900000*%
%ADD17R,3.200000X1.000000*%
G04 APERTURE END LIST*
D10*
X110867600Y-95787600D03*
X109367600Y-95787600D03*
X125867600Y-79087600D03*
X124367600Y-79087600D03*
X108667600Y-73987600D03*
X110167600Y-73987600D03*
X105067600Y-74187600D03*
X106567600Y-74187600D03*
X129967600Y-56687600D03*
X128467600Y-56687600D03*
D11*
X106917600Y-55937600D03*
X106917600Y-54437600D03*
D10*
X113367600Y-57687600D03*
X114867600Y-57687600D03*
X114217600Y-70487600D03*
X115717600Y-70487600D03*
X114217600Y-73487600D03*
X115717600Y-73487600D03*
X117967600Y-57687600D03*
X116467600Y-57687600D03*
D11*
X118717600Y-70837600D03*
X118717600Y-72337600D03*
X118717600Y-75337600D03*
X118717600Y-73837600D03*
D10*
X123167600Y-75187600D03*
X124667600Y-75187600D03*
D11*
X118717600Y-67937600D03*
X118717600Y-69437600D03*
D12*
X130117600Y-55087600D03*
X128517600Y-55087600D03*
X104917600Y-55387600D03*
X103317600Y-55387600D03*
X111117600Y-94187600D03*
X109517600Y-94187600D03*
D13*
X115867600Y-67487600D03*
X114367600Y-67487600D03*
X127467600Y-63087600D03*
X125967600Y-63087600D03*
X122717600Y-63887600D03*
X121217600Y-63887600D03*
D14*
X121417600Y-65577600D03*
X121417600Y-66847600D03*
X121417600Y-68117600D03*
X121417600Y-69387600D03*
X121417600Y-70657600D03*
X121417600Y-71927600D03*
X121417600Y-73197600D03*
X126817600Y-73197600D03*
X126817600Y-71927600D03*
X126817600Y-70657600D03*
X126817600Y-69387600D03*
X126817600Y-68117600D03*
X126817600Y-66847600D03*
X126817600Y-65577600D03*
D15*
X116577600Y-55437600D03*
X117857600Y-55437600D03*
X117857600Y-49137600D03*
X116577600Y-49137600D03*
D16*
X125767600Y-61487600D03*
X127667600Y-61487600D03*
X126717600Y-59487600D03*
X114167600Y-65487600D03*
X116067600Y-65487600D03*
X115117600Y-63487600D03*
D17*
X109617600Y-72287600D03*
X109617600Y-66087600D03*
X109617600Y-76087600D03*
X109617600Y-82287600D03*
X105117600Y-72287600D03*
X105117600Y-66087600D03*
X105117600Y-76087600D03*
X105117600Y-82287600D03*
X105117600Y-64099200D03*
X105117600Y-57899200D03*
X105117600Y-84387600D03*
X105117600Y-90587600D03*
X109617600Y-57899200D03*
X109617600Y-64099200D03*
X109617600Y-90587600D03*
X109617600Y-84387600D03*
M02*
