G04 #@! TF.GenerationSoftware,KiCad,Pcbnew,(5.1.0)-1*
G04 #@! TF.CreationDate,2019-04-30T11:34:50+01:00*
G04 #@! TF.ProjectId,v4,76342e6b-6963-4616-945f-706362585858,rev?*
G04 #@! TF.SameCoordinates,Original*
G04 #@! TF.FileFunction,Copper,L1,Top*
G04 #@! TF.FilePolarity,Positive*
%FSLAX46Y46*%
G04 Gerber Fmt 4.6, Leading zero omitted, Abs format (unit mm)*
G04 Created by KiCad (PCBNEW (5.1.0)-1) date 2019-04-30 11:34:50*
%MOMM*%
%LPD*%
G04 APERTURE LIST*
%ADD10C,2.400000*%
%ADD11R,1.200000X1.700000*%
%ADD12O,1.200000X1.700000*%
%ADD13R,1.500000X1.250000*%
%ADD14R,1.700000X1.700000*%
%ADD15O,1.700000X1.700000*%
%ADD16R,1.500000X1.300000*%
%ADD17R,1.500000X0.600000*%
%ADD18R,1.300000X0.800000*%
%ADD19R,0.800000X0.900000*%
%ADD20R,1.300000X1.500000*%
%ADD21R,2.000000X2.000000*%
%ADD22R,1.000000X3.200000*%
%ADD23C,0.800000*%
%ADD24C,0.300000*%
%ADD25C,1.000000*%
%ADD26C,0.254000*%
G04 APERTURE END LIST*
D10*
X56417600Y-64987600D03*
X86897600Y-64987600D03*
D11*
X68917600Y-97383600D03*
D12*
X70917600Y-97383600D03*
D13*
X79667600Y-75987600D03*
X82167600Y-75987600D03*
D14*
X55917600Y-80987600D03*
D15*
X55917600Y-83527600D03*
X55917600Y-86067600D03*
X55917600Y-88607600D03*
X55917600Y-91147600D03*
D16*
X54067600Y-72487600D03*
X56767600Y-72487600D03*
X74234266Y-56987600D03*
X76934266Y-56987600D03*
D14*
X85417600Y-79987600D03*
D15*
X87957600Y-79987600D03*
X85417600Y-82527600D03*
X87957600Y-82527600D03*
X85417600Y-85067600D03*
X87957600Y-85067600D03*
D13*
X61167600Y-79487600D03*
X63667600Y-79487600D03*
D11*
X81417600Y-96875600D03*
D12*
X83417600Y-96875600D03*
D16*
X82096000Y-87093600D03*
X79396000Y-87093600D03*
D17*
X64217600Y-81677600D03*
X64217600Y-82947600D03*
X64217600Y-84217600D03*
X64217600Y-85487600D03*
X64217600Y-86757600D03*
X64217600Y-88027600D03*
X64217600Y-89297600D03*
X69617600Y-89297600D03*
X69617600Y-88027600D03*
X69617600Y-86757600D03*
X69617600Y-85487600D03*
X69617600Y-84217600D03*
X69617600Y-82947600D03*
X69617600Y-81677600D03*
D13*
X79496000Y-84093600D03*
X81996000Y-84093600D03*
D11*
X59537600Y-97383600D03*
D12*
X61537600Y-97383600D03*
D16*
X72917600Y-75487600D03*
X75617600Y-75487600D03*
X69617600Y-75487600D03*
X66917600Y-75487600D03*
X69617600Y-72487600D03*
X66917600Y-72487600D03*
X74567600Y-96487600D03*
X77267600Y-96487600D03*
X54067600Y-75487600D03*
X56767600Y-75487600D03*
X60417600Y-72487600D03*
X63117600Y-72487600D03*
X69100933Y-56987600D03*
X66400933Y-56987600D03*
D18*
X66267600Y-92347600D03*
X66267600Y-93627600D03*
X72567600Y-93627600D03*
X72567600Y-92347600D03*
D19*
X79796000Y-81987600D03*
X81696000Y-81987600D03*
X80746000Y-79987600D03*
D16*
X82067600Y-56987600D03*
X84767600Y-56987600D03*
X58567600Y-56987600D03*
X61267600Y-56987600D03*
D19*
X79467600Y-73987600D03*
X81367600Y-73987600D03*
X80417600Y-71987600D03*
D20*
X71417600Y-64137600D03*
X71417600Y-66837600D03*
D16*
X73067600Y-72487600D03*
X75767600Y-72487600D03*
X63117600Y-75487600D03*
X60417600Y-75487600D03*
D21*
X59917600Y-85987600D03*
D22*
X59706000Y-67987600D03*
X53506000Y-67987600D03*
X83629200Y-68108000D03*
X89829200Y-68108000D03*
X53506000Y-61987600D03*
X59706000Y-61987600D03*
X89829200Y-61987600D03*
X83629200Y-61987600D03*
X62629200Y-61987600D03*
X68829200Y-61987600D03*
X80206000Y-61987600D03*
X74006000Y-61987600D03*
X68829200Y-67987600D03*
X62629200Y-67987600D03*
X74006000Y-67987600D03*
X80206000Y-67987600D03*
D23*
X70917600Y-58487600D03*
X58917600Y-71987600D03*
X82417600Y-77987600D03*
X71917600Y-81987600D03*
X82417600Y-85143589D03*
X70917600Y-78987600D03*
X67467635Y-81987600D03*
X60417596Y-76987596D03*
X67917600Y-76987600D03*
X63917600Y-76987600D03*
X65417600Y-72068501D03*
X61417627Y-70487573D03*
X60417600Y-70987600D03*
X71417600Y-68487600D03*
X71417596Y-76487600D03*
X68006104Y-87328901D03*
X82917600Y-78987600D03*
X69448255Y-79103184D03*
X71417600Y-72068501D03*
X57917592Y-58987600D03*
X54384750Y-94020450D03*
X70679933Y-91337610D03*
X71067603Y-88135501D03*
X65917600Y-90487600D03*
X66917600Y-87987600D03*
X68817587Y-73987600D03*
X66317628Y-79609650D03*
X62417600Y-84987600D03*
X76604362Y-92137590D03*
X72917600Y-84987600D03*
X69917600Y-73987600D03*
X67317633Y-78487600D03*
X70229210Y-65403989D03*
X58663328Y-92137590D03*
X71160808Y-87039454D03*
X54567590Y-77437611D03*
X78917600Y-77487600D03*
D24*
X81367600Y-75187600D02*
X82167600Y-75987600D01*
D25*
X81367600Y-73987600D02*
X81367600Y-75187600D01*
D24*
X81996000Y-82287600D02*
X81696000Y-81987600D01*
X81996000Y-84093600D02*
X81996000Y-82287600D01*
X56767600Y-75487600D02*
X60417600Y-75487600D01*
X60417600Y-72487600D02*
X60417600Y-75487600D01*
X69100933Y-56987600D02*
X69417600Y-56987600D01*
X69417600Y-56987600D02*
X70917600Y-58487600D01*
X81996000Y-84093600D02*
X81871000Y-84093600D01*
X60417600Y-72487600D02*
X59417600Y-72487600D01*
X59417600Y-72487600D02*
X58917600Y-71987600D01*
X82167600Y-75987600D02*
X82167600Y-77737600D01*
X82167600Y-77737600D02*
X82417600Y-77987600D01*
X69617600Y-81677600D02*
X71607600Y-81677600D01*
X71607600Y-81677600D02*
X71917600Y-81987600D01*
X82417600Y-84515200D02*
X81996000Y-84093600D01*
X82417600Y-85143589D02*
X82417600Y-84515200D01*
X69617600Y-81677600D02*
X69617600Y-80287600D01*
X69617600Y-80287600D02*
X70917600Y-78987600D01*
X60417600Y-76987592D02*
X60417596Y-76987596D01*
X60417600Y-75487600D02*
X60417600Y-76987592D01*
X67467635Y-81987600D02*
X68317599Y-81137636D01*
X68317599Y-81137636D02*
X68317599Y-77387599D01*
X68317599Y-77387599D02*
X67917600Y-76987600D01*
X63917600Y-79237600D02*
X63917600Y-76987600D01*
X63667600Y-79487600D02*
X63917600Y-79237600D01*
X66917600Y-72487600D02*
X65836699Y-72487600D01*
X65836699Y-72487600D02*
X65417600Y-72068501D01*
X82196000Y-87093600D02*
X82096000Y-87093600D01*
X83417600Y-88315200D02*
X82196000Y-87093600D01*
X83417600Y-96875600D02*
X83417600Y-88315200D01*
X61167600Y-79737600D02*
X61167600Y-79487600D01*
X64217600Y-81677600D02*
X63107600Y-81677600D01*
X63107600Y-81677600D02*
X61167600Y-79737600D01*
D25*
X59706000Y-70587600D02*
X60106000Y-70987600D01*
X59706000Y-67987600D02*
X59706000Y-70587600D01*
X60106000Y-70987600D02*
X60417600Y-70987600D01*
D24*
X61167600Y-78562600D02*
X61817626Y-77912574D01*
X61167600Y-79487600D02*
X61167600Y-78562600D01*
D25*
X61817626Y-70887572D02*
X61417627Y-70487573D01*
D24*
X61817626Y-77912574D02*
X61817626Y-70887572D01*
D25*
X60917600Y-70987600D02*
X61417627Y-70487573D01*
D24*
X60417600Y-70987600D02*
X60917600Y-70987600D01*
D25*
X86749600Y-64987600D02*
X83629200Y-68108000D01*
X86897600Y-64987600D02*
X86749600Y-64987600D01*
D24*
X84491601Y-85993599D02*
X80596001Y-85993599D01*
X79496000Y-87093600D02*
X79396000Y-87093600D01*
X85417600Y-85067600D02*
X84491601Y-85993599D01*
X80596001Y-85993599D02*
X79496000Y-87093600D01*
X64667600Y-85487600D02*
X64217600Y-85487600D01*
X65417601Y-86237601D02*
X64667600Y-85487600D01*
X71417600Y-89987600D02*
X70917600Y-90487600D01*
X70917600Y-90487600D02*
X68159598Y-90487600D01*
X71417600Y-88987600D02*
X71417600Y-89987600D01*
X77917600Y-84987600D02*
X75417600Y-84987600D01*
X75417600Y-84987600D02*
X71417600Y-88987600D01*
X79396000Y-87093600D02*
X79396000Y-86466000D01*
X68159598Y-90487600D02*
X65417601Y-87745603D01*
X79396000Y-86466000D02*
X77917600Y-84987600D01*
X65417601Y-87745603D02*
X65417601Y-86237601D01*
X69617600Y-88027600D02*
X68957600Y-88027600D01*
X71417600Y-66837600D02*
X71417600Y-68487600D01*
X68468901Y-87328901D02*
X68006104Y-87328901D01*
X69617600Y-88027600D02*
X69167600Y-88027600D01*
X69167600Y-88027600D02*
X68468901Y-87328901D01*
X82917600Y-80027600D02*
X82917600Y-78987600D01*
X85417600Y-82527600D02*
X82917600Y-80027600D01*
X71417596Y-76487600D02*
X69448255Y-78456941D01*
X69448255Y-78456941D02*
X69448255Y-79103184D01*
X73067600Y-72487600D02*
X71836699Y-72487600D01*
X71836699Y-72487600D02*
X71417600Y-72068501D01*
X61267600Y-56987600D02*
X61167600Y-56987600D01*
X59167600Y-58987600D02*
X57917592Y-58987600D01*
X61167600Y-56987600D02*
X59167600Y-58987600D01*
X64217600Y-89297600D02*
X63259057Y-89297600D01*
X63259057Y-89297600D02*
X58536207Y-94020450D01*
X58536207Y-94020450D02*
X54384750Y-94020450D01*
X68161065Y-91337610D02*
X70679933Y-91337610D01*
X66121055Y-89297600D02*
X68161065Y-91337610D01*
X64217600Y-89297600D02*
X66121055Y-89297600D01*
X84767600Y-57937600D02*
X84767600Y-56987600D01*
X88547601Y-61717601D02*
X84767600Y-57937600D01*
X88547601Y-75707599D02*
X88547601Y-61717601D01*
X85417600Y-78837600D02*
X88547601Y-75707599D01*
X85417600Y-79987600D02*
X85417600Y-78837600D01*
X70067600Y-89297600D02*
X71067603Y-88297597D01*
X71067603Y-88297597D02*
X71067603Y-88135501D01*
X69617600Y-89297600D02*
X70067600Y-89297600D01*
X69617600Y-85487600D02*
X68417600Y-85487600D01*
X68417600Y-85487600D02*
X66317598Y-83387598D01*
X66917600Y-83987600D02*
X66917600Y-87987600D01*
X66317598Y-83387598D02*
X66917600Y-83987600D01*
X65467612Y-79044132D02*
X65735838Y-78775906D01*
X63117600Y-73437600D02*
X63117600Y-72487600D01*
X65467612Y-80219067D02*
X65467612Y-79044132D01*
X66017612Y-83087612D02*
X66017612Y-80769067D01*
X65735838Y-77075692D02*
X65467612Y-76807466D01*
X65467612Y-76807466D02*
X65467612Y-75787612D01*
X66017612Y-80769067D02*
X65467612Y-80219067D01*
X66317598Y-83387598D02*
X66017612Y-83087612D01*
X65735838Y-78775906D02*
X65735838Y-77075692D01*
X65467612Y-75787612D02*
X63117600Y-73437600D01*
X62917600Y-90487600D02*
X65917600Y-90487600D01*
X59537600Y-97383600D02*
X59537600Y-93867600D01*
X59537600Y-93867600D02*
X62917600Y-90487600D01*
X69617600Y-75487600D02*
X72917600Y-75487600D01*
X69617600Y-75487600D02*
X69517600Y-75487600D01*
X69517600Y-75487600D02*
X68817587Y-74787587D01*
X68817587Y-74787587D02*
X68817587Y-73987600D01*
X63947601Y-87757601D02*
X64217600Y-88027600D01*
X55917600Y-88607600D02*
X56767599Y-87757601D01*
X56767599Y-87757601D02*
X63947601Y-87757601D01*
X61987600Y-86757600D02*
X64217600Y-86757600D01*
X61217600Y-85987600D02*
X61987600Y-86757600D01*
X59917600Y-85987600D02*
X61217600Y-85987600D01*
X68967600Y-72487600D02*
X66917600Y-74537600D01*
X66917600Y-74537600D02*
X66917600Y-75487600D01*
X69617600Y-72487600D02*
X68967600Y-72487600D01*
X66917600Y-76437600D02*
X66467623Y-76887577D01*
X66467623Y-78893970D02*
X66317628Y-79043965D01*
X66317628Y-79043965D02*
X66317628Y-79609650D01*
X66917600Y-75487600D02*
X66917600Y-76437600D01*
X66467623Y-76887577D02*
X66467623Y-78893970D01*
X64217600Y-86757600D02*
X63767600Y-86757600D01*
X62417600Y-85407600D02*
X62417600Y-84987600D01*
X63767600Y-86757600D02*
X62417600Y-85407600D01*
X71532376Y-91522822D02*
X71532376Y-91703321D01*
X71557599Y-91497599D02*
X71532376Y-91522822D01*
X71532376Y-91703321D02*
X70888097Y-92347600D01*
X70888097Y-92347600D02*
X66267600Y-92347600D01*
X74567600Y-92487598D02*
X73577601Y-91497599D01*
X73577601Y-91497599D02*
X71557599Y-91497599D01*
X74567600Y-96487600D02*
X74567600Y-92487598D01*
X77267600Y-92800828D02*
X76604362Y-92137590D01*
X77267600Y-96487600D02*
X77267600Y-92800828D01*
X69617600Y-84217600D02*
X72147600Y-84217600D01*
X72147600Y-84217600D02*
X72917600Y-84987600D01*
D25*
X53506000Y-61867200D02*
X53506000Y-67987600D01*
X89829200Y-68108000D02*
X89829200Y-61987600D01*
X59706000Y-61867200D02*
X62629200Y-61867200D01*
X83629200Y-61987600D02*
X80206000Y-61987600D01*
X68829200Y-67987600D02*
X68829200Y-61867200D01*
X74006000Y-61987600D02*
X74006000Y-67987600D01*
X80417600Y-68199200D02*
X80206000Y-67987600D01*
X80417600Y-71987600D02*
X80417600Y-68199200D01*
X76025109Y-70668491D02*
X78706000Y-67987600D01*
X62629200Y-67987600D02*
X62629200Y-68699200D01*
X78706000Y-67987600D02*
X80206000Y-67987600D01*
X64598491Y-70668491D02*
X76025109Y-70668491D01*
X62629200Y-68699200D02*
X64598491Y-70668491D01*
X62629200Y-66699200D02*
X62629200Y-67987600D01*
X56417600Y-64987600D02*
X60917600Y-64987600D01*
X60917600Y-64987600D02*
X62629200Y-66699200D01*
D24*
X76934266Y-56987600D02*
X82067600Y-56987600D01*
X58667600Y-56987600D02*
X58567600Y-56987600D01*
X59767601Y-55887599D02*
X58667600Y-56987600D01*
X64250932Y-55887599D02*
X59767601Y-55887599D01*
X65350933Y-56987600D02*
X64250932Y-55887599D01*
X66400933Y-56987600D02*
X65350933Y-56987600D01*
X79496000Y-82287600D02*
X79796000Y-81987600D01*
X79496000Y-84093600D02*
X79496000Y-82287600D01*
X75617600Y-75487600D02*
X75717600Y-75487600D01*
X78417600Y-80487600D02*
X79796000Y-81937600D01*
X79796000Y-81937600D02*
X79796000Y-81987600D01*
X74217600Y-73987600D02*
X69917600Y-73987600D01*
X75717600Y-75487600D02*
X74217600Y-73987600D01*
X74067598Y-77079596D02*
X74067598Y-78395602D01*
X75717600Y-75487600D02*
X75659594Y-75487600D01*
X75659594Y-75487600D02*
X74067598Y-77079596D01*
X74067598Y-78395602D02*
X76159596Y-80487600D01*
X76159596Y-80487600D02*
X78417600Y-80487600D01*
X67317633Y-79829563D02*
X67317633Y-78487600D01*
X67119596Y-82947600D02*
X66617623Y-82445627D01*
X66617623Y-82445627D02*
X66617623Y-80529573D01*
X66617623Y-80529573D02*
X67317633Y-79829563D01*
X69617600Y-82947600D02*
X67119596Y-82947600D01*
X70137599Y-83467599D02*
X69617600Y-82947600D01*
X70727601Y-83467599D02*
X70137599Y-83467599D01*
X70747602Y-83487600D02*
X70727601Y-83467599D01*
X76837600Y-83487600D02*
X70747602Y-83487600D01*
X78417600Y-80487600D02*
X78417600Y-81907600D01*
X78417600Y-81907600D02*
X76837600Y-83487600D01*
X71417600Y-64237600D02*
X70251211Y-65403989D01*
X70251211Y-65403989D02*
X70229210Y-65403989D01*
X71417600Y-64137600D02*
X71417600Y-64237600D01*
X54267601Y-80197601D02*
X54267601Y-92337601D01*
X55417600Y-74787600D02*
X55417600Y-79047602D01*
X56767600Y-73437600D02*
X55417600Y-74787600D01*
X55417600Y-79047602D02*
X54267601Y-80197601D01*
X54267601Y-92337601D02*
X54467589Y-92537589D01*
X54467589Y-92537589D02*
X58263329Y-92537589D01*
X58263329Y-92537589D02*
X58663328Y-92137590D01*
X56767600Y-72487600D02*
X56767600Y-73437600D01*
X69617600Y-86757600D02*
X70878954Y-86757600D01*
X70878954Y-86757600D02*
X71160808Y-87039454D01*
X54067600Y-75487600D02*
X54067600Y-72487600D01*
X79467600Y-75787600D02*
X79667600Y-75987600D01*
X79467600Y-73987600D02*
X79467600Y-75787600D01*
X54067600Y-76937621D02*
X54567590Y-77437611D01*
X54067600Y-75487600D02*
X54067600Y-76937621D01*
X79667600Y-75987600D02*
X79667600Y-76912600D01*
X79667600Y-76912600D02*
X79492600Y-76912600D01*
X79492600Y-76912600D02*
X78917600Y-77487600D01*
X59027600Y-82947600D02*
X64217600Y-82947600D01*
X57067600Y-80987600D02*
X59027600Y-82947600D01*
X57067600Y-80987600D02*
X55917600Y-80987600D01*
X64667600Y-82947600D02*
X64217600Y-82947600D01*
X65417601Y-82197599D02*
X64667600Y-82947600D01*
X65417601Y-81017599D02*
X65417601Y-82197599D01*
X64167600Y-75487600D02*
X64867601Y-76187601D01*
X63117600Y-75487600D02*
X64167600Y-75487600D01*
X64867601Y-76187601D02*
X64867601Y-80467599D01*
X64867601Y-80467599D02*
X65417601Y-81017599D01*
X63767600Y-84217600D02*
X64217600Y-84217600D01*
X55917600Y-86067600D02*
X58367600Y-83617600D01*
X63167600Y-83617600D02*
X63767600Y-84217600D01*
X58367600Y-83617600D02*
X63167600Y-83617600D01*
X68917600Y-97027600D02*
X68917600Y-97383600D01*
X72317600Y-93627600D02*
X68917600Y-97027600D01*
X72567600Y-93627600D02*
X72317600Y-93627600D01*
X73517600Y-92347600D02*
X72567600Y-92347600D01*
X73667601Y-92497601D02*
X73517600Y-92347600D01*
X73667601Y-94383599D02*
X73667601Y-92497601D01*
X70917600Y-97133600D02*
X73667601Y-94383599D01*
X70917600Y-97383600D02*
X70917600Y-97133600D01*
D26*
G36*
X58845514Y-55699528D02*
G01*
X57817600Y-55699528D01*
X57693118Y-55711788D01*
X57573420Y-55748098D01*
X57463106Y-55807063D01*
X57366415Y-55886415D01*
X57287063Y-55983106D01*
X57228098Y-56093420D01*
X57191788Y-56213118D01*
X57179528Y-56337600D01*
X57179528Y-57637600D01*
X57191788Y-57762082D01*
X57228098Y-57881780D01*
X57287063Y-57992094D01*
X57366415Y-58088785D01*
X57381404Y-58101086D01*
X57257818Y-58183663D01*
X57113655Y-58327826D01*
X57000387Y-58497344D01*
X56922366Y-58685702D01*
X56882592Y-58885661D01*
X56882592Y-59089539D01*
X56922366Y-59289498D01*
X57000387Y-59477856D01*
X57113655Y-59647374D01*
X57257818Y-59791537D01*
X57427336Y-59904805D01*
X57615694Y-59982826D01*
X57815653Y-60022600D01*
X58019531Y-60022600D01*
X58219490Y-59982826D01*
X58407848Y-59904805D01*
X58577366Y-59791537D01*
X58596303Y-59772600D01*
X59045876Y-59772600D01*
X58961820Y-59798098D01*
X58851506Y-59857063D01*
X58754815Y-59936415D01*
X58675463Y-60033106D01*
X58616498Y-60143420D01*
X58580188Y-60263118D01*
X58567928Y-60387600D01*
X58567928Y-61842639D01*
X58565509Y-61867200D01*
X58567928Y-61891761D01*
X58567928Y-63587600D01*
X58580188Y-63712082D01*
X58616498Y-63831780D01*
X58627627Y-63852600D01*
X57866153Y-63852600D01*
X57842938Y-63817856D01*
X57587344Y-63562262D01*
X57286799Y-63361444D01*
X56952850Y-63223118D01*
X56598332Y-63152600D01*
X56236868Y-63152600D01*
X55882350Y-63223118D01*
X55548401Y-63361444D01*
X55247856Y-63562262D01*
X54992262Y-63817856D01*
X54791444Y-64118401D01*
X54653118Y-64452350D01*
X54641000Y-64513271D01*
X54641000Y-63618792D01*
X54644072Y-63587600D01*
X54644072Y-60387600D01*
X54631812Y-60263118D01*
X54595502Y-60143420D01*
X54536537Y-60033106D01*
X54457185Y-59936415D01*
X54360494Y-59857063D01*
X54250180Y-59798098D01*
X54130482Y-59761788D01*
X54006000Y-59749528D01*
X53006000Y-59749528D01*
X52881518Y-59761788D01*
X52761820Y-59798098D01*
X52651506Y-59857063D01*
X52554815Y-59936415D01*
X52475463Y-60033106D01*
X52416498Y-60143420D01*
X52380188Y-60263118D01*
X52367928Y-60387600D01*
X52367928Y-63587600D01*
X52371000Y-63618795D01*
X52371001Y-66356401D01*
X52367928Y-66387600D01*
X52367928Y-69587600D01*
X52380188Y-69712082D01*
X52416498Y-69831780D01*
X52475463Y-69942094D01*
X52554815Y-70038785D01*
X52651506Y-70118137D01*
X52761820Y-70177102D01*
X52881518Y-70213412D01*
X53006000Y-70225672D01*
X54006000Y-70225672D01*
X54130482Y-70213412D01*
X54250180Y-70177102D01*
X54360494Y-70118137D01*
X54457185Y-70038785D01*
X54536537Y-69942094D01*
X54595502Y-69831780D01*
X54631812Y-69712082D01*
X54644072Y-69587600D01*
X54644072Y-66387600D01*
X54641000Y-66356408D01*
X54641000Y-65461929D01*
X54653118Y-65522850D01*
X54791444Y-65856799D01*
X54992262Y-66157344D01*
X55247856Y-66412938D01*
X55548401Y-66613756D01*
X55882350Y-66752082D01*
X56236868Y-66822600D01*
X56598332Y-66822600D01*
X56952850Y-66752082D01*
X57286799Y-66613756D01*
X57587344Y-66412938D01*
X57842938Y-66157344D01*
X57866153Y-66122600D01*
X58627627Y-66122600D01*
X58616498Y-66143420D01*
X58580188Y-66263118D01*
X58567928Y-66387600D01*
X58567928Y-69587600D01*
X58571001Y-69618798D01*
X58571001Y-70531839D01*
X58565509Y-70587600D01*
X58587423Y-70810098D01*
X58652324Y-71024046D01*
X58652325Y-71024047D01*
X58757717Y-71221223D01*
X58899552Y-71394049D01*
X58942860Y-71429591D01*
X59088057Y-71574788D01*
X59078098Y-71593420D01*
X59041788Y-71713118D01*
X59029528Y-71837600D01*
X59032600Y-72201850D01*
X59191350Y-72360600D01*
X60290600Y-72360600D01*
X60290600Y-72340600D01*
X60544600Y-72340600D01*
X60544600Y-72360600D01*
X60564600Y-72360600D01*
X60564600Y-72614600D01*
X60544600Y-72614600D01*
X60544600Y-73613850D01*
X60703350Y-73772600D01*
X61032627Y-73774779D01*
X61032627Y-74200421D01*
X60703350Y-74202600D01*
X60544600Y-74361350D01*
X60544600Y-75360600D01*
X60564600Y-75360600D01*
X60564600Y-75614600D01*
X60544600Y-75614600D01*
X60544600Y-76613850D01*
X60703350Y-76772600D01*
X61032626Y-76774779D01*
X61032626Y-77587417D01*
X60639785Y-77980258D01*
X60609837Y-78004836D01*
X60585259Y-78034784D01*
X60585255Y-78034788D01*
X60561315Y-78063959D01*
X60511739Y-78124367D01*
X60472777Y-78197260D01*
X60458202Y-78224528D01*
X60417600Y-78224528D01*
X60293118Y-78236788D01*
X60173420Y-78273098D01*
X60063106Y-78332063D01*
X59966415Y-78411415D01*
X59887063Y-78508106D01*
X59828098Y-78618420D01*
X59791788Y-78738118D01*
X59779528Y-78862600D01*
X59779528Y-80112600D01*
X59791788Y-80237082D01*
X59828098Y-80356780D01*
X59887063Y-80467094D01*
X59966415Y-80563785D01*
X60063106Y-80643137D01*
X60173420Y-80702102D01*
X60293118Y-80738412D01*
X60417600Y-80750672D01*
X61070515Y-80750672D01*
X62482442Y-82162600D01*
X59352757Y-82162600D01*
X57649947Y-80459790D01*
X57625364Y-80429836D01*
X57505833Y-80331738D01*
X57405672Y-80278201D01*
X57405672Y-80137600D01*
X57393412Y-80013118D01*
X57357102Y-79893420D01*
X57298137Y-79783106D01*
X57218785Y-79686415D01*
X57122094Y-79607063D01*
X57011780Y-79548098D01*
X56892082Y-79511788D01*
X56767600Y-79499528D01*
X56062224Y-79499528D01*
X56073462Y-79485835D01*
X56146354Y-79349462D01*
X56164544Y-79289498D01*
X56191241Y-79201490D01*
X56197125Y-79141745D01*
X56202600Y-79086163D01*
X56202600Y-79086156D01*
X56206397Y-79047603D01*
X56202600Y-79009050D01*
X56202600Y-76774448D01*
X56481850Y-76772600D01*
X56640600Y-76613850D01*
X56640600Y-75614600D01*
X56894600Y-75614600D01*
X56894600Y-76613850D01*
X57053350Y-76772600D01*
X57517600Y-76775672D01*
X57642082Y-76763412D01*
X57761780Y-76727102D01*
X57872094Y-76668137D01*
X57968785Y-76588785D01*
X58048137Y-76492094D01*
X58107102Y-76381780D01*
X58143412Y-76262082D01*
X58155672Y-76137600D01*
X59029528Y-76137600D01*
X59041788Y-76262082D01*
X59078098Y-76381780D01*
X59137063Y-76492094D01*
X59216415Y-76588785D01*
X59313106Y-76668137D01*
X59423420Y-76727102D01*
X59543118Y-76763412D01*
X59667600Y-76775672D01*
X60131850Y-76772600D01*
X60290600Y-76613850D01*
X60290600Y-75614600D01*
X59191350Y-75614600D01*
X59032600Y-75773350D01*
X59029528Y-76137600D01*
X58155672Y-76137600D01*
X58152600Y-75773350D01*
X57993850Y-75614600D01*
X56894600Y-75614600D01*
X56640600Y-75614600D01*
X56620600Y-75614600D01*
X56620600Y-75360600D01*
X56640600Y-75360600D01*
X56640600Y-75340600D01*
X56894600Y-75340600D01*
X56894600Y-75360600D01*
X57993850Y-75360600D01*
X58152600Y-75201850D01*
X58155672Y-74837600D01*
X59029528Y-74837600D01*
X59032600Y-75201850D01*
X59191350Y-75360600D01*
X60290600Y-75360600D01*
X60290600Y-74361350D01*
X60131850Y-74202600D01*
X59667600Y-74199528D01*
X59543118Y-74211788D01*
X59423420Y-74248098D01*
X59313106Y-74307063D01*
X59216415Y-74386415D01*
X59137063Y-74483106D01*
X59078098Y-74593420D01*
X59041788Y-74713118D01*
X59029528Y-74837600D01*
X58155672Y-74837600D01*
X58143412Y-74713118D01*
X58107102Y-74593420D01*
X58048137Y-74483106D01*
X57968785Y-74386415D01*
X57872094Y-74307063D01*
X57761780Y-74248098D01*
X57642082Y-74211788D01*
X57517600Y-74199528D01*
X57113154Y-74202204D01*
X57295416Y-74019942D01*
X57325364Y-73995364D01*
X57349946Y-73965412D01*
X57374050Y-73936041D01*
X57423462Y-73875833D01*
X57476999Y-73775672D01*
X57517600Y-73775672D01*
X57642082Y-73763412D01*
X57761780Y-73727102D01*
X57872094Y-73668137D01*
X57968785Y-73588785D01*
X58048137Y-73492094D01*
X58107102Y-73381780D01*
X58143412Y-73262082D01*
X58155672Y-73137600D01*
X59029528Y-73137600D01*
X59041788Y-73262082D01*
X59078098Y-73381780D01*
X59137063Y-73492094D01*
X59216415Y-73588785D01*
X59313106Y-73668137D01*
X59423420Y-73727102D01*
X59543118Y-73763412D01*
X59667600Y-73775672D01*
X60131850Y-73772600D01*
X60290600Y-73613850D01*
X60290600Y-72614600D01*
X59191350Y-72614600D01*
X59032600Y-72773350D01*
X59029528Y-73137600D01*
X58155672Y-73137600D01*
X58155672Y-71837600D01*
X58143412Y-71713118D01*
X58107102Y-71593420D01*
X58048137Y-71483106D01*
X57968785Y-71386415D01*
X57872094Y-71307063D01*
X57761780Y-71248098D01*
X57642082Y-71211788D01*
X57517600Y-71199528D01*
X56017600Y-71199528D01*
X55893118Y-71211788D01*
X55773420Y-71248098D01*
X55663106Y-71307063D01*
X55566415Y-71386415D01*
X55487063Y-71483106D01*
X55428098Y-71593420D01*
X55417600Y-71628027D01*
X55407102Y-71593420D01*
X55348137Y-71483106D01*
X55268785Y-71386415D01*
X55172094Y-71307063D01*
X55061780Y-71248098D01*
X54942082Y-71211788D01*
X54817600Y-71199528D01*
X53317600Y-71199528D01*
X53193118Y-71211788D01*
X53073420Y-71248098D01*
X52963106Y-71307063D01*
X52866415Y-71386415D01*
X52787063Y-71483106D01*
X52728098Y-71593420D01*
X52691788Y-71713118D01*
X52679528Y-71837600D01*
X52679528Y-73137600D01*
X52691788Y-73262082D01*
X52728098Y-73381780D01*
X52787063Y-73492094D01*
X52866415Y-73588785D01*
X52963106Y-73668137D01*
X53073420Y-73727102D01*
X53193118Y-73763412D01*
X53282601Y-73772225D01*
X53282600Y-74202975D01*
X53193118Y-74211788D01*
X53073420Y-74248098D01*
X52963106Y-74307063D01*
X52866415Y-74386415D01*
X52787063Y-74483106D01*
X52728098Y-74593420D01*
X52691788Y-74713118D01*
X52679528Y-74837600D01*
X52679528Y-76137600D01*
X52691788Y-76262082D01*
X52728098Y-76381780D01*
X52787063Y-76492094D01*
X52866415Y-76588785D01*
X52963106Y-76668137D01*
X53073420Y-76727102D01*
X53193118Y-76763412D01*
X53282601Y-76772225D01*
X53282601Y-76899059D01*
X53278803Y-76937621D01*
X53293959Y-77091507D01*
X53338846Y-77239480D01*
X53362495Y-77283724D01*
X53411739Y-77375854D01*
X53416336Y-77381455D01*
X53485255Y-77465433D01*
X53485259Y-77465437D01*
X53509837Y-77495385D01*
X53532590Y-77514058D01*
X53532590Y-77539550D01*
X53572364Y-77739509D01*
X53650385Y-77927867D01*
X53763653Y-78097385D01*
X53907816Y-78241548D01*
X54077334Y-78354816D01*
X54265692Y-78432837D01*
X54465651Y-78472611D01*
X54632601Y-78472611D01*
X54632601Y-78722443D01*
X53739791Y-79615254D01*
X53709837Y-79639837D01*
X53611739Y-79759369D01*
X53538847Y-79895742D01*
X53493960Y-80043715D01*
X53482601Y-80159041D01*
X53482601Y-80159048D01*
X53478804Y-80197601D01*
X53482601Y-80236154D01*
X53482602Y-92299038D01*
X53478804Y-92337601D01*
X53493960Y-92491487D01*
X53538847Y-92639460D01*
X53572778Y-92702941D01*
X53611740Y-92775834D01*
X53631130Y-92799460D01*
X53685256Y-92865413D01*
X53685260Y-92865417D01*
X53709838Y-92895365D01*
X53739787Y-92919944D01*
X53885239Y-93065395D01*
X53909825Y-93095353D01*
X53911073Y-93096378D01*
X53894494Y-93103245D01*
X53724976Y-93216513D01*
X53580813Y-93360676D01*
X53467545Y-93530194D01*
X53389524Y-93718552D01*
X53349750Y-93918511D01*
X53349750Y-94122389D01*
X53389524Y-94322348D01*
X53467545Y-94510706D01*
X53580813Y-94680224D01*
X53724976Y-94824387D01*
X53894494Y-94937655D01*
X54082852Y-95015676D01*
X54282811Y-95055450D01*
X54486689Y-95055450D01*
X54686648Y-95015676D01*
X54875006Y-94937655D01*
X55044524Y-94824387D01*
X55063461Y-94805450D01*
X58497654Y-94805450D01*
X58536207Y-94809247D01*
X58574760Y-94805450D01*
X58574768Y-94805450D01*
X58690094Y-94794091D01*
X58752601Y-94775130D01*
X58752600Y-95926146D01*
X58693420Y-95944098D01*
X58583106Y-96003063D01*
X58486415Y-96082415D01*
X58407063Y-96179106D01*
X58348098Y-96289420D01*
X58311788Y-96409118D01*
X58299528Y-96533600D01*
X58299528Y-98233600D01*
X58311788Y-98358082D01*
X58348098Y-98477780D01*
X58407063Y-98588094D01*
X58486415Y-98684785D01*
X58583106Y-98764137D01*
X58693420Y-98823102D01*
X58813118Y-98859412D01*
X58937600Y-98871672D01*
X60137600Y-98871672D01*
X60262082Y-98859412D01*
X60381780Y-98823102D01*
X60492094Y-98764137D01*
X60588785Y-98684785D01*
X60668137Y-98588094D01*
X60694292Y-98539163D01*
X60848152Y-98665433D01*
X61062700Y-98780111D01*
X61295499Y-98850730D01*
X61537600Y-98874575D01*
X61779702Y-98850730D01*
X62012501Y-98780111D01*
X62227049Y-98665433D01*
X62415102Y-98511102D01*
X62569433Y-98323049D01*
X62684111Y-98108500D01*
X62754730Y-97875701D01*
X62772600Y-97694264D01*
X62772600Y-97072935D01*
X62754730Y-96891498D01*
X62684111Y-96658699D01*
X62569433Y-96444151D01*
X62415102Y-96256098D01*
X62227048Y-96101767D01*
X62012500Y-95987089D01*
X61779701Y-95916470D01*
X61537600Y-95892625D01*
X61295498Y-95916470D01*
X61062699Y-95987089D01*
X60848151Y-96101767D01*
X60694291Y-96228036D01*
X60668137Y-96179106D01*
X60588785Y-96082415D01*
X60492094Y-96003063D01*
X60381780Y-95944098D01*
X60322600Y-95926146D01*
X60322600Y-94192757D01*
X60487757Y-94027600D01*
X64979528Y-94027600D01*
X64991788Y-94152082D01*
X65028098Y-94271780D01*
X65087063Y-94382094D01*
X65166415Y-94478785D01*
X65263106Y-94558137D01*
X65373420Y-94617102D01*
X65493118Y-94653412D01*
X65617600Y-94665672D01*
X65981850Y-94662600D01*
X66140600Y-94503850D01*
X66140600Y-93754600D01*
X66394600Y-93754600D01*
X66394600Y-94503850D01*
X66553350Y-94662600D01*
X66917600Y-94665672D01*
X67042082Y-94653412D01*
X67161780Y-94617102D01*
X67272094Y-94558137D01*
X67368785Y-94478785D01*
X67448137Y-94382094D01*
X67507102Y-94271780D01*
X67543412Y-94152082D01*
X67555672Y-94027600D01*
X67552600Y-93913350D01*
X67393850Y-93754600D01*
X66394600Y-93754600D01*
X66140600Y-93754600D01*
X65141350Y-93754600D01*
X64982600Y-93913350D01*
X64979528Y-94027600D01*
X60487757Y-94027600D01*
X63242757Y-91272600D01*
X65238889Y-91272600D01*
X65257826Y-91291537D01*
X65364543Y-91362843D01*
X65263106Y-91417063D01*
X65166415Y-91496415D01*
X65087063Y-91593106D01*
X65028098Y-91703420D01*
X64991788Y-91823118D01*
X64979528Y-91947600D01*
X64979528Y-92747600D01*
X64991788Y-92872082D01*
X65026830Y-92987600D01*
X64991788Y-93103118D01*
X64979528Y-93227600D01*
X64982600Y-93341850D01*
X65141350Y-93500600D01*
X66140600Y-93500600D01*
X66140600Y-93480600D01*
X66394600Y-93480600D01*
X66394600Y-93500600D01*
X67393850Y-93500600D01*
X67552600Y-93341850D01*
X67555672Y-93227600D01*
X67546316Y-93132600D01*
X70849544Y-93132600D01*
X70888097Y-93136397D01*
X70926650Y-93132600D01*
X70926658Y-93132600D01*
X71041984Y-93121241D01*
X71189957Y-93076354D01*
X71321184Y-93006213D01*
X71291788Y-93103118D01*
X71279528Y-93227600D01*
X71279528Y-93555514D01*
X68939515Y-95895528D01*
X68317600Y-95895528D01*
X68193118Y-95907788D01*
X68073420Y-95944098D01*
X67963106Y-96003063D01*
X67866415Y-96082415D01*
X67787063Y-96179106D01*
X67728098Y-96289420D01*
X67691788Y-96409118D01*
X67679528Y-96533600D01*
X67679528Y-98233600D01*
X67691788Y-98358082D01*
X67728098Y-98477780D01*
X67787063Y-98588094D01*
X67866415Y-98684785D01*
X67963106Y-98764137D01*
X68073420Y-98823102D01*
X68193118Y-98859412D01*
X68317600Y-98871672D01*
X69517600Y-98871672D01*
X69642082Y-98859412D01*
X69761780Y-98823102D01*
X69872094Y-98764137D01*
X69968785Y-98684785D01*
X70048137Y-98588094D01*
X70074292Y-98539163D01*
X70228152Y-98665433D01*
X70442700Y-98780111D01*
X70675499Y-98850730D01*
X70917600Y-98874575D01*
X71159702Y-98850730D01*
X71392501Y-98780111D01*
X71607049Y-98665433D01*
X71795102Y-98511102D01*
X71949433Y-98323049D01*
X72064111Y-98108500D01*
X72134730Y-97875701D01*
X72152600Y-97694264D01*
X72152600Y-97072935D01*
X72146846Y-97014511D01*
X73179528Y-95981829D01*
X73179528Y-97137600D01*
X73191788Y-97262082D01*
X73228098Y-97381780D01*
X73287063Y-97492094D01*
X73366415Y-97588785D01*
X73463106Y-97668137D01*
X73573420Y-97727102D01*
X73693118Y-97763412D01*
X73817600Y-97775672D01*
X75317600Y-97775672D01*
X75442082Y-97763412D01*
X75561780Y-97727102D01*
X75672094Y-97668137D01*
X75768785Y-97588785D01*
X75848137Y-97492094D01*
X75907102Y-97381780D01*
X75917600Y-97347173D01*
X75928098Y-97381780D01*
X75987063Y-97492094D01*
X76066415Y-97588785D01*
X76163106Y-97668137D01*
X76273420Y-97727102D01*
X76393118Y-97763412D01*
X76517600Y-97775672D01*
X78017600Y-97775672D01*
X78142082Y-97763412D01*
X78261780Y-97727102D01*
X78264589Y-97725600D01*
X80179528Y-97725600D01*
X80191788Y-97850082D01*
X80228098Y-97969780D01*
X80287063Y-98080094D01*
X80366415Y-98176785D01*
X80463106Y-98256137D01*
X80573420Y-98315102D01*
X80693118Y-98351412D01*
X80817600Y-98363672D01*
X81131850Y-98360600D01*
X81290600Y-98201850D01*
X81290600Y-97002600D01*
X80341350Y-97002600D01*
X80182600Y-97161350D01*
X80179528Y-97725600D01*
X78264589Y-97725600D01*
X78372094Y-97668137D01*
X78468785Y-97588785D01*
X78548137Y-97492094D01*
X78607102Y-97381780D01*
X78643412Y-97262082D01*
X78655672Y-97137600D01*
X78655672Y-96025600D01*
X80179528Y-96025600D01*
X80182600Y-96589850D01*
X80341350Y-96748600D01*
X81290600Y-96748600D01*
X81290600Y-95549350D01*
X81131850Y-95390600D01*
X80817600Y-95387528D01*
X80693118Y-95399788D01*
X80573420Y-95436098D01*
X80463106Y-95495063D01*
X80366415Y-95574415D01*
X80287063Y-95671106D01*
X80228098Y-95781420D01*
X80191788Y-95901118D01*
X80179528Y-96025600D01*
X78655672Y-96025600D01*
X78655672Y-95837600D01*
X78643412Y-95713118D01*
X78607102Y-95593420D01*
X78548137Y-95483106D01*
X78468785Y-95386415D01*
X78372094Y-95307063D01*
X78261780Y-95248098D01*
X78142082Y-95211788D01*
X78052600Y-95202975D01*
X78052600Y-92839380D01*
X78056397Y-92800827D01*
X78052600Y-92762274D01*
X78052600Y-92762267D01*
X78041241Y-92646941D01*
X78023690Y-92589081D01*
X77996354Y-92498968D01*
X77975012Y-92459040D01*
X77923462Y-92362595D01*
X77825364Y-92243064D01*
X77795415Y-92218485D01*
X77639362Y-92062432D01*
X77639362Y-92035651D01*
X77599588Y-91835692D01*
X77521567Y-91647334D01*
X77408299Y-91477816D01*
X77264136Y-91333653D01*
X77094618Y-91220385D01*
X76906260Y-91142364D01*
X76706301Y-91102590D01*
X76502423Y-91102590D01*
X76302464Y-91142364D01*
X76114106Y-91220385D01*
X75944588Y-91333653D01*
X75800425Y-91477816D01*
X75687157Y-91647334D01*
X75609136Y-91835692D01*
X75569362Y-92035651D01*
X75569362Y-92239529D01*
X75609136Y-92439488D01*
X75687157Y-92627846D01*
X75800425Y-92797364D01*
X75944588Y-92941527D01*
X76114106Y-93054795D01*
X76302464Y-93132816D01*
X76482601Y-93168647D01*
X76482600Y-95202975D01*
X76393118Y-95211788D01*
X76273420Y-95248098D01*
X76163106Y-95307063D01*
X76066415Y-95386415D01*
X75987063Y-95483106D01*
X75928098Y-95593420D01*
X75917600Y-95628027D01*
X75907102Y-95593420D01*
X75848137Y-95483106D01*
X75768785Y-95386415D01*
X75672094Y-95307063D01*
X75561780Y-95248098D01*
X75442082Y-95211788D01*
X75352600Y-95202975D01*
X75352600Y-92526150D01*
X75356397Y-92487597D01*
X75352600Y-92449044D01*
X75352600Y-92449037D01*
X75341241Y-92333711D01*
X75296354Y-92185738D01*
X75223462Y-92049365D01*
X75125364Y-91929834D01*
X75095415Y-91905255D01*
X74159948Y-90969789D01*
X74135365Y-90939835D01*
X74015834Y-90841737D01*
X73879461Y-90768845D01*
X73731488Y-90723958D01*
X73616162Y-90712599D01*
X73616154Y-90712599D01*
X73577601Y-90708802D01*
X73539048Y-90712599D01*
X71802757Y-90712599D01*
X71945405Y-90569951D01*
X71975364Y-90545364D01*
X72073462Y-90425833D01*
X72146354Y-90289460D01*
X72191242Y-90141487D01*
X72200314Y-90049367D01*
X72202600Y-90026161D01*
X72202600Y-90026156D01*
X72206397Y-89987600D01*
X72202600Y-89949044D01*
X72202600Y-89312757D01*
X75742758Y-85772600D01*
X77592443Y-85772600D01*
X78047832Y-86227989D01*
X78020188Y-86319118D01*
X78007928Y-86443600D01*
X78007928Y-87743600D01*
X78020188Y-87868082D01*
X78056498Y-87987780D01*
X78115463Y-88098094D01*
X78194815Y-88194785D01*
X78291506Y-88274137D01*
X78401820Y-88333102D01*
X78521518Y-88369412D01*
X78646000Y-88381672D01*
X80146000Y-88381672D01*
X80270482Y-88369412D01*
X80390180Y-88333102D01*
X80500494Y-88274137D01*
X80597185Y-88194785D01*
X80676537Y-88098094D01*
X80735502Y-87987780D01*
X80746000Y-87953173D01*
X80756498Y-87987780D01*
X80815463Y-88098094D01*
X80894815Y-88194785D01*
X80991506Y-88274137D01*
X81101820Y-88333102D01*
X81221518Y-88369412D01*
X81346000Y-88381672D01*
X82373914Y-88381672D01*
X82632601Y-88640359D01*
X82632600Y-95672184D01*
X82574291Y-95720036D01*
X82548137Y-95671106D01*
X82468785Y-95574415D01*
X82372094Y-95495063D01*
X82261780Y-95436098D01*
X82142082Y-95399788D01*
X82017600Y-95387528D01*
X81703350Y-95390600D01*
X81544600Y-95549350D01*
X81544600Y-96748600D01*
X81564600Y-96748600D01*
X81564600Y-97002600D01*
X81544600Y-97002600D01*
X81544600Y-98201850D01*
X81703350Y-98360600D01*
X82017600Y-98363672D01*
X82142082Y-98351412D01*
X82261780Y-98315102D01*
X82372094Y-98256137D01*
X82468785Y-98176785D01*
X82548137Y-98080094D01*
X82574292Y-98031163D01*
X82728152Y-98157433D01*
X82942700Y-98272111D01*
X83175499Y-98342730D01*
X83417600Y-98366575D01*
X83659702Y-98342730D01*
X83892501Y-98272111D01*
X84107049Y-98157433D01*
X84295102Y-98003102D01*
X84449433Y-97815049D01*
X84564111Y-97600500D01*
X84634730Y-97367701D01*
X84652600Y-97186264D01*
X84652600Y-96564935D01*
X84634730Y-96383498D01*
X84564111Y-96150699D01*
X84449433Y-95936151D01*
X84295102Y-95748098D01*
X84202600Y-95672184D01*
X84202600Y-88353752D01*
X84206397Y-88315199D01*
X84202600Y-88276646D01*
X84202600Y-88276639D01*
X84191241Y-88161313D01*
X84146354Y-88013340D01*
X84073462Y-87876967D01*
X83975364Y-87757436D01*
X83945415Y-87732858D01*
X83484072Y-87271514D01*
X83484072Y-86778599D01*
X84453048Y-86778599D01*
X84491601Y-86782396D01*
X84530154Y-86778599D01*
X84530162Y-86778599D01*
X84645488Y-86767240D01*
X84793461Y-86722353D01*
X84929834Y-86649461D01*
X85049365Y-86551363D01*
X85073948Y-86521409D01*
X85078731Y-86516626D01*
X85126489Y-86531113D01*
X85344650Y-86552600D01*
X85490550Y-86552600D01*
X85708711Y-86531113D01*
X85988634Y-86446199D01*
X86246614Y-86308306D01*
X86472734Y-86122734D01*
X86658306Y-85896614D01*
X86689184Y-85838844D01*
X86860012Y-86067869D01*
X87076245Y-86262778D01*
X87326348Y-86411757D01*
X87600709Y-86509081D01*
X87830600Y-86388414D01*
X87830600Y-85194600D01*
X88084600Y-85194600D01*
X88084600Y-86388414D01*
X88314491Y-86509081D01*
X88588852Y-86411757D01*
X88838955Y-86262778D01*
X89055188Y-86067869D01*
X89229241Y-85834520D01*
X89354425Y-85571699D01*
X89399076Y-85424490D01*
X89277755Y-85194600D01*
X88084600Y-85194600D01*
X87830600Y-85194600D01*
X87810600Y-85194600D01*
X87810600Y-84940600D01*
X87830600Y-84940600D01*
X87830600Y-84920600D01*
X88084600Y-84920600D01*
X88084600Y-84940600D01*
X89277755Y-84940600D01*
X89399076Y-84710710D01*
X89354425Y-84563501D01*
X89229241Y-84300680D01*
X89055188Y-84067331D01*
X88838955Y-83872422D01*
X88722077Y-83802801D01*
X88786614Y-83768306D01*
X89012734Y-83582734D01*
X89198306Y-83356614D01*
X89336199Y-83098634D01*
X89421113Y-82818711D01*
X89449785Y-82527600D01*
X89421113Y-82236489D01*
X89336199Y-81956566D01*
X89198306Y-81698586D01*
X89012734Y-81472466D01*
X88786614Y-81286894D01*
X88731809Y-81257600D01*
X88786614Y-81228306D01*
X89012734Y-81042734D01*
X89198306Y-80816614D01*
X89336199Y-80558634D01*
X89421113Y-80278711D01*
X89449785Y-79987600D01*
X89421113Y-79696489D01*
X89336199Y-79416566D01*
X89198306Y-79158586D01*
X89012734Y-78932466D01*
X88786614Y-78746894D01*
X88528634Y-78609001D01*
X88248711Y-78524087D01*
X88030550Y-78502600D01*
X87884650Y-78502600D01*
X87666489Y-78524087D01*
X87386566Y-78609001D01*
X87128586Y-78746894D01*
X86902466Y-78932466D01*
X86877993Y-78962287D01*
X86857102Y-78893420D01*
X86798137Y-78783106D01*
X86718785Y-78686415D01*
X86696901Y-78668456D01*
X89075412Y-76289945D01*
X89105365Y-76265363D01*
X89203463Y-76145832D01*
X89276355Y-76009459D01*
X89294683Y-75949040D01*
X89321243Y-75861486D01*
X89331351Y-75758846D01*
X89332601Y-75746160D01*
X89332601Y-75746155D01*
X89336398Y-75707599D01*
X89332601Y-75669043D01*
X89332601Y-70346072D01*
X90329200Y-70346072D01*
X90453682Y-70333812D01*
X90573380Y-70297502D01*
X90683694Y-70238537D01*
X90780385Y-70159185D01*
X90859737Y-70062494D01*
X90918702Y-69952180D01*
X90933201Y-69904384D01*
X90933200Y-101172825D01*
X90824466Y-100910318D01*
X90618175Y-100601582D01*
X90355618Y-100339025D01*
X90046882Y-100132734D01*
X89703834Y-99990639D01*
X89339656Y-99918200D01*
X88968344Y-99918200D01*
X88604166Y-99990639D01*
X88261118Y-100132734D01*
X87952382Y-100339025D01*
X87689825Y-100601582D01*
X87483534Y-100910318D01*
X87341439Y-101253366D01*
X87269000Y-101617544D01*
X87269000Y-101988856D01*
X87341439Y-102353034D01*
X87483534Y-102696082D01*
X87689825Y-103004818D01*
X87952382Y-103267375D01*
X88261118Y-103473666D01*
X88523625Y-103582400D01*
X54732375Y-103582400D01*
X54994882Y-103473666D01*
X55303618Y-103267375D01*
X55566175Y-103004818D01*
X55772466Y-102696082D01*
X55914561Y-102353034D01*
X55987000Y-101988856D01*
X55987000Y-101617544D01*
X55914561Y-101253366D01*
X55772466Y-100910318D01*
X55566175Y-100601582D01*
X55303618Y-100339025D01*
X54994882Y-100132734D01*
X54651834Y-99990639D01*
X54287656Y-99918200D01*
X53916344Y-99918200D01*
X53552166Y-99990639D01*
X53209118Y-100132734D01*
X52900382Y-100339025D01*
X52637825Y-100601582D01*
X52431534Y-100910318D01*
X52322800Y-101172825D01*
X52322800Y-57983575D01*
X52431534Y-58246082D01*
X52637825Y-58554818D01*
X52900382Y-58817375D01*
X53209118Y-59023666D01*
X53552166Y-59165761D01*
X53916344Y-59238200D01*
X54287656Y-59238200D01*
X54651834Y-59165761D01*
X54994882Y-59023666D01*
X55303618Y-58817375D01*
X55566175Y-58554818D01*
X55772466Y-58246082D01*
X55914561Y-57903034D01*
X55987000Y-57538856D01*
X55987000Y-57167544D01*
X55914561Y-56803366D01*
X55772466Y-56460318D01*
X55566175Y-56151582D01*
X55303618Y-55889025D01*
X54994882Y-55682734D01*
X54732375Y-55574000D01*
X58971042Y-55574000D01*
X58845514Y-55699528D01*
X58845514Y-55699528D01*
G37*
X58845514Y-55699528D02*
X57817600Y-55699528D01*
X57693118Y-55711788D01*
X57573420Y-55748098D01*
X57463106Y-55807063D01*
X57366415Y-55886415D01*
X57287063Y-55983106D01*
X57228098Y-56093420D01*
X57191788Y-56213118D01*
X57179528Y-56337600D01*
X57179528Y-57637600D01*
X57191788Y-57762082D01*
X57228098Y-57881780D01*
X57287063Y-57992094D01*
X57366415Y-58088785D01*
X57381404Y-58101086D01*
X57257818Y-58183663D01*
X57113655Y-58327826D01*
X57000387Y-58497344D01*
X56922366Y-58685702D01*
X56882592Y-58885661D01*
X56882592Y-59089539D01*
X56922366Y-59289498D01*
X57000387Y-59477856D01*
X57113655Y-59647374D01*
X57257818Y-59791537D01*
X57427336Y-59904805D01*
X57615694Y-59982826D01*
X57815653Y-60022600D01*
X58019531Y-60022600D01*
X58219490Y-59982826D01*
X58407848Y-59904805D01*
X58577366Y-59791537D01*
X58596303Y-59772600D01*
X59045876Y-59772600D01*
X58961820Y-59798098D01*
X58851506Y-59857063D01*
X58754815Y-59936415D01*
X58675463Y-60033106D01*
X58616498Y-60143420D01*
X58580188Y-60263118D01*
X58567928Y-60387600D01*
X58567928Y-61842639D01*
X58565509Y-61867200D01*
X58567928Y-61891761D01*
X58567928Y-63587600D01*
X58580188Y-63712082D01*
X58616498Y-63831780D01*
X58627627Y-63852600D01*
X57866153Y-63852600D01*
X57842938Y-63817856D01*
X57587344Y-63562262D01*
X57286799Y-63361444D01*
X56952850Y-63223118D01*
X56598332Y-63152600D01*
X56236868Y-63152600D01*
X55882350Y-63223118D01*
X55548401Y-63361444D01*
X55247856Y-63562262D01*
X54992262Y-63817856D01*
X54791444Y-64118401D01*
X54653118Y-64452350D01*
X54641000Y-64513271D01*
X54641000Y-63618792D01*
X54644072Y-63587600D01*
X54644072Y-60387600D01*
X54631812Y-60263118D01*
X54595502Y-60143420D01*
X54536537Y-60033106D01*
X54457185Y-59936415D01*
X54360494Y-59857063D01*
X54250180Y-59798098D01*
X54130482Y-59761788D01*
X54006000Y-59749528D01*
X53006000Y-59749528D01*
X52881518Y-59761788D01*
X52761820Y-59798098D01*
X52651506Y-59857063D01*
X52554815Y-59936415D01*
X52475463Y-60033106D01*
X52416498Y-60143420D01*
X52380188Y-60263118D01*
X52367928Y-60387600D01*
X52367928Y-63587600D01*
X52371000Y-63618795D01*
X52371001Y-66356401D01*
X52367928Y-66387600D01*
X52367928Y-69587600D01*
X52380188Y-69712082D01*
X52416498Y-69831780D01*
X52475463Y-69942094D01*
X52554815Y-70038785D01*
X52651506Y-70118137D01*
X52761820Y-70177102D01*
X52881518Y-70213412D01*
X53006000Y-70225672D01*
X54006000Y-70225672D01*
X54130482Y-70213412D01*
X54250180Y-70177102D01*
X54360494Y-70118137D01*
X54457185Y-70038785D01*
X54536537Y-69942094D01*
X54595502Y-69831780D01*
X54631812Y-69712082D01*
X54644072Y-69587600D01*
X54644072Y-66387600D01*
X54641000Y-66356408D01*
X54641000Y-65461929D01*
X54653118Y-65522850D01*
X54791444Y-65856799D01*
X54992262Y-66157344D01*
X55247856Y-66412938D01*
X55548401Y-66613756D01*
X55882350Y-66752082D01*
X56236868Y-66822600D01*
X56598332Y-66822600D01*
X56952850Y-66752082D01*
X57286799Y-66613756D01*
X57587344Y-66412938D01*
X57842938Y-66157344D01*
X57866153Y-66122600D01*
X58627627Y-66122600D01*
X58616498Y-66143420D01*
X58580188Y-66263118D01*
X58567928Y-66387600D01*
X58567928Y-69587600D01*
X58571001Y-69618798D01*
X58571001Y-70531839D01*
X58565509Y-70587600D01*
X58587423Y-70810098D01*
X58652324Y-71024046D01*
X58652325Y-71024047D01*
X58757717Y-71221223D01*
X58899552Y-71394049D01*
X58942860Y-71429591D01*
X59088057Y-71574788D01*
X59078098Y-71593420D01*
X59041788Y-71713118D01*
X59029528Y-71837600D01*
X59032600Y-72201850D01*
X59191350Y-72360600D01*
X60290600Y-72360600D01*
X60290600Y-72340600D01*
X60544600Y-72340600D01*
X60544600Y-72360600D01*
X60564600Y-72360600D01*
X60564600Y-72614600D01*
X60544600Y-72614600D01*
X60544600Y-73613850D01*
X60703350Y-73772600D01*
X61032627Y-73774779D01*
X61032627Y-74200421D01*
X60703350Y-74202600D01*
X60544600Y-74361350D01*
X60544600Y-75360600D01*
X60564600Y-75360600D01*
X60564600Y-75614600D01*
X60544600Y-75614600D01*
X60544600Y-76613850D01*
X60703350Y-76772600D01*
X61032626Y-76774779D01*
X61032626Y-77587417D01*
X60639785Y-77980258D01*
X60609837Y-78004836D01*
X60585259Y-78034784D01*
X60585255Y-78034788D01*
X60561315Y-78063959D01*
X60511739Y-78124367D01*
X60472777Y-78197260D01*
X60458202Y-78224528D01*
X60417600Y-78224528D01*
X60293118Y-78236788D01*
X60173420Y-78273098D01*
X60063106Y-78332063D01*
X59966415Y-78411415D01*
X59887063Y-78508106D01*
X59828098Y-78618420D01*
X59791788Y-78738118D01*
X59779528Y-78862600D01*
X59779528Y-80112600D01*
X59791788Y-80237082D01*
X59828098Y-80356780D01*
X59887063Y-80467094D01*
X59966415Y-80563785D01*
X60063106Y-80643137D01*
X60173420Y-80702102D01*
X60293118Y-80738412D01*
X60417600Y-80750672D01*
X61070515Y-80750672D01*
X62482442Y-82162600D01*
X59352757Y-82162600D01*
X57649947Y-80459790D01*
X57625364Y-80429836D01*
X57505833Y-80331738D01*
X57405672Y-80278201D01*
X57405672Y-80137600D01*
X57393412Y-80013118D01*
X57357102Y-79893420D01*
X57298137Y-79783106D01*
X57218785Y-79686415D01*
X57122094Y-79607063D01*
X57011780Y-79548098D01*
X56892082Y-79511788D01*
X56767600Y-79499528D01*
X56062224Y-79499528D01*
X56073462Y-79485835D01*
X56146354Y-79349462D01*
X56164544Y-79289498D01*
X56191241Y-79201490D01*
X56197125Y-79141745D01*
X56202600Y-79086163D01*
X56202600Y-79086156D01*
X56206397Y-79047603D01*
X56202600Y-79009050D01*
X56202600Y-76774448D01*
X56481850Y-76772600D01*
X56640600Y-76613850D01*
X56640600Y-75614600D01*
X56894600Y-75614600D01*
X56894600Y-76613850D01*
X57053350Y-76772600D01*
X57517600Y-76775672D01*
X57642082Y-76763412D01*
X57761780Y-76727102D01*
X57872094Y-76668137D01*
X57968785Y-76588785D01*
X58048137Y-76492094D01*
X58107102Y-76381780D01*
X58143412Y-76262082D01*
X58155672Y-76137600D01*
X59029528Y-76137600D01*
X59041788Y-76262082D01*
X59078098Y-76381780D01*
X59137063Y-76492094D01*
X59216415Y-76588785D01*
X59313106Y-76668137D01*
X59423420Y-76727102D01*
X59543118Y-76763412D01*
X59667600Y-76775672D01*
X60131850Y-76772600D01*
X60290600Y-76613850D01*
X60290600Y-75614600D01*
X59191350Y-75614600D01*
X59032600Y-75773350D01*
X59029528Y-76137600D01*
X58155672Y-76137600D01*
X58152600Y-75773350D01*
X57993850Y-75614600D01*
X56894600Y-75614600D01*
X56640600Y-75614600D01*
X56620600Y-75614600D01*
X56620600Y-75360600D01*
X56640600Y-75360600D01*
X56640600Y-75340600D01*
X56894600Y-75340600D01*
X56894600Y-75360600D01*
X57993850Y-75360600D01*
X58152600Y-75201850D01*
X58155672Y-74837600D01*
X59029528Y-74837600D01*
X59032600Y-75201850D01*
X59191350Y-75360600D01*
X60290600Y-75360600D01*
X60290600Y-74361350D01*
X60131850Y-74202600D01*
X59667600Y-74199528D01*
X59543118Y-74211788D01*
X59423420Y-74248098D01*
X59313106Y-74307063D01*
X59216415Y-74386415D01*
X59137063Y-74483106D01*
X59078098Y-74593420D01*
X59041788Y-74713118D01*
X59029528Y-74837600D01*
X58155672Y-74837600D01*
X58143412Y-74713118D01*
X58107102Y-74593420D01*
X58048137Y-74483106D01*
X57968785Y-74386415D01*
X57872094Y-74307063D01*
X57761780Y-74248098D01*
X57642082Y-74211788D01*
X57517600Y-74199528D01*
X57113154Y-74202204D01*
X57295416Y-74019942D01*
X57325364Y-73995364D01*
X57349946Y-73965412D01*
X57374050Y-73936041D01*
X57423462Y-73875833D01*
X57476999Y-73775672D01*
X57517600Y-73775672D01*
X57642082Y-73763412D01*
X57761780Y-73727102D01*
X57872094Y-73668137D01*
X57968785Y-73588785D01*
X58048137Y-73492094D01*
X58107102Y-73381780D01*
X58143412Y-73262082D01*
X58155672Y-73137600D01*
X59029528Y-73137600D01*
X59041788Y-73262082D01*
X59078098Y-73381780D01*
X59137063Y-73492094D01*
X59216415Y-73588785D01*
X59313106Y-73668137D01*
X59423420Y-73727102D01*
X59543118Y-73763412D01*
X59667600Y-73775672D01*
X60131850Y-73772600D01*
X60290600Y-73613850D01*
X60290600Y-72614600D01*
X59191350Y-72614600D01*
X59032600Y-72773350D01*
X59029528Y-73137600D01*
X58155672Y-73137600D01*
X58155672Y-71837600D01*
X58143412Y-71713118D01*
X58107102Y-71593420D01*
X58048137Y-71483106D01*
X57968785Y-71386415D01*
X57872094Y-71307063D01*
X57761780Y-71248098D01*
X57642082Y-71211788D01*
X57517600Y-71199528D01*
X56017600Y-71199528D01*
X55893118Y-71211788D01*
X55773420Y-71248098D01*
X55663106Y-71307063D01*
X55566415Y-71386415D01*
X55487063Y-71483106D01*
X55428098Y-71593420D01*
X55417600Y-71628027D01*
X55407102Y-71593420D01*
X55348137Y-71483106D01*
X55268785Y-71386415D01*
X55172094Y-71307063D01*
X55061780Y-71248098D01*
X54942082Y-71211788D01*
X54817600Y-71199528D01*
X53317600Y-71199528D01*
X53193118Y-71211788D01*
X53073420Y-71248098D01*
X52963106Y-71307063D01*
X52866415Y-71386415D01*
X52787063Y-71483106D01*
X52728098Y-71593420D01*
X52691788Y-71713118D01*
X52679528Y-71837600D01*
X52679528Y-73137600D01*
X52691788Y-73262082D01*
X52728098Y-73381780D01*
X52787063Y-73492094D01*
X52866415Y-73588785D01*
X52963106Y-73668137D01*
X53073420Y-73727102D01*
X53193118Y-73763412D01*
X53282601Y-73772225D01*
X53282600Y-74202975D01*
X53193118Y-74211788D01*
X53073420Y-74248098D01*
X52963106Y-74307063D01*
X52866415Y-74386415D01*
X52787063Y-74483106D01*
X52728098Y-74593420D01*
X52691788Y-74713118D01*
X52679528Y-74837600D01*
X52679528Y-76137600D01*
X52691788Y-76262082D01*
X52728098Y-76381780D01*
X52787063Y-76492094D01*
X52866415Y-76588785D01*
X52963106Y-76668137D01*
X53073420Y-76727102D01*
X53193118Y-76763412D01*
X53282601Y-76772225D01*
X53282601Y-76899059D01*
X53278803Y-76937621D01*
X53293959Y-77091507D01*
X53338846Y-77239480D01*
X53362495Y-77283724D01*
X53411739Y-77375854D01*
X53416336Y-77381455D01*
X53485255Y-77465433D01*
X53485259Y-77465437D01*
X53509837Y-77495385D01*
X53532590Y-77514058D01*
X53532590Y-77539550D01*
X53572364Y-77739509D01*
X53650385Y-77927867D01*
X53763653Y-78097385D01*
X53907816Y-78241548D01*
X54077334Y-78354816D01*
X54265692Y-78432837D01*
X54465651Y-78472611D01*
X54632601Y-78472611D01*
X54632601Y-78722443D01*
X53739791Y-79615254D01*
X53709837Y-79639837D01*
X53611739Y-79759369D01*
X53538847Y-79895742D01*
X53493960Y-80043715D01*
X53482601Y-80159041D01*
X53482601Y-80159048D01*
X53478804Y-80197601D01*
X53482601Y-80236154D01*
X53482602Y-92299038D01*
X53478804Y-92337601D01*
X53493960Y-92491487D01*
X53538847Y-92639460D01*
X53572778Y-92702941D01*
X53611740Y-92775834D01*
X53631130Y-92799460D01*
X53685256Y-92865413D01*
X53685260Y-92865417D01*
X53709838Y-92895365D01*
X53739787Y-92919944D01*
X53885239Y-93065395D01*
X53909825Y-93095353D01*
X53911073Y-93096378D01*
X53894494Y-93103245D01*
X53724976Y-93216513D01*
X53580813Y-93360676D01*
X53467545Y-93530194D01*
X53389524Y-93718552D01*
X53349750Y-93918511D01*
X53349750Y-94122389D01*
X53389524Y-94322348D01*
X53467545Y-94510706D01*
X53580813Y-94680224D01*
X53724976Y-94824387D01*
X53894494Y-94937655D01*
X54082852Y-95015676D01*
X54282811Y-95055450D01*
X54486689Y-95055450D01*
X54686648Y-95015676D01*
X54875006Y-94937655D01*
X55044524Y-94824387D01*
X55063461Y-94805450D01*
X58497654Y-94805450D01*
X58536207Y-94809247D01*
X58574760Y-94805450D01*
X58574768Y-94805450D01*
X58690094Y-94794091D01*
X58752601Y-94775130D01*
X58752600Y-95926146D01*
X58693420Y-95944098D01*
X58583106Y-96003063D01*
X58486415Y-96082415D01*
X58407063Y-96179106D01*
X58348098Y-96289420D01*
X58311788Y-96409118D01*
X58299528Y-96533600D01*
X58299528Y-98233600D01*
X58311788Y-98358082D01*
X58348098Y-98477780D01*
X58407063Y-98588094D01*
X58486415Y-98684785D01*
X58583106Y-98764137D01*
X58693420Y-98823102D01*
X58813118Y-98859412D01*
X58937600Y-98871672D01*
X60137600Y-98871672D01*
X60262082Y-98859412D01*
X60381780Y-98823102D01*
X60492094Y-98764137D01*
X60588785Y-98684785D01*
X60668137Y-98588094D01*
X60694292Y-98539163D01*
X60848152Y-98665433D01*
X61062700Y-98780111D01*
X61295499Y-98850730D01*
X61537600Y-98874575D01*
X61779702Y-98850730D01*
X62012501Y-98780111D01*
X62227049Y-98665433D01*
X62415102Y-98511102D01*
X62569433Y-98323049D01*
X62684111Y-98108500D01*
X62754730Y-97875701D01*
X62772600Y-97694264D01*
X62772600Y-97072935D01*
X62754730Y-96891498D01*
X62684111Y-96658699D01*
X62569433Y-96444151D01*
X62415102Y-96256098D01*
X62227048Y-96101767D01*
X62012500Y-95987089D01*
X61779701Y-95916470D01*
X61537600Y-95892625D01*
X61295498Y-95916470D01*
X61062699Y-95987089D01*
X60848151Y-96101767D01*
X60694291Y-96228036D01*
X60668137Y-96179106D01*
X60588785Y-96082415D01*
X60492094Y-96003063D01*
X60381780Y-95944098D01*
X60322600Y-95926146D01*
X60322600Y-94192757D01*
X60487757Y-94027600D01*
X64979528Y-94027600D01*
X64991788Y-94152082D01*
X65028098Y-94271780D01*
X65087063Y-94382094D01*
X65166415Y-94478785D01*
X65263106Y-94558137D01*
X65373420Y-94617102D01*
X65493118Y-94653412D01*
X65617600Y-94665672D01*
X65981850Y-94662600D01*
X66140600Y-94503850D01*
X66140600Y-93754600D01*
X66394600Y-93754600D01*
X66394600Y-94503850D01*
X66553350Y-94662600D01*
X66917600Y-94665672D01*
X67042082Y-94653412D01*
X67161780Y-94617102D01*
X67272094Y-94558137D01*
X67368785Y-94478785D01*
X67448137Y-94382094D01*
X67507102Y-94271780D01*
X67543412Y-94152082D01*
X67555672Y-94027600D01*
X67552600Y-93913350D01*
X67393850Y-93754600D01*
X66394600Y-93754600D01*
X66140600Y-93754600D01*
X65141350Y-93754600D01*
X64982600Y-93913350D01*
X64979528Y-94027600D01*
X60487757Y-94027600D01*
X63242757Y-91272600D01*
X65238889Y-91272600D01*
X65257826Y-91291537D01*
X65364543Y-91362843D01*
X65263106Y-91417063D01*
X65166415Y-91496415D01*
X65087063Y-91593106D01*
X65028098Y-91703420D01*
X64991788Y-91823118D01*
X64979528Y-91947600D01*
X64979528Y-92747600D01*
X64991788Y-92872082D01*
X65026830Y-92987600D01*
X64991788Y-93103118D01*
X64979528Y-93227600D01*
X64982600Y-93341850D01*
X65141350Y-93500600D01*
X66140600Y-93500600D01*
X66140600Y-93480600D01*
X66394600Y-93480600D01*
X66394600Y-93500600D01*
X67393850Y-93500600D01*
X67552600Y-93341850D01*
X67555672Y-93227600D01*
X67546316Y-93132600D01*
X70849544Y-93132600D01*
X70888097Y-93136397D01*
X70926650Y-93132600D01*
X70926658Y-93132600D01*
X71041984Y-93121241D01*
X71189957Y-93076354D01*
X71321184Y-93006213D01*
X71291788Y-93103118D01*
X71279528Y-93227600D01*
X71279528Y-93555514D01*
X68939515Y-95895528D01*
X68317600Y-95895528D01*
X68193118Y-95907788D01*
X68073420Y-95944098D01*
X67963106Y-96003063D01*
X67866415Y-96082415D01*
X67787063Y-96179106D01*
X67728098Y-96289420D01*
X67691788Y-96409118D01*
X67679528Y-96533600D01*
X67679528Y-98233600D01*
X67691788Y-98358082D01*
X67728098Y-98477780D01*
X67787063Y-98588094D01*
X67866415Y-98684785D01*
X67963106Y-98764137D01*
X68073420Y-98823102D01*
X68193118Y-98859412D01*
X68317600Y-98871672D01*
X69517600Y-98871672D01*
X69642082Y-98859412D01*
X69761780Y-98823102D01*
X69872094Y-98764137D01*
X69968785Y-98684785D01*
X70048137Y-98588094D01*
X70074292Y-98539163D01*
X70228152Y-98665433D01*
X70442700Y-98780111D01*
X70675499Y-98850730D01*
X70917600Y-98874575D01*
X71159702Y-98850730D01*
X71392501Y-98780111D01*
X71607049Y-98665433D01*
X71795102Y-98511102D01*
X71949433Y-98323049D01*
X72064111Y-98108500D01*
X72134730Y-97875701D01*
X72152600Y-97694264D01*
X72152600Y-97072935D01*
X72146846Y-97014511D01*
X73179528Y-95981829D01*
X73179528Y-97137600D01*
X73191788Y-97262082D01*
X73228098Y-97381780D01*
X73287063Y-97492094D01*
X73366415Y-97588785D01*
X73463106Y-97668137D01*
X73573420Y-97727102D01*
X73693118Y-97763412D01*
X73817600Y-97775672D01*
X75317600Y-97775672D01*
X75442082Y-97763412D01*
X75561780Y-97727102D01*
X75672094Y-97668137D01*
X75768785Y-97588785D01*
X75848137Y-97492094D01*
X75907102Y-97381780D01*
X75917600Y-97347173D01*
X75928098Y-97381780D01*
X75987063Y-97492094D01*
X76066415Y-97588785D01*
X76163106Y-97668137D01*
X76273420Y-97727102D01*
X76393118Y-97763412D01*
X76517600Y-97775672D01*
X78017600Y-97775672D01*
X78142082Y-97763412D01*
X78261780Y-97727102D01*
X78264589Y-97725600D01*
X80179528Y-97725600D01*
X80191788Y-97850082D01*
X80228098Y-97969780D01*
X80287063Y-98080094D01*
X80366415Y-98176785D01*
X80463106Y-98256137D01*
X80573420Y-98315102D01*
X80693118Y-98351412D01*
X80817600Y-98363672D01*
X81131850Y-98360600D01*
X81290600Y-98201850D01*
X81290600Y-97002600D01*
X80341350Y-97002600D01*
X80182600Y-97161350D01*
X80179528Y-97725600D01*
X78264589Y-97725600D01*
X78372094Y-97668137D01*
X78468785Y-97588785D01*
X78548137Y-97492094D01*
X78607102Y-97381780D01*
X78643412Y-97262082D01*
X78655672Y-97137600D01*
X78655672Y-96025600D01*
X80179528Y-96025600D01*
X80182600Y-96589850D01*
X80341350Y-96748600D01*
X81290600Y-96748600D01*
X81290600Y-95549350D01*
X81131850Y-95390600D01*
X80817600Y-95387528D01*
X80693118Y-95399788D01*
X80573420Y-95436098D01*
X80463106Y-95495063D01*
X80366415Y-95574415D01*
X80287063Y-95671106D01*
X80228098Y-95781420D01*
X80191788Y-95901118D01*
X80179528Y-96025600D01*
X78655672Y-96025600D01*
X78655672Y-95837600D01*
X78643412Y-95713118D01*
X78607102Y-95593420D01*
X78548137Y-95483106D01*
X78468785Y-95386415D01*
X78372094Y-95307063D01*
X78261780Y-95248098D01*
X78142082Y-95211788D01*
X78052600Y-95202975D01*
X78052600Y-92839380D01*
X78056397Y-92800827D01*
X78052600Y-92762274D01*
X78052600Y-92762267D01*
X78041241Y-92646941D01*
X78023690Y-92589081D01*
X77996354Y-92498968D01*
X77975012Y-92459040D01*
X77923462Y-92362595D01*
X77825364Y-92243064D01*
X77795415Y-92218485D01*
X77639362Y-92062432D01*
X77639362Y-92035651D01*
X77599588Y-91835692D01*
X77521567Y-91647334D01*
X77408299Y-91477816D01*
X77264136Y-91333653D01*
X77094618Y-91220385D01*
X76906260Y-91142364D01*
X76706301Y-91102590D01*
X76502423Y-91102590D01*
X76302464Y-91142364D01*
X76114106Y-91220385D01*
X75944588Y-91333653D01*
X75800425Y-91477816D01*
X75687157Y-91647334D01*
X75609136Y-91835692D01*
X75569362Y-92035651D01*
X75569362Y-92239529D01*
X75609136Y-92439488D01*
X75687157Y-92627846D01*
X75800425Y-92797364D01*
X75944588Y-92941527D01*
X76114106Y-93054795D01*
X76302464Y-93132816D01*
X76482601Y-93168647D01*
X76482600Y-95202975D01*
X76393118Y-95211788D01*
X76273420Y-95248098D01*
X76163106Y-95307063D01*
X76066415Y-95386415D01*
X75987063Y-95483106D01*
X75928098Y-95593420D01*
X75917600Y-95628027D01*
X75907102Y-95593420D01*
X75848137Y-95483106D01*
X75768785Y-95386415D01*
X75672094Y-95307063D01*
X75561780Y-95248098D01*
X75442082Y-95211788D01*
X75352600Y-95202975D01*
X75352600Y-92526150D01*
X75356397Y-92487597D01*
X75352600Y-92449044D01*
X75352600Y-92449037D01*
X75341241Y-92333711D01*
X75296354Y-92185738D01*
X75223462Y-92049365D01*
X75125364Y-91929834D01*
X75095415Y-91905255D01*
X74159948Y-90969789D01*
X74135365Y-90939835D01*
X74015834Y-90841737D01*
X73879461Y-90768845D01*
X73731488Y-90723958D01*
X73616162Y-90712599D01*
X73616154Y-90712599D01*
X73577601Y-90708802D01*
X73539048Y-90712599D01*
X71802757Y-90712599D01*
X71945405Y-90569951D01*
X71975364Y-90545364D01*
X72073462Y-90425833D01*
X72146354Y-90289460D01*
X72191242Y-90141487D01*
X72200314Y-90049367D01*
X72202600Y-90026161D01*
X72202600Y-90026156D01*
X72206397Y-89987600D01*
X72202600Y-89949044D01*
X72202600Y-89312757D01*
X75742758Y-85772600D01*
X77592443Y-85772600D01*
X78047832Y-86227989D01*
X78020188Y-86319118D01*
X78007928Y-86443600D01*
X78007928Y-87743600D01*
X78020188Y-87868082D01*
X78056498Y-87987780D01*
X78115463Y-88098094D01*
X78194815Y-88194785D01*
X78291506Y-88274137D01*
X78401820Y-88333102D01*
X78521518Y-88369412D01*
X78646000Y-88381672D01*
X80146000Y-88381672D01*
X80270482Y-88369412D01*
X80390180Y-88333102D01*
X80500494Y-88274137D01*
X80597185Y-88194785D01*
X80676537Y-88098094D01*
X80735502Y-87987780D01*
X80746000Y-87953173D01*
X80756498Y-87987780D01*
X80815463Y-88098094D01*
X80894815Y-88194785D01*
X80991506Y-88274137D01*
X81101820Y-88333102D01*
X81221518Y-88369412D01*
X81346000Y-88381672D01*
X82373914Y-88381672D01*
X82632601Y-88640359D01*
X82632600Y-95672184D01*
X82574291Y-95720036D01*
X82548137Y-95671106D01*
X82468785Y-95574415D01*
X82372094Y-95495063D01*
X82261780Y-95436098D01*
X82142082Y-95399788D01*
X82017600Y-95387528D01*
X81703350Y-95390600D01*
X81544600Y-95549350D01*
X81544600Y-96748600D01*
X81564600Y-96748600D01*
X81564600Y-97002600D01*
X81544600Y-97002600D01*
X81544600Y-98201850D01*
X81703350Y-98360600D01*
X82017600Y-98363672D01*
X82142082Y-98351412D01*
X82261780Y-98315102D01*
X82372094Y-98256137D01*
X82468785Y-98176785D01*
X82548137Y-98080094D01*
X82574292Y-98031163D01*
X82728152Y-98157433D01*
X82942700Y-98272111D01*
X83175499Y-98342730D01*
X83417600Y-98366575D01*
X83659702Y-98342730D01*
X83892501Y-98272111D01*
X84107049Y-98157433D01*
X84295102Y-98003102D01*
X84449433Y-97815049D01*
X84564111Y-97600500D01*
X84634730Y-97367701D01*
X84652600Y-97186264D01*
X84652600Y-96564935D01*
X84634730Y-96383498D01*
X84564111Y-96150699D01*
X84449433Y-95936151D01*
X84295102Y-95748098D01*
X84202600Y-95672184D01*
X84202600Y-88353752D01*
X84206397Y-88315199D01*
X84202600Y-88276646D01*
X84202600Y-88276639D01*
X84191241Y-88161313D01*
X84146354Y-88013340D01*
X84073462Y-87876967D01*
X83975364Y-87757436D01*
X83945415Y-87732858D01*
X83484072Y-87271514D01*
X83484072Y-86778599D01*
X84453048Y-86778599D01*
X84491601Y-86782396D01*
X84530154Y-86778599D01*
X84530162Y-86778599D01*
X84645488Y-86767240D01*
X84793461Y-86722353D01*
X84929834Y-86649461D01*
X85049365Y-86551363D01*
X85073948Y-86521409D01*
X85078731Y-86516626D01*
X85126489Y-86531113D01*
X85344650Y-86552600D01*
X85490550Y-86552600D01*
X85708711Y-86531113D01*
X85988634Y-86446199D01*
X86246614Y-86308306D01*
X86472734Y-86122734D01*
X86658306Y-85896614D01*
X86689184Y-85838844D01*
X86860012Y-86067869D01*
X87076245Y-86262778D01*
X87326348Y-86411757D01*
X87600709Y-86509081D01*
X87830600Y-86388414D01*
X87830600Y-85194600D01*
X88084600Y-85194600D01*
X88084600Y-86388414D01*
X88314491Y-86509081D01*
X88588852Y-86411757D01*
X88838955Y-86262778D01*
X89055188Y-86067869D01*
X89229241Y-85834520D01*
X89354425Y-85571699D01*
X89399076Y-85424490D01*
X89277755Y-85194600D01*
X88084600Y-85194600D01*
X87830600Y-85194600D01*
X87810600Y-85194600D01*
X87810600Y-84940600D01*
X87830600Y-84940600D01*
X87830600Y-84920600D01*
X88084600Y-84920600D01*
X88084600Y-84940600D01*
X89277755Y-84940600D01*
X89399076Y-84710710D01*
X89354425Y-84563501D01*
X89229241Y-84300680D01*
X89055188Y-84067331D01*
X88838955Y-83872422D01*
X88722077Y-83802801D01*
X88786614Y-83768306D01*
X89012734Y-83582734D01*
X89198306Y-83356614D01*
X89336199Y-83098634D01*
X89421113Y-82818711D01*
X89449785Y-82527600D01*
X89421113Y-82236489D01*
X89336199Y-81956566D01*
X89198306Y-81698586D01*
X89012734Y-81472466D01*
X88786614Y-81286894D01*
X88731809Y-81257600D01*
X88786614Y-81228306D01*
X89012734Y-81042734D01*
X89198306Y-80816614D01*
X89336199Y-80558634D01*
X89421113Y-80278711D01*
X89449785Y-79987600D01*
X89421113Y-79696489D01*
X89336199Y-79416566D01*
X89198306Y-79158586D01*
X89012734Y-78932466D01*
X88786614Y-78746894D01*
X88528634Y-78609001D01*
X88248711Y-78524087D01*
X88030550Y-78502600D01*
X87884650Y-78502600D01*
X87666489Y-78524087D01*
X87386566Y-78609001D01*
X87128586Y-78746894D01*
X86902466Y-78932466D01*
X86877993Y-78962287D01*
X86857102Y-78893420D01*
X86798137Y-78783106D01*
X86718785Y-78686415D01*
X86696901Y-78668456D01*
X89075412Y-76289945D01*
X89105365Y-76265363D01*
X89203463Y-76145832D01*
X89276355Y-76009459D01*
X89294683Y-75949040D01*
X89321243Y-75861486D01*
X89331351Y-75758846D01*
X89332601Y-75746160D01*
X89332601Y-75746155D01*
X89336398Y-75707599D01*
X89332601Y-75669043D01*
X89332601Y-70346072D01*
X90329200Y-70346072D01*
X90453682Y-70333812D01*
X90573380Y-70297502D01*
X90683694Y-70238537D01*
X90780385Y-70159185D01*
X90859737Y-70062494D01*
X90918702Y-69952180D01*
X90933201Y-69904384D01*
X90933200Y-101172825D01*
X90824466Y-100910318D01*
X90618175Y-100601582D01*
X90355618Y-100339025D01*
X90046882Y-100132734D01*
X89703834Y-99990639D01*
X89339656Y-99918200D01*
X88968344Y-99918200D01*
X88604166Y-99990639D01*
X88261118Y-100132734D01*
X87952382Y-100339025D01*
X87689825Y-100601582D01*
X87483534Y-100910318D01*
X87341439Y-101253366D01*
X87269000Y-101617544D01*
X87269000Y-101988856D01*
X87341439Y-102353034D01*
X87483534Y-102696082D01*
X87689825Y-103004818D01*
X87952382Y-103267375D01*
X88261118Y-103473666D01*
X88523625Y-103582400D01*
X54732375Y-103582400D01*
X54994882Y-103473666D01*
X55303618Y-103267375D01*
X55566175Y-103004818D01*
X55772466Y-102696082D01*
X55914561Y-102353034D01*
X55987000Y-101988856D01*
X55987000Y-101617544D01*
X55914561Y-101253366D01*
X55772466Y-100910318D01*
X55566175Y-100601582D01*
X55303618Y-100339025D01*
X54994882Y-100132734D01*
X54651834Y-99990639D01*
X54287656Y-99918200D01*
X53916344Y-99918200D01*
X53552166Y-99990639D01*
X53209118Y-100132734D01*
X52900382Y-100339025D01*
X52637825Y-100601582D01*
X52431534Y-100910318D01*
X52322800Y-101172825D01*
X52322800Y-57983575D01*
X52431534Y-58246082D01*
X52637825Y-58554818D01*
X52900382Y-58817375D01*
X53209118Y-59023666D01*
X53552166Y-59165761D01*
X53916344Y-59238200D01*
X54287656Y-59238200D01*
X54651834Y-59165761D01*
X54994882Y-59023666D01*
X55303618Y-58817375D01*
X55566175Y-58554818D01*
X55772466Y-58246082D01*
X55914561Y-57903034D01*
X55987000Y-57538856D01*
X55987000Y-57167544D01*
X55914561Y-56803366D01*
X55772466Y-56460318D01*
X55566175Y-56151582D01*
X55303618Y-55889025D01*
X54994882Y-55682734D01*
X54732375Y-55574000D01*
X58971042Y-55574000D01*
X58845514Y-55699528D01*
G36*
X62878098Y-88571780D02*
G01*
X62894455Y-88602382D01*
X62820824Y-88641738D01*
X62701293Y-88739836D01*
X62676712Y-88769788D01*
X59644569Y-91801931D01*
X59580533Y-91647334D01*
X59467265Y-91477816D01*
X59323102Y-91333653D01*
X59153584Y-91220385D01*
X58965226Y-91142364D01*
X58765267Y-91102590D01*
X58561389Y-91102590D01*
X58361430Y-91142364D01*
X58173072Y-91220385D01*
X58003554Y-91333653D01*
X57859391Y-91477816D01*
X57746123Y-91647334D01*
X57702525Y-91752589D01*
X57266370Y-91752589D01*
X57314425Y-91651699D01*
X57359076Y-91504490D01*
X57237755Y-91274600D01*
X56044600Y-91274600D01*
X56044600Y-91294600D01*
X55790600Y-91294600D01*
X55790600Y-91274600D01*
X55770600Y-91274600D01*
X55770600Y-91020600D01*
X55790600Y-91020600D01*
X55790600Y-91000600D01*
X56044600Y-91000600D01*
X56044600Y-91020600D01*
X57237755Y-91020600D01*
X57359076Y-90790710D01*
X57314425Y-90643501D01*
X57189241Y-90380680D01*
X57015188Y-90147331D01*
X56798955Y-89952422D01*
X56682077Y-89882801D01*
X56746614Y-89848306D01*
X56972734Y-89662734D01*
X57158306Y-89436614D01*
X57296199Y-89178634D01*
X57381113Y-88898711D01*
X57409785Y-88607600D01*
X57403383Y-88542601D01*
X62869247Y-88542601D01*
X62878098Y-88571780D01*
X62878098Y-88571780D01*
G37*
X62878098Y-88571780D02*
X62894455Y-88602382D01*
X62820824Y-88641738D01*
X62701293Y-88739836D01*
X62676712Y-88769788D01*
X59644569Y-91801931D01*
X59580533Y-91647334D01*
X59467265Y-91477816D01*
X59323102Y-91333653D01*
X59153584Y-91220385D01*
X58965226Y-91142364D01*
X58765267Y-91102590D01*
X58561389Y-91102590D01*
X58361430Y-91142364D01*
X58173072Y-91220385D01*
X58003554Y-91333653D01*
X57859391Y-91477816D01*
X57746123Y-91647334D01*
X57702525Y-91752589D01*
X57266370Y-91752589D01*
X57314425Y-91651699D01*
X57359076Y-91504490D01*
X57237755Y-91274600D01*
X56044600Y-91274600D01*
X56044600Y-91294600D01*
X55790600Y-91294600D01*
X55790600Y-91274600D01*
X55770600Y-91274600D01*
X55770600Y-91020600D01*
X55790600Y-91020600D01*
X55790600Y-91000600D01*
X56044600Y-91000600D01*
X56044600Y-91020600D01*
X57237755Y-91020600D01*
X57359076Y-90790710D01*
X57314425Y-90643501D01*
X57189241Y-90380680D01*
X57015188Y-90147331D01*
X56798955Y-89952422D01*
X56682077Y-89882801D01*
X56746614Y-89848306D01*
X56972734Y-89662734D01*
X57158306Y-89436614D01*
X57296199Y-89178634D01*
X57381113Y-88898711D01*
X57409785Y-88607600D01*
X57403383Y-88542601D01*
X62869247Y-88542601D01*
X62878098Y-88571780D01*
G36*
X88261118Y-55682734D02*
G01*
X87952382Y-55889025D01*
X87689825Y-56151582D01*
X87483534Y-56460318D01*
X87341439Y-56803366D01*
X87269000Y-57167544D01*
X87269000Y-57538856D01*
X87341439Y-57903034D01*
X87483534Y-58246082D01*
X87689825Y-58554818D01*
X87952382Y-58817375D01*
X88261118Y-59023666D01*
X88604166Y-59165761D01*
X88968344Y-59238200D01*
X89339656Y-59238200D01*
X89703834Y-59165761D01*
X90046882Y-59023666D01*
X90355618Y-58817375D01*
X90618175Y-58554818D01*
X90824466Y-58246082D01*
X90933201Y-57983572D01*
X90933201Y-60191217D01*
X90918702Y-60143420D01*
X90859737Y-60033106D01*
X90780385Y-59936415D01*
X90683694Y-59857063D01*
X90573380Y-59798098D01*
X90453682Y-59761788D01*
X90329200Y-59749528D01*
X89329200Y-59749528D01*
X89204718Y-59761788D01*
X89085020Y-59798098D01*
X88974706Y-59857063D01*
X88878015Y-59936415D01*
X88798663Y-60033106D01*
X88739698Y-60143420D01*
X88703388Y-60263118D01*
X88691128Y-60387600D01*
X88691128Y-60750971D01*
X85995901Y-58055744D01*
X86048137Y-57992094D01*
X86107102Y-57881780D01*
X86143412Y-57762082D01*
X86155672Y-57637600D01*
X86155672Y-56337600D01*
X86143412Y-56213118D01*
X86107102Y-56093420D01*
X86048137Y-55983106D01*
X85968785Y-55886415D01*
X85872094Y-55807063D01*
X85761780Y-55748098D01*
X85642082Y-55711788D01*
X85517600Y-55699528D01*
X84017600Y-55699528D01*
X83893118Y-55711788D01*
X83773420Y-55748098D01*
X83663106Y-55807063D01*
X83566415Y-55886415D01*
X83487063Y-55983106D01*
X83428098Y-56093420D01*
X83417600Y-56128027D01*
X83407102Y-56093420D01*
X83348137Y-55983106D01*
X83268785Y-55886415D01*
X83172094Y-55807063D01*
X83061780Y-55748098D01*
X82942082Y-55711788D01*
X82817600Y-55699528D01*
X81317600Y-55699528D01*
X81193118Y-55711788D01*
X81073420Y-55748098D01*
X80963106Y-55807063D01*
X80866415Y-55886415D01*
X80787063Y-55983106D01*
X80728098Y-56093420D01*
X80694979Y-56202600D01*
X78306887Y-56202600D01*
X78273768Y-56093420D01*
X78214803Y-55983106D01*
X78135451Y-55886415D01*
X78038760Y-55807063D01*
X77928446Y-55748098D01*
X77808748Y-55711788D01*
X77684266Y-55699528D01*
X76184266Y-55699528D01*
X76059784Y-55711788D01*
X75940086Y-55748098D01*
X75829772Y-55807063D01*
X75733081Y-55886415D01*
X75653729Y-55983106D01*
X75594764Y-56093420D01*
X75584266Y-56128027D01*
X75573768Y-56093420D01*
X75514803Y-55983106D01*
X75435451Y-55886415D01*
X75338760Y-55807063D01*
X75228446Y-55748098D01*
X75108748Y-55711788D01*
X74984266Y-55699528D01*
X74520016Y-55702600D01*
X74361266Y-55861350D01*
X74361266Y-56860600D01*
X74381266Y-56860600D01*
X74381266Y-57114600D01*
X74361266Y-57114600D01*
X74361266Y-58113850D01*
X74520016Y-58272600D01*
X74984266Y-58275672D01*
X75108748Y-58263412D01*
X75228446Y-58227102D01*
X75338760Y-58168137D01*
X75435451Y-58088785D01*
X75514803Y-57992094D01*
X75573768Y-57881780D01*
X75584266Y-57847173D01*
X75594764Y-57881780D01*
X75653729Y-57992094D01*
X75733081Y-58088785D01*
X75829772Y-58168137D01*
X75940086Y-58227102D01*
X76059784Y-58263412D01*
X76184266Y-58275672D01*
X77684266Y-58275672D01*
X77808748Y-58263412D01*
X77928446Y-58227102D01*
X78038760Y-58168137D01*
X78135451Y-58088785D01*
X78214803Y-57992094D01*
X78273768Y-57881780D01*
X78306887Y-57772600D01*
X80694979Y-57772600D01*
X80728098Y-57881780D01*
X80787063Y-57992094D01*
X80866415Y-58088785D01*
X80963106Y-58168137D01*
X81073420Y-58227102D01*
X81193118Y-58263412D01*
X81317600Y-58275672D01*
X82817600Y-58275672D01*
X82942082Y-58263412D01*
X83061780Y-58227102D01*
X83172094Y-58168137D01*
X83268785Y-58088785D01*
X83348137Y-57992094D01*
X83407102Y-57881780D01*
X83417600Y-57847173D01*
X83428098Y-57881780D01*
X83487063Y-57992094D01*
X83566415Y-58088785D01*
X83663106Y-58168137D01*
X83773420Y-58227102D01*
X83893118Y-58263412D01*
X84017600Y-58275672D01*
X84058202Y-58275672D01*
X84111738Y-58375832D01*
X84209836Y-58495364D01*
X84239790Y-58519947D01*
X87762602Y-62042759D01*
X87762602Y-63359705D01*
X87432850Y-63223118D01*
X87078332Y-63152600D01*
X86716868Y-63152600D01*
X86362350Y-63223118D01*
X86028401Y-63361444D01*
X85727856Y-63562262D01*
X85472262Y-63817856D01*
X85271444Y-64118401D01*
X85133118Y-64452350D01*
X85062600Y-64806868D01*
X85062600Y-65069468D01*
X84250221Y-65881847D01*
X84129200Y-65869928D01*
X83129200Y-65869928D01*
X83004718Y-65882188D01*
X82885020Y-65918498D01*
X82774706Y-65977463D01*
X82678015Y-66056815D01*
X82598663Y-66153506D01*
X82539698Y-66263820D01*
X82503388Y-66383518D01*
X82491128Y-66508000D01*
X82491128Y-68083439D01*
X82488709Y-68108000D01*
X82491128Y-68132561D01*
X82491128Y-69708000D01*
X82503388Y-69832482D01*
X82539698Y-69952180D01*
X82598663Y-70062494D01*
X82678015Y-70159185D01*
X82774706Y-70238537D01*
X82885020Y-70297502D01*
X83004718Y-70333812D01*
X83129200Y-70346072D01*
X84129200Y-70346072D01*
X84253682Y-70333812D01*
X84373380Y-70297502D01*
X84483694Y-70238537D01*
X84580385Y-70159185D01*
X84659737Y-70062494D01*
X84718702Y-69952180D01*
X84755012Y-69832482D01*
X84767272Y-69708000D01*
X84767272Y-68575059D01*
X86552439Y-66789893D01*
X86716868Y-66822600D01*
X87078332Y-66822600D01*
X87432850Y-66752082D01*
X87762602Y-66615495D01*
X87762601Y-75382442D01*
X84889785Y-78255258D01*
X84859837Y-78279836D01*
X84835259Y-78309784D01*
X84835255Y-78309788D01*
X84812370Y-78337674D01*
X84761739Y-78399367D01*
X84723805Y-78470338D01*
X84708202Y-78499528D01*
X84567600Y-78499528D01*
X84443118Y-78511788D01*
X84323420Y-78548098D01*
X84213106Y-78607063D01*
X84116415Y-78686415D01*
X84037063Y-78783106D01*
X83978098Y-78893420D01*
X83952600Y-78977476D01*
X83952600Y-78885661D01*
X83912826Y-78685702D01*
X83834805Y-78497344D01*
X83721537Y-78327826D01*
X83577374Y-78183663D01*
X83407856Y-78070395D01*
X83219498Y-77992374D01*
X83019539Y-77952600D01*
X82815661Y-77952600D01*
X82615702Y-77992374D01*
X82427344Y-78070395D01*
X82257826Y-78183663D01*
X82113663Y-78327826D01*
X82000395Y-78497344D01*
X81922374Y-78685702D01*
X81882600Y-78885661D01*
X81882600Y-79089539D01*
X81922374Y-79289498D01*
X82000395Y-79477856D01*
X82113663Y-79647374D01*
X82132600Y-79666311D01*
X82132600Y-79989047D01*
X82128803Y-80027600D01*
X82132600Y-80066153D01*
X82132600Y-80066160D01*
X82143959Y-80181486D01*
X82188846Y-80329459D01*
X82261738Y-80465832D01*
X82359836Y-80585364D01*
X82389790Y-80609947D01*
X83968574Y-82188732D01*
X83954087Y-82236489D01*
X83925415Y-82527600D01*
X83954087Y-82818711D01*
X84039001Y-83098634D01*
X84176894Y-83356614D01*
X84362466Y-83582734D01*
X84588586Y-83768306D01*
X84643391Y-83797600D01*
X84588586Y-83826894D01*
X84362466Y-84012466D01*
X84176894Y-84238586D01*
X84039001Y-84496566D01*
X83954087Y-84776489D01*
X83925415Y-85067600D01*
X83939302Y-85208599D01*
X83149890Y-85208599D01*
X83197185Y-85169785D01*
X83276537Y-85073094D01*
X83335502Y-84962780D01*
X83371812Y-84843082D01*
X83384072Y-84718600D01*
X83381000Y-84379350D01*
X83222250Y-84220600D01*
X82123000Y-84220600D01*
X82123000Y-84240600D01*
X81869000Y-84240600D01*
X81869000Y-84220600D01*
X81849000Y-84220600D01*
X81849000Y-83966600D01*
X81869000Y-83966600D01*
X81869000Y-83946600D01*
X82123000Y-83946600D01*
X82123000Y-83966600D01*
X83222250Y-83966600D01*
X83381000Y-83807850D01*
X83384072Y-83468600D01*
X83371812Y-83344118D01*
X83335502Y-83224420D01*
X83276537Y-83114106D01*
X83197185Y-83017415D01*
X83100494Y-82938063D01*
X82990180Y-82879098D01*
X82870482Y-82842788D01*
X82746000Y-82830528D01*
X82594171Y-82831533D01*
X82626537Y-82792094D01*
X82685502Y-82681780D01*
X82721812Y-82562082D01*
X82734072Y-82437600D01*
X82731000Y-82273350D01*
X82572250Y-82114600D01*
X81823000Y-82114600D01*
X81823000Y-82134600D01*
X81569000Y-82134600D01*
X81569000Y-82114600D01*
X81549000Y-82114600D01*
X81549000Y-81860600D01*
X81569000Y-81860600D01*
X81569000Y-81061350D01*
X81823000Y-81061350D01*
X81823000Y-81860600D01*
X82572250Y-81860600D01*
X82731000Y-81701850D01*
X82734072Y-81537600D01*
X82721812Y-81413118D01*
X82685502Y-81293420D01*
X82626537Y-81183106D01*
X82547185Y-81086415D01*
X82450494Y-81007063D01*
X82340180Y-80948098D01*
X82220482Y-80911788D01*
X82096000Y-80899528D01*
X81981750Y-80902600D01*
X81823000Y-81061350D01*
X81569000Y-81061350D01*
X81484393Y-80976743D01*
X81500494Y-80968137D01*
X81597185Y-80888785D01*
X81676537Y-80792094D01*
X81735502Y-80681780D01*
X81771812Y-80562082D01*
X81784072Y-80437600D01*
X81784072Y-79537600D01*
X81771812Y-79413118D01*
X81735502Y-79293420D01*
X81676537Y-79183106D01*
X81597185Y-79086415D01*
X81500494Y-79007063D01*
X81390180Y-78948098D01*
X81270482Y-78911788D01*
X81146000Y-78899528D01*
X80346000Y-78899528D01*
X80221518Y-78911788D01*
X80101820Y-78948098D01*
X79991506Y-79007063D01*
X79894815Y-79086415D01*
X79815463Y-79183106D01*
X79756498Y-79293420D01*
X79720188Y-79413118D01*
X79707928Y-79537600D01*
X79707928Y-80437600D01*
X79720188Y-80562082D01*
X79756498Y-80681780D01*
X79815463Y-80792094D01*
X79894815Y-80888785D01*
X79907905Y-80899528D01*
X79892282Y-80899528D01*
X79006264Y-79967487D01*
X78975364Y-79929836D01*
X78970485Y-79925832D01*
X78923253Y-79887069D01*
X78872289Y-79843039D01*
X78863583Y-79838098D01*
X78855833Y-79831738D01*
X78796369Y-79799954D01*
X78737805Y-79766719D01*
X78728299Y-79763571D01*
X78719460Y-79758846D01*
X78654964Y-79739281D01*
X78591015Y-79718101D01*
X78581074Y-79716867D01*
X78571487Y-79713959D01*
X78504399Y-79707351D01*
X78437561Y-79699056D01*
X78427577Y-79699785D01*
X78417600Y-79698802D01*
X78379039Y-79702600D01*
X76484754Y-79702600D01*
X74852598Y-78070445D01*
X74852598Y-77404753D01*
X75481680Y-76775672D01*
X76367600Y-76775672D01*
X76492082Y-76763412D01*
X76611780Y-76727102D01*
X76722094Y-76668137D01*
X76818785Y-76588785D01*
X76898137Y-76492094D01*
X76957102Y-76381780D01*
X76993412Y-76262082D01*
X77005672Y-76137600D01*
X77005672Y-74837600D01*
X76993412Y-74713118D01*
X76957102Y-74593420D01*
X76898137Y-74483106D01*
X76818785Y-74386415D01*
X76722094Y-74307063D01*
X76611780Y-74248098D01*
X76492082Y-74211788D01*
X76367600Y-74199528D01*
X75539686Y-74199528D01*
X75115184Y-73775026D01*
X75481850Y-73772600D01*
X75640600Y-73613850D01*
X75640600Y-72614600D01*
X75894600Y-72614600D01*
X75894600Y-73613850D01*
X76053350Y-73772600D01*
X76517600Y-73775672D01*
X76642082Y-73763412D01*
X76761780Y-73727102D01*
X76872094Y-73668137D01*
X76968785Y-73588785D01*
X77048137Y-73492094D01*
X77107102Y-73381780D01*
X77143412Y-73262082D01*
X77155672Y-73137600D01*
X77152600Y-72773350D01*
X76993850Y-72614600D01*
X75894600Y-72614600D01*
X75640600Y-72614600D01*
X75620600Y-72614600D01*
X75620600Y-72360600D01*
X75640600Y-72360600D01*
X75640600Y-72340600D01*
X75894600Y-72340600D01*
X75894600Y-72360600D01*
X76993850Y-72360600D01*
X77152600Y-72201850D01*
X77155672Y-71837600D01*
X77143412Y-71713118D01*
X77107102Y-71593420D01*
X77048137Y-71483106D01*
X76968785Y-71386415D01*
X76937770Y-71360961D01*
X79067928Y-69230804D01*
X79067928Y-69587600D01*
X79080188Y-69712082D01*
X79116498Y-69831780D01*
X79175463Y-69942094D01*
X79254815Y-70038785D01*
X79282601Y-70061588D01*
X79282600Y-72043351D01*
X79299023Y-72210098D01*
X79363924Y-72424046D01*
X79381416Y-72456772D01*
X79391788Y-72562082D01*
X79428098Y-72681780D01*
X79487063Y-72792094D01*
X79566415Y-72888785D01*
X79579505Y-72899528D01*
X79067600Y-72899528D01*
X78943118Y-72911788D01*
X78823420Y-72948098D01*
X78713106Y-73007063D01*
X78616415Y-73086415D01*
X78537063Y-73183106D01*
X78478098Y-73293420D01*
X78441788Y-73413118D01*
X78429528Y-73537600D01*
X78429528Y-74437600D01*
X78441788Y-74562082D01*
X78478098Y-74681780D01*
X78537063Y-74792094D01*
X78567804Y-74829552D01*
X78563106Y-74832063D01*
X78466415Y-74911415D01*
X78387063Y-75008106D01*
X78328098Y-75118420D01*
X78291788Y-75238118D01*
X78279528Y-75362600D01*
X78279528Y-76612600D01*
X78284755Y-76665670D01*
X78257826Y-76683663D01*
X78113663Y-76827826D01*
X78000395Y-76997344D01*
X77922374Y-77185702D01*
X77882600Y-77385661D01*
X77882600Y-77589539D01*
X77922374Y-77789498D01*
X78000395Y-77977856D01*
X78113663Y-78147374D01*
X78257826Y-78291537D01*
X78427344Y-78404805D01*
X78615702Y-78482826D01*
X78815661Y-78522600D01*
X79019539Y-78522600D01*
X79219498Y-78482826D01*
X79407856Y-78404805D01*
X79577374Y-78291537D01*
X79721537Y-78147374D01*
X79834805Y-77977856D01*
X79912826Y-77789498D01*
X79940549Y-77650124D01*
X79969460Y-77641354D01*
X80105833Y-77568462D01*
X80225364Y-77470364D01*
X80323462Y-77350833D01*
X80376999Y-77250672D01*
X80417600Y-77250672D01*
X80542082Y-77238412D01*
X80661780Y-77202102D01*
X80772094Y-77143137D01*
X80868785Y-77063785D01*
X80917600Y-77004304D01*
X80966415Y-77063785D01*
X81063106Y-77143137D01*
X81173420Y-77202102D01*
X81293118Y-77238412D01*
X81417600Y-77250672D01*
X81881850Y-77247600D01*
X82040600Y-77088850D01*
X82040600Y-76114600D01*
X82294600Y-76114600D01*
X82294600Y-77088850D01*
X82453350Y-77247600D01*
X82917600Y-77250672D01*
X83042082Y-77238412D01*
X83161780Y-77202102D01*
X83272094Y-77143137D01*
X83368785Y-77063785D01*
X83448137Y-76967094D01*
X83507102Y-76856780D01*
X83543412Y-76737082D01*
X83555672Y-76612600D01*
X83552600Y-76273350D01*
X83393850Y-76114600D01*
X82294600Y-76114600D01*
X82040600Y-76114600D01*
X82020600Y-76114600D01*
X82020600Y-75860600D01*
X82040600Y-75860600D01*
X82040600Y-75840600D01*
X82294600Y-75840600D01*
X82294600Y-75860600D01*
X83393850Y-75860600D01*
X83552600Y-75701850D01*
X83555672Y-75362600D01*
X83543412Y-75238118D01*
X83507102Y-75118420D01*
X83448137Y-75008106D01*
X83368785Y-74911415D01*
X83272094Y-74832063D01*
X83161780Y-74773098D01*
X83042082Y-74736788D01*
X82917600Y-74724528D01*
X82453350Y-74727600D01*
X82294602Y-74886348D01*
X82294602Y-74796401D01*
X82298137Y-74792094D01*
X82357102Y-74681780D01*
X82393412Y-74562082D01*
X82405672Y-74437600D01*
X82402600Y-74273350D01*
X82243850Y-74114600D01*
X81494600Y-74114600D01*
X81494600Y-74134600D01*
X81240600Y-74134600D01*
X81240600Y-74114600D01*
X81220600Y-74114600D01*
X81220600Y-73860600D01*
X81240600Y-73860600D01*
X81240600Y-73061350D01*
X81494600Y-73061350D01*
X81494600Y-73860600D01*
X82243850Y-73860600D01*
X82402600Y-73701850D01*
X82405672Y-73537600D01*
X82393412Y-73413118D01*
X82357102Y-73293420D01*
X82298137Y-73183106D01*
X82218785Y-73086415D01*
X82122094Y-73007063D01*
X82011780Y-72948098D01*
X81892082Y-72911788D01*
X81767600Y-72899528D01*
X81653350Y-72902600D01*
X81494600Y-73061350D01*
X81240600Y-73061350D01*
X81155993Y-72976743D01*
X81172094Y-72968137D01*
X81268785Y-72888785D01*
X81348137Y-72792094D01*
X81407102Y-72681780D01*
X81443412Y-72562082D01*
X81453784Y-72456773D01*
X81471276Y-72424047D01*
X81536177Y-72210099D01*
X81552600Y-72043352D01*
X81552600Y-68254952D01*
X81558091Y-68199200D01*
X81549109Y-68108000D01*
X81536177Y-67976701D01*
X81471276Y-67762753D01*
X81365884Y-67565577D01*
X81344072Y-67538999D01*
X81344072Y-66387600D01*
X81331812Y-66263118D01*
X81295502Y-66143420D01*
X81236537Y-66033106D01*
X81157185Y-65936415D01*
X81060494Y-65857063D01*
X80950180Y-65798098D01*
X80830482Y-65761788D01*
X80706000Y-65749528D01*
X79706000Y-65749528D01*
X79581518Y-65761788D01*
X79461820Y-65798098D01*
X79351506Y-65857063D01*
X79254815Y-65936415D01*
X79175463Y-66033106D01*
X79116498Y-66143420D01*
X79080188Y-66263118D01*
X79067928Y-66387600D01*
X79067928Y-66852600D01*
X78761741Y-66852600D01*
X78705999Y-66847110D01*
X78650257Y-66852600D01*
X78650248Y-66852600D01*
X78483501Y-66869023D01*
X78269553Y-66933924D01*
X78072377Y-67039316D01*
X77899551Y-67181151D01*
X77864009Y-67224459D01*
X75554978Y-69533491D01*
X75144072Y-69533491D01*
X75144072Y-66387600D01*
X75141000Y-66356408D01*
X75141000Y-63618792D01*
X75144072Y-63587600D01*
X75144072Y-61987600D01*
X79065509Y-61987600D01*
X79067928Y-62012161D01*
X79067928Y-63587600D01*
X79080188Y-63712082D01*
X79116498Y-63831780D01*
X79175463Y-63942094D01*
X79254815Y-64038785D01*
X79351506Y-64118137D01*
X79461820Y-64177102D01*
X79581518Y-64213412D01*
X79706000Y-64225672D01*
X80706000Y-64225672D01*
X80830482Y-64213412D01*
X80950180Y-64177102D01*
X81060494Y-64118137D01*
X81157185Y-64038785D01*
X81236537Y-63942094D01*
X81295502Y-63831780D01*
X81331812Y-63712082D01*
X81344072Y-63587600D01*
X81344072Y-63122600D01*
X82491128Y-63122600D01*
X82491128Y-63587600D01*
X82503388Y-63712082D01*
X82539698Y-63831780D01*
X82598663Y-63942094D01*
X82678015Y-64038785D01*
X82774706Y-64118137D01*
X82885020Y-64177102D01*
X83004718Y-64213412D01*
X83129200Y-64225672D01*
X84129200Y-64225672D01*
X84253682Y-64213412D01*
X84373380Y-64177102D01*
X84483694Y-64118137D01*
X84580385Y-64038785D01*
X84659737Y-63942094D01*
X84718702Y-63831780D01*
X84755012Y-63712082D01*
X84767272Y-63587600D01*
X84767272Y-62012161D01*
X84769691Y-61987600D01*
X84767272Y-61963039D01*
X84767272Y-60387600D01*
X84755012Y-60263118D01*
X84718702Y-60143420D01*
X84659737Y-60033106D01*
X84580385Y-59936415D01*
X84483694Y-59857063D01*
X84373380Y-59798098D01*
X84253682Y-59761788D01*
X84129200Y-59749528D01*
X83129200Y-59749528D01*
X83004718Y-59761788D01*
X82885020Y-59798098D01*
X82774706Y-59857063D01*
X82678015Y-59936415D01*
X82598663Y-60033106D01*
X82539698Y-60143420D01*
X82503388Y-60263118D01*
X82491128Y-60387600D01*
X82491128Y-60852600D01*
X81344072Y-60852600D01*
X81344072Y-60387600D01*
X81331812Y-60263118D01*
X81295502Y-60143420D01*
X81236537Y-60033106D01*
X81157185Y-59936415D01*
X81060494Y-59857063D01*
X80950180Y-59798098D01*
X80830482Y-59761788D01*
X80706000Y-59749528D01*
X79706000Y-59749528D01*
X79581518Y-59761788D01*
X79461820Y-59798098D01*
X79351506Y-59857063D01*
X79254815Y-59936415D01*
X79175463Y-60033106D01*
X79116498Y-60143420D01*
X79080188Y-60263118D01*
X79067928Y-60387600D01*
X79067928Y-61963039D01*
X79065509Y-61987600D01*
X75144072Y-61987600D01*
X75144072Y-60387600D01*
X75131812Y-60263118D01*
X75095502Y-60143420D01*
X75036537Y-60033106D01*
X74957185Y-59936415D01*
X74860494Y-59857063D01*
X74750180Y-59798098D01*
X74630482Y-59761788D01*
X74506000Y-59749528D01*
X73506000Y-59749528D01*
X73381518Y-59761788D01*
X73261820Y-59798098D01*
X73151506Y-59857063D01*
X73054815Y-59936415D01*
X72975463Y-60033106D01*
X72916498Y-60143420D01*
X72880188Y-60263118D01*
X72867928Y-60387600D01*
X72867928Y-63587600D01*
X72871000Y-63618794D01*
X72871001Y-66356401D01*
X72867928Y-66387600D01*
X72867928Y-69533491D01*
X69967272Y-69533491D01*
X69967272Y-66407163D01*
X70127271Y-66438989D01*
X70129528Y-66438989D01*
X70129528Y-67587600D01*
X70141788Y-67712082D01*
X70178098Y-67831780D01*
X70237063Y-67942094D01*
X70316415Y-68038785D01*
X70413106Y-68118137D01*
X70443607Y-68134441D01*
X70422374Y-68185702D01*
X70382600Y-68385661D01*
X70382600Y-68589539D01*
X70422374Y-68789498D01*
X70500395Y-68977856D01*
X70613663Y-69147374D01*
X70757826Y-69291537D01*
X70927344Y-69404805D01*
X71115702Y-69482826D01*
X71315661Y-69522600D01*
X71519539Y-69522600D01*
X71719498Y-69482826D01*
X71907856Y-69404805D01*
X72077374Y-69291537D01*
X72221537Y-69147374D01*
X72334805Y-68977856D01*
X72412826Y-68789498D01*
X72452600Y-68589539D01*
X72452600Y-68385661D01*
X72412826Y-68185702D01*
X72391593Y-68134441D01*
X72422094Y-68118137D01*
X72518785Y-68038785D01*
X72598137Y-67942094D01*
X72657102Y-67831780D01*
X72693412Y-67712082D01*
X72705672Y-67587600D01*
X72705672Y-66087600D01*
X72693412Y-65963118D01*
X72657102Y-65843420D01*
X72598137Y-65733106D01*
X72518785Y-65636415D01*
X72422094Y-65557063D01*
X72311780Y-65498098D01*
X72277173Y-65487600D01*
X72311780Y-65477102D01*
X72422094Y-65418137D01*
X72518785Y-65338785D01*
X72598137Y-65242094D01*
X72657102Y-65131780D01*
X72693412Y-65012082D01*
X72705672Y-64887600D01*
X72705672Y-63387600D01*
X72693412Y-63263118D01*
X72657102Y-63143420D01*
X72598137Y-63033106D01*
X72518785Y-62936415D01*
X72422094Y-62857063D01*
X72311780Y-62798098D01*
X72192082Y-62761788D01*
X72067600Y-62749528D01*
X70767600Y-62749528D01*
X70643118Y-62761788D01*
X70523420Y-62798098D01*
X70413106Y-62857063D01*
X70316415Y-62936415D01*
X70237063Y-63033106D01*
X70178098Y-63143420D01*
X70141788Y-63263118D01*
X70129528Y-63387600D01*
X70129528Y-64368989D01*
X70127271Y-64368989D01*
X69964200Y-64401426D01*
X69964200Y-63618792D01*
X69967272Y-63587600D01*
X69967272Y-60387600D01*
X69955012Y-60263118D01*
X69918702Y-60143420D01*
X69859737Y-60033106D01*
X69780385Y-59936415D01*
X69683694Y-59857063D01*
X69573380Y-59798098D01*
X69453682Y-59761788D01*
X69329200Y-59749528D01*
X68329200Y-59749528D01*
X68204718Y-59761788D01*
X68085020Y-59798098D01*
X67974706Y-59857063D01*
X67878015Y-59936415D01*
X67798663Y-60033106D01*
X67739698Y-60143420D01*
X67703388Y-60263118D01*
X67691128Y-60387600D01*
X67691128Y-63587600D01*
X67694201Y-63618799D01*
X67694200Y-66356406D01*
X67691128Y-66387600D01*
X67691128Y-69533491D01*
X65068623Y-69533491D01*
X63767272Y-68232141D01*
X63767272Y-66723761D01*
X63769691Y-66699200D01*
X63767272Y-66674639D01*
X63767272Y-66387600D01*
X63755012Y-66263118D01*
X63718702Y-66143420D01*
X63659737Y-66033106D01*
X63580385Y-65936415D01*
X63483694Y-65857063D01*
X63373380Y-65798098D01*
X63315747Y-65780615D01*
X61759596Y-64224465D01*
X61724049Y-64181151D01*
X61551223Y-64039316D01*
X61354047Y-63933924D01*
X61140099Y-63869023D01*
X60973352Y-63852600D01*
X60973351Y-63852600D01*
X60917600Y-63847109D01*
X60861849Y-63852600D01*
X60784373Y-63852600D01*
X60795502Y-63831780D01*
X60831812Y-63712082D01*
X60844072Y-63587600D01*
X60844072Y-63002200D01*
X61491128Y-63002200D01*
X61491128Y-63587600D01*
X61503388Y-63712082D01*
X61539698Y-63831780D01*
X61598663Y-63942094D01*
X61678015Y-64038785D01*
X61774706Y-64118137D01*
X61885020Y-64177102D01*
X62004718Y-64213412D01*
X62129200Y-64225672D01*
X63129200Y-64225672D01*
X63253682Y-64213412D01*
X63373380Y-64177102D01*
X63483694Y-64118137D01*
X63580385Y-64038785D01*
X63659737Y-63942094D01*
X63718702Y-63831780D01*
X63755012Y-63712082D01*
X63767272Y-63587600D01*
X63767272Y-61891761D01*
X63769691Y-61867200D01*
X63767272Y-61842639D01*
X63767272Y-60387600D01*
X63755012Y-60263118D01*
X63718702Y-60143420D01*
X63659737Y-60033106D01*
X63580385Y-59936415D01*
X63483694Y-59857063D01*
X63373380Y-59798098D01*
X63253682Y-59761788D01*
X63129200Y-59749528D01*
X62129200Y-59749528D01*
X62004718Y-59761788D01*
X61885020Y-59798098D01*
X61774706Y-59857063D01*
X61678015Y-59936415D01*
X61598663Y-60033106D01*
X61539698Y-60143420D01*
X61503388Y-60263118D01*
X61491128Y-60387600D01*
X61491128Y-60732200D01*
X60844072Y-60732200D01*
X60844072Y-60387600D01*
X60831812Y-60263118D01*
X60795502Y-60143420D01*
X60736537Y-60033106D01*
X60657185Y-59936415D01*
X60560494Y-59857063D01*
X60450180Y-59798098D01*
X60330482Y-59761788D01*
X60206000Y-59749528D01*
X59360100Y-59749528D01*
X59469460Y-59716354D01*
X59605833Y-59643462D01*
X59725364Y-59545364D01*
X59749947Y-59515410D01*
X60989686Y-58275672D01*
X62017600Y-58275672D01*
X62142082Y-58263412D01*
X62261780Y-58227102D01*
X62372094Y-58168137D01*
X62468785Y-58088785D01*
X62548137Y-57992094D01*
X62607102Y-57881780D01*
X62643412Y-57762082D01*
X62655672Y-57637600D01*
X62655672Y-56672599D01*
X63925775Y-56672599D01*
X64768588Y-57515413D01*
X64793169Y-57545364D01*
X64823117Y-57569942D01*
X64823120Y-57569945D01*
X64843429Y-57586612D01*
X64912700Y-57643462D01*
X65019036Y-57700299D01*
X65025121Y-57762082D01*
X65061431Y-57881780D01*
X65120396Y-57992094D01*
X65199748Y-58088785D01*
X65296439Y-58168137D01*
X65406753Y-58227102D01*
X65526451Y-58263412D01*
X65650933Y-58275672D01*
X67150933Y-58275672D01*
X67275415Y-58263412D01*
X67395113Y-58227102D01*
X67505427Y-58168137D01*
X67602118Y-58088785D01*
X67681470Y-57992094D01*
X67740435Y-57881780D01*
X67750933Y-57847173D01*
X67761431Y-57881780D01*
X67820396Y-57992094D01*
X67899748Y-58088785D01*
X67996439Y-58168137D01*
X68106753Y-58227102D01*
X68226451Y-58263412D01*
X68350933Y-58275672D01*
X68815183Y-58272600D01*
X68973933Y-58113850D01*
X68973933Y-57114600D01*
X69227933Y-57114600D01*
X69227933Y-58113850D01*
X69386683Y-58272600D01*
X69850933Y-58275672D01*
X69975415Y-58263412D01*
X70095113Y-58227102D01*
X70205427Y-58168137D01*
X70302118Y-58088785D01*
X70381470Y-57992094D01*
X70440435Y-57881780D01*
X70476745Y-57762082D01*
X70489005Y-57637600D01*
X72846194Y-57637600D01*
X72858454Y-57762082D01*
X72894764Y-57881780D01*
X72953729Y-57992094D01*
X73033081Y-58088785D01*
X73129772Y-58168137D01*
X73240086Y-58227102D01*
X73359784Y-58263412D01*
X73484266Y-58275672D01*
X73948516Y-58272600D01*
X74107266Y-58113850D01*
X74107266Y-57114600D01*
X73008016Y-57114600D01*
X72849266Y-57273350D01*
X72846194Y-57637600D01*
X70489005Y-57637600D01*
X70485933Y-57273350D01*
X70327183Y-57114600D01*
X69227933Y-57114600D01*
X68973933Y-57114600D01*
X68953933Y-57114600D01*
X68953933Y-56860600D01*
X68973933Y-56860600D01*
X68973933Y-55861350D01*
X69227933Y-55861350D01*
X69227933Y-56860600D01*
X70327183Y-56860600D01*
X70485933Y-56701850D01*
X70489005Y-56337600D01*
X72846194Y-56337600D01*
X72849266Y-56701850D01*
X73008016Y-56860600D01*
X74107266Y-56860600D01*
X74107266Y-55861350D01*
X73948516Y-55702600D01*
X73484266Y-55699528D01*
X73359784Y-55711788D01*
X73240086Y-55748098D01*
X73129772Y-55807063D01*
X73033081Y-55886415D01*
X72953729Y-55983106D01*
X72894764Y-56093420D01*
X72858454Y-56213118D01*
X72846194Y-56337600D01*
X70489005Y-56337600D01*
X70476745Y-56213118D01*
X70440435Y-56093420D01*
X70381470Y-55983106D01*
X70302118Y-55886415D01*
X70205427Y-55807063D01*
X70095113Y-55748098D01*
X69975415Y-55711788D01*
X69850933Y-55699528D01*
X69386683Y-55702600D01*
X69227933Y-55861350D01*
X68973933Y-55861350D01*
X68815183Y-55702600D01*
X68350933Y-55699528D01*
X68226451Y-55711788D01*
X68106753Y-55748098D01*
X67996439Y-55807063D01*
X67899748Y-55886415D01*
X67820396Y-55983106D01*
X67761431Y-56093420D01*
X67750933Y-56128027D01*
X67740435Y-56093420D01*
X67681470Y-55983106D01*
X67602118Y-55886415D01*
X67505427Y-55807063D01*
X67395113Y-55748098D01*
X67275415Y-55711788D01*
X67150933Y-55699528D01*
X65650933Y-55699528D01*
X65526451Y-55711788D01*
X65406753Y-55748098D01*
X65296439Y-55807063D01*
X65287714Y-55814223D01*
X65047490Y-55574000D01*
X88523625Y-55574000D01*
X88261118Y-55682734D01*
X88261118Y-55682734D01*
G37*
X88261118Y-55682734D02*
X87952382Y-55889025D01*
X87689825Y-56151582D01*
X87483534Y-56460318D01*
X87341439Y-56803366D01*
X87269000Y-57167544D01*
X87269000Y-57538856D01*
X87341439Y-57903034D01*
X87483534Y-58246082D01*
X87689825Y-58554818D01*
X87952382Y-58817375D01*
X88261118Y-59023666D01*
X88604166Y-59165761D01*
X88968344Y-59238200D01*
X89339656Y-59238200D01*
X89703834Y-59165761D01*
X90046882Y-59023666D01*
X90355618Y-58817375D01*
X90618175Y-58554818D01*
X90824466Y-58246082D01*
X90933201Y-57983572D01*
X90933201Y-60191217D01*
X90918702Y-60143420D01*
X90859737Y-60033106D01*
X90780385Y-59936415D01*
X90683694Y-59857063D01*
X90573380Y-59798098D01*
X90453682Y-59761788D01*
X90329200Y-59749528D01*
X89329200Y-59749528D01*
X89204718Y-59761788D01*
X89085020Y-59798098D01*
X88974706Y-59857063D01*
X88878015Y-59936415D01*
X88798663Y-60033106D01*
X88739698Y-60143420D01*
X88703388Y-60263118D01*
X88691128Y-60387600D01*
X88691128Y-60750971D01*
X85995901Y-58055744D01*
X86048137Y-57992094D01*
X86107102Y-57881780D01*
X86143412Y-57762082D01*
X86155672Y-57637600D01*
X86155672Y-56337600D01*
X86143412Y-56213118D01*
X86107102Y-56093420D01*
X86048137Y-55983106D01*
X85968785Y-55886415D01*
X85872094Y-55807063D01*
X85761780Y-55748098D01*
X85642082Y-55711788D01*
X85517600Y-55699528D01*
X84017600Y-55699528D01*
X83893118Y-55711788D01*
X83773420Y-55748098D01*
X83663106Y-55807063D01*
X83566415Y-55886415D01*
X83487063Y-55983106D01*
X83428098Y-56093420D01*
X83417600Y-56128027D01*
X83407102Y-56093420D01*
X83348137Y-55983106D01*
X83268785Y-55886415D01*
X83172094Y-55807063D01*
X83061780Y-55748098D01*
X82942082Y-55711788D01*
X82817600Y-55699528D01*
X81317600Y-55699528D01*
X81193118Y-55711788D01*
X81073420Y-55748098D01*
X80963106Y-55807063D01*
X80866415Y-55886415D01*
X80787063Y-55983106D01*
X80728098Y-56093420D01*
X80694979Y-56202600D01*
X78306887Y-56202600D01*
X78273768Y-56093420D01*
X78214803Y-55983106D01*
X78135451Y-55886415D01*
X78038760Y-55807063D01*
X77928446Y-55748098D01*
X77808748Y-55711788D01*
X77684266Y-55699528D01*
X76184266Y-55699528D01*
X76059784Y-55711788D01*
X75940086Y-55748098D01*
X75829772Y-55807063D01*
X75733081Y-55886415D01*
X75653729Y-55983106D01*
X75594764Y-56093420D01*
X75584266Y-56128027D01*
X75573768Y-56093420D01*
X75514803Y-55983106D01*
X75435451Y-55886415D01*
X75338760Y-55807063D01*
X75228446Y-55748098D01*
X75108748Y-55711788D01*
X74984266Y-55699528D01*
X74520016Y-55702600D01*
X74361266Y-55861350D01*
X74361266Y-56860600D01*
X74381266Y-56860600D01*
X74381266Y-57114600D01*
X74361266Y-57114600D01*
X74361266Y-58113850D01*
X74520016Y-58272600D01*
X74984266Y-58275672D01*
X75108748Y-58263412D01*
X75228446Y-58227102D01*
X75338760Y-58168137D01*
X75435451Y-58088785D01*
X75514803Y-57992094D01*
X75573768Y-57881780D01*
X75584266Y-57847173D01*
X75594764Y-57881780D01*
X75653729Y-57992094D01*
X75733081Y-58088785D01*
X75829772Y-58168137D01*
X75940086Y-58227102D01*
X76059784Y-58263412D01*
X76184266Y-58275672D01*
X77684266Y-58275672D01*
X77808748Y-58263412D01*
X77928446Y-58227102D01*
X78038760Y-58168137D01*
X78135451Y-58088785D01*
X78214803Y-57992094D01*
X78273768Y-57881780D01*
X78306887Y-57772600D01*
X80694979Y-57772600D01*
X80728098Y-57881780D01*
X80787063Y-57992094D01*
X80866415Y-58088785D01*
X80963106Y-58168137D01*
X81073420Y-58227102D01*
X81193118Y-58263412D01*
X81317600Y-58275672D01*
X82817600Y-58275672D01*
X82942082Y-58263412D01*
X83061780Y-58227102D01*
X83172094Y-58168137D01*
X83268785Y-58088785D01*
X83348137Y-57992094D01*
X83407102Y-57881780D01*
X83417600Y-57847173D01*
X83428098Y-57881780D01*
X83487063Y-57992094D01*
X83566415Y-58088785D01*
X83663106Y-58168137D01*
X83773420Y-58227102D01*
X83893118Y-58263412D01*
X84017600Y-58275672D01*
X84058202Y-58275672D01*
X84111738Y-58375832D01*
X84209836Y-58495364D01*
X84239790Y-58519947D01*
X87762602Y-62042759D01*
X87762602Y-63359705D01*
X87432850Y-63223118D01*
X87078332Y-63152600D01*
X86716868Y-63152600D01*
X86362350Y-63223118D01*
X86028401Y-63361444D01*
X85727856Y-63562262D01*
X85472262Y-63817856D01*
X85271444Y-64118401D01*
X85133118Y-64452350D01*
X85062600Y-64806868D01*
X85062600Y-65069468D01*
X84250221Y-65881847D01*
X84129200Y-65869928D01*
X83129200Y-65869928D01*
X83004718Y-65882188D01*
X82885020Y-65918498D01*
X82774706Y-65977463D01*
X82678015Y-66056815D01*
X82598663Y-66153506D01*
X82539698Y-66263820D01*
X82503388Y-66383518D01*
X82491128Y-66508000D01*
X82491128Y-68083439D01*
X82488709Y-68108000D01*
X82491128Y-68132561D01*
X82491128Y-69708000D01*
X82503388Y-69832482D01*
X82539698Y-69952180D01*
X82598663Y-70062494D01*
X82678015Y-70159185D01*
X82774706Y-70238537D01*
X82885020Y-70297502D01*
X83004718Y-70333812D01*
X83129200Y-70346072D01*
X84129200Y-70346072D01*
X84253682Y-70333812D01*
X84373380Y-70297502D01*
X84483694Y-70238537D01*
X84580385Y-70159185D01*
X84659737Y-70062494D01*
X84718702Y-69952180D01*
X84755012Y-69832482D01*
X84767272Y-69708000D01*
X84767272Y-68575059D01*
X86552439Y-66789893D01*
X86716868Y-66822600D01*
X87078332Y-66822600D01*
X87432850Y-66752082D01*
X87762602Y-66615495D01*
X87762601Y-75382442D01*
X84889785Y-78255258D01*
X84859837Y-78279836D01*
X84835259Y-78309784D01*
X84835255Y-78309788D01*
X84812370Y-78337674D01*
X84761739Y-78399367D01*
X84723805Y-78470338D01*
X84708202Y-78499528D01*
X84567600Y-78499528D01*
X84443118Y-78511788D01*
X84323420Y-78548098D01*
X84213106Y-78607063D01*
X84116415Y-78686415D01*
X84037063Y-78783106D01*
X83978098Y-78893420D01*
X83952600Y-78977476D01*
X83952600Y-78885661D01*
X83912826Y-78685702D01*
X83834805Y-78497344D01*
X83721537Y-78327826D01*
X83577374Y-78183663D01*
X83407856Y-78070395D01*
X83219498Y-77992374D01*
X83019539Y-77952600D01*
X82815661Y-77952600D01*
X82615702Y-77992374D01*
X82427344Y-78070395D01*
X82257826Y-78183663D01*
X82113663Y-78327826D01*
X82000395Y-78497344D01*
X81922374Y-78685702D01*
X81882600Y-78885661D01*
X81882600Y-79089539D01*
X81922374Y-79289498D01*
X82000395Y-79477856D01*
X82113663Y-79647374D01*
X82132600Y-79666311D01*
X82132600Y-79989047D01*
X82128803Y-80027600D01*
X82132600Y-80066153D01*
X82132600Y-80066160D01*
X82143959Y-80181486D01*
X82188846Y-80329459D01*
X82261738Y-80465832D01*
X82359836Y-80585364D01*
X82389790Y-80609947D01*
X83968574Y-82188732D01*
X83954087Y-82236489D01*
X83925415Y-82527600D01*
X83954087Y-82818711D01*
X84039001Y-83098634D01*
X84176894Y-83356614D01*
X84362466Y-83582734D01*
X84588586Y-83768306D01*
X84643391Y-83797600D01*
X84588586Y-83826894D01*
X84362466Y-84012466D01*
X84176894Y-84238586D01*
X84039001Y-84496566D01*
X83954087Y-84776489D01*
X83925415Y-85067600D01*
X83939302Y-85208599D01*
X83149890Y-85208599D01*
X83197185Y-85169785D01*
X83276537Y-85073094D01*
X83335502Y-84962780D01*
X83371812Y-84843082D01*
X83384072Y-84718600D01*
X83381000Y-84379350D01*
X83222250Y-84220600D01*
X82123000Y-84220600D01*
X82123000Y-84240600D01*
X81869000Y-84240600D01*
X81869000Y-84220600D01*
X81849000Y-84220600D01*
X81849000Y-83966600D01*
X81869000Y-83966600D01*
X81869000Y-83946600D01*
X82123000Y-83946600D01*
X82123000Y-83966600D01*
X83222250Y-83966600D01*
X83381000Y-83807850D01*
X83384072Y-83468600D01*
X83371812Y-83344118D01*
X83335502Y-83224420D01*
X83276537Y-83114106D01*
X83197185Y-83017415D01*
X83100494Y-82938063D01*
X82990180Y-82879098D01*
X82870482Y-82842788D01*
X82746000Y-82830528D01*
X82594171Y-82831533D01*
X82626537Y-82792094D01*
X82685502Y-82681780D01*
X82721812Y-82562082D01*
X82734072Y-82437600D01*
X82731000Y-82273350D01*
X82572250Y-82114600D01*
X81823000Y-82114600D01*
X81823000Y-82134600D01*
X81569000Y-82134600D01*
X81569000Y-82114600D01*
X81549000Y-82114600D01*
X81549000Y-81860600D01*
X81569000Y-81860600D01*
X81569000Y-81061350D01*
X81823000Y-81061350D01*
X81823000Y-81860600D01*
X82572250Y-81860600D01*
X82731000Y-81701850D01*
X82734072Y-81537600D01*
X82721812Y-81413118D01*
X82685502Y-81293420D01*
X82626537Y-81183106D01*
X82547185Y-81086415D01*
X82450494Y-81007063D01*
X82340180Y-80948098D01*
X82220482Y-80911788D01*
X82096000Y-80899528D01*
X81981750Y-80902600D01*
X81823000Y-81061350D01*
X81569000Y-81061350D01*
X81484393Y-80976743D01*
X81500494Y-80968137D01*
X81597185Y-80888785D01*
X81676537Y-80792094D01*
X81735502Y-80681780D01*
X81771812Y-80562082D01*
X81784072Y-80437600D01*
X81784072Y-79537600D01*
X81771812Y-79413118D01*
X81735502Y-79293420D01*
X81676537Y-79183106D01*
X81597185Y-79086415D01*
X81500494Y-79007063D01*
X81390180Y-78948098D01*
X81270482Y-78911788D01*
X81146000Y-78899528D01*
X80346000Y-78899528D01*
X80221518Y-78911788D01*
X80101820Y-78948098D01*
X79991506Y-79007063D01*
X79894815Y-79086415D01*
X79815463Y-79183106D01*
X79756498Y-79293420D01*
X79720188Y-79413118D01*
X79707928Y-79537600D01*
X79707928Y-80437600D01*
X79720188Y-80562082D01*
X79756498Y-80681780D01*
X79815463Y-80792094D01*
X79894815Y-80888785D01*
X79907905Y-80899528D01*
X79892282Y-80899528D01*
X79006264Y-79967487D01*
X78975364Y-79929836D01*
X78970485Y-79925832D01*
X78923253Y-79887069D01*
X78872289Y-79843039D01*
X78863583Y-79838098D01*
X78855833Y-79831738D01*
X78796369Y-79799954D01*
X78737805Y-79766719D01*
X78728299Y-79763571D01*
X78719460Y-79758846D01*
X78654964Y-79739281D01*
X78591015Y-79718101D01*
X78581074Y-79716867D01*
X78571487Y-79713959D01*
X78504399Y-79707351D01*
X78437561Y-79699056D01*
X78427577Y-79699785D01*
X78417600Y-79698802D01*
X78379039Y-79702600D01*
X76484754Y-79702600D01*
X74852598Y-78070445D01*
X74852598Y-77404753D01*
X75481680Y-76775672D01*
X76367600Y-76775672D01*
X76492082Y-76763412D01*
X76611780Y-76727102D01*
X76722094Y-76668137D01*
X76818785Y-76588785D01*
X76898137Y-76492094D01*
X76957102Y-76381780D01*
X76993412Y-76262082D01*
X77005672Y-76137600D01*
X77005672Y-74837600D01*
X76993412Y-74713118D01*
X76957102Y-74593420D01*
X76898137Y-74483106D01*
X76818785Y-74386415D01*
X76722094Y-74307063D01*
X76611780Y-74248098D01*
X76492082Y-74211788D01*
X76367600Y-74199528D01*
X75539686Y-74199528D01*
X75115184Y-73775026D01*
X75481850Y-73772600D01*
X75640600Y-73613850D01*
X75640600Y-72614600D01*
X75894600Y-72614600D01*
X75894600Y-73613850D01*
X76053350Y-73772600D01*
X76517600Y-73775672D01*
X76642082Y-73763412D01*
X76761780Y-73727102D01*
X76872094Y-73668137D01*
X76968785Y-73588785D01*
X77048137Y-73492094D01*
X77107102Y-73381780D01*
X77143412Y-73262082D01*
X77155672Y-73137600D01*
X77152600Y-72773350D01*
X76993850Y-72614600D01*
X75894600Y-72614600D01*
X75640600Y-72614600D01*
X75620600Y-72614600D01*
X75620600Y-72360600D01*
X75640600Y-72360600D01*
X75640600Y-72340600D01*
X75894600Y-72340600D01*
X75894600Y-72360600D01*
X76993850Y-72360600D01*
X77152600Y-72201850D01*
X77155672Y-71837600D01*
X77143412Y-71713118D01*
X77107102Y-71593420D01*
X77048137Y-71483106D01*
X76968785Y-71386415D01*
X76937770Y-71360961D01*
X79067928Y-69230804D01*
X79067928Y-69587600D01*
X79080188Y-69712082D01*
X79116498Y-69831780D01*
X79175463Y-69942094D01*
X79254815Y-70038785D01*
X79282601Y-70061588D01*
X79282600Y-72043351D01*
X79299023Y-72210098D01*
X79363924Y-72424046D01*
X79381416Y-72456772D01*
X79391788Y-72562082D01*
X79428098Y-72681780D01*
X79487063Y-72792094D01*
X79566415Y-72888785D01*
X79579505Y-72899528D01*
X79067600Y-72899528D01*
X78943118Y-72911788D01*
X78823420Y-72948098D01*
X78713106Y-73007063D01*
X78616415Y-73086415D01*
X78537063Y-73183106D01*
X78478098Y-73293420D01*
X78441788Y-73413118D01*
X78429528Y-73537600D01*
X78429528Y-74437600D01*
X78441788Y-74562082D01*
X78478098Y-74681780D01*
X78537063Y-74792094D01*
X78567804Y-74829552D01*
X78563106Y-74832063D01*
X78466415Y-74911415D01*
X78387063Y-75008106D01*
X78328098Y-75118420D01*
X78291788Y-75238118D01*
X78279528Y-75362600D01*
X78279528Y-76612600D01*
X78284755Y-76665670D01*
X78257826Y-76683663D01*
X78113663Y-76827826D01*
X78000395Y-76997344D01*
X77922374Y-77185702D01*
X77882600Y-77385661D01*
X77882600Y-77589539D01*
X77922374Y-77789498D01*
X78000395Y-77977856D01*
X78113663Y-78147374D01*
X78257826Y-78291537D01*
X78427344Y-78404805D01*
X78615702Y-78482826D01*
X78815661Y-78522600D01*
X79019539Y-78522600D01*
X79219498Y-78482826D01*
X79407856Y-78404805D01*
X79577374Y-78291537D01*
X79721537Y-78147374D01*
X79834805Y-77977856D01*
X79912826Y-77789498D01*
X79940549Y-77650124D01*
X79969460Y-77641354D01*
X80105833Y-77568462D01*
X80225364Y-77470364D01*
X80323462Y-77350833D01*
X80376999Y-77250672D01*
X80417600Y-77250672D01*
X80542082Y-77238412D01*
X80661780Y-77202102D01*
X80772094Y-77143137D01*
X80868785Y-77063785D01*
X80917600Y-77004304D01*
X80966415Y-77063785D01*
X81063106Y-77143137D01*
X81173420Y-77202102D01*
X81293118Y-77238412D01*
X81417600Y-77250672D01*
X81881850Y-77247600D01*
X82040600Y-77088850D01*
X82040600Y-76114600D01*
X82294600Y-76114600D01*
X82294600Y-77088850D01*
X82453350Y-77247600D01*
X82917600Y-77250672D01*
X83042082Y-77238412D01*
X83161780Y-77202102D01*
X83272094Y-77143137D01*
X83368785Y-77063785D01*
X83448137Y-76967094D01*
X83507102Y-76856780D01*
X83543412Y-76737082D01*
X83555672Y-76612600D01*
X83552600Y-76273350D01*
X83393850Y-76114600D01*
X82294600Y-76114600D01*
X82040600Y-76114600D01*
X82020600Y-76114600D01*
X82020600Y-75860600D01*
X82040600Y-75860600D01*
X82040600Y-75840600D01*
X82294600Y-75840600D01*
X82294600Y-75860600D01*
X83393850Y-75860600D01*
X83552600Y-75701850D01*
X83555672Y-75362600D01*
X83543412Y-75238118D01*
X83507102Y-75118420D01*
X83448137Y-75008106D01*
X83368785Y-74911415D01*
X83272094Y-74832063D01*
X83161780Y-74773098D01*
X83042082Y-74736788D01*
X82917600Y-74724528D01*
X82453350Y-74727600D01*
X82294602Y-74886348D01*
X82294602Y-74796401D01*
X82298137Y-74792094D01*
X82357102Y-74681780D01*
X82393412Y-74562082D01*
X82405672Y-74437600D01*
X82402600Y-74273350D01*
X82243850Y-74114600D01*
X81494600Y-74114600D01*
X81494600Y-74134600D01*
X81240600Y-74134600D01*
X81240600Y-74114600D01*
X81220600Y-74114600D01*
X81220600Y-73860600D01*
X81240600Y-73860600D01*
X81240600Y-73061350D01*
X81494600Y-73061350D01*
X81494600Y-73860600D01*
X82243850Y-73860600D01*
X82402600Y-73701850D01*
X82405672Y-73537600D01*
X82393412Y-73413118D01*
X82357102Y-73293420D01*
X82298137Y-73183106D01*
X82218785Y-73086415D01*
X82122094Y-73007063D01*
X82011780Y-72948098D01*
X81892082Y-72911788D01*
X81767600Y-72899528D01*
X81653350Y-72902600D01*
X81494600Y-73061350D01*
X81240600Y-73061350D01*
X81155993Y-72976743D01*
X81172094Y-72968137D01*
X81268785Y-72888785D01*
X81348137Y-72792094D01*
X81407102Y-72681780D01*
X81443412Y-72562082D01*
X81453784Y-72456773D01*
X81471276Y-72424047D01*
X81536177Y-72210099D01*
X81552600Y-72043352D01*
X81552600Y-68254952D01*
X81558091Y-68199200D01*
X81549109Y-68108000D01*
X81536177Y-67976701D01*
X81471276Y-67762753D01*
X81365884Y-67565577D01*
X81344072Y-67538999D01*
X81344072Y-66387600D01*
X81331812Y-66263118D01*
X81295502Y-66143420D01*
X81236537Y-66033106D01*
X81157185Y-65936415D01*
X81060494Y-65857063D01*
X80950180Y-65798098D01*
X80830482Y-65761788D01*
X80706000Y-65749528D01*
X79706000Y-65749528D01*
X79581518Y-65761788D01*
X79461820Y-65798098D01*
X79351506Y-65857063D01*
X79254815Y-65936415D01*
X79175463Y-66033106D01*
X79116498Y-66143420D01*
X79080188Y-66263118D01*
X79067928Y-66387600D01*
X79067928Y-66852600D01*
X78761741Y-66852600D01*
X78705999Y-66847110D01*
X78650257Y-66852600D01*
X78650248Y-66852600D01*
X78483501Y-66869023D01*
X78269553Y-66933924D01*
X78072377Y-67039316D01*
X77899551Y-67181151D01*
X77864009Y-67224459D01*
X75554978Y-69533491D01*
X75144072Y-69533491D01*
X75144072Y-66387600D01*
X75141000Y-66356408D01*
X75141000Y-63618792D01*
X75144072Y-63587600D01*
X75144072Y-61987600D01*
X79065509Y-61987600D01*
X79067928Y-62012161D01*
X79067928Y-63587600D01*
X79080188Y-63712082D01*
X79116498Y-63831780D01*
X79175463Y-63942094D01*
X79254815Y-64038785D01*
X79351506Y-64118137D01*
X79461820Y-64177102D01*
X79581518Y-64213412D01*
X79706000Y-64225672D01*
X80706000Y-64225672D01*
X80830482Y-64213412D01*
X80950180Y-64177102D01*
X81060494Y-64118137D01*
X81157185Y-64038785D01*
X81236537Y-63942094D01*
X81295502Y-63831780D01*
X81331812Y-63712082D01*
X81344072Y-63587600D01*
X81344072Y-63122600D01*
X82491128Y-63122600D01*
X82491128Y-63587600D01*
X82503388Y-63712082D01*
X82539698Y-63831780D01*
X82598663Y-63942094D01*
X82678015Y-64038785D01*
X82774706Y-64118137D01*
X82885020Y-64177102D01*
X83004718Y-64213412D01*
X83129200Y-64225672D01*
X84129200Y-64225672D01*
X84253682Y-64213412D01*
X84373380Y-64177102D01*
X84483694Y-64118137D01*
X84580385Y-64038785D01*
X84659737Y-63942094D01*
X84718702Y-63831780D01*
X84755012Y-63712082D01*
X84767272Y-63587600D01*
X84767272Y-62012161D01*
X84769691Y-61987600D01*
X84767272Y-61963039D01*
X84767272Y-60387600D01*
X84755012Y-60263118D01*
X84718702Y-60143420D01*
X84659737Y-60033106D01*
X84580385Y-59936415D01*
X84483694Y-59857063D01*
X84373380Y-59798098D01*
X84253682Y-59761788D01*
X84129200Y-59749528D01*
X83129200Y-59749528D01*
X83004718Y-59761788D01*
X82885020Y-59798098D01*
X82774706Y-59857063D01*
X82678015Y-59936415D01*
X82598663Y-60033106D01*
X82539698Y-60143420D01*
X82503388Y-60263118D01*
X82491128Y-60387600D01*
X82491128Y-60852600D01*
X81344072Y-60852600D01*
X81344072Y-60387600D01*
X81331812Y-60263118D01*
X81295502Y-60143420D01*
X81236537Y-60033106D01*
X81157185Y-59936415D01*
X81060494Y-59857063D01*
X80950180Y-59798098D01*
X80830482Y-59761788D01*
X80706000Y-59749528D01*
X79706000Y-59749528D01*
X79581518Y-59761788D01*
X79461820Y-59798098D01*
X79351506Y-59857063D01*
X79254815Y-59936415D01*
X79175463Y-60033106D01*
X79116498Y-60143420D01*
X79080188Y-60263118D01*
X79067928Y-60387600D01*
X79067928Y-61963039D01*
X79065509Y-61987600D01*
X75144072Y-61987600D01*
X75144072Y-60387600D01*
X75131812Y-60263118D01*
X75095502Y-60143420D01*
X75036537Y-60033106D01*
X74957185Y-59936415D01*
X74860494Y-59857063D01*
X74750180Y-59798098D01*
X74630482Y-59761788D01*
X74506000Y-59749528D01*
X73506000Y-59749528D01*
X73381518Y-59761788D01*
X73261820Y-59798098D01*
X73151506Y-59857063D01*
X73054815Y-59936415D01*
X72975463Y-60033106D01*
X72916498Y-60143420D01*
X72880188Y-60263118D01*
X72867928Y-60387600D01*
X72867928Y-63587600D01*
X72871000Y-63618794D01*
X72871001Y-66356401D01*
X72867928Y-66387600D01*
X72867928Y-69533491D01*
X69967272Y-69533491D01*
X69967272Y-66407163D01*
X70127271Y-66438989D01*
X70129528Y-66438989D01*
X70129528Y-67587600D01*
X70141788Y-67712082D01*
X70178098Y-67831780D01*
X70237063Y-67942094D01*
X70316415Y-68038785D01*
X70413106Y-68118137D01*
X70443607Y-68134441D01*
X70422374Y-68185702D01*
X70382600Y-68385661D01*
X70382600Y-68589539D01*
X70422374Y-68789498D01*
X70500395Y-68977856D01*
X70613663Y-69147374D01*
X70757826Y-69291537D01*
X70927344Y-69404805D01*
X71115702Y-69482826D01*
X71315661Y-69522600D01*
X71519539Y-69522600D01*
X71719498Y-69482826D01*
X71907856Y-69404805D01*
X72077374Y-69291537D01*
X72221537Y-69147374D01*
X72334805Y-68977856D01*
X72412826Y-68789498D01*
X72452600Y-68589539D01*
X72452600Y-68385661D01*
X72412826Y-68185702D01*
X72391593Y-68134441D01*
X72422094Y-68118137D01*
X72518785Y-68038785D01*
X72598137Y-67942094D01*
X72657102Y-67831780D01*
X72693412Y-67712082D01*
X72705672Y-67587600D01*
X72705672Y-66087600D01*
X72693412Y-65963118D01*
X72657102Y-65843420D01*
X72598137Y-65733106D01*
X72518785Y-65636415D01*
X72422094Y-65557063D01*
X72311780Y-65498098D01*
X72277173Y-65487600D01*
X72311780Y-65477102D01*
X72422094Y-65418137D01*
X72518785Y-65338785D01*
X72598137Y-65242094D01*
X72657102Y-65131780D01*
X72693412Y-65012082D01*
X72705672Y-64887600D01*
X72705672Y-63387600D01*
X72693412Y-63263118D01*
X72657102Y-63143420D01*
X72598137Y-63033106D01*
X72518785Y-62936415D01*
X72422094Y-62857063D01*
X72311780Y-62798098D01*
X72192082Y-62761788D01*
X72067600Y-62749528D01*
X70767600Y-62749528D01*
X70643118Y-62761788D01*
X70523420Y-62798098D01*
X70413106Y-62857063D01*
X70316415Y-62936415D01*
X70237063Y-63033106D01*
X70178098Y-63143420D01*
X70141788Y-63263118D01*
X70129528Y-63387600D01*
X70129528Y-64368989D01*
X70127271Y-64368989D01*
X69964200Y-64401426D01*
X69964200Y-63618792D01*
X69967272Y-63587600D01*
X69967272Y-60387600D01*
X69955012Y-60263118D01*
X69918702Y-60143420D01*
X69859737Y-60033106D01*
X69780385Y-59936415D01*
X69683694Y-59857063D01*
X69573380Y-59798098D01*
X69453682Y-59761788D01*
X69329200Y-59749528D01*
X68329200Y-59749528D01*
X68204718Y-59761788D01*
X68085020Y-59798098D01*
X67974706Y-59857063D01*
X67878015Y-59936415D01*
X67798663Y-60033106D01*
X67739698Y-60143420D01*
X67703388Y-60263118D01*
X67691128Y-60387600D01*
X67691128Y-63587600D01*
X67694201Y-63618799D01*
X67694200Y-66356406D01*
X67691128Y-66387600D01*
X67691128Y-69533491D01*
X65068623Y-69533491D01*
X63767272Y-68232141D01*
X63767272Y-66723761D01*
X63769691Y-66699200D01*
X63767272Y-66674639D01*
X63767272Y-66387600D01*
X63755012Y-66263118D01*
X63718702Y-66143420D01*
X63659737Y-66033106D01*
X63580385Y-65936415D01*
X63483694Y-65857063D01*
X63373380Y-65798098D01*
X63315747Y-65780615D01*
X61759596Y-64224465D01*
X61724049Y-64181151D01*
X61551223Y-64039316D01*
X61354047Y-63933924D01*
X61140099Y-63869023D01*
X60973352Y-63852600D01*
X60973351Y-63852600D01*
X60917600Y-63847109D01*
X60861849Y-63852600D01*
X60784373Y-63852600D01*
X60795502Y-63831780D01*
X60831812Y-63712082D01*
X60844072Y-63587600D01*
X60844072Y-63002200D01*
X61491128Y-63002200D01*
X61491128Y-63587600D01*
X61503388Y-63712082D01*
X61539698Y-63831780D01*
X61598663Y-63942094D01*
X61678015Y-64038785D01*
X61774706Y-64118137D01*
X61885020Y-64177102D01*
X62004718Y-64213412D01*
X62129200Y-64225672D01*
X63129200Y-64225672D01*
X63253682Y-64213412D01*
X63373380Y-64177102D01*
X63483694Y-64118137D01*
X63580385Y-64038785D01*
X63659737Y-63942094D01*
X63718702Y-63831780D01*
X63755012Y-63712082D01*
X63767272Y-63587600D01*
X63767272Y-61891761D01*
X63769691Y-61867200D01*
X63767272Y-61842639D01*
X63767272Y-60387600D01*
X63755012Y-60263118D01*
X63718702Y-60143420D01*
X63659737Y-60033106D01*
X63580385Y-59936415D01*
X63483694Y-59857063D01*
X63373380Y-59798098D01*
X63253682Y-59761788D01*
X63129200Y-59749528D01*
X62129200Y-59749528D01*
X62004718Y-59761788D01*
X61885020Y-59798098D01*
X61774706Y-59857063D01*
X61678015Y-59936415D01*
X61598663Y-60033106D01*
X61539698Y-60143420D01*
X61503388Y-60263118D01*
X61491128Y-60387600D01*
X61491128Y-60732200D01*
X60844072Y-60732200D01*
X60844072Y-60387600D01*
X60831812Y-60263118D01*
X60795502Y-60143420D01*
X60736537Y-60033106D01*
X60657185Y-59936415D01*
X60560494Y-59857063D01*
X60450180Y-59798098D01*
X60330482Y-59761788D01*
X60206000Y-59749528D01*
X59360100Y-59749528D01*
X59469460Y-59716354D01*
X59605833Y-59643462D01*
X59725364Y-59545364D01*
X59749947Y-59515410D01*
X60989686Y-58275672D01*
X62017600Y-58275672D01*
X62142082Y-58263412D01*
X62261780Y-58227102D01*
X62372094Y-58168137D01*
X62468785Y-58088785D01*
X62548137Y-57992094D01*
X62607102Y-57881780D01*
X62643412Y-57762082D01*
X62655672Y-57637600D01*
X62655672Y-56672599D01*
X63925775Y-56672599D01*
X64768588Y-57515413D01*
X64793169Y-57545364D01*
X64823117Y-57569942D01*
X64823120Y-57569945D01*
X64843429Y-57586612D01*
X64912700Y-57643462D01*
X65019036Y-57700299D01*
X65025121Y-57762082D01*
X65061431Y-57881780D01*
X65120396Y-57992094D01*
X65199748Y-58088785D01*
X65296439Y-58168137D01*
X65406753Y-58227102D01*
X65526451Y-58263412D01*
X65650933Y-58275672D01*
X67150933Y-58275672D01*
X67275415Y-58263412D01*
X67395113Y-58227102D01*
X67505427Y-58168137D01*
X67602118Y-58088785D01*
X67681470Y-57992094D01*
X67740435Y-57881780D01*
X67750933Y-57847173D01*
X67761431Y-57881780D01*
X67820396Y-57992094D01*
X67899748Y-58088785D01*
X67996439Y-58168137D01*
X68106753Y-58227102D01*
X68226451Y-58263412D01*
X68350933Y-58275672D01*
X68815183Y-58272600D01*
X68973933Y-58113850D01*
X68973933Y-57114600D01*
X69227933Y-57114600D01*
X69227933Y-58113850D01*
X69386683Y-58272600D01*
X69850933Y-58275672D01*
X69975415Y-58263412D01*
X70095113Y-58227102D01*
X70205427Y-58168137D01*
X70302118Y-58088785D01*
X70381470Y-57992094D01*
X70440435Y-57881780D01*
X70476745Y-57762082D01*
X70489005Y-57637600D01*
X72846194Y-57637600D01*
X72858454Y-57762082D01*
X72894764Y-57881780D01*
X72953729Y-57992094D01*
X73033081Y-58088785D01*
X73129772Y-58168137D01*
X73240086Y-58227102D01*
X73359784Y-58263412D01*
X73484266Y-58275672D01*
X73948516Y-58272600D01*
X74107266Y-58113850D01*
X74107266Y-57114600D01*
X73008016Y-57114600D01*
X72849266Y-57273350D01*
X72846194Y-57637600D01*
X70489005Y-57637600D01*
X70485933Y-57273350D01*
X70327183Y-57114600D01*
X69227933Y-57114600D01*
X68973933Y-57114600D01*
X68953933Y-57114600D01*
X68953933Y-56860600D01*
X68973933Y-56860600D01*
X68973933Y-55861350D01*
X69227933Y-55861350D01*
X69227933Y-56860600D01*
X70327183Y-56860600D01*
X70485933Y-56701850D01*
X70489005Y-56337600D01*
X72846194Y-56337600D01*
X72849266Y-56701850D01*
X73008016Y-56860600D01*
X74107266Y-56860600D01*
X74107266Y-55861350D01*
X73948516Y-55702600D01*
X73484266Y-55699528D01*
X73359784Y-55711788D01*
X73240086Y-55748098D01*
X73129772Y-55807063D01*
X73033081Y-55886415D01*
X72953729Y-55983106D01*
X72894764Y-56093420D01*
X72858454Y-56213118D01*
X72846194Y-56337600D01*
X70489005Y-56337600D01*
X70476745Y-56213118D01*
X70440435Y-56093420D01*
X70381470Y-55983106D01*
X70302118Y-55886415D01*
X70205427Y-55807063D01*
X70095113Y-55748098D01*
X69975415Y-55711788D01*
X69850933Y-55699528D01*
X69386683Y-55702600D01*
X69227933Y-55861350D01*
X68973933Y-55861350D01*
X68815183Y-55702600D01*
X68350933Y-55699528D01*
X68226451Y-55711788D01*
X68106753Y-55748098D01*
X67996439Y-55807063D01*
X67899748Y-55886415D01*
X67820396Y-55983106D01*
X67761431Y-56093420D01*
X67750933Y-56128027D01*
X67740435Y-56093420D01*
X67681470Y-55983106D01*
X67602118Y-55886415D01*
X67505427Y-55807063D01*
X67395113Y-55748098D01*
X67275415Y-55711788D01*
X67150933Y-55699528D01*
X65650933Y-55699528D01*
X65526451Y-55711788D01*
X65406753Y-55748098D01*
X65296439Y-55807063D01*
X65287714Y-55814223D01*
X65047490Y-55574000D01*
X88523625Y-55574000D01*
X88261118Y-55682734D01*
G36*
X68278098Y-76381780D02*
G01*
X68337063Y-76492094D01*
X68416415Y-76588785D01*
X68513106Y-76668137D01*
X68623420Y-76727102D01*
X68743118Y-76763412D01*
X68867600Y-76775672D01*
X70019367Y-76775672D01*
X68920445Y-77874594D01*
X68890491Y-77899177D01*
X68792393Y-78018709D01*
X68719501Y-78155082D01*
X68674614Y-78303055D01*
X68663255Y-78418381D01*
X68663255Y-78418388D01*
X68662590Y-78425138D01*
X68644318Y-78443410D01*
X68531050Y-78612928D01*
X68453029Y-78801286D01*
X68413255Y-79001245D01*
X68413255Y-79205123D01*
X68453029Y-79405082D01*
X68531050Y-79593440D01*
X68644318Y-79762958D01*
X68788481Y-79907121D01*
X68957999Y-80020389D01*
X69146357Y-80098410D01*
X69346316Y-80138184D01*
X69550194Y-80138184D01*
X69750153Y-80098410D01*
X69938511Y-80020389D01*
X70108029Y-79907121D01*
X70252192Y-79762958D01*
X70365460Y-79593440D01*
X70443481Y-79405082D01*
X70483255Y-79205123D01*
X70483255Y-79001245D01*
X70443481Y-78801286D01*
X70376287Y-78639066D01*
X71492753Y-77522600D01*
X71519535Y-77522600D01*
X71719494Y-77482826D01*
X71907852Y-77404805D01*
X72077370Y-77291537D01*
X72221533Y-77147374D01*
X72334801Y-76977856D01*
X72412822Y-76789498D01*
X72415572Y-76775672D01*
X73339948Y-76775672D01*
X73338844Y-76777737D01*
X73293957Y-76925710D01*
X73282598Y-77041036D01*
X73282598Y-77041043D01*
X73278801Y-77079596D01*
X73282598Y-77118149D01*
X73282599Y-78357040D01*
X73278801Y-78395602D01*
X73293957Y-78549488D01*
X73338844Y-78697461D01*
X73349013Y-78716486D01*
X73411737Y-78833835D01*
X73436870Y-78864459D01*
X73485253Y-78923414D01*
X73485257Y-78923418D01*
X73509835Y-78953366D01*
X73539783Y-78977944D01*
X75577254Y-81015416D01*
X75601832Y-81045364D01*
X75631780Y-81069942D01*
X75631783Y-81069945D01*
X75646204Y-81081780D01*
X75721363Y-81143462D01*
X75853255Y-81213959D01*
X75857736Y-81216354D01*
X76005709Y-81261242D01*
X76080622Y-81268620D01*
X76121035Y-81272600D01*
X76121040Y-81272600D01*
X76159596Y-81276397D01*
X76198151Y-81272600D01*
X77632601Y-81272600D01*
X77632601Y-81582441D01*
X76512443Y-82702600D01*
X71005672Y-82702600D01*
X71005672Y-82647600D01*
X70993412Y-82523118D01*
X70957102Y-82403420D01*
X70908557Y-82312600D01*
X70957102Y-82221780D01*
X70993412Y-82102082D01*
X71005672Y-81977600D01*
X71002600Y-81963350D01*
X70843850Y-81804600D01*
X69744600Y-81804600D01*
X69744600Y-81824600D01*
X69490600Y-81824600D01*
X69490600Y-81804600D01*
X68391350Y-81804600D01*
X68232600Y-81963350D01*
X68229528Y-81977600D01*
X68241788Y-82102082D01*
X68260146Y-82162600D01*
X67444753Y-82162600D01*
X67402623Y-82120470D01*
X67402623Y-81377600D01*
X68229528Y-81377600D01*
X68232600Y-81391850D01*
X68391350Y-81550600D01*
X69490600Y-81550600D01*
X69490600Y-80901350D01*
X69744600Y-80901350D01*
X69744600Y-81550600D01*
X70843850Y-81550600D01*
X71002600Y-81391850D01*
X71005672Y-81377600D01*
X70993412Y-81253118D01*
X70957102Y-81133420D01*
X70898137Y-81023106D01*
X70818785Y-80926415D01*
X70722094Y-80847063D01*
X70611780Y-80788098D01*
X70492082Y-80751788D01*
X70367600Y-80739528D01*
X69903350Y-80742600D01*
X69744600Y-80901350D01*
X69490600Y-80901350D01*
X69331850Y-80742600D01*
X68867600Y-80739528D01*
X68743118Y-80751788D01*
X68623420Y-80788098D01*
X68513106Y-80847063D01*
X68416415Y-80926415D01*
X68337063Y-81023106D01*
X68278098Y-81133420D01*
X68241788Y-81253118D01*
X68229528Y-81377600D01*
X67402623Y-81377600D01*
X67402623Y-80854730D01*
X67845444Y-80411909D01*
X67875397Y-80387327D01*
X67973495Y-80267796D01*
X68046387Y-80131423D01*
X68055948Y-80099906D01*
X68091275Y-79983450D01*
X68100332Y-79891486D01*
X68102633Y-79868124D01*
X68102633Y-79868119D01*
X68106430Y-79829563D01*
X68102633Y-79791007D01*
X68102633Y-79166311D01*
X68121570Y-79147374D01*
X68234838Y-78977856D01*
X68312859Y-78789498D01*
X68352633Y-78589539D01*
X68352633Y-78385661D01*
X68312859Y-78185702D01*
X68234838Y-77997344D01*
X68121570Y-77827826D01*
X67977407Y-77683663D01*
X67807889Y-77570395D01*
X67619531Y-77492374D01*
X67419572Y-77452600D01*
X67252623Y-77452600D01*
X67252623Y-77212733D01*
X67445405Y-77019951D01*
X67475364Y-76995364D01*
X67573462Y-76875833D01*
X67626999Y-76775672D01*
X67667600Y-76775672D01*
X67792082Y-76763412D01*
X67911780Y-76727102D01*
X68022094Y-76668137D01*
X68118785Y-76588785D01*
X68198137Y-76492094D01*
X68257102Y-76381780D01*
X68267600Y-76347173D01*
X68278098Y-76381780D01*
X68278098Y-76381780D01*
G37*
X68278098Y-76381780D02*
X68337063Y-76492094D01*
X68416415Y-76588785D01*
X68513106Y-76668137D01*
X68623420Y-76727102D01*
X68743118Y-76763412D01*
X68867600Y-76775672D01*
X70019367Y-76775672D01*
X68920445Y-77874594D01*
X68890491Y-77899177D01*
X68792393Y-78018709D01*
X68719501Y-78155082D01*
X68674614Y-78303055D01*
X68663255Y-78418381D01*
X68663255Y-78418388D01*
X68662590Y-78425138D01*
X68644318Y-78443410D01*
X68531050Y-78612928D01*
X68453029Y-78801286D01*
X68413255Y-79001245D01*
X68413255Y-79205123D01*
X68453029Y-79405082D01*
X68531050Y-79593440D01*
X68644318Y-79762958D01*
X68788481Y-79907121D01*
X68957999Y-80020389D01*
X69146357Y-80098410D01*
X69346316Y-80138184D01*
X69550194Y-80138184D01*
X69750153Y-80098410D01*
X69938511Y-80020389D01*
X70108029Y-79907121D01*
X70252192Y-79762958D01*
X70365460Y-79593440D01*
X70443481Y-79405082D01*
X70483255Y-79205123D01*
X70483255Y-79001245D01*
X70443481Y-78801286D01*
X70376287Y-78639066D01*
X71492753Y-77522600D01*
X71519535Y-77522600D01*
X71719494Y-77482826D01*
X71907852Y-77404805D01*
X72077370Y-77291537D01*
X72221533Y-77147374D01*
X72334801Y-76977856D01*
X72412822Y-76789498D01*
X72415572Y-76775672D01*
X73339948Y-76775672D01*
X73338844Y-76777737D01*
X73293957Y-76925710D01*
X73282598Y-77041036D01*
X73282598Y-77041043D01*
X73278801Y-77079596D01*
X73282598Y-77118149D01*
X73282599Y-78357040D01*
X73278801Y-78395602D01*
X73293957Y-78549488D01*
X73338844Y-78697461D01*
X73349013Y-78716486D01*
X73411737Y-78833835D01*
X73436870Y-78864459D01*
X73485253Y-78923414D01*
X73485257Y-78923418D01*
X73509835Y-78953366D01*
X73539783Y-78977944D01*
X75577254Y-81015416D01*
X75601832Y-81045364D01*
X75631780Y-81069942D01*
X75631783Y-81069945D01*
X75646204Y-81081780D01*
X75721363Y-81143462D01*
X75853255Y-81213959D01*
X75857736Y-81216354D01*
X76005709Y-81261242D01*
X76080622Y-81268620D01*
X76121035Y-81272600D01*
X76121040Y-81272600D01*
X76159596Y-81276397D01*
X76198151Y-81272600D01*
X77632601Y-81272600D01*
X77632601Y-81582441D01*
X76512443Y-82702600D01*
X71005672Y-82702600D01*
X71005672Y-82647600D01*
X70993412Y-82523118D01*
X70957102Y-82403420D01*
X70908557Y-82312600D01*
X70957102Y-82221780D01*
X70993412Y-82102082D01*
X71005672Y-81977600D01*
X71002600Y-81963350D01*
X70843850Y-81804600D01*
X69744600Y-81804600D01*
X69744600Y-81824600D01*
X69490600Y-81824600D01*
X69490600Y-81804600D01*
X68391350Y-81804600D01*
X68232600Y-81963350D01*
X68229528Y-81977600D01*
X68241788Y-82102082D01*
X68260146Y-82162600D01*
X67444753Y-82162600D01*
X67402623Y-82120470D01*
X67402623Y-81377600D01*
X68229528Y-81377600D01*
X68232600Y-81391850D01*
X68391350Y-81550600D01*
X69490600Y-81550600D01*
X69490600Y-80901350D01*
X69744600Y-80901350D01*
X69744600Y-81550600D01*
X70843850Y-81550600D01*
X71002600Y-81391850D01*
X71005672Y-81377600D01*
X70993412Y-81253118D01*
X70957102Y-81133420D01*
X70898137Y-81023106D01*
X70818785Y-80926415D01*
X70722094Y-80847063D01*
X70611780Y-80788098D01*
X70492082Y-80751788D01*
X70367600Y-80739528D01*
X69903350Y-80742600D01*
X69744600Y-80901350D01*
X69490600Y-80901350D01*
X69331850Y-80742600D01*
X68867600Y-80739528D01*
X68743118Y-80751788D01*
X68623420Y-80788098D01*
X68513106Y-80847063D01*
X68416415Y-80926415D01*
X68337063Y-81023106D01*
X68278098Y-81133420D01*
X68241788Y-81253118D01*
X68229528Y-81377600D01*
X67402623Y-81377600D01*
X67402623Y-80854730D01*
X67845444Y-80411909D01*
X67875397Y-80387327D01*
X67973495Y-80267796D01*
X68046387Y-80131423D01*
X68055948Y-80099906D01*
X68091275Y-79983450D01*
X68100332Y-79891486D01*
X68102633Y-79868124D01*
X68102633Y-79868119D01*
X68106430Y-79829563D01*
X68102633Y-79791007D01*
X68102633Y-79166311D01*
X68121570Y-79147374D01*
X68234838Y-78977856D01*
X68312859Y-78789498D01*
X68352633Y-78589539D01*
X68352633Y-78385661D01*
X68312859Y-78185702D01*
X68234838Y-77997344D01*
X68121570Y-77827826D01*
X67977407Y-77683663D01*
X67807889Y-77570395D01*
X67619531Y-77492374D01*
X67419572Y-77452600D01*
X67252623Y-77452600D01*
X67252623Y-77212733D01*
X67445405Y-77019951D01*
X67475364Y-76995364D01*
X67573462Y-76875833D01*
X67626999Y-76775672D01*
X67667600Y-76775672D01*
X67792082Y-76763412D01*
X67911780Y-76727102D01*
X68022094Y-76668137D01*
X68118785Y-76588785D01*
X68198137Y-76492094D01*
X68257102Y-76381780D01*
X68267600Y-76347173D01*
X68278098Y-76381780D01*
G36*
X64082601Y-78226745D02*
G01*
X63953350Y-78227600D01*
X63794600Y-78386350D01*
X63794600Y-79360600D01*
X63814600Y-79360600D01*
X63814600Y-79614600D01*
X63794600Y-79614600D01*
X63794600Y-79634600D01*
X63540600Y-79634600D01*
X63540600Y-79614600D01*
X63520600Y-79614600D01*
X63520600Y-79360600D01*
X63540600Y-79360600D01*
X63540600Y-78386350D01*
X63381850Y-78227600D01*
X62917600Y-78224528D01*
X62793118Y-78236788D01*
X62673420Y-78273098D01*
X62563106Y-78332063D01*
X62466415Y-78411415D01*
X62417600Y-78470896D01*
X62396266Y-78444901D01*
X62473488Y-78350807D01*
X62546380Y-78214434D01*
X62561310Y-78165216D01*
X62591268Y-78066461D01*
X62599994Y-77977856D01*
X62602626Y-77951135D01*
X62602626Y-77951130D01*
X62606423Y-77912574D01*
X62602626Y-77874018D01*
X62602626Y-76775672D01*
X63867600Y-76775672D01*
X63992082Y-76763412D01*
X64082601Y-76735953D01*
X64082601Y-78226745D01*
X64082601Y-78226745D01*
G37*
X64082601Y-78226745D02*
X63953350Y-78227600D01*
X63794600Y-78386350D01*
X63794600Y-79360600D01*
X63814600Y-79360600D01*
X63814600Y-79614600D01*
X63794600Y-79614600D01*
X63794600Y-79634600D01*
X63540600Y-79634600D01*
X63540600Y-79614600D01*
X63520600Y-79614600D01*
X63520600Y-79360600D01*
X63540600Y-79360600D01*
X63540600Y-78386350D01*
X63381850Y-78227600D01*
X62917600Y-78224528D01*
X62793118Y-78236788D01*
X62673420Y-78273098D01*
X62563106Y-78332063D01*
X62466415Y-78411415D01*
X62417600Y-78470896D01*
X62396266Y-78444901D01*
X62473488Y-78350807D01*
X62546380Y-78214434D01*
X62561310Y-78165216D01*
X62591268Y-78066461D01*
X62599994Y-77977856D01*
X62602626Y-77951135D01*
X62602626Y-77951130D01*
X62606423Y-77912574D01*
X62602626Y-77874018D01*
X62602626Y-76775672D01*
X63867600Y-76775672D01*
X63992082Y-76763412D01*
X64082601Y-76735953D01*
X64082601Y-78226745D01*
G36*
X64598490Y-71808982D02*
G01*
X64654242Y-71803491D01*
X65532887Y-71803491D01*
X65529528Y-71837600D01*
X65532600Y-72201850D01*
X65691350Y-72360600D01*
X66790600Y-72360600D01*
X66790600Y-72340600D01*
X67044600Y-72340600D01*
X67044600Y-72360600D01*
X67064600Y-72360600D01*
X67064600Y-72614600D01*
X67044600Y-72614600D01*
X67044600Y-72634600D01*
X66790600Y-72634600D01*
X66790600Y-72614600D01*
X65691350Y-72614600D01*
X65532600Y-72773350D01*
X65529528Y-73137600D01*
X65541788Y-73262082D01*
X65578098Y-73381780D01*
X65637063Y-73492094D01*
X65716415Y-73588785D01*
X65813106Y-73668137D01*
X65923420Y-73727102D01*
X66043118Y-73763412D01*
X66167600Y-73775672D01*
X66572047Y-73772996D01*
X66389790Y-73955253D01*
X66359836Y-73979836D01*
X66261738Y-74099368D01*
X66208202Y-74199528D01*
X66167600Y-74199528D01*
X66043118Y-74211788D01*
X65923420Y-74248098D01*
X65813106Y-74307063D01*
X65716415Y-74386415D01*
X65637063Y-74483106D01*
X65578098Y-74593420D01*
X65541788Y-74713118D01*
X65538335Y-74748178D01*
X64345901Y-73555744D01*
X64398137Y-73492094D01*
X64457102Y-73381780D01*
X64493412Y-73262082D01*
X64505672Y-73137600D01*
X64505672Y-71837600D01*
X64501917Y-71799470D01*
X64598490Y-71808982D01*
X64598490Y-71808982D01*
G37*
X64598490Y-71808982D02*
X64654242Y-71803491D01*
X65532887Y-71803491D01*
X65529528Y-71837600D01*
X65532600Y-72201850D01*
X65691350Y-72360600D01*
X66790600Y-72360600D01*
X66790600Y-72340600D01*
X67044600Y-72340600D01*
X67044600Y-72360600D01*
X67064600Y-72360600D01*
X67064600Y-72614600D01*
X67044600Y-72614600D01*
X67044600Y-72634600D01*
X66790600Y-72634600D01*
X66790600Y-72614600D01*
X65691350Y-72614600D01*
X65532600Y-72773350D01*
X65529528Y-73137600D01*
X65541788Y-73262082D01*
X65578098Y-73381780D01*
X65637063Y-73492094D01*
X65716415Y-73588785D01*
X65813106Y-73668137D01*
X65923420Y-73727102D01*
X66043118Y-73763412D01*
X66167600Y-73775672D01*
X66572047Y-73772996D01*
X66389790Y-73955253D01*
X66359836Y-73979836D01*
X66261738Y-74099368D01*
X66208202Y-74199528D01*
X66167600Y-74199528D01*
X66043118Y-74211788D01*
X65923420Y-74248098D01*
X65813106Y-74307063D01*
X65716415Y-74386415D01*
X65637063Y-74483106D01*
X65578098Y-74593420D01*
X65541788Y-74713118D01*
X65538335Y-74748178D01*
X64345901Y-73555744D01*
X64398137Y-73492094D01*
X64457102Y-73381780D01*
X64493412Y-73262082D01*
X64505672Y-73137600D01*
X64505672Y-71837600D01*
X64501917Y-71799470D01*
X64598490Y-71808982D01*
M02*
