G04 #@! TF.GenerationSoftware,KiCad,Pcbnew,(5.1.0)-1*
G04 #@! TF.CreationDate,2019-04-18T18:53:24+01:00*
G04 #@! TF.ProjectId,v4,76342e6b-6963-4616-945f-706362585858,rev?*
G04 #@! TF.SameCoordinates,Original*
G04 #@! TF.FileFunction,Soldermask,Top*
G04 #@! TF.FilePolarity,Negative*
%FSLAX46Y46*%
G04 Gerber Fmt 4.6, Leading zero omitted, Abs format (unit mm)*
G04 Created by KiCad (PCBNEW (5.1.0)-1) date 2019-04-18 18:53:24*
%MOMM*%
%LPD*%
G04 APERTURE LIST*
%ADD10C,2.800000*%
%ADD11O,2.800000X2.800000*%
%ADD12C,2.900000*%
%ADD13R,1.600000X2.100000*%
%ADD14O,1.600000X2.100000*%
%ADD15R,1.900000X1.650000*%
%ADD16R,2.100000X2.100000*%
%ADD17O,2.100000X2.100000*%
%ADD18R,1.900000X1.700000*%
%ADD19R,1.900000X1.000000*%
%ADD20R,1.700000X1.200000*%
%ADD21R,1.200000X1.300000*%
%ADD22R,1.700000X1.900000*%
%ADD23R,2.400000X2.400000*%
%ADD24R,3.600000X1.400000*%
G04 APERTURE END LIST*
D10*
X56845200Y-64922400D03*
D11*
X87325200Y-64922400D03*
D12*
X54102000Y-101803200D03*
X89154000Y-101803200D03*
X54102000Y-57353200D03*
X89154000Y-57353200D03*
D13*
X65532000Y-97180400D03*
D14*
X67532000Y-97180400D03*
D15*
X67380800Y-75438000D03*
X69880800Y-75438000D03*
D16*
X55118000Y-86410800D03*
D17*
X55118000Y-83870800D03*
X55118000Y-81330800D03*
X55118000Y-78790800D03*
X55118000Y-76250800D03*
D18*
X66214000Y-84023200D03*
X68914000Y-84023200D03*
X80844400Y-82550000D03*
X83544400Y-82550000D03*
D16*
X62636400Y-86410800D03*
D17*
X60096400Y-86410800D03*
X62636400Y-83870800D03*
X60096400Y-83870800D03*
X62636400Y-81330800D03*
X60096400Y-81330800D03*
D15*
X76055200Y-96824800D03*
X73555200Y-96824800D03*
D13*
X82143600Y-96875600D03*
D14*
X84143600Y-96875600D03*
D18*
X81664800Y-90322400D03*
X78964800Y-90322400D03*
D19*
X76055200Y-94132400D03*
X76055200Y-92862400D03*
X76055200Y-91592400D03*
X76055200Y-90322400D03*
X76055200Y-89052400D03*
X76055200Y-87782400D03*
X76055200Y-86512400D03*
X70655200Y-86512400D03*
X70655200Y-87782400D03*
X70655200Y-89052400D03*
X70655200Y-90322400D03*
X70655200Y-91592400D03*
X70655200Y-92862400D03*
X70655200Y-94132400D03*
D15*
X85465600Y-91948000D03*
X87965600Y-91948000D03*
D13*
X58572400Y-97180400D03*
D14*
X60572400Y-97180400D03*
D18*
X64588400Y-93522800D03*
X67288400Y-93522800D03*
X64443600Y-91338400D03*
X61743600Y-91338400D03*
X61649600Y-93522800D03*
X58949600Y-93522800D03*
X73892400Y-99212400D03*
X71192400Y-99212400D03*
X66214000Y-81889600D03*
X68914000Y-81889600D03*
X56823600Y-93522800D03*
X54123600Y-93522800D03*
X80852000Y-84582000D03*
X78152000Y-84582000D03*
D20*
X77775200Y-102544800D03*
X77775200Y-101264800D03*
X71475200Y-101264800D03*
X71475200Y-102544800D03*
D21*
X85714800Y-90103200D03*
X87614800Y-90103200D03*
X86664800Y-88103200D03*
D18*
X85924400Y-82550000D03*
X88624400Y-82550000D03*
X75916800Y-82550000D03*
X78616800Y-82550000D03*
D21*
X67274400Y-73325600D03*
X69174400Y-73325600D03*
X68224400Y-71325600D03*
D22*
X71323200Y-64537600D03*
X71323200Y-67237600D03*
D18*
X59102000Y-75387200D03*
X61802000Y-75387200D03*
X78964800Y-92862400D03*
X81664800Y-92862400D03*
D23*
X79349600Y-87680800D03*
D24*
X89357200Y-67389200D03*
X89357200Y-61189200D03*
X53797200Y-67389200D03*
X53797200Y-61189200D03*
X84565066Y-61199200D03*
X84565066Y-67399200D03*
X58606266Y-61199200D03*
X58606266Y-67399200D03*
X79772933Y-67389200D03*
X79772933Y-61189200D03*
X63415332Y-67389200D03*
X63415332Y-61189200D03*
X74980800Y-61199200D03*
X74980800Y-67399200D03*
X68224400Y-61199200D03*
X68224400Y-67399200D03*
M02*
