M48
; DRILL file {KiCad (5.1.0)-1} date 18/04/2019 18:53:26
; FORMAT={3:3/ absolute / metric / suppress leading zeros}
; #@! TF.CreationDate,2019-04-18T18:53:26+01:00
; #@! TF.GenerationSoftware,Kicad,Pcbnew,(5.1.0)-1
; #@! TF.FileFunction,Plated,1,2,PTH
FMAT,2
METRIC,TZ
T1C0.400
T2C0.750
T3C1.000
T4C1.200
%
G90
G05
T1
X54356Y-89103
X56693Y-91034
X59792Y-88863
X62890Y-73863
X63138Y-93218
X64008Y-99873
X67259Y-88443
X67970Y-85954
X68484Y-91823
X68834Y-93523
X70409Y-70040
X70655Y-85047
X71272Y-82296
X71725Y-96044
X71756Y-68758
X72288Y-75895
X72339Y-76708
X72390Y-77521
X72390Y-79705
X72997Y-92176
X73081Y-85926
X73222Y-95135
X73736Y-81051
X73914Y-90373
X73932Y-91597
X74121Y-86283
X77470Y-95402
X78334Y-99822
X78791Y-94212
X83464Y-92202
T2
X65532Y-97180
X67532Y-97180
X58572Y-97180
X60572Y-97180
X82144Y-96876
X84144Y-96876
T3
X60096Y-81331
X60096Y-83871
X60096Y-86411
X62636Y-81331
X62636Y-83871
X62636Y-86411
X55118Y-76251
X55118Y-78791
X55118Y-81331
X55118Y-83871
X55118Y-86411
T4
X56845Y-64922
X87325Y-64922
T0
M30
