M48
; DRILL file {KiCad 5.1.5-52549c5~84~ubuntu18.04.1} date Thu 16 Jan 2020 22:12:11 CET
; FORMAT={-:-/ absolute / inch / decimal}
; #@! TF.CreationDate,2020-01-16T22:12:11+01:00
; #@! TF.GenerationSoftware,Kicad,Pcbnew,5.1.5-52549c5~84~ubuntu18.04.1
; #@! TF.FileFunction,Plated,1,2,PTH
FMAT,2
INCH
T1C0.0157
T2C0.0295
T3C0.0394
%
G90
G05
T1
X4.1109Y-2.346
X4.1897Y-2.4464
X4.2761Y-2.4466
X4.3157Y-3.3223
X4.3157Y-2.5236
X4.3196Y-2.3932
X4.3787Y-2.901
X4.3826Y-2.9483
X4.3944Y-3.6452
X4.4377Y-2.6491
X4.4456Y-1.9857
X4.4613Y-2.72
X4.4613Y-3.1137
X4.4771Y-3.1806
X4.4856Y-1.9846
X4.4889Y-2.9877
X4.5699Y-2.938
X4.5765Y-2.9808
X4.5794Y-3.4759
X4.5873Y-2.7082
X4.6109Y-2.2265
X4.6188Y-2.6846
X4.6267Y-2.4286
X4.6379Y-3.4216
X4.6739Y-2.972
X4.6897Y-3.4247
X4.7054Y-2.5861
X4.7172Y-1.9365
X4.7172Y-2.031
X4.7212Y-2.657
X4.733Y-3.4247
X4.7763Y-3.4247
X4.8196Y-3.4247
X4.8353Y-2.8342
X4.8393Y-2.5783
X4.8767Y-2.4188
X4.8826Y-2.9759
X4.9023Y-2.7239
X4.9259Y-2.8381
X4.9337Y-2.6016
X4.9534Y-2.9365
X5.0015Y-3.4673
X5.0145Y-2.8979
X5.0676Y-2.5625
X5.0755Y-2.9483
X5.1503Y-2.3404
T2
X4.7723Y-2.1412
X4.8511Y-2.1412
X4.355Y-2.1412
X4.4338Y-2.1412
X4.7723Y-3.6019
X4.8511Y-3.6019
T3
X4.4849Y-3.5743
X4.4849Y-3.6743
X4.4849Y-3.7743
X4.5849Y-3.5743
X4.5849Y-3.6743
X4.5849Y-3.7743
X5.1149Y-3.1097
X5.1149Y-3.2097
X5.1149Y-3.3097
X5.1149Y-3.4097
X5.1149Y-3.5097
T0
M30
