M48
; DRILL file {KiCad (5.1.0)-1} date 05/12/2019 20:17:43
; FORMAT={3:3/ absolute / metric / suppress leading zeros}
; #@! TF.CreationDate,2019-12-05T20:17:43+00:00
; #@! TF.GenerationSoftware,Kicad,Pcbnew,(5.1.0)-1
; #@! TF.FileFunction,Plated,1,2,PTH
FMAT,2
METRIC,TZ
T1C0.400
T2C0.750
T3C1.000
%
G90
G05
T1
X106168Y-80488
X107118Y-60588
X107718Y-73888
X108518Y-87488
X109418Y-69488
X109789Y-89138
X110418Y-92988
X112018Y-75088
X112518Y-64088
X112818Y-87938
X114018Y-79288
X114118Y-77488
X114818Y-81088
X114818Y-82688
X115418Y-79388
X115868Y-78084
X116618Y-70088
X117218Y-56888
X117918Y-62988
X118468Y-82038
X118616Y-72329
X119068Y-87888
X119308Y-86095
X120736Y-64905
X120890Y-72296
X121318Y-59138
X121379Y-79874
X121418Y-73988
X121618Y-68488
X122618Y-71874
X122918Y-65488
X122983Y-77213
X124068Y-83788
X124076Y-80424
X125089Y-73423
X125418Y-72288
X125918Y-86888
X125934Y-89665
X126618Y-56788
X126658Y-75088
X126812Y-80194
X126846Y-82938
X127134Y-77782
X127518Y-60588
X127568Y-64288
X127568Y-65583
X127718Y-83888
X127718Y-85588
X127718Y-88188
X127878Y-78592
X130518Y-59688
X130618Y-76488
T2
X121718Y-54388
X123718Y-54388
X121518Y-91588
X123518Y-91588
X110118Y-54388
X112118Y-54388
T3
X129918Y-78988
X129918Y-81528
X129918Y-84068
X129918Y-86608
X129918Y-89148
X113918Y-90788
X113918Y-93328
X113918Y-95868
X116458Y-90788
X116458Y-93328
X116458Y-95868
T0
M30
