M48
; DRILL file {KiCad (5.1.0)-1} date 06/01/2020 19:03:30
; FORMAT={3:3/ absolute / metric / suppress leading zeros}
; #@! TF.CreationDate,2020-01-06T19:03:30+00:00
; #@! TF.GenerationSoftware,Kicad,Pcbnew,(5.1.0)-1
; #@! TF.FileFunction,Plated,1,2,PTH
FMAT,2
METRIC,TZ
T1C0.400
T2C0.750
T3C1.000
%
G90
G05
T1
X103918Y-67688
X105118Y-67688
X105418Y-89988
X105418Y-91088
X106518Y-89988
X106518Y-91088
X109818Y-67688
X109818Y-68788
X111018Y-67688
X111018Y-68788
X111218Y-60188
X112018Y-58088
X112868Y-65238
X112918Y-50438
X113318Y-72788
X113935Y-50409
X114018Y-81838
X114218Y-83988
X114318Y-72788
X117034Y-69175
X117118Y-56553
X117318Y-65688
X117714Y-72582
X118418Y-70988
X119018Y-68988
X119718Y-73488
X119818Y-49188
X119818Y-51588
X121756Y-63266
X122818Y-65138
X123618Y-68088
X123637Y-60856
X123759Y-71988
X124518Y-69788
X125418Y-86288
X125418Y-87388
X125768Y-73688
X126218Y-88688
X126369Y-75037
X127018Y-63188
X127524Y-72149
X127968Y-88070
X129118Y-69588
X129425Y-64795
X130459Y-74940
X130518Y-67588
X130543Y-73188
X131018Y-56588
T2
X121218Y-91488
X123218Y-91488
X121218Y-54388
X123218Y-54388
X110618Y-54388
X112618Y-54388
T3
X129918Y-78988
X129918Y-81528
X129918Y-84068
X129918Y-86608
X129918Y-89148
X113918Y-90788
X113918Y-93328
X113918Y-95868
X116458Y-90788
X116458Y-93328
X116458Y-95868
T0
M30
