M48
; DRILL file {KiCad (5.1.0)-1} date 19/12/2019 19:23:17
; FORMAT={3:3/ absolute / metric / suppress leading zeros}
; #@! TF.CreationDate,2019-12-19T19:23:17+00:00
; #@! TF.GenerationSoftware,Kicad,Pcbnew,(5.1.0)-1
; #@! TF.FileFunction,Plated,1,2,PTH
FMAT,2
METRIC,TZ
T1C0.400
T2C0.750
T3C1.000
%
G90
G05
T1
X104168Y-89238
X105168Y-89238
X105418Y-78988
X106168Y-89238
X107118Y-60588
X107718Y-73888
X108518Y-87488
X109418Y-69488
X109789Y-89138
X110418Y-92988
X110918Y-73988
X112418Y-69338
X112818Y-87938
X113418Y-74988
X113418Y-75988
X113418Y-76988
X114668Y-79488
X114668Y-81738
X117518Y-70988
X117668Y-58488
X117668Y-86488
X117718Y-69722
X118043Y-61113
X118075Y-72329
X118168Y-81488
X119775Y-72678
X120118Y-80018
X120168Y-67238
X120418Y-74988
X120468Y-88738
X120799Y-87038
X122418Y-68488
X122418Y-73738
X122668Y-65738
X122918Y-87238
X122983Y-77213
X123268Y-72001
X123535Y-85038
X124268Y-81238
X124668Y-57738
X124918Y-64988
X125668Y-86488
X125698Y-89934
X125918Y-56988
X125918Y-57988
X125918Y-73988
X126168Y-70738
X126731Y-80378
X127105Y-77683
X127151Y-82555
X127418Y-81488
X127568Y-64288
X127718Y-85588
X127718Y-88188
X128018Y-78592
X131053Y-76619
T2
X110118Y-54388
X112118Y-54388
X121518Y-91588
X123518Y-91588
X121718Y-54388
X123718Y-54388
T3
X113918Y-90788
X113918Y-93328
X113918Y-95868
X116458Y-90788
X116458Y-93328
X116458Y-95868
X129918Y-78988
X129918Y-81528
X129918Y-84068
X129918Y-86608
X129918Y-89148
T0
M30
