M48
;DRILL file {KiCad (5.0.0)} date 03/26/19 19:26:19
;FORMAT={3:3/ absolute / metric / suppress leading zeros}
FMAT,2
METRIC,TZ
T1C0.400
T2C0.750
T3C1.000
T4C3.000
%
G90
G05
M71
T1
X55221Y-90064
X59792Y-88863
X60909Y-99162
X61214Y-77876
X63094Y-94590
X65126Y-80112
X65735Y-69190
X66396Y-88914
X67208Y-74524
X67259Y-86411
X68796Y-92638
X69139Y-83769
X69393Y-95961
X69757Y-97512
X70041Y-84794
X70104Y-69328
X70561Y-63144
X71093Y-96215
X71272Y-83617
X72390Y-80772
X72705Y-85876
X73027Y-81409
X73812Y-93421
X73863Y-91643
X73914Y-90373
X74016Y-59016
X74301Y-86121
X77470Y-95402
X78943Y-84582
X81437Y-94212
X83820Y-89611
T2
X81890Y-96926
X83890Y-96926
X63906Y-97079
X65906Y-97079
X54661Y-97079
X56661Y-97079
T3
X81585Y-101448
X84125Y-101448
X60096Y-81331
X60096Y-83871
X60096Y-86411
X62636Y-81331
X62636Y-83871
X62636Y-86411
X54305Y-101702
X56845Y-101702
X55118Y-78791
X55118Y-81331
X55118Y-83871
X55118Y-86411
X63652Y-101702
X66192Y-101702
T4
X89205Y-101854
X54051Y-57302
X89205Y-57302
T0
M30
