M48
; DRILL file {KiCad (5.1.0)-1} date 02/01/2020 20:36:27
; FORMAT={3:3/ absolute / metric / suppress leading zeros}
; #@! TF.CreationDate,2020-01-02T20:36:27+00:00
; #@! TF.GenerationSoftware,Kicad,Pcbnew,(5.1.0)-1
; #@! TF.FileFunction,Plated,1,2,PTH
FMAT,2
METRIC,TZ
T1C0.400
T2C0.750
T3C1.000
%
G90
G05
T1
X104418Y-59588
X106418Y-62138
X108613Y-62143
X109618Y-84388
X109618Y-64099
X109718Y-60788
X111219Y-73686
X111318Y-74888
X111618Y-92588
X112718Y-67288
X112918Y-50438
X113318Y-69088
X113318Y-79088
X113718Y-80788
X113935Y-50409
X114018Y-75888
X116076Y-74624
X116244Y-75712
X116318Y-88288
X116518Y-68788
X117118Y-56553
X117318Y-68188
X117518Y-61688
X117802Y-86909
X118718Y-75488
X119118Y-86988
X119518Y-65688
X119818Y-49188
X119818Y-51588
X119918Y-67488
X120218Y-86988
X121318Y-86988
X122418Y-86988
X122818Y-71988
X122918Y-65488
X123868Y-61438
X124018Y-75588
X124518Y-69188
X125118Y-72088
X125317Y-66081
X125818Y-74588
X127038Y-88070
X127368Y-73607
X128718Y-65088
X128918Y-74888
X130818Y-59447
T2
X121218Y-91488
X123218Y-91488
X110618Y-54388
X112618Y-54388
X121218Y-54388
X123218Y-54388
T3
X129918Y-78988
X129918Y-81528
X129918Y-84068
X129918Y-86608
X129918Y-89148
X113918Y-90788
X113918Y-93328
X113918Y-95868
X116458Y-90788
X116458Y-93328
X116458Y-95868
T0
M30
