M48
; DRILL file {KiCad (5.1.0)-1} date 01/01/2020 13:54:37
; FORMAT={3:3/ absolute / metric / suppress leading zeros}
; #@! TF.CreationDate,2020-01-01T13:54:37+00:00
; #@! TF.GenerationSoftware,Kicad,Pcbnew,(5.1.0)-1
; #@! TF.FileFunction,Plated,1,2,PTH
FMAT,2
METRIC,TZ
T1C0.400
T2C0.750
T3C1.000
%
G90
G05
T1
X104418Y-59588
X106418Y-62138
X108618Y-62138
X109618Y-84388
X109618Y-64099
X110868Y-60559
X111219Y-73686
X111318Y-74888
X111668Y-92988
X112718Y-67288
X113318Y-69088
X113318Y-79088
X113718Y-80788
X115118Y-50288
X116118Y-74988
X116918Y-69188
X116985Y-77166
X117318Y-68188
X117518Y-63388
X117818Y-86988
X118318Y-62538
X118518Y-57588
X118918Y-77338
X119118Y-86988
X119518Y-66688
X119818Y-49188
X119818Y-51588
X119918Y-68488
X120218Y-86988
X121318Y-86988
X122418Y-86988
X122818Y-72988
X122918Y-66488
X123168Y-78134
X124118Y-61788
X124518Y-70188
X125018Y-88388
X125118Y-73088
X125317Y-67081
X125518Y-78688
X125818Y-75588
X126968Y-87996
X127368Y-74607
X128718Y-66088
X130818Y-59447
T2
X121218Y-91488
X123218Y-91488
X110618Y-54388
X112618Y-54388
X121218Y-54388
X123218Y-54388
T3
X129918Y-78988
X129918Y-81528
X129918Y-84068
X129918Y-86608
X129918Y-89148
X113918Y-90788
X113918Y-93328
X113918Y-95868
X116458Y-90788
X116458Y-93328
X116458Y-95868
T0
M30
