G04 #@! TF.GenerationSoftware,KiCad,Pcbnew,(5.1.5)-3*
G04 #@! TF.CreationDate,2021-02-25T14:23:21+00:00*
G04 #@! TF.ProjectId,ModuleV440,4d6f6475-6c65-4563-9434-302e6b696361,rev?*
G04 #@! TF.SameCoordinates,Original*
G04 #@! TF.FileFunction,Soldermask,Top*
G04 #@! TF.FilePolarity,Negative*
%FSLAX46Y46*%
G04 Gerber Fmt 4.6, Leading zero omitted, Abs format (unit mm)*
G04 Created by KiCad (PCBNEW (5.1.5)-3) date 2021-02-25 14:23:21*
%MOMM*%
%LPD*%
G04 APERTURE LIST*
%ADD10C,0.100000*%
%ADD11O,1.600000X2.150000*%
%ADD12O,2.100000X2.100000*%
%ADD13R,2.100000X2.100000*%
%ADD14R,2.900000X2.700000*%
%ADD15R,1.200000X1.300000*%
%ADD16C,3.600000*%
%ADD17R,2.400000X2.800000*%
G04 APERTURE END LIST*
D10*
G36*
X116582104Y-48188804D02*
G01*
X116606373Y-48192404D01*
X116630171Y-48198365D01*
X116653271Y-48206630D01*
X116675449Y-48217120D01*
X116696493Y-48229733D01*
X116716198Y-48244347D01*
X116734377Y-48260823D01*
X116750853Y-48279002D01*
X116765467Y-48298707D01*
X116778080Y-48319751D01*
X116788570Y-48341929D01*
X116796835Y-48365029D01*
X116802796Y-48388827D01*
X116806396Y-48413096D01*
X116807600Y-48437600D01*
X116807600Y-49962600D01*
X116806396Y-49987104D01*
X116802796Y-50011373D01*
X116796835Y-50035171D01*
X116788570Y-50058271D01*
X116778080Y-50080449D01*
X116765467Y-50101493D01*
X116750853Y-50121198D01*
X116734377Y-50139377D01*
X116716198Y-50155853D01*
X116696493Y-50170467D01*
X116675449Y-50183080D01*
X116653271Y-50193570D01*
X116630171Y-50201835D01*
X116606373Y-50207796D01*
X116582104Y-50211396D01*
X116557600Y-50212600D01*
X116057600Y-50212600D01*
X116033096Y-50211396D01*
X116008827Y-50207796D01*
X115985029Y-50201835D01*
X115961929Y-50193570D01*
X115939751Y-50183080D01*
X115918707Y-50170467D01*
X115899002Y-50155853D01*
X115880823Y-50139377D01*
X115864347Y-50121198D01*
X115849733Y-50101493D01*
X115837120Y-50080449D01*
X115826630Y-50058271D01*
X115818365Y-50035171D01*
X115812404Y-50011373D01*
X115808804Y-49987104D01*
X115807600Y-49962600D01*
X115807600Y-48437600D01*
X115808804Y-48413096D01*
X115812404Y-48388827D01*
X115818365Y-48365029D01*
X115826630Y-48341929D01*
X115837120Y-48319751D01*
X115849733Y-48298707D01*
X115864347Y-48279002D01*
X115880823Y-48260823D01*
X115899002Y-48244347D01*
X115918707Y-48229733D01*
X115939751Y-48217120D01*
X115961929Y-48206630D01*
X115985029Y-48198365D01*
X116008827Y-48192404D01*
X116033096Y-48188804D01*
X116057600Y-48187600D01*
X116557600Y-48187600D01*
X116582104Y-48188804D01*
G37*
G36*
X117852104Y-48188804D02*
G01*
X117876373Y-48192404D01*
X117900171Y-48198365D01*
X117923271Y-48206630D01*
X117945449Y-48217120D01*
X117966493Y-48229733D01*
X117986198Y-48244347D01*
X118004377Y-48260823D01*
X118020853Y-48279002D01*
X118035467Y-48298707D01*
X118048080Y-48319751D01*
X118058570Y-48341929D01*
X118066835Y-48365029D01*
X118072796Y-48388827D01*
X118076396Y-48413096D01*
X118077600Y-48437600D01*
X118077600Y-49962600D01*
X118076396Y-49987104D01*
X118072796Y-50011373D01*
X118066835Y-50035171D01*
X118058570Y-50058271D01*
X118048080Y-50080449D01*
X118035467Y-50101493D01*
X118020853Y-50121198D01*
X118004377Y-50139377D01*
X117986198Y-50155853D01*
X117966493Y-50170467D01*
X117945449Y-50183080D01*
X117923271Y-50193570D01*
X117900171Y-50201835D01*
X117876373Y-50207796D01*
X117852104Y-50211396D01*
X117827600Y-50212600D01*
X117327600Y-50212600D01*
X117303096Y-50211396D01*
X117278827Y-50207796D01*
X117255029Y-50201835D01*
X117231929Y-50193570D01*
X117209751Y-50183080D01*
X117188707Y-50170467D01*
X117169002Y-50155853D01*
X117150823Y-50139377D01*
X117134347Y-50121198D01*
X117119733Y-50101493D01*
X117107120Y-50080449D01*
X117096630Y-50058271D01*
X117088365Y-50035171D01*
X117082404Y-50011373D01*
X117078804Y-49987104D01*
X117077600Y-49962600D01*
X117077600Y-48437600D01*
X117078804Y-48413096D01*
X117082404Y-48388827D01*
X117088365Y-48365029D01*
X117096630Y-48341929D01*
X117107120Y-48319751D01*
X117119733Y-48298707D01*
X117134347Y-48279002D01*
X117150823Y-48260823D01*
X117169002Y-48244347D01*
X117188707Y-48229733D01*
X117209751Y-48217120D01*
X117231929Y-48206630D01*
X117255029Y-48198365D01*
X117278827Y-48192404D01*
X117303096Y-48188804D01*
X117327600Y-48187600D01*
X117827600Y-48187600D01*
X117852104Y-48188804D01*
G37*
G36*
X117852104Y-54563804D02*
G01*
X117876373Y-54567404D01*
X117900171Y-54573365D01*
X117923271Y-54581630D01*
X117945449Y-54592120D01*
X117966493Y-54604733D01*
X117986198Y-54619347D01*
X118004377Y-54635823D01*
X118020853Y-54654002D01*
X118035467Y-54673707D01*
X118048080Y-54694751D01*
X118058570Y-54716929D01*
X118066835Y-54740029D01*
X118072796Y-54763827D01*
X118076396Y-54788096D01*
X118077600Y-54812600D01*
X118077600Y-56337600D01*
X118076396Y-56362104D01*
X118072796Y-56386373D01*
X118066835Y-56410171D01*
X118058570Y-56433271D01*
X118048080Y-56455449D01*
X118035467Y-56476493D01*
X118020853Y-56496198D01*
X118004377Y-56514377D01*
X117986198Y-56530853D01*
X117966493Y-56545467D01*
X117945449Y-56558080D01*
X117923271Y-56568570D01*
X117900171Y-56576835D01*
X117876373Y-56582796D01*
X117852104Y-56586396D01*
X117827600Y-56587600D01*
X117327600Y-56587600D01*
X117303096Y-56586396D01*
X117278827Y-56582796D01*
X117255029Y-56576835D01*
X117231929Y-56568570D01*
X117209751Y-56558080D01*
X117188707Y-56545467D01*
X117169002Y-56530853D01*
X117150823Y-56514377D01*
X117134347Y-56496198D01*
X117119733Y-56476493D01*
X117107120Y-56455449D01*
X117096630Y-56433271D01*
X117088365Y-56410171D01*
X117082404Y-56386373D01*
X117078804Y-56362104D01*
X117077600Y-56337600D01*
X117077600Y-54812600D01*
X117078804Y-54788096D01*
X117082404Y-54763827D01*
X117088365Y-54740029D01*
X117096630Y-54716929D01*
X117107120Y-54694751D01*
X117119733Y-54673707D01*
X117134347Y-54654002D01*
X117150823Y-54635823D01*
X117169002Y-54619347D01*
X117188707Y-54604733D01*
X117209751Y-54592120D01*
X117231929Y-54581630D01*
X117255029Y-54573365D01*
X117278827Y-54567404D01*
X117303096Y-54563804D01*
X117327600Y-54562600D01*
X117827600Y-54562600D01*
X117852104Y-54563804D01*
G37*
G36*
X116582104Y-54563804D02*
G01*
X116606373Y-54567404D01*
X116630171Y-54573365D01*
X116653271Y-54581630D01*
X116675449Y-54592120D01*
X116696493Y-54604733D01*
X116716198Y-54619347D01*
X116734377Y-54635823D01*
X116750853Y-54654002D01*
X116765467Y-54673707D01*
X116778080Y-54694751D01*
X116788570Y-54716929D01*
X116796835Y-54740029D01*
X116802796Y-54763827D01*
X116806396Y-54788096D01*
X116807600Y-54812600D01*
X116807600Y-56337600D01*
X116806396Y-56362104D01*
X116802796Y-56386373D01*
X116796835Y-56410171D01*
X116788570Y-56433271D01*
X116778080Y-56455449D01*
X116765467Y-56476493D01*
X116750853Y-56496198D01*
X116734377Y-56514377D01*
X116716198Y-56530853D01*
X116696493Y-56545467D01*
X116675449Y-56558080D01*
X116653271Y-56568570D01*
X116630171Y-56576835D01*
X116606373Y-56582796D01*
X116582104Y-56586396D01*
X116557600Y-56587600D01*
X116057600Y-56587600D01*
X116033096Y-56586396D01*
X116008827Y-56582796D01*
X115985029Y-56576835D01*
X115961929Y-56568570D01*
X115939751Y-56558080D01*
X115918707Y-56545467D01*
X115899002Y-56530853D01*
X115880823Y-56514377D01*
X115864347Y-56496198D01*
X115849733Y-56476493D01*
X115837120Y-56455449D01*
X115826630Y-56433271D01*
X115818365Y-56410171D01*
X115812404Y-56386373D01*
X115808804Y-56362104D01*
X115807600Y-56337600D01*
X115807600Y-54812600D01*
X115808804Y-54788096D01*
X115812404Y-54763827D01*
X115818365Y-54740029D01*
X115826630Y-54716929D01*
X115837120Y-54694751D01*
X115849733Y-54673707D01*
X115864347Y-54654002D01*
X115880823Y-54635823D01*
X115899002Y-54619347D01*
X115918707Y-54604733D01*
X115939751Y-54592120D01*
X115961929Y-54581630D01*
X115985029Y-54573365D01*
X116008827Y-54567404D01*
X116033096Y-54563804D01*
X116057600Y-54562600D01*
X116557600Y-54562600D01*
X116582104Y-54563804D01*
G37*
D11*
X121217600Y-54387600D03*
D10*
G36*
X123716940Y-53314205D02*
G01*
X123749298Y-53319005D01*
X123781029Y-53326953D01*
X123811829Y-53337973D01*
X123841400Y-53351959D01*
X123869457Y-53368777D01*
X123895732Y-53388263D01*
X123919969Y-53410231D01*
X123941937Y-53434468D01*
X123961423Y-53460743D01*
X123978241Y-53488800D01*
X123992227Y-53518371D01*
X124003247Y-53549171D01*
X124011195Y-53580902D01*
X124015995Y-53613260D01*
X124017600Y-53645932D01*
X124017600Y-55129268D01*
X124015995Y-55161940D01*
X124011195Y-55194298D01*
X124003247Y-55226029D01*
X123992227Y-55256829D01*
X123978241Y-55286400D01*
X123961423Y-55314457D01*
X123941937Y-55340732D01*
X123919969Y-55364969D01*
X123895732Y-55386937D01*
X123869457Y-55406423D01*
X123841400Y-55423241D01*
X123811829Y-55437227D01*
X123781029Y-55448247D01*
X123749298Y-55456195D01*
X123716940Y-55460995D01*
X123684268Y-55462600D01*
X122750932Y-55462600D01*
X122718260Y-55460995D01*
X122685902Y-55456195D01*
X122654171Y-55448247D01*
X122623371Y-55437227D01*
X122593800Y-55423241D01*
X122565743Y-55406423D01*
X122539468Y-55386937D01*
X122515231Y-55364969D01*
X122493263Y-55340732D01*
X122473777Y-55314457D01*
X122456959Y-55286400D01*
X122442973Y-55256829D01*
X122431953Y-55226029D01*
X122424005Y-55194298D01*
X122419205Y-55161940D01*
X122417600Y-55129268D01*
X122417600Y-53645932D01*
X122419205Y-53613260D01*
X122424005Y-53580902D01*
X122431953Y-53549171D01*
X122442973Y-53518371D01*
X122456959Y-53488800D01*
X122473777Y-53460743D01*
X122493263Y-53434468D01*
X122515231Y-53410231D01*
X122539468Y-53388263D01*
X122565743Y-53368777D01*
X122593800Y-53351959D01*
X122623371Y-53337973D01*
X122654171Y-53326953D01*
X122685902Y-53319005D01*
X122718260Y-53314205D01*
X122750932Y-53312600D01*
X123684268Y-53312600D01*
X123716940Y-53314205D01*
G37*
D11*
X110617600Y-54387600D03*
D10*
G36*
X113116940Y-53314205D02*
G01*
X113149298Y-53319005D01*
X113181029Y-53326953D01*
X113211829Y-53337973D01*
X113241400Y-53351959D01*
X113269457Y-53368777D01*
X113295732Y-53388263D01*
X113319969Y-53410231D01*
X113341937Y-53434468D01*
X113361423Y-53460743D01*
X113378241Y-53488800D01*
X113392227Y-53518371D01*
X113403247Y-53549171D01*
X113411195Y-53580902D01*
X113415995Y-53613260D01*
X113417600Y-53645932D01*
X113417600Y-55129268D01*
X113415995Y-55161940D01*
X113411195Y-55194298D01*
X113403247Y-55226029D01*
X113392227Y-55256829D01*
X113378241Y-55286400D01*
X113361423Y-55314457D01*
X113341937Y-55340732D01*
X113319969Y-55364969D01*
X113295732Y-55386937D01*
X113269457Y-55406423D01*
X113241400Y-55423241D01*
X113211829Y-55437227D01*
X113181029Y-55448247D01*
X113149298Y-55456195D01*
X113116940Y-55460995D01*
X113084268Y-55462600D01*
X112150932Y-55462600D01*
X112118260Y-55460995D01*
X112085902Y-55456195D01*
X112054171Y-55448247D01*
X112023371Y-55437227D01*
X111993800Y-55423241D01*
X111965743Y-55406423D01*
X111939468Y-55386937D01*
X111915231Y-55364969D01*
X111893263Y-55340732D01*
X111873777Y-55314457D01*
X111856959Y-55286400D01*
X111842973Y-55256829D01*
X111831953Y-55226029D01*
X111824005Y-55194298D01*
X111819205Y-55161940D01*
X111817600Y-55129268D01*
X111817600Y-53645932D01*
X111819205Y-53613260D01*
X111824005Y-53580902D01*
X111831953Y-53549171D01*
X111842973Y-53518371D01*
X111856959Y-53488800D01*
X111873777Y-53460743D01*
X111893263Y-53434468D01*
X111915231Y-53410231D01*
X111939468Y-53388263D01*
X111965743Y-53368777D01*
X111993800Y-53351959D01*
X112023371Y-53337973D01*
X112054171Y-53326953D01*
X112085902Y-53319005D01*
X112118260Y-53314205D01*
X112150932Y-53312600D01*
X113084268Y-53312600D01*
X113116940Y-53314205D01*
G37*
D12*
X109667600Y-106302600D03*
D13*
X109667600Y-103762600D03*
D14*
X122317600Y-97387600D03*
X126617600Y-97387600D03*
D10*
G36*
X103961929Y-84164232D02*
G01*
X103994826Y-84169112D01*
X104027086Y-84177192D01*
X104058399Y-84188396D01*
X104088463Y-84202615D01*
X104116988Y-84219713D01*
X104143700Y-84239524D01*
X104168342Y-84261858D01*
X104190676Y-84286500D01*
X104210487Y-84313212D01*
X104227585Y-84341737D01*
X104241804Y-84371801D01*
X104253008Y-84403114D01*
X104261088Y-84435374D01*
X104265968Y-84468271D01*
X104267600Y-84501488D01*
X104267600Y-86873712D01*
X104265968Y-86906929D01*
X104261088Y-86939826D01*
X104253008Y-86972086D01*
X104241804Y-87003399D01*
X104227585Y-87033463D01*
X104210487Y-87061988D01*
X104190676Y-87088700D01*
X104168342Y-87113342D01*
X104143700Y-87135676D01*
X104116988Y-87155487D01*
X104088463Y-87172585D01*
X104058399Y-87186804D01*
X104027086Y-87198008D01*
X103994826Y-87206088D01*
X103961929Y-87210968D01*
X103928712Y-87212600D01*
X103081488Y-87212600D01*
X103048271Y-87210968D01*
X103015374Y-87206088D01*
X102983114Y-87198008D01*
X102951801Y-87186804D01*
X102921737Y-87172585D01*
X102893212Y-87155487D01*
X102866500Y-87135676D01*
X102841858Y-87113342D01*
X102819524Y-87088700D01*
X102799713Y-87061988D01*
X102782615Y-87033463D01*
X102768396Y-87003399D01*
X102757192Y-86972086D01*
X102749112Y-86939826D01*
X102744232Y-86906929D01*
X102742600Y-86873712D01*
X102742600Y-84501488D01*
X102744232Y-84468271D01*
X102749112Y-84435374D01*
X102757192Y-84403114D01*
X102768396Y-84371801D01*
X102782615Y-84341737D01*
X102799713Y-84313212D01*
X102819524Y-84286500D01*
X102841858Y-84261858D01*
X102866500Y-84239524D01*
X102893212Y-84219713D01*
X102921737Y-84202615D01*
X102951801Y-84188396D01*
X102983114Y-84177192D01*
X103015374Y-84169112D01*
X103048271Y-84164232D01*
X103081488Y-84162600D01*
X103928712Y-84162600D01*
X103961929Y-84164232D01*
G37*
G36*
X106886929Y-84164232D02*
G01*
X106919826Y-84169112D01*
X106952086Y-84177192D01*
X106983399Y-84188396D01*
X107013463Y-84202615D01*
X107041988Y-84219713D01*
X107068700Y-84239524D01*
X107093342Y-84261858D01*
X107115676Y-84286500D01*
X107135487Y-84313212D01*
X107152585Y-84341737D01*
X107166804Y-84371801D01*
X107178008Y-84403114D01*
X107186088Y-84435374D01*
X107190968Y-84468271D01*
X107192600Y-84501488D01*
X107192600Y-86873712D01*
X107190968Y-86906929D01*
X107186088Y-86939826D01*
X107178008Y-86972086D01*
X107166804Y-87003399D01*
X107152585Y-87033463D01*
X107135487Y-87061988D01*
X107115676Y-87088700D01*
X107093342Y-87113342D01*
X107068700Y-87135676D01*
X107041988Y-87155487D01*
X107013463Y-87172585D01*
X106983399Y-87186804D01*
X106952086Y-87198008D01*
X106919826Y-87206088D01*
X106886929Y-87210968D01*
X106853712Y-87212600D01*
X106006488Y-87212600D01*
X105973271Y-87210968D01*
X105940374Y-87206088D01*
X105908114Y-87198008D01*
X105876801Y-87186804D01*
X105846737Y-87172585D01*
X105818212Y-87155487D01*
X105791500Y-87135676D01*
X105766858Y-87113342D01*
X105744524Y-87088700D01*
X105724713Y-87061988D01*
X105707615Y-87033463D01*
X105693396Y-87003399D01*
X105682192Y-86972086D01*
X105674112Y-86939826D01*
X105669232Y-86906929D01*
X105667600Y-86873712D01*
X105667600Y-84501488D01*
X105669232Y-84468271D01*
X105674112Y-84435374D01*
X105682192Y-84403114D01*
X105693396Y-84371801D01*
X105707615Y-84341737D01*
X105724713Y-84313212D01*
X105744524Y-84286500D01*
X105766858Y-84261858D01*
X105791500Y-84239524D01*
X105818212Y-84219713D01*
X105846737Y-84202615D01*
X105876801Y-84188396D01*
X105908114Y-84177192D01*
X105940374Y-84169112D01*
X105973271Y-84164232D01*
X106006488Y-84162600D01*
X106853712Y-84162600D01*
X106886929Y-84164232D01*
G37*
G36*
X103986929Y-88364232D02*
G01*
X104019826Y-88369112D01*
X104052086Y-88377192D01*
X104083399Y-88388396D01*
X104113463Y-88402615D01*
X104141988Y-88419713D01*
X104168700Y-88439524D01*
X104193342Y-88461858D01*
X104215676Y-88486500D01*
X104235487Y-88513212D01*
X104252585Y-88541737D01*
X104266804Y-88571801D01*
X104278008Y-88603114D01*
X104286088Y-88635374D01*
X104290968Y-88668271D01*
X104292600Y-88701488D01*
X104292600Y-91073712D01*
X104290968Y-91106929D01*
X104286088Y-91139826D01*
X104278008Y-91172086D01*
X104266804Y-91203399D01*
X104252585Y-91233463D01*
X104235487Y-91261988D01*
X104215676Y-91288700D01*
X104193342Y-91313342D01*
X104168700Y-91335676D01*
X104141988Y-91355487D01*
X104113463Y-91372585D01*
X104083399Y-91386804D01*
X104052086Y-91398008D01*
X104019826Y-91406088D01*
X103986929Y-91410968D01*
X103953712Y-91412600D01*
X103106488Y-91412600D01*
X103073271Y-91410968D01*
X103040374Y-91406088D01*
X103008114Y-91398008D01*
X102976801Y-91386804D01*
X102946737Y-91372585D01*
X102918212Y-91355487D01*
X102891500Y-91335676D01*
X102866858Y-91313342D01*
X102844524Y-91288700D01*
X102824713Y-91261988D01*
X102807615Y-91233463D01*
X102793396Y-91203399D01*
X102782192Y-91172086D01*
X102774112Y-91139826D01*
X102769232Y-91106929D01*
X102767600Y-91073712D01*
X102767600Y-88701488D01*
X102769232Y-88668271D01*
X102774112Y-88635374D01*
X102782192Y-88603114D01*
X102793396Y-88571801D01*
X102807615Y-88541737D01*
X102824713Y-88513212D01*
X102844524Y-88486500D01*
X102866858Y-88461858D01*
X102891500Y-88439524D01*
X102918212Y-88419713D01*
X102946737Y-88402615D01*
X102976801Y-88388396D01*
X103008114Y-88377192D01*
X103040374Y-88369112D01*
X103073271Y-88364232D01*
X103106488Y-88362600D01*
X103953712Y-88362600D01*
X103986929Y-88364232D01*
G37*
G36*
X106911929Y-88364232D02*
G01*
X106944826Y-88369112D01*
X106977086Y-88377192D01*
X107008399Y-88388396D01*
X107038463Y-88402615D01*
X107066988Y-88419713D01*
X107093700Y-88439524D01*
X107118342Y-88461858D01*
X107140676Y-88486500D01*
X107160487Y-88513212D01*
X107177585Y-88541737D01*
X107191804Y-88571801D01*
X107203008Y-88603114D01*
X107211088Y-88635374D01*
X107215968Y-88668271D01*
X107217600Y-88701488D01*
X107217600Y-91073712D01*
X107215968Y-91106929D01*
X107211088Y-91139826D01*
X107203008Y-91172086D01*
X107191804Y-91203399D01*
X107177585Y-91233463D01*
X107160487Y-91261988D01*
X107140676Y-91288700D01*
X107118342Y-91313342D01*
X107093700Y-91335676D01*
X107066988Y-91355487D01*
X107038463Y-91372585D01*
X107008399Y-91386804D01*
X106977086Y-91398008D01*
X106944826Y-91406088D01*
X106911929Y-91410968D01*
X106878712Y-91412600D01*
X106031488Y-91412600D01*
X105998271Y-91410968D01*
X105965374Y-91406088D01*
X105933114Y-91398008D01*
X105901801Y-91386804D01*
X105871737Y-91372585D01*
X105843212Y-91355487D01*
X105816500Y-91335676D01*
X105791858Y-91313342D01*
X105769524Y-91288700D01*
X105749713Y-91261988D01*
X105732615Y-91233463D01*
X105718396Y-91203399D01*
X105707192Y-91172086D01*
X105699112Y-91139826D01*
X105694232Y-91106929D01*
X105692600Y-91073712D01*
X105692600Y-88701488D01*
X105694232Y-88668271D01*
X105699112Y-88635374D01*
X105707192Y-88603114D01*
X105718396Y-88571801D01*
X105732615Y-88541737D01*
X105749713Y-88513212D01*
X105769524Y-88486500D01*
X105791858Y-88461858D01*
X105816500Y-88439524D01*
X105843212Y-88419713D01*
X105871737Y-88402615D01*
X105901801Y-88388396D01*
X105933114Y-88377192D01*
X105965374Y-88369112D01*
X105998271Y-88364232D01*
X106031488Y-88362600D01*
X106878712Y-88362600D01*
X106911929Y-88364232D01*
G37*
G36*
X108786929Y-84164232D02*
G01*
X108819826Y-84169112D01*
X108852086Y-84177192D01*
X108883399Y-84188396D01*
X108913463Y-84202615D01*
X108941988Y-84219713D01*
X108968700Y-84239524D01*
X108993342Y-84261858D01*
X109015676Y-84286500D01*
X109035487Y-84313212D01*
X109052585Y-84341737D01*
X109066804Y-84371801D01*
X109078008Y-84403114D01*
X109086088Y-84435374D01*
X109090968Y-84468271D01*
X109092600Y-84501488D01*
X109092600Y-86873712D01*
X109090968Y-86906929D01*
X109086088Y-86939826D01*
X109078008Y-86972086D01*
X109066804Y-87003399D01*
X109052585Y-87033463D01*
X109035487Y-87061988D01*
X109015676Y-87088700D01*
X108993342Y-87113342D01*
X108968700Y-87135676D01*
X108941988Y-87155487D01*
X108913463Y-87172585D01*
X108883399Y-87186804D01*
X108852086Y-87198008D01*
X108819826Y-87206088D01*
X108786929Y-87210968D01*
X108753712Y-87212600D01*
X107906488Y-87212600D01*
X107873271Y-87210968D01*
X107840374Y-87206088D01*
X107808114Y-87198008D01*
X107776801Y-87186804D01*
X107746737Y-87172585D01*
X107718212Y-87155487D01*
X107691500Y-87135676D01*
X107666858Y-87113342D01*
X107644524Y-87088700D01*
X107624713Y-87061988D01*
X107607615Y-87033463D01*
X107593396Y-87003399D01*
X107582192Y-86972086D01*
X107574112Y-86939826D01*
X107569232Y-86906929D01*
X107567600Y-86873712D01*
X107567600Y-84501488D01*
X107569232Y-84468271D01*
X107574112Y-84435374D01*
X107582192Y-84403114D01*
X107593396Y-84371801D01*
X107607615Y-84341737D01*
X107624713Y-84313212D01*
X107644524Y-84286500D01*
X107666858Y-84261858D01*
X107691500Y-84239524D01*
X107718212Y-84219713D01*
X107746737Y-84202615D01*
X107776801Y-84188396D01*
X107808114Y-84177192D01*
X107840374Y-84169112D01*
X107873271Y-84164232D01*
X107906488Y-84162600D01*
X108753712Y-84162600D01*
X108786929Y-84164232D01*
G37*
G36*
X111711929Y-84164232D02*
G01*
X111744826Y-84169112D01*
X111777086Y-84177192D01*
X111808399Y-84188396D01*
X111838463Y-84202615D01*
X111866988Y-84219713D01*
X111893700Y-84239524D01*
X111918342Y-84261858D01*
X111940676Y-84286500D01*
X111960487Y-84313212D01*
X111977585Y-84341737D01*
X111991804Y-84371801D01*
X112003008Y-84403114D01*
X112011088Y-84435374D01*
X112015968Y-84468271D01*
X112017600Y-84501488D01*
X112017600Y-86873712D01*
X112015968Y-86906929D01*
X112011088Y-86939826D01*
X112003008Y-86972086D01*
X111991804Y-87003399D01*
X111977585Y-87033463D01*
X111960487Y-87061988D01*
X111940676Y-87088700D01*
X111918342Y-87113342D01*
X111893700Y-87135676D01*
X111866988Y-87155487D01*
X111838463Y-87172585D01*
X111808399Y-87186804D01*
X111777086Y-87198008D01*
X111744826Y-87206088D01*
X111711929Y-87210968D01*
X111678712Y-87212600D01*
X110831488Y-87212600D01*
X110798271Y-87210968D01*
X110765374Y-87206088D01*
X110733114Y-87198008D01*
X110701801Y-87186804D01*
X110671737Y-87172585D01*
X110643212Y-87155487D01*
X110616500Y-87135676D01*
X110591858Y-87113342D01*
X110569524Y-87088700D01*
X110549713Y-87061988D01*
X110532615Y-87033463D01*
X110518396Y-87003399D01*
X110507192Y-86972086D01*
X110499112Y-86939826D01*
X110494232Y-86906929D01*
X110492600Y-86873712D01*
X110492600Y-84501488D01*
X110494232Y-84468271D01*
X110499112Y-84435374D01*
X110507192Y-84403114D01*
X110518396Y-84371801D01*
X110532615Y-84341737D01*
X110549713Y-84313212D01*
X110569524Y-84286500D01*
X110591858Y-84261858D01*
X110616500Y-84239524D01*
X110643212Y-84219713D01*
X110671737Y-84202615D01*
X110701801Y-84188396D01*
X110733114Y-84177192D01*
X110765374Y-84169112D01*
X110798271Y-84164232D01*
X110831488Y-84162600D01*
X111678712Y-84162600D01*
X111711929Y-84164232D01*
G37*
G36*
X108811929Y-88364232D02*
G01*
X108844826Y-88369112D01*
X108877086Y-88377192D01*
X108908399Y-88388396D01*
X108938463Y-88402615D01*
X108966988Y-88419713D01*
X108993700Y-88439524D01*
X109018342Y-88461858D01*
X109040676Y-88486500D01*
X109060487Y-88513212D01*
X109077585Y-88541737D01*
X109091804Y-88571801D01*
X109103008Y-88603114D01*
X109111088Y-88635374D01*
X109115968Y-88668271D01*
X109117600Y-88701488D01*
X109117600Y-91073712D01*
X109115968Y-91106929D01*
X109111088Y-91139826D01*
X109103008Y-91172086D01*
X109091804Y-91203399D01*
X109077585Y-91233463D01*
X109060487Y-91261988D01*
X109040676Y-91288700D01*
X109018342Y-91313342D01*
X108993700Y-91335676D01*
X108966988Y-91355487D01*
X108938463Y-91372585D01*
X108908399Y-91386804D01*
X108877086Y-91398008D01*
X108844826Y-91406088D01*
X108811929Y-91410968D01*
X108778712Y-91412600D01*
X107931488Y-91412600D01*
X107898271Y-91410968D01*
X107865374Y-91406088D01*
X107833114Y-91398008D01*
X107801801Y-91386804D01*
X107771737Y-91372585D01*
X107743212Y-91355487D01*
X107716500Y-91335676D01*
X107691858Y-91313342D01*
X107669524Y-91288700D01*
X107649713Y-91261988D01*
X107632615Y-91233463D01*
X107618396Y-91203399D01*
X107607192Y-91172086D01*
X107599112Y-91139826D01*
X107594232Y-91106929D01*
X107592600Y-91073712D01*
X107592600Y-88701488D01*
X107594232Y-88668271D01*
X107599112Y-88635374D01*
X107607192Y-88603114D01*
X107618396Y-88571801D01*
X107632615Y-88541737D01*
X107649713Y-88513212D01*
X107669524Y-88486500D01*
X107691858Y-88461858D01*
X107716500Y-88439524D01*
X107743212Y-88419713D01*
X107771737Y-88402615D01*
X107801801Y-88388396D01*
X107833114Y-88377192D01*
X107865374Y-88369112D01*
X107898271Y-88364232D01*
X107931488Y-88362600D01*
X108778712Y-88362600D01*
X108811929Y-88364232D01*
G37*
G36*
X111736929Y-88364232D02*
G01*
X111769826Y-88369112D01*
X111802086Y-88377192D01*
X111833399Y-88388396D01*
X111863463Y-88402615D01*
X111891988Y-88419713D01*
X111918700Y-88439524D01*
X111943342Y-88461858D01*
X111965676Y-88486500D01*
X111985487Y-88513212D01*
X112002585Y-88541737D01*
X112016804Y-88571801D01*
X112028008Y-88603114D01*
X112036088Y-88635374D01*
X112040968Y-88668271D01*
X112042600Y-88701488D01*
X112042600Y-91073712D01*
X112040968Y-91106929D01*
X112036088Y-91139826D01*
X112028008Y-91172086D01*
X112016804Y-91203399D01*
X112002585Y-91233463D01*
X111985487Y-91261988D01*
X111965676Y-91288700D01*
X111943342Y-91313342D01*
X111918700Y-91335676D01*
X111891988Y-91355487D01*
X111863463Y-91372585D01*
X111833399Y-91386804D01*
X111802086Y-91398008D01*
X111769826Y-91406088D01*
X111736929Y-91410968D01*
X111703712Y-91412600D01*
X110856488Y-91412600D01*
X110823271Y-91410968D01*
X110790374Y-91406088D01*
X110758114Y-91398008D01*
X110726801Y-91386804D01*
X110696737Y-91372585D01*
X110668212Y-91355487D01*
X110641500Y-91335676D01*
X110616858Y-91313342D01*
X110594524Y-91288700D01*
X110574713Y-91261988D01*
X110557615Y-91233463D01*
X110543396Y-91203399D01*
X110532192Y-91172086D01*
X110524112Y-91139826D01*
X110519232Y-91106929D01*
X110517600Y-91073712D01*
X110517600Y-88701488D01*
X110519232Y-88668271D01*
X110524112Y-88635374D01*
X110532192Y-88603114D01*
X110543396Y-88571801D01*
X110557615Y-88541737D01*
X110574713Y-88513212D01*
X110594524Y-88486500D01*
X110616858Y-88461858D01*
X110641500Y-88439524D01*
X110668212Y-88419713D01*
X110696737Y-88402615D01*
X110726801Y-88388396D01*
X110758114Y-88377192D01*
X110790374Y-88369112D01*
X110823271Y-88364232D01*
X110856488Y-88362600D01*
X111703712Y-88362600D01*
X111736929Y-88364232D01*
G37*
G36*
X115628595Y-84164232D02*
G01*
X115661492Y-84169112D01*
X115693752Y-84177192D01*
X115725065Y-84188396D01*
X115755129Y-84202615D01*
X115783654Y-84219713D01*
X115810366Y-84239524D01*
X115835008Y-84261858D01*
X115857342Y-84286500D01*
X115877153Y-84313212D01*
X115894251Y-84341737D01*
X115908470Y-84371801D01*
X115919674Y-84403114D01*
X115927754Y-84435374D01*
X115932634Y-84468271D01*
X115934266Y-84501488D01*
X115934266Y-86873712D01*
X115932634Y-86906929D01*
X115927754Y-86939826D01*
X115919674Y-86972086D01*
X115908470Y-87003399D01*
X115894251Y-87033463D01*
X115877153Y-87061988D01*
X115857342Y-87088700D01*
X115835008Y-87113342D01*
X115810366Y-87135676D01*
X115783654Y-87155487D01*
X115755129Y-87172585D01*
X115725065Y-87186804D01*
X115693752Y-87198008D01*
X115661492Y-87206088D01*
X115628595Y-87210968D01*
X115595378Y-87212600D01*
X114748154Y-87212600D01*
X114714937Y-87210968D01*
X114682040Y-87206088D01*
X114649780Y-87198008D01*
X114618467Y-87186804D01*
X114588403Y-87172585D01*
X114559878Y-87155487D01*
X114533166Y-87135676D01*
X114508524Y-87113342D01*
X114486190Y-87088700D01*
X114466379Y-87061988D01*
X114449281Y-87033463D01*
X114435062Y-87003399D01*
X114423858Y-86972086D01*
X114415778Y-86939826D01*
X114410898Y-86906929D01*
X114409266Y-86873712D01*
X114409266Y-84501488D01*
X114410898Y-84468271D01*
X114415778Y-84435374D01*
X114423858Y-84403114D01*
X114435062Y-84371801D01*
X114449281Y-84341737D01*
X114466379Y-84313212D01*
X114486190Y-84286500D01*
X114508524Y-84261858D01*
X114533166Y-84239524D01*
X114559878Y-84219713D01*
X114588403Y-84202615D01*
X114618467Y-84188396D01*
X114649780Y-84177192D01*
X114682040Y-84169112D01*
X114714937Y-84164232D01*
X114748154Y-84162600D01*
X115595378Y-84162600D01*
X115628595Y-84164232D01*
G37*
G36*
X118553595Y-84164232D02*
G01*
X118586492Y-84169112D01*
X118618752Y-84177192D01*
X118650065Y-84188396D01*
X118680129Y-84202615D01*
X118708654Y-84219713D01*
X118735366Y-84239524D01*
X118760008Y-84261858D01*
X118782342Y-84286500D01*
X118802153Y-84313212D01*
X118819251Y-84341737D01*
X118833470Y-84371801D01*
X118844674Y-84403114D01*
X118852754Y-84435374D01*
X118857634Y-84468271D01*
X118859266Y-84501488D01*
X118859266Y-86873712D01*
X118857634Y-86906929D01*
X118852754Y-86939826D01*
X118844674Y-86972086D01*
X118833470Y-87003399D01*
X118819251Y-87033463D01*
X118802153Y-87061988D01*
X118782342Y-87088700D01*
X118760008Y-87113342D01*
X118735366Y-87135676D01*
X118708654Y-87155487D01*
X118680129Y-87172585D01*
X118650065Y-87186804D01*
X118618752Y-87198008D01*
X118586492Y-87206088D01*
X118553595Y-87210968D01*
X118520378Y-87212600D01*
X117673154Y-87212600D01*
X117639937Y-87210968D01*
X117607040Y-87206088D01*
X117574780Y-87198008D01*
X117543467Y-87186804D01*
X117513403Y-87172585D01*
X117484878Y-87155487D01*
X117458166Y-87135676D01*
X117433524Y-87113342D01*
X117411190Y-87088700D01*
X117391379Y-87061988D01*
X117374281Y-87033463D01*
X117360062Y-87003399D01*
X117348858Y-86972086D01*
X117340778Y-86939826D01*
X117335898Y-86906929D01*
X117334266Y-86873712D01*
X117334266Y-84501488D01*
X117335898Y-84468271D01*
X117340778Y-84435374D01*
X117348858Y-84403114D01*
X117360062Y-84371801D01*
X117374281Y-84341737D01*
X117391379Y-84313212D01*
X117411190Y-84286500D01*
X117433524Y-84261858D01*
X117458166Y-84239524D01*
X117484878Y-84219713D01*
X117513403Y-84202615D01*
X117543467Y-84188396D01*
X117574780Y-84177192D01*
X117607040Y-84169112D01*
X117639937Y-84164232D01*
X117673154Y-84162600D01*
X118520378Y-84162600D01*
X118553595Y-84164232D01*
G37*
G36*
X115653595Y-88264232D02*
G01*
X115686492Y-88269112D01*
X115718752Y-88277192D01*
X115750065Y-88288396D01*
X115780129Y-88302615D01*
X115808654Y-88319713D01*
X115835366Y-88339524D01*
X115860008Y-88361858D01*
X115882342Y-88386500D01*
X115902153Y-88413212D01*
X115919251Y-88441737D01*
X115933470Y-88471801D01*
X115944674Y-88503114D01*
X115952754Y-88535374D01*
X115957634Y-88568271D01*
X115959266Y-88601488D01*
X115959266Y-90973712D01*
X115957634Y-91006929D01*
X115952754Y-91039826D01*
X115944674Y-91072086D01*
X115933470Y-91103399D01*
X115919251Y-91133463D01*
X115902153Y-91161988D01*
X115882342Y-91188700D01*
X115860008Y-91213342D01*
X115835366Y-91235676D01*
X115808654Y-91255487D01*
X115780129Y-91272585D01*
X115750065Y-91286804D01*
X115718752Y-91298008D01*
X115686492Y-91306088D01*
X115653595Y-91310968D01*
X115620378Y-91312600D01*
X114773154Y-91312600D01*
X114739937Y-91310968D01*
X114707040Y-91306088D01*
X114674780Y-91298008D01*
X114643467Y-91286804D01*
X114613403Y-91272585D01*
X114584878Y-91255487D01*
X114558166Y-91235676D01*
X114533524Y-91213342D01*
X114511190Y-91188700D01*
X114491379Y-91161988D01*
X114474281Y-91133463D01*
X114460062Y-91103399D01*
X114448858Y-91072086D01*
X114440778Y-91039826D01*
X114435898Y-91006929D01*
X114434266Y-90973712D01*
X114434266Y-88601488D01*
X114435898Y-88568271D01*
X114440778Y-88535374D01*
X114448858Y-88503114D01*
X114460062Y-88471801D01*
X114474281Y-88441737D01*
X114491379Y-88413212D01*
X114511190Y-88386500D01*
X114533524Y-88361858D01*
X114558166Y-88339524D01*
X114584878Y-88319713D01*
X114613403Y-88302615D01*
X114643467Y-88288396D01*
X114674780Y-88277192D01*
X114707040Y-88269112D01*
X114739937Y-88264232D01*
X114773154Y-88262600D01*
X115620378Y-88262600D01*
X115653595Y-88264232D01*
G37*
G36*
X118578595Y-88264232D02*
G01*
X118611492Y-88269112D01*
X118643752Y-88277192D01*
X118675065Y-88288396D01*
X118705129Y-88302615D01*
X118733654Y-88319713D01*
X118760366Y-88339524D01*
X118785008Y-88361858D01*
X118807342Y-88386500D01*
X118827153Y-88413212D01*
X118844251Y-88441737D01*
X118858470Y-88471801D01*
X118869674Y-88503114D01*
X118877754Y-88535374D01*
X118882634Y-88568271D01*
X118884266Y-88601488D01*
X118884266Y-90973712D01*
X118882634Y-91006929D01*
X118877754Y-91039826D01*
X118869674Y-91072086D01*
X118858470Y-91103399D01*
X118844251Y-91133463D01*
X118827153Y-91161988D01*
X118807342Y-91188700D01*
X118785008Y-91213342D01*
X118760366Y-91235676D01*
X118733654Y-91255487D01*
X118705129Y-91272585D01*
X118675065Y-91286804D01*
X118643752Y-91298008D01*
X118611492Y-91306088D01*
X118578595Y-91310968D01*
X118545378Y-91312600D01*
X117698154Y-91312600D01*
X117664937Y-91310968D01*
X117632040Y-91306088D01*
X117599780Y-91298008D01*
X117568467Y-91286804D01*
X117538403Y-91272585D01*
X117509878Y-91255487D01*
X117483166Y-91235676D01*
X117458524Y-91213342D01*
X117436190Y-91188700D01*
X117416379Y-91161988D01*
X117399281Y-91133463D01*
X117385062Y-91103399D01*
X117373858Y-91072086D01*
X117365778Y-91039826D01*
X117360898Y-91006929D01*
X117359266Y-90973712D01*
X117359266Y-88601488D01*
X117360898Y-88568271D01*
X117365778Y-88535374D01*
X117373858Y-88503114D01*
X117385062Y-88471801D01*
X117399281Y-88441737D01*
X117416379Y-88413212D01*
X117436190Y-88386500D01*
X117458524Y-88361858D01*
X117483166Y-88339524D01*
X117509878Y-88319713D01*
X117538403Y-88302615D01*
X117568467Y-88288396D01*
X117599780Y-88277192D01*
X117632040Y-88269112D01*
X117664937Y-88264232D01*
X117698154Y-88262600D01*
X118545378Y-88262600D01*
X118578595Y-88264232D01*
G37*
G36*
X120436929Y-84164232D02*
G01*
X120469826Y-84169112D01*
X120502086Y-84177192D01*
X120533399Y-84188396D01*
X120563463Y-84202615D01*
X120591988Y-84219713D01*
X120618700Y-84239524D01*
X120643342Y-84261858D01*
X120665676Y-84286500D01*
X120685487Y-84313212D01*
X120702585Y-84341737D01*
X120716804Y-84371801D01*
X120728008Y-84403114D01*
X120736088Y-84435374D01*
X120740968Y-84468271D01*
X120742600Y-84501488D01*
X120742600Y-86873712D01*
X120740968Y-86906929D01*
X120736088Y-86939826D01*
X120728008Y-86972086D01*
X120716804Y-87003399D01*
X120702585Y-87033463D01*
X120685487Y-87061988D01*
X120665676Y-87088700D01*
X120643342Y-87113342D01*
X120618700Y-87135676D01*
X120591988Y-87155487D01*
X120563463Y-87172585D01*
X120533399Y-87186804D01*
X120502086Y-87198008D01*
X120469826Y-87206088D01*
X120436929Y-87210968D01*
X120403712Y-87212600D01*
X119556488Y-87212600D01*
X119523271Y-87210968D01*
X119490374Y-87206088D01*
X119458114Y-87198008D01*
X119426801Y-87186804D01*
X119396737Y-87172585D01*
X119368212Y-87155487D01*
X119341500Y-87135676D01*
X119316858Y-87113342D01*
X119294524Y-87088700D01*
X119274713Y-87061988D01*
X119257615Y-87033463D01*
X119243396Y-87003399D01*
X119232192Y-86972086D01*
X119224112Y-86939826D01*
X119219232Y-86906929D01*
X119217600Y-86873712D01*
X119217600Y-84501488D01*
X119219232Y-84468271D01*
X119224112Y-84435374D01*
X119232192Y-84403114D01*
X119243396Y-84371801D01*
X119257615Y-84341737D01*
X119274713Y-84313212D01*
X119294524Y-84286500D01*
X119316858Y-84261858D01*
X119341500Y-84239524D01*
X119368212Y-84219713D01*
X119396737Y-84202615D01*
X119426801Y-84188396D01*
X119458114Y-84177192D01*
X119490374Y-84169112D01*
X119523271Y-84164232D01*
X119556488Y-84162600D01*
X120403712Y-84162600D01*
X120436929Y-84164232D01*
G37*
G36*
X123361929Y-84164232D02*
G01*
X123394826Y-84169112D01*
X123427086Y-84177192D01*
X123458399Y-84188396D01*
X123488463Y-84202615D01*
X123516988Y-84219713D01*
X123543700Y-84239524D01*
X123568342Y-84261858D01*
X123590676Y-84286500D01*
X123610487Y-84313212D01*
X123627585Y-84341737D01*
X123641804Y-84371801D01*
X123653008Y-84403114D01*
X123661088Y-84435374D01*
X123665968Y-84468271D01*
X123667600Y-84501488D01*
X123667600Y-86873712D01*
X123665968Y-86906929D01*
X123661088Y-86939826D01*
X123653008Y-86972086D01*
X123641804Y-87003399D01*
X123627585Y-87033463D01*
X123610487Y-87061988D01*
X123590676Y-87088700D01*
X123568342Y-87113342D01*
X123543700Y-87135676D01*
X123516988Y-87155487D01*
X123488463Y-87172585D01*
X123458399Y-87186804D01*
X123427086Y-87198008D01*
X123394826Y-87206088D01*
X123361929Y-87210968D01*
X123328712Y-87212600D01*
X122481488Y-87212600D01*
X122448271Y-87210968D01*
X122415374Y-87206088D01*
X122383114Y-87198008D01*
X122351801Y-87186804D01*
X122321737Y-87172585D01*
X122293212Y-87155487D01*
X122266500Y-87135676D01*
X122241858Y-87113342D01*
X122219524Y-87088700D01*
X122199713Y-87061988D01*
X122182615Y-87033463D01*
X122168396Y-87003399D01*
X122157192Y-86972086D01*
X122149112Y-86939826D01*
X122144232Y-86906929D01*
X122142600Y-86873712D01*
X122142600Y-84501488D01*
X122144232Y-84468271D01*
X122149112Y-84435374D01*
X122157192Y-84403114D01*
X122168396Y-84371801D01*
X122182615Y-84341737D01*
X122199713Y-84313212D01*
X122219524Y-84286500D01*
X122241858Y-84261858D01*
X122266500Y-84239524D01*
X122293212Y-84219713D01*
X122321737Y-84202615D01*
X122351801Y-84188396D01*
X122383114Y-84177192D01*
X122415374Y-84169112D01*
X122448271Y-84164232D01*
X122481488Y-84162600D01*
X123328712Y-84162600D01*
X123361929Y-84164232D01*
G37*
G36*
X106374107Y-103434274D02*
G01*
X106407846Y-103439278D01*
X106440931Y-103447566D01*
X106473045Y-103459056D01*
X106503879Y-103473639D01*
X106533134Y-103491174D01*
X106560530Y-103511492D01*
X106585802Y-103534398D01*
X106608708Y-103559670D01*
X106629026Y-103587066D01*
X106646561Y-103616321D01*
X106661144Y-103647155D01*
X106672634Y-103679269D01*
X106680922Y-103712354D01*
X106685926Y-103746093D01*
X106687600Y-103780160D01*
X106687600Y-104510040D01*
X106685926Y-104544107D01*
X106680922Y-104577846D01*
X106672634Y-104610931D01*
X106661144Y-104643045D01*
X106646561Y-104673879D01*
X106629026Y-104703134D01*
X106608708Y-104730530D01*
X106585802Y-104755802D01*
X106560530Y-104778708D01*
X106533134Y-104799026D01*
X106503879Y-104816561D01*
X106473045Y-104831144D01*
X106440931Y-104842634D01*
X106407846Y-104850922D01*
X106374107Y-104855926D01*
X106340040Y-104857600D01*
X105235160Y-104857600D01*
X105201093Y-104855926D01*
X105167354Y-104850922D01*
X105134269Y-104842634D01*
X105102155Y-104831144D01*
X105071321Y-104816561D01*
X105042066Y-104799026D01*
X105014670Y-104778708D01*
X104989398Y-104755802D01*
X104966492Y-104730530D01*
X104946174Y-104703134D01*
X104928639Y-104673879D01*
X104914056Y-104643045D01*
X104902566Y-104610931D01*
X104894278Y-104577846D01*
X104889274Y-104544107D01*
X104887600Y-104510040D01*
X104887600Y-103780160D01*
X104889274Y-103746093D01*
X104894278Y-103712354D01*
X104902566Y-103679269D01*
X104914056Y-103647155D01*
X104928639Y-103616321D01*
X104946174Y-103587066D01*
X104966492Y-103559670D01*
X104989398Y-103534398D01*
X105014670Y-103511492D01*
X105042066Y-103491174D01*
X105071321Y-103473639D01*
X105102155Y-103459056D01*
X105134269Y-103447566D01*
X105167354Y-103439278D01*
X105201093Y-103434274D01*
X105235160Y-103432600D01*
X106340040Y-103432600D01*
X106374107Y-103434274D01*
G37*
G36*
X106374107Y-105259274D02*
G01*
X106407846Y-105264278D01*
X106440931Y-105272566D01*
X106473045Y-105284056D01*
X106503879Y-105298639D01*
X106533134Y-105316174D01*
X106560530Y-105336492D01*
X106585802Y-105359398D01*
X106608708Y-105384670D01*
X106629026Y-105412066D01*
X106646561Y-105441321D01*
X106661144Y-105472155D01*
X106672634Y-105504269D01*
X106680922Y-105537354D01*
X106685926Y-105571093D01*
X106687600Y-105605160D01*
X106687600Y-106335040D01*
X106685926Y-106369107D01*
X106680922Y-106402846D01*
X106672634Y-106435931D01*
X106661144Y-106468045D01*
X106646561Y-106498879D01*
X106629026Y-106528134D01*
X106608708Y-106555530D01*
X106585802Y-106580802D01*
X106560530Y-106603708D01*
X106533134Y-106624026D01*
X106503879Y-106641561D01*
X106473045Y-106656144D01*
X106440931Y-106667634D01*
X106407846Y-106675922D01*
X106374107Y-106680926D01*
X106340040Y-106682600D01*
X105235160Y-106682600D01*
X105201093Y-106680926D01*
X105167354Y-106675922D01*
X105134269Y-106667634D01*
X105102155Y-106656144D01*
X105071321Y-106641561D01*
X105042066Y-106624026D01*
X105014670Y-106603708D01*
X104989398Y-106580802D01*
X104966492Y-106555530D01*
X104946174Y-106528134D01*
X104928639Y-106498879D01*
X104914056Y-106468045D01*
X104902566Y-106435931D01*
X104894278Y-106402846D01*
X104889274Y-106369107D01*
X104887600Y-106335040D01*
X104887600Y-105605160D01*
X104889274Y-105571093D01*
X104894278Y-105537354D01*
X104902566Y-105504269D01*
X104914056Y-105472155D01*
X104928639Y-105441321D01*
X104946174Y-105412066D01*
X104966492Y-105384670D01*
X104989398Y-105359398D01*
X105014670Y-105336492D01*
X105042066Y-105316174D01*
X105071321Y-105298639D01*
X105102155Y-105284056D01*
X105134269Y-105272566D01*
X105167354Y-105264278D01*
X105201093Y-105259274D01*
X105235160Y-105257600D01*
X106340040Y-105257600D01*
X106374107Y-105259274D01*
G37*
G36*
X120461929Y-88264232D02*
G01*
X120494826Y-88269112D01*
X120527086Y-88277192D01*
X120558399Y-88288396D01*
X120588463Y-88302615D01*
X120616988Y-88319713D01*
X120643700Y-88339524D01*
X120668342Y-88361858D01*
X120690676Y-88386500D01*
X120710487Y-88413212D01*
X120727585Y-88441737D01*
X120741804Y-88471801D01*
X120753008Y-88503114D01*
X120761088Y-88535374D01*
X120765968Y-88568271D01*
X120767600Y-88601488D01*
X120767600Y-90973712D01*
X120765968Y-91006929D01*
X120761088Y-91039826D01*
X120753008Y-91072086D01*
X120741804Y-91103399D01*
X120727585Y-91133463D01*
X120710487Y-91161988D01*
X120690676Y-91188700D01*
X120668342Y-91213342D01*
X120643700Y-91235676D01*
X120616988Y-91255487D01*
X120588463Y-91272585D01*
X120558399Y-91286804D01*
X120527086Y-91298008D01*
X120494826Y-91306088D01*
X120461929Y-91310968D01*
X120428712Y-91312600D01*
X119581488Y-91312600D01*
X119548271Y-91310968D01*
X119515374Y-91306088D01*
X119483114Y-91298008D01*
X119451801Y-91286804D01*
X119421737Y-91272585D01*
X119393212Y-91255487D01*
X119366500Y-91235676D01*
X119341858Y-91213342D01*
X119319524Y-91188700D01*
X119299713Y-91161988D01*
X119282615Y-91133463D01*
X119268396Y-91103399D01*
X119257192Y-91072086D01*
X119249112Y-91039826D01*
X119244232Y-91006929D01*
X119242600Y-90973712D01*
X119242600Y-88601488D01*
X119244232Y-88568271D01*
X119249112Y-88535374D01*
X119257192Y-88503114D01*
X119268396Y-88471801D01*
X119282615Y-88441737D01*
X119299713Y-88413212D01*
X119319524Y-88386500D01*
X119341858Y-88361858D01*
X119366500Y-88339524D01*
X119393212Y-88319713D01*
X119421737Y-88302615D01*
X119451801Y-88288396D01*
X119483114Y-88277192D01*
X119515374Y-88269112D01*
X119548271Y-88264232D01*
X119581488Y-88262600D01*
X120428712Y-88262600D01*
X120461929Y-88264232D01*
G37*
G36*
X123386929Y-88264232D02*
G01*
X123419826Y-88269112D01*
X123452086Y-88277192D01*
X123483399Y-88288396D01*
X123513463Y-88302615D01*
X123541988Y-88319713D01*
X123568700Y-88339524D01*
X123593342Y-88361858D01*
X123615676Y-88386500D01*
X123635487Y-88413212D01*
X123652585Y-88441737D01*
X123666804Y-88471801D01*
X123678008Y-88503114D01*
X123686088Y-88535374D01*
X123690968Y-88568271D01*
X123692600Y-88601488D01*
X123692600Y-90973712D01*
X123690968Y-91006929D01*
X123686088Y-91039826D01*
X123678008Y-91072086D01*
X123666804Y-91103399D01*
X123652585Y-91133463D01*
X123635487Y-91161988D01*
X123615676Y-91188700D01*
X123593342Y-91213342D01*
X123568700Y-91235676D01*
X123541988Y-91255487D01*
X123513463Y-91272585D01*
X123483399Y-91286804D01*
X123452086Y-91298008D01*
X123419826Y-91306088D01*
X123386929Y-91310968D01*
X123353712Y-91312600D01*
X122506488Y-91312600D01*
X122473271Y-91310968D01*
X122440374Y-91306088D01*
X122408114Y-91298008D01*
X122376801Y-91286804D01*
X122346737Y-91272585D01*
X122318212Y-91255487D01*
X122291500Y-91235676D01*
X122266858Y-91213342D01*
X122244524Y-91188700D01*
X122224713Y-91161988D01*
X122207615Y-91133463D01*
X122193396Y-91103399D01*
X122182192Y-91072086D01*
X122174112Y-91039826D01*
X122169232Y-91006929D01*
X122167600Y-90973712D01*
X122167600Y-88601488D01*
X122169232Y-88568271D01*
X122174112Y-88535374D01*
X122182192Y-88503114D01*
X122193396Y-88471801D01*
X122207615Y-88441737D01*
X122224713Y-88413212D01*
X122244524Y-88386500D01*
X122266858Y-88361858D01*
X122291500Y-88339524D01*
X122318212Y-88319713D01*
X122346737Y-88302615D01*
X122376801Y-88288396D01*
X122408114Y-88277192D01*
X122440374Y-88269112D01*
X122473271Y-88264232D01*
X122506488Y-88262600D01*
X123353712Y-88262600D01*
X123386929Y-88264232D01*
G37*
G36*
X131154107Y-72164274D02*
G01*
X131187846Y-72169278D01*
X131220931Y-72177566D01*
X131253045Y-72189056D01*
X131283879Y-72203639D01*
X131313134Y-72221174D01*
X131340530Y-72241492D01*
X131365802Y-72264398D01*
X131388708Y-72289670D01*
X131409026Y-72317066D01*
X131426561Y-72346321D01*
X131441144Y-72377155D01*
X131452634Y-72409269D01*
X131460922Y-72442354D01*
X131465926Y-72476093D01*
X131467600Y-72510160D01*
X131467600Y-73615040D01*
X131465926Y-73649107D01*
X131460922Y-73682846D01*
X131452634Y-73715931D01*
X131441144Y-73748045D01*
X131426561Y-73778879D01*
X131409026Y-73808134D01*
X131388708Y-73835530D01*
X131365802Y-73860802D01*
X131340530Y-73883708D01*
X131313134Y-73904026D01*
X131283879Y-73921561D01*
X131253045Y-73936144D01*
X131220931Y-73947634D01*
X131187846Y-73955922D01*
X131154107Y-73960926D01*
X131120040Y-73962600D01*
X130390160Y-73962600D01*
X130356093Y-73960926D01*
X130322354Y-73955922D01*
X130289269Y-73947634D01*
X130257155Y-73936144D01*
X130226321Y-73921561D01*
X130197066Y-73904026D01*
X130169670Y-73883708D01*
X130144398Y-73860802D01*
X130121492Y-73835530D01*
X130101174Y-73808134D01*
X130083639Y-73778879D01*
X130069056Y-73748045D01*
X130057566Y-73715931D01*
X130049278Y-73682846D01*
X130044274Y-73649107D01*
X130042600Y-73615040D01*
X130042600Y-72510160D01*
X130044274Y-72476093D01*
X130049278Y-72442354D01*
X130057566Y-72409269D01*
X130069056Y-72377155D01*
X130083639Y-72346321D01*
X130101174Y-72317066D01*
X130121492Y-72289670D01*
X130144398Y-72264398D01*
X130169670Y-72241492D01*
X130197066Y-72221174D01*
X130226321Y-72203639D01*
X130257155Y-72189056D01*
X130289269Y-72177566D01*
X130322354Y-72169278D01*
X130356093Y-72164274D01*
X130390160Y-72162600D01*
X131120040Y-72162600D01*
X131154107Y-72164274D01*
G37*
G36*
X129329107Y-72164274D02*
G01*
X129362846Y-72169278D01*
X129395931Y-72177566D01*
X129428045Y-72189056D01*
X129458879Y-72203639D01*
X129488134Y-72221174D01*
X129515530Y-72241492D01*
X129540802Y-72264398D01*
X129563708Y-72289670D01*
X129584026Y-72317066D01*
X129601561Y-72346321D01*
X129616144Y-72377155D01*
X129627634Y-72409269D01*
X129635922Y-72442354D01*
X129640926Y-72476093D01*
X129642600Y-72510160D01*
X129642600Y-73615040D01*
X129640926Y-73649107D01*
X129635922Y-73682846D01*
X129627634Y-73715931D01*
X129616144Y-73748045D01*
X129601561Y-73778879D01*
X129584026Y-73808134D01*
X129563708Y-73835530D01*
X129540802Y-73860802D01*
X129515530Y-73883708D01*
X129488134Y-73904026D01*
X129458879Y-73921561D01*
X129428045Y-73936144D01*
X129395931Y-73947634D01*
X129362846Y-73955922D01*
X129329107Y-73960926D01*
X129295040Y-73962600D01*
X128565160Y-73962600D01*
X128531093Y-73960926D01*
X128497354Y-73955922D01*
X128464269Y-73947634D01*
X128432155Y-73936144D01*
X128401321Y-73921561D01*
X128372066Y-73904026D01*
X128344670Y-73883708D01*
X128319398Y-73860802D01*
X128296492Y-73835530D01*
X128276174Y-73808134D01*
X128258639Y-73778879D01*
X128244056Y-73748045D01*
X128232566Y-73715931D01*
X128224278Y-73682846D01*
X128219274Y-73649107D01*
X128217600Y-73615040D01*
X128217600Y-72510160D01*
X128219274Y-72476093D01*
X128224278Y-72442354D01*
X128232566Y-72409269D01*
X128244056Y-72377155D01*
X128258639Y-72346321D01*
X128276174Y-72317066D01*
X128296492Y-72289670D01*
X128319398Y-72264398D01*
X128344670Y-72241492D01*
X128372066Y-72221174D01*
X128401321Y-72203639D01*
X128432155Y-72189056D01*
X128464269Y-72177566D01*
X128497354Y-72169278D01*
X128531093Y-72164274D01*
X128565160Y-72162600D01*
X129295040Y-72162600D01*
X129329107Y-72164274D01*
G37*
G36*
X131154107Y-69764274D02*
G01*
X131187846Y-69769278D01*
X131220931Y-69777566D01*
X131253045Y-69789056D01*
X131283879Y-69803639D01*
X131313134Y-69821174D01*
X131340530Y-69841492D01*
X131365802Y-69864398D01*
X131388708Y-69889670D01*
X131409026Y-69917066D01*
X131426561Y-69946321D01*
X131441144Y-69977155D01*
X131452634Y-70009269D01*
X131460922Y-70042354D01*
X131465926Y-70076093D01*
X131467600Y-70110160D01*
X131467600Y-71215040D01*
X131465926Y-71249107D01*
X131460922Y-71282846D01*
X131452634Y-71315931D01*
X131441144Y-71348045D01*
X131426561Y-71378879D01*
X131409026Y-71408134D01*
X131388708Y-71435530D01*
X131365802Y-71460802D01*
X131340530Y-71483708D01*
X131313134Y-71504026D01*
X131283879Y-71521561D01*
X131253045Y-71536144D01*
X131220931Y-71547634D01*
X131187846Y-71555922D01*
X131154107Y-71560926D01*
X131120040Y-71562600D01*
X130390160Y-71562600D01*
X130356093Y-71560926D01*
X130322354Y-71555922D01*
X130289269Y-71547634D01*
X130257155Y-71536144D01*
X130226321Y-71521561D01*
X130197066Y-71504026D01*
X130169670Y-71483708D01*
X130144398Y-71460802D01*
X130121492Y-71435530D01*
X130101174Y-71408134D01*
X130083639Y-71378879D01*
X130069056Y-71348045D01*
X130057566Y-71315931D01*
X130049278Y-71282846D01*
X130044274Y-71249107D01*
X130042600Y-71215040D01*
X130042600Y-70110160D01*
X130044274Y-70076093D01*
X130049278Y-70042354D01*
X130057566Y-70009269D01*
X130069056Y-69977155D01*
X130083639Y-69946321D01*
X130101174Y-69917066D01*
X130121492Y-69889670D01*
X130144398Y-69864398D01*
X130169670Y-69841492D01*
X130197066Y-69821174D01*
X130226321Y-69803639D01*
X130257155Y-69789056D01*
X130289269Y-69777566D01*
X130322354Y-69769278D01*
X130356093Y-69764274D01*
X130390160Y-69762600D01*
X131120040Y-69762600D01*
X131154107Y-69764274D01*
G37*
G36*
X129329107Y-69764274D02*
G01*
X129362846Y-69769278D01*
X129395931Y-69777566D01*
X129428045Y-69789056D01*
X129458879Y-69803639D01*
X129488134Y-69821174D01*
X129515530Y-69841492D01*
X129540802Y-69864398D01*
X129563708Y-69889670D01*
X129584026Y-69917066D01*
X129601561Y-69946321D01*
X129616144Y-69977155D01*
X129627634Y-70009269D01*
X129635922Y-70042354D01*
X129640926Y-70076093D01*
X129642600Y-70110160D01*
X129642600Y-71215040D01*
X129640926Y-71249107D01*
X129635922Y-71282846D01*
X129627634Y-71315931D01*
X129616144Y-71348045D01*
X129601561Y-71378879D01*
X129584026Y-71408134D01*
X129563708Y-71435530D01*
X129540802Y-71460802D01*
X129515530Y-71483708D01*
X129488134Y-71504026D01*
X129458879Y-71521561D01*
X129428045Y-71536144D01*
X129395931Y-71547634D01*
X129362846Y-71555922D01*
X129329107Y-71560926D01*
X129295040Y-71562600D01*
X128565160Y-71562600D01*
X128531093Y-71560926D01*
X128497354Y-71555922D01*
X128464269Y-71547634D01*
X128432155Y-71536144D01*
X128401321Y-71521561D01*
X128372066Y-71504026D01*
X128344670Y-71483708D01*
X128319398Y-71460802D01*
X128296492Y-71435530D01*
X128276174Y-71408134D01*
X128258639Y-71378879D01*
X128244056Y-71348045D01*
X128232566Y-71315931D01*
X128224278Y-71282846D01*
X128219274Y-71249107D01*
X128217600Y-71215040D01*
X128217600Y-70110160D01*
X128219274Y-70076093D01*
X128224278Y-70042354D01*
X128232566Y-70009269D01*
X128244056Y-69977155D01*
X128258639Y-69946321D01*
X128276174Y-69917066D01*
X128296492Y-69889670D01*
X128319398Y-69864398D01*
X128344670Y-69841492D01*
X128372066Y-69821174D01*
X128401321Y-69803639D01*
X128432155Y-69789056D01*
X128464269Y-69777566D01*
X128497354Y-69769278D01*
X128531093Y-69764274D01*
X128565160Y-69762600D01*
X129295040Y-69762600D01*
X129329107Y-69764274D01*
G37*
G36*
X113804107Y-81364274D02*
G01*
X113837846Y-81369278D01*
X113870931Y-81377566D01*
X113903045Y-81389056D01*
X113933879Y-81403639D01*
X113963134Y-81421174D01*
X113990530Y-81441492D01*
X114015802Y-81464398D01*
X114038708Y-81489670D01*
X114059026Y-81517066D01*
X114076561Y-81546321D01*
X114091144Y-81577155D01*
X114102634Y-81609269D01*
X114110922Y-81642354D01*
X114115926Y-81676093D01*
X114117600Y-81710160D01*
X114117600Y-82440040D01*
X114115926Y-82474107D01*
X114110922Y-82507846D01*
X114102634Y-82540931D01*
X114091144Y-82573045D01*
X114076561Y-82603879D01*
X114059026Y-82633134D01*
X114038708Y-82660530D01*
X114015802Y-82685802D01*
X113990530Y-82708708D01*
X113963134Y-82729026D01*
X113933879Y-82746561D01*
X113903045Y-82761144D01*
X113870931Y-82772634D01*
X113837846Y-82780922D01*
X113804107Y-82785926D01*
X113770040Y-82787600D01*
X112665160Y-82787600D01*
X112631093Y-82785926D01*
X112597354Y-82780922D01*
X112564269Y-82772634D01*
X112532155Y-82761144D01*
X112501321Y-82746561D01*
X112472066Y-82729026D01*
X112444670Y-82708708D01*
X112419398Y-82685802D01*
X112396492Y-82660530D01*
X112376174Y-82633134D01*
X112358639Y-82603879D01*
X112344056Y-82573045D01*
X112332566Y-82540931D01*
X112324278Y-82507846D01*
X112319274Y-82474107D01*
X112317600Y-82440040D01*
X112317600Y-81710160D01*
X112319274Y-81676093D01*
X112324278Y-81642354D01*
X112332566Y-81609269D01*
X112344056Y-81577155D01*
X112358639Y-81546321D01*
X112376174Y-81517066D01*
X112396492Y-81489670D01*
X112419398Y-81464398D01*
X112444670Y-81441492D01*
X112472066Y-81421174D01*
X112501321Y-81403639D01*
X112532155Y-81389056D01*
X112564269Y-81377566D01*
X112597354Y-81369278D01*
X112631093Y-81364274D01*
X112665160Y-81362600D01*
X113770040Y-81362600D01*
X113804107Y-81364274D01*
G37*
G36*
X113804107Y-83189274D02*
G01*
X113837846Y-83194278D01*
X113870931Y-83202566D01*
X113903045Y-83214056D01*
X113933879Y-83228639D01*
X113963134Y-83246174D01*
X113990530Y-83266492D01*
X114015802Y-83289398D01*
X114038708Y-83314670D01*
X114059026Y-83342066D01*
X114076561Y-83371321D01*
X114091144Y-83402155D01*
X114102634Y-83434269D01*
X114110922Y-83467354D01*
X114115926Y-83501093D01*
X114117600Y-83535160D01*
X114117600Y-84265040D01*
X114115926Y-84299107D01*
X114110922Y-84332846D01*
X114102634Y-84365931D01*
X114091144Y-84398045D01*
X114076561Y-84428879D01*
X114059026Y-84458134D01*
X114038708Y-84485530D01*
X114015802Y-84510802D01*
X113990530Y-84533708D01*
X113963134Y-84554026D01*
X113933879Y-84571561D01*
X113903045Y-84586144D01*
X113870931Y-84597634D01*
X113837846Y-84605922D01*
X113804107Y-84610926D01*
X113770040Y-84612600D01*
X112665160Y-84612600D01*
X112631093Y-84610926D01*
X112597354Y-84605922D01*
X112564269Y-84597634D01*
X112532155Y-84586144D01*
X112501321Y-84571561D01*
X112472066Y-84554026D01*
X112444670Y-84533708D01*
X112419398Y-84510802D01*
X112396492Y-84485530D01*
X112376174Y-84458134D01*
X112358639Y-84428879D01*
X112344056Y-84398045D01*
X112332566Y-84365931D01*
X112324278Y-84332846D01*
X112319274Y-84299107D01*
X112317600Y-84265040D01*
X112317600Y-83535160D01*
X112319274Y-83501093D01*
X112324278Y-83467354D01*
X112332566Y-83434269D01*
X112344056Y-83402155D01*
X112358639Y-83371321D01*
X112376174Y-83342066D01*
X112396492Y-83314670D01*
X112419398Y-83289398D01*
X112444670Y-83266492D01*
X112472066Y-83246174D01*
X112501321Y-83228639D01*
X112532155Y-83214056D01*
X112564269Y-83202566D01*
X112597354Y-83194278D01*
X112631093Y-83189274D01*
X112665160Y-83187600D01*
X113770040Y-83187600D01*
X113804107Y-83189274D01*
G37*
G36*
X104154107Y-56814274D02*
G01*
X104187846Y-56819278D01*
X104220931Y-56827566D01*
X104253045Y-56839056D01*
X104283879Y-56853639D01*
X104313134Y-56871174D01*
X104340530Y-56891492D01*
X104365802Y-56914398D01*
X104388708Y-56939670D01*
X104409026Y-56967066D01*
X104426561Y-56996321D01*
X104441144Y-57027155D01*
X104452634Y-57059269D01*
X104460922Y-57092354D01*
X104465926Y-57126093D01*
X104467600Y-57160160D01*
X104467600Y-58265040D01*
X104465926Y-58299107D01*
X104460922Y-58332846D01*
X104452634Y-58365931D01*
X104441144Y-58398045D01*
X104426561Y-58428879D01*
X104409026Y-58458134D01*
X104388708Y-58485530D01*
X104365802Y-58510802D01*
X104340530Y-58533708D01*
X104313134Y-58554026D01*
X104283879Y-58571561D01*
X104253045Y-58586144D01*
X104220931Y-58597634D01*
X104187846Y-58605922D01*
X104154107Y-58610926D01*
X104120040Y-58612600D01*
X103390160Y-58612600D01*
X103356093Y-58610926D01*
X103322354Y-58605922D01*
X103289269Y-58597634D01*
X103257155Y-58586144D01*
X103226321Y-58571561D01*
X103197066Y-58554026D01*
X103169670Y-58533708D01*
X103144398Y-58510802D01*
X103121492Y-58485530D01*
X103101174Y-58458134D01*
X103083639Y-58428879D01*
X103069056Y-58398045D01*
X103057566Y-58365931D01*
X103049278Y-58332846D01*
X103044274Y-58299107D01*
X103042600Y-58265040D01*
X103042600Y-57160160D01*
X103044274Y-57126093D01*
X103049278Y-57092354D01*
X103057566Y-57059269D01*
X103069056Y-57027155D01*
X103083639Y-56996321D01*
X103101174Y-56967066D01*
X103121492Y-56939670D01*
X103144398Y-56914398D01*
X103169670Y-56891492D01*
X103197066Y-56871174D01*
X103226321Y-56853639D01*
X103257155Y-56839056D01*
X103289269Y-56827566D01*
X103322354Y-56819278D01*
X103356093Y-56814274D01*
X103390160Y-56812600D01*
X104120040Y-56812600D01*
X104154107Y-56814274D01*
G37*
G36*
X105979107Y-56814274D02*
G01*
X106012846Y-56819278D01*
X106045931Y-56827566D01*
X106078045Y-56839056D01*
X106108879Y-56853639D01*
X106138134Y-56871174D01*
X106165530Y-56891492D01*
X106190802Y-56914398D01*
X106213708Y-56939670D01*
X106234026Y-56967066D01*
X106251561Y-56996321D01*
X106266144Y-57027155D01*
X106277634Y-57059269D01*
X106285922Y-57092354D01*
X106290926Y-57126093D01*
X106292600Y-57160160D01*
X106292600Y-58265040D01*
X106290926Y-58299107D01*
X106285922Y-58332846D01*
X106277634Y-58365931D01*
X106266144Y-58398045D01*
X106251561Y-58428879D01*
X106234026Y-58458134D01*
X106213708Y-58485530D01*
X106190802Y-58510802D01*
X106165530Y-58533708D01*
X106138134Y-58554026D01*
X106108879Y-58571561D01*
X106078045Y-58586144D01*
X106045931Y-58597634D01*
X106012846Y-58605922D01*
X105979107Y-58610926D01*
X105945040Y-58612600D01*
X105215160Y-58612600D01*
X105181093Y-58610926D01*
X105147354Y-58605922D01*
X105114269Y-58597634D01*
X105082155Y-58586144D01*
X105051321Y-58571561D01*
X105022066Y-58554026D01*
X104994670Y-58533708D01*
X104969398Y-58510802D01*
X104946492Y-58485530D01*
X104926174Y-58458134D01*
X104908639Y-58428879D01*
X104894056Y-58398045D01*
X104882566Y-58365931D01*
X104874278Y-58332846D01*
X104869274Y-58299107D01*
X104867600Y-58265040D01*
X104867600Y-57160160D01*
X104869274Y-57126093D01*
X104874278Y-57092354D01*
X104882566Y-57059269D01*
X104894056Y-57027155D01*
X104908639Y-56996321D01*
X104926174Y-56967066D01*
X104946492Y-56939670D01*
X104969398Y-56914398D01*
X104994670Y-56891492D01*
X105022066Y-56871174D01*
X105051321Y-56853639D01*
X105082155Y-56839056D01*
X105114269Y-56827566D01*
X105147354Y-56819278D01*
X105181093Y-56814274D01*
X105215160Y-56812600D01*
X105945040Y-56812600D01*
X105979107Y-56814274D01*
G37*
G36*
X110779107Y-95359274D02*
G01*
X110812846Y-95364278D01*
X110845931Y-95372566D01*
X110878045Y-95384056D01*
X110908879Y-95398639D01*
X110938134Y-95416174D01*
X110965530Y-95436492D01*
X110990802Y-95459398D01*
X111013708Y-95484670D01*
X111034026Y-95512066D01*
X111051561Y-95541321D01*
X111066144Y-95572155D01*
X111077634Y-95604269D01*
X111085922Y-95637354D01*
X111090926Y-95671093D01*
X111092600Y-95705160D01*
X111092600Y-96810040D01*
X111090926Y-96844107D01*
X111085922Y-96877846D01*
X111077634Y-96910931D01*
X111066144Y-96943045D01*
X111051561Y-96973879D01*
X111034026Y-97003134D01*
X111013708Y-97030530D01*
X110990802Y-97055802D01*
X110965530Y-97078708D01*
X110938134Y-97099026D01*
X110908879Y-97116561D01*
X110878045Y-97131144D01*
X110845931Y-97142634D01*
X110812846Y-97150922D01*
X110779107Y-97155926D01*
X110745040Y-97157600D01*
X110015160Y-97157600D01*
X109981093Y-97155926D01*
X109947354Y-97150922D01*
X109914269Y-97142634D01*
X109882155Y-97131144D01*
X109851321Y-97116561D01*
X109822066Y-97099026D01*
X109794670Y-97078708D01*
X109769398Y-97055802D01*
X109746492Y-97030530D01*
X109726174Y-97003134D01*
X109708639Y-96973879D01*
X109694056Y-96943045D01*
X109682566Y-96910931D01*
X109674278Y-96877846D01*
X109669274Y-96844107D01*
X109667600Y-96810040D01*
X109667600Y-95705160D01*
X109669274Y-95671093D01*
X109674278Y-95637354D01*
X109682566Y-95604269D01*
X109694056Y-95572155D01*
X109708639Y-95541321D01*
X109726174Y-95512066D01*
X109746492Y-95484670D01*
X109769398Y-95459398D01*
X109794670Y-95436492D01*
X109822066Y-95416174D01*
X109851321Y-95398639D01*
X109882155Y-95384056D01*
X109914269Y-95372566D01*
X109947354Y-95364278D01*
X109981093Y-95359274D01*
X110015160Y-95357600D01*
X110745040Y-95357600D01*
X110779107Y-95359274D01*
G37*
G36*
X108954107Y-95359274D02*
G01*
X108987846Y-95364278D01*
X109020931Y-95372566D01*
X109053045Y-95384056D01*
X109083879Y-95398639D01*
X109113134Y-95416174D01*
X109140530Y-95436492D01*
X109165802Y-95459398D01*
X109188708Y-95484670D01*
X109209026Y-95512066D01*
X109226561Y-95541321D01*
X109241144Y-95572155D01*
X109252634Y-95604269D01*
X109260922Y-95637354D01*
X109265926Y-95671093D01*
X109267600Y-95705160D01*
X109267600Y-96810040D01*
X109265926Y-96844107D01*
X109260922Y-96877846D01*
X109252634Y-96910931D01*
X109241144Y-96943045D01*
X109226561Y-96973879D01*
X109209026Y-97003134D01*
X109188708Y-97030530D01*
X109165802Y-97055802D01*
X109140530Y-97078708D01*
X109113134Y-97099026D01*
X109083879Y-97116561D01*
X109053045Y-97131144D01*
X109020931Y-97142634D01*
X108987846Y-97150922D01*
X108954107Y-97155926D01*
X108920040Y-97157600D01*
X108190160Y-97157600D01*
X108156093Y-97155926D01*
X108122354Y-97150922D01*
X108089269Y-97142634D01*
X108057155Y-97131144D01*
X108026321Y-97116561D01*
X107997066Y-97099026D01*
X107969670Y-97078708D01*
X107944398Y-97055802D01*
X107921492Y-97030530D01*
X107901174Y-97003134D01*
X107883639Y-96973879D01*
X107869056Y-96943045D01*
X107857566Y-96910931D01*
X107849278Y-96877846D01*
X107844274Y-96844107D01*
X107842600Y-96810040D01*
X107842600Y-95705160D01*
X107844274Y-95671093D01*
X107849278Y-95637354D01*
X107857566Y-95604269D01*
X107869056Y-95572155D01*
X107883639Y-95541321D01*
X107901174Y-95512066D01*
X107921492Y-95484670D01*
X107944398Y-95459398D01*
X107969670Y-95436492D01*
X107997066Y-95416174D01*
X108026321Y-95398639D01*
X108057155Y-95384056D01*
X108089269Y-95372566D01*
X108122354Y-95364278D01*
X108156093Y-95359274D01*
X108190160Y-95357600D01*
X108920040Y-95357600D01*
X108954107Y-95359274D01*
G37*
G36*
X104154107Y-54789274D02*
G01*
X104187846Y-54794278D01*
X104220931Y-54802566D01*
X104253045Y-54814056D01*
X104283879Y-54828639D01*
X104313134Y-54846174D01*
X104340530Y-54866492D01*
X104365802Y-54889398D01*
X104388708Y-54914670D01*
X104409026Y-54942066D01*
X104426561Y-54971321D01*
X104441144Y-55002155D01*
X104452634Y-55034269D01*
X104460922Y-55067354D01*
X104465926Y-55101093D01*
X104467600Y-55135160D01*
X104467600Y-56240040D01*
X104465926Y-56274107D01*
X104460922Y-56307846D01*
X104452634Y-56340931D01*
X104441144Y-56373045D01*
X104426561Y-56403879D01*
X104409026Y-56433134D01*
X104388708Y-56460530D01*
X104365802Y-56485802D01*
X104340530Y-56508708D01*
X104313134Y-56529026D01*
X104283879Y-56546561D01*
X104253045Y-56561144D01*
X104220931Y-56572634D01*
X104187846Y-56580922D01*
X104154107Y-56585926D01*
X104120040Y-56587600D01*
X103390160Y-56587600D01*
X103356093Y-56585926D01*
X103322354Y-56580922D01*
X103289269Y-56572634D01*
X103257155Y-56561144D01*
X103226321Y-56546561D01*
X103197066Y-56529026D01*
X103169670Y-56508708D01*
X103144398Y-56485802D01*
X103121492Y-56460530D01*
X103101174Y-56433134D01*
X103083639Y-56403879D01*
X103069056Y-56373045D01*
X103057566Y-56340931D01*
X103049278Y-56307846D01*
X103044274Y-56274107D01*
X103042600Y-56240040D01*
X103042600Y-55135160D01*
X103044274Y-55101093D01*
X103049278Y-55067354D01*
X103057566Y-55034269D01*
X103069056Y-55002155D01*
X103083639Y-54971321D01*
X103101174Y-54942066D01*
X103121492Y-54914670D01*
X103144398Y-54889398D01*
X103169670Y-54866492D01*
X103197066Y-54846174D01*
X103226321Y-54828639D01*
X103257155Y-54814056D01*
X103289269Y-54802566D01*
X103322354Y-54794278D01*
X103356093Y-54789274D01*
X103390160Y-54787600D01*
X104120040Y-54787600D01*
X104154107Y-54789274D01*
G37*
G36*
X105979107Y-54789274D02*
G01*
X106012846Y-54794278D01*
X106045931Y-54802566D01*
X106078045Y-54814056D01*
X106108879Y-54828639D01*
X106138134Y-54846174D01*
X106165530Y-54866492D01*
X106190802Y-54889398D01*
X106213708Y-54914670D01*
X106234026Y-54942066D01*
X106251561Y-54971321D01*
X106266144Y-55002155D01*
X106277634Y-55034269D01*
X106285922Y-55067354D01*
X106290926Y-55101093D01*
X106292600Y-55135160D01*
X106292600Y-56240040D01*
X106290926Y-56274107D01*
X106285922Y-56307846D01*
X106277634Y-56340931D01*
X106266144Y-56373045D01*
X106251561Y-56403879D01*
X106234026Y-56433134D01*
X106213708Y-56460530D01*
X106190802Y-56485802D01*
X106165530Y-56508708D01*
X106138134Y-56529026D01*
X106108879Y-56546561D01*
X106078045Y-56561144D01*
X106045931Y-56572634D01*
X106012846Y-56580922D01*
X105979107Y-56585926D01*
X105945040Y-56587600D01*
X105215160Y-56587600D01*
X105181093Y-56585926D01*
X105147354Y-56580922D01*
X105114269Y-56572634D01*
X105082155Y-56561144D01*
X105051321Y-56546561D01*
X105022066Y-56529026D01*
X104994670Y-56508708D01*
X104969398Y-56485802D01*
X104946492Y-56460530D01*
X104926174Y-56433134D01*
X104908639Y-56403879D01*
X104894056Y-56373045D01*
X104882566Y-56340931D01*
X104874278Y-56307846D01*
X104869274Y-56274107D01*
X104867600Y-56240040D01*
X104867600Y-55135160D01*
X104869274Y-55101093D01*
X104874278Y-55067354D01*
X104882566Y-55034269D01*
X104894056Y-55002155D01*
X104908639Y-54971321D01*
X104926174Y-54942066D01*
X104946492Y-54914670D01*
X104969398Y-54889398D01*
X104994670Y-54866492D01*
X105022066Y-54846174D01*
X105051321Y-54828639D01*
X105082155Y-54814056D01*
X105114269Y-54802566D01*
X105147354Y-54794278D01*
X105181093Y-54789274D01*
X105215160Y-54787600D01*
X105945040Y-54787600D01*
X105979107Y-54789274D01*
G37*
G36*
X106429107Y-96989274D02*
G01*
X106462846Y-96994278D01*
X106495931Y-97002566D01*
X106528045Y-97014056D01*
X106558879Y-97028639D01*
X106588134Y-97046174D01*
X106615530Y-97066492D01*
X106640802Y-97089398D01*
X106663708Y-97114670D01*
X106684026Y-97142066D01*
X106701561Y-97171321D01*
X106716144Y-97202155D01*
X106727634Y-97234269D01*
X106735922Y-97267354D01*
X106740926Y-97301093D01*
X106742600Y-97335160D01*
X106742600Y-98440040D01*
X106740926Y-98474107D01*
X106735922Y-98507846D01*
X106727634Y-98540931D01*
X106716144Y-98573045D01*
X106701561Y-98603879D01*
X106684026Y-98633134D01*
X106663708Y-98660530D01*
X106640802Y-98685802D01*
X106615530Y-98708708D01*
X106588134Y-98729026D01*
X106558879Y-98746561D01*
X106528045Y-98761144D01*
X106495931Y-98772634D01*
X106462846Y-98780922D01*
X106429107Y-98785926D01*
X106395040Y-98787600D01*
X105665160Y-98787600D01*
X105631093Y-98785926D01*
X105597354Y-98780922D01*
X105564269Y-98772634D01*
X105532155Y-98761144D01*
X105501321Y-98746561D01*
X105472066Y-98729026D01*
X105444670Y-98708708D01*
X105419398Y-98685802D01*
X105396492Y-98660530D01*
X105376174Y-98633134D01*
X105358639Y-98603879D01*
X105344056Y-98573045D01*
X105332566Y-98540931D01*
X105324278Y-98507846D01*
X105319274Y-98474107D01*
X105317600Y-98440040D01*
X105317600Y-97335160D01*
X105319274Y-97301093D01*
X105324278Y-97267354D01*
X105332566Y-97234269D01*
X105344056Y-97202155D01*
X105358639Y-97171321D01*
X105376174Y-97142066D01*
X105396492Y-97114670D01*
X105419398Y-97089398D01*
X105444670Y-97066492D01*
X105472066Y-97046174D01*
X105501321Y-97028639D01*
X105532155Y-97014056D01*
X105564269Y-97002566D01*
X105597354Y-96994278D01*
X105631093Y-96989274D01*
X105665160Y-96987600D01*
X106395040Y-96987600D01*
X106429107Y-96989274D01*
G37*
G36*
X104604107Y-96989274D02*
G01*
X104637846Y-96994278D01*
X104670931Y-97002566D01*
X104703045Y-97014056D01*
X104733879Y-97028639D01*
X104763134Y-97046174D01*
X104790530Y-97066492D01*
X104815802Y-97089398D01*
X104838708Y-97114670D01*
X104859026Y-97142066D01*
X104876561Y-97171321D01*
X104891144Y-97202155D01*
X104902634Y-97234269D01*
X104910922Y-97267354D01*
X104915926Y-97301093D01*
X104917600Y-97335160D01*
X104917600Y-98440040D01*
X104915926Y-98474107D01*
X104910922Y-98507846D01*
X104902634Y-98540931D01*
X104891144Y-98573045D01*
X104876561Y-98603879D01*
X104859026Y-98633134D01*
X104838708Y-98660530D01*
X104815802Y-98685802D01*
X104790530Y-98708708D01*
X104763134Y-98729026D01*
X104733879Y-98746561D01*
X104703045Y-98761144D01*
X104670931Y-98772634D01*
X104637846Y-98780922D01*
X104604107Y-98785926D01*
X104570040Y-98787600D01*
X103840160Y-98787600D01*
X103806093Y-98785926D01*
X103772354Y-98780922D01*
X103739269Y-98772634D01*
X103707155Y-98761144D01*
X103676321Y-98746561D01*
X103647066Y-98729026D01*
X103619670Y-98708708D01*
X103594398Y-98685802D01*
X103571492Y-98660530D01*
X103551174Y-98633134D01*
X103533639Y-98603879D01*
X103519056Y-98573045D01*
X103507566Y-98540931D01*
X103499278Y-98507846D01*
X103494274Y-98474107D01*
X103492600Y-98440040D01*
X103492600Y-97335160D01*
X103494274Y-97301093D01*
X103499278Y-97267354D01*
X103507566Y-97234269D01*
X103519056Y-97202155D01*
X103533639Y-97171321D01*
X103551174Y-97142066D01*
X103571492Y-97114670D01*
X103594398Y-97089398D01*
X103619670Y-97066492D01*
X103647066Y-97046174D01*
X103676321Y-97028639D01*
X103707155Y-97014056D01*
X103739269Y-97002566D01*
X103772354Y-96994278D01*
X103806093Y-96989274D01*
X103840160Y-96987600D01*
X104570040Y-96987600D01*
X104604107Y-96989274D01*
G37*
G36*
X131154107Y-67364274D02*
G01*
X131187846Y-67369278D01*
X131220931Y-67377566D01*
X131253045Y-67389056D01*
X131283879Y-67403639D01*
X131313134Y-67421174D01*
X131340530Y-67441492D01*
X131365802Y-67464398D01*
X131388708Y-67489670D01*
X131409026Y-67517066D01*
X131426561Y-67546321D01*
X131441144Y-67577155D01*
X131452634Y-67609269D01*
X131460922Y-67642354D01*
X131465926Y-67676093D01*
X131467600Y-67710160D01*
X131467600Y-68815040D01*
X131465926Y-68849107D01*
X131460922Y-68882846D01*
X131452634Y-68915931D01*
X131441144Y-68948045D01*
X131426561Y-68978879D01*
X131409026Y-69008134D01*
X131388708Y-69035530D01*
X131365802Y-69060802D01*
X131340530Y-69083708D01*
X131313134Y-69104026D01*
X131283879Y-69121561D01*
X131253045Y-69136144D01*
X131220931Y-69147634D01*
X131187846Y-69155922D01*
X131154107Y-69160926D01*
X131120040Y-69162600D01*
X130390160Y-69162600D01*
X130356093Y-69160926D01*
X130322354Y-69155922D01*
X130289269Y-69147634D01*
X130257155Y-69136144D01*
X130226321Y-69121561D01*
X130197066Y-69104026D01*
X130169670Y-69083708D01*
X130144398Y-69060802D01*
X130121492Y-69035530D01*
X130101174Y-69008134D01*
X130083639Y-68978879D01*
X130069056Y-68948045D01*
X130057566Y-68915931D01*
X130049278Y-68882846D01*
X130044274Y-68849107D01*
X130042600Y-68815040D01*
X130042600Y-67710160D01*
X130044274Y-67676093D01*
X130049278Y-67642354D01*
X130057566Y-67609269D01*
X130069056Y-67577155D01*
X130083639Y-67546321D01*
X130101174Y-67517066D01*
X130121492Y-67489670D01*
X130144398Y-67464398D01*
X130169670Y-67441492D01*
X130197066Y-67421174D01*
X130226321Y-67403639D01*
X130257155Y-67389056D01*
X130289269Y-67377566D01*
X130322354Y-67369278D01*
X130356093Y-67364274D01*
X130390160Y-67362600D01*
X131120040Y-67362600D01*
X131154107Y-67364274D01*
G37*
G36*
X129329107Y-67364274D02*
G01*
X129362846Y-67369278D01*
X129395931Y-67377566D01*
X129428045Y-67389056D01*
X129458879Y-67403639D01*
X129488134Y-67421174D01*
X129515530Y-67441492D01*
X129540802Y-67464398D01*
X129563708Y-67489670D01*
X129584026Y-67517066D01*
X129601561Y-67546321D01*
X129616144Y-67577155D01*
X129627634Y-67609269D01*
X129635922Y-67642354D01*
X129640926Y-67676093D01*
X129642600Y-67710160D01*
X129642600Y-68815040D01*
X129640926Y-68849107D01*
X129635922Y-68882846D01*
X129627634Y-68915931D01*
X129616144Y-68948045D01*
X129601561Y-68978879D01*
X129584026Y-69008134D01*
X129563708Y-69035530D01*
X129540802Y-69060802D01*
X129515530Y-69083708D01*
X129488134Y-69104026D01*
X129458879Y-69121561D01*
X129428045Y-69136144D01*
X129395931Y-69147634D01*
X129362846Y-69155922D01*
X129329107Y-69160926D01*
X129295040Y-69162600D01*
X128565160Y-69162600D01*
X128531093Y-69160926D01*
X128497354Y-69155922D01*
X128464269Y-69147634D01*
X128432155Y-69136144D01*
X128401321Y-69121561D01*
X128372066Y-69104026D01*
X128344670Y-69083708D01*
X128319398Y-69060802D01*
X128296492Y-69035530D01*
X128276174Y-69008134D01*
X128258639Y-68978879D01*
X128244056Y-68948045D01*
X128232566Y-68915931D01*
X128224278Y-68882846D01*
X128219274Y-68849107D01*
X128217600Y-68815040D01*
X128217600Y-67710160D01*
X128219274Y-67676093D01*
X128224278Y-67642354D01*
X128232566Y-67609269D01*
X128244056Y-67577155D01*
X128258639Y-67546321D01*
X128276174Y-67517066D01*
X128296492Y-67489670D01*
X128319398Y-67464398D01*
X128344670Y-67441492D01*
X128372066Y-67421174D01*
X128401321Y-67403639D01*
X128432155Y-67389056D01*
X128464269Y-67377566D01*
X128497354Y-67369278D01*
X128531093Y-67364274D01*
X128565160Y-67362600D01*
X129295040Y-67362600D01*
X129329107Y-67364274D01*
G37*
G36*
X103961929Y-75489232D02*
G01*
X103994826Y-75494112D01*
X104027086Y-75502192D01*
X104058399Y-75513396D01*
X104088463Y-75527615D01*
X104116988Y-75544713D01*
X104143700Y-75564524D01*
X104168342Y-75586858D01*
X104190676Y-75611500D01*
X104210487Y-75638212D01*
X104227585Y-75666737D01*
X104241804Y-75696801D01*
X104253008Y-75728114D01*
X104261088Y-75760374D01*
X104265968Y-75793271D01*
X104267600Y-75826488D01*
X104267600Y-78198712D01*
X104265968Y-78231929D01*
X104261088Y-78264826D01*
X104253008Y-78297086D01*
X104241804Y-78328399D01*
X104227585Y-78358463D01*
X104210487Y-78386988D01*
X104190676Y-78413700D01*
X104168342Y-78438342D01*
X104143700Y-78460676D01*
X104116988Y-78480487D01*
X104088463Y-78497585D01*
X104058399Y-78511804D01*
X104027086Y-78523008D01*
X103994826Y-78531088D01*
X103961929Y-78535968D01*
X103928712Y-78537600D01*
X103081488Y-78537600D01*
X103048271Y-78535968D01*
X103015374Y-78531088D01*
X102983114Y-78523008D01*
X102951801Y-78511804D01*
X102921737Y-78497585D01*
X102893212Y-78480487D01*
X102866500Y-78460676D01*
X102841858Y-78438342D01*
X102819524Y-78413700D01*
X102799713Y-78386988D01*
X102782615Y-78358463D01*
X102768396Y-78328399D01*
X102757192Y-78297086D01*
X102749112Y-78264826D01*
X102744232Y-78231929D01*
X102742600Y-78198712D01*
X102742600Y-75826488D01*
X102744232Y-75793271D01*
X102749112Y-75760374D01*
X102757192Y-75728114D01*
X102768396Y-75696801D01*
X102782615Y-75666737D01*
X102799713Y-75638212D01*
X102819524Y-75611500D01*
X102841858Y-75586858D01*
X102866500Y-75564524D01*
X102893212Y-75544713D01*
X102921737Y-75527615D01*
X102951801Y-75513396D01*
X102983114Y-75502192D01*
X103015374Y-75494112D01*
X103048271Y-75489232D01*
X103081488Y-75487600D01*
X103928712Y-75487600D01*
X103961929Y-75489232D01*
G37*
G36*
X106886929Y-75489232D02*
G01*
X106919826Y-75494112D01*
X106952086Y-75502192D01*
X106983399Y-75513396D01*
X107013463Y-75527615D01*
X107041988Y-75544713D01*
X107068700Y-75564524D01*
X107093342Y-75586858D01*
X107115676Y-75611500D01*
X107135487Y-75638212D01*
X107152585Y-75666737D01*
X107166804Y-75696801D01*
X107178008Y-75728114D01*
X107186088Y-75760374D01*
X107190968Y-75793271D01*
X107192600Y-75826488D01*
X107192600Y-78198712D01*
X107190968Y-78231929D01*
X107186088Y-78264826D01*
X107178008Y-78297086D01*
X107166804Y-78328399D01*
X107152585Y-78358463D01*
X107135487Y-78386988D01*
X107115676Y-78413700D01*
X107093342Y-78438342D01*
X107068700Y-78460676D01*
X107041988Y-78480487D01*
X107013463Y-78497585D01*
X106983399Y-78511804D01*
X106952086Y-78523008D01*
X106919826Y-78531088D01*
X106886929Y-78535968D01*
X106853712Y-78537600D01*
X106006488Y-78537600D01*
X105973271Y-78535968D01*
X105940374Y-78531088D01*
X105908114Y-78523008D01*
X105876801Y-78511804D01*
X105846737Y-78497585D01*
X105818212Y-78480487D01*
X105791500Y-78460676D01*
X105766858Y-78438342D01*
X105744524Y-78413700D01*
X105724713Y-78386988D01*
X105707615Y-78358463D01*
X105693396Y-78328399D01*
X105682192Y-78297086D01*
X105674112Y-78264826D01*
X105669232Y-78231929D01*
X105667600Y-78198712D01*
X105667600Y-75826488D01*
X105669232Y-75793271D01*
X105674112Y-75760374D01*
X105682192Y-75728114D01*
X105693396Y-75696801D01*
X105707615Y-75666737D01*
X105724713Y-75638212D01*
X105744524Y-75611500D01*
X105766858Y-75586858D01*
X105791500Y-75564524D01*
X105818212Y-75544713D01*
X105846737Y-75527615D01*
X105876801Y-75513396D01*
X105908114Y-75502192D01*
X105940374Y-75494112D01*
X105973271Y-75489232D01*
X106006488Y-75487600D01*
X106853712Y-75487600D01*
X106886929Y-75489232D01*
G37*
G36*
X103936929Y-79614232D02*
G01*
X103969826Y-79619112D01*
X104002086Y-79627192D01*
X104033399Y-79638396D01*
X104063463Y-79652615D01*
X104091988Y-79669713D01*
X104118700Y-79689524D01*
X104143342Y-79711858D01*
X104165676Y-79736500D01*
X104185487Y-79763212D01*
X104202585Y-79791737D01*
X104216804Y-79821801D01*
X104228008Y-79853114D01*
X104236088Y-79885374D01*
X104240968Y-79918271D01*
X104242600Y-79951488D01*
X104242600Y-82323712D01*
X104240968Y-82356929D01*
X104236088Y-82389826D01*
X104228008Y-82422086D01*
X104216804Y-82453399D01*
X104202585Y-82483463D01*
X104185487Y-82511988D01*
X104165676Y-82538700D01*
X104143342Y-82563342D01*
X104118700Y-82585676D01*
X104091988Y-82605487D01*
X104063463Y-82622585D01*
X104033399Y-82636804D01*
X104002086Y-82648008D01*
X103969826Y-82656088D01*
X103936929Y-82660968D01*
X103903712Y-82662600D01*
X103056488Y-82662600D01*
X103023271Y-82660968D01*
X102990374Y-82656088D01*
X102958114Y-82648008D01*
X102926801Y-82636804D01*
X102896737Y-82622585D01*
X102868212Y-82605487D01*
X102841500Y-82585676D01*
X102816858Y-82563342D01*
X102794524Y-82538700D01*
X102774713Y-82511988D01*
X102757615Y-82483463D01*
X102743396Y-82453399D01*
X102732192Y-82422086D01*
X102724112Y-82389826D01*
X102719232Y-82356929D01*
X102717600Y-82323712D01*
X102717600Y-79951488D01*
X102719232Y-79918271D01*
X102724112Y-79885374D01*
X102732192Y-79853114D01*
X102743396Y-79821801D01*
X102757615Y-79791737D01*
X102774713Y-79763212D01*
X102794524Y-79736500D01*
X102816858Y-79711858D01*
X102841500Y-79689524D01*
X102868212Y-79669713D01*
X102896737Y-79652615D01*
X102926801Y-79638396D01*
X102958114Y-79627192D01*
X102990374Y-79619112D01*
X103023271Y-79614232D01*
X103056488Y-79612600D01*
X103903712Y-79612600D01*
X103936929Y-79614232D01*
G37*
G36*
X106861929Y-79614232D02*
G01*
X106894826Y-79619112D01*
X106927086Y-79627192D01*
X106958399Y-79638396D01*
X106988463Y-79652615D01*
X107016988Y-79669713D01*
X107043700Y-79689524D01*
X107068342Y-79711858D01*
X107090676Y-79736500D01*
X107110487Y-79763212D01*
X107127585Y-79791737D01*
X107141804Y-79821801D01*
X107153008Y-79853114D01*
X107161088Y-79885374D01*
X107165968Y-79918271D01*
X107167600Y-79951488D01*
X107167600Y-82323712D01*
X107165968Y-82356929D01*
X107161088Y-82389826D01*
X107153008Y-82422086D01*
X107141804Y-82453399D01*
X107127585Y-82483463D01*
X107110487Y-82511988D01*
X107090676Y-82538700D01*
X107068342Y-82563342D01*
X107043700Y-82585676D01*
X107016988Y-82605487D01*
X106988463Y-82622585D01*
X106958399Y-82636804D01*
X106927086Y-82648008D01*
X106894826Y-82656088D01*
X106861929Y-82660968D01*
X106828712Y-82662600D01*
X105981488Y-82662600D01*
X105948271Y-82660968D01*
X105915374Y-82656088D01*
X105883114Y-82648008D01*
X105851801Y-82636804D01*
X105821737Y-82622585D01*
X105793212Y-82605487D01*
X105766500Y-82585676D01*
X105741858Y-82563342D01*
X105719524Y-82538700D01*
X105699713Y-82511988D01*
X105682615Y-82483463D01*
X105668396Y-82453399D01*
X105657192Y-82422086D01*
X105649112Y-82389826D01*
X105644232Y-82356929D01*
X105642600Y-82323712D01*
X105642600Y-79951488D01*
X105644232Y-79918271D01*
X105649112Y-79885374D01*
X105657192Y-79853114D01*
X105668396Y-79821801D01*
X105682615Y-79791737D01*
X105699713Y-79763212D01*
X105719524Y-79736500D01*
X105741858Y-79711858D01*
X105766500Y-79689524D01*
X105793212Y-79669713D01*
X105821737Y-79652615D01*
X105851801Y-79638396D01*
X105883114Y-79627192D01*
X105915374Y-79619112D01*
X105948271Y-79614232D01*
X105981488Y-79612600D01*
X106828712Y-79612600D01*
X106861929Y-79614232D01*
G37*
G36*
X108786929Y-75464232D02*
G01*
X108819826Y-75469112D01*
X108852086Y-75477192D01*
X108883399Y-75488396D01*
X108913463Y-75502615D01*
X108941988Y-75519713D01*
X108968700Y-75539524D01*
X108993342Y-75561858D01*
X109015676Y-75586500D01*
X109035487Y-75613212D01*
X109052585Y-75641737D01*
X109066804Y-75671801D01*
X109078008Y-75703114D01*
X109086088Y-75735374D01*
X109090968Y-75768271D01*
X109092600Y-75801488D01*
X109092600Y-78173712D01*
X109090968Y-78206929D01*
X109086088Y-78239826D01*
X109078008Y-78272086D01*
X109066804Y-78303399D01*
X109052585Y-78333463D01*
X109035487Y-78361988D01*
X109015676Y-78388700D01*
X108993342Y-78413342D01*
X108968700Y-78435676D01*
X108941988Y-78455487D01*
X108913463Y-78472585D01*
X108883399Y-78486804D01*
X108852086Y-78498008D01*
X108819826Y-78506088D01*
X108786929Y-78510968D01*
X108753712Y-78512600D01*
X107906488Y-78512600D01*
X107873271Y-78510968D01*
X107840374Y-78506088D01*
X107808114Y-78498008D01*
X107776801Y-78486804D01*
X107746737Y-78472585D01*
X107718212Y-78455487D01*
X107691500Y-78435676D01*
X107666858Y-78413342D01*
X107644524Y-78388700D01*
X107624713Y-78361988D01*
X107607615Y-78333463D01*
X107593396Y-78303399D01*
X107582192Y-78272086D01*
X107574112Y-78239826D01*
X107569232Y-78206929D01*
X107567600Y-78173712D01*
X107567600Y-75801488D01*
X107569232Y-75768271D01*
X107574112Y-75735374D01*
X107582192Y-75703114D01*
X107593396Y-75671801D01*
X107607615Y-75641737D01*
X107624713Y-75613212D01*
X107644524Y-75586500D01*
X107666858Y-75561858D01*
X107691500Y-75539524D01*
X107718212Y-75519713D01*
X107746737Y-75502615D01*
X107776801Y-75488396D01*
X107808114Y-75477192D01*
X107840374Y-75469112D01*
X107873271Y-75464232D01*
X107906488Y-75462600D01*
X108753712Y-75462600D01*
X108786929Y-75464232D01*
G37*
G36*
X111711929Y-75464232D02*
G01*
X111744826Y-75469112D01*
X111777086Y-75477192D01*
X111808399Y-75488396D01*
X111838463Y-75502615D01*
X111866988Y-75519713D01*
X111893700Y-75539524D01*
X111918342Y-75561858D01*
X111940676Y-75586500D01*
X111960487Y-75613212D01*
X111977585Y-75641737D01*
X111991804Y-75671801D01*
X112003008Y-75703114D01*
X112011088Y-75735374D01*
X112015968Y-75768271D01*
X112017600Y-75801488D01*
X112017600Y-78173712D01*
X112015968Y-78206929D01*
X112011088Y-78239826D01*
X112003008Y-78272086D01*
X111991804Y-78303399D01*
X111977585Y-78333463D01*
X111960487Y-78361988D01*
X111940676Y-78388700D01*
X111918342Y-78413342D01*
X111893700Y-78435676D01*
X111866988Y-78455487D01*
X111838463Y-78472585D01*
X111808399Y-78486804D01*
X111777086Y-78498008D01*
X111744826Y-78506088D01*
X111711929Y-78510968D01*
X111678712Y-78512600D01*
X110831488Y-78512600D01*
X110798271Y-78510968D01*
X110765374Y-78506088D01*
X110733114Y-78498008D01*
X110701801Y-78486804D01*
X110671737Y-78472585D01*
X110643212Y-78455487D01*
X110616500Y-78435676D01*
X110591858Y-78413342D01*
X110569524Y-78388700D01*
X110549713Y-78361988D01*
X110532615Y-78333463D01*
X110518396Y-78303399D01*
X110507192Y-78272086D01*
X110499112Y-78239826D01*
X110494232Y-78206929D01*
X110492600Y-78173712D01*
X110492600Y-75801488D01*
X110494232Y-75768271D01*
X110499112Y-75735374D01*
X110507192Y-75703114D01*
X110518396Y-75671801D01*
X110532615Y-75641737D01*
X110549713Y-75613212D01*
X110569524Y-75586500D01*
X110591858Y-75561858D01*
X110616500Y-75539524D01*
X110643212Y-75519713D01*
X110671737Y-75502615D01*
X110701801Y-75488396D01*
X110733114Y-75477192D01*
X110765374Y-75469112D01*
X110798271Y-75464232D01*
X110831488Y-75462600D01*
X111678712Y-75462600D01*
X111711929Y-75464232D01*
G37*
G36*
X108761929Y-79614232D02*
G01*
X108794826Y-79619112D01*
X108827086Y-79627192D01*
X108858399Y-79638396D01*
X108888463Y-79652615D01*
X108916988Y-79669713D01*
X108943700Y-79689524D01*
X108968342Y-79711858D01*
X108990676Y-79736500D01*
X109010487Y-79763212D01*
X109027585Y-79791737D01*
X109041804Y-79821801D01*
X109053008Y-79853114D01*
X109061088Y-79885374D01*
X109065968Y-79918271D01*
X109067600Y-79951488D01*
X109067600Y-82323712D01*
X109065968Y-82356929D01*
X109061088Y-82389826D01*
X109053008Y-82422086D01*
X109041804Y-82453399D01*
X109027585Y-82483463D01*
X109010487Y-82511988D01*
X108990676Y-82538700D01*
X108968342Y-82563342D01*
X108943700Y-82585676D01*
X108916988Y-82605487D01*
X108888463Y-82622585D01*
X108858399Y-82636804D01*
X108827086Y-82648008D01*
X108794826Y-82656088D01*
X108761929Y-82660968D01*
X108728712Y-82662600D01*
X107881488Y-82662600D01*
X107848271Y-82660968D01*
X107815374Y-82656088D01*
X107783114Y-82648008D01*
X107751801Y-82636804D01*
X107721737Y-82622585D01*
X107693212Y-82605487D01*
X107666500Y-82585676D01*
X107641858Y-82563342D01*
X107619524Y-82538700D01*
X107599713Y-82511988D01*
X107582615Y-82483463D01*
X107568396Y-82453399D01*
X107557192Y-82422086D01*
X107549112Y-82389826D01*
X107544232Y-82356929D01*
X107542600Y-82323712D01*
X107542600Y-79951488D01*
X107544232Y-79918271D01*
X107549112Y-79885374D01*
X107557192Y-79853114D01*
X107568396Y-79821801D01*
X107582615Y-79791737D01*
X107599713Y-79763212D01*
X107619524Y-79736500D01*
X107641858Y-79711858D01*
X107666500Y-79689524D01*
X107693212Y-79669713D01*
X107721737Y-79652615D01*
X107751801Y-79638396D01*
X107783114Y-79627192D01*
X107815374Y-79619112D01*
X107848271Y-79614232D01*
X107881488Y-79612600D01*
X108728712Y-79612600D01*
X108761929Y-79614232D01*
G37*
G36*
X111686929Y-79614232D02*
G01*
X111719826Y-79619112D01*
X111752086Y-79627192D01*
X111783399Y-79638396D01*
X111813463Y-79652615D01*
X111841988Y-79669713D01*
X111868700Y-79689524D01*
X111893342Y-79711858D01*
X111915676Y-79736500D01*
X111935487Y-79763212D01*
X111952585Y-79791737D01*
X111966804Y-79821801D01*
X111978008Y-79853114D01*
X111986088Y-79885374D01*
X111990968Y-79918271D01*
X111992600Y-79951488D01*
X111992600Y-82323712D01*
X111990968Y-82356929D01*
X111986088Y-82389826D01*
X111978008Y-82422086D01*
X111966804Y-82453399D01*
X111952585Y-82483463D01*
X111935487Y-82511988D01*
X111915676Y-82538700D01*
X111893342Y-82563342D01*
X111868700Y-82585676D01*
X111841988Y-82605487D01*
X111813463Y-82622585D01*
X111783399Y-82636804D01*
X111752086Y-82648008D01*
X111719826Y-82656088D01*
X111686929Y-82660968D01*
X111653712Y-82662600D01*
X110806488Y-82662600D01*
X110773271Y-82660968D01*
X110740374Y-82656088D01*
X110708114Y-82648008D01*
X110676801Y-82636804D01*
X110646737Y-82622585D01*
X110618212Y-82605487D01*
X110591500Y-82585676D01*
X110566858Y-82563342D01*
X110544524Y-82538700D01*
X110524713Y-82511988D01*
X110507615Y-82483463D01*
X110493396Y-82453399D01*
X110482192Y-82422086D01*
X110474112Y-82389826D01*
X110469232Y-82356929D01*
X110467600Y-82323712D01*
X110467600Y-79951488D01*
X110469232Y-79918271D01*
X110474112Y-79885374D01*
X110482192Y-79853114D01*
X110493396Y-79821801D01*
X110507615Y-79791737D01*
X110524713Y-79763212D01*
X110544524Y-79736500D01*
X110566858Y-79711858D01*
X110591500Y-79689524D01*
X110618212Y-79669713D01*
X110646737Y-79652615D01*
X110676801Y-79638396D01*
X110708114Y-79627192D01*
X110740374Y-79619112D01*
X110773271Y-79614232D01*
X110806488Y-79612600D01*
X111653712Y-79612600D01*
X111686929Y-79614232D01*
G37*
G36*
X115628595Y-75489232D02*
G01*
X115661492Y-75494112D01*
X115693752Y-75502192D01*
X115725065Y-75513396D01*
X115755129Y-75527615D01*
X115783654Y-75544713D01*
X115810366Y-75564524D01*
X115835008Y-75586858D01*
X115857342Y-75611500D01*
X115877153Y-75638212D01*
X115894251Y-75666737D01*
X115908470Y-75696801D01*
X115919674Y-75728114D01*
X115927754Y-75760374D01*
X115932634Y-75793271D01*
X115934266Y-75826488D01*
X115934266Y-78198712D01*
X115932634Y-78231929D01*
X115927754Y-78264826D01*
X115919674Y-78297086D01*
X115908470Y-78328399D01*
X115894251Y-78358463D01*
X115877153Y-78386988D01*
X115857342Y-78413700D01*
X115835008Y-78438342D01*
X115810366Y-78460676D01*
X115783654Y-78480487D01*
X115755129Y-78497585D01*
X115725065Y-78511804D01*
X115693752Y-78523008D01*
X115661492Y-78531088D01*
X115628595Y-78535968D01*
X115595378Y-78537600D01*
X114748154Y-78537600D01*
X114714937Y-78535968D01*
X114682040Y-78531088D01*
X114649780Y-78523008D01*
X114618467Y-78511804D01*
X114588403Y-78497585D01*
X114559878Y-78480487D01*
X114533166Y-78460676D01*
X114508524Y-78438342D01*
X114486190Y-78413700D01*
X114466379Y-78386988D01*
X114449281Y-78358463D01*
X114435062Y-78328399D01*
X114423858Y-78297086D01*
X114415778Y-78264826D01*
X114410898Y-78231929D01*
X114409266Y-78198712D01*
X114409266Y-75826488D01*
X114410898Y-75793271D01*
X114415778Y-75760374D01*
X114423858Y-75728114D01*
X114435062Y-75696801D01*
X114449281Y-75666737D01*
X114466379Y-75638212D01*
X114486190Y-75611500D01*
X114508524Y-75586858D01*
X114533166Y-75564524D01*
X114559878Y-75544713D01*
X114588403Y-75527615D01*
X114618467Y-75513396D01*
X114649780Y-75502192D01*
X114682040Y-75494112D01*
X114714937Y-75489232D01*
X114748154Y-75487600D01*
X115595378Y-75487600D01*
X115628595Y-75489232D01*
G37*
G36*
X118553595Y-75489232D02*
G01*
X118586492Y-75494112D01*
X118618752Y-75502192D01*
X118650065Y-75513396D01*
X118680129Y-75527615D01*
X118708654Y-75544713D01*
X118735366Y-75564524D01*
X118760008Y-75586858D01*
X118782342Y-75611500D01*
X118802153Y-75638212D01*
X118819251Y-75666737D01*
X118833470Y-75696801D01*
X118844674Y-75728114D01*
X118852754Y-75760374D01*
X118857634Y-75793271D01*
X118859266Y-75826488D01*
X118859266Y-78198712D01*
X118857634Y-78231929D01*
X118852754Y-78264826D01*
X118844674Y-78297086D01*
X118833470Y-78328399D01*
X118819251Y-78358463D01*
X118802153Y-78386988D01*
X118782342Y-78413700D01*
X118760008Y-78438342D01*
X118735366Y-78460676D01*
X118708654Y-78480487D01*
X118680129Y-78497585D01*
X118650065Y-78511804D01*
X118618752Y-78523008D01*
X118586492Y-78531088D01*
X118553595Y-78535968D01*
X118520378Y-78537600D01*
X117673154Y-78537600D01*
X117639937Y-78535968D01*
X117607040Y-78531088D01*
X117574780Y-78523008D01*
X117543467Y-78511804D01*
X117513403Y-78497585D01*
X117484878Y-78480487D01*
X117458166Y-78460676D01*
X117433524Y-78438342D01*
X117411190Y-78413700D01*
X117391379Y-78386988D01*
X117374281Y-78358463D01*
X117360062Y-78328399D01*
X117348858Y-78297086D01*
X117340778Y-78264826D01*
X117335898Y-78231929D01*
X117334266Y-78198712D01*
X117334266Y-75826488D01*
X117335898Y-75793271D01*
X117340778Y-75760374D01*
X117348858Y-75728114D01*
X117360062Y-75696801D01*
X117374281Y-75666737D01*
X117391379Y-75638212D01*
X117411190Y-75611500D01*
X117433524Y-75586858D01*
X117458166Y-75564524D01*
X117484878Y-75544713D01*
X117513403Y-75527615D01*
X117543467Y-75513396D01*
X117574780Y-75502192D01*
X117607040Y-75494112D01*
X117639937Y-75489232D01*
X117673154Y-75487600D01*
X118520378Y-75487600D01*
X118553595Y-75489232D01*
G37*
G36*
X115603595Y-79614232D02*
G01*
X115636492Y-79619112D01*
X115668752Y-79627192D01*
X115700065Y-79638396D01*
X115730129Y-79652615D01*
X115758654Y-79669713D01*
X115785366Y-79689524D01*
X115810008Y-79711858D01*
X115832342Y-79736500D01*
X115852153Y-79763212D01*
X115869251Y-79791737D01*
X115883470Y-79821801D01*
X115894674Y-79853114D01*
X115902754Y-79885374D01*
X115907634Y-79918271D01*
X115909266Y-79951488D01*
X115909266Y-82323712D01*
X115907634Y-82356929D01*
X115902754Y-82389826D01*
X115894674Y-82422086D01*
X115883470Y-82453399D01*
X115869251Y-82483463D01*
X115852153Y-82511988D01*
X115832342Y-82538700D01*
X115810008Y-82563342D01*
X115785366Y-82585676D01*
X115758654Y-82605487D01*
X115730129Y-82622585D01*
X115700065Y-82636804D01*
X115668752Y-82648008D01*
X115636492Y-82656088D01*
X115603595Y-82660968D01*
X115570378Y-82662600D01*
X114723154Y-82662600D01*
X114689937Y-82660968D01*
X114657040Y-82656088D01*
X114624780Y-82648008D01*
X114593467Y-82636804D01*
X114563403Y-82622585D01*
X114534878Y-82605487D01*
X114508166Y-82585676D01*
X114483524Y-82563342D01*
X114461190Y-82538700D01*
X114441379Y-82511988D01*
X114424281Y-82483463D01*
X114410062Y-82453399D01*
X114398858Y-82422086D01*
X114390778Y-82389826D01*
X114385898Y-82356929D01*
X114384266Y-82323712D01*
X114384266Y-79951488D01*
X114385898Y-79918271D01*
X114390778Y-79885374D01*
X114398858Y-79853114D01*
X114410062Y-79821801D01*
X114424281Y-79791737D01*
X114441379Y-79763212D01*
X114461190Y-79736500D01*
X114483524Y-79711858D01*
X114508166Y-79689524D01*
X114534878Y-79669713D01*
X114563403Y-79652615D01*
X114593467Y-79638396D01*
X114624780Y-79627192D01*
X114657040Y-79619112D01*
X114689937Y-79614232D01*
X114723154Y-79612600D01*
X115570378Y-79612600D01*
X115603595Y-79614232D01*
G37*
G36*
X118528595Y-79614232D02*
G01*
X118561492Y-79619112D01*
X118593752Y-79627192D01*
X118625065Y-79638396D01*
X118655129Y-79652615D01*
X118683654Y-79669713D01*
X118710366Y-79689524D01*
X118735008Y-79711858D01*
X118757342Y-79736500D01*
X118777153Y-79763212D01*
X118794251Y-79791737D01*
X118808470Y-79821801D01*
X118819674Y-79853114D01*
X118827754Y-79885374D01*
X118832634Y-79918271D01*
X118834266Y-79951488D01*
X118834266Y-82323712D01*
X118832634Y-82356929D01*
X118827754Y-82389826D01*
X118819674Y-82422086D01*
X118808470Y-82453399D01*
X118794251Y-82483463D01*
X118777153Y-82511988D01*
X118757342Y-82538700D01*
X118735008Y-82563342D01*
X118710366Y-82585676D01*
X118683654Y-82605487D01*
X118655129Y-82622585D01*
X118625065Y-82636804D01*
X118593752Y-82648008D01*
X118561492Y-82656088D01*
X118528595Y-82660968D01*
X118495378Y-82662600D01*
X117648154Y-82662600D01*
X117614937Y-82660968D01*
X117582040Y-82656088D01*
X117549780Y-82648008D01*
X117518467Y-82636804D01*
X117488403Y-82622585D01*
X117459878Y-82605487D01*
X117433166Y-82585676D01*
X117408524Y-82563342D01*
X117386190Y-82538700D01*
X117366379Y-82511988D01*
X117349281Y-82483463D01*
X117335062Y-82453399D01*
X117323858Y-82422086D01*
X117315778Y-82389826D01*
X117310898Y-82356929D01*
X117309266Y-82323712D01*
X117309266Y-79951488D01*
X117310898Y-79918271D01*
X117315778Y-79885374D01*
X117323858Y-79853114D01*
X117335062Y-79821801D01*
X117349281Y-79791737D01*
X117366379Y-79763212D01*
X117386190Y-79736500D01*
X117408524Y-79711858D01*
X117433166Y-79689524D01*
X117459878Y-79669713D01*
X117488403Y-79652615D01*
X117518467Y-79638396D01*
X117549780Y-79627192D01*
X117582040Y-79619112D01*
X117614937Y-79614232D01*
X117648154Y-79612600D01*
X118495378Y-79612600D01*
X118528595Y-79614232D01*
G37*
G36*
X120436929Y-75464232D02*
G01*
X120469826Y-75469112D01*
X120502086Y-75477192D01*
X120533399Y-75488396D01*
X120563463Y-75502615D01*
X120591988Y-75519713D01*
X120618700Y-75539524D01*
X120643342Y-75561858D01*
X120665676Y-75586500D01*
X120685487Y-75613212D01*
X120702585Y-75641737D01*
X120716804Y-75671801D01*
X120728008Y-75703114D01*
X120736088Y-75735374D01*
X120740968Y-75768271D01*
X120742600Y-75801488D01*
X120742600Y-78173712D01*
X120740968Y-78206929D01*
X120736088Y-78239826D01*
X120728008Y-78272086D01*
X120716804Y-78303399D01*
X120702585Y-78333463D01*
X120685487Y-78361988D01*
X120665676Y-78388700D01*
X120643342Y-78413342D01*
X120618700Y-78435676D01*
X120591988Y-78455487D01*
X120563463Y-78472585D01*
X120533399Y-78486804D01*
X120502086Y-78498008D01*
X120469826Y-78506088D01*
X120436929Y-78510968D01*
X120403712Y-78512600D01*
X119556488Y-78512600D01*
X119523271Y-78510968D01*
X119490374Y-78506088D01*
X119458114Y-78498008D01*
X119426801Y-78486804D01*
X119396737Y-78472585D01*
X119368212Y-78455487D01*
X119341500Y-78435676D01*
X119316858Y-78413342D01*
X119294524Y-78388700D01*
X119274713Y-78361988D01*
X119257615Y-78333463D01*
X119243396Y-78303399D01*
X119232192Y-78272086D01*
X119224112Y-78239826D01*
X119219232Y-78206929D01*
X119217600Y-78173712D01*
X119217600Y-75801488D01*
X119219232Y-75768271D01*
X119224112Y-75735374D01*
X119232192Y-75703114D01*
X119243396Y-75671801D01*
X119257615Y-75641737D01*
X119274713Y-75613212D01*
X119294524Y-75586500D01*
X119316858Y-75561858D01*
X119341500Y-75539524D01*
X119368212Y-75519713D01*
X119396737Y-75502615D01*
X119426801Y-75488396D01*
X119458114Y-75477192D01*
X119490374Y-75469112D01*
X119523271Y-75464232D01*
X119556488Y-75462600D01*
X120403712Y-75462600D01*
X120436929Y-75464232D01*
G37*
G36*
X123361929Y-75464232D02*
G01*
X123394826Y-75469112D01*
X123427086Y-75477192D01*
X123458399Y-75488396D01*
X123488463Y-75502615D01*
X123516988Y-75519713D01*
X123543700Y-75539524D01*
X123568342Y-75561858D01*
X123590676Y-75586500D01*
X123610487Y-75613212D01*
X123627585Y-75641737D01*
X123641804Y-75671801D01*
X123653008Y-75703114D01*
X123661088Y-75735374D01*
X123665968Y-75768271D01*
X123667600Y-75801488D01*
X123667600Y-78173712D01*
X123665968Y-78206929D01*
X123661088Y-78239826D01*
X123653008Y-78272086D01*
X123641804Y-78303399D01*
X123627585Y-78333463D01*
X123610487Y-78361988D01*
X123590676Y-78388700D01*
X123568342Y-78413342D01*
X123543700Y-78435676D01*
X123516988Y-78455487D01*
X123488463Y-78472585D01*
X123458399Y-78486804D01*
X123427086Y-78498008D01*
X123394826Y-78506088D01*
X123361929Y-78510968D01*
X123328712Y-78512600D01*
X122481488Y-78512600D01*
X122448271Y-78510968D01*
X122415374Y-78506088D01*
X122383114Y-78498008D01*
X122351801Y-78486804D01*
X122321737Y-78472585D01*
X122293212Y-78455487D01*
X122266500Y-78435676D01*
X122241858Y-78413342D01*
X122219524Y-78388700D01*
X122199713Y-78361988D01*
X122182615Y-78333463D01*
X122168396Y-78303399D01*
X122157192Y-78272086D01*
X122149112Y-78239826D01*
X122144232Y-78206929D01*
X122142600Y-78173712D01*
X122142600Y-75801488D01*
X122144232Y-75768271D01*
X122149112Y-75735374D01*
X122157192Y-75703114D01*
X122168396Y-75671801D01*
X122182615Y-75641737D01*
X122199713Y-75613212D01*
X122219524Y-75586500D01*
X122241858Y-75561858D01*
X122266500Y-75539524D01*
X122293212Y-75519713D01*
X122321737Y-75502615D01*
X122351801Y-75488396D01*
X122383114Y-75477192D01*
X122415374Y-75469112D01*
X122448271Y-75464232D01*
X122481488Y-75462600D01*
X123328712Y-75462600D01*
X123361929Y-75464232D01*
G37*
G36*
X120411929Y-79614232D02*
G01*
X120444826Y-79619112D01*
X120477086Y-79627192D01*
X120508399Y-79638396D01*
X120538463Y-79652615D01*
X120566988Y-79669713D01*
X120593700Y-79689524D01*
X120618342Y-79711858D01*
X120640676Y-79736500D01*
X120660487Y-79763212D01*
X120677585Y-79791737D01*
X120691804Y-79821801D01*
X120703008Y-79853114D01*
X120711088Y-79885374D01*
X120715968Y-79918271D01*
X120717600Y-79951488D01*
X120717600Y-82323712D01*
X120715968Y-82356929D01*
X120711088Y-82389826D01*
X120703008Y-82422086D01*
X120691804Y-82453399D01*
X120677585Y-82483463D01*
X120660487Y-82511988D01*
X120640676Y-82538700D01*
X120618342Y-82563342D01*
X120593700Y-82585676D01*
X120566988Y-82605487D01*
X120538463Y-82622585D01*
X120508399Y-82636804D01*
X120477086Y-82648008D01*
X120444826Y-82656088D01*
X120411929Y-82660968D01*
X120378712Y-82662600D01*
X119531488Y-82662600D01*
X119498271Y-82660968D01*
X119465374Y-82656088D01*
X119433114Y-82648008D01*
X119401801Y-82636804D01*
X119371737Y-82622585D01*
X119343212Y-82605487D01*
X119316500Y-82585676D01*
X119291858Y-82563342D01*
X119269524Y-82538700D01*
X119249713Y-82511988D01*
X119232615Y-82483463D01*
X119218396Y-82453399D01*
X119207192Y-82422086D01*
X119199112Y-82389826D01*
X119194232Y-82356929D01*
X119192600Y-82323712D01*
X119192600Y-79951488D01*
X119194232Y-79918271D01*
X119199112Y-79885374D01*
X119207192Y-79853114D01*
X119218396Y-79821801D01*
X119232615Y-79791737D01*
X119249713Y-79763212D01*
X119269524Y-79736500D01*
X119291858Y-79711858D01*
X119316500Y-79689524D01*
X119343212Y-79669713D01*
X119371737Y-79652615D01*
X119401801Y-79638396D01*
X119433114Y-79627192D01*
X119465374Y-79619112D01*
X119498271Y-79614232D01*
X119531488Y-79612600D01*
X120378712Y-79612600D01*
X120411929Y-79614232D01*
G37*
G36*
X123336929Y-79614232D02*
G01*
X123369826Y-79619112D01*
X123402086Y-79627192D01*
X123433399Y-79638396D01*
X123463463Y-79652615D01*
X123491988Y-79669713D01*
X123518700Y-79689524D01*
X123543342Y-79711858D01*
X123565676Y-79736500D01*
X123585487Y-79763212D01*
X123602585Y-79791737D01*
X123616804Y-79821801D01*
X123628008Y-79853114D01*
X123636088Y-79885374D01*
X123640968Y-79918271D01*
X123642600Y-79951488D01*
X123642600Y-82323712D01*
X123640968Y-82356929D01*
X123636088Y-82389826D01*
X123628008Y-82422086D01*
X123616804Y-82453399D01*
X123602585Y-82483463D01*
X123585487Y-82511988D01*
X123565676Y-82538700D01*
X123543342Y-82563342D01*
X123518700Y-82585676D01*
X123491988Y-82605487D01*
X123463463Y-82622585D01*
X123433399Y-82636804D01*
X123402086Y-82648008D01*
X123369826Y-82656088D01*
X123336929Y-82660968D01*
X123303712Y-82662600D01*
X122456488Y-82662600D01*
X122423271Y-82660968D01*
X122390374Y-82656088D01*
X122358114Y-82648008D01*
X122326801Y-82636804D01*
X122296737Y-82622585D01*
X122268212Y-82605487D01*
X122241500Y-82585676D01*
X122216858Y-82563342D01*
X122194524Y-82538700D01*
X122174713Y-82511988D01*
X122157615Y-82483463D01*
X122143396Y-82453399D01*
X122132192Y-82422086D01*
X122124112Y-82389826D01*
X122119232Y-82356929D01*
X122117600Y-82323712D01*
X122117600Y-79951488D01*
X122119232Y-79918271D01*
X122124112Y-79885374D01*
X122132192Y-79853114D01*
X122143396Y-79821801D01*
X122157615Y-79791737D01*
X122174713Y-79763212D01*
X122194524Y-79736500D01*
X122216858Y-79711858D01*
X122241500Y-79689524D01*
X122268212Y-79669713D01*
X122296737Y-79652615D01*
X122326801Y-79638396D01*
X122358114Y-79627192D01*
X122390374Y-79619112D01*
X122423271Y-79614232D01*
X122456488Y-79612600D01*
X123303712Y-79612600D01*
X123336929Y-79614232D01*
G37*
G36*
X115554107Y-56939274D02*
G01*
X115587846Y-56944278D01*
X115620931Y-56952566D01*
X115653045Y-56964056D01*
X115683879Y-56978639D01*
X115713134Y-56996174D01*
X115740530Y-57016492D01*
X115765802Y-57039398D01*
X115788708Y-57064670D01*
X115809026Y-57092066D01*
X115826561Y-57121321D01*
X115841144Y-57152155D01*
X115852634Y-57184269D01*
X115860922Y-57217354D01*
X115865926Y-57251093D01*
X115867600Y-57285160D01*
X115867600Y-58390040D01*
X115865926Y-58424107D01*
X115860922Y-58457846D01*
X115852634Y-58490931D01*
X115841144Y-58523045D01*
X115826561Y-58553879D01*
X115809026Y-58583134D01*
X115788708Y-58610530D01*
X115765802Y-58635802D01*
X115740530Y-58658708D01*
X115713134Y-58679026D01*
X115683879Y-58696561D01*
X115653045Y-58711144D01*
X115620931Y-58722634D01*
X115587846Y-58730922D01*
X115554107Y-58735926D01*
X115520040Y-58737600D01*
X114790160Y-58737600D01*
X114756093Y-58735926D01*
X114722354Y-58730922D01*
X114689269Y-58722634D01*
X114657155Y-58711144D01*
X114626321Y-58696561D01*
X114597066Y-58679026D01*
X114569670Y-58658708D01*
X114544398Y-58635802D01*
X114521492Y-58610530D01*
X114501174Y-58583134D01*
X114483639Y-58553879D01*
X114469056Y-58523045D01*
X114457566Y-58490931D01*
X114449278Y-58457846D01*
X114444274Y-58424107D01*
X114442600Y-58390040D01*
X114442600Y-57285160D01*
X114444274Y-57251093D01*
X114449278Y-57217354D01*
X114457566Y-57184269D01*
X114469056Y-57152155D01*
X114483639Y-57121321D01*
X114501174Y-57092066D01*
X114521492Y-57064670D01*
X114544398Y-57039398D01*
X114569670Y-57016492D01*
X114597066Y-56996174D01*
X114626321Y-56978639D01*
X114657155Y-56964056D01*
X114689269Y-56952566D01*
X114722354Y-56944278D01*
X114756093Y-56939274D01*
X114790160Y-56937600D01*
X115520040Y-56937600D01*
X115554107Y-56939274D01*
G37*
G36*
X113729107Y-56939274D02*
G01*
X113762846Y-56944278D01*
X113795931Y-56952566D01*
X113828045Y-56964056D01*
X113858879Y-56978639D01*
X113888134Y-56996174D01*
X113915530Y-57016492D01*
X113940802Y-57039398D01*
X113963708Y-57064670D01*
X113984026Y-57092066D01*
X114001561Y-57121321D01*
X114016144Y-57152155D01*
X114027634Y-57184269D01*
X114035922Y-57217354D01*
X114040926Y-57251093D01*
X114042600Y-57285160D01*
X114042600Y-58390040D01*
X114040926Y-58424107D01*
X114035922Y-58457846D01*
X114027634Y-58490931D01*
X114016144Y-58523045D01*
X114001561Y-58553879D01*
X113984026Y-58583134D01*
X113963708Y-58610530D01*
X113940802Y-58635802D01*
X113915530Y-58658708D01*
X113888134Y-58679026D01*
X113858879Y-58696561D01*
X113828045Y-58711144D01*
X113795931Y-58722634D01*
X113762846Y-58730922D01*
X113729107Y-58735926D01*
X113695040Y-58737600D01*
X112965160Y-58737600D01*
X112931093Y-58735926D01*
X112897354Y-58730922D01*
X112864269Y-58722634D01*
X112832155Y-58711144D01*
X112801321Y-58696561D01*
X112772066Y-58679026D01*
X112744670Y-58658708D01*
X112719398Y-58635802D01*
X112696492Y-58610530D01*
X112676174Y-58583134D01*
X112658639Y-58553879D01*
X112644056Y-58523045D01*
X112632566Y-58490931D01*
X112624278Y-58457846D01*
X112619274Y-58424107D01*
X112617600Y-58390040D01*
X112617600Y-57285160D01*
X112619274Y-57251093D01*
X112624278Y-57217354D01*
X112632566Y-57184269D01*
X112644056Y-57152155D01*
X112658639Y-57121321D01*
X112676174Y-57092066D01*
X112696492Y-57064670D01*
X112719398Y-57039398D01*
X112744670Y-57016492D01*
X112772066Y-56996174D01*
X112801321Y-56978639D01*
X112832155Y-56964056D01*
X112864269Y-56952566D01*
X112897354Y-56944278D01*
X112931093Y-56939274D01*
X112965160Y-56937600D01*
X113695040Y-56937600D01*
X113729107Y-56939274D01*
G37*
G36*
X114804107Y-70114274D02*
G01*
X114837846Y-70119278D01*
X114870931Y-70127566D01*
X114903045Y-70139056D01*
X114933879Y-70153639D01*
X114963134Y-70171174D01*
X114990530Y-70191492D01*
X115015802Y-70214398D01*
X115038708Y-70239670D01*
X115059026Y-70267066D01*
X115076561Y-70296321D01*
X115091144Y-70327155D01*
X115102634Y-70359269D01*
X115110922Y-70392354D01*
X115115926Y-70426093D01*
X115117600Y-70460160D01*
X115117600Y-71565040D01*
X115115926Y-71599107D01*
X115110922Y-71632846D01*
X115102634Y-71665931D01*
X115091144Y-71698045D01*
X115076561Y-71728879D01*
X115059026Y-71758134D01*
X115038708Y-71785530D01*
X115015802Y-71810802D01*
X114990530Y-71833708D01*
X114963134Y-71854026D01*
X114933879Y-71871561D01*
X114903045Y-71886144D01*
X114870931Y-71897634D01*
X114837846Y-71905922D01*
X114804107Y-71910926D01*
X114770040Y-71912600D01*
X114040160Y-71912600D01*
X114006093Y-71910926D01*
X113972354Y-71905922D01*
X113939269Y-71897634D01*
X113907155Y-71886144D01*
X113876321Y-71871561D01*
X113847066Y-71854026D01*
X113819670Y-71833708D01*
X113794398Y-71810802D01*
X113771492Y-71785530D01*
X113751174Y-71758134D01*
X113733639Y-71728879D01*
X113719056Y-71698045D01*
X113707566Y-71665931D01*
X113699278Y-71632846D01*
X113694274Y-71599107D01*
X113692600Y-71565040D01*
X113692600Y-70460160D01*
X113694274Y-70426093D01*
X113699278Y-70392354D01*
X113707566Y-70359269D01*
X113719056Y-70327155D01*
X113733639Y-70296321D01*
X113751174Y-70267066D01*
X113771492Y-70239670D01*
X113794398Y-70214398D01*
X113819670Y-70191492D01*
X113847066Y-70171174D01*
X113876321Y-70153639D01*
X113907155Y-70139056D01*
X113939269Y-70127566D01*
X113972354Y-70119278D01*
X114006093Y-70114274D01*
X114040160Y-70112600D01*
X114770040Y-70112600D01*
X114804107Y-70114274D01*
G37*
G36*
X112979107Y-70114274D02*
G01*
X113012846Y-70119278D01*
X113045931Y-70127566D01*
X113078045Y-70139056D01*
X113108879Y-70153639D01*
X113138134Y-70171174D01*
X113165530Y-70191492D01*
X113190802Y-70214398D01*
X113213708Y-70239670D01*
X113234026Y-70267066D01*
X113251561Y-70296321D01*
X113266144Y-70327155D01*
X113277634Y-70359269D01*
X113285922Y-70392354D01*
X113290926Y-70426093D01*
X113292600Y-70460160D01*
X113292600Y-71565040D01*
X113290926Y-71599107D01*
X113285922Y-71632846D01*
X113277634Y-71665931D01*
X113266144Y-71698045D01*
X113251561Y-71728879D01*
X113234026Y-71758134D01*
X113213708Y-71785530D01*
X113190802Y-71810802D01*
X113165530Y-71833708D01*
X113138134Y-71854026D01*
X113108879Y-71871561D01*
X113078045Y-71886144D01*
X113045931Y-71897634D01*
X113012846Y-71905922D01*
X112979107Y-71910926D01*
X112945040Y-71912600D01*
X112215160Y-71912600D01*
X112181093Y-71910926D01*
X112147354Y-71905922D01*
X112114269Y-71897634D01*
X112082155Y-71886144D01*
X112051321Y-71871561D01*
X112022066Y-71854026D01*
X111994670Y-71833708D01*
X111969398Y-71810802D01*
X111946492Y-71785530D01*
X111926174Y-71758134D01*
X111908639Y-71728879D01*
X111894056Y-71698045D01*
X111882566Y-71665931D01*
X111874278Y-71632846D01*
X111869274Y-71599107D01*
X111867600Y-71565040D01*
X111867600Y-70460160D01*
X111869274Y-70426093D01*
X111874278Y-70392354D01*
X111882566Y-70359269D01*
X111894056Y-70327155D01*
X111908639Y-70296321D01*
X111926174Y-70267066D01*
X111946492Y-70239670D01*
X111969398Y-70214398D01*
X111994670Y-70191492D01*
X112022066Y-70171174D01*
X112051321Y-70153639D01*
X112082155Y-70139056D01*
X112114269Y-70127566D01*
X112147354Y-70119278D01*
X112181093Y-70114274D01*
X112215160Y-70112600D01*
X112945040Y-70112600D01*
X112979107Y-70114274D01*
G37*
G36*
X114804107Y-67714274D02*
G01*
X114837846Y-67719278D01*
X114870931Y-67727566D01*
X114903045Y-67739056D01*
X114933879Y-67753639D01*
X114963134Y-67771174D01*
X114990530Y-67791492D01*
X115015802Y-67814398D01*
X115038708Y-67839670D01*
X115059026Y-67867066D01*
X115076561Y-67896321D01*
X115091144Y-67927155D01*
X115102634Y-67959269D01*
X115110922Y-67992354D01*
X115115926Y-68026093D01*
X115117600Y-68060160D01*
X115117600Y-69165040D01*
X115115926Y-69199107D01*
X115110922Y-69232846D01*
X115102634Y-69265931D01*
X115091144Y-69298045D01*
X115076561Y-69328879D01*
X115059026Y-69358134D01*
X115038708Y-69385530D01*
X115015802Y-69410802D01*
X114990530Y-69433708D01*
X114963134Y-69454026D01*
X114933879Y-69471561D01*
X114903045Y-69486144D01*
X114870931Y-69497634D01*
X114837846Y-69505922D01*
X114804107Y-69510926D01*
X114770040Y-69512600D01*
X114040160Y-69512600D01*
X114006093Y-69510926D01*
X113972354Y-69505922D01*
X113939269Y-69497634D01*
X113907155Y-69486144D01*
X113876321Y-69471561D01*
X113847066Y-69454026D01*
X113819670Y-69433708D01*
X113794398Y-69410802D01*
X113771492Y-69385530D01*
X113751174Y-69358134D01*
X113733639Y-69328879D01*
X113719056Y-69298045D01*
X113707566Y-69265931D01*
X113699278Y-69232846D01*
X113694274Y-69199107D01*
X113692600Y-69165040D01*
X113692600Y-68060160D01*
X113694274Y-68026093D01*
X113699278Y-67992354D01*
X113707566Y-67959269D01*
X113719056Y-67927155D01*
X113733639Y-67896321D01*
X113751174Y-67867066D01*
X113771492Y-67839670D01*
X113794398Y-67814398D01*
X113819670Y-67791492D01*
X113847066Y-67771174D01*
X113876321Y-67753639D01*
X113907155Y-67739056D01*
X113939269Y-67727566D01*
X113972354Y-67719278D01*
X114006093Y-67714274D01*
X114040160Y-67712600D01*
X114770040Y-67712600D01*
X114804107Y-67714274D01*
G37*
G36*
X112979107Y-67714274D02*
G01*
X113012846Y-67719278D01*
X113045931Y-67727566D01*
X113078045Y-67739056D01*
X113108879Y-67753639D01*
X113138134Y-67771174D01*
X113165530Y-67791492D01*
X113190802Y-67814398D01*
X113213708Y-67839670D01*
X113234026Y-67867066D01*
X113251561Y-67896321D01*
X113266144Y-67927155D01*
X113277634Y-67959269D01*
X113285922Y-67992354D01*
X113290926Y-68026093D01*
X113292600Y-68060160D01*
X113292600Y-69165040D01*
X113290926Y-69199107D01*
X113285922Y-69232846D01*
X113277634Y-69265931D01*
X113266144Y-69298045D01*
X113251561Y-69328879D01*
X113234026Y-69358134D01*
X113213708Y-69385530D01*
X113190802Y-69410802D01*
X113165530Y-69433708D01*
X113138134Y-69454026D01*
X113108879Y-69471561D01*
X113078045Y-69486144D01*
X113045931Y-69497634D01*
X113012846Y-69505922D01*
X112979107Y-69510926D01*
X112945040Y-69512600D01*
X112215160Y-69512600D01*
X112181093Y-69510926D01*
X112147354Y-69505922D01*
X112114269Y-69497634D01*
X112082155Y-69486144D01*
X112051321Y-69471561D01*
X112022066Y-69454026D01*
X111994670Y-69433708D01*
X111969398Y-69410802D01*
X111946492Y-69385530D01*
X111926174Y-69358134D01*
X111908639Y-69328879D01*
X111894056Y-69298045D01*
X111882566Y-69265931D01*
X111874278Y-69232846D01*
X111869274Y-69199107D01*
X111867600Y-69165040D01*
X111867600Y-68060160D01*
X111869274Y-68026093D01*
X111874278Y-67992354D01*
X111882566Y-67959269D01*
X111894056Y-67927155D01*
X111908639Y-67896321D01*
X111926174Y-67867066D01*
X111946492Y-67839670D01*
X111969398Y-67814398D01*
X111994670Y-67791492D01*
X112022066Y-67771174D01*
X112051321Y-67753639D01*
X112082155Y-67739056D01*
X112114269Y-67727566D01*
X112147354Y-67719278D01*
X112181093Y-67714274D01*
X112215160Y-67712600D01*
X112945040Y-67712600D01*
X112979107Y-67714274D01*
G37*
G36*
X130649107Y-58979274D02*
G01*
X130682846Y-58984278D01*
X130715931Y-58992566D01*
X130748045Y-59004056D01*
X130778879Y-59018639D01*
X130808134Y-59036174D01*
X130835530Y-59056492D01*
X130860802Y-59079398D01*
X130883708Y-59104670D01*
X130904026Y-59132066D01*
X130921561Y-59161321D01*
X130936144Y-59192155D01*
X130947634Y-59224269D01*
X130955922Y-59257354D01*
X130960926Y-59291093D01*
X130962600Y-59325160D01*
X130962600Y-60430040D01*
X130960926Y-60464107D01*
X130955922Y-60497846D01*
X130947634Y-60530931D01*
X130936144Y-60563045D01*
X130921561Y-60593879D01*
X130904026Y-60623134D01*
X130883708Y-60650530D01*
X130860802Y-60675802D01*
X130835530Y-60698708D01*
X130808134Y-60719026D01*
X130778879Y-60736561D01*
X130748045Y-60751144D01*
X130715931Y-60762634D01*
X130682846Y-60770922D01*
X130649107Y-60775926D01*
X130615040Y-60777600D01*
X129885160Y-60777600D01*
X129851093Y-60775926D01*
X129817354Y-60770922D01*
X129784269Y-60762634D01*
X129752155Y-60751144D01*
X129721321Y-60736561D01*
X129692066Y-60719026D01*
X129664670Y-60698708D01*
X129639398Y-60675802D01*
X129616492Y-60650530D01*
X129596174Y-60623134D01*
X129578639Y-60593879D01*
X129564056Y-60563045D01*
X129552566Y-60530931D01*
X129544278Y-60497846D01*
X129539274Y-60464107D01*
X129537600Y-60430040D01*
X129537600Y-59325160D01*
X129539274Y-59291093D01*
X129544278Y-59257354D01*
X129552566Y-59224269D01*
X129564056Y-59192155D01*
X129578639Y-59161321D01*
X129596174Y-59132066D01*
X129616492Y-59104670D01*
X129639398Y-59079398D01*
X129664670Y-59056492D01*
X129692066Y-59036174D01*
X129721321Y-59018639D01*
X129752155Y-59004056D01*
X129784269Y-58992566D01*
X129817354Y-58984278D01*
X129851093Y-58979274D01*
X129885160Y-58977600D01*
X130615040Y-58977600D01*
X130649107Y-58979274D01*
G37*
G36*
X128824107Y-58979274D02*
G01*
X128857846Y-58984278D01*
X128890931Y-58992566D01*
X128923045Y-59004056D01*
X128953879Y-59018639D01*
X128983134Y-59036174D01*
X129010530Y-59056492D01*
X129035802Y-59079398D01*
X129058708Y-59104670D01*
X129079026Y-59132066D01*
X129096561Y-59161321D01*
X129111144Y-59192155D01*
X129122634Y-59224269D01*
X129130922Y-59257354D01*
X129135926Y-59291093D01*
X129137600Y-59325160D01*
X129137600Y-60430040D01*
X129135926Y-60464107D01*
X129130922Y-60497846D01*
X129122634Y-60530931D01*
X129111144Y-60563045D01*
X129096561Y-60593879D01*
X129079026Y-60623134D01*
X129058708Y-60650530D01*
X129035802Y-60675802D01*
X129010530Y-60698708D01*
X128983134Y-60719026D01*
X128953879Y-60736561D01*
X128923045Y-60751144D01*
X128890931Y-60762634D01*
X128857846Y-60770922D01*
X128824107Y-60775926D01*
X128790040Y-60777600D01*
X128060160Y-60777600D01*
X128026093Y-60775926D01*
X127992354Y-60770922D01*
X127959269Y-60762634D01*
X127927155Y-60751144D01*
X127896321Y-60736561D01*
X127867066Y-60719026D01*
X127839670Y-60698708D01*
X127814398Y-60675802D01*
X127791492Y-60650530D01*
X127771174Y-60623134D01*
X127753639Y-60593879D01*
X127739056Y-60563045D01*
X127727566Y-60530931D01*
X127719278Y-60497846D01*
X127714274Y-60464107D01*
X127712600Y-60430040D01*
X127712600Y-59325160D01*
X127714274Y-59291093D01*
X127719278Y-59257354D01*
X127727566Y-59224269D01*
X127739056Y-59192155D01*
X127753639Y-59161321D01*
X127771174Y-59132066D01*
X127791492Y-59104670D01*
X127814398Y-59079398D01*
X127839670Y-59056492D01*
X127867066Y-59036174D01*
X127896321Y-59018639D01*
X127927155Y-59004056D01*
X127959269Y-58992566D01*
X127992354Y-58984278D01*
X128026093Y-58979274D01*
X128060160Y-58977600D01*
X128790040Y-58977600D01*
X128824107Y-58979274D01*
G37*
G36*
X114779107Y-65229274D02*
G01*
X114812846Y-65234278D01*
X114845931Y-65242566D01*
X114878045Y-65254056D01*
X114908879Y-65268639D01*
X114938134Y-65286174D01*
X114965530Y-65306492D01*
X114990802Y-65329398D01*
X115013708Y-65354670D01*
X115034026Y-65382066D01*
X115051561Y-65411321D01*
X115066144Y-65442155D01*
X115077634Y-65474269D01*
X115085922Y-65507354D01*
X115090926Y-65541093D01*
X115092600Y-65575160D01*
X115092600Y-66680040D01*
X115090926Y-66714107D01*
X115085922Y-66747846D01*
X115077634Y-66780931D01*
X115066144Y-66813045D01*
X115051561Y-66843879D01*
X115034026Y-66873134D01*
X115013708Y-66900530D01*
X114990802Y-66925802D01*
X114965530Y-66948708D01*
X114938134Y-66969026D01*
X114908879Y-66986561D01*
X114878045Y-67001144D01*
X114845931Y-67012634D01*
X114812846Y-67020922D01*
X114779107Y-67025926D01*
X114745040Y-67027600D01*
X114015160Y-67027600D01*
X113981093Y-67025926D01*
X113947354Y-67020922D01*
X113914269Y-67012634D01*
X113882155Y-67001144D01*
X113851321Y-66986561D01*
X113822066Y-66969026D01*
X113794670Y-66948708D01*
X113769398Y-66925802D01*
X113746492Y-66900530D01*
X113726174Y-66873134D01*
X113708639Y-66843879D01*
X113694056Y-66813045D01*
X113682566Y-66780931D01*
X113674278Y-66747846D01*
X113669274Y-66714107D01*
X113667600Y-66680040D01*
X113667600Y-65575160D01*
X113669274Y-65541093D01*
X113674278Y-65507354D01*
X113682566Y-65474269D01*
X113694056Y-65442155D01*
X113708639Y-65411321D01*
X113726174Y-65382066D01*
X113746492Y-65354670D01*
X113769398Y-65329398D01*
X113794670Y-65306492D01*
X113822066Y-65286174D01*
X113851321Y-65268639D01*
X113882155Y-65254056D01*
X113914269Y-65242566D01*
X113947354Y-65234278D01*
X113981093Y-65229274D01*
X114015160Y-65227600D01*
X114745040Y-65227600D01*
X114779107Y-65229274D01*
G37*
G36*
X112954107Y-65229274D02*
G01*
X112987846Y-65234278D01*
X113020931Y-65242566D01*
X113053045Y-65254056D01*
X113083879Y-65268639D01*
X113113134Y-65286174D01*
X113140530Y-65306492D01*
X113165802Y-65329398D01*
X113188708Y-65354670D01*
X113209026Y-65382066D01*
X113226561Y-65411321D01*
X113241144Y-65442155D01*
X113252634Y-65474269D01*
X113260922Y-65507354D01*
X113265926Y-65541093D01*
X113267600Y-65575160D01*
X113267600Y-66680040D01*
X113265926Y-66714107D01*
X113260922Y-66747846D01*
X113252634Y-66780931D01*
X113241144Y-66813045D01*
X113226561Y-66843879D01*
X113209026Y-66873134D01*
X113188708Y-66900530D01*
X113165802Y-66925802D01*
X113140530Y-66948708D01*
X113113134Y-66969026D01*
X113083879Y-66986561D01*
X113053045Y-67001144D01*
X113020931Y-67012634D01*
X112987846Y-67020922D01*
X112954107Y-67025926D01*
X112920040Y-67027600D01*
X112190160Y-67027600D01*
X112156093Y-67025926D01*
X112122354Y-67020922D01*
X112089269Y-67012634D01*
X112057155Y-67001144D01*
X112026321Y-66986561D01*
X111997066Y-66969026D01*
X111969670Y-66948708D01*
X111944398Y-66925802D01*
X111921492Y-66900530D01*
X111901174Y-66873134D01*
X111883639Y-66843879D01*
X111869056Y-66813045D01*
X111857566Y-66780931D01*
X111849278Y-66747846D01*
X111844274Y-66714107D01*
X111842600Y-66680040D01*
X111842600Y-65575160D01*
X111844274Y-65541093D01*
X111849278Y-65507354D01*
X111857566Y-65474269D01*
X111869056Y-65442155D01*
X111883639Y-65411321D01*
X111901174Y-65382066D01*
X111921492Y-65354670D01*
X111944398Y-65329398D01*
X111969670Y-65306492D01*
X111997066Y-65286174D01*
X112026321Y-65268639D01*
X112057155Y-65254056D01*
X112089269Y-65242566D01*
X112122354Y-65234278D01*
X112156093Y-65229274D01*
X112190160Y-65227600D01*
X112920040Y-65227600D01*
X112954107Y-65229274D01*
G37*
D11*
X124767600Y-102037600D03*
D10*
G36*
X123266940Y-100964205D02*
G01*
X123299298Y-100969005D01*
X123331029Y-100976953D01*
X123361829Y-100987973D01*
X123391400Y-101001959D01*
X123419457Y-101018777D01*
X123445732Y-101038263D01*
X123469969Y-101060231D01*
X123491937Y-101084468D01*
X123511423Y-101110743D01*
X123528241Y-101138800D01*
X123542227Y-101168371D01*
X123553247Y-101199171D01*
X123561195Y-101230902D01*
X123565995Y-101263260D01*
X123567600Y-101295932D01*
X123567600Y-102779268D01*
X123565995Y-102811940D01*
X123561195Y-102844298D01*
X123553247Y-102876029D01*
X123542227Y-102906829D01*
X123528241Y-102936400D01*
X123511423Y-102964457D01*
X123491937Y-102990732D01*
X123469969Y-103014969D01*
X123445732Y-103036937D01*
X123419457Y-103056423D01*
X123391400Y-103073241D01*
X123361829Y-103087227D01*
X123331029Y-103098247D01*
X123299298Y-103106195D01*
X123266940Y-103110995D01*
X123234268Y-103112600D01*
X122300932Y-103112600D01*
X122268260Y-103110995D01*
X122235902Y-103106195D01*
X122204171Y-103098247D01*
X122173371Y-103087227D01*
X122143800Y-103073241D01*
X122115743Y-103056423D01*
X122089468Y-103036937D01*
X122065231Y-103014969D01*
X122043263Y-102990732D01*
X122023777Y-102964457D01*
X122006959Y-102936400D01*
X121992973Y-102906829D01*
X121981953Y-102876029D01*
X121974005Y-102844298D01*
X121969205Y-102811940D01*
X121967600Y-102779268D01*
X121967600Y-101295932D01*
X121969205Y-101263260D01*
X121974005Y-101230902D01*
X121981953Y-101199171D01*
X121992973Y-101168371D01*
X122006959Y-101138800D01*
X122023777Y-101110743D01*
X122043263Y-101084468D01*
X122065231Y-101060231D01*
X122089468Y-101038263D01*
X122115743Y-101018777D01*
X122143800Y-101001959D01*
X122173371Y-100987973D01*
X122204171Y-100976953D01*
X122235902Y-100969005D01*
X122268260Y-100964205D01*
X122300932Y-100962600D01*
X123234268Y-100962600D01*
X123266940Y-100964205D01*
G37*
G36*
X131161929Y-107064232D02*
G01*
X131194826Y-107069112D01*
X131227086Y-107077192D01*
X131258399Y-107088396D01*
X131288463Y-107102615D01*
X131316988Y-107119713D01*
X131343700Y-107139524D01*
X131368342Y-107161858D01*
X131390676Y-107186500D01*
X131410487Y-107213212D01*
X131427585Y-107241737D01*
X131441804Y-107271801D01*
X131453008Y-107303114D01*
X131461088Y-107335374D01*
X131465968Y-107368271D01*
X131467600Y-107401488D01*
X131467600Y-108248712D01*
X131465968Y-108281929D01*
X131461088Y-108314826D01*
X131453008Y-108347086D01*
X131441804Y-108378399D01*
X131427585Y-108408463D01*
X131410487Y-108436988D01*
X131390676Y-108463700D01*
X131368342Y-108488342D01*
X131343700Y-108510676D01*
X131316988Y-108530487D01*
X131288463Y-108547585D01*
X131258399Y-108561804D01*
X131227086Y-108573008D01*
X131194826Y-108581088D01*
X131161929Y-108585968D01*
X131128712Y-108587600D01*
X128006488Y-108587600D01*
X127973271Y-108585968D01*
X127940374Y-108581088D01*
X127908114Y-108573008D01*
X127876801Y-108561804D01*
X127846737Y-108547585D01*
X127818212Y-108530487D01*
X127791500Y-108510676D01*
X127766858Y-108488342D01*
X127744524Y-108463700D01*
X127724713Y-108436988D01*
X127707615Y-108408463D01*
X127693396Y-108378399D01*
X127682192Y-108347086D01*
X127674112Y-108314826D01*
X127669232Y-108281929D01*
X127667600Y-108248712D01*
X127667600Y-107401488D01*
X127669232Y-107368271D01*
X127674112Y-107335374D01*
X127682192Y-107303114D01*
X127693396Y-107271801D01*
X127707615Y-107241737D01*
X127724713Y-107213212D01*
X127744524Y-107186500D01*
X127766858Y-107161858D01*
X127791500Y-107139524D01*
X127818212Y-107119713D01*
X127846737Y-107102615D01*
X127876801Y-107088396D01*
X127908114Y-107077192D01*
X127940374Y-107069112D01*
X127973271Y-107064232D01*
X128006488Y-107062600D01*
X131128712Y-107062600D01*
X131161929Y-107064232D01*
G37*
G36*
X131161929Y-102789232D02*
G01*
X131194826Y-102794112D01*
X131227086Y-102802192D01*
X131258399Y-102813396D01*
X131288463Y-102827615D01*
X131316988Y-102844713D01*
X131343700Y-102864524D01*
X131368342Y-102886858D01*
X131390676Y-102911500D01*
X131410487Y-102938212D01*
X131427585Y-102966737D01*
X131441804Y-102996801D01*
X131453008Y-103028114D01*
X131461088Y-103060374D01*
X131465968Y-103093271D01*
X131467600Y-103126488D01*
X131467600Y-103973712D01*
X131465968Y-104006929D01*
X131461088Y-104039826D01*
X131453008Y-104072086D01*
X131441804Y-104103399D01*
X131427585Y-104133463D01*
X131410487Y-104161988D01*
X131390676Y-104188700D01*
X131368342Y-104213342D01*
X131343700Y-104235676D01*
X131316988Y-104255487D01*
X131288463Y-104272585D01*
X131258399Y-104286804D01*
X131227086Y-104298008D01*
X131194826Y-104306088D01*
X131161929Y-104310968D01*
X131128712Y-104312600D01*
X128006488Y-104312600D01*
X127973271Y-104310968D01*
X127940374Y-104306088D01*
X127908114Y-104298008D01*
X127876801Y-104286804D01*
X127846737Y-104272585D01*
X127818212Y-104255487D01*
X127791500Y-104235676D01*
X127766858Y-104213342D01*
X127744524Y-104188700D01*
X127724713Y-104161988D01*
X127707615Y-104133463D01*
X127693396Y-104103399D01*
X127682192Y-104072086D01*
X127674112Y-104039826D01*
X127669232Y-104006929D01*
X127667600Y-103973712D01*
X127667600Y-103126488D01*
X127669232Y-103093271D01*
X127674112Y-103060374D01*
X127682192Y-103028114D01*
X127693396Y-102996801D01*
X127707615Y-102966737D01*
X127724713Y-102938212D01*
X127744524Y-102911500D01*
X127766858Y-102886858D01*
X127791500Y-102864524D01*
X127818212Y-102844713D01*
X127846737Y-102827615D01*
X127876801Y-102813396D01*
X127908114Y-102802192D01*
X127940374Y-102794112D01*
X127973271Y-102789232D01*
X128006488Y-102787600D01*
X131128712Y-102787600D01*
X131161929Y-102789232D01*
G37*
D11*
X129367600Y-78887600D03*
D10*
G36*
X127866940Y-77814205D02*
G01*
X127899298Y-77819005D01*
X127931029Y-77826953D01*
X127961829Y-77837973D01*
X127991400Y-77851959D01*
X128019457Y-77868777D01*
X128045732Y-77888263D01*
X128069969Y-77910231D01*
X128091937Y-77934468D01*
X128111423Y-77960743D01*
X128128241Y-77988800D01*
X128142227Y-78018371D01*
X128153247Y-78049171D01*
X128161195Y-78080902D01*
X128165995Y-78113260D01*
X128167600Y-78145932D01*
X128167600Y-79629268D01*
X128165995Y-79661940D01*
X128161195Y-79694298D01*
X128153247Y-79726029D01*
X128142227Y-79756829D01*
X128128241Y-79786400D01*
X128111423Y-79814457D01*
X128091937Y-79840732D01*
X128069969Y-79864969D01*
X128045732Y-79886937D01*
X128019457Y-79906423D01*
X127991400Y-79923241D01*
X127961829Y-79937227D01*
X127931029Y-79948247D01*
X127899298Y-79956195D01*
X127866940Y-79960995D01*
X127834268Y-79962600D01*
X126900932Y-79962600D01*
X126868260Y-79960995D01*
X126835902Y-79956195D01*
X126804171Y-79948247D01*
X126773371Y-79937227D01*
X126743800Y-79923241D01*
X126715743Y-79906423D01*
X126689468Y-79886937D01*
X126665231Y-79864969D01*
X126643263Y-79840732D01*
X126623777Y-79814457D01*
X126606959Y-79786400D01*
X126592973Y-79756829D01*
X126581953Y-79726029D01*
X126574005Y-79694298D01*
X126569205Y-79661940D01*
X126567600Y-79629268D01*
X126567600Y-78145932D01*
X126569205Y-78113260D01*
X126574005Y-78080902D01*
X126581953Y-78049171D01*
X126592973Y-78018371D01*
X126606959Y-77988800D01*
X126623777Y-77960743D01*
X126643263Y-77934468D01*
X126665231Y-77910231D01*
X126689468Y-77888263D01*
X126715743Y-77868777D01*
X126743800Y-77851959D01*
X126773371Y-77837973D01*
X126804171Y-77826953D01*
X126835902Y-77819005D01*
X126868260Y-77814205D01*
X126900932Y-77812600D01*
X127834268Y-77812600D01*
X127866940Y-77814205D01*
G37*
G36*
X106007543Y-58989255D02*
G01*
X106040912Y-58994205D01*
X106073635Y-59002402D01*
X106105397Y-59013766D01*
X106135893Y-59028190D01*
X106164827Y-59045532D01*
X106191923Y-59065628D01*
X106216918Y-59088282D01*
X106239572Y-59113277D01*
X106259668Y-59140373D01*
X106277010Y-59169307D01*
X106291434Y-59199803D01*
X106302798Y-59231565D01*
X106310995Y-59264288D01*
X106315945Y-59297657D01*
X106317600Y-59331350D01*
X106317600Y-60443850D01*
X106315945Y-60477543D01*
X106310995Y-60510912D01*
X106302798Y-60543635D01*
X106291434Y-60575397D01*
X106277010Y-60605893D01*
X106259668Y-60634827D01*
X106239572Y-60661923D01*
X106216918Y-60686918D01*
X106191923Y-60709572D01*
X106164827Y-60729668D01*
X106135893Y-60747010D01*
X106105397Y-60761434D01*
X106073635Y-60772798D01*
X106040912Y-60780995D01*
X106007543Y-60785945D01*
X105973850Y-60787600D01*
X105286350Y-60787600D01*
X105252657Y-60785945D01*
X105219288Y-60780995D01*
X105186565Y-60772798D01*
X105154803Y-60761434D01*
X105124307Y-60747010D01*
X105095373Y-60729668D01*
X105068277Y-60709572D01*
X105043282Y-60686918D01*
X105020628Y-60661923D01*
X105000532Y-60634827D01*
X104983190Y-60605893D01*
X104968766Y-60575397D01*
X104957402Y-60543635D01*
X104949205Y-60510912D01*
X104944255Y-60477543D01*
X104942600Y-60443850D01*
X104942600Y-59331350D01*
X104944255Y-59297657D01*
X104949205Y-59264288D01*
X104957402Y-59231565D01*
X104968766Y-59199803D01*
X104983190Y-59169307D01*
X105000532Y-59140373D01*
X105020628Y-59113277D01*
X105043282Y-59088282D01*
X105068277Y-59065628D01*
X105095373Y-59045532D01*
X105124307Y-59028190D01*
X105154803Y-59013766D01*
X105186565Y-59002402D01*
X105219288Y-58994205D01*
X105252657Y-58989255D01*
X105286350Y-58987600D01*
X105973850Y-58987600D01*
X106007543Y-58989255D01*
G37*
G36*
X104132543Y-58989255D02*
G01*
X104165912Y-58994205D01*
X104198635Y-59002402D01*
X104230397Y-59013766D01*
X104260893Y-59028190D01*
X104289827Y-59045532D01*
X104316923Y-59065628D01*
X104341918Y-59088282D01*
X104364572Y-59113277D01*
X104384668Y-59140373D01*
X104402010Y-59169307D01*
X104416434Y-59199803D01*
X104427798Y-59231565D01*
X104435995Y-59264288D01*
X104440945Y-59297657D01*
X104442600Y-59331350D01*
X104442600Y-60443850D01*
X104440945Y-60477543D01*
X104435995Y-60510912D01*
X104427798Y-60543635D01*
X104416434Y-60575397D01*
X104402010Y-60605893D01*
X104384668Y-60634827D01*
X104364572Y-60661923D01*
X104341918Y-60686918D01*
X104316923Y-60709572D01*
X104289827Y-60729668D01*
X104260893Y-60747010D01*
X104230397Y-60761434D01*
X104198635Y-60772798D01*
X104165912Y-60780995D01*
X104132543Y-60785945D01*
X104098850Y-60787600D01*
X103411350Y-60787600D01*
X103377657Y-60785945D01*
X103344288Y-60780995D01*
X103311565Y-60772798D01*
X103279803Y-60761434D01*
X103249307Y-60747010D01*
X103220373Y-60729668D01*
X103193277Y-60709572D01*
X103168282Y-60686918D01*
X103145628Y-60661923D01*
X103125532Y-60634827D01*
X103108190Y-60605893D01*
X103093766Y-60575397D01*
X103082402Y-60543635D01*
X103074205Y-60510912D01*
X103069255Y-60477543D01*
X103067600Y-60443850D01*
X103067600Y-59331350D01*
X103069255Y-59297657D01*
X103074205Y-59264288D01*
X103082402Y-59231565D01*
X103093766Y-59199803D01*
X103108190Y-59169307D01*
X103125532Y-59140373D01*
X103145628Y-59113277D01*
X103168282Y-59088282D01*
X103193277Y-59065628D01*
X103220373Y-59045532D01*
X103249307Y-59028190D01*
X103279803Y-59013766D01*
X103311565Y-59002402D01*
X103344288Y-58994205D01*
X103377657Y-58989255D01*
X103411350Y-58987600D01*
X104098850Y-58987600D01*
X104132543Y-58989255D01*
G37*
G36*
X114432543Y-95404255D02*
G01*
X114465912Y-95409205D01*
X114498635Y-95417402D01*
X114530397Y-95428766D01*
X114560893Y-95443190D01*
X114589827Y-95460532D01*
X114616923Y-95480628D01*
X114641918Y-95503282D01*
X114664572Y-95528277D01*
X114684668Y-95555373D01*
X114702010Y-95584307D01*
X114716434Y-95614803D01*
X114727798Y-95646565D01*
X114735995Y-95679288D01*
X114740945Y-95712657D01*
X114742600Y-95746350D01*
X114742600Y-96858850D01*
X114740945Y-96892543D01*
X114735995Y-96925912D01*
X114727798Y-96958635D01*
X114716434Y-96990397D01*
X114702010Y-97020893D01*
X114684668Y-97049827D01*
X114664572Y-97076923D01*
X114641918Y-97101918D01*
X114616923Y-97124572D01*
X114589827Y-97144668D01*
X114560893Y-97162010D01*
X114530397Y-97176434D01*
X114498635Y-97187798D01*
X114465912Y-97195995D01*
X114432543Y-97200945D01*
X114398850Y-97202600D01*
X113711350Y-97202600D01*
X113677657Y-97200945D01*
X113644288Y-97195995D01*
X113611565Y-97187798D01*
X113579803Y-97176434D01*
X113549307Y-97162010D01*
X113520373Y-97144668D01*
X113493277Y-97124572D01*
X113468282Y-97101918D01*
X113445628Y-97076923D01*
X113425532Y-97049827D01*
X113408190Y-97020893D01*
X113393766Y-96990397D01*
X113382402Y-96958635D01*
X113374205Y-96925912D01*
X113369255Y-96892543D01*
X113367600Y-96858850D01*
X113367600Y-95746350D01*
X113369255Y-95712657D01*
X113374205Y-95679288D01*
X113382402Y-95646565D01*
X113393766Y-95614803D01*
X113408190Y-95584307D01*
X113425532Y-95555373D01*
X113445628Y-95528277D01*
X113468282Y-95503282D01*
X113493277Y-95480628D01*
X113520373Y-95460532D01*
X113549307Y-95443190D01*
X113579803Y-95428766D01*
X113611565Y-95417402D01*
X113644288Y-95409205D01*
X113677657Y-95404255D01*
X113711350Y-95402600D01*
X114398850Y-95402600D01*
X114432543Y-95404255D01*
G37*
G36*
X112557543Y-95404255D02*
G01*
X112590912Y-95409205D01*
X112623635Y-95417402D01*
X112655397Y-95428766D01*
X112685893Y-95443190D01*
X112714827Y-95460532D01*
X112741923Y-95480628D01*
X112766918Y-95503282D01*
X112789572Y-95528277D01*
X112809668Y-95555373D01*
X112827010Y-95584307D01*
X112841434Y-95614803D01*
X112852798Y-95646565D01*
X112860995Y-95679288D01*
X112865945Y-95712657D01*
X112867600Y-95746350D01*
X112867600Y-96858850D01*
X112865945Y-96892543D01*
X112860995Y-96925912D01*
X112852798Y-96958635D01*
X112841434Y-96990397D01*
X112827010Y-97020893D01*
X112809668Y-97049827D01*
X112789572Y-97076923D01*
X112766918Y-97101918D01*
X112741923Y-97124572D01*
X112714827Y-97144668D01*
X112685893Y-97162010D01*
X112655397Y-97176434D01*
X112623635Y-97187798D01*
X112590912Y-97195995D01*
X112557543Y-97200945D01*
X112523850Y-97202600D01*
X111836350Y-97202600D01*
X111802657Y-97200945D01*
X111769288Y-97195995D01*
X111736565Y-97187798D01*
X111704803Y-97176434D01*
X111674307Y-97162010D01*
X111645373Y-97144668D01*
X111618277Y-97124572D01*
X111593282Y-97101918D01*
X111570628Y-97076923D01*
X111550532Y-97049827D01*
X111533190Y-97020893D01*
X111518766Y-96990397D01*
X111507402Y-96958635D01*
X111499205Y-96925912D01*
X111494255Y-96892543D01*
X111492600Y-96858850D01*
X111492600Y-95746350D01*
X111494255Y-95712657D01*
X111499205Y-95679288D01*
X111507402Y-95646565D01*
X111518766Y-95614803D01*
X111533190Y-95584307D01*
X111550532Y-95555373D01*
X111570628Y-95528277D01*
X111593282Y-95503282D01*
X111618277Y-95480628D01*
X111645373Y-95460532D01*
X111674307Y-95443190D01*
X111704803Y-95428766D01*
X111736565Y-95417402D01*
X111769288Y-95409205D01*
X111802657Y-95404255D01*
X111836350Y-95402600D01*
X112523850Y-95402600D01*
X112557543Y-95404255D01*
G37*
D15*
X129377600Y-55927600D03*
X130327600Y-57927600D03*
X128427600Y-57927600D03*
D10*
G36*
X113696906Y-60304285D02*
G01*
X113730882Y-60309325D01*
X113764200Y-60317671D01*
X113796539Y-60329242D01*
X113827589Y-60343928D01*
X113857050Y-60361586D01*
X113884638Y-60382046D01*
X113910087Y-60405113D01*
X113933154Y-60430562D01*
X113953614Y-60458150D01*
X113971272Y-60487611D01*
X113985958Y-60518661D01*
X113997529Y-60551000D01*
X114005875Y-60584318D01*
X114010915Y-60618294D01*
X114012600Y-60652600D01*
X114012600Y-61802600D01*
X114010915Y-61836906D01*
X114005875Y-61870882D01*
X113997529Y-61904200D01*
X113985958Y-61936539D01*
X113971272Y-61967589D01*
X113953614Y-61997050D01*
X113933154Y-62024638D01*
X113910087Y-62050087D01*
X113884638Y-62073154D01*
X113857050Y-62093614D01*
X113827589Y-62111272D01*
X113796539Y-62125958D01*
X113764200Y-62137529D01*
X113730882Y-62145875D01*
X113696906Y-62150915D01*
X113662600Y-62152600D01*
X112962600Y-62152600D01*
X112928294Y-62150915D01*
X112894318Y-62145875D01*
X112861000Y-62137529D01*
X112828661Y-62125958D01*
X112797611Y-62111272D01*
X112768150Y-62093614D01*
X112740562Y-62073154D01*
X112715113Y-62050087D01*
X112692046Y-62024638D01*
X112671586Y-61997050D01*
X112653928Y-61967589D01*
X112639242Y-61936539D01*
X112627671Y-61904200D01*
X112619325Y-61870882D01*
X112614285Y-61836906D01*
X112612600Y-61802600D01*
X112612600Y-60652600D01*
X112614285Y-60618294D01*
X112619325Y-60584318D01*
X112627671Y-60551000D01*
X112639242Y-60518661D01*
X112653928Y-60487611D01*
X112671586Y-60458150D01*
X112692046Y-60430562D01*
X112715113Y-60405113D01*
X112740562Y-60382046D01*
X112768150Y-60361586D01*
X112797611Y-60343928D01*
X112828661Y-60329242D01*
X112861000Y-60317671D01*
X112894318Y-60309325D01*
X112928294Y-60304285D01*
X112962600Y-60302600D01*
X113662600Y-60302600D01*
X113696906Y-60304285D01*
G37*
G36*
X115596906Y-60304285D02*
G01*
X115630882Y-60309325D01*
X115664200Y-60317671D01*
X115696539Y-60329242D01*
X115727589Y-60343928D01*
X115757050Y-60361586D01*
X115784638Y-60382046D01*
X115810087Y-60405113D01*
X115833154Y-60430562D01*
X115853614Y-60458150D01*
X115871272Y-60487611D01*
X115885958Y-60518661D01*
X115897529Y-60551000D01*
X115905875Y-60584318D01*
X115910915Y-60618294D01*
X115912600Y-60652600D01*
X115912600Y-61802600D01*
X115910915Y-61836906D01*
X115905875Y-61870882D01*
X115897529Y-61904200D01*
X115885958Y-61936539D01*
X115871272Y-61967589D01*
X115853614Y-61997050D01*
X115833154Y-62024638D01*
X115810087Y-62050087D01*
X115784638Y-62073154D01*
X115757050Y-62093614D01*
X115727589Y-62111272D01*
X115696539Y-62125958D01*
X115664200Y-62137529D01*
X115630882Y-62145875D01*
X115596906Y-62150915D01*
X115562600Y-62152600D01*
X114862600Y-62152600D01*
X114828294Y-62150915D01*
X114794318Y-62145875D01*
X114761000Y-62137529D01*
X114728661Y-62125958D01*
X114697611Y-62111272D01*
X114668150Y-62093614D01*
X114640562Y-62073154D01*
X114615113Y-62050087D01*
X114592046Y-62024638D01*
X114571586Y-61997050D01*
X114553928Y-61967589D01*
X114539242Y-61936539D01*
X114527671Y-61904200D01*
X114519325Y-61870882D01*
X114514285Y-61836906D01*
X114512600Y-61802600D01*
X114512600Y-60652600D01*
X114514285Y-60618294D01*
X114519325Y-60584318D01*
X114527671Y-60551000D01*
X114539242Y-60518661D01*
X114553928Y-60487611D01*
X114571586Y-60458150D01*
X114592046Y-60430562D01*
X114615113Y-60405113D01*
X114640562Y-60382046D01*
X114668150Y-60361586D01*
X114697611Y-60343928D01*
X114728661Y-60329242D01*
X114761000Y-60317671D01*
X114794318Y-60309325D01*
X114828294Y-60304285D01*
X114862600Y-60302600D01*
X115562600Y-60302600D01*
X115596906Y-60304285D01*
G37*
G36*
X125976906Y-57639285D02*
G01*
X126010882Y-57644325D01*
X126044200Y-57652671D01*
X126076539Y-57664242D01*
X126107589Y-57678928D01*
X126137050Y-57696586D01*
X126164638Y-57717046D01*
X126190087Y-57740113D01*
X126213154Y-57765562D01*
X126233614Y-57793150D01*
X126251272Y-57822611D01*
X126265958Y-57853661D01*
X126277529Y-57886000D01*
X126285875Y-57919318D01*
X126290915Y-57953294D01*
X126292600Y-57987600D01*
X126292600Y-59137600D01*
X126290915Y-59171906D01*
X126285875Y-59205882D01*
X126277529Y-59239200D01*
X126265958Y-59271539D01*
X126251272Y-59302589D01*
X126233614Y-59332050D01*
X126213154Y-59359638D01*
X126190087Y-59385087D01*
X126164638Y-59408154D01*
X126137050Y-59428614D01*
X126107589Y-59446272D01*
X126076539Y-59460958D01*
X126044200Y-59472529D01*
X126010882Y-59480875D01*
X125976906Y-59485915D01*
X125942600Y-59487600D01*
X125242600Y-59487600D01*
X125208294Y-59485915D01*
X125174318Y-59480875D01*
X125141000Y-59472529D01*
X125108661Y-59460958D01*
X125077611Y-59446272D01*
X125048150Y-59428614D01*
X125020562Y-59408154D01*
X124995113Y-59385087D01*
X124972046Y-59359638D01*
X124951586Y-59332050D01*
X124933928Y-59302589D01*
X124919242Y-59271539D01*
X124907671Y-59239200D01*
X124899325Y-59205882D01*
X124894285Y-59171906D01*
X124892600Y-59137600D01*
X124892600Y-57987600D01*
X124894285Y-57953294D01*
X124899325Y-57919318D01*
X124907671Y-57886000D01*
X124919242Y-57853661D01*
X124933928Y-57822611D01*
X124951586Y-57793150D01*
X124972046Y-57765562D01*
X124995113Y-57740113D01*
X125020562Y-57717046D01*
X125048150Y-57696586D01*
X125077611Y-57678928D01*
X125108661Y-57664242D01*
X125141000Y-57652671D01*
X125174318Y-57644325D01*
X125208294Y-57639285D01*
X125242600Y-57637600D01*
X125942600Y-57637600D01*
X125976906Y-57639285D01*
G37*
G36*
X124076906Y-57639285D02*
G01*
X124110882Y-57644325D01*
X124144200Y-57652671D01*
X124176539Y-57664242D01*
X124207589Y-57678928D01*
X124237050Y-57696586D01*
X124264638Y-57717046D01*
X124290087Y-57740113D01*
X124313154Y-57765562D01*
X124333614Y-57793150D01*
X124351272Y-57822611D01*
X124365958Y-57853661D01*
X124377529Y-57886000D01*
X124385875Y-57919318D01*
X124390915Y-57953294D01*
X124392600Y-57987600D01*
X124392600Y-59137600D01*
X124390915Y-59171906D01*
X124385875Y-59205882D01*
X124377529Y-59239200D01*
X124365958Y-59271539D01*
X124351272Y-59302589D01*
X124333614Y-59332050D01*
X124313154Y-59359638D01*
X124290087Y-59385087D01*
X124264638Y-59408154D01*
X124237050Y-59428614D01*
X124207589Y-59446272D01*
X124176539Y-59460958D01*
X124144200Y-59472529D01*
X124110882Y-59480875D01*
X124076906Y-59485915D01*
X124042600Y-59487600D01*
X123342600Y-59487600D01*
X123308294Y-59485915D01*
X123274318Y-59480875D01*
X123241000Y-59472529D01*
X123208661Y-59460958D01*
X123177611Y-59446272D01*
X123148150Y-59428614D01*
X123120562Y-59408154D01*
X123095113Y-59385087D01*
X123072046Y-59359638D01*
X123051586Y-59332050D01*
X123033928Y-59302589D01*
X123019242Y-59271539D01*
X123007671Y-59239200D01*
X122999325Y-59205882D01*
X122994285Y-59171906D01*
X122992600Y-59137600D01*
X122992600Y-57987600D01*
X122994285Y-57953294D01*
X122999325Y-57919318D01*
X123007671Y-57886000D01*
X123019242Y-57853661D01*
X123033928Y-57822611D01*
X123051586Y-57793150D01*
X123072046Y-57765562D01*
X123095113Y-57740113D01*
X123120562Y-57717046D01*
X123148150Y-57696586D01*
X123177611Y-57678928D01*
X123208661Y-57664242D01*
X123241000Y-57652671D01*
X123274318Y-57644325D01*
X123308294Y-57639285D01*
X123342600Y-57637600D01*
X124042600Y-57637600D01*
X124076906Y-57639285D01*
G37*
G36*
X131196906Y-63914285D02*
G01*
X131230882Y-63919325D01*
X131264200Y-63927671D01*
X131296539Y-63939242D01*
X131327589Y-63953928D01*
X131357050Y-63971586D01*
X131384638Y-63992046D01*
X131410087Y-64015113D01*
X131433154Y-64040562D01*
X131453614Y-64068150D01*
X131471272Y-64097611D01*
X131485958Y-64128661D01*
X131497529Y-64161000D01*
X131505875Y-64194318D01*
X131510915Y-64228294D01*
X131512600Y-64262600D01*
X131512600Y-65412600D01*
X131510915Y-65446906D01*
X131505875Y-65480882D01*
X131497529Y-65514200D01*
X131485958Y-65546539D01*
X131471272Y-65577589D01*
X131453614Y-65607050D01*
X131433154Y-65634638D01*
X131410087Y-65660087D01*
X131384638Y-65683154D01*
X131357050Y-65703614D01*
X131327589Y-65721272D01*
X131296539Y-65735958D01*
X131264200Y-65747529D01*
X131230882Y-65755875D01*
X131196906Y-65760915D01*
X131162600Y-65762600D01*
X130462600Y-65762600D01*
X130428294Y-65760915D01*
X130394318Y-65755875D01*
X130361000Y-65747529D01*
X130328661Y-65735958D01*
X130297611Y-65721272D01*
X130268150Y-65703614D01*
X130240562Y-65683154D01*
X130215113Y-65660087D01*
X130192046Y-65634638D01*
X130171586Y-65607050D01*
X130153928Y-65577589D01*
X130139242Y-65546539D01*
X130127671Y-65514200D01*
X130119325Y-65480882D01*
X130114285Y-65446906D01*
X130112600Y-65412600D01*
X130112600Y-64262600D01*
X130114285Y-64228294D01*
X130119325Y-64194318D01*
X130127671Y-64161000D01*
X130139242Y-64128661D01*
X130153928Y-64097611D01*
X130171586Y-64068150D01*
X130192046Y-64040562D01*
X130215113Y-64015113D01*
X130240562Y-63992046D01*
X130268150Y-63971586D01*
X130297611Y-63953928D01*
X130328661Y-63939242D01*
X130361000Y-63927671D01*
X130394318Y-63919325D01*
X130428294Y-63914285D01*
X130462600Y-63912600D01*
X131162600Y-63912600D01*
X131196906Y-63914285D01*
G37*
G36*
X129296906Y-63914285D02*
G01*
X129330882Y-63919325D01*
X129364200Y-63927671D01*
X129396539Y-63939242D01*
X129427589Y-63953928D01*
X129457050Y-63971586D01*
X129484638Y-63992046D01*
X129510087Y-64015113D01*
X129533154Y-64040562D01*
X129553614Y-64068150D01*
X129571272Y-64097611D01*
X129585958Y-64128661D01*
X129597529Y-64161000D01*
X129605875Y-64194318D01*
X129610915Y-64228294D01*
X129612600Y-64262600D01*
X129612600Y-65412600D01*
X129610915Y-65446906D01*
X129605875Y-65480882D01*
X129597529Y-65514200D01*
X129585958Y-65546539D01*
X129571272Y-65577589D01*
X129553614Y-65607050D01*
X129533154Y-65634638D01*
X129510087Y-65660087D01*
X129484638Y-65683154D01*
X129457050Y-65703614D01*
X129427589Y-65721272D01*
X129396539Y-65735958D01*
X129364200Y-65747529D01*
X129330882Y-65755875D01*
X129296906Y-65760915D01*
X129262600Y-65762600D01*
X128562600Y-65762600D01*
X128528294Y-65760915D01*
X128494318Y-65755875D01*
X128461000Y-65747529D01*
X128428661Y-65735958D01*
X128397611Y-65721272D01*
X128368150Y-65703614D01*
X128340562Y-65683154D01*
X128315113Y-65660087D01*
X128292046Y-65634638D01*
X128271586Y-65607050D01*
X128253928Y-65577589D01*
X128239242Y-65546539D01*
X128227671Y-65514200D01*
X128219325Y-65480882D01*
X128214285Y-65446906D01*
X128212600Y-65412600D01*
X128212600Y-64262600D01*
X128214285Y-64228294D01*
X128219325Y-64194318D01*
X128227671Y-64161000D01*
X128239242Y-64128661D01*
X128253928Y-64097611D01*
X128271586Y-64068150D01*
X128292046Y-64040562D01*
X128315113Y-64015113D01*
X128340562Y-63992046D01*
X128368150Y-63971586D01*
X128397611Y-63953928D01*
X128428661Y-63939242D01*
X128461000Y-63927671D01*
X128494318Y-63919325D01*
X128528294Y-63914285D01*
X128562600Y-63912600D01*
X129262600Y-63912600D01*
X129296906Y-63914285D01*
G37*
G36*
X125961906Y-59874285D02*
G01*
X125995882Y-59879325D01*
X126029200Y-59887671D01*
X126061539Y-59899242D01*
X126092589Y-59913928D01*
X126122050Y-59931586D01*
X126149638Y-59952046D01*
X126175087Y-59975113D01*
X126198154Y-60000562D01*
X126218614Y-60028150D01*
X126236272Y-60057611D01*
X126250958Y-60088661D01*
X126262529Y-60121000D01*
X126270875Y-60154318D01*
X126275915Y-60188294D01*
X126277600Y-60222600D01*
X126277600Y-61372600D01*
X126275915Y-61406906D01*
X126270875Y-61440882D01*
X126262529Y-61474200D01*
X126250958Y-61506539D01*
X126236272Y-61537589D01*
X126218614Y-61567050D01*
X126198154Y-61594638D01*
X126175087Y-61620087D01*
X126149638Y-61643154D01*
X126122050Y-61663614D01*
X126092589Y-61681272D01*
X126061539Y-61695958D01*
X126029200Y-61707529D01*
X125995882Y-61715875D01*
X125961906Y-61720915D01*
X125927600Y-61722600D01*
X125227600Y-61722600D01*
X125193294Y-61720915D01*
X125159318Y-61715875D01*
X125126000Y-61707529D01*
X125093661Y-61695958D01*
X125062611Y-61681272D01*
X125033150Y-61663614D01*
X125005562Y-61643154D01*
X124980113Y-61620087D01*
X124957046Y-61594638D01*
X124936586Y-61567050D01*
X124918928Y-61537589D01*
X124904242Y-61506539D01*
X124892671Y-61474200D01*
X124884325Y-61440882D01*
X124879285Y-61406906D01*
X124877600Y-61372600D01*
X124877600Y-60222600D01*
X124879285Y-60188294D01*
X124884325Y-60154318D01*
X124892671Y-60121000D01*
X124904242Y-60088661D01*
X124918928Y-60057611D01*
X124936586Y-60028150D01*
X124957046Y-60000562D01*
X124980113Y-59975113D01*
X125005562Y-59952046D01*
X125033150Y-59931586D01*
X125062611Y-59913928D01*
X125093661Y-59899242D01*
X125126000Y-59887671D01*
X125159318Y-59879325D01*
X125193294Y-59874285D01*
X125227600Y-59872600D01*
X125927600Y-59872600D01*
X125961906Y-59874285D01*
G37*
G36*
X124061906Y-59874285D02*
G01*
X124095882Y-59879325D01*
X124129200Y-59887671D01*
X124161539Y-59899242D01*
X124192589Y-59913928D01*
X124222050Y-59931586D01*
X124249638Y-59952046D01*
X124275087Y-59975113D01*
X124298154Y-60000562D01*
X124318614Y-60028150D01*
X124336272Y-60057611D01*
X124350958Y-60088661D01*
X124362529Y-60121000D01*
X124370875Y-60154318D01*
X124375915Y-60188294D01*
X124377600Y-60222600D01*
X124377600Y-61372600D01*
X124375915Y-61406906D01*
X124370875Y-61440882D01*
X124362529Y-61474200D01*
X124350958Y-61506539D01*
X124336272Y-61537589D01*
X124318614Y-61567050D01*
X124298154Y-61594638D01*
X124275087Y-61620087D01*
X124249638Y-61643154D01*
X124222050Y-61663614D01*
X124192589Y-61681272D01*
X124161539Y-61695958D01*
X124129200Y-61707529D01*
X124095882Y-61715875D01*
X124061906Y-61720915D01*
X124027600Y-61722600D01*
X123327600Y-61722600D01*
X123293294Y-61720915D01*
X123259318Y-61715875D01*
X123226000Y-61707529D01*
X123193661Y-61695958D01*
X123162611Y-61681272D01*
X123133150Y-61663614D01*
X123105562Y-61643154D01*
X123080113Y-61620087D01*
X123057046Y-61594638D01*
X123036586Y-61567050D01*
X123018928Y-61537589D01*
X123004242Y-61506539D01*
X122992671Y-61474200D01*
X122984325Y-61440882D01*
X122979285Y-61406906D01*
X122977600Y-61372600D01*
X122977600Y-60222600D01*
X122979285Y-60188294D01*
X122984325Y-60154318D01*
X122992671Y-60121000D01*
X123004242Y-60088661D01*
X123018928Y-60057611D01*
X123036586Y-60028150D01*
X123057046Y-60000562D01*
X123080113Y-59975113D01*
X123105562Y-59952046D01*
X123133150Y-59931586D01*
X123162611Y-59913928D01*
X123193661Y-59899242D01*
X123226000Y-59887671D01*
X123259318Y-59879325D01*
X123293294Y-59874285D01*
X123327600Y-59872600D01*
X124027600Y-59872600D01*
X124061906Y-59874285D01*
G37*
G36*
X126292104Y-63428804D02*
G01*
X126316373Y-63432404D01*
X126340171Y-63438365D01*
X126363271Y-63446630D01*
X126385449Y-63457120D01*
X126406493Y-63469733D01*
X126426198Y-63484347D01*
X126444377Y-63500823D01*
X126460853Y-63519002D01*
X126475467Y-63538707D01*
X126488080Y-63559751D01*
X126498570Y-63581929D01*
X126506835Y-63605029D01*
X126512796Y-63628827D01*
X126516396Y-63653096D01*
X126517600Y-63677600D01*
X126517600Y-64177600D01*
X126516396Y-64202104D01*
X126512796Y-64226373D01*
X126506835Y-64250171D01*
X126498570Y-64273271D01*
X126488080Y-64295449D01*
X126475467Y-64316493D01*
X126460853Y-64336198D01*
X126444377Y-64354377D01*
X126426198Y-64370853D01*
X126406493Y-64385467D01*
X126385449Y-64398080D01*
X126363271Y-64408570D01*
X126340171Y-64416835D01*
X126316373Y-64422796D01*
X126292104Y-64426396D01*
X126267600Y-64427600D01*
X124417600Y-64427600D01*
X124393096Y-64426396D01*
X124368827Y-64422796D01*
X124345029Y-64416835D01*
X124321929Y-64408570D01*
X124299751Y-64398080D01*
X124278707Y-64385467D01*
X124259002Y-64370853D01*
X124240823Y-64354377D01*
X124224347Y-64336198D01*
X124209733Y-64316493D01*
X124197120Y-64295449D01*
X124186630Y-64273271D01*
X124178365Y-64250171D01*
X124172404Y-64226373D01*
X124168804Y-64202104D01*
X124167600Y-64177600D01*
X124167600Y-63677600D01*
X124168804Y-63653096D01*
X124172404Y-63628827D01*
X124178365Y-63605029D01*
X124186630Y-63581929D01*
X124197120Y-63559751D01*
X124209733Y-63538707D01*
X124224347Y-63519002D01*
X124240823Y-63500823D01*
X124259002Y-63484347D01*
X124278707Y-63469733D01*
X124299751Y-63457120D01*
X124321929Y-63446630D01*
X124345029Y-63438365D01*
X124368827Y-63432404D01*
X124393096Y-63428804D01*
X124417600Y-63427600D01*
X126267600Y-63427600D01*
X126292104Y-63428804D01*
G37*
G36*
X126292104Y-64698804D02*
G01*
X126316373Y-64702404D01*
X126340171Y-64708365D01*
X126363271Y-64716630D01*
X126385449Y-64727120D01*
X126406493Y-64739733D01*
X126426198Y-64754347D01*
X126444377Y-64770823D01*
X126460853Y-64789002D01*
X126475467Y-64808707D01*
X126488080Y-64829751D01*
X126498570Y-64851929D01*
X126506835Y-64875029D01*
X126512796Y-64898827D01*
X126516396Y-64923096D01*
X126517600Y-64947600D01*
X126517600Y-65447600D01*
X126516396Y-65472104D01*
X126512796Y-65496373D01*
X126506835Y-65520171D01*
X126498570Y-65543271D01*
X126488080Y-65565449D01*
X126475467Y-65586493D01*
X126460853Y-65606198D01*
X126444377Y-65624377D01*
X126426198Y-65640853D01*
X126406493Y-65655467D01*
X126385449Y-65668080D01*
X126363271Y-65678570D01*
X126340171Y-65686835D01*
X126316373Y-65692796D01*
X126292104Y-65696396D01*
X126267600Y-65697600D01*
X124417600Y-65697600D01*
X124393096Y-65696396D01*
X124368827Y-65692796D01*
X124345029Y-65686835D01*
X124321929Y-65678570D01*
X124299751Y-65668080D01*
X124278707Y-65655467D01*
X124259002Y-65640853D01*
X124240823Y-65624377D01*
X124224347Y-65606198D01*
X124209733Y-65586493D01*
X124197120Y-65565449D01*
X124186630Y-65543271D01*
X124178365Y-65520171D01*
X124172404Y-65496373D01*
X124168804Y-65472104D01*
X124167600Y-65447600D01*
X124167600Y-64947600D01*
X124168804Y-64923096D01*
X124172404Y-64898827D01*
X124178365Y-64875029D01*
X124186630Y-64851929D01*
X124197120Y-64829751D01*
X124209733Y-64808707D01*
X124224347Y-64789002D01*
X124240823Y-64770823D01*
X124259002Y-64754347D01*
X124278707Y-64739733D01*
X124299751Y-64727120D01*
X124321929Y-64716630D01*
X124345029Y-64708365D01*
X124368827Y-64702404D01*
X124393096Y-64698804D01*
X124417600Y-64697600D01*
X126267600Y-64697600D01*
X126292104Y-64698804D01*
G37*
G36*
X126292104Y-65968804D02*
G01*
X126316373Y-65972404D01*
X126340171Y-65978365D01*
X126363271Y-65986630D01*
X126385449Y-65997120D01*
X126406493Y-66009733D01*
X126426198Y-66024347D01*
X126444377Y-66040823D01*
X126460853Y-66059002D01*
X126475467Y-66078707D01*
X126488080Y-66099751D01*
X126498570Y-66121929D01*
X126506835Y-66145029D01*
X126512796Y-66168827D01*
X126516396Y-66193096D01*
X126517600Y-66217600D01*
X126517600Y-66717600D01*
X126516396Y-66742104D01*
X126512796Y-66766373D01*
X126506835Y-66790171D01*
X126498570Y-66813271D01*
X126488080Y-66835449D01*
X126475467Y-66856493D01*
X126460853Y-66876198D01*
X126444377Y-66894377D01*
X126426198Y-66910853D01*
X126406493Y-66925467D01*
X126385449Y-66938080D01*
X126363271Y-66948570D01*
X126340171Y-66956835D01*
X126316373Y-66962796D01*
X126292104Y-66966396D01*
X126267600Y-66967600D01*
X124417600Y-66967600D01*
X124393096Y-66966396D01*
X124368827Y-66962796D01*
X124345029Y-66956835D01*
X124321929Y-66948570D01*
X124299751Y-66938080D01*
X124278707Y-66925467D01*
X124259002Y-66910853D01*
X124240823Y-66894377D01*
X124224347Y-66876198D01*
X124209733Y-66856493D01*
X124197120Y-66835449D01*
X124186630Y-66813271D01*
X124178365Y-66790171D01*
X124172404Y-66766373D01*
X124168804Y-66742104D01*
X124167600Y-66717600D01*
X124167600Y-66217600D01*
X124168804Y-66193096D01*
X124172404Y-66168827D01*
X124178365Y-66145029D01*
X124186630Y-66121929D01*
X124197120Y-66099751D01*
X124209733Y-66078707D01*
X124224347Y-66059002D01*
X124240823Y-66040823D01*
X124259002Y-66024347D01*
X124278707Y-66009733D01*
X124299751Y-65997120D01*
X124321929Y-65986630D01*
X124345029Y-65978365D01*
X124368827Y-65972404D01*
X124393096Y-65968804D01*
X124417600Y-65967600D01*
X126267600Y-65967600D01*
X126292104Y-65968804D01*
G37*
G36*
X126292104Y-67238804D02*
G01*
X126316373Y-67242404D01*
X126340171Y-67248365D01*
X126363271Y-67256630D01*
X126385449Y-67267120D01*
X126406493Y-67279733D01*
X126426198Y-67294347D01*
X126444377Y-67310823D01*
X126460853Y-67329002D01*
X126475467Y-67348707D01*
X126488080Y-67369751D01*
X126498570Y-67391929D01*
X126506835Y-67415029D01*
X126512796Y-67438827D01*
X126516396Y-67463096D01*
X126517600Y-67487600D01*
X126517600Y-67987600D01*
X126516396Y-68012104D01*
X126512796Y-68036373D01*
X126506835Y-68060171D01*
X126498570Y-68083271D01*
X126488080Y-68105449D01*
X126475467Y-68126493D01*
X126460853Y-68146198D01*
X126444377Y-68164377D01*
X126426198Y-68180853D01*
X126406493Y-68195467D01*
X126385449Y-68208080D01*
X126363271Y-68218570D01*
X126340171Y-68226835D01*
X126316373Y-68232796D01*
X126292104Y-68236396D01*
X126267600Y-68237600D01*
X124417600Y-68237600D01*
X124393096Y-68236396D01*
X124368827Y-68232796D01*
X124345029Y-68226835D01*
X124321929Y-68218570D01*
X124299751Y-68208080D01*
X124278707Y-68195467D01*
X124259002Y-68180853D01*
X124240823Y-68164377D01*
X124224347Y-68146198D01*
X124209733Y-68126493D01*
X124197120Y-68105449D01*
X124186630Y-68083271D01*
X124178365Y-68060171D01*
X124172404Y-68036373D01*
X124168804Y-68012104D01*
X124167600Y-67987600D01*
X124167600Y-67487600D01*
X124168804Y-67463096D01*
X124172404Y-67438827D01*
X124178365Y-67415029D01*
X124186630Y-67391929D01*
X124197120Y-67369751D01*
X124209733Y-67348707D01*
X124224347Y-67329002D01*
X124240823Y-67310823D01*
X124259002Y-67294347D01*
X124278707Y-67279733D01*
X124299751Y-67267120D01*
X124321929Y-67256630D01*
X124345029Y-67248365D01*
X124368827Y-67242404D01*
X124393096Y-67238804D01*
X124417600Y-67237600D01*
X126267600Y-67237600D01*
X126292104Y-67238804D01*
G37*
G36*
X126292104Y-68508804D02*
G01*
X126316373Y-68512404D01*
X126340171Y-68518365D01*
X126363271Y-68526630D01*
X126385449Y-68537120D01*
X126406493Y-68549733D01*
X126426198Y-68564347D01*
X126444377Y-68580823D01*
X126460853Y-68599002D01*
X126475467Y-68618707D01*
X126488080Y-68639751D01*
X126498570Y-68661929D01*
X126506835Y-68685029D01*
X126512796Y-68708827D01*
X126516396Y-68733096D01*
X126517600Y-68757600D01*
X126517600Y-69257600D01*
X126516396Y-69282104D01*
X126512796Y-69306373D01*
X126506835Y-69330171D01*
X126498570Y-69353271D01*
X126488080Y-69375449D01*
X126475467Y-69396493D01*
X126460853Y-69416198D01*
X126444377Y-69434377D01*
X126426198Y-69450853D01*
X126406493Y-69465467D01*
X126385449Y-69478080D01*
X126363271Y-69488570D01*
X126340171Y-69496835D01*
X126316373Y-69502796D01*
X126292104Y-69506396D01*
X126267600Y-69507600D01*
X124417600Y-69507600D01*
X124393096Y-69506396D01*
X124368827Y-69502796D01*
X124345029Y-69496835D01*
X124321929Y-69488570D01*
X124299751Y-69478080D01*
X124278707Y-69465467D01*
X124259002Y-69450853D01*
X124240823Y-69434377D01*
X124224347Y-69416198D01*
X124209733Y-69396493D01*
X124197120Y-69375449D01*
X124186630Y-69353271D01*
X124178365Y-69330171D01*
X124172404Y-69306373D01*
X124168804Y-69282104D01*
X124167600Y-69257600D01*
X124167600Y-68757600D01*
X124168804Y-68733096D01*
X124172404Y-68708827D01*
X124178365Y-68685029D01*
X124186630Y-68661929D01*
X124197120Y-68639751D01*
X124209733Y-68618707D01*
X124224347Y-68599002D01*
X124240823Y-68580823D01*
X124259002Y-68564347D01*
X124278707Y-68549733D01*
X124299751Y-68537120D01*
X124321929Y-68526630D01*
X124345029Y-68518365D01*
X124368827Y-68512404D01*
X124393096Y-68508804D01*
X124417600Y-68507600D01*
X126267600Y-68507600D01*
X126292104Y-68508804D01*
G37*
G36*
X126292104Y-69778804D02*
G01*
X126316373Y-69782404D01*
X126340171Y-69788365D01*
X126363271Y-69796630D01*
X126385449Y-69807120D01*
X126406493Y-69819733D01*
X126426198Y-69834347D01*
X126444377Y-69850823D01*
X126460853Y-69869002D01*
X126475467Y-69888707D01*
X126488080Y-69909751D01*
X126498570Y-69931929D01*
X126506835Y-69955029D01*
X126512796Y-69978827D01*
X126516396Y-70003096D01*
X126517600Y-70027600D01*
X126517600Y-70527600D01*
X126516396Y-70552104D01*
X126512796Y-70576373D01*
X126506835Y-70600171D01*
X126498570Y-70623271D01*
X126488080Y-70645449D01*
X126475467Y-70666493D01*
X126460853Y-70686198D01*
X126444377Y-70704377D01*
X126426198Y-70720853D01*
X126406493Y-70735467D01*
X126385449Y-70748080D01*
X126363271Y-70758570D01*
X126340171Y-70766835D01*
X126316373Y-70772796D01*
X126292104Y-70776396D01*
X126267600Y-70777600D01*
X124417600Y-70777600D01*
X124393096Y-70776396D01*
X124368827Y-70772796D01*
X124345029Y-70766835D01*
X124321929Y-70758570D01*
X124299751Y-70748080D01*
X124278707Y-70735467D01*
X124259002Y-70720853D01*
X124240823Y-70704377D01*
X124224347Y-70686198D01*
X124209733Y-70666493D01*
X124197120Y-70645449D01*
X124186630Y-70623271D01*
X124178365Y-70600171D01*
X124172404Y-70576373D01*
X124168804Y-70552104D01*
X124167600Y-70527600D01*
X124167600Y-70027600D01*
X124168804Y-70003096D01*
X124172404Y-69978827D01*
X124178365Y-69955029D01*
X124186630Y-69931929D01*
X124197120Y-69909751D01*
X124209733Y-69888707D01*
X124224347Y-69869002D01*
X124240823Y-69850823D01*
X124259002Y-69834347D01*
X124278707Y-69819733D01*
X124299751Y-69807120D01*
X124321929Y-69796630D01*
X124345029Y-69788365D01*
X124368827Y-69782404D01*
X124393096Y-69778804D01*
X124417600Y-69777600D01*
X126267600Y-69777600D01*
X126292104Y-69778804D01*
G37*
G36*
X126292104Y-71048804D02*
G01*
X126316373Y-71052404D01*
X126340171Y-71058365D01*
X126363271Y-71066630D01*
X126385449Y-71077120D01*
X126406493Y-71089733D01*
X126426198Y-71104347D01*
X126444377Y-71120823D01*
X126460853Y-71139002D01*
X126475467Y-71158707D01*
X126488080Y-71179751D01*
X126498570Y-71201929D01*
X126506835Y-71225029D01*
X126512796Y-71248827D01*
X126516396Y-71273096D01*
X126517600Y-71297600D01*
X126517600Y-71797600D01*
X126516396Y-71822104D01*
X126512796Y-71846373D01*
X126506835Y-71870171D01*
X126498570Y-71893271D01*
X126488080Y-71915449D01*
X126475467Y-71936493D01*
X126460853Y-71956198D01*
X126444377Y-71974377D01*
X126426198Y-71990853D01*
X126406493Y-72005467D01*
X126385449Y-72018080D01*
X126363271Y-72028570D01*
X126340171Y-72036835D01*
X126316373Y-72042796D01*
X126292104Y-72046396D01*
X126267600Y-72047600D01*
X124417600Y-72047600D01*
X124393096Y-72046396D01*
X124368827Y-72042796D01*
X124345029Y-72036835D01*
X124321929Y-72028570D01*
X124299751Y-72018080D01*
X124278707Y-72005467D01*
X124259002Y-71990853D01*
X124240823Y-71974377D01*
X124224347Y-71956198D01*
X124209733Y-71936493D01*
X124197120Y-71915449D01*
X124186630Y-71893271D01*
X124178365Y-71870171D01*
X124172404Y-71846373D01*
X124168804Y-71822104D01*
X124167600Y-71797600D01*
X124167600Y-71297600D01*
X124168804Y-71273096D01*
X124172404Y-71248827D01*
X124178365Y-71225029D01*
X124186630Y-71201929D01*
X124197120Y-71179751D01*
X124209733Y-71158707D01*
X124224347Y-71139002D01*
X124240823Y-71120823D01*
X124259002Y-71104347D01*
X124278707Y-71089733D01*
X124299751Y-71077120D01*
X124321929Y-71066630D01*
X124345029Y-71058365D01*
X124368827Y-71052404D01*
X124393096Y-71048804D01*
X124417600Y-71047600D01*
X126267600Y-71047600D01*
X126292104Y-71048804D01*
G37*
G36*
X121342104Y-71048804D02*
G01*
X121366373Y-71052404D01*
X121390171Y-71058365D01*
X121413271Y-71066630D01*
X121435449Y-71077120D01*
X121456493Y-71089733D01*
X121476198Y-71104347D01*
X121494377Y-71120823D01*
X121510853Y-71139002D01*
X121525467Y-71158707D01*
X121538080Y-71179751D01*
X121548570Y-71201929D01*
X121556835Y-71225029D01*
X121562796Y-71248827D01*
X121566396Y-71273096D01*
X121567600Y-71297600D01*
X121567600Y-71797600D01*
X121566396Y-71822104D01*
X121562796Y-71846373D01*
X121556835Y-71870171D01*
X121548570Y-71893271D01*
X121538080Y-71915449D01*
X121525467Y-71936493D01*
X121510853Y-71956198D01*
X121494377Y-71974377D01*
X121476198Y-71990853D01*
X121456493Y-72005467D01*
X121435449Y-72018080D01*
X121413271Y-72028570D01*
X121390171Y-72036835D01*
X121366373Y-72042796D01*
X121342104Y-72046396D01*
X121317600Y-72047600D01*
X119467600Y-72047600D01*
X119443096Y-72046396D01*
X119418827Y-72042796D01*
X119395029Y-72036835D01*
X119371929Y-72028570D01*
X119349751Y-72018080D01*
X119328707Y-72005467D01*
X119309002Y-71990853D01*
X119290823Y-71974377D01*
X119274347Y-71956198D01*
X119259733Y-71936493D01*
X119247120Y-71915449D01*
X119236630Y-71893271D01*
X119228365Y-71870171D01*
X119222404Y-71846373D01*
X119218804Y-71822104D01*
X119217600Y-71797600D01*
X119217600Y-71297600D01*
X119218804Y-71273096D01*
X119222404Y-71248827D01*
X119228365Y-71225029D01*
X119236630Y-71201929D01*
X119247120Y-71179751D01*
X119259733Y-71158707D01*
X119274347Y-71139002D01*
X119290823Y-71120823D01*
X119309002Y-71104347D01*
X119328707Y-71089733D01*
X119349751Y-71077120D01*
X119371929Y-71066630D01*
X119395029Y-71058365D01*
X119418827Y-71052404D01*
X119443096Y-71048804D01*
X119467600Y-71047600D01*
X121317600Y-71047600D01*
X121342104Y-71048804D01*
G37*
G36*
X121342104Y-69778804D02*
G01*
X121366373Y-69782404D01*
X121390171Y-69788365D01*
X121413271Y-69796630D01*
X121435449Y-69807120D01*
X121456493Y-69819733D01*
X121476198Y-69834347D01*
X121494377Y-69850823D01*
X121510853Y-69869002D01*
X121525467Y-69888707D01*
X121538080Y-69909751D01*
X121548570Y-69931929D01*
X121556835Y-69955029D01*
X121562796Y-69978827D01*
X121566396Y-70003096D01*
X121567600Y-70027600D01*
X121567600Y-70527600D01*
X121566396Y-70552104D01*
X121562796Y-70576373D01*
X121556835Y-70600171D01*
X121548570Y-70623271D01*
X121538080Y-70645449D01*
X121525467Y-70666493D01*
X121510853Y-70686198D01*
X121494377Y-70704377D01*
X121476198Y-70720853D01*
X121456493Y-70735467D01*
X121435449Y-70748080D01*
X121413271Y-70758570D01*
X121390171Y-70766835D01*
X121366373Y-70772796D01*
X121342104Y-70776396D01*
X121317600Y-70777600D01*
X119467600Y-70777600D01*
X119443096Y-70776396D01*
X119418827Y-70772796D01*
X119395029Y-70766835D01*
X119371929Y-70758570D01*
X119349751Y-70748080D01*
X119328707Y-70735467D01*
X119309002Y-70720853D01*
X119290823Y-70704377D01*
X119274347Y-70686198D01*
X119259733Y-70666493D01*
X119247120Y-70645449D01*
X119236630Y-70623271D01*
X119228365Y-70600171D01*
X119222404Y-70576373D01*
X119218804Y-70552104D01*
X119217600Y-70527600D01*
X119217600Y-70027600D01*
X119218804Y-70003096D01*
X119222404Y-69978827D01*
X119228365Y-69955029D01*
X119236630Y-69931929D01*
X119247120Y-69909751D01*
X119259733Y-69888707D01*
X119274347Y-69869002D01*
X119290823Y-69850823D01*
X119309002Y-69834347D01*
X119328707Y-69819733D01*
X119349751Y-69807120D01*
X119371929Y-69796630D01*
X119395029Y-69788365D01*
X119418827Y-69782404D01*
X119443096Y-69778804D01*
X119467600Y-69777600D01*
X121317600Y-69777600D01*
X121342104Y-69778804D01*
G37*
G36*
X121342104Y-68508804D02*
G01*
X121366373Y-68512404D01*
X121390171Y-68518365D01*
X121413271Y-68526630D01*
X121435449Y-68537120D01*
X121456493Y-68549733D01*
X121476198Y-68564347D01*
X121494377Y-68580823D01*
X121510853Y-68599002D01*
X121525467Y-68618707D01*
X121538080Y-68639751D01*
X121548570Y-68661929D01*
X121556835Y-68685029D01*
X121562796Y-68708827D01*
X121566396Y-68733096D01*
X121567600Y-68757600D01*
X121567600Y-69257600D01*
X121566396Y-69282104D01*
X121562796Y-69306373D01*
X121556835Y-69330171D01*
X121548570Y-69353271D01*
X121538080Y-69375449D01*
X121525467Y-69396493D01*
X121510853Y-69416198D01*
X121494377Y-69434377D01*
X121476198Y-69450853D01*
X121456493Y-69465467D01*
X121435449Y-69478080D01*
X121413271Y-69488570D01*
X121390171Y-69496835D01*
X121366373Y-69502796D01*
X121342104Y-69506396D01*
X121317600Y-69507600D01*
X119467600Y-69507600D01*
X119443096Y-69506396D01*
X119418827Y-69502796D01*
X119395029Y-69496835D01*
X119371929Y-69488570D01*
X119349751Y-69478080D01*
X119328707Y-69465467D01*
X119309002Y-69450853D01*
X119290823Y-69434377D01*
X119274347Y-69416198D01*
X119259733Y-69396493D01*
X119247120Y-69375449D01*
X119236630Y-69353271D01*
X119228365Y-69330171D01*
X119222404Y-69306373D01*
X119218804Y-69282104D01*
X119217600Y-69257600D01*
X119217600Y-68757600D01*
X119218804Y-68733096D01*
X119222404Y-68708827D01*
X119228365Y-68685029D01*
X119236630Y-68661929D01*
X119247120Y-68639751D01*
X119259733Y-68618707D01*
X119274347Y-68599002D01*
X119290823Y-68580823D01*
X119309002Y-68564347D01*
X119328707Y-68549733D01*
X119349751Y-68537120D01*
X119371929Y-68526630D01*
X119395029Y-68518365D01*
X119418827Y-68512404D01*
X119443096Y-68508804D01*
X119467600Y-68507600D01*
X121317600Y-68507600D01*
X121342104Y-68508804D01*
G37*
G36*
X121342104Y-67238804D02*
G01*
X121366373Y-67242404D01*
X121390171Y-67248365D01*
X121413271Y-67256630D01*
X121435449Y-67267120D01*
X121456493Y-67279733D01*
X121476198Y-67294347D01*
X121494377Y-67310823D01*
X121510853Y-67329002D01*
X121525467Y-67348707D01*
X121538080Y-67369751D01*
X121548570Y-67391929D01*
X121556835Y-67415029D01*
X121562796Y-67438827D01*
X121566396Y-67463096D01*
X121567600Y-67487600D01*
X121567600Y-67987600D01*
X121566396Y-68012104D01*
X121562796Y-68036373D01*
X121556835Y-68060171D01*
X121548570Y-68083271D01*
X121538080Y-68105449D01*
X121525467Y-68126493D01*
X121510853Y-68146198D01*
X121494377Y-68164377D01*
X121476198Y-68180853D01*
X121456493Y-68195467D01*
X121435449Y-68208080D01*
X121413271Y-68218570D01*
X121390171Y-68226835D01*
X121366373Y-68232796D01*
X121342104Y-68236396D01*
X121317600Y-68237600D01*
X119467600Y-68237600D01*
X119443096Y-68236396D01*
X119418827Y-68232796D01*
X119395029Y-68226835D01*
X119371929Y-68218570D01*
X119349751Y-68208080D01*
X119328707Y-68195467D01*
X119309002Y-68180853D01*
X119290823Y-68164377D01*
X119274347Y-68146198D01*
X119259733Y-68126493D01*
X119247120Y-68105449D01*
X119236630Y-68083271D01*
X119228365Y-68060171D01*
X119222404Y-68036373D01*
X119218804Y-68012104D01*
X119217600Y-67987600D01*
X119217600Y-67487600D01*
X119218804Y-67463096D01*
X119222404Y-67438827D01*
X119228365Y-67415029D01*
X119236630Y-67391929D01*
X119247120Y-67369751D01*
X119259733Y-67348707D01*
X119274347Y-67329002D01*
X119290823Y-67310823D01*
X119309002Y-67294347D01*
X119328707Y-67279733D01*
X119349751Y-67267120D01*
X119371929Y-67256630D01*
X119395029Y-67248365D01*
X119418827Y-67242404D01*
X119443096Y-67238804D01*
X119467600Y-67237600D01*
X121317600Y-67237600D01*
X121342104Y-67238804D01*
G37*
G36*
X121342104Y-65968804D02*
G01*
X121366373Y-65972404D01*
X121390171Y-65978365D01*
X121413271Y-65986630D01*
X121435449Y-65997120D01*
X121456493Y-66009733D01*
X121476198Y-66024347D01*
X121494377Y-66040823D01*
X121510853Y-66059002D01*
X121525467Y-66078707D01*
X121538080Y-66099751D01*
X121548570Y-66121929D01*
X121556835Y-66145029D01*
X121562796Y-66168827D01*
X121566396Y-66193096D01*
X121567600Y-66217600D01*
X121567600Y-66717600D01*
X121566396Y-66742104D01*
X121562796Y-66766373D01*
X121556835Y-66790171D01*
X121548570Y-66813271D01*
X121538080Y-66835449D01*
X121525467Y-66856493D01*
X121510853Y-66876198D01*
X121494377Y-66894377D01*
X121476198Y-66910853D01*
X121456493Y-66925467D01*
X121435449Y-66938080D01*
X121413271Y-66948570D01*
X121390171Y-66956835D01*
X121366373Y-66962796D01*
X121342104Y-66966396D01*
X121317600Y-66967600D01*
X119467600Y-66967600D01*
X119443096Y-66966396D01*
X119418827Y-66962796D01*
X119395029Y-66956835D01*
X119371929Y-66948570D01*
X119349751Y-66938080D01*
X119328707Y-66925467D01*
X119309002Y-66910853D01*
X119290823Y-66894377D01*
X119274347Y-66876198D01*
X119259733Y-66856493D01*
X119247120Y-66835449D01*
X119236630Y-66813271D01*
X119228365Y-66790171D01*
X119222404Y-66766373D01*
X119218804Y-66742104D01*
X119217600Y-66717600D01*
X119217600Y-66217600D01*
X119218804Y-66193096D01*
X119222404Y-66168827D01*
X119228365Y-66145029D01*
X119236630Y-66121929D01*
X119247120Y-66099751D01*
X119259733Y-66078707D01*
X119274347Y-66059002D01*
X119290823Y-66040823D01*
X119309002Y-66024347D01*
X119328707Y-66009733D01*
X119349751Y-65997120D01*
X119371929Y-65986630D01*
X119395029Y-65978365D01*
X119418827Y-65972404D01*
X119443096Y-65968804D01*
X119467600Y-65967600D01*
X121317600Y-65967600D01*
X121342104Y-65968804D01*
G37*
G36*
X121342104Y-64698804D02*
G01*
X121366373Y-64702404D01*
X121390171Y-64708365D01*
X121413271Y-64716630D01*
X121435449Y-64727120D01*
X121456493Y-64739733D01*
X121476198Y-64754347D01*
X121494377Y-64770823D01*
X121510853Y-64789002D01*
X121525467Y-64808707D01*
X121538080Y-64829751D01*
X121548570Y-64851929D01*
X121556835Y-64875029D01*
X121562796Y-64898827D01*
X121566396Y-64923096D01*
X121567600Y-64947600D01*
X121567600Y-65447600D01*
X121566396Y-65472104D01*
X121562796Y-65496373D01*
X121556835Y-65520171D01*
X121548570Y-65543271D01*
X121538080Y-65565449D01*
X121525467Y-65586493D01*
X121510853Y-65606198D01*
X121494377Y-65624377D01*
X121476198Y-65640853D01*
X121456493Y-65655467D01*
X121435449Y-65668080D01*
X121413271Y-65678570D01*
X121390171Y-65686835D01*
X121366373Y-65692796D01*
X121342104Y-65696396D01*
X121317600Y-65697600D01*
X119467600Y-65697600D01*
X119443096Y-65696396D01*
X119418827Y-65692796D01*
X119395029Y-65686835D01*
X119371929Y-65678570D01*
X119349751Y-65668080D01*
X119328707Y-65655467D01*
X119309002Y-65640853D01*
X119290823Y-65624377D01*
X119274347Y-65606198D01*
X119259733Y-65586493D01*
X119247120Y-65565449D01*
X119236630Y-65543271D01*
X119228365Y-65520171D01*
X119222404Y-65496373D01*
X119218804Y-65472104D01*
X119217600Y-65447600D01*
X119217600Y-64947600D01*
X119218804Y-64923096D01*
X119222404Y-64898827D01*
X119228365Y-64875029D01*
X119236630Y-64851929D01*
X119247120Y-64829751D01*
X119259733Y-64808707D01*
X119274347Y-64789002D01*
X119290823Y-64770823D01*
X119309002Y-64754347D01*
X119328707Y-64739733D01*
X119349751Y-64727120D01*
X119371929Y-64716630D01*
X119395029Y-64708365D01*
X119418827Y-64702404D01*
X119443096Y-64698804D01*
X119467600Y-64697600D01*
X121317600Y-64697600D01*
X121342104Y-64698804D01*
G37*
G36*
X121342104Y-63428804D02*
G01*
X121366373Y-63432404D01*
X121390171Y-63438365D01*
X121413271Y-63446630D01*
X121435449Y-63457120D01*
X121456493Y-63469733D01*
X121476198Y-63484347D01*
X121494377Y-63500823D01*
X121510853Y-63519002D01*
X121525467Y-63538707D01*
X121538080Y-63559751D01*
X121548570Y-63581929D01*
X121556835Y-63605029D01*
X121562796Y-63628827D01*
X121566396Y-63653096D01*
X121567600Y-63677600D01*
X121567600Y-64177600D01*
X121566396Y-64202104D01*
X121562796Y-64226373D01*
X121556835Y-64250171D01*
X121548570Y-64273271D01*
X121538080Y-64295449D01*
X121525467Y-64316493D01*
X121510853Y-64336198D01*
X121494377Y-64354377D01*
X121476198Y-64370853D01*
X121456493Y-64385467D01*
X121435449Y-64398080D01*
X121413271Y-64408570D01*
X121390171Y-64416835D01*
X121366373Y-64422796D01*
X121342104Y-64426396D01*
X121317600Y-64427600D01*
X119467600Y-64427600D01*
X119443096Y-64426396D01*
X119418827Y-64422796D01*
X119395029Y-64416835D01*
X119371929Y-64408570D01*
X119349751Y-64398080D01*
X119328707Y-64385467D01*
X119309002Y-64370853D01*
X119290823Y-64354377D01*
X119274347Y-64336198D01*
X119259733Y-64316493D01*
X119247120Y-64295449D01*
X119236630Y-64273271D01*
X119228365Y-64250171D01*
X119222404Y-64226373D01*
X119218804Y-64202104D01*
X119217600Y-64177600D01*
X119217600Y-63677600D01*
X119218804Y-63653096D01*
X119222404Y-63628827D01*
X119228365Y-63605029D01*
X119236630Y-63581929D01*
X119247120Y-63559751D01*
X119259733Y-63538707D01*
X119274347Y-63519002D01*
X119290823Y-63500823D01*
X119309002Y-63484347D01*
X119328707Y-63469733D01*
X119349751Y-63457120D01*
X119371929Y-63446630D01*
X119395029Y-63438365D01*
X119418827Y-63432404D01*
X119443096Y-63428804D01*
X119467600Y-63427600D01*
X121317600Y-63427600D01*
X121342104Y-63428804D01*
G37*
D16*
X116757600Y-105637600D03*
D17*
X117487600Y-59742600D03*
X121187600Y-59742600D03*
D16*
X129167600Y-50737600D03*
X104667600Y-50737600D03*
D13*
X104642600Y-64462600D03*
D12*
X107182600Y-64462600D03*
X104642600Y-67002600D03*
X107182600Y-67002600D03*
X104642600Y-69542600D03*
X107182600Y-69542600D03*
D15*
X104142600Y-95787600D03*
X106042600Y-95787600D03*
X105092600Y-93787600D03*
M02*
