M48
; DRILL file {KiCad (5.1.5)-3} date 17/02/2021 08:45:09
; FORMAT={3:3/ absolute / metric / suppress leading zeros}
; #@! TF.CreationDate,2021-02-17T08:45:09+00:00
; #@! TF.GenerationSoftware,Kicad,Pcbnew,(5.1.5)-3
; #@! TF.FileFunction,Plated,1,2,PTH
FMAT,2
METRIC,TZ
T1C0.400
T2C0.750
T3C1.000
%
G90
G05
T1
X102968Y-72538
X103018Y-97598
X104948Y-75058
X105008Y-87718
X105068Y-83378
X105163Y-62023
X106338Y-62023
X107048Y-60998
X107188Y-56528
X107193Y-55613
X108458Y-71678
X108818Y-92713
X109498Y-71688
X109518Y-49913
X109528Y-68728
X109528Y-69853
X109798Y-75058
X109858Y-65688
X109918Y-92713
X110393Y-62763
X110473Y-59328
X110788Y-65708
X111018Y-92713
X111343Y-49913
X111568Y-62763
X111648Y-59328
X112168Y-92713
X112618Y-100738
X112641Y-101688
X112818Y-62763
X112898Y-59328
X113168Y-49913
X113218Y-82075
X113218Y-83900
X113238Y-75478
X113238Y-78688
X113238Y-87808
X113268Y-92713
X114368Y-92713
X115948Y-69648
X116118Y-71758
X116678Y-75058
X116678Y-87698
X117338Y-57028
X117378Y-68468
X117488Y-59743
X118138Y-65428
X118818Y-95453
X118818Y-96433
X118818Y-97413
X120093Y-95453
X120093Y-96433
X120093Y-97413
X120918Y-62578
X121748Y-68428
X122118Y-69988
X122378Y-62378
X122478Y-66618
X123398Y-64068
X123518Y-66108
X123738Y-70538
X123908Y-73828
X124978Y-73818
X125343Y-65198
X125593Y-56988
X126258Y-62538
X126418Y-54188
X127068Y-89788
X127118Y-69558
X127268Y-74828
X127288Y-76018
X127463Y-67717
X127980Y-69159
X128093Y-89788
X128508Y-62568
X128578Y-66378
X128928Y-61338
X129068Y-96063
X129118Y-89788
X129518Y-66358
X129658Y-74828
X129688Y-76018
X130378Y-61338
T2
X121218Y-54388
X123218Y-54388
X122768Y-102038
X124768Y-102038
X127368Y-78888
X129368Y-78888
X110618Y-54388
X112618Y-54388
T3
X109668Y-103763
X109668Y-106303
X104643Y-64463
X104643Y-67003
X104643Y-69543
X107183Y-64463
X107183Y-67003
X107183Y-69543
T0
M30
