M48
; DRILL file {KiCad (5.1.5)-3} date 09/05/2021 10:57:56
; FORMAT={3:3/ absolute / metric / suppress leading zeros}
; #@! TF.CreationDate,2021-05-09T10:57:56+01:00
; #@! TF.GenerationSoftware,Kicad,Pcbnew,(5.1.5)-3
; #@! TF.FileFunction,Plated,1,2,PTH
FMAT,2
METRIC,TZ
T1C0.400
T2C0.500
T3C0.750
T4C1.000
%
G90
G05
T1
X102968Y-72538
X103018Y-97598
X105163Y-62023
X106338Y-62023
X107048Y-60998
X107188Y-56528
X107193Y-55613
X108008Y-93333
X109108Y-93333
X109518Y-49913
X109528Y-68728
X109528Y-69853
X109858Y-65688
X110208Y-93333
X110393Y-62763
X110473Y-59328
X110568Y-100098
X110788Y-65708
X111343Y-49913
X111358Y-93333
X111563Y-100108
X111568Y-62763
X111648Y-59328
X112818Y-62763
X112898Y-59328
X113168Y-49913
X113773Y-80806
X115630Y-80838
X115948Y-69648
X117338Y-57028
X117378Y-68468
X117468Y-93563
X117468Y-94713
X117468Y-95733
X117468Y-96713
X117468Y-97693
X117488Y-59743
X118138Y-65428
X118793Y-93563
X118793Y-94713
X118793Y-95733
X118793Y-96713
X118793Y-97693
X120918Y-62578
X121748Y-68428
X122118Y-69988
X122378Y-62378
X122478Y-66618
X123398Y-64068
X123518Y-66108
X123738Y-70538
X123908Y-73828
X124978Y-73818
X125343Y-65198
X125593Y-56988
X126258Y-62538
X126418Y-54188
X127118Y-69558
X127268Y-74828
X127288Y-76018
X127463Y-67717
X127980Y-69159
X128078Y-90798
X128093Y-89788
X128508Y-62568
X128928Y-61338
X129068Y-96063
X129118Y-89788
X129518Y-66358
X129658Y-74828
X129688Y-76018
X130378Y-61338
T2
X104811Y-100088
X105592Y-100088
X106373Y-100088
X107154Y-100088
X107935Y-100088
X108718Y-100088
X109518Y-100088
T3
X110618Y-54388
X112618Y-54388
X121218Y-54388
X123218Y-54388
X127518Y-78888
X129518Y-78888
X122768Y-102038
X124768Y-102038
T4
X109668Y-103763
X109668Y-106303
X104643Y-64463
X104643Y-67003
X104643Y-69543
X107183Y-64463
X107183Y-67003
X107183Y-69543
T0
M30
