G04 #@! TF.GenerationSoftware,KiCad,Pcbnew,(5.1.5)-3*
G04 #@! TF.CreationDate,2021-03-11T16:31:07+00:00*
G04 #@! TF.ProjectId,ModuleV440,4d6f6475-6c65-4563-9434-302e6b696361,rev?*
G04 #@! TF.SameCoordinates,Original*
G04 #@! TF.FileFunction,Paste,Top*
G04 #@! TF.FilePolarity,Positive*
%FSLAX46Y46*%
G04 Gerber Fmt 4.6, Leading zero omitted, Abs format (unit mm)*
G04 Created by KiCad (PCBNEW (5.1.5)-3) date 2021-03-11 16:31:07*
%MOMM*%
%LPD*%
G04 APERTURE LIST*
%ADD10C,0.100000*%
%ADD11R,2.500000X2.300000*%
%ADD12R,0.800000X0.900000*%
%ADD13R,2.000000X2.400000*%
G04 APERTURE END LIST*
D10*
G36*
X119742104Y-76763804D02*
G01*
X119766373Y-76767404D01*
X119790171Y-76773365D01*
X119813271Y-76781630D01*
X119835449Y-76792120D01*
X119856493Y-76804733D01*
X119876198Y-76819347D01*
X119894377Y-76835823D01*
X119910853Y-76854002D01*
X119925467Y-76873707D01*
X119938080Y-76894751D01*
X119948570Y-76916929D01*
X119956835Y-76940029D01*
X119962796Y-76963827D01*
X119966396Y-76988096D01*
X119967600Y-77012600D01*
X119967600Y-79162600D01*
X119966396Y-79187104D01*
X119962796Y-79211373D01*
X119956835Y-79235171D01*
X119948570Y-79258271D01*
X119938080Y-79280449D01*
X119925467Y-79301493D01*
X119910853Y-79321198D01*
X119894377Y-79339377D01*
X119876198Y-79355853D01*
X119856493Y-79370467D01*
X119835449Y-79383080D01*
X119813271Y-79393570D01*
X119790171Y-79401835D01*
X119766373Y-79407796D01*
X119742104Y-79411396D01*
X119717600Y-79412600D01*
X118992600Y-79412600D01*
X118968096Y-79411396D01*
X118943827Y-79407796D01*
X118920029Y-79401835D01*
X118896929Y-79393570D01*
X118874751Y-79383080D01*
X118853707Y-79370467D01*
X118834002Y-79355853D01*
X118815823Y-79339377D01*
X118799347Y-79321198D01*
X118784733Y-79301493D01*
X118772120Y-79280449D01*
X118761630Y-79258271D01*
X118753365Y-79235171D01*
X118747404Y-79211373D01*
X118743804Y-79187104D01*
X118742600Y-79162600D01*
X118742600Y-77012600D01*
X118743804Y-76988096D01*
X118747404Y-76963827D01*
X118753365Y-76940029D01*
X118761630Y-76916929D01*
X118772120Y-76894751D01*
X118784733Y-76873707D01*
X118799347Y-76854002D01*
X118815823Y-76835823D01*
X118834002Y-76819347D01*
X118853707Y-76804733D01*
X118874751Y-76792120D01*
X118896929Y-76781630D01*
X118920029Y-76773365D01*
X118943827Y-76767404D01*
X118968096Y-76763804D01*
X118992600Y-76762600D01*
X119717600Y-76762600D01*
X119742104Y-76763804D01*
G37*
G36*
X124367104Y-76763804D02*
G01*
X124391373Y-76767404D01*
X124415171Y-76773365D01*
X124438271Y-76781630D01*
X124460449Y-76792120D01*
X124481493Y-76804733D01*
X124501198Y-76819347D01*
X124519377Y-76835823D01*
X124535853Y-76854002D01*
X124550467Y-76873707D01*
X124563080Y-76894751D01*
X124573570Y-76916929D01*
X124581835Y-76940029D01*
X124587796Y-76963827D01*
X124591396Y-76988096D01*
X124592600Y-77012600D01*
X124592600Y-79162600D01*
X124591396Y-79187104D01*
X124587796Y-79211373D01*
X124581835Y-79235171D01*
X124573570Y-79258271D01*
X124563080Y-79280449D01*
X124550467Y-79301493D01*
X124535853Y-79321198D01*
X124519377Y-79339377D01*
X124501198Y-79355853D01*
X124481493Y-79370467D01*
X124460449Y-79383080D01*
X124438271Y-79393570D01*
X124415171Y-79401835D01*
X124391373Y-79407796D01*
X124367104Y-79411396D01*
X124342600Y-79412600D01*
X123617600Y-79412600D01*
X123593096Y-79411396D01*
X123568827Y-79407796D01*
X123545029Y-79401835D01*
X123521929Y-79393570D01*
X123499751Y-79383080D01*
X123478707Y-79370467D01*
X123459002Y-79355853D01*
X123440823Y-79339377D01*
X123424347Y-79321198D01*
X123409733Y-79301493D01*
X123397120Y-79280449D01*
X123386630Y-79258271D01*
X123378365Y-79235171D01*
X123372404Y-79211373D01*
X123368804Y-79187104D01*
X123367600Y-79162600D01*
X123367600Y-77012600D01*
X123368804Y-76988096D01*
X123372404Y-76963827D01*
X123378365Y-76940029D01*
X123386630Y-76916929D01*
X123397120Y-76894751D01*
X123409733Y-76873707D01*
X123424347Y-76854002D01*
X123440823Y-76835823D01*
X123459002Y-76819347D01*
X123478707Y-76804733D01*
X123499751Y-76792120D01*
X123521929Y-76781630D01*
X123545029Y-76773365D01*
X123568827Y-76767404D01*
X123593096Y-76763804D01*
X123617600Y-76762600D01*
X124342600Y-76762600D01*
X124367104Y-76763804D01*
G37*
G36*
X117317104Y-76713804D02*
G01*
X117341373Y-76717404D01*
X117365171Y-76723365D01*
X117388271Y-76731630D01*
X117410449Y-76742120D01*
X117431493Y-76754733D01*
X117451198Y-76769347D01*
X117469377Y-76785823D01*
X117485853Y-76804002D01*
X117500467Y-76823707D01*
X117513080Y-76844751D01*
X117523570Y-76866929D01*
X117531835Y-76890029D01*
X117537796Y-76913827D01*
X117541396Y-76938096D01*
X117542600Y-76962600D01*
X117542600Y-79112600D01*
X117541396Y-79137104D01*
X117537796Y-79161373D01*
X117531835Y-79185171D01*
X117523570Y-79208271D01*
X117513080Y-79230449D01*
X117500467Y-79251493D01*
X117485853Y-79271198D01*
X117469377Y-79289377D01*
X117451198Y-79305853D01*
X117431493Y-79320467D01*
X117410449Y-79333080D01*
X117388271Y-79343570D01*
X117365171Y-79351835D01*
X117341373Y-79357796D01*
X117317104Y-79361396D01*
X117292600Y-79362600D01*
X116567600Y-79362600D01*
X116543096Y-79361396D01*
X116518827Y-79357796D01*
X116495029Y-79351835D01*
X116471929Y-79343570D01*
X116449751Y-79333080D01*
X116428707Y-79320467D01*
X116409002Y-79305853D01*
X116390823Y-79289377D01*
X116374347Y-79271198D01*
X116359733Y-79251493D01*
X116347120Y-79230449D01*
X116336630Y-79208271D01*
X116328365Y-79185171D01*
X116322404Y-79161373D01*
X116318804Y-79137104D01*
X116317600Y-79112600D01*
X116317600Y-76962600D01*
X116318804Y-76938096D01*
X116322404Y-76913827D01*
X116328365Y-76890029D01*
X116336630Y-76866929D01*
X116347120Y-76844751D01*
X116359733Y-76823707D01*
X116374347Y-76804002D01*
X116390823Y-76785823D01*
X116409002Y-76769347D01*
X116428707Y-76754733D01*
X116449751Y-76742120D01*
X116471929Y-76731630D01*
X116495029Y-76723365D01*
X116518827Y-76717404D01*
X116543096Y-76713804D01*
X116567600Y-76712600D01*
X117292600Y-76712600D01*
X117317104Y-76713804D01*
G37*
G36*
X112692104Y-76713804D02*
G01*
X112716373Y-76717404D01*
X112740171Y-76723365D01*
X112763271Y-76731630D01*
X112785449Y-76742120D01*
X112806493Y-76754733D01*
X112826198Y-76769347D01*
X112844377Y-76785823D01*
X112860853Y-76804002D01*
X112875467Y-76823707D01*
X112888080Y-76844751D01*
X112898570Y-76866929D01*
X112906835Y-76890029D01*
X112912796Y-76913827D01*
X112916396Y-76938096D01*
X112917600Y-76962600D01*
X112917600Y-79112600D01*
X112916396Y-79137104D01*
X112912796Y-79161373D01*
X112906835Y-79185171D01*
X112898570Y-79208271D01*
X112888080Y-79230449D01*
X112875467Y-79251493D01*
X112860853Y-79271198D01*
X112844377Y-79289377D01*
X112826198Y-79305853D01*
X112806493Y-79320467D01*
X112785449Y-79333080D01*
X112763271Y-79343570D01*
X112740171Y-79351835D01*
X112716373Y-79357796D01*
X112692104Y-79361396D01*
X112667600Y-79362600D01*
X111942600Y-79362600D01*
X111918096Y-79361396D01*
X111893827Y-79357796D01*
X111870029Y-79351835D01*
X111846929Y-79343570D01*
X111824751Y-79333080D01*
X111803707Y-79320467D01*
X111784002Y-79305853D01*
X111765823Y-79289377D01*
X111749347Y-79271198D01*
X111734733Y-79251493D01*
X111722120Y-79230449D01*
X111711630Y-79208271D01*
X111703365Y-79185171D01*
X111697404Y-79161373D01*
X111693804Y-79137104D01*
X111692600Y-79112600D01*
X111692600Y-76962600D01*
X111693804Y-76938096D01*
X111697404Y-76913827D01*
X111703365Y-76890029D01*
X111711630Y-76866929D01*
X111722120Y-76844751D01*
X111734733Y-76823707D01*
X111749347Y-76804002D01*
X111765823Y-76785823D01*
X111784002Y-76769347D01*
X111803707Y-76754733D01*
X111824751Y-76742120D01*
X111846929Y-76731630D01*
X111870029Y-76723365D01*
X111893827Y-76717404D01*
X111918096Y-76713804D01*
X111942600Y-76712600D01*
X112667600Y-76712600D01*
X112692104Y-76713804D01*
G37*
G36*
X124367104Y-82288804D02*
G01*
X124391373Y-82292404D01*
X124415171Y-82298365D01*
X124438271Y-82306630D01*
X124460449Y-82317120D01*
X124481493Y-82329733D01*
X124501198Y-82344347D01*
X124519377Y-82360823D01*
X124535853Y-82379002D01*
X124550467Y-82398707D01*
X124563080Y-82419751D01*
X124573570Y-82441929D01*
X124581835Y-82465029D01*
X124587796Y-82488827D01*
X124591396Y-82513096D01*
X124592600Y-82537600D01*
X124592600Y-84687600D01*
X124591396Y-84712104D01*
X124587796Y-84736373D01*
X124581835Y-84760171D01*
X124573570Y-84783271D01*
X124563080Y-84805449D01*
X124550467Y-84826493D01*
X124535853Y-84846198D01*
X124519377Y-84864377D01*
X124501198Y-84880853D01*
X124481493Y-84895467D01*
X124460449Y-84908080D01*
X124438271Y-84918570D01*
X124415171Y-84926835D01*
X124391373Y-84932796D01*
X124367104Y-84936396D01*
X124342600Y-84937600D01*
X123617600Y-84937600D01*
X123593096Y-84936396D01*
X123568827Y-84932796D01*
X123545029Y-84926835D01*
X123521929Y-84918570D01*
X123499751Y-84908080D01*
X123478707Y-84895467D01*
X123459002Y-84880853D01*
X123440823Y-84864377D01*
X123424347Y-84846198D01*
X123409733Y-84826493D01*
X123397120Y-84805449D01*
X123386630Y-84783271D01*
X123378365Y-84760171D01*
X123372404Y-84736373D01*
X123368804Y-84712104D01*
X123367600Y-84687600D01*
X123367600Y-82537600D01*
X123368804Y-82513096D01*
X123372404Y-82488827D01*
X123378365Y-82465029D01*
X123386630Y-82441929D01*
X123397120Y-82419751D01*
X123409733Y-82398707D01*
X123424347Y-82379002D01*
X123440823Y-82360823D01*
X123459002Y-82344347D01*
X123478707Y-82329733D01*
X123499751Y-82317120D01*
X123521929Y-82306630D01*
X123545029Y-82298365D01*
X123568827Y-82292404D01*
X123593096Y-82288804D01*
X123617600Y-82287600D01*
X124342600Y-82287600D01*
X124367104Y-82288804D01*
G37*
G36*
X119742104Y-82288804D02*
G01*
X119766373Y-82292404D01*
X119790171Y-82298365D01*
X119813271Y-82306630D01*
X119835449Y-82317120D01*
X119856493Y-82329733D01*
X119876198Y-82344347D01*
X119894377Y-82360823D01*
X119910853Y-82379002D01*
X119925467Y-82398707D01*
X119938080Y-82419751D01*
X119948570Y-82441929D01*
X119956835Y-82465029D01*
X119962796Y-82488827D01*
X119966396Y-82513096D01*
X119967600Y-82537600D01*
X119967600Y-84687600D01*
X119966396Y-84712104D01*
X119962796Y-84736373D01*
X119956835Y-84760171D01*
X119948570Y-84783271D01*
X119938080Y-84805449D01*
X119925467Y-84826493D01*
X119910853Y-84846198D01*
X119894377Y-84864377D01*
X119876198Y-84880853D01*
X119856493Y-84895467D01*
X119835449Y-84908080D01*
X119813271Y-84918570D01*
X119790171Y-84926835D01*
X119766373Y-84932796D01*
X119742104Y-84936396D01*
X119717600Y-84937600D01*
X118992600Y-84937600D01*
X118968096Y-84936396D01*
X118943827Y-84932796D01*
X118920029Y-84926835D01*
X118896929Y-84918570D01*
X118874751Y-84908080D01*
X118853707Y-84895467D01*
X118834002Y-84880853D01*
X118815823Y-84864377D01*
X118799347Y-84846198D01*
X118784733Y-84826493D01*
X118772120Y-84805449D01*
X118761630Y-84783271D01*
X118753365Y-84760171D01*
X118747404Y-84736373D01*
X118743804Y-84712104D01*
X118742600Y-84687600D01*
X118742600Y-82537600D01*
X118743804Y-82513096D01*
X118747404Y-82488827D01*
X118753365Y-82465029D01*
X118761630Y-82441929D01*
X118772120Y-82419751D01*
X118784733Y-82398707D01*
X118799347Y-82379002D01*
X118815823Y-82360823D01*
X118834002Y-82344347D01*
X118853707Y-82329733D01*
X118874751Y-82317120D01*
X118896929Y-82306630D01*
X118920029Y-82298365D01*
X118943827Y-82292404D01*
X118968096Y-82288804D01*
X118992600Y-82287600D01*
X119717600Y-82287600D01*
X119742104Y-82288804D01*
G37*
G36*
X112692104Y-82288804D02*
G01*
X112716373Y-82292404D01*
X112740171Y-82298365D01*
X112763271Y-82306630D01*
X112785449Y-82317120D01*
X112806493Y-82329733D01*
X112826198Y-82344347D01*
X112844377Y-82360823D01*
X112860853Y-82379002D01*
X112875467Y-82398707D01*
X112888080Y-82419751D01*
X112898570Y-82441929D01*
X112906835Y-82465029D01*
X112912796Y-82488827D01*
X112916396Y-82513096D01*
X112917600Y-82537600D01*
X112917600Y-84687600D01*
X112916396Y-84712104D01*
X112912796Y-84736373D01*
X112906835Y-84760171D01*
X112898570Y-84783271D01*
X112888080Y-84805449D01*
X112875467Y-84826493D01*
X112860853Y-84846198D01*
X112844377Y-84864377D01*
X112826198Y-84880853D01*
X112806493Y-84895467D01*
X112785449Y-84908080D01*
X112763271Y-84918570D01*
X112740171Y-84926835D01*
X112716373Y-84932796D01*
X112692104Y-84936396D01*
X112667600Y-84937600D01*
X111942600Y-84937600D01*
X111918096Y-84936396D01*
X111893827Y-84932796D01*
X111870029Y-84926835D01*
X111846929Y-84918570D01*
X111824751Y-84908080D01*
X111803707Y-84895467D01*
X111784002Y-84880853D01*
X111765823Y-84864377D01*
X111749347Y-84846198D01*
X111734733Y-84826493D01*
X111722120Y-84805449D01*
X111711630Y-84783271D01*
X111703365Y-84760171D01*
X111697404Y-84736373D01*
X111693804Y-84712104D01*
X111692600Y-84687600D01*
X111692600Y-82537600D01*
X111693804Y-82513096D01*
X111697404Y-82488827D01*
X111703365Y-82465029D01*
X111711630Y-82441929D01*
X111722120Y-82419751D01*
X111734733Y-82398707D01*
X111749347Y-82379002D01*
X111765823Y-82360823D01*
X111784002Y-82344347D01*
X111803707Y-82329733D01*
X111824751Y-82317120D01*
X111846929Y-82306630D01*
X111870029Y-82298365D01*
X111893827Y-82292404D01*
X111918096Y-82288804D01*
X111942600Y-82287600D01*
X112667600Y-82287600D01*
X112692104Y-82288804D01*
G37*
G36*
X117317104Y-82288804D02*
G01*
X117341373Y-82292404D01*
X117365171Y-82298365D01*
X117388271Y-82306630D01*
X117410449Y-82317120D01*
X117431493Y-82329733D01*
X117451198Y-82344347D01*
X117469377Y-82360823D01*
X117485853Y-82379002D01*
X117500467Y-82398707D01*
X117513080Y-82419751D01*
X117523570Y-82441929D01*
X117531835Y-82465029D01*
X117537796Y-82488827D01*
X117541396Y-82513096D01*
X117542600Y-82537600D01*
X117542600Y-84687600D01*
X117541396Y-84712104D01*
X117537796Y-84736373D01*
X117531835Y-84760171D01*
X117523570Y-84783271D01*
X117513080Y-84805449D01*
X117500467Y-84826493D01*
X117485853Y-84846198D01*
X117469377Y-84864377D01*
X117451198Y-84880853D01*
X117431493Y-84895467D01*
X117410449Y-84908080D01*
X117388271Y-84918570D01*
X117365171Y-84926835D01*
X117341373Y-84932796D01*
X117317104Y-84936396D01*
X117292600Y-84937600D01*
X116567600Y-84937600D01*
X116543096Y-84936396D01*
X116518827Y-84932796D01*
X116495029Y-84926835D01*
X116471929Y-84918570D01*
X116449751Y-84908080D01*
X116428707Y-84895467D01*
X116409002Y-84880853D01*
X116390823Y-84864377D01*
X116374347Y-84846198D01*
X116359733Y-84826493D01*
X116347120Y-84805449D01*
X116336630Y-84783271D01*
X116328365Y-84760171D01*
X116322404Y-84736373D01*
X116318804Y-84712104D01*
X116317600Y-84687600D01*
X116317600Y-82537600D01*
X116318804Y-82513096D01*
X116322404Y-82488827D01*
X116328365Y-82465029D01*
X116336630Y-82441929D01*
X116347120Y-82419751D01*
X116359733Y-82398707D01*
X116374347Y-82379002D01*
X116390823Y-82360823D01*
X116409002Y-82344347D01*
X116428707Y-82329733D01*
X116449751Y-82317120D01*
X116471929Y-82306630D01*
X116495029Y-82298365D01*
X116518827Y-82292404D01*
X116543096Y-82288804D01*
X116567600Y-82287600D01*
X117292600Y-82287600D01*
X117317104Y-82288804D01*
G37*
G36*
X119792104Y-87863804D02*
G01*
X119816373Y-87867404D01*
X119840171Y-87873365D01*
X119863271Y-87881630D01*
X119885449Y-87892120D01*
X119906493Y-87904733D01*
X119926198Y-87919347D01*
X119944377Y-87935823D01*
X119960853Y-87954002D01*
X119975467Y-87973707D01*
X119988080Y-87994751D01*
X119998570Y-88016929D01*
X120006835Y-88040029D01*
X120012796Y-88063827D01*
X120016396Y-88088096D01*
X120017600Y-88112600D01*
X120017600Y-90262600D01*
X120016396Y-90287104D01*
X120012796Y-90311373D01*
X120006835Y-90335171D01*
X119998570Y-90358271D01*
X119988080Y-90380449D01*
X119975467Y-90401493D01*
X119960853Y-90421198D01*
X119944377Y-90439377D01*
X119926198Y-90455853D01*
X119906493Y-90470467D01*
X119885449Y-90483080D01*
X119863271Y-90493570D01*
X119840171Y-90501835D01*
X119816373Y-90507796D01*
X119792104Y-90511396D01*
X119767600Y-90512600D01*
X119042600Y-90512600D01*
X119018096Y-90511396D01*
X118993827Y-90507796D01*
X118970029Y-90501835D01*
X118946929Y-90493570D01*
X118924751Y-90483080D01*
X118903707Y-90470467D01*
X118884002Y-90455853D01*
X118865823Y-90439377D01*
X118849347Y-90421198D01*
X118834733Y-90401493D01*
X118822120Y-90380449D01*
X118811630Y-90358271D01*
X118803365Y-90335171D01*
X118797404Y-90311373D01*
X118793804Y-90287104D01*
X118792600Y-90262600D01*
X118792600Y-88112600D01*
X118793804Y-88088096D01*
X118797404Y-88063827D01*
X118803365Y-88040029D01*
X118811630Y-88016929D01*
X118822120Y-87994751D01*
X118834733Y-87973707D01*
X118849347Y-87954002D01*
X118865823Y-87935823D01*
X118884002Y-87919347D01*
X118903707Y-87904733D01*
X118924751Y-87892120D01*
X118946929Y-87881630D01*
X118970029Y-87873365D01*
X118993827Y-87867404D01*
X119018096Y-87863804D01*
X119042600Y-87862600D01*
X119767600Y-87862600D01*
X119792104Y-87863804D01*
G37*
G36*
X124417104Y-87863804D02*
G01*
X124441373Y-87867404D01*
X124465171Y-87873365D01*
X124488271Y-87881630D01*
X124510449Y-87892120D01*
X124531493Y-87904733D01*
X124551198Y-87919347D01*
X124569377Y-87935823D01*
X124585853Y-87954002D01*
X124600467Y-87973707D01*
X124613080Y-87994751D01*
X124623570Y-88016929D01*
X124631835Y-88040029D01*
X124637796Y-88063827D01*
X124641396Y-88088096D01*
X124642600Y-88112600D01*
X124642600Y-90262600D01*
X124641396Y-90287104D01*
X124637796Y-90311373D01*
X124631835Y-90335171D01*
X124623570Y-90358271D01*
X124613080Y-90380449D01*
X124600467Y-90401493D01*
X124585853Y-90421198D01*
X124569377Y-90439377D01*
X124551198Y-90455853D01*
X124531493Y-90470467D01*
X124510449Y-90483080D01*
X124488271Y-90493570D01*
X124465171Y-90501835D01*
X124441373Y-90507796D01*
X124417104Y-90511396D01*
X124392600Y-90512600D01*
X123667600Y-90512600D01*
X123643096Y-90511396D01*
X123618827Y-90507796D01*
X123595029Y-90501835D01*
X123571929Y-90493570D01*
X123549751Y-90483080D01*
X123528707Y-90470467D01*
X123509002Y-90455853D01*
X123490823Y-90439377D01*
X123474347Y-90421198D01*
X123459733Y-90401493D01*
X123447120Y-90380449D01*
X123436630Y-90358271D01*
X123428365Y-90335171D01*
X123422404Y-90311373D01*
X123418804Y-90287104D01*
X123417600Y-90262600D01*
X123417600Y-88112600D01*
X123418804Y-88088096D01*
X123422404Y-88063827D01*
X123428365Y-88040029D01*
X123436630Y-88016929D01*
X123447120Y-87994751D01*
X123459733Y-87973707D01*
X123474347Y-87954002D01*
X123490823Y-87935823D01*
X123509002Y-87919347D01*
X123528707Y-87904733D01*
X123549751Y-87892120D01*
X123571929Y-87881630D01*
X123595029Y-87873365D01*
X123618827Y-87867404D01*
X123643096Y-87863804D01*
X123667600Y-87862600D01*
X124392600Y-87862600D01*
X124417104Y-87863804D01*
G37*
G36*
X117342104Y-87863804D02*
G01*
X117366373Y-87867404D01*
X117390171Y-87873365D01*
X117413271Y-87881630D01*
X117435449Y-87892120D01*
X117456493Y-87904733D01*
X117476198Y-87919347D01*
X117494377Y-87935823D01*
X117510853Y-87954002D01*
X117525467Y-87973707D01*
X117538080Y-87994751D01*
X117548570Y-88016929D01*
X117556835Y-88040029D01*
X117562796Y-88063827D01*
X117566396Y-88088096D01*
X117567600Y-88112600D01*
X117567600Y-90262600D01*
X117566396Y-90287104D01*
X117562796Y-90311373D01*
X117556835Y-90335171D01*
X117548570Y-90358271D01*
X117538080Y-90380449D01*
X117525467Y-90401493D01*
X117510853Y-90421198D01*
X117494377Y-90439377D01*
X117476198Y-90455853D01*
X117456493Y-90470467D01*
X117435449Y-90483080D01*
X117413271Y-90493570D01*
X117390171Y-90501835D01*
X117366373Y-90507796D01*
X117342104Y-90511396D01*
X117317600Y-90512600D01*
X116592600Y-90512600D01*
X116568096Y-90511396D01*
X116543827Y-90507796D01*
X116520029Y-90501835D01*
X116496929Y-90493570D01*
X116474751Y-90483080D01*
X116453707Y-90470467D01*
X116434002Y-90455853D01*
X116415823Y-90439377D01*
X116399347Y-90421198D01*
X116384733Y-90401493D01*
X116372120Y-90380449D01*
X116361630Y-90358271D01*
X116353365Y-90335171D01*
X116347404Y-90311373D01*
X116343804Y-90287104D01*
X116342600Y-90262600D01*
X116342600Y-88112600D01*
X116343804Y-88088096D01*
X116347404Y-88063827D01*
X116353365Y-88040029D01*
X116361630Y-88016929D01*
X116372120Y-87994751D01*
X116384733Y-87973707D01*
X116399347Y-87954002D01*
X116415823Y-87935823D01*
X116434002Y-87919347D01*
X116453707Y-87904733D01*
X116474751Y-87892120D01*
X116496929Y-87881630D01*
X116520029Y-87873365D01*
X116543827Y-87867404D01*
X116568096Y-87863804D01*
X116592600Y-87862600D01*
X117317600Y-87862600D01*
X117342104Y-87863804D01*
G37*
G36*
X112717104Y-87863804D02*
G01*
X112741373Y-87867404D01*
X112765171Y-87873365D01*
X112788271Y-87881630D01*
X112810449Y-87892120D01*
X112831493Y-87904733D01*
X112851198Y-87919347D01*
X112869377Y-87935823D01*
X112885853Y-87954002D01*
X112900467Y-87973707D01*
X112913080Y-87994751D01*
X112923570Y-88016929D01*
X112931835Y-88040029D01*
X112937796Y-88063827D01*
X112941396Y-88088096D01*
X112942600Y-88112600D01*
X112942600Y-90262600D01*
X112941396Y-90287104D01*
X112937796Y-90311373D01*
X112931835Y-90335171D01*
X112923570Y-90358271D01*
X112913080Y-90380449D01*
X112900467Y-90401493D01*
X112885853Y-90421198D01*
X112869377Y-90439377D01*
X112851198Y-90455853D01*
X112831493Y-90470467D01*
X112810449Y-90483080D01*
X112788271Y-90493570D01*
X112765171Y-90501835D01*
X112741373Y-90507796D01*
X112717104Y-90511396D01*
X112692600Y-90512600D01*
X111967600Y-90512600D01*
X111943096Y-90511396D01*
X111918827Y-90507796D01*
X111895029Y-90501835D01*
X111871929Y-90493570D01*
X111849751Y-90483080D01*
X111828707Y-90470467D01*
X111809002Y-90455853D01*
X111790823Y-90439377D01*
X111774347Y-90421198D01*
X111759733Y-90401493D01*
X111747120Y-90380449D01*
X111736630Y-90358271D01*
X111728365Y-90335171D01*
X111722404Y-90311373D01*
X111718804Y-90287104D01*
X111717600Y-90262600D01*
X111717600Y-88112600D01*
X111718804Y-88088096D01*
X111722404Y-88063827D01*
X111728365Y-88040029D01*
X111736630Y-88016929D01*
X111747120Y-87994751D01*
X111759733Y-87973707D01*
X111774347Y-87954002D01*
X111790823Y-87935823D01*
X111809002Y-87919347D01*
X111828707Y-87904733D01*
X111849751Y-87892120D01*
X111871929Y-87881630D01*
X111895029Y-87873365D01*
X111918827Y-87867404D01*
X111943096Y-87863804D01*
X111967600Y-87862600D01*
X112692600Y-87862600D01*
X112717104Y-87863804D01*
G37*
G36*
X105642104Y-76713804D02*
G01*
X105666373Y-76717404D01*
X105690171Y-76723365D01*
X105713271Y-76731630D01*
X105735449Y-76742120D01*
X105756493Y-76754733D01*
X105776198Y-76769347D01*
X105794377Y-76785823D01*
X105810853Y-76804002D01*
X105825467Y-76823707D01*
X105838080Y-76844751D01*
X105848570Y-76866929D01*
X105856835Y-76890029D01*
X105862796Y-76913827D01*
X105866396Y-76938096D01*
X105867600Y-76962600D01*
X105867600Y-79112600D01*
X105866396Y-79137104D01*
X105862796Y-79161373D01*
X105856835Y-79185171D01*
X105848570Y-79208271D01*
X105838080Y-79230449D01*
X105825467Y-79251493D01*
X105810853Y-79271198D01*
X105794377Y-79289377D01*
X105776198Y-79305853D01*
X105756493Y-79320467D01*
X105735449Y-79333080D01*
X105713271Y-79343570D01*
X105690171Y-79351835D01*
X105666373Y-79357796D01*
X105642104Y-79361396D01*
X105617600Y-79362600D01*
X104892600Y-79362600D01*
X104868096Y-79361396D01*
X104843827Y-79357796D01*
X104820029Y-79351835D01*
X104796929Y-79343570D01*
X104774751Y-79333080D01*
X104753707Y-79320467D01*
X104734002Y-79305853D01*
X104715823Y-79289377D01*
X104699347Y-79271198D01*
X104684733Y-79251493D01*
X104672120Y-79230449D01*
X104661630Y-79208271D01*
X104653365Y-79185171D01*
X104647404Y-79161373D01*
X104643804Y-79137104D01*
X104642600Y-79112600D01*
X104642600Y-76962600D01*
X104643804Y-76938096D01*
X104647404Y-76913827D01*
X104653365Y-76890029D01*
X104661630Y-76866929D01*
X104672120Y-76844751D01*
X104684733Y-76823707D01*
X104699347Y-76804002D01*
X104715823Y-76785823D01*
X104734002Y-76769347D01*
X104753707Y-76754733D01*
X104774751Y-76742120D01*
X104796929Y-76731630D01*
X104820029Y-76723365D01*
X104843827Y-76717404D01*
X104868096Y-76713804D01*
X104892600Y-76712600D01*
X105617600Y-76712600D01*
X105642104Y-76713804D01*
G37*
G36*
X110267104Y-76713804D02*
G01*
X110291373Y-76717404D01*
X110315171Y-76723365D01*
X110338271Y-76731630D01*
X110360449Y-76742120D01*
X110381493Y-76754733D01*
X110401198Y-76769347D01*
X110419377Y-76785823D01*
X110435853Y-76804002D01*
X110450467Y-76823707D01*
X110463080Y-76844751D01*
X110473570Y-76866929D01*
X110481835Y-76890029D01*
X110487796Y-76913827D01*
X110491396Y-76938096D01*
X110492600Y-76962600D01*
X110492600Y-79112600D01*
X110491396Y-79137104D01*
X110487796Y-79161373D01*
X110481835Y-79185171D01*
X110473570Y-79208271D01*
X110463080Y-79230449D01*
X110450467Y-79251493D01*
X110435853Y-79271198D01*
X110419377Y-79289377D01*
X110401198Y-79305853D01*
X110381493Y-79320467D01*
X110360449Y-79333080D01*
X110338271Y-79343570D01*
X110315171Y-79351835D01*
X110291373Y-79357796D01*
X110267104Y-79361396D01*
X110242600Y-79362600D01*
X109517600Y-79362600D01*
X109493096Y-79361396D01*
X109468827Y-79357796D01*
X109445029Y-79351835D01*
X109421929Y-79343570D01*
X109399751Y-79333080D01*
X109378707Y-79320467D01*
X109359002Y-79305853D01*
X109340823Y-79289377D01*
X109324347Y-79271198D01*
X109309733Y-79251493D01*
X109297120Y-79230449D01*
X109286630Y-79208271D01*
X109278365Y-79185171D01*
X109272404Y-79161373D01*
X109268804Y-79137104D01*
X109267600Y-79112600D01*
X109267600Y-76962600D01*
X109268804Y-76938096D01*
X109272404Y-76913827D01*
X109278365Y-76890029D01*
X109286630Y-76866929D01*
X109297120Y-76844751D01*
X109309733Y-76823707D01*
X109324347Y-76804002D01*
X109340823Y-76785823D01*
X109359002Y-76769347D01*
X109378707Y-76754733D01*
X109399751Y-76742120D01*
X109421929Y-76731630D01*
X109445029Y-76723365D01*
X109468827Y-76717404D01*
X109493096Y-76713804D01*
X109517600Y-76712600D01*
X110242600Y-76712600D01*
X110267104Y-76713804D01*
G37*
G36*
X110267104Y-82288804D02*
G01*
X110291373Y-82292404D01*
X110315171Y-82298365D01*
X110338271Y-82306630D01*
X110360449Y-82317120D01*
X110381493Y-82329733D01*
X110401198Y-82344347D01*
X110419377Y-82360823D01*
X110435853Y-82379002D01*
X110450467Y-82398707D01*
X110463080Y-82419751D01*
X110473570Y-82441929D01*
X110481835Y-82465029D01*
X110487796Y-82488827D01*
X110491396Y-82513096D01*
X110492600Y-82537600D01*
X110492600Y-84687600D01*
X110491396Y-84712104D01*
X110487796Y-84736373D01*
X110481835Y-84760171D01*
X110473570Y-84783271D01*
X110463080Y-84805449D01*
X110450467Y-84826493D01*
X110435853Y-84846198D01*
X110419377Y-84864377D01*
X110401198Y-84880853D01*
X110381493Y-84895467D01*
X110360449Y-84908080D01*
X110338271Y-84918570D01*
X110315171Y-84926835D01*
X110291373Y-84932796D01*
X110267104Y-84936396D01*
X110242600Y-84937600D01*
X109517600Y-84937600D01*
X109493096Y-84936396D01*
X109468827Y-84932796D01*
X109445029Y-84926835D01*
X109421929Y-84918570D01*
X109399751Y-84908080D01*
X109378707Y-84895467D01*
X109359002Y-84880853D01*
X109340823Y-84864377D01*
X109324347Y-84846198D01*
X109309733Y-84826493D01*
X109297120Y-84805449D01*
X109286630Y-84783271D01*
X109278365Y-84760171D01*
X109272404Y-84736373D01*
X109268804Y-84712104D01*
X109267600Y-84687600D01*
X109267600Y-82537600D01*
X109268804Y-82513096D01*
X109272404Y-82488827D01*
X109278365Y-82465029D01*
X109286630Y-82441929D01*
X109297120Y-82419751D01*
X109309733Y-82398707D01*
X109324347Y-82379002D01*
X109340823Y-82360823D01*
X109359002Y-82344347D01*
X109378707Y-82329733D01*
X109399751Y-82317120D01*
X109421929Y-82306630D01*
X109445029Y-82298365D01*
X109468827Y-82292404D01*
X109493096Y-82288804D01*
X109517600Y-82287600D01*
X110242600Y-82287600D01*
X110267104Y-82288804D01*
G37*
G36*
X105642104Y-82288804D02*
G01*
X105666373Y-82292404D01*
X105690171Y-82298365D01*
X105713271Y-82306630D01*
X105735449Y-82317120D01*
X105756493Y-82329733D01*
X105776198Y-82344347D01*
X105794377Y-82360823D01*
X105810853Y-82379002D01*
X105825467Y-82398707D01*
X105838080Y-82419751D01*
X105848570Y-82441929D01*
X105856835Y-82465029D01*
X105862796Y-82488827D01*
X105866396Y-82513096D01*
X105867600Y-82537600D01*
X105867600Y-84687600D01*
X105866396Y-84712104D01*
X105862796Y-84736373D01*
X105856835Y-84760171D01*
X105848570Y-84783271D01*
X105838080Y-84805449D01*
X105825467Y-84826493D01*
X105810853Y-84846198D01*
X105794377Y-84864377D01*
X105776198Y-84880853D01*
X105756493Y-84895467D01*
X105735449Y-84908080D01*
X105713271Y-84918570D01*
X105690171Y-84926835D01*
X105666373Y-84932796D01*
X105642104Y-84936396D01*
X105617600Y-84937600D01*
X104892600Y-84937600D01*
X104868096Y-84936396D01*
X104843827Y-84932796D01*
X104820029Y-84926835D01*
X104796929Y-84918570D01*
X104774751Y-84908080D01*
X104753707Y-84895467D01*
X104734002Y-84880853D01*
X104715823Y-84864377D01*
X104699347Y-84846198D01*
X104684733Y-84826493D01*
X104672120Y-84805449D01*
X104661630Y-84783271D01*
X104653365Y-84760171D01*
X104647404Y-84736373D01*
X104643804Y-84712104D01*
X104642600Y-84687600D01*
X104642600Y-82537600D01*
X104643804Y-82513096D01*
X104647404Y-82488827D01*
X104653365Y-82465029D01*
X104661630Y-82441929D01*
X104672120Y-82419751D01*
X104684733Y-82398707D01*
X104699347Y-82379002D01*
X104715823Y-82360823D01*
X104734002Y-82344347D01*
X104753707Y-82329733D01*
X104774751Y-82317120D01*
X104796929Y-82306630D01*
X104820029Y-82298365D01*
X104843827Y-82292404D01*
X104868096Y-82288804D01*
X104892600Y-82287600D01*
X105617600Y-82287600D01*
X105642104Y-82288804D01*
G37*
G36*
X105642104Y-87863804D02*
G01*
X105666373Y-87867404D01*
X105690171Y-87873365D01*
X105713271Y-87881630D01*
X105735449Y-87892120D01*
X105756493Y-87904733D01*
X105776198Y-87919347D01*
X105794377Y-87935823D01*
X105810853Y-87954002D01*
X105825467Y-87973707D01*
X105838080Y-87994751D01*
X105848570Y-88016929D01*
X105856835Y-88040029D01*
X105862796Y-88063827D01*
X105866396Y-88088096D01*
X105867600Y-88112600D01*
X105867600Y-90262600D01*
X105866396Y-90287104D01*
X105862796Y-90311373D01*
X105856835Y-90335171D01*
X105848570Y-90358271D01*
X105838080Y-90380449D01*
X105825467Y-90401493D01*
X105810853Y-90421198D01*
X105794377Y-90439377D01*
X105776198Y-90455853D01*
X105756493Y-90470467D01*
X105735449Y-90483080D01*
X105713271Y-90493570D01*
X105690171Y-90501835D01*
X105666373Y-90507796D01*
X105642104Y-90511396D01*
X105617600Y-90512600D01*
X104892600Y-90512600D01*
X104868096Y-90511396D01*
X104843827Y-90507796D01*
X104820029Y-90501835D01*
X104796929Y-90493570D01*
X104774751Y-90483080D01*
X104753707Y-90470467D01*
X104734002Y-90455853D01*
X104715823Y-90439377D01*
X104699347Y-90421198D01*
X104684733Y-90401493D01*
X104672120Y-90380449D01*
X104661630Y-90358271D01*
X104653365Y-90335171D01*
X104647404Y-90311373D01*
X104643804Y-90287104D01*
X104642600Y-90262600D01*
X104642600Y-88112600D01*
X104643804Y-88088096D01*
X104647404Y-88063827D01*
X104653365Y-88040029D01*
X104661630Y-88016929D01*
X104672120Y-87994751D01*
X104684733Y-87973707D01*
X104699347Y-87954002D01*
X104715823Y-87935823D01*
X104734002Y-87919347D01*
X104753707Y-87904733D01*
X104774751Y-87892120D01*
X104796929Y-87881630D01*
X104820029Y-87873365D01*
X104843827Y-87867404D01*
X104868096Y-87863804D01*
X104892600Y-87862600D01*
X105617600Y-87862600D01*
X105642104Y-87863804D01*
G37*
G36*
X110267104Y-87863804D02*
G01*
X110291373Y-87867404D01*
X110315171Y-87873365D01*
X110338271Y-87881630D01*
X110360449Y-87892120D01*
X110381493Y-87904733D01*
X110401198Y-87919347D01*
X110419377Y-87935823D01*
X110435853Y-87954002D01*
X110450467Y-87973707D01*
X110463080Y-87994751D01*
X110473570Y-88016929D01*
X110481835Y-88040029D01*
X110487796Y-88063827D01*
X110491396Y-88088096D01*
X110492600Y-88112600D01*
X110492600Y-90262600D01*
X110491396Y-90287104D01*
X110487796Y-90311373D01*
X110481835Y-90335171D01*
X110473570Y-90358271D01*
X110463080Y-90380449D01*
X110450467Y-90401493D01*
X110435853Y-90421198D01*
X110419377Y-90439377D01*
X110401198Y-90455853D01*
X110381493Y-90470467D01*
X110360449Y-90483080D01*
X110338271Y-90493570D01*
X110315171Y-90501835D01*
X110291373Y-90507796D01*
X110267104Y-90511396D01*
X110242600Y-90512600D01*
X109517600Y-90512600D01*
X109493096Y-90511396D01*
X109468827Y-90507796D01*
X109445029Y-90501835D01*
X109421929Y-90493570D01*
X109399751Y-90483080D01*
X109378707Y-90470467D01*
X109359002Y-90455853D01*
X109340823Y-90439377D01*
X109324347Y-90421198D01*
X109309733Y-90401493D01*
X109297120Y-90380449D01*
X109286630Y-90358271D01*
X109278365Y-90335171D01*
X109272404Y-90311373D01*
X109268804Y-90287104D01*
X109267600Y-90262600D01*
X109267600Y-88112600D01*
X109268804Y-88088096D01*
X109272404Y-88063827D01*
X109278365Y-88040029D01*
X109286630Y-88016929D01*
X109297120Y-87994751D01*
X109309733Y-87973707D01*
X109324347Y-87954002D01*
X109340823Y-87935823D01*
X109359002Y-87919347D01*
X109378707Y-87904733D01*
X109399751Y-87892120D01*
X109421929Y-87881630D01*
X109445029Y-87873365D01*
X109468827Y-87867404D01*
X109493096Y-87863804D01*
X109517600Y-87862600D01*
X110242600Y-87862600D01*
X110267104Y-87863804D01*
G37*
G36*
X116472303Y-48388322D02*
G01*
X116486864Y-48390482D01*
X116501143Y-48394059D01*
X116515003Y-48399018D01*
X116528310Y-48405312D01*
X116540936Y-48412880D01*
X116552759Y-48421648D01*
X116563666Y-48431534D01*
X116573552Y-48442441D01*
X116582320Y-48454264D01*
X116589888Y-48466890D01*
X116596182Y-48480197D01*
X116601141Y-48494057D01*
X116604718Y-48508336D01*
X116606878Y-48522897D01*
X116607600Y-48537600D01*
X116607600Y-49862600D01*
X116606878Y-49877303D01*
X116604718Y-49891864D01*
X116601141Y-49906143D01*
X116596182Y-49920003D01*
X116589888Y-49933310D01*
X116582320Y-49945936D01*
X116573552Y-49957759D01*
X116563666Y-49968666D01*
X116552759Y-49978552D01*
X116540936Y-49987320D01*
X116528310Y-49994888D01*
X116515003Y-50001182D01*
X116501143Y-50006141D01*
X116486864Y-50009718D01*
X116472303Y-50011878D01*
X116457600Y-50012600D01*
X116157600Y-50012600D01*
X116142897Y-50011878D01*
X116128336Y-50009718D01*
X116114057Y-50006141D01*
X116100197Y-50001182D01*
X116086890Y-49994888D01*
X116074264Y-49987320D01*
X116062441Y-49978552D01*
X116051534Y-49968666D01*
X116041648Y-49957759D01*
X116032880Y-49945936D01*
X116025312Y-49933310D01*
X116019018Y-49920003D01*
X116014059Y-49906143D01*
X116010482Y-49891864D01*
X116008322Y-49877303D01*
X116007600Y-49862600D01*
X116007600Y-48537600D01*
X116008322Y-48522897D01*
X116010482Y-48508336D01*
X116014059Y-48494057D01*
X116019018Y-48480197D01*
X116025312Y-48466890D01*
X116032880Y-48454264D01*
X116041648Y-48442441D01*
X116051534Y-48431534D01*
X116062441Y-48421648D01*
X116074264Y-48412880D01*
X116086890Y-48405312D01*
X116100197Y-48399018D01*
X116114057Y-48394059D01*
X116128336Y-48390482D01*
X116142897Y-48388322D01*
X116157600Y-48387600D01*
X116457600Y-48387600D01*
X116472303Y-48388322D01*
G37*
G36*
X117742303Y-48388322D02*
G01*
X117756864Y-48390482D01*
X117771143Y-48394059D01*
X117785003Y-48399018D01*
X117798310Y-48405312D01*
X117810936Y-48412880D01*
X117822759Y-48421648D01*
X117833666Y-48431534D01*
X117843552Y-48442441D01*
X117852320Y-48454264D01*
X117859888Y-48466890D01*
X117866182Y-48480197D01*
X117871141Y-48494057D01*
X117874718Y-48508336D01*
X117876878Y-48522897D01*
X117877600Y-48537600D01*
X117877600Y-49862600D01*
X117876878Y-49877303D01*
X117874718Y-49891864D01*
X117871141Y-49906143D01*
X117866182Y-49920003D01*
X117859888Y-49933310D01*
X117852320Y-49945936D01*
X117843552Y-49957759D01*
X117833666Y-49968666D01*
X117822759Y-49978552D01*
X117810936Y-49987320D01*
X117798310Y-49994888D01*
X117785003Y-50001182D01*
X117771143Y-50006141D01*
X117756864Y-50009718D01*
X117742303Y-50011878D01*
X117727600Y-50012600D01*
X117427600Y-50012600D01*
X117412897Y-50011878D01*
X117398336Y-50009718D01*
X117384057Y-50006141D01*
X117370197Y-50001182D01*
X117356890Y-49994888D01*
X117344264Y-49987320D01*
X117332441Y-49978552D01*
X117321534Y-49968666D01*
X117311648Y-49957759D01*
X117302880Y-49945936D01*
X117295312Y-49933310D01*
X117289018Y-49920003D01*
X117284059Y-49906143D01*
X117280482Y-49891864D01*
X117278322Y-49877303D01*
X117277600Y-49862600D01*
X117277600Y-48537600D01*
X117278322Y-48522897D01*
X117280482Y-48508336D01*
X117284059Y-48494057D01*
X117289018Y-48480197D01*
X117295312Y-48466890D01*
X117302880Y-48454264D01*
X117311648Y-48442441D01*
X117321534Y-48431534D01*
X117332441Y-48421648D01*
X117344264Y-48412880D01*
X117356890Y-48405312D01*
X117370197Y-48399018D01*
X117384057Y-48394059D01*
X117398336Y-48390482D01*
X117412897Y-48388322D01*
X117427600Y-48387600D01*
X117727600Y-48387600D01*
X117742303Y-48388322D01*
G37*
G36*
X117742303Y-54763322D02*
G01*
X117756864Y-54765482D01*
X117771143Y-54769059D01*
X117785003Y-54774018D01*
X117798310Y-54780312D01*
X117810936Y-54787880D01*
X117822759Y-54796648D01*
X117833666Y-54806534D01*
X117843552Y-54817441D01*
X117852320Y-54829264D01*
X117859888Y-54841890D01*
X117866182Y-54855197D01*
X117871141Y-54869057D01*
X117874718Y-54883336D01*
X117876878Y-54897897D01*
X117877600Y-54912600D01*
X117877600Y-56237600D01*
X117876878Y-56252303D01*
X117874718Y-56266864D01*
X117871141Y-56281143D01*
X117866182Y-56295003D01*
X117859888Y-56308310D01*
X117852320Y-56320936D01*
X117843552Y-56332759D01*
X117833666Y-56343666D01*
X117822759Y-56353552D01*
X117810936Y-56362320D01*
X117798310Y-56369888D01*
X117785003Y-56376182D01*
X117771143Y-56381141D01*
X117756864Y-56384718D01*
X117742303Y-56386878D01*
X117727600Y-56387600D01*
X117427600Y-56387600D01*
X117412897Y-56386878D01*
X117398336Y-56384718D01*
X117384057Y-56381141D01*
X117370197Y-56376182D01*
X117356890Y-56369888D01*
X117344264Y-56362320D01*
X117332441Y-56353552D01*
X117321534Y-56343666D01*
X117311648Y-56332759D01*
X117302880Y-56320936D01*
X117295312Y-56308310D01*
X117289018Y-56295003D01*
X117284059Y-56281143D01*
X117280482Y-56266864D01*
X117278322Y-56252303D01*
X117277600Y-56237600D01*
X117277600Y-54912600D01*
X117278322Y-54897897D01*
X117280482Y-54883336D01*
X117284059Y-54869057D01*
X117289018Y-54855197D01*
X117295312Y-54841890D01*
X117302880Y-54829264D01*
X117311648Y-54817441D01*
X117321534Y-54806534D01*
X117332441Y-54796648D01*
X117344264Y-54787880D01*
X117356890Y-54780312D01*
X117370197Y-54774018D01*
X117384057Y-54769059D01*
X117398336Y-54765482D01*
X117412897Y-54763322D01*
X117427600Y-54762600D01*
X117727600Y-54762600D01*
X117742303Y-54763322D01*
G37*
G36*
X116472303Y-54763322D02*
G01*
X116486864Y-54765482D01*
X116501143Y-54769059D01*
X116515003Y-54774018D01*
X116528310Y-54780312D01*
X116540936Y-54787880D01*
X116552759Y-54796648D01*
X116563666Y-54806534D01*
X116573552Y-54817441D01*
X116582320Y-54829264D01*
X116589888Y-54841890D01*
X116596182Y-54855197D01*
X116601141Y-54869057D01*
X116604718Y-54883336D01*
X116606878Y-54897897D01*
X116607600Y-54912600D01*
X116607600Y-56237600D01*
X116606878Y-56252303D01*
X116604718Y-56266864D01*
X116601141Y-56281143D01*
X116596182Y-56295003D01*
X116589888Y-56308310D01*
X116582320Y-56320936D01*
X116573552Y-56332759D01*
X116563666Y-56343666D01*
X116552759Y-56353552D01*
X116540936Y-56362320D01*
X116528310Y-56369888D01*
X116515003Y-56376182D01*
X116501143Y-56381141D01*
X116486864Y-56384718D01*
X116472303Y-56386878D01*
X116457600Y-56387600D01*
X116157600Y-56387600D01*
X116142897Y-56386878D01*
X116128336Y-56384718D01*
X116114057Y-56381141D01*
X116100197Y-56376182D01*
X116086890Y-56369888D01*
X116074264Y-56362320D01*
X116062441Y-56353552D01*
X116051534Y-56343666D01*
X116041648Y-56332759D01*
X116032880Y-56320936D01*
X116025312Y-56308310D01*
X116019018Y-56295003D01*
X116014059Y-56281143D01*
X116010482Y-56266864D01*
X116008322Y-56252303D01*
X116007600Y-56237600D01*
X116007600Y-54912600D01*
X116008322Y-54897897D01*
X116010482Y-54883336D01*
X116014059Y-54869057D01*
X116019018Y-54855197D01*
X116025312Y-54841890D01*
X116032880Y-54829264D01*
X116041648Y-54817441D01*
X116051534Y-54806534D01*
X116062441Y-54796648D01*
X116074264Y-54787880D01*
X116086890Y-54780312D01*
X116100197Y-54774018D01*
X116114057Y-54769059D01*
X116128336Y-54765482D01*
X116142897Y-54763322D01*
X116157600Y-54762600D01*
X116457600Y-54762600D01*
X116472303Y-54763322D01*
G37*
D11*
X122317600Y-97387600D03*
X126617600Y-97387600D03*
D10*
G36*
X106262105Y-103633804D02*
G01*
X106286373Y-103637404D01*
X106310172Y-103643365D01*
X106333271Y-103651630D01*
X106355450Y-103662120D01*
X106376493Y-103674732D01*
X106396199Y-103689347D01*
X106414377Y-103705823D01*
X106430853Y-103724001D01*
X106445468Y-103743707D01*
X106458080Y-103764750D01*
X106468570Y-103786929D01*
X106476835Y-103810028D01*
X106482796Y-103833827D01*
X106486396Y-103858095D01*
X106487600Y-103882599D01*
X106487600Y-104407601D01*
X106486396Y-104432105D01*
X106482796Y-104456373D01*
X106476835Y-104480172D01*
X106468570Y-104503271D01*
X106458080Y-104525450D01*
X106445468Y-104546493D01*
X106430853Y-104566199D01*
X106414377Y-104584377D01*
X106396199Y-104600853D01*
X106376493Y-104615468D01*
X106355450Y-104628080D01*
X106333271Y-104638570D01*
X106310172Y-104646835D01*
X106286373Y-104652796D01*
X106262105Y-104656396D01*
X106237601Y-104657600D01*
X105337599Y-104657600D01*
X105313095Y-104656396D01*
X105288827Y-104652796D01*
X105265028Y-104646835D01*
X105241929Y-104638570D01*
X105219750Y-104628080D01*
X105198707Y-104615468D01*
X105179001Y-104600853D01*
X105160823Y-104584377D01*
X105144347Y-104566199D01*
X105129732Y-104546493D01*
X105117120Y-104525450D01*
X105106630Y-104503271D01*
X105098365Y-104480172D01*
X105092404Y-104456373D01*
X105088804Y-104432105D01*
X105087600Y-104407601D01*
X105087600Y-103882599D01*
X105088804Y-103858095D01*
X105092404Y-103833827D01*
X105098365Y-103810028D01*
X105106630Y-103786929D01*
X105117120Y-103764750D01*
X105129732Y-103743707D01*
X105144347Y-103724001D01*
X105160823Y-103705823D01*
X105179001Y-103689347D01*
X105198707Y-103674732D01*
X105219750Y-103662120D01*
X105241929Y-103651630D01*
X105265028Y-103643365D01*
X105288827Y-103637404D01*
X105313095Y-103633804D01*
X105337599Y-103632600D01*
X106237601Y-103632600D01*
X106262105Y-103633804D01*
G37*
G36*
X106262105Y-105458804D02*
G01*
X106286373Y-105462404D01*
X106310172Y-105468365D01*
X106333271Y-105476630D01*
X106355450Y-105487120D01*
X106376493Y-105499732D01*
X106396199Y-105514347D01*
X106414377Y-105530823D01*
X106430853Y-105549001D01*
X106445468Y-105568707D01*
X106458080Y-105589750D01*
X106468570Y-105611929D01*
X106476835Y-105635028D01*
X106482796Y-105658827D01*
X106486396Y-105683095D01*
X106487600Y-105707599D01*
X106487600Y-106232601D01*
X106486396Y-106257105D01*
X106482796Y-106281373D01*
X106476835Y-106305172D01*
X106468570Y-106328271D01*
X106458080Y-106350450D01*
X106445468Y-106371493D01*
X106430853Y-106391199D01*
X106414377Y-106409377D01*
X106396199Y-106425853D01*
X106376493Y-106440468D01*
X106355450Y-106453080D01*
X106333271Y-106463570D01*
X106310172Y-106471835D01*
X106286373Y-106477796D01*
X106262105Y-106481396D01*
X106237601Y-106482600D01*
X105337599Y-106482600D01*
X105313095Y-106481396D01*
X105288827Y-106477796D01*
X105265028Y-106471835D01*
X105241929Y-106463570D01*
X105219750Y-106453080D01*
X105198707Y-106440468D01*
X105179001Y-106425853D01*
X105160823Y-106409377D01*
X105144347Y-106391199D01*
X105129732Y-106371493D01*
X105117120Y-106350450D01*
X105106630Y-106328271D01*
X105098365Y-106305172D01*
X105092404Y-106281373D01*
X105088804Y-106257105D01*
X105087600Y-106232601D01*
X105087600Y-105707599D01*
X105088804Y-105683095D01*
X105092404Y-105658827D01*
X105098365Y-105635028D01*
X105106630Y-105611929D01*
X105117120Y-105589750D01*
X105129732Y-105568707D01*
X105144347Y-105549001D01*
X105160823Y-105530823D01*
X105179001Y-105514347D01*
X105198707Y-105499732D01*
X105219750Y-105487120D01*
X105241929Y-105476630D01*
X105265028Y-105468365D01*
X105288827Y-105462404D01*
X105313095Y-105458804D01*
X105337599Y-105457600D01*
X106237601Y-105457600D01*
X106262105Y-105458804D01*
G37*
G36*
X131042105Y-72363804D02*
G01*
X131066373Y-72367404D01*
X131090172Y-72373365D01*
X131113271Y-72381630D01*
X131135450Y-72392120D01*
X131156493Y-72404732D01*
X131176199Y-72419347D01*
X131194377Y-72435823D01*
X131210853Y-72454001D01*
X131225468Y-72473707D01*
X131238080Y-72494750D01*
X131248570Y-72516929D01*
X131256835Y-72540028D01*
X131262796Y-72563827D01*
X131266396Y-72588095D01*
X131267600Y-72612599D01*
X131267600Y-73512601D01*
X131266396Y-73537105D01*
X131262796Y-73561373D01*
X131256835Y-73585172D01*
X131248570Y-73608271D01*
X131238080Y-73630450D01*
X131225468Y-73651493D01*
X131210853Y-73671199D01*
X131194377Y-73689377D01*
X131176199Y-73705853D01*
X131156493Y-73720468D01*
X131135450Y-73733080D01*
X131113271Y-73743570D01*
X131090172Y-73751835D01*
X131066373Y-73757796D01*
X131042105Y-73761396D01*
X131017601Y-73762600D01*
X130492599Y-73762600D01*
X130468095Y-73761396D01*
X130443827Y-73757796D01*
X130420028Y-73751835D01*
X130396929Y-73743570D01*
X130374750Y-73733080D01*
X130353707Y-73720468D01*
X130334001Y-73705853D01*
X130315823Y-73689377D01*
X130299347Y-73671199D01*
X130284732Y-73651493D01*
X130272120Y-73630450D01*
X130261630Y-73608271D01*
X130253365Y-73585172D01*
X130247404Y-73561373D01*
X130243804Y-73537105D01*
X130242600Y-73512601D01*
X130242600Y-72612599D01*
X130243804Y-72588095D01*
X130247404Y-72563827D01*
X130253365Y-72540028D01*
X130261630Y-72516929D01*
X130272120Y-72494750D01*
X130284732Y-72473707D01*
X130299347Y-72454001D01*
X130315823Y-72435823D01*
X130334001Y-72419347D01*
X130353707Y-72404732D01*
X130374750Y-72392120D01*
X130396929Y-72381630D01*
X130420028Y-72373365D01*
X130443827Y-72367404D01*
X130468095Y-72363804D01*
X130492599Y-72362600D01*
X131017601Y-72362600D01*
X131042105Y-72363804D01*
G37*
G36*
X129217105Y-72363804D02*
G01*
X129241373Y-72367404D01*
X129265172Y-72373365D01*
X129288271Y-72381630D01*
X129310450Y-72392120D01*
X129331493Y-72404732D01*
X129351199Y-72419347D01*
X129369377Y-72435823D01*
X129385853Y-72454001D01*
X129400468Y-72473707D01*
X129413080Y-72494750D01*
X129423570Y-72516929D01*
X129431835Y-72540028D01*
X129437796Y-72563827D01*
X129441396Y-72588095D01*
X129442600Y-72612599D01*
X129442600Y-73512601D01*
X129441396Y-73537105D01*
X129437796Y-73561373D01*
X129431835Y-73585172D01*
X129423570Y-73608271D01*
X129413080Y-73630450D01*
X129400468Y-73651493D01*
X129385853Y-73671199D01*
X129369377Y-73689377D01*
X129351199Y-73705853D01*
X129331493Y-73720468D01*
X129310450Y-73733080D01*
X129288271Y-73743570D01*
X129265172Y-73751835D01*
X129241373Y-73757796D01*
X129217105Y-73761396D01*
X129192601Y-73762600D01*
X128667599Y-73762600D01*
X128643095Y-73761396D01*
X128618827Y-73757796D01*
X128595028Y-73751835D01*
X128571929Y-73743570D01*
X128549750Y-73733080D01*
X128528707Y-73720468D01*
X128509001Y-73705853D01*
X128490823Y-73689377D01*
X128474347Y-73671199D01*
X128459732Y-73651493D01*
X128447120Y-73630450D01*
X128436630Y-73608271D01*
X128428365Y-73585172D01*
X128422404Y-73561373D01*
X128418804Y-73537105D01*
X128417600Y-73512601D01*
X128417600Y-72612599D01*
X128418804Y-72588095D01*
X128422404Y-72563827D01*
X128428365Y-72540028D01*
X128436630Y-72516929D01*
X128447120Y-72494750D01*
X128459732Y-72473707D01*
X128474347Y-72454001D01*
X128490823Y-72435823D01*
X128509001Y-72419347D01*
X128528707Y-72404732D01*
X128549750Y-72392120D01*
X128571929Y-72381630D01*
X128595028Y-72373365D01*
X128618827Y-72367404D01*
X128643095Y-72363804D01*
X128667599Y-72362600D01*
X129192601Y-72362600D01*
X129217105Y-72363804D01*
G37*
G36*
X131042105Y-69963804D02*
G01*
X131066373Y-69967404D01*
X131090172Y-69973365D01*
X131113271Y-69981630D01*
X131135450Y-69992120D01*
X131156493Y-70004732D01*
X131176199Y-70019347D01*
X131194377Y-70035823D01*
X131210853Y-70054001D01*
X131225468Y-70073707D01*
X131238080Y-70094750D01*
X131248570Y-70116929D01*
X131256835Y-70140028D01*
X131262796Y-70163827D01*
X131266396Y-70188095D01*
X131267600Y-70212599D01*
X131267600Y-71112601D01*
X131266396Y-71137105D01*
X131262796Y-71161373D01*
X131256835Y-71185172D01*
X131248570Y-71208271D01*
X131238080Y-71230450D01*
X131225468Y-71251493D01*
X131210853Y-71271199D01*
X131194377Y-71289377D01*
X131176199Y-71305853D01*
X131156493Y-71320468D01*
X131135450Y-71333080D01*
X131113271Y-71343570D01*
X131090172Y-71351835D01*
X131066373Y-71357796D01*
X131042105Y-71361396D01*
X131017601Y-71362600D01*
X130492599Y-71362600D01*
X130468095Y-71361396D01*
X130443827Y-71357796D01*
X130420028Y-71351835D01*
X130396929Y-71343570D01*
X130374750Y-71333080D01*
X130353707Y-71320468D01*
X130334001Y-71305853D01*
X130315823Y-71289377D01*
X130299347Y-71271199D01*
X130284732Y-71251493D01*
X130272120Y-71230450D01*
X130261630Y-71208271D01*
X130253365Y-71185172D01*
X130247404Y-71161373D01*
X130243804Y-71137105D01*
X130242600Y-71112601D01*
X130242600Y-70212599D01*
X130243804Y-70188095D01*
X130247404Y-70163827D01*
X130253365Y-70140028D01*
X130261630Y-70116929D01*
X130272120Y-70094750D01*
X130284732Y-70073707D01*
X130299347Y-70054001D01*
X130315823Y-70035823D01*
X130334001Y-70019347D01*
X130353707Y-70004732D01*
X130374750Y-69992120D01*
X130396929Y-69981630D01*
X130420028Y-69973365D01*
X130443827Y-69967404D01*
X130468095Y-69963804D01*
X130492599Y-69962600D01*
X131017601Y-69962600D01*
X131042105Y-69963804D01*
G37*
G36*
X129217105Y-69963804D02*
G01*
X129241373Y-69967404D01*
X129265172Y-69973365D01*
X129288271Y-69981630D01*
X129310450Y-69992120D01*
X129331493Y-70004732D01*
X129351199Y-70019347D01*
X129369377Y-70035823D01*
X129385853Y-70054001D01*
X129400468Y-70073707D01*
X129413080Y-70094750D01*
X129423570Y-70116929D01*
X129431835Y-70140028D01*
X129437796Y-70163827D01*
X129441396Y-70188095D01*
X129442600Y-70212599D01*
X129442600Y-71112601D01*
X129441396Y-71137105D01*
X129437796Y-71161373D01*
X129431835Y-71185172D01*
X129423570Y-71208271D01*
X129413080Y-71230450D01*
X129400468Y-71251493D01*
X129385853Y-71271199D01*
X129369377Y-71289377D01*
X129351199Y-71305853D01*
X129331493Y-71320468D01*
X129310450Y-71333080D01*
X129288271Y-71343570D01*
X129265172Y-71351835D01*
X129241373Y-71357796D01*
X129217105Y-71361396D01*
X129192601Y-71362600D01*
X128667599Y-71362600D01*
X128643095Y-71361396D01*
X128618827Y-71357796D01*
X128595028Y-71351835D01*
X128571929Y-71343570D01*
X128549750Y-71333080D01*
X128528707Y-71320468D01*
X128509001Y-71305853D01*
X128490823Y-71289377D01*
X128474347Y-71271199D01*
X128459732Y-71251493D01*
X128447120Y-71230450D01*
X128436630Y-71208271D01*
X128428365Y-71185172D01*
X128422404Y-71161373D01*
X128418804Y-71137105D01*
X128417600Y-71112601D01*
X128417600Y-70212599D01*
X128418804Y-70188095D01*
X128422404Y-70163827D01*
X128428365Y-70140028D01*
X128436630Y-70116929D01*
X128447120Y-70094750D01*
X128459732Y-70073707D01*
X128474347Y-70054001D01*
X128490823Y-70035823D01*
X128509001Y-70019347D01*
X128528707Y-70004732D01*
X128549750Y-69992120D01*
X128571929Y-69981630D01*
X128595028Y-69973365D01*
X128618827Y-69967404D01*
X128643095Y-69963804D01*
X128667599Y-69962600D01*
X129192601Y-69962600D01*
X129217105Y-69963804D01*
G37*
G36*
X114092105Y-80138804D02*
G01*
X114116373Y-80142404D01*
X114140172Y-80148365D01*
X114163271Y-80156630D01*
X114185450Y-80167120D01*
X114206493Y-80179732D01*
X114226199Y-80194347D01*
X114244377Y-80210823D01*
X114260853Y-80229001D01*
X114275468Y-80248707D01*
X114288080Y-80269750D01*
X114298570Y-80291929D01*
X114306835Y-80315028D01*
X114312796Y-80338827D01*
X114316396Y-80363095D01*
X114317600Y-80387599D01*
X114317600Y-81287601D01*
X114316396Y-81312105D01*
X114312796Y-81336373D01*
X114306835Y-81360172D01*
X114298570Y-81383271D01*
X114288080Y-81405450D01*
X114275468Y-81426493D01*
X114260853Y-81446199D01*
X114244377Y-81464377D01*
X114226199Y-81480853D01*
X114206493Y-81495468D01*
X114185450Y-81508080D01*
X114163271Y-81518570D01*
X114140172Y-81526835D01*
X114116373Y-81532796D01*
X114092105Y-81536396D01*
X114067601Y-81537600D01*
X113542599Y-81537600D01*
X113518095Y-81536396D01*
X113493827Y-81532796D01*
X113470028Y-81526835D01*
X113446929Y-81518570D01*
X113424750Y-81508080D01*
X113403707Y-81495468D01*
X113384001Y-81480853D01*
X113365823Y-81464377D01*
X113349347Y-81446199D01*
X113334732Y-81426493D01*
X113322120Y-81405450D01*
X113311630Y-81383271D01*
X113303365Y-81360172D01*
X113297404Y-81336373D01*
X113293804Y-81312105D01*
X113292600Y-81287601D01*
X113292600Y-80387599D01*
X113293804Y-80363095D01*
X113297404Y-80338827D01*
X113303365Y-80315028D01*
X113311630Y-80291929D01*
X113322120Y-80269750D01*
X113334732Y-80248707D01*
X113349347Y-80229001D01*
X113365823Y-80210823D01*
X113384001Y-80194347D01*
X113403707Y-80179732D01*
X113424750Y-80167120D01*
X113446929Y-80156630D01*
X113470028Y-80148365D01*
X113493827Y-80142404D01*
X113518095Y-80138804D01*
X113542599Y-80137600D01*
X114067601Y-80137600D01*
X114092105Y-80138804D01*
G37*
G36*
X115917105Y-80138804D02*
G01*
X115941373Y-80142404D01*
X115965172Y-80148365D01*
X115988271Y-80156630D01*
X116010450Y-80167120D01*
X116031493Y-80179732D01*
X116051199Y-80194347D01*
X116069377Y-80210823D01*
X116085853Y-80229001D01*
X116100468Y-80248707D01*
X116113080Y-80269750D01*
X116123570Y-80291929D01*
X116131835Y-80315028D01*
X116137796Y-80338827D01*
X116141396Y-80363095D01*
X116142600Y-80387599D01*
X116142600Y-81287601D01*
X116141396Y-81312105D01*
X116137796Y-81336373D01*
X116131835Y-81360172D01*
X116123570Y-81383271D01*
X116113080Y-81405450D01*
X116100468Y-81426493D01*
X116085853Y-81446199D01*
X116069377Y-81464377D01*
X116051199Y-81480853D01*
X116031493Y-81495468D01*
X116010450Y-81508080D01*
X115988271Y-81518570D01*
X115965172Y-81526835D01*
X115941373Y-81532796D01*
X115917105Y-81536396D01*
X115892601Y-81537600D01*
X115367599Y-81537600D01*
X115343095Y-81536396D01*
X115318827Y-81532796D01*
X115295028Y-81526835D01*
X115271929Y-81518570D01*
X115249750Y-81508080D01*
X115228707Y-81495468D01*
X115209001Y-81480853D01*
X115190823Y-81464377D01*
X115174347Y-81446199D01*
X115159732Y-81426493D01*
X115147120Y-81405450D01*
X115136630Y-81383271D01*
X115128365Y-81360172D01*
X115122404Y-81336373D01*
X115118804Y-81312105D01*
X115117600Y-81287601D01*
X115117600Y-80387599D01*
X115118804Y-80363095D01*
X115122404Y-80338827D01*
X115128365Y-80315028D01*
X115136630Y-80291929D01*
X115147120Y-80269750D01*
X115159732Y-80248707D01*
X115174347Y-80229001D01*
X115190823Y-80210823D01*
X115209001Y-80194347D01*
X115228707Y-80179732D01*
X115249750Y-80167120D01*
X115271929Y-80156630D01*
X115295028Y-80148365D01*
X115318827Y-80142404D01*
X115343095Y-80138804D01*
X115367599Y-80137600D01*
X115892601Y-80137600D01*
X115917105Y-80138804D01*
G37*
G36*
X104042105Y-57013804D02*
G01*
X104066373Y-57017404D01*
X104090172Y-57023365D01*
X104113271Y-57031630D01*
X104135450Y-57042120D01*
X104156493Y-57054732D01*
X104176199Y-57069347D01*
X104194377Y-57085823D01*
X104210853Y-57104001D01*
X104225468Y-57123707D01*
X104238080Y-57144750D01*
X104248570Y-57166929D01*
X104256835Y-57190028D01*
X104262796Y-57213827D01*
X104266396Y-57238095D01*
X104267600Y-57262599D01*
X104267600Y-58162601D01*
X104266396Y-58187105D01*
X104262796Y-58211373D01*
X104256835Y-58235172D01*
X104248570Y-58258271D01*
X104238080Y-58280450D01*
X104225468Y-58301493D01*
X104210853Y-58321199D01*
X104194377Y-58339377D01*
X104176199Y-58355853D01*
X104156493Y-58370468D01*
X104135450Y-58383080D01*
X104113271Y-58393570D01*
X104090172Y-58401835D01*
X104066373Y-58407796D01*
X104042105Y-58411396D01*
X104017601Y-58412600D01*
X103492599Y-58412600D01*
X103468095Y-58411396D01*
X103443827Y-58407796D01*
X103420028Y-58401835D01*
X103396929Y-58393570D01*
X103374750Y-58383080D01*
X103353707Y-58370468D01*
X103334001Y-58355853D01*
X103315823Y-58339377D01*
X103299347Y-58321199D01*
X103284732Y-58301493D01*
X103272120Y-58280450D01*
X103261630Y-58258271D01*
X103253365Y-58235172D01*
X103247404Y-58211373D01*
X103243804Y-58187105D01*
X103242600Y-58162601D01*
X103242600Y-57262599D01*
X103243804Y-57238095D01*
X103247404Y-57213827D01*
X103253365Y-57190028D01*
X103261630Y-57166929D01*
X103272120Y-57144750D01*
X103284732Y-57123707D01*
X103299347Y-57104001D01*
X103315823Y-57085823D01*
X103334001Y-57069347D01*
X103353707Y-57054732D01*
X103374750Y-57042120D01*
X103396929Y-57031630D01*
X103420028Y-57023365D01*
X103443827Y-57017404D01*
X103468095Y-57013804D01*
X103492599Y-57012600D01*
X104017601Y-57012600D01*
X104042105Y-57013804D01*
G37*
G36*
X105867105Y-57013804D02*
G01*
X105891373Y-57017404D01*
X105915172Y-57023365D01*
X105938271Y-57031630D01*
X105960450Y-57042120D01*
X105981493Y-57054732D01*
X106001199Y-57069347D01*
X106019377Y-57085823D01*
X106035853Y-57104001D01*
X106050468Y-57123707D01*
X106063080Y-57144750D01*
X106073570Y-57166929D01*
X106081835Y-57190028D01*
X106087796Y-57213827D01*
X106091396Y-57238095D01*
X106092600Y-57262599D01*
X106092600Y-58162601D01*
X106091396Y-58187105D01*
X106087796Y-58211373D01*
X106081835Y-58235172D01*
X106073570Y-58258271D01*
X106063080Y-58280450D01*
X106050468Y-58301493D01*
X106035853Y-58321199D01*
X106019377Y-58339377D01*
X106001199Y-58355853D01*
X105981493Y-58370468D01*
X105960450Y-58383080D01*
X105938271Y-58393570D01*
X105915172Y-58401835D01*
X105891373Y-58407796D01*
X105867105Y-58411396D01*
X105842601Y-58412600D01*
X105317599Y-58412600D01*
X105293095Y-58411396D01*
X105268827Y-58407796D01*
X105245028Y-58401835D01*
X105221929Y-58393570D01*
X105199750Y-58383080D01*
X105178707Y-58370468D01*
X105159001Y-58355853D01*
X105140823Y-58339377D01*
X105124347Y-58321199D01*
X105109732Y-58301493D01*
X105097120Y-58280450D01*
X105086630Y-58258271D01*
X105078365Y-58235172D01*
X105072404Y-58211373D01*
X105068804Y-58187105D01*
X105067600Y-58162601D01*
X105067600Y-57262599D01*
X105068804Y-57238095D01*
X105072404Y-57213827D01*
X105078365Y-57190028D01*
X105086630Y-57166929D01*
X105097120Y-57144750D01*
X105109732Y-57123707D01*
X105124347Y-57104001D01*
X105140823Y-57085823D01*
X105159001Y-57069347D01*
X105178707Y-57054732D01*
X105199750Y-57042120D01*
X105221929Y-57031630D01*
X105245028Y-57023365D01*
X105268827Y-57017404D01*
X105293095Y-57013804D01*
X105317599Y-57012600D01*
X105842601Y-57012600D01*
X105867105Y-57013804D01*
G37*
G36*
X110667105Y-95558804D02*
G01*
X110691373Y-95562404D01*
X110715172Y-95568365D01*
X110738271Y-95576630D01*
X110760450Y-95587120D01*
X110781493Y-95599732D01*
X110801199Y-95614347D01*
X110819377Y-95630823D01*
X110835853Y-95649001D01*
X110850468Y-95668707D01*
X110863080Y-95689750D01*
X110873570Y-95711929D01*
X110881835Y-95735028D01*
X110887796Y-95758827D01*
X110891396Y-95783095D01*
X110892600Y-95807599D01*
X110892600Y-96707601D01*
X110891396Y-96732105D01*
X110887796Y-96756373D01*
X110881835Y-96780172D01*
X110873570Y-96803271D01*
X110863080Y-96825450D01*
X110850468Y-96846493D01*
X110835853Y-96866199D01*
X110819377Y-96884377D01*
X110801199Y-96900853D01*
X110781493Y-96915468D01*
X110760450Y-96928080D01*
X110738271Y-96938570D01*
X110715172Y-96946835D01*
X110691373Y-96952796D01*
X110667105Y-96956396D01*
X110642601Y-96957600D01*
X110117599Y-96957600D01*
X110093095Y-96956396D01*
X110068827Y-96952796D01*
X110045028Y-96946835D01*
X110021929Y-96938570D01*
X109999750Y-96928080D01*
X109978707Y-96915468D01*
X109959001Y-96900853D01*
X109940823Y-96884377D01*
X109924347Y-96866199D01*
X109909732Y-96846493D01*
X109897120Y-96825450D01*
X109886630Y-96803271D01*
X109878365Y-96780172D01*
X109872404Y-96756373D01*
X109868804Y-96732105D01*
X109867600Y-96707601D01*
X109867600Y-95807599D01*
X109868804Y-95783095D01*
X109872404Y-95758827D01*
X109878365Y-95735028D01*
X109886630Y-95711929D01*
X109897120Y-95689750D01*
X109909732Y-95668707D01*
X109924347Y-95649001D01*
X109940823Y-95630823D01*
X109959001Y-95614347D01*
X109978707Y-95599732D01*
X109999750Y-95587120D01*
X110021929Y-95576630D01*
X110045028Y-95568365D01*
X110068827Y-95562404D01*
X110093095Y-95558804D01*
X110117599Y-95557600D01*
X110642601Y-95557600D01*
X110667105Y-95558804D01*
G37*
G36*
X108842105Y-95558804D02*
G01*
X108866373Y-95562404D01*
X108890172Y-95568365D01*
X108913271Y-95576630D01*
X108935450Y-95587120D01*
X108956493Y-95599732D01*
X108976199Y-95614347D01*
X108994377Y-95630823D01*
X109010853Y-95649001D01*
X109025468Y-95668707D01*
X109038080Y-95689750D01*
X109048570Y-95711929D01*
X109056835Y-95735028D01*
X109062796Y-95758827D01*
X109066396Y-95783095D01*
X109067600Y-95807599D01*
X109067600Y-96707601D01*
X109066396Y-96732105D01*
X109062796Y-96756373D01*
X109056835Y-96780172D01*
X109048570Y-96803271D01*
X109038080Y-96825450D01*
X109025468Y-96846493D01*
X109010853Y-96866199D01*
X108994377Y-96884377D01*
X108976199Y-96900853D01*
X108956493Y-96915468D01*
X108935450Y-96928080D01*
X108913271Y-96938570D01*
X108890172Y-96946835D01*
X108866373Y-96952796D01*
X108842105Y-96956396D01*
X108817601Y-96957600D01*
X108292599Y-96957600D01*
X108268095Y-96956396D01*
X108243827Y-96952796D01*
X108220028Y-96946835D01*
X108196929Y-96938570D01*
X108174750Y-96928080D01*
X108153707Y-96915468D01*
X108134001Y-96900853D01*
X108115823Y-96884377D01*
X108099347Y-96866199D01*
X108084732Y-96846493D01*
X108072120Y-96825450D01*
X108061630Y-96803271D01*
X108053365Y-96780172D01*
X108047404Y-96756373D01*
X108043804Y-96732105D01*
X108042600Y-96707601D01*
X108042600Y-95807599D01*
X108043804Y-95783095D01*
X108047404Y-95758827D01*
X108053365Y-95735028D01*
X108061630Y-95711929D01*
X108072120Y-95689750D01*
X108084732Y-95668707D01*
X108099347Y-95649001D01*
X108115823Y-95630823D01*
X108134001Y-95614347D01*
X108153707Y-95599732D01*
X108174750Y-95587120D01*
X108196929Y-95576630D01*
X108220028Y-95568365D01*
X108243827Y-95562404D01*
X108268095Y-95558804D01*
X108292599Y-95557600D01*
X108817601Y-95557600D01*
X108842105Y-95558804D01*
G37*
G36*
X104042105Y-54988804D02*
G01*
X104066373Y-54992404D01*
X104090172Y-54998365D01*
X104113271Y-55006630D01*
X104135450Y-55017120D01*
X104156493Y-55029732D01*
X104176199Y-55044347D01*
X104194377Y-55060823D01*
X104210853Y-55079001D01*
X104225468Y-55098707D01*
X104238080Y-55119750D01*
X104248570Y-55141929D01*
X104256835Y-55165028D01*
X104262796Y-55188827D01*
X104266396Y-55213095D01*
X104267600Y-55237599D01*
X104267600Y-56137601D01*
X104266396Y-56162105D01*
X104262796Y-56186373D01*
X104256835Y-56210172D01*
X104248570Y-56233271D01*
X104238080Y-56255450D01*
X104225468Y-56276493D01*
X104210853Y-56296199D01*
X104194377Y-56314377D01*
X104176199Y-56330853D01*
X104156493Y-56345468D01*
X104135450Y-56358080D01*
X104113271Y-56368570D01*
X104090172Y-56376835D01*
X104066373Y-56382796D01*
X104042105Y-56386396D01*
X104017601Y-56387600D01*
X103492599Y-56387600D01*
X103468095Y-56386396D01*
X103443827Y-56382796D01*
X103420028Y-56376835D01*
X103396929Y-56368570D01*
X103374750Y-56358080D01*
X103353707Y-56345468D01*
X103334001Y-56330853D01*
X103315823Y-56314377D01*
X103299347Y-56296199D01*
X103284732Y-56276493D01*
X103272120Y-56255450D01*
X103261630Y-56233271D01*
X103253365Y-56210172D01*
X103247404Y-56186373D01*
X103243804Y-56162105D01*
X103242600Y-56137601D01*
X103242600Y-55237599D01*
X103243804Y-55213095D01*
X103247404Y-55188827D01*
X103253365Y-55165028D01*
X103261630Y-55141929D01*
X103272120Y-55119750D01*
X103284732Y-55098707D01*
X103299347Y-55079001D01*
X103315823Y-55060823D01*
X103334001Y-55044347D01*
X103353707Y-55029732D01*
X103374750Y-55017120D01*
X103396929Y-55006630D01*
X103420028Y-54998365D01*
X103443827Y-54992404D01*
X103468095Y-54988804D01*
X103492599Y-54987600D01*
X104017601Y-54987600D01*
X104042105Y-54988804D01*
G37*
G36*
X105867105Y-54988804D02*
G01*
X105891373Y-54992404D01*
X105915172Y-54998365D01*
X105938271Y-55006630D01*
X105960450Y-55017120D01*
X105981493Y-55029732D01*
X106001199Y-55044347D01*
X106019377Y-55060823D01*
X106035853Y-55079001D01*
X106050468Y-55098707D01*
X106063080Y-55119750D01*
X106073570Y-55141929D01*
X106081835Y-55165028D01*
X106087796Y-55188827D01*
X106091396Y-55213095D01*
X106092600Y-55237599D01*
X106092600Y-56137601D01*
X106091396Y-56162105D01*
X106087796Y-56186373D01*
X106081835Y-56210172D01*
X106073570Y-56233271D01*
X106063080Y-56255450D01*
X106050468Y-56276493D01*
X106035853Y-56296199D01*
X106019377Y-56314377D01*
X106001199Y-56330853D01*
X105981493Y-56345468D01*
X105960450Y-56358080D01*
X105938271Y-56368570D01*
X105915172Y-56376835D01*
X105891373Y-56382796D01*
X105867105Y-56386396D01*
X105842601Y-56387600D01*
X105317599Y-56387600D01*
X105293095Y-56386396D01*
X105268827Y-56382796D01*
X105245028Y-56376835D01*
X105221929Y-56368570D01*
X105199750Y-56358080D01*
X105178707Y-56345468D01*
X105159001Y-56330853D01*
X105140823Y-56314377D01*
X105124347Y-56296199D01*
X105109732Y-56276493D01*
X105097120Y-56255450D01*
X105086630Y-56233271D01*
X105078365Y-56210172D01*
X105072404Y-56186373D01*
X105068804Y-56162105D01*
X105067600Y-56137601D01*
X105067600Y-55237599D01*
X105068804Y-55213095D01*
X105072404Y-55188827D01*
X105078365Y-55165028D01*
X105086630Y-55141929D01*
X105097120Y-55119750D01*
X105109732Y-55098707D01*
X105124347Y-55079001D01*
X105140823Y-55060823D01*
X105159001Y-55044347D01*
X105178707Y-55029732D01*
X105199750Y-55017120D01*
X105221929Y-55006630D01*
X105245028Y-54998365D01*
X105268827Y-54992404D01*
X105293095Y-54988804D01*
X105317599Y-54987600D01*
X105842601Y-54987600D01*
X105867105Y-54988804D01*
G37*
G36*
X106317105Y-97188804D02*
G01*
X106341373Y-97192404D01*
X106365172Y-97198365D01*
X106388271Y-97206630D01*
X106410450Y-97217120D01*
X106431493Y-97229732D01*
X106451199Y-97244347D01*
X106469377Y-97260823D01*
X106485853Y-97279001D01*
X106500468Y-97298707D01*
X106513080Y-97319750D01*
X106523570Y-97341929D01*
X106531835Y-97365028D01*
X106537796Y-97388827D01*
X106541396Y-97413095D01*
X106542600Y-97437599D01*
X106542600Y-98337601D01*
X106541396Y-98362105D01*
X106537796Y-98386373D01*
X106531835Y-98410172D01*
X106523570Y-98433271D01*
X106513080Y-98455450D01*
X106500468Y-98476493D01*
X106485853Y-98496199D01*
X106469377Y-98514377D01*
X106451199Y-98530853D01*
X106431493Y-98545468D01*
X106410450Y-98558080D01*
X106388271Y-98568570D01*
X106365172Y-98576835D01*
X106341373Y-98582796D01*
X106317105Y-98586396D01*
X106292601Y-98587600D01*
X105767599Y-98587600D01*
X105743095Y-98586396D01*
X105718827Y-98582796D01*
X105695028Y-98576835D01*
X105671929Y-98568570D01*
X105649750Y-98558080D01*
X105628707Y-98545468D01*
X105609001Y-98530853D01*
X105590823Y-98514377D01*
X105574347Y-98496199D01*
X105559732Y-98476493D01*
X105547120Y-98455450D01*
X105536630Y-98433271D01*
X105528365Y-98410172D01*
X105522404Y-98386373D01*
X105518804Y-98362105D01*
X105517600Y-98337601D01*
X105517600Y-97437599D01*
X105518804Y-97413095D01*
X105522404Y-97388827D01*
X105528365Y-97365028D01*
X105536630Y-97341929D01*
X105547120Y-97319750D01*
X105559732Y-97298707D01*
X105574347Y-97279001D01*
X105590823Y-97260823D01*
X105609001Y-97244347D01*
X105628707Y-97229732D01*
X105649750Y-97217120D01*
X105671929Y-97206630D01*
X105695028Y-97198365D01*
X105718827Y-97192404D01*
X105743095Y-97188804D01*
X105767599Y-97187600D01*
X106292601Y-97187600D01*
X106317105Y-97188804D01*
G37*
G36*
X104492105Y-97188804D02*
G01*
X104516373Y-97192404D01*
X104540172Y-97198365D01*
X104563271Y-97206630D01*
X104585450Y-97217120D01*
X104606493Y-97229732D01*
X104626199Y-97244347D01*
X104644377Y-97260823D01*
X104660853Y-97279001D01*
X104675468Y-97298707D01*
X104688080Y-97319750D01*
X104698570Y-97341929D01*
X104706835Y-97365028D01*
X104712796Y-97388827D01*
X104716396Y-97413095D01*
X104717600Y-97437599D01*
X104717600Y-98337601D01*
X104716396Y-98362105D01*
X104712796Y-98386373D01*
X104706835Y-98410172D01*
X104698570Y-98433271D01*
X104688080Y-98455450D01*
X104675468Y-98476493D01*
X104660853Y-98496199D01*
X104644377Y-98514377D01*
X104626199Y-98530853D01*
X104606493Y-98545468D01*
X104585450Y-98558080D01*
X104563271Y-98568570D01*
X104540172Y-98576835D01*
X104516373Y-98582796D01*
X104492105Y-98586396D01*
X104467601Y-98587600D01*
X103942599Y-98587600D01*
X103918095Y-98586396D01*
X103893827Y-98582796D01*
X103870028Y-98576835D01*
X103846929Y-98568570D01*
X103824750Y-98558080D01*
X103803707Y-98545468D01*
X103784001Y-98530853D01*
X103765823Y-98514377D01*
X103749347Y-98496199D01*
X103734732Y-98476493D01*
X103722120Y-98455450D01*
X103711630Y-98433271D01*
X103703365Y-98410172D01*
X103697404Y-98386373D01*
X103693804Y-98362105D01*
X103692600Y-98337601D01*
X103692600Y-97437599D01*
X103693804Y-97413095D01*
X103697404Y-97388827D01*
X103703365Y-97365028D01*
X103711630Y-97341929D01*
X103722120Y-97319750D01*
X103734732Y-97298707D01*
X103749347Y-97279001D01*
X103765823Y-97260823D01*
X103784001Y-97244347D01*
X103803707Y-97229732D01*
X103824750Y-97217120D01*
X103846929Y-97206630D01*
X103870028Y-97198365D01*
X103893827Y-97192404D01*
X103918095Y-97188804D01*
X103942599Y-97187600D01*
X104467601Y-97187600D01*
X104492105Y-97188804D01*
G37*
G36*
X131042105Y-67563804D02*
G01*
X131066373Y-67567404D01*
X131090172Y-67573365D01*
X131113271Y-67581630D01*
X131135450Y-67592120D01*
X131156493Y-67604732D01*
X131176199Y-67619347D01*
X131194377Y-67635823D01*
X131210853Y-67654001D01*
X131225468Y-67673707D01*
X131238080Y-67694750D01*
X131248570Y-67716929D01*
X131256835Y-67740028D01*
X131262796Y-67763827D01*
X131266396Y-67788095D01*
X131267600Y-67812599D01*
X131267600Y-68712601D01*
X131266396Y-68737105D01*
X131262796Y-68761373D01*
X131256835Y-68785172D01*
X131248570Y-68808271D01*
X131238080Y-68830450D01*
X131225468Y-68851493D01*
X131210853Y-68871199D01*
X131194377Y-68889377D01*
X131176199Y-68905853D01*
X131156493Y-68920468D01*
X131135450Y-68933080D01*
X131113271Y-68943570D01*
X131090172Y-68951835D01*
X131066373Y-68957796D01*
X131042105Y-68961396D01*
X131017601Y-68962600D01*
X130492599Y-68962600D01*
X130468095Y-68961396D01*
X130443827Y-68957796D01*
X130420028Y-68951835D01*
X130396929Y-68943570D01*
X130374750Y-68933080D01*
X130353707Y-68920468D01*
X130334001Y-68905853D01*
X130315823Y-68889377D01*
X130299347Y-68871199D01*
X130284732Y-68851493D01*
X130272120Y-68830450D01*
X130261630Y-68808271D01*
X130253365Y-68785172D01*
X130247404Y-68761373D01*
X130243804Y-68737105D01*
X130242600Y-68712601D01*
X130242600Y-67812599D01*
X130243804Y-67788095D01*
X130247404Y-67763827D01*
X130253365Y-67740028D01*
X130261630Y-67716929D01*
X130272120Y-67694750D01*
X130284732Y-67673707D01*
X130299347Y-67654001D01*
X130315823Y-67635823D01*
X130334001Y-67619347D01*
X130353707Y-67604732D01*
X130374750Y-67592120D01*
X130396929Y-67581630D01*
X130420028Y-67573365D01*
X130443827Y-67567404D01*
X130468095Y-67563804D01*
X130492599Y-67562600D01*
X131017601Y-67562600D01*
X131042105Y-67563804D01*
G37*
G36*
X129217105Y-67563804D02*
G01*
X129241373Y-67567404D01*
X129265172Y-67573365D01*
X129288271Y-67581630D01*
X129310450Y-67592120D01*
X129331493Y-67604732D01*
X129351199Y-67619347D01*
X129369377Y-67635823D01*
X129385853Y-67654001D01*
X129400468Y-67673707D01*
X129413080Y-67694750D01*
X129423570Y-67716929D01*
X129431835Y-67740028D01*
X129437796Y-67763827D01*
X129441396Y-67788095D01*
X129442600Y-67812599D01*
X129442600Y-68712601D01*
X129441396Y-68737105D01*
X129437796Y-68761373D01*
X129431835Y-68785172D01*
X129423570Y-68808271D01*
X129413080Y-68830450D01*
X129400468Y-68851493D01*
X129385853Y-68871199D01*
X129369377Y-68889377D01*
X129351199Y-68905853D01*
X129331493Y-68920468D01*
X129310450Y-68933080D01*
X129288271Y-68943570D01*
X129265172Y-68951835D01*
X129241373Y-68957796D01*
X129217105Y-68961396D01*
X129192601Y-68962600D01*
X128667599Y-68962600D01*
X128643095Y-68961396D01*
X128618827Y-68957796D01*
X128595028Y-68951835D01*
X128571929Y-68943570D01*
X128549750Y-68933080D01*
X128528707Y-68920468D01*
X128509001Y-68905853D01*
X128490823Y-68889377D01*
X128474347Y-68871199D01*
X128459732Y-68851493D01*
X128447120Y-68830450D01*
X128436630Y-68808271D01*
X128428365Y-68785172D01*
X128422404Y-68761373D01*
X128418804Y-68737105D01*
X128417600Y-68712601D01*
X128417600Y-67812599D01*
X128418804Y-67788095D01*
X128422404Y-67763827D01*
X128428365Y-67740028D01*
X128436630Y-67716929D01*
X128447120Y-67694750D01*
X128459732Y-67673707D01*
X128474347Y-67654001D01*
X128490823Y-67635823D01*
X128509001Y-67619347D01*
X128528707Y-67604732D01*
X128549750Y-67592120D01*
X128571929Y-67581630D01*
X128595028Y-67573365D01*
X128618827Y-67567404D01*
X128643095Y-67563804D01*
X128667599Y-67562600D01*
X129192601Y-67562600D01*
X129217105Y-67563804D01*
G37*
G36*
X115442105Y-57138804D02*
G01*
X115466373Y-57142404D01*
X115490172Y-57148365D01*
X115513271Y-57156630D01*
X115535450Y-57167120D01*
X115556493Y-57179732D01*
X115576199Y-57194347D01*
X115594377Y-57210823D01*
X115610853Y-57229001D01*
X115625468Y-57248707D01*
X115638080Y-57269750D01*
X115648570Y-57291929D01*
X115656835Y-57315028D01*
X115662796Y-57338827D01*
X115666396Y-57363095D01*
X115667600Y-57387599D01*
X115667600Y-58287601D01*
X115666396Y-58312105D01*
X115662796Y-58336373D01*
X115656835Y-58360172D01*
X115648570Y-58383271D01*
X115638080Y-58405450D01*
X115625468Y-58426493D01*
X115610853Y-58446199D01*
X115594377Y-58464377D01*
X115576199Y-58480853D01*
X115556493Y-58495468D01*
X115535450Y-58508080D01*
X115513271Y-58518570D01*
X115490172Y-58526835D01*
X115466373Y-58532796D01*
X115442105Y-58536396D01*
X115417601Y-58537600D01*
X114892599Y-58537600D01*
X114868095Y-58536396D01*
X114843827Y-58532796D01*
X114820028Y-58526835D01*
X114796929Y-58518570D01*
X114774750Y-58508080D01*
X114753707Y-58495468D01*
X114734001Y-58480853D01*
X114715823Y-58464377D01*
X114699347Y-58446199D01*
X114684732Y-58426493D01*
X114672120Y-58405450D01*
X114661630Y-58383271D01*
X114653365Y-58360172D01*
X114647404Y-58336373D01*
X114643804Y-58312105D01*
X114642600Y-58287601D01*
X114642600Y-57387599D01*
X114643804Y-57363095D01*
X114647404Y-57338827D01*
X114653365Y-57315028D01*
X114661630Y-57291929D01*
X114672120Y-57269750D01*
X114684732Y-57248707D01*
X114699347Y-57229001D01*
X114715823Y-57210823D01*
X114734001Y-57194347D01*
X114753707Y-57179732D01*
X114774750Y-57167120D01*
X114796929Y-57156630D01*
X114820028Y-57148365D01*
X114843827Y-57142404D01*
X114868095Y-57138804D01*
X114892599Y-57137600D01*
X115417601Y-57137600D01*
X115442105Y-57138804D01*
G37*
G36*
X113617105Y-57138804D02*
G01*
X113641373Y-57142404D01*
X113665172Y-57148365D01*
X113688271Y-57156630D01*
X113710450Y-57167120D01*
X113731493Y-57179732D01*
X113751199Y-57194347D01*
X113769377Y-57210823D01*
X113785853Y-57229001D01*
X113800468Y-57248707D01*
X113813080Y-57269750D01*
X113823570Y-57291929D01*
X113831835Y-57315028D01*
X113837796Y-57338827D01*
X113841396Y-57363095D01*
X113842600Y-57387599D01*
X113842600Y-58287601D01*
X113841396Y-58312105D01*
X113837796Y-58336373D01*
X113831835Y-58360172D01*
X113823570Y-58383271D01*
X113813080Y-58405450D01*
X113800468Y-58426493D01*
X113785853Y-58446199D01*
X113769377Y-58464377D01*
X113751199Y-58480853D01*
X113731493Y-58495468D01*
X113710450Y-58508080D01*
X113688271Y-58518570D01*
X113665172Y-58526835D01*
X113641373Y-58532796D01*
X113617105Y-58536396D01*
X113592601Y-58537600D01*
X113067599Y-58537600D01*
X113043095Y-58536396D01*
X113018827Y-58532796D01*
X112995028Y-58526835D01*
X112971929Y-58518570D01*
X112949750Y-58508080D01*
X112928707Y-58495468D01*
X112909001Y-58480853D01*
X112890823Y-58464377D01*
X112874347Y-58446199D01*
X112859732Y-58426493D01*
X112847120Y-58405450D01*
X112836630Y-58383271D01*
X112828365Y-58360172D01*
X112822404Y-58336373D01*
X112818804Y-58312105D01*
X112817600Y-58287601D01*
X112817600Y-57387599D01*
X112818804Y-57363095D01*
X112822404Y-57338827D01*
X112828365Y-57315028D01*
X112836630Y-57291929D01*
X112847120Y-57269750D01*
X112859732Y-57248707D01*
X112874347Y-57229001D01*
X112890823Y-57210823D01*
X112909001Y-57194347D01*
X112928707Y-57179732D01*
X112949750Y-57167120D01*
X112971929Y-57156630D01*
X112995028Y-57148365D01*
X113018827Y-57142404D01*
X113043095Y-57138804D01*
X113067599Y-57137600D01*
X113592601Y-57137600D01*
X113617105Y-57138804D01*
G37*
G36*
X114692105Y-70313804D02*
G01*
X114716373Y-70317404D01*
X114740172Y-70323365D01*
X114763271Y-70331630D01*
X114785450Y-70342120D01*
X114806493Y-70354732D01*
X114826199Y-70369347D01*
X114844377Y-70385823D01*
X114860853Y-70404001D01*
X114875468Y-70423707D01*
X114888080Y-70444750D01*
X114898570Y-70466929D01*
X114906835Y-70490028D01*
X114912796Y-70513827D01*
X114916396Y-70538095D01*
X114917600Y-70562599D01*
X114917600Y-71462601D01*
X114916396Y-71487105D01*
X114912796Y-71511373D01*
X114906835Y-71535172D01*
X114898570Y-71558271D01*
X114888080Y-71580450D01*
X114875468Y-71601493D01*
X114860853Y-71621199D01*
X114844377Y-71639377D01*
X114826199Y-71655853D01*
X114806493Y-71670468D01*
X114785450Y-71683080D01*
X114763271Y-71693570D01*
X114740172Y-71701835D01*
X114716373Y-71707796D01*
X114692105Y-71711396D01*
X114667601Y-71712600D01*
X114142599Y-71712600D01*
X114118095Y-71711396D01*
X114093827Y-71707796D01*
X114070028Y-71701835D01*
X114046929Y-71693570D01*
X114024750Y-71683080D01*
X114003707Y-71670468D01*
X113984001Y-71655853D01*
X113965823Y-71639377D01*
X113949347Y-71621199D01*
X113934732Y-71601493D01*
X113922120Y-71580450D01*
X113911630Y-71558271D01*
X113903365Y-71535172D01*
X113897404Y-71511373D01*
X113893804Y-71487105D01*
X113892600Y-71462601D01*
X113892600Y-70562599D01*
X113893804Y-70538095D01*
X113897404Y-70513827D01*
X113903365Y-70490028D01*
X113911630Y-70466929D01*
X113922120Y-70444750D01*
X113934732Y-70423707D01*
X113949347Y-70404001D01*
X113965823Y-70385823D01*
X113984001Y-70369347D01*
X114003707Y-70354732D01*
X114024750Y-70342120D01*
X114046929Y-70331630D01*
X114070028Y-70323365D01*
X114093827Y-70317404D01*
X114118095Y-70313804D01*
X114142599Y-70312600D01*
X114667601Y-70312600D01*
X114692105Y-70313804D01*
G37*
G36*
X112867105Y-70313804D02*
G01*
X112891373Y-70317404D01*
X112915172Y-70323365D01*
X112938271Y-70331630D01*
X112960450Y-70342120D01*
X112981493Y-70354732D01*
X113001199Y-70369347D01*
X113019377Y-70385823D01*
X113035853Y-70404001D01*
X113050468Y-70423707D01*
X113063080Y-70444750D01*
X113073570Y-70466929D01*
X113081835Y-70490028D01*
X113087796Y-70513827D01*
X113091396Y-70538095D01*
X113092600Y-70562599D01*
X113092600Y-71462601D01*
X113091396Y-71487105D01*
X113087796Y-71511373D01*
X113081835Y-71535172D01*
X113073570Y-71558271D01*
X113063080Y-71580450D01*
X113050468Y-71601493D01*
X113035853Y-71621199D01*
X113019377Y-71639377D01*
X113001199Y-71655853D01*
X112981493Y-71670468D01*
X112960450Y-71683080D01*
X112938271Y-71693570D01*
X112915172Y-71701835D01*
X112891373Y-71707796D01*
X112867105Y-71711396D01*
X112842601Y-71712600D01*
X112317599Y-71712600D01*
X112293095Y-71711396D01*
X112268827Y-71707796D01*
X112245028Y-71701835D01*
X112221929Y-71693570D01*
X112199750Y-71683080D01*
X112178707Y-71670468D01*
X112159001Y-71655853D01*
X112140823Y-71639377D01*
X112124347Y-71621199D01*
X112109732Y-71601493D01*
X112097120Y-71580450D01*
X112086630Y-71558271D01*
X112078365Y-71535172D01*
X112072404Y-71511373D01*
X112068804Y-71487105D01*
X112067600Y-71462601D01*
X112067600Y-70562599D01*
X112068804Y-70538095D01*
X112072404Y-70513827D01*
X112078365Y-70490028D01*
X112086630Y-70466929D01*
X112097120Y-70444750D01*
X112109732Y-70423707D01*
X112124347Y-70404001D01*
X112140823Y-70385823D01*
X112159001Y-70369347D01*
X112178707Y-70354732D01*
X112199750Y-70342120D01*
X112221929Y-70331630D01*
X112245028Y-70323365D01*
X112268827Y-70317404D01*
X112293095Y-70313804D01*
X112317599Y-70312600D01*
X112842601Y-70312600D01*
X112867105Y-70313804D01*
G37*
G36*
X114692105Y-67913804D02*
G01*
X114716373Y-67917404D01*
X114740172Y-67923365D01*
X114763271Y-67931630D01*
X114785450Y-67942120D01*
X114806493Y-67954732D01*
X114826199Y-67969347D01*
X114844377Y-67985823D01*
X114860853Y-68004001D01*
X114875468Y-68023707D01*
X114888080Y-68044750D01*
X114898570Y-68066929D01*
X114906835Y-68090028D01*
X114912796Y-68113827D01*
X114916396Y-68138095D01*
X114917600Y-68162599D01*
X114917600Y-69062601D01*
X114916396Y-69087105D01*
X114912796Y-69111373D01*
X114906835Y-69135172D01*
X114898570Y-69158271D01*
X114888080Y-69180450D01*
X114875468Y-69201493D01*
X114860853Y-69221199D01*
X114844377Y-69239377D01*
X114826199Y-69255853D01*
X114806493Y-69270468D01*
X114785450Y-69283080D01*
X114763271Y-69293570D01*
X114740172Y-69301835D01*
X114716373Y-69307796D01*
X114692105Y-69311396D01*
X114667601Y-69312600D01*
X114142599Y-69312600D01*
X114118095Y-69311396D01*
X114093827Y-69307796D01*
X114070028Y-69301835D01*
X114046929Y-69293570D01*
X114024750Y-69283080D01*
X114003707Y-69270468D01*
X113984001Y-69255853D01*
X113965823Y-69239377D01*
X113949347Y-69221199D01*
X113934732Y-69201493D01*
X113922120Y-69180450D01*
X113911630Y-69158271D01*
X113903365Y-69135172D01*
X113897404Y-69111373D01*
X113893804Y-69087105D01*
X113892600Y-69062601D01*
X113892600Y-68162599D01*
X113893804Y-68138095D01*
X113897404Y-68113827D01*
X113903365Y-68090028D01*
X113911630Y-68066929D01*
X113922120Y-68044750D01*
X113934732Y-68023707D01*
X113949347Y-68004001D01*
X113965823Y-67985823D01*
X113984001Y-67969347D01*
X114003707Y-67954732D01*
X114024750Y-67942120D01*
X114046929Y-67931630D01*
X114070028Y-67923365D01*
X114093827Y-67917404D01*
X114118095Y-67913804D01*
X114142599Y-67912600D01*
X114667601Y-67912600D01*
X114692105Y-67913804D01*
G37*
G36*
X112867105Y-67913804D02*
G01*
X112891373Y-67917404D01*
X112915172Y-67923365D01*
X112938271Y-67931630D01*
X112960450Y-67942120D01*
X112981493Y-67954732D01*
X113001199Y-67969347D01*
X113019377Y-67985823D01*
X113035853Y-68004001D01*
X113050468Y-68023707D01*
X113063080Y-68044750D01*
X113073570Y-68066929D01*
X113081835Y-68090028D01*
X113087796Y-68113827D01*
X113091396Y-68138095D01*
X113092600Y-68162599D01*
X113092600Y-69062601D01*
X113091396Y-69087105D01*
X113087796Y-69111373D01*
X113081835Y-69135172D01*
X113073570Y-69158271D01*
X113063080Y-69180450D01*
X113050468Y-69201493D01*
X113035853Y-69221199D01*
X113019377Y-69239377D01*
X113001199Y-69255853D01*
X112981493Y-69270468D01*
X112960450Y-69283080D01*
X112938271Y-69293570D01*
X112915172Y-69301835D01*
X112891373Y-69307796D01*
X112867105Y-69311396D01*
X112842601Y-69312600D01*
X112317599Y-69312600D01*
X112293095Y-69311396D01*
X112268827Y-69307796D01*
X112245028Y-69301835D01*
X112221929Y-69293570D01*
X112199750Y-69283080D01*
X112178707Y-69270468D01*
X112159001Y-69255853D01*
X112140823Y-69239377D01*
X112124347Y-69221199D01*
X112109732Y-69201493D01*
X112097120Y-69180450D01*
X112086630Y-69158271D01*
X112078365Y-69135172D01*
X112072404Y-69111373D01*
X112068804Y-69087105D01*
X112067600Y-69062601D01*
X112067600Y-68162599D01*
X112068804Y-68138095D01*
X112072404Y-68113827D01*
X112078365Y-68090028D01*
X112086630Y-68066929D01*
X112097120Y-68044750D01*
X112109732Y-68023707D01*
X112124347Y-68004001D01*
X112140823Y-67985823D01*
X112159001Y-67969347D01*
X112178707Y-67954732D01*
X112199750Y-67942120D01*
X112221929Y-67931630D01*
X112245028Y-67923365D01*
X112268827Y-67917404D01*
X112293095Y-67913804D01*
X112317599Y-67912600D01*
X112842601Y-67912600D01*
X112867105Y-67913804D01*
G37*
G36*
X130537105Y-59178804D02*
G01*
X130561373Y-59182404D01*
X130585172Y-59188365D01*
X130608271Y-59196630D01*
X130630450Y-59207120D01*
X130651493Y-59219732D01*
X130671199Y-59234347D01*
X130689377Y-59250823D01*
X130705853Y-59269001D01*
X130720468Y-59288707D01*
X130733080Y-59309750D01*
X130743570Y-59331929D01*
X130751835Y-59355028D01*
X130757796Y-59378827D01*
X130761396Y-59403095D01*
X130762600Y-59427599D01*
X130762600Y-60327601D01*
X130761396Y-60352105D01*
X130757796Y-60376373D01*
X130751835Y-60400172D01*
X130743570Y-60423271D01*
X130733080Y-60445450D01*
X130720468Y-60466493D01*
X130705853Y-60486199D01*
X130689377Y-60504377D01*
X130671199Y-60520853D01*
X130651493Y-60535468D01*
X130630450Y-60548080D01*
X130608271Y-60558570D01*
X130585172Y-60566835D01*
X130561373Y-60572796D01*
X130537105Y-60576396D01*
X130512601Y-60577600D01*
X129987599Y-60577600D01*
X129963095Y-60576396D01*
X129938827Y-60572796D01*
X129915028Y-60566835D01*
X129891929Y-60558570D01*
X129869750Y-60548080D01*
X129848707Y-60535468D01*
X129829001Y-60520853D01*
X129810823Y-60504377D01*
X129794347Y-60486199D01*
X129779732Y-60466493D01*
X129767120Y-60445450D01*
X129756630Y-60423271D01*
X129748365Y-60400172D01*
X129742404Y-60376373D01*
X129738804Y-60352105D01*
X129737600Y-60327601D01*
X129737600Y-59427599D01*
X129738804Y-59403095D01*
X129742404Y-59378827D01*
X129748365Y-59355028D01*
X129756630Y-59331929D01*
X129767120Y-59309750D01*
X129779732Y-59288707D01*
X129794347Y-59269001D01*
X129810823Y-59250823D01*
X129829001Y-59234347D01*
X129848707Y-59219732D01*
X129869750Y-59207120D01*
X129891929Y-59196630D01*
X129915028Y-59188365D01*
X129938827Y-59182404D01*
X129963095Y-59178804D01*
X129987599Y-59177600D01*
X130512601Y-59177600D01*
X130537105Y-59178804D01*
G37*
G36*
X128712105Y-59178804D02*
G01*
X128736373Y-59182404D01*
X128760172Y-59188365D01*
X128783271Y-59196630D01*
X128805450Y-59207120D01*
X128826493Y-59219732D01*
X128846199Y-59234347D01*
X128864377Y-59250823D01*
X128880853Y-59269001D01*
X128895468Y-59288707D01*
X128908080Y-59309750D01*
X128918570Y-59331929D01*
X128926835Y-59355028D01*
X128932796Y-59378827D01*
X128936396Y-59403095D01*
X128937600Y-59427599D01*
X128937600Y-60327601D01*
X128936396Y-60352105D01*
X128932796Y-60376373D01*
X128926835Y-60400172D01*
X128918570Y-60423271D01*
X128908080Y-60445450D01*
X128895468Y-60466493D01*
X128880853Y-60486199D01*
X128864377Y-60504377D01*
X128846199Y-60520853D01*
X128826493Y-60535468D01*
X128805450Y-60548080D01*
X128783271Y-60558570D01*
X128760172Y-60566835D01*
X128736373Y-60572796D01*
X128712105Y-60576396D01*
X128687601Y-60577600D01*
X128162599Y-60577600D01*
X128138095Y-60576396D01*
X128113827Y-60572796D01*
X128090028Y-60566835D01*
X128066929Y-60558570D01*
X128044750Y-60548080D01*
X128023707Y-60535468D01*
X128004001Y-60520853D01*
X127985823Y-60504377D01*
X127969347Y-60486199D01*
X127954732Y-60466493D01*
X127942120Y-60445450D01*
X127931630Y-60423271D01*
X127923365Y-60400172D01*
X127917404Y-60376373D01*
X127913804Y-60352105D01*
X127912600Y-60327601D01*
X127912600Y-59427599D01*
X127913804Y-59403095D01*
X127917404Y-59378827D01*
X127923365Y-59355028D01*
X127931630Y-59331929D01*
X127942120Y-59309750D01*
X127954732Y-59288707D01*
X127969347Y-59269001D01*
X127985823Y-59250823D01*
X128004001Y-59234347D01*
X128023707Y-59219732D01*
X128044750Y-59207120D01*
X128066929Y-59196630D01*
X128090028Y-59188365D01*
X128113827Y-59182404D01*
X128138095Y-59178804D01*
X128162599Y-59177600D01*
X128687601Y-59177600D01*
X128712105Y-59178804D01*
G37*
G36*
X114667105Y-65428804D02*
G01*
X114691373Y-65432404D01*
X114715172Y-65438365D01*
X114738271Y-65446630D01*
X114760450Y-65457120D01*
X114781493Y-65469732D01*
X114801199Y-65484347D01*
X114819377Y-65500823D01*
X114835853Y-65519001D01*
X114850468Y-65538707D01*
X114863080Y-65559750D01*
X114873570Y-65581929D01*
X114881835Y-65605028D01*
X114887796Y-65628827D01*
X114891396Y-65653095D01*
X114892600Y-65677599D01*
X114892600Y-66577601D01*
X114891396Y-66602105D01*
X114887796Y-66626373D01*
X114881835Y-66650172D01*
X114873570Y-66673271D01*
X114863080Y-66695450D01*
X114850468Y-66716493D01*
X114835853Y-66736199D01*
X114819377Y-66754377D01*
X114801199Y-66770853D01*
X114781493Y-66785468D01*
X114760450Y-66798080D01*
X114738271Y-66808570D01*
X114715172Y-66816835D01*
X114691373Y-66822796D01*
X114667105Y-66826396D01*
X114642601Y-66827600D01*
X114117599Y-66827600D01*
X114093095Y-66826396D01*
X114068827Y-66822796D01*
X114045028Y-66816835D01*
X114021929Y-66808570D01*
X113999750Y-66798080D01*
X113978707Y-66785468D01*
X113959001Y-66770853D01*
X113940823Y-66754377D01*
X113924347Y-66736199D01*
X113909732Y-66716493D01*
X113897120Y-66695450D01*
X113886630Y-66673271D01*
X113878365Y-66650172D01*
X113872404Y-66626373D01*
X113868804Y-66602105D01*
X113867600Y-66577601D01*
X113867600Y-65677599D01*
X113868804Y-65653095D01*
X113872404Y-65628827D01*
X113878365Y-65605028D01*
X113886630Y-65581929D01*
X113897120Y-65559750D01*
X113909732Y-65538707D01*
X113924347Y-65519001D01*
X113940823Y-65500823D01*
X113959001Y-65484347D01*
X113978707Y-65469732D01*
X113999750Y-65457120D01*
X114021929Y-65446630D01*
X114045028Y-65438365D01*
X114068827Y-65432404D01*
X114093095Y-65428804D01*
X114117599Y-65427600D01*
X114642601Y-65427600D01*
X114667105Y-65428804D01*
G37*
G36*
X112842105Y-65428804D02*
G01*
X112866373Y-65432404D01*
X112890172Y-65438365D01*
X112913271Y-65446630D01*
X112935450Y-65457120D01*
X112956493Y-65469732D01*
X112976199Y-65484347D01*
X112994377Y-65500823D01*
X113010853Y-65519001D01*
X113025468Y-65538707D01*
X113038080Y-65559750D01*
X113048570Y-65581929D01*
X113056835Y-65605028D01*
X113062796Y-65628827D01*
X113066396Y-65653095D01*
X113067600Y-65677599D01*
X113067600Y-66577601D01*
X113066396Y-66602105D01*
X113062796Y-66626373D01*
X113056835Y-66650172D01*
X113048570Y-66673271D01*
X113038080Y-66695450D01*
X113025468Y-66716493D01*
X113010853Y-66736199D01*
X112994377Y-66754377D01*
X112976199Y-66770853D01*
X112956493Y-66785468D01*
X112935450Y-66798080D01*
X112913271Y-66808570D01*
X112890172Y-66816835D01*
X112866373Y-66822796D01*
X112842105Y-66826396D01*
X112817601Y-66827600D01*
X112292599Y-66827600D01*
X112268095Y-66826396D01*
X112243827Y-66822796D01*
X112220028Y-66816835D01*
X112196929Y-66808570D01*
X112174750Y-66798080D01*
X112153707Y-66785468D01*
X112134001Y-66770853D01*
X112115823Y-66754377D01*
X112099347Y-66736199D01*
X112084732Y-66716493D01*
X112072120Y-66695450D01*
X112061630Y-66673271D01*
X112053365Y-66650172D01*
X112047404Y-66626373D01*
X112043804Y-66602105D01*
X112042600Y-66577601D01*
X112042600Y-65677599D01*
X112043804Y-65653095D01*
X112047404Y-65628827D01*
X112053365Y-65605028D01*
X112061630Y-65581929D01*
X112072120Y-65559750D01*
X112084732Y-65538707D01*
X112099347Y-65519001D01*
X112115823Y-65500823D01*
X112134001Y-65484347D01*
X112153707Y-65469732D01*
X112174750Y-65457120D01*
X112196929Y-65446630D01*
X112220028Y-65438365D01*
X112243827Y-65432404D01*
X112268095Y-65428804D01*
X112292599Y-65427600D01*
X112817601Y-65427600D01*
X112842105Y-65428804D01*
G37*
G36*
X131042105Y-107263804D02*
G01*
X131066373Y-107267404D01*
X131090172Y-107273365D01*
X131113271Y-107281630D01*
X131135450Y-107292120D01*
X131156493Y-107304732D01*
X131176199Y-107319347D01*
X131194377Y-107335823D01*
X131210853Y-107354001D01*
X131225468Y-107373707D01*
X131238080Y-107394750D01*
X131248570Y-107416929D01*
X131256835Y-107440028D01*
X131262796Y-107463827D01*
X131266396Y-107488095D01*
X131267600Y-107512599D01*
X131267600Y-108137601D01*
X131266396Y-108162105D01*
X131262796Y-108186373D01*
X131256835Y-108210172D01*
X131248570Y-108233271D01*
X131238080Y-108255450D01*
X131225468Y-108276493D01*
X131210853Y-108296199D01*
X131194377Y-108314377D01*
X131176199Y-108330853D01*
X131156493Y-108345468D01*
X131135450Y-108358080D01*
X131113271Y-108368570D01*
X131090172Y-108376835D01*
X131066373Y-108382796D01*
X131042105Y-108386396D01*
X131017601Y-108387600D01*
X128117599Y-108387600D01*
X128093095Y-108386396D01*
X128068827Y-108382796D01*
X128045028Y-108376835D01*
X128021929Y-108368570D01*
X127999750Y-108358080D01*
X127978707Y-108345468D01*
X127959001Y-108330853D01*
X127940823Y-108314377D01*
X127924347Y-108296199D01*
X127909732Y-108276493D01*
X127897120Y-108255450D01*
X127886630Y-108233271D01*
X127878365Y-108210172D01*
X127872404Y-108186373D01*
X127868804Y-108162105D01*
X127867600Y-108137601D01*
X127867600Y-107512599D01*
X127868804Y-107488095D01*
X127872404Y-107463827D01*
X127878365Y-107440028D01*
X127886630Y-107416929D01*
X127897120Y-107394750D01*
X127909732Y-107373707D01*
X127924347Y-107354001D01*
X127940823Y-107335823D01*
X127959001Y-107319347D01*
X127978707Y-107304732D01*
X127999750Y-107292120D01*
X128021929Y-107281630D01*
X128045028Y-107273365D01*
X128068827Y-107267404D01*
X128093095Y-107263804D01*
X128117599Y-107262600D01*
X131017601Y-107262600D01*
X131042105Y-107263804D01*
G37*
G36*
X131042105Y-102988804D02*
G01*
X131066373Y-102992404D01*
X131090172Y-102998365D01*
X131113271Y-103006630D01*
X131135450Y-103017120D01*
X131156493Y-103029732D01*
X131176199Y-103044347D01*
X131194377Y-103060823D01*
X131210853Y-103079001D01*
X131225468Y-103098707D01*
X131238080Y-103119750D01*
X131248570Y-103141929D01*
X131256835Y-103165028D01*
X131262796Y-103188827D01*
X131266396Y-103213095D01*
X131267600Y-103237599D01*
X131267600Y-103862601D01*
X131266396Y-103887105D01*
X131262796Y-103911373D01*
X131256835Y-103935172D01*
X131248570Y-103958271D01*
X131238080Y-103980450D01*
X131225468Y-104001493D01*
X131210853Y-104021199D01*
X131194377Y-104039377D01*
X131176199Y-104055853D01*
X131156493Y-104070468D01*
X131135450Y-104083080D01*
X131113271Y-104093570D01*
X131090172Y-104101835D01*
X131066373Y-104107796D01*
X131042105Y-104111396D01*
X131017601Y-104112600D01*
X128117599Y-104112600D01*
X128093095Y-104111396D01*
X128068827Y-104107796D01*
X128045028Y-104101835D01*
X128021929Y-104093570D01*
X127999750Y-104083080D01*
X127978707Y-104070468D01*
X127959001Y-104055853D01*
X127940823Y-104039377D01*
X127924347Y-104021199D01*
X127909732Y-104001493D01*
X127897120Y-103980450D01*
X127886630Y-103958271D01*
X127878365Y-103935172D01*
X127872404Y-103911373D01*
X127868804Y-103887105D01*
X127867600Y-103862601D01*
X127867600Y-103237599D01*
X127868804Y-103213095D01*
X127872404Y-103188827D01*
X127878365Y-103165028D01*
X127886630Y-103141929D01*
X127897120Y-103119750D01*
X127909732Y-103098707D01*
X127924347Y-103079001D01*
X127940823Y-103060823D01*
X127959001Y-103044347D01*
X127978707Y-103029732D01*
X127999750Y-103017120D01*
X128021929Y-103006630D01*
X128045028Y-102998365D01*
X128068827Y-102992404D01*
X128093095Y-102988804D01*
X128117599Y-102987600D01*
X131017601Y-102987600D01*
X131042105Y-102988804D01*
G37*
G36*
X105897742Y-59188774D02*
G01*
X105921403Y-59192284D01*
X105944607Y-59198096D01*
X105967129Y-59206154D01*
X105988753Y-59216382D01*
X106009270Y-59228679D01*
X106028483Y-59242929D01*
X106046207Y-59258993D01*
X106062271Y-59276717D01*
X106076521Y-59295930D01*
X106088818Y-59316447D01*
X106099046Y-59338071D01*
X106107104Y-59360593D01*
X106112916Y-59383797D01*
X106116426Y-59407458D01*
X106117600Y-59431350D01*
X106117600Y-60343850D01*
X106116426Y-60367742D01*
X106112916Y-60391403D01*
X106107104Y-60414607D01*
X106099046Y-60437129D01*
X106088818Y-60458753D01*
X106076521Y-60479270D01*
X106062271Y-60498483D01*
X106046207Y-60516207D01*
X106028483Y-60532271D01*
X106009270Y-60546521D01*
X105988753Y-60558818D01*
X105967129Y-60569046D01*
X105944607Y-60577104D01*
X105921403Y-60582916D01*
X105897742Y-60586426D01*
X105873850Y-60587600D01*
X105386350Y-60587600D01*
X105362458Y-60586426D01*
X105338797Y-60582916D01*
X105315593Y-60577104D01*
X105293071Y-60569046D01*
X105271447Y-60558818D01*
X105250930Y-60546521D01*
X105231717Y-60532271D01*
X105213993Y-60516207D01*
X105197929Y-60498483D01*
X105183679Y-60479270D01*
X105171382Y-60458753D01*
X105161154Y-60437129D01*
X105153096Y-60414607D01*
X105147284Y-60391403D01*
X105143774Y-60367742D01*
X105142600Y-60343850D01*
X105142600Y-59431350D01*
X105143774Y-59407458D01*
X105147284Y-59383797D01*
X105153096Y-59360593D01*
X105161154Y-59338071D01*
X105171382Y-59316447D01*
X105183679Y-59295930D01*
X105197929Y-59276717D01*
X105213993Y-59258993D01*
X105231717Y-59242929D01*
X105250930Y-59228679D01*
X105271447Y-59216382D01*
X105293071Y-59206154D01*
X105315593Y-59198096D01*
X105338797Y-59192284D01*
X105362458Y-59188774D01*
X105386350Y-59187600D01*
X105873850Y-59187600D01*
X105897742Y-59188774D01*
G37*
G36*
X104022742Y-59188774D02*
G01*
X104046403Y-59192284D01*
X104069607Y-59198096D01*
X104092129Y-59206154D01*
X104113753Y-59216382D01*
X104134270Y-59228679D01*
X104153483Y-59242929D01*
X104171207Y-59258993D01*
X104187271Y-59276717D01*
X104201521Y-59295930D01*
X104213818Y-59316447D01*
X104224046Y-59338071D01*
X104232104Y-59360593D01*
X104237916Y-59383797D01*
X104241426Y-59407458D01*
X104242600Y-59431350D01*
X104242600Y-60343850D01*
X104241426Y-60367742D01*
X104237916Y-60391403D01*
X104232104Y-60414607D01*
X104224046Y-60437129D01*
X104213818Y-60458753D01*
X104201521Y-60479270D01*
X104187271Y-60498483D01*
X104171207Y-60516207D01*
X104153483Y-60532271D01*
X104134270Y-60546521D01*
X104113753Y-60558818D01*
X104092129Y-60569046D01*
X104069607Y-60577104D01*
X104046403Y-60582916D01*
X104022742Y-60586426D01*
X103998850Y-60587600D01*
X103511350Y-60587600D01*
X103487458Y-60586426D01*
X103463797Y-60582916D01*
X103440593Y-60577104D01*
X103418071Y-60569046D01*
X103396447Y-60558818D01*
X103375930Y-60546521D01*
X103356717Y-60532271D01*
X103338993Y-60516207D01*
X103322929Y-60498483D01*
X103308679Y-60479270D01*
X103296382Y-60458753D01*
X103286154Y-60437129D01*
X103278096Y-60414607D01*
X103272284Y-60391403D01*
X103268774Y-60367742D01*
X103267600Y-60343850D01*
X103267600Y-59431350D01*
X103268774Y-59407458D01*
X103272284Y-59383797D01*
X103278096Y-59360593D01*
X103286154Y-59338071D01*
X103296382Y-59316447D01*
X103308679Y-59295930D01*
X103322929Y-59276717D01*
X103338993Y-59258993D01*
X103356717Y-59242929D01*
X103375930Y-59228679D01*
X103396447Y-59216382D01*
X103418071Y-59206154D01*
X103440593Y-59198096D01*
X103463797Y-59192284D01*
X103487458Y-59188774D01*
X103511350Y-59187600D01*
X103998850Y-59187600D01*
X104022742Y-59188774D01*
G37*
G36*
X114322742Y-95603774D02*
G01*
X114346403Y-95607284D01*
X114369607Y-95613096D01*
X114392129Y-95621154D01*
X114413753Y-95631382D01*
X114434270Y-95643679D01*
X114453483Y-95657929D01*
X114471207Y-95673993D01*
X114487271Y-95691717D01*
X114501521Y-95710930D01*
X114513818Y-95731447D01*
X114524046Y-95753071D01*
X114532104Y-95775593D01*
X114537916Y-95798797D01*
X114541426Y-95822458D01*
X114542600Y-95846350D01*
X114542600Y-96758850D01*
X114541426Y-96782742D01*
X114537916Y-96806403D01*
X114532104Y-96829607D01*
X114524046Y-96852129D01*
X114513818Y-96873753D01*
X114501521Y-96894270D01*
X114487271Y-96913483D01*
X114471207Y-96931207D01*
X114453483Y-96947271D01*
X114434270Y-96961521D01*
X114413753Y-96973818D01*
X114392129Y-96984046D01*
X114369607Y-96992104D01*
X114346403Y-96997916D01*
X114322742Y-97001426D01*
X114298850Y-97002600D01*
X113811350Y-97002600D01*
X113787458Y-97001426D01*
X113763797Y-96997916D01*
X113740593Y-96992104D01*
X113718071Y-96984046D01*
X113696447Y-96973818D01*
X113675930Y-96961521D01*
X113656717Y-96947271D01*
X113638993Y-96931207D01*
X113622929Y-96913483D01*
X113608679Y-96894270D01*
X113596382Y-96873753D01*
X113586154Y-96852129D01*
X113578096Y-96829607D01*
X113572284Y-96806403D01*
X113568774Y-96782742D01*
X113567600Y-96758850D01*
X113567600Y-95846350D01*
X113568774Y-95822458D01*
X113572284Y-95798797D01*
X113578096Y-95775593D01*
X113586154Y-95753071D01*
X113596382Y-95731447D01*
X113608679Y-95710930D01*
X113622929Y-95691717D01*
X113638993Y-95673993D01*
X113656717Y-95657929D01*
X113675930Y-95643679D01*
X113696447Y-95631382D01*
X113718071Y-95621154D01*
X113740593Y-95613096D01*
X113763797Y-95607284D01*
X113787458Y-95603774D01*
X113811350Y-95602600D01*
X114298850Y-95602600D01*
X114322742Y-95603774D01*
G37*
G36*
X112447742Y-95603774D02*
G01*
X112471403Y-95607284D01*
X112494607Y-95613096D01*
X112517129Y-95621154D01*
X112538753Y-95631382D01*
X112559270Y-95643679D01*
X112578483Y-95657929D01*
X112596207Y-95673993D01*
X112612271Y-95691717D01*
X112626521Y-95710930D01*
X112638818Y-95731447D01*
X112649046Y-95753071D01*
X112657104Y-95775593D01*
X112662916Y-95798797D01*
X112666426Y-95822458D01*
X112667600Y-95846350D01*
X112667600Y-96758850D01*
X112666426Y-96782742D01*
X112662916Y-96806403D01*
X112657104Y-96829607D01*
X112649046Y-96852129D01*
X112638818Y-96873753D01*
X112626521Y-96894270D01*
X112612271Y-96913483D01*
X112596207Y-96931207D01*
X112578483Y-96947271D01*
X112559270Y-96961521D01*
X112538753Y-96973818D01*
X112517129Y-96984046D01*
X112494607Y-96992104D01*
X112471403Y-96997916D01*
X112447742Y-97001426D01*
X112423850Y-97002600D01*
X111936350Y-97002600D01*
X111912458Y-97001426D01*
X111888797Y-96997916D01*
X111865593Y-96992104D01*
X111843071Y-96984046D01*
X111821447Y-96973818D01*
X111800930Y-96961521D01*
X111781717Y-96947271D01*
X111763993Y-96931207D01*
X111747929Y-96913483D01*
X111733679Y-96894270D01*
X111721382Y-96873753D01*
X111711154Y-96852129D01*
X111703096Y-96829607D01*
X111697284Y-96806403D01*
X111693774Y-96782742D01*
X111692600Y-96758850D01*
X111692600Y-95846350D01*
X111693774Y-95822458D01*
X111697284Y-95798797D01*
X111703096Y-95775593D01*
X111711154Y-95753071D01*
X111721382Y-95731447D01*
X111733679Y-95710930D01*
X111747929Y-95691717D01*
X111763993Y-95673993D01*
X111781717Y-95657929D01*
X111800930Y-95643679D01*
X111821447Y-95631382D01*
X111843071Y-95621154D01*
X111865593Y-95613096D01*
X111888797Y-95607284D01*
X111912458Y-95603774D01*
X111936350Y-95602600D01*
X112423850Y-95602600D01*
X112447742Y-95603774D01*
G37*
D12*
X129377600Y-55927600D03*
X130327600Y-57927600D03*
X128427600Y-57927600D03*
D10*
G36*
X113587104Y-60503804D02*
G01*
X113611373Y-60507404D01*
X113635171Y-60513365D01*
X113658271Y-60521630D01*
X113680449Y-60532120D01*
X113701493Y-60544733D01*
X113721198Y-60559347D01*
X113739377Y-60575823D01*
X113755853Y-60594002D01*
X113770467Y-60613707D01*
X113783080Y-60634751D01*
X113793570Y-60656929D01*
X113801835Y-60680029D01*
X113807796Y-60703827D01*
X113811396Y-60728096D01*
X113812600Y-60752600D01*
X113812600Y-61702600D01*
X113811396Y-61727104D01*
X113807796Y-61751373D01*
X113801835Y-61775171D01*
X113793570Y-61798271D01*
X113783080Y-61820449D01*
X113770467Y-61841493D01*
X113755853Y-61861198D01*
X113739377Y-61879377D01*
X113721198Y-61895853D01*
X113701493Y-61910467D01*
X113680449Y-61923080D01*
X113658271Y-61933570D01*
X113635171Y-61941835D01*
X113611373Y-61947796D01*
X113587104Y-61951396D01*
X113562600Y-61952600D01*
X113062600Y-61952600D01*
X113038096Y-61951396D01*
X113013827Y-61947796D01*
X112990029Y-61941835D01*
X112966929Y-61933570D01*
X112944751Y-61923080D01*
X112923707Y-61910467D01*
X112904002Y-61895853D01*
X112885823Y-61879377D01*
X112869347Y-61861198D01*
X112854733Y-61841493D01*
X112842120Y-61820449D01*
X112831630Y-61798271D01*
X112823365Y-61775171D01*
X112817404Y-61751373D01*
X112813804Y-61727104D01*
X112812600Y-61702600D01*
X112812600Y-60752600D01*
X112813804Y-60728096D01*
X112817404Y-60703827D01*
X112823365Y-60680029D01*
X112831630Y-60656929D01*
X112842120Y-60634751D01*
X112854733Y-60613707D01*
X112869347Y-60594002D01*
X112885823Y-60575823D01*
X112904002Y-60559347D01*
X112923707Y-60544733D01*
X112944751Y-60532120D01*
X112966929Y-60521630D01*
X112990029Y-60513365D01*
X113013827Y-60507404D01*
X113038096Y-60503804D01*
X113062600Y-60502600D01*
X113562600Y-60502600D01*
X113587104Y-60503804D01*
G37*
G36*
X115487104Y-60503804D02*
G01*
X115511373Y-60507404D01*
X115535171Y-60513365D01*
X115558271Y-60521630D01*
X115580449Y-60532120D01*
X115601493Y-60544733D01*
X115621198Y-60559347D01*
X115639377Y-60575823D01*
X115655853Y-60594002D01*
X115670467Y-60613707D01*
X115683080Y-60634751D01*
X115693570Y-60656929D01*
X115701835Y-60680029D01*
X115707796Y-60703827D01*
X115711396Y-60728096D01*
X115712600Y-60752600D01*
X115712600Y-61702600D01*
X115711396Y-61727104D01*
X115707796Y-61751373D01*
X115701835Y-61775171D01*
X115693570Y-61798271D01*
X115683080Y-61820449D01*
X115670467Y-61841493D01*
X115655853Y-61861198D01*
X115639377Y-61879377D01*
X115621198Y-61895853D01*
X115601493Y-61910467D01*
X115580449Y-61923080D01*
X115558271Y-61933570D01*
X115535171Y-61941835D01*
X115511373Y-61947796D01*
X115487104Y-61951396D01*
X115462600Y-61952600D01*
X114962600Y-61952600D01*
X114938096Y-61951396D01*
X114913827Y-61947796D01*
X114890029Y-61941835D01*
X114866929Y-61933570D01*
X114844751Y-61923080D01*
X114823707Y-61910467D01*
X114804002Y-61895853D01*
X114785823Y-61879377D01*
X114769347Y-61861198D01*
X114754733Y-61841493D01*
X114742120Y-61820449D01*
X114731630Y-61798271D01*
X114723365Y-61775171D01*
X114717404Y-61751373D01*
X114713804Y-61727104D01*
X114712600Y-61702600D01*
X114712600Y-60752600D01*
X114713804Y-60728096D01*
X114717404Y-60703827D01*
X114723365Y-60680029D01*
X114731630Y-60656929D01*
X114742120Y-60634751D01*
X114754733Y-60613707D01*
X114769347Y-60594002D01*
X114785823Y-60575823D01*
X114804002Y-60559347D01*
X114823707Y-60544733D01*
X114844751Y-60532120D01*
X114866929Y-60521630D01*
X114890029Y-60513365D01*
X114913827Y-60507404D01*
X114938096Y-60503804D01*
X114962600Y-60502600D01*
X115462600Y-60502600D01*
X115487104Y-60503804D01*
G37*
G36*
X125867104Y-57838804D02*
G01*
X125891373Y-57842404D01*
X125915171Y-57848365D01*
X125938271Y-57856630D01*
X125960449Y-57867120D01*
X125981493Y-57879733D01*
X126001198Y-57894347D01*
X126019377Y-57910823D01*
X126035853Y-57929002D01*
X126050467Y-57948707D01*
X126063080Y-57969751D01*
X126073570Y-57991929D01*
X126081835Y-58015029D01*
X126087796Y-58038827D01*
X126091396Y-58063096D01*
X126092600Y-58087600D01*
X126092600Y-59037600D01*
X126091396Y-59062104D01*
X126087796Y-59086373D01*
X126081835Y-59110171D01*
X126073570Y-59133271D01*
X126063080Y-59155449D01*
X126050467Y-59176493D01*
X126035853Y-59196198D01*
X126019377Y-59214377D01*
X126001198Y-59230853D01*
X125981493Y-59245467D01*
X125960449Y-59258080D01*
X125938271Y-59268570D01*
X125915171Y-59276835D01*
X125891373Y-59282796D01*
X125867104Y-59286396D01*
X125842600Y-59287600D01*
X125342600Y-59287600D01*
X125318096Y-59286396D01*
X125293827Y-59282796D01*
X125270029Y-59276835D01*
X125246929Y-59268570D01*
X125224751Y-59258080D01*
X125203707Y-59245467D01*
X125184002Y-59230853D01*
X125165823Y-59214377D01*
X125149347Y-59196198D01*
X125134733Y-59176493D01*
X125122120Y-59155449D01*
X125111630Y-59133271D01*
X125103365Y-59110171D01*
X125097404Y-59086373D01*
X125093804Y-59062104D01*
X125092600Y-59037600D01*
X125092600Y-58087600D01*
X125093804Y-58063096D01*
X125097404Y-58038827D01*
X125103365Y-58015029D01*
X125111630Y-57991929D01*
X125122120Y-57969751D01*
X125134733Y-57948707D01*
X125149347Y-57929002D01*
X125165823Y-57910823D01*
X125184002Y-57894347D01*
X125203707Y-57879733D01*
X125224751Y-57867120D01*
X125246929Y-57856630D01*
X125270029Y-57848365D01*
X125293827Y-57842404D01*
X125318096Y-57838804D01*
X125342600Y-57837600D01*
X125842600Y-57837600D01*
X125867104Y-57838804D01*
G37*
G36*
X123967104Y-57838804D02*
G01*
X123991373Y-57842404D01*
X124015171Y-57848365D01*
X124038271Y-57856630D01*
X124060449Y-57867120D01*
X124081493Y-57879733D01*
X124101198Y-57894347D01*
X124119377Y-57910823D01*
X124135853Y-57929002D01*
X124150467Y-57948707D01*
X124163080Y-57969751D01*
X124173570Y-57991929D01*
X124181835Y-58015029D01*
X124187796Y-58038827D01*
X124191396Y-58063096D01*
X124192600Y-58087600D01*
X124192600Y-59037600D01*
X124191396Y-59062104D01*
X124187796Y-59086373D01*
X124181835Y-59110171D01*
X124173570Y-59133271D01*
X124163080Y-59155449D01*
X124150467Y-59176493D01*
X124135853Y-59196198D01*
X124119377Y-59214377D01*
X124101198Y-59230853D01*
X124081493Y-59245467D01*
X124060449Y-59258080D01*
X124038271Y-59268570D01*
X124015171Y-59276835D01*
X123991373Y-59282796D01*
X123967104Y-59286396D01*
X123942600Y-59287600D01*
X123442600Y-59287600D01*
X123418096Y-59286396D01*
X123393827Y-59282796D01*
X123370029Y-59276835D01*
X123346929Y-59268570D01*
X123324751Y-59258080D01*
X123303707Y-59245467D01*
X123284002Y-59230853D01*
X123265823Y-59214377D01*
X123249347Y-59196198D01*
X123234733Y-59176493D01*
X123222120Y-59155449D01*
X123211630Y-59133271D01*
X123203365Y-59110171D01*
X123197404Y-59086373D01*
X123193804Y-59062104D01*
X123192600Y-59037600D01*
X123192600Y-58087600D01*
X123193804Y-58063096D01*
X123197404Y-58038827D01*
X123203365Y-58015029D01*
X123211630Y-57991929D01*
X123222120Y-57969751D01*
X123234733Y-57948707D01*
X123249347Y-57929002D01*
X123265823Y-57910823D01*
X123284002Y-57894347D01*
X123303707Y-57879733D01*
X123324751Y-57867120D01*
X123346929Y-57856630D01*
X123370029Y-57848365D01*
X123393827Y-57842404D01*
X123418096Y-57838804D01*
X123442600Y-57837600D01*
X123942600Y-57837600D01*
X123967104Y-57838804D01*
G37*
G36*
X131087104Y-64113804D02*
G01*
X131111373Y-64117404D01*
X131135171Y-64123365D01*
X131158271Y-64131630D01*
X131180449Y-64142120D01*
X131201493Y-64154733D01*
X131221198Y-64169347D01*
X131239377Y-64185823D01*
X131255853Y-64204002D01*
X131270467Y-64223707D01*
X131283080Y-64244751D01*
X131293570Y-64266929D01*
X131301835Y-64290029D01*
X131307796Y-64313827D01*
X131311396Y-64338096D01*
X131312600Y-64362600D01*
X131312600Y-65312600D01*
X131311396Y-65337104D01*
X131307796Y-65361373D01*
X131301835Y-65385171D01*
X131293570Y-65408271D01*
X131283080Y-65430449D01*
X131270467Y-65451493D01*
X131255853Y-65471198D01*
X131239377Y-65489377D01*
X131221198Y-65505853D01*
X131201493Y-65520467D01*
X131180449Y-65533080D01*
X131158271Y-65543570D01*
X131135171Y-65551835D01*
X131111373Y-65557796D01*
X131087104Y-65561396D01*
X131062600Y-65562600D01*
X130562600Y-65562600D01*
X130538096Y-65561396D01*
X130513827Y-65557796D01*
X130490029Y-65551835D01*
X130466929Y-65543570D01*
X130444751Y-65533080D01*
X130423707Y-65520467D01*
X130404002Y-65505853D01*
X130385823Y-65489377D01*
X130369347Y-65471198D01*
X130354733Y-65451493D01*
X130342120Y-65430449D01*
X130331630Y-65408271D01*
X130323365Y-65385171D01*
X130317404Y-65361373D01*
X130313804Y-65337104D01*
X130312600Y-65312600D01*
X130312600Y-64362600D01*
X130313804Y-64338096D01*
X130317404Y-64313827D01*
X130323365Y-64290029D01*
X130331630Y-64266929D01*
X130342120Y-64244751D01*
X130354733Y-64223707D01*
X130369347Y-64204002D01*
X130385823Y-64185823D01*
X130404002Y-64169347D01*
X130423707Y-64154733D01*
X130444751Y-64142120D01*
X130466929Y-64131630D01*
X130490029Y-64123365D01*
X130513827Y-64117404D01*
X130538096Y-64113804D01*
X130562600Y-64112600D01*
X131062600Y-64112600D01*
X131087104Y-64113804D01*
G37*
G36*
X129187104Y-64113804D02*
G01*
X129211373Y-64117404D01*
X129235171Y-64123365D01*
X129258271Y-64131630D01*
X129280449Y-64142120D01*
X129301493Y-64154733D01*
X129321198Y-64169347D01*
X129339377Y-64185823D01*
X129355853Y-64204002D01*
X129370467Y-64223707D01*
X129383080Y-64244751D01*
X129393570Y-64266929D01*
X129401835Y-64290029D01*
X129407796Y-64313827D01*
X129411396Y-64338096D01*
X129412600Y-64362600D01*
X129412600Y-65312600D01*
X129411396Y-65337104D01*
X129407796Y-65361373D01*
X129401835Y-65385171D01*
X129393570Y-65408271D01*
X129383080Y-65430449D01*
X129370467Y-65451493D01*
X129355853Y-65471198D01*
X129339377Y-65489377D01*
X129321198Y-65505853D01*
X129301493Y-65520467D01*
X129280449Y-65533080D01*
X129258271Y-65543570D01*
X129235171Y-65551835D01*
X129211373Y-65557796D01*
X129187104Y-65561396D01*
X129162600Y-65562600D01*
X128662600Y-65562600D01*
X128638096Y-65561396D01*
X128613827Y-65557796D01*
X128590029Y-65551835D01*
X128566929Y-65543570D01*
X128544751Y-65533080D01*
X128523707Y-65520467D01*
X128504002Y-65505853D01*
X128485823Y-65489377D01*
X128469347Y-65471198D01*
X128454733Y-65451493D01*
X128442120Y-65430449D01*
X128431630Y-65408271D01*
X128423365Y-65385171D01*
X128417404Y-65361373D01*
X128413804Y-65337104D01*
X128412600Y-65312600D01*
X128412600Y-64362600D01*
X128413804Y-64338096D01*
X128417404Y-64313827D01*
X128423365Y-64290029D01*
X128431630Y-64266929D01*
X128442120Y-64244751D01*
X128454733Y-64223707D01*
X128469347Y-64204002D01*
X128485823Y-64185823D01*
X128504002Y-64169347D01*
X128523707Y-64154733D01*
X128544751Y-64142120D01*
X128566929Y-64131630D01*
X128590029Y-64123365D01*
X128613827Y-64117404D01*
X128638096Y-64113804D01*
X128662600Y-64112600D01*
X129162600Y-64112600D01*
X129187104Y-64113804D01*
G37*
G36*
X125852104Y-60073804D02*
G01*
X125876373Y-60077404D01*
X125900171Y-60083365D01*
X125923271Y-60091630D01*
X125945449Y-60102120D01*
X125966493Y-60114733D01*
X125986198Y-60129347D01*
X126004377Y-60145823D01*
X126020853Y-60164002D01*
X126035467Y-60183707D01*
X126048080Y-60204751D01*
X126058570Y-60226929D01*
X126066835Y-60250029D01*
X126072796Y-60273827D01*
X126076396Y-60298096D01*
X126077600Y-60322600D01*
X126077600Y-61272600D01*
X126076396Y-61297104D01*
X126072796Y-61321373D01*
X126066835Y-61345171D01*
X126058570Y-61368271D01*
X126048080Y-61390449D01*
X126035467Y-61411493D01*
X126020853Y-61431198D01*
X126004377Y-61449377D01*
X125986198Y-61465853D01*
X125966493Y-61480467D01*
X125945449Y-61493080D01*
X125923271Y-61503570D01*
X125900171Y-61511835D01*
X125876373Y-61517796D01*
X125852104Y-61521396D01*
X125827600Y-61522600D01*
X125327600Y-61522600D01*
X125303096Y-61521396D01*
X125278827Y-61517796D01*
X125255029Y-61511835D01*
X125231929Y-61503570D01*
X125209751Y-61493080D01*
X125188707Y-61480467D01*
X125169002Y-61465853D01*
X125150823Y-61449377D01*
X125134347Y-61431198D01*
X125119733Y-61411493D01*
X125107120Y-61390449D01*
X125096630Y-61368271D01*
X125088365Y-61345171D01*
X125082404Y-61321373D01*
X125078804Y-61297104D01*
X125077600Y-61272600D01*
X125077600Y-60322600D01*
X125078804Y-60298096D01*
X125082404Y-60273827D01*
X125088365Y-60250029D01*
X125096630Y-60226929D01*
X125107120Y-60204751D01*
X125119733Y-60183707D01*
X125134347Y-60164002D01*
X125150823Y-60145823D01*
X125169002Y-60129347D01*
X125188707Y-60114733D01*
X125209751Y-60102120D01*
X125231929Y-60091630D01*
X125255029Y-60083365D01*
X125278827Y-60077404D01*
X125303096Y-60073804D01*
X125327600Y-60072600D01*
X125827600Y-60072600D01*
X125852104Y-60073804D01*
G37*
G36*
X123952104Y-60073804D02*
G01*
X123976373Y-60077404D01*
X124000171Y-60083365D01*
X124023271Y-60091630D01*
X124045449Y-60102120D01*
X124066493Y-60114733D01*
X124086198Y-60129347D01*
X124104377Y-60145823D01*
X124120853Y-60164002D01*
X124135467Y-60183707D01*
X124148080Y-60204751D01*
X124158570Y-60226929D01*
X124166835Y-60250029D01*
X124172796Y-60273827D01*
X124176396Y-60298096D01*
X124177600Y-60322600D01*
X124177600Y-61272600D01*
X124176396Y-61297104D01*
X124172796Y-61321373D01*
X124166835Y-61345171D01*
X124158570Y-61368271D01*
X124148080Y-61390449D01*
X124135467Y-61411493D01*
X124120853Y-61431198D01*
X124104377Y-61449377D01*
X124086198Y-61465853D01*
X124066493Y-61480467D01*
X124045449Y-61493080D01*
X124023271Y-61503570D01*
X124000171Y-61511835D01*
X123976373Y-61517796D01*
X123952104Y-61521396D01*
X123927600Y-61522600D01*
X123427600Y-61522600D01*
X123403096Y-61521396D01*
X123378827Y-61517796D01*
X123355029Y-61511835D01*
X123331929Y-61503570D01*
X123309751Y-61493080D01*
X123288707Y-61480467D01*
X123269002Y-61465853D01*
X123250823Y-61449377D01*
X123234347Y-61431198D01*
X123219733Y-61411493D01*
X123207120Y-61390449D01*
X123196630Y-61368271D01*
X123188365Y-61345171D01*
X123182404Y-61321373D01*
X123178804Y-61297104D01*
X123177600Y-61272600D01*
X123177600Y-60322600D01*
X123178804Y-60298096D01*
X123182404Y-60273827D01*
X123188365Y-60250029D01*
X123196630Y-60226929D01*
X123207120Y-60204751D01*
X123219733Y-60183707D01*
X123234347Y-60164002D01*
X123250823Y-60145823D01*
X123269002Y-60129347D01*
X123288707Y-60114733D01*
X123309751Y-60102120D01*
X123331929Y-60091630D01*
X123355029Y-60083365D01*
X123378827Y-60077404D01*
X123403096Y-60073804D01*
X123427600Y-60072600D01*
X123927600Y-60072600D01*
X123952104Y-60073804D01*
G37*
G36*
X126182303Y-63628322D02*
G01*
X126196864Y-63630482D01*
X126211143Y-63634059D01*
X126225003Y-63639018D01*
X126238310Y-63645312D01*
X126250936Y-63652880D01*
X126262759Y-63661648D01*
X126273666Y-63671534D01*
X126283552Y-63682441D01*
X126292320Y-63694264D01*
X126299888Y-63706890D01*
X126306182Y-63720197D01*
X126311141Y-63734057D01*
X126314718Y-63748336D01*
X126316878Y-63762897D01*
X126317600Y-63777600D01*
X126317600Y-64077600D01*
X126316878Y-64092303D01*
X126314718Y-64106864D01*
X126311141Y-64121143D01*
X126306182Y-64135003D01*
X126299888Y-64148310D01*
X126292320Y-64160936D01*
X126283552Y-64172759D01*
X126273666Y-64183666D01*
X126262759Y-64193552D01*
X126250936Y-64202320D01*
X126238310Y-64209888D01*
X126225003Y-64216182D01*
X126211143Y-64221141D01*
X126196864Y-64224718D01*
X126182303Y-64226878D01*
X126167600Y-64227600D01*
X124517600Y-64227600D01*
X124502897Y-64226878D01*
X124488336Y-64224718D01*
X124474057Y-64221141D01*
X124460197Y-64216182D01*
X124446890Y-64209888D01*
X124434264Y-64202320D01*
X124422441Y-64193552D01*
X124411534Y-64183666D01*
X124401648Y-64172759D01*
X124392880Y-64160936D01*
X124385312Y-64148310D01*
X124379018Y-64135003D01*
X124374059Y-64121143D01*
X124370482Y-64106864D01*
X124368322Y-64092303D01*
X124367600Y-64077600D01*
X124367600Y-63777600D01*
X124368322Y-63762897D01*
X124370482Y-63748336D01*
X124374059Y-63734057D01*
X124379018Y-63720197D01*
X124385312Y-63706890D01*
X124392880Y-63694264D01*
X124401648Y-63682441D01*
X124411534Y-63671534D01*
X124422441Y-63661648D01*
X124434264Y-63652880D01*
X124446890Y-63645312D01*
X124460197Y-63639018D01*
X124474057Y-63634059D01*
X124488336Y-63630482D01*
X124502897Y-63628322D01*
X124517600Y-63627600D01*
X126167600Y-63627600D01*
X126182303Y-63628322D01*
G37*
G36*
X126182303Y-64898322D02*
G01*
X126196864Y-64900482D01*
X126211143Y-64904059D01*
X126225003Y-64909018D01*
X126238310Y-64915312D01*
X126250936Y-64922880D01*
X126262759Y-64931648D01*
X126273666Y-64941534D01*
X126283552Y-64952441D01*
X126292320Y-64964264D01*
X126299888Y-64976890D01*
X126306182Y-64990197D01*
X126311141Y-65004057D01*
X126314718Y-65018336D01*
X126316878Y-65032897D01*
X126317600Y-65047600D01*
X126317600Y-65347600D01*
X126316878Y-65362303D01*
X126314718Y-65376864D01*
X126311141Y-65391143D01*
X126306182Y-65405003D01*
X126299888Y-65418310D01*
X126292320Y-65430936D01*
X126283552Y-65442759D01*
X126273666Y-65453666D01*
X126262759Y-65463552D01*
X126250936Y-65472320D01*
X126238310Y-65479888D01*
X126225003Y-65486182D01*
X126211143Y-65491141D01*
X126196864Y-65494718D01*
X126182303Y-65496878D01*
X126167600Y-65497600D01*
X124517600Y-65497600D01*
X124502897Y-65496878D01*
X124488336Y-65494718D01*
X124474057Y-65491141D01*
X124460197Y-65486182D01*
X124446890Y-65479888D01*
X124434264Y-65472320D01*
X124422441Y-65463552D01*
X124411534Y-65453666D01*
X124401648Y-65442759D01*
X124392880Y-65430936D01*
X124385312Y-65418310D01*
X124379018Y-65405003D01*
X124374059Y-65391143D01*
X124370482Y-65376864D01*
X124368322Y-65362303D01*
X124367600Y-65347600D01*
X124367600Y-65047600D01*
X124368322Y-65032897D01*
X124370482Y-65018336D01*
X124374059Y-65004057D01*
X124379018Y-64990197D01*
X124385312Y-64976890D01*
X124392880Y-64964264D01*
X124401648Y-64952441D01*
X124411534Y-64941534D01*
X124422441Y-64931648D01*
X124434264Y-64922880D01*
X124446890Y-64915312D01*
X124460197Y-64909018D01*
X124474057Y-64904059D01*
X124488336Y-64900482D01*
X124502897Y-64898322D01*
X124517600Y-64897600D01*
X126167600Y-64897600D01*
X126182303Y-64898322D01*
G37*
G36*
X126182303Y-66168322D02*
G01*
X126196864Y-66170482D01*
X126211143Y-66174059D01*
X126225003Y-66179018D01*
X126238310Y-66185312D01*
X126250936Y-66192880D01*
X126262759Y-66201648D01*
X126273666Y-66211534D01*
X126283552Y-66222441D01*
X126292320Y-66234264D01*
X126299888Y-66246890D01*
X126306182Y-66260197D01*
X126311141Y-66274057D01*
X126314718Y-66288336D01*
X126316878Y-66302897D01*
X126317600Y-66317600D01*
X126317600Y-66617600D01*
X126316878Y-66632303D01*
X126314718Y-66646864D01*
X126311141Y-66661143D01*
X126306182Y-66675003D01*
X126299888Y-66688310D01*
X126292320Y-66700936D01*
X126283552Y-66712759D01*
X126273666Y-66723666D01*
X126262759Y-66733552D01*
X126250936Y-66742320D01*
X126238310Y-66749888D01*
X126225003Y-66756182D01*
X126211143Y-66761141D01*
X126196864Y-66764718D01*
X126182303Y-66766878D01*
X126167600Y-66767600D01*
X124517600Y-66767600D01*
X124502897Y-66766878D01*
X124488336Y-66764718D01*
X124474057Y-66761141D01*
X124460197Y-66756182D01*
X124446890Y-66749888D01*
X124434264Y-66742320D01*
X124422441Y-66733552D01*
X124411534Y-66723666D01*
X124401648Y-66712759D01*
X124392880Y-66700936D01*
X124385312Y-66688310D01*
X124379018Y-66675003D01*
X124374059Y-66661143D01*
X124370482Y-66646864D01*
X124368322Y-66632303D01*
X124367600Y-66617600D01*
X124367600Y-66317600D01*
X124368322Y-66302897D01*
X124370482Y-66288336D01*
X124374059Y-66274057D01*
X124379018Y-66260197D01*
X124385312Y-66246890D01*
X124392880Y-66234264D01*
X124401648Y-66222441D01*
X124411534Y-66211534D01*
X124422441Y-66201648D01*
X124434264Y-66192880D01*
X124446890Y-66185312D01*
X124460197Y-66179018D01*
X124474057Y-66174059D01*
X124488336Y-66170482D01*
X124502897Y-66168322D01*
X124517600Y-66167600D01*
X126167600Y-66167600D01*
X126182303Y-66168322D01*
G37*
G36*
X126182303Y-67438322D02*
G01*
X126196864Y-67440482D01*
X126211143Y-67444059D01*
X126225003Y-67449018D01*
X126238310Y-67455312D01*
X126250936Y-67462880D01*
X126262759Y-67471648D01*
X126273666Y-67481534D01*
X126283552Y-67492441D01*
X126292320Y-67504264D01*
X126299888Y-67516890D01*
X126306182Y-67530197D01*
X126311141Y-67544057D01*
X126314718Y-67558336D01*
X126316878Y-67572897D01*
X126317600Y-67587600D01*
X126317600Y-67887600D01*
X126316878Y-67902303D01*
X126314718Y-67916864D01*
X126311141Y-67931143D01*
X126306182Y-67945003D01*
X126299888Y-67958310D01*
X126292320Y-67970936D01*
X126283552Y-67982759D01*
X126273666Y-67993666D01*
X126262759Y-68003552D01*
X126250936Y-68012320D01*
X126238310Y-68019888D01*
X126225003Y-68026182D01*
X126211143Y-68031141D01*
X126196864Y-68034718D01*
X126182303Y-68036878D01*
X126167600Y-68037600D01*
X124517600Y-68037600D01*
X124502897Y-68036878D01*
X124488336Y-68034718D01*
X124474057Y-68031141D01*
X124460197Y-68026182D01*
X124446890Y-68019888D01*
X124434264Y-68012320D01*
X124422441Y-68003552D01*
X124411534Y-67993666D01*
X124401648Y-67982759D01*
X124392880Y-67970936D01*
X124385312Y-67958310D01*
X124379018Y-67945003D01*
X124374059Y-67931143D01*
X124370482Y-67916864D01*
X124368322Y-67902303D01*
X124367600Y-67887600D01*
X124367600Y-67587600D01*
X124368322Y-67572897D01*
X124370482Y-67558336D01*
X124374059Y-67544057D01*
X124379018Y-67530197D01*
X124385312Y-67516890D01*
X124392880Y-67504264D01*
X124401648Y-67492441D01*
X124411534Y-67481534D01*
X124422441Y-67471648D01*
X124434264Y-67462880D01*
X124446890Y-67455312D01*
X124460197Y-67449018D01*
X124474057Y-67444059D01*
X124488336Y-67440482D01*
X124502897Y-67438322D01*
X124517600Y-67437600D01*
X126167600Y-67437600D01*
X126182303Y-67438322D01*
G37*
G36*
X126182303Y-68708322D02*
G01*
X126196864Y-68710482D01*
X126211143Y-68714059D01*
X126225003Y-68719018D01*
X126238310Y-68725312D01*
X126250936Y-68732880D01*
X126262759Y-68741648D01*
X126273666Y-68751534D01*
X126283552Y-68762441D01*
X126292320Y-68774264D01*
X126299888Y-68786890D01*
X126306182Y-68800197D01*
X126311141Y-68814057D01*
X126314718Y-68828336D01*
X126316878Y-68842897D01*
X126317600Y-68857600D01*
X126317600Y-69157600D01*
X126316878Y-69172303D01*
X126314718Y-69186864D01*
X126311141Y-69201143D01*
X126306182Y-69215003D01*
X126299888Y-69228310D01*
X126292320Y-69240936D01*
X126283552Y-69252759D01*
X126273666Y-69263666D01*
X126262759Y-69273552D01*
X126250936Y-69282320D01*
X126238310Y-69289888D01*
X126225003Y-69296182D01*
X126211143Y-69301141D01*
X126196864Y-69304718D01*
X126182303Y-69306878D01*
X126167600Y-69307600D01*
X124517600Y-69307600D01*
X124502897Y-69306878D01*
X124488336Y-69304718D01*
X124474057Y-69301141D01*
X124460197Y-69296182D01*
X124446890Y-69289888D01*
X124434264Y-69282320D01*
X124422441Y-69273552D01*
X124411534Y-69263666D01*
X124401648Y-69252759D01*
X124392880Y-69240936D01*
X124385312Y-69228310D01*
X124379018Y-69215003D01*
X124374059Y-69201143D01*
X124370482Y-69186864D01*
X124368322Y-69172303D01*
X124367600Y-69157600D01*
X124367600Y-68857600D01*
X124368322Y-68842897D01*
X124370482Y-68828336D01*
X124374059Y-68814057D01*
X124379018Y-68800197D01*
X124385312Y-68786890D01*
X124392880Y-68774264D01*
X124401648Y-68762441D01*
X124411534Y-68751534D01*
X124422441Y-68741648D01*
X124434264Y-68732880D01*
X124446890Y-68725312D01*
X124460197Y-68719018D01*
X124474057Y-68714059D01*
X124488336Y-68710482D01*
X124502897Y-68708322D01*
X124517600Y-68707600D01*
X126167600Y-68707600D01*
X126182303Y-68708322D01*
G37*
G36*
X126182303Y-69978322D02*
G01*
X126196864Y-69980482D01*
X126211143Y-69984059D01*
X126225003Y-69989018D01*
X126238310Y-69995312D01*
X126250936Y-70002880D01*
X126262759Y-70011648D01*
X126273666Y-70021534D01*
X126283552Y-70032441D01*
X126292320Y-70044264D01*
X126299888Y-70056890D01*
X126306182Y-70070197D01*
X126311141Y-70084057D01*
X126314718Y-70098336D01*
X126316878Y-70112897D01*
X126317600Y-70127600D01*
X126317600Y-70427600D01*
X126316878Y-70442303D01*
X126314718Y-70456864D01*
X126311141Y-70471143D01*
X126306182Y-70485003D01*
X126299888Y-70498310D01*
X126292320Y-70510936D01*
X126283552Y-70522759D01*
X126273666Y-70533666D01*
X126262759Y-70543552D01*
X126250936Y-70552320D01*
X126238310Y-70559888D01*
X126225003Y-70566182D01*
X126211143Y-70571141D01*
X126196864Y-70574718D01*
X126182303Y-70576878D01*
X126167600Y-70577600D01*
X124517600Y-70577600D01*
X124502897Y-70576878D01*
X124488336Y-70574718D01*
X124474057Y-70571141D01*
X124460197Y-70566182D01*
X124446890Y-70559888D01*
X124434264Y-70552320D01*
X124422441Y-70543552D01*
X124411534Y-70533666D01*
X124401648Y-70522759D01*
X124392880Y-70510936D01*
X124385312Y-70498310D01*
X124379018Y-70485003D01*
X124374059Y-70471143D01*
X124370482Y-70456864D01*
X124368322Y-70442303D01*
X124367600Y-70427600D01*
X124367600Y-70127600D01*
X124368322Y-70112897D01*
X124370482Y-70098336D01*
X124374059Y-70084057D01*
X124379018Y-70070197D01*
X124385312Y-70056890D01*
X124392880Y-70044264D01*
X124401648Y-70032441D01*
X124411534Y-70021534D01*
X124422441Y-70011648D01*
X124434264Y-70002880D01*
X124446890Y-69995312D01*
X124460197Y-69989018D01*
X124474057Y-69984059D01*
X124488336Y-69980482D01*
X124502897Y-69978322D01*
X124517600Y-69977600D01*
X126167600Y-69977600D01*
X126182303Y-69978322D01*
G37*
G36*
X126182303Y-71248322D02*
G01*
X126196864Y-71250482D01*
X126211143Y-71254059D01*
X126225003Y-71259018D01*
X126238310Y-71265312D01*
X126250936Y-71272880D01*
X126262759Y-71281648D01*
X126273666Y-71291534D01*
X126283552Y-71302441D01*
X126292320Y-71314264D01*
X126299888Y-71326890D01*
X126306182Y-71340197D01*
X126311141Y-71354057D01*
X126314718Y-71368336D01*
X126316878Y-71382897D01*
X126317600Y-71397600D01*
X126317600Y-71697600D01*
X126316878Y-71712303D01*
X126314718Y-71726864D01*
X126311141Y-71741143D01*
X126306182Y-71755003D01*
X126299888Y-71768310D01*
X126292320Y-71780936D01*
X126283552Y-71792759D01*
X126273666Y-71803666D01*
X126262759Y-71813552D01*
X126250936Y-71822320D01*
X126238310Y-71829888D01*
X126225003Y-71836182D01*
X126211143Y-71841141D01*
X126196864Y-71844718D01*
X126182303Y-71846878D01*
X126167600Y-71847600D01*
X124517600Y-71847600D01*
X124502897Y-71846878D01*
X124488336Y-71844718D01*
X124474057Y-71841141D01*
X124460197Y-71836182D01*
X124446890Y-71829888D01*
X124434264Y-71822320D01*
X124422441Y-71813552D01*
X124411534Y-71803666D01*
X124401648Y-71792759D01*
X124392880Y-71780936D01*
X124385312Y-71768310D01*
X124379018Y-71755003D01*
X124374059Y-71741143D01*
X124370482Y-71726864D01*
X124368322Y-71712303D01*
X124367600Y-71697600D01*
X124367600Y-71397600D01*
X124368322Y-71382897D01*
X124370482Y-71368336D01*
X124374059Y-71354057D01*
X124379018Y-71340197D01*
X124385312Y-71326890D01*
X124392880Y-71314264D01*
X124401648Y-71302441D01*
X124411534Y-71291534D01*
X124422441Y-71281648D01*
X124434264Y-71272880D01*
X124446890Y-71265312D01*
X124460197Y-71259018D01*
X124474057Y-71254059D01*
X124488336Y-71250482D01*
X124502897Y-71248322D01*
X124517600Y-71247600D01*
X126167600Y-71247600D01*
X126182303Y-71248322D01*
G37*
G36*
X121232303Y-71248322D02*
G01*
X121246864Y-71250482D01*
X121261143Y-71254059D01*
X121275003Y-71259018D01*
X121288310Y-71265312D01*
X121300936Y-71272880D01*
X121312759Y-71281648D01*
X121323666Y-71291534D01*
X121333552Y-71302441D01*
X121342320Y-71314264D01*
X121349888Y-71326890D01*
X121356182Y-71340197D01*
X121361141Y-71354057D01*
X121364718Y-71368336D01*
X121366878Y-71382897D01*
X121367600Y-71397600D01*
X121367600Y-71697600D01*
X121366878Y-71712303D01*
X121364718Y-71726864D01*
X121361141Y-71741143D01*
X121356182Y-71755003D01*
X121349888Y-71768310D01*
X121342320Y-71780936D01*
X121333552Y-71792759D01*
X121323666Y-71803666D01*
X121312759Y-71813552D01*
X121300936Y-71822320D01*
X121288310Y-71829888D01*
X121275003Y-71836182D01*
X121261143Y-71841141D01*
X121246864Y-71844718D01*
X121232303Y-71846878D01*
X121217600Y-71847600D01*
X119567600Y-71847600D01*
X119552897Y-71846878D01*
X119538336Y-71844718D01*
X119524057Y-71841141D01*
X119510197Y-71836182D01*
X119496890Y-71829888D01*
X119484264Y-71822320D01*
X119472441Y-71813552D01*
X119461534Y-71803666D01*
X119451648Y-71792759D01*
X119442880Y-71780936D01*
X119435312Y-71768310D01*
X119429018Y-71755003D01*
X119424059Y-71741143D01*
X119420482Y-71726864D01*
X119418322Y-71712303D01*
X119417600Y-71697600D01*
X119417600Y-71397600D01*
X119418322Y-71382897D01*
X119420482Y-71368336D01*
X119424059Y-71354057D01*
X119429018Y-71340197D01*
X119435312Y-71326890D01*
X119442880Y-71314264D01*
X119451648Y-71302441D01*
X119461534Y-71291534D01*
X119472441Y-71281648D01*
X119484264Y-71272880D01*
X119496890Y-71265312D01*
X119510197Y-71259018D01*
X119524057Y-71254059D01*
X119538336Y-71250482D01*
X119552897Y-71248322D01*
X119567600Y-71247600D01*
X121217600Y-71247600D01*
X121232303Y-71248322D01*
G37*
G36*
X121232303Y-69978322D02*
G01*
X121246864Y-69980482D01*
X121261143Y-69984059D01*
X121275003Y-69989018D01*
X121288310Y-69995312D01*
X121300936Y-70002880D01*
X121312759Y-70011648D01*
X121323666Y-70021534D01*
X121333552Y-70032441D01*
X121342320Y-70044264D01*
X121349888Y-70056890D01*
X121356182Y-70070197D01*
X121361141Y-70084057D01*
X121364718Y-70098336D01*
X121366878Y-70112897D01*
X121367600Y-70127600D01*
X121367600Y-70427600D01*
X121366878Y-70442303D01*
X121364718Y-70456864D01*
X121361141Y-70471143D01*
X121356182Y-70485003D01*
X121349888Y-70498310D01*
X121342320Y-70510936D01*
X121333552Y-70522759D01*
X121323666Y-70533666D01*
X121312759Y-70543552D01*
X121300936Y-70552320D01*
X121288310Y-70559888D01*
X121275003Y-70566182D01*
X121261143Y-70571141D01*
X121246864Y-70574718D01*
X121232303Y-70576878D01*
X121217600Y-70577600D01*
X119567600Y-70577600D01*
X119552897Y-70576878D01*
X119538336Y-70574718D01*
X119524057Y-70571141D01*
X119510197Y-70566182D01*
X119496890Y-70559888D01*
X119484264Y-70552320D01*
X119472441Y-70543552D01*
X119461534Y-70533666D01*
X119451648Y-70522759D01*
X119442880Y-70510936D01*
X119435312Y-70498310D01*
X119429018Y-70485003D01*
X119424059Y-70471143D01*
X119420482Y-70456864D01*
X119418322Y-70442303D01*
X119417600Y-70427600D01*
X119417600Y-70127600D01*
X119418322Y-70112897D01*
X119420482Y-70098336D01*
X119424059Y-70084057D01*
X119429018Y-70070197D01*
X119435312Y-70056890D01*
X119442880Y-70044264D01*
X119451648Y-70032441D01*
X119461534Y-70021534D01*
X119472441Y-70011648D01*
X119484264Y-70002880D01*
X119496890Y-69995312D01*
X119510197Y-69989018D01*
X119524057Y-69984059D01*
X119538336Y-69980482D01*
X119552897Y-69978322D01*
X119567600Y-69977600D01*
X121217600Y-69977600D01*
X121232303Y-69978322D01*
G37*
G36*
X121232303Y-68708322D02*
G01*
X121246864Y-68710482D01*
X121261143Y-68714059D01*
X121275003Y-68719018D01*
X121288310Y-68725312D01*
X121300936Y-68732880D01*
X121312759Y-68741648D01*
X121323666Y-68751534D01*
X121333552Y-68762441D01*
X121342320Y-68774264D01*
X121349888Y-68786890D01*
X121356182Y-68800197D01*
X121361141Y-68814057D01*
X121364718Y-68828336D01*
X121366878Y-68842897D01*
X121367600Y-68857600D01*
X121367600Y-69157600D01*
X121366878Y-69172303D01*
X121364718Y-69186864D01*
X121361141Y-69201143D01*
X121356182Y-69215003D01*
X121349888Y-69228310D01*
X121342320Y-69240936D01*
X121333552Y-69252759D01*
X121323666Y-69263666D01*
X121312759Y-69273552D01*
X121300936Y-69282320D01*
X121288310Y-69289888D01*
X121275003Y-69296182D01*
X121261143Y-69301141D01*
X121246864Y-69304718D01*
X121232303Y-69306878D01*
X121217600Y-69307600D01*
X119567600Y-69307600D01*
X119552897Y-69306878D01*
X119538336Y-69304718D01*
X119524057Y-69301141D01*
X119510197Y-69296182D01*
X119496890Y-69289888D01*
X119484264Y-69282320D01*
X119472441Y-69273552D01*
X119461534Y-69263666D01*
X119451648Y-69252759D01*
X119442880Y-69240936D01*
X119435312Y-69228310D01*
X119429018Y-69215003D01*
X119424059Y-69201143D01*
X119420482Y-69186864D01*
X119418322Y-69172303D01*
X119417600Y-69157600D01*
X119417600Y-68857600D01*
X119418322Y-68842897D01*
X119420482Y-68828336D01*
X119424059Y-68814057D01*
X119429018Y-68800197D01*
X119435312Y-68786890D01*
X119442880Y-68774264D01*
X119451648Y-68762441D01*
X119461534Y-68751534D01*
X119472441Y-68741648D01*
X119484264Y-68732880D01*
X119496890Y-68725312D01*
X119510197Y-68719018D01*
X119524057Y-68714059D01*
X119538336Y-68710482D01*
X119552897Y-68708322D01*
X119567600Y-68707600D01*
X121217600Y-68707600D01*
X121232303Y-68708322D01*
G37*
G36*
X121232303Y-67438322D02*
G01*
X121246864Y-67440482D01*
X121261143Y-67444059D01*
X121275003Y-67449018D01*
X121288310Y-67455312D01*
X121300936Y-67462880D01*
X121312759Y-67471648D01*
X121323666Y-67481534D01*
X121333552Y-67492441D01*
X121342320Y-67504264D01*
X121349888Y-67516890D01*
X121356182Y-67530197D01*
X121361141Y-67544057D01*
X121364718Y-67558336D01*
X121366878Y-67572897D01*
X121367600Y-67587600D01*
X121367600Y-67887600D01*
X121366878Y-67902303D01*
X121364718Y-67916864D01*
X121361141Y-67931143D01*
X121356182Y-67945003D01*
X121349888Y-67958310D01*
X121342320Y-67970936D01*
X121333552Y-67982759D01*
X121323666Y-67993666D01*
X121312759Y-68003552D01*
X121300936Y-68012320D01*
X121288310Y-68019888D01*
X121275003Y-68026182D01*
X121261143Y-68031141D01*
X121246864Y-68034718D01*
X121232303Y-68036878D01*
X121217600Y-68037600D01*
X119567600Y-68037600D01*
X119552897Y-68036878D01*
X119538336Y-68034718D01*
X119524057Y-68031141D01*
X119510197Y-68026182D01*
X119496890Y-68019888D01*
X119484264Y-68012320D01*
X119472441Y-68003552D01*
X119461534Y-67993666D01*
X119451648Y-67982759D01*
X119442880Y-67970936D01*
X119435312Y-67958310D01*
X119429018Y-67945003D01*
X119424059Y-67931143D01*
X119420482Y-67916864D01*
X119418322Y-67902303D01*
X119417600Y-67887600D01*
X119417600Y-67587600D01*
X119418322Y-67572897D01*
X119420482Y-67558336D01*
X119424059Y-67544057D01*
X119429018Y-67530197D01*
X119435312Y-67516890D01*
X119442880Y-67504264D01*
X119451648Y-67492441D01*
X119461534Y-67481534D01*
X119472441Y-67471648D01*
X119484264Y-67462880D01*
X119496890Y-67455312D01*
X119510197Y-67449018D01*
X119524057Y-67444059D01*
X119538336Y-67440482D01*
X119552897Y-67438322D01*
X119567600Y-67437600D01*
X121217600Y-67437600D01*
X121232303Y-67438322D01*
G37*
G36*
X121232303Y-66168322D02*
G01*
X121246864Y-66170482D01*
X121261143Y-66174059D01*
X121275003Y-66179018D01*
X121288310Y-66185312D01*
X121300936Y-66192880D01*
X121312759Y-66201648D01*
X121323666Y-66211534D01*
X121333552Y-66222441D01*
X121342320Y-66234264D01*
X121349888Y-66246890D01*
X121356182Y-66260197D01*
X121361141Y-66274057D01*
X121364718Y-66288336D01*
X121366878Y-66302897D01*
X121367600Y-66317600D01*
X121367600Y-66617600D01*
X121366878Y-66632303D01*
X121364718Y-66646864D01*
X121361141Y-66661143D01*
X121356182Y-66675003D01*
X121349888Y-66688310D01*
X121342320Y-66700936D01*
X121333552Y-66712759D01*
X121323666Y-66723666D01*
X121312759Y-66733552D01*
X121300936Y-66742320D01*
X121288310Y-66749888D01*
X121275003Y-66756182D01*
X121261143Y-66761141D01*
X121246864Y-66764718D01*
X121232303Y-66766878D01*
X121217600Y-66767600D01*
X119567600Y-66767600D01*
X119552897Y-66766878D01*
X119538336Y-66764718D01*
X119524057Y-66761141D01*
X119510197Y-66756182D01*
X119496890Y-66749888D01*
X119484264Y-66742320D01*
X119472441Y-66733552D01*
X119461534Y-66723666D01*
X119451648Y-66712759D01*
X119442880Y-66700936D01*
X119435312Y-66688310D01*
X119429018Y-66675003D01*
X119424059Y-66661143D01*
X119420482Y-66646864D01*
X119418322Y-66632303D01*
X119417600Y-66617600D01*
X119417600Y-66317600D01*
X119418322Y-66302897D01*
X119420482Y-66288336D01*
X119424059Y-66274057D01*
X119429018Y-66260197D01*
X119435312Y-66246890D01*
X119442880Y-66234264D01*
X119451648Y-66222441D01*
X119461534Y-66211534D01*
X119472441Y-66201648D01*
X119484264Y-66192880D01*
X119496890Y-66185312D01*
X119510197Y-66179018D01*
X119524057Y-66174059D01*
X119538336Y-66170482D01*
X119552897Y-66168322D01*
X119567600Y-66167600D01*
X121217600Y-66167600D01*
X121232303Y-66168322D01*
G37*
G36*
X121232303Y-64898322D02*
G01*
X121246864Y-64900482D01*
X121261143Y-64904059D01*
X121275003Y-64909018D01*
X121288310Y-64915312D01*
X121300936Y-64922880D01*
X121312759Y-64931648D01*
X121323666Y-64941534D01*
X121333552Y-64952441D01*
X121342320Y-64964264D01*
X121349888Y-64976890D01*
X121356182Y-64990197D01*
X121361141Y-65004057D01*
X121364718Y-65018336D01*
X121366878Y-65032897D01*
X121367600Y-65047600D01*
X121367600Y-65347600D01*
X121366878Y-65362303D01*
X121364718Y-65376864D01*
X121361141Y-65391143D01*
X121356182Y-65405003D01*
X121349888Y-65418310D01*
X121342320Y-65430936D01*
X121333552Y-65442759D01*
X121323666Y-65453666D01*
X121312759Y-65463552D01*
X121300936Y-65472320D01*
X121288310Y-65479888D01*
X121275003Y-65486182D01*
X121261143Y-65491141D01*
X121246864Y-65494718D01*
X121232303Y-65496878D01*
X121217600Y-65497600D01*
X119567600Y-65497600D01*
X119552897Y-65496878D01*
X119538336Y-65494718D01*
X119524057Y-65491141D01*
X119510197Y-65486182D01*
X119496890Y-65479888D01*
X119484264Y-65472320D01*
X119472441Y-65463552D01*
X119461534Y-65453666D01*
X119451648Y-65442759D01*
X119442880Y-65430936D01*
X119435312Y-65418310D01*
X119429018Y-65405003D01*
X119424059Y-65391143D01*
X119420482Y-65376864D01*
X119418322Y-65362303D01*
X119417600Y-65347600D01*
X119417600Y-65047600D01*
X119418322Y-65032897D01*
X119420482Y-65018336D01*
X119424059Y-65004057D01*
X119429018Y-64990197D01*
X119435312Y-64976890D01*
X119442880Y-64964264D01*
X119451648Y-64952441D01*
X119461534Y-64941534D01*
X119472441Y-64931648D01*
X119484264Y-64922880D01*
X119496890Y-64915312D01*
X119510197Y-64909018D01*
X119524057Y-64904059D01*
X119538336Y-64900482D01*
X119552897Y-64898322D01*
X119567600Y-64897600D01*
X121217600Y-64897600D01*
X121232303Y-64898322D01*
G37*
G36*
X121232303Y-63628322D02*
G01*
X121246864Y-63630482D01*
X121261143Y-63634059D01*
X121275003Y-63639018D01*
X121288310Y-63645312D01*
X121300936Y-63652880D01*
X121312759Y-63661648D01*
X121323666Y-63671534D01*
X121333552Y-63682441D01*
X121342320Y-63694264D01*
X121349888Y-63706890D01*
X121356182Y-63720197D01*
X121361141Y-63734057D01*
X121364718Y-63748336D01*
X121366878Y-63762897D01*
X121367600Y-63777600D01*
X121367600Y-64077600D01*
X121366878Y-64092303D01*
X121364718Y-64106864D01*
X121361141Y-64121143D01*
X121356182Y-64135003D01*
X121349888Y-64148310D01*
X121342320Y-64160936D01*
X121333552Y-64172759D01*
X121323666Y-64183666D01*
X121312759Y-64193552D01*
X121300936Y-64202320D01*
X121288310Y-64209888D01*
X121275003Y-64216182D01*
X121261143Y-64221141D01*
X121246864Y-64224718D01*
X121232303Y-64226878D01*
X121217600Y-64227600D01*
X119567600Y-64227600D01*
X119552897Y-64226878D01*
X119538336Y-64224718D01*
X119524057Y-64221141D01*
X119510197Y-64216182D01*
X119496890Y-64209888D01*
X119484264Y-64202320D01*
X119472441Y-64193552D01*
X119461534Y-64183666D01*
X119451648Y-64172759D01*
X119442880Y-64160936D01*
X119435312Y-64148310D01*
X119429018Y-64135003D01*
X119424059Y-64121143D01*
X119420482Y-64106864D01*
X119418322Y-64092303D01*
X119417600Y-64077600D01*
X119417600Y-63777600D01*
X119418322Y-63762897D01*
X119420482Y-63748336D01*
X119424059Y-63734057D01*
X119429018Y-63720197D01*
X119435312Y-63706890D01*
X119442880Y-63694264D01*
X119451648Y-63682441D01*
X119461534Y-63671534D01*
X119472441Y-63661648D01*
X119484264Y-63652880D01*
X119496890Y-63645312D01*
X119510197Y-63639018D01*
X119524057Y-63634059D01*
X119538336Y-63630482D01*
X119552897Y-63628322D01*
X119567600Y-63627600D01*
X121217600Y-63627600D01*
X121232303Y-63628322D01*
G37*
D13*
X117487600Y-59742600D03*
X121187600Y-59742600D03*
D12*
X104142600Y-95787600D03*
X106042600Y-95787600D03*
X105092600Y-93787600D03*
M02*
