G04 #@! TF.GenerationSoftware,KiCad,Pcbnew,(5.1.5)-3*
G04 #@! TF.CreationDate,2021-02-25T14:23:21+00:00*
G04 #@! TF.ProjectId,ModuleV440,4d6f6475-6c65-4563-9434-302e6b696361,rev?*
G04 #@! TF.SameCoordinates,Original*
G04 #@! TF.FileFunction,Profile,NP*
%FSLAX46Y46*%
G04 Gerber Fmt 4.6, Leading zero omitted, Abs format (unit mm)*
G04 Created by KiCad (PCBNEW (5.1.5)-3) date 2021-02-25 14:23:21*
%MOMM*%
%LPD*%
G04 APERTURE LIST*
%ADD10C,0.150000*%
%ADD11C,0.100000*%
G04 APERTURE END LIST*
D10*
X104147600Y-100407600D02*
X103417600Y-100407600D01*
X104147600Y-99797600D02*
X103437600Y-99797600D01*
X104147600Y-100407600D02*
X104147600Y-99797600D01*
X101917600Y-107837600D02*
X101917600Y-101907600D01*
X103437600Y-99797600D02*
G75*
G02X101937600Y-98297600I0J1500000D01*
G01*
X101917600Y-101907600D02*
G75*
G02X103417600Y-100407600I1500000J0D01*
G01*
X110687600Y-109327600D02*
X103417600Y-109337600D01*
X112187600Y-107827600D02*
G75*
G02X110687600Y-109327600I-1500000J0D01*
G01*
X114297600Y-109347600D02*
G75*
G02X112797600Y-107847600I0J1500000D01*
G01*
X112797600Y-99757600D02*
X112797600Y-107847600D01*
X112187600Y-107827600D02*
X112187600Y-99757600D01*
X112187600Y-99757600D02*
X112797600Y-99757600D01*
X101937600Y-98297600D02*
X101917600Y-49487600D01*
X103584266Y-109337600D02*
G75*
G03X103584266Y-109337600I-1666666J0D01*
G01*
X99417600Y-109337600D02*
X104417600Y-109337600D01*
X101917600Y-106837600D02*
X101917600Y-111837600D01*
D11*
X122577600Y-73597600D02*
X122597600Y-74197600D01*
X122597600Y-74197600D02*
X116797600Y-74197600D01*
X103697600Y-73597600D02*
X122577600Y-73597600D01*
X103697600Y-74197600D02*
X103697600Y-73597600D01*
X116797600Y-74197600D02*
X103697600Y-74197600D01*
D10*
X131917600Y-107837600D02*
G75*
G02X130417600Y-109337600I-1500000J0D01*
G01*
X103417600Y-109337600D02*
G75*
G02X101917600Y-107837600I0J1500000D01*
G01*
X101917600Y-49487600D02*
G75*
G02X103417600Y-47987600I1500000J0D01*
G01*
X130442600Y-47987600D02*
G75*
G02X131942600Y-49487600I0J-1500000D01*
G01*
X130417600Y-109337600D02*
X114297600Y-109347600D01*
X131942600Y-49487600D02*
X131917600Y-107837600D01*
X103417600Y-47987600D02*
X130442600Y-47987600D01*
M02*
