M48
; DRILL file {KiCad 5.1.9+dfsg1-1+deb11u1} date Tue Dec 19 10:52:22 2023
; FORMAT={-:-/ absolute / inch / decimal}
; #@! TF.CreationDate,2023-12-19T10:52:22+00:00
; #@! TF.GenerationSoftware,Kicad,Pcbnew,5.1.9+dfsg1-1+deb11u1
FMAT,2
INCH
T1C0.0157
T2C0.0394
%
G90
G05
T1
X8.1339Y-4.2598
X8.1339Y-4.2992
X8.1772Y-4.2598
X8.1772Y-4.2992
X8.2362Y-3.9035
X8.2737Y-4.003
X8.2756Y-3.9035
X8.3055Y-4.148
X8.315Y-3.9035
X8.3248Y-4.1051
X8.3622Y-4.1051
X8.4142Y-3.9705
X8.4646Y-4.022
X8.4988Y-4.2807
X8.5594Y-4.3173
X8.5736Y-4.1319
X8.5736Y-4.1713
T2
X8.1024Y-3.8693
X8.1024Y-3.9693
X8.1024Y-4.0693
X8.1024Y-4.1693
X8.1024Y-4.437
X8.2024Y-4.437
X8.3024Y-4.437
X8.4024Y-4.437
X8.5024Y-4.437
X8.6024Y-4.437
X8.7024Y-4.437
T0
M30
