G04 #@! TF.GenerationSoftware,KiCad,Pcbnew,5.1.9+dfsg1-1+deb11u1*
G04 #@! TF.CreationDate,2023-03-01T09:08:49+00:00*
G04 #@! TF.ProjectId,ControllerCurrentShuntAddOn,436f6e74-726f-46c6-9c65-724375727265,rev?*
G04 #@! TF.SameCoordinates,Original*
G04 #@! TF.FileFunction,Copper,L1,Top*
G04 #@! TF.FilePolarity,Positive*
%FSLAX46Y46*%
G04 Gerber Fmt 4.6, Leading zero omitted, Abs format (unit mm)*
G04 Created by KiCad (PCBNEW 5.1.9+dfsg1-1+deb11u1) date 2023-03-01 09:08:49*
%MOMM*%
%LPD*%
G01*
G04 APERTURE LIST*
G04 #@! TA.AperFunction,SMDPad,CuDef*
%ADD10C,4.000000*%
G04 #@! TD*
G04 #@! TA.AperFunction,ViaPad*
%ADD11C,0.800000*%
G04 #@! TD*
G04 #@! TA.AperFunction,Conductor*
%ADD12C,0.250000*%
G04 #@! TD*
G04 #@! TA.AperFunction,Conductor*
%ADD13C,0.500000*%
G04 #@! TD*
G04 #@! TA.AperFunction,Conductor*
%ADD14C,1.000000*%
G04 #@! TD*
G04 #@! TA.AperFunction,Conductor*
%ADD15C,0.300000*%
G04 #@! TD*
G04 #@! TA.AperFunction,Conductor*
%ADD16C,0.254000*%
G04 #@! TD*
G04 #@! TA.AperFunction,Conductor*
%ADD17C,0.100000*%
G04 #@! TD*
G04 APERTURE END LIST*
G04 #@! TA.AperFunction,ComponentPad*
G36*
G01*
X208300000Y-97855000D02*
X208300000Y-98705000D01*
G75*
G02*
X207875000Y-99130000I-425000J0D01*
G01*
X205225000Y-99130000D01*
G75*
G02*
X204800000Y-98705000I0J425000D01*
G01*
X204800000Y-97855000D01*
G75*
G02*
X205225000Y-97430000I425000J0D01*
G01*
X207875000Y-97430000D01*
G75*
G02*
X208300000Y-97855000I0J-425000D01*
G01*
G37*
G04 #@! TD.AperFunction*
G04 #@! TA.AperFunction,ComponentPad*
G36*
G01*
X208300000Y-100395000D02*
X208300000Y-101245000D01*
G75*
G02*
X207875000Y-101670000I-425000J0D01*
G01*
X205225000Y-101670000D01*
G75*
G02*
X204800000Y-101245000I0J425000D01*
G01*
X204800000Y-100395000D01*
G75*
G02*
X205225000Y-99970000I425000J0D01*
G01*
X207875000Y-99970000D01*
G75*
G02*
X208300000Y-100395000I0J-425000D01*
G01*
G37*
G04 #@! TD.AperFunction*
G04 #@! TA.AperFunction,ComponentPad*
G36*
G01*
X208300000Y-102935000D02*
X208300000Y-103785000D01*
G75*
G02*
X207875000Y-104210000I-425000J0D01*
G01*
X205225000Y-104210000D01*
G75*
G02*
X204800000Y-103785000I0J425000D01*
G01*
X204800000Y-102935000D01*
G75*
G02*
X205225000Y-102510000I425000J0D01*
G01*
X207875000Y-102510000D01*
G75*
G02*
X208300000Y-102935000I0J-425000D01*
G01*
G37*
G04 #@! TD.AperFunction*
G04 #@! TA.AperFunction,ComponentPad*
G36*
G01*
X208300000Y-105475000D02*
X208300000Y-106325000D01*
G75*
G02*
X207875000Y-106750000I-425000J0D01*
G01*
X205225000Y-106750000D01*
G75*
G02*
X204800000Y-106325000I0J425000D01*
G01*
X204800000Y-105475000D01*
G75*
G02*
X205225000Y-105050000I425000J0D01*
G01*
X207875000Y-105050000D01*
G75*
G02*
X208300000Y-105475000I0J-425000D01*
G01*
G37*
G04 #@! TD.AperFunction*
G04 #@! TA.AperFunction,ComponentPad*
G36*
G01*
X221465000Y-113700000D02*
X220615000Y-113700000D01*
G75*
G02*
X220190000Y-113275000I0J425000D01*
G01*
X220190000Y-110625000D01*
G75*
G02*
X220615000Y-110200000I425000J0D01*
G01*
X221465000Y-110200000D01*
G75*
G02*
X221890000Y-110625000I0J-425000D01*
G01*
X221890000Y-113275000D01*
G75*
G02*
X221465000Y-113700000I-425000J0D01*
G01*
G37*
G04 #@! TD.AperFunction*
G04 #@! TA.AperFunction,ComponentPad*
G36*
G01*
X218925000Y-113700000D02*
X218075000Y-113700000D01*
G75*
G02*
X217650000Y-113275000I0J425000D01*
G01*
X217650000Y-110625000D01*
G75*
G02*
X218075000Y-110200000I425000J0D01*
G01*
X218925000Y-110200000D01*
G75*
G02*
X219350000Y-110625000I0J-425000D01*
G01*
X219350000Y-113275000D01*
G75*
G02*
X218925000Y-113700000I-425000J0D01*
G01*
G37*
G04 #@! TD.AperFunction*
G04 #@! TA.AperFunction,ComponentPad*
G36*
G01*
X216385000Y-113700000D02*
X215535000Y-113700000D01*
G75*
G02*
X215110000Y-113275000I0J425000D01*
G01*
X215110000Y-110625000D01*
G75*
G02*
X215535000Y-110200000I425000J0D01*
G01*
X216385000Y-110200000D01*
G75*
G02*
X216810000Y-110625000I0J-425000D01*
G01*
X216810000Y-113275000D01*
G75*
G02*
X216385000Y-113700000I-425000J0D01*
G01*
G37*
G04 #@! TD.AperFunction*
G04 #@! TA.AperFunction,ComponentPad*
G36*
G01*
X213845000Y-113700000D02*
X212995000Y-113700000D01*
G75*
G02*
X212570000Y-113275000I0J425000D01*
G01*
X212570000Y-110625000D01*
G75*
G02*
X212995000Y-110200000I425000J0D01*
G01*
X213845000Y-110200000D01*
G75*
G02*
X214270000Y-110625000I0J-425000D01*
G01*
X214270000Y-113275000D01*
G75*
G02*
X213845000Y-113700000I-425000J0D01*
G01*
G37*
G04 #@! TD.AperFunction*
G04 #@! TA.AperFunction,ComponentPad*
G36*
G01*
X211305000Y-113700000D02*
X210455000Y-113700000D01*
G75*
G02*
X210030000Y-113275000I0J425000D01*
G01*
X210030000Y-110625000D01*
G75*
G02*
X210455000Y-110200000I425000J0D01*
G01*
X211305000Y-110200000D01*
G75*
G02*
X211730000Y-110625000I0J-425000D01*
G01*
X211730000Y-113275000D01*
G75*
G02*
X211305000Y-113700000I-425000J0D01*
G01*
G37*
G04 #@! TD.AperFunction*
G04 #@! TA.AperFunction,ComponentPad*
G36*
G01*
X208765000Y-113700000D02*
X207915000Y-113700000D01*
G75*
G02*
X207490000Y-113275000I0J425000D01*
G01*
X207490000Y-110625000D01*
G75*
G02*
X207915000Y-110200000I425000J0D01*
G01*
X208765000Y-110200000D01*
G75*
G02*
X209190000Y-110625000I0J-425000D01*
G01*
X209190000Y-113275000D01*
G75*
G02*
X208765000Y-113700000I-425000J0D01*
G01*
G37*
G04 #@! TD.AperFunction*
G04 #@! TA.AperFunction,ComponentPad*
G36*
G01*
X206225000Y-113700000D02*
X205375000Y-113700000D01*
G75*
G02*
X204950000Y-113275000I0J425000D01*
G01*
X204950000Y-110625000D01*
G75*
G02*
X205375000Y-110200000I425000J0D01*
G01*
X206225000Y-110200000D01*
G75*
G02*
X206650000Y-110625000I0J-425000D01*
G01*
X206650000Y-113275000D01*
G75*
G02*
X206225000Y-113700000I-425000J0D01*
G01*
G37*
G04 #@! TD.AperFunction*
G04 #@! TA.AperFunction,SMDPad,CuDef*
G36*
G01*
X211600000Y-106249999D02*
X211600000Y-107150001D01*
G75*
G02*
X211350001Y-107400000I-249999J0D01*
G01*
X210824999Y-107400000D01*
G75*
G02*
X210575000Y-107150001I0J249999D01*
G01*
X210575000Y-106249999D01*
G75*
G02*
X210824999Y-106000000I249999J0D01*
G01*
X211350001Y-106000000D01*
G75*
G02*
X211600000Y-106249999I0J-249999D01*
G01*
G37*
G04 #@! TD.AperFunction*
G04 #@! TA.AperFunction,SMDPad,CuDef*
G36*
G01*
X213425000Y-106249999D02*
X213425000Y-107150001D01*
G75*
G02*
X213175001Y-107400000I-249999J0D01*
G01*
X212649999Y-107400000D01*
G75*
G02*
X212400000Y-107150001I0J249999D01*
G01*
X212400000Y-106249999D01*
G75*
G02*
X212649999Y-106000000I249999J0D01*
G01*
X213175001Y-106000000D01*
G75*
G02*
X213425000Y-106249999I0J-249999D01*
G01*
G37*
G04 #@! TD.AperFunction*
G04 #@! TA.AperFunction,SMDPad,CuDef*
G36*
G01*
X215975000Y-100975000D02*
X215975000Y-100825000D01*
G75*
G02*
X216050000Y-100750000I75000J0D01*
G01*
X217350000Y-100750000D01*
G75*
G02*
X217425000Y-100825000I0J-75000D01*
G01*
X217425000Y-100975000D01*
G75*
G02*
X217350000Y-101050000I-75000J0D01*
G01*
X216050000Y-101050000D01*
G75*
G02*
X215975000Y-100975000I0J75000D01*
G01*
G37*
G04 #@! TD.AperFunction*
G04 #@! TA.AperFunction,SMDPad,CuDef*
G36*
G01*
X215975000Y-101475000D02*
X215975000Y-101325000D01*
G75*
G02*
X216050000Y-101250000I75000J0D01*
G01*
X217350000Y-101250000D01*
G75*
G02*
X217425000Y-101325000I0J-75000D01*
G01*
X217425000Y-101475000D01*
G75*
G02*
X217350000Y-101550000I-75000J0D01*
G01*
X216050000Y-101550000D01*
G75*
G02*
X215975000Y-101475000I0J75000D01*
G01*
G37*
G04 #@! TD.AperFunction*
G04 #@! TA.AperFunction,SMDPad,CuDef*
G36*
G01*
X215975000Y-101975000D02*
X215975000Y-101825000D01*
G75*
G02*
X216050000Y-101750000I75000J0D01*
G01*
X217350000Y-101750000D01*
G75*
G02*
X217425000Y-101825000I0J-75000D01*
G01*
X217425000Y-101975000D01*
G75*
G02*
X217350000Y-102050000I-75000J0D01*
G01*
X216050000Y-102050000D01*
G75*
G02*
X215975000Y-101975000I0J75000D01*
G01*
G37*
G04 #@! TD.AperFunction*
G04 #@! TA.AperFunction,SMDPad,CuDef*
G36*
G01*
X215975000Y-102475000D02*
X215975000Y-102325000D01*
G75*
G02*
X216050000Y-102250000I75000J0D01*
G01*
X217350000Y-102250000D01*
G75*
G02*
X217425000Y-102325000I0J-75000D01*
G01*
X217425000Y-102475000D01*
G75*
G02*
X217350000Y-102550000I-75000J0D01*
G01*
X216050000Y-102550000D01*
G75*
G02*
X215975000Y-102475000I0J75000D01*
G01*
G37*
G04 #@! TD.AperFunction*
G04 #@! TA.AperFunction,SMDPad,CuDef*
G36*
G01*
X215975000Y-102975000D02*
X215975000Y-102825000D01*
G75*
G02*
X216050000Y-102750000I75000J0D01*
G01*
X217350000Y-102750000D01*
G75*
G02*
X217425000Y-102825000I0J-75000D01*
G01*
X217425000Y-102975000D01*
G75*
G02*
X217350000Y-103050000I-75000J0D01*
G01*
X216050000Y-103050000D01*
G75*
G02*
X215975000Y-102975000I0J75000D01*
G01*
G37*
G04 #@! TD.AperFunction*
G04 #@! TA.AperFunction,SMDPad,CuDef*
G36*
G01*
X211575000Y-102975000D02*
X211575000Y-102825000D01*
G75*
G02*
X211650000Y-102750000I75000J0D01*
G01*
X212950000Y-102750000D01*
G75*
G02*
X213025000Y-102825000I0J-75000D01*
G01*
X213025000Y-102975000D01*
G75*
G02*
X212950000Y-103050000I-75000J0D01*
G01*
X211650000Y-103050000D01*
G75*
G02*
X211575000Y-102975000I0J75000D01*
G01*
G37*
G04 #@! TD.AperFunction*
G04 #@! TA.AperFunction,SMDPad,CuDef*
G36*
G01*
X211575000Y-102475000D02*
X211575000Y-102325000D01*
G75*
G02*
X211650000Y-102250000I75000J0D01*
G01*
X212950000Y-102250000D01*
G75*
G02*
X213025000Y-102325000I0J-75000D01*
G01*
X213025000Y-102475000D01*
G75*
G02*
X212950000Y-102550000I-75000J0D01*
G01*
X211650000Y-102550000D01*
G75*
G02*
X211575000Y-102475000I0J75000D01*
G01*
G37*
G04 #@! TD.AperFunction*
G04 #@! TA.AperFunction,SMDPad,CuDef*
G36*
G01*
X211575000Y-101975000D02*
X211575000Y-101825000D01*
G75*
G02*
X211650000Y-101750000I75000J0D01*
G01*
X212950000Y-101750000D01*
G75*
G02*
X213025000Y-101825000I0J-75000D01*
G01*
X213025000Y-101975000D01*
G75*
G02*
X212950000Y-102050000I-75000J0D01*
G01*
X211650000Y-102050000D01*
G75*
G02*
X211575000Y-101975000I0J75000D01*
G01*
G37*
G04 #@! TD.AperFunction*
G04 #@! TA.AperFunction,SMDPad,CuDef*
G36*
G01*
X211575000Y-101475000D02*
X211575000Y-101325000D01*
G75*
G02*
X211650000Y-101250000I75000J0D01*
G01*
X212950000Y-101250000D01*
G75*
G02*
X213025000Y-101325000I0J-75000D01*
G01*
X213025000Y-101475000D01*
G75*
G02*
X212950000Y-101550000I-75000J0D01*
G01*
X211650000Y-101550000D01*
G75*
G02*
X211575000Y-101475000I0J75000D01*
G01*
G37*
G04 #@! TD.AperFunction*
G04 #@! TA.AperFunction,SMDPad,CuDef*
G36*
G01*
X211575000Y-100975000D02*
X211575000Y-100825000D01*
G75*
G02*
X211650000Y-100750000I75000J0D01*
G01*
X212950000Y-100750000D01*
G75*
G02*
X213025000Y-100825000I0J-75000D01*
G01*
X213025000Y-100975000D01*
G75*
G02*
X212950000Y-101050000I-75000J0D01*
G01*
X211650000Y-101050000D01*
G75*
G02*
X211575000Y-100975000I0J75000D01*
G01*
G37*
G04 #@! TD.AperFunction*
G04 #@! TA.AperFunction,SMDPad,CuDef*
G36*
G01*
X219849999Y-107000000D02*
X220750001Y-107000000D01*
G75*
G02*
X221000000Y-107249999I0J-249999D01*
G01*
X221000000Y-107775001D01*
G75*
G02*
X220750001Y-108025000I-249999J0D01*
G01*
X219849999Y-108025000D01*
G75*
G02*
X219600000Y-107775001I0J249999D01*
G01*
X219600000Y-107249999D01*
G75*
G02*
X219849999Y-107000000I249999J0D01*
G01*
G37*
G04 #@! TD.AperFunction*
G04 #@! TA.AperFunction,SMDPad,CuDef*
G36*
G01*
X219849999Y-105175000D02*
X220750001Y-105175000D01*
G75*
G02*
X221000000Y-105424999I0J-249999D01*
G01*
X221000000Y-105950001D01*
G75*
G02*
X220750001Y-106200000I-249999J0D01*
G01*
X219849999Y-106200000D01*
G75*
G02*
X219600000Y-105950001I0J249999D01*
G01*
X219600000Y-105424999D01*
G75*
G02*
X219849999Y-105175000I249999J0D01*
G01*
G37*
G04 #@! TD.AperFunction*
G04 #@! TA.AperFunction,SMDPad,CuDef*
G36*
G01*
X220750001Y-99050000D02*
X219849999Y-99050000D01*
G75*
G02*
X219600000Y-98800001I0J249999D01*
G01*
X219600000Y-98274999D01*
G75*
G02*
X219849999Y-98025000I249999J0D01*
G01*
X220750001Y-98025000D01*
G75*
G02*
X221000000Y-98274999I0J-249999D01*
G01*
X221000000Y-98800001D01*
G75*
G02*
X220750001Y-99050000I-249999J0D01*
G01*
G37*
G04 #@! TD.AperFunction*
G04 #@! TA.AperFunction,SMDPad,CuDef*
G36*
G01*
X220750001Y-100875000D02*
X219849999Y-100875000D01*
G75*
G02*
X219600000Y-100625001I0J249999D01*
G01*
X219600000Y-100099999D01*
G75*
G02*
X219849999Y-99850000I249999J0D01*
G01*
X220750001Y-99850000D01*
G75*
G02*
X221000000Y-100099999I0J-249999D01*
G01*
X221000000Y-100625001D01*
G75*
G02*
X220750001Y-100875000I-249999J0D01*
G01*
G37*
G04 #@! TD.AperFunction*
D10*
X227650000Y-109800000D03*
X227650000Y-104300000D03*
X227650000Y-98300000D03*
G04 #@! TA.AperFunction,SMDPad,CuDef*
G36*
G01*
X215950000Y-107175000D02*
X215950000Y-106225000D01*
G75*
G02*
X216200000Y-105975000I250000J0D01*
G01*
X216700000Y-105975000D01*
G75*
G02*
X216950000Y-106225000I0J-250000D01*
G01*
X216950000Y-107175000D01*
G75*
G02*
X216700000Y-107425000I-250000J0D01*
G01*
X216200000Y-107425000D01*
G75*
G02*
X215950000Y-107175000I0J250000D01*
G01*
G37*
G04 #@! TD.AperFunction*
G04 #@! TA.AperFunction,SMDPad,CuDef*
G36*
G01*
X214050000Y-107175000D02*
X214050000Y-106225000D01*
G75*
G02*
X214300000Y-105975000I250000J0D01*
G01*
X214800000Y-105975000D01*
G75*
G02*
X215050000Y-106225000I0J-250000D01*
G01*
X215050000Y-107175000D01*
G75*
G02*
X214800000Y-107425000I-250000J0D01*
G01*
X214300000Y-107425000D01*
G75*
G02*
X214050000Y-107175000I0J250000D01*
G01*
G37*
G04 #@! TD.AperFunction*
G04 #@! TA.AperFunction,SMDPad,CuDef*
G36*
G01*
X215950000Y-105175000D02*
X215950000Y-104225000D01*
G75*
G02*
X216200000Y-103975000I250000J0D01*
G01*
X216700000Y-103975000D01*
G75*
G02*
X216950000Y-104225000I0J-250000D01*
G01*
X216950000Y-105175000D01*
G75*
G02*
X216700000Y-105425000I-250000J0D01*
G01*
X216200000Y-105425000D01*
G75*
G02*
X215950000Y-105175000I0J250000D01*
G01*
G37*
G04 #@! TD.AperFunction*
G04 #@! TA.AperFunction,SMDPad,CuDef*
G36*
G01*
X214050000Y-105175000D02*
X214050000Y-104225000D01*
G75*
G02*
X214300000Y-103975000I250000J0D01*
G01*
X214800000Y-103975000D01*
G75*
G02*
X215050000Y-104225000I0J-250000D01*
G01*
X215050000Y-105175000D01*
G75*
G02*
X214800000Y-105425000I-250000J0D01*
G01*
X214300000Y-105425000D01*
G75*
G02*
X214050000Y-105175000I0J250000D01*
G01*
G37*
G04 #@! TD.AperFunction*
G04 #@! TA.AperFunction,SMDPad,CuDef*
G36*
G01*
X219855000Y-103500000D02*
X220805000Y-103500000D01*
G75*
G02*
X221055000Y-103750000I0J-250000D01*
G01*
X221055000Y-104250000D01*
G75*
G02*
X220805000Y-104500000I-250000J0D01*
G01*
X219855000Y-104500000D01*
G75*
G02*
X219605000Y-104250000I0J250000D01*
G01*
X219605000Y-103750000D01*
G75*
G02*
X219855000Y-103500000I250000J0D01*
G01*
G37*
G04 #@! TD.AperFunction*
G04 #@! TA.AperFunction,SMDPad,CuDef*
G36*
G01*
X219855000Y-101600000D02*
X220805000Y-101600000D01*
G75*
G02*
X221055000Y-101850000I0J-250000D01*
G01*
X221055000Y-102350000D01*
G75*
G02*
X220805000Y-102600000I-250000J0D01*
G01*
X219855000Y-102600000D01*
G75*
G02*
X219605000Y-102350000I0J250000D01*
G01*
X219605000Y-101850000D01*
G75*
G02*
X219855000Y-101600000I250000J0D01*
G01*
G37*
G04 #@! TD.AperFunction*
D11*
X206600000Y-109200000D03*
X207700000Y-109200000D03*
X207700000Y-108200000D03*
X206600000Y-108200000D03*
X217770000Y-105950000D03*
X212400000Y-104270000D03*
X211450000Y-104270000D03*
X209200000Y-99150000D03*
X210200000Y-99150000D03*
X211200000Y-99150000D03*
X217770000Y-104950000D03*
X215000000Y-102160000D03*
X210152512Y-101674990D03*
X217410000Y-109660000D03*
X210960000Y-105360000D03*
X213720000Y-100850000D03*
X215870000Y-108730000D03*
D12*
X216450000Y-106700000D02*
X216450000Y-104700000D01*
X205800000Y-110700000D02*
X205800000Y-112349990D01*
X216700000Y-102400000D02*
X215240000Y-102400000D01*
X215240000Y-102400000D02*
X215000000Y-102160000D01*
X216700000Y-102400000D02*
X217718234Y-102400000D01*
X217718234Y-102400000D02*
X217900000Y-102581766D01*
X217900000Y-102581766D02*
X217900000Y-103250000D01*
X217900000Y-103250000D02*
X216450000Y-104700000D01*
X212300000Y-101900000D02*
X210377522Y-101900000D01*
X210377522Y-101900000D02*
X210152512Y-101674990D01*
D13*
X218500000Y-110750000D02*
X217410000Y-109660000D01*
D12*
X211087500Y-106700000D02*
X211087500Y-105487500D01*
X211087500Y-105487500D02*
X210960000Y-105360000D01*
D13*
X213670000Y-100900000D02*
X213720000Y-100850000D01*
D12*
X212300000Y-100900000D02*
X213670000Y-100900000D01*
X215895044Y-111025044D02*
X215900000Y-111030000D01*
D13*
X215895044Y-111025044D02*
X215895044Y-108755044D01*
X215895044Y-108755044D02*
X215870000Y-108730000D01*
D12*
X214550000Y-104700000D02*
X214550000Y-106700000D01*
X215400000Y-102900000D02*
X216700000Y-102900000D01*
X214550000Y-103750000D02*
X215400000Y-102900000D01*
X214550000Y-104700000D02*
X214550000Y-103750000D01*
X212912500Y-106700000D02*
X214550000Y-106700000D01*
D13*
X214550000Y-106700000D02*
X215729999Y-107879999D01*
X215729999Y-107879999D02*
X217679999Y-107879999D01*
X217679999Y-107879999D02*
X220689990Y-110889990D01*
X220689990Y-110889990D02*
X220689990Y-111789990D01*
D12*
X212180000Y-103020000D02*
X212300000Y-102900000D01*
X210920000Y-103020000D02*
X212180000Y-103020000D01*
D13*
X208140000Y-105800000D02*
X207520000Y-105800000D01*
X210920000Y-103020000D02*
X208140000Y-105800000D01*
D12*
X206320019Y-103189991D02*
X206150010Y-103360000D01*
X212300000Y-102400000D02*
X209620000Y-102400000D01*
D13*
X208670000Y-103350000D02*
X207340000Y-103350000D01*
X209620000Y-102400000D02*
X208670000Y-103350000D01*
D12*
X211370000Y-101400000D02*
X210790000Y-100820000D01*
X212300000Y-101400000D02*
X211370000Y-101400000D01*
D13*
X207370000Y-100820000D02*
X207360000Y-100810000D01*
X210790000Y-100820000D02*
X207370000Y-100820000D01*
D14*
X220300000Y-104030000D02*
X220330000Y-104000000D01*
X220300000Y-105687500D02*
X220300000Y-104030000D01*
D12*
X220200000Y-104000000D02*
X220330000Y-104000000D01*
X218760000Y-101400000D02*
X216700000Y-101400000D01*
X219100000Y-102770000D02*
X219100000Y-101740000D01*
X219100000Y-101740000D02*
X218760000Y-101400000D01*
X220330000Y-104000000D02*
X219100000Y-102770000D01*
D14*
X220300000Y-102070000D02*
X220330000Y-102100000D01*
X220300000Y-100362500D02*
X220300000Y-102070000D01*
D12*
X220292500Y-100370000D02*
X220300000Y-100362500D01*
X217230000Y-100370000D02*
X220292500Y-100370000D01*
X216700000Y-100900000D02*
X217230000Y-100370000D01*
D14*
X220312500Y-98550000D02*
X220300000Y-98537500D01*
X227400000Y-98550000D02*
X220312500Y-98550000D01*
X227650000Y-98300000D02*
X227400000Y-98550000D01*
X225500000Y-106450000D02*
X227650000Y-104300000D01*
X222150000Y-106450000D02*
X225500000Y-106450000D01*
X221087500Y-107512500D02*
X222150000Y-106450000D01*
X220300000Y-107512500D02*
X221087500Y-107512500D01*
D15*
X227650000Y-109800000D02*
X226700000Y-108850000D01*
D13*
X226700000Y-108850000D02*
X220510000Y-108850000D01*
D12*
X220440000Y-108780000D02*
X220510000Y-108850000D01*
X219860000Y-108780000D02*
X220440000Y-108780000D01*
D15*
X218624989Y-102634989D02*
X217890000Y-101900000D01*
X217890000Y-101900000D02*
X216700000Y-101900000D01*
X219860000Y-108780000D02*
X218624989Y-107544989D01*
X218624989Y-107544989D02*
X218624989Y-102634989D01*
D16*
X209925000Y-105461939D02*
X209964774Y-105661898D01*
X210040065Y-105843665D01*
X210004528Y-105910149D01*
X209953992Y-106076745D01*
X209936928Y-106249999D01*
X209936928Y-107150001D01*
X209953992Y-107323255D01*
X210004528Y-107489851D01*
X210086595Y-107643387D01*
X210197038Y-107777962D01*
X210331613Y-107888405D01*
X210485149Y-107970472D01*
X210651745Y-108021008D01*
X210824999Y-108038072D01*
X211350001Y-108038072D01*
X211523255Y-108021008D01*
X211689851Y-107970472D01*
X211843387Y-107888405D01*
X211977962Y-107777962D01*
X212000000Y-107751109D01*
X212022038Y-107777962D01*
X212156613Y-107888405D01*
X212310149Y-107970472D01*
X212476745Y-108021008D01*
X212649999Y-108038072D01*
X213175001Y-108038072D01*
X213348255Y-108021008D01*
X213514851Y-107970472D01*
X213668387Y-107888405D01*
X213722269Y-107844185D01*
X213806614Y-107913405D01*
X213960150Y-107995472D01*
X214126746Y-108046008D01*
X214300000Y-108063072D01*
X214661493Y-108063072D01*
X214919221Y-108320799D01*
X214874774Y-108428102D01*
X214835000Y-108628061D01*
X214835000Y-108831939D01*
X214874774Y-109031898D01*
X214952795Y-109220256D01*
X215010045Y-109305937D01*
X215010045Y-109705994D01*
X214944389Y-109741088D01*
X214783295Y-109873295D01*
X214690000Y-109986975D01*
X214596705Y-109873295D01*
X214435611Y-109741088D01*
X214251820Y-109642850D01*
X214052395Y-109582355D01*
X213845000Y-109561928D01*
X212995000Y-109561928D01*
X212787605Y-109582355D01*
X212588180Y-109642850D01*
X212404389Y-109741088D01*
X212243295Y-109873295D01*
X212150000Y-109986975D01*
X212056705Y-109873295D01*
X211895611Y-109741088D01*
X211711820Y-109642850D01*
X211512395Y-109582355D01*
X211305000Y-109561928D01*
X210455000Y-109561928D01*
X210247605Y-109582355D01*
X210048180Y-109642850D01*
X209864389Y-109741088D01*
X209703295Y-109873295D01*
X209610000Y-109986975D01*
X209516705Y-109873295D01*
X209355611Y-109741088D01*
X209171820Y-109642850D01*
X208972395Y-109582355D01*
X208765000Y-109561928D01*
X207915000Y-109561928D01*
X207707605Y-109582355D01*
X207508180Y-109642850D01*
X207324389Y-109741088D01*
X207163295Y-109873295D01*
X207031088Y-110034389D01*
X206932850Y-110218180D01*
X206872355Y-110417605D01*
X206851928Y-110625000D01*
X206851928Y-112040000D01*
X204760000Y-112040000D01*
X204760000Y-108460000D01*
X205532419Y-108460000D01*
X205560189Y-108457265D01*
X205561910Y-108457277D01*
X205571082Y-108456378D01*
X205599201Y-108453423D01*
X205629383Y-108450450D01*
X205631491Y-108449810D01*
X205687940Y-108438223D01*
X205746670Y-108427020D01*
X205755486Y-108424358D01*
X205755490Y-108424357D01*
X205755493Y-108424356D01*
X205811424Y-108407042D01*
X205866551Y-108383869D01*
X205922034Y-108361452D01*
X205930171Y-108357125D01*
X205981674Y-108329277D01*
X206031234Y-108295847D01*
X206081319Y-108263073D01*
X206088460Y-108257248D01*
X206133572Y-108219927D01*
X206175713Y-108177491D01*
X206218462Y-108135628D01*
X206224336Y-108128527D01*
X206261341Y-108083154D01*
X206294433Y-108033346D01*
X206328235Y-107983981D01*
X206332618Y-107975875D01*
X206360106Y-107924179D01*
X206382894Y-107868893D01*
X206406470Y-107813887D01*
X206409194Y-107805084D01*
X206426117Y-107749033D01*
X206437731Y-107690380D01*
X206450175Y-107631835D01*
X206450423Y-107629471D01*
X206450450Y-107629383D01*
X206450710Y-107626746D01*
X206451138Y-107622670D01*
X206456851Y-107564400D01*
X206456851Y-107564392D01*
X206460000Y-107532419D01*
X206460000Y-107388072D01*
X207875000Y-107388072D01*
X208082395Y-107367645D01*
X208281820Y-107307150D01*
X208465611Y-107208912D01*
X208626705Y-107076705D01*
X208758912Y-106915611D01*
X208857150Y-106731820D01*
X208917645Y-106532395D01*
X208938072Y-106325000D01*
X208938072Y-106253506D01*
X209925000Y-105266578D01*
X209925000Y-105461939D01*
G04 #@! TA.AperFunction,Conductor*
D17*
G36*
X209925000Y-105461939D02*
G01*
X209964774Y-105661898D01*
X210040065Y-105843665D01*
X210004528Y-105910149D01*
X209953992Y-106076745D01*
X209936928Y-106249999D01*
X209936928Y-107150001D01*
X209953992Y-107323255D01*
X210004528Y-107489851D01*
X210086595Y-107643387D01*
X210197038Y-107777962D01*
X210331613Y-107888405D01*
X210485149Y-107970472D01*
X210651745Y-108021008D01*
X210824999Y-108038072D01*
X211350001Y-108038072D01*
X211523255Y-108021008D01*
X211689851Y-107970472D01*
X211843387Y-107888405D01*
X211977962Y-107777962D01*
X212000000Y-107751109D01*
X212022038Y-107777962D01*
X212156613Y-107888405D01*
X212310149Y-107970472D01*
X212476745Y-108021008D01*
X212649999Y-108038072D01*
X213175001Y-108038072D01*
X213348255Y-108021008D01*
X213514851Y-107970472D01*
X213668387Y-107888405D01*
X213722269Y-107844185D01*
X213806614Y-107913405D01*
X213960150Y-107995472D01*
X214126746Y-108046008D01*
X214300000Y-108063072D01*
X214661493Y-108063072D01*
X214919221Y-108320799D01*
X214874774Y-108428102D01*
X214835000Y-108628061D01*
X214835000Y-108831939D01*
X214874774Y-109031898D01*
X214952795Y-109220256D01*
X215010045Y-109305937D01*
X215010045Y-109705994D01*
X214944389Y-109741088D01*
X214783295Y-109873295D01*
X214690000Y-109986975D01*
X214596705Y-109873295D01*
X214435611Y-109741088D01*
X214251820Y-109642850D01*
X214052395Y-109582355D01*
X213845000Y-109561928D01*
X212995000Y-109561928D01*
X212787605Y-109582355D01*
X212588180Y-109642850D01*
X212404389Y-109741088D01*
X212243295Y-109873295D01*
X212150000Y-109986975D01*
X212056705Y-109873295D01*
X211895611Y-109741088D01*
X211711820Y-109642850D01*
X211512395Y-109582355D01*
X211305000Y-109561928D01*
X210455000Y-109561928D01*
X210247605Y-109582355D01*
X210048180Y-109642850D01*
X209864389Y-109741088D01*
X209703295Y-109873295D01*
X209610000Y-109986975D01*
X209516705Y-109873295D01*
X209355611Y-109741088D01*
X209171820Y-109642850D01*
X208972395Y-109582355D01*
X208765000Y-109561928D01*
X207915000Y-109561928D01*
X207707605Y-109582355D01*
X207508180Y-109642850D01*
X207324389Y-109741088D01*
X207163295Y-109873295D01*
X207031088Y-110034389D01*
X206932850Y-110218180D01*
X206872355Y-110417605D01*
X206851928Y-110625000D01*
X206851928Y-112040000D01*
X204760000Y-112040000D01*
X204760000Y-108460000D01*
X205532419Y-108460000D01*
X205560189Y-108457265D01*
X205561910Y-108457277D01*
X205571082Y-108456378D01*
X205599201Y-108453423D01*
X205629383Y-108450450D01*
X205631491Y-108449810D01*
X205687940Y-108438223D01*
X205746670Y-108427020D01*
X205755486Y-108424358D01*
X205755490Y-108424357D01*
X205755493Y-108424356D01*
X205811424Y-108407042D01*
X205866551Y-108383869D01*
X205922034Y-108361452D01*
X205930171Y-108357125D01*
X205981674Y-108329277D01*
X206031234Y-108295847D01*
X206081319Y-108263073D01*
X206088460Y-108257248D01*
X206133572Y-108219927D01*
X206175713Y-108177491D01*
X206218462Y-108135628D01*
X206224336Y-108128527D01*
X206261341Y-108083154D01*
X206294433Y-108033346D01*
X206328235Y-107983981D01*
X206332618Y-107975875D01*
X206360106Y-107924179D01*
X206382894Y-107868893D01*
X206406470Y-107813887D01*
X206409194Y-107805084D01*
X206426117Y-107749033D01*
X206437731Y-107690380D01*
X206450175Y-107631835D01*
X206450423Y-107629471D01*
X206450450Y-107629383D01*
X206450710Y-107626746D01*
X206451138Y-107622670D01*
X206456851Y-107564400D01*
X206456851Y-107564392D01*
X206460000Y-107532419D01*
X206460000Y-107388072D01*
X207875000Y-107388072D01*
X208082395Y-107367645D01*
X208281820Y-107307150D01*
X208465611Y-107208912D01*
X208626705Y-107076705D01*
X208758912Y-106915611D01*
X208857150Y-106731820D01*
X208917645Y-106532395D01*
X208938072Y-106325000D01*
X208938072Y-106253506D01*
X209925000Y-105266578D01*
X209925000Y-105461939D01*
G37*
G04 #@! TD.AperFunction*
D16*
X217839989Y-107006474D02*
X217723476Y-106994999D01*
X217723468Y-106994999D01*
X217679999Y-106990718D01*
X217636530Y-106994999D01*
X216096578Y-106994999D01*
X215688072Y-106586494D01*
X215688072Y-106225000D01*
X215671008Y-106051746D01*
X215620472Y-105885150D01*
X215538405Y-105731614D01*
X215512460Y-105700000D01*
X215538405Y-105668386D01*
X215620472Y-105514850D01*
X215671008Y-105348254D01*
X215688072Y-105175000D01*
X215688072Y-104225000D01*
X215671008Y-104051746D01*
X215620472Y-103885150D01*
X215574904Y-103799898D01*
X215714802Y-103660000D01*
X215863512Y-103660000D01*
X215910887Y-103674371D01*
X216050000Y-103688072D01*
X217350000Y-103688072D01*
X217489113Y-103674371D01*
X217622881Y-103633793D01*
X217746162Y-103567898D01*
X217839990Y-103490895D01*
X217839989Y-107006474D01*
G04 #@! TA.AperFunction,Conductor*
D17*
G36*
X217839989Y-107006474D02*
G01*
X217723476Y-106994999D01*
X217723468Y-106994999D01*
X217679999Y-106990718D01*
X217636530Y-106994999D01*
X216096578Y-106994999D01*
X215688072Y-106586494D01*
X215688072Y-106225000D01*
X215671008Y-106051746D01*
X215620472Y-105885150D01*
X215538405Y-105731614D01*
X215512460Y-105700000D01*
X215538405Y-105668386D01*
X215620472Y-105514850D01*
X215671008Y-105348254D01*
X215688072Y-105175000D01*
X215688072Y-104225000D01*
X215671008Y-104051746D01*
X215620472Y-103885150D01*
X215574904Y-103799898D01*
X215714802Y-103660000D01*
X215863512Y-103660000D01*
X215910887Y-103674371D01*
X216050000Y-103688072D01*
X217350000Y-103688072D01*
X217489113Y-103674371D01*
X217622881Y-103633793D01*
X217746162Y-103567898D01*
X217839990Y-103490895D01*
X217839989Y-107006474D01*
G37*
G04 #@! TD.AperFunction*
D16*
X222673000Y-96852606D02*
X222673000Y-97415000D01*
X220959544Y-97415000D01*
X220923255Y-97403992D01*
X220750001Y-97386928D01*
X219849999Y-97386928D01*
X219676745Y-97403992D01*
X219510149Y-97454528D01*
X219356613Y-97536595D01*
X219222038Y-97647038D01*
X219111595Y-97781613D01*
X219029528Y-97935149D01*
X218978992Y-98101745D01*
X218961928Y-98274999D01*
X218961928Y-98800001D01*
X218978992Y-98973255D01*
X219029528Y-99139851D01*
X219111595Y-99293387D01*
X219222038Y-99427962D01*
X219248891Y-99450000D01*
X219222038Y-99472038D01*
X219111595Y-99606613D01*
X219109785Y-99610000D01*
X217267322Y-99610000D01*
X217229999Y-99606324D01*
X217192676Y-99610000D01*
X217192667Y-99610000D01*
X217081014Y-99620997D01*
X216937753Y-99664454D01*
X216805724Y-99735026D01*
X216689999Y-99829999D01*
X216666200Y-99858998D01*
X216413271Y-100111928D01*
X216050000Y-100111928D01*
X215910887Y-100125629D01*
X215777119Y-100166207D01*
X215653838Y-100232102D01*
X215545782Y-100320782D01*
X215457102Y-100428838D01*
X215391207Y-100552119D01*
X215350629Y-100685887D01*
X215336928Y-100825000D01*
X215336928Y-100975000D01*
X215350629Y-101114113D01*
X215361515Y-101150000D01*
X215350629Y-101185887D01*
X215336928Y-101325000D01*
X215336928Y-101475000D01*
X215350629Y-101614113D01*
X215361515Y-101650000D01*
X215350629Y-101685887D01*
X215336928Y-101825000D01*
X215336928Y-101975000D01*
X215350629Y-102114113D01*
X215358603Y-102140400D01*
X215251014Y-102150997D01*
X215107753Y-102194454D01*
X214975724Y-102265026D01*
X214859999Y-102359999D01*
X214836201Y-102388997D01*
X214038998Y-103186201D01*
X214010000Y-103209999D01*
X213986202Y-103238997D01*
X213986201Y-103238998D01*
X213915026Y-103325724D01*
X213844454Y-103457754D01*
X213841335Y-103468036D01*
X213806614Y-103486595D01*
X213672038Y-103597038D01*
X213561595Y-103731614D01*
X213479528Y-103885150D01*
X213428992Y-104051746D01*
X213411928Y-104225000D01*
X213411928Y-105175000D01*
X213428992Y-105348254D01*
X213447443Y-105409080D01*
X213348255Y-105378992D01*
X213175001Y-105361928D01*
X212649999Y-105361928D01*
X212476745Y-105378992D01*
X212310149Y-105429528D01*
X212156613Y-105511595D01*
X212022038Y-105622038D01*
X212000000Y-105648891D01*
X211977962Y-105622038D01*
X211965233Y-105611591D01*
X211995000Y-105461939D01*
X211995000Y-105258061D01*
X211955226Y-105058102D01*
X211877205Y-104869744D01*
X211763937Y-104700226D01*
X211619774Y-104556063D01*
X211450256Y-104442795D01*
X211261898Y-104364774D01*
X211061939Y-104325000D01*
X210866579Y-104325000D01*
X211411579Y-103780000D01*
X212142678Y-103780000D01*
X212180000Y-103783676D01*
X212217322Y-103780000D01*
X212217333Y-103780000D01*
X212328986Y-103769003D01*
X212472247Y-103725546D01*
X212542355Y-103688072D01*
X212950000Y-103688072D01*
X213089113Y-103674371D01*
X213222881Y-103633793D01*
X213346162Y-103567898D01*
X213454218Y-103479218D01*
X213542898Y-103371162D01*
X213608793Y-103247881D01*
X213649371Y-103114113D01*
X213663072Y-102975000D01*
X213663072Y-102825000D01*
X213649371Y-102685887D01*
X213638485Y-102650000D01*
X213649371Y-102614113D01*
X213663072Y-102475000D01*
X213663072Y-102325000D01*
X213649371Y-102185887D01*
X213638485Y-102150000D01*
X213649371Y-102114113D01*
X213663072Y-101975000D01*
X213663072Y-101885000D01*
X213821939Y-101885000D01*
X214021898Y-101845226D01*
X214210256Y-101767205D01*
X214379774Y-101653937D01*
X214523937Y-101509774D01*
X214637205Y-101340256D01*
X214715226Y-101151898D01*
X214755000Y-100951939D01*
X214755000Y-100748061D01*
X214715226Y-100548102D01*
X214637205Y-100359744D01*
X214523937Y-100190226D01*
X214379774Y-100046063D01*
X214210256Y-99932795D01*
X214021898Y-99854774D01*
X213821939Y-99815000D01*
X213618061Y-99815000D01*
X213418102Y-99854774D01*
X213229744Y-99932795D01*
X213060226Y-100046063D01*
X212990384Y-100115905D01*
X212950000Y-100111928D01*
X211650000Y-100111928D01*
X211510887Y-100125629D01*
X211385344Y-100163712D01*
X211284059Y-100080589D01*
X211130313Y-99998411D01*
X210963490Y-99947805D01*
X210833477Y-99935000D01*
X208828725Y-99935000D01*
X208758912Y-99804389D01*
X208626705Y-99643295D01*
X208513025Y-99550000D01*
X208626705Y-99456705D01*
X208758912Y-99295611D01*
X208857150Y-99111820D01*
X208917645Y-98912395D01*
X208938072Y-98705000D01*
X208938072Y-97855000D01*
X208917645Y-97647605D01*
X208857150Y-97448180D01*
X208758912Y-97264389D01*
X208626705Y-97103295D01*
X208465611Y-96971088D01*
X208281820Y-96872850D01*
X208082395Y-96812355D01*
X207875000Y-96791928D01*
X206460000Y-96791928D01*
X206460000Y-96460000D01*
X222280394Y-96460000D01*
X222673000Y-96852606D01*
G04 #@! TA.AperFunction,Conductor*
D17*
G36*
X222673000Y-96852606D02*
G01*
X222673000Y-97415000D01*
X220959544Y-97415000D01*
X220923255Y-97403992D01*
X220750001Y-97386928D01*
X219849999Y-97386928D01*
X219676745Y-97403992D01*
X219510149Y-97454528D01*
X219356613Y-97536595D01*
X219222038Y-97647038D01*
X219111595Y-97781613D01*
X219029528Y-97935149D01*
X218978992Y-98101745D01*
X218961928Y-98274999D01*
X218961928Y-98800001D01*
X218978992Y-98973255D01*
X219029528Y-99139851D01*
X219111595Y-99293387D01*
X219222038Y-99427962D01*
X219248891Y-99450000D01*
X219222038Y-99472038D01*
X219111595Y-99606613D01*
X219109785Y-99610000D01*
X217267322Y-99610000D01*
X217229999Y-99606324D01*
X217192676Y-99610000D01*
X217192667Y-99610000D01*
X217081014Y-99620997D01*
X216937753Y-99664454D01*
X216805724Y-99735026D01*
X216689999Y-99829999D01*
X216666200Y-99858998D01*
X216413271Y-100111928D01*
X216050000Y-100111928D01*
X215910887Y-100125629D01*
X215777119Y-100166207D01*
X215653838Y-100232102D01*
X215545782Y-100320782D01*
X215457102Y-100428838D01*
X215391207Y-100552119D01*
X215350629Y-100685887D01*
X215336928Y-100825000D01*
X215336928Y-100975000D01*
X215350629Y-101114113D01*
X215361515Y-101150000D01*
X215350629Y-101185887D01*
X215336928Y-101325000D01*
X215336928Y-101475000D01*
X215350629Y-101614113D01*
X215361515Y-101650000D01*
X215350629Y-101685887D01*
X215336928Y-101825000D01*
X215336928Y-101975000D01*
X215350629Y-102114113D01*
X215358603Y-102140400D01*
X215251014Y-102150997D01*
X215107753Y-102194454D01*
X214975724Y-102265026D01*
X214859999Y-102359999D01*
X214836201Y-102388997D01*
X214038998Y-103186201D01*
X214010000Y-103209999D01*
X213986202Y-103238997D01*
X213986201Y-103238998D01*
X213915026Y-103325724D01*
X213844454Y-103457754D01*
X213841335Y-103468036D01*
X213806614Y-103486595D01*
X213672038Y-103597038D01*
X213561595Y-103731614D01*
X213479528Y-103885150D01*
X213428992Y-104051746D01*
X213411928Y-104225000D01*
X213411928Y-105175000D01*
X213428992Y-105348254D01*
X213447443Y-105409080D01*
X213348255Y-105378992D01*
X213175001Y-105361928D01*
X212649999Y-105361928D01*
X212476745Y-105378992D01*
X212310149Y-105429528D01*
X212156613Y-105511595D01*
X212022038Y-105622038D01*
X212000000Y-105648891D01*
X211977962Y-105622038D01*
X211965233Y-105611591D01*
X211995000Y-105461939D01*
X211995000Y-105258061D01*
X211955226Y-105058102D01*
X211877205Y-104869744D01*
X211763937Y-104700226D01*
X211619774Y-104556063D01*
X211450256Y-104442795D01*
X211261898Y-104364774D01*
X211061939Y-104325000D01*
X210866579Y-104325000D01*
X211411579Y-103780000D01*
X212142678Y-103780000D01*
X212180000Y-103783676D01*
X212217322Y-103780000D01*
X212217333Y-103780000D01*
X212328986Y-103769003D01*
X212472247Y-103725546D01*
X212542355Y-103688072D01*
X212950000Y-103688072D01*
X213089113Y-103674371D01*
X213222881Y-103633793D01*
X213346162Y-103567898D01*
X213454218Y-103479218D01*
X213542898Y-103371162D01*
X213608793Y-103247881D01*
X213649371Y-103114113D01*
X213663072Y-102975000D01*
X213663072Y-102825000D01*
X213649371Y-102685887D01*
X213638485Y-102650000D01*
X213649371Y-102614113D01*
X213663072Y-102475000D01*
X213663072Y-102325000D01*
X213649371Y-102185887D01*
X213638485Y-102150000D01*
X213649371Y-102114113D01*
X213663072Y-101975000D01*
X213663072Y-101885000D01*
X213821939Y-101885000D01*
X214021898Y-101845226D01*
X214210256Y-101767205D01*
X214379774Y-101653937D01*
X214523937Y-101509774D01*
X214637205Y-101340256D01*
X214715226Y-101151898D01*
X214755000Y-100951939D01*
X214755000Y-100748061D01*
X214715226Y-100548102D01*
X214637205Y-100359744D01*
X214523937Y-100190226D01*
X214379774Y-100046063D01*
X214210256Y-99932795D01*
X214021898Y-99854774D01*
X213821939Y-99815000D01*
X213618061Y-99815000D01*
X213418102Y-99854774D01*
X213229744Y-99932795D01*
X213060226Y-100046063D01*
X212990384Y-100115905D01*
X212950000Y-100111928D01*
X211650000Y-100111928D01*
X211510887Y-100125629D01*
X211385344Y-100163712D01*
X211284059Y-100080589D01*
X211130313Y-99998411D01*
X210963490Y-99947805D01*
X210833477Y-99935000D01*
X208828725Y-99935000D01*
X208758912Y-99804389D01*
X208626705Y-99643295D01*
X208513025Y-99550000D01*
X208626705Y-99456705D01*
X208758912Y-99295611D01*
X208857150Y-99111820D01*
X208917645Y-98912395D01*
X208938072Y-98705000D01*
X208938072Y-97855000D01*
X208917645Y-97647605D01*
X208857150Y-97448180D01*
X208758912Y-97264389D01*
X208626705Y-97103295D01*
X208465611Y-96971088D01*
X208281820Y-96872850D01*
X208082395Y-96812355D01*
X207875000Y-96791928D01*
X206460000Y-96791928D01*
X206460000Y-96460000D01*
X222280394Y-96460000D01*
X222673000Y-96852606D01*
G37*
G04 #@! TD.AperFunction*
M02*
