G04 #@! TF.GenerationSoftware,KiCad,Pcbnew,5.1.9+dfsg1-1+deb11u1*
G04 #@! TF.CreationDate,2023-03-01T09:08:49+00:00*
G04 #@! TF.ProjectId,ControllerCurrentShuntAddOn,436f6e74-726f-46c6-9c65-724375727265,rev?*
G04 #@! TF.SameCoordinates,Original*
G04 #@! TF.FileFunction,Copper,L2,Bot*
G04 #@! TF.FilePolarity,Positive*
%FSLAX46Y46*%
G04 Gerber Fmt 4.6, Leading zero omitted, Abs format (unit mm)*
G04 Created by KiCad (PCBNEW 5.1.9+dfsg1-1+deb11u1) date 2023-03-01 09:08:49*
%MOMM*%
%LPD*%
G01*
G04 APERTURE LIST*
G04 #@! TA.AperFunction,ViaPad*
%ADD10C,0.800000*%
G04 #@! TD*
G04 #@! TA.AperFunction,Conductor*
%ADD11C,0.250000*%
G04 #@! TD*
G04 #@! TA.AperFunction,Conductor*
%ADD12C,0.500000*%
G04 #@! TD*
G04 #@! TA.AperFunction,Conductor*
%ADD13C,0.254000*%
G04 #@! TD*
G04 #@! TA.AperFunction,Conductor*
%ADD14C,0.100000*%
G04 #@! TD*
G04 APERTURE END LIST*
G04 #@! TA.AperFunction,ComponentPad*
G36*
G01*
X208300000Y-97855000D02*
X208300000Y-98705000D01*
G75*
G02*
X207875000Y-99130000I-425000J0D01*
G01*
X205225000Y-99130000D01*
G75*
G02*
X204800000Y-98705000I0J425000D01*
G01*
X204800000Y-97855000D01*
G75*
G02*
X205225000Y-97430000I425000J0D01*
G01*
X207875000Y-97430000D01*
G75*
G02*
X208300000Y-97855000I0J-425000D01*
G01*
G37*
G04 #@! TD.AperFunction*
G04 #@! TA.AperFunction,ComponentPad*
G36*
G01*
X208300000Y-100395000D02*
X208300000Y-101245000D01*
G75*
G02*
X207875000Y-101670000I-425000J0D01*
G01*
X205225000Y-101670000D01*
G75*
G02*
X204800000Y-101245000I0J425000D01*
G01*
X204800000Y-100395000D01*
G75*
G02*
X205225000Y-99970000I425000J0D01*
G01*
X207875000Y-99970000D01*
G75*
G02*
X208300000Y-100395000I0J-425000D01*
G01*
G37*
G04 #@! TD.AperFunction*
G04 #@! TA.AperFunction,ComponentPad*
G36*
G01*
X208300000Y-102935000D02*
X208300000Y-103785000D01*
G75*
G02*
X207875000Y-104210000I-425000J0D01*
G01*
X205225000Y-104210000D01*
G75*
G02*
X204800000Y-103785000I0J425000D01*
G01*
X204800000Y-102935000D01*
G75*
G02*
X205225000Y-102510000I425000J0D01*
G01*
X207875000Y-102510000D01*
G75*
G02*
X208300000Y-102935000I0J-425000D01*
G01*
G37*
G04 #@! TD.AperFunction*
G04 #@! TA.AperFunction,ComponentPad*
G36*
G01*
X208300000Y-105475000D02*
X208300000Y-106325000D01*
G75*
G02*
X207875000Y-106750000I-425000J0D01*
G01*
X205225000Y-106750000D01*
G75*
G02*
X204800000Y-106325000I0J425000D01*
G01*
X204800000Y-105475000D01*
G75*
G02*
X205225000Y-105050000I425000J0D01*
G01*
X207875000Y-105050000D01*
G75*
G02*
X208300000Y-105475000I0J-425000D01*
G01*
G37*
G04 #@! TD.AperFunction*
G04 #@! TA.AperFunction,ComponentPad*
G36*
G01*
X221465000Y-113700000D02*
X220615000Y-113700000D01*
G75*
G02*
X220190000Y-113275000I0J425000D01*
G01*
X220190000Y-110625000D01*
G75*
G02*
X220615000Y-110200000I425000J0D01*
G01*
X221465000Y-110200000D01*
G75*
G02*
X221890000Y-110625000I0J-425000D01*
G01*
X221890000Y-113275000D01*
G75*
G02*
X221465000Y-113700000I-425000J0D01*
G01*
G37*
G04 #@! TD.AperFunction*
G04 #@! TA.AperFunction,ComponentPad*
G36*
G01*
X218925000Y-113700000D02*
X218075000Y-113700000D01*
G75*
G02*
X217650000Y-113275000I0J425000D01*
G01*
X217650000Y-110625000D01*
G75*
G02*
X218075000Y-110200000I425000J0D01*
G01*
X218925000Y-110200000D01*
G75*
G02*
X219350000Y-110625000I0J-425000D01*
G01*
X219350000Y-113275000D01*
G75*
G02*
X218925000Y-113700000I-425000J0D01*
G01*
G37*
G04 #@! TD.AperFunction*
G04 #@! TA.AperFunction,ComponentPad*
G36*
G01*
X216385000Y-113700000D02*
X215535000Y-113700000D01*
G75*
G02*
X215110000Y-113275000I0J425000D01*
G01*
X215110000Y-110625000D01*
G75*
G02*
X215535000Y-110200000I425000J0D01*
G01*
X216385000Y-110200000D01*
G75*
G02*
X216810000Y-110625000I0J-425000D01*
G01*
X216810000Y-113275000D01*
G75*
G02*
X216385000Y-113700000I-425000J0D01*
G01*
G37*
G04 #@! TD.AperFunction*
G04 #@! TA.AperFunction,ComponentPad*
G36*
G01*
X213845000Y-113700000D02*
X212995000Y-113700000D01*
G75*
G02*
X212570000Y-113275000I0J425000D01*
G01*
X212570000Y-110625000D01*
G75*
G02*
X212995000Y-110200000I425000J0D01*
G01*
X213845000Y-110200000D01*
G75*
G02*
X214270000Y-110625000I0J-425000D01*
G01*
X214270000Y-113275000D01*
G75*
G02*
X213845000Y-113700000I-425000J0D01*
G01*
G37*
G04 #@! TD.AperFunction*
G04 #@! TA.AperFunction,ComponentPad*
G36*
G01*
X211305000Y-113700000D02*
X210455000Y-113700000D01*
G75*
G02*
X210030000Y-113275000I0J425000D01*
G01*
X210030000Y-110625000D01*
G75*
G02*
X210455000Y-110200000I425000J0D01*
G01*
X211305000Y-110200000D01*
G75*
G02*
X211730000Y-110625000I0J-425000D01*
G01*
X211730000Y-113275000D01*
G75*
G02*
X211305000Y-113700000I-425000J0D01*
G01*
G37*
G04 #@! TD.AperFunction*
G04 #@! TA.AperFunction,ComponentPad*
G36*
G01*
X208765000Y-113700000D02*
X207915000Y-113700000D01*
G75*
G02*
X207490000Y-113275000I0J425000D01*
G01*
X207490000Y-110625000D01*
G75*
G02*
X207915000Y-110200000I425000J0D01*
G01*
X208765000Y-110200000D01*
G75*
G02*
X209190000Y-110625000I0J-425000D01*
G01*
X209190000Y-113275000D01*
G75*
G02*
X208765000Y-113700000I-425000J0D01*
G01*
G37*
G04 #@! TD.AperFunction*
G04 #@! TA.AperFunction,ComponentPad*
G36*
G01*
X206225000Y-113700000D02*
X205375000Y-113700000D01*
G75*
G02*
X204950000Y-113275000I0J425000D01*
G01*
X204950000Y-110625000D01*
G75*
G02*
X205375000Y-110200000I425000J0D01*
G01*
X206225000Y-110200000D01*
G75*
G02*
X206650000Y-110625000I0J-425000D01*
G01*
X206650000Y-113275000D01*
G75*
G02*
X206225000Y-113700000I-425000J0D01*
G01*
G37*
G04 #@! TD.AperFunction*
D10*
X206600000Y-109200000D03*
X207700000Y-109200000D03*
X207700000Y-108200000D03*
X206600000Y-108200000D03*
X217770000Y-105950000D03*
X212400000Y-104270000D03*
X211450000Y-104270000D03*
X209200000Y-99150000D03*
X210200000Y-99150000D03*
X211200000Y-99150000D03*
X217770000Y-104950000D03*
X215000000Y-102160000D03*
X210152512Y-101674990D03*
X217410000Y-109660000D03*
X210960000Y-105360000D03*
X213720000Y-100850000D03*
X215870000Y-108730000D03*
D11*
X210152512Y-104552512D02*
X210960000Y-105360000D01*
X210152512Y-101674990D02*
X210152512Y-104552512D01*
D12*
X217410000Y-109660000D02*
X215260000Y-109660000D01*
X215260000Y-109660000D02*
X210960000Y-105360000D01*
X213720000Y-106580000D02*
X215870000Y-108730000D01*
X213720000Y-100850000D02*
X213720000Y-106580000D01*
D13*
X222623000Y-96802677D02*
X222623000Y-111597467D01*
X222528072Y-111692578D01*
X222528072Y-110625000D01*
X222507645Y-110417605D01*
X222447150Y-110218180D01*
X222348912Y-110034389D01*
X222216705Y-109873295D01*
X222055611Y-109741088D01*
X221871820Y-109642850D01*
X221672395Y-109582355D01*
X221465000Y-109561928D01*
X220615000Y-109561928D01*
X220407605Y-109582355D01*
X220208180Y-109642850D01*
X220024389Y-109741088D01*
X219863295Y-109873295D01*
X219770000Y-109986975D01*
X219676705Y-109873295D01*
X219515611Y-109741088D01*
X219331820Y-109642850D01*
X219132395Y-109582355D01*
X218925000Y-109561928D01*
X218445000Y-109561928D01*
X218445000Y-109558061D01*
X218405226Y-109358102D01*
X218327205Y-109169744D01*
X218213937Y-109000226D01*
X218069774Y-108856063D01*
X217900256Y-108742795D01*
X217711898Y-108664774D01*
X217511939Y-108625000D01*
X217308061Y-108625000D01*
X217108102Y-108664774D01*
X216919744Y-108742795D01*
X216905000Y-108752647D01*
X216905000Y-108628061D01*
X216865226Y-108428102D01*
X216787205Y-108239744D01*
X216673937Y-108070226D01*
X216529774Y-107926063D01*
X216360256Y-107812795D01*
X216171898Y-107734774D01*
X216115044Y-107723465D01*
X214605000Y-106213422D01*
X214605000Y-101388454D01*
X214637205Y-101340256D01*
X214715226Y-101151898D01*
X214755000Y-100951939D01*
X214755000Y-100748061D01*
X214715226Y-100548102D01*
X214637205Y-100359744D01*
X214523937Y-100190226D01*
X214379774Y-100046063D01*
X214210256Y-99932795D01*
X214021898Y-99854774D01*
X213821939Y-99815000D01*
X213618061Y-99815000D01*
X213418102Y-99854774D01*
X213229744Y-99932795D01*
X213060226Y-100046063D01*
X212916063Y-100190226D01*
X212802795Y-100359744D01*
X212724774Y-100548102D01*
X212685000Y-100748061D01*
X212685000Y-100951939D01*
X212724774Y-101151898D01*
X212802795Y-101340256D01*
X212835000Y-101388454D01*
X212835001Y-105983423D01*
X211966535Y-105114957D01*
X211955226Y-105058102D01*
X211877205Y-104869744D01*
X211763937Y-104700226D01*
X211619774Y-104556063D01*
X211450256Y-104442795D01*
X211261898Y-104364774D01*
X211061939Y-104325000D01*
X210999802Y-104325000D01*
X210912512Y-104237710D01*
X210912512Y-102378701D01*
X210956449Y-102334764D01*
X211069717Y-102165246D01*
X211147738Y-101976888D01*
X211187512Y-101776929D01*
X211187512Y-101573051D01*
X211147738Y-101373092D01*
X211069717Y-101184734D01*
X210956449Y-101015216D01*
X210812286Y-100871053D01*
X210642768Y-100757785D01*
X210454410Y-100679764D01*
X210254451Y-100639990D01*
X210050573Y-100639990D01*
X209850614Y-100679764D01*
X209662256Y-100757785D01*
X209492738Y-100871053D01*
X209348575Y-101015216D01*
X209235307Y-101184734D01*
X209157286Y-101373092D01*
X209117512Y-101573051D01*
X209117512Y-101776929D01*
X209157286Y-101976888D01*
X209235307Y-102165246D01*
X209348575Y-102334764D01*
X209392512Y-102378701D01*
X209392513Y-104515180D01*
X209388836Y-104552512D01*
X209403510Y-104701497D01*
X209446966Y-104844758D01*
X209517538Y-104976788D01*
X209588713Y-105063514D01*
X209612512Y-105092513D01*
X209641509Y-105116311D01*
X209925000Y-105399802D01*
X209925000Y-105461939D01*
X209964774Y-105661898D01*
X210042795Y-105850256D01*
X210156063Y-106019774D01*
X210300226Y-106163937D01*
X210469744Y-106277205D01*
X210658102Y-106355226D01*
X210714957Y-106366535D01*
X213917489Y-109569068D01*
X213845000Y-109561928D01*
X212995000Y-109561928D01*
X212787605Y-109582355D01*
X212588180Y-109642850D01*
X212404389Y-109741088D01*
X212243295Y-109873295D01*
X212150000Y-109986975D01*
X212056705Y-109873295D01*
X211895611Y-109741088D01*
X211711820Y-109642850D01*
X211512395Y-109582355D01*
X211305000Y-109561928D01*
X210455000Y-109561928D01*
X210247605Y-109582355D01*
X210048180Y-109642850D01*
X209864389Y-109741088D01*
X209703295Y-109873295D01*
X209610000Y-109986975D01*
X209516705Y-109873295D01*
X209355611Y-109741088D01*
X209171820Y-109642850D01*
X208972395Y-109582355D01*
X208765000Y-109561928D01*
X207915000Y-109561928D01*
X207707605Y-109582355D01*
X207508180Y-109642850D01*
X207324389Y-109741088D01*
X207163295Y-109873295D01*
X207031088Y-110034389D01*
X206932850Y-110218180D01*
X206872355Y-110417605D01*
X206851928Y-110625000D01*
X206851928Y-112040000D01*
X204760000Y-112040000D01*
X204760000Y-108460000D01*
X205532419Y-108460000D01*
X205560189Y-108457265D01*
X205561910Y-108457277D01*
X205571082Y-108456378D01*
X205599201Y-108453423D01*
X205629383Y-108450450D01*
X205631491Y-108449810D01*
X205687940Y-108438223D01*
X205746670Y-108427020D01*
X205755486Y-108424358D01*
X205755490Y-108424357D01*
X205755493Y-108424356D01*
X205811424Y-108407042D01*
X205866551Y-108383869D01*
X205922034Y-108361452D01*
X205930171Y-108357125D01*
X205981674Y-108329277D01*
X206031234Y-108295847D01*
X206081319Y-108263073D01*
X206088460Y-108257248D01*
X206133572Y-108219927D01*
X206175713Y-108177491D01*
X206218462Y-108135628D01*
X206224336Y-108128527D01*
X206261341Y-108083154D01*
X206294433Y-108033346D01*
X206328235Y-107983981D01*
X206332618Y-107975875D01*
X206360106Y-107924179D01*
X206382894Y-107868893D01*
X206406470Y-107813887D01*
X206409194Y-107805084D01*
X206426117Y-107749033D01*
X206437731Y-107690380D01*
X206450175Y-107631835D01*
X206450423Y-107629471D01*
X206450450Y-107629383D01*
X206450710Y-107626746D01*
X206451138Y-107622670D01*
X206456851Y-107564400D01*
X206456851Y-107564392D01*
X206460000Y-107532419D01*
X206460000Y-107388072D01*
X207875000Y-107388072D01*
X208082395Y-107367645D01*
X208281820Y-107307150D01*
X208465611Y-107208912D01*
X208626705Y-107076705D01*
X208758912Y-106915611D01*
X208857150Y-106731820D01*
X208917645Y-106532395D01*
X208938072Y-106325000D01*
X208938072Y-105475000D01*
X208917645Y-105267605D01*
X208857150Y-105068180D01*
X208758912Y-104884389D01*
X208626705Y-104723295D01*
X208513025Y-104630000D01*
X208626705Y-104536705D01*
X208758912Y-104375611D01*
X208857150Y-104191820D01*
X208917645Y-103992395D01*
X208938072Y-103785000D01*
X208938072Y-102935000D01*
X208917645Y-102727605D01*
X208857150Y-102528180D01*
X208758912Y-102344389D01*
X208626705Y-102183295D01*
X208513025Y-102090000D01*
X208626705Y-101996705D01*
X208758912Y-101835611D01*
X208857150Y-101651820D01*
X208917645Y-101452395D01*
X208938072Y-101245000D01*
X208938072Y-100395000D01*
X208917645Y-100187605D01*
X208857150Y-99988180D01*
X208758912Y-99804389D01*
X208626705Y-99643295D01*
X208513025Y-99550000D01*
X208626705Y-99456705D01*
X208758912Y-99295611D01*
X208857150Y-99111820D01*
X208917645Y-98912395D01*
X208938072Y-98705000D01*
X208938072Y-97855000D01*
X208917645Y-97647605D01*
X208857150Y-97448180D01*
X208758912Y-97264389D01*
X208626705Y-97103295D01*
X208465611Y-96971088D01*
X208281820Y-96872850D01*
X208082395Y-96812355D01*
X207875000Y-96791928D01*
X206460000Y-96791928D01*
X206460000Y-96460000D01*
X222279663Y-96460000D01*
X222623000Y-96802677D01*
G04 #@! TA.AperFunction,Conductor*
D14*
G36*
X222623000Y-96802677D02*
G01*
X222623000Y-111597467D01*
X222528072Y-111692578D01*
X222528072Y-110625000D01*
X222507645Y-110417605D01*
X222447150Y-110218180D01*
X222348912Y-110034389D01*
X222216705Y-109873295D01*
X222055611Y-109741088D01*
X221871820Y-109642850D01*
X221672395Y-109582355D01*
X221465000Y-109561928D01*
X220615000Y-109561928D01*
X220407605Y-109582355D01*
X220208180Y-109642850D01*
X220024389Y-109741088D01*
X219863295Y-109873295D01*
X219770000Y-109986975D01*
X219676705Y-109873295D01*
X219515611Y-109741088D01*
X219331820Y-109642850D01*
X219132395Y-109582355D01*
X218925000Y-109561928D01*
X218445000Y-109561928D01*
X218445000Y-109558061D01*
X218405226Y-109358102D01*
X218327205Y-109169744D01*
X218213937Y-109000226D01*
X218069774Y-108856063D01*
X217900256Y-108742795D01*
X217711898Y-108664774D01*
X217511939Y-108625000D01*
X217308061Y-108625000D01*
X217108102Y-108664774D01*
X216919744Y-108742795D01*
X216905000Y-108752647D01*
X216905000Y-108628061D01*
X216865226Y-108428102D01*
X216787205Y-108239744D01*
X216673937Y-108070226D01*
X216529774Y-107926063D01*
X216360256Y-107812795D01*
X216171898Y-107734774D01*
X216115044Y-107723465D01*
X214605000Y-106213422D01*
X214605000Y-101388454D01*
X214637205Y-101340256D01*
X214715226Y-101151898D01*
X214755000Y-100951939D01*
X214755000Y-100748061D01*
X214715226Y-100548102D01*
X214637205Y-100359744D01*
X214523937Y-100190226D01*
X214379774Y-100046063D01*
X214210256Y-99932795D01*
X214021898Y-99854774D01*
X213821939Y-99815000D01*
X213618061Y-99815000D01*
X213418102Y-99854774D01*
X213229744Y-99932795D01*
X213060226Y-100046063D01*
X212916063Y-100190226D01*
X212802795Y-100359744D01*
X212724774Y-100548102D01*
X212685000Y-100748061D01*
X212685000Y-100951939D01*
X212724774Y-101151898D01*
X212802795Y-101340256D01*
X212835000Y-101388454D01*
X212835001Y-105983423D01*
X211966535Y-105114957D01*
X211955226Y-105058102D01*
X211877205Y-104869744D01*
X211763937Y-104700226D01*
X211619774Y-104556063D01*
X211450256Y-104442795D01*
X211261898Y-104364774D01*
X211061939Y-104325000D01*
X210999802Y-104325000D01*
X210912512Y-104237710D01*
X210912512Y-102378701D01*
X210956449Y-102334764D01*
X211069717Y-102165246D01*
X211147738Y-101976888D01*
X211187512Y-101776929D01*
X211187512Y-101573051D01*
X211147738Y-101373092D01*
X211069717Y-101184734D01*
X210956449Y-101015216D01*
X210812286Y-100871053D01*
X210642768Y-100757785D01*
X210454410Y-100679764D01*
X210254451Y-100639990D01*
X210050573Y-100639990D01*
X209850614Y-100679764D01*
X209662256Y-100757785D01*
X209492738Y-100871053D01*
X209348575Y-101015216D01*
X209235307Y-101184734D01*
X209157286Y-101373092D01*
X209117512Y-101573051D01*
X209117512Y-101776929D01*
X209157286Y-101976888D01*
X209235307Y-102165246D01*
X209348575Y-102334764D01*
X209392512Y-102378701D01*
X209392513Y-104515180D01*
X209388836Y-104552512D01*
X209403510Y-104701497D01*
X209446966Y-104844758D01*
X209517538Y-104976788D01*
X209588713Y-105063514D01*
X209612512Y-105092513D01*
X209641509Y-105116311D01*
X209925000Y-105399802D01*
X209925000Y-105461939D01*
X209964774Y-105661898D01*
X210042795Y-105850256D01*
X210156063Y-106019774D01*
X210300226Y-106163937D01*
X210469744Y-106277205D01*
X210658102Y-106355226D01*
X210714957Y-106366535D01*
X213917489Y-109569068D01*
X213845000Y-109561928D01*
X212995000Y-109561928D01*
X212787605Y-109582355D01*
X212588180Y-109642850D01*
X212404389Y-109741088D01*
X212243295Y-109873295D01*
X212150000Y-109986975D01*
X212056705Y-109873295D01*
X211895611Y-109741088D01*
X211711820Y-109642850D01*
X211512395Y-109582355D01*
X211305000Y-109561928D01*
X210455000Y-109561928D01*
X210247605Y-109582355D01*
X210048180Y-109642850D01*
X209864389Y-109741088D01*
X209703295Y-109873295D01*
X209610000Y-109986975D01*
X209516705Y-109873295D01*
X209355611Y-109741088D01*
X209171820Y-109642850D01*
X208972395Y-109582355D01*
X208765000Y-109561928D01*
X207915000Y-109561928D01*
X207707605Y-109582355D01*
X207508180Y-109642850D01*
X207324389Y-109741088D01*
X207163295Y-109873295D01*
X207031088Y-110034389D01*
X206932850Y-110218180D01*
X206872355Y-110417605D01*
X206851928Y-110625000D01*
X206851928Y-112040000D01*
X204760000Y-112040000D01*
X204760000Y-108460000D01*
X205532419Y-108460000D01*
X205560189Y-108457265D01*
X205561910Y-108457277D01*
X205571082Y-108456378D01*
X205599201Y-108453423D01*
X205629383Y-108450450D01*
X205631491Y-108449810D01*
X205687940Y-108438223D01*
X205746670Y-108427020D01*
X205755486Y-108424358D01*
X205755490Y-108424357D01*
X205755493Y-108424356D01*
X205811424Y-108407042D01*
X205866551Y-108383869D01*
X205922034Y-108361452D01*
X205930171Y-108357125D01*
X205981674Y-108329277D01*
X206031234Y-108295847D01*
X206081319Y-108263073D01*
X206088460Y-108257248D01*
X206133572Y-108219927D01*
X206175713Y-108177491D01*
X206218462Y-108135628D01*
X206224336Y-108128527D01*
X206261341Y-108083154D01*
X206294433Y-108033346D01*
X206328235Y-107983981D01*
X206332618Y-107975875D01*
X206360106Y-107924179D01*
X206382894Y-107868893D01*
X206406470Y-107813887D01*
X206409194Y-107805084D01*
X206426117Y-107749033D01*
X206437731Y-107690380D01*
X206450175Y-107631835D01*
X206450423Y-107629471D01*
X206450450Y-107629383D01*
X206450710Y-107626746D01*
X206451138Y-107622670D01*
X206456851Y-107564400D01*
X206456851Y-107564392D01*
X206460000Y-107532419D01*
X206460000Y-107388072D01*
X207875000Y-107388072D01*
X208082395Y-107367645D01*
X208281820Y-107307150D01*
X208465611Y-107208912D01*
X208626705Y-107076705D01*
X208758912Y-106915611D01*
X208857150Y-106731820D01*
X208917645Y-106532395D01*
X208938072Y-106325000D01*
X208938072Y-105475000D01*
X208917645Y-105267605D01*
X208857150Y-105068180D01*
X208758912Y-104884389D01*
X208626705Y-104723295D01*
X208513025Y-104630000D01*
X208626705Y-104536705D01*
X208758912Y-104375611D01*
X208857150Y-104191820D01*
X208917645Y-103992395D01*
X208938072Y-103785000D01*
X208938072Y-102935000D01*
X208917645Y-102727605D01*
X208857150Y-102528180D01*
X208758912Y-102344389D01*
X208626705Y-102183295D01*
X208513025Y-102090000D01*
X208626705Y-101996705D01*
X208758912Y-101835611D01*
X208857150Y-101651820D01*
X208917645Y-101452395D01*
X208938072Y-101245000D01*
X208938072Y-100395000D01*
X208917645Y-100187605D01*
X208857150Y-99988180D01*
X208758912Y-99804389D01*
X208626705Y-99643295D01*
X208513025Y-99550000D01*
X208626705Y-99456705D01*
X208758912Y-99295611D01*
X208857150Y-99111820D01*
X208917645Y-98912395D01*
X208938072Y-98705000D01*
X208938072Y-97855000D01*
X208917645Y-97647605D01*
X208857150Y-97448180D01*
X208758912Y-97264389D01*
X208626705Y-97103295D01*
X208465611Y-96971088D01*
X208281820Y-96872850D01*
X208082395Y-96812355D01*
X207875000Y-96791928D01*
X206460000Y-96791928D01*
X206460000Y-96460000D01*
X222279663Y-96460000D01*
X222623000Y-96802677D01*
G37*
G04 #@! TD.AperFunction*
M02*
