G04 #@! TF.GenerationSoftware,KiCad,Pcbnew,(5.1.5)-3*
G04 #@! TF.CreationDate,2021-02-25T13:46:29+00:00*
G04 #@! TF.ProjectId,ControllerCircuit,436f6e74-726f-46c6-9c65-724369726375,rev?*
G04 #@! TF.SameCoordinates,Original*
G04 #@! TF.FileFunction,Profile,NP*
%FSLAX46Y46*%
G04 Gerber Fmt 4.6, Leading zero omitted, Abs format (unit mm)*
G04 Created by KiCad (PCBNEW (5.1.5)-3) date 2021-02-25 13:46:29*
%MOMM*%
%LPD*%
G04 APERTURE LIST*
G04 #@! TA.AperFunction,Profile*
%ADD10C,0.050000*%
G04 #@! TD*
G04 #@! TA.AperFunction,Profile*
%ADD11C,0.100000*%
G04 #@! TD*
G04 APERTURE END LIST*
D10*
X209500000Y-95600000D02*
X207950000Y-95600000D01*
X207950000Y-83600000D02*
X209500000Y-83600000D01*
X207950000Y-95600000D02*
G75*
G02X206950000Y-94600000I0J1000000D01*
G01*
X206950000Y-84600000D02*
G75*
G02X207950000Y-83600000I1000000J0D01*
G01*
X210500000Y-82600000D02*
G75*
G02X209500000Y-83600000I-1000000J0D01*
G01*
X209500000Y-95600000D02*
G75*
G02X210500000Y-96600000I0J-1000000D01*
G01*
X210500000Y-96600000D02*
X210500000Y-130000000D01*
X210500000Y-82600000D02*
X210500000Y-59250000D01*
X206950000Y-94600000D02*
X206950000Y-84600000D01*
X209500000Y-95600000D02*
X209500000Y-95600000D01*
D11*
X196450000Y-51500000D02*
X197250000Y-51500000D01*
X197250000Y-51500000D02*
X197250000Y-61400000D01*
X196450000Y-61400000D02*
X196450000Y-51500000D01*
X197250000Y-61400000D02*
X196450000Y-61400000D01*
X143450000Y-51500000D02*
X144250000Y-51500000D01*
X144250000Y-51500000D02*
X144250000Y-61400000D01*
X143450000Y-61400000D02*
X143450000Y-51500000D01*
X144250000Y-61400000D02*
X143450000Y-61400000D01*
X134050000Y-65500000D02*
X134050000Y-51500000D01*
X134850000Y-51500000D02*
X134850000Y-65500000D01*
X134850000Y-65500000D02*
X134050000Y-65500000D01*
X134050000Y-51500000D02*
X134850000Y-51500000D01*
X138450000Y-68500000D02*
X138450000Y-51500000D01*
X138450000Y-51500000D02*
X139350000Y-51500000D01*
X139350000Y-51500000D02*
X139350000Y-68500000D01*
X139350000Y-68500000D02*
X138450000Y-68500000D01*
X186950000Y-65500000D02*
X186950000Y-51500000D01*
X186950000Y-51500000D02*
X187750000Y-51500000D01*
X187750000Y-51500000D02*
X187750000Y-65500000D01*
X187750000Y-65500000D02*
X186950000Y-65500000D01*
X192250000Y-51500000D02*
X192250000Y-68500000D01*
X191350000Y-51500000D02*
X192250000Y-51500000D01*
X191350000Y-68500000D02*
X191350000Y-51500000D01*
X192250000Y-68500000D02*
X191350000Y-68500000D01*
D10*
X211250000Y-52450000D02*
X211250000Y-58500000D01*
X211250000Y-58500000D02*
X210500000Y-59250000D01*
X211250000Y-130750000D02*
X210500000Y-130000000D01*
X211250000Y-136000000D02*
X211250000Y-130750000D01*
X88750000Y-136000000D02*
X88750000Y-130000000D01*
X88750000Y-57750000D02*
X89500000Y-58500000D01*
X88750000Y-52450000D02*
X88750000Y-57750000D01*
X88750000Y-130000000D02*
X89500000Y-129250000D01*
X89500000Y-58500000D02*
X89500000Y-129250000D01*
X90416666Y-138000000D02*
G75*
G03X90416666Y-138000000I-1666666J0D01*
G01*
X86250000Y-138000000D02*
X91250000Y-138000000D01*
X88750000Y-135500000D02*
X88750000Y-140500000D01*
X90750000Y-138000000D02*
G75*
G02X88750000Y-136000000I0J2000000D01*
G01*
X209250000Y-138000000D02*
X90750000Y-138000000D01*
X211250000Y-136000000D02*
G75*
G02X209250000Y-138000000I-2000000J0D01*
G01*
X88750000Y-52450000D02*
G75*
G02X90750000Y-50450000I2000000J0D01*
G01*
X209250000Y-50450000D02*
G75*
G02X211250000Y-52450000I0J-2000000D01*
G01*
X209250000Y-50450000D02*
X90750000Y-50450000D01*
M02*
