G04 #@! TF.GenerationSoftware,KiCad,Pcbnew,(5.1.10)-1*
G04 #@! TF.CreationDate,2021-05-16T16:09:42+01:00*
G04 #@! TF.ProjectId,ControllerCircuit,436f6e74-726f-46c6-9c65-724369726375,rev?*
G04 #@! TF.SameCoordinates,Original*
G04 #@! TF.FileFunction,Soldermask,Bot*
G04 #@! TF.FilePolarity,Negative*
%FSLAX46Y46*%
G04 Gerber Fmt 4.6, Leading zero omitted, Abs format (unit mm)*
G04 Created by KiCad (PCBNEW (5.1.10)-1) date 2021-05-16 16:09:42*
%MOMM*%
%LPD*%
G01*
G04 APERTURE LIST*
%ADD10C,2.000000*%
%ADD11O,1.000000X1.000000*%
%ADD12R,1.000000X1.000000*%
%ADD13O,2.800000X2.800000*%
%ADD14R,2.800000X2.800000*%
%ADD15C,3.200000*%
%ADD16O,1.700000X1.700000*%
%ADD17R,1.700000X1.700000*%
%ADD18C,2.200000*%
%ADD19R,2.000000X2.000000*%
%ADD20O,1.200000X1.750000*%
%ADD21C,1.560000*%
%ADD22R,1.560000X1.560000*%
%ADD23R,1.980000X1.980000*%
%ADD24R,1.900000X2.200000*%
%ADD25C,1.900000*%
%ADD26R,1.900000X1.900000*%
%ADD27C,4.000000*%
G04 APERTURE END LIST*
D10*
G04 #@! TO.C,SW2*
X193930000Y-129976000D03*
X198430000Y-129976000D03*
X193930000Y-136476000D03*
X198430000Y-136476000D03*
G04 #@! TD*
D11*
G04 #@! TO.C,J14*
X205995000Y-109171000D03*
X205995000Y-110441000D03*
X205995000Y-111711000D03*
D12*
X205995000Y-112981000D03*
G04 #@! TD*
D10*
G04 #@! TO.C,SW1*
X186437000Y-129976000D03*
X190937000Y-129976000D03*
X186437000Y-136476000D03*
X190937000Y-136476000D03*
G04 #@! TD*
D13*
G04 #@! TO.C,D7*
X158720000Y-69440000D03*
D14*
X158720000Y-79600000D03*
G04 #@! TD*
D15*
G04 #@! TO.C,LCD1*
X205300000Y-80375000D03*
X205300000Y-124375000D03*
X129300000Y-80375000D03*
X129300000Y-124375000D03*
D16*
X205800000Y-103335000D03*
X205800000Y-100795000D03*
X205800000Y-98255000D03*
X205800000Y-105875000D03*
X124300000Y-85855000D03*
X124300000Y-88395000D03*
X124300000Y-90935000D03*
X124300000Y-93475000D03*
X124300000Y-96015000D03*
X124300000Y-98555000D03*
X124300000Y-101095000D03*
X124300000Y-103635000D03*
X124300000Y-106175000D03*
X124300000Y-108715000D03*
X124300000Y-111255000D03*
X124300000Y-113795000D03*
X124300000Y-116335000D03*
D17*
X124300000Y-118875000D03*
G04 #@! TD*
D18*
G04 #@! TO.C,J5*
X160220000Y-53480000D03*
X164030000Y-53480000D03*
X167840000Y-53480000D03*
D19*
X171650000Y-53480000D03*
G04 #@! TD*
D18*
G04 #@! TO.C,J12*
X105800000Y-53530000D03*
X109610000Y-53530000D03*
X113420000Y-53530000D03*
D19*
X117230000Y-53530000D03*
G04 #@! TD*
D20*
G04 #@! TO.C,TX1*
X182341000Y-130849600D03*
G36*
G01*
X179741000Y-131474601D02*
X179741000Y-130224599D01*
G75*
G02*
X179990999Y-129974600I249999J0D01*
G01*
X180691001Y-129974600D01*
G75*
G02*
X180941000Y-130224599I0J-249999D01*
G01*
X180941000Y-131474601D01*
G75*
G02*
X180691001Y-131724600I-249999J0D01*
G01*
X179990999Y-131724600D01*
G75*
G02*
X179741000Y-131474601I0J249999D01*
G01*
G37*
G04 #@! TD*
G04 #@! TO.C,RX1*
X175330720Y-130849600D03*
G36*
G01*
X172730720Y-131474601D02*
X172730720Y-130224599D01*
G75*
G02*
X172980719Y-129974600I249999J0D01*
G01*
X173680721Y-129974600D01*
G75*
G02*
X173930720Y-130224599I0J-249999D01*
G01*
X173930720Y-131474601D01*
G75*
G02*
X173680721Y-131724600I-249999J0D01*
G01*
X172980719Y-131724600D01*
G75*
G02*
X172730720Y-131474601I0J249999D01*
G01*
G37*
G04 #@! TD*
D16*
G04 #@! TO.C,JP3*
X174919360Y-101185240D03*
D17*
X172379360Y-101185240D03*
G04 #@! TD*
D16*
G04 #@! TO.C,JP2*
X186115680Y-101185240D03*
D17*
X183575680Y-101185240D03*
G04 #@! TD*
D16*
G04 #@! TO.C,J11*
X97686860Y-61591720D03*
X95146860Y-61591720D03*
D17*
X92606860Y-61591720D03*
G04 #@! TD*
D16*
G04 #@! TO.C,J10*
X117510000Y-129350000D03*
D17*
X120050000Y-129350000D03*
G04 #@! TD*
D16*
G04 #@! TO.C,J9*
X170573420Y-96933280D03*
X170573420Y-94393280D03*
X170573420Y-91853280D03*
X170573420Y-89313280D03*
X170573420Y-86773280D03*
D17*
X170573420Y-84233280D03*
G04 #@! TD*
D16*
G04 #@! TO.C,J8*
X126870000Y-134290000D03*
X126870000Y-131750000D03*
X129410000Y-134290000D03*
X129410000Y-131750000D03*
X131950000Y-134290000D03*
D17*
X131950000Y-131750000D03*
G04 #@! TD*
D16*
G04 #@! TO.C,J6*
X186151240Y-92026000D03*
X183611240Y-92026000D03*
X186151240Y-89486000D03*
X183611240Y-89486000D03*
X186151240Y-86946000D03*
D17*
X183611240Y-86946000D03*
G04 #@! TD*
D21*
G04 #@! TO.C,U4*
X117656394Y-117150000D03*
X117656394Y-114610000D03*
X117656394Y-112070000D03*
X117656394Y-109530000D03*
X117656394Y-106990000D03*
X117656394Y-104450000D03*
X117656394Y-101910000D03*
X117656394Y-99370000D03*
X117656394Y-96830000D03*
X117656394Y-94290000D03*
X117656394Y-91750000D03*
X117656394Y-89210000D03*
X117656394Y-86670000D03*
X117656394Y-84130000D03*
X117656394Y-81590000D03*
X117656394Y-79050000D03*
X117656394Y-76510000D03*
X117656394Y-73970000D03*
X117656394Y-71430000D03*
X92256394Y-114610000D03*
X92256394Y-112070000D03*
X92256394Y-109530000D03*
X92256394Y-106990000D03*
X92256394Y-104450000D03*
X92256394Y-101910000D03*
X92256394Y-99370000D03*
X92256394Y-96830000D03*
X92256394Y-94290000D03*
X92256394Y-91750000D03*
X92256394Y-89210000D03*
X92256394Y-86670000D03*
X92256394Y-84130000D03*
X92256394Y-81590000D03*
X92256394Y-79050000D03*
X92256394Y-76510000D03*
X92256394Y-117150000D03*
X92256394Y-73970000D03*
D22*
X92256394Y-71430000D03*
G04 #@! TD*
D23*
G04 #@! TO.C,K2*
X144475000Y-75300000D03*
D24*
X146475000Y-69300000D03*
D10*
X144475000Y-63300000D03*
D24*
X132275000Y-63300000D03*
X132275000Y-75300000D03*
G04 #@! TD*
D23*
G04 #@! TO.C,K1*
X197340000Y-75300000D03*
D24*
X199340000Y-69300000D03*
D10*
X197340000Y-63300000D03*
D24*
X185140000Y-63300000D03*
X185140000Y-75300000D03*
G04 #@! TD*
D18*
G04 #@! TO.C,J7*
X168679020Y-133488660D03*
X164869020Y-133488660D03*
X161059020Y-133488660D03*
D19*
X157249020Y-133488660D03*
G04 #@! TD*
D18*
G04 #@! TO.C,J4*
X151855686Y-133503660D03*
X148045686Y-133503660D03*
X144235686Y-133503660D03*
D19*
X140425686Y-133503660D03*
G04 #@! TD*
D25*
G04 #@! TO.C,J3*
X131685000Y-54450000D03*
X136685000Y-54450000D03*
D26*
X141685000Y-54450000D03*
G04 #@! TD*
D25*
G04 #@! TO.C,J2*
X184550000Y-54450000D03*
X189550000Y-54450000D03*
D26*
X194550000Y-54450000D03*
G04 #@! TD*
D18*
G04 #@! TO.C,J1*
X113270000Y-133500000D03*
X109460000Y-133500000D03*
X105650000Y-133500000D03*
D19*
X101840000Y-133500000D03*
G04 #@! TD*
D27*
G04 #@! TO.C,REF\u002A\u002A*
X92450000Y-54200000D03*
G04 #@! TD*
G04 #@! TO.C,REF\u002A\u002A*
X92450000Y-134200000D03*
G04 #@! TD*
G04 #@! TO.C,REF\u002A\u002A*
X207400000Y-134150000D03*
G04 #@! TD*
G04 #@! TO.C,REF\u002A\u002A*
X207400000Y-54200000D03*
G04 #@! TD*
M02*
