G04 #@! TF.GenerationSoftware,KiCad,Pcbnew,(5.1.5)-3*
G04 #@! TF.CreationDate,2021-05-09T12:10:04+01:00*
G04 #@! TF.ProjectId,ControllerCircuit,436f6e74-726f-46c6-9c65-724369726375,rev?*
G04 #@! TF.SameCoordinates,Original*
G04 #@! TF.FileFunction,Soldermask,Bot*
G04 #@! TF.FilePolarity,Negative*
%FSLAX46Y46*%
G04 Gerber Fmt 4.6, Leading zero omitted, Abs format (unit mm)*
G04 Created by KiCad (PCBNEW (5.1.5)-3) date 2021-05-09 12:10:04*
%MOMM*%
%LPD*%
G04 APERTURE LIST*
%ADD10C,0.100000*%
G04 APERTURE END LIST*
D10*
G36*
X93039212Y-132257627D02*
G01*
X93039214Y-132257628D01*
X93039215Y-132257628D01*
X93146887Y-132302228D01*
X93406829Y-132409899D01*
X93517220Y-132483660D01*
X93737674Y-132630962D01*
X94019038Y-132912326D01*
X94059672Y-132973140D01*
X94240101Y-133243171D01*
X94392373Y-133610788D01*
X94470000Y-134001047D01*
X94470000Y-134398953D01*
X94402319Y-134739212D01*
X94392372Y-134789215D01*
X94347773Y-134896887D01*
X94240101Y-135156829D01*
X94019037Y-135487675D01*
X93737675Y-135769037D01*
X93406829Y-135990101D01*
X93159925Y-136092372D01*
X93039215Y-136142372D01*
X93039214Y-136142372D01*
X93039212Y-136142373D01*
X92648953Y-136220000D01*
X92251047Y-136220000D01*
X91860788Y-136142373D01*
X91860786Y-136142372D01*
X91860785Y-136142372D01*
X91740075Y-136092372D01*
X91493171Y-135990101D01*
X91162325Y-135769037D01*
X90880963Y-135487675D01*
X90659899Y-135156829D01*
X90552227Y-134896887D01*
X90507628Y-134789215D01*
X90497682Y-134739212D01*
X90430000Y-134398953D01*
X90430000Y-134001047D01*
X90507627Y-133610788D01*
X90659899Y-133243171D01*
X90840328Y-132973140D01*
X90880962Y-132912326D01*
X91162326Y-132630962D01*
X91382780Y-132483660D01*
X91493171Y-132409899D01*
X91753113Y-132302228D01*
X91860785Y-132257628D01*
X91860786Y-132257628D01*
X91860788Y-132257627D01*
X92251047Y-132180000D01*
X92648953Y-132180000D01*
X93039212Y-132257627D01*
G37*
G36*
X207989212Y-132207627D02*
G01*
X207989214Y-132207628D01*
X207989215Y-132207628D01*
X208096887Y-132252228D01*
X208356829Y-132359899D01*
X208456805Y-132426701D01*
X208687674Y-132580962D01*
X208969038Y-132862326D01*
X209033059Y-132958141D01*
X209190101Y-133193171D01*
X209271502Y-133389690D01*
X209325071Y-133519016D01*
X209342373Y-133560788D01*
X209420000Y-133951047D01*
X209420000Y-134348953D01*
X209342373Y-134739212D01*
X209190101Y-135106829D01*
X208969037Y-135437675D01*
X208687675Y-135719037D01*
X208356829Y-135940101D01*
X208236118Y-135990101D01*
X207989215Y-136092372D01*
X207989214Y-136092372D01*
X207989212Y-136092373D01*
X207598953Y-136170000D01*
X207201047Y-136170000D01*
X206810788Y-136092373D01*
X206810786Y-136092372D01*
X206810785Y-136092372D01*
X206563882Y-135990101D01*
X206443171Y-135940101D01*
X206112325Y-135719037D01*
X205830963Y-135437675D01*
X205609899Y-135106829D01*
X205457627Y-134739212D01*
X205380000Y-134348953D01*
X205380000Y-133951047D01*
X205457627Y-133560788D01*
X205474930Y-133519016D01*
X205528498Y-133389690D01*
X205609899Y-133193171D01*
X205766941Y-132958141D01*
X205830962Y-132862326D01*
X206112326Y-132580962D01*
X206343195Y-132426701D01*
X206443171Y-132359899D01*
X206703113Y-132252228D01*
X206810785Y-132207628D01*
X206810786Y-132207628D01*
X206810788Y-132207627D01*
X207201047Y-132130000D01*
X207598953Y-132130000D01*
X207989212Y-132207627D01*
G37*
G36*
X127022921Y-133433373D02*
G01*
X127123770Y-133453433D01*
X127282100Y-133519016D01*
X127424593Y-133614227D01*
X127545773Y-133735407D01*
X127640984Y-133877900D01*
X127706567Y-134036230D01*
X127726627Y-134137079D01*
X127740000Y-134204310D01*
X127740000Y-134375690D01*
X127726627Y-134442921D01*
X127706567Y-134543770D01*
X127640984Y-134702100D01*
X127545773Y-134844593D01*
X127424593Y-134965773D01*
X127282100Y-135060984D01*
X127123770Y-135126567D01*
X127022921Y-135146627D01*
X126955690Y-135160000D01*
X126784310Y-135160000D01*
X126717079Y-135146627D01*
X126616230Y-135126567D01*
X126457900Y-135060984D01*
X126315407Y-134965773D01*
X126194227Y-134844593D01*
X126099016Y-134702100D01*
X126033433Y-134543770D01*
X126013373Y-134442921D01*
X126000000Y-134375690D01*
X126000000Y-134204310D01*
X126013373Y-134137079D01*
X126033433Y-134036230D01*
X126099016Y-133877900D01*
X126194227Y-133735407D01*
X126315407Y-133614227D01*
X126457900Y-133519016D01*
X126616230Y-133453433D01*
X126717079Y-133433373D01*
X126784310Y-133420000D01*
X126955690Y-133420000D01*
X127022921Y-133433373D01*
G37*
G36*
X129562921Y-133433373D02*
G01*
X129663770Y-133453433D01*
X129822100Y-133519016D01*
X129964593Y-133614227D01*
X130085773Y-133735407D01*
X130180984Y-133877900D01*
X130246567Y-134036230D01*
X130266627Y-134137079D01*
X130280000Y-134204310D01*
X130280000Y-134375690D01*
X130266627Y-134442921D01*
X130246567Y-134543770D01*
X130180984Y-134702100D01*
X130085773Y-134844593D01*
X129964593Y-134965773D01*
X129822100Y-135060984D01*
X129663770Y-135126567D01*
X129562921Y-135146627D01*
X129495690Y-135160000D01*
X129324310Y-135160000D01*
X129257079Y-135146627D01*
X129156230Y-135126567D01*
X128997900Y-135060984D01*
X128855407Y-134965773D01*
X128734227Y-134844593D01*
X128639016Y-134702100D01*
X128573433Y-134543770D01*
X128553373Y-134442921D01*
X128540000Y-134375690D01*
X128540000Y-134204310D01*
X128553373Y-134137079D01*
X128573433Y-134036230D01*
X128639016Y-133877900D01*
X128734227Y-133735407D01*
X128855407Y-133614227D01*
X128997900Y-133519016D01*
X129156230Y-133453433D01*
X129257079Y-133433373D01*
X129324310Y-133420000D01*
X129495690Y-133420000D01*
X129562921Y-133433373D01*
G37*
G36*
X132102921Y-133433373D02*
G01*
X132203770Y-133453433D01*
X132362100Y-133519016D01*
X132504593Y-133614227D01*
X132625773Y-133735407D01*
X132720984Y-133877900D01*
X132786567Y-134036230D01*
X132806627Y-134137079D01*
X132820000Y-134204310D01*
X132820000Y-134375690D01*
X132806627Y-134442921D01*
X132786567Y-134543770D01*
X132720984Y-134702100D01*
X132625773Y-134844593D01*
X132504593Y-134965773D01*
X132362100Y-135060984D01*
X132203770Y-135126567D01*
X132102921Y-135146627D01*
X132035690Y-135160000D01*
X131864310Y-135160000D01*
X131797079Y-135146627D01*
X131696230Y-135126567D01*
X131537900Y-135060984D01*
X131395407Y-134965773D01*
X131274227Y-134844593D01*
X131179016Y-134702100D01*
X131113433Y-134543770D01*
X131093373Y-134442921D01*
X131080000Y-134375690D01*
X131080000Y-134204310D01*
X131093373Y-134137079D01*
X131113433Y-134036230D01*
X131179016Y-133877900D01*
X131274227Y-133735407D01*
X131395407Y-133614227D01*
X131537900Y-133519016D01*
X131696230Y-133453433D01*
X131797079Y-133433373D01*
X131864310Y-133420000D01*
X132035690Y-133420000D01*
X132102921Y-133433373D01*
G37*
G36*
X152182378Y-132426701D02*
G01*
X152182380Y-132426702D01*
X152182381Y-132426702D01*
X152242080Y-132451430D01*
X152386205Y-132511129D01*
X152386206Y-132511130D01*
X152565550Y-132630963D01*
X152569644Y-132633699D01*
X152725647Y-132789702D01*
X152848217Y-132973141D01*
X152932645Y-133176968D01*
X152975686Y-133393350D01*
X152975686Y-133613970D01*
X152932645Y-133830352D01*
X152848217Y-134034179D01*
X152786932Y-134125898D01*
X152728094Y-134213957D01*
X152725647Y-134217618D01*
X152569644Y-134373621D01*
X152386205Y-134496191D01*
X152271339Y-134543770D01*
X152182381Y-134580618D01*
X152182380Y-134580618D01*
X152182378Y-134580619D01*
X151965996Y-134623660D01*
X151745376Y-134623660D01*
X151528994Y-134580619D01*
X151528992Y-134580618D01*
X151528991Y-134580618D01*
X151440033Y-134543770D01*
X151325167Y-134496191D01*
X151141728Y-134373621D01*
X150985725Y-134217618D01*
X150983279Y-134213957D01*
X150924440Y-134125898D01*
X150863155Y-134034179D01*
X150778727Y-133830352D01*
X150735686Y-133613970D01*
X150735686Y-133393350D01*
X150778727Y-133176968D01*
X150863155Y-132973141D01*
X150985725Y-132789702D01*
X151141728Y-132633699D01*
X151145823Y-132630963D01*
X151325166Y-132511130D01*
X151325167Y-132511129D01*
X151469292Y-132451430D01*
X151528991Y-132426702D01*
X151528992Y-132426702D01*
X151528994Y-132426701D01*
X151745376Y-132383660D01*
X151965996Y-132383660D01*
X152182378Y-132426701D01*
G37*
G36*
X144562378Y-132426701D02*
G01*
X144562380Y-132426702D01*
X144562381Y-132426702D01*
X144622080Y-132451430D01*
X144766205Y-132511129D01*
X144766206Y-132511130D01*
X144945550Y-132630963D01*
X144949644Y-132633699D01*
X145105647Y-132789702D01*
X145228217Y-132973141D01*
X145312645Y-133176968D01*
X145355686Y-133393350D01*
X145355686Y-133613970D01*
X145312645Y-133830352D01*
X145228217Y-134034179D01*
X145166932Y-134125898D01*
X145108094Y-134213957D01*
X145105647Y-134217618D01*
X144949644Y-134373621D01*
X144766205Y-134496191D01*
X144651339Y-134543770D01*
X144562381Y-134580618D01*
X144562380Y-134580618D01*
X144562378Y-134580619D01*
X144345996Y-134623660D01*
X144125376Y-134623660D01*
X143908994Y-134580619D01*
X143908992Y-134580618D01*
X143908991Y-134580618D01*
X143820033Y-134543770D01*
X143705167Y-134496191D01*
X143521728Y-134373621D01*
X143365725Y-134217618D01*
X143363279Y-134213957D01*
X143304440Y-134125898D01*
X143243155Y-134034179D01*
X143158727Y-133830352D01*
X143115686Y-133613970D01*
X143115686Y-133393350D01*
X143158727Y-133176968D01*
X143243155Y-132973141D01*
X143365725Y-132789702D01*
X143521728Y-132633699D01*
X143525823Y-132630963D01*
X143705166Y-132511130D01*
X143705167Y-132511129D01*
X143849292Y-132451430D01*
X143908991Y-132426702D01*
X143908992Y-132426702D01*
X143908994Y-132426701D01*
X144125376Y-132383660D01*
X144345996Y-132383660D01*
X144562378Y-132426701D01*
G37*
G36*
X148372378Y-132426701D02*
G01*
X148372380Y-132426702D01*
X148372381Y-132426702D01*
X148432080Y-132451430D01*
X148576205Y-132511129D01*
X148576206Y-132511130D01*
X148755550Y-132630963D01*
X148759644Y-132633699D01*
X148915647Y-132789702D01*
X149038217Y-132973141D01*
X149122645Y-133176968D01*
X149165686Y-133393350D01*
X149165686Y-133613970D01*
X149122645Y-133830352D01*
X149038217Y-134034179D01*
X148976932Y-134125898D01*
X148918094Y-134213957D01*
X148915647Y-134217618D01*
X148759644Y-134373621D01*
X148576205Y-134496191D01*
X148461339Y-134543770D01*
X148372381Y-134580618D01*
X148372380Y-134580618D01*
X148372378Y-134580619D01*
X148155996Y-134623660D01*
X147935376Y-134623660D01*
X147718994Y-134580619D01*
X147718992Y-134580618D01*
X147718991Y-134580618D01*
X147630033Y-134543770D01*
X147515167Y-134496191D01*
X147331728Y-134373621D01*
X147175725Y-134217618D01*
X147173279Y-134213957D01*
X147114440Y-134125898D01*
X147053155Y-134034179D01*
X146968727Y-133830352D01*
X146925686Y-133613970D01*
X146925686Y-133393350D01*
X146968727Y-133176968D01*
X147053155Y-132973141D01*
X147175725Y-132789702D01*
X147331728Y-132633699D01*
X147335823Y-132630963D01*
X147515166Y-132511130D01*
X147515167Y-132511129D01*
X147659292Y-132451430D01*
X147718991Y-132426702D01*
X147718992Y-132426702D01*
X147718994Y-132426701D01*
X147935376Y-132383660D01*
X148155996Y-132383660D01*
X148372378Y-132426701D01*
G37*
G36*
X113596692Y-132423041D02*
G01*
X113596694Y-132423042D01*
X113596695Y-132423042D01*
X113656394Y-132447770D01*
X113800519Y-132507469D01*
X113892238Y-132568754D01*
X113983957Y-132630038D01*
X114139962Y-132786043D01*
X114190932Y-132862325D01*
X114262531Y-132969481D01*
X114346959Y-133173308D01*
X114390000Y-133389690D01*
X114390000Y-133610310D01*
X114346959Y-133826692D01*
X114262531Y-134030519D01*
X114258715Y-134036230D01*
X114139962Y-134213957D01*
X113983957Y-134369962D01*
X113892239Y-134431246D01*
X113800519Y-134492531D01*
X113676824Y-134543767D01*
X113596695Y-134576958D01*
X113596694Y-134576958D01*
X113596692Y-134576959D01*
X113380310Y-134620000D01*
X113159690Y-134620000D01*
X112943308Y-134576959D01*
X112943306Y-134576958D01*
X112943305Y-134576958D01*
X112863176Y-134543767D01*
X112739481Y-134492531D01*
X112647761Y-134431246D01*
X112556043Y-134369962D01*
X112400038Y-134213957D01*
X112281285Y-134036230D01*
X112277469Y-134030519D01*
X112193041Y-133826692D01*
X112150000Y-133610310D01*
X112150000Y-133389690D01*
X112193041Y-133173308D01*
X112277469Y-132969481D01*
X112349068Y-132862325D01*
X112400038Y-132786043D01*
X112556043Y-132630038D01*
X112647761Y-132568754D01*
X112739481Y-132507469D01*
X112883606Y-132447770D01*
X112943305Y-132423042D01*
X112943306Y-132423042D01*
X112943308Y-132423041D01*
X113159690Y-132380000D01*
X113380310Y-132380000D01*
X113596692Y-132423041D01*
G37*
G36*
X109786692Y-132423041D02*
G01*
X109786694Y-132423042D01*
X109786695Y-132423042D01*
X109846394Y-132447770D01*
X109990519Y-132507469D01*
X110082238Y-132568754D01*
X110173957Y-132630038D01*
X110329962Y-132786043D01*
X110380932Y-132862325D01*
X110452531Y-132969481D01*
X110536959Y-133173308D01*
X110580000Y-133389690D01*
X110580000Y-133610310D01*
X110536959Y-133826692D01*
X110452531Y-134030519D01*
X110448715Y-134036230D01*
X110329962Y-134213957D01*
X110173957Y-134369962D01*
X110082239Y-134431246D01*
X109990519Y-134492531D01*
X109866824Y-134543767D01*
X109786695Y-134576958D01*
X109786694Y-134576958D01*
X109786692Y-134576959D01*
X109570310Y-134620000D01*
X109349690Y-134620000D01*
X109133308Y-134576959D01*
X109133306Y-134576958D01*
X109133305Y-134576958D01*
X109053176Y-134543767D01*
X108929481Y-134492531D01*
X108837761Y-134431246D01*
X108746043Y-134369962D01*
X108590038Y-134213957D01*
X108471285Y-134036230D01*
X108467469Y-134030519D01*
X108383041Y-133826692D01*
X108340000Y-133610310D01*
X108340000Y-133389690D01*
X108383041Y-133173308D01*
X108467469Y-132969481D01*
X108539068Y-132862325D01*
X108590038Y-132786043D01*
X108746043Y-132630038D01*
X108837761Y-132568754D01*
X108929481Y-132507469D01*
X109073606Y-132447770D01*
X109133305Y-132423042D01*
X109133306Y-132423042D01*
X109133308Y-132423041D01*
X109349690Y-132380000D01*
X109570310Y-132380000D01*
X109786692Y-132423041D01*
G37*
G36*
X105976692Y-132423041D02*
G01*
X105976694Y-132423042D01*
X105976695Y-132423042D01*
X106036394Y-132447770D01*
X106180519Y-132507469D01*
X106272238Y-132568754D01*
X106363957Y-132630038D01*
X106519962Y-132786043D01*
X106570932Y-132862325D01*
X106642531Y-132969481D01*
X106726959Y-133173308D01*
X106770000Y-133389690D01*
X106770000Y-133610310D01*
X106726959Y-133826692D01*
X106642531Y-134030519D01*
X106638715Y-134036230D01*
X106519962Y-134213957D01*
X106363957Y-134369962D01*
X106272239Y-134431246D01*
X106180519Y-134492531D01*
X106056824Y-134543767D01*
X105976695Y-134576958D01*
X105976694Y-134576958D01*
X105976692Y-134576959D01*
X105760310Y-134620000D01*
X105539690Y-134620000D01*
X105323308Y-134576959D01*
X105323306Y-134576958D01*
X105323305Y-134576958D01*
X105243176Y-134543767D01*
X105119481Y-134492531D01*
X105027761Y-134431246D01*
X104936043Y-134369962D01*
X104780038Y-134213957D01*
X104661285Y-134036230D01*
X104657469Y-134030519D01*
X104573041Y-133826692D01*
X104530000Y-133610310D01*
X104530000Y-133389690D01*
X104573041Y-133173308D01*
X104657469Y-132969481D01*
X104729068Y-132862325D01*
X104780038Y-132786043D01*
X104936043Y-132630038D01*
X105027761Y-132568754D01*
X105119481Y-132507469D01*
X105263606Y-132447770D01*
X105323305Y-132423042D01*
X105323306Y-132423042D01*
X105323308Y-132423041D01*
X105539690Y-132380000D01*
X105760310Y-132380000D01*
X105976692Y-132423041D01*
G37*
G36*
X161385712Y-132411701D02*
G01*
X161385714Y-132411702D01*
X161385715Y-132411702D01*
X161419685Y-132425773D01*
X161589539Y-132496129D01*
X161626737Y-132520984D01*
X161772977Y-132618698D01*
X161928982Y-132774703D01*
X161987529Y-132862325D01*
X162051551Y-132958141D01*
X162135979Y-133161968D01*
X162179020Y-133378350D01*
X162179020Y-133598970D01*
X162135979Y-133815352D01*
X162051551Y-134019179D01*
X162040158Y-134036230D01*
X161928982Y-134202617D01*
X161772977Y-134358622D01*
X161712620Y-134398951D01*
X161589539Y-134481191D01*
X161445414Y-134540889D01*
X161385715Y-134565618D01*
X161385714Y-134565618D01*
X161385712Y-134565619D01*
X161169330Y-134608660D01*
X160948710Y-134608660D01*
X160732328Y-134565619D01*
X160732326Y-134565618D01*
X160732325Y-134565618D01*
X160672626Y-134540889D01*
X160528501Y-134481191D01*
X160405420Y-134398951D01*
X160345063Y-134358622D01*
X160189058Y-134202617D01*
X160077882Y-134036230D01*
X160066489Y-134019179D01*
X159982061Y-133815352D01*
X159939020Y-133598970D01*
X159939020Y-133378350D01*
X159982061Y-133161968D01*
X160066489Y-132958141D01*
X160130511Y-132862325D01*
X160189058Y-132774703D01*
X160345063Y-132618698D01*
X160491303Y-132520984D01*
X160528501Y-132496129D01*
X160698355Y-132425773D01*
X160732325Y-132411702D01*
X160732326Y-132411702D01*
X160732328Y-132411701D01*
X160948710Y-132368660D01*
X161169330Y-132368660D01*
X161385712Y-132411701D01*
G37*
G36*
X169005712Y-132411701D02*
G01*
X169005714Y-132411702D01*
X169005715Y-132411702D01*
X169039685Y-132425773D01*
X169209539Y-132496129D01*
X169246737Y-132520984D01*
X169392977Y-132618698D01*
X169548982Y-132774703D01*
X169607529Y-132862325D01*
X169671551Y-132958141D01*
X169755979Y-133161968D01*
X169799020Y-133378350D01*
X169799020Y-133598970D01*
X169755979Y-133815352D01*
X169671551Y-134019179D01*
X169660158Y-134036230D01*
X169548982Y-134202617D01*
X169392977Y-134358622D01*
X169332620Y-134398951D01*
X169209539Y-134481191D01*
X169065414Y-134540889D01*
X169005715Y-134565618D01*
X169005714Y-134565618D01*
X169005712Y-134565619D01*
X168789330Y-134608660D01*
X168568710Y-134608660D01*
X168352328Y-134565619D01*
X168352326Y-134565618D01*
X168352325Y-134565618D01*
X168292626Y-134540889D01*
X168148501Y-134481191D01*
X168025420Y-134398951D01*
X167965063Y-134358622D01*
X167809058Y-134202617D01*
X167697882Y-134036230D01*
X167686489Y-134019179D01*
X167602061Y-133815352D01*
X167559020Y-133598970D01*
X167559020Y-133378350D01*
X167602061Y-133161968D01*
X167686489Y-132958141D01*
X167750511Y-132862325D01*
X167809058Y-132774703D01*
X167965063Y-132618698D01*
X168111303Y-132520984D01*
X168148501Y-132496129D01*
X168318355Y-132425773D01*
X168352325Y-132411702D01*
X168352326Y-132411702D01*
X168352328Y-132411701D01*
X168568710Y-132368660D01*
X168789330Y-132368660D01*
X169005712Y-132411701D01*
G37*
G36*
X165195712Y-132411701D02*
G01*
X165195714Y-132411702D01*
X165195715Y-132411702D01*
X165229685Y-132425773D01*
X165399539Y-132496129D01*
X165436737Y-132520984D01*
X165582977Y-132618698D01*
X165738982Y-132774703D01*
X165797529Y-132862325D01*
X165861551Y-132958141D01*
X165945979Y-133161968D01*
X165989020Y-133378350D01*
X165989020Y-133598970D01*
X165945979Y-133815352D01*
X165861551Y-134019179D01*
X165850158Y-134036230D01*
X165738982Y-134202617D01*
X165582977Y-134358622D01*
X165522620Y-134398951D01*
X165399539Y-134481191D01*
X165255414Y-134540889D01*
X165195715Y-134565618D01*
X165195714Y-134565618D01*
X165195712Y-134565619D01*
X164979330Y-134608660D01*
X164758710Y-134608660D01*
X164542328Y-134565619D01*
X164542326Y-134565618D01*
X164542325Y-134565618D01*
X164482626Y-134540889D01*
X164338501Y-134481191D01*
X164215420Y-134398951D01*
X164155063Y-134358622D01*
X163999058Y-134202617D01*
X163887882Y-134036230D01*
X163876489Y-134019179D01*
X163792061Y-133815352D01*
X163749020Y-133598970D01*
X163749020Y-133378350D01*
X163792061Y-133161968D01*
X163876489Y-132958141D01*
X163940511Y-132862325D01*
X163999058Y-132774703D01*
X164155063Y-132618698D01*
X164301303Y-132520984D01*
X164338501Y-132496129D01*
X164508355Y-132425773D01*
X164542325Y-132411702D01*
X164542326Y-132411702D01*
X164542328Y-132411701D01*
X164758710Y-132368660D01*
X164979330Y-132368660D01*
X165195712Y-132411701D01*
G37*
G36*
X141445686Y-134523660D02*
G01*
X139405686Y-134523660D01*
X139405686Y-132483660D01*
X141445686Y-132483660D01*
X141445686Y-134523660D01*
G37*
G36*
X102860000Y-134520000D02*
G01*
X100820000Y-134520000D01*
X100820000Y-132480000D01*
X102860000Y-132480000D01*
X102860000Y-134520000D01*
G37*
G36*
X158269020Y-134508660D02*
G01*
X156229020Y-134508660D01*
X156229020Y-132468660D01*
X158269020Y-132468660D01*
X158269020Y-134508660D01*
G37*
G36*
X127022921Y-130893373D02*
G01*
X127123770Y-130913433D01*
X127282100Y-130979016D01*
X127424593Y-131074227D01*
X127545773Y-131195407D01*
X127640984Y-131337900D01*
X127706567Y-131496230D01*
X127714304Y-131535127D01*
X127738237Y-131655445D01*
X127740000Y-131664312D01*
X127740000Y-131835688D01*
X127706567Y-132003770D01*
X127640984Y-132162100D01*
X127545773Y-132304593D01*
X127424593Y-132425773D01*
X127282100Y-132520984D01*
X127123770Y-132586567D01*
X127022921Y-132606627D01*
X126955690Y-132620000D01*
X126784310Y-132620000D01*
X126717079Y-132606627D01*
X126616230Y-132586567D01*
X126457900Y-132520984D01*
X126315407Y-132425773D01*
X126194227Y-132304593D01*
X126099016Y-132162100D01*
X126033433Y-132003770D01*
X126000000Y-131835688D01*
X126000000Y-131664312D01*
X126001764Y-131655445D01*
X126025696Y-131535127D01*
X126033433Y-131496230D01*
X126099016Y-131337900D01*
X126194227Y-131195407D01*
X126315407Y-131074227D01*
X126457900Y-130979016D01*
X126616230Y-130913433D01*
X126717079Y-130893373D01*
X126784310Y-130880000D01*
X126955690Y-130880000D01*
X127022921Y-130893373D01*
G37*
G36*
X129562921Y-130893373D02*
G01*
X129663770Y-130913433D01*
X129822100Y-130979016D01*
X129964593Y-131074227D01*
X130085773Y-131195407D01*
X130180984Y-131337900D01*
X130246567Y-131496230D01*
X130254304Y-131535127D01*
X130278237Y-131655445D01*
X130280000Y-131664312D01*
X130280000Y-131835688D01*
X130246567Y-132003770D01*
X130180984Y-132162100D01*
X130085773Y-132304593D01*
X129964593Y-132425773D01*
X129822100Y-132520984D01*
X129663770Y-132586567D01*
X129562921Y-132606627D01*
X129495690Y-132620000D01*
X129324310Y-132620000D01*
X129257079Y-132606627D01*
X129156230Y-132586567D01*
X128997900Y-132520984D01*
X128855407Y-132425773D01*
X128734227Y-132304593D01*
X128639016Y-132162100D01*
X128573433Y-132003770D01*
X128540000Y-131835688D01*
X128540000Y-131664312D01*
X128541764Y-131655445D01*
X128565696Y-131535127D01*
X128573433Y-131496230D01*
X128639016Y-131337900D01*
X128734227Y-131195407D01*
X128855407Y-131074227D01*
X128997900Y-130979016D01*
X129156230Y-130913433D01*
X129257079Y-130893373D01*
X129324310Y-130880000D01*
X129495690Y-130880000D01*
X129562921Y-130893373D01*
G37*
G36*
X132820000Y-132620000D02*
G01*
X131080000Y-132620000D01*
X131080000Y-130880000D01*
X132820000Y-130880000D01*
X132820000Y-132620000D01*
G37*
G36*
X182577798Y-129963571D02*
G01*
X182694672Y-129999024D01*
X182802378Y-130056594D01*
X182802380Y-130056595D01*
X182802379Y-130056595D01*
X182896787Y-130134073D01*
X182974265Y-130228480D01*
X182974266Y-130228482D01*
X183031836Y-130336187D01*
X183067289Y-130453061D01*
X183076260Y-130544146D01*
X183076260Y-131155054D01*
X183067289Y-131246139D01*
X183031836Y-131363013D01*
X182974266Y-131470719D01*
X182896787Y-131565127D01*
X182802379Y-131642606D01*
X182694673Y-131700176D01*
X182577799Y-131735629D01*
X182456260Y-131747600D01*
X182334722Y-131735629D01*
X182217848Y-131700176D01*
X182110142Y-131642606D01*
X182015734Y-131565127D01*
X182007527Y-131555127D01*
X181938256Y-131470720D01*
X181880684Y-131363011D01*
X181880683Y-131363010D01*
X181845231Y-131246139D01*
X181836260Y-131155054D01*
X181836260Y-130544147D01*
X181845231Y-130453062D01*
X181880684Y-130336188D01*
X181938254Y-130228482D01*
X181994852Y-130159517D01*
X182015733Y-130134073D01*
X182110140Y-130056595D01*
X182159402Y-130030264D01*
X182217847Y-129999024D01*
X182334721Y-129963571D01*
X182456260Y-129951600D01*
X182577798Y-129963571D01*
G37*
G36*
X180915185Y-129958918D02*
G01*
X180952614Y-129970272D01*
X180987105Y-129988707D01*
X181017339Y-130013521D01*
X181042153Y-130043755D01*
X181060588Y-130078246D01*
X181071942Y-130115675D01*
X181076260Y-130159517D01*
X181076260Y-131539683D01*
X181071942Y-131583525D01*
X181060588Y-131620954D01*
X181042153Y-131655445D01*
X181017339Y-131685679D01*
X180987105Y-131710493D01*
X180952614Y-131728928D01*
X180915185Y-131740282D01*
X180871343Y-131744600D01*
X180041177Y-131744600D01*
X179997335Y-131740282D01*
X179959906Y-131728928D01*
X179925415Y-131710493D01*
X179895181Y-131685679D01*
X179870367Y-131655445D01*
X179851932Y-131620954D01*
X179840578Y-131583525D01*
X179836260Y-131539683D01*
X179836260Y-130159517D01*
X179840578Y-130115675D01*
X179851932Y-130078246D01*
X179870367Y-130043755D01*
X179895181Y-130013521D01*
X179925415Y-129988707D01*
X179959906Y-129970272D01*
X179997335Y-129958918D01*
X180041177Y-129954600D01*
X180871343Y-129954600D01*
X180915185Y-129958918D01*
G37*
G36*
X175452258Y-129933571D02*
G01*
X175569132Y-129969024D01*
X175676838Y-130026594D01*
X175676840Y-130026595D01*
X175676839Y-130026595D01*
X175771247Y-130104073D01*
X175848725Y-130198480D01*
X175848726Y-130198482D01*
X175906296Y-130306187D01*
X175941749Y-130423061D01*
X175950720Y-130514146D01*
X175950720Y-131125054D01*
X175941749Y-131216139D01*
X175906296Y-131333013D01*
X175848726Y-131440719D01*
X175771247Y-131535127D01*
X175676839Y-131612606D01*
X175569133Y-131670176D01*
X175452259Y-131705629D01*
X175330720Y-131717600D01*
X175209182Y-131705629D01*
X175092308Y-131670176D01*
X174984602Y-131612606D01*
X174890194Y-131535127D01*
X174866837Y-131506666D01*
X174812716Y-131440720D01*
X174771179Y-131363010D01*
X174755143Y-131333010D01*
X174719691Y-131216139D01*
X174710720Y-131125054D01*
X174710720Y-130514147D01*
X174719691Y-130423062D01*
X174755144Y-130306188D01*
X174812714Y-130198482D01*
X174844692Y-130159517D01*
X174890193Y-130104073D01*
X174984600Y-130026595D01*
X175033862Y-130000264D01*
X175092307Y-129969024D01*
X175209181Y-129933571D01*
X175330720Y-129921600D01*
X175452258Y-129933571D01*
G37*
G36*
X173789645Y-129928918D02*
G01*
X173827074Y-129940272D01*
X173861565Y-129958707D01*
X173891799Y-129983521D01*
X173916613Y-130013755D01*
X173935048Y-130048246D01*
X173946402Y-130085675D01*
X173950720Y-130129517D01*
X173950720Y-131509683D01*
X173946402Y-131553525D01*
X173935048Y-131590954D01*
X173916613Y-131625445D01*
X173891799Y-131655679D01*
X173861565Y-131680493D01*
X173827074Y-131698928D01*
X173789645Y-131710282D01*
X173745803Y-131714600D01*
X172915637Y-131714600D01*
X172871795Y-131710282D01*
X172834366Y-131698928D01*
X172799875Y-131680493D01*
X172769641Y-131655679D01*
X172744827Y-131625445D01*
X172726392Y-131590954D01*
X172715038Y-131553525D01*
X172710720Y-131509683D01*
X172710720Y-130129517D01*
X172715038Y-130085675D01*
X172726392Y-130048246D01*
X172744827Y-130013755D01*
X172769641Y-129983521D01*
X172799875Y-129958707D01*
X172834366Y-129940272D01*
X172871795Y-129928918D01*
X172915637Y-129924600D01*
X173745803Y-129924600D01*
X173789645Y-129928918D01*
G37*
G36*
X117662921Y-128493373D02*
G01*
X117763770Y-128513433D01*
X117922100Y-128579016D01*
X118064593Y-128674227D01*
X118185773Y-128795407D01*
X118280984Y-128937900D01*
X118346567Y-129096230D01*
X118380000Y-129264312D01*
X118380000Y-129435688D01*
X118346567Y-129603770D01*
X118280984Y-129762100D01*
X118185773Y-129904593D01*
X118064593Y-130025773D01*
X117922100Y-130120984D01*
X117763770Y-130186567D01*
X117662921Y-130206627D01*
X117595690Y-130220000D01*
X117424310Y-130220000D01*
X117357079Y-130206627D01*
X117256230Y-130186567D01*
X117097900Y-130120984D01*
X116955407Y-130025773D01*
X116834227Y-129904593D01*
X116739016Y-129762100D01*
X116673433Y-129603770D01*
X116640000Y-129435688D01*
X116640000Y-129264312D01*
X116673433Y-129096230D01*
X116739016Y-128937900D01*
X116834227Y-128795407D01*
X116955407Y-128674227D01*
X117097900Y-128579016D01*
X117256230Y-128513433D01*
X117357079Y-128493373D01*
X117424310Y-128480000D01*
X117595690Y-128480000D01*
X117662921Y-128493373D01*
G37*
G36*
X120920000Y-130220000D02*
G01*
X119180000Y-130220000D01*
X119180000Y-128480000D01*
X120920000Y-128480000D01*
X120920000Y-130220000D01*
G37*
G36*
X205772536Y-122817256D02*
G01*
X205772538Y-122817257D01*
X205772539Y-122817257D01*
X205881444Y-122862367D01*
X206067358Y-122939375D01*
X206332689Y-123116664D01*
X206558336Y-123342311D01*
X206735625Y-123607642D01*
X206857744Y-123902464D01*
X206920000Y-124215444D01*
X206920000Y-124534556D01*
X206857744Y-124847536D01*
X206735625Y-125142358D01*
X206558336Y-125407689D01*
X206332689Y-125633336D01*
X206067358Y-125810625D01*
X205881444Y-125887633D01*
X205772539Y-125932743D01*
X205772538Y-125932743D01*
X205772536Y-125932744D01*
X205459556Y-125995000D01*
X205140444Y-125995000D01*
X204827464Y-125932744D01*
X204827462Y-125932743D01*
X204827461Y-125932743D01*
X204718556Y-125887633D01*
X204532642Y-125810625D01*
X204267311Y-125633336D01*
X204041664Y-125407689D01*
X203864375Y-125142358D01*
X203742256Y-124847536D01*
X203680000Y-124534556D01*
X203680000Y-124215444D01*
X203742256Y-123902464D01*
X203864375Y-123607642D01*
X204041664Y-123342311D01*
X204267311Y-123116664D01*
X204532642Y-122939375D01*
X204718556Y-122862367D01*
X204827461Y-122817257D01*
X204827462Y-122817257D01*
X204827464Y-122817256D01*
X205140444Y-122755000D01*
X205459556Y-122755000D01*
X205772536Y-122817256D01*
G37*
G36*
X129772536Y-122817256D02*
G01*
X129772538Y-122817257D01*
X129772539Y-122817257D01*
X129881444Y-122862367D01*
X130067358Y-122939375D01*
X130332689Y-123116664D01*
X130558336Y-123342311D01*
X130735625Y-123607642D01*
X130857744Y-123902464D01*
X130920000Y-124215444D01*
X130920000Y-124534556D01*
X130857744Y-124847536D01*
X130735625Y-125142358D01*
X130558336Y-125407689D01*
X130332689Y-125633336D01*
X130067358Y-125810625D01*
X129881444Y-125887633D01*
X129772539Y-125932743D01*
X129772538Y-125932743D01*
X129772536Y-125932744D01*
X129459556Y-125995000D01*
X129140444Y-125995000D01*
X128827464Y-125932744D01*
X128827462Y-125932743D01*
X128827461Y-125932743D01*
X128718556Y-125887633D01*
X128532642Y-125810625D01*
X128267311Y-125633336D01*
X128041664Y-125407689D01*
X127864375Y-125142358D01*
X127742256Y-124847536D01*
X127680000Y-124534556D01*
X127680000Y-124215444D01*
X127742256Y-123902464D01*
X127864375Y-123607642D01*
X128041664Y-123342311D01*
X128267311Y-123116664D01*
X128532642Y-122939375D01*
X128718556Y-122862367D01*
X128827461Y-122817257D01*
X128827462Y-122817257D01*
X128827464Y-122817256D01*
X129140444Y-122755000D01*
X129459556Y-122755000D01*
X129772536Y-122817256D01*
G37*
G36*
X125170000Y-119745000D02*
G01*
X123430000Y-119745000D01*
X123430000Y-118005000D01*
X125170000Y-118005000D01*
X125170000Y-119745000D01*
G37*
G36*
X198226692Y-117283041D02*
G01*
X198226694Y-117283042D01*
X198226695Y-117283042D01*
X198252587Y-117293767D01*
X198430519Y-117367469D01*
X198522239Y-117428754D01*
X198613957Y-117490038D01*
X198769962Y-117646043D01*
X198779268Y-117659971D01*
X198892531Y-117829481D01*
X198925883Y-117910000D01*
X198965234Y-118005000D01*
X198976959Y-118033308D01*
X199020000Y-118249690D01*
X199020000Y-118470310D01*
X198976959Y-118686692D01*
X198892531Y-118890519D01*
X198769961Y-119073958D01*
X198613958Y-119229961D01*
X198430519Y-119352531D01*
X198286394Y-119412229D01*
X198226695Y-119436958D01*
X198226694Y-119436958D01*
X198226692Y-119436959D01*
X198010310Y-119480000D01*
X197789690Y-119480000D01*
X197573308Y-119436959D01*
X197573306Y-119436958D01*
X197573305Y-119436958D01*
X197513606Y-119412229D01*
X197369481Y-119352531D01*
X197186042Y-119229961D01*
X197030039Y-119073958D01*
X196907469Y-118890519D01*
X196823041Y-118686692D01*
X196780000Y-118470310D01*
X196780000Y-118249690D01*
X196823041Y-118033308D01*
X196834767Y-118005000D01*
X196874117Y-117910000D01*
X196907469Y-117829481D01*
X197020732Y-117659971D01*
X197030038Y-117646043D01*
X197186043Y-117490038D01*
X197277761Y-117428754D01*
X197369481Y-117367469D01*
X197547413Y-117293767D01*
X197573305Y-117283042D01*
X197573306Y-117283042D01*
X197573308Y-117283041D01*
X197789690Y-117240000D01*
X198010310Y-117240000D01*
X198226692Y-117283041D01*
G37*
G36*
X190606692Y-117283041D02*
G01*
X190606694Y-117283042D01*
X190606695Y-117283042D01*
X190632587Y-117293767D01*
X190810519Y-117367469D01*
X190902239Y-117428754D01*
X190993957Y-117490038D01*
X191149962Y-117646043D01*
X191159268Y-117659971D01*
X191272531Y-117829481D01*
X191305883Y-117910000D01*
X191345234Y-118005000D01*
X191356959Y-118033308D01*
X191400000Y-118249690D01*
X191400000Y-118470310D01*
X191356959Y-118686692D01*
X191272531Y-118890519D01*
X191149961Y-119073958D01*
X190993958Y-119229961D01*
X190810519Y-119352531D01*
X190666394Y-119412229D01*
X190606695Y-119436958D01*
X190606694Y-119436958D01*
X190606692Y-119436959D01*
X190390310Y-119480000D01*
X190169690Y-119480000D01*
X189953308Y-119436959D01*
X189953306Y-119436958D01*
X189953305Y-119436958D01*
X189893606Y-119412229D01*
X189749481Y-119352531D01*
X189566042Y-119229961D01*
X189410039Y-119073958D01*
X189287469Y-118890519D01*
X189203041Y-118686692D01*
X189160000Y-118470310D01*
X189160000Y-118249690D01*
X189203041Y-118033308D01*
X189214767Y-118005000D01*
X189254117Y-117910000D01*
X189287469Y-117829481D01*
X189400732Y-117659971D01*
X189410038Y-117646043D01*
X189566043Y-117490038D01*
X189657761Y-117428754D01*
X189749481Y-117367469D01*
X189927413Y-117293767D01*
X189953305Y-117283042D01*
X189953306Y-117283042D01*
X189953308Y-117283041D01*
X190169690Y-117240000D01*
X190390310Y-117240000D01*
X190606692Y-117283041D01*
G37*
G36*
X194416692Y-117283041D02*
G01*
X194416694Y-117283042D01*
X194416695Y-117283042D01*
X194442587Y-117293767D01*
X194620519Y-117367469D01*
X194712239Y-117428754D01*
X194803957Y-117490038D01*
X194959962Y-117646043D01*
X194969268Y-117659971D01*
X195082531Y-117829481D01*
X195115883Y-117910000D01*
X195155234Y-118005000D01*
X195166959Y-118033308D01*
X195210000Y-118249690D01*
X195210000Y-118470310D01*
X195166959Y-118686692D01*
X195082531Y-118890519D01*
X194959961Y-119073958D01*
X194803958Y-119229961D01*
X194620519Y-119352531D01*
X194476394Y-119412229D01*
X194416695Y-119436958D01*
X194416694Y-119436958D01*
X194416692Y-119436959D01*
X194200310Y-119480000D01*
X193979690Y-119480000D01*
X193763308Y-119436959D01*
X193763306Y-119436958D01*
X193763305Y-119436958D01*
X193703606Y-119412229D01*
X193559481Y-119352531D01*
X193376042Y-119229961D01*
X193220039Y-119073958D01*
X193097469Y-118890519D01*
X193013041Y-118686692D01*
X192970000Y-118470310D01*
X192970000Y-118249690D01*
X193013041Y-118033308D01*
X193024767Y-118005000D01*
X193064117Y-117910000D01*
X193097469Y-117829481D01*
X193210732Y-117659971D01*
X193220038Y-117646043D01*
X193376043Y-117490038D01*
X193467761Y-117428754D01*
X193559481Y-117367469D01*
X193737413Y-117293767D01*
X193763305Y-117283042D01*
X193763306Y-117283042D01*
X193763308Y-117283041D01*
X193979690Y-117240000D01*
X194200310Y-117240000D01*
X194416692Y-117283041D01*
G37*
G36*
X187490000Y-119380000D02*
G01*
X185450000Y-119380000D01*
X185450000Y-117340000D01*
X187490000Y-117340000D01*
X187490000Y-119380000D01*
G37*
G36*
X117889745Y-116380743D02*
G01*
X117889747Y-116380744D01*
X117889748Y-116380744D01*
X117986185Y-116420690D01*
X118035336Y-116441049D01*
X118166364Y-116528599D01*
X118277795Y-116640030D01*
X118365345Y-116771058D01*
X118425651Y-116916649D01*
X118456394Y-117071207D01*
X118456394Y-117228793D01*
X118425651Y-117383351D01*
X118365345Y-117528942D01*
X118277795Y-117659970D01*
X118166364Y-117771401D01*
X118079441Y-117829481D01*
X118035336Y-117858951D01*
X117889748Y-117919256D01*
X117889747Y-117919256D01*
X117889745Y-117919257D01*
X117735187Y-117950000D01*
X117577601Y-117950000D01*
X117423043Y-117919257D01*
X117423041Y-117919256D01*
X117423040Y-117919256D01*
X117277452Y-117858951D01*
X117233347Y-117829481D01*
X117146424Y-117771401D01*
X117034993Y-117659970D01*
X116947443Y-117528942D01*
X116887137Y-117383351D01*
X116856394Y-117228793D01*
X116856394Y-117071207D01*
X116887137Y-116916649D01*
X116947443Y-116771058D01*
X117034993Y-116640030D01*
X117146424Y-116528599D01*
X117277452Y-116441049D01*
X117326603Y-116420690D01*
X117423040Y-116380744D01*
X117423041Y-116380744D01*
X117423043Y-116380743D01*
X117577601Y-116350000D01*
X117735187Y-116350000D01*
X117889745Y-116380743D01*
G37*
G36*
X92489745Y-116380743D02*
G01*
X92489747Y-116380744D01*
X92489748Y-116380744D01*
X92586185Y-116420690D01*
X92635336Y-116441049D01*
X92766364Y-116528599D01*
X92877795Y-116640030D01*
X92965345Y-116771058D01*
X93025651Y-116916649D01*
X93056394Y-117071207D01*
X93056394Y-117228793D01*
X93025651Y-117383351D01*
X92965345Y-117528942D01*
X92877795Y-117659970D01*
X92766364Y-117771401D01*
X92679441Y-117829481D01*
X92635336Y-117858951D01*
X92489748Y-117919256D01*
X92489747Y-117919256D01*
X92489745Y-117919257D01*
X92335187Y-117950000D01*
X92177601Y-117950000D01*
X92023043Y-117919257D01*
X92023041Y-117919256D01*
X92023040Y-117919256D01*
X91877452Y-117858951D01*
X91833347Y-117829481D01*
X91746424Y-117771401D01*
X91634993Y-117659970D01*
X91547443Y-117528942D01*
X91487137Y-117383351D01*
X91456394Y-117228793D01*
X91456394Y-117071207D01*
X91487137Y-116916649D01*
X91547443Y-116771058D01*
X91634993Y-116640030D01*
X91746424Y-116528599D01*
X91877452Y-116441049D01*
X91926603Y-116420690D01*
X92023040Y-116380744D01*
X92023041Y-116380744D01*
X92023043Y-116380743D01*
X92177601Y-116350000D01*
X92335187Y-116350000D01*
X92489745Y-116380743D01*
G37*
G36*
X132292921Y-116183373D02*
G01*
X132393770Y-116203433D01*
X132552100Y-116269016D01*
X132694593Y-116364227D01*
X132815773Y-116485407D01*
X132910984Y-116627900D01*
X132976567Y-116786230D01*
X132996627Y-116887079D01*
X133002509Y-116916649D01*
X133010000Y-116954312D01*
X133010000Y-117125688D01*
X132976567Y-117293770D01*
X132910984Y-117452100D01*
X132815773Y-117594593D01*
X132694593Y-117715773D01*
X132552100Y-117810984D01*
X132393770Y-117876567D01*
X132292921Y-117896627D01*
X132225690Y-117910000D01*
X132054310Y-117910000D01*
X131987079Y-117896627D01*
X131886230Y-117876567D01*
X131727900Y-117810984D01*
X131585407Y-117715773D01*
X131464227Y-117594593D01*
X131369016Y-117452100D01*
X131303433Y-117293770D01*
X131270000Y-117125688D01*
X131270000Y-116954312D01*
X131277492Y-116916649D01*
X131283373Y-116887079D01*
X131303433Y-116786230D01*
X131369016Y-116627900D01*
X131464227Y-116485407D01*
X131585407Y-116364227D01*
X131727900Y-116269016D01*
X131886230Y-116203433D01*
X131987079Y-116183373D01*
X132054310Y-116170000D01*
X132225690Y-116170000D01*
X132292921Y-116183373D01*
G37*
G36*
X124452921Y-115478373D02*
G01*
X124553770Y-115498433D01*
X124712100Y-115564016D01*
X124854593Y-115659227D01*
X124975773Y-115780407D01*
X125070984Y-115922900D01*
X125136567Y-116081230D01*
X125170000Y-116249312D01*
X125170000Y-116420688D01*
X125136567Y-116588770D01*
X125070984Y-116747100D01*
X124975773Y-116889593D01*
X124854593Y-117010773D01*
X124712100Y-117105984D01*
X124553770Y-117171567D01*
X124452921Y-117191627D01*
X124385690Y-117205000D01*
X124214310Y-117205000D01*
X124147079Y-117191627D01*
X124046230Y-117171567D01*
X123887900Y-117105984D01*
X123745407Y-117010773D01*
X123624227Y-116889593D01*
X123529016Y-116747100D01*
X123463433Y-116588770D01*
X123430000Y-116420688D01*
X123430000Y-116249312D01*
X123463433Y-116081230D01*
X123529016Y-115922900D01*
X123624227Y-115780407D01*
X123745407Y-115659227D01*
X123887900Y-115564016D01*
X124046230Y-115498433D01*
X124147079Y-115478373D01*
X124214310Y-115465000D01*
X124385690Y-115465000D01*
X124452921Y-115478373D01*
G37*
G36*
X92489745Y-113840743D02*
G01*
X92489747Y-113840744D01*
X92489748Y-113840744D01*
X92635336Y-113901049D01*
X92766365Y-113988600D01*
X92877794Y-114100029D01*
X92965345Y-114231058D01*
X93025650Y-114376646D01*
X93056394Y-114531209D01*
X93056394Y-114688791D01*
X93025650Y-114843354D01*
X92965345Y-114988942D01*
X92877794Y-115119971D01*
X92766365Y-115231400D01*
X92635336Y-115318951D01*
X92489748Y-115379256D01*
X92489747Y-115379256D01*
X92489745Y-115379257D01*
X92335187Y-115410000D01*
X92177601Y-115410000D01*
X92023043Y-115379257D01*
X92023041Y-115379256D01*
X92023040Y-115379256D01*
X91877452Y-115318951D01*
X91746423Y-115231400D01*
X91634994Y-115119971D01*
X91547443Y-114988942D01*
X91487138Y-114843354D01*
X91456394Y-114688791D01*
X91456394Y-114531209D01*
X91487138Y-114376646D01*
X91547443Y-114231058D01*
X91634994Y-114100029D01*
X91746423Y-113988600D01*
X91877452Y-113901049D01*
X92023040Y-113840744D01*
X92023041Y-113840744D01*
X92023043Y-113840743D01*
X92177601Y-113810000D01*
X92335187Y-113810000D01*
X92489745Y-113840743D01*
G37*
G36*
X117889745Y-113840743D02*
G01*
X117889747Y-113840744D01*
X117889748Y-113840744D01*
X118035336Y-113901049D01*
X118166365Y-113988600D01*
X118277794Y-114100029D01*
X118365345Y-114231058D01*
X118425650Y-114376646D01*
X118456394Y-114531209D01*
X118456394Y-114688791D01*
X118425650Y-114843354D01*
X118365345Y-114988942D01*
X118277794Y-115119971D01*
X118166365Y-115231400D01*
X118035336Y-115318951D01*
X117889748Y-115379256D01*
X117889747Y-115379256D01*
X117889745Y-115379257D01*
X117735187Y-115410000D01*
X117577601Y-115410000D01*
X117423043Y-115379257D01*
X117423041Y-115379256D01*
X117423040Y-115379256D01*
X117277452Y-115318951D01*
X117146423Y-115231400D01*
X117034994Y-115119971D01*
X116947443Y-114988942D01*
X116887138Y-114843354D01*
X116856394Y-114688791D01*
X116856394Y-114531209D01*
X116887138Y-114376646D01*
X116947443Y-114231058D01*
X117034994Y-114100029D01*
X117146423Y-113988600D01*
X117277452Y-113901049D01*
X117423040Y-113840744D01*
X117423041Y-113840744D01*
X117423043Y-113840743D01*
X117577601Y-113810000D01*
X117735187Y-113810000D01*
X117889745Y-113840743D01*
G37*
G36*
X133010000Y-115370000D02*
G01*
X131270000Y-115370000D01*
X131270000Y-113630000D01*
X133010000Y-113630000D01*
X133010000Y-115370000D01*
G37*
G36*
X124452921Y-112938373D02*
G01*
X124553770Y-112958433D01*
X124712100Y-113024016D01*
X124854593Y-113119227D01*
X124975773Y-113240407D01*
X125070984Y-113382900D01*
X125136567Y-113541230D01*
X125170000Y-113709312D01*
X125170000Y-113880688D01*
X125136567Y-114048770D01*
X125070984Y-114207100D01*
X124975773Y-114349593D01*
X124854593Y-114470773D01*
X124712100Y-114565984D01*
X124553770Y-114631567D01*
X124452921Y-114651627D01*
X124385690Y-114665000D01*
X124214310Y-114665000D01*
X124147079Y-114651627D01*
X124046230Y-114631567D01*
X123887900Y-114565984D01*
X123745407Y-114470773D01*
X123624227Y-114349593D01*
X123529016Y-114207100D01*
X123463433Y-114048770D01*
X123430000Y-113880688D01*
X123430000Y-113709312D01*
X123463433Y-113541230D01*
X123529016Y-113382900D01*
X123624227Y-113240407D01*
X123745407Y-113119227D01*
X123887900Y-113024016D01*
X124046230Y-112958433D01*
X124147079Y-112938373D01*
X124214310Y-112925000D01*
X124385690Y-112925000D01*
X124452921Y-112938373D01*
G37*
G36*
X92489745Y-111300743D02*
G01*
X92489747Y-111300744D01*
X92489748Y-111300744D01*
X92635336Y-111361049D01*
X92766365Y-111448600D01*
X92877794Y-111560029D01*
X92965345Y-111691058D01*
X93025650Y-111836646D01*
X93056394Y-111991209D01*
X93056394Y-112148791D01*
X93025650Y-112303354D01*
X92965345Y-112448942D01*
X92877794Y-112579971D01*
X92766365Y-112691400D01*
X92635336Y-112778951D01*
X92489748Y-112839256D01*
X92489747Y-112839256D01*
X92489745Y-112839257D01*
X92335187Y-112870000D01*
X92177601Y-112870000D01*
X92023043Y-112839257D01*
X92023041Y-112839256D01*
X92023040Y-112839256D01*
X91877452Y-112778951D01*
X91746423Y-112691400D01*
X91634994Y-112579971D01*
X91547443Y-112448942D01*
X91487138Y-112303354D01*
X91456394Y-112148791D01*
X91456394Y-111991209D01*
X91487138Y-111836646D01*
X91547443Y-111691058D01*
X91634994Y-111560029D01*
X91746423Y-111448600D01*
X91877452Y-111361049D01*
X92023040Y-111300744D01*
X92023041Y-111300744D01*
X92023043Y-111300743D01*
X92177601Y-111270000D01*
X92335187Y-111270000D01*
X92489745Y-111300743D01*
G37*
G36*
X117889745Y-111300743D02*
G01*
X117889747Y-111300744D01*
X117889748Y-111300744D01*
X118035336Y-111361049D01*
X118166365Y-111448600D01*
X118277794Y-111560029D01*
X118365345Y-111691058D01*
X118425650Y-111836646D01*
X118456394Y-111991209D01*
X118456394Y-112148791D01*
X118425650Y-112303354D01*
X118365345Y-112448942D01*
X118277794Y-112579971D01*
X118166365Y-112691400D01*
X118035336Y-112778951D01*
X117889748Y-112839256D01*
X117889747Y-112839256D01*
X117889745Y-112839257D01*
X117735187Y-112870000D01*
X117577601Y-112870000D01*
X117423043Y-112839257D01*
X117423041Y-112839256D01*
X117423040Y-112839256D01*
X117277452Y-112778951D01*
X117146423Y-112691400D01*
X117034994Y-112579971D01*
X116947443Y-112448942D01*
X116887138Y-112303354D01*
X116856394Y-112148791D01*
X116856394Y-111991209D01*
X116887138Y-111836646D01*
X116947443Y-111691058D01*
X117034994Y-111560029D01*
X117146423Y-111448600D01*
X117277452Y-111361049D01*
X117423040Y-111300744D01*
X117423041Y-111300744D01*
X117423043Y-111300743D01*
X117577601Y-111270000D01*
X117735187Y-111270000D01*
X117889745Y-111300743D01*
G37*
G36*
X124452921Y-110398373D02*
G01*
X124553770Y-110418433D01*
X124712100Y-110484016D01*
X124854593Y-110579227D01*
X124975773Y-110700407D01*
X125070984Y-110842900D01*
X125136567Y-111001230D01*
X125170000Y-111169312D01*
X125170000Y-111340688D01*
X125136567Y-111508770D01*
X125070984Y-111667100D01*
X124975773Y-111809593D01*
X124854593Y-111930773D01*
X124712100Y-112025984D01*
X124553770Y-112091567D01*
X124452921Y-112111627D01*
X124385690Y-112125000D01*
X124214310Y-112125000D01*
X124147079Y-112111627D01*
X124046230Y-112091567D01*
X123887900Y-112025984D01*
X123745407Y-111930773D01*
X123624227Y-111809593D01*
X123529016Y-111667100D01*
X123463433Y-111508770D01*
X123430000Y-111340688D01*
X123430000Y-111169312D01*
X123463433Y-111001230D01*
X123529016Y-110842900D01*
X123624227Y-110700407D01*
X123745407Y-110579227D01*
X123887900Y-110484016D01*
X124046230Y-110418433D01*
X124147079Y-110398373D01*
X124214310Y-110385000D01*
X124385690Y-110385000D01*
X124452921Y-110398373D01*
G37*
G36*
X117889745Y-108760743D02*
G01*
X117889747Y-108760744D01*
X117889748Y-108760744D01*
X118035336Y-108821049D01*
X118166365Y-108908600D01*
X118277794Y-109020029D01*
X118365345Y-109151058D01*
X118425650Y-109296646D01*
X118456394Y-109451209D01*
X118456394Y-109608791D01*
X118425650Y-109763354D01*
X118365345Y-109908942D01*
X118277794Y-110039971D01*
X118166365Y-110151400D01*
X118035336Y-110238951D01*
X117889748Y-110299256D01*
X117889747Y-110299256D01*
X117889745Y-110299257D01*
X117735187Y-110330000D01*
X117577601Y-110330000D01*
X117423043Y-110299257D01*
X117423041Y-110299256D01*
X117423040Y-110299256D01*
X117277452Y-110238951D01*
X117146423Y-110151400D01*
X117034994Y-110039971D01*
X116947443Y-109908942D01*
X116887138Y-109763354D01*
X116856394Y-109608791D01*
X116856394Y-109451209D01*
X116887138Y-109296646D01*
X116947443Y-109151058D01*
X117034994Y-109020029D01*
X117146423Y-108908600D01*
X117277452Y-108821049D01*
X117423040Y-108760744D01*
X117423041Y-108760744D01*
X117423043Y-108760743D01*
X117577601Y-108730000D01*
X117735187Y-108730000D01*
X117889745Y-108760743D01*
G37*
G36*
X92489745Y-108760743D02*
G01*
X92489747Y-108760744D01*
X92489748Y-108760744D01*
X92635336Y-108821049D01*
X92766365Y-108908600D01*
X92877794Y-109020029D01*
X92965345Y-109151058D01*
X93025650Y-109296646D01*
X93056394Y-109451209D01*
X93056394Y-109608791D01*
X93025650Y-109763354D01*
X92965345Y-109908942D01*
X92877794Y-110039971D01*
X92766365Y-110151400D01*
X92635336Y-110238951D01*
X92489748Y-110299256D01*
X92489747Y-110299256D01*
X92489745Y-110299257D01*
X92335187Y-110330000D01*
X92177601Y-110330000D01*
X92023043Y-110299257D01*
X92023041Y-110299256D01*
X92023040Y-110299256D01*
X91877452Y-110238951D01*
X91746423Y-110151400D01*
X91634994Y-110039971D01*
X91547443Y-109908942D01*
X91487138Y-109763354D01*
X91456394Y-109608791D01*
X91456394Y-109451209D01*
X91487138Y-109296646D01*
X91547443Y-109151058D01*
X91634994Y-109020029D01*
X91746423Y-108908600D01*
X91877452Y-108821049D01*
X92023040Y-108760744D01*
X92023041Y-108760744D01*
X92023043Y-108760743D01*
X92177601Y-108730000D01*
X92335187Y-108730000D01*
X92489745Y-108760743D01*
G37*
G36*
X124452921Y-107858373D02*
G01*
X124553770Y-107878433D01*
X124712100Y-107944016D01*
X124854593Y-108039227D01*
X124975773Y-108160407D01*
X125070984Y-108302900D01*
X125136567Y-108461230D01*
X125170000Y-108629312D01*
X125170000Y-108800688D01*
X125136567Y-108968770D01*
X125070984Y-109127100D01*
X124975773Y-109269593D01*
X124854593Y-109390773D01*
X124712100Y-109485984D01*
X124553770Y-109551567D01*
X124452921Y-109571627D01*
X124385690Y-109585000D01*
X124214310Y-109585000D01*
X124147079Y-109571627D01*
X124046230Y-109551567D01*
X123887900Y-109485984D01*
X123745407Y-109390773D01*
X123624227Y-109269593D01*
X123529016Y-109127100D01*
X123463433Y-108968770D01*
X123430000Y-108800688D01*
X123430000Y-108629312D01*
X123463433Y-108461230D01*
X123529016Y-108302900D01*
X123624227Y-108160407D01*
X123745407Y-108039227D01*
X123887900Y-107944016D01*
X124046230Y-107878433D01*
X124147079Y-107858373D01*
X124214310Y-107845000D01*
X124385690Y-107845000D01*
X124452921Y-107858373D01*
G37*
G36*
X117889745Y-106220743D02*
G01*
X117889747Y-106220744D01*
X117889748Y-106220744D01*
X118035336Y-106281049D01*
X118166365Y-106368600D01*
X118277794Y-106480029D01*
X118365345Y-106611058D01*
X118425650Y-106756646D01*
X118456394Y-106911209D01*
X118456394Y-107068791D01*
X118425650Y-107223354D01*
X118365345Y-107368942D01*
X118277794Y-107499971D01*
X118166365Y-107611400D01*
X118035336Y-107698951D01*
X117889748Y-107759256D01*
X117889747Y-107759256D01*
X117889745Y-107759257D01*
X117735187Y-107790000D01*
X117577601Y-107790000D01*
X117423043Y-107759257D01*
X117423041Y-107759256D01*
X117423040Y-107759256D01*
X117277452Y-107698951D01*
X117146423Y-107611400D01*
X117034994Y-107499971D01*
X116947443Y-107368942D01*
X116887138Y-107223354D01*
X116856394Y-107068791D01*
X116856394Y-106911209D01*
X116887138Y-106756646D01*
X116947443Y-106611058D01*
X117034994Y-106480029D01*
X117146423Y-106368600D01*
X117277452Y-106281049D01*
X117423040Y-106220744D01*
X117423041Y-106220744D01*
X117423043Y-106220743D01*
X117577601Y-106190000D01*
X117735187Y-106190000D01*
X117889745Y-106220743D01*
G37*
G36*
X92489745Y-106220743D02*
G01*
X92489747Y-106220744D01*
X92489748Y-106220744D01*
X92635336Y-106281049D01*
X92766365Y-106368600D01*
X92877794Y-106480029D01*
X92965345Y-106611058D01*
X93025650Y-106756646D01*
X93056394Y-106911209D01*
X93056394Y-107068791D01*
X93025650Y-107223354D01*
X92965345Y-107368942D01*
X92877794Y-107499971D01*
X92766365Y-107611400D01*
X92635336Y-107698951D01*
X92489748Y-107759256D01*
X92489747Y-107759256D01*
X92489745Y-107759257D01*
X92335187Y-107790000D01*
X92177601Y-107790000D01*
X92023043Y-107759257D01*
X92023041Y-107759256D01*
X92023040Y-107759256D01*
X91877452Y-107698951D01*
X91746423Y-107611400D01*
X91634994Y-107499971D01*
X91547443Y-107368942D01*
X91487138Y-107223354D01*
X91456394Y-107068791D01*
X91456394Y-106911209D01*
X91487138Y-106756646D01*
X91547443Y-106611058D01*
X91634994Y-106480029D01*
X91746423Y-106368600D01*
X91877452Y-106281049D01*
X92023040Y-106220744D01*
X92023041Y-106220744D01*
X92023043Y-106220743D01*
X92177601Y-106190000D01*
X92335187Y-106190000D01*
X92489745Y-106220743D01*
G37*
G36*
X124452921Y-105318373D02*
G01*
X124553770Y-105338433D01*
X124712100Y-105404016D01*
X124854593Y-105499227D01*
X124975773Y-105620407D01*
X125070984Y-105762900D01*
X125136567Y-105921230D01*
X125144416Y-105960690D01*
X125170000Y-106089310D01*
X125170000Y-106260690D01*
X125156627Y-106327921D01*
X125136567Y-106428770D01*
X125070984Y-106587100D01*
X124975773Y-106729593D01*
X124854593Y-106850773D01*
X124712100Y-106945984D01*
X124553770Y-107011567D01*
X124452921Y-107031627D01*
X124385690Y-107045000D01*
X124214310Y-107045000D01*
X124147079Y-107031627D01*
X124046230Y-107011567D01*
X123887900Y-106945984D01*
X123745407Y-106850773D01*
X123624227Y-106729593D01*
X123529016Y-106587100D01*
X123463433Y-106428770D01*
X123443373Y-106327921D01*
X123430000Y-106260690D01*
X123430000Y-106089310D01*
X123455584Y-105960690D01*
X123463433Y-105921230D01*
X123529016Y-105762900D01*
X123624227Y-105620407D01*
X123745407Y-105499227D01*
X123887900Y-105404016D01*
X124046230Y-105338433D01*
X124147079Y-105318373D01*
X124214310Y-105305000D01*
X124385690Y-105305000D01*
X124452921Y-105318373D01*
G37*
G36*
X205952921Y-105018373D02*
G01*
X206053770Y-105038433D01*
X206212100Y-105104016D01*
X206354593Y-105199227D01*
X206475773Y-105320407D01*
X206570984Y-105462900D01*
X206636567Y-105621230D01*
X206656627Y-105722079D01*
X206664747Y-105762900D01*
X206670000Y-105789312D01*
X206670000Y-105960688D01*
X206636567Y-106128770D01*
X206570984Y-106287100D01*
X206475773Y-106429593D01*
X206354593Y-106550773D01*
X206212100Y-106645984D01*
X206053770Y-106711567D01*
X205952921Y-106731627D01*
X205885690Y-106745000D01*
X205714310Y-106745000D01*
X205647079Y-106731627D01*
X205546230Y-106711567D01*
X205387900Y-106645984D01*
X205245407Y-106550773D01*
X205124227Y-106429593D01*
X205029016Y-106287100D01*
X204963433Y-106128770D01*
X204930000Y-105960688D01*
X204930000Y-105789312D01*
X204935254Y-105762900D01*
X204943373Y-105722079D01*
X204963433Y-105621230D01*
X205029016Y-105462900D01*
X205124227Y-105320407D01*
X205245407Y-105199227D01*
X205387900Y-105104016D01*
X205546230Y-105038433D01*
X205647079Y-105018373D01*
X205714310Y-105005000D01*
X205885690Y-105005000D01*
X205952921Y-105018373D01*
G37*
G36*
X92489745Y-103680743D02*
G01*
X92489747Y-103680744D01*
X92489748Y-103680744D01*
X92635336Y-103741049D01*
X92766365Y-103828600D01*
X92877794Y-103940029D01*
X92965345Y-104071058D01*
X93025650Y-104216646D01*
X93056394Y-104371209D01*
X93056394Y-104528791D01*
X93025650Y-104683354D01*
X92965345Y-104828942D01*
X92877794Y-104959971D01*
X92766365Y-105071400D01*
X92635336Y-105158951D01*
X92489748Y-105219256D01*
X92489747Y-105219256D01*
X92489745Y-105219257D01*
X92335187Y-105250000D01*
X92177601Y-105250000D01*
X92023043Y-105219257D01*
X92023041Y-105219256D01*
X92023040Y-105219256D01*
X91877452Y-105158951D01*
X91746423Y-105071400D01*
X91634994Y-104959971D01*
X91547443Y-104828942D01*
X91487138Y-104683354D01*
X91456394Y-104528791D01*
X91456394Y-104371209D01*
X91487138Y-104216646D01*
X91547443Y-104071058D01*
X91634994Y-103940029D01*
X91746423Y-103828600D01*
X91877452Y-103741049D01*
X92023040Y-103680744D01*
X92023041Y-103680744D01*
X92023043Y-103680743D01*
X92177601Y-103650000D01*
X92335187Y-103650000D01*
X92489745Y-103680743D01*
G37*
G36*
X117889745Y-103680743D02*
G01*
X117889747Y-103680744D01*
X117889748Y-103680744D01*
X118035336Y-103741049D01*
X118166365Y-103828600D01*
X118277794Y-103940029D01*
X118365345Y-104071058D01*
X118425650Y-104216646D01*
X118456394Y-104371209D01*
X118456394Y-104528791D01*
X118425650Y-104683354D01*
X118365345Y-104828942D01*
X118277794Y-104959971D01*
X118166365Y-105071400D01*
X118035336Y-105158951D01*
X117889748Y-105219256D01*
X117889747Y-105219256D01*
X117889745Y-105219257D01*
X117735187Y-105250000D01*
X117577601Y-105250000D01*
X117423043Y-105219257D01*
X117423041Y-105219256D01*
X117423040Y-105219256D01*
X117277452Y-105158951D01*
X117146423Y-105071400D01*
X117034994Y-104959971D01*
X116947443Y-104828942D01*
X116887138Y-104683354D01*
X116856394Y-104528791D01*
X116856394Y-104371209D01*
X116887138Y-104216646D01*
X116947443Y-104071058D01*
X117034994Y-103940029D01*
X117146423Y-103828600D01*
X117277452Y-103741049D01*
X117423040Y-103680744D01*
X117423041Y-103680744D01*
X117423043Y-103680743D01*
X117577601Y-103650000D01*
X117735187Y-103650000D01*
X117889745Y-103680743D01*
G37*
G36*
X124452921Y-102778373D02*
G01*
X124553770Y-102798433D01*
X124712100Y-102864016D01*
X124854593Y-102959227D01*
X124975773Y-103080407D01*
X125070984Y-103222900D01*
X125136567Y-103381230D01*
X125144416Y-103420690D01*
X125170000Y-103549310D01*
X125170000Y-103720690D01*
X125156627Y-103787921D01*
X125136567Y-103888770D01*
X125070984Y-104047100D01*
X124975773Y-104189593D01*
X124854593Y-104310773D01*
X124712100Y-104405984D01*
X124553770Y-104471567D01*
X124452921Y-104491627D01*
X124385690Y-104505000D01*
X124214310Y-104505000D01*
X124147079Y-104491627D01*
X124046230Y-104471567D01*
X123887900Y-104405984D01*
X123745407Y-104310773D01*
X123624227Y-104189593D01*
X123529016Y-104047100D01*
X123463433Y-103888770D01*
X123443373Y-103787921D01*
X123430000Y-103720690D01*
X123430000Y-103549310D01*
X123455584Y-103420690D01*
X123463433Y-103381230D01*
X123529016Y-103222900D01*
X123624227Y-103080407D01*
X123745407Y-102959227D01*
X123887900Y-102864016D01*
X124046230Y-102798433D01*
X124147079Y-102778373D01*
X124214310Y-102765000D01*
X124385690Y-102765000D01*
X124452921Y-102778373D01*
G37*
G36*
X205952921Y-102478373D02*
G01*
X206053770Y-102498433D01*
X206212100Y-102564016D01*
X206354593Y-102659227D01*
X206475773Y-102780407D01*
X206570984Y-102922900D01*
X206636567Y-103081230D01*
X206656627Y-103182079D01*
X206664747Y-103222900D01*
X206670000Y-103249312D01*
X206670000Y-103420688D01*
X206636567Y-103588770D01*
X206570984Y-103747100D01*
X206475773Y-103889593D01*
X206354593Y-104010773D01*
X206212100Y-104105984D01*
X206053770Y-104171567D01*
X205952921Y-104191627D01*
X205885690Y-104205000D01*
X205714310Y-104205000D01*
X205647079Y-104191627D01*
X205546230Y-104171567D01*
X205387900Y-104105984D01*
X205245407Y-104010773D01*
X205124227Y-103889593D01*
X205029016Y-103747100D01*
X204963433Y-103588770D01*
X204930000Y-103420688D01*
X204930000Y-103249312D01*
X204935254Y-103222900D01*
X204943373Y-103182079D01*
X204963433Y-103081230D01*
X205029016Y-102922900D01*
X205124227Y-102780407D01*
X205245407Y-102659227D01*
X205387900Y-102564016D01*
X205546230Y-102498433D01*
X205647079Y-102478373D01*
X205714310Y-102465000D01*
X205885690Y-102465000D01*
X205952921Y-102478373D01*
G37*
G36*
X117889745Y-101140743D02*
G01*
X117889747Y-101140744D01*
X117889748Y-101140744D01*
X117986185Y-101180690D01*
X118035336Y-101201049D01*
X118166364Y-101288599D01*
X118277795Y-101400030D01*
X118325063Y-101470772D01*
X118365345Y-101531058D01*
X118406978Y-101631567D01*
X118425651Y-101676649D01*
X118444373Y-101770772D01*
X118456394Y-101831209D01*
X118456394Y-101988791D01*
X118425650Y-102143354D01*
X118365345Y-102288942D01*
X118277794Y-102419971D01*
X118166365Y-102531400D01*
X118035336Y-102618951D01*
X117889748Y-102679256D01*
X117889747Y-102679256D01*
X117889745Y-102679257D01*
X117735187Y-102710000D01*
X117577601Y-102710000D01*
X117423043Y-102679257D01*
X117423041Y-102679256D01*
X117423040Y-102679256D01*
X117277452Y-102618951D01*
X117146423Y-102531400D01*
X117034994Y-102419971D01*
X116947443Y-102288942D01*
X116887138Y-102143354D01*
X116856394Y-101988791D01*
X116856394Y-101831209D01*
X116868415Y-101770772D01*
X116887137Y-101676649D01*
X116905811Y-101631567D01*
X116947443Y-101531058D01*
X116987725Y-101470772D01*
X117034993Y-101400030D01*
X117146424Y-101288599D01*
X117277452Y-101201049D01*
X117326603Y-101180690D01*
X117423040Y-101140744D01*
X117423041Y-101140744D01*
X117423043Y-101140743D01*
X117577601Y-101110000D01*
X117735187Y-101110000D01*
X117889745Y-101140743D01*
G37*
G36*
X92489745Y-101140743D02*
G01*
X92489747Y-101140744D01*
X92489748Y-101140744D01*
X92586185Y-101180690D01*
X92635336Y-101201049D01*
X92766364Y-101288599D01*
X92877795Y-101400030D01*
X92925063Y-101470772D01*
X92965345Y-101531058D01*
X93006978Y-101631567D01*
X93025651Y-101676649D01*
X93044373Y-101770772D01*
X93056394Y-101831209D01*
X93056394Y-101988791D01*
X93025650Y-102143354D01*
X92965345Y-102288942D01*
X92877794Y-102419971D01*
X92766365Y-102531400D01*
X92635336Y-102618951D01*
X92489748Y-102679256D01*
X92489747Y-102679256D01*
X92489745Y-102679257D01*
X92335187Y-102710000D01*
X92177601Y-102710000D01*
X92023043Y-102679257D01*
X92023041Y-102679256D01*
X92023040Y-102679256D01*
X91877452Y-102618951D01*
X91746423Y-102531400D01*
X91634994Y-102419971D01*
X91547443Y-102288942D01*
X91487138Y-102143354D01*
X91456394Y-101988791D01*
X91456394Y-101831209D01*
X91468415Y-101770772D01*
X91487137Y-101676649D01*
X91505811Y-101631567D01*
X91547443Y-101531058D01*
X91587725Y-101470772D01*
X91634993Y-101400030D01*
X91746424Y-101288599D01*
X91877452Y-101201049D01*
X91926603Y-101180690D01*
X92023040Y-101140744D01*
X92023041Y-101140744D01*
X92023043Y-101140743D01*
X92177601Y-101110000D01*
X92335187Y-101110000D01*
X92489745Y-101140743D01*
G37*
G36*
X186245489Y-100324016D02*
G01*
X186369450Y-100348673D01*
X186527780Y-100414256D01*
X186670273Y-100509467D01*
X186791453Y-100630647D01*
X186886664Y-100773140D01*
X186952247Y-100931470D01*
X186967730Y-101009310D01*
X186975579Y-101048767D01*
X186985680Y-101099552D01*
X186985680Y-101270928D01*
X186952247Y-101439010D01*
X186886664Y-101597340D01*
X186791453Y-101739833D01*
X186670273Y-101861013D01*
X186527780Y-101956224D01*
X186369450Y-102021807D01*
X186268601Y-102041867D01*
X186201370Y-102055240D01*
X186029990Y-102055240D01*
X185962759Y-102041867D01*
X185861910Y-102021807D01*
X185703580Y-101956224D01*
X185561087Y-101861013D01*
X185439907Y-101739833D01*
X185344696Y-101597340D01*
X185279113Y-101439010D01*
X185245680Y-101270928D01*
X185245680Y-101099552D01*
X185255782Y-101048767D01*
X185263630Y-101009310D01*
X185279113Y-100931470D01*
X185344696Y-100773140D01*
X185439907Y-100630647D01*
X185561087Y-100509467D01*
X185703580Y-100414256D01*
X185861910Y-100348673D01*
X185985871Y-100324016D01*
X186029990Y-100315240D01*
X186201370Y-100315240D01*
X186245489Y-100324016D01*
G37*
G36*
X184445680Y-102055240D02*
G01*
X182705680Y-102055240D01*
X182705680Y-100315240D01*
X184445680Y-100315240D01*
X184445680Y-102055240D01*
G37*
G36*
X175049169Y-100324016D02*
G01*
X175173130Y-100348673D01*
X175331460Y-100414256D01*
X175473953Y-100509467D01*
X175595133Y-100630647D01*
X175690344Y-100773140D01*
X175755927Y-100931470D01*
X175771410Y-101009310D01*
X175779259Y-101048767D01*
X175789360Y-101099552D01*
X175789360Y-101270928D01*
X175755927Y-101439010D01*
X175690344Y-101597340D01*
X175595133Y-101739833D01*
X175473953Y-101861013D01*
X175331460Y-101956224D01*
X175173130Y-102021807D01*
X175072281Y-102041867D01*
X175005050Y-102055240D01*
X174833670Y-102055240D01*
X174766439Y-102041867D01*
X174665590Y-102021807D01*
X174507260Y-101956224D01*
X174364767Y-101861013D01*
X174243587Y-101739833D01*
X174148376Y-101597340D01*
X174082793Y-101439010D01*
X174049360Y-101270928D01*
X174049360Y-101099552D01*
X174059462Y-101048767D01*
X174067310Y-101009310D01*
X174082793Y-100931470D01*
X174148376Y-100773140D01*
X174243587Y-100630647D01*
X174364767Y-100509467D01*
X174507260Y-100414256D01*
X174665590Y-100348673D01*
X174789551Y-100324016D01*
X174833670Y-100315240D01*
X175005050Y-100315240D01*
X175049169Y-100324016D01*
G37*
G36*
X173249360Y-102055240D02*
G01*
X171509360Y-102055240D01*
X171509360Y-100315240D01*
X173249360Y-100315240D01*
X173249360Y-102055240D01*
G37*
G36*
X124452921Y-100238373D02*
G01*
X124553770Y-100258433D01*
X124712100Y-100324016D01*
X124854593Y-100419227D01*
X124975773Y-100540407D01*
X125070984Y-100682900D01*
X125136567Y-100841230D01*
X125154517Y-100931473D01*
X125170000Y-101009310D01*
X125170000Y-101180690D01*
X125156627Y-101247921D01*
X125136567Y-101348770D01*
X125070984Y-101507100D01*
X124975773Y-101649593D01*
X124854593Y-101770773D01*
X124712100Y-101865984D01*
X124553770Y-101931567D01*
X124452921Y-101951627D01*
X124385690Y-101965000D01*
X124214310Y-101965000D01*
X124147079Y-101951627D01*
X124046230Y-101931567D01*
X123887900Y-101865984D01*
X123745407Y-101770773D01*
X123624227Y-101649593D01*
X123529016Y-101507100D01*
X123463433Y-101348770D01*
X123443373Y-101247921D01*
X123430000Y-101180690D01*
X123430000Y-101009310D01*
X123445483Y-100931473D01*
X123463433Y-100841230D01*
X123529016Y-100682900D01*
X123624227Y-100540407D01*
X123745407Y-100419227D01*
X123887900Y-100324016D01*
X124046230Y-100258433D01*
X124147079Y-100238373D01*
X124214310Y-100225000D01*
X124385690Y-100225000D01*
X124452921Y-100238373D01*
G37*
G36*
X205952921Y-99938373D02*
G01*
X206053770Y-99958433D01*
X206212100Y-100024016D01*
X206354593Y-100119227D01*
X206475773Y-100240407D01*
X206570984Y-100382900D01*
X206636567Y-100541230D01*
X206654353Y-100630647D01*
X206670000Y-100709310D01*
X206670000Y-100880690D01*
X206656627Y-100947921D01*
X206636567Y-101048770D01*
X206570984Y-101207100D01*
X206475773Y-101349593D01*
X206354593Y-101470773D01*
X206212100Y-101565984D01*
X206053770Y-101631567D01*
X205952921Y-101651627D01*
X205885690Y-101665000D01*
X205714310Y-101665000D01*
X205647079Y-101651627D01*
X205546230Y-101631567D01*
X205387900Y-101565984D01*
X205245407Y-101470773D01*
X205124227Y-101349593D01*
X205029016Y-101207100D01*
X204963433Y-101048770D01*
X204943373Y-100947921D01*
X204930000Y-100880690D01*
X204930000Y-100709310D01*
X204945647Y-100630647D01*
X204963433Y-100541230D01*
X205029016Y-100382900D01*
X205124227Y-100240407D01*
X205245407Y-100119227D01*
X205387900Y-100024016D01*
X205546230Y-99958433D01*
X205647079Y-99938373D01*
X205714310Y-99925000D01*
X205885690Y-99925000D01*
X205952921Y-99938373D01*
G37*
G36*
X92489745Y-98600743D02*
G01*
X92489747Y-98600744D01*
X92489748Y-98600744D01*
X92635336Y-98661049D01*
X92766365Y-98748600D01*
X92877794Y-98860029D01*
X92965345Y-98991058D01*
X93025650Y-99136646D01*
X93056394Y-99291209D01*
X93056394Y-99448791D01*
X93025650Y-99603354D01*
X92965345Y-99748942D01*
X92877794Y-99879971D01*
X92766365Y-99991400D01*
X92635336Y-100078951D01*
X92489748Y-100139256D01*
X92489747Y-100139256D01*
X92489745Y-100139257D01*
X92335187Y-100170000D01*
X92177601Y-100170000D01*
X92023043Y-100139257D01*
X92023041Y-100139256D01*
X92023040Y-100139256D01*
X91877452Y-100078951D01*
X91746423Y-99991400D01*
X91634994Y-99879971D01*
X91547443Y-99748942D01*
X91487138Y-99603354D01*
X91456394Y-99448791D01*
X91456394Y-99291209D01*
X91487138Y-99136646D01*
X91547443Y-98991058D01*
X91634994Y-98860029D01*
X91746423Y-98748600D01*
X91877452Y-98661049D01*
X92023040Y-98600744D01*
X92023041Y-98600744D01*
X92023043Y-98600743D01*
X92177601Y-98570000D01*
X92335187Y-98570000D01*
X92489745Y-98600743D01*
G37*
G36*
X117889745Y-98600743D02*
G01*
X117889747Y-98600744D01*
X117889748Y-98600744D01*
X118035336Y-98661049D01*
X118166365Y-98748600D01*
X118277794Y-98860029D01*
X118365345Y-98991058D01*
X118425650Y-99136646D01*
X118456394Y-99291209D01*
X118456394Y-99448791D01*
X118425650Y-99603354D01*
X118365345Y-99748942D01*
X118277794Y-99879971D01*
X118166365Y-99991400D01*
X118035336Y-100078951D01*
X117889748Y-100139256D01*
X117889747Y-100139256D01*
X117889745Y-100139257D01*
X117735187Y-100170000D01*
X117577601Y-100170000D01*
X117423043Y-100139257D01*
X117423041Y-100139256D01*
X117423040Y-100139256D01*
X117277452Y-100078951D01*
X117146423Y-99991400D01*
X117034994Y-99879971D01*
X116947443Y-99748942D01*
X116887138Y-99603354D01*
X116856394Y-99448791D01*
X116856394Y-99291209D01*
X116887138Y-99136646D01*
X116947443Y-98991058D01*
X117034994Y-98860029D01*
X117146423Y-98748600D01*
X117277452Y-98661049D01*
X117423040Y-98600744D01*
X117423041Y-98600744D01*
X117423043Y-98600743D01*
X117577601Y-98570000D01*
X117735187Y-98570000D01*
X117889745Y-98600743D01*
G37*
G36*
X124452921Y-97698373D02*
G01*
X124553770Y-97718433D01*
X124712100Y-97784016D01*
X124854593Y-97879227D01*
X124975773Y-98000407D01*
X125070984Y-98142900D01*
X125136567Y-98301230D01*
X125144416Y-98340690D01*
X125170000Y-98469310D01*
X125170000Y-98640690D01*
X125156627Y-98707921D01*
X125136567Y-98808770D01*
X125070984Y-98967100D01*
X124975773Y-99109593D01*
X124854593Y-99230773D01*
X124712100Y-99325984D01*
X124553770Y-99391567D01*
X124452921Y-99411627D01*
X124385690Y-99425000D01*
X124214310Y-99425000D01*
X124147079Y-99411627D01*
X124046230Y-99391567D01*
X123887900Y-99325984D01*
X123745407Y-99230773D01*
X123624227Y-99109593D01*
X123529016Y-98967100D01*
X123463433Y-98808770D01*
X123443373Y-98707921D01*
X123430000Y-98640690D01*
X123430000Y-98469310D01*
X123455584Y-98340690D01*
X123463433Y-98301230D01*
X123529016Y-98142900D01*
X123624227Y-98000407D01*
X123745407Y-97879227D01*
X123887900Y-97784016D01*
X124046230Y-97718433D01*
X124147079Y-97698373D01*
X124214310Y-97685000D01*
X124385690Y-97685000D01*
X124452921Y-97698373D01*
G37*
G36*
X205952921Y-97398373D02*
G01*
X206053770Y-97418433D01*
X206212100Y-97484016D01*
X206354593Y-97579227D01*
X206475773Y-97700407D01*
X206570984Y-97842900D01*
X206636567Y-98001230D01*
X206656627Y-98102079D01*
X206664747Y-98142900D01*
X206670000Y-98169312D01*
X206670000Y-98340688D01*
X206636567Y-98508770D01*
X206570984Y-98667100D01*
X206475773Y-98809593D01*
X206354593Y-98930773D01*
X206212100Y-99025984D01*
X206053770Y-99091567D01*
X205952921Y-99111627D01*
X205885690Y-99125000D01*
X205714310Y-99125000D01*
X205647079Y-99111627D01*
X205546230Y-99091567D01*
X205387900Y-99025984D01*
X205245407Y-98930773D01*
X205124227Y-98809593D01*
X205029016Y-98667100D01*
X204963433Y-98508770D01*
X204930000Y-98340688D01*
X204930000Y-98169312D01*
X204935254Y-98142900D01*
X204943373Y-98102079D01*
X204963433Y-98001230D01*
X205029016Y-97842900D01*
X205124227Y-97700407D01*
X205245407Y-97579227D01*
X205387900Y-97484016D01*
X205546230Y-97418433D01*
X205647079Y-97398373D01*
X205714310Y-97385000D01*
X205885690Y-97385000D01*
X205952921Y-97398373D01*
G37*
G36*
X170726341Y-96076653D02*
G01*
X170827190Y-96096713D01*
X170985520Y-96162296D01*
X171128013Y-96257507D01*
X171249193Y-96378687D01*
X171344404Y-96521180D01*
X171409987Y-96679510D01*
X171443420Y-96847592D01*
X171443420Y-97018968D01*
X171409987Y-97187050D01*
X171344404Y-97345380D01*
X171249193Y-97487873D01*
X171128013Y-97609053D01*
X170985520Y-97704264D01*
X170827190Y-97769847D01*
X170726341Y-97789907D01*
X170659110Y-97803280D01*
X170487730Y-97803280D01*
X170420499Y-97789907D01*
X170319650Y-97769847D01*
X170161320Y-97704264D01*
X170018827Y-97609053D01*
X169897647Y-97487873D01*
X169802436Y-97345380D01*
X169736853Y-97187050D01*
X169703420Y-97018968D01*
X169703420Y-96847592D01*
X169736853Y-96679510D01*
X169802436Y-96521180D01*
X169897647Y-96378687D01*
X170018827Y-96257507D01*
X170161320Y-96162296D01*
X170319650Y-96096713D01*
X170420499Y-96076653D01*
X170487730Y-96063280D01*
X170659110Y-96063280D01*
X170726341Y-96076653D01*
G37*
G36*
X117889745Y-96060743D02*
G01*
X117889747Y-96060744D01*
X117889748Y-96060744D01*
X117986185Y-96100690D01*
X118035336Y-96121049D01*
X118166364Y-96208599D01*
X118277795Y-96320030D01*
X118365345Y-96451058D01*
X118425651Y-96596649D01*
X118456394Y-96751207D01*
X118456394Y-96908793D01*
X118425651Y-97063351D01*
X118365345Y-97208942D01*
X118277795Y-97339970D01*
X118166364Y-97451401D01*
X118035336Y-97538951D01*
X117889748Y-97599256D01*
X117889747Y-97599256D01*
X117889745Y-97599257D01*
X117735187Y-97630000D01*
X117577601Y-97630000D01*
X117423043Y-97599257D01*
X117423041Y-97599256D01*
X117423040Y-97599256D01*
X117277452Y-97538951D01*
X117146424Y-97451401D01*
X117034993Y-97339970D01*
X116947443Y-97208942D01*
X116887137Y-97063351D01*
X116856394Y-96908793D01*
X116856394Y-96751207D01*
X116887137Y-96596649D01*
X116947443Y-96451058D01*
X117034993Y-96320030D01*
X117146424Y-96208599D01*
X117277452Y-96121049D01*
X117326603Y-96100690D01*
X117423040Y-96060744D01*
X117423041Y-96060744D01*
X117423043Y-96060743D01*
X117577601Y-96030000D01*
X117735187Y-96030000D01*
X117889745Y-96060743D01*
G37*
G36*
X92489745Y-96060743D02*
G01*
X92489747Y-96060744D01*
X92489748Y-96060744D01*
X92586185Y-96100690D01*
X92635336Y-96121049D01*
X92766364Y-96208599D01*
X92877795Y-96320030D01*
X92965345Y-96451058D01*
X93025651Y-96596649D01*
X93056394Y-96751207D01*
X93056394Y-96908793D01*
X93025651Y-97063351D01*
X92965345Y-97208942D01*
X92877795Y-97339970D01*
X92766364Y-97451401D01*
X92635336Y-97538951D01*
X92489748Y-97599256D01*
X92489747Y-97599256D01*
X92489745Y-97599257D01*
X92335187Y-97630000D01*
X92177601Y-97630000D01*
X92023043Y-97599257D01*
X92023041Y-97599256D01*
X92023040Y-97599256D01*
X91877452Y-97538951D01*
X91746424Y-97451401D01*
X91634993Y-97339970D01*
X91547443Y-97208942D01*
X91487137Y-97063351D01*
X91456394Y-96908793D01*
X91456394Y-96751207D01*
X91487137Y-96596649D01*
X91547443Y-96451058D01*
X91634993Y-96320030D01*
X91746424Y-96208599D01*
X91877452Y-96121049D01*
X91926603Y-96100690D01*
X92023040Y-96060744D01*
X92023041Y-96060744D01*
X92023043Y-96060743D01*
X92177601Y-96030000D01*
X92335187Y-96030000D01*
X92489745Y-96060743D01*
G37*
G36*
X124452921Y-95158373D02*
G01*
X124553770Y-95178433D01*
X124712100Y-95244016D01*
X124854593Y-95339227D01*
X124975773Y-95460407D01*
X125070984Y-95602900D01*
X125136567Y-95761230D01*
X125170000Y-95929312D01*
X125170000Y-96100688D01*
X125136567Y-96268770D01*
X125070984Y-96427100D01*
X124975773Y-96569593D01*
X124854593Y-96690773D01*
X124712100Y-96785984D01*
X124553770Y-96851567D01*
X124452921Y-96871627D01*
X124385690Y-96885000D01*
X124214310Y-96885000D01*
X124147079Y-96871627D01*
X124046230Y-96851567D01*
X123887900Y-96785984D01*
X123745407Y-96690773D01*
X123624227Y-96569593D01*
X123529016Y-96427100D01*
X123463433Y-96268770D01*
X123430000Y-96100688D01*
X123430000Y-95929312D01*
X123463433Y-95761230D01*
X123529016Y-95602900D01*
X123624227Y-95460407D01*
X123745407Y-95339227D01*
X123887900Y-95244016D01*
X124046230Y-95178433D01*
X124147079Y-95158373D01*
X124214310Y-95145000D01*
X124385690Y-95145000D01*
X124452921Y-95158373D01*
G37*
G36*
X170726341Y-93536653D02*
G01*
X170827190Y-93556713D01*
X170985520Y-93622296D01*
X171128013Y-93717507D01*
X171249193Y-93838687D01*
X171344404Y-93981180D01*
X171409987Y-94139510D01*
X171443420Y-94307592D01*
X171443420Y-94478968D01*
X171409987Y-94647050D01*
X171344404Y-94805380D01*
X171249193Y-94947873D01*
X171128013Y-95069053D01*
X170985520Y-95164264D01*
X170827190Y-95229847D01*
X170726341Y-95249907D01*
X170659110Y-95263280D01*
X170487730Y-95263280D01*
X170420499Y-95249907D01*
X170319650Y-95229847D01*
X170161320Y-95164264D01*
X170018827Y-95069053D01*
X169897647Y-94947873D01*
X169802436Y-94805380D01*
X169736853Y-94647050D01*
X169703420Y-94478968D01*
X169703420Y-94307592D01*
X169736853Y-94139510D01*
X169802436Y-93981180D01*
X169897647Y-93838687D01*
X170018827Y-93717507D01*
X170161320Y-93622296D01*
X170319650Y-93556713D01*
X170420499Y-93536653D01*
X170487730Y-93523280D01*
X170659110Y-93523280D01*
X170726341Y-93536653D01*
G37*
G36*
X117889745Y-93520743D02*
G01*
X117889747Y-93520744D01*
X117889748Y-93520744D01*
X117986185Y-93560690D01*
X118035336Y-93581049D01*
X118166364Y-93668599D01*
X118277795Y-93780030D01*
X118365345Y-93911058D01*
X118425651Y-94056649D01*
X118456394Y-94211207D01*
X118456394Y-94368793D01*
X118425651Y-94523351D01*
X118365345Y-94668942D01*
X118277795Y-94799970D01*
X118166364Y-94911401D01*
X118035336Y-94998951D01*
X117889748Y-95059256D01*
X117889747Y-95059256D01*
X117889745Y-95059257D01*
X117735187Y-95090000D01*
X117577601Y-95090000D01*
X117423043Y-95059257D01*
X117423041Y-95059256D01*
X117423040Y-95059256D01*
X117277452Y-94998951D01*
X117146424Y-94911401D01*
X117034993Y-94799970D01*
X116947443Y-94668942D01*
X116887137Y-94523351D01*
X116856394Y-94368793D01*
X116856394Y-94211207D01*
X116887137Y-94056649D01*
X116947443Y-93911058D01*
X117034993Y-93780030D01*
X117146424Y-93668599D01*
X117277452Y-93581049D01*
X117326603Y-93560690D01*
X117423040Y-93520744D01*
X117423041Y-93520744D01*
X117423043Y-93520743D01*
X117577601Y-93490000D01*
X117735187Y-93490000D01*
X117889745Y-93520743D01*
G37*
G36*
X92489745Y-93520743D02*
G01*
X92489747Y-93520744D01*
X92489748Y-93520744D01*
X92586185Y-93560690D01*
X92635336Y-93581049D01*
X92766364Y-93668599D01*
X92877795Y-93780030D01*
X92965345Y-93911058D01*
X93025651Y-94056649D01*
X93056394Y-94211207D01*
X93056394Y-94368793D01*
X93025651Y-94523351D01*
X92965345Y-94668942D01*
X92877795Y-94799970D01*
X92766364Y-94911401D01*
X92635336Y-94998951D01*
X92489748Y-95059256D01*
X92489747Y-95059256D01*
X92489745Y-95059257D01*
X92335187Y-95090000D01*
X92177601Y-95090000D01*
X92023043Y-95059257D01*
X92023041Y-95059256D01*
X92023040Y-95059256D01*
X91877452Y-94998951D01*
X91746424Y-94911401D01*
X91634993Y-94799970D01*
X91547443Y-94668942D01*
X91487137Y-94523351D01*
X91456394Y-94368793D01*
X91456394Y-94211207D01*
X91487137Y-94056649D01*
X91547443Y-93911058D01*
X91634993Y-93780030D01*
X91746424Y-93668599D01*
X91877452Y-93581049D01*
X91926603Y-93560690D01*
X92023040Y-93520744D01*
X92023041Y-93520744D01*
X92023043Y-93520743D01*
X92177601Y-93490000D01*
X92335187Y-93490000D01*
X92489745Y-93520743D01*
G37*
G36*
X124452921Y-92618373D02*
G01*
X124553770Y-92638433D01*
X124712100Y-92704016D01*
X124854593Y-92799227D01*
X124975773Y-92920407D01*
X125070984Y-93062900D01*
X125136567Y-93221230D01*
X125170000Y-93389312D01*
X125170000Y-93560688D01*
X125136567Y-93728770D01*
X125070984Y-93887100D01*
X124975773Y-94029593D01*
X124854593Y-94150773D01*
X124712100Y-94245984D01*
X124553770Y-94311567D01*
X124452921Y-94331627D01*
X124385690Y-94345000D01*
X124214310Y-94345000D01*
X124147079Y-94331627D01*
X124046230Y-94311567D01*
X123887900Y-94245984D01*
X123745407Y-94150773D01*
X123624227Y-94029593D01*
X123529016Y-93887100D01*
X123463433Y-93728770D01*
X123430000Y-93560688D01*
X123430000Y-93389312D01*
X123463433Y-93221230D01*
X123529016Y-93062900D01*
X123624227Y-92920407D01*
X123745407Y-92799227D01*
X123887900Y-92704016D01*
X124046230Y-92638433D01*
X124147079Y-92618373D01*
X124214310Y-92605000D01*
X124385690Y-92605000D01*
X124452921Y-92618373D01*
G37*
G36*
X186304161Y-91169373D02*
G01*
X186405010Y-91189433D01*
X186563340Y-91255016D01*
X186705833Y-91350227D01*
X186827013Y-91471407D01*
X186922224Y-91613900D01*
X186987807Y-91772230D01*
X187021240Y-91940312D01*
X187021240Y-92111688D01*
X186987807Y-92279770D01*
X186922224Y-92438100D01*
X186827013Y-92580593D01*
X186705833Y-92701773D01*
X186563340Y-92796984D01*
X186405010Y-92862567D01*
X186304161Y-92882627D01*
X186236930Y-92896000D01*
X186065550Y-92896000D01*
X185998319Y-92882627D01*
X185897470Y-92862567D01*
X185739140Y-92796984D01*
X185596647Y-92701773D01*
X185475467Y-92580593D01*
X185380256Y-92438100D01*
X185314673Y-92279770D01*
X185281240Y-92111688D01*
X185281240Y-91940312D01*
X185314673Y-91772230D01*
X185380256Y-91613900D01*
X185475467Y-91471407D01*
X185596647Y-91350227D01*
X185739140Y-91255016D01*
X185897470Y-91189433D01*
X185998319Y-91169373D01*
X186065550Y-91156000D01*
X186236930Y-91156000D01*
X186304161Y-91169373D01*
G37*
G36*
X183764161Y-91169373D02*
G01*
X183865010Y-91189433D01*
X184023340Y-91255016D01*
X184165833Y-91350227D01*
X184287013Y-91471407D01*
X184382224Y-91613900D01*
X184447807Y-91772230D01*
X184481240Y-91940312D01*
X184481240Y-92111688D01*
X184447807Y-92279770D01*
X184382224Y-92438100D01*
X184287013Y-92580593D01*
X184165833Y-92701773D01*
X184023340Y-92796984D01*
X183865010Y-92862567D01*
X183764161Y-92882627D01*
X183696930Y-92896000D01*
X183525550Y-92896000D01*
X183458319Y-92882627D01*
X183357470Y-92862567D01*
X183199140Y-92796984D01*
X183056647Y-92701773D01*
X182935467Y-92580593D01*
X182840256Y-92438100D01*
X182774673Y-92279770D01*
X182741240Y-92111688D01*
X182741240Y-91940312D01*
X182774673Y-91772230D01*
X182840256Y-91613900D01*
X182935467Y-91471407D01*
X183056647Y-91350227D01*
X183199140Y-91255016D01*
X183357470Y-91189433D01*
X183458319Y-91169373D01*
X183525550Y-91156000D01*
X183696930Y-91156000D01*
X183764161Y-91169373D01*
G37*
G36*
X170726341Y-90996653D02*
G01*
X170827190Y-91016713D01*
X170985520Y-91082296D01*
X171128013Y-91177507D01*
X171249193Y-91298687D01*
X171344404Y-91441180D01*
X171409987Y-91599510D01*
X171443420Y-91767592D01*
X171443420Y-91938968D01*
X171409987Y-92107050D01*
X171344404Y-92265380D01*
X171249193Y-92407873D01*
X171128013Y-92529053D01*
X170985520Y-92624264D01*
X170827190Y-92689847D01*
X170726341Y-92709907D01*
X170659110Y-92723280D01*
X170487730Y-92723280D01*
X170420499Y-92709907D01*
X170319650Y-92689847D01*
X170161320Y-92624264D01*
X170018827Y-92529053D01*
X169897647Y-92407873D01*
X169802436Y-92265380D01*
X169736853Y-92107050D01*
X169703420Y-91938968D01*
X169703420Y-91767592D01*
X169736853Y-91599510D01*
X169802436Y-91441180D01*
X169897647Y-91298687D01*
X170018827Y-91177507D01*
X170161320Y-91082296D01*
X170319650Y-91016713D01*
X170420499Y-90996653D01*
X170487730Y-90983280D01*
X170659110Y-90983280D01*
X170726341Y-90996653D01*
G37*
G36*
X92489745Y-90980743D02*
G01*
X92489747Y-90980744D01*
X92489748Y-90980744D01*
X92586185Y-91020690D01*
X92635336Y-91041049D01*
X92766364Y-91128599D01*
X92877795Y-91240030D01*
X92965345Y-91371058D01*
X93025651Y-91516649D01*
X93056394Y-91671207D01*
X93056394Y-91828793D01*
X93025651Y-91983351D01*
X92965345Y-92128942D01*
X92877795Y-92259970D01*
X92766364Y-92371401D01*
X92666543Y-92438099D01*
X92635336Y-92458951D01*
X92489748Y-92519256D01*
X92489747Y-92519256D01*
X92489745Y-92519257D01*
X92335187Y-92550000D01*
X92177601Y-92550000D01*
X92023043Y-92519257D01*
X92023041Y-92519256D01*
X92023040Y-92519256D01*
X91877452Y-92458951D01*
X91846245Y-92438099D01*
X91746424Y-92371401D01*
X91634993Y-92259970D01*
X91547443Y-92128942D01*
X91487137Y-91983351D01*
X91456394Y-91828793D01*
X91456394Y-91671207D01*
X91487137Y-91516649D01*
X91547443Y-91371058D01*
X91634993Y-91240030D01*
X91746424Y-91128599D01*
X91877452Y-91041049D01*
X91926603Y-91020690D01*
X92023040Y-90980744D01*
X92023041Y-90980744D01*
X92023043Y-90980743D01*
X92177601Y-90950000D01*
X92335187Y-90950000D01*
X92489745Y-90980743D01*
G37*
G36*
X117889745Y-90980743D02*
G01*
X117889747Y-90980744D01*
X117889748Y-90980744D01*
X117986185Y-91020690D01*
X118035336Y-91041049D01*
X118166364Y-91128599D01*
X118277795Y-91240030D01*
X118365345Y-91371058D01*
X118425651Y-91516649D01*
X118456394Y-91671207D01*
X118456394Y-91828793D01*
X118425651Y-91983351D01*
X118365345Y-92128942D01*
X118277795Y-92259970D01*
X118166364Y-92371401D01*
X118066543Y-92438099D01*
X118035336Y-92458951D01*
X117889748Y-92519256D01*
X117889747Y-92519256D01*
X117889745Y-92519257D01*
X117735187Y-92550000D01*
X117577601Y-92550000D01*
X117423043Y-92519257D01*
X117423041Y-92519256D01*
X117423040Y-92519256D01*
X117277452Y-92458951D01*
X117246245Y-92438099D01*
X117146424Y-92371401D01*
X117034993Y-92259970D01*
X116947443Y-92128942D01*
X116887137Y-91983351D01*
X116856394Y-91828793D01*
X116856394Y-91671207D01*
X116887137Y-91516649D01*
X116947443Y-91371058D01*
X117034993Y-91240030D01*
X117146424Y-91128599D01*
X117277452Y-91041049D01*
X117326603Y-91020690D01*
X117423040Y-90980744D01*
X117423041Y-90980744D01*
X117423043Y-90980743D01*
X117577601Y-90950000D01*
X117735187Y-90950000D01*
X117889745Y-90980743D01*
G37*
G36*
X124452921Y-90078373D02*
G01*
X124553770Y-90098433D01*
X124712100Y-90164016D01*
X124854593Y-90259227D01*
X124975773Y-90380407D01*
X125070984Y-90522900D01*
X125136567Y-90681230D01*
X125170000Y-90849312D01*
X125170000Y-91020688D01*
X125136567Y-91188770D01*
X125070984Y-91347100D01*
X124975773Y-91489593D01*
X124854593Y-91610773D01*
X124712100Y-91705984D01*
X124553770Y-91771567D01*
X124452921Y-91791627D01*
X124385690Y-91805000D01*
X124214310Y-91805000D01*
X124147079Y-91791627D01*
X124046230Y-91771567D01*
X123887900Y-91705984D01*
X123745407Y-91610773D01*
X123624227Y-91489593D01*
X123529016Y-91347100D01*
X123463433Y-91188770D01*
X123430000Y-91020688D01*
X123430000Y-90849312D01*
X123463433Y-90681230D01*
X123529016Y-90522900D01*
X123624227Y-90380407D01*
X123745407Y-90259227D01*
X123887900Y-90164016D01*
X124046230Y-90098433D01*
X124147079Y-90078373D01*
X124214310Y-90065000D01*
X124385690Y-90065000D01*
X124452921Y-90078373D01*
G37*
G36*
X186304161Y-88629373D02*
G01*
X186405010Y-88649433D01*
X186563340Y-88715016D01*
X186705833Y-88810227D01*
X186827013Y-88931407D01*
X186922224Y-89073900D01*
X186987807Y-89232230D01*
X187021240Y-89400312D01*
X187021240Y-89571688D01*
X186987807Y-89739770D01*
X186922224Y-89898100D01*
X186827013Y-90040593D01*
X186705833Y-90161773D01*
X186563340Y-90256984D01*
X186405010Y-90322567D01*
X186304161Y-90342627D01*
X186236930Y-90356000D01*
X186065550Y-90356000D01*
X185998319Y-90342627D01*
X185897470Y-90322567D01*
X185739140Y-90256984D01*
X185596647Y-90161773D01*
X185475467Y-90040593D01*
X185380256Y-89898100D01*
X185314673Y-89739770D01*
X185281240Y-89571688D01*
X185281240Y-89400312D01*
X185314673Y-89232230D01*
X185380256Y-89073900D01*
X185475467Y-88931407D01*
X185596647Y-88810227D01*
X185739140Y-88715016D01*
X185897470Y-88649433D01*
X185998319Y-88629373D01*
X186065550Y-88616000D01*
X186236930Y-88616000D01*
X186304161Y-88629373D01*
G37*
G36*
X183764161Y-88629373D02*
G01*
X183865010Y-88649433D01*
X184023340Y-88715016D01*
X184165833Y-88810227D01*
X184287013Y-88931407D01*
X184382224Y-89073900D01*
X184447807Y-89232230D01*
X184481240Y-89400312D01*
X184481240Y-89571688D01*
X184447807Y-89739770D01*
X184382224Y-89898100D01*
X184287013Y-90040593D01*
X184165833Y-90161773D01*
X184023340Y-90256984D01*
X183865010Y-90322567D01*
X183764161Y-90342627D01*
X183696930Y-90356000D01*
X183525550Y-90356000D01*
X183458319Y-90342627D01*
X183357470Y-90322567D01*
X183199140Y-90256984D01*
X183056647Y-90161773D01*
X182935467Y-90040593D01*
X182840256Y-89898100D01*
X182774673Y-89739770D01*
X182741240Y-89571688D01*
X182741240Y-89400312D01*
X182774673Y-89232230D01*
X182840256Y-89073900D01*
X182935467Y-88931407D01*
X183056647Y-88810227D01*
X183199140Y-88715016D01*
X183357470Y-88649433D01*
X183458319Y-88629373D01*
X183525550Y-88616000D01*
X183696930Y-88616000D01*
X183764161Y-88629373D01*
G37*
G36*
X170726341Y-88456653D02*
G01*
X170827190Y-88476713D01*
X170985520Y-88542296D01*
X171128013Y-88637507D01*
X171249193Y-88758687D01*
X171344404Y-88901180D01*
X171409987Y-89059510D01*
X171443420Y-89227592D01*
X171443420Y-89398968D01*
X171409987Y-89567050D01*
X171344404Y-89725380D01*
X171249193Y-89867873D01*
X171128013Y-89989053D01*
X170985520Y-90084264D01*
X170827190Y-90149847D01*
X170726341Y-90169907D01*
X170659110Y-90183280D01*
X170487730Y-90183280D01*
X170420499Y-90169907D01*
X170319650Y-90149847D01*
X170161320Y-90084264D01*
X170018827Y-89989053D01*
X169897647Y-89867873D01*
X169802436Y-89725380D01*
X169736853Y-89567050D01*
X169703420Y-89398968D01*
X169703420Y-89227592D01*
X169736853Y-89059510D01*
X169802436Y-88901180D01*
X169897647Y-88758687D01*
X170018827Y-88637507D01*
X170161320Y-88542296D01*
X170319650Y-88476713D01*
X170420499Y-88456653D01*
X170487730Y-88443280D01*
X170659110Y-88443280D01*
X170726341Y-88456653D01*
G37*
G36*
X117889745Y-88440743D02*
G01*
X117889747Y-88440744D01*
X117889748Y-88440744D01*
X117986185Y-88480690D01*
X118035336Y-88501049D01*
X118166364Y-88588599D01*
X118277795Y-88700030D01*
X118365345Y-88831058D01*
X118425651Y-88976649D01*
X118456394Y-89131207D01*
X118456394Y-89288793D01*
X118425651Y-89443351D01*
X118365345Y-89588942D01*
X118277795Y-89719970D01*
X118166364Y-89831401D01*
X118066543Y-89898099D01*
X118035336Y-89918951D01*
X117889748Y-89979256D01*
X117889747Y-89979256D01*
X117889745Y-89979257D01*
X117735187Y-90010000D01*
X117577601Y-90010000D01*
X117423043Y-89979257D01*
X117423041Y-89979256D01*
X117423040Y-89979256D01*
X117277452Y-89918951D01*
X117246245Y-89898099D01*
X117146424Y-89831401D01*
X117034993Y-89719970D01*
X116947443Y-89588942D01*
X116887137Y-89443351D01*
X116856394Y-89288793D01*
X116856394Y-89131207D01*
X116887137Y-88976649D01*
X116947443Y-88831058D01*
X117034993Y-88700030D01*
X117146424Y-88588599D01*
X117277452Y-88501049D01*
X117326603Y-88480690D01*
X117423040Y-88440744D01*
X117423041Y-88440744D01*
X117423043Y-88440743D01*
X117577601Y-88410000D01*
X117735187Y-88410000D01*
X117889745Y-88440743D01*
G37*
G36*
X92489745Y-88440743D02*
G01*
X92489747Y-88440744D01*
X92489748Y-88440744D01*
X92586185Y-88480690D01*
X92635336Y-88501049D01*
X92766364Y-88588599D01*
X92877795Y-88700030D01*
X92965345Y-88831058D01*
X93025651Y-88976649D01*
X93056394Y-89131207D01*
X93056394Y-89288793D01*
X93025651Y-89443351D01*
X92965345Y-89588942D01*
X92877795Y-89719970D01*
X92766364Y-89831401D01*
X92666543Y-89898099D01*
X92635336Y-89918951D01*
X92489748Y-89979256D01*
X92489747Y-89979256D01*
X92489745Y-89979257D01*
X92335187Y-90010000D01*
X92177601Y-90010000D01*
X92023043Y-89979257D01*
X92023041Y-89979256D01*
X92023040Y-89979256D01*
X91877452Y-89918951D01*
X91846245Y-89898099D01*
X91746424Y-89831401D01*
X91634993Y-89719970D01*
X91547443Y-89588942D01*
X91487137Y-89443351D01*
X91456394Y-89288793D01*
X91456394Y-89131207D01*
X91487137Y-88976649D01*
X91547443Y-88831058D01*
X91634993Y-88700030D01*
X91746424Y-88588599D01*
X91877452Y-88501049D01*
X91926603Y-88480690D01*
X92023040Y-88440744D01*
X92023041Y-88440744D01*
X92023043Y-88440743D01*
X92177601Y-88410000D01*
X92335187Y-88410000D01*
X92489745Y-88440743D01*
G37*
G36*
X124452921Y-87538373D02*
G01*
X124553770Y-87558433D01*
X124712100Y-87624016D01*
X124854593Y-87719227D01*
X124975773Y-87840407D01*
X125070984Y-87982900D01*
X125136567Y-88141230D01*
X125170000Y-88309312D01*
X125170000Y-88480688D01*
X125136567Y-88648770D01*
X125070984Y-88807100D01*
X124975773Y-88949593D01*
X124854593Y-89070773D01*
X124712100Y-89165984D01*
X124553770Y-89231567D01*
X124452921Y-89251627D01*
X124385690Y-89265000D01*
X124214310Y-89265000D01*
X124147079Y-89251627D01*
X124046230Y-89231567D01*
X123887900Y-89165984D01*
X123745407Y-89070773D01*
X123624227Y-88949593D01*
X123529016Y-88807100D01*
X123463433Y-88648770D01*
X123430000Y-88480688D01*
X123430000Y-88309312D01*
X123463433Y-88141230D01*
X123529016Y-87982900D01*
X123624227Y-87840407D01*
X123745407Y-87719227D01*
X123887900Y-87624016D01*
X124046230Y-87558433D01*
X124147079Y-87538373D01*
X124214310Y-87525000D01*
X124385690Y-87525000D01*
X124452921Y-87538373D01*
G37*
G36*
X184481240Y-87816000D02*
G01*
X182741240Y-87816000D01*
X182741240Y-86076000D01*
X184481240Y-86076000D01*
X184481240Y-87816000D01*
G37*
G36*
X186304161Y-86089373D02*
G01*
X186405010Y-86109433D01*
X186563340Y-86175016D01*
X186705833Y-86270227D01*
X186827013Y-86391407D01*
X186922224Y-86533900D01*
X186987807Y-86692230D01*
X187021240Y-86860312D01*
X187021240Y-87031688D01*
X186987807Y-87199770D01*
X186922224Y-87358100D01*
X186827013Y-87500593D01*
X186705833Y-87621773D01*
X186563340Y-87716984D01*
X186405010Y-87782567D01*
X186304161Y-87802627D01*
X186236930Y-87816000D01*
X186065550Y-87816000D01*
X185998319Y-87802627D01*
X185897470Y-87782567D01*
X185739140Y-87716984D01*
X185596647Y-87621773D01*
X185475467Y-87500593D01*
X185380256Y-87358100D01*
X185314673Y-87199770D01*
X185281240Y-87031688D01*
X185281240Y-86860312D01*
X185314673Y-86692230D01*
X185380256Y-86533900D01*
X185475467Y-86391407D01*
X185596647Y-86270227D01*
X185739140Y-86175016D01*
X185897470Y-86109433D01*
X185998319Y-86089373D01*
X186065550Y-86076000D01*
X186236930Y-86076000D01*
X186304161Y-86089373D01*
G37*
G36*
X170726341Y-85916653D02*
G01*
X170827190Y-85936713D01*
X170985520Y-86002296D01*
X171128013Y-86097507D01*
X171249193Y-86218687D01*
X171344404Y-86361180D01*
X171409987Y-86519510D01*
X171443420Y-86687592D01*
X171443420Y-86858968D01*
X171409987Y-87027050D01*
X171344404Y-87185380D01*
X171249193Y-87327873D01*
X171128013Y-87449053D01*
X170985520Y-87544264D01*
X170827190Y-87609847D01*
X170726341Y-87629907D01*
X170659110Y-87643280D01*
X170487730Y-87643280D01*
X170420499Y-87629907D01*
X170319650Y-87609847D01*
X170161320Y-87544264D01*
X170018827Y-87449053D01*
X169897647Y-87327873D01*
X169802436Y-87185380D01*
X169736853Y-87027050D01*
X169703420Y-86858968D01*
X169703420Y-86687592D01*
X169736853Y-86519510D01*
X169802436Y-86361180D01*
X169897647Y-86218687D01*
X170018827Y-86097507D01*
X170161320Y-86002296D01*
X170319650Y-85936713D01*
X170420499Y-85916653D01*
X170487730Y-85903280D01*
X170659110Y-85903280D01*
X170726341Y-85916653D01*
G37*
G36*
X117889745Y-85900743D02*
G01*
X117889747Y-85900744D01*
X117889748Y-85900744D01*
X117986185Y-85940690D01*
X118035336Y-85961049D01*
X118166364Y-86048599D01*
X118277795Y-86160030D01*
X118365345Y-86291058D01*
X118425651Y-86436649D01*
X118456394Y-86591207D01*
X118456394Y-86748793D01*
X118425651Y-86903351D01*
X118365345Y-87048942D01*
X118277795Y-87179970D01*
X118166364Y-87291401D01*
X118066543Y-87358099D01*
X118035336Y-87378951D01*
X117889748Y-87439256D01*
X117889747Y-87439256D01*
X117889745Y-87439257D01*
X117735187Y-87470000D01*
X117577601Y-87470000D01*
X117423043Y-87439257D01*
X117423041Y-87439256D01*
X117423040Y-87439256D01*
X117277452Y-87378951D01*
X117246245Y-87358099D01*
X117146424Y-87291401D01*
X117034993Y-87179970D01*
X116947443Y-87048942D01*
X116887137Y-86903351D01*
X116856394Y-86748793D01*
X116856394Y-86591207D01*
X116887137Y-86436649D01*
X116947443Y-86291058D01*
X117034993Y-86160030D01*
X117146424Y-86048599D01*
X117277452Y-85961049D01*
X117326603Y-85940690D01*
X117423040Y-85900744D01*
X117423041Y-85900744D01*
X117423043Y-85900743D01*
X117577601Y-85870000D01*
X117735187Y-85870000D01*
X117889745Y-85900743D01*
G37*
G36*
X92489745Y-85900743D02*
G01*
X92489747Y-85900744D01*
X92489748Y-85900744D01*
X92586185Y-85940690D01*
X92635336Y-85961049D01*
X92766364Y-86048599D01*
X92877795Y-86160030D01*
X92965345Y-86291058D01*
X93025651Y-86436649D01*
X93056394Y-86591207D01*
X93056394Y-86748793D01*
X93025651Y-86903351D01*
X92965345Y-87048942D01*
X92877795Y-87179970D01*
X92766364Y-87291401D01*
X92666543Y-87358099D01*
X92635336Y-87378951D01*
X92489748Y-87439256D01*
X92489747Y-87439256D01*
X92489745Y-87439257D01*
X92335187Y-87470000D01*
X92177601Y-87470000D01*
X92023043Y-87439257D01*
X92023041Y-87439256D01*
X92023040Y-87439256D01*
X91877452Y-87378951D01*
X91846245Y-87358099D01*
X91746424Y-87291401D01*
X91634993Y-87179970D01*
X91547443Y-87048942D01*
X91487137Y-86903351D01*
X91456394Y-86748793D01*
X91456394Y-86591207D01*
X91487137Y-86436649D01*
X91547443Y-86291058D01*
X91634993Y-86160030D01*
X91746424Y-86048599D01*
X91877452Y-85961049D01*
X91926603Y-85940690D01*
X92023040Y-85900744D01*
X92023041Y-85900744D01*
X92023043Y-85900743D01*
X92177601Y-85870000D01*
X92335187Y-85870000D01*
X92489745Y-85900743D01*
G37*
G36*
X124452921Y-84998373D02*
G01*
X124553770Y-85018433D01*
X124712100Y-85084016D01*
X124854593Y-85179227D01*
X124975773Y-85300407D01*
X125070984Y-85442900D01*
X125136567Y-85601230D01*
X125170000Y-85769312D01*
X125170000Y-85940688D01*
X125136567Y-86108770D01*
X125070984Y-86267100D01*
X124975773Y-86409593D01*
X124854593Y-86530773D01*
X124712100Y-86625984D01*
X124553770Y-86691567D01*
X124452921Y-86711627D01*
X124385690Y-86725000D01*
X124214310Y-86725000D01*
X124147079Y-86711627D01*
X124046230Y-86691567D01*
X123887900Y-86625984D01*
X123745407Y-86530773D01*
X123624227Y-86409593D01*
X123529016Y-86267100D01*
X123463433Y-86108770D01*
X123430000Y-85940688D01*
X123430000Y-85769312D01*
X123463433Y-85601230D01*
X123529016Y-85442900D01*
X123624227Y-85300407D01*
X123745407Y-85179227D01*
X123887900Y-85084016D01*
X124046230Y-85018433D01*
X124147079Y-84998373D01*
X124214310Y-84985000D01*
X124385690Y-84985000D01*
X124452921Y-84998373D01*
G37*
G36*
X171443420Y-85103280D02*
G01*
X169703420Y-85103280D01*
X169703420Y-83363280D01*
X171443420Y-83363280D01*
X171443420Y-85103280D01*
G37*
G36*
X92489745Y-83360743D02*
G01*
X92489747Y-83360744D01*
X92489748Y-83360744D01*
X92635336Y-83421049D01*
X92766365Y-83508600D01*
X92877794Y-83620029D01*
X92965345Y-83751058D01*
X93025650Y-83896646D01*
X93056394Y-84051209D01*
X93056394Y-84208791D01*
X93025650Y-84363354D01*
X92965345Y-84508942D01*
X92877794Y-84639971D01*
X92766365Y-84751400D01*
X92635336Y-84838951D01*
X92489748Y-84899256D01*
X92489747Y-84899256D01*
X92489745Y-84899257D01*
X92335187Y-84930000D01*
X92177601Y-84930000D01*
X92023043Y-84899257D01*
X92023041Y-84899256D01*
X92023040Y-84899256D01*
X91877452Y-84838951D01*
X91746423Y-84751400D01*
X91634994Y-84639971D01*
X91547443Y-84508942D01*
X91487138Y-84363354D01*
X91456394Y-84208791D01*
X91456394Y-84051209D01*
X91487138Y-83896646D01*
X91547443Y-83751058D01*
X91634994Y-83620029D01*
X91746423Y-83508600D01*
X91877452Y-83421049D01*
X92023040Y-83360744D01*
X92023041Y-83360744D01*
X92023043Y-83360743D01*
X92177601Y-83330000D01*
X92335187Y-83330000D01*
X92489745Y-83360743D01*
G37*
G36*
X117889745Y-83360743D02*
G01*
X117889747Y-83360744D01*
X117889748Y-83360744D01*
X118035336Y-83421049D01*
X118166365Y-83508600D01*
X118277794Y-83620029D01*
X118365345Y-83751058D01*
X118425650Y-83896646D01*
X118456394Y-84051209D01*
X118456394Y-84208791D01*
X118425650Y-84363354D01*
X118365345Y-84508942D01*
X118277794Y-84639971D01*
X118166365Y-84751400D01*
X118035336Y-84838951D01*
X117889748Y-84899256D01*
X117889747Y-84899256D01*
X117889745Y-84899257D01*
X117735187Y-84930000D01*
X117577601Y-84930000D01*
X117423043Y-84899257D01*
X117423041Y-84899256D01*
X117423040Y-84899256D01*
X117277452Y-84838951D01*
X117146423Y-84751400D01*
X117034994Y-84639971D01*
X116947443Y-84508942D01*
X116887138Y-84363354D01*
X116856394Y-84208791D01*
X116856394Y-84051209D01*
X116887138Y-83896646D01*
X116947443Y-83751058D01*
X117034994Y-83620029D01*
X117146423Y-83508600D01*
X117277452Y-83421049D01*
X117423040Y-83360744D01*
X117423041Y-83360744D01*
X117423043Y-83360743D01*
X117577601Y-83330000D01*
X117735187Y-83330000D01*
X117889745Y-83360743D01*
G37*
G36*
X117889745Y-80820743D02*
G01*
X117889747Y-80820744D01*
X117889748Y-80820744D01*
X117954429Y-80847536D01*
X118035336Y-80881049D01*
X118166364Y-80968599D01*
X118277795Y-81080030D01*
X118365345Y-81211058D01*
X118425651Y-81356649D01*
X118456394Y-81511207D01*
X118456394Y-81668791D01*
X118425650Y-81823354D01*
X118365345Y-81968942D01*
X118277794Y-82099971D01*
X118166365Y-82211400D01*
X118035336Y-82298951D01*
X117889748Y-82359256D01*
X117889747Y-82359256D01*
X117889745Y-82359257D01*
X117735187Y-82390000D01*
X117577601Y-82390000D01*
X117423043Y-82359257D01*
X117423041Y-82359256D01*
X117423040Y-82359256D01*
X117277452Y-82298951D01*
X117146423Y-82211400D01*
X117034994Y-82099971D01*
X116947443Y-81968942D01*
X116887138Y-81823354D01*
X116856394Y-81668791D01*
X116856394Y-81511207D01*
X116887137Y-81356649D01*
X116947443Y-81211058D01*
X117034993Y-81080030D01*
X117146424Y-80968599D01*
X117277452Y-80881049D01*
X117358359Y-80847536D01*
X117423040Y-80820744D01*
X117423041Y-80820744D01*
X117423043Y-80820743D01*
X117577601Y-80790000D01*
X117735187Y-80790000D01*
X117889745Y-80820743D01*
G37*
G36*
X92489745Y-80820743D02*
G01*
X92489747Y-80820744D01*
X92489748Y-80820744D01*
X92554429Y-80847536D01*
X92635336Y-80881049D01*
X92766364Y-80968599D01*
X92877795Y-81080030D01*
X92965345Y-81211058D01*
X93025651Y-81356649D01*
X93056394Y-81511207D01*
X93056394Y-81668791D01*
X93025650Y-81823354D01*
X92965345Y-81968942D01*
X92877794Y-82099971D01*
X92766365Y-82211400D01*
X92635336Y-82298951D01*
X92489748Y-82359256D01*
X92489747Y-82359256D01*
X92489745Y-82359257D01*
X92335187Y-82390000D01*
X92177601Y-82390000D01*
X92023043Y-82359257D01*
X92023041Y-82359256D01*
X92023040Y-82359256D01*
X91877452Y-82298951D01*
X91746423Y-82211400D01*
X91634994Y-82099971D01*
X91547443Y-81968942D01*
X91487138Y-81823354D01*
X91456394Y-81668791D01*
X91456394Y-81511207D01*
X91487137Y-81356649D01*
X91547443Y-81211058D01*
X91634993Y-81080030D01*
X91746424Y-80968599D01*
X91877452Y-80881049D01*
X91958359Y-80847536D01*
X92023040Y-80820744D01*
X92023041Y-80820744D01*
X92023043Y-80820743D01*
X92177601Y-80790000D01*
X92335187Y-80790000D01*
X92489745Y-80820743D01*
G37*
G36*
X205772536Y-78817256D02*
G01*
X205772538Y-78817257D01*
X205772539Y-78817257D01*
X205881444Y-78862367D01*
X206067358Y-78939375D01*
X206332689Y-79116664D01*
X206558336Y-79342311D01*
X206735625Y-79607642D01*
X206857744Y-79902464D01*
X206920000Y-80215444D01*
X206920000Y-80534556D01*
X206863073Y-80820743D01*
X206857743Y-80847539D01*
X206812633Y-80956444D01*
X206735625Y-81142358D01*
X206558336Y-81407689D01*
X206332689Y-81633336D01*
X206067358Y-81810625D01*
X206036627Y-81823354D01*
X205772539Y-81932743D01*
X205772538Y-81932743D01*
X205772536Y-81932744D01*
X205459556Y-81995000D01*
X205140444Y-81995000D01*
X204827464Y-81932744D01*
X204827462Y-81932743D01*
X204827461Y-81932743D01*
X204563373Y-81823354D01*
X204532642Y-81810625D01*
X204267311Y-81633336D01*
X204041664Y-81407689D01*
X203864375Y-81142358D01*
X203787367Y-80956444D01*
X203742257Y-80847539D01*
X203736927Y-80820743D01*
X203680000Y-80534556D01*
X203680000Y-80215444D01*
X203742256Y-79902464D01*
X203864375Y-79607642D01*
X204041664Y-79342311D01*
X204267311Y-79116664D01*
X204532642Y-78939375D01*
X204718556Y-78862367D01*
X204827461Y-78817257D01*
X204827462Y-78817257D01*
X204827464Y-78817256D01*
X205140444Y-78755000D01*
X205459556Y-78755000D01*
X205772536Y-78817256D01*
G37*
G36*
X129772536Y-78817256D02*
G01*
X129772538Y-78817257D01*
X129772539Y-78817257D01*
X129881444Y-78862367D01*
X130067358Y-78939375D01*
X130332689Y-79116664D01*
X130558336Y-79342311D01*
X130735625Y-79607642D01*
X130857744Y-79902464D01*
X130920000Y-80215444D01*
X130920000Y-80534556D01*
X130863073Y-80820743D01*
X130857743Y-80847539D01*
X130812633Y-80956444D01*
X130735625Y-81142358D01*
X130558336Y-81407689D01*
X130332689Y-81633336D01*
X130067358Y-81810625D01*
X130036627Y-81823354D01*
X129772539Y-81932743D01*
X129772538Y-81932743D01*
X129772536Y-81932744D01*
X129459556Y-81995000D01*
X129140444Y-81995000D01*
X128827464Y-81932744D01*
X128827462Y-81932743D01*
X128827461Y-81932743D01*
X128563373Y-81823354D01*
X128532642Y-81810625D01*
X128267311Y-81633336D01*
X128041664Y-81407689D01*
X127864375Y-81142358D01*
X127787367Y-80956444D01*
X127742257Y-80847539D01*
X127736927Y-80820743D01*
X127680000Y-80534556D01*
X127680000Y-80215444D01*
X127742256Y-79902464D01*
X127864375Y-79607642D01*
X128041664Y-79342311D01*
X128267311Y-79116664D01*
X128532642Y-78939375D01*
X128718556Y-78862367D01*
X128827461Y-78817257D01*
X128827462Y-78817257D01*
X128827464Y-78817256D01*
X129140444Y-78755000D01*
X129459556Y-78755000D01*
X129772536Y-78817256D01*
G37*
G36*
X160140000Y-81020000D02*
G01*
X157300000Y-81020000D01*
X157300000Y-78180000D01*
X160140000Y-78180000D01*
X160140000Y-81020000D01*
G37*
G36*
X117889745Y-78280743D02*
G01*
X117889747Y-78280744D01*
X117889748Y-78280744D01*
X118035336Y-78341049D01*
X118166364Y-78428599D01*
X118277795Y-78540030D01*
X118365345Y-78671058D01*
X118425651Y-78816649D01*
X118425772Y-78817257D01*
X118456394Y-78971209D01*
X118456394Y-79128791D01*
X118425650Y-79283354D01*
X118365345Y-79428942D01*
X118277794Y-79559971D01*
X118166365Y-79671400D01*
X118035336Y-79758951D01*
X117889748Y-79819256D01*
X117889747Y-79819256D01*
X117889745Y-79819257D01*
X117735187Y-79850000D01*
X117577601Y-79850000D01*
X117423043Y-79819257D01*
X117423041Y-79819256D01*
X117423040Y-79819256D01*
X117277452Y-79758951D01*
X117146423Y-79671400D01*
X117034994Y-79559971D01*
X116947443Y-79428942D01*
X116887138Y-79283354D01*
X116856394Y-79128791D01*
X116856394Y-78971209D01*
X116887016Y-78817257D01*
X116887137Y-78816649D01*
X116947443Y-78671058D01*
X117034993Y-78540030D01*
X117146424Y-78428599D01*
X117277452Y-78341049D01*
X117423040Y-78280744D01*
X117423041Y-78280744D01*
X117423043Y-78280743D01*
X117577601Y-78250000D01*
X117735187Y-78250000D01*
X117889745Y-78280743D01*
G37*
G36*
X92489745Y-78280743D02*
G01*
X92489747Y-78280744D01*
X92489748Y-78280744D01*
X92635336Y-78341049D01*
X92766364Y-78428599D01*
X92877795Y-78540030D01*
X92965345Y-78671058D01*
X93025651Y-78816649D01*
X93025772Y-78817257D01*
X93056394Y-78971209D01*
X93056394Y-79128791D01*
X93025650Y-79283354D01*
X92965345Y-79428942D01*
X92877794Y-79559971D01*
X92766365Y-79671400D01*
X92635336Y-79758951D01*
X92489748Y-79819256D01*
X92489747Y-79819256D01*
X92489745Y-79819257D01*
X92335187Y-79850000D01*
X92177601Y-79850000D01*
X92023043Y-79819257D01*
X92023041Y-79819256D01*
X92023040Y-79819256D01*
X91877452Y-79758951D01*
X91746423Y-79671400D01*
X91634994Y-79559971D01*
X91547443Y-79428942D01*
X91487138Y-79283354D01*
X91456394Y-79128791D01*
X91456394Y-78971209D01*
X91487016Y-78817257D01*
X91487137Y-78816649D01*
X91547443Y-78671058D01*
X91634993Y-78540030D01*
X91746424Y-78428599D01*
X91877452Y-78341049D01*
X92023040Y-78280744D01*
X92023041Y-78280744D01*
X92023043Y-78280743D01*
X92177601Y-78250000D01*
X92335187Y-78250000D01*
X92489745Y-78280743D01*
G37*
G36*
X92489745Y-75740743D02*
G01*
X92489747Y-75740744D01*
X92489748Y-75740744D01*
X92635336Y-75801049D01*
X92766364Y-75888599D01*
X92877795Y-76000030D01*
X92965345Y-76131058D01*
X93025651Y-76276649D01*
X93056394Y-76431207D01*
X93056394Y-76588791D01*
X93025650Y-76743354D01*
X92965345Y-76888942D01*
X92877794Y-77019971D01*
X92766365Y-77131400D01*
X92635336Y-77218951D01*
X92489748Y-77279256D01*
X92489747Y-77279256D01*
X92489745Y-77279257D01*
X92335187Y-77310000D01*
X92177601Y-77310000D01*
X92023043Y-77279257D01*
X92023041Y-77279256D01*
X92023040Y-77279256D01*
X91877452Y-77218951D01*
X91746423Y-77131400D01*
X91634994Y-77019971D01*
X91547443Y-76888942D01*
X91487138Y-76743354D01*
X91456394Y-76588791D01*
X91456394Y-76431207D01*
X91487137Y-76276649D01*
X91547443Y-76131058D01*
X91634993Y-76000030D01*
X91746424Y-75888599D01*
X91877452Y-75801049D01*
X92023040Y-75740744D01*
X92023041Y-75740744D01*
X92023043Y-75740743D01*
X92177601Y-75710000D01*
X92335187Y-75710000D01*
X92489745Y-75740743D01*
G37*
G36*
X117889745Y-75740743D02*
G01*
X117889747Y-75740744D01*
X117889748Y-75740744D01*
X118035336Y-75801049D01*
X118166364Y-75888599D01*
X118277795Y-76000030D01*
X118365345Y-76131058D01*
X118425651Y-76276649D01*
X118456394Y-76431207D01*
X118456394Y-76588791D01*
X118425650Y-76743354D01*
X118365345Y-76888942D01*
X118277794Y-77019971D01*
X118166365Y-77131400D01*
X118035336Y-77218951D01*
X117889748Y-77279256D01*
X117889747Y-77279256D01*
X117889745Y-77279257D01*
X117735187Y-77310000D01*
X117577601Y-77310000D01*
X117423043Y-77279257D01*
X117423041Y-77279256D01*
X117423040Y-77279256D01*
X117277452Y-77218951D01*
X117146423Y-77131400D01*
X117034994Y-77019971D01*
X116947443Y-76888942D01*
X116887138Y-76743354D01*
X116856394Y-76588791D01*
X116856394Y-76431207D01*
X116887137Y-76276649D01*
X116947443Y-76131058D01*
X117034993Y-76000030D01*
X117146424Y-75888599D01*
X117277452Y-75801049D01*
X117423040Y-75740744D01*
X117423041Y-75740744D01*
X117423043Y-75740743D01*
X117577601Y-75710000D01*
X117735187Y-75710000D01*
X117889745Y-75740743D01*
G37*
G36*
X133245000Y-76420000D02*
G01*
X131305000Y-76420000D01*
X131305000Y-74180000D01*
X133245000Y-74180000D01*
X133245000Y-76420000D01*
G37*
G36*
X186110000Y-76420000D02*
G01*
X184170000Y-76420000D01*
X184170000Y-74180000D01*
X186110000Y-74180000D01*
X186110000Y-76420000D01*
G37*
G36*
X198350000Y-76310000D02*
G01*
X196330000Y-76310000D01*
X196330000Y-74290000D01*
X198350000Y-74290000D01*
X198350000Y-76310000D01*
G37*
G36*
X145485000Y-76310000D02*
G01*
X143465000Y-76310000D01*
X143465000Y-74290000D01*
X145485000Y-74290000D01*
X145485000Y-76310000D01*
G37*
G36*
X117889745Y-73200743D02*
G01*
X117889747Y-73200744D01*
X117889748Y-73200744D01*
X118035336Y-73261049D01*
X118166364Y-73348599D01*
X118277795Y-73460030D01*
X118365345Y-73591058D01*
X118425651Y-73736649D01*
X118456394Y-73891207D01*
X118456394Y-74048793D01*
X118430296Y-74180000D01*
X118425650Y-74203354D01*
X118365345Y-74348942D01*
X118277794Y-74479971D01*
X118166365Y-74591400D01*
X118035336Y-74678951D01*
X117889748Y-74739256D01*
X117889747Y-74739256D01*
X117889745Y-74739257D01*
X117735187Y-74770000D01*
X117577601Y-74770000D01*
X117423043Y-74739257D01*
X117423041Y-74739256D01*
X117423040Y-74739256D01*
X117277452Y-74678951D01*
X117146423Y-74591400D01*
X117034994Y-74479971D01*
X116947443Y-74348942D01*
X116887138Y-74203354D01*
X116882493Y-74180000D01*
X116856394Y-74048793D01*
X116856394Y-73891207D01*
X116887137Y-73736649D01*
X116947443Y-73591058D01*
X117034993Y-73460030D01*
X117146424Y-73348599D01*
X117277452Y-73261049D01*
X117423040Y-73200744D01*
X117423041Y-73200744D01*
X117423043Y-73200743D01*
X117577601Y-73170000D01*
X117735187Y-73170000D01*
X117889745Y-73200743D01*
G37*
G36*
X92489745Y-73200743D02*
G01*
X92489747Y-73200744D01*
X92489748Y-73200744D01*
X92635336Y-73261049D01*
X92766364Y-73348599D01*
X92877795Y-73460030D01*
X92965345Y-73591058D01*
X93025651Y-73736649D01*
X93056394Y-73891207D01*
X93056394Y-74048793D01*
X93030296Y-74180000D01*
X93025650Y-74203354D01*
X92965345Y-74348942D01*
X92877794Y-74479971D01*
X92766365Y-74591400D01*
X92635336Y-74678951D01*
X92489748Y-74739256D01*
X92489747Y-74739256D01*
X92489745Y-74739257D01*
X92335187Y-74770000D01*
X92177601Y-74770000D01*
X92023043Y-74739257D01*
X92023041Y-74739256D01*
X92023040Y-74739256D01*
X91877452Y-74678951D01*
X91746423Y-74591400D01*
X91634994Y-74479971D01*
X91547443Y-74348942D01*
X91487138Y-74203354D01*
X91482493Y-74180000D01*
X91456394Y-74048793D01*
X91456394Y-73891207D01*
X91487137Y-73736649D01*
X91547443Y-73591058D01*
X91634993Y-73460030D01*
X91746424Y-73348599D01*
X91877452Y-73261049D01*
X92023040Y-73200744D01*
X92023041Y-73200744D01*
X92023043Y-73200743D01*
X92177601Y-73170000D01*
X92335187Y-73170000D01*
X92489745Y-73200743D01*
G37*
G36*
X93056394Y-72230000D02*
G01*
X91456394Y-72230000D01*
X91456394Y-70630000D01*
X93056394Y-70630000D01*
X93056394Y-72230000D01*
G37*
G36*
X117889745Y-70660743D02*
G01*
X117889747Y-70660744D01*
X117889748Y-70660744D01*
X118035336Y-70721049D01*
X118166365Y-70808600D01*
X118277794Y-70920029D01*
X118365345Y-71051058D01*
X118425650Y-71196646D01*
X118456394Y-71351209D01*
X118456394Y-71508791D01*
X118425650Y-71663354D01*
X118365345Y-71808942D01*
X118277794Y-71939971D01*
X118166365Y-72051400D01*
X118035336Y-72138951D01*
X117889748Y-72199256D01*
X117889747Y-72199256D01*
X117889745Y-72199257D01*
X117735187Y-72230000D01*
X117577601Y-72230000D01*
X117423043Y-72199257D01*
X117423041Y-72199256D01*
X117423040Y-72199256D01*
X117277452Y-72138951D01*
X117146423Y-72051400D01*
X117034994Y-71939971D01*
X116947443Y-71808942D01*
X116887138Y-71663354D01*
X116856394Y-71508791D01*
X116856394Y-71351209D01*
X116887138Y-71196646D01*
X116947443Y-71051058D01*
X117034994Y-70920029D01*
X117146423Y-70808600D01*
X117277452Y-70721049D01*
X117423040Y-70660744D01*
X117423041Y-70660744D01*
X117423043Y-70660743D01*
X117577601Y-70630000D01*
X117735187Y-70630000D01*
X117889745Y-70660743D01*
G37*
G36*
X158997029Y-68047285D02*
G01*
X159134201Y-68074570D01*
X159392624Y-68181613D01*
X159625196Y-68337012D01*
X159822988Y-68534804D01*
X159978387Y-68767376D01*
X160085430Y-69025799D01*
X160140000Y-69300144D01*
X160140000Y-69579856D01*
X160085430Y-69854201D01*
X159978387Y-70112624D01*
X159822988Y-70345196D01*
X159625196Y-70542988D01*
X159392624Y-70698387D01*
X159134201Y-70805430D01*
X158997029Y-70832715D01*
X158859858Y-70860000D01*
X158580142Y-70860000D01*
X158442971Y-70832715D01*
X158305799Y-70805430D01*
X158047376Y-70698387D01*
X157814804Y-70542988D01*
X157617012Y-70345196D01*
X157461613Y-70112624D01*
X157354570Y-69854201D01*
X157300000Y-69579856D01*
X157300000Y-69300144D01*
X157354570Y-69025799D01*
X157461613Y-68767376D01*
X157617012Y-68534804D01*
X157814804Y-68337012D01*
X158047376Y-68181613D01*
X158305799Y-68074570D01*
X158442971Y-68047285D01*
X158580142Y-68020000D01*
X158859858Y-68020000D01*
X158997029Y-68047285D01*
G37*
G36*
X147445000Y-70420000D02*
G01*
X145505000Y-70420000D01*
X145505000Y-68180000D01*
X147445000Y-68180000D01*
X147445000Y-70420000D01*
G37*
G36*
X200310000Y-70420000D02*
G01*
X198370000Y-70420000D01*
X198370000Y-68180000D01*
X200310000Y-68180000D01*
X200310000Y-70420000D01*
G37*
G36*
X133245000Y-64420000D02*
G01*
X131305000Y-64420000D01*
X131305000Y-62180000D01*
X133245000Y-62180000D01*
X133245000Y-64420000D01*
G37*
G36*
X186110000Y-64420000D02*
G01*
X184170000Y-64420000D01*
X184170000Y-62180000D01*
X186110000Y-62180000D01*
X186110000Y-64420000D01*
G37*
G36*
X144772523Y-62319198D02*
G01*
X144772525Y-62319199D01*
X144772526Y-62319199D01*
X144826896Y-62341720D01*
X144958151Y-62396088D01*
X144958152Y-62396089D01*
X145125211Y-62507713D01*
X145267287Y-62649789D01*
X145356647Y-62783527D01*
X145378912Y-62816849D01*
X145455802Y-63002477D01*
X145495000Y-63199539D01*
X145495000Y-63400461D01*
X145455802Y-63597523D01*
X145378912Y-63783151D01*
X145378911Y-63783152D01*
X145267287Y-63950211D01*
X145125211Y-64092287D01*
X144991473Y-64181647D01*
X144958151Y-64203912D01*
X144826896Y-64258280D01*
X144772526Y-64280801D01*
X144772525Y-64280801D01*
X144772523Y-64280802D01*
X144575461Y-64320000D01*
X144374539Y-64320000D01*
X144177477Y-64280802D01*
X144177475Y-64280801D01*
X144177474Y-64280801D01*
X144123104Y-64258280D01*
X143991849Y-64203912D01*
X143958527Y-64181647D01*
X143824789Y-64092287D01*
X143682713Y-63950211D01*
X143571089Y-63783152D01*
X143571088Y-63783151D01*
X143494198Y-63597523D01*
X143455000Y-63400461D01*
X143455000Y-63199539D01*
X143494198Y-63002477D01*
X143571088Y-62816849D01*
X143593353Y-62783527D01*
X143682713Y-62649789D01*
X143824789Y-62507713D01*
X143991848Y-62396089D01*
X143991849Y-62396088D01*
X144123104Y-62341720D01*
X144177474Y-62319199D01*
X144177475Y-62319199D01*
X144177477Y-62319198D01*
X144374539Y-62280000D01*
X144575461Y-62280000D01*
X144772523Y-62319198D01*
G37*
G36*
X197637523Y-62319198D02*
G01*
X197637525Y-62319199D01*
X197637526Y-62319199D01*
X197691896Y-62341720D01*
X197823151Y-62396088D01*
X197823152Y-62396089D01*
X197990211Y-62507713D01*
X198132287Y-62649789D01*
X198221647Y-62783527D01*
X198243912Y-62816849D01*
X198320802Y-63002477D01*
X198360000Y-63199539D01*
X198360000Y-63400461D01*
X198320802Y-63597523D01*
X198243912Y-63783151D01*
X198243911Y-63783152D01*
X198132287Y-63950211D01*
X197990211Y-64092287D01*
X197856473Y-64181647D01*
X197823151Y-64203912D01*
X197691896Y-64258280D01*
X197637526Y-64280801D01*
X197637525Y-64280801D01*
X197637523Y-64280802D01*
X197440461Y-64320000D01*
X197239539Y-64320000D01*
X197042477Y-64280802D01*
X197042475Y-64280801D01*
X197042474Y-64280801D01*
X196988104Y-64258280D01*
X196856849Y-64203912D01*
X196823527Y-64181647D01*
X196689789Y-64092287D01*
X196547713Y-63950211D01*
X196436089Y-63783152D01*
X196436088Y-63783151D01*
X196359198Y-63597523D01*
X196320000Y-63400461D01*
X196320000Y-63199539D01*
X196359198Y-63002477D01*
X196436088Y-62816849D01*
X196458353Y-62783527D01*
X196547713Y-62649789D01*
X196689789Y-62507713D01*
X196856848Y-62396089D01*
X196856849Y-62396088D01*
X196988104Y-62341720D01*
X197042474Y-62319199D01*
X197042475Y-62319199D01*
X197042477Y-62319198D01*
X197239539Y-62280000D01*
X197440461Y-62280000D01*
X197637523Y-62319198D01*
G37*
G36*
X93476860Y-62461720D02*
G01*
X91736860Y-62461720D01*
X91736860Y-60721720D01*
X93476860Y-60721720D01*
X93476860Y-62461720D01*
G37*
G36*
X95299781Y-60735093D02*
G01*
X95400630Y-60755153D01*
X95558960Y-60820736D01*
X95701453Y-60915947D01*
X95822633Y-61037127D01*
X95917844Y-61179620D01*
X95983427Y-61337950D01*
X96016860Y-61506032D01*
X96016860Y-61677408D01*
X95983427Y-61845490D01*
X95917844Y-62003820D01*
X95822633Y-62146313D01*
X95701453Y-62267493D01*
X95558960Y-62362704D01*
X95400630Y-62428287D01*
X95299781Y-62448347D01*
X95232550Y-62461720D01*
X95061170Y-62461720D01*
X94993939Y-62448347D01*
X94893090Y-62428287D01*
X94734760Y-62362704D01*
X94592267Y-62267493D01*
X94471087Y-62146313D01*
X94375876Y-62003820D01*
X94310293Y-61845490D01*
X94276860Y-61677408D01*
X94276860Y-61506032D01*
X94310293Y-61337950D01*
X94375876Y-61179620D01*
X94471087Y-61037127D01*
X94592267Y-60915947D01*
X94734760Y-60820736D01*
X94893090Y-60755153D01*
X94993939Y-60735093D01*
X95061170Y-60721720D01*
X95232550Y-60721720D01*
X95299781Y-60735093D01*
G37*
G36*
X97839781Y-60735093D02*
G01*
X97940630Y-60755153D01*
X98098960Y-60820736D01*
X98241453Y-60915947D01*
X98362633Y-61037127D01*
X98457844Y-61179620D01*
X98523427Y-61337950D01*
X98556860Y-61506032D01*
X98556860Y-61677408D01*
X98523427Y-61845490D01*
X98457844Y-62003820D01*
X98362633Y-62146313D01*
X98241453Y-62267493D01*
X98098960Y-62362704D01*
X97940630Y-62428287D01*
X97839781Y-62448347D01*
X97772550Y-62461720D01*
X97601170Y-62461720D01*
X97533939Y-62448347D01*
X97433090Y-62428287D01*
X97274760Y-62362704D01*
X97132267Y-62267493D01*
X97011087Y-62146313D01*
X96915876Y-62003820D01*
X96850293Y-61845490D01*
X96816860Y-61677408D01*
X96816860Y-61506032D01*
X96850293Y-61337950D01*
X96915876Y-61179620D01*
X97011087Y-61037127D01*
X97132267Y-60915947D01*
X97274760Y-60820736D01*
X97433090Y-60755153D01*
X97533939Y-60735093D01*
X97601170Y-60721720D01*
X97772550Y-60721720D01*
X97839781Y-60735093D01*
G37*
G36*
X93039212Y-52257627D02*
G01*
X93039214Y-52257628D01*
X93039215Y-52257628D01*
X93146887Y-52302227D01*
X93406829Y-52409899D01*
X93522921Y-52487469D01*
X93706359Y-52610038D01*
X93737675Y-52630963D01*
X94019037Y-52912325D01*
X94240101Y-53243171D01*
X94392373Y-53610788D01*
X94470000Y-54001047D01*
X94470000Y-54398953D01*
X94392373Y-54789212D01*
X94240101Y-55156829D01*
X94019037Y-55487675D01*
X93737675Y-55769037D01*
X93406829Y-55990101D01*
X93146887Y-56097773D01*
X93039215Y-56142372D01*
X93039214Y-56142372D01*
X93039212Y-56142373D01*
X92648953Y-56220000D01*
X92251047Y-56220000D01*
X91860788Y-56142373D01*
X91860786Y-56142372D01*
X91860785Y-56142372D01*
X91753113Y-56097773D01*
X91493171Y-55990101D01*
X91162325Y-55769037D01*
X90880963Y-55487675D01*
X90659899Y-55156829D01*
X90507627Y-54789212D01*
X90430000Y-54398953D01*
X90430000Y-54001047D01*
X90507627Y-53610788D01*
X90659899Y-53243171D01*
X90880963Y-52912325D01*
X91162325Y-52630963D01*
X91193642Y-52610038D01*
X91377079Y-52487469D01*
X91493171Y-52409899D01*
X91753113Y-52302227D01*
X91860785Y-52257628D01*
X91860786Y-52257628D01*
X91860788Y-52257627D01*
X92251047Y-52180000D01*
X92648953Y-52180000D01*
X93039212Y-52257627D01*
G37*
G36*
X207989212Y-52257627D02*
G01*
X207989214Y-52257628D01*
X207989215Y-52257628D01*
X208096887Y-52302227D01*
X208356829Y-52409899D01*
X208472921Y-52487469D01*
X208656359Y-52610038D01*
X208687675Y-52630963D01*
X208969037Y-52912325D01*
X209190101Y-53243171D01*
X209342373Y-53610788D01*
X209420000Y-54001047D01*
X209420000Y-54398953D01*
X209342373Y-54789212D01*
X209190101Y-55156829D01*
X208969037Y-55487675D01*
X208687675Y-55769037D01*
X208356829Y-55990101D01*
X208096887Y-56097773D01*
X207989215Y-56142372D01*
X207989214Y-56142372D01*
X207989212Y-56142373D01*
X207598953Y-56220000D01*
X207201047Y-56220000D01*
X206810788Y-56142373D01*
X206810786Y-56142372D01*
X206810785Y-56142372D01*
X206703113Y-56097773D01*
X206443171Y-55990101D01*
X206112325Y-55769037D01*
X205830963Y-55487675D01*
X205609899Y-55156829D01*
X205457627Y-54789212D01*
X205380000Y-54398953D01*
X205380000Y-54001047D01*
X205457627Y-53610788D01*
X205609899Y-53243171D01*
X205830963Y-52912325D01*
X206112325Y-52630963D01*
X206143642Y-52610038D01*
X206327079Y-52487469D01*
X206443171Y-52409899D01*
X206703113Y-52302227D01*
X206810785Y-52257628D01*
X206810786Y-52257628D01*
X206810788Y-52257627D01*
X207201047Y-52180000D01*
X207598953Y-52180000D01*
X207989212Y-52257627D01*
G37*
G36*
X131967936Y-53517276D02*
G01*
X132144466Y-53590397D01*
X132144467Y-53590398D01*
X132303339Y-53696552D01*
X132438448Y-53831661D01*
X132518154Y-53950951D01*
X132544603Y-53990534D01*
X132617724Y-54167064D01*
X132655000Y-54354461D01*
X132655000Y-54545539D01*
X132617724Y-54732936D01*
X132544603Y-54909466D01*
X132544602Y-54909467D01*
X132438448Y-55068339D01*
X132303339Y-55203448D01*
X132184049Y-55283154D01*
X132144466Y-55309603D01*
X131967936Y-55382724D01*
X131780539Y-55420000D01*
X131589461Y-55420000D01*
X131402064Y-55382724D01*
X131225534Y-55309603D01*
X131185951Y-55283154D01*
X131066661Y-55203448D01*
X130931552Y-55068339D01*
X130825398Y-54909467D01*
X130825397Y-54909466D01*
X130752276Y-54732936D01*
X130715000Y-54545539D01*
X130715000Y-54354461D01*
X130752276Y-54167064D01*
X130825397Y-53990534D01*
X130851846Y-53950951D01*
X130931552Y-53831661D01*
X131066661Y-53696552D01*
X131225533Y-53590398D01*
X131225534Y-53590397D01*
X131402064Y-53517276D01*
X131589461Y-53480000D01*
X131780539Y-53480000D01*
X131967936Y-53517276D01*
G37*
G36*
X136967936Y-53517276D02*
G01*
X137144466Y-53590397D01*
X137144467Y-53590398D01*
X137303339Y-53696552D01*
X137438448Y-53831661D01*
X137518154Y-53950951D01*
X137544603Y-53990534D01*
X137617724Y-54167064D01*
X137655000Y-54354461D01*
X137655000Y-54545539D01*
X137617724Y-54732936D01*
X137544603Y-54909466D01*
X137544602Y-54909467D01*
X137438448Y-55068339D01*
X137303339Y-55203448D01*
X137184049Y-55283154D01*
X137144466Y-55309603D01*
X136967936Y-55382724D01*
X136780539Y-55420000D01*
X136589461Y-55420000D01*
X136402064Y-55382724D01*
X136225534Y-55309603D01*
X136185951Y-55283154D01*
X136066661Y-55203448D01*
X135931552Y-55068339D01*
X135825398Y-54909467D01*
X135825397Y-54909466D01*
X135752276Y-54732936D01*
X135715000Y-54545539D01*
X135715000Y-54354461D01*
X135752276Y-54167064D01*
X135825397Y-53990534D01*
X135851846Y-53950951D01*
X135931552Y-53831661D01*
X136066661Y-53696552D01*
X136225533Y-53590398D01*
X136225534Y-53590397D01*
X136402064Y-53517276D01*
X136589461Y-53480000D01*
X136780539Y-53480000D01*
X136967936Y-53517276D01*
G37*
G36*
X142655000Y-55420000D02*
G01*
X140715000Y-55420000D01*
X140715000Y-53480000D01*
X142655000Y-53480000D01*
X142655000Y-55420000D01*
G37*
G36*
X184832936Y-53517276D02*
G01*
X185009466Y-53590397D01*
X185009467Y-53590398D01*
X185168339Y-53696552D01*
X185303448Y-53831661D01*
X185383154Y-53950951D01*
X185409603Y-53990534D01*
X185482724Y-54167064D01*
X185520000Y-54354461D01*
X185520000Y-54545539D01*
X185482724Y-54732936D01*
X185409603Y-54909466D01*
X185409602Y-54909467D01*
X185303448Y-55068339D01*
X185168339Y-55203448D01*
X185049049Y-55283154D01*
X185009466Y-55309603D01*
X184832936Y-55382724D01*
X184645539Y-55420000D01*
X184454461Y-55420000D01*
X184267064Y-55382724D01*
X184090534Y-55309603D01*
X184050951Y-55283154D01*
X183931661Y-55203448D01*
X183796552Y-55068339D01*
X183690398Y-54909467D01*
X183690397Y-54909466D01*
X183617276Y-54732936D01*
X183580000Y-54545539D01*
X183580000Y-54354461D01*
X183617276Y-54167064D01*
X183690397Y-53990534D01*
X183716846Y-53950951D01*
X183796552Y-53831661D01*
X183931661Y-53696552D01*
X184090533Y-53590398D01*
X184090534Y-53590397D01*
X184267064Y-53517276D01*
X184454461Y-53480000D01*
X184645539Y-53480000D01*
X184832936Y-53517276D01*
G37*
G36*
X189832936Y-53517276D02*
G01*
X190009466Y-53590397D01*
X190009467Y-53590398D01*
X190168339Y-53696552D01*
X190303448Y-53831661D01*
X190383154Y-53950951D01*
X190409603Y-53990534D01*
X190482724Y-54167064D01*
X190520000Y-54354461D01*
X190520000Y-54545539D01*
X190482724Y-54732936D01*
X190409603Y-54909466D01*
X190409602Y-54909467D01*
X190303448Y-55068339D01*
X190168339Y-55203448D01*
X190049049Y-55283154D01*
X190009466Y-55309603D01*
X189832936Y-55382724D01*
X189645539Y-55420000D01*
X189454461Y-55420000D01*
X189267064Y-55382724D01*
X189090534Y-55309603D01*
X189050951Y-55283154D01*
X188931661Y-55203448D01*
X188796552Y-55068339D01*
X188690398Y-54909467D01*
X188690397Y-54909466D01*
X188617276Y-54732936D01*
X188580000Y-54545539D01*
X188580000Y-54354461D01*
X188617276Y-54167064D01*
X188690397Y-53990534D01*
X188716846Y-53950951D01*
X188796552Y-53831661D01*
X188931661Y-53696552D01*
X189090533Y-53590398D01*
X189090534Y-53590397D01*
X189267064Y-53517276D01*
X189454461Y-53480000D01*
X189645539Y-53480000D01*
X189832936Y-53517276D01*
G37*
G36*
X195520000Y-55420000D02*
G01*
X193580000Y-55420000D01*
X193580000Y-53480000D01*
X195520000Y-53480000D01*
X195520000Y-55420000D01*
G37*
G36*
X113746692Y-52453041D02*
G01*
X113746694Y-52453042D01*
X113746695Y-52453042D01*
X113806394Y-52477770D01*
X113950519Y-52537469D01*
X114133958Y-52660039D01*
X114289961Y-52816042D01*
X114412531Y-52999481D01*
X114496959Y-53203308D01*
X114540000Y-53419690D01*
X114540000Y-53640310D01*
X114496959Y-53856692D01*
X114412531Y-54060519D01*
X114289961Y-54243958D01*
X114133958Y-54399961D01*
X113950519Y-54522531D01*
X113806394Y-54582229D01*
X113746695Y-54606958D01*
X113746694Y-54606958D01*
X113746692Y-54606959D01*
X113530310Y-54650000D01*
X113309690Y-54650000D01*
X113093308Y-54606959D01*
X113093306Y-54606958D01*
X113093305Y-54606958D01*
X113033606Y-54582229D01*
X112889481Y-54522531D01*
X112706042Y-54399961D01*
X112550039Y-54243958D01*
X112427469Y-54060519D01*
X112343041Y-53856692D01*
X112300000Y-53640310D01*
X112300000Y-53419690D01*
X112343041Y-53203308D01*
X112427469Y-52999481D01*
X112550039Y-52816042D01*
X112706042Y-52660039D01*
X112889481Y-52537469D01*
X113033606Y-52477771D01*
X113093305Y-52453042D01*
X113093306Y-52453042D01*
X113093308Y-52453041D01*
X113309690Y-52410000D01*
X113530310Y-52410000D01*
X113746692Y-52453041D01*
G37*
G36*
X109936692Y-52453041D02*
G01*
X109936694Y-52453042D01*
X109936695Y-52453042D01*
X109996394Y-52477770D01*
X110140519Y-52537469D01*
X110323958Y-52660039D01*
X110479961Y-52816042D01*
X110602531Y-52999481D01*
X110686959Y-53203308D01*
X110730000Y-53419690D01*
X110730000Y-53640310D01*
X110686959Y-53856692D01*
X110602531Y-54060519D01*
X110479961Y-54243958D01*
X110323958Y-54399961D01*
X110140519Y-54522531D01*
X109996394Y-54582229D01*
X109936695Y-54606958D01*
X109936694Y-54606958D01*
X109936692Y-54606959D01*
X109720310Y-54650000D01*
X109499690Y-54650000D01*
X109283308Y-54606959D01*
X109283306Y-54606958D01*
X109283305Y-54606958D01*
X109223606Y-54582229D01*
X109079481Y-54522531D01*
X108896042Y-54399961D01*
X108740039Y-54243958D01*
X108617469Y-54060519D01*
X108533041Y-53856692D01*
X108490000Y-53640310D01*
X108490000Y-53419690D01*
X108533041Y-53203308D01*
X108617469Y-52999481D01*
X108740039Y-52816042D01*
X108896042Y-52660039D01*
X109079481Y-52537469D01*
X109223606Y-52477771D01*
X109283305Y-52453042D01*
X109283306Y-52453042D01*
X109283308Y-52453041D01*
X109499690Y-52410000D01*
X109720310Y-52410000D01*
X109936692Y-52453041D01*
G37*
G36*
X106126692Y-52453041D02*
G01*
X106126694Y-52453042D01*
X106126695Y-52453042D01*
X106186394Y-52477770D01*
X106330519Y-52537469D01*
X106513958Y-52660039D01*
X106669961Y-52816042D01*
X106792531Y-52999481D01*
X106876959Y-53203308D01*
X106920000Y-53419690D01*
X106920000Y-53640310D01*
X106876959Y-53856692D01*
X106792531Y-54060519D01*
X106669961Y-54243958D01*
X106513958Y-54399961D01*
X106330519Y-54522531D01*
X106186394Y-54582229D01*
X106126695Y-54606958D01*
X106126694Y-54606958D01*
X106126692Y-54606959D01*
X105910310Y-54650000D01*
X105689690Y-54650000D01*
X105473308Y-54606959D01*
X105473306Y-54606958D01*
X105473305Y-54606958D01*
X105413606Y-54582229D01*
X105269481Y-54522531D01*
X105086042Y-54399961D01*
X104930039Y-54243958D01*
X104807469Y-54060519D01*
X104723041Y-53856692D01*
X104680000Y-53640310D01*
X104680000Y-53419690D01*
X104723041Y-53203308D01*
X104807469Y-52999481D01*
X104930039Y-52816042D01*
X105086042Y-52660039D01*
X105269481Y-52537469D01*
X105413606Y-52477771D01*
X105473305Y-52453042D01*
X105473306Y-52453042D01*
X105473308Y-52453041D01*
X105689690Y-52410000D01*
X105910310Y-52410000D01*
X106126692Y-52453041D01*
G37*
G36*
X168166692Y-52403041D02*
G01*
X168166694Y-52403042D01*
X168166695Y-52403042D01*
X168226394Y-52427771D01*
X168370519Y-52487469D01*
X168553958Y-52610039D01*
X168709961Y-52766042D01*
X168832531Y-52949481D01*
X168916959Y-53153308D01*
X168960000Y-53369690D01*
X168960000Y-53590310D01*
X168950055Y-53640308D01*
X168916958Y-53806695D01*
X168896248Y-53856692D01*
X168832531Y-54010519D01*
X168832530Y-54010520D01*
X168709962Y-54193957D01*
X168553957Y-54349962D01*
X168480639Y-54398951D01*
X168370519Y-54472531D01*
X168249811Y-54522530D01*
X168166695Y-54556958D01*
X168166694Y-54556958D01*
X168166692Y-54556959D01*
X167950310Y-54600000D01*
X167729690Y-54600000D01*
X167513308Y-54556959D01*
X167513306Y-54556958D01*
X167513305Y-54556958D01*
X167430189Y-54522530D01*
X167309481Y-54472531D01*
X167199361Y-54398951D01*
X167126043Y-54349962D01*
X166970038Y-54193957D01*
X166847470Y-54010520D01*
X166847469Y-54010519D01*
X166783752Y-53856692D01*
X166763042Y-53806695D01*
X166729946Y-53640308D01*
X166720000Y-53590310D01*
X166720000Y-53369690D01*
X166763041Y-53153308D01*
X166847469Y-52949481D01*
X166970039Y-52766042D01*
X167126042Y-52610039D01*
X167309481Y-52487469D01*
X167453606Y-52427771D01*
X167513305Y-52403042D01*
X167513306Y-52403042D01*
X167513308Y-52403041D01*
X167729690Y-52360000D01*
X167950310Y-52360000D01*
X168166692Y-52403041D01*
G37*
G36*
X164356692Y-52403041D02*
G01*
X164356694Y-52403042D01*
X164356695Y-52403042D01*
X164416394Y-52427771D01*
X164560519Y-52487469D01*
X164743958Y-52610039D01*
X164899961Y-52766042D01*
X165022531Y-52949481D01*
X165106959Y-53153308D01*
X165150000Y-53369690D01*
X165150000Y-53590310D01*
X165140055Y-53640308D01*
X165106958Y-53806695D01*
X165086248Y-53856692D01*
X165022531Y-54010519D01*
X165022530Y-54010520D01*
X164899962Y-54193957D01*
X164743957Y-54349962D01*
X164670639Y-54398951D01*
X164560519Y-54472531D01*
X164439811Y-54522530D01*
X164356695Y-54556958D01*
X164356694Y-54556958D01*
X164356692Y-54556959D01*
X164140310Y-54600000D01*
X163919690Y-54600000D01*
X163703308Y-54556959D01*
X163703306Y-54556958D01*
X163703305Y-54556958D01*
X163620189Y-54522530D01*
X163499481Y-54472531D01*
X163389361Y-54398951D01*
X163316043Y-54349962D01*
X163160038Y-54193957D01*
X163037470Y-54010520D01*
X163037469Y-54010519D01*
X162973752Y-53856692D01*
X162953042Y-53806695D01*
X162919946Y-53640308D01*
X162910000Y-53590310D01*
X162910000Y-53369690D01*
X162953041Y-53153308D01*
X163037469Y-52949481D01*
X163160039Y-52766042D01*
X163316042Y-52610039D01*
X163499481Y-52487469D01*
X163643606Y-52427771D01*
X163703305Y-52403042D01*
X163703306Y-52403042D01*
X163703308Y-52403041D01*
X163919690Y-52360000D01*
X164140310Y-52360000D01*
X164356692Y-52403041D01*
G37*
G36*
X160546692Y-52403041D02*
G01*
X160546694Y-52403042D01*
X160546695Y-52403042D01*
X160606394Y-52427771D01*
X160750519Y-52487469D01*
X160933958Y-52610039D01*
X161089961Y-52766042D01*
X161212531Y-52949481D01*
X161296959Y-53153308D01*
X161340000Y-53369690D01*
X161340000Y-53590310D01*
X161330055Y-53640308D01*
X161296958Y-53806695D01*
X161276248Y-53856692D01*
X161212531Y-54010519D01*
X161212530Y-54010520D01*
X161089962Y-54193957D01*
X160933957Y-54349962D01*
X160860639Y-54398951D01*
X160750519Y-54472531D01*
X160629811Y-54522530D01*
X160546695Y-54556958D01*
X160546694Y-54556958D01*
X160546692Y-54556959D01*
X160330310Y-54600000D01*
X160109690Y-54600000D01*
X159893308Y-54556959D01*
X159893306Y-54556958D01*
X159893305Y-54556958D01*
X159810189Y-54522530D01*
X159689481Y-54472531D01*
X159579361Y-54398951D01*
X159506043Y-54349962D01*
X159350038Y-54193957D01*
X159227470Y-54010520D01*
X159227469Y-54010519D01*
X159163752Y-53856692D01*
X159143042Y-53806695D01*
X159109946Y-53640308D01*
X159100000Y-53590310D01*
X159100000Y-53369690D01*
X159143041Y-53153308D01*
X159227469Y-52949481D01*
X159350039Y-52766042D01*
X159506042Y-52610039D01*
X159689481Y-52487469D01*
X159833606Y-52427771D01*
X159893305Y-52403042D01*
X159893306Y-52403042D01*
X159893308Y-52403041D01*
X160109690Y-52360000D01*
X160330310Y-52360000D01*
X160546692Y-52403041D01*
G37*
G36*
X118250000Y-54550000D02*
G01*
X116210000Y-54550000D01*
X116210000Y-52510000D01*
X118250000Y-52510000D01*
X118250000Y-54550000D01*
G37*
G36*
X172670000Y-54500000D02*
G01*
X170630000Y-54500000D01*
X170630000Y-52460000D01*
X172670000Y-52460000D01*
X172670000Y-54500000D01*
G37*
M02*
