M48
; DRILL file {KiCad 5.1.9+dfsg1-1~bpo10+1} date Mon May 17 10:22:02 2021
; FORMAT={-:-/ absolute / inch / decimal}
; #@! TF.CreationDate,2021-05-17T10:22:02+00:00
; #@! TF.GenerationSoftware,Kicad,Pcbnew,5.1.9+dfsg1-1~bpo10+1
FMAT,2
INCH
T1C0.0157
T2C0.0197
T3C0.0295
T4C0.0394
T5C0.1260
%
G90
G05
T1
X4.0538Y-2.8558
X4.0558Y-3.8424
X4.1403Y-2.4418
X4.1865Y-2.4418
X4.2145Y-2.4015
X4.22Y-2.2255
X4.2202Y-2.1895
X4.2523Y-3.6745
X4.2956Y-3.6745
X4.3117Y-1.9651
X4.3121Y-2.7058
X4.3121Y-2.7501
X4.3251Y-2.5861
X4.3389Y-3.6745
X4.3462Y-2.471
X4.3493Y-2.3357
X4.3531Y-3.9409
X4.3617Y-2.5869
X4.3836Y-1.9651
X4.3842Y-3.6745
X4.3922Y-3.9412
X4.3924Y-2.471
X4.3956Y-2.3357
X4.4416Y-2.471
X4.4448Y-2.3357
X4.4554Y-1.9651
X4.4793Y-3.1813
X4.5524Y-3.1826
X4.5649Y-2.742
X4.6196Y-2.2452
X4.6212Y-2.6956
X4.6247Y-3.6836
X4.6247Y-3.7288
X4.6247Y-3.769
X4.6247Y-3.8076
X4.6247Y-3.8462
X4.6255Y-2.3521
X4.6511Y-2.5759
X4.6769Y-3.6836
X4.6769Y-3.7288
X4.6769Y-3.769
X4.6769Y-3.8076
X4.6769Y-3.8462
X4.7605Y-2.4637
X4.7932Y-2.694
X4.8078Y-2.7554
X4.818Y-2.4558
X4.822Y-2.6227
X4.8582Y-2.5223
X4.8629Y-2.6027
X4.8716Y-2.7771
X4.8783Y-2.9066
X4.9204Y-2.9062
X4.9347Y-2.5668
X4.9446Y-2.2436
X4.9708Y-2.4621
X4.9771Y-2.1334
X5.0046Y-2.7385
X5.0105Y-2.946
X5.0113Y-2.9928
X5.0182Y-2.666
X5.0386Y-2.7228
X5.0424Y-3.5747
X5.043Y-3.5349
X5.0594Y-2.4633
X5.0759Y-2.4149
X5.0814Y-3.782
X5.0834Y-3.5349
X5.0991Y-2.6125
X5.1046Y-2.946
X5.1058Y-2.9928
X5.133Y-2.4149
T2
X4.1264Y-3.9405
X4.1572Y-3.9405
X4.1879Y-3.9405
X4.2187Y-3.9405
X4.2494Y-3.9405
X4.2802Y-3.9405
X4.3117Y-3.9405
T3
X4.355Y-2.1412
X4.4338Y-2.1412
X4.7723Y-2.1412
X4.8334Y-4.0172
X4.8511Y-2.1412
X4.9121Y-4.0172
X5.0204Y-3.1058
X5.0991Y-3.1058
T4
X4.1198Y-2.5379
X4.1198Y-2.6379
X4.1198Y-2.7379
X4.2198Y-2.5379
X4.2198Y-2.6379
X4.2198Y-2.7379
X4.3176Y-4.0851
X4.3176Y-4.1851
T5
X4.1208Y-1.9975
X4.5968Y-4.159
X5.0853Y-1.9975
T0
M30
