G04 #@! TF.GenerationSoftware,KiCad,Pcbnew,5.1.9+dfsg1-1+deb11u1*
G04 #@! TF.CreationDate,2025-04-18T11:55:34+00:00*
G04 #@! TF.ProjectId,ModuleV440,4d6f6475-6c65-4563-9434-302e6b696361,rev?*
G04 #@! TF.SameCoordinates,Original*
G04 #@! TF.FileFunction,Soldermask,Bot*
G04 #@! TF.FilePolarity,Negative*
%FSLAX46Y46*%
G04 Gerber Fmt 4.6, Leading zero omitted, Abs format (unit mm)*
G04 Created by KiCad (PCBNEW 5.1.9+dfsg1-1+deb11u1) date 2025-04-18 11:55:34*
%MOMM*%
%LPD*%
G01*
G04 APERTURE LIST*
%ADD10O,1.600000X2.150000*%
%ADD11O,2.100000X2.100000*%
%ADD12C,3.600000*%
G04 APERTURE END LIST*
D10*
X121217600Y-54387600D03*
G36*
G01*
X124017600Y-53645932D02*
X124017600Y-55129268D01*
G75*
G02*
X123684268Y-55462600I-333332J0D01*
G01*
X122750932Y-55462600D01*
G75*
G02*
X122417600Y-55129268I0J333332D01*
G01*
X122417600Y-53645932D01*
G75*
G02*
X122750932Y-53312600I333332J0D01*
G01*
X123684268Y-53312600D01*
G75*
G02*
X124017600Y-53645932I0J-333332D01*
G01*
G37*
X110617600Y-54387600D03*
G36*
G01*
X113417600Y-53645932D02*
X113417600Y-55129268D01*
G75*
G02*
X113084268Y-55462600I-333332J0D01*
G01*
X112150932Y-55462600D01*
G75*
G02*
X111817600Y-55129268I0J333332D01*
G01*
X111817600Y-53645932D01*
G75*
G02*
X112150932Y-53312600I333332J0D01*
G01*
X113084268Y-53312600D01*
G75*
G02*
X113417600Y-53645932I0J-333332D01*
G01*
G37*
D11*
X109667600Y-106302600D03*
G36*
G01*
X108617600Y-104612600D02*
X108617600Y-102912600D01*
G75*
G02*
X108817600Y-102712600I200000J0D01*
G01*
X110517600Y-102712600D01*
G75*
G02*
X110717600Y-102912600I0J-200000D01*
G01*
X110717600Y-104612600D01*
G75*
G02*
X110517600Y-104812600I-200000J0D01*
G01*
X108817600Y-104812600D01*
G75*
G02*
X108617600Y-104612600I0J200000D01*
G01*
G37*
D10*
X124767600Y-102037600D03*
G36*
G01*
X121967600Y-102779268D02*
X121967600Y-101295932D01*
G75*
G02*
X122300932Y-100962600I333332J0D01*
G01*
X123234268Y-100962600D01*
G75*
G02*
X123567600Y-101295932I0J-333332D01*
G01*
X123567600Y-102779268D01*
G75*
G02*
X123234268Y-103112600I-333332J0D01*
G01*
X122300932Y-103112600D01*
G75*
G02*
X121967600Y-102779268I0J333332D01*
G01*
G37*
X129517600Y-78887600D03*
G36*
G01*
X126717600Y-79629268D02*
X126717600Y-78145932D01*
G75*
G02*
X127050932Y-77812600I333332J0D01*
G01*
X127984268Y-77812600D01*
G75*
G02*
X128317600Y-78145932I0J-333332D01*
G01*
X128317600Y-79629268D01*
G75*
G02*
X127984268Y-79962600I-333332J0D01*
G01*
X127050932Y-79962600D01*
G75*
G02*
X126717600Y-79629268I0J333332D01*
G01*
G37*
D12*
X116757600Y-105637600D03*
X129167600Y-50737600D03*
X104667600Y-50737600D03*
G36*
G01*
X103592600Y-65312600D02*
X103592600Y-63612600D01*
G75*
G02*
X103792600Y-63412600I200000J0D01*
G01*
X105492600Y-63412600D01*
G75*
G02*
X105692600Y-63612600I0J-200000D01*
G01*
X105692600Y-65312600D01*
G75*
G02*
X105492600Y-65512600I-200000J0D01*
G01*
X103792600Y-65512600D01*
G75*
G02*
X103592600Y-65312600I0J200000D01*
G01*
G37*
D11*
X107182600Y-64462600D03*
X104642600Y-67002600D03*
X107182600Y-67002600D03*
X104642600Y-69542600D03*
X107182600Y-69542600D03*
M02*
