G04 #@! TF.GenerationSoftware,KiCad,Pcbnew,5.1.9+dfsg1-1~bpo10+1*
G04 #@! TF.CreationDate,2021-05-17T10:22:02+00:00*
G04 #@! TF.ProjectId,ModuleV440,4d6f6475-6c65-4563-9434-302e6b696361,rev?*
G04 #@! TF.SameCoordinates,Original*
G04 #@! TF.FileFunction,Copper,L2,Bot*
G04 #@! TF.FilePolarity,Positive*
%FSLAX46Y46*%
G04 Gerber Fmt 4.6, Leading zero omitted, Abs format (unit mm)*
G04 Created by KiCad (PCBNEW 5.1.9+dfsg1-1~bpo10+1) date 2021-05-17 10:22:02*
%MOMM*%
%LPD*%
G01*
G04 APERTURE LIST*
G04 #@! TA.AperFunction,ComponentPad*
%ADD10O,1.200000X1.750000*%
G04 #@! TD*
G04 #@! TA.AperFunction,ComponentPad*
%ADD11O,1.700000X1.700000*%
G04 #@! TD*
G04 #@! TA.AperFunction,ComponentPad*
%ADD12R,1.700000X1.700000*%
G04 #@! TD*
G04 #@! TA.AperFunction,ViaPad*
%ADD13C,1.000000*%
G04 #@! TD*
G04 #@! TA.AperFunction,ViaPad*
%ADD14C,0.800000*%
G04 #@! TD*
G04 #@! TA.AperFunction,Conductor*
%ADD15C,0.500000*%
G04 #@! TD*
G04 #@! TA.AperFunction,Conductor*
%ADD16C,0.300000*%
G04 #@! TD*
G04 #@! TA.AperFunction,Conductor*
%ADD17C,0.250000*%
G04 #@! TD*
G04 #@! TA.AperFunction,Conductor*
%ADD18C,0.254000*%
G04 #@! TD*
G04 #@! TA.AperFunction,Conductor*
%ADD19C,0.100000*%
G04 #@! TD*
G04 APERTURE END LIST*
D10*
X121217600Y-54387600D03*
G04 #@! TA.AperFunction,ComponentPad*
G36*
G01*
X123817600Y-53762599D02*
X123817600Y-55012601D01*
G75*
G02*
X123567601Y-55262600I-249999J0D01*
G01*
X122867599Y-55262600D01*
G75*
G02*
X122617600Y-55012601I0J249999D01*
G01*
X122617600Y-53762599D01*
G75*
G02*
X122867599Y-53512600I249999J0D01*
G01*
X123567601Y-53512600D01*
G75*
G02*
X123817600Y-53762599I0J-249999D01*
G01*
G37*
G04 #@! TD.AperFunction*
X110617600Y-54387600D03*
G04 #@! TA.AperFunction,ComponentPad*
G36*
G01*
X113217600Y-53762599D02*
X113217600Y-55012601D01*
G75*
G02*
X112967601Y-55262600I-249999J0D01*
G01*
X112267599Y-55262600D01*
G75*
G02*
X112017600Y-55012601I0J249999D01*
G01*
X112017600Y-53762599D01*
G75*
G02*
X112267599Y-53512600I249999J0D01*
G01*
X112967601Y-53512600D01*
G75*
G02*
X113217600Y-53762599I0J-249999D01*
G01*
G37*
G04 #@! TD.AperFunction*
D11*
X109667600Y-106302600D03*
D12*
X109667600Y-103762600D03*
D10*
X124767600Y-102037600D03*
G04 #@! TA.AperFunction,ComponentPad*
G36*
G01*
X122167600Y-102662601D02*
X122167600Y-101412599D01*
G75*
G02*
X122417599Y-101162600I249999J0D01*
G01*
X123117601Y-101162600D01*
G75*
G02*
X123367600Y-101412599I0J-249999D01*
G01*
X123367600Y-102662601D01*
G75*
G02*
X123117601Y-102912600I-249999J0D01*
G01*
X122417599Y-102912600D01*
G75*
G02*
X122167600Y-102662601I0J249999D01*
G01*
G37*
G04 #@! TD.AperFunction*
X129517600Y-78887600D03*
G04 #@! TA.AperFunction,ComponentPad*
G36*
G01*
X126917600Y-79512601D02*
X126917600Y-78262599D01*
G75*
G02*
X127167599Y-78012600I249999J0D01*
G01*
X127867601Y-78012600D01*
G75*
G02*
X128117600Y-78262599I0J-249999D01*
G01*
X128117600Y-79512601D01*
G75*
G02*
X127867601Y-79762600I-249999J0D01*
G01*
X127167599Y-79762600D01*
G75*
G02*
X126917600Y-79512601I0J249999D01*
G01*
G37*
G04 #@! TD.AperFunction*
D12*
X104642600Y-64462600D03*
D11*
X107182600Y-64462600D03*
X104642600Y-67002600D03*
X107182600Y-67002600D03*
X104642600Y-69542600D03*
X107182600Y-69542600D03*
D13*
X104810933Y-100087600D03*
X105592044Y-100087600D03*
X106373155Y-100087600D03*
X107154266Y-100087600D03*
X107935377Y-100087600D03*
X108717600Y-100087600D03*
X109517600Y-100087600D03*
D14*
X126417600Y-54187600D03*
X111647600Y-59327600D03*
X112897600Y-59327600D03*
X107192600Y-55612600D03*
X110472600Y-59327600D03*
X113167600Y-49912600D03*
X117467600Y-97692600D03*
X117467600Y-96712600D03*
X123907600Y-73827600D03*
X127287600Y-76017600D03*
X129657600Y-74827600D03*
X128092600Y-89787600D03*
X128077600Y-90797600D03*
X129117600Y-89787600D03*
X108007600Y-93332600D03*
X109107600Y-93332600D03*
X110207600Y-93332600D03*
X111357600Y-93332600D03*
X117467600Y-95732600D03*
X118792600Y-96712600D03*
X118792600Y-97692600D03*
X118792600Y-95732600D03*
X111567600Y-62762600D03*
X112817600Y-62762600D03*
X110392600Y-62762600D03*
X109527600Y-69852600D03*
X109527600Y-68727600D03*
X125592600Y-56987600D03*
X111342600Y-49912600D03*
X109517600Y-49912600D03*
X107187600Y-56527600D03*
X123397600Y-64067600D03*
X105162600Y-62022600D03*
X106337600Y-62022600D03*
X129517600Y-66357600D03*
X128927600Y-61337600D03*
X130377600Y-61337600D03*
X129687600Y-76017600D03*
X127267600Y-74827600D03*
X115947600Y-69647600D03*
X110787600Y-65707600D03*
X109857600Y-65687600D03*
X124977600Y-73817600D03*
X102967600Y-72537600D03*
X117467600Y-94712600D03*
X118792600Y-94712600D03*
X117467600Y-93562600D03*
X118792600Y-93562600D03*
X129067600Y-96062600D03*
X128507600Y-62567600D03*
X126257600Y-62537600D03*
X120917588Y-62577600D03*
X122377600Y-62377600D03*
X122477600Y-66617600D03*
X127117600Y-69557600D03*
X122117600Y-69987590D03*
X123517600Y-66107600D03*
X117337600Y-57027600D03*
X121747600Y-68427600D03*
X127462850Y-67717459D03*
X117487600Y-59742600D03*
X118137600Y-65427600D03*
X117377600Y-68467600D03*
X107047600Y-60997600D03*
X103017600Y-97597600D03*
X127979739Y-69158553D03*
X125342600Y-65197600D03*
X115630100Y-80837586D03*
X111562588Y-100107600D03*
X123737600Y-70537600D03*
X113773366Y-80805866D03*
X110567600Y-100097600D03*
D15*
X126217600Y-62577600D02*
X126257600Y-62537600D01*
X130917600Y-94212600D02*
X130917600Y-63717600D01*
X130917600Y-63717600D02*
X129737600Y-62537600D01*
X129737600Y-62537600D02*
X126257600Y-62537600D01*
X129067600Y-96062600D02*
X130917600Y-94212600D01*
X120917588Y-62577600D02*
X122177600Y-62577600D01*
X122177600Y-62577600D02*
X122377600Y-62377600D01*
D16*
X118447600Y-62587600D02*
X122477600Y-66617600D01*
X112617600Y-55537600D02*
X115107600Y-58027600D01*
X112617600Y-54387600D02*
X112617600Y-55537600D01*
X115107600Y-58027600D02*
X117757600Y-58027600D01*
X117757600Y-58027600D02*
X118447600Y-58717600D01*
X118447600Y-58717600D02*
X118447600Y-62587600D01*
X127117600Y-69557600D02*
X122547590Y-69557600D01*
X122547590Y-69557600D02*
X122117600Y-69987590D01*
X123517600Y-66107600D02*
X123117601Y-65707601D01*
X117904011Y-57027600D02*
X117337600Y-57027600D01*
X119167599Y-58291188D02*
X117904011Y-57027600D01*
X119167599Y-61863615D02*
X119167599Y-58291188D01*
X123117601Y-65707601D02*
X123011585Y-65707601D01*
X123011585Y-65707601D02*
X119167599Y-61863615D01*
D17*
X126752709Y-68427600D02*
X127462850Y-67717459D01*
X121747600Y-68427600D02*
X126752709Y-68427600D01*
D16*
X117487600Y-64777600D02*
X118137600Y-65427600D01*
X117487600Y-59742600D02*
X117487600Y-64777600D01*
X107182600Y-67002600D02*
X115912600Y-67002600D01*
X115912600Y-67002600D02*
X117377600Y-68467600D01*
X108987600Y-62937600D02*
X107047600Y-60997600D01*
X107182600Y-67002600D02*
X108987600Y-65197600D01*
X108987600Y-65197600D02*
X108987600Y-62937600D01*
X114717600Y-80887600D02*
X114717600Y-80137600D01*
X127979739Y-69724238D02*
X127979739Y-69158553D01*
X122304022Y-78787589D02*
X127979739Y-73111872D01*
X114717600Y-80137600D02*
X116067611Y-78787589D01*
X127979739Y-73111872D02*
X127979739Y-69724238D01*
X116067611Y-78787589D02*
X122304022Y-78787589D01*
X112503604Y-84501596D02*
X114717600Y-82287600D01*
X114717600Y-82287600D02*
X114717600Y-80887600D01*
X111717600Y-84501596D02*
X112503604Y-84501596D01*
X103017600Y-97597600D02*
X103017600Y-93201596D01*
X103017600Y-93201596D02*
X111717600Y-84501596D01*
X129367600Y-77857600D02*
X129367600Y-78887600D01*
X126657600Y-76937600D02*
X128447600Y-76937600D01*
X128447600Y-76937600D02*
X129367600Y-77857600D01*
D17*
X128697600Y-67577600D02*
X126317600Y-65197600D01*
X128697600Y-77167600D02*
X128697600Y-67577600D01*
X126317600Y-65197600D02*
X125342600Y-65197600D01*
X129517600Y-78887600D02*
X129517600Y-77987600D01*
X129517600Y-77987600D02*
X128697600Y-77167600D01*
D16*
X117217600Y-79237600D02*
X117167600Y-79287600D01*
X126647600Y-76937600D02*
X124347600Y-79237600D01*
X124347600Y-79237600D02*
X117217600Y-79237600D01*
X117230086Y-79237600D02*
X116567600Y-79237600D01*
X115630100Y-80175100D02*
X115630100Y-80837586D01*
X116567600Y-79237600D02*
X115630100Y-80175100D01*
D17*
X129517600Y-78887600D02*
X129367600Y-78887600D01*
X109667600Y-106302600D02*
X111562588Y-104407612D01*
X111562588Y-99541915D02*
X111562588Y-100107600D01*
X111562588Y-104407612D02*
X111562588Y-100107600D01*
X129367600Y-78887600D02*
X111562588Y-96692612D01*
X111562588Y-96692612D02*
X111562588Y-99541915D01*
D16*
X114117414Y-80311817D02*
X114205091Y-80399494D01*
X114205091Y-80437593D02*
X113836818Y-80805866D01*
X113836818Y-80805866D02*
X113773366Y-80805866D01*
X113805100Y-80837600D02*
X113805100Y-80413689D01*
X126177600Y-72977600D02*
X124137599Y-70937599D01*
X113773366Y-80281834D02*
X115767600Y-78287600D01*
X124137599Y-70937599D02*
X123737600Y-70537600D01*
X126177600Y-74277600D02*
X126177600Y-72977600D01*
X113773366Y-80805866D02*
X113773366Y-80281834D01*
X122167600Y-78287600D02*
X126177600Y-74277600D01*
X115767600Y-78287600D02*
X122167600Y-78287600D01*
X104642600Y-67002600D02*
X105282600Y-67002600D01*
D17*
X105877600Y-68237600D02*
X104642600Y-67002600D01*
X105917600Y-68237600D02*
X105877600Y-68237600D01*
D16*
X123587600Y-70687600D02*
X123737600Y-70537600D01*
X108717600Y-70237600D02*
X109167600Y-70687600D01*
X108073601Y-68237600D02*
X108717600Y-68881599D01*
X105917600Y-68237600D02*
X108073601Y-68237600D01*
X108717600Y-68881599D02*
X108717600Y-70237600D01*
X109167600Y-70687600D02*
X123587600Y-70687600D01*
D17*
X109667600Y-102362600D02*
X109667600Y-103762600D01*
X110567600Y-101462600D02*
X109667600Y-102362600D01*
X110567600Y-100097600D02*
X110567600Y-101462600D01*
X110542600Y-98812600D02*
X110542600Y-100072600D01*
X110267607Y-98537607D02*
X110542600Y-98812600D01*
X110267607Y-96037593D02*
X110267607Y-98537607D01*
X127367600Y-78937600D02*
X110267607Y-96037593D01*
X110542600Y-100072600D02*
X110567600Y-100097600D01*
X127367600Y-78887600D02*
X127367600Y-78937600D01*
D18*
X130032600Y-93846021D02*
X128822557Y-95056065D01*
X128765702Y-95067374D01*
X128577344Y-95145395D01*
X128407826Y-95258663D01*
X128263663Y-95402826D01*
X128150395Y-95572344D01*
X128072374Y-95760702D01*
X128032600Y-95960661D01*
X128032600Y-96164539D01*
X128072374Y-96364498D01*
X128150395Y-96552856D01*
X128263663Y-96722374D01*
X128407826Y-96866537D01*
X128577344Y-96979805D01*
X128765702Y-97057826D01*
X128965661Y-97097600D01*
X129169539Y-97097600D01*
X129369498Y-97057826D01*
X129557856Y-96979805D01*
X129727374Y-96866537D01*
X129871537Y-96722374D01*
X129984805Y-96552856D01*
X130062826Y-96364498D01*
X130074135Y-96307643D01*
X131213029Y-95168750D01*
X131207616Y-107802710D01*
X131189214Y-107990384D01*
X131182317Y-108013228D01*
X130592568Y-108602928D01*
X130575767Y-108608129D01*
X130390508Y-108627600D01*
X117241744Y-108627600D01*
X117640543Y-108548274D01*
X118191422Y-108320092D01*
X118687200Y-107988824D01*
X119108824Y-107567200D01*
X119440092Y-107071422D01*
X119668274Y-106520543D01*
X119784600Y-105935733D01*
X119784600Y-105339467D01*
X119668274Y-104754657D01*
X119440092Y-104203778D01*
X119108824Y-103708000D01*
X118687200Y-103286376D01*
X118191422Y-102955108D01*
X118088799Y-102912600D01*
X121529528Y-102912600D01*
X121541788Y-103037082D01*
X121578098Y-103156780D01*
X121637063Y-103267094D01*
X121716415Y-103363785D01*
X121813106Y-103443137D01*
X121923420Y-103502102D01*
X122043118Y-103538412D01*
X122167600Y-103550672D01*
X122385850Y-103547600D01*
X122544600Y-103388850D01*
X122544600Y-102260600D01*
X121691350Y-102260600D01*
X121532600Y-102419350D01*
X121529528Y-102912600D01*
X118088799Y-102912600D01*
X117640543Y-102726926D01*
X117055733Y-102610600D01*
X116459467Y-102610600D01*
X115874657Y-102726926D01*
X115323778Y-102955108D01*
X114828000Y-103286376D01*
X114406376Y-103708000D01*
X114075108Y-104203778D01*
X113902600Y-104620248D01*
X113902600Y-101162600D01*
X121529528Y-101162600D01*
X121532600Y-101655850D01*
X121691350Y-101814600D01*
X122544600Y-101814600D01*
X122544600Y-100686350D01*
X122990600Y-100686350D01*
X122990600Y-101814600D01*
X123010600Y-101814600D01*
X123010600Y-102260600D01*
X122990600Y-102260600D01*
X122990600Y-103388850D01*
X123149350Y-103547600D01*
X123367600Y-103550672D01*
X123489231Y-103538693D01*
X123490924Y-103788984D01*
X123493395Y-103813071D01*
X123500655Y-103836886D01*
X123512421Y-103858826D01*
X123528241Y-103878050D01*
X123547508Y-103893818D01*
X123569480Y-103905524D01*
X123593314Y-103912718D01*
X123618094Y-103915125D01*
X126294080Y-103911475D01*
X126319586Y-103908852D01*
X126343358Y-103901452D01*
X126365228Y-103889557D01*
X126384359Y-103873624D01*
X126400013Y-103854265D01*
X126411589Y-103832224D01*
X126418643Y-103808347D01*
X126420904Y-103783554D01*
X126395904Y-100336679D01*
X126393019Y-100310669D01*
X126385380Y-100286973D01*
X126373265Y-100265223D01*
X126357140Y-100246255D01*
X126337624Y-100230796D01*
X126315467Y-100219443D01*
X126291521Y-100212630D01*
X126266706Y-100210619D01*
X123592692Y-100256967D01*
X123569275Y-100259559D01*
X123545500Y-100266947D01*
X123523623Y-100278831D01*
X123504485Y-100294755D01*
X123488821Y-100314107D01*
X123477234Y-100336142D01*
X123470169Y-100360015D01*
X123467896Y-100384807D01*
X123468909Y-100534506D01*
X123367600Y-100524528D01*
X123149350Y-100527600D01*
X122990600Y-100686350D01*
X122544600Y-100686350D01*
X122385850Y-100527600D01*
X122167600Y-100524528D01*
X122043118Y-100536788D01*
X121923420Y-100573098D01*
X121813106Y-100632063D01*
X121716415Y-100711415D01*
X121637063Y-100808106D01*
X121578098Y-100918420D01*
X121541788Y-101038118D01*
X121529528Y-101162600D01*
X113902600Y-101162600D01*
X113902600Y-99792477D01*
X113906035Y-99757600D01*
X113892327Y-99618416D01*
X113851728Y-99484580D01*
X113785800Y-99361237D01*
X113697075Y-99253125D01*
X113588963Y-99164400D01*
X113465620Y-99098472D01*
X113331784Y-99057873D01*
X113227477Y-99047600D01*
X113192600Y-99044165D01*
X113157723Y-99047600D01*
X112325523Y-99047600D01*
X112322588Y-99045184D01*
X112322588Y-97007413D01*
X129028488Y-80301515D01*
X129042700Y-80309111D01*
X129275499Y-80379730D01*
X129517600Y-80403575D01*
X129759702Y-80379730D01*
X129992501Y-80309111D01*
X130032600Y-80287677D01*
X130032600Y-93846021D01*
G04 #@! TA.AperFunction,Conductor*
D19*
G36*
X130032600Y-93846021D02*
G01*
X128822557Y-95056065D01*
X128765702Y-95067374D01*
X128577344Y-95145395D01*
X128407826Y-95258663D01*
X128263663Y-95402826D01*
X128150395Y-95572344D01*
X128072374Y-95760702D01*
X128032600Y-95960661D01*
X128032600Y-96164539D01*
X128072374Y-96364498D01*
X128150395Y-96552856D01*
X128263663Y-96722374D01*
X128407826Y-96866537D01*
X128577344Y-96979805D01*
X128765702Y-97057826D01*
X128965661Y-97097600D01*
X129169539Y-97097600D01*
X129369498Y-97057826D01*
X129557856Y-96979805D01*
X129727374Y-96866537D01*
X129871537Y-96722374D01*
X129984805Y-96552856D01*
X130062826Y-96364498D01*
X130074135Y-96307643D01*
X131213029Y-95168750D01*
X131207616Y-107802710D01*
X131189214Y-107990384D01*
X131182317Y-108013228D01*
X130592568Y-108602928D01*
X130575767Y-108608129D01*
X130390508Y-108627600D01*
X117241744Y-108627600D01*
X117640543Y-108548274D01*
X118191422Y-108320092D01*
X118687200Y-107988824D01*
X119108824Y-107567200D01*
X119440092Y-107071422D01*
X119668274Y-106520543D01*
X119784600Y-105935733D01*
X119784600Y-105339467D01*
X119668274Y-104754657D01*
X119440092Y-104203778D01*
X119108824Y-103708000D01*
X118687200Y-103286376D01*
X118191422Y-102955108D01*
X118088799Y-102912600D01*
X121529528Y-102912600D01*
X121541788Y-103037082D01*
X121578098Y-103156780D01*
X121637063Y-103267094D01*
X121716415Y-103363785D01*
X121813106Y-103443137D01*
X121923420Y-103502102D01*
X122043118Y-103538412D01*
X122167600Y-103550672D01*
X122385850Y-103547600D01*
X122544600Y-103388850D01*
X122544600Y-102260600D01*
X121691350Y-102260600D01*
X121532600Y-102419350D01*
X121529528Y-102912600D01*
X118088799Y-102912600D01*
X117640543Y-102726926D01*
X117055733Y-102610600D01*
X116459467Y-102610600D01*
X115874657Y-102726926D01*
X115323778Y-102955108D01*
X114828000Y-103286376D01*
X114406376Y-103708000D01*
X114075108Y-104203778D01*
X113902600Y-104620248D01*
X113902600Y-101162600D01*
X121529528Y-101162600D01*
X121532600Y-101655850D01*
X121691350Y-101814600D01*
X122544600Y-101814600D01*
X122544600Y-100686350D01*
X122990600Y-100686350D01*
X122990600Y-101814600D01*
X123010600Y-101814600D01*
X123010600Y-102260600D01*
X122990600Y-102260600D01*
X122990600Y-103388850D01*
X123149350Y-103547600D01*
X123367600Y-103550672D01*
X123489231Y-103538693D01*
X123490924Y-103788984D01*
X123493395Y-103813071D01*
X123500655Y-103836886D01*
X123512421Y-103858826D01*
X123528241Y-103878050D01*
X123547508Y-103893818D01*
X123569480Y-103905524D01*
X123593314Y-103912718D01*
X123618094Y-103915125D01*
X126294080Y-103911475D01*
X126319586Y-103908852D01*
X126343358Y-103901452D01*
X126365228Y-103889557D01*
X126384359Y-103873624D01*
X126400013Y-103854265D01*
X126411589Y-103832224D01*
X126418643Y-103808347D01*
X126420904Y-103783554D01*
X126395904Y-100336679D01*
X126393019Y-100310669D01*
X126385380Y-100286973D01*
X126373265Y-100265223D01*
X126357140Y-100246255D01*
X126337624Y-100230796D01*
X126315467Y-100219443D01*
X126291521Y-100212630D01*
X126266706Y-100210619D01*
X123592692Y-100256967D01*
X123569275Y-100259559D01*
X123545500Y-100266947D01*
X123523623Y-100278831D01*
X123504485Y-100294755D01*
X123488821Y-100314107D01*
X123477234Y-100336142D01*
X123470169Y-100360015D01*
X123467896Y-100384807D01*
X123468909Y-100534506D01*
X123367600Y-100524528D01*
X123149350Y-100527600D01*
X122990600Y-100686350D01*
X122544600Y-100686350D01*
X122385850Y-100527600D01*
X122167600Y-100524528D01*
X122043118Y-100536788D01*
X121923420Y-100573098D01*
X121813106Y-100632063D01*
X121716415Y-100711415D01*
X121637063Y-100808106D01*
X121578098Y-100918420D01*
X121541788Y-101038118D01*
X121529528Y-101162600D01*
X113902600Y-101162600D01*
X113902600Y-99792477D01*
X113906035Y-99757600D01*
X113892327Y-99618416D01*
X113851728Y-99484580D01*
X113785800Y-99361237D01*
X113697075Y-99253125D01*
X113588963Y-99164400D01*
X113465620Y-99098472D01*
X113331784Y-99057873D01*
X113227477Y-99047600D01*
X113192600Y-99044165D01*
X113157723Y-99047600D01*
X112325523Y-99047600D01*
X112322588Y-99045184D01*
X112322588Y-97007413D01*
X129028488Y-80301515D01*
X129042700Y-80309111D01*
X129275499Y-80379730D01*
X129517600Y-80403575D01*
X129759702Y-80379730D01*
X129992501Y-80309111D01*
X130032600Y-80287677D01*
X130032600Y-93846021D01*
G37*
G04 #@! TD.AperFunction*
D18*
X126279528Y-78950870D02*
X109756610Y-95473789D01*
X109727606Y-95497592D01*
X109672478Y-95564767D01*
X109632633Y-95613317D01*
X109574387Y-95722287D01*
X109562061Y-95745347D01*
X109518604Y-95888608D01*
X109507607Y-96000261D01*
X109507607Y-96000271D01*
X109503931Y-96037593D01*
X109507607Y-96074916D01*
X109507608Y-98500275D01*
X109503931Y-98537607D01*
X109507608Y-98574940D01*
X109516865Y-98668921D01*
X109518605Y-98686592D01*
X109562061Y-98829853D01*
X109627671Y-98952600D01*
X109405812Y-98952600D01*
X109186533Y-98996217D01*
X109144495Y-99013630D01*
X109090517Y-99013552D01*
X109048667Y-98996217D01*
X108829388Y-98952600D01*
X108605812Y-98952600D01*
X108386533Y-98996217D01*
X108347269Y-99012481D01*
X108305562Y-99012420D01*
X108266444Y-98996217D01*
X108047165Y-98952600D01*
X107823589Y-98952600D01*
X107604310Y-98996217D01*
X107567759Y-99011357D01*
X107521723Y-99011290D01*
X107485333Y-98996217D01*
X107266054Y-98952600D01*
X107042478Y-98952600D01*
X106823199Y-98996217D01*
X106789357Y-99010235D01*
X106737884Y-99010160D01*
X106704222Y-98996217D01*
X106484943Y-98952600D01*
X106261367Y-98952600D01*
X106042088Y-98996217D01*
X106010956Y-99009113D01*
X105954045Y-99009030D01*
X105923111Y-98996217D01*
X105703832Y-98952600D01*
X105480256Y-98952600D01*
X105260977Y-98996217D01*
X105232554Y-99007990D01*
X105170206Y-99007900D01*
X105142000Y-98996217D01*
X104922721Y-98952600D01*
X104699145Y-98952600D01*
X104479866Y-98996217D01*
X104454152Y-99006868D01*
X103100375Y-99004917D01*
X103002303Y-98952771D01*
X102883342Y-98855748D01*
X102785482Y-98737456D01*
X102712468Y-98602419D01*
X102708585Y-98589878D01*
X102715702Y-98592826D01*
X102915661Y-98632600D01*
X103119539Y-98632600D01*
X103319498Y-98592826D01*
X103507856Y-98514805D01*
X103677374Y-98401537D01*
X103821537Y-98257374D01*
X103934805Y-98087856D01*
X104012826Y-97899498D01*
X104052600Y-97699539D01*
X104052600Y-97495661D01*
X104012826Y-97295702D01*
X103934805Y-97107344D01*
X103821537Y-96937826D01*
X103802600Y-96918889D01*
X103802600Y-93526753D01*
X112042758Y-85286596D01*
X112465051Y-85286596D01*
X112503604Y-85290393D01*
X112542157Y-85286596D01*
X112542165Y-85286596D01*
X112657491Y-85275237D01*
X112805464Y-85230350D01*
X112941837Y-85157458D01*
X113061368Y-85059360D01*
X113085951Y-85029406D01*
X115245417Y-82869941D01*
X115275364Y-82845364D01*
X115373462Y-82725833D01*
X115446354Y-82589460D01*
X115491241Y-82441487D01*
X115502600Y-82326161D01*
X115502600Y-82326154D01*
X115506397Y-82287601D01*
X115502600Y-82249048D01*
X115502600Y-81867502D01*
X115528161Y-81872586D01*
X115732039Y-81872586D01*
X115931998Y-81832812D01*
X116120356Y-81754791D01*
X116289874Y-81641523D01*
X116434037Y-81497360D01*
X116547305Y-81327842D01*
X116625326Y-81139484D01*
X116665100Y-80939525D01*
X116665100Y-80735647D01*
X116625326Y-80535688D01*
X116553374Y-80361983D01*
X116891262Y-80024096D01*
X117013714Y-80061241D01*
X117167600Y-80076397D01*
X117321486Y-80061241D01*
X117448869Y-80022600D01*
X124309047Y-80022600D01*
X124347600Y-80026397D01*
X124386153Y-80022600D01*
X124386161Y-80022600D01*
X124501487Y-80011241D01*
X124649460Y-79966354D01*
X124785833Y-79893462D01*
X124905364Y-79795364D01*
X124929947Y-79765410D01*
X126279528Y-78415830D01*
X126279528Y-78950870D01*
G04 #@! TA.AperFunction,Conductor*
D19*
G36*
X126279528Y-78950870D02*
G01*
X109756610Y-95473789D01*
X109727606Y-95497592D01*
X109672478Y-95564767D01*
X109632633Y-95613317D01*
X109574387Y-95722287D01*
X109562061Y-95745347D01*
X109518604Y-95888608D01*
X109507607Y-96000261D01*
X109507607Y-96000271D01*
X109503931Y-96037593D01*
X109507607Y-96074916D01*
X109507608Y-98500275D01*
X109503931Y-98537607D01*
X109507608Y-98574940D01*
X109516865Y-98668921D01*
X109518605Y-98686592D01*
X109562061Y-98829853D01*
X109627671Y-98952600D01*
X109405812Y-98952600D01*
X109186533Y-98996217D01*
X109144495Y-99013630D01*
X109090517Y-99013552D01*
X109048667Y-98996217D01*
X108829388Y-98952600D01*
X108605812Y-98952600D01*
X108386533Y-98996217D01*
X108347269Y-99012481D01*
X108305562Y-99012420D01*
X108266444Y-98996217D01*
X108047165Y-98952600D01*
X107823589Y-98952600D01*
X107604310Y-98996217D01*
X107567759Y-99011357D01*
X107521723Y-99011290D01*
X107485333Y-98996217D01*
X107266054Y-98952600D01*
X107042478Y-98952600D01*
X106823199Y-98996217D01*
X106789357Y-99010235D01*
X106737884Y-99010160D01*
X106704222Y-98996217D01*
X106484943Y-98952600D01*
X106261367Y-98952600D01*
X106042088Y-98996217D01*
X106010956Y-99009113D01*
X105954045Y-99009030D01*
X105923111Y-98996217D01*
X105703832Y-98952600D01*
X105480256Y-98952600D01*
X105260977Y-98996217D01*
X105232554Y-99007990D01*
X105170206Y-99007900D01*
X105142000Y-98996217D01*
X104922721Y-98952600D01*
X104699145Y-98952600D01*
X104479866Y-98996217D01*
X104454152Y-99006868D01*
X103100375Y-99004917D01*
X103002303Y-98952771D01*
X102883342Y-98855748D01*
X102785482Y-98737456D01*
X102712468Y-98602419D01*
X102708585Y-98589878D01*
X102715702Y-98592826D01*
X102915661Y-98632600D01*
X103119539Y-98632600D01*
X103319498Y-98592826D01*
X103507856Y-98514805D01*
X103677374Y-98401537D01*
X103821537Y-98257374D01*
X103934805Y-98087856D01*
X104012826Y-97899498D01*
X104052600Y-97699539D01*
X104052600Y-97495661D01*
X104012826Y-97295702D01*
X103934805Y-97107344D01*
X103821537Y-96937826D01*
X103802600Y-96918889D01*
X103802600Y-93526753D01*
X112042758Y-85286596D01*
X112465051Y-85286596D01*
X112503604Y-85290393D01*
X112542157Y-85286596D01*
X112542165Y-85286596D01*
X112657491Y-85275237D01*
X112805464Y-85230350D01*
X112941837Y-85157458D01*
X113061368Y-85059360D01*
X113085951Y-85029406D01*
X115245417Y-82869941D01*
X115275364Y-82845364D01*
X115373462Y-82725833D01*
X115446354Y-82589460D01*
X115491241Y-82441487D01*
X115502600Y-82326161D01*
X115502600Y-82326154D01*
X115506397Y-82287601D01*
X115502600Y-82249048D01*
X115502600Y-81867502D01*
X115528161Y-81872586D01*
X115732039Y-81872586D01*
X115931998Y-81832812D01*
X116120356Y-81754791D01*
X116289874Y-81641523D01*
X116434037Y-81497360D01*
X116547305Y-81327842D01*
X116625326Y-81139484D01*
X116665100Y-80939525D01*
X116665100Y-80735647D01*
X116625326Y-80535688D01*
X116553374Y-80361983D01*
X116891262Y-80024096D01*
X117013714Y-80061241D01*
X117167600Y-80076397D01*
X117321486Y-80061241D01*
X117448869Y-80022600D01*
X124309047Y-80022600D01*
X124347600Y-80026397D01*
X124386153Y-80022600D01*
X124386161Y-80022600D01*
X124501487Y-80011241D01*
X124649460Y-79966354D01*
X124785833Y-79893462D01*
X124905364Y-79795364D01*
X124929947Y-79765410D01*
X126279528Y-78415830D01*
X126279528Y-78950870D01*
G37*
G04 #@! TD.AperFunction*
D18*
X125864776Y-48972204D02*
X125583827Y-49650474D01*
X125440600Y-50370523D01*
X125440600Y-51104677D01*
X125583827Y-51824726D01*
X125864776Y-52502996D01*
X126272650Y-53113424D01*
X126791776Y-53632550D01*
X127402204Y-54040424D01*
X128080474Y-54321373D01*
X128800523Y-54464600D01*
X129534677Y-54464600D01*
X130254726Y-54321373D01*
X130932996Y-54040424D01*
X131230736Y-53841481D01*
X131226908Y-62775329D01*
X130394134Y-61942556D01*
X130366417Y-61908783D01*
X130231659Y-61798189D01*
X130077913Y-61716011D01*
X129911090Y-61665405D01*
X129781077Y-61652600D01*
X129781069Y-61652600D01*
X129737600Y-61648319D01*
X129694131Y-61652600D01*
X129001156Y-61652600D01*
X128997856Y-61650395D01*
X128809498Y-61572374D01*
X128609539Y-61532600D01*
X128405661Y-61532600D01*
X128205702Y-61572374D01*
X128017344Y-61650395D01*
X128014044Y-61652600D01*
X126796054Y-61652600D01*
X126747856Y-61620395D01*
X126559498Y-61542374D01*
X126359539Y-61502600D01*
X126155661Y-61502600D01*
X125955702Y-61542374D01*
X125767344Y-61620395D01*
X125597826Y-61733663D01*
X125453663Y-61877826D01*
X125340395Y-62047344D01*
X125262374Y-62235702D01*
X125222600Y-62435661D01*
X125222600Y-62639539D01*
X125262374Y-62839498D01*
X125340395Y-63027856D01*
X125453663Y-63197374D01*
X125597826Y-63341537D01*
X125767344Y-63454805D01*
X125955702Y-63532826D01*
X126155661Y-63572600D01*
X126359539Y-63572600D01*
X126559498Y-63532826D01*
X126747856Y-63454805D01*
X126796054Y-63422600D01*
X127924247Y-63422600D01*
X128017344Y-63484805D01*
X128205702Y-63562826D01*
X128405661Y-63602600D01*
X128609539Y-63602600D01*
X128809498Y-63562826D01*
X128997856Y-63484805D01*
X129090953Y-63422600D01*
X129371022Y-63422600D01*
X130032601Y-64084180D01*
X130032601Y-77427082D01*
X130028602Y-77423801D01*
X130020226Y-77415424D01*
X129925364Y-77299836D01*
X129895417Y-77275259D01*
X129457600Y-76837443D01*
X129457600Y-67614922D01*
X129461276Y-67577599D01*
X129457600Y-67540276D01*
X129457600Y-67540267D01*
X129446603Y-67428614D01*
X129403146Y-67285353D01*
X129332574Y-67153324D01*
X129237601Y-67037599D01*
X129208603Y-67013801D01*
X126881404Y-64686603D01*
X126857601Y-64657599D01*
X126741876Y-64562626D01*
X126609847Y-64492054D01*
X126466586Y-64448597D01*
X126354933Y-64437600D01*
X126354922Y-64437600D01*
X126317600Y-64433924D01*
X126280278Y-64437600D01*
X126046311Y-64437600D01*
X126002374Y-64393663D01*
X125832856Y-64280395D01*
X125644498Y-64202374D01*
X125444539Y-64162600D01*
X125240661Y-64162600D01*
X125040702Y-64202374D01*
X124852344Y-64280395D01*
X124682826Y-64393663D01*
X124538663Y-64537826D01*
X124425395Y-64707344D01*
X124347374Y-64895702D01*
X124307600Y-65095661D01*
X124307600Y-65299539D01*
X124343691Y-65480982D01*
X124321537Y-65447826D01*
X124177374Y-65303663D01*
X124007856Y-65190395D01*
X123819498Y-65112374D01*
X123619539Y-65072600D01*
X123581253Y-65072600D01*
X123555834Y-65051739D01*
X123419461Y-64978847D01*
X123381462Y-64967320D01*
X121876742Y-63462600D01*
X122134131Y-63462600D01*
X122177600Y-63466881D01*
X122221069Y-63462600D01*
X122221077Y-63462600D01*
X122351090Y-63449795D01*
X122473704Y-63412600D01*
X122479539Y-63412600D01*
X122679498Y-63372826D01*
X122867856Y-63294805D01*
X123037374Y-63181537D01*
X123181537Y-63037374D01*
X123294805Y-62867856D01*
X123372826Y-62679498D01*
X123412600Y-62479539D01*
X123412600Y-62275661D01*
X123372826Y-62075702D01*
X123294805Y-61887344D01*
X123181537Y-61717826D01*
X123037374Y-61573663D01*
X122867856Y-61460395D01*
X122679498Y-61382374D01*
X122479539Y-61342600D01*
X122275661Y-61342600D01*
X122075702Y-61382374D01*
X121887344Y-61460395D01*
X121717826Y-61573663D01*
X121598889Y-61692600D01*
X121456042Y-61692600D01*
X121407844Y-61660395D01*
X121219486Y-61582374D01*
X121019527Y-61542600D01*
X120815649Y-61542600D01*
X120615690Y-61582374D01*
X120427332Y-61660395D01*
X120257814Y-61773663D01*
X120222809Y-61808668D01*
X119952599Y-61538458D01*
X119952599Y-58329740D01*
X119956396Y-58291187D01*
X119952599Y-58252634D01*
X119952599Y-58252627D01*
X119941240Y-58137301D01*
X119896353Y-57989328D01*
X119823461Y-57852955D01*
X119725363Y-57733424D01*
X119695414Y-57708846D01*
X118486358Y-56499790D01*
X118461775Y-56469836D01*
X118342244Y-56371738D01*
X118205871Y-56298846D01*
X118057898Y-56253959D01*
X118024367Y-56250656D01*
X117997374Y-56223663D01*
X117827856Y-56110395D01*
X117639498Y-56032374D01*
X117439539Y-55992600D01*
X117235661Y-55992600D01*
X117035702Y-56032374D01*
X116847344Y-56110395D01*
X116677826Y-56223663D01*
X116533663Y-56367826D01*
X116420395Y-56537344D01*
X116342374Y-56725702D01*
X116302600Y-56925661D01*
X116302600Y-57129539D01*
X116325089Y-57242600D01*
X115432757Y-57242600D01*
X114033397Y-55843240D01*
X119894339Y-55843240D01*
X119896901Y-55869177D01*
X119904245Y-55892966D01*
X119916089Y-55914865D01*
X119931977Y-55934032D01*
X119951300Y-55949732D01*
X119973314Y-55961360D01*
X119997173Y-55968470D01*
X120021961Y-55970788D01*
X124441942Y-55949099D01*
X124465554Y-55946767D01*
X124489409Y-55939644D01*
X124511417Y-55928003D01*
X124530730Y-55912293D01*
X124546608Y-55893117D01*
X124558439Y-55871212D01*
X124565770Y-55847419D01*
X124568318Y-55822653D01*
X124580880Y-52933651D01*
X124578337Y-52907807D01*
X124571011Y-52884013D01*
X124559184Y-52862105D01*
X124543311Y-52842925D01*
X124524000Y-52827211D01*
X124501995Y-52815566D01*
X124478141Y-52808438D01*
X124453355Y-52806100D01*
X120033336Y-52824412D01*
X120009625Y-52826745D01*
X119985770Y-52833869D01*
X119963762Y-52845510D01*
X119944449Y-52861220D01*
X119928572Y-52880397D01*
X119916741Y-52902303D01*
X119909411Y-52926095D01*
X119906863Y-52950861D01*
X119894339Y-55843240D01*
X114033397Y-55843240D01*
X113938771Y-55748614D01*
X113950881Y-52963603D01*
X113948222Y-52937194D01*
X113940788Y-52913433D01*
X113928862Y-52891579D01*
X113912901Y-52872472D01*
X113893520Y-52856846D01*
X113871462Y-52845301D01*
X113847576Y-52838281D01*
X113822779Y-52836056D01*
X109432760Y-52874187D01*
X109409626Y-52876516D01*
X109385771Y-52883640D01*
X109363763Y-52895281D01*
X109344450Y-52910991D01*
X109328573Y-52930168D01*
X109316742Y-52952074D01*
X109309412Y-52975866D01*
X109306864Y-53000632D01*
X109294339Y-55893469D01*
X109297020Y-55919982D01*
X109304474Y-55943737D01*
X109316419Y-55965580D01*
X109332396Y-55984674D01*
X109351791Y-56000284D01*
X109373858Y-56011810D01*
X109397751Y-56018809D01*
X109422549Y-56021013D01*
X111978810Y-55996633D01*
X112035255Y-56065412D01*
X112035259Y-56065416D01*
X112059837Y-56095364D01*
X112089785Y-56119942D01*
X114525253Y-58555410D01*
X114549836Y-58585364D01*
X114669367Y-58683462D01*
X114805740Y-58756354D01*
X114953713Y-58801242D01*
X115028626Y-58808620D01*
X115069039Y-58812600D01*
X115069044Y-58812600D01*
X115107600Y-58816397D01*
X115146156Y-58812600D01*
X117028234Y-58812600D01*
X116997344Y-58825395D01*
X116827826Y-58938663D01*
X116683663Y-59082826D01*
X116570395Y-59252344D01*
X116492374Y-59440702D01*
X116452600Y-59640661D01*
X116452600Y-59844539D01*
X116492374Y-60044498D01*
X116570395Y-60232856D01*
X116683663Y-60402374D01*
X116702600Y-60421311D01*
X116702601Y-64739037D01*
X116698803Y-64777600D01*
X116713959Y-64931486D01*
X116758846Y-65079459D01*
X116783584Y-65125740D01*
X116831739Y-65215833D01*
X116848422Y-65236161D01*
X116905255Y-65305412D01*
X116905259Y-65305416D01*
X116929837Y-65335364D01*
X116959785Y-65359942D01*
X117102600Y-65502757D01*
X117102600Y-65529539D01*
X117142374Y-65729498D01*
X117220395Y-65917856D01*
X117333663Y-66087374D01*
X117477826Y-66231537D01*
X117647344Y-66344805D01*
X117835702Y-66422826D01*
X118035661Y-66462600D01*
X118239539Y-66462600D01*
X118439498Y-66422826D01*
X118627856Y-66344805D01*
X118797374Y-66231537D01*
X118941537Y-66087374D01*
X119054805Y-65917856D01*
X119132826Y-65729498D01*
X119172600Y-65529539D01*
X119172600Y-65325661D01*
X119132826Y-65125702D01*
X119054805Y-64937344D01*
X118941537Y-64767826D01*
X118797374Y-64623663D01*
X118627856Y-64510395D01*
X118439498Y-64432374D01*
X118272600Y-64399176D01*
X118272600Y-63522757D01*
X121442600Y-66692757D01*
X121442600Y-66719539D01*
X121482374Y-66919498D01*
X121560395Y-67107856D01*
X121673663Y-67277374D01*
X121788889Y-67392600D01*
X121645661Y-67392600D01*
X121445702Y-67432374D01*
X121257344Y-67510395D01*
X121087826Y-67623663D01*
X120943663Y-67767826D01*
X120830395Y-67937344D01*
X120752374Y-68125702D01*
X120712600Y-68325661D01*
X120712600Y-68529539D01*
X120752374Y-68729498D01*
X120830395Y-68917856D01*
X120943663Y-69087374D01*
X121087826Y-69231537D01*
X121257344Y-69344805D01*
X121292564Y-69359394D01*
X121200395Y-69497334D01*
X121122374Y-69685692D01*
X121082600Y-69885651D01*
X121082600Y-69902600D01*
X109502600Y-69902600D01*
X109502600Y-68920151D01*
X109506397Y-68881598D01*
X109502600Y-68843045D01*
X109502600Y-68843038D01*
X109491241Y-68727712D01*
X109475504Y-68675832D01*
X109446354Y-68579739D01*
X109437072Y-68562374D01*
X109373462Y-68443366D01*
X109313050Y-68369755D01*
X109299945Y-68353786D01*
X109299942Y-68353783D01*
X109275364Y-68323835D01*
X109245416Y-68299258D01*
X108733758Y-67787600D01*
X115587443Y-67787600D01*
X116342600Y-68542757D01*
X116342600Y-68569539D01*
X116382374Y-68769498D01*
X116460395Y-68957856D01*
X116573663Y-69127374D01*
X116717826Y-69271537D01*
X116887344Y-69384805D01*
X117075702Y-69462826D01*
X117275661Y-69502600D01*
X117479539Y-69502600D01*
X117679498Y-69462826D01*
X117867856Y-69384805D01*
X118037374Y-69271537D01*
X118181537Y-69127374D01*
X118294805Y-68957856D01*
X118372826Y-68769498D01*
X118412600Y-68569539D01*
X118412600Y-68365661D01*
X118372826Y-68165702D01*
X118294805Y-67977344D01*
X118181537Y-67807826D01*
X118037374Y-67663663D01*
X117867856Y-67550395D01*
X117679498Y-67472374D01*
X117479539Y-67432600D01*
X117452757Y-67432600D01*
X116494945Y-66474788D01*
X116470364Y-66444836D01*
X116350833Y-66346738D01*
X116214460Y-66273846D01*
X116066487Y-66228959D01*
X115951161Y-66217600D01*
X115951153Y-66217600D01*
X115912600Y-66213803D01*
X115874047Y-66217600D01*
X109077758Y-66217600D01*
X109515417Y-65779941D01*
X109545364Y-65755364D01*
X109643462Y-65635833D01*
X109716354Y-65499460D01*
X109761241Y-65351487D01*
X109772600Y-65236161D01*
X109772600Y-65236154D01*
X109776397Y-65197601D01*
X109772600Y-65159048D01*
X109772600Y-62976152D01*
X109776397Y-62937599D01*
X109772600Y-62899046D01*
X109772600Y-62899039D01*
X109761241Y-62783713D01*
X109716354Y-62635740D01*
X109643462Y-62499367D01*
X109545364Y-62379836D01*
X109515416Y-62355258D01*
X108082600Y-60922443D01*
X108082600Y-60895661D01*
X108042826Y-60695702D01*
X107964805Y-60507344D01*
X107851537Y-60337826D01*
X107707374Y-60193663D01*
X107537856Y-60080395D01*
X107349498Y-60002374D01*
X107149539Y-59962600D01*
X106945661Y-59962600D01*
X106745702Y-60002374D01*
X106557344Y-60080395D01*
X106387826Y-60193663D01*
X106243663Y-60337826D01*
X106130395Y-60507344D01*
X106052374Y-60695702D01*
X106012600Y-60895661D01*
X106012600Y-61099539D01*
X106052374Y-61299498D01*
X106130395Y-61487856D01*
X106243663Y-61657374D01*
X106387826Y-61801537D01*
X106557344Y-61914805D01*
X106745702Y-61992826D01*
X106945661Y-62032600D01*
X106972443Y-62032600D01*
X108202601Y-63262759D01*
X108202601Y-63382494D01*
X108129232Y-63309125D01*
X107886011Y-63146610D01*
X107615758Y-63034668D01*
X107328860Y-62977600D01*
X107036340Y-62977600D01*
X106749442Y-63034668D01*
X106479189Y-63146610D01*
X106235968Y-63309125D01*
X106104113Y-63440980D01*
X106082102Y-63368420D01*
X106023137Y-63258106D01*
X105943785Y-63161415D01*
X105847094Y-63082063D01*
X105736780Y-63023098D01*
X105617082Y-62986788D01*
X105492600Y-62974528D01*
X103792600Y-62974528D01*
X103668118Y-62986788D01*
X103548420Y-63023098D01*
X103438106Y-63082063D01*
X103341415Y-63161415D01*
X103262063Y-63258106D01*
X103203098Y-63368420D01*
X103166788Y-63488118D01*
X103154528Y-63612600D01*
X103154528Y-65312600D01*
X103166788Y-65437082D01*
X103203098Y-65556780D01*
X103262063Y-65667094D01*
X103341415Y-65763785D01*
X103438106Y-65843137D01*
X103548420Y-65902102D01*
X103620980Y-65924113D01*
X103489125Y-66055968D01*
X103326610Y-66299189D01*
X103214668Y-66569442D01*
X103157600Y-66856340D01*
X103157600Y-67148860D01*
X103214668Y-67435758D01*
X103326610Y-67706011D01*
X103489125Y-67949232D01*
X103695968Y-68156075D01*
X103870360Y-68272600D01*
X103695968Y-68389125D01*
X103489125Y-68595968D01*
X103326610Y-68839189D01*
X103214668Y-69109442D01*
X103157600Y-69396340D01*
X103157600Y-69688860D01*
X103214668Y-69975758D01*
X103326610Y-70246011D01*
X103489125Y-70489232D01*
X103695968Y-70696075D01*
X103939189Y-70858590D01*
X104209442Y-70970532D01*
X104496340Y-71027600D01*
X104788860Y-71027600D01*
X105075758Y-70970532D01*
X105346011Y-70858590D01*
X105589232Y-70696075D01*
X105796075Y-70489232D01*
X105917350Y-70307731D01*
X106022252Y-70469337D01*
X106225345Y-70677903D01*
X106465225Y-70842840D01*
X106732673Y-70957809D01*
X106959600Y-70852019D01*
X106959600Y-69765600D01*
X106939600Y-69765600D01*
X106939600Y-69319600D01*
X106959600Y-69319600D01*
X106959600Y-69299600D01*
X107405600Y-69299600D01*
X107405600Y-69319600D01*
X107425600Y-69319600D01*
X107425600Y-69765600D01*
X107405600Y-69765600D01*
X107405600Y-70852019D01*
X107632527Y-70957809D01*
X107899975Y-70842840D01*
X108091004Y-70711492D01*
X108094986Y-70716344D01*
X108135255Y-70765412D01*
X108135259Y-70765416D01*
X108159837Y-70795364D01*
X108189785Y-70819942D01*
X108585253Y-71215410D01*
X108609836Y-71245364D01*
X108729367Y-71343462D01*
X108865740Y-71416354D01*
X109013712Y-71461241D01*
X109028090Y-71462657D01*
X109129039Y-71472600D01*
X109129046Y-71472600D01*
X109167599Y-71476397D01*
X109206152Y-71472600D01*
X123290305Y-71472600D01*
X123435702Y-71532826D01*
X123635661Y-71572600D01*
X123662443Y-71572600D01*
X125392601Y-73302759D01*
X125392600Y-73952442D01*
X121842443Y-77502600D01*
X115806156Y-77502600D01*
X115767600Y-77498803D01*
X115729044Y-77502600D01*
X115729039Y-77502600D01*
X115688626Y-77506580D01*
X115613713Y-77513958D01*
X115475979Y-77555740D01*
X115465740Y-77558846D01*
X115329367Y-77631738D01*
X115209836Y-77729836D01*
X115185255Y-77759788D01*
X113245551Y-79699492D01*
X113215603Y-79724070D01*
X113191025Y-79754018D01*
X113191021Y-79754022D01*
X113181673Y-79765413D01*
X113117505Y-79843601D01*
X113044612Y-79979974D01*
X113005016Y-80110505D01*
X112969429Y-80146092D01*
X112856161Y-80315610D01*
X112778140Y-80503968D01*
X112738366Y-80703927D01*
X112738366Y-80907805D01*
X112778140Y-81107764D01*
X112856161Y-81296122D01*
X112969429Y-81465640D01*
X113113592Y-81609803D01*
X113283110Y-81723071D01*
X113471468Y-81801092D01*
X113671427Y-81840866D01*
X113875305Y-81840866D01*
X113932600Y-81829469D01*
X113932600Y-81962442D01*
X112178447Y-83716596D01*
X111756153Y-83716596D01*
X111717600Y-83712799D01*
X111679047Y-83716596D01*
X111679039Y-83716596D01*
X111563713Y-83727955D01*
X111415740Y-83772842D01*
X111279367Y-83845734D01*
X111219159Y-83895146D01*
X111189787Y-83919251D01*
X111189784Y-83919254D01*
X111159836Y-83943832D01*
X111135258Y-83973780D01*
X102645209Y-92463830D01*
X102637479Y-73597600D01*
X103009286Y-73597600D01*
X103012600Y-73631247D01*
X103012600Y-74163953D01*
X103009286Y-74197600D01*
X103022512Y-74331883D01*
X103061681Y-74461006D01*
X103125288Y-74580007D01*
X103210889Y-74684311D01*
X103299282Y-74756854D01*
X103315193Y-74769912D01*
X103434194Y-74833519D01*
X103563317Y-74872688D01*
X103697600Y-74885914D01*
X103731247Y-74882600D01*
X122575402Y-74882600D01*
X122620531Y-74885531D01*
X122676076Y-74878185D01*
X122731883Y-74872688D01*
X122742897Y-74869347D01*
X122754298Y-74867839D01*
X122807343Y-74849798D01*
X122861006Y-74833519D01*
X122871157Y-74828093D01*
X122882045Y-74824390D01*
X122930553Y-74796345D01*
X122980007Y-74769912D01*
X122988903Y-74762611D01*
X122998861Y-74756854D01*
X123040966Y-74719884D01*
X123084311Y-74684311D01*
X123091614Y-74675412D01*
X123100255Y-74667825D01*
X123134336Y-74623357D01*
X123169912Y-74580007D01*
X123175337Y-74569858D01*
X123182334Y-74560728D01*
X123207092Y-74510447D01*
X123233519Y-74461006D01*
X123236859Y-74449994D01*
X123241941Y-74439674D01*
X123256411Y-74385542D01*
X123272688Y-74331883D01*
X123273816Y-74320426D01*
X123276786Y-74309317D01*
X123280417Y-74253409D01*
X123285914Y-74197600D01*
X123281479Y-74152569D01*
X123263722Y-73619859D01*
X123265914Y-73597600D01*
X123261478Y-73552566D01*
X123261098Y-73541152D01*
X123258185Y-73519125D01*
X123252688Y-73463317D01*
X123249347Y-73452303D01*
X123247839Y-73440902D01*
X123229798Y-73387857D01*
X123213519Y-73334194D01*
X123208093Y-73324043D01*
X123204390Y-73313155D01*
X123176345Y-73264647D01*
X123149912Y-73215193D01*
X123142611Y-73206297D01*
X123136854Y-73196339D01*
X123099878Y-73154227D01*
X123064311Y-73110889D01*
X123055415Y-73103588D01*
X123047826Y-73094945D01*
X123003348Y-73060858D01*
X122960007Y-73025288D01*
X122949859Y-73019864D01*
X122940728Y-73012866D01*
X122890447Y-72988108D01*
X122841006Y-72961681D01*
X122829994Y-72958341D01*
X122819674Y-72953259D01*
X122765539Y-72938788D01*
X122711883Y-72922512D01*
X122700428Y-72921384D01*
X122689318Y-72918414D01*
X122633411Y-72914783D01*
X122611247Y-72912600D01*
X122599798Y-72912600D01*
X122554669Y-72909669D01*
X122532508Y-72912600D01*
X103731247Y-72912600D01*
X103697600Y-72909286D01*
X103663953Y-72912600D01*
X103563317Y-72922512D01*
X103434194Y-72961681D01*
X103315193Y-73025288D01*
X103210889Y-73110889D01*
X103125288Y-73215193D01*
X103061681Y-73334194D01*
X103022512Y-73463317D01*
X103009286Y-73597600D01*
X102637479Y-73597600D01*
X102629390Y-53858136D01*
X102902204Y-54040424D01*
X103580474Y-54321373D01*
X104300523Y-54464600D01*
X105034677Y-54464600D01*
X105754726Y-54321373D01*
X106432996Y-54040424D01*
X107043424Y-53632550D01*
X107562550Y-53113424D01*
X107970424Y-52502996D01*
X108251373Y-51824726D01*
X108394600Y-51104677D01*
X108394600Y-50370523D01*
X108251373Y-49650474D01*
X107970424Y-48972204D01*
X107786940Y-48697600D01*
X126048260Y-48697600D01*
X125864776Y-48972204D01*
G04 #@! TA.AperFunction,Conductor*
D19*
G36*
X125864776Y-48972204D02*
G01*
X125583827Y-49650474D01*
X125440600Y-50370523D01*
X125440600Y-51104677D01*
X125583827Y-51824726D01*
X125864776Y-52502996D01*
X126272650Y-53113424D01*
X126791776Y-53632550D01*
X127402204Y-54040424D01*
X128080474Y-54321373D01*
X128800523Y-54464600D01*
X129534677Y-54464600D01*
X130254726Y-54321373D01*
X130932996Y-54040424D01*
X131230736Y-53841481D01*
X131226908Y-62775329D01*
X130394134Y-61942556D01*
X130366417Y-61908783D01*
X130231659Y-61798189D01*
X130077913Y-61716011D01*
X129911090Y-61665405D01*
X129781077Y-61652600D01*
X129781069Y-61652600D01*
X129737600Y-61648319D01*
X129694131Y-61652600D01*
X129001156Y-61652600D01*
X128997856Y-61650395D01*
X128809498Y-61572374D01*
X128609539Y-61532600D01*
X128405661Y-61532600D01*
X128205702Y-61572374D01*
X128017344Y-61650395D01*
X128014044Y-61652600D01*
X126796054Y-61652600D01*
X126747856Y-61620395D01*
X126559498Y-61542374D01*
X126359539Y-61502600D01*
X126155661Y-61502600D01*
X125955702Y-61542374D01*
X125767344Y-61620395D01*
X125597826Y-61733663D01*
X125453663Y-61877826D01*
X125340395Y-62047344D01*
X125262374Y-62235702D01*
X125222600Y-62435661D01*
X125222600Y-62639539D01*
X125262374Y-62839498D01*
X125340395Y-63027856D01*
X125453663Y-63197374D01*
X125597826Y-63341537D01*
X125767344Y-63454805D01*
X125955702Y-63532826D01*
X126155661Y-63572600D01*
X126359539Y-63572600D01*
X126559498Y-63532826D01*
X126747856Y-63454805D01*
X126796054Y-63422600D01*
X127924247Y-63422600D01*
X128017344Y-63484805D01*
X128205702Y-63562826D01*
X128405661Y-63602600D01*
X128609539Y-63602600D01*
X128809498Y-63562826D01*
X128997856Y-63484805D01*
X129090953Y-63422600D01*
X129371022Y-63422600D01*
X130032601Y-64084180D01*
X130032601Y-77427082D01*
X130028602Y-77423801D01*
X130020226Y-77415424D01*
X129925364Y-77299836D01*
X129895417Y-77275259D01*
X129457600Y-76837443D01*
X129457600Y-67614922D01*
X129461276Y-67577599D01*
X129457600Y-67540276D01*
X129457600Y-67540267D01*
X129446603Y-67428614D01*
X129403146Y-67285353D01*
X129332574Y-67153324D01*
X129237601Y-67037599D01*
X129208603Y-67013801D01*
X126881404Y-64686603D01*
X126857601Y-64657599D01*
X126741876Y-64562626D01*
X126609847Y-64492054D01*
X126466586Y-64448597D01*
X126354933Y-64437600D01*
X126354922Y-64437600D01*
X126317600Y-64433924D01*
X126280278Y-64437600D01*
X126046311Y-64437600D01*
X126002374Y-64393663D01*
X125832856Y-64280395D01*
X125644498Y-64202374D01*
X125444539Y-64162600D01*
X125240661Y-64162600D01*
X125040702Y-64202374D01*
X124852344Y-64280395D01*
X124682826Y-64393663D01*
X124538663Y-64537826D01*
X124425395Y-64707344D01*
X124347374Y-64895702D01*
X124307600Y-65095661D01*
X124307600Y-65299539D01*
X124343691Y-65480982D01*
X124321537Y-65447826D01*
X124177374Y-65303663D01*
X124007856Y-65190395D01*
X123819498Y-65112374D01*
X123619539Y-65072600D01*
X123581253Y-65072600D01*
X123555834Y-65051739D01*
X123419461Y-64978847D01*
X123381462Y-64967320D01*
X121876742Y-63462600D01*
X122134131Y-63462600D01*
X122177600Y-63466881D01*
X122221069Y-63462600D01*
X122221077Y-63462600D01*
X122351090Y-63449795D01*
X122473704Y-63412600D01*
X122479539Y-63412600D01*
X122679498Y-63372826D01*
X122867856Y-63294805D01*
X123037374Y-63181537D01*
X123181537Y-63037374D01*
X123294805Y-62867856D01*
X123372826Y-62679498D01*
X123412600Y-62479539D01*
X123412600Y-62275661D01*
X123372826Y-62075702D01*
X123294805Y-61887344D01*
X123181537Y-61717826D01*
X123037374Y-61573663D01*
X122867856Y-61460395D01*
X122679498Y-61382374D01*
X122479539Y-61342600D01*
X122275661Y-61342600D01*
X122075702Y-61382374D01*
X121887344Y-61460395D01*
X121717826Y-61573663D01*
X121598889Y-61692600D01*
X121456042Y-61692600D01*
X121407844Y-61660395D01*
X121219486Y-61582374D01*
X121019527Y-61542600D01*
X120815649Y-61542600D01*
X120615690Y-61582374D01*
X120427332Y-61660395D01*
X120257814Y-61773663D01*
X120222809Y-61808668D01*
X119952599Y-61538458D01*
X119952599Y-58329740D01*
X119956396Y-58291187D01*
X119952599Y-58252634D01*
X119952599Y-58252627D01*
X119941240Y-58137301D01*
X119896353Y-57989328D01*
X119823461Y-57852955D01*
X119725363Y-57733424D01*
X119695414Y-57708846D01*
X118486358Y-56499790D01*
X118461775Y-56469836D01*
X118342244Y-56371738D01*
X118205871Y-56298846D01*
X118057898Y-56253959D01*
X118024367Y-56250656D01*
X117997374Y-56223663D01*
X117827856Y-56110395D01*
X117639498Y-56032374D01*
X117439539Y-55992600D01*
X117235661Y-55992600D01*
X117035702Y-56032374D01*
X116847344Y-56110395D01*
X116677826Y-56223663D01*
X116533663Y-56367826D01*
X116420395Y-56537344D01*
X116342374Y-56725702D01*
X116302600Y-56925661D01*
X116302600Y-57129539D01*
X116325089Y-57242600D01*
X115432757Y-57242600D01*
X114033397Y-55843240D01*
X119894339Y-55843240D01*
X119896901Y-55869177D01*
X119904245Y-55892966D01*
X119916089Y-55914865D01*
X119931977Y-55934032D01*
X119951300Y-55949732D01*
X119973314Y-55961360D01*
X119997173Y-55968470D01*
X120021961Y-55970788D01*
X124441942Y-55949099D01*
X124465554Y-55946767D01*
X124489409Y-55939644D01*
X124511417Y-55928003D01*
X124530730Y-55912293D01*
X124546608Y-55893117D01*
X124558439Y-55871212D01*
X124565770Y-55847419D01*
X124568318Y-55822653D01*
X124580880Y-52933651D01*
X124578337Y-52907807D01*
X124571011Y-52884013D01*
X124559184Y-52862105D01*
X124543311Y-52842925D01*
X124524000Y-52827211D01*
X124501995Y-52815566D01*
X124478141Y-52808438D01*
X124453355Y-52806100D01*
X120033336Y-52824412D01*
X120009625Y-52826745D01*
X119985770Y-52833869D01*
X119963762Y-52845510D01*
X119944449Y-52861220D01*
X119928572Y-52880397D01*
X119916741Y-52902303D01*
X119909411Y-52926095D01*
X119906863Y-52950861D01*
X119894339Y-55843240D01*
X114033397Y-55843240D01*
X113938771Y-55748614D01*
X113950881Y-52963603D01*
X113948222Y-52937194D01*
X113940788Y-52913433D01*
X113928862Y-52891579D01*
X113912901Y-52872472D01*
X113893520Y-52856846D01*
X113871462Y-52845301D01*
X113847576Y-52838281D01*
X113822779Y-52836056D01*
X109432760Y-52874187D01*
X109409626Y-52876516D01*
X109385771Y-52883640D01*
X109363763Y-52895281D01*
X109344450Y-52910991D01*
X109328573Y-52930168D01*
X109316742Y-52952074D01*
X109309412Y-52975866D01*
X109306864Y-53000632D01*
X109294339Y-55893469D01*
X109297020Y-55919982D01*
X109304474Y-55943737D01*
X109316419Y-55965580D01*
X109332396Y-55984674D01*
X109351791Y-56000284D01*
X109373858Y-56011810D01*
X109397751Y-56018809D01*
X109422549Y-56021013D01*
X111978810Y-55996633D01*
X112035255Y-56065412D01*
X112035259Y-56065416D01*
X112059837Y-56095364D01*
X112089785Y-56119942D01*
X114525253Y-58555410D01*
X114549836Y-58585364D01*
X114669367Y-58683462D01*
X114805740Y-58756354D01*
X114953713Y-58801242D01*
X115028626Y-58808620D01*
X115069039Y-58812600D01*
X115069044Y-58812600D01*
X115107600Y-58816397D01*
X115146156Y-58812600D01*
X117028234Y-58812600D01*
X116997344Y-58825395D01*
X116827826Y-58938663D01*
X116683663Y-59082826D01*
X116570395Y-59252344D01*
X116492374Y-59440702D01*
X116452600Y-59640661D01*
X116452600Y-59844539D01*
X116492374Y-60044498D01*
X116570395Y-60232856D01*
X116683663Y-60402374D01*
X116702600Y-60421311D01*
X116702601Y-64739037D01*
X116698803Y-64777600D01*
X116713959Y-64931486D01*
X116758846Y-65079459D01*
X116783584Y-65125740D01*
X116831739Y-65215833D01*
X116848422Y-65236161D01*
X116905255Y-65305412D01*
X116905259Y-65305416D01*
X116929837Y-65335364D01*
X116959785Y-65359942D01*
X117102600Y-65502757D01*
X117102600Y-65529539D01*
X117142374Y-65729498D01*
X117220395Y-65917856D01*
X117333663Y-66087374D01*
X117477826Y-66231537D01*
X117647344Y-66344805D01*
X117835702Y-66422826D01*
X118035661Y-66462600D01*
X118239539Y-66462600D01*
X118439498Y-66422826D01*
X118627856Y-66344805D01*
X118797374Y-66231537D01*
X118941537Y-66087374D01*
X119054805Y-65917856D01*
X119132826Y-65729498D01*
X119172600Y-65529539D01*
X119172600Y-65325661D01*
X119132826Y-65125702D01*
X119054805Y-64937344D01*
X118941537Y-64767826D01*
X118797374Y-64623663D01*
X118627856Y-64510395D01*
X118439498Y-64432374D01*
X118272600Y-64399176D01*
X118272600Y-63522757D01*
X121442600Y-66692757D01*
X121442600Y-66719539D01*
X121482374Y-66919498D01*
X121560395Y-67107856D01*
X121673663Y-67277374D01*
X121788889Y-67392600D01*
X121645661Y-67392600D01*
X121445702Y-67432374D01*
X121257344Y-67510395D01*
X121087826Y-67623663D01*
X120943663Y-67767826D01*
X120830395Y-67937344D01*
X120752374Y-68125702D01*
X120712600Y-68325661D01*
X120712600Y-68529539D01*
X120752374Y-68729498D01*
X120830395Y-68917856D01*
X120943663Y-69087374D01*
X121087826Y-69231537D01*
X121257344Y-69344805D01*
X121292564Y-69359394D01*
X121200395Y-69497334D01*
X121122374Y-69685692D01*
X121082600Y-69885651D01*
X121082600Y-69902600D01*
X109502600Y-69902600D01*
X109502600Y-68920151D01*
X109506397Y-68881598D01*
X109502600Y-68843045D01*
X109502600Y-68843038D01*
X109491241Y-68727712D01*
X109475504Y-68675832D01*
X109446354Y-68579739D01*
X109437072Y-68562374D01*
X109373462Y-68443366D01*
X109313050Y-68369755D01*
X109299945Y-68353786D01*
X109299942Y-68353783D01*
X109275364Y-68323835D01*
X109245416Y-68299258D01*
X108733758Y-67787600D01*
X115587443Y-67787600D01*
X116342600Y-68542757D01*
X116342600Y-68569539D01*
X116382374Y-68769498D01*
X116460395Y-68957856D01*
X116573663Y-69127374D01*
X116717826Y-69271537D01*
X116887344Y-69384805D01*
X117075702Y-69462826D01*
X117275661Y-69502600D01*
X117479539Y-69502600D01*
X117679498Y-69462826D01*
X117867856Y-69384805D01*
X118037374Y-69271537D01*
X118181537Y-69127374D01*
X118294805Y-68957856D01*
X118372826Y-68769498D01*
X118412600Y-68569539D01*
X118412600Y-68365661D01*
X118372826Y-68165702D01*
X118294805Y-67977344D01*
X118181537Y-67807826D01*
X118037374Y-67663663D01*
X117867856Y-67550395D01*
X117679498Y-67472374D01*
X117479539Y-67432600D01*
X117452757Y-67432600D01*
X116494945Y-66474788D01*
X116470364Y-66444836D01*
X116350833Y-66346738D01*
X116214460Y-66273846D01*
X116066487Y-66228959D01*
X115951161Y-66217600D01*
X115951153Y-66217600D01*
X115912600Y-66213803D01*
X115874047Y-66217600D01*
X109077758Y-66217600D01*
X109515417Y-65779941D01*
X109545364Y-65755364D01*
X109643462Y-65635833D01*
X109716354Y-65499460D01*
X109761241Y-65351487D01*
X109772600Y-65236161D01*
X109772600Y-65236154D01*
X109776397Y-65197601D01*
X109772600Y-65159048D01*
X109772600Y-62976152D01*
X109776397Y-62937599D01*
X109772600Y-62899046D01*
X109772600Y-62899039D01*
X109761241Y-62783713D01*
X109716354Y-62635740D01*
X109643462Y-62499367D01*
X109545364Y-62379836D01*
X109515416Y-62355258D01*
X108082600Y-60922443D01*
X108082600Y-60895661D01*
X108042826Y-60695702D01*
X107964805Y-60507344D01*
X107851537Y-60337826D01*
X107707374Y-60193663D01*
X107537856Y-60080395D01*
X107349498Y-60002374D01*
X107149539Y-59962600D01*
X106945661Y-59962600D01*
X106745702Y-60002374D01*
X106557344Y-60080395D01*
X106387826Y-60193663D01*
X106243663Y-60337826D01*
X106130395Y-60507344D01*
X106052374Y-60695702D01*
X106012600Y-60895661D01*
X106012600Y-61099539D01*
X106052374Y-61299498D01*
X106130395Y-61487856D01*
X106243663Y-61657374D01*
X106387826Y-61801537D01*
X106557344Y-61914805D01*
X106745702Y-61992826D01*
X106945661Y-62032600D01*
X106972443Y-62032600D01*
X108202601Y-63262759D01*
X108202601Y-63382494D01*
X108129232Y-63309125D01*
X107886011Y-63146610D01*
X107615758Y-63034668D01*
X107328860Y-62977600D01*
X107036340Y-62977600D01*
X106749442Y-63034668D01*
X106479189Y-63146610D01*
X106235968Y-63309125D01*
X106104113Y-63440980D01*
X106082102Y-63368420D01*
X106023137Y-63258106D01*
X105943785Y-63161415D01*
X105847094Y-63082063D01*
X105736780Y-63023098D01*
X105617082Y-62986788D01*
X105492600Y-62974528D01*
X103792600Y-62974528D01*
X103668118Y-62986788D01*
X103548420Y-63023098D01*
X103438106Y-63082063D01*
X103341415Y-63161415D01*
X103262063Y-63258106D01*
X103203098Y-63368420D01*
X103166788Y-63488118D01*
X103154528Y-63612600D01*
X103154528Y-65312600D01*
X103166788Y-65437082D01*
X103203098Y-65556780D01*
X103262063Y-65667094D01*
X103341415Y-65763785D01*
X103438106Y-65843137D01*
X103548420Y-65902102D01*
X103620980Y-65924113D01*
X103489125Y-66055968D01*
X103326610Y-66299189D01*
X103214668Y-66569442D01*
X103157600Y-66856340D01*
X103157600Y-67148860D01*
X103214668Y-67435758D01*
X103326610Y-67706011D01*
X103489125Y-67949232D01*
X103695968Y-68156075D01*
X103870360Y-68272600D01*
X103695968Y-68389125D01*
X103489125Y-68595968D01*
X103326610Y-68839189D01*
X103214668Y-69109442D01*
X103157600Y-69396340D01*
X103157600Y-69688860D01*
X103214668Y-69975758D01*
X103326610Y-70246011D01*
X103489125Y-70489232D01*
X103695968Y-70696075D01*
X103939189Y-70858590D01*
X104209442Y-70970532D01*
X104496340Y-71027600D01*
X104788860Y-71027600D01*
X105075758Y-70970532D01*
X105346011Y-70858590D01*
X105589232Y-70696075D01*
X105796075Y-70489232D01*
X105917350Y-70307731D01*
X106022252Y-70469337D01*
X106225345Y-70677903D01*
X106465225Y-70842840D01*
X106732673Y-70957809D01*
X106959600Y-70852019D01*
X106959600Y-69765600D01*
X106939600Y-69765600D01*
X106939600Y-69319600D01*
X106959600Y-69319600D01*
X106959600Y-69299600D01*
X107405600Y-69299600D01*
X107405600Y-69319600D01*
X107425600Y-69319600D01*
X107425600Y-69765600D01*
X107405600Y-69765600D01*
X107405600Y-70852019D01*
X107632527Y-70957809D01*
X107899975Y-70842840D01*
X108091004Y-70711492D01*
X108094986Y-70716344D01*
X108135255Y-70765412D01*
X108135259Y-70765416D01*
X108159837Y-70795364D01*
X108189785Y-70819942D01*
X108585253Y-71215410D01*
X108609836Y-71245364D01*
X108729367Y-71343462D01*
X108865740Y-71416354D01*
X109013712Y-71461241D01*
X109028090Y-71462657D01*
X109129039Y-71472600D01*
X109129046Y-71472600D01*
X109167599Y-71476397D01*
X109206152Y-71472600D01*
X123290305Y-71472600D01*
X123435702Y-71532826D01*
X123635661Y-71572600D01*
X123662443Y-71572600D01*
X125392601Y-73302759D01*
X125392600Y-73952442D01*
X121842443Y-77502600D01*
X115806156Y-77502600D01*
X115767600Y-77498803D01*
X115729044Y-77502600D01*
X115729039Y-77502600D01*
X115688626Y-77506580D01*
X115613713Y-77513958D01*
X115475979Y-77555740D01*
X115465740Y-77558846D01*
X115329367Y-77631738D01*
X115209836Y-77729836D01*
X115185255Y-77759788D01*
X113245551Y-79699492D01*
X113215603Y-79724070D01*
X113191025Y-79754018D01*
X113191021Y-79754022D01*
X113181673Y-79765413D01*
X113117505Y-79843601D01*
X113044612Y-79979974D01*
X113005016Y-80110505D01*
X112969429Y-80146092D01*
X112856161Y-80315610D01*
X112778140Y-80503968D01*
X112738366Y-80703927D01*
X112738366Y-80907805D01*
X112778140Y-81107764D01*
X112856161Y-81296122D01*
X112969429Y-81465640D01*
X113113592Y-81609803D01*
X113283110Y-81723071D01*
X113471468Y-81801092D01*
X113671427Y-81840866D01*
X113875305Y-81840866D01*
X113932600Y-81829469D01*
X113932600Y-81962442D01*
X112178447Y-83716596D01*
X111756153Y-83716596D01*
X111717600Y-83712799D01*
X111679047Y-83716596D01*
X111679039Y-83716596D01*
X111563713Y-83727955D01*
X111415740Y-83772842D01*
X111279367Y-83845734D01*
X111219159Y-83895146D01*
X111189787Y-83919251D01*
X111189784Y-83919254D01*
X111159836Y-83943832D01*
X111135258Y-83973780D01*
X102645209Y-92463830D01*
X102637479Y-73597600D01*
X103009286Y-73597600D01*
X103012600Y-73631247D01*
X103012600Y-74163953D01*
X103009286Y-74197600D01*
X103022512Y-74331883D01*
X103061681Y-74461006D01*
X103125288Y-74580007D01*
X103210889Y-74684311D01*
X103299282Y-74756854D01*
X103315193Y-74769912D01*
X103434194Y-74833519D01*
X103563317Y-74872688D01*
X103697600Y-74885914D01*
X103731247Y-74882600D01*
X122575402Y-74882600D01*
X122620531Y-74885531D01*
X122676076Y-74878185D01*
X122731883Y-74872688D01*
X122742897Y-74869347D01*
X122754298Y-74867839D01*
X122807343Y-74849798D01*
X122861006Y-74833519D01*
X122871157Y-74828093D01*
X122882045Y-74824390D01*
X122930553Y-74796345D01*
X122980007Y-74769912D01*
X122988903Y-74762611D01*
X122998861Y-74756854D01*
X123040966Y-74719884D01*
X123084311Y-74684311D01*
X123091614Y-74675412D01*
X123100255Y-74667825D01*
X123134336Y-74623357D01*
X123169912Y-74580007D01*
X123175337Y-74569858D01*
X123182334Y-74560728D01*
X123207092Y-74510447D01*
X123233519Y-74461006D01*
X123236859Y-74449994D01*
X123241941Y-74439674D01*
X123256411Y-74385542D01*
X123272688Y-74331883D01*
X123273816Y-74320426D01*
X123276786Y-74309317D01*
X123280417Y-74253409D01*
X123285914Y-74197600D01*
X123281479Y-74152569D01*
X123263722Y-73619859D01*
X123265914Y-73597600D01*
X123261478Y-73552566D01*
X123261098Y-73541152D01*
X123258185Y-73519125D01*
X123252688Y-73463317D01*
X123249347Y-73452303D01*
X123247839Y-73440902D01*
X123229798Y-73387857D01*
X123213519Y-73334194D01*
X123208093Y-73324043D01*
X123204390Y-73313155D01*
X123176345Y-73264647D01*
X123149912Y-73215193D01*
X123142611Y-73206297D01*
X123136854Y-73196339D01*
X123099878Y-73154227D01*
X123064311Y-73110889D01*
X123055415Y-73103588D01*
X123047826Y-73094945D01*
X123003348Y-73060858D01*
X122960007Y-73025288D01*
X122949859Y-73019864D01*
X122940728Y-73012866D01*
X122890447Y-72988108D01*
X122841006Y-72961681D01*
X122829994Y-72958341D01*
X122819674Y-72953259D01*
X122765539Y-72938788D01*
X122711883Y-72922512D01*
X122700428Y-72921384D01*
X122689318Y-72918414D01*
X122633411Y-72914783D01*
X122611247Y-72912600D01*
X122599798Y-72912600D01*
X122554669Y-72909669D01*
X122532508Y-72912600D01*
X103731247Y-72912600D01*
X103697600Y-72909286D01*
X103663953Y-72912600D01*
X103563317Y-72922512D01*
X103434194Y-72961681D01*
X103315193Y-73025288D01*
X103210889Y-73110889D01*
X103125288Y-73215193D01*
X103061681Y-73334194D01*
X103022512Y-73463317D01*
X103009286Y-73597600D01*
X102637479Y-73597600D01*
X102629390Y-53858136D01*
X102902204Y-54040424D01*
X103580474Y-54321373D01*
X104300523Y-54464600D01*
X105034677Y-54464600D01*
X105754726Y-54321373D01*
X106432996Y-54040424D01*
X107043424Y-53632550D01*
X107562550Y-53113424D01*
X107970424Y-52502996D01*
X108251373Y-51824726D01*
X108394600Y-51104677D01*
X108394600Y-50370523D01*
X108251373Y-49650474D01*
X107970424Y-48972204D01*
X107786940Y-48697600D01*
X126048260Y-48697600D01*
X125864776Y-48972204D01*
G37*
G04 #@! TD.AperFunction*
D18*
X127937600Y-76152600D02*
X126686152Y-76152600D01*
X126647599Y-76148803D01*
X126493712Y-76163959D01*
X126345740Y-76208846D01*
X126209367Y-76281739D01*
X126119787Y-76355255D01*
X124022443Y-78452600D01*
X123749168Y-78452600D01*
X127937600Y-74264169D01*
X127937600Y-76152600D01*
G04 #@! TA.AperFunction,Conductor*
D19*
G36*
X127937600Y-76152600D02*
G01*
X126686152Y-76152600D01*
X126647599Y-76148803D01*
X126493712Y-76163959D01*
X126345740Y-76208846D01*
X126209367Y-76281739D01*
X126119787Y-76355255D01*
X124022443Y-78452600D01*
X123749168Y-78452600D01*
X127937600Y-74264169D01*
X127937600Y-76152600D01*
G37*
G04 #@! TD.AperFunction*
M02*
