G04 #@! TF.GenerationSoftware,KiCad,Pcbnew,5.1.9+dfsg1-1~bpo10+1*
G04 #@! TF.CreationDate,2021-05-17T10:09:47+00:00*
G04 #@! TF.ProjectId,ModuleV440,4d6f6475-6c65-4563-9434-302e6b696361,rev?*
G04 #@! TF.SameCoordinates,Original*
G04 #@! TF.FileFunction,Legend,Bot*
G04 #@! TF.FilePolarity,Positive*
%FSLAX46Y46*%
G04 Gerber Fmt 4.6, Leading zero omitted, Abs format (unit mm)*
G04 Created by KiCad (PCBNEW 5.1.9+dfsg1-1~bpo10+1) date 2021-05-17 10:09:47*
%MOMM*%
%LPD*%
G01*
G04 APERTURE LIST*
%ADD10C,0.300000*%
%ADD11C,0.250000*%
%ADD12C,0.150000*%
%ADD13C,0.200000*%
G04 APERTURE END LIST*
D10*
X114703314Y-85916171D02*
X114817600Y-85859028D01*
X115046171Y-85859028D01*
X115160457Y-85916171D01*
X115274742Y-86030457D01*
X115331885Y-86144742D01*
X115331885Y-86373314D01*
X115274742Y-86487600D01*
X115160457Y-86601885D01*
X115046171Y-86659028D01*
X114817600Y-86659028D01*
X114703314Y-86601885D01*
X114931885Y-85459028D02*
X115217600Y-85516171D01*
X115503314Y-85687600D01*
X115674742Y-85973314D01*
X115731885Y-86259028D01*
X115674742Y-86544742D01*
X115503314Y-86830457D01*
X115217600Y-87001885D01*
X114931885Y-87059028D01*
X114646171Y-87001885D01*
X114360457Y-86830457D01*
X114189028Y-86544742D01*
X114131885Y-86259028D01*
X114189028Y-85973314D01*
X114360457Y-85687600D01*
X114646171Y-85516171D01*
X114931885Y-85459028D01*
X113674742Y-85744742D02*
X113617600Y-85687600D01*
X113503314Y-85630457D01*
X113217600Y-85630457D01*
X113103314Y-85687600D01*
X113046171Y-85744742D01*
X112989028Y-85859028D01*
X112989028Y-85973314D01*
X113046171Y-86144742D01*
X113731885Y-86830457D01*
X112989028Y-86830457D01*
X112246171Y-85630457D02*
X112131885Y-85630457D01*
X112017600Y-85687600D01*
X111960457Y-85744742D01*
X111903314Y-85859028D01*
X111846171Y-86087600D01*
X111846171Y-86373314D01*
X111903314Y-86601885D01*
X111960457Y-86716171D01*
X112017600Y-86773314D01*
X112131885Y-86830457D01*
X112246171Y-86830457D01*
X112360457Y-86773314D01*
X112417600Y-86716171D01*
X112474742Y-86601885D01*
X112531885Y-86373314D01*
X112531885Y-86087600D01*
X112474742Y-85859028D01*
X112417600Y-85744742D01*
X112360457Y-85687600D01*
X112246171Y-85630457D01*
X110703314Y-86830457D02*
X111389028Y-86830457D01*
X111046171Y-86830457D02*
X111046171Y-85630457D01*
X111160457Y-85801885D01*
X111274742Y-85916171D01*
X111389028Y-85973314D01*
X110131885Y-86830457D02*
X109903314Y-86830457D01*
X109789028Y-86773314D01*
X109731885Y-86716171D01*
X109617600Y-86544742D01*
X109560457Y-86316171D01*
X109560457Y-85859028D01*
X109617600Y-85744742D01*
X109674742Y-85687600D01*
X109789028Y-85630457D01*
X110017600Y-85630457D01*
X110131885Y-85687600D01*
X110189028Y-85744742D01*
X110246171Y-85859028D01*
X110246171Y-86144742D01*
X110189028Y-86259028D01*
X110131885Y-86316171D01*
X110017600Y-86373314D01*
X109789028Y-86373314D01*
X109674742Y-86316171D01*
X109617600Y-86259028D01*
X109560457Y-86144742D01*
X109046171Y-86373314D02*
X108131885Y-86373314D01*
X107617600Y-85744742D02*
X107560457Y-85687600D01*
X107446171Y-85630457D01*
X107160457Y-85630457D01*
X107046171Y-85687600D01*
X106989028Y-85744742D01*
X106931885Y-85859028D01*
X106931885Y-85973314D01*
X106989028Y-86144742D01*
X107674742Y-86830457D01*
X106931885Y-86830457D01*
X106189028Y-85630457D02*
X106074742Y-85630457D01*
X105960457Y-85687600D01*
X105903314Y-85744742D01*
X105846171Y-85859028D01*
X105789028Y-86087600D01*
X105789028Y-86373314D01*
X105846171Y-86601885D01*
X105903314Y-86716171D01*
X105960457Y-86773314D01*
X106074742Y-86830457D01*
X106189028Y-86830457D01*
X106303314Y-86773314D01*
X106360457Y-86716171D01*
X106417600Y-86601885D01*
X106474742Y-86373314D01*
X106474742Y-86087600D01*
X106417600Y-85859028D01*
X106360457Y-85744742D01*
X106303314Y-85687600D01*
X106189028Y-85630457D01*
X105331885Y-85744742D02*
X105274742Y-85687600D01*
X105160457Y-85630457D01*
X104874742Y-85630457D01*
X104760457Y-85687600D01*
X104703314Y-85744742D01*
X104646171Y-85859028D01*
X104646171Y-85973314D01*
X104703314Y-86144742D01*
X105389028Y-86830457D01*
X104646171Y-86830457D01*
X103503314Y-86830457D02*
X104189028Y-86830457D01*
X103846171Y-86830457D02*
X103846171Y-85630457D01*
X103960457Y-85801885D01*
X104074742Y-85916171D01*
X104189028Y-85973314D01*
X116303314Y-88873314D02*
X116131885Y-88930457D01*
X115846171Y-88930457D01*
X115731885Y-88873314D01*
X115674742Y-88816171D01*
X115617600Y-88701885D01*
X115617600Y-88587600D01*
X115674742Y-88473314D01*
X115731885Y-88416171D01*
X115846171Y-88359028D01*
X116074742Y-88301885D01*
X116189028Y-88244742D01*
X116246171Y-88187600D01*
X116303314Y-88073314D01*
X116303314Y-87959028D01*
X116246171Y-87844742D01*
X116189028Y-87787600D01*
X116074742Y-87730457D01*
X115789028Y-87730457D01*
X115617600Y-87787600D01*
X115274742Y-88130457D02*
X114817600Y-88130457D01*
X115103314Y-87730457D02*
X115103314Y-88759028D01*
X115046171Y-88873314D01*
X114931885Y-88930457D01*
X114817600Y-88930457D01*
X113903314Y-88130457D02*
X113903314Y-88930457D01*
X114417600Y-88130457D02*
X114417600Y-88759028D01*
X114360457Y-88873314D01*
X114246171Y-88930457D01*
X114074742Y-88930457D01*
X113960457Y-88873314D01*
X113903314Y-88816171D01*
X112817600Y-88930457D02*
X112817600Y-88301885D01*
X112874742Y-88187600D01*
X112989028Y-88130457D01*
X113217600Y-88130457D01*
X113331885Y-88187600D01*
X112817600Y-88873314D02*
X112931885Y-88930457D01*
X113217600Y-88930457D01*
X113331885Y-88873314D01*
X113389028Y-88759028D01*
X113389028Y-88644742D01*
X113331885Y-88530457D01*
X113217600Y-88473314D01*
X112931885Y-88473314D01*
X112817600Y-88416171D01*
X112246171Y-88930457D02*
X112246171Y-88130457D01*
X112246171Y-88359028D02*
X112189028Y-88244742D01*
X112131885Y-88187600D01*
X112017600Y-88130457D01*
X111903314Y-88130457D01*
X111674742Y-88130457D02*
X111217600Y-88130457D01*
X111503314Y-87730457D02*
X111503314Y-88759028D01*
X111446171Y-88873314D01*
X111331885Y-88930457D01*
X111217600Y-88930457D01*
X109903314Y-88930457D02*
X109903314Y-87730457D01*
X109446171Y-87730457D01*
X109331885Y-87787600D01*
X109274742Y-87844742D01*
X109217600Y-87959028D01*
X109217600Y-88130457D01*
X109274742Y-88244742D01*
X109331885Y-88301885D01*
X109446171Y-88359028D01*
X109903314Y-88359028D01*
X108703314Y-88930457D02*
X108703314Y-88130457D01*
X108703314Y-87730457D02*
X108760457Y-87787600D01*
X108703314Y-87844742D01*
X108646171Y-87787600D01*
X108703314Y-87730457D01*
X108703314Y-87844742D01*
X108303314Y-88130457D02*
X107846171Y-88130457D01*
X108131885Y-87730457D02*
X108131885Y-88759028D01*
X108074742Y-88873314D01*
X107960457Y-88930457D01*
X107846171Y-88930457D01*
X107617600Y-88130457D02*
X107160457Y-88130457D01*
X107446171Y-87730457D02*
X107446171Y-88759028D01*
X107389028Y-88873314D01*
X107274742Y-88930457D01*
X107160457Y-88930457D01*
X106246171Y-88930457D02*
X106246171Y-88301885D01*
X106303314Y-88187600D01*
X106417600Y-88130457D01*
X106646171Y-88130457D01*
X106760457Y-88187600D01*
X106246171Y-88873314D02*
X106360457Y-88930457D01*
X106646171Y-88930457D01*
X106760457Y-88873314D01*
X106817600Y-88759028D01*
X106817600Y-88644742D01*
X106760457Y-88530457D01*
X106646171Y-88473314D01*
X106360457Y-88473314D01*
X106246171Y-88416171D01*
X105789028Y-88130457D02*
X105560457Y-88930457D01*
X105331885Y-88359028D01*
X105103314Y-88930457D01*
X104874742Y-88130457D01*
X103903314Y-88930457D02*
X103903314Y-88301885D01*
X103960457Y-88187600D01*
X104074742Y-88130457D01*
X104303314Y-88130457D01*
X104417600Y-88187600D01*
X103903314Y-88873314D02*
X104017600Y-88930457D01*
X104303314Y-88930457D01*
X104417600Y-88873314D01*
X104474742Y-88759028D01*
X104474742Y-88644742D01*
X104417600Y-88530457D01*
X104303314Y-88473314D01*
X104017600Y-88473314D01*
X103903314Y-88416171D01*
X103446171Y-88130457D02*
X103160457Y-88930457D01*
X102874742Y-88130457D02*
X103160457Y-88930457D01*
X103274742Y-89216171D01*
X103331885Y-89273314D01*
X103446171Y-89330457D01*
D11*
X107720576Y-102089980D02*
X107720576Y-101089980D01*
X107482480Y-101089980D01*
X107339623Y-101137600D01*
X107244385Y-101232838D01*
X107196766Y-101328076D01*
X107149147Y-101518552D01*
X107149147Y-101661409D01*
X107196766Y-101851885D01*
X107244385Y-101947123D01*
X107339623Y-102042361D01*
X107482480Y-102089980D01*
X107720576Y-102089980D01*
X106720576Y-102089980D02*
X106720576Y-101089980D01*
X106053909Y-101613790D02*
X106053909Y-102089980D01*
X106387242Y-101089980D02*
X106053909Y-101613790D01*
X105720576Y-101089980D01*
X105053909Y-101566171D02*
X104911052Y-101613790D01*
X104863433Y-101661409D01*
X104815814Y-101756647D01*
X104815814Y-101899504D01*
X104863433Y-101994742D01*
X104911052Y-102042361D01*
X105006290Y-102089980D01*
X105387242Y-102089980D01*
X105387242Y-101089980D01*
X105053909Y-101089980D01*
X104958671Y-101137600D01*
X104911052Y-101185219D01*
X104863433Y-101280457D01*
X104863433Y-101375695D01*
X104911052Y-101470933D01*
X104958671Y-101518552D01*
X105053909Y-101566171D01*
X105387242Y-101566171D01*
X104387242Y-102089980D02*
X104387242Y-101089980D01*
X104053909Y-101804266D01*
X103720576Y-101089980D01*
X103720576Y-102089980D01*
X103292004Y-102042361D02*
X103149147Y-102089980D01*
X102911052Y-102089980D01*
X102815814Y-102042361D01*
X102768195Y-101994742D01*
X102720576Y-101899504D01*
X102720576Y-101804266D01*
X102768195Y-101709028D01*
X102815814Y-101661409D01*
X102911052Y-101613790D01*
X103101528Y-101566171D01*
X103196766Y-101518552D01*
X103244385Y-101470933D01*
X103292004Y-101375695D01*
X103292004Y-101280457D01*
X103244385Y-101185219D01*
X103196766Y-101137600D01*
X103101528Y-101089980D01*
X102863433Y-101089980D01*
X102720576Y-101137600D01*
D10*
X123535457Y-51241171D02*
X122678314Y-51241171D01*
X123106885Y-52741171D02*
X123106885Y-51241171D01*
X122321171Y-51241171D02*
X121321171Y-52741171D01*
X121321171Y-51241171D02*
X122321171Y-52741171D01*
X112042600Y-52841171D02*
X112542600Y-52126885D01*
X112899742Y-52841171D02*
X112899742Y-51341171D01*
X112328314Y-51341171D01*
X112185457Y-51412600D01*
X112114028Y-51484028D01*
X112042600Y-51626885D01*
X112042600Y-51841171D01*
X112114028Y-51984028D01*
X112185457Y-52055457D01*
X112328314Y-52126885D01*
X112899742Y-52126885D01*
X111542600Y-51341171D02*
X110542600Y-52841171D01*
X110542600Y-51341171D02*
X111542600Y-52841171D01*
D12*
X121760457Y-77014980D02*
X121760457Y-76014980D01*
X121522361Y-76014980D01*
X121379504Y-76062600D01*
X121284266Y-76157838D01*
X121236647Y-76253076D01*
X121189028Y-76443552D01*
X121189028Y-76586409D01*
X121236647Y-76776885D01*
X121284266Y-76872123D01*
X121379504Y-76967361D01*
X121522361Y-77014980D01*
X121760457Y-77014980D01*
X120569980Y-76014980D02*
X120379504Y-76014980D01*
X120284266Y-76062600D01*
X120189028Y-76157838D01*
X120141409Y-76348314D01*
X120141409Y-76681647D01*
X120189028Y-76872123D01*
X120284266Y-76967361D01*
X120379504Y-77014980D01*
X120569980Y-77014980D01*
X120665219Y-76967361D01*
X120760457Y-76872123D01*
X120808076Y-76681647D01*
X120808076Y-76348314D01*
X120760457Y-76157838D01*
X120665219Y-76062600D01*
X120569980Y-76014980D01*
X118950933Y-77014980D02*
X118950933Y-76014980D01*
X118379504Y-77014980D01*
X118379504Y-76014980D01*
X117712838Y-76014980D02*
X117522361Y-76014980D01*
X117427123Y-76062600D01*
X117331885Y-76157838D01*
X117284266Y-76348314D01*
X117284266Y-76681647D01*
X117331885Y-76872123D01*
X117427123Y-76967361D01*
X117522361Y-77014980D01*
X117712838Y-77014980D01*
X117808076Y-76967361D01*
X117903314Y-76872123D01*
X117950933Y-76681647D01*
X117950933Y-76348314D01*
X117903314Y-76157838D01*
X117808076Y-76062600D01*
X117712838Y-76014980D01*
X116998552Y-76014980D02*
X116427123Y-76014980D01*
X116712838Y-77014980D02*
X116712838Y-76014980D01*
X115379504Y-76967361D02*
X115236647Y-77014980D01*
X114998552Y-77014980D01*
X114903314Y-76967361D01*
X114855695Y-76919742D01*
X114808076Y-76824504D01*
X114808076Y-76729266D01*
X114855695Y-76634028D01*
X114903314Y-76586409D01*
X114998552Y-76538790D01*
X115189028Y-76491171D01*
X115284266Y-76443552D01*
X115331885Y-76395933D01*
X115379504Y-76300695D01*
X115379504Y-76205457D01*
X115331885Y-76110219D01*
X115284266Y-76062600D01*
X115189028Y-76014980D01*
X114950933Y-76014980D01*
X114808076Y-76062600D01*
X114379504Y-77014980D02*
X114379504Y-76014980D01*
X114379504Y-76491171D02*
X113808076Y-76491171D01*
X113808076Y-77014980D02*
X113808076Y-76014980D01*
X113141409Y-76014980D02*
X112950933Y-76014980D01*
X112855695Y-76062600D01*
X112760457Y-76157838D01*
X112712838Y-76348314D01*
X112712838Y-76681647D01*
X112760457Y-76872123D01*
X112855695Y-76967361D01*
X112950933Y-77014980D01*
X113141409Y-77014980D01*
X113236647Y-76967361D01*
X113331885Y-76872123D01*
X113379504Y-76681647D01*
X113379504Y-76348314D01*
X113331885Y-76157838D01*
X113236647Y-76062600D01*
X113141409Y-76014980D01*
X111712838Y-77014980D02*
X112046171Y-76538790D01*
X112284266Y-77014980D02*
X112284266Y-76014980D01*
X111903314Y-76014980D01*
X111808076Y-76062600D01*
X111760457Y-76110219D01*
X111712838Y-76205457D01*
X111712838Y-76348314D01*
X111760457Y-76443552D01*
X111808076Y-76491171D01*
X111903314Y-76538790D01*
X112284266Y-76538790D01*
X111427123Y-76014980D02*
X110855695Y-76014980D01*
X111141409Y-77014980D02*
X111141409Y-76014980D01*
X109189028Y-76919742D02*
X109236647Y-76967361D01*
X109379504Y-77014980D01*
X109474742Y-77014980D01*
X109617600Y-76967361D01*
X109712838Y-76872123D01*
X109760457Y-76776885D01*
X109808076Y-76586409D01*
X109808076Y-76443552D01*
X109760457Y-76253076D01*
X109712838Y-76157838D01*
X109617600Y-76062600D01*
X109474742Y-76014980D01*
X109379504Y-76014980D01*
X109236647Y-76062600D01*
X109189028Y-76110219D01*
X108760457Y-77014980D02*
X108760457Y-76014980D01*
X107712838Y-77014980D02*
X108046171Y-76538790D01*
X108284266Y-77014980D02*
X108284266Y-76014980D01*
X107903314Y-76014980D01*
X107808076Y-76062600D01*
X107760457Y-76110219D01*
X107712838Y-76205457D01*
X107712838Y-76348314D01*
X107760457Y-76443552D01*
X107808076Y-76491171D01*
X107903314Y-76538790D01*
X108284266Y-76538790D01*
X106712838Y-76919742D02*
X106760457Y-76967361D01*
X106903314Y-77014980D01*
X106998552Y-77014980D01*
X107141409Y-76967361D01*
X107236647Y-76872123D01*
X107284266Y-76776885D01*
X107331885Y-76586409D01*
X107331885Y-76443552D01*
X107284266Y-76253076D01*
X107236647Y-76157838D01*
X107141409Y-76062600D01*
X106998552Y-76014980D01*
X106903314Y-76014980D01*
X106760457Y-76062600D01*
X106712838Y-76110219D01*
X106284266Y-76014980D02*
X106284266Y-76824504D01*
X106236647Y-76919742D01*
X106189028Y-76967361D01*
X106093790Y-77014980D01*
X105903314Y-77014980D01*
X105808076Y-76967361D01*
X105760457Y-76919742D01*
X105712838Y-76824504D01*
X105712838Y-76014980D01*
X105236647Y-77014980D02*
X105236647Y-76014980D01*
X104903314Y-76014980D02*
X104331885Y-76014980D01*
X104617600Y-77014980D02*
X104617600Y-76014980D01*
X123141409Y-78664980D02*
X123141409Y-77664980D01*
X122903314Y-77664980D01*
X122760457Y-77712600D01*
X122665219Y-77807838D01*
X122617600Y-77903076D01*
X122569980Y-78093552D01*
X122569980Y-78236409D01*
X122617600Y-78426885D01*
X122665219Y-78522123D01*
X122760457Y-78617361D01*
X122903314Y-78664980D01*
X123141409Y-78664980D01*
X121950933Y-77664980D02*
X121760457Y-77664980D01*
X121665219Y-77712600D01*
X121569980Y-77807838D01*
X121522361Y-77998314D01*
X121522361Y-78331647D01*
X121569980Y-78522123D01*
X121665219Y-78617361D01*
X121760457Y-78664980D01*
X121950933Y-78664980D01*
X122046171Y-78617361D01*
X122141409Y-78522123D01*
X122189028Y-78331647D01*
X122189028Y-77998314D01*
X122141409Y-77807838D01*
X122046171Y-77712600D01*
X121950933Y-77664980D01*
X120331885Y-78664980D02*
X120331885Y-77664980D01*
X119760457Y-78664980D01*
X119760457Y-77664980D01*
X119093790Y-77664980D02*
X118903314Y-77664980D01*
X118808076Y-77712600D01*
X118712838Y-77807838D01*
X118665219Y-77998314D01*
X118665219Y-78331647D01*
X118712838Y-78522123D01*
X118808076Y-78617361D01*
X118903314Y-78664980D01*
X119093790Y-78664980D01*
X119189028Y-78617361D01*
X119284266Y-78522123D01*
X119331885Y-78331647D01*
X119331885Y-77998314D01*
X119284266Y-77807838D01*
X119189028Y-77712600D01*
X119093790Y-77664980D01*
X118379504Y-77664980D02*
X117808076Y-77664980D01*
X118093790Y-78664980D02*
X118093790Y-77664980D01*
X116141409Y-78664980D02*
X116474742Y-78188790D01*
X116712838Y-78664980D02*
X116712838Y-77664980D01*
X116331885Y-77664980D01*
X116236647Y-77712600D01*
X116189028Y-77760219D01*
X116141409Y-77855457D01*
X116141409Y-77998314D01*
X116189028Y-78093552D01*
X116236647Y-78141171D01*
X116331885Y-78188790D01*
X116712838Y-78188790D01*
X115712838Y-78141171D02*
X115379504Y-78141171D01*
X115236647Y-78664980D02*
X115712838Y-78664980D01*
X115712838Y-77664980D01*
X115236647Y-77664980D01*
X114950933Y-77664980D02*
X114617600Y-78664980D01*
X114284266Y-77664980D01*
X113950933Y-78141171D02*
X113617600Y-78141171D01*
X113474742Y-78664980D02*
X113950933Y-78664980D01*
X113950933Y-77664980D01*
X113474742Y-77664980D01*
X112474742Y-78664980D02*
X112808076Y-78188790D01*
X113046171Y-78664980D02*
X113046171Y-77664980D01*
X112665219Y-77664980D01*
X112569980Y-77712600D01*
X112522361Y-77760219D01*
X112474742Y-77855457D01*
X112474742Y-77998314D01*
X112522361Y-78093552D01*
X112569980Y-78141171D01*
X112665219Y-78188790D01*
X113046171Y-78188790D01*
X112093790Y-78617361D02*
X111950933Y-78664980D01*
X111712838Y-78664980D01*
X111617600Y-78617361D01*
X111569980Y-78569742D01*
X111522361Y-78474504D01*
X111522361Y-78379266D01*
X111569980Y-78284028D01*
X111617600Y-78236409D01*
X111712838Y-78188790D01*
X111903314Y-78141171D01*
X111998552Y-78093552D01*
X112046171Y-78045933D01*
X112093790Y-77950695D01*
X112093790Y-77855457D01*
X112046171Y-77760219D01*
X111998552Y-77712600D01*
X111903314Y-77664980D01*
X111665219Y-77664980D01*
X111522361Y-77712600D01*
X111093790Y-78141171D02*
X110760457Y-78141171D01*
X110617600Y-78664980D02*
X111093790Y-78664980D01*
X111093790Y-77664980D01*
X110617600Y-77664980D01*
X109427123Y-78664980D02*
X109427123Y-77664980D01*
X109046171Y-77664980D01*
X108950933Y-77712600D01*
X108903314Y-77760219D01*
X108855695Y-77855457D01*
X108855695Y-77998314D01*
X108903314Y-78093552D01*
X108950933Y-78141171D01*
X109046171Y-78188790D01*
X109427123Y-78188790D01*
X108236647Y-77664980D02*
X108046171Y-77664980D01*
X107950933Y-77712600D01*
X107855695Y-77807838D01*
X107808076Y-77998314D01*
X107808076Y-78331647D01*
X107855695Y-78522123D01*
X107950933Y-78617361D01*
X108046171Y-78664980D01*
X108236647Y-78664980D01*
X108331885Y-78617361D01*
X108427123Y-78522123D01*
X108474742Y-78331647D01*
X108474742Y-77998314D01*
X108427123Y-77807838D01*
X108331885Y-77712600D01*
X108236647Y-77664980D01*
X106903314Y-78664980D02*
X107379504Y-78664980D01*
X107379504Y-77664980D01*
X106617600Y-78379266D02*
X106141409Y-78379266D01*
X106712838Y-78664980D02*
X106379504Y-77664980D01*
X106046171Y-78664980D01*
X105141409Y-78664980D02*
X105474742Y-78188790D01*
X105712838Y-78664980D02*
X105712838Y-77664980D01*
X105331885Y-77664980D01*
X105236647Y-77712600D01*
X105189028Y-77760219D01*
X105141409Y-77855457D01*
X105141409Y-77998314D01*
X105189028Y-78093552D01*
X105236647Y-78141171D01*
X105331885Y-78188790D01*
X105712838Y-78188790D01*
X104712838Y-78664980D02*
X104712838Y-77664980D01*
X104379504Y-77664980D02*
X103808076Y-77664980D01*
X104093790Y-78664980D02*
X104093790Y-77664980D01*
X103284266Y-78188790D02*
X103284266Y-78664980D01*
X103617600Y-77664980D02*
X103284266Y-78188790D01*
X102950933Y-77664980D01*
X123331885Y-80314980D02*
X123331885Y-79314980D01*
X123093790Y-79314980D01*
X122950933Y-79362600D01*
X122855695Y-79457838D01*
X122808076Y-79553076D01*
X122760457Y-79743552D01*
X122760457Y-79886409D01*
X122808076Y-80076885D01*
X122855695Y-80172123D01*
X122950933Y-80267361D01*
X123093790Y-80314980D01*
X123331885Y-80314980D01*
X122141409Y-79314980D02*
X121950933Y-79314980D01*
X121855695Y-79362600D01*
X121760457Y-79457838D01*
X121712838Y-79648314D01*
X121712838Y-79981647D01*
X121760457Y-80172123D01*
X121855695Y-80267361D01*
X121950933Y-80314980D01*
X122141409Y-80314980D01*
X122236647Y-80267361D01*
X122331885Y-80172123D01*
X122379504Y-79981647D01*
X122379504Y-79648314D01*
X122331885Y-79457838D01*
X122236647Y-79362600D01*
X122141409Y-79314980D01*
X120522361Y-80314980D02*
X120522361Y-79314980D01*
X119950933Y-80314980D01*
X119950933Y-79314980D01*
X119284266Y-79314980D02*
X119093790Y-79314980D01*
X118998552Y-79362600D01*
X118903314Y-79457838D01*
X118855695Y-79648314D01*
X118855695Y-79981647D01*
X118903314Y-80172123D01*
X118998552Y-80267361D01*
X119093790Y-80314980D01*
X119284266Y-80314980D01*
X119379504Y-80267361D01*
X119474742Y-80172123D01*
X119522361Y-79981647D01*
X119522361Y-79648314D01*
X119474742Y-79457838D01*
X119379504Y-79362600D01*
X119284266Y-79314980D01*
X118569980Y-79314980D02*
X117998552Y-79314980D01*
X118284266Y-80314980D02*
X118284266Y-79314980D01*
X116331885Y-80219742D02*
X116379504Y-80267361D01*
X116522361Y-80314980D01*
X116617600Y-80314980D01*
X116760457Y-80267361D01*
X116855695Y-80172123D01*
X116903314Y-80076885D01*
X116950933Y-79886409D01*
X116950933Y-79743552D01*
X116903314Y-79553076D01*
X116855695Y-79457838D01*
X116760457Y-79362600D01*
X116617600Y-79314980D01*
X116522361Y-79314980D01*
X116379504Y-79362600D01*
X116331885Y-79410219D01*
X115712838Y-79314980D02*
X115522361Y-79314980D01*
X115427123Y-79362600D01*
X115331885Y-79457838D01*
X115284266Y-79648314D01*
X115284266Y-79981647D01*
X115331885Y-80172123D01*
X115427123Y-80267361D01*
X115522361Y-80314980D01*
X115712838Y-80314980D01*
X115808076Y-80267361D01*
X115903314Y-80172123D01*
X115950933Y-79981647D01*
X115950933Y-79648314D01*
X115903314Y-79457838D01*
X115808076Y-79362600D01*
X115712838Y-79314980D01*
X114855695Y-80314980D02*
X114855695Y-79314980D01*
X114284266Y-80314980D01*
X114284266Y-79314980D01*
X113808076Y-80314980D02*
X113808076Y-79314980D01*
X113236647Y-80314980D01*
X113236647Y-79314980D01*
X112760457Y-79791171D02*
X112427123Y-79791171D01*
X112284266Y-80314980D02*
X112760457Y-80314980D01*
X112760457Y-79314980D01*
X112284266Y-79314980D01*
X111284266Y-80219742D02*
X111331885Y-80267361D01*
X111474742Y-80314980D01*
X111569980Y-80314980D01*
X111712838Y-80267361D01*
X111808076Y-80172123D01*
X111855695Y-80076885D01*
X111903314Y-79886409D01*
X111903314Y-79743552D01*
X111855695Y-79553076D01*
X111808076Y-79457838D01*
X111712838Y-79362600D01*
X111569980Y-79314980D01*
X111474742Y-79314980D01*
X111331885Y-79362600D01*
X111284266Y-79410219D01*
X110998552Y-79314980D02*
X110427123Y-79314980D01*
X110712838Y-80314980D02*
X110712838Y-79314980D01*
X108760457Y-80314980D02*
X109093790Y-79838790D01*
X109331885Y-80314980D02*
X109331885Y-79314980D01*
X108950933Y-79314980D01*
X108855695Y-79362600D01*
X108808076Y-79410219D01*
X108760457Y-79505457D01*
X108760457Y-79648314D01*
X108808076Y-79743552D01*
X108855695Y-79791171D01*
X108950933Y-79838790D01*
X109331885Y-79838790D01*
X108427123Y-79314980D02*
X107760457Y-80314980D01*
X107760457Y-79314980D02*
X108427123Y-80314980D01*
X106760457Y-79648314D02*
X106379504Y-79648314D01*
X106617600Y-79314980D02*
X106617600Y-80172123D01*
X106569980Y-80267361D01*
X106474742Y-80314980D01*
X106379504Y-80314980D01*
X105903314Y-80314980D02*
X105998552Y-80267361D01*
X106046171Y-80219742D01*
X106093790Y-80124504D01*
X106093790Y-79838790D01*
X106046171Y-79743552D01*
X105998552Y-79695933D01*
X105903314Y-79648314D01*
X105760457Y-79648314D01*
X105665219Y-79695933D01*
X105617600Y-79743552D01*
X105569980Y-79838790D01*
X105569980Y-80124504D01*
X105617600Y-80219742D01*
X105665219Y-80267361D01*
X105760457Y-80314980D01*
X105903314Y-80314980D01*
X103808076Y-80314980D02*
X104141409Y-79838790D01*
X104379504Y-80314980D02*
X104379504Y-79314980D01*
X103998552Y-79314980D01*
X103903314Y-79362600D01*
X103855695Y-79410219D01*
X103808076Y-79505457D01*
X103808076Y-79648314D01*
X103855695Y-79743552D01*
X103903314Y-79791171D01*
X103998552Y-79838790D01*
X104379504Y-79838790D01*
X103474742Y-79314980D02*
X102808076Y-80314980D01*
X102808076Y-79314980D02*
X103474742Y-80314980D01*
X123093790Y-81964980D02*
X123093790Y-80964980D01*
X122855695Y-80964980D01*
X122712838Y-81012600D01*
X122617600Y-81107838D01*
X122569980Y-81203076D01*
X122522361Y-81393552D01*
X122522361Y-81536409D01*
X122569980Y-81726885D01*
X122617600Y-81822123D01*
X122712838Y-81917361D01*
X122855695Y-81964980D01*
X123093790Y-81964980D01*
X121903314Y-80964980D02*
X121712838Y-80964980D01*
X121617600Y-81012600D01*
X121522361Y-81107838D01*
X121474742Y-81298314D01*
X121474742Y-81631647D01*
X121522361Y-81822123D01*
X121617600Y-81917361D01*
X121712838Y-81964980D01*
X121903314Y-81964980D01*
X121998552Y-81917361D01*
X122093790Y-81822123D01*
X122141409Y-81631647D01*
X122141409Y-81298314D01*
X122093790Y-81107838D01*
X121998552Y-81012600D01*
X121903314Y-80964980D01*
X120284266Y-81964980D02*
X120284266Y-80964980D01*
X119712838Y-81964980D01*
X119712838Y-80964980D01*
X119046171Y-80964980D02*
X118855695Y-80964980D01*
X118760457Y-81012600D01*
X118665219Y-81107838D01*
X118617600Y-81298314D01*
X118617600Y-81631647D01*
X118665219Y-81822123D01*
X118760457Y-81917361D01*
X118855695Y-81964980D01*
X119046171Y-81964980D01*
X119141409Y-81917361D01*
X119236647Y-81822123D01*
X119284266Y-81631647D01*
X119284266Y-81298314D01*
X119236647Y-81107838D01*
X119141409Y-81012600D01*
X119046171Y-80964980D01*
X118331885Y-80964980D02*
X117760457Y-80964980D01*
X118046171Y-81964980D02*
X118046171Y-80964980D01*
X116093790Y-81869742D02*
X116141409Y-81917361D01*
X116284266Y-81964980D01*
X116379504Y-81964980D01*
X116522361Y-81917361D01*
X116617600Y-81822123D01*
X116665219Y-81726885D01*
X116712838Y-81536409D01*
X116712838Y-81393552D01*
X116665219Y-81203076D01*
X116617600Y-81107838D01*
X116522361Y-81012600D01*
X116379504Y-80964980D01*
X116284266Y-80964980D01*
X116141409Y-81012600D01*
X116093790Y-81060219D01*
X115474742Y-80964980D02*
X115284266Y-80964980D01*
X115189028Y-81012600D01*
X115093790Y-81107838D01*
X115046171Y-81298314D01*
X115046171Y-81631647D01*
X115093790Y-81822123D01*
X115189028Y-81917361D01*
X115284266Y-81964980D01*
X115474742Y-81964980D01*
X115569980Y-81917361D01*
X115665219Y-81822123D01*
X115712838Y-81631647D01*
X115712838Y-81298314D01*
X115665219Y-81107838D01*
X115569980Y-81012600D01*
X115474742Y-80964980D01*
X114617600Y-81964980D02*
X114617600Y-80964980D01*
X114046171Y-81964980D01*
X114046171Y-80964980D01*
X113569980Y-81964980D02*
X113569980Y-80964980D01*
X112998552Y-81964980D01*
X112998552Y-80964980D01*
X112522361Y-81441171D02*
X112189028Y-81441171D01*
X112046171Y-81964980D02*
X112522361Y-81964980D01*
X112522361Y-80964980D01*
X112046171Y-80964980D01*
X111046171Y-81869742D02*
X111093790Y-81917361D01*
X111236647Y-81964980D01*
X111331885Y-81964980D01*
X111474742Y-81917361D01*
X111569980Y-81822123D01*
X111617600Y-81726885D01*
X111665219Y-81536409D01*
X111665219Y-81393552D01*
X111617600Y-81203076D01*
X111569980Y-81107838D01*
X111474742Y-81012600D01*
X111331885Y-80964980D01*
X111236647Y-80964980D01*
X111093790Y-81012600D01*
X111046171Y-81060219D01*
X110760457Y-80964980D02*
X110189028Y-80964980D01*
X110474742Y-81964980D02*
X110474742Y-80964980D01*
X109236647Y-80964980D02*
X108665219Y-80964980D01*
X108950933Y-81964980D02*
X108950933Y-80964980D01*
X108427123Y-80964980D02*
X107760457Y-81964980D01*
X107760457Y-80964980D02*
X108427123Y-81964980D01*
X106760457Y-81298314D02*
X106379504Y-81298314D01*
X106617600Y-80964980D02*
X106617600Y-81822123D01*
X106569980Y-81917361D01*
X106474742Y-81964980D01*
X106379504Y-81964980D01*
X105903314Y-81964980D02*
X105998552Y-81917361D01*
X106046171Y-81869742D01*
X106093790Y-81774504D01*
X106093790Y-81488790D01*
X106046171Y-81393552D01*
X105998552Y-81345933D01*
X105903314Y-81298314D01*
X105760457Y-81298314D01*
X105665219Y-81345933D01*
X105617600Y-81393552D01*
X105569980Y-81488790D01*
X105569980Y-81774504D01*
X105617600Y-81869742D01*
X105665219Y-81917361D01*
X105760457Y-81964980D01*
X105903314Y-81964980D01*
X104522361Y-80964980D02*
X103950933Y-80964980D01*
X104236647Y-81964980D02*
X104236647Y-80964980D01*
X103712838Y-80964980D02*
X103046171Y-81964980D01*
X103046171Y-80964980D02*
X103712838Y-81964980D01*
D13*
X124226171Y-48606171D02*
X124083314Y-48606171D01*
X123940457Y-48677600D01*
X123869028Y-48749028D01*
X123797600Y-48891885D01*
X123726171Y-49177600D01*
X123726171Y-49534742D01*
X123797600Y-49820457D01*
X123869028Y-49963314D01*
X123940457Y-50034742D01*
X124083314Y-50106171D01*
X124226171Y-50106171D01*
X124369028Y-50034742D01*
X124440457Y-49963314D01*
X124511885Y-49820457D01*
X124583314Y-49534742D01*
X124583314Y-49177600D01*
X124511885Y-48891885D01*
X124440457Y-48749028D01*
X124369028Y-48677600D01*
X124226171Y-48606171D01*
X123011885Y-50106171D02*
X122726171Y-50106171D01*
X122583314Y-50034742D01*
X122511885Y-49963314D01*
X122369028Y-49749028D01*
X122297600Y-49463314D01*
X122297600Y-48891885D01*
X122369028Y-48749028D01*
X122440457Y-48677600D01*
X122583314Y-48606171D01*
X122869028Y-48606171D01*
X123011885Y-48677600D01*
X123083314Y-48749028D01*
X123154742Y-48891885D01*
X123154742Y-49249028D01*
X123083314Y-49391885D01*
X123011885Y-49463314D01*
X122869028Y-49534742D01*
X122583314Y-49534742D01*
X122440457Y-49463314D01*
X122369028Y-49391885D01*
X122297600Y-49249028D01*
X120511885Y-50106171D02*
X120511885Y-48606171D01*
X120011885Y-49677600D01*
X119511885Y-48606171D01*
X119511885Y-50106171D01*
X118154742Y-50106171D02*
X118154742Y-49320457D01*
X118226171Y-49177600D01*
X118369028Y-49106171D01*
X118654742Y-49106171D01*
X118797600Y-49177600D01*
X118154742Y-50034742D02*
X118297600Y-50106171D01*
X118654742Y-50106171D01*
X118797600Y-50034742D01*
X118869028Y-49891885D01*
X118869028Y-49749028D01*
X118797600Y-49606171D01*
X118654742Y-49534742D01*
X118297600Y-49534742D01*
X118154742Y-49463314D01*
X117583314Y-49106171D02*
X117226171Y-50106171D01*
X116869028Y-49106171D02*
X117226171Y-50106171D01*
X117369028Y-50463314D01*
X117440457Y-50534742D01*
X117583314Y-50606171D01*
X115226171Y-48749028D02*
X115154742Y-48677600D01*
X115011885Y-48606171D01*
X114654742Y-48606171D01*
X114511885Y-48677600D01*
X114440457Y-48749028D01*
X114369028Y-48891885D01*
X114369028Y-49034742D01*
X114440457Y-49249028D01*
X115297600Y-50106171D01*
X114369028Y-50106171D01*
X113440457Y-48606171D02*
X113297600Y-48606171D01*
X113154742Y-48677600D01*
X113083314Y-48749028D01*
X113011885Y-48891885D01*
X112940457Y-49177600D01*
X112940457Y-49534742D01*
X113011885Y-49820457D01*
X113083314Y-49963314D01*
X113154742Y-50034742D01*
X113297600Y-50106171D01*
X113440457Y-50106171D01*
X113583314Y-50034742D01*
X113654742Y-49963314D01*
X113726171Y-49820457D01*
X113797600Y-49534742D01*
X113797600Y-49177600D01*
X113726171Y-48891885D01*
X113654742Y-48749028D01*
X113583314Y-48677600D01*
X113440457Y-48606171D01*
X112369028Y-48749028D02*
X112297600Y-48677600D01*
X112154742Y-48606171D01*
X111797600Y-48606171D01*
X111654742Y-48677600D01*
X111583314Y-48749028D01*
X111511885Y-48891885D01*
X111511885Y-49034742D01*
X111583314Y-49249028D01*
X112440457Y-50106171D01*
X111511885Y-50106171D01*
X110083314Y-50106171D02*
X110940457Y-50106171D01*
X110511885Y-50106171D02*
X110511885Y-48606171D01*
X110654742Y-48820457D01*
X110797600Y-48963314D01*
X110940457Y-49034742D01*
D10*
X126981885Y-108216171D02*
X126981885Y-106716171D01*
X126410457Y-106716171D01*
X126267600Y-106787600D01*
X126196171Y-106859028D01*
X126124742Y-107001885D01*
X126124742Y-107216171D01*
X126196171Y-107359028D01*
X126267600Y-107430457D01*
X126410457Y-107501885D01*
X126981885Y-107501885D01*
X125196171Y-106716171D02*
X124910457Y-106716171D01*
X124767600Y-106787600D01*
X124624742Y-106930457D01*
X124553314Y-107216171D01*
X124553314Y-107716171D01*
X124624742Y-108001885D01*
X124767600Y-108144742D01*
X124910457Y-108216171D01*
X125196171Y-108216171D01*
X125339028Y-108144742D01*
X125481885Y-108001885D01*
X125553314Y-107716171D01*
X125553314Y-107216171D01*
X125481885Y-106930457D01*
X125339028Y-106787600D01*
X125196171Y-106716171D01*
X124053314Y-106716171D02*
X123696171Y-108216171D01*
X123410457Y-107144742D01*
X123124742Y-108216171D01*
X122767600Y-106716171D01*
X122196171Y-107430457D02*
X121696171Y-107430457D01*
X121481885Y-108216171D02*
X122196171Y-108216171D01*
X122196171Y-106716171D01*
X121481885Y-106716171D01*
X119981885Y-108216171D02*
X120481885Y-107501885D01*
X120839028Y-108216171D02*
X120839028Y-106716171D01*
X120267600Y-106716171D01*
X120124742Y-106787600D01*
X120053314Y-106859028D01*
X119981885Y-107001885D01*
X119981885Y-107216171D01*
X120053314Y-107359028D01*
X120124742Y-107430457D01*
X120267600Y-107501885D01*
X120839028Y-107501885D01*
D13*
X124610457Y-55801885D02*
X125581885Y-55801885D01*
X125696171Y-55744742D01*
X125753314Y-55687600D01*
X125810457Y-55573314D01*
X125810457Y-55401885D01*
X125753314Y-55287600D01*
X125353314Y-55801885D02*
X125410457Y-55687600D01*
X125410457Y-55459028D01*
X125353314Y-55344742D01*
X125296171Y-55287600D01*
X125181885Y-55230457D01*
X124839028Y-55230457D01*
X124724742Y-55287600D01*
X124667600Y-55344742D01*
X124610457Y-55459028D01*
X124610457Y-55687600D01*
X124667600Y-55801885D01*
X125410457Y-56373314D02*
X124610457Y-56373314D01*
X124210457Y-56373314D02*
X124267600Y-56316171D01*
X124324742Y-56373314D01*
X124267600Y-56430457D01*
X124210457Y-56373314D01*
X124324742Y-56373314D01*
X124610457Y-56773314D02*
X124610457Y-57230457D01*
X124210457Y-56944742D02*
X125239028Y-56944742D01*
X125353314Y-57001885D01*
X125410457Y-57116171D01*
X125410457Y-57230457D01*
X125410457Y-57630457D02*
X124210457Y-57630457D01*
X125410457Y-58144742D02*
X124781885Y-58144742D01*
X124667600Y-58087600D01*
X124610457Y-57973314D01*
X124610457Y-57801885D01*
X124667600Y-57687600D01*
X124724742Y-57630457D01*
X124610457Y-59230457D02*
X125410457Y-59230457D01*
X124610457Y-58716171D02*
X125239028Y-58716171D01*
X125353314Y-58773314D01*
X125410457Y-58887600D01*
X125410457Y-59059028D01*
X125353314Y-59173314D01*
X125296171Y-59230457D01*
X125410457Y-59801885D02*
X124210457Y-59801885D01*
X124667600Y-59801885D02*
X124610457Y-59916171D01*
X124610457Y-60144742D01*
X124667600Y-60259028D01*
X124724742Y-60316171D01*
X124839028Y-60373314D01*
X125181885Y-60373314D01*
X125296171Y-60316171D01*
X125353314Y-60259028D01*
X125410457Y-60144742D01*
X125410457Y-59916171D01*
X125353314Y-59801885D01*
X125296171Y-60887600D02*
X125353314Y-60944742D01*
X125410457Y-60887600D01*
X125353314Y-60830457D01*
X125296171Y-60887600D01*
X125410457Y-60887600D01*
X125353314Y-61973314D02*
X125410457Y-61859028D01*
X125410457Y-61630457D01*
X125353314Y-61516171D01*
X125296171Y-61459028D01*
X125181885Y-61401885D01*
X124839028Y-61401885D01*
X124724742Y-61459028D01*
X124667600Y-61516171D01*
X124610457Y-61630457D01*
X124610457Y-61859028D01*
X124667600Y-61973314D01*
X125410457Y-62659028D02*
X125353314Y-62544742D01*
X125296171Y-62487600D01*
X125181885Y-62430457D01*
X124839028Y-62430457D01*
X124724742Y-62487600D01*
X124667600Y-62544742D01*
X124610457Y-62659028D01*
X124610457Y-62830457D01*
X124667600Y-62944742D01*
X124724742Y-63001885D01*
X124839028Y-63059028D01*
X125181885Y-63059028D01*
X125296171Y-63001885D01*
X125353314Y-62944742D01*
X125410457Y-62830457D01*
X125410457Y-62659028D01*
X125410457Y-63573314D02*
X124610457Y-63573314D01*
X124724742Y-63573314D02*
X124667600Y-63630457D01*
X124610457Y-63744742D01*
X124610457Y-63916171D01*
X124667600Y-64030457D01*
X124781885Y-64087600D01*
X125410457Y-64087600D01*
X124781885Y-64087600D02*
X124667600Y-64144742D01*
X124610457Y-64259028D01*
X124610457Y-64430457D01*
X124667600Y-64544742D01*
X124781885Y-64601885D01*
X125410457Y-64601885D01*
X124153314Y-66030457D02*
X125696171Y-65001885D01*
X125353314Y-66373314D02*
X125410457Y-66487600D01*
X125410457Y-66716171D01*
X125353314Y-66830457D01*
X125239028Y-66887600D01*
X125181885Y-66887600D01*
X125067600Y-66830457D01*
X125010457Y-66716171D01*
X125010457Y-66544742D01*
X124953314Y-66430457D01*
X124839028Y-66373314D01*
X124781885Y-66373314D01*
X124667600Y-66430457D01*
X124610457Y-66544742D01*
X124610457Y-66716171D01*
X124667600Y-66830457D01*
X124610457Y-67230457D02*
X124610457Y-67687600D01*
X124210457Y-67401885D02*
X125239028Y-67401885D01*
X125353314Y-67459028D01*
X125410457Y-67573314D01*
X125410457Y-67687600D01*
X124610457Y-68601885D02*
X125410457Y-68601885D01*
X124610457Y-68087600D02*
X125239028Y-68087600D01*
X125353314Y-68144742D01*
X125410457Y-68259028D01*
X125410457Y-68430457D01*
X125353314Y-68544742D01*
X125296171Y-68601885D01*
X125410457Y-69687600D02*
X124781885Y-69687600D01*
X124667600Y-69630457D01*
X124610457Y-69516171D01*
X124610457Y-69287600D01*
X124667600Y-69173314D01*
X125353314Y-69687600D02*
X125410457Y-69573314D01*
X125410457Y-69287600D01*
X125353314Y-69173314D01*
X125239028Y-69116171D01*
X125124742Y-69116171D01*
X125010457Y-69173314D01*
X124953314Y-69287600D01*
X124953314Y-69573314D01*
X124896171Y-69687600D01*
X125410457Y-70259028D02*
X124610457Y-70259028D01*
X124839028Y-70259028D02*
X124724742Y-70316171D01*
X124667600Y-70373314D01*
X124610457Y-70487600D01*
X124610457Y-70601885D01*
X124610457Y-70830457D02*
X124610457Y-71287600D01*
X124210457Y-71001885D02*
X125239028Y-71001885D01*
X125353314Y-71059028D01*
X125410457Y-71173314D01*
X125410457Y-71287600D01*
X124610457Y-71687600D02*
X125810457Y-71687600D01*
X124667600Y-71687600D02*
X124610457Y-71801885D01*
X124610457Y-72030457D01*
X124667600Y-72144742D01*
X124724742Y-72201885D01*
X124839028Y-72259028D01*
X125181885Y-72259028D01*
X125296171Y-72201885D01*
X125353314Y-72144742D01*
X125410457Y-72030457D01*
X125410457Y-71801885D01*
X125353314Y-71687600D01*
X125410457Y-72773314D02*
X124610457Y-72773314D01*
X124210457Y-72773314D02*
X124267600Y-72716171D01*
X124324742Y-72773314D01*
X124267600Y-72830457D01*
X124210457Y-72773314D01*
X124324742Y-72773314D01*
X124610457Y-73173314D02*
X124610457Y-73630457D01*
X124210457Y-73344742D02*
X125239028Y-73344742D01*
X125353314Y-73401885D01*
X125410457Y-73516171D01*
X125410457Y-73630457D01*
X124610457Y-73859028D02*
X124610457Y-74316171D01*
X124210457Y-74030457D02*
X125239028Y-74030457D01*
X125353314Y-74087600D01*
X125410457Y-74201885D01*
X125410457Y-74316171D01*
X125410457Y-75230457D02*
X124781885Y-75230457D01*
X124667600Y-75173314D01*
X124610457Y-75059028D01*
X124610457Y-74830457D01*
X124667600Y-74716171D01*
X125353314Y-75230457D02*
X125410457Y-75116171D01*
X125410457Y-74830457D01*
X125353314Y-74716171D01*
X125239028Y-74659028D01*
X125124742Y-74659028D01*
X125010457Y-74716171D01*
X124953314Y-74830457D01*
X124953314Y-75116171D01*
X124896171Y-75230457D01*
X124610457Y-75687600D02*
X125410457Y-75916171D01*
X124839028Y-76144742D01*
X125410457Y-76373314D01*
X124610457Y-76601885D01*
X125410457Y-77573314D02*
X124781885Y-77573314D01*
X124667600Y-77516171D01*
X124610457Y-77401885D01*
X124610457Y-77173314D01*
X124667600Y-77059028D01*
X125353314Y-77573314D02*
X125410457Y-77459028D01*
X125410457Y-77173314D01*
X125353314Y-77059028D01*
X125239028Y-77001885D01*
X125124742Y-77001885D01*
X125010457Y-77059028D01*
X124953314Y-77173314D01*
X124953314Y-77459028D01*
X124896171Y-77573314D01*
X124610457Y-78030457D02*
X125410457Y-78316171D01*
X124610457Y-78601885D02*
X125410457Y-78316171D01*
X125696171Y-78201885D01*
X125753314Y-78144742D01*
X125810457Y-78030457D01*
X124153314Y-79916171D02*
X125696171Y-78887600D01*
X125410457Y-80830457D02*
X124210457Y-80830457D01*
X125353314Y-80830457D02*
X125410457Y-80716171D01*
X125410457Y-80487600D01*
X125353314Y-80373314D01*
X125296171Y-80316171D01*
X125181885Y-80259028D01*
X124839028Y-80259028D01*
X124724742Y-80316171D01*
X124667600Y-80373314D01*
X124610457Y-80487600D01*
X124610457Y-80716171D01*
X124667600Y-80830457D01*
X125410457Y-81401885D02*
X124610457Y-81401885D01*
X124210457Y-81401885D02*
X124267600Y-81344742D01*
X124324742Y-81401885D01*
X124267600Y-81459028D01*
X124210457Y-81401885D01*
X124324742Y-81401885D01*
X124610457Y-81859028D02*
X125410457Y-82144742D01*
X124610457Y-82430457D02*
X125410457Y-82144742D01*
X125696171Y-82030457D01*
X125753314Y-81973314D01*
X125810457Y-81859028D01*
X124781885Y-83287600D02*
X124839028Y-83459028D01*
X124896171Y-83516171D01*
X125010457Y-83573314D01*
X125181885Y-83573314D01*
X125296171Y-83516171D01*
X125353314Y-83459028D01*
X125410457Y-83344742D01*
X125410457Y-82887600D01*
X124210457Y-82887600D01*
X124210457Y-83287600D01*
X124267600Y-83401885D01*
X124324742Y-83459028D01*
X124439028Y-83516171D01*
X124553314Y-83516171D01*
X124667600Y-83459028D01*
X124724742Y-83401885D01*
X124781885Y-83287600D01*
X124781885Y-82887600D01*
X125410457Y-84087600D02*
X124210457Y-84087600D01*
X125067600Y-84487600D01*
X124210457Y-84887600D01*
X125410457Y-84887600D01*
X125353314Y-85401885D02*
X125410457Y-85573314D01*
X125410457Y-85859028D01*
X125353314Y-85973314D01*
X125296171Y-86030457D01*
X125181885Y-86087600D01*
X125067600Y-86087600D01*
X124953314Y-86030457D01*
X124896171Y-85973314D01*
X124839028Y-85859028D01*
X124781885Y-85630457D01*
X124724742Y-85516171D01*
X124667600Y-85459028D01*
X124553314Y-85401885D01*
X124439028Y-85401885D01*
X124324742Y-85459028D01*
X124267600Y-85516171D01*
X124210457Y-85630457D01*
X124210457Y-85916171D01*
X124267600Y-86087600D01*
X124610457Y-86487600D02*
X125410457Y-86773314D01*
X124610457Y-87059028D01*
X124610457Y-88030457D02*
X125410457Y-88030457D01*
X124153314Y-87744742D02*
X125010457Y-87459028D01*
X125010457Y-88201885D01*
M02*
