G04 #@! TF.GenerationSoftware,KiCad,Pcbnew,5.1.9+dfsg1-1+deb11u1*
G04 #@! TF.CreationDate,2025-04-18T11:55:34+00:00*
G04 #@! TF.ProjectId,ModuleV440,4d6f6475-6c65-4563-9434-302e6b696361,rev?*
G04 #@! TF.SameCoordinates,Original*
G04 #@! TF.FileFunction,Copper,L1,Top*
G04 #@! TF.FilePolarity,Positive*
%FSLAX46Y46*%
G04 Gerber Fmt 4.6, Leading zero omitted, Abs format (unit mm)*
G04 Created by KiCad (PCBNEW 5.1.9+dfsg1-1+deb11u1) date 2025-04-18 11:55:34*
%MOMM*%
%LPD*%
G01*
G04 APERTURE LIST*
G04 #@! TA.AperFunction,ComponentPad*
%ADD10O,1.200000X1.750000*%
G04 #@! TD*
G04 #@! TA.AperFunction,ComponentPad*
%ADD11O,1.700000X1.700000*%
G04 #@! TD*
G04 #@! TA.AperFunction,ComponentPad*
%ADD12R,1.700000X1.700000*%
G04 #@! TD*
G04 #@! TA.AperFunction,SMDPad,CuDef*
%ADD13R,2.500000X2.300000*%
G04 #@! TD*
G04 #@! TA.AperFunction,SMDPad,CuDef*
%ADD14R,0.800000X0.900000*%
G04 #@! TD*
G04 #@! TA.AperFunction,SMDPad,CuDef*
%ADD15R,2.000000X2.400000*%
G04 #@! TD*
G04 #@! TA.AperFunction,ViaPad*
%ADD16C,1.000000*%
G04 #@! TD*
G04 #@! TA.AperFunction,ViaPad*
%ADD17C,0.800000*%
G04 #@! TD*
G04 #@! TA.AperFunction,Conductor*
%ADD18C,0.300000*%
G04 #@! TD*
G04 #@! TA.AperFunction,Conductor*
%ADD19C,0.500000*%
G04 #@! TD*
G04 #@! TA.AperFunction,Conductor*
%ADD20C,1.500000*%
G04 #@! TD*
G04 #@! TA.AperFunction,Conductor*
%ADD21C,1.000000*%
G04 #@! TD*
G04 #@! TA.AperFunction,Conductor*
%ADD22C,0.250000*%
G04 #@! TD*
G04 #@! TA.AperFunction,Conductor*
%ADD23C,1.250000*%
G04 #@! TD*
G04 #@! TA.AperFunction,Conductor*
%ADD24C,0.254000*%
G04 #@! TD*
G04 #@! TA.AperFunction,Conductor*
%ADD25C,0.100000*%
G04 #@! TD*
G04 APERTURE END LIST*
G04 #@! TA.AperFunction,SMDPad,CuDef*
G36*
G01*
X119967600Y-77012600D02*
X119967600Y-79162600D01*
G75*
G02*
X119717600Y-79412600I-250000J0D01*
G01*
X118992600Y-79412600D01*
G75*
G02*
X118742600Y-79162600I0J250000D01*
G01*
X118742600Y-77012600D01*
G75*
G02*
X118992600Y-76762600I250000J0D01*
G01*
X119717600Y-76762600D01*
G75*
G02*
X119967600Y-77012600I0J-250000D01*
G01*
G37*
G04 #@! TD.AperFunction*
G04 #@! TA.AperFunction,SMDPad,CuDef*
G36*
G01*
X124592600Y-77012600D02*
X124592600Y-79162600D01*
G75*
G02*
X124342600Y-79412600I-250000J0D01*
G01*
X123617600Y-79412600D01*
G75*
G02*
X123367600Y-79162600I0J250000D01*
G01*
X123367600Y-77012600D01*
G75*
G02*
X123617600Y-76762600I250000J0D01*
G01*
X124342600Y-76762600D01*
G75*
G02*
X124592600Y-77012600I0J-250000D01*
G01*
G37*
G04 #@! TD.AperFunction*
G04 #@! TA.AperFunction,SMDPad,CuDef*
G36*
G01*
X116317600Y-79112600D02*
X116317600Y-76962600D01*
G75*
G02*
X116567600Y-76712600I250000J0D01*
G01*
X117292600Y-76712600D01*
G75*
G02*
X117542600Y-76962600I0J-250000D01*
G01*
X117542600Y-79112600D01*
G75*
G02*
X117292600Y-79362600I-250000J0D01*
G01*
X116567600Y-79362600D01*
G75*
G02*
X116317600Y-79112600I0J250000D01*
G01*
G37*
G04 #@! TD.AperFunction*
G04 #@! TA.AperFunction,SMDPad,CuDef*
G36*
G01*
X111692600Y-79112600D02*
X111692600Y-76962600D01*
G75*
G02*
X111942600Y-76712600I250000J0D01*
G01*
X112667600Y-76712600D01*
G75*
G02*
X112917600Y-76962600I0J-250000D01*
G01*
X112917600Y-79112600D01*
G75*
G02*
X112667600Y-79362600I-250000J0D01*
G01*
X111942600Y-79362600D01*
G75*
G02*
X111692600Y-79112600I0J250000D01*
G01*
G37*
G04 #@! TD.AperFunction*
G04 #@! TA.AperFunction,SMDPad,CuDef*
G36*
G01*
X123367600Y-84687600D02*
X123367600Y-82537600D01*
G75*
G02*
X123617600Y-82287600I250000J0D01*
G01*
X124342600Y-82287600D01*
G75*
G02*
X124592600Y-82537600I0J-250000D01*
G01*
X124592600Y-84687600D01*
G75*
G02*
X124342600Y-84937600I-250000J0D01*
G01*
X123617600Y-84937600D01*
G75*
G02*
X123367600Y-84687600I0J250000D01*
G01*
G37*
G04 #@! TD.AperFunction*
G04 #@! TA.AperFunction,SMDPad,CuDef*
G36*
G01*
X118742600Y-84687600D02*
X118742600Y-82537600D01*
G75*
G02*
X118992600Y-82287600I250000J0D01*
G01*
X119717600Y-82287600D01*
G75*
G02*
X119967600Y-82537600I0J-250000D01*
G01*
X119967600Y-84687600D01*
G75*
G02*
X119717600Y-84937600I-250000J0D01*
G01*
X118992600Y-84937600D01*
G75*
G02*
X118742600Y-84687600I0J250000D01*
G01*
G37*
G04 #@! TD.AperFunction*
G04 #@! TA.AperFunction,SMDPad,CuDef*
G36*
G01*
X112917600Y-82537600D02*
X112917600Y-84687600D01*
G75*
G02*
X112667600Y-84937600I-250000J0D01*
G01*
X111942600Y-84937600D01*
G75*
G02*
X111692600Y-84687600I0J250000D01*
G01*
X111692600Y-82537600D01*
G75*
G02*
X111942600Y-82287600I250000J0D01*
G01*
X112667600Y-82287600D01*
G75*
G02*
X112917600Y-82537600I0J-250000D01*
G01*
G37*
G04 #@! TD.AperFunction*
G04 #@! TA.AperFunction,SMDPad,CuDef*
G36*
G01*
X117542600Y-82537600D02*
X117542600Y-84687600D01*
G75*
G02*
X117292600Y-84937600I-250000J0D01*
G01*
X116567600Y-84937600D01*
G75*
G02*
X116317600Y-84687600I0J250000D01*
G01*
X116317600Y-82537600D01*
G75*
G02*
X116567600Y-82287600I250000J0D01*
G01*
X117292600Y-82287600D01*
G75*
G02*
X117542600Y-82537600I0J-250000D01*
G01*
G37*
G04 #@! TD.AperFunction*
G04 #@! TA.AperFunction,SMDPad,CuDef*
G36*
G01*
X120017600Y-88112600D02*
X120017600Y-90262600D01*
G75*
G02*
X119767600Y-90512600I-250000J0D01*
G01*
X119042600Y-90512600D01*
G75*
G02*
X118792600Y-90262600I0J250000D01*
G01*
X118792600Y-88112600D01*
G75*
G02*
X119042600Y-87862600I250000J0D01*
G01*
X119767600Y-87862600D01*
G75*
G02*
X120017600Y-88112600I0J-250000D01*
G01*
G37*
G04 #@! TD.AperFunction*
G04 #@! TA.AperFunction,SMDPad,CuDef*
G36*
G01*
X124642600Y-88112600D02*
X124642600Y-90262600D01*
G75*
G02*
X124392600Y-90512600I-250000J0D01*
G01*
X123667600Y-90512600D01*
G75*
G02*
X123417600Y-90262600I0J250000D01*
G01*
X123417600Y-88112600D01*
G75*
G02*
X123667600Y-87862600I250000J0D01*
G01*
X124392600Y-87862600D01*
G75*
G02*
X124642600Y-88112600I0J-250000D01*
G01*
G37*
G04 #@! TD.AperFunction*
G04 #@! TA.AperFunction,SMDPad,CuDef*
G36*
G01*
X116342600Y-90262600D02*
X116342600Y-88112600D01*
G75*
G02*
X116592600Y-87862600I250000J0D01*
G01*
X117317600Y-87862600D01*
G75*
G02*
X117567600Y-88112600I0J-250000D01*
G01*
X117567600Y-90262600D01*
G75*
G02*
X117317600Y-90512600I-250000J0D01*
G01*
X116592600Y-90512600D01*
G75*
G02*
X116342600Y-90262600I0J250000D01*
G01*
G37*
G04 #@! TD.AperFunction*
G04 #@! TA.AperFunction,SMDPad,CuDef*
G36*
G01*
X111717600Y-90262600D02*
X111717600Y-88112600D01*
G75*
G02*
X111967600Y-87862600I250000J0D01*
G01*
X112692600Y-87862600D01*
G75*
G02*
X112942600Y-88112600I0J-250000D01*
G01*
X112942600Y-90262600D01*
G75*
G02*
X112692600Y-90512600I-250000J0D01*
G01*
X111967600Y-90512600D01*
G75*
G02*
X111717600Y-90262600I0J250000D01*
G01*
G37*
G04 #@! TD.AperFunction*
G04 #@! TA.AperFunction,SMDPad,CuDef*
G36*
G01*
X105867600Y-76962600D02*
X105867600Y-79112600D01*
G75*
G02*
X105617600Y-79362600I-250000J0D01*
G01*
X104892600Y-79362600D01*
G75*
G02*
X104642600Y-79112600I0J250000D01*
G01*
X104642600Y-76962600D01*
G75*
G02*
X104892600Y-76712600I250000J0D01*
G01*
X105617600Y-76712600D01*
G75*
G02*
X105867600Y-76962600I0J-250000D01*
G01*
G37*
G04 #@! TD.AperFunction*
G04 #@! TA.AperFunction,SMDPad,CuDef*
G36*
G01*
X110492600Y-76962600D02*
X110492600Y-79112600D01*
G75*
G02*
X110242600Y-79362600I-250000J0D01*
G01*
X109517600Y-79362600D01*
G75*
G02*
X109267600Y-79112600I0J250000D01*
G01*
X109267600Y-76962600D01*
G75*
G02*
X109517600Y-76712600I250000J0D01*
G01*
X110242600Y-76712600D01*
G75*
G02*
X110492600Y-76962600I0J-250000D01*
G01*
G37*
G04 #@! TD.AperFunction*
G04 #@! TA.AperFunction,SMDPad,CuDef*
G36*
G01*
X109267600Y-84687600D02*
X109267600Y-82537600D01*
G75*
G02*
X109517600Y-82287600I250000J0D01*
G01*
X110242600Y-82287600D01*
G75*
G02*
X110492600Y-82537600I0J-250000D01*
G01*
X110492600Y-84687600D01*
G75*
G02*
X110242600Y-84937600I-250000J0D01*
G01*
X109517600Y-84937600D01*
G75*
G02*
X109267600Y-84687600I0J250000D01*
G01*
G37*
G04 #@! TD.AperFunction*
G04 #@! TA.AperFunction,SMDPad,CuDef*
G36*
G01*
X104642600Y-84687600D02*
X104642600Y-82537600D01*
G75*
G02*
X104892600Y-82287600I250000J0D01*
G01*
X105617600Y-82287600D01*
G75*
G02*
X105867600Y-82537600I0J-250000D01*
G01*
X105867600Y-84687600D01*
G75*
G02*
X105617600Y-84937600I-250000J0D01*
G01*
X104892600Y-84937600D01*
G75*
G02*
X104642600Y-84687600I0J250000D01*
G01*
G37*
G04 #@! TD.AperFunction*
G04 #@! TA.AperFunction,SMDPad,CuDef*
G36*
G01*
X105867600Y-88112600D02*
X105867600Y-90262600D01*
G75*
G02*
X105617600Y-90512600I-250000J0D01*
G01*
X104892600Y-90512600D01*
G75*
G02*
X104642600Y-90262600I0J250000D01*
G01*
X104642600Y-88112600D01*
G75*
G02*
X104892600Y-87862600I250000J0D01*
G01*
X105617600Y-87862600D01*
G75*
G02*
X105867600Y-88112600I0J-250000D01*
G01*
G37*
G04 #@! TD.AperFunction*
G04 #@! TA.AperFunction,SMDPad,CuDef*
G36*
G01*
X110492600Y-88112600D02*
X110492600Y-90262600D01*
G75*
G02*
X110242600Y-90512600I-250000J0D01*
G01*
X109517600Y-90512600D01*
G75*
G02*
X109267600Y-90262600I0J250000D01*
G01*
X109267600Y-88112600D01*
G75*
G02*
X109517600Y-87862600I250000J0D01*
G01*
X110242600Y-87862600D01*
G75*
G02*
X110492600Y-88112600I0J-250000D01*
G01*
G37*
G04 #@! TD.AperFunction*
G04 #@! TA.AperFunction,SMDPad,CuDef*
G36*
G01*
X116457600Y-50012600D02*
X116157600Y-50012600D01*
G75*
G02*
X116007600Y-49862600I0J150000D01*
G01*
X116007600Y-48537600D01*
G75*
G02*
X116157600Y-48387600I150000J0D01*
G01*
X116457600Y-48387600D01*
G75*
G02*
X116607600Y-48537600I0J-150000D01*
G01*
X116607600Y-49862600D01*
G75*
G02*
X116457600Y-50012600I-150000J0D01*
G01*
G37*
G04 #@! TD.AperFunction*
G04 #@! TA.AperFunction,SMDPad,CuDef*
G36*
G01*
X117727600Y-50012600D02*
X117427600Y-50012600D01*
G75*
G02*
X117277600Y-49862600I0J150000D01*
G01*
X117277600Y-48537600D01*
G75*
G02*
X117427600Y-48387600I150000J0D01*
G01*
X117727600Y-48387600D01*
G75*
G02*
X117877600Y-48537600I0J-150000D01*
G01*
X117877600Y-49862600D01*
G75*
G02*
X117727600Y-50012600I-150000J0D01*
G01*
G37*
G04 #@! TD.AperFunction*
G04 #@! TA.AperFunction,SMDPad,CuDef*
G36*
G01*
X117727600Y-56387600D02*
X117427600Y-56387600D01*
G75*
G02*
X117277600Y-56237600I0J150000D01*
G01*
X117277600Y-54912600D01*
G75*
G02*
X117427600Y-54762600I150000J0D01*
G01*
X117727600Y-54762600D01*
G75*
G02*
X117877600Y-54912600I0J-150000D01*
G01*
X117877600Y-56237600D01*
G75*
G02*
X117727600Y-56387600I-150000J0D01*
G01*
G37*
G04 #@! TD.AperFunction*
G04 #@! TA.AperFunction,SMDPad,CuDef*
G36*
G01*
X116457600Y-56387600D02*
X116157600Y-56387600D01*
G75*
G02*
X116007600Y-56237600I0J150000D01*
G01*
X116007600Y-54912600D01*
G75*
G02*
X116157600Y-54762600I150000J0D01*
G01*
X116457600Y-54762600D01*
G75*
G02*
X116607600Y-54912600I0J-150000D01*
G01*
X116607600Y-56237600D01*
G75*
G02*
X116457600Y-56387600I-150000J0D01*
G01*
G37*
G04 #@! TD.AperFunction*
D10*
X121217600Y-54387600D03*
G04 #@! TA.AperFunction,ComponentPad*
G36*
G01*
X123817600Y-53762599D02*
X123817600Y-55012601D01*
G75*
G02*
X123567601Y-55262600I-249999J0D01*
G01*
X122867599Y-55262600D01*
G75*
G02*
X122617600Y-55012601I0J249999D01*
G01*
X122617600Y-53762599D01*
G75*
G02*
X122867599Y-53512600I249999J0D01*
G01*
X123567601Y-53512600D01*
G75*
G02*
X123817600Y-53762599I0J-249999D01*
G01*
G37*
G04 #@! TD.AperFunction*
X110617600Y-54387600D03*
G04 #@! TA.AperFunction,ComponentPad*
G36*
G01*
X113217600Y-53762599D02*
X113217600Y-55012601D01*
G75*
G02*
X112967601Y-55262600I-249999J0D01*
G01*
X112267599Y-55262600D01*
G75*
G02*
X112017600Y-55012601I0J249999D01*
G01*
X112017600Y-53762599D01*
G75*
G02*
X112267599Y-53512600I249999J0D01*
G01*
X112967601Y-53512600D01*
G75*
G02*
X113217600Y-53762599I0J-249999D01*
G01*
G37*
G04 #@! TD.AperFunction*
D11*
X109667600Y-106302600D03*
D12*
X109667600Y-103762600D03*
D13*
X122317600Y-97387600D03*
X126617600Y-97387600D03*
G04 #@! TA.AperFunction,SMDPad,CuDef*
G36*
G01*
X106237601Y-104657600D02*
X105337599Y-104657600D01*
G75*
G02*
X105087600Y-104407601I0J249999D01*
G01*
X105087600Y-103882599D01*
G75*
G02*
X105337599Y-103632600I249999J0D01*
G01*
X106237601Y-103632600D01*
G75*
G02*
X106487600Y-103882599I0J-249999D01*
G01*
X106487600Y-104407601D01*
G75*
G02*
X106237601Y-104657600I-249999J0D01*
G01*
G37*
G04 #@! TD.AperFunction*
G04 #@! TA.AperFunction,SMDPad,CuDef*
G36*
G01*
X106237601Y-106482600D02*
X105337599Y-106482600D01*
G75*
G02*
X105087600Y-106232601I0J249999D01*
G01*
X105087600Y-105707599D01*
G75*
G02*
X105337599Y-105457600I249999J0D01*
G01*
X106237601Y-105457600D01*
G75*
G02*
X106487600Y-105707599I0J-249999D01*
G01*
X106487600Y-106232601D01*
G75*
G02*
X106237601Y-106482600I-249999J0D01*
G01*
G37*
G04 #@! TD.AperFunction*
G04 #@! TA.AperFunction,SMDPad,CuDef*
G36*
G01*
X130242600Y-73512601D02*
X130242600Y-72612599D01*
G75*
G02*
X130492599Y-72362600I249999J0D01*
G01*
X131017601Y-72362600D01*
G75*
G02*
X131267600Y-72612599I0J-249999D01*
G01*
X131267600Y-73512601D01*
G75*
G02*
X131017601Y-73762600I-249999J0D01*
G01*
X130492599Y-73762600D01*
G75*
G02*
X130242600Y-73512601I0J249999D01*
G01*
G37*
G04 #@! TD.AperFunction*
G04 #@! TA.AperFunction,SMDPad,CuDef*
G36*
G01*
X128417600Y-73512601D02*
X128417600Y-72612599D01*
G75*
G02*
X128667599Y-72362600I249999J0D01*
G01*
X129192601Y-72362600D01*
G75*
G02*
X129442600Y-72612599I0J-249999D01*
G01*
X129442600Y-73512601D01*
G75*
G02*
X129192601Y-73762600I-249999J0D01*
G01*
X128667599Y-73762600D01*
G75*
G02*
X128417600Y-73512601I0J249999D01*
G01*
G37*
G04 #@! TD.AperFunction*
G04 #@! TA.AperFunction,SMDPad,CuDef*
G36*
G01*
X130242600Y-71112601D02*
X130242600Y-70212599D01*
G75*
G02*
X130492599Y-69962600I249999J0D01*
G01*
X131017601Y-69962600D01*
G75*
G02*
X131267600Y-70212599I0J-249999D01*
G01*
X131267600Y-71112601D01*
G75*
G02*
X131017601Y-71362600I-249999J0D01*
G01*
X130492599Y-71362600D01*
G75*
G02*
X130242600Y-71112601I0J249999D01*
G01*
G37*
G04 #@! TD.AperFunction*
G04 #@! TA.AperFunction,SMDPad,CuDef*
G36*
G01*
X128417600Y-71112601D02*
X128417600Y-70212599D01*
G75*
G02*
X128667599Y-69962600I249999J0D01*
G01*
X129192601Y-69962600D01*
G75*
G02*
X129442600Y-70212599I0J-249999D01*
G01*
X129442600Y-71112601D01*
G75*
G02*
X129192601Y-71362600I-249999J0D01*
G01*
X128667599Y-71362600D01*
G75*
G02*
X128417600Y-71112601I0J249999D01*
G01*
G37*
G04 #@! TD.AperFunction*
G04 #@! TA.AperFunction,SMDPad,CuDef*
G36*
G01*
X114317600Y-80387599D02*
X114317600Y-81287601D01*
G75*
G02*
X114067601Y-81537600I-249999J0D01*
G01*
X113542599Y-81537600D01*
G75*
G02*
X113292600Y-81287601I0J249999D01*
G01*
X113292600Y-80387599D01*
G75*
G02*
X113542599Y-80137600I249999J0D01*
G01*
X114067601Y-80137600D01*
G75*
G02*
X114317600Y-80387599I0J-249999D01*
G01*
G37*
G04 #@! TD.AperFunction*
G04 #@! TA.AperFunction,SMDPad,CuDef*
G36*
G01*
X116142600Y-80387599D02*
X116142600Y-81287601D01*
G75*
G02*
X115892601Y-81537600I-249999J0D01*
G01*
X115367599Y-81537600D01*
G75*
G02*
X115117600Y-81287601I0J249999D01*
G01*
X115117600Y-80387599D01*
G75*
G02*
X115367599Y-80137600I249999J0D01*
G01*
X115892601Y-80137600D01*
G75*
G02*
X116142600Y-80387599I0J-249999D01*
G01*
G37*
G04 #@! TD.AperFunction*
G04 #@! TA.AperFunction,SMDPad,CuDef*
G36*
G01*
X104267600Y-57262599D02*
X104267600Y-58162601D01*
G75*
G02*
X104017601Y-58412600I-249999J0D01*
G01*
X103492599Y-58412600D01*
G75*
G02*
X103242600Y-58162601I0J249999D01*
G01*
X103242600Y-57262599D01*
G75*
G02*
X103492599Y-57012600I249999J0D01*
G01*
X104017601Y-57012600D01*
G75*
G02*
X104267600Y-57262599I0J-249999D01*
G01*
G37*
G04 #@! TD.AperFunction*
G04 #@! TA.AperFunction,SMDPad,CuDef*
G36*
G01*
X106092600Y-57262599D02*
X106092600Y-58162601D01*
G75*
G02*
X105842601Y-58412600I-249999J0D01*
G01*
X105317599Y-58412600D01*
G75*
G02*
X105067600Y-58162601I0J249999D01*
G01*
X105067600Y-57262599D01*
G75*
G02*
X105317599Y-57012600I249999J0D01*
G01*
X105842601Y-57012600D01*
G75*
G02*
X106092600Y-57262599I0J-249999D01*
G01*
G37*
G04 #@! TD.AperFunction*
G04 #@! TA.AperFunction,SMDPad,CuDef*
G36*
G01*
X109867600Y-96707601D02*
X109867600Y-95807599D01*
G75*
G02*
X110117599Y-95557600I249999J0D01*
G01*
X110642601Y-95557600D01*
G75*
G02*
X110892600Y-95807599I0J-249999D01*
G01*
X110892600Y-96707601D01*
G75*
G02*
X110642601Y-96957600I-249999J0D01*
G01*
X110117599Y-96957600D01*
G75*
G02*
X109867600Y-96707601I0J249999D01*
G01*
G37*
G04 #@! TD.AperFunction*
G04 #@! TA.AperFunction,SMDPad,CuDef*
G36*
G01*
X108042600Y-96707601D02*
X108042600Y-95807599D01*
G75*
G02*
X108292599Y-95557600I249999J0D01*
G01*
X108817601Y-95557600D01*
G75*
G02*
X109067600Y-95807599I0J-249999D01*
G01*
X109067600Y-96707601D01*
G75*
G02*
X108817601Y-96957600I-249999J0D01*
G01*
X108292599Y-96957600D01*
G75*
G02*
X108042600Y-96707601I0J249999D01*
G01*
G37*
G04 #@! TD.AperFunction*
G04 #@! TA.AperFunction,SMDPad,CuDef*
G36*
G01*
X104267600Y-55237599D02*
X104267600Y-56137601D01*
G75*
G02*
X104017601Y-56387600I-249999J0D01*
G01*
X103492599Y-56387600D01*
G75*
G02*
X103242600Y-56137601I0J249999D01*
G01*
X103242600Y-55237599D01*
G75*
G02*
X103492599Y-54987600I249999J0D01*
G01*
X104017601Y-54987600D01*
G75*
G02*
X104267600Y-55237599I0J-249999D01*
G01*
G37*
G04 #@! TD.AperFunction*
G04 #@! TA.AperFunction,SMDPad,CuDef*
G36*
G01*
X106092600Y-55237599D02*
X106092600Y-56137601D01*
G75*
G02*
X105842601Y-56387600I-249999J0D01*
G01*
X105317599Y-56387600D01*
G75*
G02*
X105067600Y-56137601I0J249999D01*
G01*
X105067600Y-55237599D01*
G75*
G02*
X105317599Y-54987600I249999J0D01*
G01*
X105842601Y-54987600D01*
G75*
G02*
X106092600Y-55237599I0J-249999D01*
G01*
G37*
G04 #@! TD.AperFunction*
G04 #@! TA.AperFunction,SMDPad,CuDef*
G36*
G01*
X105517600Y-98337601D02*
X105517600Y-97437599D01*
G75*
G02*
X105767599Y-97187600I249999J0D01*
G01*
X106292601Y-97187600D01*
G75*
G02*
X106542600Y-97437599I0J-249999D01*
G01*
X106542600Y-98337601D01*
G75*
G02*
X106292601Y-98587600I-249999J0D01*
G01*
X105767599Y-98587600D01*
G75*
G02*
X105517600Y-98337601I0J249999D01*
G01*
G37*
G04 #@! TD.AperFunction*
G04 #@! TA.AperFunction,SMDPad,CuDef*
G36*
G01*
X103692600Y-98337601D02*
X103692600Y-97437599D01*
G75*
G02*
X103942599Y-97187600I249999J0D01*
G01*
X104467601Y-97187600D01*
G75*
G02*
X104717600Y-97437599I0J-249999D01*
G01*
X104717600Y-98337601D01*
G75*
G02*
X104467601Y-98587600I-249999J0D01*
G01*
X103942599Y-98587600D01*
G75*
G02*
X103692600Y-98337601I0J249999D01*
G01*
G37*
G04 #@! TD.AperFunction*
G04 #@! TA.AperFunction,SMDPad,CuDef*
G36*
G01*
X130242600Y-68712601D02*
X130242600Y-67812599D01*
G75*
G02*
X130492599Y-67562600I249999J0D01*
G01*
X131017601Y-67562600D01*
G75*
G02*
X131267600Y-67812599I0J-249999D01*
G01*
X131267600Y-68712601D01*
G75*
G02*
X131017601Y-68962600I-249999J0D01*
G01*
X130492599Y-68962600D01*
G75*
G02*
X130242600Y-68712601I0J249999D01*
G01*
G37*
G04 #@! TD.AperFunction*
G04 #@! TA.AperFunction,SMDPad,CuDef*
G36*
G01*
X128417600Y-68712601D02*
X128417600Y-67812599D01*
G75*
G02*
X128667599Y-67562600I249999J0D01*
G01*
X129192601Y-67562600D01*
G75*
G02*
X129442600Y-67812599I0J-249999D01*
G01*
X129442600Y-68712601D01*
G75*
G02*
X129192601Y-68962600I-249999J0D01*
G01*
X128667599Y-68962600D01*
G75*
G02*
X128417600Y-68712601I0J249999D01*
G01*
G37*
G04 #@! TD.AperFunction*
G04 #@! TA.AperFunction,SMDPad,CuDef*
G36*
G01*
X114642600Y-58287601D02*
X114642600Y-57387599D01*
G75*
G02*
X114892599Y-57137600I249999J0D01*
G01*
X115417601Y-57137600D01*
G75*
G02*
X115667600Y-57387599I0J-249999D01*
G01*
X115667600Y-58287601D01*
G75*
G02*
X115417601Y-58537600I-249999J0D01*
G01*
X114892599Y-58537600D01*
G75*
G02*
X114642600Y-58287601I0J249999D01*
G01*
G37*
G04 #@! TD.AperFunction*
G04 #@! TA.AperFunction,SMDPad,CuDef*
G36*
G01*
X112817600Y-58287601D02*
X112817600Y-57387599D01*
G75*
G02*
X113067599Y-57137600I249999J0D01*
G01*
X113592601Y-57137600D01*
G75*
G02*
X113842600Y-57387599I0J-249999D01*
G01*
X113842600Y-58287601D01*
G75*
G02*
X113592601Y-58537600I-249999J0D01*
G01*
X113067599Y-58537600D01*
G75*
G02*
X112817600Y-58287601I0J249999D01*
G01*
G37*
G04 #@! TD.AperFunction*
G04 #@! TA.AperFunction,SMDPad,CuDef*
G36*
G01*
X113892600Y-71462601D02*
X113892600Y-70562599D01*
G75*
G02*
X114142599Y-70312600I249999J0D01*
G01*
X114667601Y-70312600D01*
G75*
G02*
X114917600Y-70562599I0J-249999D01*
G01*
X114917600Y-71462601D01*
G75*
G02*
X114667601Y-71712600I-249999J0D01*
G01*
X114142599Y-71712600D01*
G75*
G02*
X113892600Y-71462601I0J249999D01*
G01*
G37*
G04 #@! TD.AperFunction*
G04 #@! TA.AperFunction,SMDPad,CuDef*
G36*
G01*
X112067600Y-71462601D02*
X112067600Y-70562599D01*
G75*
G02*
X112317599Y-70312600I249999J0D01*
G01*
X112842601Y-70312600D01*
G75*
G02*
X113092600Y-70562599I0J-249999D01*
G01*
X113092600Y-71462601D01*
G75*
G02*
X112842601Y-71712600I-249999J0D01*
G01*
X112317599Y-71712600D01*
G75*
G02*
X112067600Y-71462601I0J249999D01*
G01*
G37*
G04 #@! TD.AperFunction*
G04 #@! TA.AperFunction,SMDPad,CuDef*
G36*
G01*
X113892600Y-69062601D02*
X113892600Y-68162599D01*
G75*
G02*
X114142599Y-67912600I249999J0D01*
G01*
X114667601Y-67912600D01*
G75*
G02*
X114917600Y-68162599I0J-249999D01*
G01*
X114917600Y-69062601D01*
G75*
G02*
X114667601Y-69312600I-249999J0D01*
G01*
X114142599Y-69312600D01*
G75*
G02*
X113892600Y-69062601I0J249999D01*
G01*
G37*
G04 #@! TD.AperFunction*
G04 #@! TA.AperFunction,SMDPad,CuDef*
G36*
G01*
X112067600Y-69062601D02*
X112067600Y-68162599D01*
G75*
G02*
X112317599Y-67912600I249999J0D01*
G01*
X112842601Y-67912600D01*
G75*
G02*
X113092600Y-68162599I0J-249999D01*
G01*
X113092600Y-69062601D01*
G75*
G02*
X112842601Y-69312600I-249999J0D01*
G01*
X112317599Y-69312600D01*
G75*
G02*
X112067600Y-69062601I0J249999D01*
G01*
G37*
G04 #@! TD.AperFunction*
G04 #@! TA.AperFunction,SMDPad,CuDef*
G36*
G01*
X129737600Y-60327601D02*
X129737600Y-59427599D01*
G75*
G02*
X129987599Y-59177600I249999J0D01*
G01*
X130512601Y-59177600D01*
G75*
G02*
X130762600Y-59427599I0J-249999D01*
G01*
X130762600Y-60327601D01*
G75*
G02*
X130512601Y-60577600I-249999J0D01*
G01*
X129987599Y-60577600D01*
G75*
G02*
X129737600Y-60327601I0J249999D01*
G01*
G37*
G04 #@! TD.AperFunction*
G04 #@! TA.AperFunction,SMDPad,CuDef*
G36*
G01*
X127912600Y-60327601D02*
X127912600Y-59427599D01*
G75*
G02*
X128162599Y-59177600I249999J0D01*
G01*
X128687601Y-59177600D01*
G75*
G02*
X128937600Y-59427599I0J-249999D01*
G01*
X128937600Y-60327601D01*
G75*
G02*
X128687601Y-60577600I-249999J0D01*
G01*
X128162599Y-60577600D01*
G75*
G02*
X127912600Y-60327601I0J249999D01*
G01*
G37*
G04 #@! TD.AperFunction*
G04 #@! TA.AperFunction,SMDPad,CuDef*
G36*
G01*
X113867600Y-66577601D02*
X113867600Y-65677599D01*
G75*
G02*
X114117599Y-65427600I249999J0D01*
G01*
X114642601Y-65427600D01*
G75*
G02*
X114892600Y-65677599I0J-249999D01*
G01*
X114892600Y-66577601D01*
G75*
G02*
X114642601Y-66827600I-249999J0D01*
G01*
X114117599Y-66827600D01*
G75*
G02*
X113867600Y-66577601I0J249999D01*
G01*
G37*
G04 #@! TD.AperFunction*
G04 #@! TA.AperFunction,SMDPad,CuDef*
G36*
G01*
X112042600Y-66577601D02*
X112042600Y-65677599D01*
G75*
G02*
X112292599Y-65427600I249999J0D01*
G01*
X112817601Y-65427600D01*
G75*
G02*
X113067600Y-65677599I0J-249999D01*
G01*
X113067600Y-66577601D01*
G75*
G02*
X112817601Y-66827600I-249999J0D01*
G01*
X112292599Y-66827600D01*
G75*
G02*
X112042600Y-66577601I0J249999D01*
G01*
G37*
G04 #@! TD.AperFunction*
D10*
X124767600Y-102037600D03*
G04 #@! TA.AperFunction,ComponentPad*
G36*
G01*
X122167600Y-102662601D02*
X122167600Y-101412599D01*
G75*
G02*
X122417599Y-101162600I249999J0D01*
G01*
X123117601Y-101162600D01*
G75*
G02*
X123367600Y-101412599I0J-249999D01*
G01*
X123367600Y-102662601D01*
G75*
G02*
X123117601Y-102912600I-249999J0D01*
G01*
X122417599Y-102912600D01*
G75*
G02*
X122167600Y-102662601I0J249999D01*
G01*
G37*
G04 #@! TD.AperFunction*
G04 #@! TA.AperFunction,SMDPad,CuDef*
G36*
G01*
X128117599Y-107262600D02*
X131017601Y-107262600D01*
G75*
G02*
X131267600Y-107512599I0J-249999D01*
G01*
X131267600Y-108137601D01*
G75*
G02*
X131017601Y-108387600I-249999J0D01*
G01*
X128117599Y-108387600D01*
G75*
G02*
X127867600Y-108137601I0J249999D01*
G01*
X127867600Y-107512599D01*
G75*
G02*
X128117599Y-107262600I249999J0D01*
G01*
G37*
G04 #@! TD.AperFunction*
G04 #@! TA.AperFunction,SMDPad,CuDef*
G36*
G01*
X128117599Y-102987600D02*
X131017601Y-102987600D01*
G75*
G02*
X131267600Y-103237599I0J-249999D01*
G01*
X131267600Y-103862601D01*
G75*
G02*
X131017601Y-104112600I-249999J0D01*
G01*
X128117599Y-104112600D01*
G75*
G02*
X127867600Y-103862601I0J249999D01*
G01*
X127867600Y-103237599D01*
G75*
G02*
X128117599Y-102987600I249999J0D01*
G01*
G37*
G04 #@! TD.AperFunction*
X129517600Y-78887600D03*
G04 #@! TA.AperFunction,ComponentPad*
G36*
G01*
X126917600Y-79512601D02*
X126917600Y-78262599D01*
G75*
G02*
X127167599Y-78012600I249999J0D01*
G01*
X127867601Y-78012600D01*
G75*
G02*
X128117600Y-78262599I0J-249999D01*
G01*
X128117600Y-79512601D01*
G75*
G02*
X127867601Y-79762600I-249999J0D01*
G01*
X127167599Y-79762600D01*
G75*
G02*
X126917600Y-79512601I0J249999D01*
G01*
G37*
G04 #@! TD.AperFunction*
G04 #@! TA.AperFunction,SMDPad,CuDef*
G36*
G01*
X105142600Y-60343850D02*
X105142600Y-59431350D01*
G75*
G02*
X105386350Y-59187600I243750J0D01*
G01*
X105873850Y-59187600D01*
G75*
G02*
X106117600Y-59431350I0J-243750D01*
G01*
X106117600Y-60343850D01*
G75*
G02*
X105873850Y-60587600I-243750J0D01*
G01*
X105386350Y-60587600D01*
G75*
G02*
X105142600Y-60343850I0J243750D01*
G01*
G37*
G04 #@! TD.AperFunction*
G04 #@! TA.AperFunction,SMDPad,CuDef*
G36*
G01*
X103267600Y-60343850D02*
X103267600Y-59431350D01*
G75*
G02*
X103511350Y-59187600I243750J0D01*
G01*
X103998850Y-59187600D01*
G75*
G02*
X104242600Y-59431350I0J-243750D01*
G01*
X104242600Y-60343850D01*
G75*
G02*
X103998850Y-60587600I-243750J0D01*
G01*
X103511350Y-60587600D01*
G75*
G02*
X103267600Y-60343850I0J243750D01*
G01*
G37*
G04 #@! TD.AperFunction*
G04 #@! TA.AperFunction,SMDPad,CuDef*
G36*
G01*
X113567600Y-96758850D02*
X113567600Y-95846350D01*
G75*
G02*
X113811350Y-95602600I243750J0D01*
G01*
X114298850Y-95602600D01*
G75*
G02*
X114542600Y-95846350I0J-243750D01*
G01*
X114542600Y-96758850D01*
G75*
G02*
X114298850Y-97002600I-243750J0D01*
G01*
X113811350Y-97002600D01*
G75*
G02*
X113567600Y-96758850I0J243750D01*
G01*
G37*
G04 #@! TD.AperFunction*
G04 #@! TA.AperFunction,SMDPad,CuDef*
G36*
G01*
X111692600Y-96758850D02*
X111692600Y-95846350D01*
G75*
G02*
X111936350Y-95602600I243750J0D01*
G01*
X112423850Y-95602600D01*
G75*
G02*
X112667600Y-95846350I0J-243750D01*
G01*
X112667600Y-96758850D01*
G75*
G02*
X112423850Y-97002600I-243750J0D01*
G01*
X111936350Y-97002600D01*
G75*
G02*
X111692600Y-96758850I0J243750D01*
G01*
G37*
G04 #@! TD.AperFunction*
D14*
X129377600Y-55927600D03*
X130327600Y-57927600D03*
X128427600Y-57927600D03*
G04 #@! TA.AperFunction,SMDPad,CuDef*
G36*
G01*
X113812600Y-60752600D02*
X113812600Y-61702600D01*
G75*
G02*
X113562600Y-61952600I-250000J0D01*
G01*
X113062600Y-61952600D01*
G75*
G02*
X112812600Y-61702600I0J250000D01*
G01*
X112812600Y-60752600D01*
G75*
G02*
X113062600Y-60502600I250000J0D01*
G01*
X113562600Y-60502600D01*
G75*
G02*
X113812600Y-60752600I0J-250000D01*
G01*
G37*
G04 #@! TD.AperFunction*
G04 #@! TA.AperFunction,SMDPad,CuDef*
G36*
G01*
X115712600Y-60752600D02*
X115712600Y-61702600D01*
G75*
G02*
X115462600Y-61952600I-250000J0D01*
G01*
X114962600Y-61952600D01*
G75*
G02*
X114712600Y-61702600I0J250000D01*
G01*
X114712600Y-60752600D01*
G75*
G02*
X114962600Y-60502600I250000J0D01*
G01*
X115462600Y-60502600D01*
G75*
G02*
X115712600Y-60752600I0J-250000D01*
G01*
G37*
G04 #@! TD.AperFunction*
G04 #@! TA.AperFunction,SMDPad,CuDef*
G36*
G01*
X125092600Y-59037600D02*
X125092600Y-58087600D01*
G75*
G02*
X125342600Y-57837600I250000J0D01*
G01*
X125842600Y-57837600D01*
G75*
G02*
X126092600Y-58087600I0J-250000D01*
G01*
X126092600Y-59037600D01*
G75*
G02*
X125842600Y-59287600I-250000J0D01*
G01*
X125342600Y-59287600D01*
G75*
G02*
X125092600Y-59037600I0J250000D01*
G01*
G37*
G04 #@! TD.AperFunction*
G04 #@! TA.AperFunction,SMDPad,CuDef*
G36*
G01*
X123192600Y-59037600D02*
X123192600Y-58087600D01*
G75*
G02*
X123442600Y-57837600I250000J0D01*
G01*
X123942600Y-57837600D01*
G75*
G02*
X124192600Y-58087600I0J-250000D01*
G01*
X124192600Y-59037600D01*
G75*
G02*
X123942600Y-59287600I-250000J0D01*
G01*
X123442600Y-59287600D01*
G75*
G02*
X123192600Y-59037600I0J250000D01*
G01*
G37*
G04 #@! TD.AperFunction*
G04 #@! TA.AperFunction,SMDPad,CuDef*
G36*
G01*
X130312600Y-65312600D02*
X130312600Y-64362600D01*
G75*
G02*
X130562600Y-64112600I250000J0D01*
G01*
X131062600Y-64112600D01*
G75*
G02*
X131312600Y-64362600I0J-250000D01*
G01*
X131312600Y-65312600D01*
G75*
G02*
X131062600Y-65562600I-250000J0D01*
G01*
X130562600Y-65562600D01*
G75*
G02*
X130312600Y-65312600I0J250000D01*
G01*
G37*
G04 #@! TD.AperFunction*
G04 #@! TA.AperFunction,SMDPad,CuDef*
G36*
G01*
X128412600Y-65312600D02*
X128412600Y-64362600D01*
G75*
G02*
X128662600Y-64112600I250000J0D01*
G01*
X129162600Y-64112600D01*
G75*
G02*
X129412600Y-64362600I0J-250000D01*
G01*
X129412600Y-65312600D01*
G75*
G02*
X129162600Y-65562600I-250000J0D01*
G01*
X128662600Y-65562600D01*
G75*
G02*
X128412600Y-65312600I0J250000D01*
G01*
G37*
G04 #@! TD.AperFunction*
G04 #@! TA.AperFunction,SMDPad,CuDef*
G36*
G01*
X125077600Y-61272600D02*
X125077600Y-60322600D01*
G75*
G02*
X125327600Y-60072600I250000J0D01*
G01*
X125827600Y-60072600D01*
G75*
G02*
X126077600Y-60322600I0J-250000D01*
G01*
X126077600Y-61272600D01*
G75*
G02*
X125827600Y-61522600I-250000J0D01*
G01*
X125327600Y-61522600D01*
G75*
G02*
X125077600Y-61272600I0J250000D01*
G01*
G37*
G04 #@! TD.AperFunction*
G04 #@! TA.AperFunction,SMDPad,CuDef*
G36*
G01*
X123177600Y-61272600D02*
X123177600Y-60322600D01*
G75*
G02*
X123427600Y-60072600I250000J0D01*
G01*
X123927600Y-60072600D01*
G75*
G02*
X124177600Y-60322600I0J-250000D01*
G01*
X124177600Y-61272600D01*
G75*
G02*
X123927600Y-61522600I-250000J0D01*
G01*
X123427600Y-61522600D01*
G75*
G02*
X123177600Y-61272600I0J250000D01*
G01*
G37*
G04 #@! TD.AperFunction*
G04 #@! TA.AperFunction,SMDPad,CuDef*
G36*
G01*
X124367600Y-64077600D02*
X124367600Y-63777600D01*
G75*
G02*
X124517600Y-63627600I150000J0D01*
G01*
X126167600Y-63627600D01*
G75*
G02*
X126317600Y-63777600I0J-150000D01*
G01*
X126317600Y-64077600D01*
G75*
G02*
X126167600Y-64227600I-150000J0D01*
G01*
X124517600Y-64227600D01*
G75*
G02*
X124367600Y-64077600I0J150000D01*
G01*
G37*
G04 #@! TD.AperFunction*
G04 #@! TA.AperFunction,SMDPad,CuDef*
G36*
G01*
X124367600Y-65347600D02*
X124367600Y-65047600D01*
G75*
G02*
X124517600Y-64897600I150000J0D01*
G01*
X126167600Y-64897600D01*
G75*
G02*
X126317600Y-65047600I0J-150000D01*
G01*
X126317600Y-65347600D01*
G75*
G02*
X126167600Y-65497600I-150000J0D01*
G01*
X124517600Y-65497600D01*
G75*
G02*
X124367600Y-65347600I0J150000D01*
G01*
G37*
G04 #@! TD.AperFunction*
G04 #@! TA.AperFunction,SMDPad,CuDef*
G36*
G01*
X124367600Y-66617600D02*
X124367600Y-66317600D01*
G75*
G02*
X124517600Y-66167600I150000J0D01*
G01*
X126167600Y-66167600D01*
G75*
G02*
X126317600Y-66317600I0J-150000D01*
G01*
X126317600Y-66617600D01*
G75*
G02*
X126167600Y-66767600I-150000J0D01*
G01*
X124517600Y-66767600D01*
G75*
G02*
X124367600Y-66617600I0J150000D01*
G01*
G37*
G04 #@! TD.AperFunction*
G04 #@! TA.AperFunction,SMDPad,CuDef*
G36*
G01*
X124367600Y-67887600D02*
X124367600Y-67587600D01*
G75*
G02*
X124517600Y-67437600I150000J0D01*
G01*
X126167600Y-67437600D01*
G75*
G02*
X126317600Y-67587600I0J-150000D01*
G01*
X126317600Y-67887600D01*
G75*
G02*
X126167600Y-68037600I-150000J0D01*
G01*
X124517600Y-68037600D01*
G75*
G02*
X124367600Y-67887600I0J150000D01*
G01*
G37*
G04 #@! TD.AperFunction*
G04 #@! TA.AperFunction,SMDPad,CuDef*
G36*
G01*
X124367600Y-69157600D02*
X124367600Y-68857600D01*
G75*
G02*
X124517600Y-68707600I150000J0D01*
G01*
X126167600Y-68707600D01*
G75*
G02*
X126317600Y-68857600I0J-150000D01*
G01*
X126317600Y-69157600D01*
G75*
G02*
X126167600Y-69307600I-150000J0D01*
G01*
X124517600Y-69307600D01*
G75*
G02*
X124367600Y-69157600I0J150000D01*
G01*
G37*
G04 #@! TD.AperFunction*
G04 #@! TA.AperFunction,SMDPad,CuDef*
G36*
G01*
X124367600Y-70427600D02*
X124367600Y-70127600D01*
G75*
G02*
X124517600Y-69977600I150000J0D01*
G01*
X126167600Y-69977600D01*
G75*
G02*
X126317600Y-70127600I0J-150000D01*
G01*
X126317600Y-70427600D01*
G75*
G02*
X126167600Y-70577600I-150000J0D01*
G01*
X124517600Y-70577600D01*
G75*
G02*
X124367600Y-70427600I0J150000D01*
G01*
G37*
G04 #@! TD.AperFunction*
G04 #@! TA.AperFunction,SMDPad,CuDef*
G36*
G01*
X124367600Y-71697600D02*
X124367600Y-71397600D01*
G75*
G02*
X124517600Y-71247600I150000J0D01*
G01*
X126167600Y-71247600D01*
G75*
G02*
X126317600Y-71397600I0J-150000D01*
G01*
X126317600Y-71697600D01*
G75*
G02*
X126167600Y-71847600I-150000J0D01*
G01*
X124517600Y-71847600D01*
G75*
G02*
X124367600Y-71697600I0J150000D01*
G01*
G37*
G04 #@! TD.AperFunction*
G04 #@! TA.AperFunction,SMDPad,CuDef*
G36*
G01*
X119417600Y-71697600D02*
X119417600Y-71397600D01*
G75*
G02*
X119567600Y-71247600I150000J0D01*
G01*
X121217600Y-71247600D01*
G75*
G02*
X121367600Y-71397600I0J-150000D01*
G01*
X121367600Y-71697600D01*
G75*
G02*
X121217600Y-71847600I-150000J0D01*
G01*
X119567600Y-71847600D01*
G75*
G02*
X119417600Y-71697600I0J150000D01*
G01*
G37*
G04 #@! TD.AperFunction*
G04 #@! TA.AperFunction,SMDPad,CuDef*
G36*
G01*
X119417600Y-70427600D02*
X119417600Y-70127600D01*
G75*
G02*
X119567600Y-69977600I150000J0D01*
G01*
X121217600Y-69977600D01*
G75*
G02*
X121367600Y-70127600I0J-150000D01*
G01*
X121367600Y-70427600D01*
G75*
G02*
X121217600Y-70577600I-150000J0D01*
G01*
X119567600Y-70577600D01*
G75*
G02*
X119417600Y-70427600I0J150000D01*
G01*
G37*
G04 #@! TD.AperFunction*
G04 #@! TA.AperFunction,SMDPad,CuDef*
G36*
G01*
X119417600Y-69157600D02*
X119417600Y-68857600D01*
G75*
G02*
X119567600Y-68707600I150000J0D01*
G01*
X121217600Y-68707600D01*
G75*
G02*
X121367600Y-68857600I0J-150000D01*
G01*
X121367600Y-69157600D01*
G75*
G02*
X121217600Y-69307600I-150000J0D01*
G01*
X119567600Y-69307600D01*
G75*
G02*
X119417600Y-69157600I0J150000D01*
G01*
G37*
G04 #@! TD.AperFunction*
G04 #@! TA.AperFunction,SMDPad,CuDef*
G36*
G01*
X119417600Y-67887600D02*
X119417600Y-67587600D01*
G75*
G02*
X119567600Y-67437600I150000J0D01*
G01*
X121217600Y-67437600D01*
G75*
G02*
X121367600Y-67587600I0J-150000D01*
G01*
X121367600Y-67887600D01*
G75*
G02*
X121217600Y-68037600I-150000J0D01*
G01*
X119567600Y-68037600D01*
G75*
G02*
X119417600Y-67887600I0J150000D01*
G01*
G37*
G04 #@! TD.AperFunction*
G04 #@! TA.AperFunction,SMDPad,CuDef*
G36*
G01*
X119417600Y-66617600D02*
X119417600Y-66317600D01*
G75*
G02*
X119567600Y-66167600I150000J0D01*
G01*
X121217600Y-66167600D01*
G75*
G02*
X121367600Y-66317600I0J-150000D01*
G01*
X121367600Y-66617600D01*
G75*
G02*
X121217600Y-66767600I-150000J0D01*
G01*
X119567600Y-66767600D01*
G75*
G02*
X119417600Y-66617600I0J150000D01*
G01*
G37*
G04 #@! TD.AperFunction*
G04 #@! TA.AperFunction,SMDPad,CuDef*
G36*
G01*
X119417600Y-65347600D02*
X119417600Y-65047600D01*
G75*
G02*
X119567600Y-64897600I150000J0D01*
G01*
X121217600Y-64897600D01*
G75*
G02*
X121367600Y-65047600I0J-150000D01*
G01*
X121367600Y-65347600D01*
G75*
G02*
X121217600Y-65497600I-150000J0D01*
G01*
X119567600Y-65497600D01*
G75*
G02*
X119417600Y-65347600I0J150000D01*
G01*
G37*
G04 #@! TD.AperFunction*
G04 #@! TA.AperFunction,SMDPad,CuDef*
G36*
G01*
X119417600Y-64077600D02*
X119417600Y-63777600D01*
G75*
G02*
X119567600Y-63627600I150000J0D01*
G01*
X121217600Y-63627600D01*
G75*
G02*
X121367600Y-63777600I0J-150000D01*
G01*
X121367600Y-64077600D01*
G75*
G02*
X121217600Y-64227600I-150000J0D01*
G01*
X119567600Y-64227600D01*
G75*
G02*
X119417600Y-64077600I0J150000D01*
G01*
G37*
G04 #@! TD.AperFunction*
D15*
X117487600Y-59742600D03*
X121187600Y-59742600D03*
D12*
X104642600Y-64462600D03*
D11*
X107182600Y-64462600D03*
X104642600Y-67002600D03*
X107182600Y-67002600D03*
X104642600Y-69542600D03*
X107182600Y-69542600D03*
D14*
X104142600Y-95787600D03*
X106042600Y-95787600D03*
X105092600Y-93787600D03*
D16*
X104810933Y-100087600D03*
X105592044Y-100087600D03*
X106373155Y-100087600D03*
X107154266Y-100087600D03*
X107935377Y-100087600D03*
X108717600Y-100087600D03*
X109517600Y-100087600D03*
D17*
X126417600Y-54187600D03*
X111647600Y-59327600D03*
X112897600Y-59327600D03*
X107192600Y-55612600D03*
X110472600Y-59327600D03*
X113167600Y-49912600D03*
X117467600Y-97692600D03*
X117467600Y-96712600D03*
X123907600Y-73827600D03*
X127287600Y-76017600D03*
X129657600Y-74827600D03*
X128092600Y-89787600D03*
X128077600Y-90797600D03*
X129117600Y-89787600D03*
X108007600Y-93332600D03*
X109107600Y-93332600D03*
X110207600Y-93332600D03*
X111357600Y-93332600D03*
X117467600Y-95732600D03*
X118792600Y-96712600D03*
X118792600Y-97692600D03*
X118792600Y-95732600D03*
X111567600Y-62762600D03*
X112817600Y-62762600D03*
X110392600Y-62762600D03*
X109527600Y-69852600D03*
X109527600Y-68727600D03*
X125592600Y-56987600D03*
X111342600Y-49912600D03*
X109517600Y-49912600D03*
X107187600Y-56527600D03*
X123397600Y-64067600D03*
X105162600Y-62022600D03*
X106337600Y-62022600D03*
X129517600Y-66357600D03*
X128927600Y-61337600D03*
X130377600Y-61337600D03*
X129687600Y-76017600D03*
X127267600Y-74827600D03*
X115947600Y-69647600D03*
X110787600Y-65707600D03*
X109857600Y-65687600D03*
X124977600Y-73817600D03*
X102967600Y-72537600D03*
X117467600Y-94712600D03*
X118792600Y-94712600D03*
X117467600Y-93562600D03*
X118792600Y-93562600D03*
X129067600Y-96062600D03*
X128507600Y-62567600D03*
X126257600Y-62537600D03*
X120917588Y-62577600D03*
X122377600Y-62377600D03*
X122477600Y-66617600D03*
X127117600Y-69557600D03*
X122117600Y-69987590D03*
X123517600Y-66107600D03*
X117337600Y-57027600D03*
X121747600Y-68427600D03*
X127462850Y-67717459D03*
X117487600Y-59742600D03*
X118137600Y-65427600D03*
X117377600Y-68467600D03*
X107047600Y-60997600D03*
X103017600Y-97597600D03*
X127979739Y-69158553D03*
X125342600Y-65197600D03*
X115630100Y-80837586D03*
X111562588Y-100107600D03*
X123737600Y-70537600D03*
X113773366Y-80805866D03*
X110567600Y-100097600D03*
D18*
X117567600Y-55552600D02*
X117582600Y-55537600D01*
D19*
X106030100Y-95800100D02*
X106042600Y-95787600D01*
X106030100Y-97887600D02*
X106030100Y-95800100D01*
D18*
X105580100Y-55687600D02*
X105580100Y-57712600D01*
D19*
X107182600Y-64462600D02*
X107657600Y-63987600D01*
D20*
X128367600Y-97387600D02*
X126617600Y-97387600D01*
X129567600Y-103550100D02*
X129567600Y-98587600D01*
X129567600Y-98587600D02*
X128367600Y-97387600D01*
D19*
X126617600Y-97387600D02*
X127742600Y-97387600D01*
X127742600Y-97387600D02*
X129067600Y-96062600D01*
X109517600Y-62127600D02*
X109517600Y-56837600D01*
X107182600Y-64462600D02*
X109517600Y-62127600D01*
X110617600Y-55737600D02*
X110617600Y-54387600D01*
X109517600Y-56837600D02*
X110617600Y-55737600D01*
D18*
X108384681Y-64462600D02*
X107182600Y-64462600D01*
D19*
X120167600Y-63927600D02*
X120392600Y-63927600D01*
D18*
X128912600Y-62972600D02*
X128507600Y-62567600D01*
X128912600Y-64837600D02*
X128912600Y-62972600D01*
D19*
X112657600Y-64457600D02*
X107187600Y-64457600D01*
X107187600Y-64457600D02*
X107182600Y-64462600D01*
D18*
X112555100Y-64560100D02*
X112657600Y-64457600D01*
X112555100Y-66127600D02*
X112555100Y-64560100D01*
D19*
X118617600Y-64457600D02*
X112657600Y-64457600D01*
X119127600Y-63947600D02*
X118617600Y-64457600D01*
X120392600Y-63927600D02*
X120372600Y-63947600D01*
X120372600Y-63947600D02*
X119127600Y-63947600D01*
X123677600Y-60797600D02*
X125417600Y-62537600D01*
X125417600Y-62537600D02*
X126257600Y-62537600D01*
X120392600Y-63102588D02*
X120917588Y-62577600D01*
X120392600Y-63927600D02*
X120392600Y-63102588D01*
X123677600Y-60797600D02*
X122377600Y-62097600D01*
X122377600Y-62097600D02*
X122377600Y-62377600D01*
D20*
X126642600Y-97362600D02*
X126617600Y-97387600D01*
X126642600Y-95537600D02*
X126642600Y-97362600D01*
X124167600Y-93062600D02*
X126642600Y-95537600D01*
X124167600Y-89325100D02*
X124167600Y-93062600D01*
X124030100Y-89187600D02*
X124167600Y-89325100D01*
X112330100Y-89850100D02*
X112330100Y-89187600D01*
X114242610Y-91762610D02*
X112330100Y-89850100D01*
X122942590Y-91762610D02*
X114242610Y-91762610D01*
X124030100Y-89187600D02*
X124030100Y-90675100D01*
X124030100Y-90675100D02*
X122942590Y-91762610D01*
X112330100Y-89187600D02*
X109880100Y-89187600D01*
D18*
X125767600Y-99637600D02*
X126617600Y-98787600D01*
X114055100Y-96302600D02*
X114532600Y-96302600D01*
X114532600Y-96302600D02*
X117117600Y-98887600D01*
X117117600Y-98887600D02*
X119467600Y-98887600D01*
X119467600Y-98887600D02*
X120217600Y-99637600D01*
X126617600Y-98787600D02*
X126617600Y-97387600D01*
X120217600Y-99637600D02*
X125767600Y-99637600D01*
X125567600Y-67737600D02*
X123597600Y-67737600D01*
X123597600Y-67737600D02*
X122477600Y-66617600D01*
X103755100Y-54987600D02*
X103755100Y-55687600D01*
X112617600Y-53237600D02*
X112067600Y-52687600D01*
X112617600Y-54387600D02*
X112617600Y-53237600D01*
X104205100Y-54537600D02*
X103755100Y-54987600D01*
X106367600Y-54537600D02*
X104205100Y-54537600D01*
X112067600Y-52687600D02*
X108217600Y-52687600D01*
X108217600Y-52687600D02*
X106367600Y-54537600D01*
X112742600Y-68612600D02*
X112192600Y-68612600D01*
X127647600Y-60142600D02*
X127647600Y-66321598D01*
X126717601Y-69157601D02*
X127117600Y-69557600D01*
X127647600Y-66321598D02*
X126717601Y-67251597D01*
X127912600Y-59877600D02*
X127647600Y-60142600D01*
X126717601Y-67251597D02*
X126717601Y-69157601D01*
X128425100Y-59877600D02*
X127912600Y-59877600D01*
X121827590Y-70277600D02*
X122117600Y-69987590D01*
X120392600Y-70277600D02*
X121827590Y-70277600D01*
X122117600Y-71987600D02*
X122117600Y-69987590D01*
X112067600Y-68612600D02*
X111392600Y-69287600D01*
X121647600Y-72457600D02*
X122117600Y-71987600D01*
X112580100Y-68612600D02*
X112067600Y-68612600D01*
X111392600Y-72237600D02*
X111612600Y-72457600D01*
X111392600Y-69287600D02*
X111392600Y-72237600D01*
X111612600Y-72457600D02*
X121647600Y-72457600D01*
X113330100Y-57350100D02*
X113330100Y-57837600D01*
X116302600Y-55537600D02*
X115142600Y-55537600D01*
X115142600Y-55537600D02*
X113330100Y-57350100D01*
X125567600Y-66467600D02*
X125361915Y-66467600D01*
X123877600Y-66467600D02*
X123517600Y-66107600D01*
X125342600Y-66467600D02*
X123877600Y-66467600D01*
X117317600Y-57047600D02*
X117337600Y-57027600D01*
X116337600Y-57047600D02*
X117317600Y-57047600D01*
X115155100Y-57837600D02*
X115547600Y-57837600D01*
X115547600Y-57837600D02*
X116337600Y-57047600D01*
D21*
X105255100Y-83612600D02*
X105255100Y-89187600D01*
D19*
X106267600Y-93787600D02*
X105092600Y-93787600D01*
X108555100Y-96257600D02*
X108555100Y-96075100D01*
X108555100Y-96075100D02*
X106267600Y-93787600D01*
D21*
X116980100Y-78087600D02*
X116930100Y-78037600D01*
X119355100Y-78087600D02*
X116980100Y-78087600D01*
X105867600Y-77425100D02*
X105255100Y-78037600D01*
X107580110Y-75712590D02*
X105867600Y-77425100D01*
X116930100Y-78037600D02*
X114605090Y-75712590D01*
X114605090Y-75712590D02*
X107580110Y-75712590D01*
X103317600Y-92012600D02*
X105092600Y-93787600D01*
X105255100Y-78037600D02*
X103317600Y-79975100D01*
X103317600Y-79975100D02*
X103317600Y-92012600D01*
D19*
X112135100Y-96257600D02*
X112180100Y-96302600D01*
X110380100Y-96257600D02*
X112135100Y-96257600D01*
D18*
X103755100Y-57712600D02*
X103755100Y-59887600D01*
D22*
X121167600Y-69007600D02*
X121747600Y-68427600D01*
X120167600Y-69007600D02*
X121167600Y-69007600D01*
X128062709Y-67117600D02*
X127462850Y-67717459D01*
X130310100Y-67117600D02*
X128062709Y-67117600D01*
X130755100Y-68262600D02*
X130755100Y-67562600D01*
X130755100Y-67562600D02*
X130310100Y-67117600D01*
D18*
X118317600Y-49237600D02*
X117582600Y-49237600D01*
X123217600Y-54387600D02*
X123217600Y-54137600D01*
X123217600Y-54137600D02*
X118317600Y-49237600D01*
X116302600Y-50597600D02*
X116302600Y-49237600D01*
X116642600Y-50937600D02*
X116302600Y-50597600D01*
X121217600Y-54387600D02*
X117767600Y-50937600D01*
X117767600Y-50937600D02*
X116642600Y-50937600D01*
X122662600Y-59742600D02*
X121187600Y-59742600D01*
X123692600Y-58562600D02*
X123692600Y-58712600D01*
X123692600Y-58712600D02*
X122662600Y-59742600D01*
X121367600Y-65197600D02*
X120392600Y-65197600D01*
X121697598Y-64867602D02*
X121367600Y-65197600D01*
X121187600Y-61242600D02*
X121617598Y-61672598D01*
X121617598Y-62713602D02*
X121697598Y-62793602D01*
X121697598Y-62793602D02*
X121697598Y-64867602D01*
X121187600Y-59742600D02*
X121187600Y-61242600D01*
X121617598Y-61672598D02*
X121617598Y-62713602D01*
X117487600Y-59942600D02*
X117487600Y-59742600D01*
X116187600Y-61242600D02*
X117487600Y-59942600D01*
X116017600Y-61242600D02*
X116187600Y-61242600D01*
X115212600Y-61227600D02*
X116002600Y-61227600D01*
X116002600Y-61227600D02*
X116017600Y-61242600D01*
X120392600Y-66467600D02*
X119177600Y-66467600D01*
X119177600Y-66467600D02*
X118137600Y-65427600D01*
X120007600Y-67577600D02*
X120167600Y-67737600D01*
X118927600Y-67577600D02*
X120007600Y-67577600D01*
X114380100Y-66127600D02*
X117477600Y-66127600D01*
X117477600Y-66127600D02*
X118927600Y-67577600D01*
X110927600Y-67997600D02*
X111547600Y-67377600D01*
X104642600Y-71912600D02*
X105117600Y-72387600D01*
X104642600Y-69542600D02*
X104642600Y-71912600D01*
X114380100Y-67065100D02*
X114380100Y-66127600D01*
X114067600Y-67377600D02*
X114380100Y-67065100D01*
X105117600Y-72387600D02*
X110497600Y-72387600D01*
X110497600Y-72387600D02*
X110927600Y-71957600D01*
X111547600Y-67377600D02*
X114067600Y-67377600D01*
X110927600Y-71957600D02*
X110927600Y-67997600D01*
X120167600Y-71547600D02*
X119891915Y-71547600D01*
X119891915Y-71547600D02*
X117377600Y-69033285D01*
X117377600Y-69033285D02*
X117377600Y-68467600D01*
X106740100Y-60997600D02*
X107047600Y-60997600D01*
X105630100Y-59887600D02*
X106740100Y-60997600D01*
D21*
X116930100Y-89162600D02*
X116955100Y-89187600D01*
X116930100Y-83612600D02*
X116930100Y-89162600D01*
X119405100Y-83662600D02*
X119355100Y-83612600D01*
X119405100Y-89187600D02*
X119405100Y-83662600D01*
D23*
X124817600Y-104487600D02*
X124817600Y-102087600D01*
X129567600Y-107825100D02*
X128155100Y-107825100D01*
X124817600Y-102087600D02*
X124767600Y-102037600D01*
X128155100Y-107825100D02*
X124817600Y-104487600D01*
D19*
X104205100Y-95850100D02*
X104142600Y-95787600D01*
X104205100Y-97887600D02*
X104205100Y-95850100D01*
D18*
X103915100Y-97597600D02*
X104205100Y-97887600D01*
X103017600Y-97597600D02*
X103915100Y-97597600D01*
X128930100Y-68962600D02*
X128734147Y-69158553D01*
X128734147Y-69158553D02*
X127979739Y-69158553D01*
X128930100Y-68262600D02*
X128930100Y-68962600D01*
X112580100Y-70312600D02*
X112980100Y-69912600D01*
X112580100Y-71012600D02*
X112580100Y-70312600D01*
X112980100Y-69912600D02*
X113805100Y-69912600D01*
X114405100Y-69312600D02*
X114405100Y-68612600D01*
X113805100Y-69912600D02*
X114405100Y-69312600D01*
D22*
X121478588Y-69657600D02*
X119446602Y-69657600D01*
X114405100Y-67912600D02*
X114405100Y-68612600D01*
X114525101Y-67792599D02*
X114405100Y-67912600D01*
X117701601Y-67792599D02*
X114525101Y-67792599D01*
X119446602Y-69657600D02*
X118052601Y-68263599D01*
X118052601Y-68263599D02*
X118052601Y-68143599D01*
X125567600Y-69007600D02*
X122128588Y-69007600D01*
X122128588Y-69007600D02*
X121478588Y-69657600D01*
X118052601Y-68143599D02*
X117701601Y-67792599D01*
D18*
X128427600Y-57927600D02*
X130327600Y-57927600D01*
D19*
X109132600Y-106837600D02*
X109667600Y-106302600D01*
X106655100Y-106837600D02*
X109132600Y-106837600D01*
X105787600Y-105970100D02*
X106655100Y-106837600D01*
D18*
X125567600Y-65197600D02*
X125001188Y-65197600D01*
X127727600Y-57927600D02*
X128427600Y-57927600D01*
X127167600Y-58487600D02*
X127727600Y-57927600D01*
X127167600Y-64797600D02*
X127167600Y-58487600D01*
X125342600Y-65197600D02*
X126767600Y-65197600D01*
X126767600Y-65197600D02*
X127167600Y-64797600D01*
X130327600Y-59800100D02*
X130250100Y-59877600D01*
X130327600Y-57927600D02*
X130327600Y-59800100D01*
X126133257Y-70277600D02*
X125567584Y-70277600D01*
X127667600Y-70662600D02*
X128930100Y-70662600D01*
X125567584Y-70277600D02*
X127282600Y-70277600D01*
X127282600Y-70277600D02*
X127667600Y-70662600D01*
X125307584Y-70537600D02*
X123737600Y-70537600D01*
X125567584Y-70277600D02*
X125307584Y-70537600D01*
D19*
X109392600Y-103487600D02*
X109667600Y-103762600D01*
X105787600Y-104145100D02*
X106445100Y-103487600D01*
X106445100Y-103487600D02*
X109392600Y-103487600D01*
D18*
X123637600Y-71547600D02*
X125977600Y-71547600D01*
X122277600Y-72907600D02*
X123637600Y-71547600D01*
X103492600Y-64462600D02*
X102967600Y-64987600D01*
X104642600Y-64462600D02*
X103492600Y-64462600D01*
X102967600Y-64987600D02*
X102967600Y-70962600D01*
X102967600Y-70962600D02*
X104912600Y-72907600D01*
X127492600Y-73062600D02*
X128930100Y-73062600D01*
X125977600Y-71547600D02*
X127492600Y-73062600D01*
X104912600Y-72907600D02*
X122277600Y-72907600D01*
X128217600Y-78187600D02*
X127517600Y-78887600D01*
X128930100Y-73062600D02*
X128217600Y-73775100D01*
X127517600Y-78887600D02*
X127367600Y-78887600D01*
X128217600Y-73775100D02*
X128217600Y-78187600D01*
D21*
X112305100Y-78037600D02*
X112305100Y-83612600D01*
X123980100Y-78087600D02*
X123980100Y-83612600D01*
X109880100Y-78037600D02*
X109880100Y-83612600D01*
D24*
X106265600Y-95564600D02*
X106285600Y-95564600D01*
X106285600Y-96010600D01*
X106265600Y-96010600D01*
X106265600Y-96698850D01*
X106253100Y-96711350D01*
X106253100Y-97664600D01*
X107018850Y-97664600D01*
X107177600Y-97505850D01*
X107180672Y-97187600D01*
X107168412Y-97063118D01*
X107132102Y-96943420D01*
X107073137Y-96833106D01*
X106993785Y-96736415D01*
X106910673Y-96668207D01*
X106973137Y-96592094D01*
X107032102Y-96481780D01*
X107068412Y-96362082D01*
X107080672Y-96237600D01*
X107077600Y-96169350D01*
X106918852Y-96010602D01*
X107077600Y-96010602D01*
X107077600Y-95849179D01*
X107404528Y-96176107D01*
X107404528Y-96707601D01*
X107421592Y-96880855D01*
X107472128Y-97047451D01*
X107554195Y-97200987D01*
X107664638Y-97335562D01*
X107799213Y-97446005D01*
X107952749Y-97528072D01*
X108119345Y-97578608D01*
X108292599Y-97595672D01*
X108817601Y-97595672D01*
X108990855Y-97578608D01*
X109157451Y-97528072D01*
X109310987Y-97446005D01*
X109445562Y-97335562D01*
X109467600Y-97308709D01*
X109489638Y-97335562D01*
X109624213Y-97446005D01*
X109777749Y-97528072D01*
X109944345Y-97578608D01*
X110117599Y-97595672D01*
X110642601Y-97595672D01*
X110815855Y-97578608D01*
X110982451Y-97528072D01*
X111135987Y-97446005D01*
X111270562Y-97335562D01*
X111272469Y-97333239D01*
X111312808Y-97382392D01*
X111446436Y-97492058D01*
X111598891Y-97573547D01*
X111764315Y-97623728D01*
X111936350Y-97640672D01*
X112423850Y-97640672D01*
X112595885Y-97623728D01*
X112761309Y-97573547D01*
X112913764Y-97492058D01*
X113047392Y-97382392D01*
X113117600Y-97296844D01*
X113187808Y-97382392D01*
X113321436Y-97492058D01*
X113473891Y-97573547D01*
X113639315Y-97623728D01*
X113811350Y-97640672D01*
X114298850Y-97640672D01*
X114470885Y-97623728D01*
X114636309Y-97573547D01*
X114673507Y-97553664D01*
X116535258Y-99415416D01*
X116559836Y-99445364D01*
X116589784Y-99469942D01*
X116589787Y-99469945D01*
X116606565Y-99483714D01*
X116679367Y-99543462D01*
X116815740Y-99616354D01*
X116963713Y-99661241D01*
X117079039Y-99672600D01*
X117079046Y-99672600D01*
X117117599Y-99676397D01*
X117156152Y-99672600D01*
X119142443Y-99672600D01*
X119635257Y-100165415D01*
X119659836Y-100195364D01*
X119689784Y-100219942D01*
X119689787Y-100219945D01*
X119699980Y-100228310D01*
X119779367Y-100293462D01*
X119911551Y-100364115D01*
X119915740Y-100366354D01*
X120063712Y-100411241D01*
X120078090Y-100412657D01*
X120179039Y-100422600D01*
X120179046Y-100422600D01*
X120217599Y-100426397D01*
X120256152Y-100422600D01*
X123468152Y-100422600D01*
X123468909Y-100534506D01*
X123367600Y-100524528D01*
X123149350Y-100527600D01*
X122990600Y-100686350D01*
X122990600Y-101814600D01*
X123010600Y-101814600D01*
X123010600Y-102260600D01*
X122990600Y-102260600D01*
X122990600Y-103388850D01*
X123149350Y-103547600D01*
X123367600Y-103550672D01*
X123489231Y-103538693D01*
X123490924Y-103788984D01*
X123493395Y-103813071D01*
X123500655Y-103836886D01*
X123512421Y-103858826D01*
X123528241Y-103878050D01*
X123547508Y-103893818D01*
X123557600Y-103899195D01*
X123557600Y-104425717D01*
X123551505Y-104487600D01*
X123557600Y-104549483D01*
X123557600Y-104549492D01*
X123575832Y-104734602D01*
X123621306Y-104884510D01*
X123647880Y-104972113D01*
X123764880Y-105191005D01*
X123797449Y-105230690D01*
X123922335Y-105382865D01*
X123970416Y-105422324D01*
X127175691Y-108627600D01*
X117241744Y-108627600D01*
X117640543Y-108548274D01*
X118191422Y-108320092D01*
X118687200Y-107988824D01*
X119108824Y-107567200D01*
X119440092Y-107071422D01*
X119668274Y-106520543D01*
X119784600Y-105935733D01*
X119784600Y-105339467D01*
X119668274Y-104754657D01*
X119440092Y-104203778D01*
X119108824Y-103708000D01*
X118687200Y-103286376D01*
X118191422Y-102955108D01*
X118088799Y-102912600D01*
X121529528Y-102912600D01*
X121541788Y-103037082D01*
X121578098Y-103156780D01*
X121637063Y-103267094D01*
X121716415Y-103363785D01*
X121813106Y-103443137D01*
X121923420Y-103502102D01*
X122043118Y-103538412D01*
X122167600Y-103550672D01*
X122385850Y-103547600D01*
X122544600Y-103388850D01*
X122544600Y-102260600D01*
X121691350Y-102260600D01*
X121532600Y-102419350D01*
X121529528Y-102912600D01*
X118088799Y-102912600D01*
X117640543Y-102726926D01*
X117055733Y-102610600D01*
X116459467Y-102610600D01*
X115874657Y-102726926D01*
X115323778Y-102955108D01*
X114828000Y-103286376D01*
X114406376Y-103708000D01*
X114075108Y-104203778D01*
X113902600Y-104620248D01*
X113902600Y-101162600D01*
X121529528Y-101162600D01*
X121532600Y-101655850D01*
X121691350Y-101814600D01*
X122544600Y-101814600D01*
X122544600Y-100686350D01*
X122385850Y-100527600D01*
X122167600Y-100524528D01*
X122043118Y-100536788D01*
X121923420Y-100573098D01*
X121813106Y-100632063D01*
X121716415Y-100711415D01*
X121637063Y-100808106D01*
X121578098Y-100918420D01*
X121541788Y-101038118D01*
X121529528Y-101162600D01*
X113902600Y-101162600D01*
X113902600Y-99792477D01*
X113906035Y-99757600D01*
X113892327Y-99618416D01*
X113851728Y-99484580D01*
X113785800Y-99361237D01*
X113697075Y-99253125D01*
X113588963Y-99164400D01*
X113465620Y-99098472D01*
X113331784Y-99057873D01*
X113227477Y-99047600D01*
X113192600Y-99044165D01*
X113157723Y-99047600D01*
X112325523Y-99047600D01*
X112315810Y-99039605D01*
X112293870Y-99027837D01*
X112270056Y-99020576D01*
X112245283Y-99018100D01*
X109893311Y-99014709D01*
X109848667Y-98996217D01*
X109629388Y-98952600D01*
X109405812Y-98952600D01*
X109186533Y-98996217D01*
X109144495Y-99013630D01*
X109090517Y-99013552D01*
X109048667Y-98996217D01*
X108829388Y-98952600D01*
X108605812Y-98952600D01*
X108386533Y-98996217D01*
X108347269Y-99012481D01*
X108305562Y-99012420D01*
X108266444Y-98996217D01*
X108047165Y-98952600D01*
X107823589Y-98952600D01*
X107604310Y-98996217D01*
X107567759Y-99011357D01*
X107521723Y-99011290D01*
X107485333Y-98996217D01*
X107266054Y-98952600D01*
X107064515Y-98952600D01*
X107073137Y-98942094D01*
X107132102Y-98831780D01*
X107168412Y-98712082D01*
X107180672Y-98587600D01*
X107177600Y-98269350D01*
X107018850Y-98110600D01*
X106253100Y-98110600D01*
X106253100Y-98130600D01*
X105807100Y-98130600D01*
X105807100Y-98110600D01*
X105787100Y-98110600D01*
X105787100Y-97664600D01*
X105807100Y-97664600D01*
X105807100Y-96726350D01*
X105819600Y-96713850D01*
X105819600Y-96010600D01*
X105799600Y-96010600D01*
X105799600Y-95564600D01*
X105819600Y-95564600D01*
X105819600Y-95544600D01*
X106265600Y-95544600D01*
X106265600Y-95564600D01*
G04 #@! TA.AperFunction,Conductor*
D25*
G36*
X106265600Y-95564600D02*
G01*
X106285600Y-95564600D01*
X106285600Y-96010600D01*
X106265600Y-96010600D01*
X106265600Y-96698850D01*
X106253100Y-96711350D01*
X106253100Y-97664600D01*
X107018850Y-97664600D01*
X107177600Y-97505850D01*
X107180672Y-97187600D01*
X107168412Y-97063118D01*
X107132102Y-96943420D01*
X107073137Y-96833106D01*
X106993785Y-96736415D01*
X106910673Y-96668207D01*
X106973137Y-96592094D01*
X107032102Y-96481780D01*
X107068412Y-96362082D01*
X107080672Y-96237600D01*
X107077600Y-96169350D01*
X106918852Y-96010602D01*
X107077600Y-96010602D01*
X107077600Y-95849179D01*
X107404528Y-96176107D01*
X107404528Y-96707601D01*
X107421592Y-96880855D01*
X107472128Y-97047451D01*
X107554195Y-97200987D01*
X107664638Y-97335562D01*
X107799213Y-97446005D01*
X107952749Y-97528072D01*
X108119345Y-97578608D01*
X108292599Y-97595672D01*
X108817601Y-97595672D01*
X108990855Y-97578608D01*
X109157451Y-97528072D01*
X109310987Y-97446005D01*
X109445562Y-97335562D01*
X109467600Y-97308709D01*
X109489638Y-97335562D01*
X109624213Y-97446005D01*
X109777749Y-97528072D01*
X109944345Y-97578608D01*
X110117599Y-97595672D01*
X110642601Y-97595672D01*
X110815855Y-97578608D01*
X110982451Y-97528072D01*
X111135987Y-97446005D01*
X111270562Y-97335562D01*
X111272469Y-97333239D01*
X111312808Y-97382392D01*
X111446436Y-97492058D01*
X111598891Y-97573547D01*
X111764315Y-97623728D01*
X111936350Y-97640672D01*
X112423850Y-97640672D01*
X112595885Y-97623728D01*
X112761309Y-97573547D01*
X112913764Y-97492058D01*
X113047392Y-97382392D01*
X113117600Y-97296844D01*
X113187808Y-97382392D01*
X113321436Y-97492058D01*
X113473891Y-97573547D01*
X113639315Y-97623728D01*
X113811350Y-97640672D01*
X114298850Y-97640672D01*
X114470885Y-97623728D01*
X114636309Y-97573547D01*
X114673507Y-97553664D01*
X116535258Y-99415416D01*
X116559836Y-99445364D01*
X116589784Y-99469942D01*
X116589787Y-99469945D01*
X116606565Y-99483714D01*
X116679367Y-99543462D01*
X116815740Y-99616354D01*
X116963713Y-99661241D01*
X117079039Y-99672600D01*
X117079046Y-99672600D01*
X117117599Y-99676397D01*
X117156152Y-99672600D01*
X119142443Y-99672600D01*
X119635257Y-100165415D01*
X119659836Y-100195364D01*
X119689784Y-100219942D01*
X119689787Y-100219945D01*
X119699980Y-100228310D01*
X119779367Y-100293462D01*
X119911551Y-100364115D01*
X119915740Y-100366354D01*
X120063712Y-100411241D01*
X120078090Y-100412657D01*
X120179039Y-100422600D01*
X120179046Y-100422600D01*
X120217599Y-100426397D01*
X120256152Y-100422600D01*
X123468152Y-100422600D01*
X123468909Y-100534506D01*
X123367600Y-100524528D01*
X123149350Y-100527600D01*
X122990600Y-100686350D01*
X122990600Y-101814600D01*
X123010600Y-101814600D01*
X123010600Y-102260600D01*
X122990600Y-102260600D01*
X122990600Y-103388850D01*
X123149350Y-103547600D01*
X123367600Y-103550672D01*
X123489231Y-103538693D01*
X123490924Y-103788984D01*
X123493395Y-103813071D01*
X123500655Y-103836886D01*
X123512421Y-103858826D01*
X123528241Y-103878050D01*
X123547508Y-103893818D01*
X123557600Y-103899195D01*
X123557600Y-104425717D01*
X123551505Y-104487600D01*
X123557600Y-104549483D01*
X123557600Y-104549492D01*
X123575832Y-104734602D01*
X123621306Y-104884510D01*
X123647880Y-104972113D01*
X123764880Y-105191005D01*
X123797449Y-105230690D01*
X123922335Y-105382865D01*
X123970416Y-105422324D01*
X127175691Y-108627600D01*
X117241744Y-108627600D01*
X117640543Y-108548274D01*
X118191422Y-108320092D01*
X118687200Y-107988824D01*
X119108824Y-107567200D01*
X119440092Y-107071422D01*
X119668274Y-106520543D01*
X119784600Y-105935733D01*
X119784600Y-105339467D01*
X119668274Y-104754657D01*
X119440092Y-104203778D01*
X119108824Y-103708000D01*
X118687200Y-103286376D01*
X118191422Y-102955108D01*
X118088799Y-102912600D01*
X121529528Y-102912600D01*
X121541788Y-103037082D01*
X121578098Y-103156780D01*
X121637063Y-103267094D01*
X121716415Y-103363785D01*
X121813106Y-103443137D01*
X121923420Y-103502102D01*
X122043118Y-103538412D01*
X122167600Y-103550672D01*
X122385850Y-103547600D01*
X122544600Y-103388850D01*
X122544600Y-102260600D01*
X121691350Y-102260600D01*
X121532600Y-102419350D01*
X121529528Y-102912600D01*
X118088799Y-102912600D01*
X117640543Y-102726926D01*
X117055733Y-102610600D01*
X116459467Y-102610600D01*
X115874657Y-102726926D01*
X115323778Y-102955108D01*
X114828000Y-103286376D01*
X114406376Y-103708000D01*
X114075108Y-104203778D01*
X113902600Y-104620248D01*
X113902600Y-101162600D01*
X121529528Y-101162600D01*
X121532600Y-101655850D01*
X121691350Y-101814600D01*
X122544600Y-101814600D01*
X122544600Y-100686350D01*
X122385850Y-100527600D01*
X122167600Y-100524528D01*
X122043118Y-100536788D01*
X121923420Y-100573098D01*
X121813106Y-100632063D01*
X121716415Y-100711415D01*
X121637063Y-100808106D01*
X121578098Y-100918420D01*
X121541788Y-101038118D01*
X121529528Y-101162600D01*
X113902600Y-101162600D01*
X113902600Y-99792477D01*
X113906035Y-99757600D01*
X113892327Y-99618416D01*
X113851728Y-99484580D01*
X113785800Y-99361237D01*
X113697075Y-99253125D01*
X113588963Y-99164400D01*
X113465620Y-99098472D01*
X113331784Y-99057873D01*
X113227477Y-99047600D01*
X113192600Y-99044165D01*
X113157723Y-99047600D01*
X112325523Y-99047600D01*
X112315810Y-99039605D01*
X112293870Y-99027837D01*
X112270056Y-99020576D01*
X112245283Y-99018100D01*
X109893311Y-99014709D01*
X109848667Y-98996217D01*
X109629388Y-98952600D01*
X109405812Y-98952600D01*
X109186533Y-98996217D01*
X109144495Y-99013630D01*
X109090517Y-99013552D01*
X109048667Y-98996217D01*
X108829388Y-98952600D01*
X108605812Y-98952600D01*
X108386533Y-98996217D01*
X108347269Y-99012481D01*
X108305562Y-99012420D01*
X108266444Y-98996217D01*
X108047165Y-98952600D01*
X107823589Y-98952600D01*
X107604310Y-98996217D01*
X107567759Y-99011357D01*
X107521723Y-99011290D01*
X107485333Y-98996217D01*
X107266054Y-98952600D01*
X107064515Y-98952600D01*
X107073137Y-98942094D01*
X107132102Y-98831780D01*
X107168412Y-98712082D01*
X107180672Y-98587600D01*
X107177600Y-98269350D01*
X107018850Y-98110600D01*
X106253100Y-98110600D01*
X106253100Y-98130600D01*
X105807100Y-98130600D01*
X105807100Y-98110600D01*
X105787100Y-98110600D01*
X105787100Y-97664600D01*
X105807100Y-97664600D01*
X105807100Y-96726350D01*
X105819600Y-96713850D01*
X105819600Y-96010600D01*
X105799600Y-96010600D01*
X105799600Y-95564600D01*
X105819600Y-95564600D01*
X105819600Y-95544600D01*
X106265600Y-95544600D01*
X106265600Y-95564600D01*
G37*
G04 #@! TD.AperFunction*
D24*
X130978100Y-70439600D02*
X130998100Y-70439600D01*
X130998100Y-70885600D01*
X130978100Y-70885600D01*
X130978100Y-71838850D01*
X131001850Y-71862600D01*
X130978100Y-71886350D01*
X130978100Y-72839600D01*
X130998100Y-72839600D01*
X130998100Y-73285600D01*
X130978100Y-73285600D01*
X130978100Y-74238850D01*
X131136850Y-74397600D01*
X131221927Y-74399599D01*
X131209942Y-102372382D01*
X131190855Y-102366592D01*
X131017601Y-102349528D01*
X130952600Y-102349528D01*
X130952600Y-98655626D01*
X130959300Y-98587599D01*
X130952600Y-98519572D01*
X130952600Y-98519563D01*
X130932560Y-98316093D01*
X130853364Y-98055019D01*
X130724757Y-97814412D01*
X130615416Y-97681180D01*
X130595052Y-97656366D01*
X130595050Y-97656364D01*
X130551681Y-97603519D01*
X130498836Y-97560150D01*
X129766298Y-96827613D01*
X129871537Y-96722374D01*
X129984805Y-96552856D01*
X130062826Y-96364498D01*
X130102600Y-96164539D01*
X130102600Y-95960661D01*
X130062826Y-95760702D01*
X129984805Y-95572344D01*
X129871537Y-95402826D01*
X129727374Y-95258663D01*
X129557856Y-95145395D01*
X129369498Y-95067374D01*
X129169539Y-95027600D01*
X128965661Y-95027600D01*
X128765702Y-95067374D01*
X128577344Y-95145395D01*
X128407826Y-95258663D01*
X128263663Y-95402826D01*
X128150395Y-95572344D01*
X128117705Y-95651265D01*
X128111780Y-95648098D01*
X128027600Y-95622562D01*
X128027600Y-95605637D01*
X128034301Y-95537600D01*
X128024296Y-95436012D01*
X128007560Y-95266093D01*
X127928364Y-95005019D01*
X127799757Y-94764412D01*
X127776344Y-94735883D01*
X127670052Y-94606366D01*
X127670045Y-94606359D01*
X127626680Y-94553519D01*
X127573841Y-94510155D01*
X125552600Y-92488915D01*
X125552600Y-89393126D01*
X125559300Y-89325099D01*
X125552600Y-89257073D01*
X125552600Y-89257063D01*
X125532560Y-89053593D01*
X125453364Y-88792519D01*
X125324757Y-88551912D01*
X125280672Y-88498195D01*
X125280672Y-88112600D01*
X125263608Y-87939346D01*
X125213072Y-87772750D01*
X125131005Y-87619214D01*
X125020562Y-87484638D01*
X124885986Y-87374195D01*
X124732450Y-87292128D01*
X124565854Y-87241592D01*
X124392600Y-87224528D01*
X123667600Y-87224528D01*
X123494346Y-87241592D01*
X123327750Y-87292128D01*
X123174214Y-87374195D01*
X123039638Y-87484638D01*
X122929195Y-87619214D01*
X122847128Y-87772750D01*
X122796592Y-87939346D01*
X122779528Y-88112600D01*
X122779528Y-88589181D01*
X122744336Y-88655020D01*
X122693487Y-88822648D01*
X122665140Y-88916094D01*
X122645100Y-89119564D01*
X122645100Y-89119571D01*
X122638400Y-89187600D01*
X122645100Y-89255629D01*
X122645100Y-90101414D01*
X122368905Y-90377610D01*
X120644345Y-90377610D01*
X120655672Y-90262600D01*
X120655672Y-88112600D01*
X120638608Y-87939346D01*
X120588072Y-87772750D01*
X120540100Y-87683001D01*
X120540100Y-85020765D01*
X120588608Y-84860854D01*
X120605672Y-84687600D01*
X120605672Y-82537600D01*
X120588608Y-82364346D01*
X120538072Y-82197750D01*
X120456005Y-82044214D01*
X120345562Y-81909638D01*
X120210986Y-81799195D01*
X120057450Y-81717128D01*
X119890854Y-81666592D01*
X119717600Y-81649528D01*
X118992600Y-81649528D01*
X118819346Y-81666592D01*
X118652750Y-81717128D01*
X118499214Y-81799195D01*
X118364638Y-81909638D01*
X118254195Y-82044214D01*
X118172128Y-82197750D01*
X118142600Y-82295091D01*
X118113072Y-82197750D01*
X118031005Y-82044214D01*
X117920562Y-81909638D01*
X117785986Y-81799195D01*
X117632450Y-81717128D01*
X117465854Y-81666592D01*
X117292600Y-81649528D01*
X116701272Y-81649528D01*
X116713072Y-81627451D01*
X116763608Y-81460855D01*
X116780672Y-81287601D01*
X116780672Y-80387599D01*
X116763608Y-80214345D01*
X116713072Y-80047749D01*
X116687909Y-80000672D01*
X117292600Y-80000672D01*
X117465854Y-79983608D01*
X117632450Y-79933072D01*
X117785986Y-79851005D01*
X117920562Y-79740562D01*
X118031005Y-79605986D01*
X118113072Y-79452450D01*
X118135016Y-79380109D01*
X118172128Y-79502450D01*
X118254195Y-79655986D01*
X118364638Y-79790562D01*
X118499214Y-79901005D01*
X118652750Y-79983072D01*
X118819346Y-80033608D01*
X118992600Y-80050672D01*
X119717600Y-80050672D01*
X119890854Y-80033608D01*
X120057450Y-79983072D01*
X120210986Y-79901005D01*
X120345562Y-79790562D01*
X120456005Y-79655986D01*
X120538072Y-79502450D01*
X120588608Y-79335854D01*
X120605672Y-79162600D01*
X120605672Y-77012600D01*
X122729528Y-77012600D01*
X122729528Y-79162600D01*
X122746592Y-79335854D01*
X122797128Y-79502450D01*
X122845100Y-79592199D01*
X122845101Y-82108000D01*
X122797128Y-82197750D01*
X122746592Y-82364346D01*
X122729528Y-82537600D01*
X122729528Y-84687600D01*
X122746592Y-84860854D01*
X122797128Y-85027450D01*
X122879195Y-85180986D01*
X122989638Y-85315562D01*
X123124214Y-85426005D01*
X123277750Y-85508072D01*
X123444346Y-85558608D01*
X123617600Y-85575672D01*
X124342600Y-85575672D01*
X124515854Y-85558608D01*
X124682450Y-85508072D01*
X124835986Y-85426005D01*
X124970562Y-85315562D01*
X125081005Y-85180986D01*
X125163072Y-85027450D01*
X125213608Y-84860854D01*
X125230672Y-84687600D01*
X125230672Y-82537600D01*
X125213608Y-82364346D01*
X125163072Y-82197750D01*
X125115100Y-82108001D01*
X125115100Y-79592199D01*
X125163072Y-79502450D01*
X125213608Y-79335854D01*
X125230672Y-79162600D01*
X125230672Y-77012600D01*
X125213608Y-76839346D01*
X125163072Y-76672750D01*
X125081005Y-76519214D01*
X124970562Y-76384638D01*
X124835986Y-76274195D01*
X124682450Y-76192128D01*
X124515854Y-76141592D01*
X124342600Y-76124528D01*
X123617600Y-76124528D01*
X123444346Y-76141592D01*
X123277750Y-76192128D01*
X123124214Y-76274195D01*
X122989638Y-76384638D01*
X122879195Y-76519214D01*
X122797128Y-76672750D01*
X122746592Y-76839346D01*
X122729528Y-77012600D01*
X120605672Y-77012600D01*
X120588608Y-76839346D01*
X120538072Y-76672750D01*
X120456005Y-76519214D01*
X120345562Y-76384638D01*
X120210986Y-76274195D01*
X120057450Y-76192128D01*
X119890854Y-76141592D01*
X119717600Y-76124528D01*
X118992600Y-76124528D01*
X118819346Y-76141592D01*
X118652750Y-76192128D01*
X118499214Y-76274195D01*
X118364638Y-76384638D01*
X118254195Y-76519214D01*
X118172128Y-76672750D01*
X118150184Y-76745091D01*
X118113072Y-76622750D01*
X118031005Y-76469214D01*
X117920562Y-76334638D01*
X117785986Y-76224195D01*
X117632450Y-76142128D01*
X117465854Y-76091592D01*
X117292600Y-76074528D01*
X116572160Y-76074528D01*
X115447086Y-74949454D01*
X115411539Y-74906141D01*
X115382854Y-74882600D01*
X122575402Y-74882600D01*
X122620531Y-74885531D01*
X122676076Y-74878185D01*
X122731883Y-74872688D01*
X122742897Y-74869347D01*
X122754298Y-74867839D01*
X122807343Y-74849798D01*
X122861006Y-74833519D01*
X122871157Y-74828093D01*
X122882045Y-74824390D01*
X122930553Y-74796345D01*
X122980007Y-74769912D01*
X122988903Y-74762611D01*
X122998861Y-74756854D01*
X123040966Y-74719884D01*
X123084311Y-74684311D01*
X123091614Y-74675412D01*
X123100255Y-74667825D01*
X123134336Y-74623357D01*
X123169912Y-74580007D01*
X123175337Y-74569858D01*
X123182334Y-74560728D01*
X123207092Y-74510447D01*
X123233519Y-74461006D01*
X123236859Y-74449994D01*
X123241941Y-74439674D01*
X123256411Y-74385542D01*
X123272688Y-74331883D01*
X123273816Y-74320426D01*
X123276786Y-74309317D01*
X123280417Y-74253409D01*
X123285914Y-74197600D01*
X123281479Y-74152569D01*
X123263722Y-73619859D01*
X123265914Y-73597600D01*
X123261478Y-73552566D01*
X123261098Y-73541152D01*
X123258185Y-73519125D01*
X123252688Y-73463317D01*
X123249347Y-73452303D01*
X123247839Y-73440902D01*
X123229798Y-73387857D01*
X123213519Y-73334194D01*
X123208093Y-73324043D01*
X123204390Y-73313155D01*
X123176345Y-73264647D01*
X123149912Y-73215193D01*
X123142611Y-73206297D01*
X123136854Y-73196339D01*
X123119165Y-73176193D01*
X123962758Y-72332600D01*
X124055087Y-72332600D01*
X124079771Y-72352858D01*
X124216018Y-72425684D01*
X124363855Y-72470529D01*
X124517600Y-72485672D01*
X125805515Y-72485672D01*
X126910253Y-73590410D01*
X126934836Y-73620364D01*
X127054367Y-73718462D01*
X127160331Y-73775100D01*
X127190740Y-73791354D01*
X127338713Y-73836242D01*
X127413626Y-73843620D01*
X127432600Y-73845488D01*
X127432601Y-77374528D01*
X127167599Y-77374528D01*
X126994345Y-77391592D01*
X126827749Y-77442128D01*
X126674213Y-77524195D01*
X126539638Y-77634638D01*
X126429195Y-77769213D01*
X126347128Y-77922749D01*
X126296592Y-78089345D01*
X126279528Y-78262599D01*
X126279528Y-79512601D01*
X126296592Y-79685855D01*
X126347128Y-79852451D01*
X126429195Y-80005987D01*
X126539638Y-80140562D01*
X126674213Y-80251005D01*
X126827749Y-80333072D01*
X126994345Y-80383608D01*
X127167599Y-80400672D01*
X127867601Y-80400672D01*
X128040855Y-80383608D01*
X128207451Y-80333072D01*
X128360987Y-80251005D01*
X128495562Y-80140562D01*
X128606005Y-80005987D01*
X128608410Y-80001488D01*
X128640099Y-80040102D01*
X128828152Y-80194433D01*
X129042700Y-80309111D01*
X129275499Y-80379730D01*
X129517600Y-80403575D01*
X129759702Y-80379730D01*
X129992501Y-80309111D01*
X130207049Y-80194433D01*
X130395102Y-80040102D01*
X130549433Y-79852049D01*
X130664111Y-79637500D01*
X130734730Y-79404701D01*
X130752600Y-79223264D01*
X130752600Y-78551935D01*
X130734730Y-78370498D01*
X130664111Y-78137699D01*
X130549433Y-77923151D01*
X130395102Y-77735098D01*
X130207048Y-77580767D01*
X129992500Y-77466089D01*
X129759701Y-77395470D01*
X129517600Y-77371625D01*
X129275498Y-77395470D01*
X129042699Y-77466089D01*
X129002600Y-77487522D01*
X129002600Y-74400672D01*
X129192601Y-74400672D01*
X129365855Y-74383608D01*
X129532451Y-74333072D01*
X129685987Y-74251005D01*
X129767237Y-74184324D01*
X129791415Y-74213785D01*
X129888106Y-74293137D01*
X129998420Y-74352102D01*
X130118118Y-74388412D01*
X130242600Y-74400672D01*
X130373350Y-74397600D01*
X130532100Y-74238850D01*
X130532100Y-73285600D01*
X130512100Y-73285600D01*
X130512100Y-72839600D01*
X130532100Y-72839600D01*
X130532100Y-71886350D01*
X130508350Y-71862600D01*
X130532100Y-71838850D01*
X130532100Y-70885600D01*
X130512100Y-70885600D01*
X130512100Y-70439600D01*
X130532100Y-70439600D01*
X130532100Y-70419600D01*
X130978100Y-70419600D01*
X130978100Y-70439600D01*
G04 #@! TA.AperFunction,Conductor*
D25*
G36*
X130978100Y-70439600D02*
G01*
X130998100Y-70439600D01*
X130998100Y-70885600D01*
X130978100Y-70885600D01*
X130978100Y-71838850D01*
X131001850Y-71862600D01*
X130978100Y-71886350D01*
X130978100Y-72839600D01*
X130998100Y-72839600D01*
X130998100Y-73285600D01*
X130978100Y-73285600D01*
X130978100Y-74238850D01*
X131136850Y-74397600D01*
X131221927Y-74399599D01*
X131209942Y-102372382D01*
X131190855Y-102366592D01*
X131017601Y-102349528D01*
X130952600Y-102349528D01*
X130952600Y-98655626D01*
X130959300Y-98587599D01*
X130952600Y-98519572D01*
X130952600Y-98519563D01*
X130932560Y-98316093D01*
X130853364Y-98055019D01*
X130724757Y-97814412D01*
X130615416Y-97681180D01*
X130595052Y-97656366D01*
X130595050Y-97656364D01*
X130551681Y-97603519D01*
X130498836Y-97560150D01*
X129766298Y-96827613D01*
X129871537Y-96722374D01*
X129984805Y-96552856D01*
X130062826Y-96364498D01*
X130102600Y-96164539D01*
X130102600Y-95960661D01*
X130062826Y-95760702D01*
X129984805Y-95572344D01*
X129871537Y-95402826D01*
X129727374Y-95258663D01*
X129557856Y-95145395D01*
X129369498Y-95067374D01*
X129169539Y-95027600D01*
X128965661Y-95027600D01*
X128765702Y-95067374D01*
X128577344Y-95145395D01*
X128407826Y-95258663D01*
X128263663Y-95402826D01*
X128150395Y-95572344D01*
X128117705Y-95651265D01*
X128111780Y-95648098D01*
X128027600Y-95622562D01*
X128027600Y-95605637D01*
X128034301Y-95537600D01*
X128024296Y-95436012D01*
X128007560Y-95266093D01*
X127928364Y-95005019D01*
X127799757Y-94764412D01*
X127776344Y-94735883D01*
X127670052Y-94606366D01*
X127670045Y-94606359D01*
X127626680Y-94553519D01*
X127573841Y-94510155D01*
X125552600Y-92488915D01*
X125552600Y-89393126D01*
X125559300Y-89325099D01*
X125552600Y-89257073D01*
X125552600Y-89257063D01*
X125532560Y-89053593D01*
X125453364Y-88792519D01*
X125324757Y-88551912D01*
X125280672Y-88498195D01*
X125280672Y-88112600D01*
X125263608Y-87939346D01*
X125213072Y-87772750D01*
X125131005Y-87619214D01*
X125020562Y-87484638D01*
X124885986Y-87374195D01*
X124732450Y-87292128D01*
X124565854Y-87241592D01*
X124392600Y-87224528D01*
X123667600Y-87224528D01*
X123494346Y-87241592D01*
X123327750Y-87292128D01*
X123174214Y-87374195D01*
X123039638Y-87484638D01*
X122929195Y-87619214D01*
X122847128Y-87772750D01*
X122796592Y-87939346D01*
X122779528Y-88112600D01*
X122779528Y-88589181D01*
X122744336Y-88655020D01*
X122693487Y-88822648D01*
X122665140Y-88916094D01*
X122645100Y-89119564D01*
X122645100Y-89119571D01*
X122638400Y-89187600D01*
X122645100Y-89255629D01*
X122645100Y-90101414D01*
X122368905Y-90377610D01*
X120644345Y-90377610D01*
X120655672Y-90262600D01*
X120655672Y-88112600D01*
X120638608Y-87939346D01*
X120588072Y-87772750D01*
X120540100Y-87683001D01*
X120540100Y-85020765D01*
X120588608Y-84860854D01*
X120605672Y-84687600D01*
X120605672Y-82537600D01*
X120588608Y-82364346D01*
X120538072Y-82197750D01*
X120456005Y-82044214D01*
X120345562Y-81909638D01*
X120210986Y-81799195D01*
X120057450Y-81717128D01*
X119890854Y-81666592D01*
X119717600Y-81649528D01*
X118992600Y-81649528D01*
X118819346Y-81666592D01*
X118652750Y-81717128D01*
X118499214Y-81799195D01*
X118364638Y-81909638D01*
X118254195Y-82044214D01*
X118172128Y-82197750D01*
X118142600Y-82295091D01*
X118113072Y-82197750D01*
X118031005Y-82044214D01*
X117920562Y-81909638D01*
X117785986Y-81799195D01*
X117632450Y-81717128D01*
X117465854Y-81666592D01*
X117292600Y-81649528D01*
X116701272Y-81649528D01*
X116713072Y-81627451D01*
X116763608Y-81460855D01*
X116780672Y-81287601D01*
X116780672Y-80387599D01*
X116763608Y-80214345D01*
X116713072Y-80047749D01*
X116687909Y-80000672D01*
X117292600Y-80000672D01*
X117465854Y-79983608D01*
X117632450Y-79933072D01*
X117785986Y-79851005D01*
X117920562Y-79740562D01*
X118031005Y-79605986D01*
X118113072Y-79452450D01*
X118135016Y-79380109D01*
X118172128Y-79502450D01*
X118254195Y-79655986D01*
X118364638Y-79790562D01*
X118499214Y-79901005D01*
X118652750Y-79983072D01*
X118819346Y-80033608D01*
X118992600Y-80050672D01*
X119717600Y-80050672D01*
X119890854Y-80033608D01*
X120057450Y-79983072D01*
X120210986Y-79901005D01*
X120345562Y-79790562D01*
X120456005Y-79655986D01*
X120538072Y-79502450D01*
X120588608Y-79335854D01*
X120605672Y-79162600D01*
X120605672Y-77012600D01*
X122729528Y-77012600D01*
X122729528Y-79162600D01*
X122746592Y-79335854D01*
X122797128Y-79502450D01*
X122845100Y-79592199D01*
X122845101Y-82108000D01*
X122797128Y-82197750D01*
X122746592Y-82364346D01*
X122729528Y-82537600D01*
X122729528Y-84687600D01*
X122746592Y-84860854D01*
X122797128Y-85027450D01*
X122879195Y-85180986D01*
X122989638Y-85315562D01*
X123124214Y-85426005D01*
X123277750Y-85508072D01*
X123444346Y-85558608D01*
X123617600Y-85575672D01*
X124342600Y-85575672D01*
X124515854Y-85558608D01*
X124682450Y-85508072D01*
X124835986Y-85426005D01*
X124970562Y-85315562D01*
X125081005Y-85180986D01*
X125163072Y-85027450D01*
X125213608Y-84860854D01*
X125230672Y-84687600D01*
X125230672Y-82537600D01*
X125213608Y-82364346D01*
X125163072Y-82197750D01*
X125115100Y-82108001D01*
X125115100Y-79592199D01*
X125163072Y-79502450D01*
X125213608Y-79335854D01*
X125230672Y-79162600D01*
X125230672Y-77012600D01*
X125213608Y-76839346D01*
X125163072Y-76672750D01*
X125081005Y-76519214D01*
X124970562Y-76384638D01*
X124835986Y-76274195D01*
X124682450Y-76192128D01*
X124515854Y-76141592D01*
X124342600Y-76124528D01*
X123617600Y-76124528D01*
X123444346Y-76141592D01*
X123277750Y-76192128D01*
X123124214Y-76274195D01*
X122989638Y-76384638D01*
X122879195Y-76519214D01*
X122797128Y-76672750D01*
X122746592Y-76839346D01*
X122729528Y-77012600D01*
X120605672Y-77012600D01*
X120588608Y-76839346D01*
X120538072Y-76672750D01*
X120456005Y-76519214D01*
X120345562Y-76384638D01*
X120210986Y-76274195D01*
X120057450Y-76192128D01*
X119890854Y-76141592D01*
X119717600Y-76124528D01*
X118992600Y-76124528D01*
X118819346Y-76141592D01*
X118652750Y-76192128D01*
X118499214Y-76274195D01*
X118364638Y-76384638D01*
X118254195Y-76519214D01*
X118172128Y-76672750D01*
X118150184Y-76745091D01*
X118113072Y-76622750D01*
X118031005Y-76469214D01*
X117920562Y-76334638D01*
X117785986Y-76224195D01*
X117632450Y-76142128D01*
X117465854Y-76091592D01*
X117292600Y-76074528D01*
X116572160Y-76074528D01*
X115447086Y-74949454D01*
X115411539Y-74906141D01*
X115382854Y-74882600D01*
X122575402Y-74882600D01*
X122620531Y-74885531D01*
X122676076Y-74878185D01*
X122731883Y-74872688D01*
X122742897Y-74869347D01*
X122754298Y-74867839D01*
X122807343Y-74849798D01*
X122861006Y-74833519D01*
X122871157Y-74828093D01*
X122882045Y-74824390D01*
X122930553Y-74796345D01*
X122980007Y-74769912D01*
X122988903Y-74762611D01*
X122998861Y-74756854D01*
X123040966Y-74719884D01*
X123084311Y-74684311D01*
X123091614Y-74675412D01*
X123100255Y-74667825D01*
X123134336Y-74623357D01*
X123169912Y-74580007D01*
X123175337Y-74569858D01*
X123182334Y-74560728D01*
X123207092Y-74510447D01*
X123233519Y-74461006D01*
X123236859Y-74449994D01*
X123241941Y-74439674D01*
X123256411Y-74385542D01*
X123272688Y-74331883D01*
X123273816Y-74320426D01*
X123276786Y-74309317D01*
X123280417Y-74253409D01*
X123285914Y-74197600D01*
X123281479Y-74152569D01*
X123263722Y-73619859D01*
X123265914Y-73597600D01*
X123261478Y-73552566D01*
X123261098Y-73541152D01*
X123258185Y-73519125D01*
X123252688Y-73463317D01*
X123249347Y-73452303D01*
X123247839Y-73440902D01*
X123229798Y-73387857D01*
X123213519Y-73334194D01*
X123208093Y-73324043D01*
X123204390Y-73313155D01*
X123176345Y-73264647D01*
X123149912Y-73215193D01*
X123142611Y-73206297D01*
X123136854Y-73196339D01*
X123119165Y-73176193D01*
X123962758Y-72332600D01*
X124055087Y-72332600D01*
X124079771Y-72352858D01*
X124216018Y-72425684D01*
X124363855Y-72470529D01*
X124517600Y-72485672D01*
X125805515Y-72485672D01*
X126910253Y-73590410D01*
X126934836Y-73620364D01*
X127054367Y-73718462D01*
X127160331Y-73775100D01*
X127190740Y-73791354D01*
X127338713Y-73836242D01*
X127413626Y-73843620D01*
X127432600Y-73845488D01*
X127432601Y-77374528D01*
X127167599Y-77374528D01*
X126994345Y-77391592D01*
X126827749Y-77442128D01*
X126674213Y-77524195D01*
X126539638Y-77634638D01*
X126429195Y-77769213D01*
X126347128Y-77922749D01*
X126296592Y-78089345D01*
X126279528Y-78262599D01*
X126279528Y-79512601D01*
X126296592Y-79685855D01*
X126347128Y-79852451D01*
X126429195Y-80005987D01*
X126539638Y-80140562D01*
X126674213Y-80251005D01*
X126827749Y-80333072D01*
X126994345Y-80383608D01*
X127167599Y-80400672D01*
X127867601Y-80400672D01*
X128040855Y-80383608D01*
X128207451Y-80333072D01*
X128360987Y-80251005D01*
X128495562Y-80140562D01*
X128606005Y-80005987D01*
X128608410Y-80001488D01*
X128640099Y-80040102D01*
X128828152Y-80194433D01*
X129042700Y-80309111D01*
X129275499Y-80379730D01*
X129517600Y-80403575D01*
X129759702Y-80379730D01*
X129992501Y-80309111D01*
X130207049Y-80194433D01*
X130395102Y-80040102D01*
X130549433Y-79852049D01*
X130664111Y-79637500D01*
X130734730Y-79404701D01*
X130752600Y-79223264D01*
X130752600Y-78551935D01*
X130734730Y-78370498D01*
X130664111Y-78137699D01*
X130549433Y-77923151D01*
X130395102Y-77735098D01*
X130207048Y-77580767D01*
X129992500Y-77466089D01*
X129759701Y-77395470D01*
X129517600Y-77371625D01*
X129275498Y-77395470D01*
X129042699Y-77466089D01*
X129002600Y-77487522D01*
X129002600Y-74400672D01*
X129192601Y-74400672D01*
X129365855Y-74383608D01*
X129532451Y-74333072D01*
X129685987Y-74251005D01*
X129767237Y-74184324D01*
X129791415Y-74213785D01*
X129888106Y-74293137D01*
X129998420Y-74352102D01*
X130118118Y-74388412D01*
X130242600Y-74400672D01*
X130373350Y-74397600D01*
X130532100Y-74238850D01*
X130532100Y-73285600D01*
X130512100Y-73285600D01*
X130512100Y-72839600D01*
X130532100Y-72839600D01*
X130532100Y-71886350D01*
X130508350Y-71862600D01*
X130532100Y-71838850D01*
X130532100Y-70885600D01*
X130512100Y-70885600D01*
X130512100Y-70439600D01*
X130532100Y-70439600D01*
X130532100Y-70419600D01*
X130978100Y-70419600D01*
X130978100Y-70439600D01*
G37*
G04 #@! TD.AperFunction*
D24*
X108629528Y-76962600D02*
X108629528Y-79112600D01*
X108646592Y-79285854D01*
X108697128Y-79452450D01*
X108745100Y-79542199D01*
X108745101Y-82108000D01*
X108697128Y-82197750D01*
X108646592Y-82364346D01*
X108629528Y-82537600D01*
X108629528Y-84687600D01*
X108646592Y-84860854D01*
X108697128Y-85027450D01*
X108779195Y-85180986D01*
X108889638Y-85315562D01*
X109024214Y-85426005D01*
X109177750Y-85508072D01*
X109344346Y-85558608D01*
X109517600Y-85575672D01*
X110242600Y-85575672D01*
X110415854Y-85558608D01*
X110582450Y-85508072D01*
X110735986Y-85426005D01*
X110870562Y-85315562D01*
X110981005Y-85180986D01*
X111063072Y-85027450D01*
X111092600Y-84930109D01*
X111122128Y-85027450D01*
X111204195Y-85180986D01*
X111314638Y-85315562D01*
X111449214Y-85426005D01*
X111602750Y-85508072D01*
X111769346Y-85558608D01*
X111942600Y-85575672D01*
X112667600Y-85575672D01*
X112840854Y-85558608D01*
X113007450Y-85508072D01*
X113160986Y-85426005D01*
X113295562Y-85315562D01*
X113406005Y-85180986D01*
X113488072Y-85027450D01*
X113538608Y-84860854D01*
X113555672Y-84687600D01*
X113555672Y-82537600D01*
X113538608Y-82364346D01*
X113488072Y-82197750D01*
X113472585Y-82168776D01*
X113542599Y-82175672D01*
X114067601Y-82175672D01*
X114240855Y-82158608D01*
X114407451Y-82108072D01*
X114560987Y-82026005D01*
X114695562Y-81915562D01*
X114717600Y-81888709D01*
X114739638Y-81915562D01*
X114874213Y-82026005D01*
X115027749Y-82108072D01*
X115194345Y-82158608D01*
X115367599Y-82175672D01*
X115758929Y-82175672D01*
X115747128Y-82197750D01*
X115696592Y-82364346D01*
X115679528Y-82537600D01*
X115679528Y-84687600D01*
X115696592Y-84860854D01*
X115747128Y-85027450D01*
X115795100Y-85117199D01*
X115795101Y-87729771D01*
X115772128Y-87772750D01*
X115721592Y-87939346D01*
X115704528Y-88112600D01*
X115704528Y-90262600D01*
X115715855Y-90377610D01*
X114816296Y-90377610D01*
X113715100Y-89276415D01*
X113715100Y-89255637D01*
X113721801Y-89187600D01*
X113695060Y-88916093D01*
X113615864Y-88655019D01*
X113580672Y-88589179D01*
X113580672Y-88112600D01*
X113563608Y-87939346D01*
X113513072Y-87772750D01*
X113431005Y-87619214D01*
X113320562Y-87484638D01*
X113185986Y-87374195D01*
X113032450Y-87292128D01*
X112865854Y-87241592D01*
X112692600Y-87224528D01*
X111967600Y-87224528D01*
X111794346Y-87241592D01*
X111627750Y-87292128D01*
X111474214Y-87374195D01*
X111339638Y-87484638D01*
X111229195Y-87619214D01*
X111147128Y-87772750D01*
X111138073Y-87802600D01*
X111072127Y-87802600D01*
X111063072Y-87772750D01*
X110981005Y-87619214D01*
X110870562Y-87484638D01*
X110735986Y-87374195D01*
X110582450Y-87292128D01*
X110415854Y-87241592D01*
X110242600Y-87224528D01*
X109517600Y-87224528D01*
X109344346Y-87241592D01*
X109177750Y-87292128D01*
X109024214Y-87374195D01*
X108889638Y-87484638D01*
X108779195Y-87619214D01*
X108697128Y-87772750D01*
X108646592Y-87939346D01*
X108629528Y-88112600D01*
X108629528Y-88589179D01*
X108594336Y-88655019D01*
X108515140Y-88916093D01*
X108488399Y-89187600D01*
X108515140Y-89459107D01*
X108594336Y-89720181D01*
X108629528Y-89786021D01*
X108629528Y-90262600D01*
X108646592Y-90435854D01*
X108697128Y-90602450D01*
X108779195Y-90755986D01*
X108889638Y-90890562D01*
X109024214Y-91001005D01*
X109177750Y-91083072D01*
X109344346Y-91133608D01*
X109517600Y-91150672D01*
X110242600Y-91150672D01*
X110415854Y-91133608D01*
X110582450Y-91083072D01*
X110735986Y-91001005D01*
X110870562Y-90890562D01*
X110981005Y-90755986D01*
X111063072Y-90602450D01*
X111072127Y-90572600D01*
X111138073Y-90572600D01*
X111147128Y-90602450D01*
X111229195Y-90755986D01*
X111339638Y-90890562D01*
X111474214Y-91001005D01*
X111577559Y-91056244D01*
X113215160Y-92693846D01*
X113258529Y-92746691D01*
X113311374Y-92790060D01*
X113311376Y-92790062D01*
X113443288Y-92898319D01*
X113469422Y-92919767D01*
X113710029Y-93048374D01*
X113971103Y-93127570D01*
X114174573Y-93147610D01*
X114174581Y-93147610D01*
X114242610Y-93154310D01*
X114310639Y-93147610D01*
X122784272Y-93147610D01*
X122802640Y-93334107D01*
X122881836Y-93595180D01*
X123010444Y-93835788D01*
X123140148Y-93993833D01*
X123140151Y-93993836D01*
X123183520Y-94046681D01*
X123236364Y-94090049D01*
X124925376Y-95779061D01*
X124916415Y-95786415D01*
X124837063Y-95883106D01*
X124778098Y-95993420D01*
X124741788Y-96113118D01*
X124729528Y-96237600D01*
X124729528Y-98537600D01*
X124741788Y-98662082D01*
X124778098Y-98781780D01*
X124815953Y-98852600D01*
X124119247Y-98852600D01*
X124157102Y-98781780D01*
X124193412Y-98662082D01*
X124205672Y-98537600D01*
X124202600Y-97769350D01*
X124043850Y-97610600D01*
X122540600Y-97610600D01*
X122540600Y-97630600D01*
X122094600Y-97630600D01*
X122094600Y-97610600D01*
X120591350Y-97610600D01*
X120432600Y-97769350D01*
X120429528Y-98537600D01*
X120441788Y-98662082D01*
X120478098Y-98781780D01*
X120485172Y-98795014D01*
X120049947Y-98359789D01*
X120025364Y-98329836D01*
X119905833Y-98231738D01*
X119769460Y-98158846D01*
X119621487Y-98113959D01*
X119506161Y-98102600D01*
X119506153Y-98102600D01*
X119467600Y-98098803D01*
X119429047Y-98102600D01*
X117442758Y-98102600D01*
X115577758Y-96237600D01*
X120429528Y-96237600D01*
X120432600Y-97005850D01*
X120591350Y-97164600D01*
X122094600Y-97164600D01*
X122094600Y-95761350D01*
X122540600Y-95761350D01*
X122540600Y-97164600D01*
X124043850Y-97164600D01*
X124202600Y-97005850D01*
X124205672Y-96237600D01*
X124193412Y-96113118D01*
X124157102Y-95993420D01*
X124098137Y-95883106D01*
X124018785Y-95786415D01*
X123922094Y-95707063D01*
X123811780Y-95648098D01*
X123692082Y-95611788D01*
X123567600Y-95599528D01*
X122699350Y-95602600D01*
X122540600Y-95761350D01*
X122094600Y-95761350D01*
X121935850Y-95602600D01*
X121067600Y-95599528D01*
X120943118Y-95611788D01*
X120823420Y-95648098D01*
X120713106Y-95707063D01*
X120616415Y-95786415D01*
X120537063Y-95883106D01*
X120478098Y-95993420D01*
X120441788Y-96113118D01*
X120429528Y-96237600D01*
X115577758Y-96237600D01*
X115180035Y-95839877D01*
X115163728Y-95674315D01*
X115113547Y-95508891D01*
X115032058Y-95356436D01*
X114922392Y-95222808D01*
X114788764Y-95113142D01*
X114636309Y-95031653D01*
X114470885Y-94981472D01*
X114298850Y-94964528D01*
X113811350Y-94964528D01*
X113639315Y-94981472D01*
X113473891Y-95031653D01*
X113321436Y-95113142D01*
X113187808Y-95222808D01*
X113117600Y-95308356D01*
X113047392Y-95222808D01*
X112913764Y-95113142D01*
X112761309Y-95031653D01*
X112595885Y-94981472D01*
X112423850Y-94964528D01*
X111936350Y-94964528D01*
X111764315Y-94981472D01*
X111598891Y-95031653D01*
X111446436Y-95113142D01*
X111312808Y-95222808D01*
X111309399Y-95226961D01*
X111270562Y-95179638D01*
X111135987Y-95069195D01*
X110982451Y-94987128D01*
X110815855Y-94936592D01*
X110642601Y-94919528D01*
X110117599Y-94919528D01*
X109944345Y-94936592D01*
X109777749Y-94987128D01*
X109624213Y-95069195D01*
X109489638Y-95179638D01*
X109467600Y-95206491D01*
X109445562Y-95179638D01*
X109310987Y-95069195D01*
X109157451Y-94987128D01*
X108990855Y-94936592D01*
X108817601Y-94919528D01*
X108651107Y-94919528D01*
X106924134Y-93192556D01*
X106896417Y-93158783D01*
X106761659Y-93048189D01*
X106607913Y-92966011D01*
X106441090Y-92915405D01*
X106311077Y-92902600D01*
X106311069Y-92902600D01*
X106267600Y-92898319D01*
X106224131Y-92902600D01*
X105957068Y-92902600D01*
X105943785Y-92886415D01*
X105847094Y-92807063D01*
X105736780Y-92748098D01*
X105624026Y-92713895D01*
X104452600Y-91542469D01*
X104452600Y-91029541D01*
X104552750Y-91083072D01*
X104719346Y-91133608D01*
X104892600Y-91150672D01*
X105617600Y-91150672D01*
X105790854Y-91133608D01*
X105957450Y-91083072D01*
X106110986Y-91001005D01*
X106245562Y-90890562D01*
X106356005Y-90755986D01*
X106438072Y-90602450D01*
X106488608Y-90435854D01*
X106505672Y-90262600D01*
X106505672Y-88112600D01*
X106488608Y-87939346D01*
X106438072Y-87772750D01*
X106390100Y-87683001D01*
X106390100Y-85117199D01*
X106438072Y-85027450D01*
X106488608Y-84860854D01*
X106505672Y-84687600D01*
X106505672Y-82537600D01*
X106488608Y-82364346D01*
X106438072Y-82197750D01*
X106356005Y-82044214D01*
X106245562Y-81909638D01*
X106110986Y-81799195D01*
X105957450Y-81717128D01*
X105790854Y-81666592D01*
X105617600Y-81649528D01*
X104892600Y-81649528D01*
X104719346Y-81666592D01*
X104552750Y-81717128D01*
X104452600Y-81770659D01*
X104452600Y-80445231D01*
X104897159Y-80000672D01*
X105617600Y-80000672D01*
X105790854Y-79983608D01*
X105957450Y-79933072D01*
X106110986Y-79851005D01*
X106245562Y-79740562D01*
X106356005Y-79605986D01*
X106438072Y-79452450D01*
X106488608Y-79285854D01*
X106505672Y-79112600D01*
X106505672Y-78392159D01*
X106709588Y-78188243D01*
X108050242Y-76847590D01*
X108640855Y-76847590D01*
X108629528Y-76962600D01*
G04 #@! TA.AperFunction,Conductor*
D25*
G36*
X108629528Y-76962600D02*
G01*
X108629528Y-79112600D01*
X108646592Y-79285854D01*
X108697128Y-79452450D01*
X108745100Y-79542199D01*
X108745101Y-82108000D01*
X108697128Y-82197750D01*
X108646592Y-82364346D01*
X108629528Y-82537600D01*
X108629528Y-84687600D01*
X108646592Y-84860854D01*
X108697128Y-85027450D01*
X108779195Y-85180986D01*
X108889638Y-85315562D01*
X109024214Y-85426005D01*
X109177750Y-85508072D01*
X109344346Y-85558608D01*
X109517600Y-85575672D01*
X110242600Y-85575672D01*
X110415854Y-85558608D01*
X110582450Y-85508072D01*
X110735986Y-85426005D01*
X110870562Y-85315562D01*
X110981005Y-85180986D01*
X111063072Y-85027450D01*
X111092600Y-84930109D01*
X111122128Y-85027450D01*
X111204195Y-85180986D01*
X111314638Y-85315562D01*
X111449214Y-85426005D01*
X111602750Y-85508072D01*
X111769346Y-85558608D01*
X111942600Y-85575672D01*
X112667600Y-85575672D01*
X112840854Y-85558608D01*
X113007450Y-85508072D01*
X113160986Y-85426005D01*
X113295562Y-85315562D01*
X113406005Y-85180986D01*
X113488072Y-85027450D01*
X113538608Y-84860854D01*
X113555672Y-84687600D01*
X113555672Y-82537600D01*
X113538608Y-82364346D01*
X113488072Y-82197750D01*
X113472585Y-82168776D01*
X113542599Y-82175672D01*
X114067601Y-82175672D01*
X114240855Y-82158608D01*
X114407451Y-82108072D01*
X114560987Y-82026005D01*
X114695562Y-81915562D01*
X114717600Y-81888709D01*
X114739638Y-81915562D01*
X114874213Y-82026005D01*
X115027749Y-82108072D01*
X115194345Y-82158608D01*
X115367599Y-82175672D01*
X115758929Y-82175672D01*
X115747128Y-82197750D01*
X115696592Y-82364346D01*
X115679528Y-82537600D01*
X115679528Y-84687600D01*
X115696592Y-84860854D01*
X115747128Y-85027450D01*
X115795100Y-85117199D01*
X115795101Y-87729771D01*
X115772128Y-87772750D01*
X115721592Y-87939346D01*
X115704528Y-88112600D01*
X115704528Y-90262600D01*
X115715855Y-90377610D01*
X114816296Y-90377610D01*
X113715100Y-89276415D01*
X113715100Y-89255637D01*
X113721801Y-89187600D01*
X113695060Y-88916093D01*
X113615864Y-88655019D01*
X113580672Y-88589179D01*
X113580672Y-88112600D01*
X113563608Y-87939346D01*
X113513072Y-87772750D01*
X113431005Y-87619214D01*
X113320562Y-87484638D01*
X113185986Y-87374195D01*
X113032450Y-87292128D01*
X112865854Y-87241592D01*
X112692600Y-87224528D01*
X111967600Y-87224528D01*
X111794346Y-87241592D01*
X111627750Y-87292128D01*
X111474214Y-87374195D01*
X111339638Y-87484638D01*
X111229195Y-87619214D01*
X111147128Y-87772750D01*
X111138073Y-87802600D01*
X111072127Y-87802600D01*
X111063072Y-87772750D01*
X110981005Y-87619214D01*
X110870562Y-87484638D01*
X110735986Y-87374195D01*
X110582450Y-87292128D01*
X110415854Y-87241592D01*
X110242600Y-87224528D01*
X109517600Y-87224528D01*
X109344346Y-87241592D01*
X109177750Y-87292128D01*
X109024214Y-87374195D01*
X108889638Y-87484638D01*
X108779195Y-87619214D01*
X108697128Y-87772750D01*
X108646592Y-87939346D01*
X108629528Y-88112600D01*
X108629528Y-88589179D01*
X108594336Y-88655019D01*
X108515140Y-88916093D01*
X108488399Y-89187600D01*
X108515140Y-89459107D01*
X108594336Y-89720181D01*
X108629528Y-89786021D01*
X108629528Y-90262600D01*
X108646592Y-90435854D01*
X108697128Y-90602450D01*
X108779195Y-90755986D01*
X108889638Y-90890562D01*
X109024214Y-91001005D01*
X109177750Y-91083072D01*
X109344346Y-91133608D01*
X109517600Y-91150672D01*
X110242600Y-91150672D01*
X110415854Y-91133608D01*
X110582450Y-91083072D01*
X110735986Y-91001005D01*
X110870562Y-90890562D01*
X110981005Y-90755986D01*
X111063072Y-90602450D01*
X111072127Y-90572600D01*
X111138073Y-90572600D01*
X111147128Y-90602450D01*
X111229195Y-90755986D01*
X111339638Y-90890562D01*
X111474214Y-91001005D01*
X111577559Y-91056244D01*
X113215160Y-92693846D01*
X113258529Y-92746691D01*
X113311374Y-92790060D01*
X113311376Y-92790062D01*
X113443288Y-92898319D01*
X113469422Y-92919767D01*
X113710029Y-93048374D01*
X113971103Y-93127570D01*
X114174573Y-93147610D01*
X114174581Y-93147610D01*
X114242610Y-93154310D01*
X114310639Y-93147610D01*
X122784272Y-93147610D01*
X122802640Y-93334107D01*
X122881836Y-93595180D01*
X123010444Y-93835788D01*
X123140148Y-93993833D01*
X123140151Y-93993836D01*
X123183520Y-94046681D01*
X123236364Y-94090049D01*
X124925376Y-95779061D01*
X124916415Y-95786415D01*
X124837063Y-95883106D01*
X124778098Y-95993420D01*
X124741788Y-96113118D01*
X124729528Y-96237600D01*
X124729528Y-98537600D01*
X124741788Y-98662082D01*
X124778098Y-98781780D01*
X124815953Y-98852600D01*
X124119247Y-98852600D01*
X124157102Y-98781780D01*
X124193412Y-98662082D01*
X124205672Y-98537600D01*
X124202600Y-97769350D01*
X124043850Y-97610600D01*
X122540600Y-97610600D01*
X122540600Y-97630600D01*
X122094600Y-97630600D01*
X122094600Y-97610600D01*
X120591350Y-97610600D01*
X120432600Y-97769350D01*
X120429528Y-98537600D01*
X120441788Y-98662082D01*
X120478098Y-98781780D01*
X120485172Y-98795014D01*
X120049947Y-98359789D01*
X120025364Y-98329836D01*
X119905833Y-98231738D01*
X119769460Y-98158846D01*
X119621487Y-98113959D01*
X119506161Y-98102600D01*
X119506153Y-98102600D01*
X119467600Y-98098803D01*
X119429047Y-98102600D01*
X117442758Y-98102600D01*
X115577758Y-96237600D01*
X120429528Y-96237600D01*
X120432600Y-97005850D01*
X120591350Y-97164600D01*
X122094600Y-97164600D01*
X122094600Y-95761350D01*
X122540600Y-95761350D01*
X122540600Y-97164600D01*
X124043850Y-97164600D01*
X124202600Y-97005850D01*
X124205672Y-96237600D01*
X124193412Y-96113118D01*
X124157102Y-95993420D01*
X124098137Y-95883106D01*
X124018785Y-95786415D01*
X123922094Y-95707063D01*
X123811780Y-95648098D01*
X123692082Y-95611788D01*
X123567600Y-95599528D01*
X122699350Y-95602600D01*
X122540600Y-95761350D01*
X122094600Y-95761350D01*
X121935850Y-95602600D01*
X121067600Y-95599528D01*
X120943118Y-95611788D01*
X120823420Y-95648098D01*
X120713106Y-95707063D01*
X120616415Y-95786415D01*
X120537063Y-95883106D01*
X120478098Y-95993420D01*
X120441788Y-96113118D01*
X120429528Y-96237600D01*
X115577758Y-96237600D01*
X115180035Y-95839877D01*
X115163728Y-95674315D01*
X115113547Y-95508891D01*
X115032058Y-95356436D01*
X114922392Y-95222808D01*
X114788764Y-95113142D01*
X114636309Y-95031653D01*
X114470885Y-94981472D01*
X114298850Y-94964528D01*
X113811350Y-94964528D01*
X113639315Y-94981472D01*
X113473891Y-95031653D01*
X113321436Y-95113142D01*
X113187808Y-95222808D01*
X113117600Y-95308356D01*
X113047392Y-95222808D01*
X112913764Y-95113142D01*
X112761309Y-95031653D01*
X112595885Y-94981472D01*
X112423850Y-94964528D01*
X111936350Y-94964528D01*
X111764315Y-94981472D01*
X111598891Y-95031653D01*
X111446436Y-95113142D01*
X111312808Y-95222808D01*
X111309399Y-95226961D01*
X111270562Y-95179638D01*
X111135987Y-95069195D01*
X110982451Y-94987128D01*
X110815855Y-94936592D01*
X110642601Y-94919528D01*
X110117599Y-94919528D01*
X109944345Y-94936592D01*
X109777749Y-94987128D01*
X109624213Y-95069195D01*
X109489638Y-95179638D01*
X109467600Y-95206491D01*
X109445562Y-95179638D01*
X109310987Y-95069195D01*
X109157451Y-94987128D01*
X108990855Y-94936592D01*
X108817601Y-94919528D01*
X108651107Y-94919528D01*
X106924134Y-93192556D01*
X106896417Y-93158783D01*
X106761659Y-93048189D01*
X106607913Y-92966011D01*
X106441090Y-92915405D01*
X106311077Y-92902600D01*
X106311069Y-92902600D01*
X106267600Y-92898319D01*
X106224131Y-92902600D01*
X105957068Y-92902600D01*
X105943785Y-92886415D01*
X105847094Y-92807063D01*
X105736780Y-92748098D01*
X105624026Y-92713895D01*
X104452600Y-91542469D01*
X104452600Y-91029541D01*
X104552750Y-91083072D01*
X104719346Y-91133608D01*
X104892600Y-91150672D01*
X105617600Y-91150672D01*
X105790854Y-91133608D01*
X105957450Y-91083072D01*
X106110986Y-91001005D01*
X106245562Y-90890562D01*
X106356005Y-90755986D01*
X106438072Y-90602450D01*
X106488608Y-90435854D01*
X106505672Y-90262600D01*
X106505672Y-88112600D01*
X106488608Y-87939346D01*
X106438072Y-87772750D01*
X106390100Y-87683001D01*
X106390100Y-85117199D01*
X106438072Y-85027450D01*
X106488608Y-84860854D01*
X106505672Y-84687600D01*
X106505672Y-82537600D01*
X106488608Y-82364346D01*
X106438072Y-82197750D01*
X106356005Y-82044214D01*
X106245562Y-81909638D01*
X106110986Y-81799195D01*
X105957450Y-81717128D01*
X105790854Y-81666592D01*
X105617600Y-81649528D01*
X104892600Y-81649528D01*
X104719346Y-81666592D01*
X104552750Y-81717128D01*
X104452600Y-81770659D01*
X104452600Y-80445231D01*
X104897159Y-80000672D01*
X105617600Y-80000672D01*
X105790854Y-79983608D01*
X105957450Y-79933072D01*
X106110986Y-79851005D01*
X106245562Y-79740562D01*
X106356005Y-79605986D01*
X106438072Y-79452450D01*
X106488608Y-79285854D01*
X106505672Y-79112600D01*
X106505672Y-78392159D01*
X106709588Y-78188243D01*
X108050242Y-76847590D01*
X108640855Y-76847590D01*
X108629528Y-76962600D01*
G37*
G04 #@! TD.AperFunction*
D24*
X103807442Y-72912600D02*
X103731247Y-72912600D01*
X103697600Y-72909286D01*
X103663953Y-72912600D01*
X103563317Y-72922512D01*
X103434194Y-72961681D01*
X103315193Y-73025288D01*
X103210889Y-73110889D01*
X103125288Y-73215193D01*
X103061681Y-73334194D01*
X103022512Y-73463317D01*
X103009286Y-73597600D01*
X103012600Y-73631247D01*
X103012600Y-74163953D01*
X103009286Y-74197600D01*
X103022512Y-74331883D01*
X103061681Y-74461006D01*
X103125288Y-74580007D01*
X103210889Y-74684311D01*
X103299282Y-74756854D01*
X103315193Y-74769912D01*
X103434194Y-74833519D01*
X103563317Y-74872688D01*
X103697600Y-74885914D01*
X103731247Y-74882600D01*
X106802346Y-74882600D01*
X106773661Y-74906141D01*
X106738119Y-74949450D01*
X105613041Y-76074528D01*
X104892600Y-76074528D01*
X104719346Y-76091592D01*
X104552750Y-76142128D01*
X104399214Y-76224195D01*
X104264638Y-76334638D01*
X104154195Y-76469214D01*
X104072128Y-76622750D01*
X104021592Y-76789346D01*
X104004528Y-76962600D01*
X104004528Y-77683040D01*
X102639712Y-79047857D01*
X102636718Y-71741875D01*
X103807442Y-72912600D01*
G04 #@! TA.AperFunction,Conductor*
D25*
G36*
X103807442Y-72912600D02*
G01*
X103731247Y-72912600D01*
X103697600Y-72909286D01*
X103663953Y-72912600D01*
X103563317Y-72922512D01*
X103434194Y-72961681D01*
X103315193Y-73025288D01*
X103210889Y-73110889D01*
X103125288Y-73215193D01*
X103061681Y-73334194D01*
X103022512Y-73463317D01*
X103009286Y-73597600D01*
X103012600Y-73631247D01*
X103012600Y-74163953D01*
X103009286Y-74197600D01*
X103022512Y-74331883D01*
X103061681Y-74461006D01*
X103125288Y-74580007D01*
X103210889Y-74684311D01*
X103299282Y-74756854D01*
X103315193Y-74769912D01*
X103434194Y-74833519D01*
X103563317Y-74872688D01*
X103697600Y-74885914D01*
X103731247Y-74882600D01*
X106802346Y-74882600D01*
X106773661Y-74906141D01*
X106738119Y-74949450D01*
X105613041Y-76074528D01*
X104892600Y-76074528D01*
X104719346Y-76091592D01*
X104552750Y-76142128D01*
X104399214Y-76224195D01*
X104264638Y-76334638D01*
X104154195Y-76469214D01*
X104072128Y-76622750D01*
X104021592Y-76789346D01*
X104004528Y-76962600D01*
X104004528Y-77683040D01*
X102639712Y-79047857D01*
X102636718Y-71741875D01*
X103807442Y-72912600D01*
G37*
G04 #@! TD.AperFunction*
D24*
X116342600Y-68569539D02*
X116382374Y-68769498D01*
X116460395Y-68957856D01*
X116573663Y-69127374D01*
X116600736Y-69154447D01*
X116603959Y-69187171D01*
X116648846Y-69335144D01*
X116721738Y-69471517D01*
X116819836Y-69591049D01*
X116849790Y-69615632D01*
X118779528Y-71545371D01*
X118779528Y-71672600D01*
X115555286Y-71672600D01*
X115552600Y-71394350D01*
X115393850Y-71235600D01*
X114628100Y-71235600D01*
X114628100Y-71255600D01*
X114182100Y-71255600D01*
X114182100Y-71235600D01*
X114162100Y-71235600D01*
X114162100Y-70789600D01*
X114182100Y-70789600D01*
X114182100Y-70769600D01*
X114628100Y-70769600D01*
X114628100Y-70789600D01*
X115393850Y-70789600D01*
X115552600Y-70630850D01*
X115555672Y-70312600D01*
X115543412Y-70188118D01*
X115507102Y-70068420D01*
X115448137Y-69958106D01*
X115368785Y-69861415D01*
X115272094Y-69782063D01*
X115218787Y-69753569D01*
X115295562Y-69690562D01*
X115406005Y-69555987D01*
X115488072Y-69402451D01*
X115538608Y-69235855D01*
X115555672Y-69062601D01*
X115555672Y-68552599D01*
X116342600Y-68552599D01*
X116342600Y-68569539D01*
G04 #@! TA.AperFunction,Conductor*
D25*
G36*
X116342600Y-68569539D02*
G01*
X116382374Y-68769498D01*
X116460395Y-68957856D01*
X116573663Y-69127374D01*
X116600736Y-69154447D01*
X116603959Y-69187171D01*
X116648846Y-69335144D01*
X116721738Y-69471517D01*
X116819836Y-69591049D01*
X116849790Y-69615632D01*
X118779528Y-71545371D01*
X118779528Y-71672600D01*
X115555286Y-71672600D01*
X115552600Y-71394350D01*
X115393850Y-71235600D01*
X114628100Y-71235600D01*
X114628100Y-71255600D01*
X114182100Y-71255600D01*
X114182100Y-71235600D01*
X114162100Y-71235600D01*
X114162100Y-70789600D01*
X114182100Y-70789600D01*
X114182100Y-70769600D01*
X114628100Y-70769600D01*
X114628100Y-70789600D01*
X115393850Y-70789600D01*
X115552600Y-70630850D01*
X115555672Y-70312600D01*
X115543412Y-70188118D01*
X115507102Y-70068420D01*
X115448137Y-69958106D01*
X115368785Y-69861415D01*
X115272094Y-69782063D01*
X115218787Y-69753569D01*
X115295562Y-69690562D01*
X115406005Y-69555987D01*
X115488072Y-69402451D01*
X115538608Y-69235855D01*
X115555672Y-69062601D01*
X115555672Y-68552599D01*
X116342600Y-68552599D01*
X116342600Y-68569539D01*
G37*
G04 #@! TD.AperFunction*
D24*
X111421592Y-65504345D02*
X111404528Y-65677599D01*
X111404528Y-66577601D01*
X111406995Y-66602651D01*
X111393712Y-66603959D01*
X111359272Y-66614406D01*
X111245740Y-66648846D01*
X111109367Y-66721738D01*
X111058796Y-66763241D01*
X111019787Y-66795255D01*
X111019784Y-66795258D01*
X110989836Y-66819836D01*
X110965257Y-66849785D01*
X110399785Y-67415258D01*
X110369837Y-67439836D01*
X110345259Y-67469784D01*
X110345255Y-67469788D01*
X110313382Y-67508625D01*
X110271739Y-67559367D01*
X110234733Y-67628602D01*
X110198846Y-67695741D01*
X110153959Y-67843714D01*
X110138803Y-67997600D01*
X110142601Y-68036163D01*
X110142600Y-71602600D01*
X105442757Y-71602600D01*
X105427600Y-71587443D01*
X105427600Y-70804074D01*
X105589232Y-70696075D01*
X105796075Y-70489232D01*
X105917350Y-70307731D01*
X106022252Y-70469337D01*
X106225345Y-70677903D01*
X106465225Y-70842840D01*
X106732673Y-70957809D01*
X106959600Y-70852019D01*
X106959600Y-69765600D01*
X107405600Y-69765600D01*
X107405600Y-70852019D01*
X107632527Y-70957809D01*
X107899975Y-70842840D01*
X108139855Y-70677903D01*
X108342948Y-70469337D01*
X108501450Y-70225157D01*
X108597801Y-69992525D01*
X108489968Y-69765600D01*
X107405600Y-69765600D01*
X106959600Y-69765600D01*
X106939600Y-69765600D01*
X106939600Y-69319600D01*
X106959600Y-69319600D01*
X106959600Y-69299600D01*
X107405600Y-69299600D01*
X107405600Y-69319600D01*
X108489968Y-69319600D01*
X108597801Y-69092675D01*
X108501450Y-68860043D01*
X108342948Y-68615863D01*
X108139855Y-68407297D01*
X107949320Y-68276288D01*
X108129232Y-68156075D01*
X108336075Y-67949232D01*
X108498590Y-67706011D01*
X108610532Y-67435758D01*
X108667600Y-67148860D01*
X108667600Y-66856340D01*
X108610532Y-66569442D01*
X108498590Y-66299189D01*
X108336075Y-66055968D01*
X108129232Y-65849125D01*
X107954840Y-65732600D01*
X108129232Y-65616075D01*
X108336075Y-65409232D01*
X108380597Y-65342600D01*
X111470656Y-65342600D01*
X111421592Y-65504345D01*
G04 #@! TA.AperFunction,Conductor*
D25*
G36*
X111421592Y-65504345D02*
G01*
X111404528Y-65677599D01*
X111404528Y-66577601D01*
X111406995Y-66602651D01*
X111393712Y-66603959D01*
X111359272Y-66614406D01*
X111245740Y-66648846D01*
X111109367Y-66721738D01*
X111058796Y-66763241D01*
X111019787Y-66795255D01*
X111019784Y-66795258D01*
X110989836Y-66819836D01*
X110965257Y-66849785D01*
X110399785Y-67415258D01*
X110369837Y-67439836D01*
X110345259Y-67469784D01*
X110345255Y-67469788D01*
X110313382Y-67508625D01*
X110271739Y-67559367D01*
X110234733Y-67628602D01*
X110198846Y-67695741D01*
X110153959Y-67843714D01*
X110138803Y-67997600D01*
X110142601Y-68036163D01*
X110142600Y-71602600D01*
X105442757Y-71602600D01*
X105427600Y-71587443D01*
X105427600Y-70804074D01*
X105589232Y-70696075D01*
X105796075Y-70489232D01*
X105917350Y-70307731D01*
X106022252Y-70469337D01*
X106225345Y-70677903D01*
X106465225Y-70842840D01*
X106732673Y-70957809D01*
X106959600Y-70852019D01*
X106959600Y-69765600D01*
X107405600Y-69765600D01*
X107405600Y-70852019D01*
X107632527Y-70957809D01*
X107899975Y-70842840D01*
X108139855Y-70677903D01*
X108342948Y-70469337D01*
X108501450Y-70225157D01*
X108597801Y-69992525D01*
X108489968Y-69765600D01*
X107405600Y-69765600D01*
X106959600Y-69765600D01*
X106939600Y-69765600D01*
X106939600Y-69319600D01*
X106959600Y-69319600D01*
X106959600Y-69299600D01*
X107405600Y-69299600D01*
X107405600Y-69319600D01*
X108489968Y-69319600D01*
X108597801Y-69092675D01*
X108501450Y-68860043D01*
X108342948Y-68615863D01*
X108139855Y-68407297D01*
X107949320Y-68276288D01*
X108129232Y-68156075D01*
X108336075Y-67949232D01*
X108498590Y-67706011D01*
X108610532Y-67435758D01*
X108667600Y-67148860D01*
X108667600Y-66856340D01*
X108610532Y-66569442D01*
X108498590Y-66299189D01*
X108336075Y-66055968D01*
X108129232Y-65849125D01*
X107954840Y-65732600D01*
X108129232Y-65616075D01*
X108336075Y-65409232D01*
X108380597Y-65342600D01*
X111470656Y-65342600D01*
X111421592Y-65504345D01*
G37*
G04 #@! TD.AperFunction*
D24*
X131226607Y-63476762D02*
X131194350Y-63477600D01*
X131035600Y-63636350D01*
X131035600Y-64614600D01*
X131055600Y-64614600D01*
X131055600Y-65060600D01*
X131035600Y-65060600D01*
X131035600Y-66038850D01*
X131194350Y-66197600D01*
X131225441Y-66198408D01*
X131225118Y-66951986D01*
X131216747Y-66949446D01*
X130873904Y-66606603D01*
X130850101Y-66577599D01*
X130734376Y-66482626D01*
X130602347Y-66412054D01*
X130459086Y-66368597D01*
X130347433Y-66357600D01*
X130347422Y-66357600D01*
X130310100Y-66353924D01*
X130272778Y-66357600D01*
X128432851Y-66357600D01*
X128436397Y-66321599D01*
X128432600Y-66283046D01*
X128432600Y-66166394D01*
X128489346Y-66183608D01*
X128662600Y-66200672D01*
X129162600Y-66200672D01*
X129335854Y-66183608D01*
X129502450Y-66133072D01*
X129655986Y-66051005D01*
X129790562Y-65940562D01*
X129795942Y-65934006D01*
X129861415Y-66013785D01*
X129958106Y-66093137D01*
X130068420Y-66152102D01*
X130188118Y-66188412D01*
X130312600Y-66200672D01*
X130430850Y-66197600D01*
X130589600Y-66038850D01*
X130589600Y-65060600D01*
X130569600Y-65060600D01*
X130569600Y-64614600D01*
X130589600Y-64614600D01*
X130589600Y-63636350D01*
X130430850Y-63477600D01*
X130312600Y-63474528D01*
X130188118Y-63486788D01*
X130068420Y-63523098D01*
X129958106Y-63582063D01*
X129861415Y-63661415D01*
X129795942Y-63741194D01*
X129790562Y-63734638D01*
X129697600Y-63658347D01*
X129697600Y-63011152D01*
X129701397Y-62972599D01*
X129697600Y-62934046D01*
X129697600Y-62934039D01*
X129686241Y-62818713D01*
X129641354Y-62670740D01*
X129568462Y-62534367D01*
X129542600Y-62502855D01*
X129542600Y-62465661D01*
X129502826Y-62265702D01*
X129424805Y-62077344D01*
X129311537Y-61907826D01*
X129167374Y-61763663D01*
X128997856Y-61650395D01*
X128809498Y-61572374D01*
X128609539Y-61532600D01*
X128432600Y-61532600D01*
X128432600Y-61215672D01*
X128687601Y-61215672D01*
X128860855Y-61198608D01*
X129027451Y-61148072D01*
X129180987Y-61066005D01*
X129315562Y-60955562D01*
X129337600Y-60928709D01*
X129359638Y-60955562D01*
X129494213Y-61066005D01*
X129647749Y-61148072D01*
X129814345Y-61198608D01*
X129987599Y-61215672D01*
X130512601Y-61215672D01*
X130685855Y-61198608D01*
X130852451Y-61148072D01*
X131005987Y-61066005D01*
X131140562Y-60955562D01*
X131227733Y-60849344D01*
X131226607Y-63476762D01*
G04 #@! TA.AperFunction,Conductor*
D25*
G36*
X131226607Y-63476762D02*
G01*
X131194350Y-63477600D01*
X131035600Y-63636350D01*
X131035600Y-64614600D01*
X131055600Y-64614600D01*
X131055600Y-65060600D01*
X131035600Y-65060600D01*
X131035600Y-66038850D01*
X131194350Y-66197600D01*
X131225441Y-66198408D01*
X131225118Y-66951986D01*
X131216747Y-66949446D01*
X130873904Y-66606603D01*
X130850101Y-66577599D01*
X130734376Y-66482626D01*
X130602347Y-66412054D01*
X130459086Y-66368597D01*
X130347433Y-66357600D01*
X130347422Y-66357600D01*
X130310100Y-66353924D01*
X130272778Y-66357600D01*
X128432851Y-66357600D01*
X128436397Y-66321599D01*
X128432600Y-66283046D01*
X128432600Y-66166394D01*
X128489346Y-66183608D01*
X128662600Y-66200672D01*
X129162600Y-66200672D01*
X129335854Y-66183608D01*
X129502450Y-66133072D01*
X129655986Y-66051005D01*
X129790562Y-65940562D01*
X129795942Y-65934006D01*
X129861415Y-66013785D01*
X129958106Y-66093137D01*
X130068420Y-66152102D01*
X130188118Y-66188412D01*
X130312600Y-66200672D01*
X130430850Y-66197600D01*
X130589600Y-66038850D01*
X130589600Y-65060600D01*
X130569600Y-65060600D01*
X130569600Y-64614600D01*
X130589600Y-64614600D01*
X130589600Y-63636350D01*
X130430850Y-63477600D01*
X130312600Y-63474528D01*
X130188118Y-63486788D01*
X130068420Y-63523098D01*
X129958106Y-63582063D01*
X129861415Y-63661415D01*
X129795942Y-63741194D01*
X129790562Y-63734638D01*
X129697600Y-63658347D01*
X129697600Y-63011152D01*
X129701397Y-62972599D01*
X129697600Y-62934046D01*
X129697600Y-62934039D01*
X129686241Y-62818713D01*
X129641354Y-62670740D01*
X129568462Y-62534367D01*
X129542600Y-62502855D01*
X129542600Y-62465661D01*
X129502826Y-62265702D01*
X129424805Y-62077344D01*
X129311537Y-61907826D01*
X129167374Y-61763663D01*
X128997856Y-61650395D01*
X128809498Y-61572374D01*
X128609539Y-61532600D01*
X128432600Y-61532600D01*
X128432600Y-61215672D01*
X128687601Y-61215672D01*
X128860855Y-61198608D01*
X129027451Y-61148072D01*
X129180987Y-61066005D01*
X129315562Y-60955562D01*
X129337600Y-60928709D01*
X129359638Y-60955562D01*
X129494213Y-61066005D01*
X129647749Y-61148072D01*
X129814345Y-61198608D01*
X129987599Y-61215672D01*
X130512601Y-61215672D01*
X130685855Y-61198608D01*
X130852451Y-61148072D01*
X131005987Y-61066005D01*
X131140562Y-60955562D01*
X131227733Y-60849344D01*
X131226607Y-63476762D01*
G37*
G04 #@! TD.AperFunction*
D24*
X124619257Y-62990835D02*
X124375436Y-62989576D01*
X124250814Y-63000307D01*
X124130679Y-63035144D01*
X124019649Y-63092749D01*
X123921990Y-63170908D01*
X123841456Y-63266617D01*
X123781142Y-63376199D01*
X123743364Y-63495442D01*
X123732600Y-63595850D01*
X123891350Y-63754600D01*
X125119600Y-63754600D01*
X125119600Y-63684600D01*
X125565600Y-63684600D01*
X125565600Y-63754600D01*
X125585600Y-63754600D01*
X125585600Y-64100600D01*
X125565600Y-64100600D01*
X125565600Y-64170600D01*
X125484759Y-64170600D01*
X125444539Y-64162600D01*
X125240661Y-64162600D01*
X125200441Y-64170600D01*
X125119600Y-64170600D01*
X125119600Y-64100600D01*
X123891350Y-64100600D01*
X123732600Y-64259350D01*
X123743364Y-64359758D01*
X123781142Y-64479001D01*
X123841456Y-64588583D01*
X123861154Y-64611993D01*
X123789516Y-64746018D01*
X123744671Y-64893855D01*
X123729528Y-65047600D01*
X123729528Y-65094478D01*
X123619539Y-65072600D01*
X123415661Y-65072600D01*
X123215702Y-65112374D01*
X123027344Y-65190395D01*
X122857826Y-65303663D01*
X122713663Y-65447826D01*
X122618440Y-65590338D01*
X122579539Y-65582600D01*
X122375661Y-65582600D01*
X122175702Y-65622374D01*
X121987344Y-65700395D01*
X121950029Y-65725328D01*
X122225403Y-65449953D01*
X122255362Y-65425366D01*
X122353460Y-65305835D01*
X122426352Y-65169462D01*
X122427399Y-65166011D01*
X122471240Y-65021489D01*
X122478618Y-64946576D01*
X122482598Y-64906163D01*
X122482598Y-64906158D01*
X122486395Y-64867602D01*
X122482598Y-64829046D01*
X122482598Y-63411992D01*
X122679498Y-63372826D01*
X122867856Y-63294805D01*
X123037374Y-63181537D01*
X123181537Y-63037374D01*
X123294805Y-62867856D01*
X123372826Y-62679498D01*
X123412600Y-62479539D01*
X123412600Y-62314178D01*
X123566106Y-62160672D01*
X123789094Y-62160672D01*
X124619257Y-62990835D01*
G04 #@! TA.AperFunction,Conductor*
D25*
G36*
X124619257Y-62990835D02*
G01*
X124375436Y-62989576D01*
X124250814Y-63000307D01*
X124130679Y-63035144D01*
X124019649Y-63092749D01*
X123921990Y-63170908D01*
X123841456Y-63266617D01*
X123781142Y-63376199D01*
X123743364Y-63495442D01*
X123732600Y-63595850D01*
X123891350Y-63754600D01*
X125119600Y-63754600D01*
X125119600Y-63684600D01*
X125565600Y-63684600D01*
X125565600Y-63754600D01*
X125585600Y-63754600D01*
X125585600Y-64100600D01*
X125565600Y-64100600D01*
X125565600Y-64170600D01*
X125484759Y-64170600D01*
X125444539Y-64162600D01*
X125240661Y-64162600D01*
X125200441Y-64170600D01*
X125119600Y-64170600D01*
X125119600Y-64100600D01*
X123891350Y-64100600D01*
X123732600Y-64259350D01*
X123743364Y-64359758D01*
X123781142Y-64479001D01*
X123841456Y-64588583D01*
X123861154Y-64611993D01*
X123789516Y-64746018D01*
X123744671Y-64893855D01*
X123729528Y-65047600D01*
X123729528Y-65094478D01*
X123619539Y-65072600D01*
X123415661Y-65072600D01*
X123215702Y-65112374D01*
X123027344Y-65190395D01*
X122857826Y-65303663D01*
X122713663Y-65447826D01*
X122618440Y-65590338D01*
X122579539Y-65582600D01*
X122375661Y-65582600D01*
X122175702Y-65622374D01*
X121987344Y-65700395D01*
X121950029Y-65725328D01*
X122225403Y-65449953D01*
X122255362Y-65425366D01*
X122353460Y-65305835D01*
X122426352Y-65169462D01*
X122427399Y-65166011D01*
X122471240Y-65021489D01*
X122478618Y-64946576D01*
X122482598Y-64906163D01*
X122482598Y-64906158D01*
X122486395Y-64867602D01*
X122482598Y-64829046D01*
X122482598Y-63411992D01*
X122679498Y-63372826D01*
X122867856Y-63294805D01*
X123037374Y-63181537D01*
X123181537Y-63037374D01*
X123294805Y-62867856D01*
X123372826Y-62679498D01*
X123412600Y-62479539D01*
X123412600Y-62314178D01*
X123566106Y-62160672D01*
X123789094Y-62160672D01*
X124619257Y-62990835D01*
G37*
G04 #@! TD.AperFunction*
D24*
X109294705Y-55808917D02*
X108922551Y-56181071D01*
X108888784Y-56208783D01*
X108861071Y-56242551D01*
X108861068Y-56242554D01*
X108778190Y-56343541D01*
X108696012Y-56497287D01*
X108645405Y-56664110D01*
X108628319Y-56837600D01*
X108632601Y-56881079D01*
X108632600Y-61761021D01*
X107401560Y-62992061D01*
X107328860Y-62977600D01*
X107036340Y-62977600D01*
X106749442Y-63034668D01*
X106479189Y-63146610D01*
X106235968Y-63309125D01*
X106104113Y-63440980D01*
X106082102Y-63368420D01*
X106023137Y-63258106D01*
X105943785Y-63161415D01*
X105847094Y-63082063D01*
X105736780Y-63023098D01*
X105617082Y-62986788D01*
X105492600Y-62974528D01*
X103792600Y-62974528D01*
X103668118Y-62986788D01*
X103548420Y-63023098D01*
X103438106Y-63082063D01*
X103341415Y-63161415D01*
X103262063Y-63258106D01*
X103203098Y-63368420D01*
X103166788Y-63488118D01*
X103154528Y-63612600D01*
X103154528Y-63753201D01*
X103054367Y-63806738D01*
X102934836Y-63904836D01*
X102910253Y-63934790D01*
X102633633Y-64211410D01*
X102632058Y-60369542D01*
X102646472Y-60515885D01*
X102696653Y-60681309D01*
X102778142Y-60833764D01*
X102887808Y-60967392D01*
X103021436Y-61077058D01*
X103173891Y-61158547D01*
X103339315Y-61208728D01*
X103511350Y-61225672D01*
X103998850Y-61225672D01*
X104170885Y-61208728D01*
X104336309Y-61158547D01*
X104488764Y-61077058D01*
X104622392Y-60967392D01*
X104692600Y-60881844D01*
X104762808Y-60967392D01*
X104896436Y-61077058D01*
X105048891Y-61158547D01*
X105214315Y-61208728D01*
X105386350Y-61225672D01*
X105858014Y-61225672D01*
X106150928Y-61518586D01*
X106243663Y-61657374D01*
X106387826Y-61801537D01*
X106557344Y-61914805D01*
X106745702Y-61992826D01*
X106945661Y-62032600D01*
X107149539Y-62032600D01*
X107349498Y-61992826D01*
X107537856Y-61914805D01*
X107707374Y-61801537D01*
X107851537Y-61657374D01*
X107964805Y-61487856D01*
X108042826Y-61299498D01*
X108082600Y-61099539D01*
X108082600Y-60895661D01*
X108042826Y-60695702D01*
X107964805Y-60507344D01*
X107851537Y-60337826D01*
X107707374Y-60193663D01*
X107537856Y-60080395D01*
X107349498Y-60002374D01*
X107149539Y-59962600D01*
X106945661Y-59962600D01*
X106836893Y-59984235D01*
X106755672Y-59903014D01*
X106755672Y-59431350D01*
X106738728Y-59259315D01*
X106688547Y-59093891D01*
X106607058Y-58941436D01*
X106543514Y-58864008D01*
X106543785Y-58863785D01*
X106623137Y-58767094D01*
X106682102Y-58656780D01*
X106718412Y-58537082D01*
X106730672Y-58412600D01*
X106727600Y-58094350D01*
X106568850Y-57935600D01*
X105803100Y-57935600D01*
X105803100Y-57955600D01*
X105357100Y-57955600D01*
X105357100Y-57935600D01*
X105337100Y-57935600D01*
X105337100Y-57489600D01*
X105357100Y-57489600D01*
X105357100Y-55910600D01*
X105803100Y-55910600D01*
X105803100Y-57489600D01*
X106568850Y-57489600D01*
X106727600Y-57330850D01*
X106730672Y-57012600D01*
X106718412Y-56888118D01*
X106682102Y-56768420D01*
X106645584Y-56700100D01*
X106682102Y-56631780D01*
X106718412Y-56512082D01*
X106730672Y-56387600D01*
X106727600Y-56069350D01*
X106568850Y-55910600D01*
X105803100Y-55910600D01*
X105357100Y-55910600D01*
X105337100Y-55910600D01*
X105337100Y-55464600D01*
X105357100Y-55464600D01*
X105357100Y-55444600D01*
X105803100Y-55444600D01*
X105803100Y-55464600D01*
X106568850Y-55464600D01*
X106727600Y-55305850D01*
X106728285Y-55234912D01*
X106805833Y-55193462D01*
X106925364Y-55095364D01*
X106949947Y-55065410D01*
X108542758Y-53472600D01*
X109304821Y-53472600D01*
X109294705Y-55808917D01*
G04 #@! TA.AperFunction,Conductor*
D25*
G36*
X109294705Y-55808917D02*
G01*
X108922551Y-56181071D01*
X108888784Y-56208783D01*
X108861071Y-56242551D01*
X108861068Y-56242554D01*
X108778190Y-56343541D01*
X108696012Y-56497287D01*
X108645405Y-56664110D01*
X108628319Y-56837600D01*
X108632601Y-56881079D01*
X108632600Y-61761021D01*
X107401560Y-62992061D01*
X107328860Y-62977600D01*
X107036340Y-62977600D01*
X106749442Y-63034668D01*
X106479189Y-63146610D01*
X106235968Y-63309125D01*
X106104113Y-63440980D01*
X106082102Y-63368420D01*
X106023137Y-63258106D01*
X105943785Y-63161415D01*
X105847094Y-63082063D01*
X105736780Y-63023098D01*
X105617082Y-62986788D01*
X105492600Y-62974528D01*
X103792600Y-62974528D01*
X103668118Y-62986788D01*
X103548420Y-63023098D01*
X103438106Y-63082063D01*
X103341415Y-63161415D01*
X103262063Y-63258106D01*
X103203098Y-63368420D01*
X103166788Y-63488118D01*
X103154528Y-63612600D01*
X103154528Y-63753201D01*
X103054367Y-63806738D01*
X102934836Y-63904836D01*
X102910253Y-63934790D01*
X102633633Y-64211410D01*
X102632058Y-60369542D01*
X102646472Y-60515885D01*
X102696653Y-60681309D01*
X102778142Y-60833764D01*
X102887808Y-60967392D01*
X103021436Y-61077058D01*
X103173891Y-61158547D01*
X103339315Y-61208728D01*
X103511350Y-61225672D01*
X103998850Y-61225672D01*
X104170885Y-61208728D01*
X104336309Y-61158547D01*
X104488764Y-61077058D01*
X104622392Y-60967392D01*
X104692600Y-60881844D01*
X104762808Y-60967392D01*
X104896436Y-61077058D01*
X105048891Y-61158547D01*
X105214315Y-61208728D01*
X105386350Y-61225672D01*
X105858014Y-61225672D01*
X106150928Y-61518586D01*
X106243663Y-61657374D01*
X106387826Y-61801537D01*
X106557344Y-61914805D01*
X106745702Y-61992826D01*
X106945661Y-62032600D01*
X107149539Y-62032600D01*
X107349498Y-61992826D01*
X107537856Y-61914805D01*
X107707374Y-61801537D01*
X107851537Y-61657374D01*
X107964805Y-61487856D01*
X108042826Y-61299498D01*
X108082600Y-61099539D01*
X108082600Y-60895661D01*
X108042826Y-60695702D01*
X107964805Y-60507344D01*
X107851537Y-60337826D01*
X107707374Y-60193663D01*
X107537856Y-60080395D01*
X107349498Y-60002374D01*
X107149539Y-59962600D01*
X106945661Y-59962600D01*
X106836893Y-59984235D01*
X106755672Y-59903014D01*
X106755672Y-59431350D01*
X106738728Y-59259315D01*
X106688547Y-59093891D01*
X106607058Y-58941436D01*
X106543514Y-58864008D01*
X106543785Y-58863785D01*
X106623137Y-58767094D01*
X106682102Y-58656780D01*
X106718412Y-58537082D01*
X106730672Y-58412600D01*
X106727600Y-58094350D01*
X106568850Y-57935600D01*
X105803100Y-57935600D01*
X105803100Y-57955600D01*
X105357100Y-57955600D01*
X105357100Y-57935600D01*
X105337100Y-57935600D01*
X105337100Y-57489600D01*
X105357100Y-57489600D01*
X105357100Y-55910600D01*
X105803100Y-55910600D01*
X105803100Y-57489600D01*
X106568850Y-57489600D01*
X106727600Y-57330850D01*
X106730672Y-57012600D01*
X106718412Y-56888118D01*
X106682102Y-56768420D01*
X106645584Y-56700100D01*
X106682102Y-56631780D01*
X106718412Y-56512082D01*
X106730672Y-56387600D01*
X106727600Y-56069350D01*
X106568850Y-55910600D01*
X105803100Y-55910600D01*
X105357100Y-55910600D01*
X105337100Y-55910600D01*
X105337100Y-55464600D01*
X105357100Y-55464600D01*
X105357100Y-55444600D01*
X105803100Y-55444600D01*
X105803100Y-55464600D01*
X106568850Y-55464600D01*
X106727600Y-55305850D01*
X106728285Y-55234912D01*
X106805833Y-55193462D01*
X106925364Y-55095364D01*
X106949947Y-55065410D01*
X108542758Y-53472600D01*
X109304821Y-53472600D01*
X109294705Y-55808917D01*
G37*
G04 #@! TD.AperFunction*
D24*
X115369528Y-49862600D02*
X115384671Y-50016345D01*
X115429516Y-50164182D01*
X115502342Y-50300429D01*
X115517600Y-50319021D01*
X115517600Y-50559047D01*
X115513803Y-50597600D01*
X115517600Y-50636153D01*
X115517600Y-50636160D01*
X115528959Y-50751486D01*
X115573846Y-50899459D01*
X115646738Y-51035832D01*
X115744836Y-51155364D01*
X115774791Y-51179947D01*
X116060249Y-51465405D01*
X116084836Y-51495364D01*
X116204367Y-51593462D01*
X116340740Y-51666354D01*
X116488713Y-51711242D01*
X116563626Y-51718620D01*
X116604039Y-51722600D01*
X116604044Y-51722600D01*
X116642600Y-51726397D01*
X116681156Y-51722600D01*
X117442443Y-51722600D01*
X119901534Y-54181691D01*
X119894339Y-55843240D01*
X119896901Y-55869177D01*
X119904245Y-55892966D01*
X119916089Y-55914865D01*
X119931977Y-55934032D01*
X119951300Y-55949732D01*
X119973314Y-55961360D01*
X119997173Y-55968470D01*
X120021961Y-55970788D01*
X124441942Y-55949099D01*
X124465554Y-55946767D01*
X124489409Y-55939644D01*
X124511417Y-55928003D01*
X124530730Y-55912293D01*
X124546608Y-55893117D01*
X124558439Y-55871212D01*
X124565770Y-55847419D01*
X124568318Y-55822653D01*
X124569818Y-55477600D01*
X128339528Y-55477600D01*
X128342600Y-55545850D01*
X128501350Y-55704600D01*
X129154600Y-55704600D01*
X129154600Y-55001350D01*
X129600600Y-55001350D01*
X129600600Y-55704600D01*
X130253850Y-55704600D01*
X130412600Y-55545850D01*
X130415672Y-55477600D01*
X130403412Y-55353118D01*
X130367102Y-55233420D01*
X130308137Y-55123106D01*
X130228785Y-55026415D01*
X130132094Y-54947063D01*
X130021780Y-54888098D01*
X129902082Y-54851788D01*
X129777600Y-54839528D01*
X129759350Y-54842600D01*
X129600600Y-55001350D01*
X129154600Y-55001350D01*
X128995850Y-54842600D01*
X128977600Y-54839528D01*
X128853118Y-54851788D01*
X128733420Y-54888098D01*
X128623106Y-54947063D01*
X128526415Y-55026415D01*
X128447063Y-55123106D01*
X128388098Y-55233420D01*
X128351788Y-55353118D01*
X128339528Y-55477600D01*
X124569818Y-55477600D01*
X124580880Y-52933651D01*
X124578337Y-52907807D01*
X124571011Y-52884013D01*
X124559184Y-52862105D01*
X124543311Y-52842925D01*
X124524000Y-52827211D01*
X124501995Y-52815566D01*
X124478141Y-52808438D01*
X124453355Y-52806100D01*
X123002270Y-52812112D01*
X118899947Y-48709790D01*
X118889943Y-48697600D01*
X126048260Y-48697600D01*
X125864776Y-48972204D01*
X125583827Y-49650474D01*
X125440600Y-50370523D01*
X125440600Y-51104677D01*
X125583827Y-51824726D01*
X125864776Y-52502996D01*
X126272650Y-53113424D01*
X126791776Y-53632550D01*
X127402204Y-54040424D01*
X128080474Y-54321373D01*
X128800523Y-54464600D01*
X129534677Y-54464600D01*
X130254726Y-54321373D01*
X130932996Y-54040424D01*
X131230736Y-53841481D01*
X131229345Y-57088022D01*
X131178785Y-57026415D01*
X131082094Y-56947063D01*
X130971780Y-56888098D01*
X130852082Y-56851788D01*
X130727600Y-56839528D01*
X130215695Y-56839528D01*
X130228785Y-56828785D01*
X130308137Y-56732094D01*
X130367102Y-56621780D01*
X130403412Y-56502082D01*
X130415672Y-56377600D01*
X130412600Y-56309350D01*
X130253850Y-56150600D01*
X129600600Y-56150600D01*
X129600600Y-56853850D01*
X129651767Y-56905017D01*
X129573106Y-56947063D01*
X129476415Y-57026415D01*
X129397063Y-57123106D01*
X129386643Y-57142600D01*
X129368557Y-57142600D01*
X129358137Y-57123106D01*
X129278785Y-57026415D01*
X129182094Y-56947063D01*
X129103433Y-56905017D01*
X129154600Y-56853850D01*
X129154600Y-56150600D01*
X128501350Y-56150600D01*
X128342600Y-56309350D01*
X128339528Y-56377600D01*
X128351788Y-56502082D01*
X128388098Y-56621780D01*
X128447063Y-56732094D01*
X128526415Y-56828785D01*
X128539505Y-56839528D01*
X128027600Y-56839528D01*
X127903118Y-56851788D01*
X127783420Y-56888098D01*
X127673106Y-56947063D01*
X127576415Y-57026415D01*
X127497063Y-57123106D01*
X127462547Y-57187681D01*
X127425740Y-57198846D01*
X127289367Y-57271738D01*
X127169836Y-57369836D01*
X127145253Y-57399790D01*
X126728589Y-57816454D01*
X126718412Y-57713118D01*
X126682102Y-57593420D01*
X126623137Y-57483106D01*
X126543785Y-57386415D01*
X126447094Y-57307063D01*
X126336780Y-57248098D01*
X126217082Y-57211788D01*
X126092600Y-57199528D01*
X125974350Y-57202600D01*
X125815600Y-57361350D01*
X125815600Y-58339600D01*
X125835600Y-58339600D01*
X125835600Y-58785600D01*
X125815600Y-58785600D01*
X125815600Y-59581350D01*
X125800600Y-59596350D01*
X125800600Y-60574600D01*
X125820600Y-60574600D01*
X125820600Y-61020600D01*
X125800600Y-61020600D01*
X125800600Y-61040600D01*
X125354600Y-61040600D01*
X125354600Y-61020600D01*
X125334600Y-61020600D01*
X125334600Y-60574600D01*
X125354600Y-60574600D01*
X125354600Y-59778850D01*
X125369600Y-59763850D01*
X125369600Y-58785600D01*
X125349600Y-58785600D01*
X125349600Y-58339600D01*
X125369600Y-58339600D01*
X125369600Y-57361350D01*
X125210850Y-57202600D01*
X125092600Y-57199528D01*
X124968118Y-57211788D01*
X124848420Y-57248098D01*
X124738106Y-57307063D01*
X124641415Y-57386415D01*
X124575942Y-57466194D01*
X124570562Y-57459638D01*
X124435986Y-57349195D01*
X124282450Y-57267128D01*
X124115854Y-57216592D01*
X123942600Y-57199528D01*
X123442600Y-57199528D01*
X123269346Y-57216592D01*
X123102750Y-57267128D01*
X122949214Y-57349195D01*
X122814638Y-57459638D01*
X122704195Y-57594214D01*
X122622128Y-57747750D01*
X122571592Y-57914346D01*
X122560481Y-58027153D01*
X122542094Y-58012063D01*
X122431780Y-57953098D01*
X122312082Y-57916788D01*
X122187600Y-57904528D01*
X120187600Y-57904528D01*
X120063118Y-57916788D01*
X119943420Y-57953098D01*
X119833106Y-58012063D01*
X119736415Y-58091415D01*
X119657063Y-58188106D01*
X119598098Y-58298420D01*
X119561788Y-58418118D01*
X119549528Y-58542600D01*
X119549528Y-60942600D01*
X119561788Y-61067082D01*
X119598098Y-61186780D01*
X119657063Y-61297094D01*
X119736415Y-61393785D01*
X119833106Y-61473137D01*
X119943420Y-61532102D01*
X120063118Y-61568412D01*
X120187600Y-61580672D01*
X120478202Y-61580672D01*
X120503869Y-61628692D01*
X120427332Y-61660395D01*
X120257814Y-61773663D01*
X120113651Y-61917826D01*
X120000383Y-62087344D01*
X119922362Y-62275702D01*
X119911053Y-62332557D01*
X119797552Y-62446058D01*
X119763784Y-62473771D01*
X119736071Y-62507539D01*
X119736068Y-62507542D01*
X119653190Y-62608529D01*
X119571012Y-62762275D01*
X119520405Y-62929098D01*
X119514714Y-62986881D01*
X119513933Y-62994814D01*
X119413855Y-63004671D01*
X119266018Y-63049516D01*
X119241540Y-63062600D01*
X119171069Y-63062600D01*
X119127600Y-63058319D01*
X119084131Y-63062600D01*
X119084123Y-63062600D01*
X118968906Y-63073948D01*
X118954109Y-63075405D01*
X118903503Y-63090757D01*
X118787287Y-63126011D01*
X118633541Y-63208189D01*
X118498783Y-63318783D01*
X118471068Y-63352554D01*
X118251022Y-63572600D01*
X109324179Y-63572600D01*
X110112650Y-62784129D01*
X110146417Y-62756417D01*
X110175085Y-62721486D01*
X110257011Y-62621659D01*
X110339189Y-62467914D01*
X110389795Y-62301090D01*
X110392295Y-62275702D01*
X110402600Y-62171077D01*
X110402600Y-62171069D01*
X110406881Y-62127600D01*
X110402600Y-62084131D01*
X110402600Y-61952600D01*
X112174528Y-61952600D01*
X112186788Y-62077082D01*
X112223098Y-62196780D01*
X112282063Y-62307094D01*
X112361415Y-62403785D01*
X112458106Y-62483137D01*
X112568420Y-62542102D01*
X112688118Y-62578412D01*
X112812600Y-62590672D01*
X112930850Y-62587600D01*
X113089600Y-62428850D01*
X113089600Y-61450600D01*
X112336350Y-61450600D01*
X112177600Y-61609350D01*
X112174528Y-61952600D01*
X110402600Y-61952600D01*
X110402600Y-60502600D01*
X112174528Y-60502600D01*
X112177600Y-60845850D01*
X112336350Y-61004600D01*
X113089600Y-61004600D01*
X113089600Y-60026350D01*
X112930850Y-59867600D01*
X112812600Y-59864528D01*
X112688118Y-59876788D01*
X112568420Y-59913098D01*
X112458106Y-59972063D01*
X112361415Y-60051415D01*
X112282063Y-60148106D01*
X112223098Y-60258420D01*
X112186788Y-60378118D01*
X112174528Y-60502600D01*
X110402600Y-60502600D01*
X110402600Y-57204178D01*
X111212650Y-56394129D01*
X111246417Y-56366417D01*
X111291700Y-56311241D01*
X111357011Y-56231659D01*
X111407285Y-56137601D01*
X111439189Y-56077913D01*
X111462351Y-56001559D01*
X113588764Y-55981278D01*
X113070515Y-56499528D01*
X113067599Y-56499528D01*
X112894345Y-56516592D01*
X112727749Y-56567128D01*
X112574213Y-56649195D01*
X112439638Y-56759638D01*
X112329195Y-56894213D01*
X112247128Y-57047749D01*
X112196592Y-57214345D01*
X112179528Y-57387599D01*
X112179528Y-58287601D01*
X112196592Y-58460855D01*
X112247128Y-58627451D01*
X112329195Y-58780987D01*
X112439638Y-58915562D01*
X112574213Y-59026005D01*
X112727749Y-59108072D01*
X112894345Y-59158608D01*
X113067599Y-59175672D01*
X113592601Y-59175672D01*
X113765855Y-59158608D01*
X113932451Y-59108072D01*
X114085987Y-59026005D01*
X114220562Y-58915562D01*
X114242600Y-58888709D01*
X114264638Y-58915562D01*
X114399213Y-59026005D01*
X114552749Y-59108072D01*
X114719345Y-59158608D01*
X114892599Y-59175672D01*
X115417601Y-59175672D01*
X115590855Y-59158608D01*
X115757451Y-59108072D01*
X115849528Y-59058856D01*
X115849528Y-59957292D01*
X115802450Y-59932128D01*
X115635854Y-59881592D01*
X115462600Y-59864528D01*
X114962600Y-59864528D01*
X114789346Y-59881592D01*
X114622750Y-59932128D01*
X114469214Y-60014195D01*
X114334638Y-60124638D01*
X114329258Y-60131194D01*
X114263785Y-60051415D01*
X114167094Y-59972063D01*
X114056780Y-59913098D01*
X113937082Y-59876788D01*
X113812600Y-59864528D01*
X113694350Y-59867600D01*
X113535600Y-60026350D01*
X113535600Y-61004600D01*
X113555600Y-61004600D01*
X113555600Y-61450600D01*
X113535600Y-61450600D01*
X113535600Y-62428850D01*
X113694350Y-62587600D01*
X113812600Y-62590672D01*
X113937082Y-62578412D01*
X114056780Y-62542102D01*
X114167094Y-62483137D01*
X114263785Y-62403785D01*
X114329258Y-62324006D01*
X114334638Y-62330562D01*
X114469214Y-62441005D01*
X114622750Y-62523072D01*
X114789346Y-62573608D01*
X114962600Y-62590672D01*
X115462600Y-62590672D01*
X115635854Y-62573608D01*
X115802450Y-62523072D01*
X115955986Y-62441005D01*
X116090562Y-62330562D01*
X116201005Y-62195986D01*
X116283072Y-62042450D01*
X116289468Y-62021365D01*
X116341487Y-62016241D01*
X116489460Y-61971354D01*
X116625833Y-61898462D01*
X116745364Y-61800364D01*
X116769947Y-61770410D01*
X116959685Y-61580672D01*
X118487600Y-61580672D01*
X118612082Y-61568412D01*
X118731780Y-61532102D01*
X118842094Y-61473137D01*
X118938785Y-61393785D01*
X119018137Y-61297094D01*
X119077102Y-61186780D01*
X119113412Y-61067082D01*
X119125672Y-60942600D01*
X119125672Y-58542600D01*
X119113412Y-58418118D01*
X119077102Y-58298420D01*
X119018137Y-58188106D01*
X118938785Y-58091415D01*
X118842094Y-58012063D01*
X118731780Y-57953098D01*
X118612082Y-57916788D01*
X118487600Y-57904528D01*
X117888135Y-57904528D01*
X117997374Y-57831537D01*
X118141537Y-57687374D01*
X118254805Y-57517856D01*
X118332826Y-57329498D01*
X118372600Y-57129539D01*
X118372600Y-56925661D01*
X118350262Y-56813361D01*
X118413065Y-56734606D01*
X118470474Y-56623475D01*
X118505099Y-56503278D01*
X118515609Y-56378637D01*
X118512600Y-55956850D01*
X118353850Y-55798100D01*
X117750600Y-55798100D01*
X117750600Y-55818100D01*
X117404600Y-55818100D01*
X117404600Y-55798100D01*
X117334600Y-55798100D01*
X117334600Y-55352100D01*
X117404600Y-55352100D01*
X117404600Y-54286350D01*
X117750600Y-54286350D01*
X117750600Y-55352100D01*
X118353850Y-55352100D01*
X118512600Y-55193350D01*
X118515609Y-54771563D01*
X118505099Y-54646922D01*
X118470474Y-54526725D01*
X118413065Y-54415594D01*
X118335078Y-54317797D01*
X118239511Y-54237095D01*
X118130036Y-54176587D01*
X118010860Y-54138599D01*
X117909350Y-54127600D01*
X117750600Y-54286350D01*
X117404600Y-54286350D01*
X117245850Y-54127600D01*
X117144340Y-54138599D01*
X117025164Y-54176587D01*
X116915689Y-54237095D01*
X116893153Y-54256126D01*
X116759182Y-54184516D01*
X116611345Y-54139671D01*
X116457600Y-54124528D01*
X116157600Y-54124528D01*
X116003855Y-54139671D01*
X115856018Y-54184516D01*
X115719771Y-54257342D01*
X115600349Y-54355349D01*
X115502342Y-54474771D01*
X115429516Y-54611018D01*
X115386568Y-54752600D01*
X115181152Y-54752600D01*
X115142599Y-54748803D01*
X115104046Y-54752600D01*
X115104039Y-54752600D01*
X114988713Y-54763959D01*
X114840740Y-54808846D01*
X114704367Y-54881738D01*
X114662605Y-54916012D01*
X114614787Y-54955255D01*
X114614784Y-54955258D01*
X114584836Y-54979836D01*
X114560258Y-55009784D01*
X113939283Y-55630759D01*
X113950881Y-52963603D01*
X113948222Y-52937194D01*
X113940788Y-52913433D01*
X113928862Y-52891579D01*
X113912901Y-52872472D01*
X113893520Y-52856846D01*
X113871462Y-52845301D01*
X113847576Y-52838281D01*
X113822779Y-52836056D01*
X113295520Y-52840636D01*
X113273462Y-52799367D01*
X113175364Y-52679836D01*
X113145415Y-52655257D01*
X112649946Y-52159789D01*
X112625364Y-52129836D01*
X112505833Y-52031738D01*
X112369460Y-51958846D01*
X112221487Y-51913959D01*
X112106161Y-51902600D01*
X112106153Y-51902600D01*
X112067600Y-51898803D01*
X112029047Y-51902600D01*
X108256152Y-51902600D01*
X108220568Y-51899095D01*
X108251373Y-51824726D01*
X108394600Y-51104677D01*
X108394600Y-50370523D01*
X108251373Y-49650474D01*
X107970424Y-48972204D01*
X107786940Y-48697600D01*
X115369528Y-48697600D01*
X115369528Y-49862600D01*
G04 #@! TA.AperFunction,Conductor*
D25*
G36*
X115369528Y-49862600D02*
G01*
X115384671Y-50016345D01*
X115429516Y-50164182D01*
X115502342Y-50300429D01*
X115517600Y-50319021D01*
X115517600Y-50559047D01*
X115513803Y-50597600D01*
X115517600Y-50636153D01*
X115517600Y-50636160D01*
X115528959Y-50751486D01*
X115573846Y-50899459D01*
X115646738Y-51035832D01*
X115744836Y-51155364D01*
X115774791Y-51179947D01*
X116060249Y-51465405D01*
X116084836Y-51495364D01*
X116204367Y-51593462D01*
X116340740Y-51666354D01*
X116488713Y-51711242D01*
X116563626Y-51718620D01*
X116604039Y-51722600D01*
X116604044Y-51722600D01*
X116642600Y-51726397D01*
X116681156Y-51722600D01*
X117442443Y-51722600D01*
X119901534Y-54181691D01*
X119894339Y-55843240D01*
X119896901Y-55869177D01*
X119904245Y-55892966D01*
X119916089Y-55914865D01*
X119931977Y-55934032D01*
X119951300Y-55949732D01*
X119973314Y-55961360D01*
X119997173Y-55968470D01*
X120021961Y-55970788D01*
X124441942Y-55949099D01*
X124465554Y-55946767D01*
X124489409Y-55939644D01*
X124511417Y-55928003D01*
X124530730Y-55912293D01*
X124546608Y-55893117D01*
X124558439Y-55871212D01*
X124565770Y-55847419D01*
X124568318Y-55822653D01*
X124569818Y-55477600D01*
X128339528Y-55477600D01*
X128342600Y-55545850D01*
X128501350Y-55704600D01*
X129154600Y-55704600D01*
X129154600Y-55001350D01*
X129600600Y-55001350D01*
X129600600Y-55704600D01*
X130253850Y-55704600D01*
X130412600Y-55545850D01*
X130415672Y-55477600D01*
X130403412Y-55353118D01*
X130367102Y-55233420D01*
X130308137Y-55123106D01*
X130228785Y-55026415D01*
X130132094Y-54947063D01*
X130021780Y-54888098D01*
X129902082Y-54851788D01*
X129777600Y-54839528D01*
X129759350Y-54842600D01*
X129600600Y-55001350D01*
X129154600Y-55001350D01*
X128995850Y-54842600D01*
X128977600Y-54839528D01*
X128853118Y-54851788D01*
X128733420Y-54888098D01*
X128623106Y-54947063D01*
X128526415Y-55026415D01*
X128447063Y-55123106D01*
X128388098Y-55233420D01*
X128351788Y-55353118D01*
X128339528Y-55477600D01*
X124569818Y-55477600D01*
X124580880Y-52933651D01*
X124578337Y-52907807D01*
X124571011Y-52884013D01*
X124559184Y-52862105D01*
X124543311Y-52842925D01*
X124524000Y-52827211D01*
X124501995Y-52815566D01*
X124478141Y-52808438D01*
X124453355Y-52806100D01*
X123002270Y-52812112D01*
X118899947Y-48709790D01*
X118889943Y-48697600D01*
X126048260Y-48697600D01*
X125864776Y-48972204D01*
X125583827Y-49650474D01*
X125440600Y-50370523D01*
X125440600Y-51104677D01*
X125583827Y-51824726D01*
X125864776Y-52502996D01*
X126272650Y-53113424D01*
X126791776Y-53632550D01*
X127402204Y-54040424D01*
X128080474Y-54321373D01*
X128800523Y-54464600D01*
X129534677Y-54464600D01*
X130254726Y-54321373D01*
X130932996Y-54040424D01*
X131230736Y-53841481D01*
X131229345Y-57088022D01*
X131178785Y-57026415D01*
X131082094Y-56947063D01*
X130971780Y-56888098D01*
X130852082Y-56851788D01*
X130727600Y-56839528D01*
X130215695Y-56839528D01*
X130228785Y-56828785D01*
X130308137Y-56732094D01*
X130367102Y-56621780D01*
X130403412Y-56502082D01*
X130415672Y-56377600D01*
X130412600Y-56309350D01*
X130253850Y-56150600D01*
X129600600Y-56150600D01*
X129600600Y-56853850D01*
X129651767Y-56905017D01*
X129573106Y-56947063D01*
X129476415Y-57026415D01*
X129397063Y-57123106D01*
X129386643Y-57142600D01*
X129368557Y-57142600D01*
X129358137Y-57123106D01*
X129278785Y-57026415D01*
X129182094Y-56947063D01*
X129103433Y-56905017D01*
X129154600Y-56853850D01*
X129154600Y-56150600D01*
X128501350Y-56150600D01*
X128342600Y-56309350D01*
X128339528Y-56377600D01*
X128351788Y-56502082D01*
X128388098Y-56621780D01*
X128447063Y-56732094D01*
X128526415Y-56828785D01*
X128539505Y-56839528D01*
X128027600Y-56839528D01*
X127903118Y-56851788D01*
X127783420Y-56888098D01*
X127673106Y-56947063D01*
X127576415Y-57026415D01*
X127497063Y-57123106D01*
X127462547Y-57187681D01*
X127425740Y-57198846D01*
X127289367Y-57271738D01*
X127169836Y-57369836D01*
X127145253Y-57399790D01*
X126728589Y-57816454D01*
X126718412Y-57713118D01*
X126682102Y-57593420D01*
X126623137Y-57483106D01*
X126543785Y-57386415D01*
X126447094Y-57307063D01*
X126336780Y-57248098D01*
X126217082Y-57211788D01*
X126092600Y-57199528D01*
X125974350Y-57202600D01*
X125815600Y-57361350D01*
X125815600Y-58339600D01*
X125835600Y-58339600D01*
X125835600Y-58785600D01*
X125815600Y-58785600D01*
X125815600Y-59581350D01*
X125800600Y-59596350D01*
X125800600Y-60574600D01*
X125820600Y-60574600D01*
X125820600Y-61020600D01*
X125800600Y-61020600D01*
X125800600Y-61040600D01*
X125354600Y-61040600D01*
X125354600Y-61020600D01*
X125334600Y-61020600D01*
X125334600Y-60574600D01*
X125354600Y-60574600D01*
X125354600Y-59778850D01*
X125369600Y-59763850D01*
X125369600Y-58785600D01*
X125349600Y-58785600D01*
X125349600Y-58339600D01*
X125369600Y-58339600D01*
X125369600Y-57361350D01*
X125210850Y-57202600D01*
X125092600Y-57199528D01*
X124968118Y-57211788D01*
X124848420Y-57248098D01*
X124738106Y-57307063D01*
X124641415Y-57386415D01*
X124575942Y-57466194D01*
X124570562Y-57459638D01*
X124435986Y-57349195D01*
X124282450Y-57267128D01*
X124115854Y-57216592D01*
X123942600Y-57199528D01*
X123442600Y-57199528D01*
X123269346Y-57216592D01*
X123102750Y-57267128D01*
X122949214Y-57349195D01*
X122814638Y-57459638D01*
X122704195Y-57594214D01*
X122622128Y-57747750D01*
X122571592Y-57914346D01*
X122560481Y-58027153D01*
X122542094Y-58012063D01*
X122431780Y-57953098D01*
X122312082Y-57916788D01*
X122187600Y-57904528D01*
X120187600Y-57904528D01*
X120063118Y-57916788D01*
X119943420Y-57953098D01*
X119833106Y-58012063D01*
X119736415Y-58091415D01*
X119657063Y-58188106D01*
X119598098Y-58298420D01*
X119561788Y-58418118D01*
X119549528Y-58542600D01*
X119549528Y-60942600D01*
X119561788Y-61067082D01*
X119598098Y-61186780D01*
X119657063Y-61297094D01*
X119736415Y-61393785D01*
X119833106Y-61473137D01*
X119943420Y-61532102D01*
X120063118Y-61568412D01*
X120187600Y-61580672D01*
X120478202Y-61580672D01*
X120503869Y-61628692D01*
X120427332Y-61660395D01*
X120257814Y-61773663D01*
X120113651Y-61917826D01*
X120000383Y-62087344D01*
X119922362Y-62275702D01*
X119911053Y-62332557D01*
X119797552Y-62446058D01*
X119763784Y-62473771D01*
X119736071Y-62507539D01*
X119736068Y-62507542D01*
X119653190Y-62608529D01*
X119571012Y-62762275D01*
X119520405Y-62929098D01*
X119514714Y-62986881D01*
X119513933Y-62994814D01*
X119413855Y-63004671D01*
X119266018Y-63049516D01*
X119241540Y-63062600D01*
X119171069Y-63062600D01*
X119127600Y-63058319D01*
X119084131Y-63062600D01*
X119084123Y-63062600D01*
X118968906Y-63073948D01*
X118954109Y-63075405D01*
X118903503Y-63090757D01*
X118787287Y-63126011D01*
X118633541Y-63208189D01*
X118498783Y-63318783D01*
X118471068Y-63352554D01*
X118251022Y-63572600D01*
X109324179Y-63572600D01*
X110112650Y-62784129D01*
X110146417Y-62756417D01*
X110175085Y-62721486D01*
X110257011Y-62621659D01*
X110339189Y-62467914D01*
X110389795Y-62301090D01*
X110392295Y-62275702D01*
X110402600Y-62171077D01*
X110402600Y-62171069D01*
X110406881Y-62127600D01*
X110402600Y-62084131D01*
X110402600Y-61952600D01*
X112174528Y-61952600D01*
X112186788Y-62077082D01*
X112223098Y-62196780D01*
X112282063Y-62307094D01*
X112361415Y-62403785D01*
X112458106Y-62483137D01*
X112568420Y-62542102D01*
X112688118Y-62578412D01*
X112812600Y-62590672D01*
X112930850Y-62587600D01*
X113089600Y-62428850D01*
X113089600Y-61450600D01*
X112336350Y-61450600D01*
X112177600Y-61609350D01*
X112174528Y-61952600D01*
X110402600Y-61952600D01*
X110402600Y-60502600D01*
X112174528Y-60502600D01*
X112177600Y-60845850D01*
X112336350Y-61004600D01*
X113089600Y-61004600D01*
X113089600Y-60026350D01*
X112930850Y-59867600D01*
X112812600Y-59864528D01*
X112688118Y-59876788D01*
X112568420Y-59913098D01*
X112458106Y-59972063D01*
X112361415Y-60051415D01*
X112282063Y-60148106D01*
X112223098Y-60258420D01*
X112186788Y-60378118D01*
X112174528Y-60502600D01*
X110402600Y-60502600D01*
X110402600Y-57204178D01*
X111212650Y-56394129D01*
X111246417Y-56366417D01*
X111291700Y-56311241D01*
X111357011Y-56231659D01*
X111407285Y-56137601D01*
X111439189Y-56077913D01*
X111462351Y-56001559D01*
X113588764Y-55981278D01*
X113070515Y-56499528D01*
X113067599Y-56499528D01*
X112894345Y-56516592D01*
X112727749Y-56567128D01*
X112574213Y-56649195D01*
X112439638Y-56759638D01*
X112329195Y-56894213D01*
X112247128Y-57047749D01*
X112196592Y-57214345D01*
X112179528Y-57387599D01*
X112179528Y-58287601D01*
X112196592Y-58460855D01*
X112247128Y-58627451D01*
X112329195Y-58780987D01*
X112439638Y-58915562D01*
X112574213Y-59026005D01*
X112727749Y-59108072D01*
X112894345Y-59158608D01*
X113067599Y-59175672D01*
X113592601Y-59175672D01*
X113765855Y-59158608D01*
X113932451Y-59108072D01*
X114085987Y-59026005D01*
X114220562Y-58915562D01*
X114242600Y-58888709D01*
X114264638Y-58915562D01*
X114399213Y-59026005D01*
X114552749Y-59108072D01*
X114719345Y-59158608D01*
X114892599Y-59175672D01*
X115417601Y-59175672D01*
X115590855Y-59158608D01*
X115757451Y-59108072D01*
X115849528Y-59058856D01*
X115849528Y-59957292D01*
X115802450Y-59932128D01*
X115635854Y-59881592D01*
X115462600Y-59864528D01*
X114962600Y-59864528D01*
X114789346Y-59881592D01*
X114622750Y-59932128D01*
X114469214Y-60014195D01*
X114334638Y-60124638D01*
X114329258Y-60131194D01*
X114263785Y-60051415D01*
X114167094Y-59972063D01*
X114056780Y-59913098D01*
X113937082Y-59876788D01*
X113812600Y-59864528D01*
X113694350Y-59867600D01*
X113535600Y-60026350D01*
X113535600Y-61004600D01*
X113555600Y-61004600D01*
X113555600Y-61450600D01*
X113535600Y-61450600D01*
X113535600Y-62428850D01*
X113694350Y-62587600D01*
X113812600Y-62590672D01*
X113937082Y-62578412D01*
X114056780Y-62542102D01*
X114167094Y-62483137D01*
X114263785Y-62403785D01*
X114329258Y-62324006D01*
X114334638Y-62330562D01*
X114469214Y-62441005D01*
X114622750Y-62523072D01*
X114789346Y-62573608D01*
X114962600Y-62590672D01*
X115462600Y-62590672D01*
X115635854Y-62573608D01*
X115802450Y-62523072D01*
X115955986Y-62441005D01*
X116090562Y-62330562D01*
X116201005Y-62195986D01*
X116283072Y-62042450D01*
X116289468Y-62021365D01*
X116341487Y-62016241D01*
X116489460Y-61971354D01*
X116625833Y-61898462D01*
X116745364Y-61800364D01*
X116769947Y-61770410D01*
X116959685Y-61580672D01*
X118487600Y-61580672D01*
X118612082Y-61568412D01*
X118731780Y-61532102D01*
X118842094Y-61473137D01*
X118938785Y-61393785D01*
X119018137Y-61297094D01*
X119077102Y-61186780D01*
X119113412Y-61067082D01*
X119125672Y-60942600D01*
X119125672Y-58542600D01*
X119113412Y-58418118D01*
X119077102Y-58298420D01*
X119018137Y-58188106D01*
X118938785Y-58091415D01*
X118842094Y-58012063D01*
X118731780Y-57953098D01*
X118612082Y-57916788D01*
X118487600Y-57904528D01*
X117888135Y-57904528D01*
X117997374Y-57831537D01*
X118141537Y-57687374D01*
X118254805Y-57517856D01*
X118332826Y-57329498D01*
X118372600Y-57129539D01*
X118372600Y-56925661D01*
X118350262Y-56813361D01*
X118413065Y-56734606D01*
X118470474Y-56623475D01*
X118505099Y-56503278D01*
X118515609Y-56378637D01*
X118512600Y-55956850D01*
X118353850Y-55798100D01*
X117750600Y-55798100D01*
X117750600Y-55818100D01*
X117404600Y-55818100D01*
X117404600Y-55798100D01*
X117334600Y-55798100D01*
X117334600Y-55352100D01*
X117404600Y-55352100D01*
X117404600Y-54286350D01*
X117750600Y-54286350D01*
X117750600Y-55352100D01*
X118353850Y-55352100D01*
X118512600Y-55193350D01*
X118515609Y-54771563D01*
X118505099Y-54646922D01*
X118470474Y-54526725D01*
X118413065Y-54415594D01*
X118335078Y-54317797D01*
X118239511Y-54237095D01*
X118130036Y-54176587D01*
X118010860Y-54138599D01*
X117909350Y-54127600D01*
X117750600Y-54286350D01*
X117404600Y-54286350D01*
X117245850Y-54127600D01*
X117144340Y-54138599D01*
X117025164Y-54176587D01*
X116915689Y-54237095D01*
X116893153Y-54256126D01*
X116759182Y-54184516D01*
X116611345Y-54139671D01*
X116457600Y-54124528D01*
X116157600Y-54124528D01*
X116003855Y-54139671D01*
X115856018Y-54184516D01*
X115719771Y-54257342D01*
X115600349Y-54355349D01*
X115502342Y-54474771D01*
X115429516Y-54611018D01*
X115386568Y-54752600D01*
X115181152Y-54752600D01*
X115142599Y-54748803D01*
X115104046Y-54752600D01*
X115104039Y-54752600D01*
X114988713Y-54763959D01*
X114840740Y-54808846D01*
X114704367Y-54881738D01*
X114662605Y-54916012D01*
X114614787Y-54955255D01*
X114614784Y-54955258D01*
X114584836Y-54979836D01*
X114560258Y-55009784D01*
X113939283Y-55630759D01*
X113950881Y-52963603D01*
X113948222Y-52937194D01*
X113940788Y-52913433D01*
X113928862Y-52891579D01*
X113912901Y-52872472D01*
X113893520Y-52856846D01*
X113871462Y-52845301D01*
X113847576Y-52838281D01*
X113822779Y-52836056D01*
X113295520Y-52840636D01*
X113273462Y-52799367D01*
X113175364Y-52679836D01*
X113145415Y-52655257D01*
X112649946Y-52159789D01*
X112625364Y-52129836D01*
X112505833Y-52031738D01*
X112369460Y-51958846D01*
X112221487Y-51913959D01*
X112106161Y-51902600D01*
X112106153Y-51902600D01*
X112067600Y-51898803D01*
X112029047Y-51902600D01*
X108256152Y-51902600D01*
X108220568Y-51899095D01*
X108251373Y-51824726D01*
X108394600Y-51104677D01*
X108394600Y-50370523D01*
X108251373Y-49650474D01*
X107970424Y-48972204D01*
X107786940Y-48697600D01*
X115369528Y-48697600D01*
X115369528Y-49862600D01*
G37*
G04 #@! TD.AperFunction*
M02*
