M48
; DRILL file {KiCad 7.0.9-7.0.9~ubuntu23.04.1} date Fri Feb  2 14:18:09 2024
; FORMAT={-:-/ absolute / inch / decimal}
; #@! TF.CreationDate,2024-02-02T14:18:09+00:00
; #@! TF.GenerationSoftware,Kicad,Pcbnew,7.0.9-7.0.9~ubuntu23.04.1
; #@! TF.FileFunction,MixedPlating,1,2
FMAT,2
INCH
; #@! TA.AperFunction,Plated,PTH,ViaDrill
T1C0.0157
; #@! TA.AperFunction,Plated,PTH,ComponentDrill
T2C0.0295
; #@! TA.AperFunction,Plated,PTH,ComponentDrill
T3C0.0394
; #@! TA.AperFunction,Plated,PTH,ComponentDrill
T4C0.0409
; #@! TA.AperFunction,Plated,PTH,ComponentDrill
T5C0.0433
; #@! TA.AperFunction,Plated,PTH,ComponentDrill
T6C0.0472
; #@! TA.AperFunction,Plated,PTH,ComponentDrill
T7C0.0520
; #@! TA.AperFunction,NonPlated,NPTH,ComponentDrill
T8C0.1260
; #@! TA.AperFunction,NonPlated,NPTH,ComponentDrill
T9C0.1575
%
G90
G05
T1
X3.5912Y-2.6208
X3.6061Y-2.396
X3.6295Y-5.0047
X3.6295Y-5.044
X3.6435Y-2.396
X3.6689Y-5.0047
X3.6689Y-5.044
X3.6829Y-2.396
X3.7167Y-3.6947
X3.8075Y-2.6252
X3.8101Y-3.3867
X3.8101Y-3.4261
X3.8495Y-3.3867
X3.8495Y-3.4261
X3.8839Y-2.7992
X3.8869Y-3.3867
X3.8869Y-3.4261
X3.9372Y-2.7992
X3.9905Y-2.7992
X3.9917Y-4.4862
X3.9917Y-4.5255
X4.0118Y-4.8819
X4.0311Y-4.4862
X4.0311Y-4.5255
X4.0438Y-2.7992
X4.0485Y-3.0374
X4.0571Y-5.0394
X4.0792Y-4.8573
X4.0972Y-2.7992
X4.0984Y-5.0413
X4.1004Y-4.8209
X4.1018Y-3.0374
X4.122Y-4.9144
X4.1505Y-2.7992
X4.1552Y-3.0374
X4.2028Y-2.6171
X4.2028Y-2.6575
X4.2038Y-2.7992
X4.2085Y-3.0374
X4.2146Y-4.7106
X4.2151Y-4.5163
X4.2151Y-4.5556
X4.248Y-4.7549
X4.251Y-3.6377
X4.251Y-3.6771
X4.2544Y-4.5163
X4.2544Y-4.5556
X4.2572Y-2.7992
X4.2618Y-3.0374
X4.2815Y-5.0394
X4.2904Y-3.6377
X4.2904Y-3.6771
X4.2933Y-4.7992
X4.297Y-2.9026
X4.3105Y-2.7992
X4.311Y-5.0138
X4.3189Y-4.0903
X4.3189Y-4.1296
X4.3231Y-3.839
X4.3231Y-3.8783
X4.3278Y-3.6377
X4.3278Y-3.6771
X4.3392Y-4.2537
X4.3583Y-4.0903
X4.3583Y-4.1296
X4.3625Y-3.839
X4.3625Y-3.8783
X4.3638Y-2.7992
X4.3786Y-4.2537
X4.435Y-5.0524
X4.4551Y-3.048
X4.474Y-5.0524
X4.4967Y-3.6633
X4.4967Y-3.7026
X4.5122Y-5.0524
X4.5138Y-2.6516
X4.5315Y-4.4341
X4.5315Y-4.4695
X4.5315Y-4.5089
X4.5319Y-4.0601
X4.5467Y-2.3671
X4.5787Y-4.8012
X4.586Y-2.3671
X4.6654Y-5.0492
X4.6703Y-2.7195
X4.7224Y-3.2646
X4.7343Y-5.0492
X4.7352Y-2.4484
X4.7539Y-2.8691
X4.7544Y-2.8081
X4.7549Y-2.9301
X4.7618Y-3.4764
X4.7618Y-3.5157
X4.7726Y-2.4484
X4.812Y-2.4484
X4.8348Y-3.0635
X4.8455Y-4.9124
X4.8681Y-2.4311
X4.8708Y-3.0795
X4.9011Y-3.011
X4.9114Y-2.4016
X4.9862Y-3.5827
X4.9862Y-3.9173
X4.9941Y-3.8622
X4.9976Y-4.7043
X5.0295Y-3.5827
X5.0325Y-2.7673
X5.0325Y-2.8067
X5.0601Y-4.6821
X5.0699Y-2.7673
X5.0699Y-2.8067
X5.0791Y-3.4248
X5.1043Y-4.7441
X5.1063Y-2.6457
X5.1093Y-2.7673
X5.1093Y-2.8067
X5.113Y-3.0086
X5.113Y-3.048
X5.1142Y-2.4646
X5.1152Y-3.2878
X5.124Y-4.6634
X5.1319Y-2.4961
X5.1433Y-4.4161
X5.1433Y-4.4555
X5.1433Y-4.4949
X5.1504Y-3.0086
X5.1504Y-3.048
X5.1545Y-3.2878
X5.1555Y-3.7805
X5.1555Y-4.2766
X5.1555Y-4.7087
X5.1772Y-4.1752
X5.1898Y-3.0086
X5.1898Y-3.048
X5.1909Y-4.6732
X5.1919Y-3.2878
X5.2087Y-3.7805
X5.2106Y-4.313
X5.2352Y-4.5787
X5.247Y-3.4561
X5.2539Y-4.2864
X5.2539Y-4.6717
X5.2844Y-3.4561
X5.2874Y-2.748
X5.3091Y-4.3937
X5.3091Y-4.1535
X5.315Y-4.6988
X5.3701Y-4.0197
X5.3701Y-4.0591
X5.3773Y-4.3297
X5.4173Y-4.9528
X5.437Y-3.4587
X5.437Y-3.498
X5.4744Y-4.9528
X5.4801Y-3.2521
X5.4801Y-3.2914
X5.5157Y-4.685
X5.5157Y-4.75
X5.5195Y-3.2521
X5.5195Y-3.2914
X5.5231Y-3.7795
X5.5315Y-4.0177
X5.5315Y-4.0571
X5.5569Y-3.2521
X5.5569Y-3.2914
X5.5787Y-4.1969
X5.5984Y-3.7795
X5.6064Y-4.5257
X5.622Y-4.4449
X5.628Y-4.3819
X5.6399Y-4.9538
X5.6457Y-4.5236
X5.6649Y-4.4424
X5.6713Y-4.9733
X5.6742Y-4.7835
X5.6742Y-4.6671
X5.7027Y-4.5911
X5.7313Y-4.4724
X5.7579Y-3.7795
X5.7746Y-3.9998
X5.8012Y-4.4016
X5.8012Y-4.4409
X5.814Y-3.9998
X5.8281Y-4.7429
X5.8325Y-3.4332
X5.8382Y-4.7967
X5.8416Y-4.8359
X5.8445Y-4.1535
X5.8484Y-3.5974
X5.8563Y-3.7795
X5.8718Y-3.4332
X5.8898Y-3.1841
X5.8976Y-3.5482
X5.9092Y-3.4332
X5.9321Y-4.1152
X6.0118Y-4.6368
X6.0197Y-4.4862
X6.0197Y-4.5354
X6.0217Y-4.5866
X6.0689Y-4.0394
X6.0689Y-4.1063
X6.0689Y-4.1732
X6.0728Y-4.9528
X6.0728Y-4.9921
X6.0886Y-4.6024
X6.0886Y-4.6575
X6.1258Y-3.6517
X6.1258Y-3.6911
X6.1476Y-4.6614
X6.1516Y-4.6969
X6.1752Y-4.7205
X6.2146Y-4.1654
X6.2185Y-4.9213
X6.2205Y-4.874
X6.2274Y-4.3415
X6.2362Y-4.128
X6.2421Y-4.5
X6.2697Y-4.7795
X6.2736Y-4.6614
X6.2756Y-3.3248
X6.2795Y-3.2717
X6.2825Y-4.1801
X6.2852Y-3.446
X6.3246Y-3.446
X6.3248Y-4.3898
X6.3248Y-5.0669
X6.3366Y-4.5276
X6.3445Y-4.9331
X6.362Y-3.446
X6.3681Y-4.8071
X6.3799Y-2.2303
X6.3868Y-3.1679
X6.4043Y-3.6645
X6.4043Y-3.7038
X6.4179Y-5.0678
X6.4272Y-4.626
X6.4281Y-3.1679
X6.4429Y-3.937
X6.4429Y-3.9843
X6.4508Y-4.9331
X6.4634Y-4.2195
X6.4685Y-4.5256
X6.4695Y-3.1679
X6.4783Y-4.8071
X6.4952Y-2.8132
X6.4952Y-2.8506
X6.4952Y-2.89
X6.5038Y-2.4154
X6.5039Y-2.2264
X6.5039Y-2.2638
X6.5039Y-2.376
X6.5039Y-2.4921
X6.5039Y-2.5295
X6.5138Y-4.1063
X6.5179Y-4.2372
X6.5217Y-4.378
X6.5346Y-2.8132
X6.5346Y-2.8506
X6.5346Y-2.89
X6.5354Y-5.0786
X6.5571Y-4.5039
X6.5748Y-5.0786
X6.6122Y-4.3543
X6.613Y-3.8003
X6.613Y-3.8397
X6.6171Y-2.997
X6.6171Y-3.0384
X6.6171Y-3.0817
X6.628Y-4.5512
X6.6523Y-3.8003
X6.6523Y-3.8397
X6.6717Y-3.3058
X6.672Y-3.4489
X6.6752Y-4.3543
X6.6831Y-3.1673
X6.6897Y-3.8003
X6.6897Y-3.8397
X6.7091Y-3.3058
X6.7114Y-3.4489
X6.7225Y-3.1673
X6.7421Y-4.9252
X6.7488Y-3.4489
X6.7618Y-3.1673
X6.7933Y-4.8228
X6.7992Y-4.7205
X6.7992Y-3.1673
X6.8121Y-4.4557
X6.8121Y-4.4951
X6.813Y-4.9252
X6.8248Y-5.0394
X6.872Y-4.3356
X6.9272Y-4.7874
X6.9705Y-4.7874
X6.9705Y-4.9252
X6.9823Y-5.0502
X7.002Y-4.3346
X7.0067Y-3.8594
X7.0067Y-3.8987
X7.0256Y-5.0502
X7.0354Y-2.9665
X7.0354Y-3.0059
X7.046Y-3.8594
X7.046Y-3.8987
X7.0728Y-3.3435
X7.0762Y-2.9674
X7.0772Y-3.0059
X7.0834Y-3.8594
X7.0834Y-3.8987
X7.13Y-4.3329
X7.1729Y-4.3329
X7.1969Y-3.5295
X7.198Y-3.4803
X7.2158Y-4.3329
X7.2461Y-5.0502
X7.2638Y-4.9508
X7.311Y-3.7717
X7.3209Y-3.5945
X7.3935Y-4.6237
X7.3943Y-4.6637
X7.4337Y-4.6243
X7.4337Y-4.6637
X7.4685Y-3.5953
X7.4711Y-4.6243
X7.4711Y-4.6637
X7.4763Y-3.1829
X7.5138Y-4.9961
X7.5157Y-3.1831
X7.5177Y-3.5965
X7.5531Y-4.9961
X7.5541Y-4.8091
X7.5551Y-3.1831
X7.5556Y-4.7584
X7.561Y-3.4988
X7.5906Y-4.9961
X7.5925Y-3.1831
X7.6102Y-3.5
X7.6194Y-4.0461
X7.628Y-3.1831
X7.6588Y-4.0461
X7.6654Y-3.1831
X7.6962Y-4.0461
X7.7264Y-4.7933
X7.7513Y-4.0461
X7.7907Y-4.0461
X7.81Y-5.0315
X7.8281Y-4.0461
X7.838Y-3.8443
X7.838Y-3.8837
X7.8677Y-4.2621
X7.8677Y-4.3024
X7.9002Y-3.1439
X7.9002Y-3.1833
X7.907Y-4.2621
X7.907Y-4.3015
X7.9396Y-3.1439
X7.9396Y-3.1833
X7.9444Y-4.2621
X7.9444Y-4.3015
X7.977Y-3.1439
X7.977Y-3.1833
X7.9823Y-2.6476
X7.9823Y-2.687
X8.0354Y-2.439
X8.0748Y-2.439
X8.1142Y-2.439
X8.1339Y-5.0016
X8.1346Y-5.0415
X8.1378Y-2.8386
X8.1545Y-2.9754
X8.1545Y-3.0148
X8.1575Y-3.7687
X8.174Y-5.0021
X8.174Y-5.0415
X8.1939Y-2.9754
X8.1939Y-3.0148
X8.2114Y-5.0021
X8.2114Y-5.0415
X8.2313Y-2.9754
X8.2313Y-3.0148
T2
X4.6142Y-5.128
X4.6929Y-5.128
T3
X4.8937Y-3.3801
X4.8937Y-3.4801
X4.8937Y-3.5801
X4.8937Y-3.6801
X4.8937Y-3.7801
X4.8937Y-3.8801
X4.8937Y-3.9801
X4.8937Y-4.0801
X4.8937Y-4.1801
X4.8937Y-4.2801
X4.8937Y-4.3801
X4.8937Y-4.4801
X4.8937Y-4.5801
X4.8937Y-4.6801
X4.9949Y-5.187
X4.9949Y-5.287
X5.0949Y-5.187
X5.0949Y-5.287
X5.1949Y-5.187
X5.1949Y-5.287
X7.502Y-4.437
X7.602Y-4.437
X7.702Y-4.437
X7.802Y-4.437
X7.902Y-4.437
X8.002Y-4.437
X8.102Y-4.437
X8.1024Y-3.8683
X8.1024Y-3.9683
X8.1024Y-4.0683
X8.1024Y-4.1683
T4
X3.6321Y-2.8122
X3.6321Y-2.9122
X3.6321Y-3.0122
X3.6321Y-3.1122
X3.6321Y-3.2122
X3.6321Y-3.3122
X3.6321Y-3.4122
X3.6321Y-3.5122
X3.6321Y-3.6122
X3.6321Y-3.7122
X3.6321Y-3.8122
X3.6321Y-3.9122
X3.6321Y-4.0122
X3.6321Y-4.1122
X3.6321Y-4.2122
X3.6321Y-4.3122
X3.6321Y-4.4122
X3.6321Y-4.5122
X3.6321Y-4.6122
X4.6321Y-2.8122
X4.6321Y-2.9122
X4.6321Y-3.0122
X4.6321Y-3.1122
X4.6321Y-3.2122
X4.6321Y-3.3122
X4.6321Y-3.4122
X4.6321Y-3.5122
X4.6321Y-3.6122
X4.6321Y-3.7122
X4.6321Y-3.8122
X4.6321Y-3.9122
X4.6321Y-4.0122
X4.6321Y-4.1122
X4.6321Y-4.2122
X4.6321Y-4.3122
X4.6321Y-4.4122
X4.6321Y-4.5122
X4.6321Y-4.6122
T5
X3.9704Y-5.1378
X4.0067Y-2.2815
X4.1204Y-5.1378
X4.1567Y-2.2815
X4.2704Y-5.1378
X4.3067Y-2.2815
X4.4204Y-5.1378
X4.4567Y-2.2815
X4.9969Y-2.2815
X5.1469Y-2.2815
X5.2969Y-2.2815
X5.4469Y-2.2815
X5.5354Y-5.1378
X5.6854Y-5.1378
X5.8354Y-5.1378
X5.9854Y-5.1378
X6.1811Y-5.1378
X6.3311Y-5.1378
X6.4811Y-5.1378
X6.6311Y-5.1378
X6.6843Y-2.2815
X6.8267Y-5.1378
X6.8343Y-2.2815
X6.9767Y-5.1378
X7.1267Y-5.1378
X7.2767Y-5.1378
X7.435Y-5.1142
X7.435Y-5.3701
X7.6122Y-5.1142
X7.6122Y-5.3701
X7.7362Y-5.1142
X7.7362Y-5.3701
X7.9134Y-5.1142
X7.9134Y-5.3701
T6
X5.7504Y-2.1417
X5.9472Y-2.1417
X6.1441Y-2.1417
X7.2923Y-2.1437
X7.4892Y-2.1437
X7.686Y-2.1437
T7
X6.2539Y-2.4902
X6.2539Y-2.9626
X7.7959Y-2.4921
X7.7959Y-2.9646
T8
X5.0906Y-3.1644
X5.0906Y-4.8967
X8.0827Y-3.1644
X8.0827Y-4.8967
T9
X3.6398Y-2.1339
X3.6398Y-5.2835
X8.1654Y-2.1339
X8.1654Y-5.2815
T6
G00X5.7736Y-2.4925
M15
G01X5.7736Y-2.4878
M16
G05
G00X5.7736Y-2.965
M15
G01X5.7736Y-2.9602
M16
G05
G00X6.3327Y-2.7283
M15
G01X6.3327Y-2.7244
M16
G05
G00X7.3156Y-2.4945
M15
G01X7.3156Y-2.4898
M16
G05
G00X7.3156Y-2.9669
M15
G01X7.3156Y-2.9622
M16
G05
G00X7.8746Y-2.7303
M15
G01X7.8746Y-2.7264
M16
G05
T0
M30
