M48
; DRILL file {KiCad 5.1.9+dfsg1-1~bpo10+1} date Tue Aug  2 13:44:18 2022
; FORMAT={-:-/ absolute / inch / decimal}
; #@! TF.CreationDate,2022-08-02T13:44:18+00:00
; #@! TF.GenerationSoftware,Kicad,Pcbnew,5.1.9+dfsg1-1~bpo10+1
FMAT,2
INCH
T1C0.0157
T2C0.0295
T3C0.0394
T4C0.0409
T5C0.0433
T6C0.0472
T7C0.0512
T8C0.0520
T9C0.0551
T10C0.1260
T11C0.1575
%
G90
G05
T1
X3.7167Y-3.6947
X3.7421Y-2.4567
X3.8101Y-3.3867
X3.8101Y-3.4261
X3.8228Y-2.6831
X3.8495Y-3.3867
X3.8495Y-3.4261
X3.8762Y-2.6831
X3.8869Y-3.3867
X3.8869Y-3.4261
X3.9193Y-2.5394
X3.9295Y-2.6831
X3.9587Y-4.7756
X3.9828Y-2.6831
X3.9917Y-4.4862
X3.9917Y-4.5255
X3.998Y-4.7441
X4.0098Y-5.0039
X4.0256Y-2.4055
X4.0311Y-4.4862
X4.0311Y-4.5255
X4.0361Y-2.6831
X4.063Y-3.6287
X4.0895Y-2.6831
X4.1024Y-3.6287
X4.1398Y-3.6287
X4.1428Y-2.6831
X4.1961Y-2.6831
X4.2106Y-3.2598
X4.2249Y-4.4966
X4.2249Y-4.536
X4.2495Y-2.6831
X4.2643Y-4.4966
X4.2643Y-4.536
X4.2795Y-3.6287
X4.3028Y-2.6831
X4.3051Y-4.8583
X4.3189Y-3.6287
X4.3189Y-4.0903
X4.3189Y-4.1296
X4.3231Y-3.839
X4.3231Y-3.8783
X4.3392Y-4.2537
X4.3524Y-4.7795
X4.3561Y-2.6831
X4.3563Y-3.6287
X4.3583Y-4.0903
X4.3583Y-4.1296
X4.3625Y-3.839
X4.3625Y-3.8783
X4.3786Y-4.2537
X4.4094Y-2.6831
X4.4114Y-4.9488
X4.4232Y-2.9421
X4.4626Y-2.9421
X4.4654Y-3.2587
X4.4665Y-3.5244
X4.4967Y-3.6633
X4.4967Y-3.7026
X4.5Y-2.9421
X4.5217Y-4.4134
X4.5217Y-4.4488
X4.5217Y-4.4882
X4.5319Y-4.0601
X4.5482Y-4.9557
X4.7343Y-4.7835
X4.7421Y-2.8346
X4.7421Y-2.8839
X4.7618Y-3.4764
X4.7618Y-3.5157
X4.766Y-4.7556
X4.813Y-4.7362
X4.8681Y-2.9512
X4.8681Y-2.9906
X4.9075Y-2.9512
X4.9075Y-2.9906
X4.9213Y-4.8917
X4.9213Y-4.9508
X4.9449Y-2.9512
X4.9449Y-2.9906
X4.9705Y-4.8346
X4.9862Y-3.5827
X5.0295Y-3.5827
X5.0343Y-3.8992
X5.0512Y-3.8573
X5.0965Y-4.7835
X5.1014Y-4.0157
X5.1014Y-4.055
X5.1437Y-4.3819
X5.1437Y-4.4213
X5.1449Y-3.4122
X5.1476Y-4.748
X5.1555Y-4.2766
X5.1752Y-4.063
X5.2106Y-4.312
X5.2146Y-4.6732
X5.2192Y-3.4865
X5.2525Y-4.0199
X5.2525Y-4.0592
X5.2539Y-4.6717
X5.2815Y-3.4764
X5.2854Y-4.5787
X5.2933Y-5.0906
X5.3091Y-4.3858
X5.3091Y-4.1535
X5.315Y-4.748
X5.3209Y-4.2913
X5.3416Y-4.879
X5.3445Y-5.0945
X5.3484Y-4.3858
X5.4232Y-4.0669
X5.4429Y-4.5866
X5.4665Y-3.1008
X5.4665Y-3.1402
X5.4744Y-4.9528
X5.502Y-4.0748
X5.5059Y-3.1008
X5.5059Y-3.1402
X5.5295Y-4.8819
X5.5304Y-3.6086
X5.5308Y-3.6589
X5.542Y-4.0233
X5.542Y-4.0626
X5.5433Y-3.1008
X5.5433Y-3.1402
X5.5512Y-4.748
X5.5576Y-3.7867
X5.561Y-4.9528
X5.5698Y-3.6086
X5.5702Y-3.6589
X5.5814Y-4.0233
X5.5814Y-4.0626
X5.597Y-3.7867
X5.6072Y-3.6086
X5.6076Y-3.6589
X5.6212Y-4.5444
X5.628Y-5.0039
X5.6398Y-4.3976
X5.6481Y-4.4639
X5.6581Y-4.5308
X5.6594Y-4.3307
X5.6713Y-5.0039
X5.6742Y-4.6671
X5.6955Y-4.4715
X5.7029Y-4.5829
X5.748Y-3.7795
X5.7618Y-4.4724
X5.7746Y-3.9998
X5.7815Y-3.5984
X5.7815Y-3.6378
X5.7848Y-4.3957
X5.8091Y-4.1575
X5.8109Y-3.727
X5.814Y-3.9998
X5.8169Y-4.8854
X5.8242Y-4.3957
X5.8283Y-4.8029
X5.8287Y-4.8425
X5.8323Y-4.7564
X5.8445Y-4.5433
X5.8563Y-3.7795
X5.9035Y-3.4512
X5.9035Y-3.4906
X5.9154Y-4.1063
X5.939Y-2.3701
X5.939Y-2.4508
X5.939Y-2.5315
X5.9429Y-3.4512
X5.9429Y-3.4906
X5.9587Y-4.0472
X5.9734Y-4.5767
X5.9803Y-3.4512
X5.9803Y-3.4906
X5.9811Y-3.0929
X6.0109Y-4.6052
X6.0205Y-3.0931
X6.0453Y-2.8622
X6.063Y-4.3406
X6.063Y-4.3898
X6.0689Y-4.1063
X6.0689Y-4.1732
X6.0702Y-3.5092
X6.0886Y-4.6024
X6.0886Y-4.6575
X6.0925Y-4.9528
X6.0925Y-4.9921
X6.128Y-3.3179
X6.1476Y-4.6614
X6.1516Y-4.6969
X6.1752Y-4.7205
X6.1835Y-3.2677
X6.2004Y-2.5949
X6.2106Y-2.4449
X6.2106Y-2.4803
X6.2146Y-4.122
X6.2146Y-4.1654
X6.2229Y-3.2679
X6.2274Y-4.3415
X6.2303Y-4.2323
X6.2358Y-2.5949
X6.2421Y-4.5
X6.2421Y-4.9567
X6.2426Y-4.9168
X6.25Y-2.4449
X6.25Y-2.4803
X6.2579Y-3.2362
X6.2626Y-3.694
X6.2626Y-3.7334
X6.2697Y-4.7795
X6.3Y-3.694
X6.3Y-3.7334
X6.3248Y-4.3898
X6.3248Y-5.0669
X6.3366Y-4.5276
X6.3445Y-4.9331
X6.3681Y-4.8071
X6.376Y-2.9398
X6.4035Y-3.937
X6.4035Y-3.9843
X6.4154Y-2.9399
X6.4179Y-5.0678
X6.4508Y-4.9331
X6.4634Y-4.2195
X6.4783Y-4.8071
X6.5059Y-4.5551
X6.5138Y-4.1063
X6.5179Y-4.2372
X6.5217Y-4.378
X6.5571Y-4.5039
X6.5702Y-5.0786
X6.5846Y-2.748
X6.6096Y-5.0786
X6.6122Y-4.3543
X6.613Y-3.8594
X6.613Y-3.8987
X6.628Y-4.5512
X6.6523Y-3.8594
X6.6523Y-3.8987
X6.6668Y-3.2841
X6.6752Y-4.3543
X6.6897Y-3.8594
X6.6897Y-3.8987
X6.7042Y-3.2841
X6.7421Y-4.9252
X6.7587Y-3.1677
X6.7933Y-4.8228
X6.7981Y-3.1679
X6.8051Y-4.6969
X6.8121Y-4.4557
X6.8121Y-4.4951
X6.813Y-2.7402
X6.813Y-4.9252
X6.8248Y-5.0394
X6.8371Y-3.0419
X6.8374Y-3.1679
X6.8563Y-2.7402
X6.872Y-4.3356
X6.8748Y-3.1679
X6.9272Y-4.7874
X6.9705Y-4.7874
X6.9705Y-4.9252
X6.9823Y-5.0669
X7.002Y-4.3346
X7.0067Y-3.8594
X7.0067Y-3.8987
X7.0256Y-5.0669
X7.046Y-3.8594
X7.046Y-3.8987
X7.0719Y-2.6998
X7.0719Y-2.7392
X7.0728Y-3.3661
X7.0834Y-3.8594
X7.0834Y-3.8987
X7.1093Y-2.6998
X7.1093Y-2.7392
X7.13Y-4.3329
X7.1575Y-3.2823
X7.1729Y-4.3329
X7.18Y-4.455
X7.198Y-3.2835
X7.2158Y-4.3329
X7.2229Y-4.455
X7.2461Y-5.0669
X7.2638Y-4.9508
X7.2657Y-3.7717
X7.2658Y-4.455
X7.3935Y-4.6237
X7.3943Y-4.6637
X7.4337Y-4.6243
X7.4337Y-4.6637
X7.4457Y-3.1579
X7.4705Y-3.5079
X7.4711Y-4.6243
X7.4711Y-4.6637
X7.4833Y-4.8524
X7.4851Y-3.158
X7.5059Y-3.6654
X7.5244Y-3.158
X7.5591Y-4.8622
X7.5618Y-3.158
X7.5689Y-5.0295
X7.5973Y-3.158
X7.6083Y-5.0295
X7.6347Y-3.158
X7.7067Y-3.7244
X7.7264Y-4.7933
X7.7828Y-3.987
X7.7828Y-4.0264
X7.81Y-5.0315
X7.8222Y-3.987
X7.8222Y-4.0264
X7.8596Y-3.987
X7.8596Y-4.0264
X7.8677Y-4.2621
X7.8677Y-4.3024
X7.9002Y-3.1439
X7.9002Y-3.1833
X7.907Y-4.2621
X7.907Y-4.3015
X7.9396Y-3.1439
X7.9396Y-3.1833
X7.9444Y-4.2621
X7.9444Y-4.3015
X7.9469Y-4.0197
X7.977Y-3.1439
X7.977Y-3.1833
X7.9823Y-2.6476
X7.9823Y-2.687
X7.9856Y-3.8453
X7.9856Y-3.8847
X8.002Y-2.4705
X8.002Y-2.5098
X8.0039Y-4.128
X8.1339Y-5.0016
X8.1346Y-5.0415
X8.1378Y-2.8386
X8.1545Y-2.9754
X8.1545Y-3.0148
X8.174Y-5.0021
X8.174Y-5.0415
X8.1939Y-2.9754
X8.1939Y-3.0148
X8.2114Y-5.0021
X8.2114Y-5.0415
X8.2313Y-2.9754
X8.2313Y-3.0148
T2
X6.824Y-5.1516
X6.9028Y-5.1516
X7.1Y-5.1516
X7.1788Y-5.1516
T3
X4.6264Y-5.0354
X4.7264Y-5.0354
X4.8937Y-3.3801
X4.8937Y-3.4801
X4.8937Y-3.5801
X4.8937Y-3.6801
X4.8937Y-3.7801
X4.8937Y-3.8801
X4.8937Y-3.9801
X4.8937Y-4.0801
X4.8937Y-4.1801
X4.8937Y-4.2801
X4.8937Y-4.3801
X4.8937Y-4.4801
X4.8937Y-4.5801
X4.8937Y-4.6801
X4.9949Y-5.187
X4.9949Y-5.287
X5.0949Y-5.187
X5.0949Y-5.287
X5.1949Y-5.187
X5.1949Y-5.287
X7.502Y-4.437
X7.602Y-4.437
X7.702Y-4.437
X7.802Y-4.437
X7.902Y-4.437
X8.002Y-4.437
X8.102Y-4.437
X8.1024Y-3.8683
X8.1024Y-3.9683
X8.1024Y-4.0683
X8.1024Y-4.1683
T4
X3.6321Y-2.8122
X3.6321Y-2.9122
X3.6321Y-3.0122
X3.6321Y-3.1122
X3.6321Y-3.2122
X3.6321Y-3.3122
X3.6321Y-3.4122
X3.6321Y-3.5122
X3.6321Y-3.6122
X3.6321Y-3.7122
X3.6321Y-3.8122
X3.6321Y-3.9122
X3.6321Y-4.0122
X3.6321Y-4.1122
X3.6321Y-4.2122
X3.6321Y-4.3122
X3.6321Y-4.4122
X3.6321Y-4.5122
X3.6321Y-4.6122
X4.6321Y-2.8122
X4.6321Y-2.9122
X4.6321Y-3.0122
X4.6321Y-3.1122
X4.6321Y-3.2122
X4.6321Y-3.3122
X4.6321Y-3.4122
X4.6321Y-3.5122
X4.6321Y-3.6122
X4.6321Y-3.7122
X4.6321Y-3.8122
X4.6321Y-3.9122
X4.6321Y-4.0122
X4.6321Y-4.1122
X4.6321Y-4.2122
X4.6321Y-4.3122
X4.6321Y-4.4122
X4.6321Y-4.5122
X4.6321Y-4.6122
T5
X7.34Y-5.1172
X7.34Y-5.3731
X7.5172Y-5.1172
X7.5172Y-5.3731
X7.6378Y-5.1172
X7.6378Y-5.3731
X7.815Y-5.1172
X7.815Y-5.3731
T6
X5.1844Y-2.1437
X5.3813Y-2.1437
X5.5781Y-2.1437
X7.2657Y-2.1437
X7.4626Y-2.1437
X7.6594Y-2.1437
T7
X4.0094Y-5.2559
X4.1594Y-5.2559
X4.1654Y-2.1075
X4.3094Y-5.2559
X4.3154Y-2.1075
X4.4594Y-5.2559
X4.4654Y-2.1075
X4.6154Y-2.1075
X5.5286Y-5.256
X5.6786Y-5.256
X5.8286Y-5.256
X5.9786Y-5.256
X6.1909Y-5.2555
X6.3079Y-2.1055
X6.3409Y-5.2555
X6.4579Y-2.1055
X6.4909Y-5.2555
X6.6079Y-2.1055
X6.6409Y-5.2555
X6.7579Y-2.1055
T8
X5.688Y-2.4921
X5.688Y-2.9646
X7.7693Y-2.4921
X7.7693Y-2.9646
T9
X6.2488Y-2.7339
X6.2488Y-3.1339
T10
X5.0906Y-3.1644
X5.0906Y-4.8967
X8.0827Y-3.1644
X8.0827Y-4.8967
T11
X3.6398Y-2.1339
X3.6398Y-5.2835
X8.1654Y-2.1339
X8.1654Y-5.2815
T6
G00X5.2077Y-2.4945
M15
G01X5.2077Y-2.4898
M16
G05
G00X5.2077Y-2.9669
M15
G01X5.2077Y-2.9622
M16
G05
G00X5.7667Y-2.7303
M15
G01X5.7667Y-2.7264
M16
G05
G00X7.289Y-2.4945
M15
G01X7.289Y-2.4898
M16
G05
G00X7.289Y-2.9669
M15
G01X7.289Y-2.9622
M16
G05
G00X7.848Y-2.7303
M15
G01X7.848Y-2.7264
M16
G05
T0
M30
