G04 #@! TF.GenerationSoftware,KiCad,Pcbnew,7.0.11+1*
G04 #@! TF.CreationDate,2025-04-18T12:10:44+00:00*
G04 #@! TF.ProjectId,ControllerCircuit,436f6e74-726f-46c6-9c65-724369726375,rev?*
G04 #@! TF.SameCoordinates,Original*
G04 #@! TF.FileFunction,Soldermask,Bot*
G04 #@! TF.FilePolarity,Negative*
%FSLAX46Y46*%
G04 Gerber Fmt 4.6, Leading zero omitted, Abs format (unit mm)*
G04 Created by KiCad (PCBNEW 7.0.11+1) date 2025-04-18 12:10:44*
%MOMM*%
%LPD*%
G01*
G04 APERTURE LIST*
G04 Aperture macros list*
%AMRoundRect*
0 Rectangle with rounded corners*
0 $1 Rounding radius*
0 $2 $3 $4 $5 $6 $7 $8 $9 X,Y pos of 4 corners*
0 Add a 4 corners polygon primitive as box body*
4,1,4,$2,$3,$4,$5,$6,$7,$8,$9,$2,$3,0*
0 Add four circle primitives for the rounded corners*
1,1,$1+$1,$2,$3*
1,1,$1+$1,$4,$5*
1,1,$1+$1,$6,$7*
1,1,$1+$1,$8,$9*
0 Add four rect primitives between the rounded corners*
20,1,$1+$1,$2,$3,$4,$5,0*
20,1,$1+$1,$4,$5,$6,$7,0*
20,1,$1+$1,$6,$7,$8,$9,0*
20,1,$1+$1,$8,$9,$2,$3,0*%
G04 Aperture macros list end*
%ADD10C,4.000000*%
%ADD11R,2.200000X2.200000*%
%ADD12C,2.200000*%
%ADD13R,1.800000X1.800000*%
%ADD14C,1.800000*%
%ADD15C,1.560000*%
%ADD16R,1.700000X1.700000*%
%ADD17O,1.700000X1.700000*%
%ADD18R,1.980000X1.980000*%
%ADD19C,2.000000*%
%ADD20R,1.900000X2.200000*%
%ADD21RoundRect,0.250000X-0.350000X-0.625000X0.350000X-0.625000X0.350000X0.625000X-0.350000X0.625000X0*%
%ADD22O,1.200000X1.750000*%
%ADD23R,1.900000X1.900000*%
%ADD24C,1.900000*%
%ADD25C,3.200000*%
G04 APERTURE END LIST*
D10*
X207400000Y-54200000D03*
X207400000Y-134150000D03*
D11*
X156999188Y-130500000D03*
D12*
X160809188Y-130500000D03*
X164619188Y-130500000D03*
X168429188Y-130500000D03*
D13*
X92256394Y-71430000D03*
D14*
X92256394Y-73970000D03*
D15*
X92256394Y-76510000D03*
X92256394Y-79050000D03*
X92256394Y-81590000D03*
X92256394Y-84130000D03*
X92256394Y-86670000D03*
X92256394Y-89210000D03*
X92256394Y-91750000D03*
X92256394Y-94290000D03*
X92256394Y-96830000D03*
X92256394Y-99370000D03*
X92256394Y-101910000D03*
X92256394Y-104450000D03*
X92256394Y-106990000D03*
X92256394Y-109530000D03*
X92256394Y-112070000D03*
D14*
X92256394Y-114610000D03*
X92256394Y-117150000D03*
X117656394Y-71430000D03*
X117656394Y-73970000D03*
D15*
X117656394Y-76510000D03*
X117656394Y-79050000D03*
X117656394Y-81590000D03*
X117656394Y-84130000D03*
X117656394Y-86670000D03*
X117656394Y-89210000D03*
D14*
X117656394Y-91750000D03*
X117656394Y-94290000D03*
D15*
X117656394Y-96830000D03*
X117656394Y-99370000D03*
X117656394Y-101910000D03*
X117656394Y-104450000D03*
X117656394Y-106990000D03*
X117656394Y-109530000D03*
X117656394Y-112070000D03*
D14*
X117656394Y-114610000D03*
X117656394Y-117150000D03*
D11*
X100849188Y-130500000D03*
D12*
X104659188Y-130500000D03*
X108469188Y-130500000D03*
X112279188Y-130500000D03*
D11*
X140599188Y-130500000D03*
D12*
X144409188Y-130500000D03*
X148219188Y-130500000D03*
X152029188Y-130500000D03*
D16*
X131950000Y-131750000D03*
D17*
X131950000Y-134290000D03*
X129410000Y-131750000D03*
X129410000Y-134290000D03*
X126870000Y-131750000D03*
X126870000Y-134290000D03*
D18*
X198015000Y-75300000D03*
D19*
X198015000Y-63300000D03*
D20*
X200015000Y-69300000D03*
X185815000Y-75300000D03*
X185815000Y-63300000D03*
D21*
X117200000Y-130250000D03*
D22*
X119200000Y-130250000D03*
D10*
X92450000Y-54200000D03*
X92450000Y-134200000D03*
D23*
X195225000Y-54450000D03*
D24*
X190225000Y-54450000D03*
X185225000Y-54450000D03*
D11*
X113200812Y-57950000D03*
D12*
X109390812Y-57950000D03*
X105580812Y-57950000D03*
X101770812Y-57950000D03*
D11*
X173590812Y-57950000D03*
D12*
X169780812Y-57950000D03*
D16*
X190550000Y-112700000D03*
D17*
X193090000Y-112700000D03*
X195630000Y-112700000D03*
X198170000Y-112700000D03*
X200710000Y-112700000D03*
X203250000Y-112700000D03*
X205790000Y-112700000D03*
D19*
X188850000Y-136400000D03*
X188850000Y-129900000D03*
X193350000Y-136400000D03*
X193350000Y-129900000D03*
X196500000Y-136400000D03*
X196500000Y-129900000D03*
X201000000Y-136400000D03*
X201000000Y-129900000D03*
D25*
X205300000Y-124375000D03*
X205300000Y-80375000D03*
X129300000Y-124375000D03*
X129300000Y-80375000D03*
D16*
X124300000Y-118875000D03*
D17*
X124300000Y-116335000D03*
X124300000Y-113795000D03*
X124300000Y-111255000D03*
X124300000Y-108715000D03*
X124300000Y-106175000D03*
X124300000Y-103635000D03*
X124300000Y-101095000D03*
X124300000Y-98555000D03*
X124300000Y-96015000D03*
X124300000Y-93475000D03*
X124300000Y-90935000D03*
X124300000Y-88395000D03*
X124300000Y-85855000D03*
X205800000Y-105875000D03*
X205800000Y-103335000D03*
X205800000Y-100795000D03*
X205800000Y-98255000D03*
D11*
X138350812Y-57950000D03*
D12*
X134540812Y-57950000D03*
X130730812Y-57950000D03*
X126920812Y-57950000D03*
D18*
X158850000Y-75250000D03*
D19*
X158850000Y-63250000D03*
D20*
X160850000Y-69250000D03*
X146650000Y-75250000D03*
X146650000Y-63250000D03*
D23*
X156060000Y-54400000D03*
D24*
X151060000Y-54400000D03*
X146060000Y-54400000D03*
D11*
X173399188Y-130500000D03*
D12*
X177209188Y-130500000D03*
X181019188Y-130500000D03*
X184829188Y-130500000D03*
M02*
