G04 #@! TF.GenerationSoftware,KiCad,Pcbnew,5.1.9+dfsg1-1~bpo10+1*
G04 #@! TF.CreationDate,2022-07-02T15:28:34+00:00*
G04 #@! TF.ProjectId,ControllerCircuit,436f6e74-726f-46c6-9c65-724369726375,rev?*
G04 #@! TF.SameCoordinates,Original*
G04 #@! TF.FileFunction,Soldermask,Top*
G04 #@! TF.FilePolarity,Negative*
%FSLAX46Y46*%
G04 Gerber Fmt 4.6, Leading zero omitted, Abs format (unit mm)*
G04 Created by KiCad (PCBNEW 5.1.9+dfsg1-1~bpo10+1) date 2022-07-02 15:28:34*
%MOMM*%
%LPD*%
G01*
G04 APERTURE LIST*
%ADD10R,0.800000X0.300000*%
%ADD11R,2.000000X1.450000*%
%ADD12R,1.500000X0.800000*%
%ADD13O,1.700000X1.700000*%
%ADD14R,1.700000X1.700000*%
%ADD15C,2.000000*%
%ADD16R,0.900000X0.800000*%
%ADD17O,2.800000X2.800000*%
%ADD18R,2.800000X2.800000*%
%ADD19R,1.700000X1.300000*%
%ADD20C,0.100000*%
%ADD21C,3.200000*%
%ADD22C,2.200000*%
%ADD23R,2.000000X2.000000*%
%ADD24R,0.800000X0.900000*%
%ADD25R,2.000000X0.640000*%
%ADD26R,0.640000X2.000000*%
%ADD27R,2.000000X1.500000*%
%ADD28R,2.000000X3.800000*%
%ADD29O,1.200000X1.750000*%
%ADD30R,2.000000X1.100000*%
%ADD31C,1.560000*%
%ADD32R,1.560000X1.560000*%
%ADD33R,1.980000X1.980000*%
%ADD34R,1.900000X2.200000*%
%ADD35C,1.900000*%
%ADD36R,1.900000X1.900000*%
%ADD37C,4.000000*%
G04 APERTURE END LIST*
G36*
G01*
X165450000Y-116345000D02*
X165450000Y-116045000D01*
G75*
G02*
X165600000Y-115895000I150000J0D01*
G01*
X167250000Y-115895000D01*
G75*
G02*
X167400000Y-116045000I0J-150000D01*
G01*
X167400000Y-116345000D01*
G75*
G02*
X167250000Y-116495000I-150000J0D01*
G01*
X165600000Y-116495000D01*
G75*
G02*
X165450000Y-116345000I0J150000D01*
G01*
G37*
G36*
G01*
X165450000Y-117615000D02*
X165450000Y-117315000D01*
G75*
G02*
X165600000Y-117165000I150000J0D01*
G01*
X167250000Y-117165000D01*
G75*
G02*
X167400000Y-117315000I0J-150000D01*
G01*
X167400000Y-117615000D01*
G75*
G02*
X167250000Y-117765000I-150000J0D01*
G01*
X165600000Y-117765000D01*
G75*
G02*
X165450000Y-117615000I0J150000D01*
G01*
G37*
G36*
G01*
X165450000Y-118885000D02*
X165450000Y-118585000D01*
G75*
G02*
X165600000Y-118435000I150000J0D01*
G01*
X167250000Y-118435000D01*
G75*
G02*
X167400000Y-118585000I0J-150000D01*
G01*
X167400000Y-118885000D01*
G75*
G02*
X167250000Y-119035000I-150000J0D01*
G01*
X165600000Y-119035000D01*
G75*
G02*
X165450000Y-118885000I0J150000D01*
G01*
G37*
G36*
G01*
X165450000Y-120155000D02*
X165450000Y-119855000D01*
G75*
G02*
X165600000Y-119705000I150000J0D01*
G01*
X167250000Y-119705000D01*
G75*
G02*
X167400000Y-119855000I0J-150000D01*
G01*
X167400000Y-120155000D01*
G75*
G02*
X167250000Y-120305000I-150000J0D01*
G01*
X165600000Y-120305000D01*
G75*
G02*
X165450000Y-120155000I0J150000D01*
G01*
G37*
G36*
G01*
X160500000Y-120155000D02*
X160500000Y-119855000D01*
G75*
G02*
X160650000Y-119705000I150000J0D01*
G01*
X162300000Y-119705000D01*
G75*
G02*
X162450000Y-119855000I0J-150000D01*
G01*
X162450000Y-120155000D01*
G75*
G02*
X162300000Y-120305000I-150000J0D01*
G01*
X160650000Y-120305000D01*
G75*
G02*
X160500000Y-120155000I0J150000D01*
G01*
G37*
G36*
G01*
X160500000Y-118885000D02*
X160500000Y-118585000D01*
G75*
G02*
X160650000Y-118435000I150000J0D01*
G01*
X162300000Y-118435000D01*
G75*
G02*
X162450000Y-118585000I0J-150000D01*
G01*
X162450000Y-118885000D01*
G75*
G02*
X162300000Y-119035000I-150000J0D01*
G01*
X160650000Y-119035000D01*
G75*
G02*
X160500000Y-118885000I0J150000D01*
G01*
G37*
G36*
G01*
X160500000Y-117615000D02*
X160500000Y-117315000D01*
G75*
G02*
X160650000Y-117165000I150000J0D01*
G01*
X162300000Y-117165000D01*
G75*
G02*
X162450000Y-117315000I0J-150000D01*
G01*
X162450000Y-117615000D01*
G75*
G02*
X162300000Y-117765000I-150000J0D01*
G01*
X160650000Y-117765000D01*
G75*
G02*
X160500000Y-117615000I0J150000D01*
G01*
G37*
G36*
G01*
X160500000Y-116345000D02*
X160500000Y-116045000D01*
G75*
G02*
X160650000Y-115895000I150000J0D01*
G01*
X162300000Y-115895000D01*
G75*
G02*
X162450000Y-116045000I0J-150000D01*
G01*
X162450000Y-116345000D01*
G75*
G02*
X162300000Y-116495000I-150000J0D01*
G01*
X160650000Y-116495000D01*
G75*
G02*
X160500000Y-116345000I0J150000D01*
G01*
G37*
D10*
X165400000Y-112270000D03*
X165400000Y-112770000D03*
X165400000Y-113270000D03*
X165400000Y-113770000D03*
X162300000Y-113770000D03*
X162300000Y-113270000D03*
X162300000Y-112770000D03*
X162300000Y-112270000D03*
D11*
X187750000Y-86725000D03*
X196050000Y-86725000D03*
X196050000Y-100475000D03*
X187750000Y-100475000D03*
D12*
X190350000Y-89105000D03*
X190350000Y-90205000D03*
X190350000Y-91305000D03*
X190350000Y-92405000D03*
X190350000Y-93505000D03*
X190350000Y-94605000D03*
X190350000Y-95705000D03*
X190350000Y-96805000D03*
G36*
G01*
X168500000Y-113275000D02*
X168500000Y-112325000D01*
G75*
G02*
X168750000Y-112075000I250000J0D01*
G01*
X169250000Y-112075000D01*
G75*
G02*
X169500000Y-112325000I0J-250000D01*
G01*
X169500000Y-113275000D01*
G75*
G02*
X169250000Y-113525000I-250000J0D01*
G01*
X168750000Y-113525000D01*
G75*
G02*
X168500000Y-113275000I0J250000D01*
G01*
G37*
G36*
G01*
X166600000Y-113275000D02*
X166600000Y-112325000D01*
G75*
G02*
X166850000Y-112075000I250000J0D01*
G01*
X167350000Y-112075000D01*
G75*
G02*
X167600000Y-112325000I0J-250000D01*
G01*
X167600000Y-113275000D01*
G75*
G02*
X167350000Y-113525000I-250000J0D01*
G01*
X166850000Y-113525000D01*
G75*
G02*
X166600000Y-113275000I0J250000D01*
G01*
G37*
G36*
G01*
X162600000Y-110175000D02*
X162600000Y-109225000D01*
G75*
G02*
X162850000Y-108975000I250000J0D01*
G01*
X163350000Y-108975000D01*
G75*
G02*
X163600000Y-109225000I0J-250000D01*
G01*
X163600000Y-110175000D01*
G75*
G02*
X163350000Y-110425000I-250000J0D01*
G01*
X162850000Y-110425000D01*
G75*
G02*
X162600000Y-110175000I0J250000D01*
G01*
G37*
G36*
G01*
X160700000Y-110175000D02*
X160700000Y-109225000D01*
G75*
G02*
X160950000Y-108975000I250000J0D01*
G01*
X161450000Y-108975000D01*
G75*
G02*
X161700000Y-109225000I0J-250000D01*
G01*
X161700000Y-110175000D01*
G75*
G02*
X161450000Y-110425000I-250000J0D01*
G01*
X160950000Y-110425000D01*
G75*
G02*
X160700000Y-110175000I0J250000D01*
G01*
G37*
G36*
G01*
X139834980Y-114495800D02*
X139834980Y-114195800D01*
G75*
G02*
X139984980Y-114045800I150000J0D01*
G01*
X141634980Y-114045800D01*
G75*
G02*
X141784980Y-114195800I0J-150000D01*
G01*
X141784980Y-114495800D01*
G75*
G02*
X141634980Y-114645800I-150000J0D01*
G01*
X139984980Y-114645800D01*
G75*
G02*
X139834980Y-114495800I0J150000D01*
G01*
G37*
G36*
G01*
X139834980Y-115765800D02*
X139834980Y-115465800D01*
G75*
G02*
X139984980Y-115315800I150000J0D01*
G01*
X141634980Y-115315800D01*
G75*
G02*
X141784980Y-115465800I0J-150000D01*
G01*
X141784980Y-115765800D01*
G75*
G02*
X141634980Y-115915800I-150000J0D01*
G01*
X139984980Y-115915800D01*
G75*
G02*
X139834980Y-115765800I0J150000D01*
G01*
G37*
G36*
G01*
X139834980Y-117035800D02*
X139834980Y-116735800D01*
G75*
G02*
X139984980Y-116585800I150000J0D01*
G01*
X141634980Y-116585800D01*
G75*
G02*
X141784980Y-116735800I0J-150000D01*
G01*
X141784980Y-117035800D01*
G75*
G02*
X141634980Y-117185800I-150000J0D01*
G01*
X139984980Y-117185800D01*
G75*
G02*
X139834980Y-117035800I0J150000D01*
G01*
G37*
G36*
G01*
X139834980Y-118305800D02*
X139834980Y-118005800D01*
G75*
G02*
X139984980Y-117855800I150000J0D01*
G01*
X141634980Y-117855800D01*
G75*
G02*
X141784980Y-118005800I0J-150000D01*
G01*
X141784980Y-118305800D01*
G75*
G02*
X141634980Y-118455800I-150000J0D01*
G01*
X139984980Y-118455800D01*
G75*
G02*
X139834980Y-118305800I0J150000D01*
G01*
G37*
G36*
G01*
X134884980Y-118305800D02*
X134884980Y-118005800D01*
G75*
G02*
X135034980Y-117855800I150000J0D01*
G01*
X136684980Y-117855800D01*
G75*
G02*
X136834980Y-118005800I0J-150000D01*
G01*
X136834980Y-118305800D01*
G75*
G02*
X136684980Y-118455800I-150000J0D01*
G01*
X135034980Y-118455800D01*
G75*
G02*
X134884980Y-118305800I0J150000D01*
G01*
G37*
G36*
G01*
X134884980Y-117035800D02*
X134884980Y-116735800D01*
G75*
G02*
X135034980Y-116585800I150000J0D01*
G01*
X136684980Y-116585800D01*
G75*
G02*
X136834980Y-116735800I0J-150000D01*
G01*
X136834980Y-117035800D01*
G75*
G02*
X136684980Y-117185800I-150000J0D01*
G01*
X135034980Y-117185800D01*
G75*
G02*
X134884980Y-117035800I0J150000D01*
G01*
G37*
G36*
G01*
X134884980Y-115765800D02*
X134884980Y-115465800D01*
G75*
G02*
X135034980Y-115315800I150000J0D01*
G01*
X136684980Y-115315800D01*
G75*
G02*
X136834980Y-115465800I0J-150000D01*
G01*
X136834980Y-115765800D01*
G75*
G02*
X136684980Y-115915800I-150000J0D01*
G01*
X135034980Y-115915800D01*
G75*
G02*
X134884980Y-115765800I0J150000D01*
G01*
G37*
G36*
G01*
X134884980Y-114495800D02*
X134884980Y-114195800D01*
G75*
G02*
X135034980Y-114045800I150000J0D01*
G01*
X136684980Y-114045800D01*
G75*
G02*
X136834980Y-114195800I0J-150000D01*
G01*
X136834980Y-114495800D01*
G75*
G02*
X136684980Y-114645800I-150000J0D01*
G01*
X135034980Y-114645800D01*
G75*
G02*
X134884980Y-114495800I0J150000D01*
G01*
G37*
D13*
X205790000Y-112700000D03*
X203250000Y-112700000D03*
X200710000Y-112700000D03*
X198170000Y-112700000D03*
X195630000Y-112700000D03*
X193090000Y-112700000D03*
D14*
X190550000Y-112700000D03*
G36*
G01*
X150875000Y-120025000D02*
X150875000Y-119825000D01*
G75*
G02*
X150975000Y-119725000I100000J0D01*
G01*
X152250000Y-119725000D01*
G75*
G02*
X152350000Y-119825000I0J-100000D01*
G01*
X152350000Y-120025000D01*
G75*
G02*
X152250000Y-120125000I-100000J0D01*
G01*
X150975000Y-120125000D01*
G75*
G02*
X150875000Y-120025000I0J100000D01*
G01*
G37*
G36*
G01*
X150875000Y-120675000D02*
X150875000Y-120475000D01*
G75*
G02*
X150975000Y-120375000I100000J0D01*
G01*
X152250000Y-120375000D01*
G75*
G02*
X152350000Y-120475000I0J-100000D01*
G01*
X152350000Y-120675000D01*
G75*
G02*
X152250000Y-120775000I-100000J0D01*
G01*
X150975000Y-120775000D01*
G75*
G02*
X150875000Y-120675000I0J100000D01*
G01*
G37*
G36*
G01*
X150875000Y-121325000D02*
X150875000Y-121125000D01*
G75*
G02*
X150975000Y-121025000I100000J0D01*
G01*
X152250000Y-121025000D01*
G75*
G02*
X152350000Y-121125000I0J-100000D01*
G01*
X152350000Y-121325000D01*
G75*
G02*
X152250000Y-121425000I-100000J0D01*
G01*
X150975000Y-121425000D01*
G75*
G02*
X150875000Y-121325000I0J100000D01*
G01*
G37*
G36*
G01*
X150875000Y-121975000D02*
X150875000Y-121775000D01*
G75*
G02*
X150975000Y-121675000I100000J0D01*
G01*
X152250000Y-121675000D01*
G75*
G02*
X152350000Y-121775000I0J-100000D01*
G01*
X152350000Y-121975000D01*
G75*
G02*
X152250000Y-122075000I-100000J0D01*
G01*
X150975000Y-122075000D01*
G75*
G02*
X150875000Y-121975000I0J100000D01*
G01*
G37*
G36*
G01*
X150875000Y-122625000D02*
X150875000Y-122425000D01*
G75*
G02*
X150975000Y-122325000I100000J0D01*
G01*
X152250000Y-122325000D01*
G75*
G02*
X152350000Y-122425000I0J-100000D01*
G01*
X152350000Y-122625000D01*
G75*
G02*
X152250000Y-122725000I-100000J0D01*
G01*
X150975000Y-122725000D01*
G75*
G02*
X150875000Y-122625000I0J100000D01*
G01*
G37*
G36*
G01*
X150875000Y-123275000D02*
X150875000Y-123075000D01*
G75*
G02*
X150975000Y-122975000I100000J0D01*
G01*
X152250000Y-122975000D01*
G75*
G02*
X152350000Y-123075000I0J-100000D01*
G01*
X152350000Y-123275000D01*
G75*
G02*
X152250000Y-123375000I-100000J0D01*
G01*
X150975000Y-123375000D01*
G75*
G02*
X150875000Y-123275000I0J100000D01*
G01*
G37*
G36*
G01*
X150875000Y-123925000D02*
X150875000Y-123725000D01*
G75*
G02*
X150975000Y-123625000I100000J0D01*
G01*
X152250000Y-123625000D01*
G75*
G02*
X152350000Y-123725000I0J-100000D01*
G01*
X152350000Y-123925000D01*
G75*
G02*
X152250000Y-124025000I-100000J0D01*
G01*
X150975000Y-124025000D01*
G75*
G02*
X150875000Y-123925000I0J100000D01*
G01*
G37*
G36*
G01*
X150875000Y-124575000D02*
X150875000Y-124375000D01*
G75*
G02*
X150975000Y-124275000I100000J0D01*
G01*
X152250000Y-124275000D01*
G75*
G02*
X152350000Y-124375000I0J-100000D01*
G01*
X152350000Y-124575000D01*
G75*
G02*
X152250000Y-124675000I-100000J0D01*
G01*
X150975000Y-124675000D01*
G75*
G02*
X150875000Y-124575000I0J100000D01*
G01*
G37*
G36*
G01*
X150875000Y-125225000D02*
X150875000Y-125025000D01*
G75*
G02*
X150975000Y-124925000I100000J0D01*
G01*
X152250000Y-124925000D01*
G75*
G02*
X152350000Y-125025000I0J-100000D01*
G01*
X152350000Y-125225000D01*
G75*
G02*
X152250000Y-125325000I-100000J0D01*
G01*
X150975000Y-125325000D01*
G75*
G02*
X150875000Y-125225000I0J100000D01*
G01*
G37*
G36*
G01*
X150875000Y-125875000D02*
X150875000Y-125675000D01*
G75*
G02*
X150975000Y-125575000I100000J0D01*
G01*
X152250000Y-125575000D01*
G75*
G02*
X152350000Y-125675000I0J-100000D01*
G01*
X152350000Y-125875000D01*
G75*
G02*
X152250000Y-125975000I-100000J0D01*
G01*
X150975000Y-125975000D01*
G75*
G02*
X150875000Y-125875000I0J100000D01*
G01*
G37*
G36*
G01*
X150875000Y-126525000D02*
X150875000Y-126325000D01*
G75*
G02*
X150975000Y-126225000I100000J0D01*
G01*
X152250000Y-126225000D01*
G75*
G02*
X152350000Y-126325000I0J-100000D01*
G01*
X152350000Y-126525000D01*
G75*
G02*
X152250000Y-126625000I-100000J0D01*
G01*
X150975000Y-126625000D01*
G75*
G02*
X150875000Y-126525000I0J100000D01*
G01*
G37*
G36*
G01*
X150875000Y-127175000D02*
X150875000Y-126975000D01*
G75*
G02*
X150975000Y-126875000I100000J0D01*
G01*
X152250000Y-126875000D01*
G75*
G02*
X152350000Y-126975000I0J-100000D01*
G01*
X152350000Y-127175000D01*
G75*
G02*
X152250000Y-127275000I-100000J0D01*
G01*
X150975000Y-127275000D01*
G75*
G02*
X150875000Y-127175000I0J100000D01*
G01*
G37*
G36*
G01*
X145150000Y-127175000D02*
X145150000Y-126975000D01*
G75*
G02*
X145250000Y-126875000I100000J0D01*
G01*
X146525000Y-126875000D01*
G75*
G02*
X146625000Y-126975000I0J-100000D01*
G01*
X146625000Y-127175000D01*
G75*
G02*
X146525000Y-127275000I-100000J0D01*
G01*
X145250000Y-127275000D01*
G75*
G02*
X145150000Y-127175000I0J100000D01*
G01*
G37*
G36*
G01*
X145150000Y-126525000D02*
X145150000Y-126325000D01*
G75*
G02*
X145250000Y-126225000I100000J0D01*
G01*
X146525000Y-126225000D01*
G75*
G02*
X146625000Y-126325000I0J-100000D01*
G01*
X146625000Y-126525000D01*
G75*
G02*
X146525000Y-126625000I-100000J0D01*
G01*
X145250000Y-126625000D01*
G75*
G02*
X145150000Y-126525000I0J100000D01*
G01*
G37*
G36*
G01*
X145150000Y-125875000D02*
X145150000Y-125675000D01*
G75*
G02*
X145250000Y-125575000I100000J0D01*
G01*
X146525000Y-125575000D01*
G75*
G02*
X146625000Y-125675000I0J-100000D01*
G01*
X146625000Y-125875000D01*
G75*
G02*
X146525000Y-125975000I-100000J0D01*
G01*
X145250000Y-125975000D01*
G75*
G02*
X145150000Y-125875000I0J100000D01*
G01*
G37*
G36*
G01*
X145150000Y-125225000D02*
X145150000Y-125025000D01*
G75*
G02*
X145250000Y-124925000I100000J0D01*
G01*
X146525000Y-124925000D01*
G75*
G02*
X146625000Y-125025000I0J-100000D01*
G01*
X146625000Y-125225000D01*
G75*
G02*
X146525000Y-125325000I-100000J0D01*
G01*
X145250000Y-125325000D01*
G75*
G02*
X145150000Y-125225000I0J100000D01*
G01*
G37*
G36*
G01*
X145150000Y-124575000D02*
X145150000Y-124375000D01*
G75*
G02*
X145250000Y-124275000I100000J0D01*
G01*
X146525000Y-124275000D01*
G75*
G02*
X146625000Y-124375000I0J-100000D01*
G01*
X146625000Y-124575000D01*
G75*
G02*
X146525000Y-124675000I-100000J0D01*
G01*
X145250000Y-124675000D01*
G75*
G02*
X145150000Y-124575000I0J100000D01*
G01*
G37*
G36*
G01*
X145150000Y-123925000D02*
X145150000Y-123725000D01*
G75*
G02*
X145250000Y-123625000I100000J0D01*
G01*
X146525000Y-123625000D01*
G75*
G02*
X146625000Y-123725000I0J-100000D01*
G01*
X146625000Y-123925000D01*
G75*
G02*
X146525000Y-124025000I-100000J0D01*
G01*
X145250000Y-124025000D01*
G75*
G02*
X145150000Y-123925000I0J100000D01*
G01*
G37*
G36*
G01*
X145150000Y-123275000D02*
X145150000Y-123075000D01*
G75*
G02*
X145250000Y-122975000I100000J0D01*
G01*
X146525000Y-122975000D01*
G75*
G02*
X146625000Y-123075000I0J-100000D01*
G01*
X146625000Y-123275000D01*
G75*
G02*
X146525000Y-123375000I-100000J0D01*
G01*
X145250000Y-123375000D01*
G75*
G02*
X145150000Y-123275000I0J100000D01*
G01*
G37*
G36*
G01*
X145150000Y-122625000D02*
X145150000Y-122425000D01*
G75*
G02*
X145250000Y-122325000I100000J0D01*
G01*
X146525000Y-122325000D01*
G75*
G02*
X146625000Y-122425000I0J-100000D01*
G01*
X146625000Y-122625000D01*
G75*
G02*
X146525000Y-122725000I-100000J0D01*
G01*
X145250000Y-122725000D01*
G75*
G02*
X145150000Y-122625000I0J100000D01*
G01*
G37*
G36*
G01*
X145150000Y-121975000D02*
X145150000Y-121775000D01*
G75*
G02*
X145250000Y-121675000I100000J0D01*
G01*
X146525000Y-121675000D01*
G75*
G02*
X146625000Y-121775000I0J-100000D01*
G01*
X146625000Y-121975000D01*
G75*
G02*
X146525000Y-122075000I-100000J0D01*
G01*
X145250000Y-122075000D01*
G75*
G02*
X145150000Y-121975000I0J100000D01*
G01*
G37*
G36*
G01*
X145150000Y-121325000D02*
X145150000Y-121125000D01*
G75*
G02*
X145250000Y-121025000I100000J0D01*
G01*
X146525000Y-121025000D01*
G75*
G02*
X146625000Y-121125000I0J-100000D01*
G01*
X146625000Y-121325000D01*
G75*
G02*
X146525000Y-121425000I-100000J0D01*
G01*
X145250000Y-121425000D01*
G75*
G02*
X145150000Y-121325000I0J100000D01*
G01*
G37*
G36*
G01*
X145150000Y-120675000D02*
X145150000Y-120475000D01*
G75*
G02*
X145250000Y-120375000I100000J0D01*
G01*
X146525000Y-120375000D01*
G75*
G02*
X146625000Y-120475000I0J-100000D01*
G01*
X146625000Y-120675000D01*
G75*
G02*
X146525000Y-120775000I-100000J0D01*
G01*
X145250000Y-120775000D01*
G75*
G02*
X145150000Y-120675000I0J100000D01*
G01*
G37*
G36*
G01*
X145150000Y-120025000D02*
X145150000Y-119825000D01*
G75*
G02*
X145250000Y-119725000I100000J0D01*
G01*
X146525000Y-119725000D01*
G75*
G02*
X146625000Y-119825000I0J-100000D01*
G01*
X146625000Y-120025000D01*
G75*
G02*
X146525000Y-120125000I-100000J0D01*
G01*
X145250000Y-120125000D01*
G75*
G02*
X145150000Y-120025000I0J100000D01*
G01*
G37*
D15*
X202500000Y-57000000D03*
X202500000Y-131500000D03*
X97750000Y-131500000D03*
X99250000Y-55000000D03*
G36*
G01*
X136150000Y-103550001D02*
X136150000Y-102649999D01*
G75*
G02*
X136399999Y-102400000I249999J0D01*
G01*
X136925001Y-102400000D01*
G75*
G02*
X137175000Y-102649999I0J-249999D01*
G01*
X137175000Y-103550001D01*
G75*
G02*
X136925001Y-103800000I-249999J0D01*
G01*
X136399999Y-103800000D01*
G75*
G02*
X136150000Y-103550001I0J249999D01*
G01*
G37*
G36*
G01*
X134325000Y-103550001D02*
X134325000Y-102649999D01*
G75*
G02*
X134574999Y-102400000I249999J0D01*
G01*
X135100001Y-102400000D01*
G75*
G02*
X135350000Y-102649999I0J-249999D01*
G01*
X135350000Y-103550001D01*
G75*
G02*
X135100001Y-103800000I-249999J0D01*
G01*
X134574999Y-103800000D01*
G75*
G02*
X134325000Y-103550001I0J249999D01*
G01*
G37*
G36*
G01*
X155350000Y-120849999D02*
X155350000Y-122150001D01*
G75*
G02*
X155100001Y-122400000I-249999J0D01*
G01*
X154449999Y-122400000D01*
G75*
G02*
X154200000Y-122150001I0J249999D01*
G01*
X154200000Y-120849999D01*
G75*
G02*
X154449999Y-120600000I249999J0D01*
G01*
X155100001Y-120600000D01*
G75*
G02*
X155350000Y-120849999I0J-249999D01*
G01*
G37*
G36*
G01*
X158300000Y-120849999D02*
X158300000Y-122150001D01*
G75*
G02*
X158050001Y-122400000I-249999J0D01*
G01*
X157399999Y-122400000D01*
G75*
G02*
X157150000Y-122150001I0J249999D01*
G01*
X157150000Y-120849999D01*
G75*
G02*
X157399999Y-120600000I249999J0D01*
G01*
X158050001Y-120600000D01*
G75*
G02*
X158300000Y-120849999I0J-249999D01*
G01*
G37*
G36*
G01*
X176150000Y-115570001D02*
X176150000Y-114669999D01*
G75*
G02*
X176399999Y-114420000I249999J0D01*
G01*
X176925001Y-114420000D01*
G75*
G02*
X177175000Y-114669999I0J-249999D01*
G01*
X177175000Y-115570001D01*
G75*
G02*
X176925001Y-115820000I-249999J0D01*
G01*
X176399999Y-115820000D01*
G75*
G02*
X176150000Y-115570001I0J249999D01*
G01*
G37*
G36*
G01*
X174325000Y-115570001D02*
X174325000Y-114669999D01*
G75*
G02*
X174574999Y-114420000I249999J0D01*
G01*
X175100001Y-114420000D01*
G75*
G02*
X175350000Y-114669999I0J-249999D01*
G01*
X175350000Y-115570001D01*
G75*
G02*
X175100001Y-115820000I-249999J0D01*
G01*
X174574999Y-115820000D01*
G75*
G02*
X174325000Y-115570001I0J249999D01*
G01*
G37*
D16*
X176770000Y-119375000D03*
X174770000Y-120325000D03*
X174770000Y-118425000D03*
G36*
G01*
X175195000Y-64762500D02*
X175195000Y-59637500D01*
G75*
G02*
X175357500Y-59475000I162500J0D01*
G01*
X176282500Y-59475000D01*
G75*
G02*
X176445000Y-59637500I0J-162500D01*
G01*
X176445000Y-64762500D01*
G75*
G02*
X176282500Y-64925000I-162500J0D01*
G01*
X175357500Y-64925000D01*
G75*
G02*
X175195000Y-64762500I0J162500D01*
G01*
G37*
G36*
G01*
X168407500Y-64802500D02*
X168407500Y-59677500D01*
G75*
G02*
X168570000Y-59515000I162500J0D01*
G01*
X169495000Y-59515000D01*
G75*
G02*
X169657500Y-59677500I0J-162500D01*
G01*
X169657500Y-64802500D01*
G75*
G02*
X169495000Y-64965000I-162500J0D01*
G01*
X168570000Y-64965000D01*
G75*
G02*
X168407500Y-64802500I0J162500D01*
G01*
G37*
D15*
X194000000Y-129976000D03*
X198500000Y-129976000D03*
X194000000Y-136476000D03*
X198500000Y-136476000D03*
G36*
G01*
X194437000Y-125623002D02*
X194437000Y-124722998D01*
G75*
G02*
X194686998Y-124473000I249998J0D01*
G01*
X195212002Y-124473000D01*
G75*
G02*
X195462000Y-124722998I0J-249998D01*
G01*
X195462000Y-125623002D01*
G75*
G02*
X195212002Y-125873000I-249998J0D01*
G01*
X194686998Y-125873000D01*
G75*
G02*
X194437000Y-125623002I0J249998D01*
G01*
G37*
G36*
G01*
X192612000Y-125623002D02*
X192612000Y-124722998D01*
G75*
G02*
X192861998Y-124473000I249998J0D01*
G01*
X193387002Y-124473000D01*
G75*
G02*
X193637000Y-124722998I0J-249998D01*
G01*
X193637000Y-125623002D01*
G75*
G02*
X193387002Y-125873000I-249998J0D01*
G01*
X192861998Y-125873000D01*
G75*
G02*
X192612000Y-125623002I0J249998D01*
G01*
G37*
G36*
G01*
X197886000Y-125623002D02*
X197886000Y-124722998D01*
G75*
G02*
X198135998Y-124473000I249998J0D01*
G01*
X198661002Y-124473000D01*
G75*
G02*
X198911000Y-124722998I0J-249998D01*
G01*
X198911000Y-125623002D01*
G75*
G02*
X198661002Y-125873000I-249998J0D01*
G01*
X198135998Y-125873000D01*
G75*
G02*
X197886000Y-125623002I0J249998D01*
G01*
G37*
G36*
G01*
X196061000Y-125623002D02*
X196061000Y-124722998D01*
G75*
G02*
X196310998Y-124473000I249998J0D01*
G01*
X196836002Y-124473000D01*
G75*
G02*
X197086000Y-124722998I0J-249998D01*
G01*
X197086000Y-125623002D01*
G75*
G02*
X196836002Y-125873000I-249998J0D01*
G01*
X196310998Y-125873000D01*
G75*
G02*
X196061000Y-125623002I0J249998D01*
G01*
G37*
G36*
G01*
X194507000Y-122346000D02*
X194507000Y-121396000D01*
G75*
G02*
X194757000Y-121146000I250000J0D01*
G01*
X195257000Y-121146000D01*
G75*
G02*
X195507000Y-121396000I0J-250000D01*
G01*
X195507000Y-122346000D01*
G75*
G02*
X195257000Y-122596000I-250000J0D01*
G01*
X194757000Y-122596000D01*
G75*
G02*
X194507000Y-122346000I0J250000D01*
G01*
G37*
G36*
G01*
X192607000Y-122346000D02*
X192607000Y-121396000D01*
G75*
G02*
X192857000Y-121146000I250000J0D01*
G01*
X193357000Y-121146000D01*
G75*
G02*
X193607000Y-121396000I0J-250000D01*
G01*
X193607000Y-122346000D01*
G75*
G02*
X193357000Y-122596000I-250000J0D01*
G01*
X192857000Y-122596000D01*
G75*
G02*
X192607000Y-122346000I0J250000D01*
G01*
G37*
X186437000Y-129976000D03*
X190937000Y-129976000D03*
X186437000Y-136476000D03*
X190937000Y-136476000D03*
G36*
G01*
X187071000Y-125623002D02*
X187071000Y-124722998D01*
G75*
G02*
X187320998Y-124473000I249998J0D01*
G01*
X187846002Y-124473000D01*
G75*
G02*
X188096000Y-124722998I0J-249998D01*
G01*
X188096000Y-125623002D01*
G75*
G02*
X187846002Y-125873000I-249998J0D01*
G01*
X187320998Y-125873000D01*
G75*
G02*
X187071000Y-125623002I0J249998D01*
G01*
G37*
G36*
G01*
X185246000Y-125623002D02*
X185246000Y-124722998D01*
G75*
G02*
X185495998Y-124473000I249998J0D01*
G01*
X186021002Y-124473000D01*
G75*
G02*
X186271000Y-124722998I0J-249998D01*
G01*
X186271000Y-125623002D01*
G75*
G02*
X186021002Y-125873000I-249998J0D01*
G01*
X185495998Y-125873000D01*
G75*
G02*
X185246000Y-125623002I0J249998D01*
G01*
G37*
G36*
G01*
X190520000Y-125623002D02*
X190520000Y-124722998D01*
G75*
G02*
X190769998Y-124473000I249998J0D01*
G01*
X191295002Y-124473000D01*
G75*
G02*
X191545000Y-124722998I0J-249998D01*
G01*
X191545000Y-125623002D01*
G75*
G02*
X191295002Y-125873000I-249998J0D01*
G01*
X190769998Y-125873000D01*
G75*
G02*
X190520000Y-125623002I0J249998D01*
G01*
G37*
G36*
G01*
X188695000Y-125623002D02*
X188695000Y-124722998D01*
G75*
G02*
X188944998Y-124473000I249998J0D01*
G01*
X189470002Y-124473000D01*
G75*
G02*
X189720000Y-124722998I0J-249998D01*
G01*
X189720000Y-125623002D01*
G75*
G02*
X189470002Y-125873000I-249998J0D01*
G01*
X188944998Y-125873000D01*
G75*
G02*
X188695000Y-125623002I0J249998D01*
G01*
G37*
G36*
G01*
X187141000Y-122346000D02*
X187141000Y-121396000D01*
G75*
G02*
X187391000Y-121146000I250000J0D01*
G01*
X187891000Y-121146000D01*
G75*
G02*
X188141000Y-121396000I0J-250000D01*
G01*
X188141000Y-122346000D01*
G75*
G02*
X187891000Y-122596000I-250000J0D01*
G01*
X187391000Y-122596000D01*
G75*
G02*
X187141000Y-122346000I0J250000D01*
G01*
G37*
G36*
G01*
X185241000Y-122346000D02*
X185241000Y-121396000D01*
G75*
G02*
X185491000Y-121146000I250000J0D01*
G01*
X185991000Y-121146000D01*
G75*
G02*
X186241000Y-121396000I0J-250000D01*
G01*
X186241000Y-122346000D01*
G75*
G02*
X185991000Y-122596000I-250000J0D01*
G01*
X185491000Y-122596000D01*
G75*
G02*
X185241000Y-122346000I0J250000D01*
G01*
G37*
D17*
X158720000Y-69440000D03*
D18*
X158720000Y-79600000D03*
G36*
G01*
X147500000Y-52397500D02*
X147500000Y-51922500D01*
G75*
G02*
X147737500Y-51685000I237500J0D01*
G01*
X148312500Y-51685000D01*
G75*
G02*
X148550000Y-51922500I0J-237500D01*
G01*
X148550000Y-52397500D01*
G75*
G02*
X148312500Y-52635000I-237500J0D01*
G01*
X147737500Y-52635000D01*
G75*
G02*
X147500000Y-52397500I0J237500D01*
G01*
G37*
G36*
G01*
X145750000Y-52397500D02*
X145750000Y-51922500D01*
G75*
G02*
X145987500Y-51685000I237500J0D01*
G01*
X146562500Y-51685000D01*
G75*
G02*
X146800000Y-51922500I0J-237500D01*
G01*
X146800000Y-52397500D01*
G75*
G02*
X146562500Y-52635000I-237500J0D01*
G01*
X145987500Y-52635000D01*
G75*
G02*
X145750000Y-52397500I0J237500D01*
G01*
G37*
G36*
G01*
X179525000Y-52397500D02*
X179525000Y-51922500D01*
G75*
G02*
X179762500Y-51685000I237500J0D01*
G01*
X180337500Y-51685000D01*
G75*
G02*
X180575000Y-51922500I0J-237500D01*
G01*
X180575000Y-52397500D01*
G75*
G02*
X180337500Y-52635000I-237500J0D01*
G01*
X179762500Y-52635000D01*
G75*
G02*
X179525000Y-52397500I0J237500D01*
G01*
G37*
G36*
G01*
X177775000Y-52397500D02*
X177775000Y-51922500D01*
G75*
G02*
X178012500Y-51685000I237500J0D01*
G01*
X178587500Y-51685000D01*
G75*
G02*
X178825000Y-51922500I0J-237500D01*
G01*
X178825000Y-52397500D01*
G75*
G02*
X178587500Y-52635000I-237500J0D01*
G01*
X178012500Y-52635000D01*
G75*
G02*
X177775000Y-52397500I0J237500D01*
G01*
G37*
D19*
X151250000Y-70150000D03*
X151250000Y-73650000D03*
X204100000Y-72680000D03*
X204100000Y-76180000D03*
D20*
G36*
X139340000Y-123089398D02*
G01*
X139315466Y-123089398D01*
X139266635Y-123084588D01*
X139218510Y-123075016D01*
X139171555Y-123060772D01*
X139126222Y-123041995D01*
X139082949Y-123018864D01*
X139042150Y-122991604D01*
X139004221Y-122960476D01*
X138969524Y-122925779D01*
X138938396Y-122887850D01*
X138911136Y-122847051D01*
X138888005Y-122803778D01*
X138869228Y-122758445D01*
X138854984Y-122711490D01*
X138845412Y-122663365D01*
X138840602Y-122614534D01*
X138840602Y-122590000D01*
X138840000Y-122590000D01*
X138840000Y-122090000D01*
X138840602Y-122090000D01*
X138840602Y-122065466D01*
X138845412Y-122016635D01*
X138854984Y-121968510D01*
X138869228Y-121921555D01*
X138888005Y-121876222D01*
X138911136Y-121832949D01*
X138938396Y-121792150D01*
X138969524Y-121754221D01*
X139004221Y-121719524D01*
X139042150Y-121688396D01*
X139082949Y-121661136D01*
X139126222Y-121638005D01*
X139171555Y-121619228D01*
X139218510Y-121604984D01*
X139266635Y-121595412D01*
X139315466Y-121590602D01*
X139340000Y-121590602D01*
X139340000Y-121590000D01*
X139840000Y-121590000D01*
X139840000Y-123090000D01*
X139340000Y-123090000D01*
X139340000Y-123089398D01*
G37*
G36*
X140140000Y-121590000D02*
G01*
X140640000Y-121590000D01*
X140640000Y-121590602D01*
X140664534Y-121590602D01*
X140713365Y-121595412D01*
X140761490Y-121604984D01*
X140808445Y-121619228D01*
X140853778Y-121638005D01*
X140897051Y-121661136D01*
X140937850Y-121688396D01*
X140975779Y-121719524D01*
X141010476Y-121754221D01*
X141041604Y-121792150D01*
X141068864Y-121832949D01*
X141091995Y-121876222D01*
X141110772Y-121921555D01*
X141125016Y-121968510D01*
X141134588Y-122016635D01*
X141139398Y-122065466D01*
X141139398Y-122090000D01*
X141140000Y-122090000D01*
X141140000Y-122590000D01*
X141139398Y-122590000D01*
X141139398Y-122614534D01*
X141134588Y-122663365D01*
X141125016Y-122711490D01*
X141110772Y-122758445D01*
X141091995Y-122803778D01*
X141068864Y-122847051D01*
X141041604Y-122887850D01*
X141010476Y-122925779D01*
X140975779Y-122960476D01*
X140937850Y-122991604D01*
X140897051Y-123018864D01*
X140853778Y-123041995D01*
X140808445Y-123060772D01*
X140761490Y-123075016D01*
X140713365Y-123084588D01*
X140664534Y-123089398D01*
X140640000Y-123089398D01*
X140640000Y-123090000D01*
X140140000Y-123090000D01*
X140140000Y-121590000D01*
G37*
G36*
X170700000Y-116850602D02*
G01*
X170724534Y-116850602D01*
X170773365Y-116855412D01*
X170821490Y-116864984D01*
X170868445Y-116879228D01*
X170913778Y-116898005D01*
X170957051Y-116921136D01*
X170997850Y-116948396D01*
X171035779Y-116979524D01*
X171070476Y-117014221D01*
X171101604Y-117052150D01*
X171128864Y-117092949D01*
X171151995Y-117136222D01*
X171170772Y-117181555D01*
X171185016Y-117228510D01*
X171194588Y-117276635D01*
X171199398Y-117325466D01*
X171199398Y-117350000D01*
X171200000Y-117350000D01*
X171200000Y-117850000D01*
X171199398Y-117850000D01*
X171199398Y-117874534D01*
X171194588Y-117923365D01*
X171185016Y-117971490D01*
X171170772Y-118018445D01*
X171151995Y-118063778D01*
X171128864Y-118107051D01*
X171101604Y-118147850D01*
X171070476Y-118185779D01*
X171035779Y-118220476D01*
X170997850Y-118251604D01*
X170957051Y-118278864D01*
X170913778Y-118301995D01*
X170868445Y-118320772D01*
X170821490Y-118335016D01*
X170773365Y-118344588D01*
X170724534Y-118349398D01*
X170700000Y-118349398D01*
X170700000Y-118350000D01*
X170200000Y-118350000D01*
X170200000Y-116850000D01*
X170700000Y-116850000D01*
X170700000Y-116850602D01*
G37*
G36*
X169900000Y-118350000D02*
G01*
X169400000Y-118350000D01*
X169400000Y-118349398D01*
X169375466Y-118349398D01*
X169326635Y-118344588D01*
X169278510Y-118335016D01*
X169231555Y-118320772D01*
X169186222Y-118301995D01*
X169142949Y-118278864D01*
X169102150Y-118251604D01*
X169064221Y-118220476D01*
X169029524Y-118185779D01*
X168998396Y-118147850D01*
X168971136Y-118107051D01*
X168948005Y-118063778D01*
X168929228Y-118018445D01*
X168914984Y-117971490D01*
X168905412Y-117923365D01*
X168900602Y-117874534D01*
X168900602Y-117850000D01*
X168900000Y-117850000D01*
X168900000Y-117350000D01*
X168900602Y-117350000D01*
X168900602Y-117325466D01*
X168905412Y-117276635D01*
X168914984Y-117228510D01*
X168929228Y-117181555D01*
X168948005Y-117136222D01*
X168971136Y-117092949D01*
X168998396Y-117052150D01*
X169029524Y-117014221D01*
X169064221Y-116979524D01*
X169102150Y-116948396D01*
X169142949Y-116921136D01*
X169186222Y-116898005D01*
X169231555Y-116879228D01*
X169278510Y-116864984D01*
X169326635Y-116855412D01*
X169375466Y-116850602D01*
X169400000Y-116850602D01*
X169400000Y-116850000D01*
X169900000Y-116850000D01*
X169900000Y-118350000D01*
G37*
D21*
X205300000Y-80375000D03*
X205300000Y-124375000D03*
X129300000Y-80375000D03*
X129300000Y-124375000D03*
D13*
X205800000Y-103335000D03*
X205800000Y-100795000D03*
X205800000Y-98255000D03*
X205800000Y-105875000D03*
X124300000Y-85855000D03*
X124300000Y-88395000D03*
X124300000Y-90935000D03*
X124300000Y-93475000D03*
X124300000Y-96015000D03*
X124300000Y-98555000D03*
X124300000Y-101095000D03*
X124300000Y-103635000D03*
X124300000Y-106175000D03*
X124300000Y-108715000D03*
X124300000Y-111255000D03*
X124300000Y-113795000D03*
X124300000Y-116335000D03*
D14*
X124300000Y-118875000D03*
D22*
X160220000Y-53480000D03*
X164030000Y-53480000D03*
X167840000Y-53480000D03*
D23*
X171650000Y-53480000D03*
D24*
X167790000Y-127360000D03*
X166840000Y-125360000D03*
X168740000Y-125360000D03*
D22*
X105800000Y-53530000D03*
X109610000Y-53530000D03*
X113420000Y-53530000D03*
D23*
X117230000Y-53530000D03*
D25*
X107800000Y-61970000D03*
X107800000Y-59430000D03*
X114100000Y-59430000D03*
X114100000Y-61970000D03*
G36*
G01*
X117650000Y-62450002D02*
X117650000Y-61549998D01*
G75*
G02*
X117899998Y-61300000I249998J0D01*
G01*
X118425002Y-61300000D01*
G75*
G02*
X118675000Y-61549998I0J-249998D01*
G01*
X118675000Y-62450002D01*
G75*
G02*
X118425002Y-62700000I-249998J0D01*
G01*
X117899998Y-62700000D01*
G75*
G02*
X117650000Y-62450002I0J249998D01*
G01*
G37*
G36*
G01*
X115825000Y-62450002D02*
X115825000Y-61549998D01*
G75*
G02*
X116074998Y-61300000I249998J0D01*
G01*
X116600002Y-61300000D01*
G75*
G02*
X116850000Y-61549998I0J-249998D01*
G01*
X116850000Y-62450002D01*
G75*
G02*
X116600002Y-62700000I-249998J0D01*
G01*
X116074998Y-62700000D01*
G75*
G02*
X115825000Y-62450002I0J249998D01*
G01*
G37*
D26*
X122280000Y-59850000D03*
X124820000Y-59850000D03*
X124820000Y-66150000D03*
X122280000Y-66150000D03*
D27*
X173279000Y-71375800D03*
X173279000Y-75975800D03*
X173279000Y-73675800D03*
D28*
X179579000Y-73675800D03*
G36*
G01*
X181543320Y-122955500D02*
X181843320Y-122955500D01*
G75*
G02*
X181993320Y-123105500I0J-150000D01*
G01*
X181993320Y-124430500D01*
G75*
G02*
X181843320Y-124580500I-150000J0D01*
G01*
X181543320Y-124580500D01*
G75*
G02*
X181393320Y-124430500I0J150000D01*
G01*
X181393320Y-123105500D01*
G75*
G02*
X181543320Y-122955500I150000J0D01*
G01*
G37*
G36*
G01*
X180273320Y-122955500D02*
X180573320Y-122955500D01*
G75*
G02*
X180723320Y-123105500I0J-150000D01*
G01*
X180723320Y-124430500D01*
G75*
G02*
X180573320Y-124580500I-150000J0D01*
G01*
X180273320Y-124580500D01*
G75*
G02*
X180123320Y-124430500I0J150000D01*
G01*
X180123320Y-123105500D01*
G75*
G02*
X180273320Y-122955500I150000J0D01*
G01*
G37*
G36*
G01*
X180273320Y-116580500D02*
X180573320Y-116580500D01*
G75*
G02*
X180723320Y-116730500I0J-150000D01*
G01*
X180723320Y-118055500D01*
G75*
G02*
X180573320Y-118205500I-150000J0D01*
G01*
X180273320Y-118205500D01*
G75*
G02*
X180123320Y-118055500I0J150000D01*
G01*
X180123320Y-116730500D01*
G75*
G02*
X180273320Y-116580500I150000J0D01*
G01*
G37*
G36*
G01*
X181543320Y-116580500D02*
X181843320Y-116580500D01*
G75*
G02*
X181993320Y-116730500I0J-150000D01*
G01*
X181993320Y-118055500D01*
G75*
G02*
X181843320Y-118205500I-150000J0D01*
G01*
X181543320Y-118205500D01*
G75*
G02*
X181393320Y-118055500I0J150000D01*
G01*
X181393320Y-116730500D01*
G75*
G02*
X181543320Y-116580500I150000J0D01*
G01*
G37*
D29*
X182341000Y-130849600D03*
G36*
G01*
X179741000Y-131474601D02*
X179741000Y-130224599D01*
G75*
G02*
X179990999Y-129974600I249999J0D01*
G01*
X180691001Y-129974600D01*
G75*
G02*
X180941000Y-130224599I0J-249999D01*
G01*
X180941000Y-131474601D01*
G75*
G02*
X180691001Y-131724600I-249999J0D01*
G01*
X179990999Y-131724600D01*
G75*
G02*
X179741000Y-131474601I0J249999D01*
G01*
G37*
X175330720Y-130849600D03*
G36*
G01*
X172730720Y-131474601D02*
X172730720Y-130224599D01*
G75*
G02*
X172980719Y-129974600I249999J0D01*
G01*
X173680721Y-129974600D01*
G75*
G02*
X173930720Y-130224599I0J-249999D01*
G01*
X173930720Y-131474601D01*
G75*
G02*
X173680721Y-131724600I-249999J0D01*
G01*
X172980719Y-131724600D01*
G75*
G02*
X172730720Y-131474601I0J249999D01*
G01*
G37*
G36*
G01*
X103112240Y-126849998D02*
X103112240Y-127750002D01*
G75*
G02*
X102862242Y-128000000I-249998J0D01*
G01*
X102337238Y-128000000D01*
G75*
G02*
X102087240Y-127750002I0J249998D01*
G01*
X102087240Y-126849998D01*
G75*
G02*
X102337238Y-126600000I249998J0D01*
G01*
X102862242Y-126600000D01*
G75*
G02*
X103112240Y-126849998I0J-249998D01*
G01*
G37*
G36*
G01*
X104937240Y-126849998D02*
X104937240Y-127750002D01*
G75*
G02*
X104687242Y-128000000I-249998J0D01*
G01*
X104162238Y-128000000D01*
G75*
G02*
X103912240Y-127750002I0J249998D01*
G01*
X103912240Y-126849998D01*
G75*
G02*
X104162238Y-126600000I249998J0D01*
G01*
X104687242Y-126600000D01*
G75*
G02*
X104937240Y-126849998I0J-249998D01*
G01*
G37*
G36*
G01*
X130850000Y-104950002D02*
X130850000Y-104049998D01*
G75*
G02*
X131099998Y-103800000I249998J0D01*
G01*
X131625002Y-103800000D01*
G75*
G02*
X131875000Y-104049998I0J-249998D01*
G01*
X131875000Y-104950002D01*
G75*
G02*
X131625002Y-105200000I-249998J0D01*
G01*
X131099998Y-105200000D01*
G75*
G02*
X130850000Y-104950002I0J249998D01*
G01*
G37*
G36*
G01*
X129025000Y-104950002D02*
X129025000Y-104049998D01*
G75*
G02*
X129274998Y-103800000I249998J0D01*
G01*
X129800002Y-103800000D01*
G75*
G02*
X130050000Y-104049998I0J-249998D01*
G01*
X130050000Y-104950002D01*
G75*
G02*
X129800002Y-105200000I-249998J0D01*
G01*
X129274998Y-105200000D01*
G75*
G02*
X129025000Y-104950002I0J249998D01*
G01*
G37*
G36*
G01*
X147022480Y-117049998D02*
X147022480Y-117950002D01*
G75*
G02*
X146772482Y-118200000I-249998J0D01*
G01*
X146247478Y-118200000D01*
G75*
G02*
X145997480Y-117950002I0J249998D01*
G01*
X145997480Y-117049998D01*
G75*
G02*
X146247478Y-116800000I249998J0D01*
G01*
X146772482Y-116800000D01*
G75*
G02*
X147022480Y-117049998I0J-249998D01*
G01*
G37*
G36*
G01*
X148847480Y-117049998D02*
X148847480Y-117950002D01*
G75*
G02*
X148597482Y-118200000I-249998J0D01*
G01*
X148072478Y-118200000D01*
G75*
G02*
X147822480Y-117950002I0J249998D01*
G01*
X147822480Y-117049998D01*
G75*
G02*
X148072478Y-116800000I249998J0D01*
G01*
X148597482Y-116800000D01*
G75*
G02*
X148847480Y-117049998I0J-249998D01*
G01*
G37*
G36*
G01*
X123650000Y-70550002D02*
X123650000Y-69649998D01*
G75*
G02*
X123899998Y-69400000I249998J0D01*
G01*
X124425002Y-69400000D01*
G75*
G02*
X124675000Y-69649998I0J-249998D01*
G01*
X124675000Y-70550002D01*
G75*
G02*
X124425002Y-70800000I-249998J0D01*
G01*
X123899998Y-70800000D01*
G75*
G02*
X123650000Y-70550002I0J249998D01*
G01*
G37*
G36*
G01*
X121825000Y-70550002D02*
X121825000Y-69649998D01*
G75*
G02*
X122074998Y-69400000I249998J0D01*
G01*
X122600002Y-69400000D01*
G75*
G02*
X122850000Y-69649998I0J-249998D01*
G01*
X122850000Y-70550002D01*
G75*
G02*
X122600002Y-70800000I-249998J0D01*
G01*
X122074998Y-70800000D01*
G75*
G02*
X121825000Y-70550002I0J249998D01*
G01*
G37*
G36*
G01*
X103912240Y-125750002D02*
X103912240Y-124849998D01*
G75*
G02*
X104162238Y-124600000I249998J0D01*
G01*
X104687242Y-124600000D01*
G75*
G02*
X104937240Y-124849998I0J-249998D01*
G01*
X104937240Y-125750002D01*
G75*
G02*
X104687242Y-126000000I-249998J0D01*
G01*
X104162238Y-126000000D01*
G75*
G02*
X103912240Y-125750002I0J249998D01*
G01*
G37*
G36*
G01*
X102087240Y-125750002D02*
X102087240Y-124849998D01*
G75*
G02*
X102337238Y-124600000I249998J0D01*
G01*
X102862242Y-124600000D01*
G75*
G02*
X103112240Y-124849998I0J-249998D01*
G01*
X103112240Y-125750002D01*
G75*
G02*
X102862242Y-126000000I-249998J0D01*
G01*
X102337238Y-126000000D01*
G75*
G02*
X102087240Y-125750002I0J249998D01*
G01*
G37*
G36*
G01*
X101849820Y-60764422D02*
X101849820Y-59864418D01*
G75*
G02*
X102099818Y-59614420I249998J0D01*
G01*
X102624822Y-59614420D01*
G75*
G02*
X102874820Y-59864418I0J-249998D01*
G01*
X102874820Y-60764422D01*
G75*
G02*
X102624822Y-61014420I-249998J0D01*
G01*
X102099818Y-61014420D01*
G75*
G02*
X101849820Y-60764422I0J249998D01*
G01*
G37*
G36*
G01*
X100024820Y-60764422D02*
X100024820Y-59864418D01*
G75*
G02*
X100274818Y-59614420I249998J0D01*
G01*
X100799822Y-59614420D01*
G75*
G02*
X101049820Y-59864418I0J-249998D01*
G01*
X101049820Y-60764422D01*
G75*
G02*
X100799822Y-61014420I-249998J0D01*
G01*
X100274818Y-61014420D01*
G75*
G02*
X100024820Y-60764422I0J249998D01*
G01*
G37*
G36*
G01*
X153550000Y-62950002D02*
X153550000Y-62049998D01*
G75*
G02*
X153799998Y-61800000I249998J0D01*
G01*
X154325002Y-61800000D01*
G75*
G02*
X154575000Y-62049998I0J-249998D01*
G01*
X154575000Y-62950002D01*
G75*
G02*
X154325002Y-63200000I-249998J0D01*
G01*
X153799998Y-63200000D01*
G75*
G02*
X153550000Y-62950002I0J249998D01*
G01*
G37*
G36*
G01*
X151725000Y-62950002D02*
X151725000Y-62049998D01*
G75*
G02*
X151974998Y-61800000I249998J0D01*
G01*
X152500002Y-61800000D01*
G75*
G02*
X152750000Y-62049998I0J-249998D01*
G01*
X152750000Y-62950002D01*
G75*
G02*
X152500002Y-63200000I-249998J0D01*
G01*
X151974998Y-63200000D01*
G75*
G02*
X151725000Y-62950002I0J249998D01*
G01*
G37*
G36*
G01*
X153099998Y-71000000D02*
X154000002Y-71000000D01*
G75*
G02*
X154250000Y-71249998I0J-249998D01*
G01*
X154250000Y-71775002D01*
G75*
G02*
X154000002Y-72025000I-249998J0D01*
G01*
X153099998Y-72025000D01*
G75*
G02*
X152850000Y-71775002I0J249998D01*
G01*
X152850000Y-71249998D01*
G75*
G02*
X153099998Y-71000000I249998J0D01*
G01*
G37*
G36*
G01*
X153099998Y-69175000D02*
X154000002Y-69175000D01*
G75*
G02*
X154250000Y-69424998I0J-249998D01*
G01*
X154250000Y-69950002D01*
G75*
G02*
X154000002Y-70200000I-249998J0D01*
G01*
X153099998Y-70200000D01*
G75*
G02*
X152850000Y-69950002I0J249998D01*
G01*
X152850000Y-69424998D01*
G75*
G02*
X153099998Y-69175000I249998J0D01*
G01*
G37*
G36*
G01*
X147150000Y-54975002D02*
X147150000Y-54074998D01*
G75*
G02*
X147399998Y-53825000I249998J0D01*
G01*
X147925002Y-53825000D01*
G75*
G02*
X148175000Y-54074998I0J-249998D01*
G01*
X148175000Y-54975002D01*
G75*
G02*
X147925002Y-55225000I-249998J0D01*
G01*
X147399998Y-55225000D01*
G75*
G02*
X147150000Y-54975002I0J249998D01*
G01*
G37*
G36*
G01*
X145325000Y-54975002D02*
X145325000Y-54074998D01*
G75*
G02*
X145574998Y-53825000I249998J0D01*
G01*
X146100002Y-53825000D01*
G75*
G02*
X146350000Y-54074998I0J-249998D01*
G01*
X146350000Y-54975002D01*
G75*
G02*
X146100002Y-55225000I-249998J0D01*
G01*
X145574998Y-55225000D01*
G75*
G02*
X145325000Y-54975002I0J249998D01*
G01*
G37*
G36*
G01*
X179175000Y-54975002D02*
X179175000Y-54074998D01*
G75*
G02*
X179424998Y-53825000I249998J0D01*
G01*
X179950002Y-53825000D01*
G75*
G02*
X180200000Y-54074998I0J-249998D01*
G01*
X180200000Y-54975002D01*
G75*
G02*
X179950002Y-55225000I-249998J0D01*
G01*
X179424998Y-55225000D01*
G75*
G02*
X179175000Y-54975002I0J249998D01*
G01*
G37*
G36*
G01*
X177350000Y-54975002D02*
X177350000Y-54074998D01*
G75*
G02*
X177599998Y-53825000I249998J0D01*
G01*
X178125002Y-53825000D01*
G75*
G02*
X178375000Y-54074998I0J-249998D01*
G01*
X178375000Y-54975002D01*
G75*
G02*
X178125002Y-55225000I-249998J0D01*
G01*
X177599998Y-55225000D01*
G75*
G02*
X177350000Y-54975002I0J249998D01*
G01*
G37*
G36*
G01*
X207950000Y-64750002D02*
X207950000Y-63849998D01*
G75*
G02*
X208199998Y-63600000I249998J0D01*
G01*
X208725002Y-63600000D01*
G75*
G02*
X208975000Y-63849998I0J-249998D01*
G01*
X208975000Y-64750002D01*
G75*
G02*
X208725002Y-65000000I-249998J0D01*
G01*
X208199998Y-65000000D01*
G75*
G02*
X207950000Y-64750002I0J249998D01*
G01*
G37*
G36*
G01*
X206125000Y-64750002D02*
X206125000Y-63849998D01*
G75*
G02*
X206374998Y-63600000I249998J0D01*
G01*
X206900002Y-63600000D01*
G75*
G02*
X207150000Y-63849998I0J-249998D01*
G01*
X207150000Y-64750002D01*
G75*
G02*
X206900002Y-65000000I-249998J0D01*
G01*
X206374998Y-65000000D01*
G75*
G02*
X206125000Y-64750002I0J249998D01*
G01*
G37*
G36*
G01*
X206249998Y-71550000D02*
X207150002Y-71550000D01*
G75*
G02*
X207400000Y-71799998I0J-249998D01*
G01*
X207400000Y-72325002D01*
G75*
G02*
X207150002Y-72575000I-249998J0D01*
G01*
X206249998Y-72575000D01*
G75*
G02*
X206000000Y-72325002I0J249998D01*
G01*
X206000000Y-71799998D01*
G75*
G02*
X206249998Y-71550000I249998J0D01*
G01*
G37*
G36*
G01*
X206249998Y-69725000D02*
X207150002Y-69725000D01*
G75*
G02*
X207400000Y-69974998I0J-249998D01*
G01*
X207400000Y-70500002D01*
G75*
G02*
X207150002Y-70750000I-249998J0D01*
G01*
X206249998Y-70750000D01*
G75*
G02*
X206000000Y-70500002I0J249998D01*
G01*
X206000000Y-69974998D01*
G75*
G02*
X206249998Y-69725000I249998J0D01*
G01*
G37*
G36*
G01*
X136990000Y-122780002D02*
X136990000Y-121879998D01*
G75*
G02*
X137239998Y-121630000I249998J0D01*
G01*
X137765002Y-121630000D01*
G75*
G02*
X138015000Y-121879998I0J-249998D01*
G01*
X138015000Y-122780002D01*
G75*
G02*
X137765002Y-123030000I-249998J0D01*
G01*
X137239998Y-123030000D01*
G75*
G02*
X136990000Y-122780002I0J249998D01*
G01*
G37*
G36*
G01*
X135165000Y-122780002D02*
X135165000Y-121879998D01*
G75*
G02*
X135414998Y-121630000I249998J0D01*
G01*
X135940002Y-121630000D01*
G75*
G02*
X136190000Y-121879998I0J-249998D01*
G01*
X136190000Y-122780002D01*
G75*
G02*
X135940002Y-123030000I-249998J0D01*
G01*
X135414998Y-123030000D01*
G75*
G02*
X135165000Y-122780002I0J249998D01*
G01*
G37*
G36*
G01*
X162069998Y-71400000D02*
X162970002Y-71400000D01*
G75*
G02*
X163220000Y-71649998I0J-249998D01*
G01*
X163220000Y-72175002D01*
G75*
G02*
X162970002Y-72425000I-249998J0D01*
G01*
X162069998Y-72425000D01*
G75*
G02*
X161820000Y-72175002I0J249998D01*
G01*
X161820000Y-71649998D01*
G75*
G02*
X162069998Y-71400000I249998J0D01*
G01*
G37*
G36*
G01*
X162069998Y-69575000D02*
X162970002Y-69575000D01*
G75*
G02*
X163220000Y-69824998I0J-249998D01*
G01*
X163220000Y-70350002D01*
G75*
G02*
X162970002Y-70600000I-249998J0D01*
G01*
X162069998Y-70600000D01*
G75*
G02*
X161820000Y-70350002I0J249998D01*
G01*
X161820000Y-69824998D01*
G75*
G02*
X162069998Y-69575000I249998J0D01*
G01*
G37*
G36*
G01*
X169550000Y-120349998D02*
X169550000Y-121250002D01*
G75*
G02*
X169300002Y-121500000I-249998J0D01*
G01*
X168774998Y-121500000D01*
G75*
G02*
X168525000Y-121250002I0J249998D01*
G01*
X168525000Y-120349998D01*
G75*
G02*
X168774998Y-120100000I249998J0D01*
G01*
X169300002Y-120100000D01*
G75*
G02*
X169550000Y-120349998I0J-249998D01*
G01*
G37*
G36*
G01*
X171375000Y-120349998D02*
X171375000Y-121250002D01*
G75*
G02*
X171125002Y-121500000I-249998J0D01*
G01*
X170599998Y-121500000D01*
G75*
G02*
X170350000Y-121250002I0J249998D01*
G01*
X170350000Y-120349998D01*
G75*
G02*
X170599998Y-120100000I249998J0D01*
G01*
X171125002Y-120100000D01*
G75*
G02*
X171375000Y-120349998I0J-249998D01*
G01*
G37*
G36*
G01*
X101778700Y-63060582D02*
X101778700Y-62160578D01*
G75*
G02*
X102028698Y-61910580I249998J0D01*
G01*
X102553702Y-61910580D01*
G75*
G02*
X102803700Y-62160578I0J-249998D01*
G01*
X102803700Y-63060582D01*
G75*
G02*
X102553702Y-63310580I-249998J0D01*
G01*
X102028698Y-63310580D01*
G75*
G02*
X101778700Y-63060582I0J249998D01*
G01*
G37*
G36*
G01*
X99953700Y-63060582D02*
X99953700Y-62160578D01*
G75*
G02*
X100203698Y-61910580I249998J0D01*
G01*
X100728702Y-61910580D01*
G75*
G02*
X100978700Y-62160578I0J-249998D01*
G01*
X100978700Y-63060582D01*
G75*
G02*
X100728702Y-63310580I-249998J0D01*
G01*
X100203698Y-63310580D01*
G75*
G02*
X99953700Y-63060582I0J249998D01*
G01*
G37*
G36*
G01*
X103912240Y-123800002D02*
X103912240Y-122899998D01*
G75*
G02*
X104162238Y-122650000I249998J0D01*
G01*
X104687242Y-122650000D01*
G75*
G02*
X104937240Y-122899998I0J-249998D01*
G01*
X104937240Y-123800002D01*
G75*
G02*
X104687242Y-124050000I-249998J0D01*
G01*
X104162238Y-124050000D01*
G75*
G02*
X103912240Y-123800002I0J249998D01*
G01*
G37*
G36*
G01*
X102087240Y-123800002D02*
X102087240Y-122899998D01*
G75*
G02*
X102337238Y-122650000I249998J0D01*
G01*
X102862242Y-122650000D01*
G75*
G02*
X103112240Y-122899998I0J-249998D01*
G01*
X103112240Y-123800002D01*
G75*
G02*
X102862242Y-124050000I-249998J0D01*
G01*
X102337238Y-124050000D01*
G75*
G02*
X102087240Y-123800002I0J249998D01*
G01*
G37*
G36*
G01*
X180730000Y-114669998D02*
X180730000Y-115570002D01*
G75*
G02*
X180480002Y-115820000I-249998J0D01*
G01*
X179954998Y-115820000D01*
G75*
G02*
X179705000Y-115570002I0J249998D01*
G01*
X179705000Y-114669998D01*
G75*
G02*
X179954998Y-114420000I249998J0D01*
G01*
X180480002Y-114420000D01*
G75*
G02*
X180730000Y-114669998I0J-249998D01*
G01*
G37*
G36*
G01*
X182555000Y-114669998D02*
X182555000Y-115570002D01*
G75*
G02*
X182305002Y-115820000I-249998J0D01*
G01*
X181779998Y-115820000D01*
G75*
G02*
X181530000Y-115570002I0J249998D01*
G01*
X181530000Y-114669998D01*
G75*
G02*
X181779998Y-114420000I249998J0D01*
G01*
X182305002Y-114420000D01*
G75*
G02*
X182555000Y-114669998I0J-249998D01*
G01*
G37*
G36*
G01*
X176150000Y-123950002D02*
X176150000Y-123049998D01*
G75*
G02*
X176399998Y-122800000I249998J0D01*
G01*
X176925002Y-122800000D01*
G75*
G02*
X177175000Y-123049998I0J-249998D01*
G01*
X177175000Y-123950002D01*
G75*
G02*
X176925002Y-124200000I-249998J0D01*
G01*
X176399998Y-124200000D01*
G75*
G02*
X176150000Y-123950002I0J249998D01*
G01*
G37*
G36*
G01*
X174325000Y-123950002D02*
X174325000Y-123049998D01*
G75*
G02*
X174574998Y-122800000I249998J0D01*
G01*
X175100002Y-122800000D01*
G75*
G02*
X175350000Y-123049998I0J-249998D01*
G01*
X175350000Y-123950002D01*
G75*
G02*
X175100002Y-124200000I-249998J0D01*
G01*
X174574998Y-124200000D01*
G75*
G02*
X174325000Y-123950002I0J249998D01*
G01*
G37*
G36*
G01*
X103912240Y-121850002D02*
X103912240Y-120949998D01*
G75*
G02*
X104162238Y-120700000I249998J0D01*
G01*
X104687242Y-120700000D01*
G75*
G02*
X104937240Y-120949998I0J-249998D01*
G01*
X104937240Y-121850002D01*
G75*
G02*
X104687242Y-122100000I-249998J0D01*
G01*
X104162238Y-122100000D01*
G75*
G02*
X103912240Y-121850002I0J249998D01*
G01*
G37*
G36*
G01*
X102087240Y-121850002D02*
X102087240Y-120949998D01*
G75*
G02*
X102337238Y-120700000I249998J0D01*
G01*
X102862242Y-120700000D01*
G75*
G02*
X103112240Y-120949998I0J-249998D01*
G01*
X103112240Y-121850002D01*
G75*
G02*
X102862242Y-122100000I-249998J0D01*
G01*
X102337238Y-122100000D01*
G75*
G02*
X102087240Y-121850002I0J249998D01*
G01*
G37*
D16*
X160375000Y-66025000D03*
X162375000Y-65075000D03*
X162375000Y-66975000D03*
X151750000Y-66900000D03*
X153750000Y-65950000D03*
X153750000Y-67850000D03*
X204550000Y-67400000D03*
X206550000Y-66450000D03*
X206550000Y-68350000D03*
D13*
X97686860Y-61591720D03*
X95146860Y-61591720D03*
D14*
X92606860Y-61591720D03*
D13*
X117510000Y-127900000D03*
D14*
X120050000Y-127900000D03*
D13*
X126870000Y-134290000D03*
X126870000Y-131750000D03*
X129410000Y-134290000D03*
X129410000Y-131750000D03*
X131950000Y-134290000D03*
D14*
X131950000Y-131750000D03*
D30*
X93350000Y-125100000D03*
X93350000Y-123400000D03*
X93350000Y-121700000D03*
X98150000Y-121700000D03*
X98150000Y-123400000D03*
X98150000Y-125100000D03*
G36*
G01*
X188100000Y-84675000D02*
X188100000Y-83725000D01*
G75*
G02*
X188350000Y-83475000I250000J0D01*
G01*
X188850000Y-83475000D01*
G75*
G02*
X189100000Y-83725000I0J-250000D01*
G01*
X189100000Y-84675000D01*
G75*
G02*
X188850000Y-84925000I-250000J0D01*
G01*
X188350000Y-84925000D01*
G75*
G02*
X188100000Y-84675000I0J250000D01*
G01*
G37*
G36*
G01*
X186200000Y-84675000D02*
X186200000Y-83725000D01*
G75*
G02*
X186450000Y-83475000I250000J0D01*
G01*
X186950000Y-83475000D01*
G75*
G02*
X187200000Y-83725000I0J-250000D01*
G01*
X187200000Y-84675000D01*
G75*
G02*
X186950000Y-84925000I-250000J0D01*
G01*
X186450000Y-84925000D01*
G75*
G02*
X186200000Y-84675000I0J250000D01*
G01*
G37*
G36*
G01*
X147892480Y-115815000D02*
X147892480Y-114865000D01*
G75*
G02*
X148142480Y-114615000I250000J0D01*
G01*
X148642480Y-114615000D01*
G75*
G02*
X148892480Y-114865000I0J-250000D01*
G01*
X148892480Y-115815000D01*
G75*
G02*
X148642480Y-116065000I-250000J0D01*
G01*
X148142480Y-116065000D01*
G75*
G02*
X147892480Y-115815000I0J250000D01*
G01*
G37*
G36*
G01*
X145992480Y-115815000D02*
X145992480Y-114865000D01*
G75*
G02*
X146242480Y-114615000I250000J0D01*
G01*
X146742480Y-114615000D01*
G75*
G02*
X146992480Y-114865000I0J-250000D01*
G01*
X146992480Y-115815000D01*
G75*
G02*
X146742480Y-116065000I-250000J0D01*
G01*
X146242480Y-116065000D01*
G75*
G02*
X145992480Y-115815000I0J250000D01*
G01*
G37*
G36*
G01*
X170489001Y-71620800D02*
X169638999Y-71620800D01*
G75*
G02*
X169389000Y-71370801I0J249999D01*
G01*
X169389000Y-70295799D01*
G75*
G02*
X169638999Y-70045800I249999J0D01*
G01*
X170489001Y-70045800D01*
G75*
G02*
X170739000Y-70295799I0J-249999D01*
G01*
X170739000Y-71370801D01*
G75*
G02*
X170489001Y-71620800I-249999J0D01*
G01*
G37*
G36*
G01*
X170489001Y-74495800D02*
X169638999Y-74495800D01*
G75*
G02*
X169389000Y-74245801I0J249999D01*
G01*
X169389000Y-73170799D01*
G75*
G02*
X169638999Y-72920800I249999J0D01*
G01*
X170489001Y-72920800D01*
G75*
G02*
X170739000Y-73170799I0J-249999D01*
G01*
X170739000Y-74245801D01*
G75*
G02*
X170489001Y-74495800I-249999J0D01*
G01*
G37*
G36*
G01*
X167639001Y-74130800D02*
X166788999Y-74130800D01*
G75*
G02*
X166539000Y-73880801I0J249999D01*
G01*
X166539000Y-72805799D01*
G75*
G02*
X166788999Y-72555800I249999J0D01*
G01*
X167639001Y-72555800D01*
G75*
G02*
X167889000Y-72805799I0J-249999D01*
G01*
X167889000Y-73880801D01*
G75*
G02*
X167639001Y-74130800I-249999J0D01*
G01*
G37*
G36*
G01*
X167639001Y-77005800D02*
X166788999Y-77005800D01*
G75*
G02*
X166539000Y-76755801I0J249999D01*
G01*
X166539000Y-75680799D01*
G75*
G02*
X166788999Y-75430800I249999J0D01*
G01*
X167639001Y-75430800D01*
G75*
G02*
X167889000Y-75680799I0J-249999D01*
G01*
X167889000Y-76755801D01*
G75*
G02*
X167639001Y-77005800I-249999J0D01*
G01*
G37*
G36*
G01*
X158800000Y-117375000D02*
X158800000Y-116425000D01*
G75*
G02*
X159050000Y-116175000I250000J0D01*
G01*
X159550000Y-116175000D01*
G75*
G02*
X159800000Y-116425000I0J-250000D01*
G01*
X159800000Y-117375000D01*
G75*
G02*
X159550000Y-117625000I-250000J0D01*
G01*
X159050000Y-117625000D01*
G75*
G02*
X158800000Y-117375000I0J250000D01*
G01*
G37*
G36*
G01*
X156900000Y-117375000D02*
X156900000Y-116425000D01*
G75*
G02*
X157150000Y-116175000I250000J0D01*
G01*
X157650000Y-116175000D01*
G75*
G02*
X157900000Y-116425000I0J-250000D01*
G01*
X157900000Y-117375000D01*
G75*
G02*
X157650000Y-117625000I-250000J0D01*
G01*
X157150000Y-117625000D01*
G75*
G02*
X156900000Y-117375000I0J250000D01*
G01*
G37*
G36*
G01*
X140718980Y-111785800D02*
X140718980Y-110835800D01*
G75*
G02*
X140968980Y-110585800I250000J0D01*
G01*
X141468980Y-110585800D01*
G75*
G02*
X141718980Y-110835800I0J-250000D01*
G01*
X141718980Y-111785800D01*
G75*
G02*
X141468980Y-112035800I-250000J0D01*
G01*
X140968980Y-112035800D01*
G75*
G02*
X140718980Y-111785800I0J250000D01*
G01*
G37*
G36*
G01*
X138818980Y-111785800D02*
X138818980Y-110835800D01*
G75*
G02*
X139068980Y-110585800I250000J0D01*
G01*
X139568980Y-110585800D01*
G75*
G02*
X139818980Y-110835800I0J-250000D01*
G01*
X139818980Y-111785800D01*
G75*
G02*
X139568980Y-112035800I-250000J0D01*
G01*
X139068980Y-112035800D01*
G75*
G02*
X138818980Y-111785800I0J250000D01*
G01*
G37*
D31*
X117656394Y-117150000D03*
X117656394Y-114610000D03*
X117656394Y-112070000D03*
X117656394Y-109530000D03*
X117656394Y-106990000D03*
X117656394Y-104450000D03*
X117656394Y-101910000D03*
X117656394Y-99370000D03*
X117656394Y-96830000D03*
X117656394Y-94290000D03*
X117656394Y-91750000D03*
X117656394Y-89210000D03*
X117656394Y-86670000D03*
X117656394Y-84130000D03*
X117656394Y-81590000D03*
X117656394Y-79050000D03*
X117656394Y-76510000D03*
X117656394Y-73970000D03*
X117656394Y-71430000D03*
X92256394Y-114610000D03*
X92256394Y-112070000D03*
X92256394Y-109530000D03*
X92256394Y-106990000D03*
X92256394Y-104450000D03*
X92256394Y-101910000D03*
X92256394Y-99370000D03*
X92256394Y-96830000D03*
X92256394Y-94290000D03*
X92256394Y-91750000D03*
X92256394Y-89210000D03*
X92256394Y-86670000D03*
X92256394Y-84130000D03*
X92256394Y-81590000D03*
X92256394Y-79050000D03*
X92256394Y-76510000D03*
X92256394Y-117150000D03*
X92256394Y-73970000D03*
D32*
X92256394Y-71430000D03*
D33*
X144475000Y-75300000D03*
D34*
X146475000Y-69300000D03*
D15*
X144475000Y-63300000D03*
D34*
X132275000Y-63300000D03*
X132275000Y-75300000D03*
D33*
X197340000Y-75300000D03*
D34*
X199340000Y-69300000D03*
D15*
X197340000Y-63300000D03*
D34*
X185140000Y-63300000D03*
X185140000Y-75300000D03*
D22*
X168679020Y-133488660D03*
X164869020Y-133488660D03*
X161059020Y-133488660D03*
D23*
X157249020Y-133488660D03*
D22*
X151855686Y-133503660D03*
X148045686Y-133503660D03*
X144235686Y-133503660D03*
D23*
X140425686Y-133503660D03*
D35*
X131685000Y-54450000D03*
X136685000Y-54450000D03*
D36*
X141685000Y-54450000D03*
D35*
X184550000Y-54450000D03*
X189550000Y-54450000D03*
D36*
X194550000Y-54450000D03*
D22*
X113270000Y-133500000D03*
X109460000Y-133500000D03*
X105650000Y-133500000D03*
D23*
X101840000Y-133500000D03*
D37*
X92450000Y-54200000D03*
X92450000Y-134200000D03*
X207400000Y-134150000D03*
X207400000Y-54200000D03*
M02*
