G04 #@! TF.GenerationSoftware,KiCad,Pcbnew,5.1.9+dfsg1-1~bpo10+1*
G04 #@! TF.CreationDate,2021-05-17T08:17:05+00:00*
G04 #@! TF.ProjectId,ControllerCircuit,436f6e74-726f-46c6-9c65-724369726375,rev?*
G04 #@! TF.SameCoordinates,Original*
G04 #@! TF.FileFunction,Soldermask,Top*
G04 #@! TF.FilePolarity,Negative*
%FSLAX46Y46*%
G04 Gerber Fmt 4.6, Leading zero omitted, Abs format (unit mm)*
G04 Created by KiCad (PCBNEW 5.1.9+dfsg1-1~bpo10+1) date 2021-05-17 08:17:05*
%MOMM*%
%LPD*%
G01*
G04 APERTURE LIST*
%ADD10C,2.240000*%
%ADD11O,2.840000X2.840000*%
%ADD12C,0.100000*%
%ADD13C,3.240000*%
%ADD14O,1.740000X1.740000*%
%ADD15O,1.240000X1.790000*%
%ADD16C,1.600000*%
%ADD17C,2.040000*%
%ADD18C,1.940000*%
%ADD19C,4.040000*%
G04 APERTURE END LIST*
G36*
G01*
X192910000Y-81620000D02*
X194910000Y-81620000D01*
G75*
G02*
X194930000Y-81640000I0J-20000D01*
G01*
X194930000Y-83090000D01*
G75*
G02*
X194910000Y-83110000I-20000J0D01*
G01*
X192910000Y-83110000D01*
G75*
G02*
X192890000Y-83090000I0J20000D01*
G01*
X192890000Y-81640000D01*
G75*
G02*
X192910000Y-81620000I20000J0D01*
G01*
G37*
G36*
G01*
X201210000Y-81620000D02*
X203210000Y-81620000D01*
G75*
G02*
X203230000Y-81640000I0J-20000D01*
G01*
X203230000Y-83090000D01*
G75*
G02*
X203210000Y-83110000I-20000J0D01*
G01*
X201210000Y-83110000D01*
G75*
G02*
X201190000Y-83090000I0J20000D01*
G01*
X201190000Y-81640000D01*
G75*
G02*
X201210000Y-81620000I20000J0D01*
G01*
G37*
G36*
G01*
X201210000Y-95370000D02*
X203210000Y-95370000D01*
G75*
G02*
X203230000Y-95390000I0J-20000D01*
G01*
X203230000Y-96840000D01*
G75*
G02*
X203210000Y-96860000I-20000J0D01*
G01*
X201210000Y-96860000D01*
G75*
G02*
X201190000Y-96840000I0J20000D01*
G01*
X201190000Y-95390000D01*
G75*
G02*
X201210000Y-95370000I20000J0D01*
G01*
G37*
G36*
G01*
X192910000Y-95370000D02*
X194910000Y-95370000D01*
G75*
G02*
X194930000Y-95390000I0J-20000D01*
G01*
X194930000Y-96840000D01*
G75*
G02*
X194910000Y-96860000I-20000J0D01*
G01*
X192910000Y-96860000D01*
G75*
G02*
X192890000Y-96840000I0J20000D01*
G01*
X192890000Y-95390000D01*
G75*
G02*
X192910000Y-95370000I20000J0D01*
G01*
G37*
G36*
G01*
X195760000Y-84325000D02*
X197260000Y-84325000D01*
G75*
G02*
X197280000Y-84345000I0J-20000D01*
G01*
X197280000Y-85145000D01*
G75*
G02*
X197260000Y-85165000I-20000J0D01*
G01*
X195760000Y-85165000D01*
G75*
G02*
X195740000Y-85145000I0J20000D01*
G01*
X195740000Y-84345000D01*
G75*
G02*
X195760000Y-84325000I20000J0D01*
G01*
G37*
G36*
G01*
X195760000Y-85425000D02*
X197260000Y-85425000D01*
G75*
G02*
X197280000Y-85445000I0J-20000D01*
G01*
X197280000Y-86245000D01*
G75*
G02*
X197260000Y-86265000I-20000J0D01*
G01*
X195760000Y-86265000D01*
G75*
G02*
X195740000Y-86245000I0J20000D01*
G01*
X195740000Y-85445000D01*
G75*
G02*
X195760000Y-85425000I20000J0D01*
G01*
G37*
G36*
G01*
X195760000Y-86525000D02*
X197260000Y-86525000D01*
G75*
G02*
X197280000Y-86545000I0J-20000D01*
G01*
X197280000Y-87345000D01*
G75*
G02*
X197260000Y-87365000I-20000J0D01*
G01*
X195760000Y-87365000D01*
G75*
G02*
X195740000Y-87345000I0J20000D01*
G01*
X195740000Y-86545000D01*
G75*
G02*
X195760000Y-86525000I20000J0D01*
G01*
G37*
G36*
G01*
X195760000Y-87625000D02*
X197260000Y-87625000D01*
G75*
G02*
X197280000Y-87645000I0J-20000D01*
G01*
X197280000Y-88445000D01*
G75*
G02*
X197260000Y-88465000I-20000J0D01*
G01*
X195760000Y-88465000D01*
G75*
G02*
X195740000Y-88445000I0J20000D01*
G01*
X195740000Y-87645000D01*
G75*
G02*
X195760000Y-87625000I20000J0D01*
G01*
G37*
G36*
G01*
X195760000Y-88725000D02*
X197260000Y-88725000D01*
G75*
G02*
X197280000Y-88745000I0J-20000D01*
G01*
X197280000Y-89545000D01*
G75*
G02*
X197260000Y-89565000I-20000J0D01*
G01*
X195760000Y-89565000D01*
G75*
G02*
X195740000Y-89545000I0J20000D01*
G01*
X195740000Y-88745000D01*
G75*
G02*
X195760000Y-88725000I20000J0D01*
G01*
G37*
G36*
G01*
X195760000Y-89825000D02*
X197260000Y-89825000D01*
G75*
G02*
X197280000Y-89845000I0J-20000D01*
G01*
X197280000Y-90645000D01*
G75*
G02*
X197260000Y-90665000I-20000J0D01*
G01*
X195760000Y-90665000D01*
G75*
G02*
X195740000Y-90645000I0J20000D01*
G01*
X195740000Y-89845000D01*
G75*
G02*
X195760000Y-89825000I20000J0D01*
G01*
G37*
G36*
G01*
X195760000Y-90925000D02*
X197260000Y-90925000D01*
G75*
G02*
X197280000Y-90945000I0J-20000D01*
G01*
X197280000Y-91745000D01*
G75*
G02*
X197260000Y-91765000I-20000J0D01*
G01*
X195760000Y-91765000D01*
G75*
G02*
X195740000Y-91745000I0J20000D01*
G01*
X195740000Y-90945000D01*
G75*
G02*
X195760000Y-90925000I20000J0D01*
G01*
G37*
G36*
G01*
X195760000Y-92025000D02*
X197260000Y-92025000D01*
G75*
G02*
X197280000Y-92045000I0J-20000D01*
G01*
X197280000Y-92845000D01*
G75*
G02*
X197260000Y-92865000I-20000J0D01*
G01*
X195760000Y-92865000D01*
G75*
G02*
X195740000Y-92845000I0J20000D01*
G01*
X195740000Y-92045000D01*
G75*
G02*
X195760000Y-92025000I20000J0D01*
G01*
G37*
D10*
X197900000Y-118360000D03*
X194090000Y-118360000D03*
X190280000Y-118360000D03*
G36*
G01*
X185450000Y-119360000D02*
X185450000Y-117360000D01*
G75*
G02*
X185470000Y-117340000I20000J0D01*
G01*
X187470000Y-117340000D01*
G75*
G02*
X187490000Y-117360000I0J-20000D01*
G01*
X187490000Y-119360000D01*
G75*
G02*
X187470000Y-119380000I-20000J0D01*
G01*
X185470000Y-119380000D01*
G75*
G02*
X185450000Y-119360000I0J20000D01*
G01*
G37*
D11*
X158720000Y-69440000D03*
G36*
G01*
X160120000Y-81020000D02*
X157320000Y-81020000D01*
G75*
G02*
X157300000Y-81000000I0J20000D01*
G01*
X157300000Y-78200000D01*
G75*
G02*
X157320000Y-78180000I20000J0D01*
G01*
X160120000Y-78180000D01*
G75*
G02*
X160140000Y-78200000I0J-20000D01*
G01*
X160140000Y-81000000D01*
G75*
G02*
X160120000Y-81020000I-20000J0D01*
G01*
G37*
G36*
G01*
X175505900Y-97714180D02*
X175505900Y-97219180D01*
G75*
G02*
X175753400Y-96971680I247500J0D01*
G01*
X176348400Y-96971680D01*
G75*
G02*
X176595900Y-97219180I0J-247500D01*
G01*
X176595900Y-97714180D01*
G75*
G02*
X176348400Y-97961680I-247500J0D01*
G01*
X175753400Y-97961680D01*
G75*
G02*
X175505900Y-97714180I0J247500D01*
G01*
G37*
G36*
G01*
X173755900Y-97714180D02*
X173755900Y-97219180D01*
G75*
G02*
X174003400Y-96971680I247500J0D01*
G01*
X174598400Y-96971680D01*
G75*
G02*
X174845900Y-97219180I0J-247500D01*
G01*
X174845900Y-97714180D01*
G75*
G02*
X174598400Y-97961680I-247500J0D01*
G01*
X174003400Y-97961680D01*
G75*
G02*
X173755900Y-97714180I0J247500D01*
G01*
G37*
G36*
G01*
X147480000Y-52407500D02*
X147480000Y-51912500D01*
G75*
G02*
X147727500Y-51665000I247500J0D01*
G01*
X148322500Y-51665000D01*
G75*
G02*
X148570000Y-51912500I0J-247500D01*
G01*
X148570000Y-52407500D01*
G75*
G02*
X148322500Y-52655000I-247500J0D01*
G01*
X147727500Y-52655000D01*
G75*
G02*
X147480000Y-52407500I0J247500D01*
G01*
G37*
G36*
G01*
X145730000Y-52407500D02*
X145730000Y-51912500D01*
G75*
G02*
X145977500Y-51665000I247500J0D01*
G01*
X146572500Y-51665000D01*
G75*
G02*
X146820000Y-51912500I0J-247500D01*
G01*
X146820000Y-52407500D01*
G75*
G02*
X146572500Y-52655000I-247500J0D01*
G01*
X145977500Y-52655000D01*
G75*
G02*
X145730000Y-52407500I0J247500D01*
G01*
G37*
G36*
G01*
X179505000Y-52407500D02*
X179505000Y-51912500D01*
G75*
G02*
X179752500Y-51665000I247500J0D01*
G01*
X180347500Y-51665000D01*
G75*
G02*
X180595000Y-51912500I0J-247500D01*
G01*
X180595000Y-52407500D01*
G75*
G02*
X180347500Y-52655000I-247500J0D01*
G01*
X179752500Y-52655000D01*
G75*
G02*
X179505000Y-52407500I0J247500D01*
G01*
G37*
G36*
G01*
X177755000Y-52407500D02*
X177755000Y-51912500D01*
G75*
G02*
X178002500Y-51665000I247500J0D01*
G01*
X178597500Y-51665000D01*
G75*
G02*
X178845000Y-51912500I0J-247500D01*
G01*
X178845000Y-52407500D01*
G75*
G02*
X178597500Y-52655000I-247500J0D01*
G01*
X178002500Y-52655000D01*
G75*
G02*
X177755000Y-52407500I0J247500D01*
G01*
G37*
G36*
G01*
X152100000Y-70820000D02*
X150400000Y-70820000D01*
G75*
G02*
X150380000Y-70800000I0J20000D01*
G01*
X150380000Y-69500000D01*
G75*
G02*
X150400000Y-69480000I20000J0D01*
G01*
X152100000Y-69480000D01*
G75*
G02*
X152120000Y-69500000I0J-20000D01*
G01*
X152120000Y-70800000D01*
G75*
G02*
X152100000Y-70820000I-20000J0D01*
G01*
G37*
G36*
G01*
X152100000Y-74320000D02*
X150400000Y-74320000D01*
G75*
G02*
X150380000Y-74300000I0J20000D01*
G01*
X150380000Y-73000000D01*
G75*
G02*
X150400000Y-72980000I20000J0D01*
G01*
X152100000Y-72980000D01*
G75*
G02*
X152120000Y-73000000I0J-20000D01*
G01*
X152120000Y-74300000D01*
G75*
G02*
X152100000Y-74320000I-20000J0D01*
G01*
G37*
G36*
G01*
X204950000Y-73350000D02*
X203250000Y-73350000D01*
G75*
G02*
X203230000Y-73330000I0J20000D01*
G01*
X203230000Y-72030000D01*
G75*
G02*
X203250000Y-72010000I20000J0D01*
G01*
X204950000Y-72010000D01*
G75*
G02*
X204970000Y-72030000I0J-20000D01*
G01*
X204970000Y-73330000D01*
G75*
G02*
X204950000Y-73350000I-20000J0D01*
G01*
G37*
G36*
G01*
X204950000Y-76850000D02*
X203250000Y-76850000D01*
G75*
G02*
X203230000Y-76830000I0J20000D01*
G01*
X203230000Y-75530000D01*
G75*
G02*
X203250000Y-75510000I20000J0D01*
G01*
X204950000Y-75510000D01*
G75*
G02*
X204970000Y-75530000I0J-20000D01*
G01*
X204970000Y-76830000D01*
G75*
G02*
X204950000Y-76850000I-20000J0D01*
G01*
G37*
D12*
G36*
X139336098Y-127109616D02*
G01*
X139335379Y-127109398D01*
X139315466Y-127109398D01*
X139313505Y-127109302D01*
X139264674Y-127104492D01*
X139262733Y-127104204D01*
X139214608Y-127094632D01*
X139212704Y-127094155D01*
X139165749Y-127079911D01*
X139163902Y-127079250D01*
X139118569Y-127060473D01*
X139116794Y-127059633D01*
X139073521Y-127036502D01*
X139071838Y-127035494D01*
X139031039Y-127008234D01*
X139029462Y-127007064D01*
X138991533Y-126975936D01*
X138990079Y-126974618D01*
X138955382Y-126939921D01*
X138954064Y-126938467D01*
X138922936Y-126900538D01*
X138921766Y-126898961D01*
X138894506Y-126858162D01*
X138893498Y-126856479D01*
X138870367Y-126813206D01*
X138869527Y-126811431D01*
X138850750Y-126766098D01*
X138850089Y-126764251D01*
X138835845Y-126717296D01*
X138835368Y-126715392D01*
X138825796Y-126667267D01*
X138825508Y-126665326D01*
X138820698Y-126616495D01*
X138820602Y-126614534D01*
X138820602Y-126594621D01*
X138820384Y-126593902D01*
X138820000Y-126590000D01*
X138820000Y-126090000D01*
X138820384Y-126086098D01*
X138820602Y-126085379D01*
X138820602Y-126065466D01*
X138820698Y-126063505D01*
X138825508Y-126014674D01*
X138825796Y-126012733D01*
X138835368Y-125964608D01*
X138835845Y-125962704D01*
X138850089Y-125915749D01*
X138850750Y-125913902D01*
X138869527Y-125868569D01*
X138870367Y-125866794D01*
X138893498Y-125823521D01*
X138894506Y-125821838D01*
X138921766Y-125781039D01*
X138922936Y-125779462D01*
X138954064Y-125741533D01*
X138955382Y-125740079D01*
X138990079Y-125705382D01*
X138991533Y-125704064D01*
X139029462Y-125672936D01*
X139031039Y-125671766D01*
X139071838Y-125644506D01*
X139073521Y-125643498D01*
X139116794Y-125620367D01*
X139118569Y-125619527D01*
X139163902Y-125600750D01*
X139165749Y-125600089D01*
X139212704Y-125585845D01*
X139214608Y-125585368D01*
X139262733Y-125575796D01*
X139264674Y-125575508D01*
X139313505Y-125570698D01*
X139315466Y-125570602D01*
X139335379Y-125570602D01*
X139336098Y-125570384D01*
X139340000Y-125570000D01*
X139840000Y-125570000D01*
X139843902Y-125570384D01*
X139847654Y-125571522D01*
X139851111Y-125573371D01*
X139854142Y-125575858D01*
X139856629Y-125578889D01*
X139858478Y-125582346D01*
X139859616Y-125586098D01*
X139860000Y-125590000D01*
X139860000Y-127090000D01*
X139859616Y-127093902D01*
X139858478Y-127097654D01*
X139856629Y-127101111D01*
X139854142Y-127104142D01*
X139851111Y-127106629D01*
X139847654Y-127108478D01*
X139843902Y-127109616D01*
X139840000Y-127110000D01*
X139340000Y-127110000D01*
X139336098Y-127109616D01*
G37*
G36*
X140136098Y-127109616D02*
G01*
X140132346Y-127108478D01*
X140128889Y-127106629D01*
X140125858Y-127104142D01*
X140123371Y-127101111D01*
X140121522Y-127097654D01*
X140120384Y-127093902D01*
X140120000Y-127090000D01*
X140120000Y-125590000D01*
X140120384Y-125586098D01*
X140121522Y-125582346D01*
X140123371Y-125578889D01*
X140125858Y-125575858D01*
X140128889Y-125573371D01*
X140132346Y-125571522D01*
X140136098Y-125570384D01*
X140140000Y-125570000D01*
X140640000Y-125570000D01*
X140643902Y-125570384D01*
X140644621Y-125570602D01*
X140664534Y-125570602D01*
X140666495Y-125570698D01*
X140715326Y-125575508D01*
X140717267Y-125575796D01*
X140765392Y-125585368D01*
X140767296Y-125585845D01*
X140814251Y-125600089D01*
X140816098Y-125600750D01*
X140861431Y-125619527D01*
X140863206Y-125620367D01*
X140906479Y-125643498D01*
X140908162Y-125644506D01*
X140948961Y-125671766D01*
X140950538Y-125672936D01*
X140988467Y-125704064D01*
X140989921Y-125705382D01*
X141024618Y-125740079D01*
X141025936Y-125741533D01*
X141057064Y-125779462D01*
X141058234Y-125781039D01*
X141085494Y-125821838D01*
X141086502Y-125823521D01*
X141109633Y-125866794D01*
X141110473Y-125868569D01*
X141129250Y-125913902D01*
X141129911Y-125915749D01*
X141144155Y-125962704D01*
X141144632Y-125964608D01*
X141154204Y-126012733D01*
X141154492Y-126014674D01*
X141159302Y-126063505D01*
X141159398Y-126065466D01*
X141159398Y-126085379D01*
X141159616Y-126086098D01*
X141160000Y-126090000D01*
X141160000Y-126590000D01*
X141159616Y-126593902D01*
X141159398Y-126594621D01*
X141159398Y-126614534D01*
X141159302Y-126616495D01*
X141154492Y-126665326D01*
X141154204Y-126667267D01*
X141144632Y-126715392D01*
X141144155Y-126717296D01*
X141129911Y-126764251D01*
X141129250Y-126766098D01*
X141110473Y-126811431D01*
X141109633Y-126813206D01*
X141086502Y-126856479D01*
X141085494Y-126858162D01*
X141058234Y-126898961D01*
X141057064Y-126900538D01*
X141025936Y-126938467D01*
X141024618Y-126939921D01*
X140989921Y-126974618D01*
X140988467Y-126975936D01*
X140950538Y-127007064D01*
X140948961Y-127008234D01*
X140908162Y-127035494D01*
X140906479Y-127036502D01*
X140863206Y-127059633D01*
X140861431Y-127060473D01*
X140816098Y-127079250D01*
X140814251Y-127079911D01*
X140767296Y-127094155D01*
X140765392Y-127094632D01*
X140717267Y-127104204D01*
X140715326Y-127104492D01*
X140666495Y-127109302D01*
X140664534Y-127109398D01*
X140644621Y-127109398D01*
X140643902Y-127109616D01*
X140640000Y-127110000D01*
X140140000Y-127110000D01*
X140136098Y-127109616D01*
G37*
G36*
X170693902Y-119900384D02*
G01*
X170694621Y-119900602D01*
X170714534Y-119900602D01*
X170716495Y-119900698D01*
X170765326Y-119905508D01*
X170767267Y-119905796D01*
X170815392Y-119915368D01*
X170817296Y-119915845D01*
X170864251Y-119930089D01*
X170866098Y-119930750D01*
X170911431Y-119949527D01*
X170913206Y-119950367D01*
X170956479Y-119973498D01*
X170958162Y-119974506D01*
X170998961Y-120001766D01*
X171000538Y-120002936D01*
X171038467Y-120034064D01*
X171039921Y-120035382D01*
X171074618Y-120070079D01*
X171075936Y-120071533D01*
X171107064Y-120109462D01*
X171108234Y-120111039D01*
X171135494Y-120151838D01*
X171136502Y-120153521D01*
X171159633Y-120196794D01*
X171160473Y-120198569D01*
X171179250Y-120243902D01*
X171179911Y-120245749D01*
X171194155Y-120292704D01*
X171194632Y-120294608D01*
X171204204Y-120342733D01*
X171204492Y-120344674D01*
X171209302Y-120393505D01*
X171209398Y-120395466D01*
X171209398Y-120415379D01*
X171209616Y-120416098D01*
X171210000Y-120420000D01*
X171210000Y-120920000D01*
X171209616Y-120923902D01*
X171209398Y-120924621D01*
X171209398Y-120944534D01*
X171209302Y-120946495D01*
X171204492Y-120995326D01*
X171204204Y-120997267D01*
X171194632Y-121045392D01*
X171194155Y-121047296D01*
X171179911Y-121094251D01*
X171179250Y-121096098D01*
X171160473Y-121141431D01*
X171159633Y-121143206D01*
X171136502Y-121186479D01*
X171135494Y-121188162D01*
X171108234Y-121228961D01*
X171107064Y-121230538D01*
X171075936Y-121268467D01*
X171074618Y-121269921D01*
X171039921Y-121304618D01*
X171038467Y-121305936D01*
X171000538Y-121337064D01*
X170998961Y-121338234D01*
X170958162Y-121365494D01*
X170956479Y-121366502D01*
X170913206Y-121389633D01*
X170911431Y-121390473D01*
X170866098Y-121409250D01*
X170864251Y-121409911D01*
X170817296Y-121424155D01*
X170815392Y-121424632D01*
X170767267Y-121434204D01*
X170765326Y-121434492D01*
X170716495Y-121439302D01*
X170714534Y-121439398D01*
X170694621Y-121439398D01*
X170693902Y-121439616D01*
X170690000Y-121440000D01*
X170190000Y-121440000D01*
X170186098Y-121439616D01*
X170182346Y-121438478D01*
X170178889Y-121436629D01*
X170175858Y-121434142D01*
X170173371Y-121431111D01*
X170171522Y-121427654D01*
X170170384Y-121423902D01*
X170170000Y-121420000D01*
X170170000Y-119920000D01*
X170170384Y-119916098D01*
X170171522Y-119912346D01*
X170173371Y-119908889D01*
X170175858Y-119905858D01*
X170178889Y-119903371D01*
X170182346Y-119901522D01*
X170186098Y-119900384D01*
X170190000Y-119900000D01*
X170690000Y-119900000D01*
X170693902Y-119900384D01*
G37*
G36*
X169893902Y-119900384D02*
G01*
X169897654Y-119901522D01*
X169901111Y-119903371D01*
X169904142Y-119905858D01*
X169906629Y-119908889D01*
X169908478Y-119912346D01*
X169909616Y-119916098D01*
X169910000Y-119920000D01*
X169910000Y-121420000D01*
X169909616Y-121423902D01*
X169908478Y-121427654D01*
X169906629Y-121431111D01*
X169904142Y-121434142D01*
X169901111Y-121436629D01*
X169897654Y-121438478D01*
X169893902Y-121439616D01*
X169890000Y-121440000D01*
X169390000Y-121440000D01*
X169386098Y-121439616D01*
X169385379Y-121439398D01*
X169365466Y-121439398D01*
X169363505Y-121439302D01*
X169314674Y-121434492D01*
X169312733Y-121434204D01*
X169264608Y-121424632D01*
X169262704Y-121424155D01*
X169215749Y-121409911D01*
X169213902Y-121409250D01*
X169168569Y-121390473D01*
X169166794Y-121389633D01*
X169123521Y-121366502D01*
X169121838Y-121365494D01*
X169081039Y-121338234D01*
X169079462Y-121337064D01*
X169041533Y-121305936D01*
X169040079Y-121304618D01*
X169005382Y-121269921D01*
X169004064Y-121268467D01*
X168972936Y-121230538D01*
X168971766Y-121228961D01*
X168944506Y-121188162D01*
X168943498Y-121186479D01*
X168920367Y-121143206D01*
X168919527Y-121141431D01*
X168900750Y-121096098D01*
X168900089Y-121094251D01*
X168885845Y-121047296D01*
X168885368Y-121045392D01*
X168875796Y-120997267D01*
X168875508Y-120995326D01*
X168870698Y-120946495D01*
X168870602Y-120944534D01*
X168870602Y-120924621D01*
X168870384Y-120923902D01*
X168870000Y-120920000D01*
X168870000Y-120420000D01*
X168870384Y-120416098D01*
X168870602Y-120415379D01*
X168870602Y-120395466D01*
X168870698Y-120393505D01*
X168875508Y-120344674D01*
X168875796Y-120342733D01*
X168885368Y-120294608D01*
X168885845Y-120292704D01*
X168900089Y-120245749D01*
X168900750Y-120243902D01*
X168919527Y-120198569D01*
X168920367Y-120196794D01*
X168943498Y-120153521D01*
X168944506Y-120151838D01*
X168971766Y-120111039D01*
X168972936Y-120109462D01*
X169004064Y-120071533D01*
X169005382Y-120070079D01*
X169040079Y-120035382D01*
X169041533Y-120034064D01*
X169079462Y-120002936D01*
X169081039Y-120001766D01*
X169121838Y-119974506D01*
X169123521Y-119973498D01*
X169166794Y-119950367D01*
X169168569Y-119949527D01*
X169213902Y-119930750D01*
X169215749Y-119930089D01*
X169262704Y-119915845D01*
X169264608Y-119915368D01*
X169312733Y-119905796D01*
X169314674Y-119905508D01*
X169363505Y-119900698D01*
X169365466Y-119900602D01*
X169385379Y-119900602D01*
X169386098Y-119900384D01*
X169390000Y-119900000D01*
X169890000Y-119900000D01*
X169893902Y-119900384D01*
G37*
D13*
X205300000Y-80375000D03*
X205300000Y-124375000D03*
X129300000Y-80375000D03*
X129300000Y-124375000D03*
D14*
X205800000Y-103335000D03*
X205800000Y-100795000D03*
X205800000Y-98255000D03*
X205800000Y-105875000D03*
X124300000Y-85855000D03*
X124300000Y-88395000D03*
X124300000Y-90935000D03*
X124300000Y-93475000D03*
X124300000Y-96015000D03*
X124300000Y-98555000D03*
X124300000Y-101095000D03*
X124300000Y-103635000D03*
X124300000Y-106175000D03*
X124300000Y-108715000D03*
X124300000Y-111255000D03*
X124300000Y-113795000D03*
X124300000Y-116335000D03*
G36*
G01*
X125170000Y-118025000D02*
X125170000Y-119725000D01*
G75*
G02*
X125150000Y-119745000I-20000J0D01*
G01*
X123450000Y-119745000D01*
G75*
G02*
X123430000Y-119725000I0J20000D01*
G01*
X123430000Y-118025000D01*
G75*
G02*
X123450000Y-118005000I20000J0D01*
G01*
X125150000Y-118005000D01*
G75*
G02*
X125170000Y-118025000I0J-20000D01*
G01*
G37*
D10*
X160220000Y-53480000D03*
X164030000Y-53480000D03*
X167840000Y-53480000D03*
G36*
G01*
X172670000Y-52480000D02*
X172670000Y-54480000D01*
G75*
G02*
X172650000Y-54500000I-20000J0D01*
G01*
X170650000Y-54500000D01*
G75*
G02*
X170630000Y-54480000I0J20000D01*
G01*
X170630000Y-52480000D01*
G75*
G02*
X170650000Y-52460000I20000J0D01*
G01*
X172650000Y-52460000D01*
G75*
G02*
X172670000Y-52480000I0J-20000D01*
G01*
G37*
G36*
G01*
X167390000Y-126890000D02*
X168190000Y-126890000D01*
G75*
G02*
X168210000Y-126910000I0J-20000D01*
G01*
X168210000Y-127810000D01*
G75*
G02*
X168190000Y-127830000I-20000J0D01*
G01*
X167390000Y-127830000D01*
G75*
G02*
X167370000Y-127810000I0J20000D01*
G01*
X167370000Y-126910000D01*
G75*
G02*
X167390000Y-126890000I20000J0D01*
G01*
G37*
G36*
G01*
X166440000Y-124890000D02*
X167240000Y-124890000D01*
G75*
G02*
X167260000Y-124910000I0J-20000D01*
G01*
X167260000Y-125810000D01*
G75*
G02*
X167240000Y-125830000I-20000J0D01*
G01*
X166440000Y-125830000D01*
G75*
G02*
X166420000Y-125810000I0J20000D01*
G01*
X166420000Y-124910000D01*
G75*
G02*
X166440000Y-124890000I20000J0D01*
G01*
G37*
G36*
G01*
X168340000Y-124890000D02*
X169140000Y-124890000D01*
G75*
G02*
X169160000Y-124910000I0J-20000D01*
G01*
X169160000Y-125810000D01*
G75*
G02*
X169140000Y-125830000I-20000J0D01*
G01*
X168340000Y-125830000D01*
G75*
G02*
X168320000Y-125810000I0J20000D01*
G01*
X168320000Y-124910000D01*
G75*
G02*
X168340000Y-124890000I20000J0D01*
G01*
G37*
G36*
G01*
X165570000Y-116785000D02*
X165570000Y-116465000D01*
G75*
G02*
X165730000Y-116305000I160000J0D01*
G01*
X167400000Y-116305000D01*
G75*
G02*
X167560000Y-116465000I0J-160000D01*
G01*
X167560000Y-116785000D01*
G75*
G02*
X167400000Y-116945000I-160000J0D01*
G01*
X165730000Y-116945000D01*
G75*
G02*
X165570000Y-116785000I0J160000D01*
G01*
G37*
G36*
G01*
X165570000Y-118055000D02*
X165570000Y-117735000D01*
G75*
G02*
X165730000Y-117575000I160000J0D01*
G01*
X167400000Y-117575000D01*
G75*
G02*
X167560000Y-117735000I0J-160000D01*
G01*
X167560000Y-118055000D01*
G75*
G02*
X167400000Y-118215000I-160000J0D01*
G01*
X165730000Y-118215000D01*
G75*
G02*
X165570000Y-118055000I0J160000D01*
G01*
G37*
G36*
G01*
X165570000Y-119325000D02*
X165570000Y-119005000D01*
G75*
G02*
X165730000Y-118845000I160000J0D01*
G01*
X167400000Y-118845000D01*
G75*
G02*
X167560000Y-119005000I0J-160000D01*
G01*
X167560000Y-119325000D01*
G75*
G02*
X167400000Y-119485000I-160000J0D01*
G01*
X165730000Y-119485000D01*
G75*
G02*
X165570000Y-119325000I0J160000D01*
G01*
G37*
G36*
G01*
X165570000Y-120595000D02*
X165570000Y-120275000D01*
G75*
G02*
X165730000Y-120115000I160000J0D01*
G01*
X167400000Y-120115000D01*
G75*
G02*
X167560000Y-120275000I0J-160000D01*
G01*
X167560000Y-120595000D01*
G75*
G02*
X167400000Y-120755000I-160000J0D01*
G01*
X165730000Y-120755000D01*
G75*
G02*
X165570000Y-120595000I0J160000D01*
G01*
G37*
G36*
G01*
X160620000Y-120595000D02*
X160620000Y-120275000D01*
G75*
G02*
X160780000Y-120115000I160000J0D01*
G01*
X162450000Y-120115000D01*
G75*
G02*
X162610000Y-120275000I0J-160000D01*
G01*
X162610000Y-120595000D01*
G75*
G02*
X162450000Y-120755000I-160000J0D01*
G01*
X160780000Y-120755000D01*
G75*
G02*
X160620000Y-120595000I0J160000D01*
G01*
G37*
G36*
G01*
X160620000Y-119325000D02*
X160620000Y-119005000D01*
G75*
G02*
X160780000Y-118845000I160000J0D01*
G01*
X162450000Y-118845000D01*
G75*
G02*
X162610000Y-119005000I0J-160000D01*
G01*
X162610000Y-119325000D01*
G75*
G02*
X162450000Y-119485000I-160000J0D01*
G01*
X160780000Y-119485000D01*
G75*
G02*
X160620000Y-119325000I0J160000D01*
G01*
G37*
G36*
G01*
X160620000Y-118055000D02*
X160620000Y-117735000D01*
G75*
G02*
X160780000Y-117575000I160000J0D01*
G01*
X162450000Y-117575000D01*
G75*
G02*
X162610000Y-117735000I0J-160000D01*
G01*
X162610000Y-118055000D01*
G75*
G02*
X162450000Y-118215000I-160000J0D01*
G01*
X160780000Y-118215000D01*
G75*
G02*
X160620000Y-118055000I0J160000D01*
G01*
G37*
G36*
G01*
X160620000Y-116785000D02*
X160620000Y-116465000D01*
G75*
G02*
X160780000Y-116305000I160000J0D01*
G01*
X162450000Y-116305000D01*
G75*
G02*
X162610000Y-116465000I0J-160000D01*
G01*
X162610000Y-116785000D01*
G75*
G02*
X162450000Y-116945000I-160000J0D01*
G01*
X160780000Y-116945000D01*
G75*
G02*
X160620000Y-116785000I0J160000D01*
G01*
G37*
D12*
G36*
X166603902Y-112340384D02*
G01*
X166607654Y-112341522D01*
X166611111Y-112343371D01*
X166614142Y-112345858D01*
X166616629Y-112348889D01*
X166618478Y-112352346D01*
X166619616Y-112356098D01*
X166620000Y-112360000D01*
X166620000Y-113860000D01*
X166619616Y-113863902D01*
X166618478Y-113867654D01*
X166616629Y-113871111D01*
X166614142Y-113874142D01*
X166611111Y-113876629D01*
X166607654Y-113878478D01*
X166603902Y-113879616D01*
X166600000Y-113880000D01*
X166050000Y-113880000D01*
X166046098Y-113879616D01*
X166045379Y-113879398D01*
X166025466Y-113879398D01*
X166023505Y-113879302D01*
X165974674Y-113874492D01*
X165972733Y-113874204D01*
X165924608Y-113864632D01*
X165922704Y-113864155D01*
X165875749Y-113849911D01*
X165873902Y-113849250D01*
X165828569Y-113830473D01*
X165826794Y-113829633D01*
X165783521Y-113806502D01*
X165781838Y-113805494D01*
X165741039Y-113778234D01*
X165739462Y-113777064D01*
X165701533Y-113745936D01*
X165700079Y-113744618D01*
X165665382Y-113709921D01*
X165664064Y-113708467D01*
X165632936Y-113670538D01*
X165631766Y-113668961D01*
X165604506Y-113628162D01*
X165603498Y-113626479D01*
X165580367Y-113583206D01*
X165579527Y-113581431D01*
X165560750Y-113536098D01*
X165560089Y-113534251D01*
X165545845Y-113487296D01*
X165545368Y-113485392D01*
X165535796Y-113437267D01*
X165535508Y-113435326D01*
X165530698Y-113386495D01*
X165530602Y-113384534D01*
X165530602Y-113364621D01*
X165530384Y-113363902D01*
X165530000Y-113360000D01*
X165530000Y-112860000D01*
X165530384Y-112856098D01*
X165530602Y-112855379D01*
X165530602Y-112835466D01*
X165530698Y-112833505D01*
X165535508Y-112784674D01*
X165535796Y-112782733D01*
X165545368Y-112734608D01*
X165545845Y-112732704D01*
X165560089Y-112685749D01*
X165560750Y-112683902D01*
X165579527Y-112638569D01*
X165580367Y-112636794D01*
X165603498Y-112593521D01*
X165604506Y-112591838D01*
X165631766Y-112551039D01*
X165632936Y-112549462D01*
X165664064Y-112511533D01*
X165665382Y-112510079D01*
X165700079Y-112475382D01*
X165701533Y-112474064D01*
X165739462Y-112442936D01*
X165741039Y-112441766D01*
X165781838Y-112414506D01*
X165783521Y-112413498D01*
X165826794Y-112390367D01*
X165828569Y-112389527D01*
X165873902Y-112370750D01*
X165875749Y-112370089D01*
X165922704Y-112355845D01*
X165924608Y-112355368D01*
X165972733Y-112345796D01*
X165974674Y-112345508D01*
X166023505Y-112340698D01*
X166025466Y-112340602D01*
X166045379Y-112340602D01*
X166046098Y-112340384D01*
X166050000Y-112340000D01*
X166600000Y-112340000D01*
X166603902Y-112340384D01*
G37*
G36*
G01*
X166830000Y-113860000D02*
X166830000Y-112360000D01*
G75*
G02*
X166850000Y-112340000I20000J0D01*
G01*
X167850000Y-112340000D01*
G75*
G02*
X167870000Y-112360000I0J-20000D01*
G01*
X167870000Y-113860000D01*
G75*
G02*
X167850000Y-113880000I-20000J0D01*
G01*
X166850000Y-113880000D01*
G75*
G02*
X166830000Y-113860000I0J20000D01*
G01*
G37*
G36*
X168653902Y-112340384D02*
G01*
X168654621Y-112340602D01*
X168674534Y-112340602D01*
X168676495Y-112340698D01*
X168725326Y-112345508D01*
X168727267Y-112345796D01*
X168775392Y-112355368D01*
X168777296Y-112355845D01*
X168824251Y-112370089D01*
X168826098Y-112370750D01*
X168871431Y-112389527D01*
X168873206Y-112390367D01*
X168916479Y-112413498D01*
X168918162Y-112414506D01*
X168958961Y-112441766D01*
X168960538Y-112442936D01*
X168998467Y-112474064D01*
X168999921Y-112475382D01*
X169034618Y-112510079D01*
X169035936Y-112511533D01*
X169067064Y-112549462D01*
X169068234Y-112551039D01*
X169095494Y-112591838D01*
X169096502Y-112593521D01*
X169119633Y-112636794D01*
X169120473Y-112638569D01*
X169139250Y-112683902D01*
X169139911Y-112685749D01*
X169154155Y-112732704D01*
X169154632Y-112734608D01*
X169164204Y-112782733D01*
X169164492Y-112784674D01*
X169169302Y-112833505D01*
X169169398Y-112835466D01*
X169169398Y-112855379D01*
X169169616Y-112856098D01*
X169170000Y-112860000D01*
X169170000Y-113360000D01*
X169169616Y-113363902D01*
X169169398Y-113364621D01*
X169169398Y-113384534D01*
X169169302Y-113386495D01*
X169164492Y-113435326D01*
X169164204Y-113437267D01*
X169154632Y-113485392D01*
X169154155Y-113487296D01*
X169139911Y-113534251D01*
X169139250Y-113536098D01*
X169120473Y-113581431D01*
X169119633Y-113583206D01*
X169096502Y-113626479D01*
X169095494Y-113628162D01*
X169068234Y-113668961D01*
X169067064Y-113670538D01*
X169035936Y-113708467D01*
X169034618Y-113709921D01*
X168999921Y-113744618D01*
X168998467Y-113745936D01*
X168960538Y-113777064D01*
X168958961Y-113778234D01*
X168918162Y-113805494D01*
X168916479Y-113806502D01*
X168873206Y-113829633D01*
X168871431Y-113830473D01*
X168826098Y-113849250D01*
X168824251Y-113849911D01*
X168777296Y-113864155D01*
X168775392Y-113864632D01*
X168727267Y-113874204D01*
X168725326Y-113874492D01*
X168676495Y-113879302D01*
X168674534Y-113879398D01*
X168654621Y-113879398D01*
X168653902Y-113879616D01*
X168650000Y-113880000D01*
X168100000Y-113880000D01*
X168096098Y-113879616D01*
X168092346Y-113878478D01*
X168088889Y-113876629D01*
X168085858Y-113874142D01*
X168083371Y-113871111D01*
X168081522Y-113867654D01*
X168080384Y-113863902D01*
X168080000Y-113860000D01*
X168080000Y-112360000D01*
X168080384Y-112356098D01*
X168081522Y-112352346D01*
X168083371Y-112348889D01*
X168085858Y-112345858D01*
X168088889Y-112343371D01*
X168092346Y-112341522D01*
X168096098Y-112340384D01*
X168100000Y-112340000D01*
X168650000Y-112340000D01*
X168653902Y-112340384D01*
G37*
D10*
X105800000Y-53530000D03*
X109610000Y-53530000D03*
X113420000Y-53530000D03*
G36*
G01*
X118250000Y-52530000D02*
X118250000Y-54530000D01*
G75*
G02*
X118230000Y-54550000I-20000J0D01*
G01*
X116230000Y-54550000D01*
G75*
G02*
X116210000Y-54530000I0J20000D01*
G01*
X116210000Y-52530000D01*
G75*
G02*
X116230000Y-52510000I20000J0D01*
G01*
X118230000Y-52510000D01*
G75*
G02*
X118250000Y-52530000I0J-20000D01*
G01*
G37*
G36*
G01*
X112230000Y-60110000D02*
X112230000Y-59470000D01*
G75*
G02*
X112250000Y-59450000I20000J0D01*
G01*
X114250000Y-59450000D01*
G75*
G02*
X114270000Y-59470000I0J-20000D01*
G01*
X114270000Y-60110000D01*
G75*
G02*
X114250000Y-60130000I-20000J0D01*
G01*
X112250000Y-60130000D01*
G75*
G02*
X112230000Y-60110000I0J20000D01*
G01*
G37*
G36*
G01*
X112230000Y-62650000D02*
X112230000Y-62010000D01*
G75*
G02*
X112250000Y-61990000I20000J0D01*
G01*
X114250000Y-61990000D01*
G75*
G02*
X114270000Y-62010000I0J-20000D01*
G01*
X114270000Y-62650000D01*
G75*
G02*
X114250000Y-62670000I-20000J0D01*
G01*
X112250000Y-62670000D01*
G75*
G02*
X112230000Y-62650000I0J20000D01*
G01*
G37*
G36*
G01*
X105930000Y-62650000D02*
X105930000Y-62010000D01*
G75*
G02*
X105950000Y-61990000I20000J0D01*
G01*
X107950000Y-61990000D01*
G75*
G02*
X107970000Y-62010000I0J-20000D01*
G01*
X107970000Y-62650000D01*
G75*
G02*
X107950000Y-62670000I-20000J0D01*
G01*
X105950000Y-62670000D01*
G75*
G02*
X105930000Y-62650000I0J20000D01*
G01*
G37*
G36*
G01*
X105930000Y-60110000D02*
X105930000Y-59470000D01*
G75*
G02*
X105950000Y-59450000I20000J0D01*
G01*
X107950000Y-59450000D01*
G75*
G02*
X107970000Y-59470000I0J-20000D01*
G01*
X107970000Y-60110000D01*
G75*
G02*
X107950000Y-60130000I-20000J0D01*
G01*
X105950000Y-60130000D01*
G75*
G02*
X105930000Y-60110000I0J20000D01*
G01*
G37*
G36*
G01*
X107720000Y-65620245D02*
X107720000Y-64699755D01*
G75*
G02*
X107979755Y-64440000I259755J0D01*
G01*
X108525245Y-64440000D01*
G75*
G02*
X108785000Y-64699755I0J-259755D01*
G01*
X108785000Y-65620245D01*
G75*
G02*
X108525245Y-65880000I-259755J0D01*
G01*
X107979755Y-65880000D01*
G75*
G02*
X107720000Y-65620245I0J259755D01*
G01*
G37*
G36*
G01*
X105895000Y-65620245D02*
X105895000Y-64699755D01*
G75*
G02*
X106154755Y-64440000I259755J0D01*
G01*
X106700245Y-64440000D01*
G75*
G02*
X106960000Y-64699755I0J-259755D01*
G01*
X106960000Y-65620245D01*
G75*
G02*
X106700245Y-65880000I-259755J0D01*
G01*
X106154755Y-65880000D01*
G75*
G02*
X105895000Y-65620245I0J259755D01*
G01*
G37*
G36*
G01*
X178408500Y-86095080D02*
X178408500Y-85775080D01*
G75*
G02*
X178568500Y-85615080I160000J0D01*
G01*
X180238500Y-85615080D01*
G75*
G02*
X180398500Y-85775080I0J-160000D01*
G01*
X180398500Y-86095080D01*
G75*
G02*
X180238500Y-86255080I-160000J0D01*
G01*
X178568500Y-86255080D01*
G75*
G02*
X178408500Y-86095080I0J160000D01*
G01*
G37*
G36*
G01*
X178408500Y-87365080D02*
X178408500Y-87045080D01*
G75*
G02*
X178568500Y-86885080I160000J0D01*
G01*
X180238500Y-86885080D01*
G75*
G02*
X180398500Y-87045080I0J-160000D01*
G01*
X180398500Y-87365080D01*
G75*
G02*
X180238500Y-87525080I-160000J0D01*
G01*
X178568500Y-87525080D01*
G75*
G02*
X178408500Y-87365080I0J160000D01*
G01*
G37*
G36*
G01*
X178408500Y-88635080D02*
X178408500Y-88315080D01*
G75*
G02*
X178568500Y-88155080I160000J0D01*
G01*
X180238500Y-88155080D01*
G75*
G02*
X180398500Y-88315080I0J-160000D01*
G01*
X180398500Y-88635080D01*
G75*
G02*
X180238500Y-88795080I-160000J0D01*
G01*
X178568500Y-88795080D01*
G75*
G02*
X178408500Y-88635080I0J160000D01*
G01*
G37*
G36*
G01*
X178408500Y-89905080D02*
X178408500Y-89585080D01*
G75*
G02*
X178568500Y-89425080I160000J0D01*
G01*
X180238500Y-89425080D01*
G75*
G02*
X180398500Y-89585080I0J-160000D01*
G01*
X180398500Y-89905080D01*
G75*
G02*
X180238500Y-90065080I-160000J0D01*
G01*
X178568500Y-90065080D01*
G75*
G02*
X178408500Y-89905080I0J160000D01*
G01*
G37*
G36*
G01*
X178408500Y-91175080D02*
X178408500Y-90855080D01*
G75*
G02*
X178568500Y-90695080I160000J0D01*
G01*
X180238500Y-90695080D01*
G75*
G02*
X180398500Y-90855080I0J-160000D01*
G01*
X180398500Y-91175080D01*
G75*
G02*
X180238500Y-91335080I-160000J0D01*
G01*
X178568500Y-91335080D01*
G75*
G02*
X178408500Y-91175080I0J160000D01*
G01*
G37*
G36*
G01*
X178408500Y-92445080D02*
X178408500Y-92125080D01*
G75*
G02*
X178568500Y-91965080I160000J0D01*
G01*
X180238500Y-91965080D01*
G75*
G02*
X180398500Y-92125080I0J-160000D01*
G01*
X180398500Y-92445080D01*
G75*
G02*
X180238500Y-92605080I-160000J0D01*
G01*
X178568500Y-92605080D01*
G75*
G02*
X178408500Y-92445080I0J160000D01*
G01*
G37*
G36*
G01*
X178408500Y-93715080D02*
X178408500Y-93395080D01*
G75*
G02*
X178568500Y-93235080I160000J0D01*
G01*
X180238500Y-93235080D01*
G75*
G02*
X180398500Y-93395080I0J-160000D01*
G01*
X180398500Y-93715080D01*
G75*
G02*
X180238500Y-93875080I-160000J0D01*
G01*
X178568500Y-93875080D01*
G75*
G02*
X178408500Y-93715080I0J160000D01*
G01*
G37*
G36*
G01*
X173458500Y-93715080D02*
X173458500Y-93395080D01*
G75*
G02*
X173618500Y-93235080I160000J0D01*
G01*
X175288500Y-93235080D01*
G75*
G02*
X175448500Y-93395080I0J-160000D01*
G01*
X175448500Y-93715080D01*
G75*
G02*
X175288500Y-93875080I-160000J0D01*
G01*
X173618500Y-93875080D01*
G75*
G02*
X173458500Y-93715080I0J160000D01*
G01*
G37*
G36*
G01*
X173458500Y-92445080D02*
X173458500Y-92125080D01*
G75*
G02*
X173618500Y-91965080I160000J0D01*
G01*
X175288500Y-91965080D01*
G75*
G02*
X175448500Y-92125080I0J-160000D01*
G01*
X175448500Y-92445080D01*
G75*
G02*
X175288500Y-92605080I-160000J0D01*
G01*
X173618500Y-92605080D01*
G75*
G02*
X173458500Y-92445080I0J160000D01*
G01*
G37*
G36*
G01*
X173458500Y-91175080D02*
X173458500Y-90855080D01*
G75*
G02*
X173618500Y-90695080I160000J0D01*
G01*
X175288500Y-90695080D01*
G75*
G02*
X175448500Y-90855080I0J-160000D01*
G01*
X175448500Y-91175080D01*
G75*
G02*
X175288500Y-91335080I-160000J0D01*
G01*
X173618500Y-91335080D01*
G75*
G02*
X173458500Y-91175080I0J160000D01*
G01*
G37*
G36*
G01*
X173458500Y-89905080D02*
X173458500Y-89585080D01*
G75*
G02*
X173618500Y-89425080I160000J0D01*
G01*
X175288500Y-89425080D01*
G75*
G02*
X175448500Y-89585080I0J-160000D01*
G01*
X175448500Y-89905080D01*
G75*
G02*
X175288500Y-90065080I-160000J0D01*
G01*
X173618500Y-90065080D01*
G75*
G02*
X173458500Y-89905080I0J160000D01*
G01*
G37*
G36*
G01*
X173458500Y-88635080D02*
X173458500Y-88315080D01*
G75*
G02*
X173618500Y-88155080I160000J0D01*
G01*
X175288500Y-88155080D01*
G75*
G02*
X175448500Y-88315080I0J-160000D01*
G01*
X175448500Y-88635080D01*
G75*
G02*
X175288500Y-88795080I-160000J0D01*
G01*
X173618500Y-88795080D01*
G75*
G02*
X173458500Y-88635080I0J160000D01*
G01*
G37*
G36*
G01*
X173458500Y-87365080D02*
X173458500Y-87045080D01*
G75*
G02*
X173618500Y-86885080I160000J0D01*
G01*
X175288500Y-86885080D01*
G75*
G02*
X175448500Y-87045080I0J-160000D01*
G01*
X175448500Y-87365080D01*
G75*
G02*
X175288500Y-87525080I-160000J0D01*
G01*
X173618500Y-87525080D01*
G75*
G02*
X173458500Y-87365080I0J160000D01*
G01*
G37*
G36*
G01*
X173458500Y-86095080D02*
X173458500Y-85775080D01*
G75*
G02*
X173618500Y-85615080I160000J0D01*
G01*
X175288500Y-85615080D01*
G75*
G02*
X175448500Y-85775080I0J-160000D01*
G01*
X175448500Y-86095080D01*
G75*
G02*
X175288500Y-86255080I-160000J0D01*
G01*
X173618500Y-86255080D01*
G75*
G02*
X173458500Y-86095080I0J160000D01*
G01*
G37*
G36*
G01*
X125135000Y-60135000D02*
X125135000Y-59495000D01*
G75*
G02*
X125155000Y-59475000I20000J0D01*
G01*
X127155000Y-59475000D01*
G75*
G02*
X127175000Y-59495000I0J-20000D01*
G01*
X127175000Y-60135000D01*
G75*
G02*
X127155000Y-60155000I-20000J0D01*
G01*
X125155000Y-60155000D01*
G75*
G02*
X125135000Y-60135000I0J20000D01*
G01*
G37*
G36*
G01*
X125135000Y-62675000D02*
X125135000Y-62035000D01*
G75*
G02*
X125155000Y-62015000I20000J0D01*
G01*
X127155000Y-62015000D01*
G75*
G02*
X127175000Y-62035000I0J-20000D01*
G01*
X127175000Y-62675000D01*
G75*
G02*
X127155000Y-62695000I-20000J0D01*
G01*
X125155000Y-62695000D01*
G75*
G02*
X125135000Y-62675000I0J20000D01*
G01*
G37*
G36*
G01*
X118835000Y-62675000D02*
X118835000Y-62035000D01*
G75*
G02*
X118855000Y-62015000I20000J0D01*
G01*
X120855000Y-62015000D01*
G75*
G02*
X120875000Y-62035000I0J-20000D01*
G01*
X120875000Y-62675000D01*
G75*
G02*
X120855000Y-62695000I-20000J0D01*
G01*
X118855000Y-62695000D01*
G75*
G02*
X118835000Y-62675000I0J20000D01*
G01*
G37*
G36*
G01*
X118835000Y-60135000D02*
X118835000Y-59495000D01*
G75*
G02*
X118855000Y-59475000I20000J0D01*
G01*
X120855000Y-59475000D01*
G75*
G02*
X120875000Y-59495000I0J-20000D01*
G01*
X120875000Y-60135000D01*
G75*
G02*
X120855000Y-60155000I-20000J0D01*
G01*
X118855000Y-60155000D01*
G75*
G02*
X118835000Y-60135000I0J20000D01*
G01*
G37*
G36*
G01*
X117849600Y-122466800D02*
X117849600Y-122246800D01*
G75*
G02*
X117959600Y-122136800I110000J0D01*
G01*
X119254600Y-122136800D01*
G75*
G02*
X119364600Y-122246800I0J-110000D01*
G01*
X119364600Y-122466800D01*
G75*
G02*
X119254600Y-122576800I-110000J0D01*
G01*
X117959600Y-122576800D01*
G75*
G02*
X117849600Y-122466800I0J110000D01*
G01*
G37*
G36*
G01*
X117849600Y-123116800D02*
X117849600Y-122896800D01*
G75*
G02*
X117959600Y-122786800I110000J0D01*
G01*
X119254600Y-122786800D01*
G75*
G02*
X119364600Y-122896800I0J-110000D01*
G01*
X119364600Y-123116800D01*
G75*
G02*
X119254600Y-123226800I-110000J0D01*
G01*
X117959600Y-123226800D01*
G75*
G02*
X117849600Y-123116800I0J110000D01*
G01*
G37*
G36*
G01*
X117849600Y-123766800D02*
X117849600Y-123546800D01*
G75*
G02*
X117959600Y-123436800I110000J0D01*
G01*
X119254600Y-123436800D01*
G75*
G02*
X119364600Y-123546800I0J-110000D01*
G01*
X119364600Y-123766800D01*
G75*
G02*
X119254600Y-123876800I-110000J0D01*
G01*
X117959600Y-123876800D01*
G75*
G02*
X117849600Y-123766800I0J110000D01*
G01*
G37*
G36*
G01*
X117849600Y-124416800D02*
X117849600Y-124196800D01*
G75*
G02*
X117959600Y-124086800I110000J0D01*
G01*
X119254600Y-124086800D01*
G75*
G02*
X119364600Y-124196800I0J-110000D01*
G01*
X119364600Y-124416800D01*
G75*
G02*
X119254600Y-124526800I-110000J0D01*
G01*
X117959600Y-124526800D01*
G75*
G02*
X117849600Y-124416800I0J110000D01*
G01*
G37*
G36*
G01*
X117849600Y-125066800D02*
X117849600Y-124846800D01*
G75*
G02*
X117959600Y-124736800I110000J0D01*
G01*
X119254600Y-124736800D01*
G75*
G02*
X119364600Y-124846800I0J-110000D01*
G01*
X119364600Y-125066800D01*
G75*
G02*
X119254600Y-125176800I-110000J0D01*
G01*
X117959600Y-125176800D01*
G75*
G02*
X117849600Y-125066800I0J110000D01*
G01*
G37*
G36*
G01*
X117849600Y-125716800D02*
X117849600Y-125496800D01*
G75*
G02*
X117959600Y-125386800I110000J0D01*
G01*
X119254600Y-125386800D01*
G75*
G02*
X119364600Y-125496800I0J-110000D01*
G01*
X119364600Y-125716800D01*
G75*
G02*
X119254600Y-125826800I-110000J0D01*
G01*
X117959600Y-125826800D01*
G75*
G02*
X117849600Y-125716800I0J110000D01*
G01*
G37*
G36*
G01*
X117849600Y-126366800D02*
X117849600Y-126146800D01*
G75*
G02*
X117959600Y-126036800I110000J0D01*
G01*
X119254600Y-126036800D01*
G75*
G02*
X119364600Y-126146800I0J-110000D01*
G01*
X119364600Y-126366800D01*
G75*
G02*
X119254600Y-126476800I-110000J0D01*
G01*
X117959600Y-126476800D01*
G75*
G02*
X117849600Y-126366800I0J110000D01*
G01*
G37*
G36*
G01*
X117849600Y-127016800D02*
X117849600Y-126796800D01*
G75*
G02*
X117959600Y-126686800I110000J0D01*
G01*
X119254600Y-126686800D01*
G75*
G02*
X119364600Y-126796800I0J-110000D01*
G01*
X119364600Y-127016800D01*
G75*
G02*
X119254600Y-127126800I-110000J0D01*
G01*
X117959600Y-127126800D01*
G75*
G02*
X117849600Y-127016800I0J110000D01*
G01*
G37*
G36*
G01*
X112124600Y-127016800D02*
X112124600Y-126796800D01*
G75*
G02*
X112234600Y-126686800I110000J0D01*
G01*
X113529600Y-126686800D01*
G75*
G02*
X113639600Y-126796800I0J-110000D01*
G01*
X113639600Y-127016800D01*
G75*
G02*
X113529600Y-127126800I-110000J0D01*
G01*
X112234600Y-127126800D01*
G75*
G02*
X112124600Y-127016800I0J110000D01*
G01*
G37*
G36*
G01*
X112124600Y-126366800D02*
X112124600Y-126146800D01*
G75*
G02*
X112234600Y-126036800I110000J0D01*
G01*
X113529600Y-126036800D01*
G75*
G02*
X113639600Y-126146800I0J-110000D01*
G01*
X113639600Y-126366800D01*
G75*
G02*
X113529600Y-126476800I-110000J0D01*
G01*
X112234600Y-126476800D01*
G75*
G02*
X112124600Y-126366800I0J110000D01*
G01*
G37*
G36*
G01*
X112124600Y-125716800D02*
X112124600Y-125496800D01*
G75*
G02*
X112234600Y-125386800I110000J0D01*
G01*
X113529600Y-125386800D01*
G75*
G02*
X113639600Y-125496800I0J-110000D01*
G01*
X113639600Y-125716800D01*
G75*
G02*
X113529600Y-125826800I-110000J0D01*
G01*
X112234600Y-125826800D01*
G75*
G02*
X112124600Y-125716800I0J110000D01*
G01*
G37*
G36*
G01*
X112124600Y-125066800D02*
X112124600Y-124846800D01*
G75*
G02*
X112234600Y-124736800I110000J0D01*
G01*
X113529600Y-124736800D01*
G75*
G02*
X113639600Y-124846800I0J-110000D01*
G01*
X113639600Y-125066800D01*
G75*
G02*
X113529600Y-125176800I-110000J0D01*
G01*
X112234600Y-125176800D01*
G75*
G02*
X112124600Y-125066800I0J110000D01*
G01*
G37*
G36*
G01*
X112124600Y-124416800D02*
X112124600Y-124196800D01*
G75*
G02*
X112234600Y-124086800I110000J0D01*
G01*
X113529600Y-124086800D01*
G75*
G02*
X113639600Y-124196800I0J-110000D01*
G01*
X113639600Y-124416800D01*
G75*
G02*
X113529600Y-124526800I-110000J0D01*
G01*
X112234600Y-124526800D01*
G75*
G02*
X112124600Y-124416800I0J110000D01*
G01*
G37*
G36*
G01*
X112124600Y-123766800D02*
X112124600Y-123546800D01*
G75*
G02*
X112234600Y-123436800I110000J0D01*
G01*
X113529600Y-123436800D01*
G75*
G02*
X113639600Y-123546800I0J-110000D01*
G01*
X113639600Y-123766800D01*
G75*
G02*
X113529600Y-123876800I-110000J0D01*
G01*
X112234600Y-123876800D01*
G75*
G02*
X112124600Y-123766800I0J110000D01*
G01*
G37*
G36*
G01*
X112124600Y-123116800D02*
X112124600Y-122896800D01*
G75*
G02*
X112234600Y-122786800I110000J0D01*
G01*
X113529600Y-122786800D01*
G75*
G02*
X113639600Y-122896800I0J-110000D01*
G01*
X113639600Y-123116800D01*
G75*
G02*
X113529600Y-123226800I-110000J0D01*
G01*
X112234600Y-123226800D01*
G75*
G02*
X112124600Y-123116800I0J110000D01*
G01*
G37*
G36*
G01*
X112124600Y-122466800D02*
X112124600Y-122246800D01*
G75*
G02*
X112234600Y-122136800I110000J0D01*
G01*
X113529600Y-122136800D01*
G75*
G02*
X113639600Y-122246800I0J-110000D01*
G01*
X113639600Y-122466800D01*
G75*
G02*
X113529600Y-122576800I-110000J0D01*
G01*
X112234600Y-122576800D01*
G75*
G02*
X112124600Y-122466800I0J110000D01*
G01*
G37*
G36*
G01*
X172259000Y-72125800D02*
X172259000Y-70625800D01*
G75*
G02*
X172279000Y-70605800I20000J0D01*
G01*
X174279000Y-70605800D01*
G75*
G02*
X174299000Y-70625800I0J-20000D01*
G01*
X174299000Y-72125800D01*
G75*
G02*
X174279000Y-72145800I-20000J0D01*
G01*
X172279000Y-72145800D01*
G75*
G02*
X172259000Y-72125800I0J20000D01*
G01*
G37*
G36*
G01*
X172259000Y-76725800D02*
X172259000Y-75225800D01*
G75*
G02*
X172279000Y-75205800I20000J0D01*
G01*
X174279000Y-75205800D01*
G75*
G02*
X174299000Y-75225800I0J-20000D01*
G01*
X174299000Y-76725800D01*
G75*
G02*
X174279000Y-76745800I-20000J0D01*
G01*
X172279000Y-76745800D01*
G75*
G02*
X172259000Y-76725800I0J20000D01*
G01*
G37*
G36*
G01*
X172259000Y-74425800D02*
X172259000Y-72925800D01*
G75*
G02*
X172279000Y-72905800I20000J0D01*
G01*
X174279000Y-72905800D01*
G75*
G02*
X174299000Y-72925800I0J-20000D01*
G01*
X174299000Y-74425800D01*
G75*
G02*
X174279000Y-74445800I-20000J0D01*
G01*
X172279000Y-74445800D01*
G75*
G02*
X172259000Y-74425800I0J20000D01*
G01*
G37*
G36*
G01*
X178559000Y-75575800D02*
X178559000Y-71775800D01*
G75*
G02*
X178579000Y-71755800I20000J0D01*
G01*
X180579000Y-71755800D01*
G75*
G02*
X180599000Y-71775800I0J-20000D01*
G01*
X180599000Y-75575800D01*
G75*
G02*
X180579000Y-75595800I-20000J0D01*
G01*
X178579000Y-75595800D01*
G75*
G02*
X178559000Y-75575800I0J20000D01*
G01*
G37*
G36*
G01*
X139814980Y-120005800D02*
X139814980Y-119685800D01*
G75*
G02*
X139974980Y-119525800I160000J0D01*
G01*
X141644980Y-119525800D01*
G75*
G02*
X141804980Y-119685800I0J-160000D01*
G01*
X141804980Y-120005800D01*
G75*
G02*
X141644980Y-120165800I-160000J0D01*
G01*
X139974980Y-120165800D01*
G75*
G02*
X139814980Y-120005800I0J160000D01*
G01*
G37*
G36*
G01*
X139814980Y-121275800D02*
X139814980Y-120955800D01*
G75*
G02*
X139974980Y-120795800I160000J0D01*
G01*
X141644980Y-120795800D01*
G75*
G02*
X141804980Y-120955800I0J-160000D01*
G01*
X141804980Y-121275800D01*
G75*
G02*
X141644980Y-121435800I-160000J0D01*
G01*
X139974980Y-121435800D01*
G75*
G02*
X139814980Y-121275800I0J160000D01*
G01*
G37*
G36*
G01*
X139814980Y-122545800D02*
X139814980Y-122225800D01*
G75*
G02*
X139974980Y-122065800I160000J0D01*
G01*
X141644980Y-122065800D01*
G75*
G02*
X141804980Y-122225800I0J-160000D01*
G01*
X141804980Y-122545800D01*
G75*
G02*
X141644980Y-122705800I-160000J0D01*
G01*
X139974980Y-122705800D01*
G75*
G02*
X139814980Y-122545800I0J160000D01*
G01*
G37*
G36*
G01*
X139814980Y-123815800D02*
X139814980Y-123495800D01*
G75*
G02*
X139974980Y-123335800I160000J0D01*
G01*
X141644980Y-123335800D01*
G75*
G02*
X141804980Y-123495800I0J-160000D01*
G01*
X141804980Y-123815800D01*
G75*
G02*
X141644980Y-123975800I-160000J0D01*
G01*
X139974980Y-123975800D01*
G75*
G02*
X139814980Y-123815800I0J160000D01*
G01*
G37*
G36*
G01*
X134864980Y-123815800D02*
X134864980Y-123495800D01*
G75*
G02*
X135024980Y-123335800I160000J0D01*
G01*
X136694980Y-123335800D01*
G75*
G02*
X136854980Y-123495800I0J-160000D01*
G01*
X136854980Y-123815800D01*
G75*
G02*
X136694980Y-123975800I-160000J0D01*
G01*
X135024980Y-123975800D01*
G75*
G02*
X134864980Y-123815800I0J160000D01*
G01*
G37*
G36*
G01*
X134864980Y-122545800D02*
X134864980Y-122225800D01*
G75*
G02*
X135024980Y-122065800I160000J0D01*
G01*
X136694980Y-122065800D01*
G75*
G02*
X136854980Y-122225800I0J-160000D01*
G01*
X136854980Y-122545800D01*
G75*
G02*
X136694980Y-122705800I-160000J0D01*
G01*
X135024980Y-122705800D01*
G75*
G02*
X134864980Y-122545800I0J160000D01*
G01*
G37*
G36*
G01*
X134864980Y-121275800D02*
X134864980Y-120955800D01*
G75*
G02*
X135024980Y-120795800I160000J0D01*
G01*
X136694980Y-120795800D01*
G75*
G02*
X136854980Y-120955800I0J-160000D01*
G01*
X136854980Y-121275800D01*
G75*
G02*
X136694980Y-121435800I-160000J0D01*
G01*
X135024980Y-121435800D01*
G75*
G02*
X134864980Y-121275800I0J160000D01*
G01*
G37*
G36*
G01*
X134864980Y-120005800D02*
X134864980Y-119685800D01*
G75*
G02*
X135024980Y-119525800I160000J0D01*
G01*
X136694980Y-119525800D01*
G75*
G02*
X136854980Y-119685800I0J-160000D01*
G01*
X136854980Y-120005800D01*
G75*
G02*
X136694980Y-120165800I-160000J0D01*
G01*
X135024980Y-120165800D01*
G75*
G02*
X134864980Y-120005800I0J160000D01*
G01*
G37*
G36*
G01*
X152182680Y-117535800D02*
X152182680Y-117315800D01*
G75*
G02*
X152292680Y-117205800I110000J0D01*
G01*
X153587680Y-117205800D01*
G75*
G02*
X153697680Y-117315800I0J-110000D01*
G01*
X153697680Y-117535800D01*
G75*
G02*
X153587680Y-117645800I-110000J0D01*
G01*
X152292680Y-117645800D01*
G75*
G02*
X152182680Y-117535800I0J110000D01*
G01*
G37*
G36*
G01*
X152182680Y-118185800D02*
X152182680Y-117965800D01*
G75*
G02*
X152292680Y-117855800I110000J0D01*
G01*
X153587680Y-117855800D01*
G75*
G02*
X153697680Y-117965800I0J-110000D01*
G01*
X153697680Y-118185800D01*
G75*
G02*
X153587680Y-118295800I-110000J0D01*
G01*
X152292680Y-118295800D01*
G75*
G02*
X152182680Y-118185800I0J110000D01*
G01*
G37*
G36*
G01*
X152182680Y-118835800D02*
X152182680Y-118615800D01*
G75*
G02*
X152292680Y-118505800I110000J0D01*
G01*
X153587680Y-118505800D01*
G75*
G02*
X153697680Y-118615800I0J-110000D01*
G01*
X153697680Y-118835800D01*
G75*
G02*
X153587680Y-118945800I-110000J0D01*
G01*
X152292680Y-118945800D01*
G75*
G02*
X152182680Y-118835800I0J110000D01*
G01*
G37*
G36*
G01*
X152182680Y-119485800D02*
X152182680Y-119265800D01*
G75*
G02*
X152292680Y-119155800I110000J0D01*
G01*
X153587680Y-119155800D01*
G75*
G02*
X153697680Y-119265800I0J-110000D01*
G01*
X153697680Y-119485800D01*
G75*
G02*
X153587680Y-119595800I-110000J0D01*
G01*
X152292680Y-119595800D01*
G75*
G02*
X152182680Y-119485800I0J110000D01*
G01*
G37*
G36*
G01*
X152182680Y-120135800D02*
X152182680Y-119915800D01*
G75*
G02*
X152292680Y-119805800I110000J0D01*
G01*
X153587680Y-119805800D01*
G75*
G02*
X153697680Y-119915800I0J-110000D01*
G01*
X153697680Y-120135800D01*
G75*
G02*
X153587680Y-120245800I-110000J0D01*
G01*
X152292680Y-120245800D01*
G75*
G02*
X152182680Y-120135800I0J110000D01*
G01*
G37*
G36*
G01*
X152182680Y-120785800D02*
X152182680Y-120565800D01*
G75*
G02*
X152292680Y-120455800I110000J0D01*
G01*
X153587680Y-120455800D01*
G75*
G02*
X153697680Y-120565800I0J-110000D01*
G01*
X153697680Y-120785800D01*
G75*
G02*
X153587680Y-120895800I-110000J0D01*
G01*
X152292680Y-120895800D01*
G75*
G02*
X152182680Y-120785800I0J110000D01*
G01*
G37*
G36*
G01*
X152182680Y-121435800D02*
X152182680Y-121215800D01*
G75*
G02*
X152292680Y-121105800I110000J0D01*
G01*
X153587680Y-121105800D01*
G75*
G02*
X153697680Y-121215800I0J-110000D01*
G01*
X153697680Y-121435800D01*
G75*
G02*
X153587680Y-121545800I-110000J0D01*
G01*
X152292680Y-121545800D01*
G75*
G02*
X152182680Y-121435800I0J110000D01*
G01*
G37*
G36*
G01*
X152182680Y-122085800D02*
X152182680Y-121865800D01*
G75*
G02*
X152292680Y-121755800I110000J0D01*
G01*
X153587680Y-121755800D01*
G75*
G02*
X153697680Y-121865800I0J-110000D01*
G01*
X153697680Y-122085800D01*
G75*
G02*
X153587680Y-122195800I-110000J0D01*
G01*
X152292680Y-122195800D01*
G75*
G02*
X152182680Y-122085800I0J110000D01*
G01*
G37*
G36*
G01*
X146457680Y-122085800D02*
X146457680Y-121865800D01*
G75*
G02*
X146567680Y-121755800I110000J0D01*
G01*
X147862680Y-121755800D01*
G75*
G02*
X147972680Y-121865800I0J-110000D01*
G01*
X147972680Y-122085800D01*
G75*
G02*
X147862680Y-122195800I-110000J0D01*
G01*
X146567680Y-122195800D01*
G75*
G02*
X146457680Y-122085800I0J110000D01*
G01*
G37*
G36*
G01*
X146457680Y-121435800D02*
X146457680Y-121215800D01*
G75*
G02*
X146567680Y-121105800I110000J0D01*
G01*
X147862680Y-121105800D01*
G75*
G02*
X147972680Y-121215800I0J-110000D01*
G01*
X147972680Y-121435800D01*
G75*
G02*
X147862680Y-121545800I-110000J0D01*
G01*
X146567680Y-121545800D01*
G75*
G02*
X146457680Y-121435800I0J110000D01*
G01*
G37*
G36*
G01*
X146457680Y-120785800D02*
X146457680Y-120565800D01*
G75*
G02*
X146567680Y-120455800I110000J0D01*
G01*
X147862680Y-120455800D01*
G75*
G02*
X147972680Y-120565800I0J-110000D01*
G01*
X147972680Y-120785800D01*
G75*
G02*
X147862680Y-120895800I-110000J0D01*
G01*
X146567680Y-120895800D01*
G75*
G02*
X146457680Y-120785800I0J110000D01*
G01*
G37*
G36*
G01*
X146457680Y-120135800D02*
X146457680Y-119915800D01*
G75*
G02*
X146567680Y-119805800I110000J0D01*
G01*
X147862680Y-119805800D01*
G75*
G02*
X147972680Y-119915800I0J-110000D01*
G01*
X147972680Y-120135800D01*
G75*
G02*
X147862680Y-120245800I-110000J0D01*
G01*
X146567680Y-120245800D01*
G75*
G02*
X146457680Y-120135800I0J110000D01*
G01*
G37*
G36*
G01*
X146457680Y-119485800D02*
X146457680Y-119265800D01*
G75*
G02*
X146567680Y-119155800I110000J0D01*
G01*
X147862680Y-119155800D01*
G75*
G02*
X147972680Y-119265800I0J-110000D01*
G01*
X147972680Y-119485800D01*
G75*
G02*
X147862680Y-119595800I-110000J0D01*
G01*
X146567680Y-119595800D01*
G75*
G02*
X146457680Y-119485800I0J110000D01*
G01*
G37*
G36*
G01*
X146457680Y-118835800D02*
X146457680Y-118615800D01*
G75*
G02*
X146567680Y-118505800I110000J0D01*
G01*
X147862680Y-118505800D01*
G75*
G02*
X147972680Y-118615800I0J-110000D01*
G01*
X147972680Y-118835800D01*
G75*
G02*
X147862680Y-118945800I-110000J0D01*
G01*
X146567680Y-118945800D01*
G75*
G02*
X146457680Y-118835800I0J110000D01*
G01*
G37*
G36*
G01*
X146457680Y-118185800D02*
X146457680Y-117965800D01*
G75*
G02*
X146567680Y-117855800I110000J0D01*
G01*
X147862680Y-117855800D01*
G75*
G02*
X147972680Y-117965800I0J-110000D01*
G01*
X147972680Y-118185800D01*
G75*
G02*
X147862680Y-118295800I-110000J0D01*
G01*
X146567680Y-118295800D01*
G75*
G02*
X146457680Y-118185800I0J110000D01*
G01*
G37*
G36*
G01*
X146457680Y-117535800D02*
X146457680Y-117315800D01*
G75*
G02*
X146567680Y-117205800I110000J0D01*
G01*
X147862680Y-117205800D01*
G75*
G02*
X147972680Y-117315800I0J-110000D01*
G01*
X147972680Y-117535800D01*
G75*
G02*
X147862680Y-117645800I-110000J0D01*
G01*
X146567680Y-117645800D01*
G75*
G02*
X146457680Y-117535800I0J110000D01*
G01*
G37*
G36*
G01*
X181533320Y-122935500D02*
X181853320Y-122935500D01*
G75*
G02*
X182013320Y-123095500I0J-160000D01*
G01*
X182013320Y-124440500D01*
G75*
G02*
X181853320Y-124600500I-160000J0D01*
G01*
X181533320Y-124600500D01*
G75*
G02*
X181373320Y-124440500I0J160000D01*
G01*
X181373320Y-123095500D01*
G75*
G02*
X181533320Y-122935500I160000J0D01*
G01*
G37*
G36*
G01*
X180263320Y-122935500D02*
X180583320Y-122935500D01*
G75*
G02*
X180743320Y-123095500I0J-160000D01*
G01*
X180743320Y-124440500D01*
G75*
G02*
X180583320Y-124600500I-160000J0D01*
G01*
X180263320Y-124600500D01*
G75*
G02*
X180103320Y-124440500I0J160000D01*
G01*
X180103320Y-123095500D01*
G75*
G02*
X180263320Y-122935500I160000J0D01*
G01*
G37*
G36*
G01*
X180263320Y-116560500D02*
X180583320Y-116560500D01*
G75*
G02*
X180743320Y-116720500I0J-160000D01*
G01*
X180743320Y-118065500D01*
G75*
G02*
X180583320Y-118225500I-160000J0D01*
G01*
X180263320Y-118225500D01*
G75*
G02*
X180103320Y-118065500I0J160000D01*
G01*
X180103320Y-116720500D01*
G75*
G02*
X180263320Y-116560500I160000J0D01*
G01*
G37*
G36*
G01*
X181533320Y-116560500D02*
X181853320Y-116560500D01*
G75*
G02*
X182013320Y-116720500I0J-160000D01*
G01*
X182013320Y-118065500D01*
G75*
G02*
X181853320Y-118225500I-160000J0D01*
G01*
X181533320Y-118225500D01*
G75*
G02*
X181373320Y-118065500I0J160000D01*
G01*
X181373320Y-116720500D01*
G75*
G02*
X181533320Y-116560500I160000J0D01*
G01*
G37*
D15*
X182456260Y-130849600D03*
G36*
G01*
X179836260Y-131486268D02*
X179836260Y-130212932D01*
G75*
G02*
X180094592Y-129954600I258332J0D01*
G01*
X180817928Y-129954600D01*
G75*
G02*
X181076260Y-130212932I0J-258332D01*
G01*
X181076260Y-131486268D01*
G75*
G02*
X180817928Y-131744600I-258332J0D01*
G01*
X180094592Y-131744600D01*
G75*
G02*
X179836260Y-131486268I0J258332D01*
G01*
G37*
X175330720Y-130819600D03*
G36*
G01*
X172710720Y-131456268D02*
X172710720Y-130182932D01*
G75*
G02*
X172969052Y-129924600I258332J0D01*
G01*
X173692388Y-129924600D01*
G75*
G02*
X173950720Y-130182932I0J-258332D01*
G01*
X173950720Y-131456268D01*
G75*
G02*
X173692388Y-131714600I-258332J0D01*
G01*
X172969052Y-131714600D01*
G75*
G02*
X172710720Y-131456268I0J258332D01*
G01*
G37*
G36*
G01*
X122770000Y-126979755D02*
X122770000Y-127900245D01*
G75*
G02*
X122510245Y-128160000I-259755J0D01*
G01*
X121964755Y-128160000D01*
G75*
G02*
X121705000Y-127900245I0J259755D01*
G01*
X121705000Y-126979755D01*
G75*
G02*
X121964755Y-126720000I259755J0D01*
G01*
X122510245Y-126720000D01*
G75*
G02*
X122770000Y-126979755I0J-259755D01*
G01*
G37*
G36*
G01*
X124595000Y-126979755D02*
X124595000Y-127900245D01*
G75*
G02*
X124335245Y-128160000I-259755J0D01*
G01*
X123789755Y-128160000D01*
G75*
G02*
X123530000Y-127900245I0J259755D01*
G01*
X123530000Y-126979755D01*
G75*
G02*
X123789755Y-126720000I259755J0D01*
G01*
X124335245Y-126720000D01*
G75*
G02*
X124595000Y-126979755I0J-259755D01*
G01*
G37*
G36*
G01*
X186157860Y-84368405D02*
X186157860Y-83447915D01*
G75*
G02*
X186417615Y-83188160I259755J0D01*
G01*
X186963105Y-83188160D01*
G75*
G02*
X187222860Y-83447915I0J-259755D01*
G01*
X187222860Y-84368405D01*
G75*
G02*
X186963105Y-84628160I-259755J0D01*
G01*
X186417615Y-84628160D01*
G75*
G02*
X186157860Y-84368405I0J259755D01*
G01*
G37*
G36*
G01*
X184332860Y-84368405D02*
X184332860Y-83447915D01*
G75*
G02*
X184592615Y-83188160I259755J0D01*
G01*
X185138105Y-83188160D01*
G75*
G02*
X185397860Y-83447915I0J-259755D01*
G01*
X185397860Y-84368405D01*
G75*
G02*
X185138105Y-84628160I-259755J0D01*
G01*
X184592615Y-84628160D01*
G75*
G02*
X184332860Y-84368405I0J259755D01*
G01*
G37*
G36*
G01*
X179186680Y-97999545D02*
X179186680Y-97079055D01*
G75*
G02*
X179446435Y-96819300I259755J0D01*
G01*
X179991925Y-96819300D01*
G75*
G02*
X180251680Y-97079055I0J-259755D01*
G01*
X180251680Y-97999545D01*
G75*
G02*
X179991925Y-98259300I-259755J0D01*
G01*
X179446435Y-98259300D01*
G75*
G02*
X179186680Y-97999545I0J259755D01*
G01*
G37*
G36*
G01*
X177361680Y-97999545D02*
X177361680Y-97079055D01*
G75*
G02*
X177621435Y-96819300I259755J0D01*
G01*
X178166925Y-96819300D01*
G75*
G02*
X178426680Y-97079055I0J-259755D01*
G01*
X178426680Y-97999545D01*
G75*
G02*
X178166925Y-98259300I-259755J0D01*
G01*
X177621435Y-98259300D01*
G75*
G02*
X177361680Y-97999545I0J259755D01*
G01*
G37*
G36*
G01*
X125420000Y-124340245D02*
X125420000Y-123419755D01*
G75*
G02*
X125679755Y-123160000I259755J0D01*
G01*
X126225245Y-123160000D01*
G75*
G02*
X126485000Y-123419755I0J-259755D01*
G01*
X126485000Y-124340245D01*
G75*
G02*
X126225245Y-124600000I-259755J0D01*
G01*
X125679755Y-124600000D01*
G75*
G02*
X125420000Y-124340245I0J259755D01*
G01*
G37*
G36*
G01*
X123595000Y-124340245D02*
X123595000Y-123419755D01*
G75*
G02*
X123854755Y-123160000I259755J0D01*
G01*
X124400245Y-123160000D01*
G75*
G02*
X124660000Y-123419755I0J-259755D01*
G01*
X124660000Y-124340245D01*
G75*
G02*
X124400245Y-124600000I-259755J0D01*
G01*
X123854755Y-124600000D01*
G75*
G02*
X123595000Y-124340245I0J259755D01*
G01*
G37*
G36*
G01*
X99355180Y-82445625D02*
X99355180Y-81525135D01*
G75*
G02*
X99614935Y-81265380I259755J0D01*
G01*
X100160425Y-81265380D01*
G75*
G02*
X100420180Y-81525135I0J-259755D01*
G01*
X100420180Y-82445625D01*
G75*
G02*
X100160425Y-82705380I-259755J0D01*
G01*
X99614935Y-82705380D01*
G75*
G02*
X99355180Y-82445625I0J259755D01*
G01*
G37*
G36*
G01*
X97530180Y-82445625D02*
X97530180Y-81525135D01*
G75*
G02*
X97789935Y-81265380I259755J0D01*
G01*
X98335425Y-81265380D01*
G75*
G02*
X98595180Y-81525135I0J-259755D01*
G01*
X98595180Y-82445625D01*
G75*
G02*
X98335425Y-82705380I-259755J0D01*
G01*
X97789935Y-82705380D01*
G75*
G02*
X97530180Y-82445625I0J259755D01*
G01*
G37*
G36*
G01*
X157607000Y-119826805D02*
X157607000Y-118906315D01*
G75*
G02*
X157866755Y-118646560I259755J0D01*
G01*
X158412245Y-118646560D01*
G75*
G02*
X158672000Y-118906315I0J-259755D01*
G01*
X158672000Y-119826805D01*
G75*
G02*
X158412245Y-120086560I-259755J0D01*
G01*
X157866755Y-120086560D01*
G75*
G02*
X157607000Y-119826805I0J259755D01*
G01*
G37*
G36*
G01*
X155782000Y-119826805D02*
X155782000Y-118906315D01*
G75*
G02*
X156041755Y-118646560I259755J0D01*
G01*
X156587245Y-118646560D01*
G75*
G02*
X156847000Y-118906315I0J-259755D01*
G01*
X156847000Y-119826805D01*
G75*
G02*
X156587245Y-120086560I-259755J0D01*
G01*
X156041755Y-120086560D01*
G75*
G02*
X155782000Y-119826805I0J259755D01*
G01*
G37*
G36*
G01*
X116010000Y-64699755D02*
X116010000Y-65620245D01*
G75*
G02*
X115750245Y-65880000I-259755J0D01*
G01*
X115204755Y-65880000D01*
G75*
G02*
X114945000Y-65620245I0J259755D01*
G01*
X114945000Y-64699755D01*
G75*
G02*
X115204755Y-64440000I259755J0D01*
G01*
X115750245Y-64440000D01*
G75*
G02*
X116010000Y-64699755I0J-259755D01*
G01*
G37*
G36*
G01*
X117835000Y-64699755D02*
X117835000Y-65620245D01*
G75*
G02*
X117575245Y-65880000I-259755J0D01*
G01*
X117029755Y-65880000D01*
G75*
G02*
X116770000Y-65620245I0J259755D01*
G01*
X116770000Y-64699755D01*
G75*
G02*
X117029755Y-64440000I259755J0D01*
G01*
X117575245Y-64440000D01*
G75*
G02*
X117835000Y-64699755I0J-259755D01*
G01*
G37*
G36*
G01*
X98132240Y-121983435D02*
X98132240Y-122903925D01*
G75*
G02*
X97872485Y-123163680I-259755J0D01*
G01*
X97326995Y-123163680D01*
G75*
G02*
X97067240Y-122903925I0J259755D01*
G01*
X97067240Y-121983435D01*
G75*
G02*
X97326995Y-121723680I259755J0D01*
G01*
X97872485Y-121723680D01*
G75*
G02*
X98132240Y-121983435I0J-259755D01*
G01*
G37*
G36*
G01*
X99957240Y-121983435D02*
X99957240Y-122903925D01*
G75*
G02*
X99697485Y-123163680I-259755J0D01*
G01*
X99151995Y-123163680D01*
G75*
G02*
X98892240Y-122903925I0J259755D01*
G01*
X98892240Y-121983435D01*
G75*
G02*
X99151995Y-121723680I259755J0D01*
G01*
X99697485Y-121723680D01*
G75*
G02*
X99957240Y-121983435I0J-259755D01*
G01*
G37*
G36*
G01*
X101579820Y-60774665D02*
X101579820Y-59854175D01*
G75*
G02*
X101839575Y-59594420I259755J0D01*
G01*
X102385065Y-59594420D01*
G75*
G02*
X102644820Y-59854175I0J-259755D01*
G01*
X102644820Y-60774665D01*
G75*
G02*
X102385065Y-61034420I-259755J0D01*
G01*
X101839575Y-61034420D01*
G75*
G02*
X101579820Y-60774665I0J259755D01*
G01*
G37*
G36*
G01*
X99754820Y-60774665D02*
X99754820Y-59854175D01*
G75*
G02*
X100014575Y-59594420I259755J0D01*
G01*
X100560065Y-59594420D01*
G75*
G02*
X100819820Y-59854175I0J-259755D01*
G01*
X100819820Y-60774665D01*
G75*
G02*
X100560065Y-61034420I-259755J0D01*
G01*
X100014575Y-61034420D01*
G75*
G02*
X99754820Y-60774665I0J259755D01*
G01*
G37*
G36*
G01*
X152370000Y-62389755D02*
X152370000Y-63310245D01*
G75*
G02*
X152110245Y-63570000I-259755J0D01*
G01*
X151564755Y-63570000D01*
G75*
G02*
X151305000Y-63310245I0J259755D01*
G01*
X151305000Y-62389755D01*
G75*
G02*
X151564755Y-62130000I259755J0D01*
G01*
X152110245Y-62130000D01*
G75*
G02*
X152370000Y-62389755I0J-259755D01*
G01*
G37*
G36*
G01*
X154195000Y-62389755D02*
X154195000Y-63310245D01*
G75*
G02*
X153935245Y-63570000I-259755J0D01*
G01*
X153389755Y-63570000D01*
G75*
G02*
X153130000Y-63310245I0J259755D01*
G01*
X153130000Y-62389755D01*
G75*
G02*
X153389755Y-62130000I259755J0D01*
G01*
X153935245Y-62130000D01*
G75*
G02*
X154195000Y-62389755I0J-259755D01*
G01*
G37*
G36*
G01*
X153039755Y-72280000D02*
X153960245Y-72280000D01*
G75*
G02*
X154220000Y-72539755I0J-259755D01*
G01*
X154220000Y-73085245D01*
G75*
G02*
X153960245Y-73345000I-259755J0D01*
G01*
X153039755Y-73345000D01*
G75*
G02*
X152780000Y-73085245I0J259755D01*
G01*
X152780000Y-72539755D01*
G75*
G02*
X153039755Y-72280000I259755J0D01*
G01*
G37*
G36*
G01*
X153039755Y-70455000D02*
X153960245Y-70455000D01*
G75*
G02*
X154220000Y-70714755I0J-259755D01*
G01*
X154220000Y-71260245D01*
G75*
G02*
X153960245Y-71520000I-259755J0D01*
G01*
X153039755Y-71520000D01*
G75*
G02*
X152780000Y-71260245I0J259755D01*
G01*
X152780000Y-70714755D01*
G75*
G02*
X153039755Y-70455000I259755J0D01*
G01*
G37*
G36*
G01*
X147130000Y-54985245D02*
X147130000Y-54064755D01*
G75*
G02*
X147389755Y-53805000I259755J0D01*
G01*
X147935245Y-53805000D01*
G75*
G02*
X148195000Y-54064755I0J-259755D01*
G01*
X148195000Y-54985245D01*
G75*
G02*
X147935245Y-55245000I-259755J0D01*
G01*
X147389755Y-55245000D01*
G75*
G02*
X147130000Y-54985245I0J259755D01*
G01*
G37*
G36*
G01*
X145305000Y-54985245D02*
X145305000Y-54064755D01*
G75*
G02*
X145564755Y-53805000I259755J0D01*
G01*
X146110245Y-53805000D01*
G75*
G02*
X146370000Y-54064755I0J-259755D01*
G01*
X146370000Y-54985245D01*
G75*
G02*
X146110245Y-55245000I-259755J0D01*
G01*
X145564755Y-55245000D01*
G75*
G02*
X145305000Y-54985245I0J259755D01*
G01*
G37*
G36*
G01*
X179155000Y-54985245D02*
X179155000Y-54064755D01*
G75*
G02*
X179414755Y-53805000I259755J0D01*
G01*
X179960245Y-53805000D01*
G75*
G02*
X180220000Y-54064755I0J-259755D01*
G01*
X180220000Y-54985245D01*
G75*
G02*
X179960245Y-55245000I-259755J0D01*
G01*
X179414755Y-55245000D01*
G75*
G02*
X179155000Y-54985245I0J259755D01*
G01*
G37*
G36*
G01*
X177330000Y-54985245D02*
X177330000Y-54064755D01*
G75*
G02*
X177589755Y-53805000I259755J0D01*
G01*
X178135245Y-53805000D01*
G75*
G02*
X178395000Y-54064755I0J-259755D01*
G01*
X178395000Y-54985245D01*
G75*
G02*
X178135245Y-55245000I-259755J0D01*
G01*
X177589755Y-55245000D01*
G75*
G02*
X177330000Y-54985245I0J259755D01*
G01*
G37*
G36*
G01*
X205320000Y-62939755D02*
X205320000Y-63860245D01*
G75*
G02*
X205060245Y-64120000I-259755J0D01*
G01*
X204514755Y-64120000D01*
G75*
G02*
X204255000Y-63860245I0J259755D01*
G01*
X204255000Y-62939755D01*
G75*
G02*
X204514755Y-62680000I259755J0D01*
G01*
X205060245Y-62680000D01*
G75*
G02*
X205320000Y-62939755I0J-259755D01*
G01*
G37*
G36*
G01*
X207145000Y-62939755D02*
X207145000Y-63860245D01*
G75*
G02*
X206885245Y-64120000I-259755J0D01*
G01*
X206339755Y-64120000D01*
G75*
G02*
X206080000Y-63860245I0J259755D01*
G01*
X206080000Y-62939755D01*
G75*
G02*
X206339755Y-62680000I259755J0D01*
G01*
X206885245Y-62680000D01*
G75*
G02*
X207145000Y-62939755I0J-259755D01*
G01*
G37*
G36*
G01*
X206239755Y-71530000D02*
X207160245Y-71530000D01*
G75*
G02*
X207420000Y-71789755I0J-259755D01*
G01*
X207420000Y-72335245D01*
G75*
G02*
X207160245Y-72595000I-259755J0D01*
G01*
X206239755Y-72595000D01*
G75*
G02*
X205980000Y-72335245I0J259755D01*
G01*
X205980000Y-71789755D01*
G75*
G02*
X206239755Y-71530000I259755J0D01*
G01*
G37*
G36*
G01*
X206239755Y-69705000D02*
X207160245Y-69705000D01*
G75*
G02*
X207420000Y-69964755I0J-259755D01*
G01*
X207420000Y-70510245D01*
G75*
G02*
X207160245Y-70770000I-259755J0D01*
G01*
X206239755Y-70770000D01*
G75*
G02*
X205980000Y-70510245I0J259755D01*
G01*
X205980000Y-69964755D01*
G75*
G02*
X206239755Y-69705000I259755J0D01*
G01*
G37*
G36*
G01*
X136970000Y-126790245D02*
X136970000Y-125869755D01*
G75*
G02*
X137229755Y-125610000I259755J0D01*
G01*
X137775245Y-125610000D01*
G75*
G02*
X138035000Y-125869755I0J-259755D01*
G01*
X138035000Y-126790245D01*
G75*
G02*
X137775245Y-127050000I-259755J0D01*
G01*
X137229755Y-127050000D01*
G75*
G02*
X136970000Y-126790245I0J259755D01*
G01*
G37*
G36*
G01*
X135145000Y-126790245D02*
X135145000Y-125869755D01*
G75*
G02*
X135404755Y-125610000I259755J0D01*
G01*
X135950245Y-125610000D01*
G75*
G02*
X136210000Y-125869755I0J-259755D01*
G01*
X136210000Y-126790245D01*
G75*
G02*
X135950245Y-127050000I-259755J0D01*
G01*
X135404755Y-127050000D01*
G75*
G02*
X135145000Y-126790245I0J259755D01*
G01*
G37*
G36*
G01*
X162059755Y-71380000D02*
X162980245Y-71380000D01*
G75*
G02*
X163240000Y-71639755I0J-259755D01*
G01*
X163240000Y-72185245D01*
G75*
G02*
X162980245Y-72445000I-259755J0D01*
G01*
X162059755Y-72445000D01*
G75*
G02*
X161800000Y-72185245I0J259755D01*
G01*
X161800000Y-71639755D01*
G75*
G02*
X162059755Y-71380000I259755J0D01*
G01*
G37*
G36*
G01*
X162059755Y-69555000D02*
X162980245Y-69555000D01*
G75*
G02*
X163240000Y-69814755I0J-259755D01*
G01*
X163240000Y-70360245D01*
G75*
G02*
X162980245Y-70620000I-259755J0D01*
G01*
X162059755Y-70620000D01*
G75*
G02*
X161800000Y-70360245I0J259755D01*
G01*
X161800000Y-69814755D01*
G75*
G02*
X162059755Y-69555000I259755J0D01*
G01*
G37*
G36*
G01*
X170372740Y-116125295D02*
X170372740Y-117045785D01*
G75*
G02*
X170112985Y-117305540I-259755J0D01*
G01*
X169567495Y-117305540D01*
G75*
G02*
X169307740Y-117045785I0J259755D01*
G01*
X169307740Y-116125295D01*
G75*
G02*
X169567495Y-115865540I259755J0D01*
G01*
X170112985Y-115865540D01*
G75*
G02*
X170372740Y-116125295I0J-259755D01*
G01*
G37*
G36*
G01*
X172197740Y-116125295D02*
X172197740Y-117045785D01*
G75*
G02*
X171937985Y-117305540I-259755J0D01*
G01*
X171392495Y-117305540D01*
G75*
G02*
X171132740Y-117045785I0J259755D01*
G01*
X171132740Y-116125295D01*
G75*
G02*
X171392495Y-115865540I259755J0D01*
G01*
X171937985Y-115865540D01*
G75*
G02*
X172197740Y-116125295I0J-259755D01*
G01*
G37*
G36*
G01*
X101508700Y-63070825D02*
X101508700Y-62150335D01*
G75*
G02*
X101768455Y-61890580I259755J0D01*
G01*
X102313945Y-61890580D01*
G75*
G02*
X102573700Y-62150335I0J-259755D01*
G01*
X102573700Y-63070825D01*
G75*
G02*
X102313945Y-63330580I-259755J0D01*
G01*
X101768455Y-63330580D01*
G75*
G02*
X101508700Y-63070825I0J259755D01*
G01*
G37*
G36*
G01*
X99683700Y-63070825D02*
X99683700Y-62150335D01*
G75*
G02*
X99943455Y-61890580I259755J0D01*
G01*
X100488945Y-61890580D01*
G75*
G02*
X100748700Y-62150335I0J-259755D01*
G01*
X100748700Y-63070825D01*
G75*
G02*
X100488945Y-63330580I-259755J0D01*
G01*
X99943455Y-63330580D01*
G75*
G02*
X99683700Y-63070825I0J259755D01*
G01*
G37*
G36*
G01*
X98132240Y-123883435D02*
X98132240Y-124803925D01*
G75*
G02*
X97872485Y-125063680I-259755J0D01*
G01*
X97326995Y-125063680D01*
G75*
G02*
X97067240Y-124803925I0J259755D01*
G01*
X97067240Y-123883435D01*
G75*
G02*
X97326995Y-123623680I259755J0D01*
G01*
X97872485Y-123623680D01*
G75*
G02*
X98132240Y-123883435I0J-259755D01*
G01*
G37*
G36*
G01*
X99957240Y-123883435D02*
X99957240Y-124803925D01*
G75*
G02*
X99697485Y-125063680I-259755J0D01*
G01*
X99151995Y-125063680D01*
G75*
G02*
X98892240Y-124803925I0J259755D01*
G01*
X98892240Y-123883435D01*
G75*
G02*
X99151995Y-123623680I259755J0D01*
G01*
X99697485Y-123623680D01*
G75*
G02*
X99957240Y-123883435I0J-259755D01*
G01*
G37*
G36*
G01*
X180750000Y-114659755D02*
X180750000Y-115580245D01*
G75*
G02*
X180490245Y-115840000I-259755J0D01*
G01*
X179944755Y-115840000D01*
G75*
G02*
X179685000Y-115580245I0J259755D01*
G01*
X179685000Y-114659755D01*
G75*
G02*
X179944755Y-114400000I259755J0D01*
G01*
X180490245Y-114400000D01*
G75*
G02*
X180750000Y-114659755I0J-259755D01*
G01*
G37*
G36*
G01*
X182575000Y-114659755D02*
X182575000Y-115580245D01*
G75*
G02*
X182315245Y-115840000I-259755J0D01*
G01*
X181769755Y-115840000D01*
G75*
G02*
X181510000Y-115580245I0J259755D01*
G01*
X181510000Y-114659755D01*
G75*
G02*
X181769755Y-114400000I259755J0D01*
G01*
X182315245Y-114400000D01*
G75*
G02*
X182575000Y-114659755I0J-259755D01*
G01*
G37*
G36*
G01*
X176970000Y-123900245D02*
X176970000Y-122979755D01*
G75*
G02*
X177229755Y-122720000I259755J0D01*
G01*
X177775245Y-122720000D01*
G75*
G02*
X178035000Y-122979755I0J-259755D01*
G01*
X178035000Y-123900245D01*
G75*
G02*
X177775245Y-124160000I-259755J0D01*
G01*
X177229755Y-124160000D01*
G75*
G02*
X176970000Y-123900245I0J259755D01*
G01*
G37*
G36*
G01*
X175145000Y-123900245D02*
X175145000Y-122979755D01*
G75*
G02*
X175404755Y-122720000I259755J0D01*
G01*
X175950245Y-122720000D01*
G75*
G02*
X176210000Y-122979755I0J-259755D01*
G01*
X176210000Y-123900245D01*
G75*
G02*
X175950245Y-124160000I-259755J0D01*
G01*
X175404755Y-124160000D01*
G75*
G02*
X175145000Y-123900245I0J259755D01*
G01*
G37*
G36*
G01*
X98132240Y-125883435D02*
X98132240Y-126803925D01*
G75*
G02*
X97872485Y-127063680I-259755J0D01*
G01*
X97326995Y-127063680D01*
G75*
G02*
X97067240Y-126803925I0J259755D01*
G01*
X97067240Y-125883435D01*
G75*
G02*
X97326995Y-125623680I259755J0D01*
G01*
X97872485Y-125623680D01*
G75*
G02*
X98132240Y-125883435I0J-259755D01*
G01*
G37*
G36*
G01*
X99957240Y-125883435D02*
X99957240Y-126803925D01*
G75*
G02*
X99697485Y-127063680I-259755J0D01*
G01*
X99151995Y-127063680D01*
G75*
G02*
X98892240Y-126803925I0J259755D01*
G01*
X98892240Y-125883435D01*
G75*
G02*
X99151995Y-125623680I259755J0D01*
G01*
X99697485Y-125623680D01*
G75*
G02*
X99957240Y-125883435I0J-259755D01*
G01*
G37*
G36*
G01*
X160845000Y-65625000D02*
X160845000Y-66425000D01*
G75*
G02*
X160825000Y-66445000I-20000J0D01*
G01*
X159925000Y-66445000D01*
G75*
G02*
X159905000Y-66425000I0J20000D01*
G01*
X159905000Y-65625000D01*
G75*
G02*
X159925000Y-65605000I20000J0D01*
G01*
X160825000Y-65605000D01*
G75*
G02*
X160845000Y-65625000I0J-20000D01*
G01*
G37*
G36*
G01*
X162845000Y-64675000D02*
X162845000Y-65475000D01*
G75*
G02*
X162825000Y-65495000I-20000J0D01*
G01*
X161925000Y-65495000D01*
G75*
G02*
X161905000Y-65475000I0J20000D01*
G01*
X161905000Y-64675000D01*
G75*
G02*
X161925000Y-64655000I20000J0D01*
G01*
X162825000Y-64655000D01*
G75*
G02*
X162845000Y-64675000I0J-20000D01*
G01*
G37*
G36*
G01*
X162845000Y-66575000D02*
X162845000Y-67375000D01*
G75*
G02*
X162825000Y-67395000I-20000J0D01*
G01*
X161925000Y-67395000D01*
G75*
G02*
X161905000Y-67375000I0J20000D01*
G01*
X161905000Y-66575000D01*
G75*
G02*
X161925000Y-66555000I20000J0D01*
G01*
X162825000Y-66555000D01*
G75*
G02*
X162845000Y-66575000I0J-20000D01*
G01*
G37*
G36*
G01*
X152220000Y-66500000D02*
X152220000Y-67300000D01*
G75*
G02*
X152200000Y-67320000I-20000J0D01*
G01*
X151300000Y-67320000D01*
G75*
G02*
X151280000Y-67300000I0J20000D01*
G01*
X151280000Y-66500000D01*
G75*
G02*
X151300000Y-66480000I20000J0D01*
G01*
X152200000Y-66480000D01*
G75*
G02*
X152220000Y-66500000I0J-20000D01*
G01*
G37*
G36*
G01*
X154220000Y-65550000D02*
X154220000Y-66350000D01*
G75*
G02*
X154200000Y-66370000I-20000J0D01*
G01*
X153300000Y-66370000D01*
G75*
G02*
X153280000Y-66350000I0J20000D01*
G01*
X153280000Y-65550000D01*
G75*
G02*
X153300000Y-65530000I20000J0D01*
G01*
X154200000Y-65530000D01*
G75*
G02*
X154220000Y-65550000I0J-20000D01*
G01*
G37*
G36*
G01*
X154220000Y-67450000D02*
X154220000Y-68250000D01*
G75*
G02*
X154200000Y-68270000I-20000J0D01*
G01*
X153300000Y-68270000D01*
G75*
G02*
X153280000Y-68250000I0J20000D01*
G01*
X153280000Y-67450000D01*
G75*
G02*
X153300000Y-67430000I20000J0D01*
G01*
X154200000Y-67430000D01*
G75*
G02*
X154220000Y-67450000I0J-20000D01*
G01*
G37*
G36*
G01*
X205020000Y-67000000D02*
X205020000Y-67800000D01*
G75*
G02*
X205000000Y-67820000I-20000J0D01*
G01*
X204100000Y-67820000D01*
G75*
G02*
X204080000Y-67800000I0J20000D01*
G01*
X204080000Y-67000000D01*
G75*
G02*
X204100000Y-66980000I20000J0D01*
G01*
X205000000Y-66980000D01*
G75*
G02*
X205020000Y-67000000I0J-20000D01*
G01*
G37*
G36*
G01*
X207020000Y-66050000D02*
X207020000Y-66850000D01*
G75*
G02*
X207000000Y-66870000I-20000J0D01*
G01*
X206100000Y-66870000D01*
G75*
G02*
X206080000Y-66850000I0J20000D01*
G01*
X206080000Y-66050000D01*
G75*
G02*
X206100000Y-66030000I20000J0D01*
G01*
X207000000Y-66030000D01*
G75*
G02*
X207020000Y-66050000I0J-20000D01*
G01*
G37*
G36*
G01*
X207020000Y-67950000D02*
X207020000Y-68750000D01*
G75*
G02*
X207000000Y-68770000I-20000J0D01*
G01*
X206100000Y-68770000D01*
G75*
G02*
X206080000Y-68750000I0J20000D01*
G01*
X206080000Y-67950000D01*
G75*
G02*
X206100000Y-67930000I20000J0D01*
G01*
X207000000Y-67930000D01*
G75*
G02*
X207020000Y-67950000I0J-20000D01*
G01*
G37*
D14*
X174919360Y-101185240D03*
G36*
G01*
X173229360Y-102055240D02*
X171529360Y-102055240D01*
G75*
G02*
X171509360Y-102035240I0J20000D01*
G01*
X171509360Y-100335240D01*
G75*
G02*
X171529360Y-100315240I20000J0D01*
G01*
X173229360Y-100315240D01*
G75*
G02*
X173249360Y-100335240I0J-20000D01*
G01*
X173249360Y-102035240D01*
G75*
G02*
X173229360Y-102055240I-20000J0D01*
G01*
G37*
X186115680Y-101185240D03*
G36*
G01*
X184425680Y-102055240D02*
X182725680Y-102055240D01*
G75*
G02*
X182705680Y-102035240I0J20000D01*
G01*
X182705680Y-100335240D01*
G75*
G02*
X182725680Y-100315240I20000J0D01*
G01*
X184425680Y-100315240D01*
G75*
G02*
X184445680Y-100335240I0J-20000D01*
G01*
X184445680Y-102035240D01*
G75*
G02*
X184425680Y-102055240I-20000J0D01*
G01*
G37*
X132140000Y-117040000D03*
G36*
G01*
X131270000Y-115350000D02*
X131270000Y-113650000D01*
G75*
G02*
X131290000Y-113630000I20000J0D01*
G01*
X132990000Y-113630000D01*
G75*
G02*
X133010000Y-113650000I0J-20000D01*
G01*
X133010000Y-115350000D01*
G75*
G02*
X132990000Y-115370000I-20000J0D01*
G01*
X131290000Y-115370000D01*
G75*
G02*
X131270000Y-115350000I0J20000D01*
G01*
G37*
X97686860Y-61591720D03*
X95146860Y-61591720D03*
G36*
G01*
X93456860Y-62461720D02*
X91756860Y-62461720D01*
G75*
G02*
X91736860Y-62441720I0J20000D01*
G01*
X91736860Y-60741720D01*
G75*
G02*
X91756860Y-60721720I20000J0D01*
G01*
X93456860Y-60721720D01*
G75*
G02*
X93476860Y-60741720I0J-20000D01*
G01*
X93476860Y-62441720D01*
G75*
G02*
X93456860Y-62461720I-20000J0D01*
G01*
G37*
X117510000Y-129350000D03*
G36*
G01*
X119200000Y-128480000D02*
X120900000Y-128480000D01*
G75*
G02*
X120920000Y-128500000I0J-20000D01*
G01*
X120920000Y-130200000D01*
G75*
G02*
X120900000Y-130220000I-20000J0D01*
G01*
X119200000Y-130220000D01*
G75*
G02*
X119180000Y-130200000I0J20000D01*
G01*
X119180000Y-128500000D01*
G75*
G02*
X119200000Y-128480000I20000J0D01*
G01*
G37*
X170573420Y-96933280D03*
X170573420Y-94393280D03*
X170573420Y-91853280D03*
X170573420Y-89313280D03*
X170573420Y-86773280D03*
G36*
G01*
X169703420Y-85083280D02*
X169703420Y-83383280D01*
G75*
G02*
X169723420Y-83363280I20000J0D01*
G01*
X171423420Y-83363280D01*
G75*
G02*
X171443420Y-83383280I0J-20000D01*
G01*
X171443420Y-85083280D01*
G75*
G02*
X171423420Y-85103280I-20000J0D01*
G01*
X169723420Y-85103280D01*
G75*
G02*
X169703420Y-85083280I0J20000D01*
G01*
G37*
X126870000Y-134290000D03*
X126870000Y-131750000D03*
X129410000Y-134290000D03*
X129410000Y-131750000D03*
X131950000Y-134290000D03*
G36*
G01*
X131100000Y-130880000D02*
X132800000Y-130880000D01*
G75*
G02*
X132820000Y-130900000I0J-20000D01*
G01*
X132820000Y-132600000D01*
G75*
G02*
X132800000Y-132620000I-20000J0D01*
G01*
X131100000Y-132620000D01*
G75*
G02*
X131080000Y-132600000I0J20000D01*
G01*
X131080000Y-130900000D01*
G75*
G02*
X131100000Y-130880000I20000J0D01*
G01*
G37*
X186151240Y-92026000D03*
X183611240Y-92026000D03*
X186151240Y-89486000D03*
X183611240Y-89486000D03*
X186151240Y-86946000D03*
G36*
G01*
X182741240Y-87796000D02*
X182741240Y-86096000D01*
G75*
G02*
X182761240Y-86076000I20000J0D01*
G01*
X184461240Y-86076000D01*
G75*
G02*
X184481240Y-86096000I0J-20000D01*
G01*
X184481240Y-87796000D01*
G75*
G02*
X184461240Y-87816000I-20000J0D01*
G01*
X182761240Y-87816000D01*
G75*
G02*
X182741240Y-87796000I0J20000D01*
G01*
G37*
G36*
G01*
X174825000Y-64729807D02*
X174825000Y-59750193D01*
G75*
G02*
X175080193Y-59495000I255193J0D01*
G01*
X176534807Y-59495000D01*
G75*
G02*
X176790000Y-59750193I0J-255193D01*
G01*
X176790000Y-64729807D01*
G75*
G02*
X176534807Y-64985000I-255193J0D01*
G01*
X175080193Y-64985000D01*
G75*
G02*
X174825000Y-64729807I0J255193D01*
G01*
G37*
G36*
G01*
X168050000Y-64729807D02*
X168050000Y-59750193D01*
G75*
G02*
X168305193Y-59495000I255193J0D01*
G01*
X169759807Y-59495000D01*
G75*
G02*
X170015000Y-59750193I0J-255193D01*
G01*
X170015000Y-64729807D01*
G75*
G02*
X169759807Y-64985000I-255193J0D01*
G01*
X168305193Y-64985000D01*
G75*
G02*
X168050000Y-64729807I0J255193D01*
G01*
G37*
G36*
G01*
X108527240Y-123303680D02*
X106527240Y-123303680D01*
G75*
G02*
X106507240Y-123283680I0J20000D01*
G01*
X106507240Y-122183680D01*
G75*
G02*
X106527240Y-122163680I20000J0D01*
G01*
X108527240Y-122163680D01*
G75*
G02*
X108547240Y-122183680I0J-20000D01*
G01*
X108547240Y-123283680D01*
G75*
G02*
X108527240Y-123303680I-20000J0D01*
G01*
G37*
G36*
G01*
X108527240Y-125003680D02*
X106527240Y-125003680D01*
G75*
G02*
X106507240Y-124983680I0J20000D01*
G01*
X106507240Y-123883680D01*
G75*
G02*
X106527240Y-123863680I20000J0D01*
G01*
X108527240Y-123863680D01*
G75*
G02*
X108547240Y-123883680I0J-20000D01*
G01*
X108547240Y-124983680D01*
G75*
G02*
X108527240Y-125003680I-20000J0D01*
G01*
G37*
G36*
G01*
X108527240Y-126703680D02*
X106527240Y-126703680D01*
G75*
G02*
X106507240Y-126683680I0J20000D01*
G01*
X106507240Y-125583680D01*
G75*
G02*
X106527240Y-125563680I20000J0D01*
G01*
X108527240Y-125563680D01*
G75*
G02*
X108547240Y-125583680I0J-20000D01*
G01*
X108547240Y-126683680D01*
G75*
G02*
X108527240Y-126703680I-20000J0D01*
G01*
G37*
G36*
G01*
X103727240Y-126703680D02*
X101727240Y-126703680D01*
G75*
G02*
X101707240Y-126683680I0J20000D01*
G01*
X101707240Y-125583680D01*
G75*
G02*
X101727240Y-125563680I20000J0D01*
G01*
X103727240Y-125563680D01*
G75*
G02*
X103747240Y-125583680I0J-20000D01*
G01*
X103747240Y-126683680D01*
G75*
G02*
X103727240Y-126703680I-20000J0D01*
G01*
G37*
G36*
G01*
X103727240Y-125003680D02*
X101727240Y-125003680D01*
G75*
G02*
X101707240Y-124983680I0J20000D01*
G01*
X101707240Y-123883680D01*
G75*
G02*
X101727240Y-123863680I20000J0D01*
G01*
X103727240Y-123863680D01*
G75*
G02*
X103747240Y-123883680I0J-20000D01*
G01*
X103747240Y-124983680D01*
G75*
G02*
X103727240Y-125003680I-20000J0D01*
G01*
G37*
G36*
G01*
X103727240Y-123303680D02*
X101727240Y-123303680D01*
G75*
G02*
X101707240Y-123283680I0J20000D01*
G01*
X101707240Y-122183680D01*
G75*
G02*
X101727240Y-122163680I20000J0D01*
G01*
X103727240Y-122163680D01*
G75*
G02*
X103747240Y-122183680I0J-20000D01*
G01*
X103747240Y-123283680D01*
G75*
G02*
X103727240Y-123303680I-20000J0D01*
G01*
G37*
G36*
G01*
X193660000Y-100605000D02*
X193660000Y-101575000D01*
G75*
G02*
X193400000Y-101835000I-260000J0D01*
G01*
X192880000Y-101835000D01*
G75*
G02*
X192620000Y-101575000I0J260000D01*
G01*
X192620000Y-100605000D01*
G75*
G02*
X192880000Y-100345000I260000J0D01*
G01*
X193400000Y-100345000D01*
G75*
G02*
X193660000Y-100605000I0J-260000D01*
G01*
G37*
G36*
G01*
X195560000Y-100605000D02*
X195560000Y-101575000D01*
G75*
G02*
X195300000Y-101835000I-260000J0D01*
G01*
X194780000Y-101835000D01*
G75*
G02*
X194520000Y-101575000I0J260000D01*
G01*
X194520000Y-100605000D01*
G75*
G02*
X194780000Y-100345000I260000J0D01*
G01*
X195300000Y-100345000D01*
G75*
G02*
X195560000Y-100605000I0J-260000D01*
G01*
G37*
G36*
G01*
X179652980Y-84418560D02*
X179652980Y-83448560D01*
G75*
G02*
X179912980Y-83188560I260000J0D01*
G01*
X180432980Y-83188560D01*
G75*
G02*
X180692980Y-83448560I0J-260000D01*
G01*
X180692980Y-84418560D01*
G75*
G02*
X180432980Y-84678560I-260000J0D01*
G01*
X179912980Y-84678560D01*
G75*
G02*
X179652980Y-84418560I0J260000D01*
G01*
G37*
G36*
G01*
X177752980Y-84418560D02*
X177752980Y-83448560D01*
G75*
G02*
X178012980Y-83188560I260000J0D01*
G01*
X178532980Y-83188560D01*
G75*
G02*
X178792980Y-83448560I0J-260000D01*
G01*
X178792980Y-84418560D01*
G75*
G02*
X178532980Y-84678560I-260000J0D01*
G01*
X178012980Y-84678560D01*
G75*
G02*
X177752980Y-84418560I0J260000D01*
G01*
G37*
G36*
G01*
X175102980Y-84418560D02*
X175102980Y-83448560D01*
G75*
G02*
X175362980Y-83188560I260000J0D01*
G01*
X175882980Y-83188560D01*
G75*
G02*
X176142980Y-83448560I0J-260000D01*
G01*
X176142980Y-84418560D01*
G75*
G02*
X175882980Y-84678560I-260000J0D01*
G01*
X175362980Y-84678560D01*
G75*
G02*
X175102980Y-84418560I0J260000D01*
G01*
G37*
G36*
G01*
X173202980Y-84418560D02*
X173202980Y-83448560D01*
G75*
G02*
X173462980Y-83188560I260000J0D01*
G01*
X173982980Y-83188560D01*
G75*
G02*
X174242980Y-83448560I0J-260000D01*
G01*
X174242980Y-84418560D01*
G75*
G02*
X173982980Y-84678560I-260000J0D01*
G01*
X173462980Y-84678560D01*
G75*
G02*
X173202980Y-84418560I0J260000D01*
G01*
G37*
G36*
G01*
X148272480Y-115825000D02*
X148272480Y-114855000D01*
G75*
G02*
X148532480Y-114595000I260000J0D01*
G01*
X149052480Y-114595000D01*
G75*
G02*
X149312480Y-114855000I0J-260000D01*
G01*
X149312480Y-115825000D01*
G75*
G02*
X149052480Y-116085000I-260000J0D01*
G01*
X148532480Y-116085000D01*
G75*
G02*
X148272480Y-115825000I0J260000D01*
G01*
G37*
G36*
G01*
X146372480Y-115825000D02*
X146372480Y-114855000D01*
G75*
G02*
X146632480Y-114595000I260000J0D01*
G01*
X147152480Y-114595000D01*
G75*
G02*
X147412480Y-114855000I0J-260000D01*
G01*
X147412480Y-115825000D01*
G75*
G02*
X147152480Y-116085000I-260000J0D01*
G01*
X146632480Y-116085000D01*
G75*
G02*
X146372480Y-115825000I0J260000D01*
G01*
G37*
G36*
G01*
X115063740Y-120613560D02*
X115063740Y-119643560D01*
G75*
G02*
X115323740Y-119383560I260000J0D01*
G01*
X115843740Y-119383560D01*
G75*
G02*
X116103740Y-119643560I0J-260000D01*
G01*
X116103740Y-120613560D01*
G75*
G02*
X115843740Y-120873560I-260000J0D01*
G01*
X115323740Y-120873560D01*
G75*
G02*
X115063740Y-120613560I0J260000D01*
G01*
G37*
G36*
G01*
X113163740Y-120613560D02*
X113163740Y-119643560D01*
G75*
G02*
X113423740Y-119383560I260000J0D01*
G01*
X113943740Y-119383560D01*
G75*
G02*
X114203740Y-119643560I0J-260000D01*
G01*
X114203740Y-120613560D01*
G75*
G02*
X113943740Y-120873560I-260000J0D01*
G01*
X113423740Y-120873560D01*
G75*
G02*
X113163740Y-120613560I0J260000D01*
G01*
G37*
G36*
G01*
X170501594Y-71640800D02*
X169626406Y-71640800D01*
G75*
G02*
X169369000Y-71383394I0J257406D01*
G01*
X169369000Y-70283206D01*
G75*
G02*
X169626406Y-70025800I257406J0D01*
G01*
X170501594Y-70025800D01*
G75*
G02*
X170759000Y-70283206I0J-257406D01*
G01*
X170759000Y-71383394D01*
G75*
G02*
X170501594Y-71640800I-257406J0D01*
G01*
G37*
G36*
G01*
X170501594Y-74515800D02*
X169626406Y-74515800D01*
G75*
G02*
X169369000Y-74258394I0J257406D01*
G01*
X169369000Y-73158206D01*
G75*
G02*
X169626406Y-72900800I257406J0D01*
G01*
X170501594Y-72900800D01*
G75*
G02*
X170759000Y-73158206I0J-257406D01*
G01*
X170759000Y-74258394D01*
G75*
G02*
X170501594Y-74515800I-257406J0D01*
G01*
G37*
G36*
G01*
X167651594Y-74150800D02*
X166776406Y-74150800D01*
G75*
G02*
X166519000Y-73893394I0J257406D01*
G01*
X166519000Y-72793206D01*
G75*
G02*
X166776406Y-72535800I257406J0D01*
G01*
X167651594Y-72535800D01*
G75*
G02*
X167909000Y-72793206I0J-257406D01*
G01*
X167909000Y-73893394D01*
G75*
G02*
X167651594Y-74150800I-257406J0D01*
G01*
G37*
G36*
G01*
X167651594Y-77025800D02*
X166776406Y-77025800D01*
G75*
G02*
X166519000Y-76768394I0J257406D01*
G01*
X166519000Y-75668206D01*
G75*
G02*
X166776406Y-75410800I257406J0D01*
G01*
X167651594Y-75410800D01*
G75*
G02*
X167909000Y-75668206I0J-257406D01*
G01*
X167909000Y-76768394D01*
G75*
G02*
X167651594Y-77025800I-257406J0D01*
G01*
G37*
G36*
G01*
X161984940Y-122159740D02*
X161984940Y-123129740D01*
G75*
G02*
X161724940Y-123389740I-260000J0D01*
G01*
X161204940Y-123389740D01*
G75*
G02*
X160944940Y-123129740I0J260000D01*
G01*
X160944940Y-122159740D01*
G75*
G02*
X161204940Y-121899740I260000J0D01*
G01*
X161724940Y-121899740D01*
G75*
G02*
X161984940Y-122159740I0J-260000D01*
G01*
G37*
G36*
G01*
X163884940Y-122159740D02*
X163884940Y-123129740D01*
G75*
G02*
X163624940Y-123389740I-260000J0D01*
G01*
X163104940Y-123389740D01*
G75*
G02*
X162844940Y-123129740I0J260000D01*
G01*
X162844940Y-122159740D01*
G75*
G02*
X163104940Y-121899740I260000J0D01*
G01*
X163624940Y-121899740D01*
G75*
G02*
X163884940Y-122159740I0J-260000D01*
G01*
G37*
G36*
G01*
X140698980Y-117295800D02*
X140698980Y-116325800D01*
G75*
G02*
X140958980Y-116065800I260000J0D01*
G01*
X141478980Y-116065800D01*
G75*
G02*
X141738980Y-116325800I0J-260000D01*
G01*
X141738980Y-117295800D01*
G75*
G02*
X141478980Y-117555800I-260000J0D01*
G01*
X140958980Y-117555800D01*
G75*
G02*
X140698980Y-117295800I0J260000D01*
G01*
G37*
G36*
G01*
X138798980Y-117295800D02*
X138798980Y-116325800D01*
G75*
G02*
X139058980Y-116065800I260000J0D01*
G01*
X139578980Y-116065800D01*
G75*
G02*
X139838980Y-116325800I0J-260000D01*
G01*
X139838980Y-117295800D01*
G75*
G02*
X139578980Y-117555800I-260000J0D01*
G01*
X139058980Y-117555800D01*
G75*
G02*
X138798980Y-117295800I0J260000D01*
G01*
G37*
D16*
X117656394Y-117150000D03*
X117656394Y-114610000D03*
X117656394Y-112070000D03*
X117656394Y-109530000D03*
X117656394Y-106990000D03*
X117656394Y-104450000D03*
X117656394Y-101910000D03*
X117656394Y-99370000D03*
X117656394Y-96830000D03*
X117656394Y-94290000D03*
X117656394Y-91750000D03*
X117656394Y-89210000D03*
X117656394Y-86670000D03*
X117656394Y-84130000D03*
X117656394Y-81590000D03*
X117656394Y-79050000D03*
X117656394Y-76510000D03*
X117656394Y-73970000D03*
X117656394Y-71430000D03*
X92256394Y-114610000D03*
X92256394Y-112070000D03*
X92256394Y-109530000D03*
X92256394Y-106990000D03*
X92256394Y-104450000D03*
X92256394Y-101910000D03*
X92256394Y-99370000D03*
X92256394Y-96830000D03*
X92256394Y-94290000D03*
X92256394Y-91750000D03*
X92256394Y-89210000D03*
X92256394Y-86670000D03*
X92256394Y-84130000D03*
X92256394Y-81590000D03*
X92256394Y-79050000D03*
X92256394Y-76510000D03*
X92256394Y-117150000D03*
X92256394Y-73970000D03*
G36*
G01*
X91456394Y-72210000D02*
X91456394Y-70650000D01*
G75*
G02*
X91476394Y-70630000I20000J0D01*
G01*
X93036394Y-70630000D01*
G75*
G02*
X93056394Y-70650000I0J-20000D01*
G01*
X93056394Y-72210000D01*
G75*
G02*
X93036394Y-72230000I-20000J0D01*
G01*
X91476394Y-72230000D01*
G75*
G02*
X91456394Y-72210000I0J20000D01*
G01*
G37*
G36*
G01*
X145485000Y-74310000D02*
X145485000Y-76290000D01*
G75*
G02*
X145465000Y-76310000I-20000J0D01*
G01*
X143485000Y-76310000D01*
G75*
G02*
X143465000Y-76290000I0J20000D01*
G01*
X143465000Y-74310000D01*
G75*
G02*
X143485000Y-74290000I20000J0D01*
G01*
X145465000Y-74290000D01*
G75*
G02*
X145485000Y-74310000I0J-20000D01*
G01*
G37*
G36*
G01*
X147445000Y-68200000D02*
X147445000Y-70400000D01*
G75*
G02*
X147425000Y-70420000I-20000J0D01*
G01*
X145525000Y-70420000D01*
G75*
G02*
X145505000Y-70400000I0J20000D01*
G01*
X145505000Y-68200000D01*
G75*
G02*
X145525000Y-68180000I20000J0D01*
G01*
X147425000Y-68180000D01*
G75*
G02*
X147445000Y-68200000I0J-20000D01*
G01*
G37*
D17*
X144475000Y-63300000D03*
G36*
G01*
X133245000Y-62200000D02*
X133245000Y-64400000D01*
G75*
G02*
X133225000Y-64420000I-20000J0D01*
G01*
X131325000Y-64420000D01*
G75*
G02*
X131305000Y-64400000I0J20000D01*
G01*
X131305000Y-62200000D01*
G75*
G02*
X131325000Y-62180000I20000J0D01*
G01*
X133225000Y-62180000D01*
G75*
G02*
X133245000Y-62200000I0J-20000D01*
G01*
G37*
G36*
G01*
X133245000Y-74200000D02*
X133245000Y-76400000D01*
G75*
G02*
X133225000Y-76420000I-20000J0D01*
G01*
X131325000Y-76420000D01*
G75*
G02*
X131305000Y-76400000I0J20000D01*
G01*
X131305000Y-74200000D01*
G75*
G02*
X131325000Y-74180000I20000J0D01*
G01*
X133225000Y-74180000D01*
G75*
G02*
X133245000Y-74200000I0J-20000D01*
G01*
G37*
G36*
G01*
X198350000Y-74310000D02*
X198350000Y-76290000D01*
G75*
G02*
X198330000Y-76310000I-20000J0D01*
G01*
X196350000Y-76310000D01*
G75*
G02*
X196330000Y-76290000I0J20000D01*
G01*
X196330000Y-74310000D01*
G75*
G02*
X196350000Y-74290000I20000J0D01*
G01*
X198330000Y-74290000D01*
G75*
G02*
X198350000Y-74310000I0J-20000D01*
G01*
G37*
G36*
G01*
X200310000Y-68200000D02*
X200310000Y-70400000D01*
G75*
G02*
X200290000Y-70420000I-20000J0D01*
G01*
X198390000Y-70420000D01*
G75*
G02*
X198370000Y-70400000I0J20000D01*
G01*
X198370000Y-68200000D01*
G75*
G02*
X198390000Y-68180000I20000J0D01*
G01*
X200290000Y-68180000D01*
G75*
G02*
X200310000Y-68200000I0J-20000D01*
G01*
G37*
X197340000Y-63300000D03*
G36*
G01*
X186110000Y-62200000D02*
X186110000Y-64400000D01*
G75*
G02*
X186090000Y-64420000I-20000J0D01*
G01*
X184190000Y-64420000D01*
G75*
G02*
X184170000Y-64400000I0J20000D01*
G01*
X184170000Y-62200000D01*
G75*
G02*
X184190000Y-62180000I20000J0D01*
G01*
X186090000Y-62180000D01*
G75*
G02*
X186110000Y-62200000I0J-20000D01*
G01*
G37*
G36*
G01*
X186110000Y-74200000D02*
X186110000Y-76400000D01*
G75*
G02*
X186090000Y-76420000I-20000J0D01*
G01*
X184190000Y-76420000D01*
G75*
G02*
X184170000Y-76400000I0J20000D01*
G01*
X184170000Y-74200000D01*
G75*
G02*
X184190000Y-74180000I20000J0D01*
G01*
X186090000Y-74180000D01*
G75*
G02*
X186110000Y-74200000I0J-20000D01*
G01*
G37*
D10*
X168679020Y-133488660D03*
X164869020Y-133488660D03*
X161059020Y-133488660D03*
G36*
G01*
X156229020Y-134488660D02*
X156229020Y-132488660D01*
G75*
G02*
X156249020Y-132468660I20000J0D01*
G01*
X158249020Y-132468660D01*
G75*
G02*
X158269020Y-132488660I0J-20000D01*
G01*
X158269020Y-134488660D01*
G75*
G02*
X158249020Y-134508660I-20000J0D01*
G01*
X156249020Y-134508660D01*
G75*
G02*
X156229020Y-134488660I0J20000D01*
G01*
G37*
X151855686Y-133503660D03*
X148045686Y-133503660D03*
X144235686Y-133503660D03*
G36*
G01*
X139405686Y-134503660D02*
X139405686Y-132503660D01*
G75*
G02*
X139425686Y-132483660I20000J0D01*
G01*
X141425686Y-132483660D01*
G75*
G02*
X141445686Y-132503660I0J-20000D01*
G01*
X141445686Y-134503660D01*
G75*
G02*
X141425686Y-134523660I-20000J0D01*
G01*
X139425686Y-134523660D01*
G75*
G02*
X139405686Y-134503660I0J20000D01*
G01*
G37*
D18*
X131685000Y-54450000D03*
X136685000Y-54450000D03*
G36*
G01*
X142655000Y-53500000D02*
X142655000Y-55400000D01*
G75*
G02*
X142635000Y-55420000I-20000J0D01*
G01*
X140735000Y-55420000D01*
G75*
G02*
X140715000Y-55400000I0J20000D01*
G01*
X140715000Y-53500000D01*
G75*
G02*
X140735000Y-53480000I20000J0D01*
G01*
X142635000Y-53480000D01*
G75*
G02*
X142655000Y-53500000I0J-20000D01*
G01*
G37*
X184550000Y-54450000D03*
X189550000Y-54450000D03*
G36*
G01*
X195520000Y-53500000D02*
X195520000Y-55400000D01*
G75*
G02*
X195500000Y-55420000I-20000J0D01*
G01*
X193600000Y-55420000D01*
G75*
G02*
X193580000Y-55400000I0J20000D01*
G01*
X193580000Y-53500000D01*
G75*
G02*
X193600000Y-53480000I20000J0D01*
G01*
X195500000Y-53480000D01*
G75*
G02*
X195520000Y-53500000I0J-20000D01*
G01*
G37*
D10*
X113270000Y-133500000D03*
X109460000Y-133500000D03*
X105650000Y-133500000D03*
G36*
G01*
X100820000Y-134500000D02*
X100820000Y-132500000D01*
G75*
G02*
X100840000Y-132480000I20000J0D01*
G01*
X102840000Y-132480000D01*
G75*
G02*
X102860000Y-132500000I0J-20000D01*
G01*
X102860000Y-134500000D01*
G75*
G02*
X102840000Y-134520000I-20000J0D01*
G01*
X100840000Y-134520000D01*
G75*
G02*
X100820000Y-134500000I0J20000D01*
G01*
G37*
D19*
X92450000Y-54200000D03*
X92450000Y-134200000D03*
X207400000Y-134150000D03*
X207400000Y-54200000D03*
M02*
