G04 #@! TF.GenerationSoftware,KiCad,Pcbnew,7.0.9-7.0.9~ubuntu23.04.1*
G04 #@! TF.CreationDate,2024-02-02T14:18:09+00:00*
G04 #@! TF.ProjectId,ControllerCircuit,436f6e74-726f-46c6-9c65-724369726375,rev?*
G04 #@! TF.SameCoordinates,Original*
G04 #@! TF.FileFunction,Soldermask,Top*
G04 #@! TF.FilePolarity,Negative*
%FSLAX46Y46*%
G04 Gerber Fmt 4.6, Leading zero omitted, Abs format (unit mm)*
G04 Created by KiCad (PCBNEW 7.0.9-7.0.9~ubuntu23.04.1) date 2024-02-02 14:18:09*
%MOMM*%
%LPD*%
G01*
G04 APERTURE LIST*
G04 Aperture macros list*
%AMRoundRect*
0 Rectangle with rounded corners*
0 $1 Rounding radius*
0 $2 $3 $4 $5 $6 $7 $8 $9 X,Y pos of 4 corners*
0 Add a 4 corners polygon primitive as box body*
4,1,4,$2,$3,$4,$5,$6,$7,$8,$9,$2,$3,0*
0 Add four circle primitives for the rounded corners*
1,1,$1+$1,$2,$3*
1,1,$1+$1,$4,$5*
1,1,$1+$1,$6,$7*
1,1,$1+$1,$8,$9*
0 Add four rect primitives between the rounded corners*
20,1,$1+$1,$2,$3,$4,$5,0*
20,1,$1+$1,$4,$5,$6,$7,0*
20,1,$1+$1,$6,$7,$8,$9,0*
20,1,$1+$1,$8,$9,$2,$3,0*%
%AMFreePoly0*
4,1,19,0.500000,-0.750000,0.000000,-0.750000,0.000000,-0.744911,-0.071157,-0.744911,-0.207708,-0.704816,-0.327430,-0.627875,-0.420627,-0.520320,-0.479746,-0.390866,-0.500000,-0.250000,-0.500000,0.250000,-0.479746,0.390866,-0.420627,0.520320,-0.327430,0.627875,-0.207708,0.704816,-0.071157,0.744911,0.000000,0.744911,0.000000,0.750000,0.500000,0.750000,0.500000,-0.750000,0.500000,-0.750000,
$1*%
%AMFreePoly1*
4,1,19,0.000000,0.744911,0.071157,0.744911,0.207708,0.704816,0.327430,0.627875,0.420627,0.520320,0.479746,0.390866,0.500000,0.250000,0.500000,-0.250000,0.479746,-0.390866,0.420627,-0.520320,0.327430,-0.627875,0.207708,-0.704816,0.071157,-0.744911,0.000000,-0.744911,0.000000,-0.750000,-0.500000,-0.750000,-0.500000,0.750000,0.000000,0.750000,0.000000,0.744911,0.000000,0.744911,
$1*%
G04 Aperture macros list end*
%ADD10C,4.000000*%
%ADD11RoundRect,0.200000X-0.200000X-0.275000X0.200000X-0.275000X0.200000X0.275000X-0.200000X0.275000X0*%
%ADD12RoundRect,0.225000X-0.225000X-0.250000X0.225000X-0.250000X0.225000X0.250000X-0.225000X0.250000X0*%
%ADD13RoundRect,0.150000X-0.825000X-0.150000X0.825000X-0.150000X0.825000X0.150000X-0.825000X0.150000X0*%
%ADD14R,2.200000X2.200000*%
%ADD15C,2.200000*%
%ADD16R,1.800000X1.800000*%
%ADD17C,1.800000*%
%ADD18C,1.560000*%
%ADD19R,1.700000X1.700000*%
%ADD20O,1.700000X1.700000*%
%ADD21R,1.980000X1.980000*%
%ADD22C,2.000000*%
%ADD23R,1.900000X2.200000*%
%ADD24RoundRect,0.237500X-0.287500X-0.237500X0.287500X-0.237500X0.287500X0.237500X-0.287500X0.237500X0*%
%ADD25RoundRect,0.250000X-0.350000X-0.625000X0.350000X-0.625000X0.350000X0.625000X-0.350000X0.625000X0*%
%ADD26O,1.200000X1.750000*%
%ADD27RoundRect,0.250000X0.600000X-0.400000X0.600000X0.400000X-0.600000X0.400000X-0.600000X-0.400000X0*%
%ADD28RoundRect,0.150000X0.587500X0.150000X-0.587500X0.150000X-0.587500X-0.150000X0.587500X-0.150000X0*%
%ADD29RoundRect,0.200000X-0.275000X0.200000X-0.275000X-0.200000X0.275000X-0.200000X0.275000X0.200000X0*%
%ADD30RoundRect,0.250000X0.262500X0.450000X-0.262500X0.450000X-0.262500X-0.450000X0.262500X-0.450000X0*%
%ADD31RoundRect,0.150000X0.150000X-0.587500X0.150000X0.587500X-0.150000X0.587500X-0.150000X-0.587500X0*%
%ADD32RoundRect,0.250000X-0.712500X-2.475000X0.712500X-2.475000X0.712500X2.475000X-0.712500X2.475000X0*%
%ADD33RoundRect,0.250000X-0.537500X-0.425000X0.537500X-0.425000X0.537500X0.425000X-0.537500X0.425000X0*%
%ADD34R,1.500000X2.000000*%
%ADD35R,3.800000X2.000000*%
%ADD36R,0.640000X2.000000*%
%ADD37R,1.900000X1.900000*%
%ADD38C,1.900000*%
%ADD39RoundRect,0.200000X0.200000X0.275000X-0.200000X0.275000X-0.200000X-0.275000X0.200000X-0.275000X0*%
%ADD40R,1.000000X1.500000*%
%ADD41FreePoly0,180.000000*%
%ADD42FreePoly1,180.000000*%
%ADD43RoundRect,0.150000X-0.150000X0.587500X-0.150000X-0.587500X0.150000X-0.587500X0.150000X0.587500X0*%
%ADD44RoundRect,0.150000X-0.150000X0.662500X-0.150000X-0.662500X0.150000X-0.662500X0.150000X0.662500X0*%
%ADD45RoundRect,0.100000X-0.637500X-0.100000X0.637500X-0.100000X0.637500X0.100000X-0.637500X0.100000X0*%
%ADD46RoundRect,0.150000X-0.587500X-0.150000X0.587500X-0.150000X0.587500X0.150000X-0.587500X0.150000X0*%
%ADD47RoundRect,0.250000X0.325000X0.650000X-0.325000X0.650000X-0.325000X-0.650000X0.325000X-0.650000X0*%
%ADD48R,1.500000X0.800000*%
%ADD49R,2.000000X1.450000*%
%ADD50R,0.800000X0.300000*%
%ADD51C,3.200000*%
%ADD52R,2.000000X1.100000*%
%ADD53RoundRect,0.225000X0.225000X0.250000X-0.225000X0.250000X-0.225000X-0.250000X0.225000X-0.250000X0*%
%ADD54RoundRect,0.250000X-0.250000X-0.475000X0.250000X-0.475000X0.250000X0.475000X-0.250000X0.475000X0*%
%ADD55RoundRect,0.250000X-0.262500X-0.450000X0.262500X-0.450000X0.262500X0.450000X-0.262500X0.450000X0*%
%ADD56RoundRect,0.075000X-0.650000X-0.075000X0.650000X-0.075000X0.650000X0.075000X-0.650000X0.075000X0*%
%ADD57RoundRect,0.250000X-0.400000X-0.600000X0.400000X-0.600000X0.400000X0.600000X-0.400000X0.600000X0*%
G04 APERTURE END LIST*
D10*
X207400000Y-54200000D03*
X207400000Y-134150000D03*
D11*
X99175000Y-122200000D03*
X100825000Y-122200000D03*
D12*
X145125000Y-115100000D03*
X146675000Y-115100000D03*
X139575000Y-110750000D03*
X141125000Y-110750000D03*
D11*
X135765000Y-122330000D03*
X137415000Y-122330000D03*
D13*
X135175000Y-113845000D03*
X135175000Y-115115000D03*
X135175000Y-116385000D03*
X135175000Y-117655000D03*
X140125000Y-117655000D03*
X140125000Y-116385000D03*
X140125000Y-115115000D03*
X140125000Y-113845000D03*
D14*
X156999188Y-130500000D03*
D15*
X160809188Y-130500000D03*
X164619188Y-130500000D03*
X168429188Y-130500000D03*
D16*
X92256394Y-71430000D03*
D17*
X92256394Y-73970000D03*
D18*
X92256394Y-76510000D03*
X92256394Y-79050000D03*
X92256394Y-81590000D03*
X92256394Y-84130000D03*
X92256394Y-86670000D03*
X92256394Y-89210000D03*
X92256394Y-91750000D03*
X92256394Y-94290000D03*
X92256394Y-96830000D03*
X92256394Y-99370000D03*
X92256394Y-101910000D03*
X92256394Y-104450000D03*
X92256394Y-106990000D03*
X92256394Y-109530000D03*
X92256394Y-112070000D03*
D17*
X92256394Y-114610000D03*
X92256394Y-117150000D03*
X117656394Y-71430000D03*
X117656394Y-73970000D03*
D18*
X117656394Y-76510000D03*
X117656394Y-79050000D03*
X117656394Y-81590000D03*
X117656394Y-84130000D03*
X117656394Y-86670000D03*
X117656394Y-89210000D03*
D17*
X117656394Y-91750000D03*
X117656394Y-94290000D03*
D18*
X117656394Y-96830000D03*
X117656394Y-99370000D03*
X117656394Y-101910000D03*
X117656394Y-104450000D03*
X117656394Y-106990000D03*
X117656394Y-109530000D03*
X117656394Y-112070000D03*
D17*
X117656394Y-114610000D03*
X117656394Y-117150000D03*
D14*
X100849188Y-130500000D03*
D15*
X104659188Y-130500000D03*
X108469188Y-130500000D03*
X112279188Y-130500000D03*
D14*
X140599188Y-130500000D03*
D15*
X144409188Y-130500000D03*
X148219188Y-130500000D03*
X152029188Y-130500000D03*
D19*
X131950000Y-131750000D03*
D20*
X131950000Y-134290000D03*
X129410000Y-131750000D03*
X129410000Y-134290000D03*
X126870000Y-131750000D03*
X126870000Y-134290000D03*
D21*
X198015000Y-75300000D03*
D22*
X198015000Y-63300000D03*
D23*
X200015000Y-69300000D03*
X185815000Y-75300000D03*
X185815000Y-63300000D03*
D11*
X179675000Y-54300000D03*
X181325000Y-54300000D03*
D24*
X179475000Y-52450000D03*
X181225000Y-52450000D03*
D25*
X117200000Y-130250000D03*
D26*
X119200000Y-130250000D03*
D11*
X99175000Y-120500000D03*
X100825000Y-120500000D03*
X99175000Y-123900000D03*
X100825000Y-123900000D03*
D10*
X92450000Y-54200000D03*
X92450000Y-134200000D03*
D27*
X204300000Y-73900000D03*
X204300000Y-70400000D03*
D28*
X206487500Y-68350000D03*
X206487500Y-66450000D03*
X204612500Y-67400000D03*
D29*
X206700000Y-70325000D03*
X206700000Y-71975000D03*
D11*
X205725000Y-64300000D03*
X207375000Y-64300000D03*
D30*
X182042500Y-115120000D03*
X180217500Y-115120000D03*
D11*
X174925000Y-123500000D03*
X176575000Y-123500000D03*
D29*
X169050000Y-69675000D03*
X169050000Y-71325000D03*
D31*
X170900000Y-69437500D03*
X172800000Y-69437500D03*
X171850000Y-67562500D03*
D32*
X172112500Y-62950000D03*
X178887500Y-62950000D03*
D33*
X176766700Y-70164000D03*
X179641700Y-70164000D03*
X176762500Y-67800000D03*
X179637500Y-67800000D03*
D34*
X179124200Y-72879000D03*
X176824200Y-72879000D03*
D35*
X176824200Y-79179000D03*
D34*
X174524200Y-72879000D03*
D36*
X110730000Y-67350000D03*
X113270000Y-67350000D03*
X113270000Y-61050000D03*
X110730000Y-61050000D03*
D11*
X116575000Y-67250000D03*
X118225000Y-67250000D03*
D37*
X195225000Y-54450000D03*
D38*
X190225000Y-54450000D03*
X185225000Y-54450000D03*
D39*
X147625000Y-116800000D03*
X145975000Y-116800000D03*
D11*
X129625000Y-104500000D03*
X131275000Y-104500000D03*
D12*
X157575000Y-116750000D03*
X159125000Y-116750000D03*
D40*
X169400000Y-117600000D03*
X170700000Y-117600000D03*
D39*
X101575000Y-126000000D03*
X99925000Y-126000000D03*
D36*
X102480000Y-67350000D03*
X105020000Y-67350000D03*
X105020000Y-61050000D03*
X102480000Y-61050000D03*
D14*
X113200812Y-57950000D03*
D15*
X109390812Y-57950000D03*
X105580812Y-57950000D03*
X101770812Y-57950000D03*
D41*
X140640000Y-122340000D03*
D42*
X139340000Y-122340000D03*
D43*
X168740000Y-124062500D03*
X166840000Y-124062500D03*
X167790000Y-125937500D03*
D14*
X173590812Y-57950000D03*
D15*
X169780812Y-57950000D03*
D44*
X181693320Y-117393000D03*
X180423320Y-117393000D03*
X180423320Y-123768000D03*
X181693320Y-123768000D03*
D19*
X190550000Y-112700000D03*
D20*
X193090000Y-112700000D03*
X195630000Y-112700000D03*
X198170000Y-112700000D03*
X200710000Y-112700000D03*
X203250000Y-112700000D03*
X205790000Y-112700000D03*
D12*
X186875000Y-83850000D03*
X188425000Y-83850000D03*
X185916000Y-121871000D03*
X187466000Y-121871000D03*
D11*
X189295000Y-125173000D03*
X190945000Y-125173000D03*
X185846000Y-125173000D03*
X187496000Y-125173000D03*
D22*
X188850000Y-136400000D03*
X188850000Y-129900000D03*
X193350000Y-136400000D03*
X193350000Y-129900000D03*
X196500000Y-136400000D03*
X196500000Y-129900000D03*
X201000000Y-136400000D03*
X201000000Y-129900000D03*
D11*
X196661000Y-125173000D03*
X198311000Y-125173000D03*
D12*
X193282000Y-121871000D03*
X194832000Y-121871000D03*
D11*
X193212000Y-125173000D03*
X194862000Y-125173000D03*
D45*
X145887500Y-119025000D03*
X145887500Y-119675000D03*
X145887500Y-120325000D03*
X145887500Y-120975000D03*
X145887500Y-121625000D03*
X145887500Y-122275000D03*
X145887500Y-122925000D03*
X145887500Y-123575000D03*
X145887500Y-124225000D03*
X145887500Y-124875000D03*
X145887500Y-125525000D03*
X145887500Y-126175000D03*
X151612500Y-126175000D03*
X151612500Y-125525000D03*
X151612500Y-124875000D03*
X151612500Y-124225000D03*
X151612500Y-123575000D03*
X151612500Y-122925000D03*
X151612500Y-122275000D03*
X151612500Y-121625000D03*
X151612500Y-120975000D03*
X151612500Y-120325000D03*
X151612500Y-119675000D03*
X151612500Y-119025000D03*
D46*
X174832500Y-118425000D03*
X174832500Y-120325000D03*
X176707500Y-119375000D03*
D11*
X174925000Y-115120000D03*
X176575000Y-115120000D03*
D47*
X157925000Y-121400000D03*
X154975000Y-121400000D03*
D11*
X91675000Y-68350000D03*
X93325000Y-68350000D03*
D48*
X187350000Y-96805000D03*
X187350000Y-95705000D03*
X187350000Y-94605000D03*
X187350000Y-93505000D03*
X187350000Y-92405000D03*
X187350000Y-91305000D03*
X187350000Y-90205000D03*
X187350000Y-89105000D03*
D49*
X184750000Y-100475000D03*
X193050000Y-100475000D03*
X193050000Y-86725000D03*
X184750000Y-86725000D03*
D22*
X98050000Y-53900000D03*
X96050000Y-127850000D03*
X201950000Y-126150000D03*
X202500000Y-57000000D03*
D12*
X167275000Y-112800000D03*
X168825000Y-112800000D03*
D50*
X162300000Y-112270000D03*
X162300000Y-112770000D03*
X162300000Y-113270000D03*
X162300000Y-113770000D03*
X165400000Y-113770000D03*
X165400000Y-113270000D03*
X165400000Y-112770000D03*
X165400000Y-112270000D03*
D13*
X161475000Y-116195000D03*
X161475000Y-117465000D03*
X161475000Y-118735000D03*
X161475000Y-120005000D03*
X166425000Y-120005000D03*
X166425000Y-118735000D03*
X166425000Y-117465000D03*
X166425000Y-116195000D03*
D39*
X170775000Y-120800000D03*
X169125000Y-120800000D03*
D51*
X205300000Y-124375000D03*
X205300000Y-80375000D03*
X129300000Y-124375000D03*
X129300000Y-80375000D03*
D19*
X124300000Y-118875000D03*
D20*
X124300000Y-116335000D03*
X124300000Y-113795000D03*
X124300000Y-111255000D03*
X124300000Y-108715000D03*
X124300000Y-106175000D03*
X124300000Y-103635000D03*
X124300000Y-101095000D03*
X124300000Y-98555000D03*
X124300000Y-96015000D03*
X124300000Y-93475000D03*
X124300000Y-90935000D03*
X124300000Y-88395000D03*
X124300000Y-85855000D03*
X205800000Y-105875000D03*
X205800000Y-103335000D03*
X205800000Y-100795000D03*
X205800000Y-98255000D03*
D12*
X161375000Y-109700000D03*
X162925000Y-109700000D03*
D52*
X96850000Y-123900000D03*
X96850000Y-122200000D03*
X96850000Y-120500000D03*
X92050000Y-120500000D03*
X92050000Y-122200000D03*
X92050000Y-123900000D03*
D11*
X181925000Y-83820000D03*
X183575000Y-83820000D03*
X91600000Y-64950000D03*
X93250000Y-64950000D03*
D39*
X96775000Y-64950000D03*
X95125000Y-64950000D03*
X100275000Y-64950000D03*
X98625000Y-64950000D03*
D53*
X136075000Y-67850000D03*
X134525000Y-67850000D03*
D14*
X138350812Y-57950000D03*
D15*
X134540812Y-57950000D03*
X130730812Y-57950000D03*
X126920812Y-57950000D03*
D53*
X136065000Y-65950000D03*
X134515000Y-65950000D03*
D54*
X134290000Y-63750000D03*
X136190000Y-63750000D03*
D55*
X138037500Y-61750000D03*
X139862500Y-61750000D03*
X134327500Y-61750000D03*
X136152500Y-61750000D03*
D56*
X127200000Y-60750000D03*
X127200000Y-61250000D03*
X127200000Y-61750000D03*
X127200000Y-62250000D03*
X127200000Y-62750000D03*
X131600000Y-62750000D03*
X131600000Y-62250000D03*
X131600000Y-61750000D03*
X131600000Y-61250000D03*
X131600000Y-60750000D03*
D21*
X158850000Y-75250000D03*
D22*
X158850000Y-63250000D03*
D23*
X160850000Y-69250000D03*
X146650000Y-75250000D03*
X146650000Y-63250000D03*
D31*
X154475000Y-81087500D03*
X156375000Y-81087500D03*
X155425000Y-79212500D03*
D39*
X152550000Y-81000000D03*
X150900000Y-81000000D03*
D29*
X158475000Y-79345000D03*
X158475000Y-80995000D03*
D24*
X160175000Y-53200000D03*
X161925000Y-53200000D03*
D57*
X148675000Y-78700000D03*
X152175000Y-78700000D03*
D37*
X156060000Y-54400000D03*
D38*
X151060000Y-54400000D03*
X146060000Y-54400000D03*
D11*
X160275000Y-55200000D03*
X161925000Y-55200000D03*
D39*
X132210000Y-66000000D03*
X130560000Y-66000000D03*
X128705000Y-66050000D03*
X127055000Y-66050000D03*
D14*
X173399188Y-130500000D03*
D15*
X177209188Y-130500000D03*
X181019188Y-130500000D03*
X184829188Y-130500000D03*
M02*
