M48
; DRILL file {KiCad 5.1.9+dfsg1-1~bpo10+1} date Mon May 17 08:40:46 2021
; FORMAT={-:-/ absolute / inch / decimal}
; #@! TF.CreationDate,2021-05-17T08:40:46+00:00
; #@! TF.GenerationSoftware,Kicad,Pcbnew,5.1.9+dfsg1-1~bpo10+1
FMAT,2
INCH
T1C0.0157
T2C0.0295
T3C0.0394
T4C0.0409
T5C0.0472
T6C0.0512
T7C0.0520
T8C0.0551
T9C0.1260
T10C0.1575
%
G90
G05
T1
X3.7167Y-3.6947
X3.7846Y-2.5894
X3.824Y-2.5894
X3.8614Y-2.5894
X3.8822Y-3.046
X3.9203Y-3.4143
X3.9203Y-3.4536
X3.9216Y-3.046
X3.9597Y-3.4143
X3.9597Y-3.4536
X3.9808Y-5.063
X3.9917Y-4.4862
X3.9917Y-4.5255
X3.9971Y-3.4143
X3.9971Y-3.4536
X4.0201Y-5.063
X4.0311Y-4.4862
X4.0311Y-4.5255
X4.0575Y-5.063
X4.0925Y-2.8717
X4.2249Y-4.4966
X4.2249Y-4.536
X4.2643Y-4.4966
X4.2643Y-4.536
X4.2795Y-3.6287
X4.2795Y-3.668
X4.3189Y-3.6287
X4.3189Y-3.668
X4.3189Y-4.0903
X4.3189Y-4.1296
X4.3231Y-3.839
X4.3231Y-3.8783
X4.3392Y-4.2537
X4.3563Y-3.6287
X4.3563Y-3.668
X4.3568Y-4.5367
X4.3583Y-4.0903
X4.3583Y-4.1296
X4.3625Y-3.839
X4.3625Y-3.8783
X4.376Y-4.9839
X4.3786Y-4.2537
X4.3811Y-4.8069
X4.3839Y-2.7374
X4.3839Y-2.7768
X4.3922Y-3.2059
X4.3962Y-4.5367
X4.4232Y-2.7374
X4.4232Y-2.7768
X4.4232Y-4.7323
X4.4606Y-2.7374
X4.4606Y-2.7768
X4.4654Y-3.2587
X4.4665Y-3.5244
X4.4967Y-3.6633
X4.4967Y-3.7026
X4.5107Y-4.9666
X4.5138Y-4.8823
X4.5138Y-5.063
X4.5261Y-4.5286
X4.5319Y-4.0601
X4.5369Y-3.1834
X4.539Y-4.8154
X4.5464Y-2.5654
X4.6717Y-4.7248
X4.724Y-4.7835
X4.7283Y-4.5772
X4.7402Y-4.8685
X4.7532Y-4.4711
X4.7532Y-4.5105
X4.7579Y-2.815
X4.7618Y-3.4764
X4.7618Y-3.5157
X4.7715Y-4.7925
X4.7819Y-4.8622
X4.8248Y-2.6323
X4.8248Y-2.6717
X4.8382Y-4.8744
X4.8642Y-2.6323
X4.8642Y-2.6717
X4.9016Y-2.6323
X4.9016Y-2.6717
X4.955Y-4.7685
X4.9799Y-4.5209
X5.0161Y-4.6815
X5.0256Y-4.4803
X5.0343Y-3.8992
X5.0382Y-4.8177
X5.0512Y-3.8573
X5.0925Y-4.3031
X5.1014Y-4.0157
X5.1014Y-4.055
X5.1081Y-4.613
X5.1285Y-4.7026
X5.1433Y-4.2252
X5.1921Y-5.0082
X5.2312Y-4.3609
X5.2312Y-4.4002
X5.237Y-4.6965
X5.2502Y-3.4866
X5.2525Y-4.0199
X5.2525Y-4.0592
X5.2684Y-4.7203
X5.3524Y-4.2598
X5.3705Y-4.3634
X5.376Y-3.1835
X5.376Y-3.2229
X5.3907Y-4.5902
X5.4071Y-3.4727
X5.4154Y-3.1835
X5.4154Y-3.2229
X5.4528Y-3.1835
X5.4528Y-3.2229
X5.4551Y-4.7118
X5.4882Y-4.3268
X5.4882Y-4.3661
X5.5026Y-4.0233
X5.5026Y-4.0626
X5.5226Y-4.5016
X5.5276Y-4.3268
X5.5276Y-4.3661
X5.5304Y-3.6086
X5.5308Y-3.6589
X5.542Y-4.0233
X5.542Y-4.0626
X5.5576Y-3.7867
X5.5618Y-4.5989
X5.562Y-4.5016
X5.5698Y-3.6086
X5.5702Y-3.6589
X5.597Y-3.7867
X5.6004Y-4.9622
X5.6072Y-3.6086
X5.6076Y-3.6589
X5.6134Y-4.6606
X5.6533Y-4.4193
X5.6823Y-4.6035
X5.7228Y-4.4705
X5.7248Y-4.5161
X5.7344Y-4.003
X5.7344Y-4.0423
X5.7848Y-4.3957
X5.8094Y-4.8618
X5.8094Y-4.9248
X5.8109Y-3.727
X5.8242Y-4.3957
X5.8535Y-4.8618
X5.8599Y-4.5409
X5.8635Y-4.4845
X5.8878Y-3.4984
X5.8878Y-3.5378
X5.9008Y-4.8618
X5.9252Y-2.3819
X5.9272Y-3.4984
X5.9272Y-3.5378
X5.9457Y-3.1874
X5.9555Y-4.5902
X5.9646Y-3.4984
X5.9646Y-3.5378
X5.9646Y-2.3819
X5.9851Y-3.1876
X5.9905Y-4.9844
X6.0138Y-2.5394
X6.0289Y-3.5985
X6.0299Y-4.9844
X6.0433Y-2.8681
X6.0711Y-4.3969
X6.0982Y-4.6824
X6.0986Y-4.6365
X6.0996Y-4.3283
X6.1105Y-4.3969
X6.1125Y-4.5764
X6.125Y-4.765
X6.1366Y-4.1293
X6.1674Y-3.4938
X6.1835Y-3.2677
X6.1949Y-3.4547
X6.2004Y-2.5949
X6.2106Y-2.4449
X6.2106Y-2.4803
X6.2229Y-3.2679
X6.2274Y-4.4429
X6.2358Y-2.5949
X6.25Y-2.4449
X6.25Y-2.4803
X6.2559Y-3.3862
X6.2626Y-3.694
X6.2626Y-3.7334
X6.2732Y-4.7882
X6.2817Y-4.8564
X6.2817Y-4.8958
X6.2972Y-4.6417
X6.3Y-3.694
X6.3Y-3.7334
X6.3228Y-4.4535
X6.3572Y-4.2314
X6.3634Y-4.4535
X6.3701Y-4.2717
X6.376Y-2.9398
X6.4154Y-2.9399
X6.4179Y-5.0285
X6.4179Y-5.0678
X6.4409Y-3.7874
X6.4819Y-4.353
X6.4821Y-4.3128
X6.4823Y-4.2244
X6.4823Y-4.2697
X6.4924Y-4.6116
X6.4949Y-3.8594
X6.4949Y-3.8987
X6.5197Y-4.0807
X6.522Y-4.528
X6.5256Y-4.122
X6.5342Y-3.8594
X6.5342Y-3.8987
X6.5702Y-5.0786
X6.5716Y-3.8594
X6.5716Y-3.8987
X6.5846Y-2.748
X6.5858Y-4.8016
X6.5999Y-3.2999
X6.5999Y-3.3393
X6.6019Y-3.3806
X6.6019Y-3.42
X6.6096Y-5.0786
X6.628Y-4.5409
X6.6373Y-3.2999
X6.6373Y-3.3393
X6.6929Y-4.124
X6.7207Y-4.8718
X6.7207Y-4.9112
X6.7217Y-4.4441
X6.8048Y-3.5252
X6.813Y-2.7402
X6.8371Y-3.0419
X6.8397Y-4.4911
X6.8397Y-4.5305
X6.8539Y-3.7257
X6.8563Y-2.7402
X6.879Y-4.4911
X6.879Y-4.5305
X6.9161Y-3.1677
X6.9326Y-3.5212
X6.9449Y-3.7126
X6.9555Y-3.1679
X6.9949Y-3.1679
X7.0003Y-3.9265
X7.0097Y-3.6062
X7.0323Y-3.1679
X7.0397Y-3.9265
X7.061Y-3.3833
X7.0719Y-2.6998
X7.0719Y-2.7392
X7.0771Y-3.9265
X7.1093Y-2.6998
X7.1093Y-2.7392
X7.1298Y-3.6822
X7.1323Y-4.2016
X7.1345Y-3.5719
X7.1423Y-4.1154
X7.1575Y-3.2823
X7.198Y-3.2835
X7.2138Y-4.0888
X7.2287Y-4.3732
X7.2287Y-4.4126
X7.2681Y-4.3732
X7.2681Y-4.4126
X7.2934Y-3.7044
X7.3055Y-4.3732
X7.3055Y-4.4126
X7.3328Y-3.7044
X7.3488Y-3.3496
X7.3702Y-3.7044
X7.4457Y-3.1579
X7.4851Y-3.158
X7.5071Y-4.8415
X7.5071Y-4.8809
X7.5244Y-3.158
X7.5464Y-4.8415
X7.5464Y-4.8809
X7.5618Y-3.158
X7.5838Y-4.8415
X7.5838Y-4.8809
X7.5973Y-3.158
X7.6031Y-3.5362
X7.6347Y-3.158
X7.7513Y-3.8532
X7.7513Y-3.8925
X7.7907Y-3.8532
X7.7907Y-3.8925
X7.8012Y-3.4705
X7.8189Y-3.3831
X7.8281Y-3.8532
X7.8281Y-3.8925
X7.875Y-3.5803
X7.8878Y-4.0591
X7.8913Y-3.6787
X7.9002Y-3.1439
X7.9002Y-3.1833
X7.9396Y-3.1439
X7.9396Y-3.1833
X7.977Y-3.1439
X7.977Y-3.1833
X7.9823Y-2.6476
X7.9823Y-2.687
X8.002Y-2.4705
X8.002Y-2.5098
X8.082Y-4.3177
X8.082Y-4.3571
X8.1214Y-4.3177
X8.1214Y-4.3571
X8.1378Y-2.8386
X8.1535Y-4.7063
X8.1543Y-4.7462
X8.1545Y-2.9754
X8.1545Y-3.0148
X8.1588Y-4.3177
X8.1588Y-4.3571
X8.1937Y-4.7068
X8.1937Y-4.7462
X8.1939Y-2.9754
X8.1939Y-3.0148
X8.2311Y-4.7068
X8.2311Y-4.7462
X8.2313Y-2.9754
X8.2313Y-3.0148
T2
X6.824Y-5.1504
X6.9028Y-5.1504
X7.1046Y-5.1516
X7.1833Y-5.1516
T3
X3.6459Y-2.4249
X3.7459Y-2.4249
X3.8459Y-2.4249
X4.6264Y-5.0925
X4.7264Y-5.0925
X4.8937Y-3.3801
X4.8937Y-3.4801
X4.8937Y-3.5801
X4.8937Y-3.6801
X4.8937Y-3.7801
X4.8937Y-3.8801
X4.8937Y-3.9801
X4.8937Y-4.0801
X4.8937Y-4.1801
X4.8937Y-4.2801
X4.8937Y-4.3801
X4.8937Y-4.4801
X4.8937Y-4.5801
X4.8937Y-4.6801
X4.9949Y-5.187
X4.9949Y-5.287
X5.0949Y-5.187
X5.0949Y-5.287
X5.1949Y-5.187
X5.1949Y-5.287
X5.2024Y-4.5079
X5.2024Y-4.6079
X6.7155Y-3.3163
X6.7155Y-3.4163
X6.7155Y-3.5163
X6.7155Y-3.6163
X6.7155Y-3.7163
X6.7155Y-3.8163
X6.7866Y-3.9837
X6.8866Y-3.9837
X7.2274Y-3.9837
X7.2288Y-3.4231
X7.2288Y-3.5231
X7.2288Y-3.6231
X7.3274Y-3.9837
X7.3288Y-3.4231
X7.3288Y-3.5231
X7.3288Y-3.6231
X8.1024Y-3.8683
X8.1024Y-3.9683
X8.1024Y-4.0683
X8.1024Y-4.1683
T4
X3.6321Y-2.8122
X3.6321Y-2.9122
X3.6321Y-3.0122
X3.6321Y-3.1122
X3.6321Y-3.2122
X3.6321Y-3.3122
X3.6321Y-3.4122
X3.6321Y-3.5122
X3.6321Y-3.6122
X3.6321Y-3.7122
X3.6321Y-3.8122
X3.6321Y-3.9122
X3.6321Y-4.0122
X3.6321Y-4.1122
X3.6321Y-4.2122
X3.6321Y-4.3122
X3.6321Y-4.4122
X3.6321Y-4.5122
X3.6321Y-4.6122
X4.6321Y-2.8122
X4.6321Y-2.9122
X4.6321Y-3.0122
X4.6321Y-3.1122
X4.6321Y-3.2122
X4.6321Y-3.3122
X4.6321Y-3.4122
X4.6321Y-3.5122
X4.6321Y-3.6122
X4.6321Y-3.7122
X4.6321Y-3.8122
X4.6321Y-3.9122
X4.6321Y-4.0122
X4.6321Y-4.1122
X4.6321Y-4.2122
X4.6321Y-4.3122
X4.6321Y-4.4122
X4.6321Y-4.5122
X4.6321Y-4.6122
T5
X5.1844Y-2.1437
X5.3813Y-2.1437
X5.5781Y-2.1437
X7.2657Y-2.1437
X7.4626Y-2.1437
X7.6594Y-2.1437
T6
X4.0094Y-5.2559
X4.1594Y-5.2559
X4.1654Y-2.1075
X4.3094Y-5.2559
X4.3154Y-2.1075
X4.4594Y-5.2559
X4.4654Y-2.1075
X4.6154Y-2.1075
X5.5286Y-5.256
X5.6786Y-5.256
X5.8286Y-5.256
X5.9786Y-5.256
X6.1909Y-5.2555
X6.3079Y-2.1055
X6.3409Y-5.2555
X6.4579Y-2.1055
X6.4909Y-5.2555
X6.6079Y-2.1055
X6.6409Y-5.2555
X6.7579Y-2.1055
X7.3413Y-4.6598
X7.4913Y-4.6598
X7.6413Y-4.6598
X7.7913Y-4.6598
T7
X5.688Y-2.4921
X5.688Y-2.9646
X7.7693Y-2.4921
X7.7693Y-2.9646
T8
X6.2488Y-2.7339
X6.2488Y-3.1339
T9
X5.0906Y-3.1644
X5.0906Y-4.8967
X8.0827Y-3.1644
X8.0827Y-4.8967
T10
X3.6398Y-2.1339
X3.6398Y-5.2835
X8.1654Y-2.1339
X8.1654Y-5.2815
T5
G00X5.2077Y-2.4945
M15
G01X5.2077Y-2.4898
M16
G05
G00X5.2077Y-2.9669
M15
G01X5.2077Y-2.9622
M16
G05
G00X5.7667Y-2.7303
M15
G01X5.7667Y-2.7264
M16
G05
G00X7.289Y-2.4945
M15
G01X7.289Y-2.4898
M16
G05
G00X7.289Y-2.9669
M15
G01X7.289Y-2.9622
M16
G05
G00X7.848Y-2.7303
M15
G01X7.848Y-2.7264
M16
G05
T0
M30
