G04 #@! TF.GenerationSoftware,KiCad,Pcbnew,5.1.9+dfsg1-1+deb11u1*
G04 #@! TF.CreationDate,2023-01-11T13:09:34+00:00*
G04 #@! TF.ProjectId,ControllerCircuit,436f6e74-726f-46c6-9c65-724369726375,rev?*
G04 #@! TF.SameCoordinates,Original*
G04 #@! TF.FileFunction,Soldermask,Top*
G04 #@! TF.FilePolarity,Negative*
%FSLAX46Y46*%
G04 Gerber Fmt 4.6, Leading zero omitted, Abs format (unit mm)*
G04 Created by KiCad (PCBNEW 5.1.9+dfsg1-1+deb11u1) date 2023-01-11 13:09:34*
%MOMM*%
%LPD*%
G01*
G04 APERTURE LIST*
%ADD10C,1.800000*%
%ADD11C,1.560000*%
%ADD12R,1.800000X1.800000*%
%ADD13R,2.000000X1.450000*%
%ADD14R,1.500000X0.800000*%
%ADD15C,0.100000*%
%ADD16R,1.000000X1.500000*%
%ADD17C,2.200000*%
%ADD18R,2.000000X2.000000*%
%ADD19C,1.524000*%
%ADD20R,1.200000X0.950000*%
%ADD21R,0.800000X0.300000*%
%ADD22O,1.700000X1.700000*%
%ADD23R,1.700000X1.700000*%
%ADD24C,2.000000*%
%ADD25R,0.900000X0.800000*%
%ADD26R,1.300000X1.700000*%
%ADD27R,1.700000X1.300000*%
%ADD28C,3.200000*%
%ADD29R,0.800000X0.900000*%
%ADD30R,2.000000X0.640000*%
%ADD31R,1.500000X2.000000*%
%ADD32R,3.800000X2.000000*%
%ADD33O,1.200000X1.750000*%
%ADD34R,2.000000X1.100000*%
%ADD35R,1.980000X1.980000*%
%ADD36R,1.900000X2.200000*%
%ADD37C,1.900000*%
%ADD38R,1.900000X1.900000*%
%ADD39C,4.000000*%
G04 APERTURE END LIST*
D10*
X117656394Y-117150000D03*
X117656394Y-114610000D03*
D11*
X117656394Y-112070000D03*
X117656394Y-109530000D03*
X117656394Y-106990000D03*
X117656394Y-104450000D03*
X117656394Y-101910000D03*
X117656394Y-99370000D03*
X117656394Y-96830000D03*
D10*
X117656394Y-94290000D03*
X117656394Y-91750000D03*
D11*
X117656394Y-89210000D03*
X117656394Y-86670000D03*
X117656394Y-84130000D03*
X117656394Y-81590000D03*
X117656394Y-79050000D03*
X117656394Y-76510000D03*
D10*
X117656394Y-73970000D03*
X117656394Y-71430000D03*
X92256394Y-114610000D03*
D11*
X92256394Y-112070000D03*
X92256394Y-109530000D03*
X92256394Y-106990000D03*
X92256394Y-104450000D03*
X92256394Y-101910000D03*
X92256394Y-99370000D03*
X92256394Y-96830000D03*
X92256394Y-94290000D03*
X92256394Y-91750000D03*
X92256394Y-89210000D03*
X92256394Y-86670000D03*
X92256394Y-84130000D03*
X92256394Y-81590000D03*
X92256394Y-79050000D03*
X92256394Y-76510000D03*
D10*
X92256394Y-117150000D03*
X92256394Y-73970000D03*
D12*
X92256394Y-71430000D03*
D13*
X184750000Y-86725000D03*
X193050000Y-86725000D03*
X193050000Y-100475000D03*
X184750000Y-100475000D03*
D14*
X187350000Y-89105000D03*
X187350000Y-90205000D03*
X187350000Y-91305000D03*
X187350000Y-92405000D03*
X187350000Y-93505000D03*
X187350000Y-94605000D03*
X187350000Y-95705000D03*
X187350000Y-96805000D03*
D15*
G36*
X140140000Y-121590000D02*
G01*
X140640000Y-121590000D01*
X140640000Y-121590602D01*
X140664534Y-121590602D01*
X140713365Y-121595412D01*
X140761490Y-121604984D01*
X140808445Y-121619228D01*
X140853778Y-121638005D01*
X140897051Y-121661136D01*
X140937850Y-121688396D01*
X140975779Y-121719524D01*
X141010476Y-121754221D01*
X141041604Y-121792150D01*
X141068864Y-121832949D01*
X141091995Y-121876222D01*
X141110772Y-121921555D01*
X141125016Y-121968510D01*
X141134588Y-122016635D01*
X141139398Y-122065466D01*
X141139398Y-122090000D01*
X141140000Y-122090000D01*
X141140000Y-122590000D01*
X141139398Y-122590000D01*
X141139398Y-122614534D01*
X141134588Y-122663365D01*
X141125016Y-122711490D01*
X141110772Y-122758445D01*
X141091995Y-122803778D01*
X141068864Y-122847051D01*
X141041604Y-122887850D01*
X141010476Y-122925779D01*
X140975779Y-122960476D01*
X140937850Y-122991604D01*
X140897051Y-123018864D01*
X140853778Y-123041995D01*
X140808445Y-123060772D01*
X140761490Y-123075016D01*
X140713365Y-123084588D01*
X140664534Y-123089398D01*
X140640000Y-123089398D01*
X140640000Y-123090000D01*
X140140000Y-123090000D01*
X140140000Y-121590000D01*
G37*
G36*
X139340000Y-123089398D02*
G01*
X139315466Y-123089398D01*
X139266635Y-123084588D01*
X139218510Y-123075016D01*
X139171555Y-123060772D01*
X139126222Y-123041995D01*
X139082949Y-123018864D01*
X139042150Y-122991604D01*
X139004221Y-122960476D01*
X138969524Y-122925779D01*
X138938396Y-122887850D01*
X138911136Y-122847051D01*
X138888005Y-122803778D01*
X138869228Y-122758445D01*
X138854984Y-122711490D01*
X138845412Y-122663365D01*
X138840602Y-122614534D01*
X138840602Y-122590000D01*
X138840000Y-122590000D01*
X138840000Y-122090000D01*
X138840602Y-122090000D01*
X138840602Y-122065466D01*
X138845412Y-122016635D01*
X138854984Y-121968510D01*
X138869228Y-121921555D01*
X138888005Y-121876222D01*
X138911136Y-121832949D01*
X138938396Y-121792150D01*
X138969524Y-121754221D01*
X139004221Y-121719524D01*
X139042150Y-121688396D01*
X139082949Y-121661136D01*
X139126222Y-121638005D01*
X139171555Y-121619228D01*
X139218510Y-121604984D01*
X139266635Y-121595412D01*
X139315466Y-121590602D01*
X139340000Y-121590602D01*
X139340000Y-121590000D01*
X139840000Y-121590000D01*
X139840000Y-123090000D01*
X139340000Y-123090000D01*
X139340000Y-123089398D01*
G37*
D16*
X170700000Y-117600000D03*
X169400000Y-117600000D03*
G36*
G01*
X130890000Y-59640000D02*
X130890000Y-59490000D01*
G75*
G02*
X130965000Y-59415000I75000J0D01*
G01*
X132265000Y-59415000D01*
G75*
G02*
X132340000Y-59490000I0J-75000D01*
G01*
X132340000Y-59640000D01*
G75*
G02*
X132265000Y-59715000I-75000J0D01*
G01*
X130965000Y-59715000D01*
G75*
G02*
X130890000Y-59640000I0J75000D01*
G01*
G37*
G36*
G01*
X130890000Y-60140000D02*
X130890000Y-59990000D01*
G75*
G02*
X130965000Y-59915000I75000J0D01*
G01*
X132265000Y-59915000D01*
G75*
G02*
X132340000Y-59990000I0J-75000D01*
G01*
X132340000Y-60140000D01*
G75*
G02*
X132265000Y-60215000I-75000J0D01*
G01*
X130965000Y-60215000D01*
G75*
G02*
X130890000Y-60140000I0J75000D01*
G01*
G37*
G36*
G01*
X130890000Y-60640000D02*
X130890000Y-60490000D01*
G75*
G02*
X130965000Y-60415000I75000J0D01*
G01*
X132265000Y-60415000D01*
G75*
G02*
X132340000Y-60490000I0J-75000D01*
G01*
X132340000Y-60640000D01*
G75*
G02*
X132265000Y-60715000I-75000J0D01*
G01*
X130965000Y-60715000D01*
G75*
G02*
X130890000Y-60640000I0J75000D01*
G01*
G37*
G36*
G01*
X130890000Y-61140000D02*
X130890000Y-60990000D01*
G75*
G02*
X130965000Y-60915000I75000J0D01*
G01*
X132265000Y-60915000D01*
G75*
G02*
X132340000Y-60990000I0J-75000D01*
G01*
X132340000Y-61140000D01*
G75*
G02*
X132265000Y-61215000I-75000J0D01*
G01*
X130965000Y-61215000D01*
G75*
G02*
X130890000Y-61140000I0J75000D01*
G01*
G37*
G36*
G01*
X130890000Y-61640000D02*
X130890000Y-61490000D01*
G75*
G02*
X130965000Y-61415000I75000J0D01*
G01*
X132265000Y-61415000D01*
G75*
G02*
X132340000Y-61490000I0J-75000D01*
G01*
X132340000Y-61640000D01*
G75*
G02*
X132265000Y-61715000I-75000J0D01*
G01*
X130965000Y-61715000D01*
G75*
G02*
X130890000Y-61640000I0J75000D01*
G01*
G37*
G36*
G01*
X126490000Y-61640000D02*
X126490000Y-61490000D01*
G75*
G02*
X126565000Y-61415000I75000J0D01*
G01*
X127865000Y-61415000D01*
G75*
G02*
X127940000Y-61490000I0J-75000D01*
G01*
X127940000Y-61640000D01*
G75*
G02*
X127865000Y-61715000I-75000J0D01*
G01*
X126565000Y-61715000D01*
G75*
G02*
X126490000Y-61640000I0J75000D01*
G01*
G37*
G36*
G01*
X126490000Y-61140000D02*
X126490000Y-60990000D01*
G75*
G02*
X126565000Y-60915000I75000J0D01*
G01*
X127865000Y-60915000D01*
G75*
G02*
X127940000Y-60990000I0J-75000D01*
G01*
X127940000Y-61140000D01*
G75*
G02*
X127865000Y-61215000I-75000J0D01*
G01*
X126565000Y-61215000D01*
G75*
G02*
X126490000Y-61140000I0J75000D01*
G01*
G37*
G36*
G01*
X126490000Y-60640000D02*
X126490000Y-60490000D01*
G75*
G02*
X126565000Y-60415000I75000J0D01*
G01*
X127865000Y-60415000D01*
G75*
G02*
X127940000Y-60490000I0J-75000D01*
G01*
X127940000Y-60640000D01*
G75*
G02*
X127865000Y-60715000I-75000J0D01*
G01*
X126565000Y-60715000D01*
G75*
G02*
X126490000Y-60640000I0J75000D01*
G01*
G37*
G36*
G01*
X126490000Y-60140000D02*
X126490000Y-59990000D01*
G75*
G02*
X126565000Y-59915000I75000J0D01*
G01*
X127865000Y-59915000D01*
G75*
G02*
X127940000Y-59990000I0J-75000D01*
G01*
X127940000Y-60140000D01*
G75*
G02*
X127865000Y-60215000I-75000J0D01*
G01*
X126565000Y-60215000D01*
G75*
G02*
X126490000Y-60140000I0J75000D01*
G01*
G37*
G36*
G01*
X126490000Y-59640000D02*
X126490000Y-59490000D01*
G75*
G02*
X126565000Y-59415000I75000J0D01*
G01*
X127865000Y-59415000D01*
G75*
G02*
X127940000Y-59490000I0J-75000D01*
G01*
X127940000Y-59640000D01*
G75*
G02*
X127865000Y-59715000I-75000J0D01*
G01*
X126565000Y-59715000D01*
G75*
G02*
X126490000Y-59640000I0J75000D01*
G01*
G37*
G36*
G01*
X127480000Y-64569999D02*
X127480000Y-65470001D01*
G75*
G02*
X127230001Y-65720000I-249999J0D01*
G01*
X126704999Y-65720000D01*
G75*
G02*
X126455000Y-65470001I0J249999D01*
G01*
X126455000Y-64569999D01*
G75*
G02*
X126704999Y-64320000I249999J0D01*
G01*
X127230001Y-64320000D01*
G75*
G02*
X127480000Y-64569999I0J-249999D01*
G01*
G37*
G36*
G01*
X129305000Y-64569999D02*
X129305000Y-65470001D01*
G75*
G02*
X129055001Y-65720000I-249999J0D01*
G01*
X128529999Y-65720000D01*
G75*
G02*
X128280000Y-65470001I0J249999D01*
G01*
X128280000Y-64569999D01*
G75*
G02*
X128529999Y-64320000I249999J0D01*
G01*
X129055001Y-64320000D01*
G75*
G02*
X129305000Y-64569999I0J-249999D01*
G01*
G37*
G36*
G01*
X130985000Y-64559999D02*
X130985000Y-65460001D01*
G75*
G02*
X130735001Y-65710000I-249999J0D01*
G01*
X130209999Y-65710000D01*
G75*
G02*
X129960000Y-65460001I0J249999D01*
G01*
X129960000Y-64559999D01*
G75*
G02*
X130209999Y-64310000I249999J0D01*
G01*
X130735001Y-64310000D01*
G75*
G02*
X130985000Y-64559999I0J-249999D01*
G01*
G37*
G36*
G01*
X132810000Y-64559999D02*
X132810000Y-65460001D01*
G75*
G02*
X132560001Y-65710000I-249999J0D01*
G01*
X132034999Y-65710000D01*
G75*
G02*
X131785000Y-65460001I0J249999D01*
G01*
X131785000Y-64559999D01*
G75*
G02*
X132034999Y-64310000I249999J0D01*
G01*
X132560001Y-64310000D01*
G75*
G02*
X132810000Y-64559999I0J-249999D01*
G01*
G37*
G36*
G01*
X139240000Y-60090001D02*
X139240000Y-59189999D01*
G75*
G02*
X139489999Y-58940000I249999J0D01*
G01*
X140015001Y-58940000D01*
G75*
G02*
X140265000Y-59189999I0J-249999D01*
G01*
X140265000Y-60090001D01*
G75*
G02*
X140015001Y-60340000I-249999J0D01*
G01*
X139489999Y-60340000D01*
G75*
G02*
X139240000Y-60090001I0J249999D01*
G01*
G37*
G36*
G01*
X137415000Y-60090001D02*
X137415000Y-59189999D01*
G75*
G02*
X137664999Y-58940000I249999J0D01*
G01*
X138190001Y-58940000D01*
G75*
G02*
X138440000Y-59189999I0J-249999D01*
G01*
X138440000Y-60090001D01*
G75*
G02*
X138190001Y-60340000I-249999J0D01*
G01*
X137664999Y-60340000D01*
G75*
G02*
X137415000Y-60090001I0J249999D01*
G01*
G37*
G36*
G01*
X135640000Y-60190001D02*
X135640000Y-59289999D01*
G75*
G02*
X135889999Y-59040000I249999J0D01*
G01*
X136415001Y-59040000D01*
G75*
G02*
X136665000Y-59289999I0J-249999D01*
G01*
X136665000Y-60190001D01*
G75*
G02*
X136415001Y-60440000I-249999J0D01*
G01*
X135889999Y-60440000D01*
G75*
G02*
X135640000Y-60190001I0J249999D01*
G01*
G37*
G36*
G01*
X133815000Y-60190001D02*
X133815000Y-59289999D01*
G75*
G02*
X134064999Y-59040000I249999J0D01*
G01*
X134590001Y-59040000D01*
G75*
G02*
X134840000Y-59289999I0J-249999D01*
G01*
X134840000Y-60190001D01*
G75*
G02*
X134590001Y-60440000I-249999J0D01*
G01*
X134064999Y-60440000D01*
G75*
G02*
X133815000Y-60190001I0J249999D01*
G01*
G37*
D17*
X127395000Y-53530000D03*
X131205000Y-53530000D03*
X135015000Y-53530000D03*
D18*
X138825000Y-53530000D03*
G36*
G01*
X134840000Y-65990000D02*
X134840000Y-66940000D01*
G75*
G02*
X134590000Y-67190000I-250000J0D01*
G01*
X134090000Y-67190000D01*
G75*
G02*
X133840000Y-66940000I0J250000D01*
G01*
X133840000Y-65990000D01*
G75*
G02*
X134090000Y-65740000I250000J0D01*
G01*
X134590000Y-65740000D01*
G75*
G02*
X134840000Y-65990000I0J-250000D01*
G01*
G37*
G36*
G01*
X136740000Y-65990000D02*
X136740000Y-66940000D01*
G75*
G02*
X136490000Y-67190000I-250000J0D01*
G01*
X135990000Y-67190000D01*
G75*
G02*
X135740000Y-66940000I0J250000D01*
G01*
X135740000Y-65990000D01*
G75*
G02*
X135990000Y-65740000I250000J0D01*
G01*
X136490000Y-65740000D01*
G75*
G02*
X136740000Y-65990000I0J-250000D01*
G01*
G37*
G36*
G01*
X134840000Y-63940000D02*
X134840000Y-64890000D01*
G75*
G02*
X134590000Y-65140000I-250000J0D01*
G01*
X134090000Y-65140000D01*
G75*
G02*
X133840000Y-64890000I0J250000D01*
G01*
X133840000Y-63940000D01*
G75*
G02*
X134090000Y-63690000I250000J0D01*
G01*
X134590000Y-63690000D01*
G75*
G02*
X134840000Y-63940000I0J-250000D01*
G01*
G37*
G36*
G01*
X136740000Y-63940000D02*
X136740000Y-64890000D01*
G75*
G02*
X136490000Y-65140000I-250000J0D01*
G01*
X135990000Y-65140000D01*
G75*
G02*
X135740000Y-64890000I0J250000D01*
G01*
X135740000Y-63940000D01*
G75*
G02*
X135990000Y-63690000I250000J0D01*
G01*
X136490000Y-63690000D01*
G75*
G02*
X136740000Y-63940000I0J-250000D01*
G01*
G37*
G36*
G01*
X135690000Y-62265000D02*
X135690000Y-61315000D01*
G75*
G02*
X135940000Y-61065000I250000J0D01*
G01*
X136440000Y-61065000D01*
G75*
G02*
X136690000Y-61315000I0J-250000D01*
G01*
X136690000Y-62265000D01*
G75*
G02*
X136440000Y-62515000I-250000J0D01*
G01*
X135940000Y-62515000D01*
G75*
G02*
X135690000Y-62265000I0J250000D01*
G01*
G37*
G36*
G01*
X133790000Y-62265000D02*
X133790000Y-61315000D01*
G75*
G02*
X134040000Y-61065000I250000J0D01*
G01*
X134540000Y-61065000D01*
G75*
G02*
X134790000Y-61315000I0J-250000D01*
G01*
X134790000Y-62265000D01*
G75*
G02*
X134540000Y-62515000I-250000J0D01*
G01*
X134040000Y-62515000D01*
G75*
G02*
X133790000Y-62265000I0J250000D01*
G01*
G37*
D19*
X169775000Y-54450000D03*
D12*
X173575000Y-54450000D03*
G36*
G01*
X183150000Y-84270001D02*
X183150000Y-83369999D01*
G75*
G02*
X183399999Y-83120000I249999J0D01*
G01*
X183925001Y-83120000D01*
G75*
G02*
X184175000Y-83369999I0J-249999D01*
G01*
X184175000Y-84270001D01*
G75*
G02*
X183925001Y-84520000I-249999J0D01*
G01*
X183399999Y-84520000D01*
G75*
G02*
X183150000Y-84270001I0J249999D01*
G01*
G37*
G36*
G01*
X181325000Y-84270001D02*
X181325000Y-83369999D01*
G75*
G02*
X181574999Y-83120000I249999J0D01*
G01*
X182100001Y-83120000D01*
G75*
G02*
X182350000Y-83369999I0J-249999D01*
G01*
X182350000Y-84270001D01*
G75*
G02*
X182100001Y-84520000I-249999J0D01*
G01*
X181574999Y-84520000D01*
G75*
G02*
X181325000Y-84270001I0J249999D01*
G01*
G37*
D20*
X93400000Y-122575000D03*
X96600000Y-124025000D03*
X93400000Y-124025000D03*
X96600000Y-122575000D03*
G36*
G01*
X165450000Y-116345000D02*
X165450000Y-116045000D01*
G75*
G02*
X165600000Y-115895000I150000J0D01*
G01*
X167250000Y-115895000D01*
G75*
G02*
X167400000Y-116045000I0J-150000D01*
G01*
X167400000Y-116345000D01*
G75*
G02*
X167250000Y-116495000I-150000J0D01*
G01*
X165600000Y-116495000D01*
G75*
G02*
X165450000Y-116345000I0J150000D01*
G01*
G37*
G36*
G01*
X165450000Y-117615000D02*
X165450000Y-117315000D01*
G75*
G02*
X165600000Y-117165000I150000J0D01*
G01*
X167250000Y-117165000D01*
G75*
G02*
X167400000Y-117315000I0J-150000D01*
G01*
X167400000Y-117615000D01*
G75*
G02*
X167250000Y-117765000I-150000J0D01*
G01*
X165600000Y-117765000D01*
G75*
G02*
X165450000Y-117615000I0J150000D01*
G01*
G37*
G36*
G01*
X165450000Y-118885000D02*
X165450000Y-118585000D01*
G75*
G02*
X165600000Y-118435000I150000J0D01*
G01*
X167250000Y-118435000D01*
G75*
G02*
X167400000Y-118585000I0J-150000D01*
G01*
X167400000Y-118885000D01*
G75*
G02*
X167250000Y-119035000I-150000J0D01*
G01*
X165600000Y-119035000D01*
G75*
G02*
X165450000Y-118885000I0J150000D01*
G01*
G37*
G36*
G01*
X165450000Y-120155000D02*
X165450000Y-119855000D01*
G75*
G02*
X165600000Y-119705000I150000J0D01*
G01*
X167250000Y-119705000D01*
G75*
G02*
X167400000Y-119855000I0J-150000D01*
G01*
X167400000Y-120155000D01*
G75*
G02*
X167250000Y-120305000I-150000J0D01*
G01*
X165600000Y-120305000D01*
G75*
G02*
X165450000Y-120155000I0J150000D01*
G01*
G37*
G36*
G01*
X160500000Y-120155000D02*
X160500000Y-119855000D01*
G75*
G02*
X160650000Y-119705000I150000J0D01*
G01*
X162300000Y-119705000D01*
G75*
G02*
X162450000Y-119855000I0J-150000D01*
G01*
X162450000Y-120155000D01*
G75*
G02*
X162300000Y-120305000I-150000J0D01*
G01*
X160650000Y-120305000D01*
G75*
G02*
X160500000Y-120155000I0J150000D01*
G01*
G37*
G36*
G01*
X160500000Y-118885000D02*
X160500000Y-118585000D01*
G75*
G02*
X160650000Y-118435000I150000J0D01*
G01*
X162300000Y-118435000D01*
G75*
G02*
X162450000Y-118585000I0J-150000D01*
G01*
X162450000Y-118885000D01*
G75*
G02*
X162300000Y-119035000I-150000J0D01*
G01*
X160650000Y-119035000D01*
G75*
G02*
X160500000Y-118885000I0J150000D01*
G01*
G37*
G36*
G01*
X160500000Y-117615000D02*
X160500000Y-117315000D01*
G75*
G02*
X160650000Y-117165000I150000J0D01*
G01*
X162300000Y-117165000D01*
G75*
G02*
X162450000Y-117315000I0J-150000D01*
G01*
X162450000Y-117615000D01*
G75*
G02*
X162300000Y-117765000I-150000J0D01*
G01*
X160650000Y-117765000D01*
G75*
G02*
X160500000Y-117615000I0J150000D01*
G01*
G37*
G36*
G01*
X160500000Y-116345000D02*
X160500000Y-116045000D01*
G75*
G02*
X160650000Y-115895000I150000J0D01*
G01*
X162300000Y-115895000D01*
G75*
G02*
X162450000Y-116045000I0J-150000D01*
G01*
X162450000Y-116345000D01*
G75*
G02*
X162300000Y-116495000I-150000J0D01*
G01*
X160650000Y-116495000D01*
G75*
G02*
X160500000Y-116345000I0J150000D01*
G01*
G37*
D21*
X165400000Y-112270000D03*
X165400000Y-112770000D03*
X165400000Y-113270000D03*
X165400000Y-113770000D03*
X162300000Y-113770000D03*
X162300000Y-113270000D03*
X162300000Y-112770000D03*
X162300000Y-112270000D03*
G36*
G01*
X168500000Y-113275000D02*
X168500000Y-112325000D01*
G75*
G02*
X168750000Y-112075000I250000J0D01*
G01*
X169250000Y-112075000D01*
G75*
G02*
X169500000Y-112325000I0J-250000D01*
G01*
X169500000Y-113275000D01*
G75*
G02*
X169250000Y-113525000I-250000J0D01*
G01*
X168750000Y-113525000D01*
G75*
G02*
X168500000Y-113275000I0J250000D01*
G01*
G37*
G36*
G01*
X166600000Y-113275000D02*
X166600000Y-112325000D01*
G75*
G02*
X166850000Y-112075000I250000J0D01*
G01*
X167350000Y-112075000D01*
G75*
G02*
X167600000Y-112325000I0J-250000D01*
G01*
X167600000Y-113275000D01*
G75*
G02*
X167350000Y-113525000I-250000J0D01*
G01*
X166850000Y-113525000D01*
G75*
G02*
X166600000Y-113275000I0J250000D01*
G01*
G37*
G36*
G01*
X162600000Y-110175000D02*
X162600000Y-109225000D01*
G75*
G02*
X162850000Y-108975000I250000J0D01*
G01*
X163350000Y-108975000D01*
G75*
G02*
X163600000Y-109225000I0J-250000D01*
G01*
X163600000Y-110175000D01*
G75*
G02*
X163350000Y-110425000I-250000J0D01*
G01*
X162850000Y-110425000D01*
G75*
G02*
X162600000Y-110175000I0J250000D01*
G01*
G37*
G36*
G01*
X160700000Y-110175000D02*
X160700000Y-109225000D01*
G75*
G02*
X160950000Y-108975000I250000J0D01*
G01*
X161450000Y-108975000D01*
G75*
G02*
X161700000Y-109225000I0J-250000D01*
G01*
X161700000Y-110175000D01*
G75*
G02*
X161450000Y-110425000I-250000J0D01*
G01*
X160950000Y-110425000D01*
G75*
G02*
X160700000Y-110175000I0J250000D01*
G01*
G37*
G36*
G01*
X139834980Y-114495800D02*
X139834980Y-114195800D01*
G75*
G02*
X139984980Y-114045800I150000J0D01*
G01*
X141634980Y-114045800D01*
G75*
G02*
X141784980Y-114195800I0J-150000D01*
G01*
X141784980Y-114495800D01*
G75*
G02*
X141634980Y-114645800I-150000J0D01*
G01*
X139984980Y-114645800D01*
G75*
G02*
X139834980Y-114495800I0J150000D01*
G01*
G37*
G36*
G01*
X139834980Y-115765800D02*
X139834980Y-115465800D01*
G75*
G02*
X139984980Y-115315800I150000J0D01*
G01*
X141634980Y-115315800D01*
G75*
G02*
X141784980Y-115465800I0J-150000D01*
G01*
X141784980Y-115765800D01*
G75*
G02*
X141634980Y-115915800I-150000J0D01*
G01*
X139984980Y-115915800D01*
G75*
G02*
X139834980Y-115765800I0J150000D01*
G01*
G37*
G36*
G01*
X139834980Y-117035800D02*
X139834980Y-116735800D01*
G75*
G02*
X139984980Y-116585800I150000J0D01*
G01*
X141634980Y-116585800D01*
G75*
G02*
X141784980Y-116735800I0J-150000D01*
G01*
X141784980Y-117035800D01*
G75*
G02*
X141634980Y-117185800I-150000J0D01*
G01*
X139984980Y-117185800D01*
G75*
G02*
X139834980Y-117035800I0J150000D01*
G01*
G37*
G36*
G01*
X139834980Y-118305800D02*
X139834980Y-118005800D01*
G75*
G02*
X139984980Y-117855800I150000J0D01*
G01*
X141634980Y-117855800D01*
G75*
G02*
X141784980Y-118005800I0J-150000D01*
G01*
X141784980Y-118305800D01*
G75*
G02*
X141634980Y-118455800I-150000J0D01*
G01*
X139984980Y-118455800D01*
G75*
G02*
X139834980Y-118305800I0J150000D01*
G01*
G37*
G36*
G01*
X134884980Y-118305800D02*
X134884980Y-118005800D01*
G75*
G02*
X135034980Y-117855800I150000J0D01*
G01*
X136684980Y-117855800D01*
G75*
G02*
X136834980Y-118005800I0J-150000D01*
G01*
X136834980Y-118305800D01*
G75*
G02*
X136684980Y-118455800I-150000J0D01*
G01*
X135034980Y-118455800D01*
G75*
G02*
X134884980Y-118305800I0J150000D01*
G01*
G37*
G36*
G01*
X134884980Y-117035800D02*
X134884980Y-116735800D01*
G75*
G02*
X135034980Y-116585800I150000J0D01*
G01*
X136684980Y-116585800D01*
G75*
G02*
X136834980Y-116735800I0J-150000D01*
G01*
X136834980Y-117035800D01*
G75*
G02*
X136684980Y-117185800I-150000J0D01*
G01*
X135034980Y-117185800D01*
G75*
G02*
X134884980Y-117035800I0J150000D01*
G01*
G37*
G36*
G01*
X134884980Y-115765800D02*
X134884980Y-115465800D01*
G75*
G02*
X135034980Y-115315800I150000J0D01*
G01*
X136684980Y-115315800D01*
G75*
G02*
X136834980Y-115465800I0J-150000D01*
G01*
X136834980Y-115765800D01*
G75*
G02*
X136684980Y-115915800I-150000J0D01*
G01*
X135034980Y-115915800D01*
G75*
G02*
X134884980Y-115765800I0J150000D01*
G01*
G37*
G36*
G01*
X134884980Y-114495800D02*
X134884980Y-114195800D01*
G75*
G02*
X135034980Y-114045800I150000J0D01*
G01*
X136684980Y-114045800D01*
G75*
G02*
X136834980Y-114195800I0J-150000D01*
G01*
X136834980Y-114495800D01*
G75*
G02*
X136684980Y-114645800I-150000J0D01*
G01*
X135034980Y-114645800D01*
G75*
G02*
X134884980Y-114495800I0J150000D01*
G01*
G37*
D22*
X205790000Y-112700000D03*
X203250000Y-112700000D03*
X200710000Y-112700000D03*
X198170000Y-112700000D03*
X195630000Y-112700000D03*
X193090000Y-112700000D03*
D23*
X190550000Y-112700000D03*
G36*
G01*
X150875000Y-120025000D02*
X150875000Y-119825000D01*
G75*
G02*
X150975000Y-119725000I100000J0D01*
G01*
X152250000Y-119725000D01*
G75*
G02*
X152350000Y-119825000I0J-100000D01*
G01*
X152350000Y-120025000D01*
G75*
G02*
X152250000Y-120125000I-100000J0D01*
G01*
X150975000Y-120125000D01*
G75*
G02*
X150875000Y-120025000I0J100000D01*
G01*
G37*
G36*
G01*
X150875000Y-120675000D02*
X150875000Y-120475000D01*
G75*
G02*
X150975000Y-120375000I100000J0D01*
G01*
X152250000Y-120375000D01*
G75*
G02*
X152350000Y-120475000I0J-100000D01*
G01*
X152350000Y-120675000D01*
G75*
G02*
X152250000Y-120775000I-100000J0D01*
G01*
X150975000Y-120775000D01*
G75*
G02*
X150875000Y-120675000I0J100000D01*
G01*
G37*
G36*
G01*
X150875000Y-121325000D02*
X150875000Y-121125000D01*
G75*
G02*
X150975000Y-121025000I100000J0D01*
G01*
X152250000Y-121025000D01*
G75*
G02*
X152350000Y-121125000I0J-100000D01*
G01*
X152350000Y-121325000D01*
G75*
G02*
X152250000Y-121425000I-100000J0D01*
G01*
X150975000Y-121425000D01*
G75*
G02*
X150875000Y-121325000I0J100000D01*
G01*
G37*
G36*
G01*
X150875000Y-121975000D02*
X150875000Y-121775000D01*
G75*
G02*
X150975000Y-121675000I100000J0D01*
G01*
X152250000Y-121675000D01*
G75*
G02*
X152350000Y-121775000I0J-100000D01*
G01*
X152350000Y-121975000D01*
G75*
G02*
X152250000Y-122075000I-100000J0D01*
G01*
X150975000Y-122075000D01*
G75*
G02*
X150875000Y-121975000I0J100000D01*
G01*
G37*
G36*
G01*
X150875000Y-122625000D02*
X150875000Y-122425000D01*
G75*
G02*
X150975000Y-122325000I100000J0D01*
G01*
X152250000Y-122325000D01*
G75*
G02*
X152350000Y-122425000I0J-100000D01*
G01*
X152350000Y-122625000D01*
G75*
G02*
X152250000Y-122725000I-100000J0D01*
G01*
X150975000Y-122725000D01*
G75*
G02*
X150875000Y-122625000I0J100000D01*
G01*
G37*
G36*
G01*
X150875000Y-123275000D02*
X150875000Y-123075000D01*
G75*
G02*
X150975000Y-122975000I100000J0D01*
G01*
X152250000Y-122975000D01*
G75*
G02*
X152350000Y-123075000I0J-100000D01*
G01*
X152350000Y-123275000D01*
G75*
G02*
X152250000Y-123375000I-100000J0D01*
G01*
X150975000Y-123375000D01*
G75*
G02*
X150875000Y-123275000I0J100000D01*
G01*
G37*
G36*
G01*
X150875000Y-123925000D02*
X150875000Y-123725000D01*
G75*
G02*
X150975000Y-123625000I100000J0D01*
G01*
X152250000Y-123625000D01*
G75*
G02*
X152350000Y-123725000I0J-100000D01*
G01*
X152350000Y-123925000D01*
G75*
G02*
X152250000Y-124025000I-100000J0D01*
G01*
X150975000Y-124025000D01*
G75*
G02*
X150875000Y-123925000I0J100000D01*
G01*
G37*
G36*
G01*
X150875000Y-124575000D02*
X150875000Y-124375000D01*
G75*
G02*
X150975000Y-124275000I100000J0D01*
G01*
X152250000Y-124275000D01*
G75*
G02*
X152350000Y-124375000I0J-100000D01*
G01*
X152350000Y-124575000D01*
G75*
G02*
X152250000Y-124675000I-100000J0D01*
G01*
X150975000Y-124675000D01*
G75*
G02*
X150875000Y-124575000I0J100000D01*
G01*
G37*
G36*
G01*
X150875000Y-125225000D02*
X150875000Y-125025000D01*
G75*
G02*
X150975000Y-124925000I100000J0D01*
G01*
X152250000Y-124925000D01*
G75*
G02*
X152350000Y-125025000I0J-100000D01*
G01*
X152350000Y-125225000D01*
G75*
G02*
X152250000Y-125325000I-100000J0D01*
G01*
X150975000Y-125325000D01*
G75*
G02*
X150875000Y-125225000I0J100000D01*
G01*
G37*
G36*
G01*
X150875000Y-125875000D02*
X150875000Y-125675000D01*
G75*
G02*
X150975000Y-125575000I100000J0D01*
G01*
X152250000Y-125575000D01*
G75*
G02*
X152350000Y-125675000I0J-100000D01*
G01*
X152350000Y-125875000D01*
G75*
G02*
X152250000Y-125975000I-100000J0D01*
G01*
X150975000Y-125975000D01*
G75*
G02*
X150875000Y-125875000I0J100000D01*
G01*
G37*
G36*
G01*
X150875000Y-126525000D02*
X150875000Y-126325000D01*
G75*
G02*
X150975000Y-126225000I100000J0D01*
G01*
X152250000Y-126225000D01*
G75*
G02*
X152350000Y-126325000I0J-100000D01*
G01*
X152350000Y-126525000D01*
G75*
G02*
X152250000Y-126625000I-100000J0D01*
G01*
X150975000Y-126625000D01*
G75*
G02*
X150875000Y-126525000I0J100000D01*
G01*
G37*
G36*
G01*
X150875000Y-127175000D02*
X150875000Y-126975000D01*
G75*
G02*
X150975000Y-126875000I100000J0D01*
G01*
X152250000Y-126875000D01*
G75*
G02*
X152350000Y-126975000I0J-100000D01*
G01*
X152350000Y-127175000D01*
G75*
G02*
X152250000Y-127275000I-100000J0D01*
G01*
X150975000Y-127275000D01*
G75*
G02*
X150875000Y-127175000I0J100000D01*
G01*
G37*
G36*
G01*
X145150000Y-127175000D02*
X145150000Y-126975000D01*
G75*
G02*
X145250000Y-126875000I100000J0D01*
G01*
X146525000Y-126875000D01*
G75*
G02*
X146625000Y-126975000I0J-100000D01*
G01*
X146625000Y-127175000D01*
G75*
G02*
X146525000Y-127275000I-100000J0D01*
G01*
X145250000Y-127275000D01*
G75*
G02*
X145150000Y-127175000I0J100000D01*
G01*
G37*
G36*
G01*
X145150000Y-126525000D02*
X145150000Y-126325000D01*
G75*
G02*
X145250000Y-126225000I100000J0D01*
G01*
X146525000Y-126225000D01*
G75*
G02*
X146625000Y-126325000I0J-100000D01*
G01*
X146625000Y-126525000D01*
G75*
G02*
X146525000Y-126625000I-100000J0D01*
G01*
X145250000Y-126625000D01*
G75*
G02*
X145150000Y-126525000I0J100000D01*
G01*
G37*
G36*
G01*
X145150000Y-125875000D02*
X145150000Y-125675000D01*
G75*
G02*
X145250000Y-125575000I100000J0D01*
G01*
X146525000Y-125575000D01*
G75*
G02*
X146625000Y-125675000I0J-100000D01*
G01*
X146625000Y-125875000D01*
G75*
G02*
X146525000Y-125975000I-100000J0D01*
G01*
X145250000Y-125975000D01*
G75*
G02*
X145150000Y-125875000I0J100000D01*
G01*
G37*
G36*
G01*
X145150000Y-125225000D02*
X145150000Y-125025000D01*
G75*
G02*
X145250000Y-124925000I100000J0D01*
G01*
X146525000Y-124925000D01*
G75*
G02*
X146625000Y-125025000I0J-100000D01*
G01*
X146625000Y-125225000D01*
G75*
G02*
X146525000Y-125325000I-100000J0D01*
G01*
X145250000Y-125325000D01*
G75*
G02*
X145150000Y-125225000I0J100000D01*
G01*
G37*
G36*
G01*
X145150000Y-124575000D02*
X145150000Y-124375000D01*
G75*
G02*
X145250000Y-124275000I100000J0D01*
G01*
X146525000Y-124275000D01*
G75*
G02*
X146625000Y-124375000I0J-100000D01*
G01*
X146625000Y-124575000D01*
G75*
G02*
X146525000Y-124675000I-100000J0D01*
G01*
X145250000Y-124675000D01*
G75*
G02*
X145150000Y-124575000I0J100000D01*
G01*
G37*
G36*
G01*
X145150000Y-123925000D02*
X145150000Y-123725000D01*
G75*
G02*
X145250000Y-123625000I100000J0D01*
G01*
X146525000Y-123625000D01*
G75*
G02*
X146625000Y-123725000I0J-100000D01*
G01*
X146625000Y-123925000D01*
G75*
G02*
X146525000Y-124025000I-100000J0D01*
G01*
X145250000Y-124025000D01*
G75*
G02*
X145150000Y-123925000I0J100000D01*
G01*
G37*
G36*
G01*
X145150000Y-123275000D02*
X145150000Y-123075000D01*
G75*
G02*
X145250000Y-122975000I100000J0D01*
G01*
X146525000Y-122975000D01*
G75*
G02*
X146625000Y-123075000I0J-100000D01*
G01*
X146625000Y-123275000D01*
G75*
G02*
X146525000Y-123375000I-100000J0D01*
G01*
X145250000Y-123375000D01*
G75*
G02*
X145150000Y-123275000I0J100000D01*
G01*
G37*
G36*
G01*
X145150000Y-122625000D02*
X145150000Y-122425000D01*
G75*
G02*
X145250000Y-122325000I100000J0D01*
G01*
X146525000Y-122325000D01*
G75*
G02*
X146625000Y-122425000I0J-100000D01*
G01*
X146625000Y-122625000D01*
G75*
G02*
X146525000Y-122725000I-100000J0D01*
G01*
X145250000Y-122725000D01*
G75*
G02*
X145150000Y-122625000I0J100000D01*
G01*
G37*
G36*
G01*
X145150000Y-121975000D02*
X145150000Y-121775000D01*
G75*
G02*
X145250000Y-121675000I100000J0D01*
G01*
X146525000Y-121675000D01*
G75*
G02*
X146625000Y-121775000I0J-100000D01*
G01*
X146625000Y-121975000D01*
G75*
G02*
X146525000Y-122075000I-100000J0D01*
G01*
X145250000Y-122075000D01*
G75*
G02*
X145150000Y-121975000I0J100000D01*
G01*
G37*
G36*
G01*
X145150000Y-121325000D02*
X145150000Y-121125000D01*
G75*
G02*
X145250000Y-121025000I100000J0D01*
G01*
X146525000Y-121025000D01*
G75*
G02*
X146625000Y-121125000I0J-100000D01*
G01*
X146625000Y-121325000D01*
G75*
G02*
X146525000Y-121425000I-100000J0D01*
G01*
X145250000Y-121425000D01*
G75*
G02*
X145150000Y-121325000I0J100000D01*
G01*
G37*
G36*
G01*
X145150000Y-120675000D02*
X145150000Y-120475000D01*
G75*
G02*
X145250000Y-120375000I100000J0D01*
G01*
X146525000Y-120375000D01*
G75*
G02*
X146625000Y-120475000I0J-100000D01*
G01*
X146625000Y-120675000D01*
G75*
G02*
X146525000Y-120775000I-100000J0D01*
G01*
X145250000Y-120775000D01*
G75*
G02*
X145150000Y-120675000I0J100000D01*
G01*
G37*
G36*
G01*
X145150000Y-120025000D02*
X145150000Y-119825000D01*
G75*
G02*
X145250000Y-119725000I100000J0D01*
G01*
X146525000Y-119725000D01*
G75*
G02*
X146625000Y-119825000I0J-100000D01*
G01*
X146625000Y-120025000D01*
G75*
G02*
X146525000Y-120125000I-100000J0D01*
G01*
X145250000Y-120125000D01*
G75*
G02*
X145150000Y-120025000I0J100000D01*
G01*
G37*
D24*
X202500000Y-57000000D03*
X202500000Y-131500000D03*
X97750000Y-131500000D03*
X98250000Y-53900000D03*
G36*
G01*
X136150000Y-103550001D02*
X136150000Y-102649999D01*
G75*
G02*
X136399999Y-102400000I249999J0D01*
G01*
X136925001Y-102400000D01*
G75*
G02*
X137175000Y-102649999I0J-249999D01*
G01*
X137175000Y-103550001D01*
G75*
G02*
X136925001Y-103800000I-249999J0D01*
G01*
X136399999Y-103800000D01*
G75*
G02*
X136150000Y-103550001I0J249999D01*
G01*
G37*
G36*
G01*
X134325000Y-103550001D02*
X134325000Y-102649999D01*
G75*
G02*
X134574999Y-102400000I249999J0D01*
G01*
X135100001Y-102400000D01*
G75*
G02*
X135350000Y-102649999I0J-249999D01*
G01*
X135350000Y-103550001D01*
G75*
G02*
X135100001Y-103800000I-249999J0D01*
G01*
X134574999Y-103800000D01*
G75*
G02*
X134325000Y-103550001I0J249999D01*
G01*
G37*
G36*
G01*
X155350000Y-120849999D02*
X155350000Y-122150001D01*
G75*
G02*
X155100001Y-122400000I-249999J0D01*
G01*
X154449999Y-122400000D01*
G75*
G02*
X154200000Y-122150001I0J249999D01*
G01*
X154200000Y-120849999D01*
G75*
G02*
X154449999Y-120600000I249999J0D01*
G01*
X155100001Y-120600000D01*
G75*
G02*
X155350000Y-120849999I0J-249999D01*
G01*
G37*
G36*
G01*
X158300000Y-120849999D02*
X158300000Y-122150001D01*
G75*
G02*
X158050001Y-122400000I-249999J0D01*
G01*
X157399999Y-122400000D01*
G75*
G02*
X157150000Y-122150001I0J249999D01*
G01*
X157150000Y-120849999D01*
G75*
G02*
X157399999Y-120600000I249999J0D01*
G01*
X158050001Y-120600000D01*
G75*
G02*
X158300000Y-120849999I0J-249999D01*
G01*
G37*
G36*
G01*
X176150000Y-115570001D02*
X176150000Y-114669999D01*
G75*
G02*
X176399999Y-114420000I249999J0D01*
G01*
X176925001Y-114420000D01*
G75*
G02*
X177175000Y-114669999I0J-249999D01*
G01*
X177175000Y-115570001D01*
G75*
G02*
X176925001Y-115820000I-249999J0D01*
G01*
X176399999Y-115820000D01*
G75*
G02*
X176150000Y-115570001I0J249999D01*
G01*
G37*
G36*
G01*
X174325000Y-115570001D02*
X174325000Y-114669999D01*
G75*
G02*
X174574999Y-114420000I249999J0D01*
G01*
X175100001Y-114420000D01*
G75*
G02*
X175350000Y-114669999I0J-249999D01*
G01*
X175350000Y-115570001D01*
G75*
G02*
X175100001Y-115820000I-249999J0D01*
G01*
X174574999Y-115820000D01*
G75*
G02*
X174325000Y-115570001I0J249999D01*
G01*
G37*
D25*
X176770000Y-119375000D03*
X174770000Y-120325000D03*
X174770000Y-118425000D03*
G36*
G01*
X178275000Y-64762500D02*
X178275000Y-59637500D01*
G75*
G02*
X178437500Y-59475000I162500J0D01*
G01*
X179362500Y-59475000D01*
G75*
G02*
X179525000Y-59637500I0J-162500D01*
G01*
X179525000Y-64762500D01*
G75*
G02*
X179362500Y-64925000I-162500J0D01*
G01*
X178437500Y-64925000D01*
G75*
G02*
X178275000Y-64762500I0J162500D01*
G01*
G37*
G36*
G01*
X171487500Y-64802500D02*
X171487500Y-59677500D01*
G75*
G02*
X171650000Y-59515000I162500J0D01*
G01*
X172575000Y-59515000D01*
G75*
G02*
X172737500Y-59677500I0J-162500D01*
G01*
X172737500Y-64802500D01*
G75*
G02*
X172575000Y-64965000I-162500J0D01*
G01*
X171650000Y-64965000D01*
G75*
G02*
X171487500Y-64802500I0J162500D01*
G01*
G37*
D24*
X194000000Y-129976000D03*
X198500000Y-129976000D03*
X194000000Y-136476000D03*
X198500000Y-136476000D03*
G36*
G01*
X194437000Y-125623002D02*
X194437000Y-124722998D01*
G75*
G02*
X194686998Y-124473000I249998J0D01*
G01*
X195212002Y-124473000D01*
G75*
G02*
X195462000Y-124722998I0J-249998D01*
G01*
X195462000Y-125623002D01*
G75*
G02*
X195212002Y-125873000I-249998J0D01*
G01*
X194686998Y-125873000D01*
G75*
G02*
X194437000Y-125623002I0J249998D01*
G01*
G37*
G36*
G01*
X192612000Y-125623002D02*
X192612000Y-124722998D01*
G75*
G02*
X192861998Y-124473000I249998J0D01*
G01*
X193387002Y-124473000D01*
G75*
G02*
X193637000Y-124722998I0J-249998D01*
G01*
X193637000Y-125623002D01*
G75*
G02*
X193387002Y-125873000I-249998J0D01*
G01*
X192861998Y-125873000D01*
G75*
G02*
X192612000Y-125623002I0J249998D01*
G01*
G37*
G36*
G01*
X197886000Y-125623002D02*
X197886000Y-124722998D01*
G75*
G02*
X198135998Y-124473000I249998J0D01*
G01*
X198661002Y-124473000D01*
G75*
G02*
X198911000Y-124722998I0J-249998D01*
G01*
X198911000Y-125623002D01*
G75*
G02*
X198661002Y-125873000I-249998J0D01*
G01*
X198135998Y-125873000D01*
G75*
G02*
X197886000Y-125623002I0J249998D01*
G01*
G37*
G36*
G01*
X196061000Y-125623002D02*
X196061000Y-124722998D01*
G75*
G02*
X196310998Y-124473000I249998J0D01*
G01*
X196836002Y-124473000D01*
G75*
G02*
X197086000Y-124722998I0J-249998D01*
G01*
X197086000Y-125623002D01*
G75*
G02*
X196836002Y-125873000I-249998J0D01*
G01*
X196310998Y-125873000D01*
G75*
G02*
X196061000Y-125623002I0J249998D01*
G01*
G37*
G36*
G01*
X194507000Y-122346000D02*
X194507000Y-121396000D01*
G75*
G02*
X194757000Y-121146000I250000J0D01*
G01*
X195257000Y-121146000D01*
G75*
G02*
X195507000Y-121396000I0J-250000D01*
G01*
X195507000Y-122346000D01*
G75*
G02*
X195257000Y-122596000I-250000J0D01*
G01*
X194757000Y-122596000D01*
G75*
G02*
X194507000Y-122346000I0J250000D01*
G01*
G37*
G36*
G01*
X192607000Y-122346000D02*
X192607000Y-121396000D01*
G75*
G02*
X192857000Y-121146000I250000J0D01*
G01*
X193357000Y-121146000D01*
G75*
G02*
X193607000Y-121396000I0J-250000D01*
G01*
X193607000Y-122346000D01*
G75*
G02*
X193357000Y-122596000I-250000J0D01*
G01*
X192857000Y-122596000D01*
G75*
G02*
X192607000Y-122346000I0J250000D01*
G01*
G37*
X186437000Y-129976000D03*
X190937000Y-129976000D03*
X186437000Y-136476000D03*
X190937000Y-136476000D03*
G36*
G01*
X187071000Y-125623002D02*
X187071000Y-124722998D01*
G75*
G02*
X187320998Y-124473000I249998J0D01*
G01*
X187846002Y-124473000D01*
G75*
G02*
X188096000Y-124722998I0J-249998D01*
G01*
X188096000Y-125623002D01*
G75*
G02*
X187846002Y-125873000I-249998J0D01*
G01*
X187320998Y-125873000D01*
G75*
G02*
X187071000Y-125623002I0J249998D01*
G01*
G37*
G36*
G01*
X185246000Y-125623002D02*
X185246000Y-124722998D01*
G75*
G02*
X185495998Y-124473000I249998J0D01*
G01*
X186021002Y-124473000D01*
G75*
G02*
X186271000Y-124722998I0J-249998D01*
G01*
X186271000Y-125623002D01*
G75*
G02*
X186021002Y-125873000I-249998J0D01*
G01*
X185495998Y-125873000D01*
G75*
G02*
X185246000Y-125623002I0J249998D01*
G01*
G37*
G36*
G01*
X190520000Y-125623002D02*
X190520000Y-124722998D01*
G75*
G02*
X190769998Y-124473000I249998J0D01*
G01*
X191295002Y-124473000D01*
G75*
G02*
X191545000Y-124722998I0J-249998D01*
G01*
X191545000Y-125623002D01*
G75*
G02*
X191295002Y-125873000I-249998J0D01*
G01*
X190769998Y-125873000D01*
G75*
G02*
X190520000Y-125623002I0J249998D01*
G01*
G37*
G36*
G01*
X188695000Y-125623002D02*
X188695000Y-124722998D01*
G75*
G02*
X188944998Y-124473000I249998J0D01*
G01*
X189470002Y-124473000D01*
G75*
G02*
X189720000Y-124722998I0J-249998D01*
G01*
X189720000Y-125623002D01*
G75*
G02*
X189470002Y-125873000I-249998J0D01*
G01*
X188944998Y-125873000D01*
G75*
G02*
X188695000Y-125623002I0J249998D01*
G01*
G37*
G36*
G01*
X187141000Y-122346000D02*
X187141000Y-121396000D01*
G75*
G02*
X187391000Y-121146000I250000J0D01*
G01*
X187891000Y-121146000D01*
G75*
G02*
X188141000Y-121396000I0J-250000D01*
G01*
X188141000Y-122346000D01*
G75*
G02*
X187891000Y-122596000I-250000J0D01*
G01*
X187391000Y-122596000D01*
G75*
G02*
X187141000Y-122346000I0J250000D01*
G01*
G37*
G36*
G01*
X185241000Y-122346000D02*
X185241000Y-121396000D01*
G75*
G02*
X185491000Y-121146000I250000J0D01*
G01*
X185991000Y-121146000D01*
G75*
G02*
X186241000Y-121396000I0J-250000D01*
G01*
X186241000Y-122346000D01*
G75*
G02*
X185991000Y-122596000I-250000J0D01*
G01*
X185491000Y-122596000D01*
G75*
G02*
X185241000Y-122346000I0J250000D01*
G01*
G37*
G36*
G01*
X161825000Y-52562500D02*
X161825000Y-52087500D01*
G75*
G02*
X162062500Y-51850000I237500J0D01*
G01*
X162637500Y-51850000D01*
G75*
G02*
X162875000Y-52087500I0J-237500D01*
G01*
X162875000Y-52562500D01*
G75*
G02*
X162637500Y-52800000I-237500J0D01*
G01*
X162062500Y-52800000D01*
G75*
G02*
X161825000Y-52562500I0J237500D01*
G01*
G37*
G36*
G01*
X160075000Y-52562500D02*
X160075000Y-52087500D01*
G75*
G02*
X160312500Y-51850000I237500J0D01*
G01*
X160887500Y-51850000D01*
G75*
G02*
X161125000Y-52087500I0J-237500D01*
G01*
X161125000Y-52562500D01*
G75*
G02*
X160887500Y-52800000I-237500J0D01*
G01*
X160312500Y-52800000D01*
G75*
G02*
X160075000Y-52562500I0J237500D01*
G01*
G37*
G36*
G01*
X180700000Y-52387500D02*
X180700000Y-51912500D01*
G75*
G02*
X180937500Y-51675000I237500J0D01*
G01*
X181512500Y-51675000D01*
G75*
G02*
X181750000Y-51912500I0J-237500D01*
G01*
X181750000Y-52387500D01*
G75*
G02*
X181512500Y-52625000I-237500J0D01*
G01*
X180937500Y-52625000D01*
G75*
G02*
X180700000Y-52387500I0J237500D01*
G01*
G37*
G36*
G01*
X178950000Y-52387500D02*
X178950000Y-51912500D01*
G75*
G02*
X179187500Y-51675000I237500J0D01*
G01*
X179762500Y-51675000D01*
G75*
G02*
X180000000Y-51912500I0J-237500D01*
G01*
X180000000Y-52387500D01*
G75*
G02*
X179762500Y-52625000I-237500J0D01*
G01*
X179187500Y-52625000D01*
G75*
G02*
X178950000Y-52387500I0J237500D01*
G01*
G37*
D26*
X152175000Y-78700000D03*
X148675000Y-78700000D03*
D27*
X204100000Y-72680000D03*
X204100000Y-76180000D03*
D28*
X205300000Y-80375000D03*
X205300000Y-124375000D03*
X129300000Y-80375000D03*
X129300000Y-124375000D03*
D22*
X205800000Y-103335000D03*
X205800000Y-100795000D03*
X205800000Y-98255000D03*
X205800000Y-105875000D03*
X124300000Y-85855000D03*
X124300000Y-88395000D03*
X124300000Y-90935000D03*
X124300000Y-93475000D03*
X124300000Y-96015000D03*
X124300000Y-98555000D03*
X124300000Y-101095000D03*
X124300000Y-103635000D03*
X124300000Y-106175000D03*
X124300000Y-108715000D03*
X124300000Y-111255000D03*
X124300000Y-113795000D03*
X124300000Y-116335000D03*
D23*
X124300000Y-118875000D03*
D29*
X167790000Y-127360000D03*
X166840000Y-125360000D03*
X168740000Y-125360000D03*
D17*
X101980000Y-53530000D03*
X105790000Y-53530000D03*
X109600000Y-53530000D03*
D18*
X113410000Y-53530000D03*
D30*
X98825000Y-61970000D03*
X98825000Y-59430000D03*
X105125000Y-59430000D03*
X105125000Y-61970000D03*
G36*
G01*
X105095000Y-64300002D02*
X105095000Y-63399998D01*
G75*
G02*
X105344998Y-63150000I249998J0D01*
G01*
X105870002Y-63150000D01*
G75*
G02*
X106120000Y-63399998I0J-249998D01*
G01*
X106120000Y-64300002D01*
G75*
G02*
X105870002Y-64550000I-249998J0D01*
G01*
X105344998Y-64550000D01*
G75*
G02*
X105095000Y-64300002I0J249998D01*
G01*
G37*
G36*
G01*
X103270000Y-64300002D02*
X103270000Y-63399998D01*
G75*
G02*
X103519998Y-63150000I249998J0D01*
G01*
X104045002Y-63150000D01*
G75*
G02*
X104295000Y-63399998I0J-249998D01*
G01*
X104295000Y-64300002D01*
G75*
G02*
X104045002Y-64550000I-249998J0D01*
G01*
X103519998Y-64550000D01*
G75*
G02*
X103270000Y-64300002I0J249998D01*
G01*
G37*
X110125000Y-64420000D03*
X110125000Y-61880000D03*
X116425000Y-61880000D03*
X116425000Y-64420000D03*
D31*
X179124200Y-72879000D03*
X174524200Y-72879000D03*
X176824200Y-72879000D03*
D32*
X176824200Y-79179000D03*
G36*
G01*
X181543320Y-122955500D02*
X181843320Y-122955500D01*
G75*
G02*
X181993320Y-123105500I0J-150000D01*
G01*
X181993320Y-124430500D01*
G75*
G02*
X181843320Y-124580500I-150000J0D01*
G01*
X181543320Y-124580500D01*
G75*
G02*
X181393320Y-124430500I0J150000D01*
G01*
X181393320Y-123105500D01*
G75*
G02*
X181543320Y-122955500I150000J0D01*
G01*
G37*
G36*
G01*
X180273320Y-122955500D02*
X180573320Y-122955500D01*
G75*
G02*
X180723320Y-123105500I0J-150000D01*
G01*
X180723320Y-124430500D01*
G75*
G02*
X180573320Y-124580500I-150000J0D01*
G01*
X180273320Y-124580500D01*
G75*
G02*
X180123320Y-124430500I0J150000D01*
G01*
X180123320Y-123105500D01*
G75*
G02*
X180273320Y-122955500I150000J0D01*
G01*
G37*
G36*
G01*
X180273320Y-116580500D02*
X180573320Y-116580500D01*
G75*
G02*
X180723320Y-116730500I0J-150000D01*
G01*
X180723320Y-118055500D01*
G75*
G02*
X180573320Y-118205500I-150000J0D01*
G01*
X180273320Y-118205500D01*
G75*
G02*
X180123320Y-118055500I0J150000D01*
G01*
X180123320Y-116730500D01*
G75*
G02*
X180273320Y-116580500I150000J0D01*
G01*
G37*
G36*
G01*
X181543320Y-116580500D02*
X181843320Y-116580500D01*
G75*
G02*
X181993320Y-116730500I0J-150000D01*
G01*
X181993320Y-118055500D01*
G75*
G02*
X181843320Y-118205500I-150000J0D01*
G01*
X181543320Y-118205500D01*
G75*
G02*
X181393320Y-118055500I0J150000D01*
G01*
X181393320Y-116730500D01*
G75*
G02*
X181543320Y-116580500I150000J0D01*
G01*
G37*
D33*
X182341000Y-130849600D03*
G36*
G01*
X179741000Y-131474601D02*
X179741000Y-130224599D01*
G75*
G02*
X179990999Y-129974600I249999J0D01*
G01*
X180691001Y-129974600D01*
G75*
G02*
X180941000Y-130224599I0J-249999D01*
G01*
X180941000Y-131474601D01*
G75*
G02*
X180691001Y-131724600I-249999J0D01*
G01*
X179990999Y-131724600D01*
G75*
G02*
X179741000Y-131474601I0J249999D01*
G01*
G37*
X175330720Y-130849600D03*
G36*
G01*
X172730720Y-131474601D02*
X172730720Y-130224599D01*
G75*
G02*
X172980719Y-129974600I249999J0D01*
G01*
X173680721Y-129974600D01*
G75*
G02*
X173930720Y-130224599I0J-249999D01*
G01*
X173930720Y-131474601D01*
G75*
G02*
X173680721Y-131724600I-249999J0D01*
G01*
X172980719Y-131724600D01*
G75*
G02*
X172730720Y-131474601I0J249999D01*
G01*
G37*
G36*
G01*
X108787240Y-125124998D02*
X108787240Y-126025002D01*
G75*
G02*
X108537242Y-126275000I-249998J0D01*
G01*
X108012238Y-126275000D01*
G75*
G02*
X107762240Y-126025002I0J249998D01*
G01*
X107762240Y-125124998D01*
G75*
G02*
X108012238Y-124875000I249998J0D01*
G01*
X108537242Y-124875000D01*
G75*
G02*
X108787240Y-125124998I0J-249998D01*
G01*
G37*
G36*
G01*
X110612240Y-125124998D02*
X110612240Y-126025002D01*
G75*
G02*
X110362242Y-126275000I-249998J0D01*
G01*
X109837238Y-126275000D01*
G75*
G02*
X109587240Y-126025002I0J249998D01*
G01*
X109587240Y-125124998D01*
G75*
G02*
X109837238Y-124875000I249998J0D01*
G01*
X110362242Y-124875000D01*
G75*
G02*
X110612240Y-125124998I0J-249998D01*
G01*
G37*
G36*
G01*
X130850000Y-104950002D02*
X130850000Y-104049998D01*
G75*
G02*
X131099998Y-103800000I249998J0D01*
G01*
X131625002Y-103800000D01*
G75*
G02*
X131875000Y-104049998I0J-249998D01*
G01*
X131875000Y-104950002D01*
G75*
G02*
X131625002Y-105200000I-249998J0D01*
G01*
X131099998Y-105200000D01*
G75*
G02*
X130850000Y-104950002I0J249998D01*
G01*
G37*
G36*
G01*
X129025000Y-104950002D02*
X129025000Y-104049998D01*
G75*
G02*
X129274998Y-103800000I249998J0D01*
G01*
X129800002Y-103800000D01*
G75*
G02*
X130050000Y-104049998I0J-249998D01*
G01*
X130050000Y-104950002D01*
G75*
G02*
X129800002Y-105200000I-249998J0D01*
G01*
X129274998Y-105200000D01*
G75*
G02*
X129025000Y-104950002I0J249998D01*
G01*
G37*
G36*
G01*
X147022480Y-117049998D02*
X147022480Y-117950002D01*
G75*
G02*
X146772482Y-118200000I-249998J0D01*
G01*
X146247478Y-118200000D01*
G75*
G02*
X145997480Y-117950002I0J249998D01*
G01*
X145997480Y-117049998D01*
G75*
G02*
X146247478Y-116800000I249998J0D01*
G01*
X146772482Y-116800000D01*
G75*
G02*
X147022480Y-117049998I0J-249998D01*
G01*
G37*
G36*
G01*
X148847480Y-117049998D02*
X148847480Y-117950002D01*
G75*
G02*
X148597482Y-118200000I-249998J0D01*
G01*
X148072478Y-118200000D01*
G75*
G02*
X147822480Y-117950002I0J249998D01*
G01*
X147822480Y-117049998D01*
G75*
G02*
X148072478Y-116800000I249998J0D01*
G01*
X148597482Y-116800000D01*
G75*
G02*
X148847480Y-117049998I0J-249998D01*
G01*
G37*
G36*
G01*
X116395000Y-66750002D02*
X116395000Y-65849998D01*
G75*
G02*
X116644998Y-65600000I249998J0D01*
G01*
X117170002Y-65600000D01*
G75*
G02*
X117420000Y-65849998I0J-249998D01*
G01*
X117420000Y-66750002D01*
G75*
G02*
X117170002Y-67000000I-249998J0D01*
G01*
X116644998Y-67000000D01*
G75*
G02*
X116395000Y-66750002I0J249998D01*
G01*
G37*
G36*
G01*
X114570000Y-66750002D02*
X114570000Y-65849998D01*
G75*
G02*
X114819998Y-65600000I249998J0D01*
G01*
X115345002Y-65600000D01*
G75*
G02*
X115595000Y-65849998I0J-249998D01*
G01*
X115595000Y-66750002D01*
G75*
G02*
X115345002Y-67000000I-249998J0D01*
G01*
X114819998Y-67000000D01*
G75*
G02*
X114570000Y-66750002I0J249998D01*
G01*
G37*
G36*
G01*
X109587240Y-124025002D02*
X109587240Y-123124998D01*
G75*
G02*
X109837238Y-122875000I249998J0D01*
G01*
X110362242Y-122875000D01*
G75*
G02*
X110612240Y-123124998I0J-249998D01*
G01*
X110612240Y-124025002D01*
G75*
G02*
X110362242Y-124275000I-249998J0D01*
G01*
X109837238Y-124275000D01*
G75*
G02*
X109587240Y-124025002I0J249998D01*
G01*
G37*
G36*
G01*
X107762240Y-124025002D02*
X107762240Y-123124998D01*
G75*
G02*
X108012238Y-122875000I249998J0D01*
G01*
X108537242Y-122875000D01*
G75*
G02*
X108787240Y-123124998I0J-249998D01*
G01*
X108787240Y-124025002D01*
G75*
G02*
X108537242Y-124275000I-249998J0D01*
G01*
X108012238Y-124275000D01*
G75*
G02*
X107762240Y-124025002I0J249998D01*
G01*
G37*
G36*
G01*
X92825000Y-65675002D02*
X92825000Y-64774998D01*
G75*
G02*
X93074998Y-64525000I249998J0D01*
G01*
X93600002Y-64525000D01*
G75*
G02*
X93850000Y-64774998I0J-249998D01*
G01*
X93850000Y-65675002D01*
G75*
G02*
X93600002Y-65925000I-249998J0D01*
G01*
X93074998Y-65925000D01*
G75*
G02*
X92825000Y-65675002I0J249998D01*
G01*
G37*
G36*
G01*
X91000000Y-65675002D02*
X91000000Y-64774998D01*
G75*
G02*
X91249998Y-64525000I249998J0D01*
G01*
X91775002Y-64525000D01*
G75*
G02*
X92025000Y-64774998I0J-249998D01*
G01*
X92025000Y-65675002D01*
G75*
G02*
X91775002Y-65925000I-249998J0D01*
G01*
X91249998Y-65925000D01*
G75*
G02*
X91000000Y-65675002I0J249998D01*
G01*
G37*
G36*
G01*
X158024998Y-80570000D02*
X158925002Y-80570000D01*
G75*
G02*
X159175000Y-80819998I0J-249998D01*
G01*
X159175000Y-81345002D01*
G75*
G02*
X158925002Y-81595000I-249998J0D01*
G01*
X158024998Y-81595000D01*
G75*
G02*
X157775000Y-81345002I0J249998D01*
G01*
X157775000Y-80819998D01*
G75*
G02*
X158024998Y-80570000I249998J0D01*
G01*
G37*
G36*
G01*
X158024998Y-78745000D02*
X158925002Y-78745000D01*
G75*
G02*
X159175000Y-78994998I0J-249998D01*
G01*
X159175000Y-79520002D01*
G75*
G02*
X158925002Y-79770000I-249998J0D01*
G01*
X158024998Y-79770000D01*
G75*
G02*
X157775000Y-79520002I0J249998D01*
G01*
X157775000Y-78994998D01*
G75*
G02*
X158024998Y-78745000I249998J0D01*
G01*
G37*
G36*
G01*
X151325000Y-80549998D02*
X151325000Y-81450002D01*
G75*
G02*
X151075002Y-81700000I-249998J0D01*
G01*
X150549998Y-81700000D01*
G75*
G02*
X150300000Y-81450002I0J249998D01*
G01*
X150300000Y-80549998D01*
G75*
G02*
X150549998Y-80300000I249998J0D01*
G01*
X151075002Y-80300000D01*
G75*
G02*
X151325000Y-80549998I0J-249998D01*
G01*
G37*
G36*
G01*
X153150000Y-80549998D02*
X153150000Y-81450002D01*
G75*
G02*
X152900002Y-81700000I-249998J0D01*
G01*
X152374998Y-81700000D01*
G75*
G02*
X152125000Y-81450002I0J249998D01*
G01*
X152125000Y-80549998D01*
G75*
G02*
X152374998Y-80300000I249998J0D01*
G01*
X152900002Y-80300000D01*
G75*
G02*
X153150000Y-80549998I0J-249998D01*
G01*
G37*
G36*
G01*
X161525000Y-54925002D02*
X161525000Y-54024998D01*
G75*
G02*
X161774998Y-53775000I249998J0D01*
G01*
X162300002Y-53775000D01*
G75*
G02*
X162550000Y-54024998I0J-249998D01*
G01*
X162550000Y-54925002D01*
G75*
G02*
X162300002Y-55175000I-249998J0D01*
G01*
X161774998Y-55175000D01*
G75*
G02*
X161525000Y-54925002I0J249998D01*
G01*
G37*
G36*
G01*
X159700000Y-54925002D02*
X159700000Y-54024998D01*
G75*
G02*
X159949998Y-53775000I249998J0D01*
G01*
X160475002Y-53775000D01*
G75*
G02*
X160725000Y-54024998I0J-249998D01*
G01*
X160725000Y-54925002D01*
G75*
G02*
X160475002Y-55175000I-249998J0D01*
G01*
X159949998Y-55175000D01*
G75*
G02*
X159700000Y-54925002I0J249998D01*
G01*
G37*
G36*
G01*
X180750000Y-54975002D02*
X180750000Y-54074998D01*
G75*
G02*
X180999998Y-53825000I249998J0D01*
G01*
X181525002Y-53825000D01*
G75*
G02*
X181775000Y-54074998I0J-249998D01*
G01*
X181775000Y-54975002D01*
G75*
G02*
X181525002Y-55225000I-249998J0D01*
G01*
X180999998Y-55225000D01*
G75*
G02*
X180750000Y-54975002I0J249998D01*
G01*
G37*
G36*
G01*
X178925000Y-54975002D02*
X178925000Y-54074998D01*
G75*
G02*
X179174998Y-53825000I249998J0D01*
G01*
X179700002Y-53825000D01*
G75*
G02*
X179950000Y-54074998I0J-249998D01*
G01*
X179950000Y-54975002D01*
G75*
G02*
X179700002Y-55225000I-249998J0D01*
G01*
X179174998Y-55225000D01*
G75*
G02*
X178925000Y-54975002I0J249998D01*
G01*
G37*
G36*
G01*
X206950000Y-64750002D02*
X206950000Y-63849998D01*
G75*
G02*
X207199998Y-63600000I249998J0D01*
G01*
X207725002Y-63600000D01*
G75*
G02*
X207975000Y-63849998I0J-249998D01*
G01*
X207975000Y-64750002D01*
G75*
G02*
X207725002Y-65000000I-249998J0D01*
G01*
X207199998Y-65000000D01*
G75*
G02*
X206950000Y-64750002I0J249998D01*
G01*
G37*
G36*
G01*
X205125000Y-64750002D02*
X205125000Y-63849998D01*
G75*
G02*
X205374998Y-63600000I249998J0D01*
G01*
X205900002Y-63600000D01*
G75*
G02*
X206150000Y-63849998I0J-249998D01*
G01*
X206150000Y-64750002D01*
G75*
G02*
X205900002Y-65000000I-249998J0D01*
G01*
X205374998Y-65000000D01*
G75*
G02*
X205125000Y-64750002I0J249998D01*
G01*
G37*
G36*
G01*
X206249998Y-71550000D02*
X207150002Y-71550000D01*
G75*
G02*
X207400000Y-71799998I0J-249998D01*
G01*
X207400000Y-72325002D01*
G75*
G02*
X207150002Y-72575000I-249998J0D01*
G01*
X206249998Y-72575000D01*
G75*
G02*
X206000000Y-72325002I0J249998D01*
G01*
X206000000Y-71799998D01*
G75*
G02*
X206249998Y-71550000I249998J0D01*
G01*
G37*
G36*
G01*
X206249998Y-69725000D02*
X207150002Y-69725000D01*
G75*
G02*
X207400000Y-69974998I0J-249998D01*
G01*
X207400000Y-70500002D01*
G75*
G02*
X207150002Y-70750000I-249998J0D01*
G01*
X206249998Y-70750000D01*
G75*
G02*
X206000000Y-70500002I0J249998D01*
G01*
X206000000Y-69974998D01*
G75*
G02*
X206249998Y-69725000I249998J0D01*
G01*
G37*
G36*
G01*
X136990000Y-122780002D02*
X136990000Y-121879998D01*
G75*
G02*
X137239998Y-121630000I249998J0D01*
G01*
X137765002Y-121630000D01*
G75*
G02*
X138015000Y-121879998I0J-249998D01*
G01*
X138015000Y-122780002D01*
G75*
G02*
X137765002Y-123030000I-249998J0D01*
G01*
X137239998Y-123030000D01*
G75*
G02*
X136990000Y-122780002I0J249998D01*
G01*
G37*
G36*
G01*
X135165000Y-122780002D02*
X135165000Y-121879998D01*
G75*
G02*
X135414998Y-121630000I249998J0D01*
G01*
X135940002Y-121630000D01*
G75*
G02*
X136190000Y-121879998I0J-249998D01*
G01*
X136190000Y-122780002D01*
G75*
G02*
X135940002Y-123030000I-249998J0D01*
G01*
X135414998Y-123030000D01*
G75*
G02*
X135165000Y-122780002I0J249998D01*
G01*
G37*
G36*
G01*
X167599998Y-69450000D02*
X168500002Y-69450000D01*
G75*
G02*
X168750000Y-69699998I0J-249998D01*
G01*
X168750000Y-70225002D01*
G75*
G02*
X168500002Y-70475000I-249998J0D01*
G01*
X167599998Y-70475000D01*
G75*
G02*
X167350000Y-70225002I0J249998D01*
G01*
X167350000Y-69699998D01*
G75*
G02*
X167599998Y-69450000I249998J0D01*
G01*
G37*
G36*
G01*
X167599998Y-67625000D02*
X168500002Y-67625000D01*
G75*
G02*
X168750000Y-67874998I0J-249998D01*
G01*
X168750000Y-68400002D01*
G75*
G02*
X168500002Y-68650000I-249998J0D01*
G01*
X167599998Y-68650000D01*
G75*
G02*
X167350000Y-68400002I0J249998D01*
G01*
X167350000Y-67874998D01*
G75*
G02*
X167599998Y-67625000I249998J0D01*
G01*
G37*
G36*
G01*
X169550000Y-120349998D02*
X169550000Y-121250002D01*
G75*
G02*
X169300002Y-121500000I-249998J0D01*
G01*
X168774998Y-121500000D01*
G75*
G02*
X168525000Y-121250002I0J249998D01*
G01*
X168525000Y-120349998D01*
G75*
G02*
X168774998Y-120100000I249998J0D01*
G01*
X169300002Y-120100000D01*
G75*
G02*
X169550000Y-120349998I0J-249998D01*
G01*
G37*
G36*
G01*
X171375000Y-120349998D02*
X171375000Y-121250002D01*
G75*
G02*
X171125002Y-121500000I-249998J0D01*
G01*
X170599998Y-121500000D01*
G75*
G02*
X170350000Y-121250002I0J249998D01*
G01*
X170350000Y-120349998D01*
G75*
G02*
X170599998Y-120100000I249998J0D01*
G01*
X171125002Y-120100000D01*
G75*
G02*
X171375000Y-120349998I0J-249998D01*
G01*
G37*
G36*
G01*
X95653700Y-64774998D02*
X95653700Y-65675002D01*
G75*
G02*
X95403702Y-65925000I-249998J0D01*
G01*
X94878698Y-65925000D01*
G75*
G02*
X94628700Y-65675002I0J249998D01*
G01*
X94628700Y-64774998D01*
G75*
G02*
X94878698Y-64525000I249998J0D01*
G01*
X95403702Y-64525000D01*
G75*
G02*
X95653700Y-64774998I0J-249998D01*
G01*
G37*
G36*
G01*
X97478700Y-64774998D02*
X97478700Y-65675002D01*
G75*
G02*
X97228702Y-65925000I-249998J0D01*
G01*
X96703698Y-65925000D01*
G75*
G02*
X96453700Y-65675002I0J249998D01*
G01*
X96453700Y-64774998D01*
G75*
G02*
X96703698Y-64525000I249998J0D01*
G01*
X97228702Y-64525000D01*
G75*
G02*
X97478700Y-64774998I0J-249998D01*
G01*
G37*
G36*
G01*
X109587240Y-122075002D02*
X109587240Y-121174998D01*
G75*
G02*
X109837238Y-120925000I249998J0D01*
G01*
X110362242Y-120925000D01*
G75*
G02*
X110612240Y-121174998I0J-249998D01*
G01*
X110612240Y-122075002D01*
G75*
G02*
X110362242Y-122325000I-249998J0D01*
G01*
X109837238Y-122325000D01*
G75*
G02*
X109587240Y-122075002I0J249998D01*
G01*
G37*
G36*
G01*
X107762240Y-122075002D02*
X107762240Y-121174998D01*
G75*
G02*
X108012238Y-120925000I249998J0D01*
G01*
X108537242Y-120925000D01*
G75*
G02*
X108787240Y-121174998I0J-249998D01*
G01*
X108787240Y-122075002D01*
G75*
G02*
X108537242Y-122325000I-249998J0D01*
G01*
X108012238Y-122325000D01*
G75*
G02*
X107762240Y-122075002I0J249998D01*
G01*
G37*
G36*
G01*
X180730000Y-114669998D02*
X180730000Y-115570002D01*
G75*
G02*
X180480002Y-115820000I-249998J0D01*
G01*
X179954998Y-115820000D01*
G75*
G02*
X179705000Y-115570002I0J249998D01*
G01*
X179705000Y-114669998D01*
G75*
G02*
X179954998Y-114420000I249998J0D01*
G01*
X180480002Y-114420000D01*
G75*
G02*
X180730000Y-114669998I0J-249998D01*
G01*
G37*
G36*
G01*
X182555000Y-114669998D02*
X182555000Y-115570002D01*
G75*
G02*
X182305002Y-115820000I-249998J0D01*
G01*
X181779998Y-115820000D01*
G75*
G02*
X181530000Y-115570002I0J249998D01*
G01*
X181530000Y-114669998D01*
G75*
G02*
X181779998Y-114420000I249998J0D01*
G01*
X182305002Y-114420000D01*
G75*
G02*
X182555000Y-114669998I0J-249998D01*
G01*
G37*
G36*
G01*
X176150000Y-123950002D02*
X176150000Y-123049998D01*
G75*
G02*
X176399998Y-122800000I249998J0D01*
G01*
X176925002Y-122800000D01*
G75*
G02*
X177175000Y-123049998I0J-249998D01*
G01*
X177175000Y-123950002D01*
G75*
G02*
X176925002Y-124200000I-249998J0D01*
G01*
X176399998Y-124200000D01*
G75*
G02*
X176150000Y-123950002I0J249998D01*
G01*
G37*
G36*
G01*
X174325000Y-123950002D02*
X174325000Y-123049998D01*
G75*
G02*
X174574998Y-122800000I249998J0D01*
G01*
X175100002Y-122800000D01*
G75*
G02*
X175350000Y-123049998I0J-249998D01*
G01*
X175350000Y-123950002D01*
G75*
G02*
X175100002Y-124200000I-249998J0D01*
G01*
X174574998Y-124200000D01*
G75*
G02*
X174325000Y-123950002I0J249998D01*
G01*
G37*
G36*
G01*
X109587240Y-120125002D02*
X109587240Y-119224998D01*
G75*
G02*
X109837238Y-118975000I249998J0D01*
G01*
X110362242Y-118975000D01*
G75*
G02*
X110612240Y-119224998I0J-249998D01*
G01*
X110612240Y-120125002D01*
G75*
G02*
X110362242Y-120375000I-249998J0D01*
G01*
X109837238Y-120375000D01*
G75*
G02*
X109587240Y-120125002I0J249998D01*
G01*
G37*
G36*
G01*
X107762240Y-120125002D02*
X107762240Y-119224998D01*
G75*
G02*
X108012238Y-118975000I249998J0D01*
G01*
X108537242Y-118975000D01*
G75*
G02*
X108787240Y-119224998I0J-249998D01*
G01*
X108787240Y-120125002D01*
G75*
G02*
X108537242Y-120375000I-249998J0D01*
G01*
X108012238Y-120375000D01*
G75*
G02*
X107762240Y-120125002I0J249998D01*
G01*
G37*
D29*
X168850000Y-63000000D03*
X169800000Y-65000000D03*
X167900000Y-65000000D03*
X155425000Y-79150000D03*
X156375000Y-81150000D03*
X154475000Y-81150000D03*
D25*
X204550000Y-67400000D03*
X206550000Y-66450000D03*
X206550000Y-68350000D03*
D22*
X117510000Y-127900000D03*
D23*
X120050000Y-127900000D03*
D22*
X126870000Y-134290000D03*
X126870000Y-131750000D03*
X129410000Y-134290000D03*
X129410000Y-131750000D03*
X131950000Y-134290000D03*
D23*
X131950000Y-131750000D03*
D34*
X99825000Y-125075000D03*
X99825000Y-123375000D03*
X99825000Y-121675000D03*
X104625000Y-121675000D03*
X104625000Y-123375000D03*
X104625000Y-125075000D03*
G36*
G01*
X188100000Y-84325000D02*
X188100000Y-83375000D01*
G75*
G02*
X188350000Y-83125000I250000J0D01*
G01*
X188850000Y-83125000D01*
G75*
G02*
X189100000Y-83375000I0J-250000D01*
G01*
X189100000Y-84325000D01*
G75*
G02*
X188850000Y-84575000I-250000J0D01*
G01*
X188350000Y-84575000D01*
G75*
G02*
X188100000Y-84325000I0J250000D01*
G01*
G37*
G36*
G01*
X186200000Y-84325000D02*
X186200000Y-83375000D01*
G75*
G02*
X186450000Y-83125000I250000J0D01*
G01*
X186950000Y-83125000D01*
G75*
G02*
X187200000Y-83375000I0J-250000D01*
G01*
X187200000Y-84325000D01*
G75*
G02*
X186950000Y-84575000I-250000J0D01*
G01*
X186450000Y-84575000D01*
G75*
G02*
X186200000Y-84325000I0J250000D01*
G01*
G37*
G36*
G01*
X147892480Y-115815000D02*
X147892480Y-114865000D01*
G75*
G02*
X148142480Y-114615000I250000J0D01*
G01*
X148642480Y-114615000D01*
G75*
G02*
X148892480Y-114865000I0J-250000D01*
G01*
X148892480Y-115815000D01*
G75*
G02*
X148642480Y-116065000I-250000J0D01*
G01*
X148142480Y-116065000D01*
G75*
G02*
X147892480Y-115815000I0J250000D01*
G01*
G37*
G36*
G01*
X145992480Y-115815000D02*
X145992480Y-114865000D01*
G75*
G02*
X146242480Y-114615000I250000J0D01*
G01*
X146742480Y-114615000D01*
G75*
G02*
X146992480Y-114865000I0J-250000D01*
G01*
X146992480Y-115815000D01*
G75*
G02*
X146742480Y-116065000I-250000J0D01*
G01*
X146242480Y-116065000D01*
G75*
G02*
X145992480Y-115815000I0J250000D01*
G01*
G37*
G36*
G01*
X178854200Y-70589001D02*
X178854200Y-69738999D01*
G75*
G02*
X179104199Y-69489000I249999J0D01*
G01*
X180179201Y-69489000D01*
G75*
G02*
X180429200Y-69738999I0J-249999D01*
G01*
X180429200Y-70589001D01*
G75*
G02*
X180179201Y-70839000I-249999J0D01*
G01*
X179104199Y-70839000D01*
G75*
G02*
X178854200Y-70589001I0J249999D01*
G01*
G37*
G36*
G01*
X175979200Y-70589001D02*
X175979200Y-69738999D01*
G75*
G02*
X176229199Y-69489000I249999J0D01*
G01*
X177304201Y-69489000D01*
G75*
G02*
X177554200Y-69738999I0J-249999D01*
G01*
X177554200Y-70589001D01*
G75*
G02*
X177304201Y-70839000I-249999J0D01*
G01*
X176229199Y-70839000D01*
G75*
G02*
X175979200Y-70589001I0J249999D01*
G01*
G37*
G36*
G01*
X176369200Y-68239001D02*
X176369200Y-67388999D01*
G75*
G02*
X176619199Y-67139000I249999J0D01*
G01*
X177694201Y-67139000D01*
G75*
G02*
X177944200Y-67388999I0J-249999D01*
G01*
X177944200Y-68239001D01*
G75*
G02*
X177694201Y-68489000I-249999J0D01*
G01*
X176619199Y-68489000D01*
G75*
G02*
X176369200Y-68239001I0J249999D01*
G01*
G37*
G36*
G01*
X173494200Y-68239001D02*
X173494200Y-67388999D01*
G75*
G02*
X173744199Y-67139000I249999J0D01*
G01*
X174819201Y-67139000D01*
G75*
G02*
X175069200Y-67388999I0J-249999D01*
G01*
X175069200Y-68239001D01*
G75*
G02*
X174819201Y-68489000I-249999J0D01*
G01*
X173744199Y-68489000D01*
G75*
G02*
X173494200Y-68239001I0J249999D01*
G01*
G37*
G36*
G01*
X158800000Y-117375000D02*
X158800000Y-116425000D01*
G75*
G02*
X159050000Y-116175000I250000J0D01*
G01*
X159550000Y-116175000D01*
G75*
G02*
X159800000Y-116425000I0J-250000D01*
G01*
X159800000Y-117375000D01*
G75*
G02*
X159550000Y-117625000I-250000J0D01*
G01*
X159050000Y-117625000D01*
G75*
G02*
X158800000Y-117375000I0J250000D01*
G01*
G37*
G36*
G01*
X156900000Y-117375000D02*
X156900000Y-116425000D01*
G75*
G02*
X157150000Y-116175000I250000J0D01*
G01*
X157650000Y-116175000D01*
G75*
G02*
X157900000Y-116425000I0J-250000D01*
G01*
X157900000Y-117375000D01*
G75*
G02*
X157650000Y-117625000I-250000J0D01*
G01*
X157150000Y-117625000D01*
G75*
G02*
X156900000Y-117375000I0J250000D01*
G01*
G37*
G36*
G01*
X140718980Y-111785800D02*
X140718980Y-110835800D01*
G75*
G02*
X140968980Y-110585800I250000J0D01*
G01*
X141468980Y-110585800D01*
G75*
G02*
X141718980Y-110835800I0J-250000D01*
G01*
X141718980Y-111785800D01*
G75*
G02*
X141468980Y-112035800I-250000J0D01*
G01*
X140968980Y-112035800D01*
G75*
G02*
X140718980Y-111785800I0J250000D01*
G01*
G37*
G36*
G01*
X138818980Y-111785800D02*
X138818980Y-110835800D01*
G75*
G02*
X139068980Y-110585800I250000J0D01*
G01*
X139568980Y-110585800D01*
G75*
G02*
X139818980Y-110835800I0J-250000D01*
G01*
X139818980Y-111785800D01*
G75*
G02*
X139568980Y-112035800I-250000J0D01*
G01*
X139068980Y-112035800D01*
G75*
G02*
X138818980Y-111785800I0J250000D01*
G01*
G37*
D35*
X158850000Y-75250000D03*
D36*
X160850000Y-69250000D03*
D24*
X158850000Y-63250000D03*
D36*
X146650000Y-63250000D03*
X146650000Y-75250000D03*
D35*
X198015000Y-75300000D03*
D36*
X200015000Y-69300000D03*
D24*
X198015000Y-63300000D03*
D36*
X185815000Y-63300000D03*
X185815000Y-75300000D03*
D17*
X168679020Y-133488660D03*
X164869020Y-133488660D03*
X161059020Y-133488660D03*
D18*
X157249020Y-133488660D03*
D17*
X151855686Y-133503660D03*
X148045686Y-133503660D03*
X144235686Y-133503660D03*
D18*
X140425686Y-133503660D03*
D37*
X146060000Y-54400000D03*
X151060000Y-54400000D03*
D38*
X156060000Y-54400000D03*
D37*
X185225000Y-54450000D03*
X190225000Y-54450000D03*
D38*
X195225000Y-54450000D03*
D17*
X113270000Y-133500000D03*
X109460000Y-133500000D03*
X105650000Y-133500000D03*
D18*
X101840000Y-133500000D03*
D39*
X92450000Y-54200000D03*
X92450000Y-134200000D03*
X207400000Y-134150000D03*
X207400000Y-54200000D03*
M02*
