%TF.GenerationSoftware,KiCad,Pcbnew,7.0.5*%
%TF.CreationDate,2024-01-10T15:42:08+00:00*%
%TF.ProjectId,TemperaturePCB_PANEL,54656d70-6572-4617-9475-72655043425f,rev?*%
%TF.SameCoordinates,Original*%
%TF.FileFunction,Soldermask,Bot*%
%TF.FilePolarity,Negative*%
%FSLAX46Y46*%
G04 Gerber Fmt 4.6, Leading zero omitted, Abs format (unit mm)*
G04 Created by KiCad (PCBNEW 7.0.5) date 2024-01-10 15:42:08*
%MOMM*%
%LPD*%
G01*
G04 APERTURE LIST*
%ADD10C,0.500000*%
%ADD11C,0.900000*%
%ADD12C,13.000000*%
G04 APERTURE END LIST*
D10*
%TO.C,KiKit_MB_42_3*%
X190500000Y-74123756D03*
%TD*%
%TO.C,KiKit_MB_31_3*%
X146500000Y-75123756D03*
%TD*%
%TO.C,KiKit_MB_31_2*%
X146500000Y-74123756D03*
%TD*%
%TO.C,KiKit_MB_39_3*%
X186500000Y-75123756D03*
%TD*%
%TO.C,KiKit_MB_16_1*%
X170500000Y-42373756D03*
%TD*%
%TO.C,KiKit_MB_23_1*%
X106500000Y-73123756D03*
%TD*%
%TO.C,KiKit_MB_13_3*%
X166500000Y-41373756D03*
%TD*%
%TO.C,KiKit_MB_7_3*%
X118000000Y-55747513D03*
%TD*%
%TO.C,KiKit_MB_10_4*%
X140000000Y-26141453D03*
%TD*%
%TO.C,KiKit_MB_16_2*%
X170500000Y-41373756D03*
%TD*%
%TO.C,KiKit_MB_37_1*%
X160000000Y-89497513D03*
%TD*%
%TO.C,KiKit_MB_20_2*%
X190500000Y-41373756D03*
%TD*%
%TO.C,KiKit_MB_10_1*%
X137000000Y-26141453D03*
%TD*%
%TO.C,KiKit_MB_10_2*%
X137997319Y-26015134D03*
%TD*%
%TO.C,KiKit_MB_33_2*%
X139000000Y-89497513D03*
%TD*%
%TO.C,KiKit_MB_32_3*%
X139002680Y-59765133D03*
%TD*%
%TO.C,KiKit_MB_36_1*%
X157000000Y-59891452D03*
%TD*%
%TO.C,KiKit_MB_28_4*%
X120000000Y-59891452D03*
%TD*%
%TO.C,KiKit_MB_29_3*%
X118000000Y-89497513D03*
%TD*%
%TO.C,KiKit_MB_1_4*%
X106500000Y-42373756D03*
%TD*%
%TO.C,KiKit_MB_17_4*%
X186500000Y-42373756D03*
%TD*%
%TO.C,KiKit_MB_39_2*%
X186500000Y-74123756D03*
%TD*%
%TO.C,KiKit_MB_31_1*%
X146500000Y-73123756D03*
%TD*%
%TO.C,KiKit_MB_14_1*%
X157000000Y-26141453D03*
%TD*%
%TO.C,KiKit_MB_18_2*%
X177997319Y-26015134D03*
%TD*%
%TO.C,KiKit_MB_10_3*%
X139002680Y-26015134D03*
%TD*%
%TO.C,KiKit_MB_12_1*%
X150500000Y-42373756D03*
%TD*%
%TO.C,KiKit_MB_43_1*%
X197000000Y-59891452D03*
%TD*%
%TO.C,KiKit_MB_8_1*%
X130500000Y-42373756D03*
%TD*%
%TO.C,KiKit_MB_35_1*%
X166500000Y-73123756D03*
%TD*%
%TO.C,KiKit_MB_11_3*%
X138000000Y-55747513D03*
%TD*%
%TO.C,KiKit_MB_25_2*%
X99000000Y-89497513D03*
%TD*%
%TO.C,KiKit_MB_28_2*%
X117997319Y-59765133D03*
%TD*%
%TO.C,KiKit_MB_39_1*%
X186500000Y-73123756D03*
%TD*%
D11*
%TO.C,H1*%
X113730887Y-67103400D03*
X115158741Y-63656254D03*
X115158741Y-70550546D03*
X118605887Y-62228400D03*
D12*
X118605887Y-67103400D03*
D11*
X118605887Y-71978400D03*
X122053033Y-63656254D03*
X122053033Y-70550546D03*
X123480887Y-67103400D03*
%TD*%
D10*
%TO.C,KiKit_MB_35_3*%
X166500000Y-75123756D03*
%TD*%
%TO.C,KiKit_MB_2_3*%
X99002680Y-26015134D03*
%TD*%
%TO.C,KiKit_MB_18_1*%
X177000000Y-26141453D03*
%TD*%
%TO.C,KiKit_MB_17_2*%
X186500000Y-40373757D03*
%TD*%
%TO.C,KiKit_MB_33_3*%
X138000000Y-89497513D03*
%TD*%
D11*
%TO.C,H1*%
X153730887Y-33353400D03*
X155158741Y-29906254D03*
X155158741Y-36800546D03*
X158605887Y-28478400D03*
D12*
X158605887Y-33353400D03*
D11*
X158605887Y-38228400D03*
X162053033Y-29906254D03*
X162053033Y-36800546D03*
X163480887Y-33353400D03*
%TD*%
D10*
%TO.C,KiKit_MB_7_1*%
X120000000Y-55747513D03*
%TD*%
%TO.C,KiKit_MB_44_4*%
X197000000Y-89497513D03*
%TD*%
%TO.C,KiKit_MB_4_4*%
X110500000Y-39373757D03*
%TD*%
%TO.C,KiKit_MB_7_2*%
X119000000Y-55747513D03*
%TD*%
%TO.C,KiKit_MB_26_3*%
X110500000Y-74123756D03*
%TD*%
%TO.C,KiKit_MB_20_4*%
X190500000Y-39373757D03*
%TD*%
%TO.C,KiKit_MB_12_2*%
X150500000Y-41373756D03*
%TD*%
%TO.C,KiKit_MB_44_3*%
X198000000Y-89497513D03*
%TD*%
%TO.C,KiKit_MB_25_4*%
X97000000Y-89497513D03*
%TD*%
%TO.C,KiKit_MB_23_3*%
X106500000Y-75123756D03*
%TD*%
%TO.C,KiKit_MB_22_4*%
X197000000Y-55747513D03*
%TD*%
%TO.C,KiKit_MB_30_4*%
X130500000Y-73123756D03*
%TD*%
%TO.C,KiKit_MB_30_2*%
X130500000Y-75123756D03*
%TD*%
%TO.C,KiKit_MB_11_2*%
X139000000Y-55747513D03*
%TD*%
%TO.C,KiKit_MB_9_1*%
X146500000Y-39373757D03*
%TD*%
%TO.C,KiKit_MB_41_1*%
X180000000Y-89497513D03*
%TD*%
D11*
%TO.C,H1*%
X173730887Y-33353400D03*
X175158741Y-29906254D03*
X175158741Y-36800546D03*
X178605887Y-28478400D03*
D12*
X178605887Y-33353400D03*
D11*
X178605887Y-38228400D03*
X182053033Y-29906254D03*
X182053033Y-36800546D03*
X183480887Y-33353400D03*
%TD*%
D10*
%TO.C,KiKit_MB_9_2*%
X146500000Y-40373757D03*
%TD*%
D11*
%TO.C,H1*%
X173730887Y-67103400D03*
X175158741Y-63656254D03*
X175158741Y-70550546D03*
X178605887Y-62228400D03*
D12*
X178605887Y-67103400D03*
D11*
X178605887Y-71978400D03*
X182053033Y-63656254D03*
X182053033Y-70550546D03*
X183480887Y-67103400D03*
%TD*%
D10*
%TO.C,KiKit_MB_4_3*%
X110500000Y-40373757D03*
%TD*%
%TO.C,KiKit_MB_40_3*%
X179002680Y-59765133D03*
%TD*%
%TO.C,KiKit_MB_15_4*%
X157000000Y-55747513D03*
%TD*%
%TO.C,KiKit_MB_38_1*%
X170500000Y-76123756D03*
%TD*%
%TO.C,KiKit_MB_34_1*%
X150500000Y-76123756D03*
%TD*%
%TO.C,KiKit_MB_38_3*%
X170500000Y-74123756D03*
%TD*%
D11*
%TO.C,H1*%
X93730887Y-33353400D03*
X95158741Y-29906254D03*
X95158741Y-36800546D03*
X98605887Y-28478400D03*
D12*
X98605887Y-33353400D03*
D11*
X98605887Y-38228400D03*
X102053033Y-29906254D03*
X102053033Y-36800546D03*
X103480887Y-33353400D03*
%TD*%
D10*
%TO.C,KiKit_MB_28_3*%
X119002680Y-59765133D03*
%TD*%
%TO.C,KiKit_MB_43_3*%
X199002680Y-59765133D03*
%TD*%
%TO.C,KiKit_MB_22_2*%
X199000000Y-55747513D03*
%TD*%
%TO.C,KiKit_MB_18_3*%
X179002680Y-26015134D03*
%TD*%
%TO.C,KiKit_MB_35_2*%
X166500000Y-74123756D03*
%TD*%
%TO.C,KiKit_MB_43_2*%
X197997319Y-59765133D03*
%TD*%
%TO.C,KiKit_MB_18_4*%
X180000000Y-26141453D03*
%TD*%
D11*
%TO.C,H1*%
X193730887Y-33353400D03*
X195158741Y-29906254D03*
X195158741Y-36800546D03*
X198605887Y-28478400D03*
D12*
X198605887Y-33353400D03*
D11*
X198605887Y-38228400D03*
X202053033Y-29906254D03*
X202053033Y-36800546D03*
X203480887Y-33353400D03*
%TD*%
D10*
%TO.C,KiKit_MB_24_3*%
X99002680Y-59765133D03*
%TD*%
%TO.C,KiKit_MB_1_1*%
X106500000Y-39373757D03*
%TD*%
%TO.C,KiKit_MB_32_4*%
X140000000Y-59891452D03*
%TD*%
%TO.C,KiKit_MB_41_3*%
X178000000Y-89497513D03*
%TD*%
%TO.C,KiKit_MB_29_4*%
X117000000Y-89497513D03*
%TD*%
%TO.C,KiKit_MB_13_2*%
X166500000Y-40373757D03*
%TD*%
%TO.C,KiKit_MB_1_2*%
X106500000Y-40373757D03*
%TD*%
%TO.C,KiKit_MB_30_3*%
X130500000Y-74123756D03*
%TD*%
%TO.C,KiKit_MB_3_2*%
X99000000Y-55747513D03*
%TD*%
%TO.C,KiKit_MB_41_2*%
X179000000Y-89497513D03*
%TD*%
%TO.C,KiKit_MB_36_3*%
X159002680Y-59765133D03*
%TD*%
%TO.C,KiKit_MB_8_4*%
X130500000Y-39373757D03*
%TD*%
%TO.C,KiKit_MB_23_4*%
X106500000Y-76123756D03*
%TD*%
%TO.C,KiKit_MB_26_4*%
X110500000Y-73123756D03*
%TD*%
%TO.C,KiKit_MB_40_1*%
X177000000Y-59891452D03*
%TD*%
%TO.C,KiKit_MB_25_1*%
X100000000Y-89497513D03*
%TD*%
%TO.C,KiKit_MB_6_2*%
X117997319Y-26015134D03*
%TD*%
%TO.C,KiKit_MB_3_4*%
X97000000Y-55747513D03*
%TD*%
D11*
%TO.C,H1*%
X193730887Y-67103400D03*
X195158741Y-63656254D03*
X195158741Y-70550546D03*
X198605887Y-62228400D03*
D12*
X198605887Y-67103400D03*
D11*
X198605887Y-71978400D03*
X202053033Y-63656254D03*
X202053033Y-70550546D03*
X203480887Y-67103400D03*
%TD*%
D10*
%TO.C,KiKit_MB_15_1*%
X160000000Y-55747513D03*
%TD*%
%TO.C,KiKit_MB_29_1*%
X120000000Y-89497513D03*
%TD*%
%TO.C,KiKit_MB_20_3*%
X190500000Y-40373757D03*
%TD*%
%TO.C,KiKit_MB_19_2*%
X179000000Y-55747513D03*
%TD*%
%TO.C,KiKit_MB_44_1*%
X200000000Y-89497513D03*
%TD*%
%TO.C,KiKit_MB_38_2*%
X170500000Y-75123756D03*
%TD*%
%TO.C,KiKit_MB_1_3*%
X106500000Y-41373756D03*
%TD*%
%TO.C,KiKit_MB_27_4*%
X126500000Y-76123756D03*
%TD*%
%TO.C,KiKit_MB_35_4*%
X166500000Y-76123756D03*
%TD*%
%TO.C,KiKit_MB_40_4*%
X180000000Y-59891452D03*
%TD*%
D11*
%TO.C,H1*%
X133730887Y-33353400D03*
X135158741Y-29906254D03*
X135158741Y-36800546D03*
X138605887Y-28478400D03*
D12*
X138605887Y-33353400D03*
D11*
X138605887Y-38228400D03*
X142053033Y-29906254D03*
X142053033Y-36800546D03*
X143480887Y-33353400D03*
%TD*%
D10*
%TO.C,KiKit_MB_5_2*%
X126500000Y-40373757D03*
%TD*%
%TO.C,KiKit_MB_37_3*%
X158000000Y-89497513D03*
%TD*%
%TO.C,KiKit_MB_27_1*%
X126500000Y-73123756D03*
%TD*%
%TO.C,KiKit_MB_16_4*%
X170500000Y-39373757D03*
%TD*%
%TO.C,KiKit_MB_31_4*%
X146500000Y-76123756D03*
%TD*%
%TO.C,KiKit_MB_3_3*%
X98000000Y-55747513D03*
%TD*%
%TO.C,KiKit_MB_9_3*%
X146500000Y-41373756D03*
%TD*%
%TO.C,KiKit_MB_27_3*%
X126500000Y-75123756D03*
%TD*%
%TO.C,KiKit_MB_37_2*%
X159000000Y-89497513D03*
%TD*%
%TO.C,KiKit_MB_43_4*%
X200000000Y-59891452D03*
%TD*%
%TO.C,KiKit_MB_27_2*%
X126500000Y-74123756D03*
%TD*%
%TO.C,KiKit_MB_34_2*%
X150500000Y-75123756D03*
%TD*%
%TO.C,KiKit_MB_17_3*%
X186500000Y-41373756D03*
%TD*%
%TO.C,KiKit_MB_4_2*%
X110500000Y-41373756D03*
%TD*%
%TO.C,KiKit_MB_11_1*%
X140000000Y-55747513D03*
%TD*%
%TO.C,KiKit_MB_8_3*%
X130500000Y-40373757D03*
%TD*%
%TO.C,KiKit_MB_33_4*%
X137000000Y-89497513D03*
%TD*%
%TO.C,KiKit_MB_13_4*%
X166500000Y-42373756D03*
%TD*%
%TO.C,KiKit_MB_38_4*%
X170500000Y-73123756D03*
%TD*%
%TO.C,KiKit_MB_12_3*%
X150500000Y-40373757D03*
%TD*%
%TO.C,KiKit_MB_36_4*%
X160000000Y-59891452D03*
%TD*%
%TO.C,KiKit_MB_29_2*%
X119000000Y-89497513D03*
%TD*%
%TO.C,KiKit_MB_21_2*%
X197997319Y-26015134D03*
%TD*%
%TO.C,KiKit_MB_24_4*%
X99999999Y-59891452D03*
%TD*%
%TO.C,KiKit_MB_28_1*%
X117000000Y-59891452D03*
%TD*%
%TO.C,KiKit_MB_32_1*%
X137000000Y-59891452D03*
%TD*%
%TO.C,KiKit_MB_14_3*%
X159002680Y-26015134D03*
%TD*%
%TO.C,KiKit_MB_16_3*%
X170500000Y-40373757D03*
%TD*%
%TO.C,KiKit_MB_44_2*%
X199000000Y-89497513D03*
%TD*%
%TO.C,KiKit_MB_34_4*%
X150500000Y-73123756D03*
%TD*%
%TO.C,KiKit_MB_19_3*%
X178000000Y-55747513D03*
%TD*%
%TO.C,KiKit_MB_2_2*%
X97997320Y-26015134D03*
%TD*%
D11*
%TO.C,H1*%
X113730887Y-33353400D03*
X115158741Y-29906254D03*
X115158741Y-36800546D03*
X118605887Y-28478400D03*
D12*
X118605887Y-33353400D03*
D11*
X118605887Y-38228400D03*
X122053033Y-29906254D03*
X122053033Y-36800546D03*
X123480887Y-33353400D03*
%TD*%
D10*
%TO.C,KiKit_MB_41_4*%
X177000000Y-89497513D03*
%TD*%
%TO.C,KiKit_MB_5_1*%
X126500000Y-39373757D03*
%TD*%
%TO.C,KiKit_MB_13_1*%
X166500000Y-39373757D03*
%TD*%
%TO.C,KiKit_MB_6_3*%
X119002680Y-26015134D03*
%TD*%
%TO.C,KiKit_MB_26_1*%
X110500000Y-76123756D03*
%TD*%
%TO.C,KiKit_MB_20_1*%
X190500000Y-42373756D03*
%TD*%
%TO.C,KiKit_MB_17_1*%
X186500000Y-39373757D03*
%TD*%
%TO.C,KiKit_MB_11_4*%
X137000000Y-55747513D03*
%TD*%
%TO.C,KiKit_MB_36_2*%
X157997319Y-59765133D03*
%TD*%
D11*
%TO.C,H1*%
X153730887Y-67103400D03*
X155158741Y-63656254D03*
X155158741Y-70550546D03*
X158605887Y-62228400D03*
D12*
X158605887Y-67103400D03*
D11*
X158605887Y-71978400D03*
X162053033Y-63656254D03*
X162053033Y-70550546D03*
X163480887Y-67103400D03*
%TD*%
D10*
%TO.C,KiKit_MB_2_1*%
X97000000Y-26141453D03*
%TD*%
%TO.C,KiKit_MB_21_3*%
X199002680Y-26015134D03*
%TD*%
%TO.C,KiKit_MB_5_3*%
X126500000Y-41373756D03*
%TD*%
%TO.C,KiKit_MB_22_1*%
X200000000Y-55747513D03*
%TD*%
%TO.C,KiKit_MB_8_2*%
X130500000Y-41373756D03*
%TD*%
%TO.C,KiKit_MB_23_2*%
X106500000Y-74123756D03*
%TD*%
%TO.C,KiKit_MB_22_3*%
X198000000Y-55747513D03*
%TD*%
%TO.C,KiKit_MB_15_3*%
X158000000Y-55747513D03*
%TD*%
%TO.C,KiKit_MB_39_4*%
X186500000Y-76123756D03*
%TD*%
%TO.C,KiKit_MB_6_1*%
X117000000Y-26141453D03*
%TD*%
%TO.C,KiKit_MB_26_2*%
X110500000Y-75123756D03*
%TD*%
%TO.C,KiKit_MB_32_2*%
X137997319Y-59765133D03*
%TD*%
%TO.C,KiKit_MB_21_4*%
X200000000Y-26141453D03*
%TD*%
%TO.C,KiKit_MB_5_4*%
X126500000Y-42373756D03*
%TD*%
%TO.C,KiKit_MB_30_1*%
X130500000Y-76123756D03*
%TD*%
%TO.C,KiKit_MB_24_2*%
X97997320Y-59765133D03*
%TD*%
%TO.C,KiKit_MB_19_1*%
X180000000Y-55747513D03*
%TD*%
%TO.C,KiKit_MB_14_4*%
X160000000Y-26141453D03*
%TD*%
%TO.C,KiKit_MB_40_2*%
X177997319Y-59765133D03*
%TD*%
%TO.C,KiKit_MB_3_1*%
X100000000Y-55747513D03*
%TD*%
%TO.C,KiKit_MB_9_4*%
X146500000Y-42373756D03*
%TD*%
%TO.C,KiKit_MB_25_3*%
X98000000Y-89497513D03*
%TD*%
%TO.C,KiKit_MB_6_4*%
X120000000Y-26141453D03*
%TD*%
%TO.C,KiKit_MB_19_4*%
X177000000Y-55747513D03*
%TD*%
%TO.C,KiKit_MB_42_2*%
X190500000Y-75123756D03*
%TD*%
%TO.C,KiKit_MB_37_4*%
X157000000Y-89497513D03*
%TD*%
%TO.C,KiKit_MB_34_3*%
X150500000Y-74123756D03*
%TD*%
%TO.C,KiKit_MB_15_2*%
X159000000Y-55747513D03*
%TD*%
D11*
%TO.C,H1*%
X133730887Y-67103400D03*
X135158741Y-63656254D03*
X135158741Y-70550546D03*
X138605887Y-62228400D03*
D12*
X138605887Y-67103400D03*
D11*
X138605887Y-71978400D03*
X142053033Y-63656254D03*
X142053033Y-70550546D03*
X143480887Y-67103400D03*
%TD*%
D10*
%TO.C,KiKit_MB_42_1*%
X190500000Y-76123756D03*
%TD*%
%TO.C,KiKit_MB_7_4*%
X117000000Y-55747513D03*
%TD*%
D11*
%TO.C,H1*%
X93730887Y-67103400D03*
X95158741Y-63656254D03*
X95158741Y-70550546D03*
X98605887Y-62228400D03*
D12*
X98605887Y-67103400D03*
D11*
X98605887Y-71978400D03*
X102053033Y-63656254D03*
X102053033Y-70550546D03*
X103480887Y-67103400D03*
%TD*%
D10*
%TO.C,KiKit_MB_42_4*%
X190500000Y-73123756D03*
%TD*%
%TO.C,KiKit_MB_12_4*%
X150500000Y-39373757D03*
%TD*%
%TO.C,KiKit_MB_24_1*%
X97000000Y-59891452D03*
%TD*%
%TO.C,KiKit_MB_4_1*%
X110500000Y-42373756D03*
%TD*%
%TO.C,KiKit_MB_14_2*%
X157997319Y-26015134D03*
%TD*%
%TO.C,KiKit_MB_2_4*%
X99999999Y-26141453D03*
%TD*%
%TO.C,KiKit_MB_33_1*%
X140000000Y-89497513D03*
%TD*%
%TO.C,KiKit_MB_21_1*%
X197000000Y-26141453D03*
%TD*%
M02*
