M48
; DRILL file {KiCad 7.0.5} date Wed Jan 10 15:42:04 2024
; FORMAT={-:-/ absolute / metric / decimal}
; #@! TF.CreationDate,2024-01-10T15:42:04+00:00
; #@! TF.GenerationSoftware,Kicad,Pcbnew,7.0.5
; #@! TF.FileFunction,Plated,1,2,PTH
FMAT,2
METRIC
; #@! TA.AperFunction,Plated,PTH,ComponentDrill
T1C0.600
; #@! TA.AperFunction,Plated,PTH,ComponentDrill
T2C6.500
%
G90
G05
T1
X93.731Y-33.353
X93.731Y-67.103
X95.159Y-29.906
X95.159Y-36.801
X95.159Y-63.656
X95.159Y-70.551
X98.606Y-28.478
X98.606Y-38.228
X98.606Y-62.228
X98.606Y-71.978
X102.053Y-29.906
X102.053Y-36.801
X102.053Y-63.656
X102.053Y-70.551
X103.481Y-33.353
X103.481Y-67.103
X113.731Y-33.353
X113.731Y-67.103
X115.159Y-29.906
X115.159Y-36.801
X115.159Y-63.656
X115.159Y-70.551
X118.606Y-28.478
X118.606Y-38.228
X118.606Y-62.228
X118.606Y-71.978
X122.053Y-29.906
X122.053Y-36.801
X122.053Y-63.656
X122.053Y-70.551
X123.481Y-33.353
X123.481Y-67.103
X133.731Y-33.353
X133.731Y-67.103
X135.159Y-29.906
X135.159Y-36.801
X135.159Y-63.656
X135.159Y-70.551
X138.606Y-28.478
X138.606Y-38.228
X138.606Y-62.228
X138.606Y-71.978
X142.053Y-29.906
X142.053Y-36.801
X142.053Y-63.656
X142.053Y-70.551
X143.481Y-33.353
X143.481Y-67.103
X153.731Y-33.353
X153.731Y-67.103
X155.159Y-29.906
X155.159Y-36.801
X155.159Y-63.656
X155.159Y-70.551
X158.606Y-28.478
X158.606Y-38.228
X158.606Y-62.228
X158.606Y-71.978
X162.053Y-29.906
X162.053Y-36.801
X162.053Y-63.656
X162.053Y-70.551
X163.481Y-33.353
X163.481Y-67.103
X173.731Y-33.353
X173.731Y-67.103
X175.159Y-29.906
X175.159Y-36.801
X175.159Y-63.656
X175.159Y-70.551
X178.606Y-28.478
X178.606Y-38.228
X178.606Y-62.228
X178.606Y-71.978
X182.053Y-29.906
X182.053Y-36.801
X182.053Y-63.656
X182.053Y-70.551
X183.481Y-33.353
X183.481Y-67.103
X193.731Y-33.353
X193.731Y-67.103
X195.159Y-29.906
X195.159Y-36.801
X195.159Y-63.656
X195.159Y-70.551
X198.606Y-28.478
X198.606Y-38.228
X198.606Y-62.228
X198.606Y-71.978
X202.053Y-29.906
X202.053Y-36.801
X202.053Y-63.656
X202.053Y-70.551
X203.481Y-33.353
X203.481Y-67.103
T2
X98.606Y-33.353
X98.606Y-67.103
X118.606Y-33.353
X118.606Y-67.103
X138.606Y-33.353
X138.606Y-67.103
X158.606Y-33.353
X158.606Y-67.103
X178.606Y-33.353
X178.606Y-67.103
X198.606Y-33.353
X198.606Y-67.103
T0
M30
