M48
; DRILL file {KiCad 7.0.5} date Wed Jan 10 15:42:04 2024
; FORMAT={-:-/ absolute / metric / decimal}
; #@! TF.CreationDate,2024-01-10T15:42:04+00:00
; #@! TF.GenerationSoftware,Kicad,Pcbnew,7.0.5
; #@! TF.FileFunction,NonPlated,1,2,NPTH
FMAT,2
METRIC
; #@! TA.AperFunction,NonPlated,NPTH,ComponentDrill
T1C0.500
%
G90
G05
T1
X97.0Y-26.141
X97.0Y-55.748
X97.0Y-59.891
X97.0Y-89.498
X97.997Y-26.015
X97.997Y-59.765
X98.0Y-55.748
X98.0Y-89.498
X99.0Y-55.748
X99.0Y-89.498
X99.003Y-26.015
X99.003Y-59.765
X100.0Y-26.141
X100.0Y-59.891
X100.0Y-55.748
X100.0Y-89.498
X106.5Y-39.374
X106.5Y-40.374
X106.5Y-41.374
X106.5Y-42.374
X106.5Y-73.124
X106.5Y-74.124
X106.5Y-75.124
X106.5Y-76.124
X110.5Y-39.374
X110.5Y-40.374
X110.5Y-41.374
X110.5Y-42.374
X110.5Y-73.124
X110.5Y-74.124
X110.5Y-75.124
X110.5Y-76.124
X117.0Y-26.141
X117.0Y-55.748
X117.0Y-59.891
X117.0Y-89.498
X117.997Y-26.015
X117.997Y-59.765
X118.0Y-55.748
X118.0Y-89.498
X119.0Y-55.748
X119.0Y-89.498
X119.003Y-26.015
X119.003Y-59.765
X120.0Y-26.141
X120.0Y-55.748
X120.0Y-59.891
X120.0Y-89.498
X126.5Y-39.374
X126.5Y-40.374
X126.5Y-41.374
X126.5Y-42.374
X126.5Y-73.124
X126.5Y-74.124
X126.5Y-75.124
X126.5Y-76.124
X130.5Y-39.374
X130.5Y-40.374
X130.5Y-41.374
X130.5Y-42.374
X130.5Y-73.124
X130.5Y-74.124
X130.5Y-75.124
X130.5Y-76.124
X137.0Y-26.141
X137.0Y-55.748
X137.0Y-59.891
X137.0Y-89.498
X137.997Y-26.015
X137.997Y-59.765
X138.0Y-55.748
X138.0Y-89.498
X139.0Y-55.748
X139.0Y-89.498
X139.003Y-26.015
X139.003Y-59.765
X140.0Y-26.141
X140.0Y-55.748
X140.0Y-59.891
X140.0Y-89.498
X146.5Y-39.374
X146.5Y-40.374
X146.5Y-41.374
X146.5Y-42.374
X146.5Y-73.124
X146.5Y-74.124
X146.5Y-75.124
X146.5Y-76.124
X150.5Y-39.374
X150.5Y-40.374
X150.5Y-41.374
X150.5Y-42.374
X150.5Y-73.124
X150.5Y-74.124
X150.5Y-75.124
X150.5Y-76.124
X157.0Y-26.141
X157.0Y-55.748
X157.0Y-59.891
X157.0Y-89.498
X157.997Y-26.015
X157.997Y-59.765
X158.0Y-55.748
X158.0Y-89.498
X159.0Y-55.748
X159.0Y-89.498
X159.003Y-26.015
X159.003Y-59.765
X160.0Y-26.141
X160.0Y-55.748
X160.0Y-59.891
X160.0Y-89.498
X166.5Y-39.374
X166.5Y-40.374
X166.5Y-41.374
X166.5Y-42.374
X166.5Y-73.124
X166.5Y-74.124
X166.5Y-75.124
X166.5Y-76.124
X170.5Y-39.374
X170.5Y-40.374
X170.5Y-41.374
X170.5Y-42.374
X170.5Y-73.124
X170.5Y-74.124
X170.5Y-75.124
X170.5Y-76.124
X177.0Y-26.141
X177.0Y-55.748
X177.0Y-59.891
X177.0Y-89.498
X177.997Y-26.015
X177.997Y-59.765
X178.0Y-55.748
X178.0Y-89.498
X179.0Y-55.748
X179.0Y-89.498
X179.003Y-26.015
X179.003Y-59.765
X180.0Y-26.141
X180.0Y-55.748
X180.0Y-59.891
X180.0Y-89.498
X186.5Y-39.374
X186.5Y-40.374
X186.5Y-41.374
X186.5Y-42.374
X186.5Y-73.124
X186.5Y-74.124
X186.5Y-75.124
X186.5Y-76.124
X190.5Y-39.374
X190.5Y-40.374
X190.5Y-41.374
X190.5Y-42.374
X190.5Y-73.124
X190.5Y-74.124
X190.5Y-75.124
X190.5Y-76.124
X197.0Y-26.141
X197.0Y-55.748
X197.0Y-59.891
X197.0Y-89.498
X197.997Y-26.015
X197.997Y-59.765
X198.0Y-55.748
X198.0Y-89.498
X199.0Y-55.748
X199.0Y-89.498
X199.003Y-26.015
X199.003Y-59.765
X200.0Y-26.141
X200.0Y-55.748
X200.0Y-59.891
X200.0Y-89.498
T0
M30
